<svg width="748" height="693" viewBox="0 0 748 693" fill="none" xmlns="http://www.w3.org/2000/svg">
<path d="M598.749 8.35059H118.107C99.0546 8.35059 83.6094 23.7959 83.6094 42.8486V652.502C83.6094 671.555 99.0546 687 118.107 687H598.749C617.803 687 633.247 671.555 633.247 652.502V42.8486C633.247 23.7959 617.803 8.35059 598.749 8.35059Z" fill="url(#paint0_linear_961_42)"/>
<path d="M136.285 312H138.349V294.408H136.285V312Z" fill="#626262"/>
<path d="M158.752 310.272V301.2H161.368V299.472H158.752V295.32H156.688V299.472H154.408V301.2H156.688V310.248C156.688 311.424 157.288 312 158.512 312H161.392V310.272H158.752Z" fill="#626262"/>
<path d="M167.217 296.112H170.457V294.408H167.145C165.825 294.408 165.153 294.984 165.153 296.136V299.472H162.705V301.2H165.153V312H167.217V301.2H169.929V299.472H167.217V296.112Z" fill="#626262"/>
<path d="M192.869 299.472H188.525C187.253 299.472 186.629 300.096 186.629 301.32V312H188.717V301.2H192.869V299.472Z" fill="#626262"/>
<path d="M195.278 312H197.366V305.328C197.366 302.736 198.662 300.984 200.678 300.984C202.478 300.984 203.39 302.16 203.39 304.488V312H205.454V305.352C205.454 302.688 206.63 300.984 208.718 300.984C210.542 300.984 211.454 302.136 211.454 304.44V312H213.542V304.176C213.542 301.032 211.982 299.232 209.366 299.232C207.47 299.232 206.006 300.144 205.262 301.968H205.07C204.59 300.336 203.246 299.232 201.398 299.232C199.55 299.232 198.278 300.096 197.534 301.8H197.342L197.078 299.472H195.278V312Z" fill="#626262"/>
<path fill-rule="evenodd" clip-rule="evenodd" d="M171.441 305.736C171.441 303.72 171.993 302.136 173.097 300.984C174.201 299.808 175.665 299.232 177.465 299.232C179.265 299.232 180.729 299.808 181.809 300.96C182.913 302.112 183.465 303.696 183.465 305.736C183.465 309.696 181.233 312.24 177.465 312.24C175.593 312.24 174.129 311.664 173.049 310.488C171.969 309.312 171.441 307.728 171.441 305.736ZM173.577 306.768V304.824C173.577 303.696 173.937 302.76 174.657 302.064C175.401 301.344 176.337 300.984 177.465 300.984C179.745 300.984 181.353 302.52 181.353 304.824V306.768C181.353 309.096 179.697 310.512 177.465 310.512C175.257 310.512 173.577 309.144 173.577 306.768Z" fill="#626262"/>
<path fill-rule="evenodd" clip-rule="evenodd" d="M141.464 308.4C141.464 305.928 143.168 304.536 146.024 304.536H149.792V303.576C149.792 301.776 148.856 300.888 146.96 300.888C145.112 300.888 144.104 301.776 144.032 303.216H141.992C142.112 300.72 144.032 299.232 147.08 299.232C148.736 299.232 150.032 299.784 150.68 300.456C150.992 300.792 151.256 301.176 151.448 301.632C151.832 302.52 151.856 303.048 151.856 303.624V310.464H153.704V312H151.568C150.416 312 150.008 311.52 149.936 310.584L149.912 309.936H149.768C149.216 311.352 147.536 312.24 145.496 312.24C142.976 312.24 141.464 310.728 141.464 308.4ZM143.6 308.64V307.872C143.6 306.792 144.56 306.048 146.216 306.048H149.792V306.72C149.792 309.024 148.304 310.56 145.976 310.56C144.536 310.56 143.6 309.888 143.6 308.64Z" fill="#626262"/>
<path fill-rule="evenodd" clip-rule="evenodd" d="M122.61 312H120.426V294.504H128.034C131.682 294.504 133.506 296.568 133.506 300.024C133.506 303.576 131.586 305.616 128.034 305.616H122.61V312ZM122.61 303.696V296.52H128.202C130.026 296.52 131.202 297.48 131.202 299.136V300.888C131.202 302.616 130.026 303.696 127.938 303.696H122.61Z" fill="#626262"/>
<path d="M522.768 67.7565L525.22 61.4636H524.1L522.272 66.41L520.429 61.4636H519.281L521.719 67.7565H522.768ZM530.638 65.8714C530.468 66.5801 529.887 66.9769 529.107 66.9769C528.044 66.9769 527.293 66.1549 527.279 64.8084H531.729V64.4258C531.729 62.5974 530.808 61.336 529.079 61.336C527.364 61.336 526.216 62.7392 526.216 64.6242C526.216 66.5659 527.392 67.884 529.107 67.884C530.525 67.884 531.418 67.062 531.644 65.8714H530.638ZM529.093 62.2431C530.142 62.2431 530.638 63.0651 530.652 64.0006H527.307C527.463 62.8951 528.143 62.2431 529.093 62.2431ZM536.732 61.4352C536.619 61.3785 536.392 61.336 536.123 61.336C535.429 61.336 534.833 61.747 534.564 62.2856V61.4636H533.501V67.7565H534.564V63.5329C534.777 62.7958 535.358 62.3565 536.024 62.3565C536.293 62.3565 536.562 62.4132 536.732 62.5266V61.4352ZM537.843 66.0273C538.042 67.1895 539.048 67.884 540.423 67.884C541.769 67.884 542.762 67.1754 542.762 65.9848C542.762 65.1061 542.237 64.5108 541.16 64.2273L539.941 63.9297C539.346 63.7596 539.062 63.5612 539.062 63.136C539.062 62.5266 539.643 62.2289 540.267 62.2289C541.032 62.2289 541.472 62.5549 541.656 63.1218H542.719C542.492 62.0163 541.67 61.336 540.281 61.336C539.006 61.336 538.028 62.073 538.028 63.1927C538.028 64.1706 538.651 64.6242 539.544 64.851L540.792 65.1769C541.444 65.347 541.727 65.6163 541.727 66.0557C541.727 66.6935 541.188 66.9911 540.437 66.9911C539.7 66.9911 539.147 66.6793 538.949 66.0273H537.843ZM545.654 61.4636H544.591V67.7565H545.654V61.4636ZM545.81 59.5643C545.81 59.1817 545.498 58.884 545.115 58.884C544.747 58.884 544.435 59.1817 544.435 59.5643C544.435 59.9329 544.747 60.2447 545.115 60.2447C545.498 60.2447 545.81 59.9329 545.81 59.5643ZM553.236 64.61C553.236 62.6825 552.06 61.336 550.345 61.336C548.616 61.336 547.454 62.6825 547.454 64.61C547.454 66.5376 548.616 67.884 550.345 67.884C552.06 67.884 553.236 66.5376 553.236 64.61ZM552.159 64.61C552.159 65.9848 551.479 66.9486 550.345 66.9486C549.211 66.9486 548.531 65.9848 548.531 64.61C548.531 63.2352 549.211 62.2714 550.345 62.2714C551.479 62.2714 552.159 63.2352 552.159 64.61ZM555.029 67.7565H556.092V63.4903C556.319 62.81 556.957 62.314 557.694 62.314C558.643 62.314 559.083 62.9234 559.083 63.8021V67.7565H560.16V63.6321C560.16 62.2573 559.381 61.336 557.949 61.336C557.141 61.336 556.461 61.7612 556.092 62.2573V61.4636H555.029V67.7565ZM561.822 67.062C561.822 67.5014 562.162 67.8273 562.588 67.8273C562.999 67.8273 563.339 67.5014 563.339 67.062C563.339 66.6226 562.999 66.2825 562.588 66.2825C562.162 66.2825 561.822 66.6226 561.822 67.062ZM561.822 62.6116C561.822 63.051 562.162 63.3769 562.588 63.3769C562.999 63.3769 563.339 63.051 563.339 62.6116C563.339 62.1722 562.999 61.8321 562.588 61.8321C562.162 61.8321 561.822 62.1722 561.822 62.6116ZM571.228 59.0399H570.562L567.982 60.358V61.4919L570.136 60.3864V67.7565H571.228V59.0399ZM573.1 67.062C573.1 67.5014 573.44 67.8273 573.866 67.8273C574.277 67.8273 574.617 67.5014 574.617 67.062C574.617 66.6226 574.277 66.2825 573.866 66.2825C573.44 66.2825 573.1 66.6226 573.1 67.062ZM578.807 67.884C580.748 67.884 582.052 66.0557 582.052 63.4053C582.052 60.7549 580.748 58.9266 578.807 58.9266C576.865 58.9266 575.561 60.7549 575.561 63.4053C575.561 66.0557 576.865 67.884 578.807 67.884ZM578.807 59.9329C580.21 59.9329 580.961 61.3785 580.961 63.4053C580.961 65.4321 580.21 66.8777 578.807 66.8777C577.389 66.8777 576.652 65.4321 576.652 63.4053C576.652 61.3785 577.389 59.9329 578.807 59.9329ZM582.999 67.062C582.999 67.5014 583.34 67.8273 583.765 67.8273C584.176 67.8273 584.516 67.5014 584.516 67.062C584.516 66.6226 584.176 66.2825 583.765 66.2825C583.34 66.2825 582.999 66.6226 582.999 67.062ZM588.706 67.884C590.647 67.884 591.951 66.0557 591.951 63.4053C591.951 60.7549 590.647 58.9266 588.706 58.9266C586.764 58.9266 585.46 60.7549 585.46 63.4053C585.46 66.0557 586.764 67.884 588.706 67.884ZM588.706 59.9329C590.109 59.9329 590.86 61.3785 590.86 63.4053C590.86 65.4321 590.109 66.8777 588.706 66.8777C587.288 66.8777 586.551 65.4321 586.551 63.4053C586.551 61.3785 587.288 59.9329 588.706 59.9329Z" fill="#4F4F4F"/>
<path d="M84.6526 573.845L84.8017 555.26M75.1875 576.29L75.2831 536.087M75.317 473V522.655" stroke="#646464" stroke-width="2" stroke-linecap="round"/>
<path d="M75.3711 461V37.0712C75.3711 17.1491 92.0734 1 112.678 1H183.562M642.437 227.347V37.0712C642.437 17.1491 625.736 1 605.13 1H246.983M203.147 1H221.801" stroke="#646464" stroke-width="2" stroke-linecap="round"/>
<path d="M642.602 652V248.617" stroke="#646464" stroke-width="2" stroke-linecap="round"/>
<path d="M63 298.959V181.725M63 73.1511V160.985" stroke="#00D395" stroke-width="2" stroke-linecap="round"/>
<g filter="url(#filter0_d_961_42)">
<path d="M44.1353 690C65.3922 690 78.2289 673.921 78.2702 646.233C78.3114 618.751 65.3096 603 44.1353 603C22.9196 603 10.0417 618.71 10.0004 646.233C9.91783 673.839 22.8371 689.959 44.1353 690ZM44.1353 675.274C34.4355 675.274 28.1616 665.594 28.2029 646.233C28.2442 627.16 34.4768 617.562 44.1353 617.562C53.7525 617.562 60.0264 627.16 60.0264 646.233C60.0676 665.594 53.7938 675.274 44.1353 675.274Z" fill="#2D2D2D" fill-opacity="0.4"/>
<path d="M92.1772 688.154H152.44V673.634H116.943V673.059L129.284 661.041C146.661 645.29 151.325 637.414 151.325 627.857C151.325 613.296 139.355 603 121.235 603C103.487 603 91.3104 613.542 91.3517 630.031H108.316C108.275 621.992 113.393 617.069 121.111 617.069C128.541 617.069 134.072 621.663 134.072 629.047C134.072 635.733 129.944 640.327 122.267 647.669L92.1772 675.356V688.154Z" fill="#2D2D2D" fill-opacity="0.4"/>
<path d="M176.992 689.221C182.275 689.221 186.857 684.832 186.898 679.376C186.857 674.003 182.275 669.614 176.992 669.614C171.543 669.614 167.044 674.003 167.086 679.376C167.044 684.832 171.543 689.221 176.992 689.221Z" fill="#2D2D2D" fill-opacity="0.4"/>
<path d="M44.1343 690.5C54.9016 690.5 63.577 686.421 69.5519 678.808C75.5145 671.211 78.7494 660.147 78.7702 646.234C78.7909 632.421 75.5346 621.489 69.5492 613.999C63.5523 606.495 54.8579 602.5 44.1353 602.5C33.3924 602.5 24.7182 606.484 18.7366 613.984C12.7669 621.468 9.5212 632.4 9.50039 646.232C9.45897 660.106 12.6837 671.16 18.6569 678.762C24.642 686.38 33.3468 690.479 44.1343 690.5ZM59.5264 646.233V646.234C59.5469 655.873 57.9933 663.033 55.2843 667.766C52.5906 672.472 48.762 674.774 44.1353 674.774C39.487 674.774 35.6484 672.471 32.9499 667.765C30.236 663.033 28.6824 655.873 28.7029 646.234C28.7235 636.74 30.2869 629.672 32.9953 624.995C35.6882 620.346 39.5065 618.062 44.1353 618.062C48.7429 618.062 52.5615 620.345 55.2546 624.995C57.9629 629.672 59.5264 636.739 59.5264 646.233ZM91.6763 688.154V688.654H92.1763H152.439H152.939V688.154V673.634V673.134H152.439H117.582L129.625 661.405C147 645.655 151.824 637.649 151.824 627.857C151.824 620.429 148.767 614.074 143.395 609.584C138.03 605.1 130.386 602.5 121.234 602.5C112.263 602.5 104.655 605.165 99.2883 609.959C93.9158 614.758 90.8298 621.657 90.8508 630.032L90.8521 630.531H91.3508H108.315H108.818L108.815 630.029C108.795 626.118 110.028 623.014 112.156 620.889C114.285 618.764 117.359 617.569 121.11 617.569C124.724 617.569 127.838 618.686 130.043 620.662C132.242 622.632 133.571 625.488 133.571 629.047C133.571 635.486 129.627 639.937 121.924 647.304C121.923 647.305 121.922 647.307 121.921 647.308L91.8378 674.988L91.6763 675.137V675.356V688.154ZM187.4 679.38V679.372C187.357 673.717 182.544 669.114 176.994 669.114C171.281 669.114 166.546 673.715 166.588 679.376C166.546 685.117 171.278 689.721 176.994 689.721C182.547 689.721 187.357 685.115 187.4 679.38Z" stroke="#203C2F" stroke-opacity="0.52"/>
</g>
<path d="M125.996 528.5L585.995 526.419" stroke="#3B3A3A"/>
<path d="M133.842 273H131.49L129.954 268.872H121.914L120.378 273H118.098L124.698 255.504H127.194L133.842 273ZM123.69 264.072L122.586 267.072H129.282L128.178 264.072L126.018 257.712H125.898L123.69 264.072ZM138.139 273H136.051V260.472H137.875L138.139 262.8H138.307C139.075 261.192 140.635 260.232 142.531 260.232C145.243 260.232 146.875 262.2 146.875 265.296V273H144.787V265.512C144.787 263.232 143.803 262.08 141.835 262.08C139.627 262.08 138.139 263.832 138.139 266.448V273ZM155.432 269.4C155.432 266.928 157.136 265.536 159.992 265.536H163.76V264.576C163.76 262.776 162.824 261.888 160.928 261.888C159.08 261.888 158.072 262.776 158 264.216H155.96C156.08 261.72 158 260.232 161.048 260.232C162.704 260.232 164 260.784 164.648 261.456C164.96 261.792 165.224 262.176 165.416 262.632C165.8 263.52 165.824 264.048 165.824 264.624V271.464H167.672V273H165.536C164.384 273 163.976 272.52 163.904 271.584L163.88 270.936H163.736C163.184 272.352 161.504 273.24 159.464 273.24C156.944 273.24 155.432 271.728 155.432 269.4ZM157.568 268.872V269.64C157.568 270.888 158.504 271.56 159.944 271.56C162.272 271.56 163.76 270.024 163.76 267.72V267.048H160.184C158.528 267.048 157.568 267.792 157.568 268.872ZM172.189 260.472H176.533V262.2H172.381V273H170.293V262.32C170.293 261.096 170.917 260.472 172.189 260.472ZM186.78 268.728H188.844C188.436 271.512 186.324 273.24 183.276 273.24C181.428 273.24 179.964 272.664 178.908 271.488C177.852 270.312 177.324 268.752 177.324 266.76C177.324 264.72 177.876 263.112 178.98 261.96C180.084 260.808 181.548 260.232 183.348 260.232C186.252 260.232 188.364 261.936 188.772 264.552H186.708C186.3 262.848 184.98 261.984 183.252 261.984C181.02 261.984 179.46 263.592 179.46 265.896V267.792C179.46 270.024 180.972 271.512 183.252 271.512C185.1 271.512 186.468 270.432 186.78 268.728ZM193.991 273H191.903V255.408H193.991V262.752H194.135C194.903 261.192 196.511 260.232 198.359 260.232C201.071 260.232 202.703 262.176 202.703 265.272V273H200.639V265.488C200.639 263.16 199.655 261.984 197.663 261.984C195.455 261.984 193.991 263.712 193.991 266.376V273ZM208.779 258.144H206.715V255.408H208.779V258.144ZM208.779 273H206.715V260.472H208.779V273ZM215.517 262.2V271.272H218.157V273H215.277C214.053 273 213.453 272.424 213.453 271.248V262.2H211.173V260.472H213.453V256.32H215.517V260.472H218.133V262.2H215.517ZM225.93 260.232C229.362 260.232 231.498 262.392 231.498 265.872C231.498 266.352 231.474 266.784 231.426 267.168H222.186V267.888C222.186 270.096 223.698 271.56 226.002 271.56C227.754 271.56 229.098 270.648 229.506 269.232H231.57C231.306 270.456 230.682 271.416 229.65 272.16C228.618 272.88 227.394 273.24 225.954 273.24C222.306 273.24 220.05 270.72 220.05 266.688C220.05 262.656 222.306 260.232 225.93 260.232ZM222.186 265.296V265.632H229.434V265.152C229.434 263.208 228.018 261.912 225.93 261.912C223.722 261.912 222.186 263.28 222.186 265.296ZM243.381 268.728H245.445C245.037 271.512 242.925 273.24 239.877 273.24C238.029 273.24 236.565 272.664 235.509 271.488C234.453 270.312 233.925 268.752 233.925 266.76C233.925 264.72 234.477 263.112 235.581 261.96C236.685 260.808 238.149 260.232 239.949 260.232C242.853 260.232 244.965 261.936 245.373 264.552H243.309C242.901 262.848 241.581 261.984 239.853 261.984C237.621 261.984 236.061 263.592 236.061 265.896V267.792C236.061 270.024 237.573 271.512 239.853 271.512C241.701 271.512 243.069 270.432 243.381 268.728ZM251.072 262.2V271.272H253.712V273H250.832C249.608 273 249.008 272.424 249.008 271.248V262.2H246.728V260.472H249.008V256.32H251.072V260.472H253.688V262.2H251.072ZM265.178 260.472H267.266V273H265.49L265.202 270.672H265.01C264.338 272.232 262.706 273.24 260.762 273.24C258.17 273.24 256.61 271.512 256.61 268.464V260.472H258.674V268.176C258.674 270.384 259.61 271.488 261.458 271.488C263.738 271.488 265.178 269.688 265.178 267.024V260.472ZM273.345 260.472H277.689V262.2H273.537V273H271.449V262.32C271.449 261.096 272.073 260.472 273.345 260.472ZM278.409 269.4C278.409 266.928 280.113 265.536 282.969 265.536H286.737V264.576C286.737 262.776 285.801 261.888 283.905 261.888C282.057 261.888 281.049 262.776 280.977 264.216H278.937C279.057 261.72 280.977 260.232 284.025 260.232C285.681 260.232 286.977 260.784 287.625 261.456C287.937 261.792 288.201 262.176 288.393 262.632C288.777 263.52 288.801 264.048 288.801 264.624V271.464H290.649V273H288.513C287.361 273 286.953 272.52 286.881 271.584L286.857 270.936H286.713C286.161 272.352 284.481 273.24 282.441 273.24C279.921 273.24 278.409 271.728 278.409 269.4ZM280.545 268.872V269.64C280.545 270.888 281.481 271.56 282.921 271.56C285.249 271.56 286.737 270.024 286.737 267.72V267.048H283.161C281.505 267.048 280.545 267.792 280.545 268.872ZM295.334 273H293.27V255.408H295.334V273ZM304.074 266.736C304.074 264.72 304.626 263.136 305.73 261.984C306.834 260.808 308.298 260.232 310.098 260.232C311.898 260.232 313.362 260.808 314.442 261.96C315.546 263.112 316.098 264.696 316.098 266.736C316.098 270.696 313.866 273.24 310.098 273.24C308.226 273.24 306.762 272.664 305.682 271.488C304.602 270.312 304.074 268.728 304.074 266.736ZM306.21 265.824V267.768C306.21 270.144 307.89 271.512 310.098 271.512C312.33 271.512 313.986 270.096 313.986 267.768V265.824C313.986 263.52 312.378 261.984 310.098 261.984C308.97 261.984 308.034 262.344 307.29 263.064C306.57 263.76 306.21 264.696 306.21 265.824ZM321.687 273L317.127 260.472H319.407L321.615 267.144L322.839 270.864H322.983L324.135 267.144L326.343 260.472H328.623L324.159 273H321.687ZM335.501 260.232C338.933 260.232 341.069 262.392 341.069 265.872C341.069 266.352 341.045 266.784 340.997 267.168H331.757V267.888C331.757 270.096 333.269 271.56 335.573 271.56C337.325 271.56 338.669 270.648 339.077 269.232H341.141C340.877 270.456 340.253 271.416 339.221 272.16C338.189 272.88 336.965 273.24 335.525 273.24C331.877 273.24 329.621 270.72 329.621 266.688C329.621 262.656 331.877 260.232 335.501 260.232ZM331.757 265.296V265.632H339.005V265.152C339.005 263.208 337.589 261.912 335.501 261.912C333.293 261.912 331.757 263.28 331.757 265.296ZM346.189 260.472H350.533V262.2H346.381V273H344.293V262.32C344.293 261.096 344.917 260.472 346.189 260.472ZM355.414 273L350.854 260.472H353.134L355.342 267.144L356.566 270.864H356.71L357.862 267.144L360.07 260.472H362.35L357.886 273H355.414ZM366.49 258.144H364.426V255.408H366.49V258.144ZM366.49 273H364.426V260.472H366.49V273ZM375.508 260.232C378.94 260.232 381.076 262.392 381.076 265.872C381.076 266.352 381.052 266.784 381.004 267.168H371.764V267.888C371.764 270.096 373.276 271.56 375.58 271.56C377.332 271.56 378.676 270.648 379.084 269.232H381.148C380.884 270.456 380.26 271.416 379.228 272.16C378.196 272.88 376.972 273.24 375.532 273.24C371.884 273.24 369.628 270.72 369.628 266.688C369.628 262.656 371.884 260.232 375.508 260.232ZM371.764 265.296V265.632H379.012V265.152C379.012 263.208 377.596 261.912 375.508 261.912C373.3 261.912 371.764 263.28 371.764 265.296ZM395.683 267.192L397.411 260.472H399.595L396.091 273H393.379L391.771 266.568L390.955 263.016H390.811L390.043 266.568L388.507 273H385.747L382.219 260.472H384.475L386.227 267.12L387.043 270.936H387.211L389.659 260.472H392.179L394.747 270.888H394.867L395.683 267.192ZM406.496 266.736C406.496 264.72 407.048 263.136 408.152 261.984C409.256 260.808 410.72 260.232 412.52 260.232C414.32 260.232 415.784 260.808 416.864 261.96C417.968 263.112 418.52 264.696 418.52 266.736C418.52 270.696 416.288 273.24 412.52 273.24C410.648 273.24 409.184 272.664 408.104 271.488C407.023 270.312 406.496 268.728 406.496 266.736ZM408.632 265.824V267.768C408.632 270.144 410.312 271.512 412.52 271.512C414.752 271.512 416.408 270.096 416.408 267.768V265.824C416.408 263.52 414.8 261.984 412.52 261.984C411.392 261.984 410.456 262.344 409.712 263.064C408.992 263.76 408.632 264.696 408.632 265.824ZM427.684 257.112H424.444V260.472H427.156V262.2H424.444V273H422.38V262.2H419.932V260.472H422.38V257.136C422.38 255.984 423.052 255.408 424.372 255.408H427.684V257.112ZM443.115 273H436.035V255.504H443.115C448.323 255.504 450.459 258.504 450.459 264.264C450.459 270.048 448.299 273 443.115 273ZM438.219 257.496V271.008H443.091C446.547 271.008 448.155 269.424 448.155 265.704V262.824C448.155 259.056 446.475 257.496 443.091 257.496H438.219ZM455.693 258.144H453.629V255.408H455.693V258.144ZM455.693 273H453.629V260.472H455.693V273ZM460.127 258.144V255.408H462.167V258.144H460.127ZM460.127 275.328V260.472H462.167V275.16C462.167 275.544 462.143 275.76 461.927 276.24C461.735 276.72 461.159 277.008 460.295 277.008H457.367V275.328H460.127ZM470.993 260.232C474.425 260.232 476.561 262.392 476.561 265.872C476.561 266.352 476.537 266.784 476.489 267.168H467.249V267.888C467.249 270.096 468.761 271.56 471.065 271.56C472.817 271.56 474.161 270.648 474.569 269.232H476.633C476.369 270.456 475.745 271.416 474.713 272.16C473.681 272.88 472.457 273.24 471.017 273.24C467.369 273.24 465.113 270.72 465.113 266.688C465.113 262.656 467.369 260.232 470.993 260.232ZM467.249 265.296V265.632H474.497V265.152C474.497 263.208 473.081 261.912 470.993 261.912C468.785 261.912 467.249 263.28 467.249 265.296ZM482.353 262.2V271.272H484.993V273H482.113C480.889 273 480.289 272.424 480.289 271.248V262.2H478.009V260.472H480.289V256.32H482.353V260.472H484.969V262.2H482.353ZM486.979 269.208H489.043C489.043 270.672 490.243 271.608 492.091 271.608C493.843 271.608 494.899 270.84 494.899 269.52C494.899 268.584 494.347 268.008 493.243 267.792L490.555 267.288C488.323 266.88 487.219 265.776 487.219 263.976C487.219 261.648 489.067 260.232 491.947 260.232C494.923 260.232 496.723 261.744 496.747 264.048H494.683C494.635 262.584 493.723 261.84 491.947 261.84C490.243 261.84 489.307 262.584 489.307 263.76C489.307 264.432 489.595 264.912 490.099 265.176C490.603 265.392 490.819 265.464 491.323 265.56L493.795 266.016C495.979 266.4 497.083 267.528 497.083 269.4C497.083 271.8 495.139 273.24 492.091 273.24C488.923 273.24 486.979 271.632 486.979 269.208Z" fill="#626262"/>
<path d="M143.4 222H139.48L136.92 215.12H123.52L120.96 222H117.16L128.16 192.84H132.32L143.4 222ZM126.48 207.12L124.64 212.12H135.8L133.96 207.12L130.36 196.52H130.16L126.48 207.12ZM150.242 201.12H157.482V204H150.562V222H147.082V204.2C147.082 202.16 148.122 201.12 150.242 201.12ZM174.559 214.88H177.999C177.319 219.52 173.799 222.4 168.719 222.4C165.639 222.4 163.199 221.44 161.439 219.48C159.679 217.52 158.799 214.92 158.799 211.6C158.799 208.2 159.719 205.52 161.559 203.6C163.399 201.68 165.839 200.72 168.839 200.72C173.679 200.72 177.199 203.56 177.879 207.92H174.439C173.759 205.08 171.559 203.64 168.679 203.64C164.959 203.64 162.359 206.32 162.359 210.16V213.32C162.359 217.04 164.879 219.52 168.679 219.52C171.759 219.52 174.039 217.72 174.559 214.88ZM186.577 222H183.097V192.68H186.577V204.92H186.817C188.097 202.32 190.777 200.72 193.857 200.72C198.377 200.72 201.097 203.96 201.097 209.12V222H197.657V209.48C197.657 205.6 196.017 203.64 192.697 203.64C189.017 203.64 186.577 206.52 186.577 210.96V222ZM211.225 197.24H207.785V192.68H211.225V197.24ZM211.225 222H207.785V201.12H211.225V222ZM222.455 204V219.12H226.855V222H222.055C220.015 222 219.015 221.04 219.015 219.08V204H215.215V201.12H219.015V194.2H222.455V201.12H226.815V204H222.455ZM239.81 200.72C245.53 200.72 249.09 204.32 249.09 210.12C249.09 210.92 249.05 211.64 248.97 212.28H233.57V213.48C233.57 217.16 236.09 219.6 239.93 219.6C242.85 219.6 245.09 218.08 245.77 215.72H249.21C248.77 217.76 247.73 219.36 246.01 220.6C244.29 221.8 242.25 222.4 239.85 222.4C233.77 222.4 230.01 218.2 230.01 211.48C230.01 204.76 233.77 200.72 239.81 200.72ZM233.57 209.16V209.72H245.65V208.92C245.65 205.68 243.29 203.52 239.81 203.52C236.13 203.52 233.57 205.8 233.57 209.16ZM268.895 214.88H272.335C271.655 219.52 268.135 222.4 263.055 222.4C259.975 222.4 257.535 221.44 255.775 219.48C254.015 217.52 253.135 214.92 253.135 211.6C253.135 208.2 254.055 205.52 255.895 203.6C257.735 201.68 260.175 200.72 263.175 200.72C268.015 200.72 271.535 203.56 272.215 207.92H268.775C268.095 205.08 265.895 203.64 263.015 203.64C259.295 203.64 256.695 206.32 256.695 210.16V213.32C256.695 217.04 259.215 219.52 263.015 219.52C266.095 219.52 268.375 217.72 268.895 214.88ZM281.713 204V219.12H286.113V222H281.313C279.273 222 278.273 221.04 278.273 219.08V204H274.473V201.12H278.273V194.2H281.713V201.12H286.073V204H281.713ZM305.222 201.12H308.702V222H305.742L305.262 218.12H304.942C303.822 220.72 301.102 222.4 297.862 222.4C293.542 222.4 290.942 219.52 290.942 214.44V201.12H294.382V213.96C294.382 217.64 295.942 219.48 299.022 219.48C302.822 219.48 305.222 216.48 305.222 212.04V201.12ZM318.835 201.12H326.075V204H319.155V222H315.675V204.2C315.675 202.16 316.715 201.12 318.835 201.12ZM337.193 200.72C342.913 200.72 346.473 204.32 346.473 210.12C346.473 210.92 346.433 211.64 346.353 212.28H330.953V213.48C330.953 217.16 333.473 219.6 337.313 219.6C340.233 219.6 342.473 218.08 343.153 215.72H346.593C346.153 217.76 345.113 219.36 343.393 220.6C341.673 221.8 339.633 222.4 337.233 222.4C331.153 222.4 327.393 218.2 327.393 211.48C327.393 204.76 331.153 200.72 337.193 200.72ZM330.953 209.16V209.72H343.033V208.92C343.033 205.68 340.673 203.52 337.193 203.52C333.513 203.52 330.953 205.8 330.953 209.16Z" fill="#D0D0D0"/>
<line x1="202.992" y1="166.519" x2="346" y2="166.519" stroke="#3B3A3A"/>
<path d="M181.598 168.95H183.29C183.308 170.84 184.676 171.848 186.782 171.848C188.744 171.848 189.986 170.93 189.986 169.418C189.986 168.626 189.698 168.068 189.14 167.78C188.582 167.474 188.402 167.42 187.898 167.294L185.594 166.772L184.748 166.574C184.55 166.52 184.244 166.394 183.83 166.214C183.434 166.016 183.11 165.818 182.876 165.602C182.426 165.17 181.958 164.342 181.958 163.334C181.958 162.2 182.372 161.318 183.218 160.67C184.064 160.022 185.162 159.698 186.548 159.698C187.97 159.698 189.104 160.04 189.968 160.706C190.832 161.372 191.282 162.308 191.3 163.496H189.626C189.536 161.912 188.366 161.03 186.548 161.03C184.748 161.03 183.668 161.876 183.668 163.172C183.668 163.874 183.974 164.396 184.532 164.702C185.108 164.99 185.432 165.08 186.008 165.206L188.474 165.746C190.634 166.214 191.714 167.384 191.714 169.256C191.714 170.498 191.264 171.452 190.346 172.154C189.446 172.838 188.24 173.18 186.728 173.18C185.072 173.18 183.794 172.784 182.912 171.992C182.03 171.182 181.598 170.174 181.598 168.95Z" fill="#9B9B9B"/>
<path d="M168.559 159.878H178.351V161.354H174.283V173H172.663V161.354H168.559V159.878Z" fill="#9B9B9B"/>
<path d="M164.972 173H156.242V159.878H164.972V161.372H157.88V165.53H164.09V166.952H157.88V171.506H164.972V173Z" fill="#9B9B9B"/>
<path d="M148.222 171.524V159.878H149.824V171.614C149.824 171.902 149.806 172.082 149.644 172.442C149.5 172.784 149.05 173 148.402 173H144.766V171.524H148.222Z" fill="#9B9B9B"/>
<path d="M139.783 159.878V173H138.145V159.878H139.783Z" fill="#9B9B9B"/>
<path d="M127.126 173H121.816V159.878H127.126C131.032 159.878 132.634 162.128 132.634 166.448C132.634 170.786 131.014 173 127.126 173ZM123.454 161.372V171.506H127.108C129.7 171.506 130.906 170.318 130.906 167.528V165.368C130.906 162.542 129.646 161.372 127.108 161.372H123.454Z" fill="#9B9B9B"/>
<path d="M124.021 49.496L122.243 50.6967C122.103 50.8375 122.059 50.925 122.243 51.0545L122.416 51.1953L124.787 52.8514C124.787 52.8514 127.14 51.5727 127.643 51.3574C128.528 50.9601 129.487 50.7569 130.456 50.7612C131.113 50.8053 131.765 50.9042 132.405 51.0569C133.223 51.2923 133.998 51.6579 134.7 52.1399L135.368 52.5835C135.393 52.6081 135.422 52.6282 135.454 52.6426C135.487 52.6568 135.522 52.6641 135.558 52.6639C135.594 52.664 135.629 52.6568 135.662 52.6426C135.694 52.6286 135.723 52.6085 135.748 52.5835C135.775 52.5636 135.797 52.5377 135.813 52.5078C135.962 52.2754 136.081 52.0242 136.166 51.7608C136.222 51.5521 136.251 51.337 136.252 51.1208C136.253 50.8119 136.19 50.5062 136.068 50.2229C135.946 49.9396 135.766 49.6849 135.541 49.4747L135.085 49.0749C134.537 48.5461 133.907 48.1092 133.221 47.7808L132.698 47.5194C131.781 47.1723 130.807 46.9963 129.827 47.0001C128.756 47.0385 126.954 47.52 124.021 49.496Z" fill="#00D395"/>
<g filter="url(#filter1_d_961_42)">
<g style="mix-blend-mode:difference" opacity="0.9">
<path d="M117.012 55.0528C116.996 55.2353 116.996 55.4188 117.012 55.6012C117.1 56.0402 117.344 56.433 117.7 56.7081L118.346 57.2255C121.724 59.7477 125.216 62.1615 128.667 64.5453L129.189 64.8445C129.416 64.9637 129.664 65.038 129.919 65.0633H130.002C130.413 65.0631 130.813 64.9287 131.139 64.6808L134.34 62.4454C135.382 61.6694 136.508 60.9033 137.541 60.0991C137.881 59.8294 138.197 59.5315 138.486 59.2087C139.284 58.2824 139.784 57.1401 139.922 55.9291C139.922 55.5356 139.972 55.0909 139.972 54.6252V52.2977C139.977 52.2528 139.977 52.2076 139.972 52.1627V52.2044C139.964 52.6648 139.886 53.1213 139.744 53.5594C139.334 54.8061 138.537 55.8922 137.468 56.6624C135.445 58.1206 133.412 59.58 131.338 60.9866L130.865 61.2558C130.636 61.3716 130.382 61.4319 130.125 61.4318H130C129.874 61.427 129.748 61.4073 129.626 61.3731C129.531 61.3484 129.439 61.3117 129.353 61.264L128.613 60.827C126.131 59.1373 123.672 57.4128 121.236 55.6535L118.036 53.2485L117.566 52.8115C117.36 52.6029 117.223 52.3369 117.173 52.0489V51.9375C117.14 51.9375 117.012 55.0528 117.012 55.0528Z" fill="#00D395"/>
</g>
</g>
<g style="mix-blend-mode:difference">
<path d="M139.757 61.4949C139.794 61.3858 139.845 61.2292 139.897 61.0755V63.1514C139.896 63.5467 139.865 63.9414 139.804 64.3322V64.3322C139.601 65.6903 138.913 66.9307 137.864 67.827L136.919 68.6013C135.836 69.406 134.723 70.1809 133.598 70.9558L131.183 72.6181L130.97 72.7396C130.7 72.9114 130.386 73.0019 130.065 73V73C129.877 73.0018 129.69 72.9694 129.513 72.9044V72.9044C129.258 72.8183 129.017 72.6952 128.799 72.5389V72.5389L121.504 67.4827L117.898 64.8149C117.69 64.6689 117.514 64.4822 117.381 64.2665C117.249 64.0535 117.161 63.816 117.125 63.5684C117.115 63.4227 117.115 63.2765 117.125 63.1309V60.6672C117.167 60.7615 117.219 60.8509 117.28 60.9341V60.9341C117.45 61.1353 117.647 61.3128 117.865 61.462L120.229 63.2188C122.497 64.8835 124.798 66.4986 127.135 68.064L128.647 69.0975L129.293 69.4383H129.306C129.57 69.5411 129.855 69.5813 130.138 69.5556V69.5556C130.419 69.5304 130.692 69.4411 130.933 69.2946L131.235 69.1304H131.239L137.286 64.8483C137.813 64.4723 138.282 64.0217 138.677 63.511C139.157 62.9093 139.523 62.2262 139.757 61.4949V61.4949Z" fill="#00D395"/>
</g>
<g filter="url(#filter2_d_961_42)">
<g style="mix-blend-mode:difference" opacity="0.9">
<g style="mix-blend-mode:difference" opacity="0.9">
<path d="M139.749 61.4944C139.786 61.3853 139.837 61.2287 139.889 61.075V63.1509C139.888 63.5462 139.857 63.941 139.797 64.3317V64.3317C139.593 65.6898 138.905 66.9302 137.857 67.8265L136.911 68.6008C135.829 69.4056 134.715 70.1804 133.59 70.9553L131.175 72.6176L130.962 72.7391C130.692 72.9109 130.378 73.0014 130.058 72.9995V72.9995C129.869 73.0013 129.682 72.9689 129.505 72.9039V72.9039C129.25 72.8178 129.009 72.6947 128.791 72.5385V72.5385L121.496 67.4822L117.89 64.8144C117.682 64.6684 117.506 64.4817 117.373 64.266C117.241 64.0531 117.154 63.8155 117.117 63.568C117.107 63.4223 117.107 63.2761 117.117 63.1304V60.6667C117.159 60.761 117.211 60.8504 117.272 60.9336V60.9336C117.443 61.1348 117.639 61.3124 117.857 61.4616L120.221 63.2184C122.489 64.8831 124.791 66.4981 127.127 68.0635L128.639 69.097L129.285 69.4378H129.298C129.562 69.5406 129.847 69.5808 130.13 69.5551V69.5551C130.412 69.5299 130.684 69.4406 130.925 69.2941L131.227 69.1299H131.232L137.278 64.8479C137.805 64.4718 138.274 64.0212 138.669 63.5105C139.149 62.9088 139.515 62.2257 139.749 61.4944V61.4944Z" fill="#00D395"/>
</g>
</g>
</g>
<path d="M124.021 49.496L122.243 50.6967C122.103 50.8375 122.059 50.925 122.243 51.0545L122.416 51.1953L124.787 52.8514C124.787 52.8514 127.14 51.5727 127.643 51.3574C128.528 50.9601 129.487 50.7569 130.456 50.7612C131.113 50.8053 131.765 50.9042 132.405 51.0569C133.223 51.2923 133.998 51.6579 134.7 52.1399L135.368 52.5835C135.393 52.6081 135.422 52.6282 135.454 52.6426C135.487 52.6568 135.522 52.6641 135.558 52.6639C135.594 52.664 135.629 52.6568 135.662 52.6426C135.694 52.6286 135.723 52.6085 135.748 52.5835C135.775 52.5636 135.797 52.5377 135.813 52.5078C135.962 52.2754 136.081 52.0242 136.166 51.7608C136.222 51.5521 136.251 51.337 136.252 51.1208C136.253 50.8119 136.19 50.5062 136.068 50.2229C135.946 49.9396 135.766 49.6849 135.541 49.4747L135.085 49.0749C134.537 48.5461 133.907 48.1092 133.221 47.7808L132.698 47.5194C131.781 47.1723 130.807 46.9963 129.827 47.0001C128.756 47.0385 126.954 47.52 124.021 49.496Z" fill="url(#paint1_linear_961_42)" fill-opacity="0.4"/>
<g filter="url(#filter3_d_961_42)">
<g style="mix-blend-mode:difference" opacity="0.9">
<path d="M117.012 55.0528C116.996 55.2353 116.996 55.4188 117.012 55.6012C117.1 56.0402 117.344 56.433 117.7 56.7081L118.346 57.2255C121.724 59.7477 125.216 62.1615 128.667 64.5453L129.189 64.8445C129.416 64.9637 129.664 65.038 129.919 65.0633H130.002C130.413 65.0631 130.813 64.9287 131.139 64.6808L134.34 62.4454C135.382 61.6694 136.508 60.9033 137.541 60.0991C137.881 59.8294 138.197 59.5315 138.486 59.2087C139.284 58.2824 139.784 57.1401 139.922 55.9291C139.922 55.5356 139.972 55.0909 139.972 54.6252V52.2977C139.977 52.2528 139.977 52.2076 139.972 52.1627V52.2044C139.964 52.6648 139.886 53.1213 139.744 53.5594C139.334 54.8061 138.537 55.8922 137.468 56.6624C135.445 58.1206 133.412 59.58 131.338 60.9866L130.865 61.2558C130.636 61.3716 130.382 61.4319 130.125 61.4318H130C129.874 61.427 129.748 61.4073 129.626 61.3731C129.531 61.3484 129.439 61.3117 129.353 61.264L128.613 60.827C126.131 59.1373 123.672 57.4128 121.236 55.6535L118.036 53.2485L117.566 52.8115C117.36 52.6029 117.223 52.3369 117.173 52.0489V51.9375C117.14 51.9375 117.012 55.0528 117.012 55.0528Z" fill="url(#paint2_linear_961_42)" fill-opacity="0.4"/>
</g>
</g>
<g style="mix-blend-mode:difference">
<path d="M139.757 61.4949C139.794 61.3858 139.845 61.2292 139.897 61.0755V63.1514C139.896 63.5467 139.865 63.9414 139.804 64.3322V64.3322C139.601 65.6903 138.913 66.9307 137.864 67.827L136.919 68.6013C135.836 69.406 134.723 70.1809 133.598 70.9558L131.183 72.6181L130.97 72.7396C130.7 72.9114 130.386 73.0019 130.065 73V73C129.877 73.0018 129.69 72.9694 129.513 72.9044V72.9044C129.258 72.8183 129.017 72.6952 128.799 72.5389V72.5389L121.504 67.4827L117.898 64.8149C117.69 64.6689 117.514 64.4822 117.381 64.2665C117.249 64.0535 117.161 63.816 117.125 63.5684C117.115 63.4227 117.115 63.2765 117.125 63.1309V60.6672C117.167 60.7615 117.219 60.8509 117.28 60.9341V60.9341C117.45 61.1353 117.647 61.3128 117.865 61.462L120.229 63.2188C122.497 64.8835 124.798 66.4986 127.135 68.064L128.647 69.0975L129.293 69.4383H129.306C129.57 69.5411 129.855 69.5813 130.138 69.5556V69.5556C130.419 69.5304 130.692 69.4411 130.933 69.2946L131.235 69.1304H131.239L137.286 64.8483C137.813 64.4723 138.282 64.0217 138.677 63.511C139.157 62.9093 139.523 62.2262 139.757 61.4949V61.4949Z" fill="url(#paint3_linear_961_42)" fill-opacity="0.4"/>
</g>
<g filter="url(#filter4_d_961_42)">
<g style="mix-blend-mode:difference" opacity="0.9">
<g style="mix-blend-mode:difference" opacity="0.9">
<path d="M139.749 61.4944C139.786 61.3853 139.837 61.2287 139.889 61.075V63.1509C139.888 63.5462 139.857 63.941 139.797 64.3317V64.3317C139.593 65.6898 138.905 66.9302 137.857 67.8265L136.911 68.6008C135.829 69.4056 134.715 70.1804 133.59 70.9553L131.175 72.6176L130.962 72.7391C130.692 72.9109 130.378 73.0014 130.058 72.9995V72.9995C129.869 73.0013 129.682 72.9689 129.505 72.9039V72.9039C129.25 72.8178 129.009 72.6947 128.791 72.5385V72.5385L121.496 67.4822L117.89 64.8144C117.682 64.6684 117.506 64.4817 117.373 64.266C117.241 64.0531 117.154 63.8155 117.117 63.568C117.107 63.4223 117.107 63.2761 117.117 63.1304V60.6667C117.159 60.761 117.211 60.8504 117.272 60.9336V60.9336C117.443 61.1348 117.639 61.3124 117.857 61.4616L120.221 63.2184C122.489 64.8831 124.791 66.4981 127.127 68.0635L128.639 69.097L129.285 69.4378H129.298C129.562 69.5406 129.847 69.5808 130.13 69.5551V69.5551C130.412 69.5299 130.684 69.4406 130.925 69.2941L131.227 69.1299H131.232L137.278 64.8479C137.805 64.4718 138.274 64.0212 138.669 63.5105C139.149 62.9088 139.515 62.2257 139.749 61.4944V61.4944Z" fill="url(#paint4_linear_961_42)" fill-opacity="0.4"/>
</g>
</g>
</g>
<path d="M180.883 550H179.539V548.488H180.883V550Z" fill="#525252"/>
<path d="M177.216 547.864H178.248C178.044 549.256 176.988 550.12 175.464 550.12C174.54 550.12 173.808 549.832 173.28 549.244C172.752 548.656 172.488 547.876 172.488 546.88C172.488 545.86 172.764 545.056 173.316 544.48C173.868 543.904 174.6 543.616 175.5 543.616C176.952 543.616 178.008 544.468 178.212 545.776H177.18C176.976 544.924 176.316 544.492 175.452 544.492C174.336 544.492 173.556 545.296 173.556 546.448V547.396C173.556 548.512 174.312 549.256 175.452 549.256C176.376 549.256 177.06 548.716 177.216 547.864Z" fill="#525252"/>
<path d="M166.63 550H165.586V543.736H166.498L166.63 544.9H166.714C167.098 544.096 167.878 543.616 168.826 543.616C170.182 543.616 170.998 544.6 170.998 546.148V550H169.954V546.256C169.954 545.116 169.462 544.54 168.478 544.54C167.374 544.54 166.63 545.416 166.63 546.724V550Z" fill="#525252"/>
<path d="M163.33 541.252V550H162.238V541.252H163.33Z" fill="#525252"/>
<path d="M152.684 548.104H153.716C153.716 548.836 154.316 549.304 155.24 549.304C156.116 549.304 156.644 548.92 156.644 548.26C156.644 547.792 156.368 547.504 155.816 547.396L154.472 547.144C153.356 546.94 152.804 546.388 152.804 545.488C152.804 544.324 153.728 543.616 155.168 543.616C156.656 543.616 157.556 544.372 157.568 545.524H156.536C156.512 544.792 156.056 544.42 155.168 544.42C154.316 544.42 153.848 544.792 153.848 545.38C153.848 545.716 153.992 545.956 154.244 546.088C154.496 546.196 154.604 546.232 154.856 546.28L156.092 546.508C157.184 546.7 157.736 547.264 157.736 548.2C157.736 549.4 156.764 550.12 155.24 550.12C153.656 550.12 152.684 549.316 152.684 548.104Z" fill="#525252"/>
<path d="M150.371 544.6V549.136H151.691V550H150.251C149.639 550 149.339 549.712 149.339 549.124V544.6H148.199V543.736H149.339V541.66H150.371V543.736H151.679V544.6H150.371Z" fill="#525252"/>
<path d="M144.69 543.616C146.406 543.616 147.474 544.696 147.474 546.436C147.474 546.676 147.462 546.892 147.438 547.084H142.818V547.444C142.818 548.548 143.574 549.28 144.726 549.28C145.602 549.28 146.274 548.824 146.478 548.116H147.51C147.378 548.728 147.066 549.208 146.55 549.58C146.034 549.94 145.422 550.12 144.702 550.12C142.878 550.12 141.75 548.86 141.75 546.844C141.75 544.828 142.878 543.616 144.69 543.616ZM142.818 546.148V546.316H146.442V546.076C146.442 545.104 145.734 544.456 144.69 544.456C143.586 544.456 142.818 545.14 142.818 546.148Z" fill="#525252"/>
<path d="M139.259 542.572V541.204H140.279V542.572H139.259ZM139.259 551.164V543.736H140.279V551.08C140.279 551.272 140.267 551.38 140.159 551.62C140.063 551.86 139.775 552.004 139.343 552.004H137.879V551.164H139.259Z" fill="#525252"/>
<path d="M137.04 542.572H136.008V541.204H137.04V542.572ZM137.04 550H136.008V543.736H137.04V550Z" fill="#525252"/>
<path d="M130.751 550H127.211V541.252H130.751C133.355 541.252 134.423 542.752 134.423 545.632C134.423 548.524 133.343 550 130.751 550ZM128.303 542.248V549.004H130.739C132.467 549.004 133.271 548.212 133.271 546.352V544.912C133.271 543.028 132.431 542.248 130.739 542.248H128.303Z" fill="#525252"/>
<path d="M580.198 550.12C578.566 550.12 577.594 548.944 577.594 546.916C577.594 544.864 578.566 543.7 580.198 543.7C581.254 543.7 582.046 544.156 582.442 544.924H582.514V541.204H583.558V550H582.622L582.514 548.908H582.442C582.01 549.712 581.266 550.12 580.198 550.12ZM580.486 549.256C581.698 549.256 582.514 548.464 582.514 547.3V546.52C582.514 545.356 581.698 544.576 580.486 544.576C579.37 544.576 578.662 545.236 578.662 546.28V547.54C578.662 548.584 579.37 549.256 580.486 549.256Z" fill="#525252"/>
<path d="M573.596 543.616C575.312 543.616 576.38 544.696 576.38 546.436C576.38 546.676 576.368 546.892 576.344 547.084H571.724V547.444C571.724 548.548 572.48 549.28 573.632 549.28C574.508 549.28 575.18 548.824 575.384 548.116H576.416C576.284 548.728 575.972 549.208 575.456 549.58C574.94 549.94 574.328 550.12 573.608 550.12C571.784 550.12 570.656 548.86 570.656 546.844C570.656 544.828 571.784 543.616 573.596 543.616ZM571.724 546.148V546.316H575.348V546.076C575.348 545.104 574.64 544.456 573.596 544.456C572.492 544.456 571.724 545.14 571.724 546.148Z" fill="#525252"/>
<path d="M568.391 544.6V549.136H569.711V550H568.271C567.659 550 567.359 549.712 567.359 549.124V544.6H566.219V543.736H567.359V541.66H568.391V543.736H569.699V544.6H568.391Z" fill="#525252"/>
<path d="M560.614 552.004H559.57V543.736H560.506L560.614 544.84H560.686C561.106 544.06 561.91 543.616 562.93 543.616C564.562 543.616 565.534 544.792 565.534 546.82C565.534 548.872 564.562 550.036 562.93 550.036C561.874 550.036 561.082 549.58 560.686 548.812H560.614V552.004ZM562.642 549.16C563.758 549.16 564.466 548.5 564.466 547.456V546.196C564.466 545.152 563.758 544.48 562.642 544.48C561.43 544.48 560.614 545.272 560.614 546.436V547.216C560.614 548.38 561.43 549.16 562.642 549.16Z" fill="#525252"/>
<path d="M556.432 543.736H557.476V550H556.588L556.444 548.836H556.348C556.012 549.616 555.196 550.12 554.224 550.12C552.928 550.12 552.148 549.256 552.148 547.732V543.736H553.18V547.588C553.18 548.692 553.648 549.244 554.572 549.244C555.712 549.244 556.432 548.344 556.432 547.012V543.736Z" fill="#525252"/>
<path d="M548.858 543.736H551.03V544.6H548.954V550H547.91V544.66C547.91 544.048 548.222 543.736 548.858 543.736Z" fill="#525252"/>
<path d="M541.324 548.104H542.356C542.356 548.836 542.956 549.304 543.88 549.304C544.756 549.304 545.284 548.92 545.284 548.26C545.284 547.792 545.008 547.504 544.456 547.396L543.112 547.144C541.996 546.94 541.444 546.388 541.444 545.488C541.444 544.324 542.368 543.616 543.808 543.616C545.296 543.616 546.196 544.372 546.208 545.524H545.176C545.152 544.792 544.696 544.42 543.808 544.42C542.956 544.42 542.488 544.792 542.488 545.38C542.488 545.716 542.632 545.956 542.884 546.088C543.136 546.196 543.244 546.232 543.496 546.28L544.732 546.508C545.824 546.7 546.376 547.264 546.376 548.2C546.376 549.4 545.404 550.12 543.88 550.12C542.296 550.12 541.324 549.316 541.324 548.104Z" fill="#525252"/>
<path d="M539.778 542.572H538.746V541.204H539.778V542.572ZM539.778 550H538.746V543.736H539.778V550Z" fill="#525252"/>
<path d="M533.489 550H529.949V541.252H533.489C536.093 541.252 537.161 542.752 537.161 545.632C537.161 548.524 536.081 550 533.489 550ZM531.041 542.248V549.004H533.477C535.205 549.004 536.009 548.212 536.009 546.352V544.912C536.009 543.028 535.169 542.248 533.477 542.248H531.041Z" fill="#525252"/>
<path d="M522.585 543.616C524.301 543.616 525.369 544.696 525.369 546.436C525.369 546.676 525.357 546.892 525.333 547.084H520.713V547.444C520.713 548.548 521.469 549.28 522.621 549.28C523.497 549.28 524.169 548.824 524.373 548.116H525.405C525.273 548.728 524.961 549.208 524.445 549.58C523.929 549.94 523.317 550.12 522.597 550.12C520.773 550.12 519.645 548.86 519.645 546.844C519.645 544.828 520.773 543.616 522.585 543.616ZM520.713 546.148V546.316H524.337V546.076C524.337 545.104 523.629 544.456 522.585 544.456C521.481 544.456 520.713 545.14 520.713 546.148Z" fill="#525252"/>
<path d="M513.456 550H512.508V541.204H513.552V544.936H513.624C513.96 544.132 514.812 543.616 515.808 543.616C517.548 543.616 518.46 544.84 518.46 546.892C518.46 548.956 517.488 550.12 515.748 550.12C514.824 550.12 513.996 549.664 513.624 548.908H513.552L513.456 550ZM513.552 546.484V547.3C513.552 547.864 513.744 548.332 514.116 548.704C514.5 549.076 514.992 549.256 515.58 549.256C516.696 549.256 517.404 548.584 517.404 547.54V546.244C517.404 545.176 516.696 544.492 515.58 544.492C514.992 544.492 514.5 544.684 514.116 545.056C513.744 545.428 513.552 545.896 513.552 546.484Z" fill="#525252"/>
<path d="M506.331 543.736H508.503V544.6H506.427V550H505.383V544.66C505.383 544.048 505.695 543.736 506.331 543.736Z" fill="#525252"/>
<path d="M497.789 546.868C497.789 545.86 498.065 545.068 498.617 544.492C499.169 543.904 499.901 543.616 500.801 543.616C501.701 543.616 502.433 543.904 502.973 544.48C503.525 545.056 503.801 545.848 503.801 546.868C503.801 548.848 502.685 550.12 500.801 550.12C499.865 550.12 499.133 549.832 498.593 549.244C498.053 548.656 497.789 547.864 497.789 546.868ZM498.857 546.412V547.384C498.857 548.572 499.697 549.256 500.801 549.256C501.917 549.256 502.745 548.548 502.745 547.384V546.412C502.745 545.26 501.941 544.492 500.801 544.492C500.237 544.492 499.769 544.672 499.397 545.032C499.037 545.38 498.857 545.848 498.857 546.412Z" fill="#525252"/>
<path d="M492.652 544.6V549.136H493.972V550H492.532C491.92 550 491.62 549.712 491.62 549.124V544.6H490.48V543.736H491.62V541.66H492.652V543.736H493.96V544.6H492.652Z" fill="#525252"/>
<path d="M484.876 552.004H483.832V543.736H484.768L484.876 544.84H484.948C485.368 544.06 486.172 543.616 487.192 543.616C488.824 543.616 489.796 544.792 489.796 546.82C489.796 548.872 488.824 550.036 487.192 550.036C486.136 550.036 485.344 549.58 484.948 548.812H484.876V552.004ZM486.904 549.16C488.02 549.16 488.728 548.5 488.728 547.456V546.196C488.728 545.152 488.02 544.48 486.904 544.48C485.692 544.48 484.876 545.272 484.876 546.436V547.216C484.876 548.38 485.692 549.16 486.904 549.16Z" fill="#525252"/>
<path d="M480.694 543.736H481.738V550H480.85L480.706 548.836H480.61C480.274 549.616 479.458 550.12 478.486 550.12C477.19 550.12 476.41 549.256 476.41 547.732V543.736H477.442V547.588C477.442 548.692 477.91 549.244 478.834 549.244C479.974 549.244 480.694 548.344 480.694 547.012V543.736Z" fill="#525252"/>
<path d="M473.12 543.736H475.292V544.6H473.216V550H472.172V544.66C472.172 544.048 472.484 543.736 473.12 543.736Z" fill="#525252"/>
<path d="M465.586 548.104H466.618C466.618 548.836 467.218 549.304 468.142 549.304C469.018 549.304 469.546 548.92 469.546 548.26C469.546 547.792 469.27 547.504 468.718 547.396L467.374 547.144C466.258 546.94 465.706 546.388 465.706 545.488C465.706 544.324 466.63 543.616 468.07 543.616C469.558 543.616 470.458 544.372 470.47 545.524H469.438C469.414 544.792 468.958 544.42 468.07 544.42C467.218 544.42 466.75 544.792 466.75 545.38C466.75 545.716 466.894 545.956 467.146 546.088C467.398 546.196 467.506 546.232 467.758 546.28L468.994 546.508C470.086 546.7 470.638 547.264 470.638 548.2C470.638 549.4 469.666 550.12 468.142 550.12C466.558 550.12 465.586 549.316 465.586 548.104Z" fill="#525252"/>
<path d="M464.04 542.572H463.008V541.204H464.04V542.572ZM464.04 550H463.008V543.736H464.04V550Z" fill="#525252"/>
<path d="M457.751 550H454.211V541.252H457.751C460.355 541.252 461.423 542.752 461.423 545.632C461.423 548.524 460.343 550 457.751 550ZM455.303 542.248V549.004H457.739C459.467 549.004 460.271 548.212 460.271 546.352V544.912C460.271 543.028 459.431 542.248 457.739 542.248H455.303Z" fill="#525252"/>
<defs>
<filter id="filter0_d_961_42" x="0" y="592" width="190.898" height="101" filterUnits="userSpaceOnUse" color-interpolation-filters="sRGB">
<feFlood flood-opacity="0" result="BackgroundImageFix"/>
<feColorMatrix in="SourceAlpha" type="matrix" values="0 0 0 0 0 0 0 0 0 0 0 0 0 0 0 0 0 0 127 0" result="hardAlpha"/>
<feOffset dx="-3" dy="-4"/>
<feGaussianBlur stdDeviation="3"/>
<feComposite in2="hardAlpha" operator="out"/>
<feColorMatrix type="matrix" values="0 0 0 0 0 0 0 0 0 0 0 0 0 0 0 0 0 0 0.24 0"/>
<feBlend mode="normal" in2="BackgroundImageFix" result="effect1_dropShadow_961_42"/>
<feBlend mode="normal" in="SourceGraphic" in2="effect1_dropShadow_961_42" result="shape"/>
</filter>
<filter id="filter1_d_961_42" x="115" y="51.9375" width="24.9766" height="15.1257" filterUnits="userSpaceOnUse" color-interpolation-filters="sRGB">
<feFlood flood-opacity="0" result="BackgroundImageFix"/>
<feColorMatrix in="SourceAlpha" type="matrix" values="0 0 0 0 0 0 0 0 0 0 0 0 0 0 0 0 0 0 127 0" result="hardAlpha"/>
<feOffset dx="-1" dy="1"/>
<feGaussianBlur stdDeviation="0.5"/>
<feComposite in2="hardAlpha" operator="out"/>
<feColorMatrix type="matrix" values="0 0 0 0 0.0980392 0 0 0 0 0.105882 0 0 0 0 0.113725 0 0 0 0.55 0"/>
<feBlend mode="normal" in2="BackgroundImageFix" result="effect1_dropShadow_961_42"/>
<feBlend mode="normal" in="SourceGraphic" in2="effect1_dropShadow_961_42" result="shape"/>
</filter>
<filter id="filter2_d_961_42" x="115.109" y="60.6667" width="24.7812" height="14.3328" filterUnits="userSpaceOnUse" color-interpolation-filters="sRGB">
<feFlood flood-opacity="0" result="BackgroundImageFix"/>
<feColorMatrix in="SourceAlpha" type="matrix" values="0 0 0 0 0 0 0 0 0 0 0 0 0 0 0 0 0 0 127 0" result="hardAlpha"/>
<feOffset dx="-1" dy="1"/>
<feGaussianBlur stdDeviation="0.5"/>
<feComposite in2="hardAlpha" operator="out"/>
<feColorMatrix type="matrix" values="0 0 0 0 0.0965366 0 0 0 0 0.105884 0 0 0 0 0.112652 0 0 0 0.55 0"/>
<feBlend mode="normal" in2="BackgroundImageFix" result="effect1_dropShadow_961_42"/>
<feBlend mode="normal" in="SourceGraphic" in2="effect1_dropShadow_961_42" result="shape"/>
</filter>
<filter id="filter3_d_961_42" x="115" y="51.9375" width="24.9766" height="15.1257" filterUnits="userSpaceOnUse" color-interpolation-filters="sRGB">
<feFlood flood-opacity="0" result="BackgroundImageFix"/>
<feColorMatrix in="SourceAlpha" type="matrix" values="0 0 0 0 0 0 0 0 0 0 0 0 0 0 0 0 0 0 127 0" result="hardAlpha"/>
<feOffset dx="-1" dy="1"/>
<feGaussianBlur stdDeviation="0.5"/>
<feComposite in2="hardAlpha" operator="out"/>
<feColorMatrix type="matrix" values="0 0 0 0 0.0980392 0 0 0 0 0.105882 0 0 0 0 0.113725 0 0 0 0.32 0"/>
<feBlend mode="normal" in2="BackgroundImageFix" result="effect1_dropShadow_961_42"/>
<feBlend mode="normal" in="SourceGraphic" in2="effect1_dropShadow_961_42" result="shape"/>
</filter>
<filter id="filter4_d_961_42" x="115.109" y="60.6667" width="24.7812" height="14.3328" filterUnits="userSpaceOnUse" color-interpolation-filters="sRGB">
<feFlood flood-opacity="0" result="BackgroundImageFix"/>
<feColorMatrix in="SourceAlpha" type="matrix" values="0 0 0 0 0 0 0 0 0 0 0 0 0 0 0 0 0 0 127 0" result="hardAlpha"/>
<feOffset dx="-1" dy="1"/>
<feGaussianBlur stdDeviation="0.5"/>
<feComposite in2="hardAlpha" operator="out"/>
<feColorMatrix type="matrix" values="0 0 0 0 0.0965366 0 0 0 0 0.105884 0 0 0 0 0.112652 0 0 0 0.32 0"/>
<feBlend mode="normal" in2="BackgroundImageFix" result="effect1_dropShadow_961_42"/>
<feBlend mode="normal" in="SourceGraphic" in2="effect1_dropShadow_961_42" result="shape"/>
</filter>
<linearGradient id="paint0_linear_961_42" x1="334.71" y1="-18.7954" x2="336.5" y2="633" gradientUnits="userSpaceOnUse">
<stop stop-color="#2D2D2D"/>
<stop offset="1" stop-color="#0F0F0F" stop-opacity="0"/>
</linearGradient>
<linearGradient id="paint1_linear_961_42" x1="121.532" y1="46.9757" x2="121.712" y2="53.1851" gradientUnits="userSpaceOnUse">
<stop stop-opacity="0.59"/>
<stop offset="0.956462" stop-color="#5B5151" stop-opacity="0.34"/>
</linearGradient>
<linearGradient id="paint2_linear_961_42" x1="116.043" y1="51.8831" x2="116.599" y2="65.8014" gradientUnits="userSpaceOnUse">
<stop stop-opacity="0.59"/>
<stop offset="0.956462" stop-color="#5B5151" stop-opacity="0.34"/>
</linearGradient>
<linearGradient id="paint3_linear_961_42" x1="116.168" y1="60.6161" x2="116.664" y2="73.6957" gradientUnits="userSpaceOnUse">
<stop stop-opacity="0.59"/>
<stop offset="0.956462" stop-color="#5B5151" stop-opacity="0.34"/>
</linearGradient>
<linearGradient id="paint4_linear_961_42" x1="116.16" y1="60.6156" x2="116.656" y2="73.6952" gradientUnits="userSpaceOnUse">
<stop stop-opacity="0.59"/>
<stop offset="0.956462" stop-color="#5B5151" stop-opacity="0.34"/>
</linearGradient>
</defs>
</svg>
