<svg width="748" height="693" viewBox="0 0 748 693" fill="none" xmlns="http://www.w3.org/2000/svg">
<path d="M598.749 8.35059H118.107C99.0546 8.35059 83.6094 23.7959 83.6094 42.8486V652.502C83.6094 671.555 99.0546 687 118.107 687H598.749C617.803 687 633.247 671.555 633.247 652.502V42.8486C633.247 23.7959 617.803 8.35059 598.749 8.35059Z" fill="url(#paint0_linear_958_32)"/>
<path d="M522.768 74.7565L525.22 68.4636H524.1L522.272 73.41L520.429 68.4636H519.281L521.719 74.7565H522.768ZM530.638 72.8714C530.468 73.5801 529.887 73.9769 529.107 73.9769C528.044 73.9769 527.293 73.1549 527.279 71.8084H531.729V71.4258C531.729 69.5974 530.808 68.336 529.079 68.336C527.364 68.336 526.216 69.7392 526.216 71.6242C526.216 73.5659 527.392 74.884 529.107 74.884C530.525 74.884 531.418 74.062 531.644 72.8714H530.638ZM529.093 69.2431C530.142 69.2431 530.638 70.0651 530.652 71.0006H527.307C527.463 69.8951 528.143 69.2431 529.093 69.2431ZM536.732 68.4352C536.619 68.3785 536.392 68.336 536.123 68.336C535.429 68.336 534.833 68.747 534.564 69.2856V68.4636H533.501V74.7565H534.564V70.5329C534.777 69.7958 535.358 69.3565 536.024 69.3565C536.293 69.3565 536.562 69.4132 536.732 69.5266V68.4352ZM537.843 73.0273C538.042 74.1895 539.048 74.884 540.423 74.884C541.769 74.884 542.762 74.1754 542.762 72.9848C542.762 72.1061 542.237 71.5108 541.16 71.2273L539.941 70.9297C539.346 70.7596 539.062 70.5612 539.062 70.136C539.062 69.5266 539.643 69.2289 540.267 69.2289C541.032 69.2289 541.472 69.5549 541.656 70.1218H542.719C542.492 69.0163 541.67 68.336 540.281 68.336C539.006 68.336 538.028 69.073 538.028 70.1927C538.028 71.1706 538.651 71.6242 539.544 71.851L540.792 72.1769C541.444 72.347 541.727 72.6163 541.727 73.0557C541.727 73.6935 541.188 73.9911 540.437 73.9911C539.7 73.9911 539.147 73.6793 538.949 73.0273H537.843ZM545.654 68.4636H544.591V74.7565H545.654V68.4636ZM545.81 66.5643C545.81 66.1817 545.498 65.884 545.115 65.884C544.747 65.884 544.435 66.1817 544.435 66.5643C544.435 66.9329 544.747 67.2447 545.115 67.2447C545.498 67.2447 545.81 66.9329 545.81 66.5643ZM553.236 71.61C553.236 69.6825 552.06 68.336 550.345 68.336C548.616 68.336 547.454 69.6825 547.454 71.61C547.454 73.5376 548.616 74.884 550.345 74.884C552.06 74.884 553.236 73.5376 553.236 71.61ZM552.159 71.61C552.159 72.9848 551.479 73.9486 550.345 73.9486C549.211 73.9486 548.531 72.9848 548.531 71.61C548.531 70.2352 549.211 69.2714 550.345 69.2714C551.479 69.2714 552.159 70.2352 552.159 71.61ZM555.029 74.7565H556.092V70.4903C556.319 69.81 556.957 69.314 557.694 69.314C558.643 69.314 559.083 69.9234 559.083 70.8021V74.7565H560.16V70.6321C560.16 69.2573 559.381 68.336 557.949 68.336C557.141 68.336 556.461 68.7612 556.092 69.2573V68.4636H555.029V74.7565ZM561.822 74.062C561.822 74.5014 562.162 74.8273 562.588 74.8273C562.999 74.8273 563.339 74.5014 563.339 74.062C563.339 73.6226 562.999 73.2825 562.588 73.2825C562.162 73.2825 561.822 73.6226 561.822 74.062ZM561.822 69.6116C561.822 70.051 562.162 70.3769 562.588 70.3769C562.999 70.3769 563.339 70.051 563.339 69.6116C563.339 69.1722 562.999 68.8321 562.588 68.8321C562.162 68.8321 561.822 69.1722 561.822 69.6116ZM571.228 66.0399H570.562L567.982 67.358V68.4919L570.136 67.3864V74.7565H571.228V66.0399ZM573.1 74.062C573.1 74.5014 573.44 74.8273 573.866 74.8273C574.277 74.8273 574.617 74.5014 574.617 74.062C574.617 73.6226 574.277 73.2825 573.866 73.2825C573.44 73.2825 573.1 73.6226 573.1 74.062ZM578.807 74.884C580.748 74.884 582.052 73.0557 582.052 70.4053C582.052 67.7549 580.748 65.9266 578.807 65.9266C576.865 65.9266 575.561 67.7549 575.561 70.4053C575.561 73.0557 576.865 74.884 578.807 74.884ZM578.807 66.9329C580.21 66.9329 580.961 68.3785 580.961 70.4053C580.961 72.4321 580.21 73.8777 578.807 73.8777C577.389 73.8777 576.652 72.4321 576.652 70.4053C576.652 68.3785 577.389 66.9329 578.807 66.9329ZM582.999 74.062C582.999 74.5014 583.34 74.8273 583.765 74.8273C584.176 74.8273 584.516 74.5014 584.516 74.062C584.516 73.6226 584.176 73.2825 583.765 73.2825C583.34 73.2825 582.999 73.6226 582.999 74.062ZM588.706 74.884C590.647 74.884 591.951 73.0557 591.951 70.4053C591.951 67.7549 590.647 65.9266 588.706 65.9266C586.764 65.9266 585.46 67.7549 585.46 70.4053C585.46 73.0557 586.764 74.884 588.706 74.884ZM588.706 66.9329C590.109 66.9329 590.86 68.3785 590.86 70.4053C590.86 72.4321 590.109 73.8777 588.706 73.8777C587.288 73.8777 586.551 72.4321 586.551 70.4053C586.551 68.3785 587.288 66.9329 588.706 66.9329Z" fill="#4F4F4F"/>
<path d="M84.6526 573.845L84.8017 555.26M75.1875 576.29L75.2831 536.087M75.317 473V522.655" stroke="#646464" stroke-width="2" stroke-linecap="round"/>
<path d="M75.3711 461V37.0712C75.3711 17.1491 92.0734 1 112.678 1H183.562M642.437 227.347V37.0712C642.437 17.1491 625.736 1 605.13 1H246.983M203.147 1H221.801" stroke="#646464" stroke-width="2" stroke-linecap="round"/>
<path d="M642.602 652V248.617" stroke="#646464" stroke-width="2" stroke-linecap="round"/>
<path d="M63 298.959V181.725M63 73.1511V160.985" stroke="#00D395" stroke-width="2" stroke-linecap="round"/>
<g filter="url(#filter0_d_958_32)">
<path d="M44.1353 690C65.3922 690 78.2289 673.921 78.2702 646.233C78.3114 618.751 65.3096 603 44.1353 603C22.9196 603 10.0417 618.71 10.0004 646.233C9.91784 673.839 22.8371 689.959 44.1353 690ZM44.1353 675.274C34.4355 675.274 28.1616 665.594 28.2029 646.233C28.2442 627.16 34.4768 617.562 44.1353 617.562C53.7525 617.562 60.0264 627.16 60.0264 646.233C60.0676 665.594 53.7938 675.274 44.1353 675.274Z" fill="#2D2D2D" fill-opacity="0.4" shape-rendering="crispEdges"/>
<path d="M92.1763 688.154H152.439V673.634H116.942V673.059L129.283 661.041C146.66 645.29 151.324 637.414 151.324 627.857C151.324 613.296 139.354 603 121.234 603C103.486 603 91.3095 613.542 91.3508 630.031H108.315C108.274 621.992 113.392 617.069 121.11 617.069C128.54 617.069 134.071 621.663 134.071 629.047C134.071 635.733 129.943 640.327 122.266 647.669L92.1763 675.356V688.154Z" fill="#2D2D2D" fill-opacity="0.4" shape-rendering="crispEdges"/>
<path d="M176.994 689.221C182.277 689.221 186.859 684.832 186.9 679.376C186.859 674.003 182.277 669.614 176.994 669.614C171.545 669.614 167.046 674.003 167.088 679.376C167.046 684.832 171.545 689.221 176.994 689.221Z" fill="#2D2D2D" fill-opacity="0.4" shape-rendering="crispEdges"/>
<path d="M44.1343 690.5H44.1353C54.9026 690.5 63.577 686.421 69.5519 678.808C75.5145 671.211 78.7494 660.147 78.7702 646.234C78.7909 632.421 75.5346 621.489 69.5492 613.999C63.5523 606.495 54.8579 602.5 44.1353 602.5C33.3924 602.5 24.7182 606.484 18.7366 613.984C12.7669 621.468 9.5212 632.4 9.50039 646.232C9.45897 660.106 12.6837 671.16 18.6569 678.762C24.642 686.38 33.3468 690.479 44.1343 690.5ZM59.5264 646.233V646.234C59.5469 655.873 57.9933 663.033 55.2843 667.766C52.5906 672.472 48.762 674.774 44.1353 674.774C39.487 674.774 35.6484 672.471 32.9499 667.765C30.236 663.033 28.6824 655.873 28.7029 646.234C28.7235 636.74 30.2869 629.672 32.9953 624.995C35.6882 620.346 39.5065 618.062 44.1353 618.062C48.7429 618.062 52.5615 620.345 55.2546 624.995C57.9629 629.672 59.5264 636.739 59.5264 646.233ZM91.6763 688.154V688.654H92.1763H152.439H152.939V688.154V673.634V673.134H152.439H117.582L129.625 661.405C147 645.655 151.824 637.649 151.824 627.857C151.824 620.429 148.767 614.074 143.395 609.584C138.03 605.1 130.386 602.5 121.234 602.5C112.263 602.5 104.655 605.165 99.2883 609.959C93.9158 614.758 90.8298 621.657 90.8508 630.032L90.8521 630.531H91.3508H108.315H108.818L108.815 630.029C108.795 626.118 110.028 623.014 112.156 620.889C114.285 618.764 117.359 617.569 121.11 617.569C124.724 617.569 127.838 618.686 130.043 620.662C132.242 622.632 133.571 625.488 133.571 629.047C133.571 635.486 129.627 639.937 121.924 647.304C121.923 647.305 121.922 647.307 121.921 647.308L91.8378 674.988L91.6763 675.137V675.356V688.154ZM187.4 679.38L187.4 679.372C187.357 673.717 182.544 669.114 176.994 669.114C171.281 669.114 166.546 673.715 166.588 679.376C166.546 685.117 171.278 689.721 176.994 689.721C182.547 689.721 187.357 685.115 187.4 679.38Z" stroke="#203C2F" stroke-opacity="0.52" shape-rendering="crispEdges"/>
</g>
<line x1="125.998" y1="528.5" x2="585.997" y2="526.419" stroke="#3B3A3A"/>
<path d="M129.96 549H127.01V541.71H129.96C132.13 541.71 133.02 542.96 133.02 545.36C133.02 547.77 132.12 549 129.96 549ZM127.92 542.54V548.17H129.95C131.39 548.17 132.06 547.51 132.06 545.96V544.76C132.06 543.19 131.36 542.54 129.95 542.54H127.92ZM135.201 542.81H134.341V541.67H135.201V542.81ZM135.201 549H134.341V543.78H135.201V549ZM137.048 542.81V541.67H137.898V542.81H137.048ZM137.048 549.97V543.78H137.898V549.9C137.898 550.06 137.888 550.15 137.798 550.35C137.718 550.55 137.478 550.67 137.118 550.67H135.898V549.97H137.048ZM141.576 543.68C143.006 543.68 143.896 544.58 143.896 546.03C143.896 546.23 143.886 546.41 143.866 546.57H140.016V546.87C140.016 547.79 140.646 548.4 141.606 548.4C142.336 548.4 142.896 548.02 143.066 547.43H143.926C143.816 547.94 143.556 548.34 143.126 548.65C142.696 548.95 142.186 549.1 141.586 549.1C140.066 549.1 139.126 548.05 139.126 546.37C139.126 544.69 140.066 543.68 141.576 543.68ZM140.016 545.79V545.93H143.036V545.73C143.036 544.92 142.446 544.38 141.576 544.38C140.656 544.38 140.016 544.95 140.016 545.79ZM146.309 544.5V548.28H147.409V549H146.209C145.699 549 145.449 548.76 145.449 548.27V544.5H144.499V543.78H145.449V542.05H146.309V543.78H147.399V544.5H146.309ZM148.236 547.42H149.096C149.096 548.03 149.596 548.42 150.366 548.42C151.096 548.42 151.536 548.1 151.536 547.55C151.536 547.16 151.306 546.92 150.846 546.83L149.726 546.62C148.796 546.45 148.336 545.99 148.336 545.24C148.336 544.27 149.106 543.68 150.306 543.68C151.546 543.68 152.296 544.31 152.306 545.27H151.446C151.426 544.66 151.046 544.35 150.306 544.35C149.596 544.35 149.206 544.66 149.206 545.15C149.206 545.43 149.326 545.63 149.536 545.74C149.746 545.83 149.836 545.86 150.046 545.9L151.076 546.09C151.986 546.25 152.446 546.72 152.446 547.5C152.446 548.5 151.636 549.1 150.366 549.1C149.046 549.1 148.236 548.43 148.236 547.42ZM157.109 541.71V549H156.199V541.71H157.109ZM159.859 549H158.989V543.78H159.749L159.859 544.75H159.929C160.249 544.08 160.899 543.68 161.689 543.68C162.819 543.68 163.499 544.5 163.499 545.79V549H162.629V545.88C162.629 544.93 162.219 544.45 161.399 544.45C160.479 544.45 159.859 545.18 159.859 546.27V549ZM168.681 547.22H169.541C169.371 548.38 168.491 549.1 167.221 549.1C166.451 549.1 165.841 548.86 165.401 548.37C164.961 547.88 164.741 547.23 164.741 546.4C164.741 545.55 164.971 544.88 165.431 544.4C165.891 543.92 166.501 543.68 167.251 543.68C168.461 543.68 169.341 544.39 169.511 545.48H168.651C168.481 544.77 167.931 544.41 167.211 544.41C166.281 544.41 165.631 545.08 165.631 546.04V546.83C165.631 547.76 166.261 548.38 167.211 548.38C167.981 548.38 168.551 547.93 168.681 547.22ZM171.735 549H170.615V547.74H171.735V549ZM176.34 549L174.86 541.71H175.82L176.67 546.05L177 548H177.07L178.76 541.71H179.99L181.69 548H181.75L182.08 546.06L182.92 541.71H183.89L182.4 549H181.14L179.4 542.7H179.35L177.61 549H176.34ZM185.748 549H184.878V541.67H185.748V544.73H185.808C186.128 544.08 186.798 543.68 187.568 543.68C188.698 543.68 189.378 544.49 189.378 545.78V549H188.518V545.87C188.518 544.9 188.108 544.41 187.278 544.41C186.358 544.41 185.748 545.13 185.748 546.24V549ZM191.91 542.81H191.05V541.67H191.91V542.81ZM191.91 549H191.05V543.78H191.91V549ZM194.717 544.5V548.28H195.817V549H194.617C194.107 549 193.857 548.76 193.857 548.27V544.5H192.907V543.78H193.857V542.05H194.717V543.78H195.807V544.5H194.717ZM199.056 543.68C200.486 543.68 201.376 544.58 201.376 546.03C201.376 546.23 201.366 546.41 201.346 546.57H197.496V546.87C197.496 547.79 198.126 548.4 199.086 548.4C199.816 548.4 200.376 548.02 200.546 547.43H201.406C201.296 547.94 201.036 548.34 200.606 548.65C200.176 548.95 199.666 549.1 199.066 549.1C197.546 549.1 196.606 548.05 196.606 546.37C196.606 544.69 197.546 543.68 199.056 543.68ZM197.496 545.79V545.93H200.516V545.73C200.516 544.92 199.926 544.38 199.056 544.38C198.136 544.38 197.496 544.95 197.496 545.79ZM203.59 550.67H202.72V543.78H203.5L203.59 544.7H203.65C204 544.05 204.67 543.68 205.52 543.68C206.88 543.68 207.69 544.66 207.69 546.35C207.69 548.06 206.88 549.03 205.52 549.03C204.64 549.03 203.98 548.65 203.65 548.01H203.59V550.67ZM205.28 548.3C206.21 548.3 206.8 547.75 206.8 546.88V545.83C206.8 544.96 206.21 544.4 205.28 544.4C204.27 544.4 203.59 545.06 203.59 546.03V546.68C203.59 547.65 204.27 548.3 205.28 548.3ZM208.559 547.5C208.559 546.47 209.269 545.89 210.459 545.89H212.029V545.49C212.029 544.74 211.639 544.37 210.849 544.37C210.079 544.37 209.659 544.74 209.629 545.34H208.779C208.829 544.3 209.629 543.68 210.899 543.68C211.589 543.68 212.129 543.91 212.399 544.19C212.529 544.33 212.639 544.49 212.719 544.68C212.879 545.05 212.889 545.27 212.889 545.51V548.36H213.659V549H212.769C212.289 549 212.119 548.8 212.089 548.41L212.079 548.14H212.019C211.789 548.73 211.089 549.1 210.239 549.1C209.189 549.1 208.559 548.47 208.559 547.5ZM209.449 547.28V547.6C209.449 548.12 209.839 548.4 210.439 548.4C211.409 548.4 212.029 547.76 212.029 546.8V546.52H210.539C209.849 546.52 209.449 546.83 209.449 547.28ZM215.621 550.67H214.751V543.78H215.531L215.621 544.7H215.681C216.031 544.05 216.701 543.68 217.551 543.68C218.911 543.68 219.721 544.66 219.721 546.35C219.721 548.06 218.911 549.03 217.551 549.03C216.671 549.03 216.011 548.65 215.681 548.01H215.621V550.67ZM217.311 548.3C218.241 548.3 218.831 547.75 218.831 546.88V545.83C218.831 544.96 218.241 544.4 217.311 544.4C216.301 544.4 215.621 545.06 215.621 546.03V546.68C215.621 547.65 216.301 548.3 217.311 548.3ZM223.148 543.68C224.578 543.68 225.468 544.58 225.468 546.03C225.468 546.23 225.458 546.41 225.438 546.57H221.588V546.87C221.588 547.79 222.218 548.4 223.178 548.4C223.908 548.4 224.468 548.02 224.638 547.43H225.498C225.388 547.94 225.128 548.34 224.698 548.65C224.268 548.95 223.758 549.1 223.158 549.1C221.638 549.1 220.698 548.05 220.698 546.37C220.698 544.69 221.638 543.68 223.148 543.68ZM221.588 545.79V545.93H224.608V545.73C224.608 544.92 224.018 544.38 223.148 544.38C222.228 544.38 221.588 544.95 221.588 545.79ZM227.601 543.78H229.411V544.5H227.681V549H226.811V544.55C226.811 544.04 227.071 543.78 227.601 543.78ZM233.779 549L231.879 543.78H232.829L233.749 546.56L234.259 548.11H234.319L234.799 546.56L235.719 543.78H236.669L234.809 549H233.779ZM239.535 543.68C240.965 543.68 241.855 544.58 241.855 546.03C241.855 546.23 241.845 546.41 241.825 546.57H237.975V546.87C237.975 547.79 238.605 548.4 239.565 548.4C240.295 548.4 240.855 548.02 241.025 547.43H241.885C241.775 547.94 241.515 548.34 241.085 548.65C240.655 548.95 240.145 549.1 239.545 549.1C238.025 549.1 237.085 548.05 237.085 546.37C237.085 544.69 238.025 543.68 239.535 543.68ZM237.975 545.79V545.93H240.995V545.73C240.995 544.92 240.405 544.38 239.535 544.38C238.615 544.38 237.975 544.95 237.975 545.79ZM243.988 543.78H245.798V544.5H244.068V549H243.198V544.55C243.198 544.04 243.458 543.78 243.988 543.78ZM246.195 547.42H247.055C247.055 548.03 247.555 548.42 248.325 548.42C249.055 548.42 249.495 548.1 249.495 547.55C249.495 547.16 249.265 546.92 248.805 546.83L247.685 546.62C246.755 546.45 246.295 545.99 246.295 545.24C246.295 544.27 247.065 543.68 248.265 543.68C249.505 543.68 250.255 544.31 250.265 545.27H249.405C249.385 544.66 249.005 544.35 248.265 544.35C247.555 544.35 247.165 544.66 247.165 545.15C247.165 545.43 247.285 545.63 247.495 545.74C247.705 545.83 247.795 545.86 248.005 545.9L249.035 546.09C249.945 546.25 250.405 546.72 250.405 547.5C250.405 548.5 249.595 549.1 248.325 549.1C247.005 549.1 246.195 548.43 246.195 547.42ZM252.544 542.81H251.684V541.67H252.544V542.81ZM252.544 549H251.684V543.78H252.544V549ZM253.852 546.39C253.852 545.55 254.082 544.89 254.542 544.41C255.002 543.92 255.612 543.68 256.362 543.68C257.112 543.68 257.722 543.92 258.172 544.4C258.632 544.88 258.862 545.54 258.862 546.39C258.862 548.04 257.932 549.1 256.362 549.1C255.582 549.1 254.972 548.86 254.522 548.37C254.072 547.88 253.852 547.22 253.852 546.39ZM254.742 546.01V546.82C254.742 547.81 255.442 548.38 256.362 548.38C257.292 548.38 257.982 547.79 257.982 546.82V546.01C257.982 545.05 257.312 544.41 256.362 544.41C255.892 544.41 255.502 544.56 255.192 544.86C254.892 545.15 254.742 545.54 254.742 546.01ZM261.051 549H260.181V543.78H260.941L261.051 544.75H261.121C261.441 544.08 262.091 543.68 262.881 543.68C264.011 543.68 264.691 544.5 264.691 545.79V549H263.821V545.88C263.821 544.93 263.411 544.45 262.591 544.45C261.671 544.45 261.051 545.18 261.051 546.27V549ZM270.116 543.7H268.306V543.02H268.586C269.516 543.02 270.146 542.54 270.176 541.79H270.986V549H270.116V543.7ZM274.196 549H273.076V547.74H274.196V549ZM278.007 541.7C279.677 541.7 280.487 542.91 280.487 545.4C280.487 547.89 279.677 549.1 278.007 549.1C276.347 549.1 275.517 547.87 275.517 545.4C275.517 542.93 276.347 541.7 278.007 541.7ZM276.487 544.32V546.48C276.487 547.68 277.067 548.32 277.997 548.32C278.917 548.32 279.517 547.69 279.517 546.48V544.32C279.517 543.11 278.917 542.48 277.997 542.48C277.067 542.48 276.487 543.12 276.487 544.32ZM282.927 549H281.807V547.74H282.927V549ZM286.738 541.7C288.408 541.7 289.218 542.91 289.218 545.4C289.218 547.89 288.408 549.1 286.738 549.1C285.078 549.1 284.248 547.87 284.248 545.4C284.248 542.93 285.078 541.7 286.738 541.7ZM285.218 544.32V546.48C285.218 547.68 285.798 548.32 286.728 548.32C287.648 548.32 288.248 547.69 288.248 546.48V544.32C288.248 543.11 287.648 542.48 286.728 542.48C285.798 542.48 285.218 543.12 285.218 544.32Z" fill="#7B7979"/>
<path d="M133.84 273H131.488L129.952 268.872H121.912L120.376 273H118.096L124.696 255.504H127.192L133.84 273ZM123.688 264.072L122.584 267.072H129.28L128.176 264.072L126.016 257.712H125.896L123.688 264.072ZM138.137 273H136.049V260.472H137.873L138.137 262.8H138.305C139.073 261.192 140.633 260.232 142.529 260.232C145.241 260.232 146.873 262.2 146.873 265.296V273H144.785V265.512C144.785 263.232 143.801 262.08 141.833 262.08C139.625 262.08 138.137 263.832 138.137 266.448V273ZM155.43 269.4C155.43 266.928 157.134 265.536 159.99 265.536H163.758V264.576C163.758 262.776 162.822 261.888 160.926 261.888C159.078 261.888 158.07 262.776 157.998 264.216H155.958C156.078 261.72 157.998 260.232 161.046 260.232C162.702 260.232 163.998 260.784 164.646 261.456C164.958 261.792 165.222 262.176 165.414 262.632C165.798 263.52 165.822 264.048 165.822 264.624V271.464H167.67V273H165.534C164.382 273 163.974 272.52 163.902 271.584L163.878 270.936H163.734C163.182 272.352 161.502 273.24 159.462 273.24C156.942 273.24 155.43 271.728 155.43 269.4ZM157.566 268.872V269.64C157.566 270.888 158.502 271.56 159.942 271.56C162.27 271.56 163.758 270.024 163.758 267.72V267.048H160.182C158.526 267.048 157.566 267.792 157.566 268.872ZM172.187 260.472H176.531V262.2H172.379V273H170.291V262.32C170.291 261.096 170.915 260.472 172.187 260.472ZM186.778 268.728H188.842C188.434 271.512 186.322 273.24 183.274 273.24C181.426 273.24 179.962 272.664 178.906 271.488C177.85 270.312 177.322 268.752 177.322 266.76C177.322 264.72 177.874 263.112 178.978 261.96C180.082 260.808 181.546 260.232 183.346 260.232C186.25 260.232 188.362 261.936 188.77 264.552H186.706C186.298 262.848 184.978 261.984 183.25 261.984C181.018 261.984 179.458 263.592 179.458 265.896V267.792C179.458 270.024 180.97 271.512 183.25 271.512C185.098 271.512 186.466 270.432 186.778 268.728ZM193.989 273H191.901V255.408H193.989V262.752H194.133C194.901 261.192 196.509 260.232 198.357 260.232C201.069 260.232 202.701 262.176 202.701 265.272V273H200.637V265.488C200.637 263.16 199.653 261.984 197.661 261.984C195.453 261.984 193.989 263.712 193.989 266.376V273ZM208.777 258.144H206.713V255.408H208.777V258.144ZM208.777 273H206.713V260.472H208.777V273ZM215.515 262.2V271.272H218.155V273H215.275C214.051 273 213.451 272.424 213.451 271.248V262.2H211.171V260.472H213.451V256.32H215.515V260.472H218.131V262.2H215.515ZM225.928 260.232C229.36 260.232 231.496 262.392 231.496 265.872C231.496 266.352 231.472 266.784 231.424 267.168H222.184V267.888C222.184 270.096 223.696 271.56 226 271.56C227.752 271.56 229.096 270.648 229.504 269.232H231.568C231.304 270.456 230.68 271.416 229.648 272.16C228.616 272.88 227.392 273.24 225.952 273.24C222.304 273.24 220.048 270.72 220.048 266.688C220.048 262.656 222.304 260.232 225.928 260.232ZM222.184 265.296V265.632H229.432V265.152C229.432 263.208 228.016 261.912 225.928 261.912C223.72 261.912 222.184 263.28 222.184 265.296ZM243.379 268.728H245.443C245.035 271.512 242.923 273.24 239.875 273.24C238.027 273.24 236.563 272.664 235.507 271.488C234.451 270.312 233.923 268.752 233.923 266.76C233.923 264.72 234.475 263.112 235.579 261.96C236.683 260.808 238.147 260.232 239.947 260.232C242.851 260.232 244.963 261.936 245.371 264.552H243.307C242.899 262.848 241.579 261.984 239.851 261.984C237.619 261.984 236.059 263.592 236.059 265.896V267.792C236.059 270.024 237.571 271.512 239.851 271.512C241.699 271.512 243.067 270.432 243.379 268.728ZM251.07 262.2V271.272H253.71V273H250.83C249.606 273 249.006 272.424 249.006 271.248V262.2H246.726V260.472H249.006V256.32H251.07V260.472H253.686V262.2H251.07ZM265.176 260.472H267.264V273H265.488L265.2 270.672H265.008C264.336 272.232 262.704 273.24 260.76 273.24C258.168 273.24 256.608 271.512 256.608 268.464V260.472H258.672V268.176C258.672 270.384 259.608 271.488 261.456 271.488C263.736 271.488 265.176 269.688 265.176 267.024V260.472ZM273.343 260.472H277.687V262.2H273.535V273H271.447V262.32C271.447 261.096 272.071 260.472 273.343 260.472ZM278.407 269.4C278.407 266.928 280.111 265.536 282.967 265.536H286.735V264.576C286.735 262.776 285.799 261.888 283.903 261.888C282.055 261.888 281.047 262.776 280.975 264.216H278.935C279.055 261.72 280.975 260.232 284.023 260.232C285.679 260.232 286.975 260.784 287.623 261.456C287.935 261.792 288.199 262.176 288.391 262.632C288.775 263.52 288.799 264.048 288.799 264.624V271.464H290.647V273H288.511C287.359 273 286.951 272.52 286.879 271.584L286.855 270.936H286.711C286.159 272.352 284.479 273.24 282.439 273.24C279.919 273.24 278.407 271.728 278.407 269.4ZM280.543 268.872V269.64C280.543 270.888 281.479 271.56 282.919 271.56C285.247 271.56 286.735 270.024 286.735 267.72V267.048H283.159C281.503 267.048 280.543 267.792 280.543 268.872ZM295.332 273H293.268V255.408H295.332V273ZM304.072 266.736C304.072 264.72 304.624 263.136 305.728 261.984C306.832 260.808 308.296 260.232 310.096 260.232C311.896 260.232 313.36 260.808 314.44 261.96C315.544 263.112 316.096 264.696 316.096 266.736C316.096 270.696 313.864 273.24 310.096 273.24C308.224 273.24 306.76 272.664 305.68 271.488C304.6 270.312 304.072 268.728 304.072 266.736ZM306.208 265.824V267.768C306.208 270.144 307.888 271.512 310.096 271.512C312.328 271.512 313.984 270.096 313.984 267.768V265.824C313.984 263.52 312.376 261.984 310.096 261.984C308.968 261.984 308.032 262.344 307.288 263.064C306.568 263.76 306.208 264.696 306.208 265.824ZM321.685 273L317.125 260.472H319.405L321.613 267.144L322.837 270.864H322.981L324.133 267.144L326.341 260.472H328.621L324.157 273H321.685ZM335.499 260.232C338.931 260.232 341.067 262.392 341.067 265.872C341.067 266.352 341.043 266.784 340.995 267.168H331.755V267.888C331.755 270.096 333.267 271.56 335.571 271.56C337.323 271.56 338.667 270.648 339.075 269.232H341.139C340.875 270.456 340.251 271.416 339.219 272.16C338.187 272.88 336.963 273.24 335.523 273.24C331.875 273.24 329.619 270.72 329.619 266.688C329.619 262.656 331.875 260.232 335.499 260.232ZM331.755 265.296V265.632H339.003V265.152C339.003 263.208 337.587 261.912 335.499 261.912C333.291 261.912 331.755 263.28 331.755 265.296ZM346.187 260.472H350.531V262.2H346.379V273H344.291V262.32C344.291 261.096 344.915 260.472 346.187 260.472ZM355.412 273L350.852 260.472H353.132L355.34 267.144L356.564 270.864H356.708L357.86 267.144L360.068 260.472H362.348L357.884 273H355.412ZM366.488 258.144H364.424V255.408H366.488V258.144ZM366.488 273H364.424V260.472H366.488V273ZM375.506 260.232C378.938 260.232 381.074 262.392 381.074 265.872C381.074 266.352 381.05 266.784 381.002 267.168H371.762V267.888C371.762 270.096 373.274 271.56 375.578 271.56C377.33 271.56 378.674 270.648 379.082 269.232H381.146C380.882 270.456 380.258 271.416 379.226 272.16C378.194 272.88 376.97 273.24 375.53 273.24C371.882 273.24 369.626 270.72 369.626 266.688C369.626 262.656 371.882 260.232 375.506 260.232ZM371.762 265.296V265.632H379.01V265.152C379.01 263.208 377.594 261.912 375.506 261.912C373.298 261.912 371.762 263.28 371.762 265.296ZM395.681 267.192L397.409 260.472H399.593L396.089 273H393.377L391.769 266.568L390.953 263.016H390.809L390.041 266.568L388.505 273H385.745L382.217 260.472H384.473L386.225 267.12L387.041 270.936H387.209L389.657 260.472H392.177L394.745 270.888H394.865L395.681 267.192ZM406.494 266.736C406.494 264.72 407.046 263.136 408.15 261.984C409.254 260.808 410.718 260.232 412.518 260.232C414.318 260.232 415.782 260.808 416.862 261.96C417.966 263.112 418.518 264.696 418.518 266.736C418.518 270.696 416.286 273.24 412.518 273.24C410.646 273.24 409.182 272.664 408.102 271.488C407.021 270.312 406.494 268.728 406.494 266.736ZM408.63 265.824V267.768C408.63 270.144 410.31 271.512 412.518 271.512C414.75 271.512 416.406 270.096 416.406 267.768V265.824C416.406 263.52 414.798 261.984 412.518 261.984C411.39 261.984 410.454 262.344 409.71 263.064C408.99 263.76 408.63 264.696 408.63 265.824ZM427.682 257.112H424.442V260.472H427.154V262.2H424.442V273H422.378V262.2H419.93V260.472H422.378V257.136C422.378 255.984 423.05 255.408 424.37 255.408H427.682V257.112ZM443.113 273H436.033V255.504H443.113C448.321 255.504 450.457 258.504 450.457 264.264C450.457 270.048 448.297 273 443.113 273ZM438.217 257.496V271.008H443.089C446.545 271.008 448.153 269.424 448.153 265.704V262.824C448.153 259.056 446.473 257.496 443.089 257.496H438.217ZM455.691 258.144H453.627V255.408H455.691V258.144ZM455.691 273H453.627V260.472H455.691V273ZM460.125 258.144V255.408H462.165V258.144H460.125ZM460.125 275.328V260.472H462.165V275.16C462.165 275.544 462.141 275.76 461.925 276.24C461.733 276.72 461.157 277.008 460.293 277.008H457.365V275.328H460.125ZM470.991 260.232C474.423 260.232 476.559 262.392 476.559 265.872C476.559 266.352 476.535 266.784 476.487 267.168H467.247V267.888C467.247 270.096 468.759 271.56 471.063 271.56C472.815 271.56 474.159 270.648 474.567 269.232H476.631C476.367 270.456 475.743 271.416 474.711 272.16C473.679 272.88 472.455 273.24 471.015 273.24C467.367 273.24 465.111 270.72 465.111 266.688C465.111 262.656 467.367 260.232 470.991 260.232ZM467.247 265.296V265.632H474.495V265.152C474.495 263.208 473.079 261.912 470.991 261.912C468.783 261.912 467.247 263.28 467.247 265.296ZM482.351 262.2V271.272H484.991V273H482.111C480.887 273 480.287 272.424 480.287 271.248V262.2H478.007V260.472H480.287V256.32H482.351V260.472H484.967V262.2H482.351ZM486.977 269.208H489.041C489.041 270.672 490.241 271.608 492.089 271.608C493.841 271.608 494.897 270.84 494.897 269.52C494.897 268.584 494.345 268.008 493.241 267.792L490.553 267.288C488.321 266.88 487.217 265.776 487.217 263.976C487.217 261.648 489.065 260.232 491.945 260.232C494.921 260.232 496.721 261.744 496.745 264.048H494.681C494.633 262.584 493.721 261.84 491.945 261.84C490.241 261.84 489.305 262.584 489.305 263.76C489.305 264.432 489.593 264.912 490.097 265.176C490.601 265.392 490.817 265.464 491.321 265.56L493.793 266.016C495.977 266.4 497.081 267.528 497.081 269.4C497.081 271.8 495.137 273.24 492.089 273.24C488.921 273.24 486.977 271.632 486.977 269.208ZM122.608 302H120.424V284.504H128.032C131.68 284.504 133.504 286.568 133.504 290.024C133.504 293.576 131.584 295.616 128.032 295.616H122.608V302ZM122.608 286.52V293.696H127.936C130.024 293.696 131.2 292.616 131.2 290.888V289.136C131.2 287.48 130.024 286.52 128.2 286.52H122.608ZM138.347 302H136.283V284.408H138.347V302ZM141.462 298.4C141.462 295.928 143.166 294.536 146.022 294.536H149.79V293.576C149.79 291.776 148.854 290.888 146.958 290.888C145.11 290.888 144.102 291.776 144.03 293.216H141.99C142.11 290.72 144.03 289.232 147.078 289.232C148.734 289.232 150.03 289.784 150.678 290.456C150.99 290.792 151.254 291.176 151.446 291.632C151.83 292.52 151.854 293.048 151.854 293.624V300.464H153.702V302H151.566C150.414 302 150.006 301.52 149.934 300.584L149.91 299.936H149.766C149.214 301.352 147.534 302.24 145.494 302.24C142.974 302.24 141.462 300.728 141.462 298.4ZM143.598 297.872V298.64C143.598 299.888 144.534 300.56 145.974 300.56C148.302 300.56 149.79 299.024 149.79 296.72V296.048H146.214C144.558 296.048 143.598 296.792 143.598 297.872ZM158.75 291.2V300.272H161.39V302H158.51C157.286 302 156.686 301.424 156.686 300.248V291.2H154.406V289.472H156.686V285.32H158.75V289.472H161.366V291.2H158.75ZM170.455 286.112H167.215V289.472H169.927V291.2H167.215V302H165.151V291.2H162.703V289.472H165.151V286.136C165.151 284.984 165.823 284.408 167.143 284.408H170.455V286.112ZM171.439 295.736C171.439 293.72 171.991 292.136 173.095 290.984C174.199 289.808 175.663 289.232 177.463 289.232C179.263 289.232 180.727 289.808 181.807 290.96C182.911 292.112 183.463 293.696 183.463 295.736C183.463 299.696 181.231 302.24 177.463 302.24C175.591 302.24 174.127 301.664 173.047 300.488C171.967 299.312 171.439 297.728 171.439 295.736ZM173.575 294.824V296.768C173.575 299.144 175.255 300.512 177.463 300.512C179.695 300.512 181.351 299.096 181.351 296.768V294.824C181.351 292.52 179.743 290.984 177.463 290.984C176.335 290.984 175.399 291.344 174.655 292.064C173.935 292.76 173.575 293.696 173.575 294.824ZM188.523 289.472H192.867V291.2H188.715V302H186.627V291.32C186.627 290.096 187.251 289.472 188.523 289.472ZM197.364 302H195.276V289.472H197.076L197.34 291.8H197.532C198.276 290.096 199.548 289.232 201.396 289.232C203.244 289.232 204.588 290.336 205.068 291.968H205.26C206.004 290.144 207.468 289.232 209.364 289.232C211.98 289.232 213.54 291.032 213.54 294.176V302H211.452V294.44C211.452 292.136 210.54 290.984 208.716 290.984C206.628 290.984 205.452 292.688 205.452 295.352V302H203.388V294.488C203.388 292.16 202.476 290.984 200.676 290.984C198.66 290.984 197.364 292.736 197.364 295.328V302Z" fill="#626262"/>
<path d="M143.4 222H139.48L136.92 215.12H123.52L120.96 222H117.16L128.16 192.84H132.32L143.4 222ZM126.48 207.12L124.64 212.12H135.8L133.96 207.12L130.36 196.52H130.16L126.48 207.12ZM150.242 201.12H157.482V204H150.562V222H147.082V204.2C147.082 202.16 148.122 201.12 150.242 201.12ZM174.559 214.88H177.999C177.319 219.52 173.799 222.4 168.719 222.4C165.639 222.4 163.199 221.44 161.439 219.48C159.679 217.52 158.799 214.92 158.799 211.6C158.799 208.2 159.719 205.52 161.559 203.6C163.399 201.68 165.839 200.72 168.839 200.72C173.679 200.72 177.199 203.56 177.879 207.92H174.439C173.759 205.08 171.559 203.64 168.679 203.64C164.959 203.64 162.359 206.32 162.359 210.16V213.32C162.359 217.04 164.879 219.52 168.679 219.52C171.759 219.52 174.039 217.72 174.559 214.88ZM186.577 222H183.097V192.68H186.577V204.92H186.817C188.097 202.32 190.777 200.72 193.857 200.72C198.377 200.72 201.097 203.96 201.097 209.12V222H197.657V209.48C197.657 205.6 196.017 203.64 192.697 203.64C189.017 203.64 186.577 206.52 186.577 210.96V222ZM211.225 197.24H207.785V192.68H211.225V197.24ZM211.225 222H207.785V201.12H211.225V222ZM222.455 204V219.12H226.855V222H222.055C220.015 222 219.015 221.04 219.015 219.08V204H215.215V201.12H219.015V194.2H222.455V201.12H226.815V204H222.455ZM239.81 200.72C245.53 200.72 249.09 204.32 249.09 210.12C249.09 210.92 249.05 211.64 248.97 212.28H233.57V213.48C233.57 217.16 236.09 219.6 239.93 219.6C242.85 219.6 245.09 218.08 245.77 215.72H249.21C248.77 217.76 247.73 219.36 246.01 220.6C244.29 221.8 242.25 222.4 239.85 222.4C233.77 222.4 230.01 218.2 230.01 211.48C230.01 204.76 233.77 200.72 239.81 200.72ZM233.57 209.16V209.72H245.65V208.92C245.65 205.68 243.29 203.52 239.81 203.52C236.13 203.52 233.57 205.8 233.57 209.16ZM268.895 214.88H272.335C271.655 219.52 268.135 222.4 263.055 222.4C259.975 222.4 257.535 221.44 255.775 219.48C254.015 217.52 253.135 214.92 253.135 211.6C253.135 208.2 254.055 205.52 255.895 203.6C257.735 201.68 260.175 200.72 263.175 200.72C268.015 200.72 271.535 203.56 272.215 207.92H268.775C268.095 205.08 265.895 203.64 263.015 203.64C259.295 203.64 256.695 206.32 256.695 210.16V213.32C256.695 217.04 259.215 219.52 263.015 219.52C266.095 219.52 268.375 217.72 268.895 214.88ZM281.713 204V219.12H286.113V222H281.313C279.273 222 278.273 221.04 278.273 219.08V204H274.473V201.12H278.273V194.2H281.713V201.12H286.073V204H281.713ZM305.222 201.12H308.702V222H305.742L305.262 218.12H304.942C303.822 220.72 301.102 222.4 297.862 222.4C293.542 222.4 290.942 219.52 290.942 214.44V201.12H294.382V213.96C294.382 217.64 295.942 219.48 299.022 219.48C302.822 219.48 305.222 216.48 305.222 212.04V201.12ZM318.835 201.12H326.075V204H319.155V222H315.675V204.2C315.675 202.16 316.715 201.12 318.835 201.12ZM337.193 200.72C342.913 200.72 346.473 204.32 346.473 210.12C346.473 210.92 346.433 211.64 346.353 212.28H330.953V213.48C330.953 217.16 333.473 219.6 337.313 219.6C340.233 219.6 342.473 218.08 343.153 215.72H346.593C346.153 217.76 345.113 219.36 343.393 220.6C341.673 221.8 339.633 222.4 337.233 222.4C331.153 222.4 327.393 218.2 327.393 211.48C327.393 204.76 331.153 200.72 337.193 200.72ZM330.953 209.16V209.72H343.033V208.92C343.033 205.68 340.673 203.52 337.193 203.52C333.513 203.52 330.953 205.8 330.953 209.16Z" fill="#ABABAB"/>
<defs>
<filter id="filter0_d_958_32" x="0" y="592" width="190.898" height="101" filterUnits="userSpaceOnUse" color-interpolation-filters="sRGB">
<feFlood flood-opacity="0" result="BackgroundImageFix"/>
<feColorMatrix in="SourceAlpha" type="matrix" values="0 0 0 0 0 0 0 0 0 0 0 0 0 0 0 0 0 0 127 0" result="hardAlpha"/>
<feOffset dx="-3" dy="-4"/>
<feGaussianBlur stdDeviation="3"/>
<feComposite in2="hardAlpha" operator="out"/>
<feColorMatrix type="matrix" values="0 0 0 0 0 0 0 0 0 0 0 0 0 0 0 0 0 0 0.24 0"/>
<feBlend mode="normal" in2="BackgroundImageFix" result="effect1_dropShadow_958_32"/>
<feBlend mode="normal" in="SourceGraphic" in2="effect1_dropShadow_958_32" result="shape"/>
</filter>
<linearGradient id="paint0_linear_958_32" x1="334.71" y1="-18.7954" x2="336.5" y2="633" gradientUnits="userSpaceOnUse">
<stop stop-color="#2D2D2D"/>
<stop offset="1" stop-color="#0F0F0F" stop-opacity="0"/>
</linearGradient>
</defs>
</svg>
