<svg width="744" height="699" viewBox="0 0 744 699" fill="none" xmlns="http://www.w3.org/2000/svg">
<g filter="url(#filter0_d_965_2)">
<path d="M43.9667 696C65.1187 696 77.892 679.921 77.9331 652.233C77.9741 624.751 65.0365 609 43.9667 609C22.8558 609 10.0415 624.71 10.0004 652.233C9.91824 679.839 22.7737 695.959 43.9667 696ZM43.9667 681.274C34.3149 681.274 28.072 671.594 28.113 652.233C28.1541 633.16 34.3559 623.562 43.9667 623.562C53.5364 623.562 59.7793 633.16 59.7793 652.233C59.8204 671.594 53.5775 681.274 43.9667 681.274Z" fill="#2D2D2D" fill-opacity="0.4"/>
<path d="M128.365 610.149H111.649L90.8262 623.315V639.066L110.089 627.007H110.581V694.154H128.365V610.149Z" fill="#2D2D2D" fill-opacity="0.4"/>
<path d="M155.5 695.221C160.757 695.221 165.316 690.832 165.357 685.376C165.316 680.003 160.757 675.614 155.5 675.614C150.078 675.614 145.602 680.003 145.643 685.376C145.602 690.832 150.078 695.221 155.5 695.221Z" fill="#2D2D2D" fill-opacity="0.4"/>
<path d="M43.9658 696.5C54.6816 696.5 63.315 692.42 69.2605 684.807C75.1936 677.21 78.4124 666.147 78.4331 652.234C78.4537 638.422 75.2136 627.489 69.2578 620C63.2904 612.495 54.638 608.5 43.9667 608.5C33.2753 608.5 24.643 612.485 18.6907 619.985C12.7506 627.469 9.52109 638.401 9.50039 652.232C9.45917 666.105 12.6678 677.159 18.6115 684.761C24.5672 692.379 33.2299 696.479 43.9658 696.5ZM59.2793 652.233V652.234C59.2998 661.873 57.7538 669.034 55.058 673.767C52.3774 678.473 48.5684 680.774 43.9667 680.774C39.3437 680.774 35.5246 678.472 32.8393 673.766C30.1386 669.034 28.5926 661.873 28.613 652.234C28.6335 642.739 30.1893 635.671 32.8844 630.995C35.5642 626.345 39.3631 624.062 43.9667 624.062C48.5494 624.062 52.3485 626.344 55.0285 630.995C57.7235 635.671 59.2793 642.739 59.2793 652.233ZM128.865 610.149V609.649H128.365H111.649H111.504L111.382 609.726L90.5587 622.893L90.3259 623.04V623.315V639.066V639.969L91.0912 639.49L110.081 627.601V694.154V694.654H110.581H128.365H128.865V694.154V610.149ZM165.857 685.38V685.372C165.814 679.719 161.027 675.114 155.5 675.114C149.812 675.114 145.102 679.717 145.143 685.376C145.102 691.114 149.809 695.721 155.5 695.721C161.029 695.721 165.814 691.113 165.857 685.38Z" stroke="#203C2F" stroke-opacity="0.52"/>
</g>
<path d="M594.749 8.35059H114.107C95.0546 8.35059 79.6094 23.7959 79.6094 42.8486V652.502C79.6094 671.555 95.0546 687 114.107 687H594.749C613.803 687 629.247 671.555 629.247 652.502V42.8486C629.247 23.7959 613.803 8.35059 594.749 8.35059Z" fill="url(#paint0_linear_965_2)"/>
<path d="M518.768 61.7565L521.22 55.4636H520.1L518.272 60.41L516.429 55.4636H515.281L517.719 61.7565H518.768ZM526.638 59.8714C526.468 60.5801 525.887 60.9769 525.107 60.9769C524.044 60.9769 523.293 60.1549 523.279 58.8084H527.729V58.4258C527.729 56.5974 526.808 55.336 525.079 55.336C523.364 55.336 522.216 56.7392 522.216 58.6242C522.216 60.5659 523.392 61.884 525.107 61.884C526.525 61.884 527.418 61.062 527.644 59.8714H526.638ZM525.093 56.2431C526.142 56.2431 526.638 57.0651 526.652 58.0006H523.307C523.463 56.8951 524.143 56.2431 525.093 56.2431ZM532.732 55.4352C532.619 55.3785 532.392 55.336 532.123 55.336C531.429 55.336 530.833 55.747 530.564 56.2856V55.4636H529.501V61.7565H530.564V57.5329C530.777 56.7958 531.358 56.3565 532.024 56.3565C532.293 56.3565 532.562 56.4132 532.732 56.5266V55.4352ZM533.843 60.0273C534.042 61.1895 535.048 61.884 536.423 61.884C537.769 61.884 538.762 61.1754 538.762 59.9848C538.762 59.1061 538.237 58.5108 537.16 58.2273L535.941 57.9297C535.346 57.7596 535.062 57.5612 535.062 57.136C535.062 56.5266 535.643 56.2289 536.267 56.2289C537.032 56.2289 537.472 56.5549 537.656 57.1218H538.719C538.492 56.0163 537.67 55.336 536.281 55.336C535.006 55.336 534.028 56.073 534.028 57.1927C534.028 58.1706 534.651 58.6242 535.544 58.851L536.792 59.1769C537.444 59.347 537.727 59.6163 537.727 60.0557C537.727 60.6935 537.188 60.9911 536.437 60.9911C535.7 60.9911 535.147 60.6793 534.949 60.0273H533.843ZM541.654 55.4636H540.591V61.7565H541.654V55.4636ZM541.81 53.5643C541.81 53.1817 541.498 52.884 541.115 52.884C540.747 52.884 540.435 53.1817 540.435 53.5643C540.435 53.9329 540.747 54.2447 541.115 54.2447C541.498 54.2447 541.81 53.9329 541.81 53.5643ZM549.236 58.61C549.236 56.6825 548.06 55.336 546.345 55.336C544.616 55.336 543.454 56.6825 543.454 58.61C543.454 60.5376 544.616 61.884 546.345 61.884C548.06 61.884 549.236 60.5376 549.236 58.61ZM548.159 58.61C548.159 59.9848 547.479 60.9486 546.345 60.9486C545.211 60.9486 544.531 59.9848 544.531 58.61C544.531 57.2352 545.211 56.2714 546.345 56.2714C547.479 56.2714 548.159 57.2352 548.159 58.61ZM551.029 61.7565H552.092V57.4903C552.319 56.81 552.957 56.314 553.694 56.314C554.643 56.314 555.083 56.9234 555.083 57.8021V61.7565H556.16V57.6321C556.16 56.2573 555.381 55.336 553.949 55.336C553.141 55.336 552.461 55.7612 552.092 56.2573V55.4636H551.029V61.7565ZM557.822 61.062C557.822 61.5014 558.162 61.8273 558.588 61.8273C558.999 61.8273 559.339 61.5014 559.339 61.062C559.339 60.6226 558.999 60.2825 558.588 60.2825C558.162 60.2825 557.822 60.6226 557.822 61.062ZM557.822 56.6116C557.822 57.051 558.162 57.3769 558.588 57.3769C558.999 57.3769 559.339 57.051 559.339 56.6116C559.339 56.1722 558.999 55.8321 558.588 55.8321C558.162 55.8321 557.822 56.1722 557.822 56.6116ZM567.228 53.0399H566.562L563.982 54.358V55.4919L566.136 54.3864V61.7565H567.228V53.0399ZM569.1 61.062C569.1 61.5014 569.44 61.8273 569.866 61.8273C570.277 61.8273 570.617 61.5014 570.617 61.062C570.617 60.6226 570.277 60.2825 569.866 60.2825C569.44 60.2825 569.1 60.6226 569.1 61.062ZM574.807 61.884C576.748 61.884 578.052 60.0557 578.052 57.4053C578.052 54.7549 576.748 52.9266 574.807 52.9266C572.865 52.9266 571.561 54.7549 571.561 57.4053C571.561 60.0557 572.865 61.884 574.807 61.884ZM574.807 53.9329C576.21 53.9329 576.961 55.3785 576.961 57.4053C576.961 59.4321 576.21 60.8777 574.807 60.8777C573.389 60.8777 572.652 59.4321 572.652 57.4053C572.652 55.3785 573.389 53.9329 574.807 53.9329ZM578.999 61.062C578.999 61.5014 579.34 61.8273 579.765 61.8273C580.176 61.8273 580.516 61.5014 580.516 61.062C580.516 60.6226 580.176 60.2825 579.765 60.2825C579.34 60.2825 578.999 60.6226 578.999 61.062ZM584.706 61.884C586.647 61.884 587.951 60.0557 587.951 57.4053C587.951 54.7549 586.647 52.9266 584.706 52.9266C582.764 52.9266 581.46 54.7549 581.46 57.4053C581.46 60.0557 582.764 61.884 584.706 61.884ZM584.706 53.9329C586.109 53.9329 586.86 55.3785 586.86 57.4053C586.86 59.4321 586.109 60.8777 584.706 60.8777C583.288 60.8777 582.551 59.4321 582.551 57.4053C582.551 55.3785 583.288 53.9329 584.706 53.9329Z" fill="#4F4F4F"/>
<path d="M80.6526 573.845L80.8017 555.26M71.1875 576.29L71.2831 536.087M71.317 473V522.655" stroke="#646464" stroke-width="2" stroke-linecap="round"/>
<path d="M71.3711 461V37.0712C71.3711 17.1491 88.0734 1 108.678 1H179.562M638.437 227.347V37.0712C638.437 17.1491 621.736 1 601.13 1H242.983M199.147 1H217.801" stroke="#646464" stroke-width="2" stroke-linecap="round"/>
<path d="M638.602 652V248.617" stroke="#646464" stroke-width="2" stroke-linecap="round"/>
<path d="M59 298.959V181.725M59 73.1511V160.985" stroke="#00D395" stroke-width="2" stroke-linecap="round"/>
<path d="M121.998 528.5L581.997 526.419" stroke="#3B3A3A"/>
<path d="M123.024 274.24C118.032 274.24 115.08 270.928 115.08 265.264C115.08 259.6 118.032 256.264 123.216 256.264C125.352 256.264 127.104 256.816 128.448 257.92C129.816 259.024 130.608 260.512 130.824 262.36H128.568C128.088 259.864 126.168 258.256 123.168 258.256C121.416 258.256 120 258.76 118.944 259.792C117.912 260.8 117.384 262.168 117.384 263.92V266.752C117.384 268.36 117.912 269.704 118.968 270.736C120.024 271.768 121.392 272.272 123.096 272.272C125.904 272.272 127.992 270.664 128.568 268.144H130.824C130.512 270.016 129.672 271.504 128.28 272.608C126.888 273.688 125.136 274.24 123.024 274.24ZM133.079 267.736C133.079 265.72 133.631 264.136 134.735 262.984C135.839 261.808 137.303 261.232 139.103 261.232C140.903 261.232 142.367 261.808 143.447 262.96C144.551 264.112 145.103 265.696 145.103 267.736C145.103 271.696 142.871 274.24 139.103 274.24C137.231 274.24 135.767 273.664 134.687 272.488C133.607 271.312 133.079 269.728 133.079 267.736ZM135.215 266.824V268.768C135.215 271.144 136.895 272.512 139.103 272.512C141.335 272.512 142.991 271.096 142.991 268.768V266.824C142.991 264.52 141.383 262.984 139.103 262.984C137.975 262.984 137.039 263.344 136.295 264.064C135.575 264.76 135.215 265.696 135.215 266.824ZM150.356 274H148.268V261.472H150.092L150.356 263.8H150.524C151.292 262.192 152.852 261.232 154.748 261.232C157.46 261.232 159.092 263.2 159.092 266.296V274H157.004V266.512C157.004 264.232 156.02 263.08 154.052 263.08C151.844 263.08 150.356 264.832 150.356 267.448V274ZM162.024 270.208H164.088C164.088 271.672 165.288 272.608 167.136 272.608C168.888 272.608 169.944 271.84 169.944 270.52C169.944 269.584 169.392 269.008 168.288 268.792L165.6 268.288C163.368 267.88 162.264 266.776 162.264 264.976C162.264 262.648 164.112 261.232 166.992 261.232C169.968 261.232 171.768 262.744 171.792 265.048H169.728C169.68 263.584 168.768 262.84 166.992 262.84C165.288 262.84 164.352 263.584 164.352 264.76C164.352 265.432 164.64 265.912 165.144 266.176C165.648 266.392 165.864 266.464 166.368 266.56L168.84 267.016C171.024 267.4 172.128 268.528 172.128 270.4C172.128 272.8 170.184 274.24 167.136 274.24C163.968 274.24 162.024 272.632 162.024 270.208ZM180.233 261.232C183.665 261.232 185.801 263.392 185.801 266.872C185.801 267.352 185.777 267.784 185.729 268.168H176.489V268.888C176.489 271.096 178.001 272.56 180.305 272.56C182.057 272.56 183.401 271.648 183.809 270.232H185.873C185.609 271.456 184.985 272.416 183.953 273.16C182.921 273.88 181.697 274.24 180.257 274.24C176.609 274.24 174.353 271.72 174.353 267.688C174.353 263.656 176.609 261.232 180.233 261.232ZM176.489 266.296V266.632H183.737V266.152C183.737 264.208 182.321 262.912 180.233 262.912C178.025 262.912 176.489 264.28 176.489 266.296ZM191.114 274H189.026V261.472H190.85L191.114 263.8H191.282C192.05 262.192 193.61 261.232 195.506 261.232C198.218 261.232 199.85 263.2 199.85 266.296V274H197.762V266.512C197.762 264.232 196.778 263.08 194.81 263.08C192.602 263.08 191.114 264.832 191.114 267.448V274ZM202.781 270.208H204.845C204.845 271.672 206.045 272.608 207.893 272.608C209.645 272.608 210.701 271.84 210.701 270.52C210.701 269.584 210.149 269.008 209.045 268.792L206.357 268.288C204.125 267.88 203.021 266.776 203.021 264.976C203.021 262.648 204.869 261.232 207.749 261.232C210.725 261.232 212.525 262.744 212.549 265.048H210.485C210.437 263.584 209.525 262.84 207.749 262.84C206.045 262.84 205.109 263.584 205.109 264.76C205.109 265.432 205.397 265.912 205.901 266.176C206.405 266.392 206.621 266.464 207.125 266.56L209.597 267.016C211.781 267.4 212.885 268.528 212.885 270.4C212.885 272.8 210.941 274.24 207.893 274.24C204.725 274.24 202.781 272.632 202.781 270.208ZM224.355 261.472H226.443V274H224.667L224.379 271.672H224.187C223.515 273.232 221.883 274.24 219.939 274.24C217.347 274.24 215.787 272.512 215.787 269.464V261.472H217.851V269.176C217.851 271.384 218.787 272.488 220.635 272.488C222.915 272.488 224.355 270.688 224.355 268.024V261.472ZM229.547 270.208H231.611C231.611 271.672 232.811 272.608 234.659 272.608C236.411 272.608 237.467 271.84 237.467 270.52C237.467 269.584 236.915 269.008 235.811 268.792L233.123 268.288C230.891 267.88 229.787 266.776 229.787 264.976C229.787 262.648 231.635 261.232 234.515 261.232C237.491 261.232 239.291 262.744 239.315 265.048H237.251C237.203 263.584 236.291 262.84 234.515 262.84C232.811 262.84 231.875 263.584 231.875 264.76C231.875 265.432 232.163 265.912 232.667 266.176C233.171 266.392 233.387 266.464 233.891 266.56L236.363 267.016C238.547 267.4 239.651 268.528 239.651 270.4C239.651 272.8 237.707 274.24 234.659 274.24C231.491 274.24 229.547 272.632 229.547 270.208ZM248.442 274H246.93L253.89 256.504H255.426L248.442 274ZM266.311 274H264.127V256.504H266.839L276.127 271.264H276.247L276.079 265.96V256.504H278.239V274H275.527L266.263 259.24H266.167L266.311 264.328V274ZM287.624 261.232C291.056 261.232 293.192 263.392 293.192 266.872C293.192 267.352 293.168 267.784 293.12 268.168H283.88V268.888C283.88 271.096 285.392 272.56 287.696 272.56C289.448 272.56 290.792 271.648 291.2 270.232H293.264C293 271.456 292.376 272.416 291.344 273.16C290.312 273.88 289.088 274.24 287.648 274.24C284 274.24 281.744 271.72 281.744 267.688C281.744 263.656 284 261.232 287.624 261.232ZM283.88 266.296V266.632H291.128V266.152C291.128 264.208 289.712 262.912 287.624 262.912C285.416 262.912 283.88 264.28 283.88 266.296ZM298.984 263.2V272.272H301.624V274H298.744C297.52 274 296.92 273.424 296.92 272.248V263.2H294.64V261.472H296.92V257.32H298.984V261.472H301.6V263.2H298.984ZM316.306 268.192L318.034 261.472H320.218L316.714 274H314.002L312.394 267.568L311.578 264.016H311.434L310.666 267.568L309.13 274H306.37L302.842 261.472H305.098L306.85 268.12L307.666 271.936H307.834L310.282 261.472H312.802L315.37 271.888H315.49L316.306 268.192ZM321.47 267.736C321.47 265.72 322.022 264.136 323.126 262.984C324.23 261.808 325.694 261.232 327.494 261.232C329.294 261.232 330.758 261.808 331.838 262.96C332.942 264.112 333.494 265.696 333.494 267.736C333.494 271.696 331.262 274.24 327.494 274.24C325.622 274.24 324.158 273.664 323.078 272.488C321.998 271.312 321.47 269.728 321.47 267.736ZM323.606 266.824V268.768C323.606 271.144 325.286 272.512 327.494 272.512C329.726 272.512 331.382 271.096 331.382 268.768V266.824C331.382 264.52 329.774 262.984 327.494 262.984C326.366 262.984 325.43 263.344 324.686 264.064C323.966 264.76 323.606 265.696 323.606 266.824ZM338.554 261.472H342.898V263.2H338.746V274H336.658V263.32C336.658 262.096 337.282 261.472 338.554 261.472ZM356.083 274H353.707L349.579 267.808L347.395 270.016V274H345.307V256.408H347.395V267.424L353.179 261.472H355.843L351.019 266.368L356.083 274ZM364.364 274H362.852L369.812 256.504H371.348L364.364 274ZM377.745 256.504H390.801V258.472H385.377V274H383.217V258.472H377.745V256.504ZM393.164 261.472H397.508V263.2H393.356V274H391.268V263.32C391.268 262.096 391.892 261.472 393.164 261.472ZM398.227 270.4C398.227 267.928 399.931 266.536 402.787 266.536H406.555V265.576C406.555 263.776 405.619 262.888 403.723 262.888C401.875 262.888 400.867 263.776 400.795 265.216H398.755C398.875 262.72 400.795 261.232 403.843 261.232C405.499 261.232 406.795 261.784 407.443 262.456C407.755 262.792 408.019 263.176 408.211 263.632C408.595 264.52 408.619 265.048 408.619 265.624V272.464H410.467V274H408.331C407.179 274 406.771 273.52 406.699 272.584L406.675 271.936H406.531C405.979 273.352 404.299 274.24 402.259 274.24C399.739 274.24 398.227 272.728 398.227 270.4ZM400.363 269.872V270.64C400.363 271.888 401.299 272.56 402.739 272.56C405.067 272.56 406.555 271.024 406.555 268.72V268.048H402.979C401.323 268.048 400.363 268.792 400.363 269.872ZM415.176 274H413.088V261.472H414.912L415.176 263.8H415.344C416.112 262.192 417.672 261.232 419.568 261.232C422.28 261.232 423.912 263.2 423.912 266.296V274H421.824V266.512C421.824 264.232 420.84 263.08 418.872 263.08C416.664 263.08 415.176 264.832 415.176 267.448V274ZM426.844 270.208H428.908C428.908 271.672 430.108 272.608 431.956 272.608C433.708 272.608 434.764 271.84 434.764 270.52C434.764 269.584 434.212 269.008 433.108 268.792L430.42 268.288C428.188 267.88 427.084 266.776 427.084 264.976C427.084 262.648 428.932 261.232 431.812 261.232C434.788 261.232 436.588 262.744 436.612 265.048H434.548C434.5 263.584 433.588 262.84 431.812 262.84C430.108 262.84 429.172 263.584 429.172 264.76C429.172 265.432 429.46 265.912 429.964 266.176C430.468 266.392 430.684 266.464 431.188 266.56L433.66 267.016C435.844 267.4 436.948 268.528 436.948 270.4C436.948 272.8 435.004 274.24 431.956 274.24C428.788 274.24 426.844 272.632 426.844 270.208ZM439.313 270.4C439.313 267.928 441.017 266.536 443.873 266.536H447.641V265.576C447.641 263.776 446.705 262.888 444.809 262.888C442.961 262.888 441.953 263.776 441.881 265.216H439.841C439.961 262.72 441.881 261.232 444.929 261.232C446.585 261.232 447.881 261.784 448.529 262.456C448.841 262.792 449.105 263.176 449.297 263.632C449.681 264.52 449.705 265.048 449.705 265.624V272.464H451.553V274H449.417C448.265 274 447.857 273.52 447.785 272.584L447.761 271.936H447.617C447.065 273.352 445.385 274.24 443.345 274.24C440.825 274.24 439.313 272.728 439.313 270.4ZM441.449 269.872V270.64C441.449 271.888 442.385 272.56 443.825 272.56C446.153 272.56 447.641 271.024 447.641 268.72V268.048H444.065C442.409 268.048 441.449 268.792 441.449 269.872ZM462.598 269.728H464.662C464.254 272.512 462.142 274.24 459.094 274.24C457.246 274.24 455.782 273.664 454.726 272.488C453.67 271.312 453.142 269.752 453.142 267.76C453.142 265.72 453.694 264.112 454.798 262.96C455.902 261.808 457.366 261.232 459.166 261.232C462.07 261.232 464.182 262.936 464.59 265.552H462.526C462.118 263.848 460.798 262.984 459.07 262.984C456.838 262.984 455.278 264.592 455.278 266.896V268.792C455.278 271.024 456.79 272.512 459.07 272.512C460.918 272.512 462.286 271.432 462.598 269.728ZM475.857 259.36V256.624H477.921V259.36H475.857ZM470.289 261.472H477.921V274H475.857V263.2H470.289V272.272H472.881V274H470.145C468.801 274 468.273 273.376 468.249 272.152V263.2H465.945V261.472H468.249V257.32H470.289V261.472ZM481.056 267.736C481.056 265.72 481.608 264.136 482.712 262.984C483.816 261.808 485.28 261.232 487.08 261.232C488.88 261.232 490.344 261.808 491.424 262.96C492.528 264.112 493.08 265.696 493.08 267.736C493.08 271.696 490.848 274.24 487.08 274.24C485.208 274.24 483.744 273.664 482.664 272.488C481.584 271.312 481.056 269.728 481.056 267.736ZM483.192 266.824V268.768C483.192 271.144 484.872 272.512 487.08 272.512C489.312 272.512 490.968 271.096 490.968 268.768V266.824C490.968 264.52 489.36 262.984 487.08 262.984C485.952 262.984 485.016 263.344 484.272 264.064C483.552 264.76 483.192 265.696 483.192 266.824ZM498.332 274H496.244V261.472H498.068L498.332 263.8H498.5C499.268 262.192 500.828 261.232 502.724 261.232C505.436 261.232 507.068 263.2 507.068 266.296V274H504.98V266.512C504.98 264.232 503.996 263.08 502.028 263.08C499.82 263.08 498.332 264.832 498.332 267.448V274ZM510 270.208H512.064C512.064 271.672 513.264 272.608 515.112 272.608C516.864 272.608 517.92 271.84 517.92 270.52C517.92 269.584 517.368 269.008 516.264 268.792L513.576 268.288C511.344 267.88 510.24 266.776 510.24 264.976C510.24 262.648 512.088 261.232 514.968 261.232C517.944 261.232 519.744 262.744 519.768 265.048H517.704C517.656 263.584 516.744 262.84 514.968 262.84C513.264 262.84 512.328 263.584 512.328 264.76C512.328 265.432 512.616 265.912 513.12 266.176C513.624 266.392 513.84 266.464 514.344 266.56L516.816 267.016C519 267.4 520.104 268.528 520.104 270.4C520.104 272.8 518.16 274.24 515.112 274.24C511.944 274.24 510 272.632 510 270.208Z" fill="#626262"/>
<path d="M128.041 222.4C119.721 222.4 114.801 216.88 114.801 207.44C114.801 198 119.721 192.44 128.361 192.44C131.921 192.44 134.841 193.36 137.081 195.2C139.361 197.04 140.681 199.52 141.041 202.6H137.281C136.481 198.44 133.281 195.76 128.281 195.76C125.361 195.76 123.001 196.6 121.241 198.32C119.521 200 118.641 202.28 118.641 205.2V209.92C118.641 212.6 119.521 214.84 121.281 216.56C123.041 218.28 125.321 219.12 128.161 219.12C132.841 219.12 136.321 216.44 137.281 212.24H141.041C140.521 215.36 139.121 217.84 136.801 219.68C134.481 221.48 131.561 222.4 128.041 222.4ZM144.8 211.56C144.8 208.2 145.72 205.56 147.56 203.64C149.4 201.68 151.84 200.72 154.84 200.72C157.84 200.72 160.28 201.68 162.08 203.6C163.92 205.52 164.84 208.16 164.84 211.56C164.84 218.16 161.12 222.4 154.84 222.4C151.72 222.4 149.28 221.44 147.48 219.48C145.68 217.52 144.8 214.88 144.8 211.56ZM148.36 210.04V213.28C148.36 217.24 151.16 219.52 154.84 219.52C158.56 219.52 161.32 217.16 161.32 213.28V210.04C161.32 206.2 158.64 203.64 154.84 203.64C152.96 203.64 151.4 204.24 150.16 205.44C148.96 206.6 148.36 208.16 148.36 210.04ZM173.594 222H170.114V201.12H173.154L173.594 205H173.874C175.154 202.32 177.754 200.72 180.914 200.72C185.434 200.72 188.154 204 188.154 209.16V222H184.674V209.52C184.674 205.72 183.034 203.8 179.754 203.8C176.074 203.8 173.594 206.72 173.594 211.08V222ZM193.04 215.68H196.48C196.48 218.12 198.48 219.68 201.56 219.68C204.48 219.68 206.24 218.4 206.24 216.2C206.24 214.64 205.32 213.68 203.48 213.32L199 212.48C195.28 211.8 193.44 209.96 193.44 206.96C193.44 203.08 196.52 200.72 201.32 200.72C206.28 200.72 209.28 203.24 209.32 207.08H205.88C205.8 204.64 204.28 203.4 201.32 203.4C198.48 203.4 196.92 204.64 196.92 206.6C196.92 207.72 197.4 208.52 198.24 208.96C199.08 209.32 199.44 209.44 200.28 209.6L204.4 210.36C208.04 211 209.88 212.88 209.88 216C209.88 220 206.64 222.4 201.56 222.4C196.28 222.4 193.04 219.72 193.04 215.68ZM223.389 200.72C229.109 200.72 232.669 204.32 232.669 210.12C232.669 210.92 232.629 211.64 232.549 212.28H217.149V213.48C217.149 217.16 219.669 219.6 223.509 219.6C226.429 219.6 228.669 218.08 229.349 215.72H232.789C232.349 217.76 231.309 219.36 229.589 220.6C227.869 221.8 225.829 222.4 223.429 222.4C217.349 222.4 213.589 218.2 213.589 211.48C213.589 204.76 217.349 200.72 223.389 200.72ZM217.149 209.16V209.72H229.229V208.92C229.229 205.68 226.869 203.52 223.389 203.52C219.709 203.52 217.149 205.8 217.149 209.16ZM241.524 222H238.044V201.12H241.084L241.524 205H241.804C243.084 202.32 245.684 200.72 248.844 200.72C253.364 200.72 256.084 204 256.084 209.16V222H252.604V209.52C252.604 205.72 250.964 203.8 247.684 203.8C244.004 203.8 241.524 206.72 241.524 211.08V222ZM260.97 215.68H264.41C264.41 218.12 266.41 219.68 269.49 219.68C272.41 219.68 274.17 218.4 274.17 216.2C274.17 214.64 273.25 213.68 271.41 213.32L266.93 212.48C263.21 211.8 261.37 209.96 261.37 206.96C261.37 203.08 264.45 200.72 269.25 200.72C274.21 200.72 277.21 203.24 277.25 207.08H273.81C273.73 204.64 272.21 203.4 269.25 203.4C266.41 203.4 264.85 204.64 264.85 206.6C264.85 207.72 265.33 208.52 266.17 208.96C267.01 209.32 267.37 209.44 268.21 209.6L272.33 210.36C275.97 211 277.81 212.88 277.81 216C277.81 220 274.57 222.4 269.49 222.4C264.21 222.4 260.97 219.72 260.97 215.68ZM296.926 201.12H300.406V222H297.446L296.966 218.12H296.646C295.526 220.72 292.806 222.4 289.566 222.4C285.246 222.4 282.646 219.52 282.646 214.44V201.12H286.086V213.96C286.086 217.64 287.646 219.48 290.726 219.48C294.526 219.48 296.926 216.48 296.926 212.04V201.12ZM305.579 215.68H309.019C309.019 218.12 311.019 219.68 314.099 219.68C317.019 219.68 318.779 218.4 318.779 216.2C318.779 214.64 317.859 213.68 316.019 213.32L311.539 212.48C307.819 211.8 305.979 209.96 305.979 206.96C305.979 203.08 309.059 200.72 313.859 200.72C318.819 200.72 321.819 203.24 321.859 207.08H318.419C318.339 204.64 316.819 203.4 313.859 203.4C311.019 203.4 309.459 204.64 309.459 206.6C309.459 207.72 309.939 208.52 310.779 208.96C311.619 209.32 311.979 209.44 312.819 209.6L316.939 210.36C320.579 211 322.419 212.88 322.419 216C322.419 220 319.179 222.4 314.099 222.4C308.819 222.4 305.579 219.72 305.579 215.68Z" fill="#D0D0D0"/>
<line x1="200.992" y1="166.541" x2="319.011" y2="166.541" stroke="#3B3A3A"/>
<path d="M130.752 550H127.212V541.252H130.752C133.356 541.252 134.424 542.752 134.424 545.632C134.424 548.524 133.344 550 130.752 550ZM128.304 542.248V549.004H130.74C132.468 549.004 133.272 548.212 133.272 546.352V544.912C133.272 543.028 132.432 542.248 130.74 542.248H128.304ZM137.041 542.572H136.009V541.204H137.041V542.572ZM137.041 550H136.009V543.736H137.041V550ZM139.258 542.572V541.204H140.278V542.572H139.258ZM139.258 551.164V543.736H140.278V551.08C140.278 551.272 140.266 551.38 140.158 551.62C140.062 551.86 139.774 552.004 139.342 552.004H137.878V551.164H139.258ZM144.691 543.616C146.407 543.616 147.475 544.696 147.475 546.436C147.475 546.676 147.463 546.892 147.439 547.084H142.819V547.444C142.819 548.548 143.575 549.28 144.727 549.28C145.603 549.28 146.275 548.824 146.479 548.116H147.511C147.379 548.728 147.067 549.208 146.551 549.58C146.035 549.94 145.423 550.12 144.703 550.12C142.879 550.12 141.751 548.86 141.751 546.844C141.751 544.828 142.879 543.616 144.691 543.616ZM142.819 546.148V546.316H146.443V546.076C146.443 545.104 145.735 544.456 144.691 544.456C143.587 544.456 142.819 545.14 142.819 546.148ZM150.371 544.6V549.136H151.691V550H150.251C149.639 550 149.339 549.712 149.339 549.124V544.6H148.199V543.736H149.339V541.66H150.371V543.736H151.679V544.6H150.371ZM152.684 548.104H153.716C153.716 548.836 154.316 549.304 155.24 549.304C156.116 549.304 156.644 548.92 156.644 548.26C156.644 547.792 156.368 547.504 155.816 547.396L154.472 547.144C153.356 546.94 152.804 546.388 152.804 545.488C152.804 544.324 153.728 543.616 155.168 543.616C156.656 543.616 157.556 544.372 157.568 545.524H156.536C156.512 544.792 156.056 544.42 155.168 544.42C154.316 544.42 153.848 544.792 153.848 545.38C153.848 545.716 153.992 545.956 154.244 546.088C154.496 546.196 154.604 546.232 154.856 546.28L156.092 546.508C157.184 546.7 157.736 547.264 157.736 548.2C157.736 549.4 156.764 550.12 155.24 550.12C153.656 550.12 152.684 549.316 152.684 548.104ZM163.331 541.252V550H162.239V541.252H163.331ZM166.631 550H165.587V543.736H166.499L166.631 544.9H166.715C167.099 544.096 167.879 543.616 168.827 543.616C170.183 543.616 170.999 544.6 170.999 546.148V550H169.955V546.256C169.955 545.116 169.463 544.54 168.479 544.54C167.375 544.54 166.631 545.416 166.631 546.724V550ZM177.217 547.864H178.249C178.045 549.256 176.989 550.12 175.465 550.12C174.541 550.12 173.809 549.832 173.281 549.244C172.753 548.656 172.489 547.876 172.489 546.88C172.489 545.86 172.765 545.056 173.317 544.48C173.869 543.904 174.601 543.616 175.501 543.616C176.953 543.616 178.009 544.468 178.213 545.776H177.181C176.977 544.924 176.317 544.492 175.453 544.492C174.337 544.492 173.557 545.296 173.557 546.448V547.396C173.557 548.512 174.313 549.256 175.453 549.256C176.377 549.256 177.061 548.716 177.217 547.864ZM180.882 550H179.538V548.488H180.882V550Z" fill="#525252"/>
<path d="M457.752 550H454.212V541.252H457.752C460.356 541.252 461.424 542.752 461.424 545.632C461.424 548.524 460.344 550 457.752 550ZM455.304 542.248V549.004H457.74C459.468 549.004 460.272 548.212 460.272 546.352V544.912C460.272 543.028 459.432 542.248 457.74 542.248H455.304ZM464.041 542.572H463.009V541.204H464.041V542.572ZM464.041 550H463.009V543.736H464.041V550ZM465.586 548.104H466.618C466.618 548.836 467.218 549.304 468.142 549.304C469.018 549.304 469.546 548.92 469.546 548.26C469.546 547.792 469.27 547.504 468.718 547.396L467.374 547.144C466.258 546.94 465.706 546.388 465.706 545.488C465.706 544.324 466.63 543.616 468.07 543.616C469.558 543.616 470.458 544.372 470.47 545.524H469.438C469.414 544.792 468.958 544.42 468.07 544.42C467.218 544.42 466.75 544.792 466.75 545.38C466.75 545.716 466.894 545.956 467.146 546.088C467.398 546.196 467.506 546.232 467.758 546.28L468.994 546.508C470.086 546.7 470.638 547.264 470.638 548.2C470.638 549.4 469.666 550.12 468.142 550.12C466.558 550.12 465.586 549.316 465.586 548.104ZM473.121 543.736H475.293V544.6H473.217V550H472.173V544.66C472.173 544.048 472.485 543.736 473.121 543.736ZM480.697 543.736H481.741V550H480.853L480.709 548.836H480.613C480.277 549.616 479.461 550.12 478.489 550.12C477.193 550.12 476.413 549.256 476.413 547.732V543.736H477.445V547.588C477.445 548.692 477.913 549.244 478.837 549.244C479.977 549.244 480.697 548.344 480.697 547.012V543.736ZM484.877 552.004H483.833V543.736H484.769L484.877 544.84H484.949C485.369 544.06 486.173 543.616 487.193 543.616C488.825 543.616 489.797 544.792 489.797 546.82C489.797 548.872 488.825 550.036 487.193 550.036C486.137 550.036 485.345 549.58 484.949 548.812H484.877V552.004ZM486.905 549.16C488.021 549.16 488.729 548.5 488.729 547.456V546.196C488.729 545.152 488.021 544.48 486.905 544.48C485.693 544.48 484.877 545.272 484.877 546.436V547.216C484.877 548.38 485.693 549.16 486.905 549.16ZM492.652 544.6V549.136H493.972V550H492.532C491.92 550 491.62 549.712 491.62 549.124V544.6H490.48V543.736H491.62V541.66H492.652V543.736H493.96V544.6H492.652ZM497.79 546.868C497.79 545.86 498.066 545.068 498.618 544.492C499.17 543.904 499.902 543.616 500.802 543.616C501.702 543.616 502.434 543.904 502.974 544.48C503.526 545.056 503.802 545.848 503.802 546.868C503.802 548.848 502.686 550.12 500.802 550.12C499.866 550.12 499.134 549.832 498.594 549.244C498.054 548.656 497.79 547.864 497.79 546.868ZM498.858 546.412V547.384C498.858 548.572 499.698 549.256 500.802 549.256C501.918 549.256 502.746 548.548 502.746 547.384V546.412C502.746 545.26 501.942 544.492 500.802 544.492C500.238 544.492 499.77 544.672 499.398 545.032C499.038 545.38 498.858 545.848 498.858 546.412ZM506.332 543.736H508.504V544.6H506.428V550H505.384V544.66C505.384 544.048 505.696 543.736 506.332 543.736ZM513.457 550H512.509V541.204H513.553V544.936H513.625C513.961 544.132 514.813 543.616 515.809 543.616C517.549 543.616 518.461 544.84 518.461 546.892C518.461 548.956 517.489 550.12 515.749 550.12C514.825 550.12 513.997 549.664 513.625 548.908H513.553L513.457 550ZM513.553 546.484V547.3C513.553 547.864 513.745 548.332 514.117 548.704C514.501 549.076 514.993 549.256 515.581 549.256C516.697 549.256 517.405 548.584 517.405 547.54V546.244C517.405 545.176 516.697 544.492 515.581 544.492C514.993 544.492 514.501 544.684 514.117 545.056C513.745 545.428 513.553 545.896 513.553 546.484ZM522.585 543.616C524.301 543.616 525.369 544.696 525.369 546.436C525.369 546.676 525.357 546.892 525.333 547.084H520.713V547.444C520.713 548.548 521.469 549.28 522.621 549.28C523.497 549.28 524.169 548.824 524.373 548.116H525.405C525.273 548.728 524.961 549.208 524.445 549.58C523.929 549.94 523.317 550.12 522.597 550.12C520.773 550.12 519.645 548.86 519.645 546.844C519.645 544.828 520.773 543.616 522.585 543.616ZM520.713 546.148V546.316H524.337V546.076C524.337 545.104 523.629 544.456 522.585 544.456C521.481 544.456 520.713 545.14 520.713 546.148ZM533.49 550H529.95V541.252H533.49C536.094 541.252 537.162 542.752 537.162 545.632C537.162 548.524 536.082 550 533.49 550ZM531.042 542.248V549.004H533.478C535.206 549.004 536.01 548.212 536.01 546.352V544.912C536.01 543.028 535.17 542.248 533.478 542.248H531.042ZM539.779 542.572H538.747V541.204H539.779V542.572ZM539.779 550H538.747V543.736H539.779V550ZM541.324 548.104H542.356C542.356 548.836 542.956 549.304 543.88 549.304C544.756 549.304 545.284 548.92 545.284 548.26C545.284 547.792 545.008 547.504 544.456 547.396L543.112 547.144C541.996 546.94 541.444 546.388 541.444 545.488C541.444 544.324 542.368 543.616 543.808 543.616C545.296 543.616 546.196 544.372 546.208 545.524H545.176C545.152 544.792 544.696 544.42 543.808 544.42C542.956 544.42 542.488 544.792 542.488 545.38C542.488 545.716 542.632 545.956 542.884 546.088C543.136 546.196 543.244 546.232 543.496 546.28L544.732 546.508C545.824 546.7 546.376 547.264 546.376 548.2C546.376 549.4 545.404 550.12 543.88 550.12C542.296 550.12 541.324 549.316 541.324 548.104ZM548.859 543.736H551.031V544.6H548.955V550H547.911V544.66C547.911 544.048 548.223 543.736 548.859 543.736ZM556.435 543.736H557.479V550H556.591L556.447 548.836H556.351C556.015 549.616 555.199 550.12 554.227 550.12C552.931 550.12 552.151 549.256 552.151 547.732V543.736H553.183V547.588C553.183 548.692 553.651 549.244 554.575 549.244C555.715 549.244 556.435 548.344 556.435 547.012V543.736ZM560.615 552.004H559.571V543.736H560.507L560.615 544.84H560.687C561.107 544.06 561.911 543.616 562.931 543.616C564.563 543.616 565.535 544.792 565.535 546.82C565.535 548.872 564.563 550.036 562.931 550.036C561.875 550.036 561.083 549.58 560.687 548.812H560.615V552.004ZM562.643 549.16C563.759 549.16 564.467 548.5 564.467 547.456V546.196C564.467 545.152 563.759 544.48 562.643 544.48C561.431 544.48 560.615 545.272 560.615 546.436V547.216C560.615 548.38 561.431 549.16 562.643 549.16ZM568.391 544.6V549.136H569.711V550H568.271C567.659 550 567.359 549.712 567.359 549.124V544.6H566.219V543.736H567.359V541.66H568.391V543.736H569.699V544.6H568.391ZM573.597 543.616C575.313 543.616 576.381 544.696 576.381 546.436C576.381 546.676 576.369 546.892 576.345 547.084H571.725V547.444C571.725 548.548 572.481 549.28 573.633 549.28C574.509 549.28 575.181 548.824 575.385 548.116H576.417C576.285 548.728 575.973 549.208 575.457 549.58C574.941 549.94 574.329 550.12 573.609 550.12C571.785 550.12 570.657 548.86 570.657 546.844C570.657 544.828 571.785 543.616 573.597 543.616ZM571.725 546.148V546.316H575.349V546.076C575.349 545.104 574.641 544.456 573.597 544.456C572.493 544.456 571.725 545.14 571.725 546.148ZM580.198 550.12C578.566 550.12 577.594 548.944 577.594 546.916C577.594 544.864 578.566 543.7 580.198 543.7C581.254 543.7 582.046 544.156 582.442 544.924H582.514V541.204H583.558V550H582.622L582.514 548.908H582.442C582.01 549.712 581.266 550.12 580.198 550.12ZM580.486 549.256C581.698 549.256 582.514 548.464 582.514 547.3V546.52C582.514 545.356 581.698 544.576 580.486 544.576C579.37 544.576 578.662 545.236 578.662 546.28V547.54C578.662 548.584 579.37 549.256 580.486 549.256Z" fill="#525252"/>
<path d="M125.128 173H119.818V159.878H125.128C129.034 159.878 130.636 162.128 130.636 166.448C130.636 170.786 129.016 173 125.128 173ZM121.456 161.372V171.506H125.11C127.702 171.506 128.908 170.318 128.908 167.528V165.368C128.908 162.542 127.648 161.372 125.11 161.372H121.456ZM137.783 159.878V173H136.145V159.878H137.783ZM146.225 171.524V159.878H147.827V171.614C147.827 171.902 147.809 172.082 147.647 172.442C147.503 172.784 147.053 173 146.405 173H142.769V171.524H146.225ZM162.975 173H154.245V159.878H162.975V161.372H155.883V165.53H162.093V166.952H155.883V171.506H162.975V173ZM166.559 159.878H176.351V161.354H172.283V173H170.663V161.354H166.559V159.878ZM179.6 168.95H181.292C181.31 170.84 182.678 171.848 184.784 171.848C186.746 171.848 187.988 170.93 187.988 169.418C187.988 168.626 187.7 168.068 187.142 167.78C186.584 167.474 186.404 167.42 185.9 167.294L183.596 166.772L182.75 166.574C182.552 166.52 182.246 166.394 181.832 166.214C181.436 166.016 181.112 165.818 180.878 165.602C180.428 165.17 179.96 164.342 179.96 163.334C179.96 162.2 180.374 161.318 181.22 160.67C182.066 160.022 183.164 159.698 184.55 159.698C185.972 159.698 187.106 160.04 187.97 160.706C188.834 161.372 189.284 162.308 189.302 163.496H187.628C187.538 161.912 186.368 161.03 184.55 161.03C182.75 161.03 181.67 161.876 181.67 163.172C181.67 163.874 181.976 164.396 182.534 164.702C183.11 164.99 183.434 165.08 184.01 165.206L186.476 165.746C188.636 166.214 189.716 167.384 189.716 169.256C189.716 170.498 189.266 171.452 188.348 172.154C187.448 172.838 186.242 173.18 184.73 173.18C183.074 173.18 181.796 172.784 180.914 171.992C180.032 171.182 179.6 170.174 179.6 168.95Z" fill="#9B9B9B"/>
<path d="M124.021 49.496L122.243 50.6967C122.103 50.8375 122.059 50.925 122.243 51.0545L122.416 51.1953L124.787 52.8514C124.787 52.8514 127.14 51.5727 127.643 51.3574C128.528 50.9601 129.487 50.7569 130.456 50.7612C131.113 50.8053 131.765 50.9042 132.405 51.0569C133.223 51.2923 133.998 51.6579 134.7 52.1399L135.368 52.5835C135.393 52.6081 135.422 52.6282 135.454 52.6426C135.487 52.6568 135.522 52.6641 135.558 52.6639C135.594 52.664 135.629 52.6568 135.662 52.6426C135.694 52.6286 135.723 52.6085 135.748 52.5835C135.775 52.5636 135.797 52.5377 135.813 52.5078C135.962 52.2754 136.081 52.0242 136.166 51.7608C136.222 51.5521 136.251 51.337 136.252 51.1208C136.253 50.8119 136.19 50.5062 136.068 50.2229C135.946 49.9396 135.766 49.6849 135.541 49.4747L135.085 49.0749C134.537 48.5461 133.907 48.1092 133.221 47.7808L132.698 47.5194C131.781 47.1723 130.807 46.9963 129.827 47.0001C128.756 47.0385 126.954 47.52 124.021 49.496Z" fill="#00D395"/>
<g filter="url(#filter1_d_965_2)">
<g style="mix-blend-mode:difference" opacity="0.9">
<path d="M117.012 55.0528C116.996 55.2353 116.996 55.4188 117.012 55.6012C117.1 56.0402 117.344 56.433 117.7 56.7081L118.346 57.2255C121.724 59.7477 125.216 62.1615 128.667 64.5453L129.189 64.8445C129.416 64.9637 129.664 65.038 129.919 65.0633H130.002C130.413 65.0631 130.813 64.9287 131.139 64.6808L134.34 62.4454C135.382 61.6694 136.508 60.9033 137.541 60.0991C137.881 59.8294 138.197 59.5315 138.486 59.2087C139.284 58.2824 139.784 57.1401 139.922 55.9291C139.922 55.5356 139.972 55.0909 139.972 54.6252V52.2977C139.977 52.2528 139.977 52.2076 139.972 52.1627V52.2044C139.964 52.6648 139.886 53.1213 139.744 53.5594C139.334 54.8061 138.537 55.8922 137.468 56.6624C135.445 58.1206 133.412 59.58 131.338 60.9866L130.865 61.2558C130.636 61.3716 130.382 61.4319 130.125 61.4318H130C129.874 61.427 129.748 61.4073 129.626 61.3731C129.531 61.3484 129.439 61.3117 129.353 61.264L128.613 60.827C126.131 59.1373 123.672 57.4128 121.236 55.6535L118.036 53.2485L117.566 52.8115C117.36 52.6029 117.223 52.3369 117.173 52.0489V51.9375C117.14 51.9375 117.012 55.0528 117.012 55.0528Z" fill="#00D395"/>
</g>
</g>
<g style="mix-blend-mode:difference">
<path d="M139.755 61.4949C139.792 61.3858 139.843 61.2292 139.895 61.0755V63.1514C139.894 63.5467 139.863 63.9414 139.802 64.3322V64.3322C139.599 65.6903 138.911 66.9307 137.862 67.827L136.917 68.6013C135.834 69.406 134.721 70.1809 133.596 70.9558L131.181 72.6181L130.968 72.7396C130.698 72.9114 130.384 73.0019 130.064 73V73C129.875 73.0018 129.688 72.9694 129.511 72.9044V72.9044C129.256 72.8183 129.015 72.6952 128.797 72.5389V72.5389L121.502 67.4827L117.896 64.8149C117.688 64.6689 117.512 64.4822 117.379 64.2665C117.247 64.0535 117.16 63.816 117.123 63.5684C117.113 63.4227 117.113 63.2765 117.123 63.1309V60.6672C117.165 60.7615 117.217 60.8509 117.278 60.9341V60.9341C117.448 61.1353 117.645 61.3128 117.863 61.462L120.227 63.2188C122.495 64.8835 124.797 66.4986 127.133 68.064L128.645 69.0975L129.291 69.4383H129.304C129.568 69.5411 129.853 69.5813 130.136 69.5556V69.5556C130.418 69.5304 130.69 69.4411 130.931 69.2946L131.233 69.1304H131.237L137.284 64.8483C137.811 64.4723 138.28 64.0217 138.675 63.511C139.155 62.9093 139.521 62.2262 139.755 61.4949V61.4949Z" fill="#00D395"/>
</g>
<g filter="url(#filter2_d_965_2)">
<g style="mix-blend-mode:difference" opacity="0.9">
<g style="mix-blend-mode:difference" opacity="0.9">
<path d="M139.749 61.4944C139.786 61.3853 139.837 61.2287 139.889 61.075V63.1509C139.888 63.5462 139.857 63.941 139.797 64.3317V64.3317C139.593 65.6898 138.905 66.9302 137.857 67.8265L136.911 68.6008C135.829 69.4056 134.715 70.1804 133.59 70.9553L131.175 72.6176L130.962 72.7391C130.692 72.9109 130.378 73.0014 130.058 72.9995V72.9995C129.869 73.0013 129.682 72.9689 129.505 72.9039V72.9039C129.25 72.8178 129.009 72.6947 128.791 72.5385V72.5385L121.496 67.4822L117.89 64.8144C117.682 64.6684 117.506 64.4817 117.373 64.266C117.241 64.0531 117.154 63.8155 117.117 63.568C117.107 63.4223 117.107 63.2761 117.117 63.1304V60.6667C117.159 60.761 117.211 60.8504 117.272 60.9336V60.9336C117.443 61.1348 117.639 61.3124 117.857 61.4616L120.221 63.2184C122.489 64.8831 124.791 66.4981 127.127 68.0635L128.639 69.097L129.285 69.4378H129.298C129.562 69.5406 129.847 69.5808 130.13 69.5551V69.5551C130.412 69.5299 130.684 69.4406 130.925 69.2941L131.227 69.1299H131.232L137.278 64.8479C137.805 64.4718 138.274 64.0212 138.669 63.5105C139.149 62.9088 139.515 62.2257 139.749 61.4944V61.4944Z" fill="#00D395"/>
</g>
</g>
</g>
<path d="M124.021 49.496L122.243 50.6967C122.103 50.8375 122.059 50.925 122.243 51.0545L122.416 51.1953L124.787 52.8514C124.787 52.8514 127.14 51.5727 127.643 51.3574C128.528 50.9601 129.487 50.7569 130.456 50.7612C131.113 50.8053 131.765 50.9042 132.405 51.0569C133.223 51.2923 133.998 51.6579 134.7 52.1399L135.368 52.5835C135.393 52.6081 135.422 52.6282 135.454 52.6426C135.487 52.6568 135.522 52.6641 135.558 52.6639C135.594 52.664 135.629 52.6568 135.662 52.6426C135.694 52.6286 135.723 52.6085 135.748 52.5835C135.775 52.5636 135.797 52.5377 135.813 52.5078C135.962 52.2754 136.081 52.0242 136.166 51.7608C136.222 51.5521 136.251 51.337 136.252 51.1208C136.253 50.8119 136.19 50.5062 136.068 50.2229C135.946 49.9396 135.766 49.6849 135.541 49.4747L135.085 49.0749C134.537 48.5461 133.907 48.1092 133.221 47.7808L132.698 47.5194C131.781 47.1723 130.807 46.9963 129.827 47.0001C128.756 47.0385 126.954 47.52 124.021 49.496Z" fill="url(#paint1_linear_965_2)" fill-opacity="0.4"/>
<g filter="url(#filter3_d_965_2)">
<g style="mix-blend-mode:difference" opacity="0.9">
<path d="M117.012 55.0528C116.996 55.2353 116.996 55.4188 117.012 55.6012C117.1 56.0402 117.344 56.433 117.7 56.7081L118.346 57.2255C121.724 59.7477 125.216 62.1615 128.667 64.5453L129.189 64.8445C129.416 64.9637 129.664 65.038 129.919 65.0633H130.002C130.413 65.0631 130.813 64.9287 131.139 64.6808L134.34 62.4454C135.382 61.6694 136.508 60.9033 137.541 60.0991C137.881 59.8294 138.197 59.5315 138.486 59.2087C139.284 58.2824 139.784 57.1401 139.922 55.9291C139.922 55.5356 139.972 55.0909 139.972 54.6252V52.2977C139.977 52.2528 139.977 52.2076 139.972 52.1627V52.2044C139.964 52.6648 139.886 53.1213 139.744 53.5594C139.334 54.8061 138.537 55.8922 137.468 56.6624C135.445 58.1206 133.412 59.58 131.338 60.9866L130.865 61.2558C130.636 61.3716 130.382 61.4319 130.125 61.4318H130C129.874 61.427 129.748 61.4073 129.626 61.3731C129.531 61.3484 129.439 61.3117 129.353 61.264L128.613 60.827C126.131 59.1373 123.672 57.4128 121.236 55.6535L118.036 53.2485L117.566 52.8115C117.36 52.6029 117.223 52.3369 117.173 52.0489V51.9375C117.14 51.9375 117.012 55.0528 117.012 55.0528Z" fill="url(#paint2_linear_965_2)" fill-opacity="0.4"/>
</g>
</g>
<g style="mix-blend-mode:difference">
<path d="M139.755 61.4949C139.792 61.3858 139.843 61.2292 139.895 61.0755V63.1514C139.894 63.5467 139.863 63.9414 139.802 64.3322V64.3322C139.599 65.6903 138.911 66.9307 137.862 67.827L136.917 68.6013C135.834 69.406 134.721 70.1809 133.596 70.9558L131.181 72.6181L130.968 72.7396C130.698 72.9114 130.384 73.0019 130.064 73V73C129.875 73.0018 129.688 72.9694 129.511 72.9044V72.9044C129.256 72.8183 129.015 72.6952 128.797 72.5389V72.5389L121.502 67.4827L117.896 64.8149C117.688 64.6689 117.512 64.4822 117.379 64.2665C117.247 64.0535 117.16 63.816 117.123 63.5684C117.113 63.4227 117.113 63.2765 117.123 63.1309V60.6672C117.165 60.7615 117.217 60.8509 117.278 60.9341V60.9341C117.448 61.1353 117.645 61.3128 117.863 61.462L120.227 63.2188C122.495 64.8835 124.797 66.4986 127.133 68.064L128.645 69.0975L129.291 69.4383H129.304C129.568 69.5411 129.853 69.5813 130.136 69.5556V69.5556C130.418 69.5304 130.69 69.4411 130.931 69.2946L131.233 69.1304H131.237L137.284 64.8483C137.811 64.4723 138.28 64.0217 138.675 63.511C139.155 62.9093 139.521 62.2262 139.755 61.4949V61.4949Z" fill="url(#paint3_linear_965_2)" fill-opacity="0.4"/>
</g>
<g filter="url(#filter4_d_965_2)">
<g style="mix-blend-mode:difference" opacity="0.9">
<g style="mix-blend-mode:difference" opacity="0.9">
<path d="M139.749 61.4944C139.786 61.3853 139.837 61.2287 139.889 61.075V63.1509C139.888 63.5462 139.857 63.941 139.797 64.3317V64.3317C139.593 65.6898 138.905 66.9302 137.857 67.8265L136.911 68.6008C135.829 69.4056 134.715 70.1804 133.59 70.9553L131.175 72.6176L130.962 72.7391C130.692 72.9109 130.378 73.0014 130.058 72.9995V72.9995C129.869 73.0013 129.682 72.9689 129.505 72.9039V72.9039C129.25 72.8178 129.009 72.6947 128.791 72.5385V72.5385L121.496 67.4822L117.89 64.8144C117.682 64.6684 117.506 64.4817 117.373 64.266C117.241 64.0531 117.154 63.8155 117.117 63.568C117.107 63.4223 117.107 63.2761 117.117 63.1304V60.6667C117.159 60.761 117.211 60.8504 117.272 60.9336V60.9336C117.443 61.1348 117.639 61.3124 117.857 61.4616L120.221 63.2184C122.489 64.8831 124.791 66.4981 127.127 68.0635L128.639 69.097L129.285 69.4378H129.298C129.562 69.5406 129.847 69.5808 130.13 69.5551V69.5551C130.412 69.5299 130.684 69.4406 130.925 69.2941L131.227 69.1299H131.232L137.278 64.8479C137.805 64.4718 138.274 64.0212 138.669 63.5105C139.149 62.9088 139.515 62.2257 139.749 61.4944V61.4944Z" fill="url(#paint4_linear_965_2)" fill-opacity="0.4"/>
</g>
</g>
</g>
<defs>
<filter id="filter0_d_965_2" x="0" y="598" width="169.357" height="101" filterUnits="userSpaceOnUse" color-interpolation-filters="sRGB">
<feFlood flood-opacity="0" result="BackgroundImageFix"/>
<feColorMatrix in="SourceAlpha" type="matrix" values="0 0 0 0 0 0 0 0 0 0 0 0 0 0 0 0 0 0 127 0" result="hardAlpha"/>
<feOffset dx="-3" dy="-4"/>
<feGaussianBlur stdDeviation="3"/>
<feComposite in2="hardAlpha" operator="out"/>
<feColorMatrix type="matrix" values="0 0 0 0 0 0 0 0 0 0 0 0 0 0 0 0 0 0 0.24 0"/>
<feBlend mode="normal" in2="BackgroundImageFix" result="effect1_dropShadow_965_2"/>
<feBlend mode="normal" in="SourceGraphic" in2="effect1_dropShadow_965_2" result="shape"/>
</filter>
<filter id="filter1_d_965_2" x="115" y="51.9375" width="24.9766" height="15.1257" filterUnits="userSpaceOnUse" color-interpolation-filters="sRGB">
<feFlood flood-opacity="0" result="BackgroundImageFix"/>
<feColorMatrix in="SourceAlpha" type="matrix" values="0 0 0 0 0 0 0 0 0 0 0 0 0 0 0 0 0 0 127 0" result="hardAlpha"/>
<feOffset dx="-1" dy="1"/>
<feGaussianBlur stdDeviation="0.5"/>
<feComposite in2="hardAlpha" operator="out"/>
<feColorMatrix type="matrix" values="0 0 0 0 0.0980392 0 0 0 0 0.105882 0 0 0 0 0.113725 0 0 0 0.55 0"/>
<feBlend mode="normal" in2="BackgroundImageFix" result="effect1_dropShadow_965_2"/>
<feBlend mode="normal" in="SourceGraphic" in2="effect1_dropShadow_965_2" result="shape"/>
</filter>
<filter id="filter2_d_965_2" x="115.109" y="60.6667" width="24.7793" height="14.3328" filterUnits="userSpaceOnUse" color-interpolation-filters="sRGB">
<feFlood flood-opacity="0" result="BackgroundImageFix"/>
<feColorMatrix in="SourceAlpha" type="matrix" values="0 0 0 0 0 0 0 0 0 0 0 0 0 0 0 0 0 0 127 0" result="hardAlpha"/>
<feOffset dx="-1" dy="1"/>
<feGaussianBlur stdDeviation="0.5"/>
<feComposite in2="hardAlpha" operator="out"/>
<feColorMatrix type="matrix" values="0 0 0 0 0.0965366 0 0 0 0 0.105884 0 0 0 0 0.112652 0 0 0 0.55 0"/>
<feBlend mode="normal" in2="BackgroundImageFix" result="effect1_dropShadow_965_2"/>
<feBlend mode="normal" in="SourceGraphic" in2="effect1_dropShadow_965_2" result="shape"/>
</filter>
<filter id="filter3_d_965_2" x="115" y="51.9375" width="24.9766" height="15.1257" filterUnits="userSpaceOnUse" color-interpolation-filters="sRGB">
<feFlood flood-opacity="0" result="BackgroundImageFix"/>
<feColorMatrix in="SourceAlpha" type="matrix" values="0 0 0 0 0 0 0 0 0 0 0 0 0 0 0 0 0 0 127 0" result="hardAlpha"/>
<feOffset dx="-1" dy="1"/>
<feGaussianBlur stdDeviation="0.5"/>
<feComposite in2="hardAlpha" operator="out"/>
<feColorMatrix type="matrix" values="0 0 0 0 0.0980392 0 0 0 0 0.105882 0 0 0 0 0.113725 0 0 0 0.32 0"/>
<feBlend mode="normal" in2="BackgroundImageFix" result="effect1_dropShadow_965_2"/>
<feBlend mode="normal" in="SourceGraphic" in2="effect1_dropShadow_965_2" result="shape"/>
</filter>
<filter id="filter4_d_965_2" x="115.109" y="60.6667" width="24.7793" height="14.3328" filterUnits="userSpaceOnUse" color-interpolation-filters="sRGB">
<feFlood flood-opacity="0" result="BackgroundImageFix"/>
<feColorMatrix in="SourceAlpha" type="matrix" values="0 0 0 0 0 0 0 0 0 0 0 0 0 0 0 0 0 0 127 0" result="hardAlpha"/>
<feOffset dx="-1" dy="1"/>
<feGaussianBlur stdDeviation="0.5"/>
<feComposite in2="hardAlpha" operator="out"/>
<feColorMatrix type="matrix" values="0 0 0 0 0.0965366 0 0 0 0 0.105884 0 0 0 0 0.112652 0 0 0 0.32 0"/>
<feBlend mode="normal" in2="BackgroundImageFix" result="effect1_dropShadow_965_2"/>
<feBlend mode="normal" in="SourceGraphic" in2="effect1_dropShadow_965_2" result="shape"/>
</filter>
<linearGradient id="paint0_linear_965_2" x1="330.71" y1="-18.7954" x2="332.5" y2="633" gradientUnits="userSpaceOnUse">
<stop stop-color="#2D2D2D"/>
<stop offset="1" stop-color="#0F0F0F" stop-opacity="0"/>
</linearGradient>
<linearGradient id="paint1_linear_965_2" x1="121.532" y1="46.9757" x2="121.712" y2="53.1851" gradientUnits="userSpaceOnUse">
<stop stop-opacity="0.59"/>
<stop offset="0.956462" stop-color="#5B5151" stop-opacity="0.34"/>
</linearGradient>
<linearGradient id="paint2_linear_965_2" x1="116.043" y1="51.8831" x2="116.599" y2="65.8014" gradientUnits="userSpaceOnUse">
<stop stop-opacity="0.59"/>
<stop offset="0.956462" stop-color="#5B5151" stop-opacity="0.34"/>
</linearGradient>
<linearGradient id="paint3_linear_965_2" x1="116.166" y1="60.6161" x2="116.662" y2="73.6957" gradientUnits="userSpaceOnUse">
<stop stop-opacity="0.59"/>
<stop offset="0.956462" stop-color="#5B5151" stop-opacity="0.34"/>
</linearGradient>
<linearGradient id="paint4_linear_965_2" x1="116.16" y1="60.6156" x2="116.656" y2="73.6952" gradientUnits="userSpaceOnUse">
<stop stop-opacity="0.59"/>
<stop offset="0.956462" stop-color="#5B5151" stop-opacity="0.34"/>
</linearGradient>
</defs>
</svg>
