<svg width="744" height="699" viewBox="0 0 744 699" fill="none" xmlns="http://www.w3.org/2000/svg">
<g filter="url(#filter0_d_958_32)">
<path d="M43.9667 696C65.1187 696 77.892 679.921 77.9331 652.233C77.9741 624.751 65.0365 609 43.9667 609C22.8558 609 10.0415 624.71 10.0004 652.233C9.91825 679.839 22.7737 695.959 43.9667 696ZM43.9667 681.274C34.3149 681.274 28.072 671.594 28.113 652.233C28.1541 633.16 34.3559 623.562 43.9667 623.562C53.5364 623.562 59.7793 633.16 59.7793 652.233C59.8204 671.594 53.5775 681.274 43.9667 681.274Z" fill="#2D2D2D" fill-opacity="0.4" shape-rendering="crispEdges"/>
<path d="M128.365 610.149H111.649L90.8259 623.315V639.066L110.089 627.007H110.581V694.154H128.365V610.149Z" fill="#2D2D2D" fill-opacity="0.4" shape-rendering="crispEdges"/>
<path d="M155.5 695.221C160.757 695.221 165.316 690.832 165.357 685.376C165.316 680.003 160.757 675.614 155.5 675.614C150.078 675.614 145.602 680.003 145.643 685.376C145.602 690.832 150.078 695.221 155.5 695.221Z" fill="#2D2D2D" fill-opacity="0.4" shape-rendering="crispEdges"/>
<path d="M43.9658 696.5H43.9667C54.6825 696.5 63.315 692.42 69.2605 684.807C75.1936 677.21 78.4124 666.147 78.4331 652.234C78.4537 638.422 75.2136 627.489 69.2578 620C63.2904 612.495 54.638 608.5 43.9667 608.5C33.2753 608.5 24.643 612.485 18.6907 619.985C12.7506 627.469 9.52109 638.401 9.50039 652.232C9.45917 666.105 12.6678 677.159 18.6115 684.761C24.5672 692.379 33.2299 696.479 43.9658 696.5ZM59.2793 652.233V652.234C59.2998 661.873 57.7538 669.034 55.058 673.767C52.3774 678.473 48.5684 680.774 43.9667 680.774C39.3437 680.774 35.5246 678.472 32.8393 673.766C30.1386 669.034 28.5926 661.873 28.613 652.234C28.6335 642.739 30.1893 635.671 32.8844 630.995C35.5642 626.345 39.3631 624.062 43.9667 624.062C48.5494 624.062 52.3485 626.344 55.0285 630.995C57.7235 635.671 59.2793 642.739 59.2793 652.233ZM128.865 610.149V609.649H128.365H111.649H111.504L111.382 609.726L90.5587 622.893L90.3259 623.04V623.315V639.066V639.969L91.0912 639.49L110.081 627.601V694.154V694.654H110.581H128.365H128.865V694.154V610.149ZM165.857 685.38L165.857 685.372C165.814 679.719 161.027 675.114 155.5 675.114C149.812 675.114 145.102 679.717 145.143 685.376C145.102 691.114 149.809 695.721 155.5 695.721C161.029 695.721 165.814 691.113 165.857 685.38Z" stroke="#203C2F" stroke-opacity="0.52" shape-rendering="crispEdges"/>
</g>
<path d="M594.749 8.35059H114.107C95.0546 8.35059 79.6094 23.7959 79.6094 42.8486V652.502C79.6094 671.555 95.0546 687 114.107 687H594.749C613.803 687 629.247 671.555 629.247 652.502V42.8486C629.247 23.7959 613.803 8.35059 594.749 8.35059Z" fill="url(#paint0_linear_958_32)"/>
<path d="M518.768 74.7565L521.22 68.4636H520.1L518.272 73.41L516.429 68.4636H515.281L517.719 74.7565H518.768ZM526.638 72.8714C526.468 73.5801 525.887 73.9769 525.107 73.9769C524.044 73.9769 523.293 73.1549 523.279 71.8084H527.729V71.4258C527.729 69.5974 526.808 68.336 525.079 68.336C523.364 68.336 522.216 69.7392 522.216 71.6242C522.216 73.5659 523.392 74.884 525.107 74.884C526.525 74.884 527.418 74.062 527.644 72.8714H526.638ZM525.093 69.2431C526.142 69.2431 526.638 70.0651 526.652 71.0006H523.307C523.463 69.8951 524.143 69.2431 525.093 69.2431ZM532.732 68.4352C532.619 68.3785 532.392 68.336 532.123 68.336C531.429 68.336 530.833 68.747 530.564 69.2856V68.4636H529.501V74.7565H530.564V70.5329C530.777 69.7958 531.358 69.3565 532.024 69.3565C532.293 69.3565 532.562 69.4132 532.732 69.5266V68.4352ZM533.843 73.0273C534.042 74.1895 535.048 74.884 536.423 74.884C537.769 74.884 538.762 74.1754 538.762 72.9848C538.762 72.1061 538.237 71.5108 537.16 71.2273L535.941 70.9297C535.346 70.7596 535.062 70.5612 535.062 70.136C535.062 69.5266 535.643 69.2289 536.267 69.2289C537.032 69.2289 537.472 69.5549 537.656 70.1218H538.719C538.492 69.0163 537.67 68.336 536.281 68.336C535.006 68.336 534.028 69.073 534.028 70.1927C534.028 71.1706 534.651 71.6242 535.544 71.851L536.792 72.1769C537.444 72.347 537.727 72.6163 537.727 73.0557C537.727 73.6935 537.188 73.9911 536.437 73.9911C535.7 73.9911 535.147 73.6793 534.949 73.0273H533.843ZM541.654 68.4636H540.591V74.7565H541.654V68.4636ZM541.81 66.5643C541.81 66.1817 541.498 65.884 541.115 65.884C540.747 65.884 540.435 66.1817 540.435 66.5643C540.435 66.9329 540.747 67.2447 541.115 67.2447C541.498 67.2447 541.81 66.9329 541.81 66.5643ZM549.236 71.61C549.236 69.6825 548.06 68.336 546.345 68.336C544.616 68.336 543.454 69.6825 543.454 71.61C543.454 73.5376 544.616 74.884 546.345 74.884C548.06 74.884 549.236 73.5376 549.236 71.61ZM548.159 71.61C548.159 72.9848 547.479 73.9486 546.345 73.9486C545.211 73.9486 544.531 72.9848 544.531 71.61C544.531 70.2352 545.211 69.2714 546.345 69.2714C547.479 69.2714 548.159 70.2352 548.159 71.61ZM551.029 74.7565H552.092V70.4903C552.319 69.81 552.957 69.314 553.694 69.314C554.643 69.314 555.083 69.9234 555.083 70.8021V74.7565H556.16V70.6321C556.16 69.2573 555.381 68.336 553.949 68.336C553.141 68.336 552.461 68.7612 552.092 69.2573V68.4636H551.029V74.7565ZM557.822 74.062C557.822 74.5014 558.162 74.8273 558.588 74.8273C558.999 74.8273 559.339 74.5014 559.339 74.062C559.339 73.6226 558.999 73.2825 558.588 73.2825C558.162 73.2825 557.822 73.6226 557.822 74.062ZM557.822 69.6116C557.822 70.051 558.162 70.3769 558.588 70.3769C558.999 70.3769 559.339 70.051 559.339 69.6116C559.339 69.1722 558.999 68.8321 558.588 68.8321C558.162 68.8321 557.822 69.1722 557.822 69.6116ZM567.228 66.0399H566.562L563.982 67.358V68.4919L566.136 67.3864V74.7565H567.228V66.0399ZM569.1 74.062C569.1 74.5014 569.44 74.8273 569.866 74.8273C570.277 74.8273 570.617 74.5014 570.617 74.062C570.617 73.6226 570.277 73.2825 569.866 73.2825C569.44 73.2825 569.1 73.6226 569.1 74.062ZM574.807 74.884C576.748 74.884 578.052 73.0557 578.052 70.4053C578.052 67.7549 576.748 65.9266 574.807 65.9266C572.865 65.9266 571.561 67.7549 571.561 70.4053C571.561 73.0557 572.865 74.884 574.807 74.884ZM574.807 66.9329C576.21 66.9329 576.961 68.3785 576.961 70.4053C576.961 72.4321 576.21 73.8777 574.807 73.8777C573.389 73.8777 572.652 72.4321 572.652 70.4053C572.652 68.3785 573.389 66.9329 574.807 66.9329ZM578.999 74.062C578.999 74.5014 579.34 74.8273 579.765 74.8273C580.176 74.8273 580.516 74.5014 580.516 74.062C580.516 73.6226 580.176 73.2825 579.765 73.2825C579.34 73.2825 578.999 73.6226 578.999 74.062ZM584.706 74.884C586.647 74.884 587.951 73.0557 587.951 70.4053C587.951 67.7549 586.647 65.9266 584.706 65.9266C582.764 65.9266 581.46 67.7549 581.46 70.4053C581.46 73.0557 582.764 74.884 584.706 74.884ZM584.706 66.9329C586.109 66.9329 586.86 68.3785 586.86 70.4053C586.86 72.4321 586.109 73.8777 584.706 73.8777C583.288 73.8777 582.551 72.4321 582.551 70.4053C582.551 68.3785 583.288 66.9329 584.706 66.9329Z" fill="#4F4F4F"/>
<path d="M80.6526 573.845L80.8017 555.26M71.1875 576.29L71.2831 536.087M71.317 473V522.655" stroke="#646464" stroke-width="2" stroke-linecap="round"/>
<path d="M71.3711 461V37.0712C71.3711 17.1491 88.0734 1 108.678 1H179.562M638.437 227.347V37.0712C638.437 17.1491 621.736 1 601.13 1H242.983M199.147 1H217.801" stroke="#646464" stroke-width="2" stroke-linecap="round"/>
<path d="M638.602 652V248.617" stroke="#646464" stroke-width="2" stroke-linecap="round"/>
<path d="M59 298.959V181.725M59 73.1511V160.985" stroke="#00D395" stroke-width="2" stroke-linecap="round"/>
<line x1="121.998" y1="528.5" x2="581.997" y2="526.419" stroke="#3B3A3A"/>
<path d="M125.96 549H123.01V541.71H125.96C128.13 541.71 129.02 542.96 129.02 545.36C129.02 547.77 128.12 549 125.96 549ZM123.92 542.54V548.17H125.95C127.39 548.17 128.06 547.51 128.06 545.96V544.76C128.06 543.19 127.36 542.54 125.95 542.54H123.92ZM131.201 542.81H130.341V541.67H131.201V542.81ZM131.201 549H130.341V543.78H131.201V549ZM133.048 542.81V541.67H133.898V542.81H133.048ZM133.048 549.97V543.78H133.898V549.9C133.898 550.06 133.888 550.15 133.798 550.35C133.718 550.55 133.478 550.67 133.118 550.67H131.898V549.97H133.048ZM137.576 543.68C139.006 543.68 139.896 544.58 139.896 546.03C139.896 546.23 139.886 546.41 139.866 546.57H136.016V546.87C136.016 547.79 136.646 548.4 137.606 548.4C138.336 548.4 138.896 548.02 139.066 547.43H139.926C139.816 547.94 139.556 548.34 139.126 548.65C138.696 548.95 138.186 549.1 137.586 549.1C136.066 549.1 135.126 548.05 135.126 546.37C135.126 544.69 136.066 543.68 137.576 543.68ZM136.016 545.79V545.93H139.036V545.73C139.036 544.92 138.446 544.38 137.576 544.38C136.656 544.38 136.016 544.95 136.016 545.79ZM142.309 544.5V548.28H143.409V549H142.209C141.699 549 141.449 548.76 141.449 548.27V544.5H140.499V543.78H141.449V542.05H142.309V543.78H143.399V544.5H142.309ZM144.236 547.42H145.096C145.096 548.03 145.596 548.42 146.366 548.42C147.096 548.42 147.536 548.1 147.536 547.55C147.536 547.16 147.306 546.92 146.846 546.83L145.726 546.62C144.796 546.45 144.336 545.99 144.336 545.24C144.336 544.27 145.106 543.68 146.306 543.68C147.546 543.68 148.296 544.31 148.306 545.27H147.446C147.426 544.66 147.046 544.35 146.306 544.35C145.596 544.35 145.206 544.66 145.206 545.15C145.206 545.43 145.326 545.63 145.536 545.74C145.746 545.83 145.836 545.86 146.046 545.9L147.076 546.09C147.986 546.25 148.446 546.72 148.446 547.5C148.446 548.5 147.636 549.1 146.366 549.1C145.046 549.1 144.236 548.43 144.236 547.42ZM153.109 541.71V549H152.199V541.71H153.109ZM155.859 549H154.989V543.78H155.749L155.859 544.75H155.929C156.249 544.08 156.899 543.68 157.689 543.68C158.819 543.68 159.499 544.5 159.499 545.79V549H158.629V545.88C158.629 544.93 158.219 544.45 157.399 544.45C156.479 544.45 155.859 545.18 155.859 546.27V549ZM164.681 547.22H165.541C165.371 548.38 164.491 549.1 163.221 549.1C162.451 549.1 161.841 548.86 161.401 548.37C160.961 547.88 160.741 547.23 160.741 546.4C160.741 545.55 160.971 544.88 161.431 544.4C161.891 543.92 162.501 543.68 163.251 543.68C164.461 543.68 165.341 544.39 165.511 545.48H164.651C164.481 544.77 163.931 544.41 163.211 544.41C162.281 544.41 161.631 545.08 161.631 546.04V546.83C161.631 547.76 162.261 548.38 163.211 548.38C163.981 548.38 164.551 547.93 164.681 547.22ZM167.735 549H166.615V547.74H167.735V549ZM172.34 549L170.86 541.71H171.82L172.67 546.05L173 548H173.07L174.76 541.71H175.99L177.69 548H177.75L178.08 546.06L178.92 541.71H179.89L178.4 549H177.14L175.4 542.7H175.35L173.61 549H172.34ZM181.748 549H180.878V541.67H181.748V544.73H181.808C182.128 544.08 182.798 543.68 183.568 543.68C184.698 543.68 185.378 544.49 185.378 545.78V549H184.518V545.87C184.518 544.9 184.108 544.41 183.278 544.41C182.358 544.41 181.748 545.13 181.748 546.24V549ZM187.91 542.81H187.05V541.67H187.91V542.81ZM187.91 549H187.05V543.78H187.91V549ZM190.717 544.5V548.28H191.817V549H190.617C190.107 549 189.857 548.76 189.857 548.27V544.5H188.907V543.78H189.857V542.05H190.717V543.78H191.807V544.5H190.717ZM195.056 543.68C196.486 543.68 197.376 544.58 197.376 546.03C197.376 546.23 197.366 546.41 197.346 546.57H193.496V546.87C193.496 547.79 194.126 548.4 195.086 548.4C195.816 548.4 196.376 548.02 196.546 547.43H197.406C197.296 547.94 197.036 548.34 196.606 548.65C196.176 548.95 195.666 549.1 195.066 549.1C193.546 549.1 192.606 548.05 192.606 546.37C192.606 544.69 193.546 543.68 195.056 543.68ZM193.496 545.79V545.93H196.516V545.73C196.516 544.92 195.926 544.38 195.056 544.38C194.136 544.38 193.496 544.95 193.496 545.79ZM199.59 550.67H198.72V543.78H199.5L199.59 544.7H199.65C200 544.05 200.67 543.68 201.52 543.68C202.88 543.68 203.69 544.66 203.69 546.35C203.69 548.06 202.88 549.03 201.52 549.03C200.64 549.03 199.98 548.65 199.65 548.01H199.59V550.67ZM201.28 548.3C202.21 548.3 202.8 547.75 202.8 546.88V545.83C202.8 544.96 202.21 544.4 201.28 544.4C200.27 544.4 199.59 545.06 199.59 546.03V546.68C199.59 547.65 200.27 548.3 201.28 548.3ZM204.559 547.5C204.559 546.47 205.269 545.89 206.459 545.89H208.029V545.49C208.029 544.74 207.639 544.37 206.849 544.37C206.079 544.37 205.659 544.74 205.629 545.34H204.779C204.829 544.3 205.629 543.68 206.899 543.68C207.589 543.68 208.129 543.91 208.399 544.19C208.529 544.33 208.639 544.49 208.719 544.68C208.879 545.05 208.889 545.27 208.889 545.51V548.36H209.659V549H208.769C208.289 549 208.119 548.8 208.089 548.41L208.079 548.14H208.019C207.789 548.73 207.089 549.1 206.239 549.1C205.189 549.1 204.559 548.47 204.559 547.5ZM205.449 547.28V547.6C205.449 548.12 205.839 548.4 206.439 548.4C207.409 548.4 208.029 547.76 208.029 546.8V546.52H206.539C205.849 546.52 205.449 546.83 205.449 547.28ZM211.621 550.67H210.751V543.78H211.531L211.621 544.7H211.681C212.031 544.05 212.701 543.68 213.551 543.68C214.911 543.68 215.721 544.66 215.721 546.35C215.721 548.06 214.911 549.03 213.551 549.03C212.671 549.03 212.011 548.65 211.681 548.01H211.621V550.67ZM213.311 548.3C214.241 548.3 214.831 547.75 214.831 546.88V545.83C214.831 544.96 214.241 544.4 213.311 544.4C212.301 544.4 211.621 545.06 211.621 546.03V546.68C211.621 547.65 212.301 548.3 213.311 548.3ZM219.148 543.68C220.578 543.68 221.468 544.58 221.468 546.03C221.468 546.23 221.458 546.41 221.438 546.57H217.588V546.87C217.588 547.79 218.218 548.4 219.178 548.4C219.908 548.4 220.468 548.02 220.638 547.43H221.498C221.388 547.94 221.128 548.34 220.698 548.65C220.268 548.95 219.758 549.1 219.158 549.1C217.638 549.1 216.698 548.05 216.698 546.37C216.698 544.69 217.638 543.68 219.148 543.68ZM217.588 545.79V545.93H220.608V545.73C220.608 544.92 220.018 544.38 219.148 544.38C218.228 544.38 217.588 544.95 217.588 545.79ZM223.601 543.78H225.411V544.5H223.681V549H222.811V544.55C222.811 544.04 223.071 543.78 223.601 543.78ZM229.779 549L227.879 543.78H228.829L229.749 546.56L230.259 548.11H230.319L230.799 546.56L231.719 543.78H232.669L230.809 549H229.779ZM235.535 543.68C236.965 543.68 237.855 544.58 237.855 546.03C237.855 546.23 237.845 546.41 237.825 546.57H233.975V546.87C233.975 547.79 234.605 548.4 235.565 548.4C236.295 548.4 236.855 548.02 237.025 547.43H237.885C237.775 547.94 237.515 548.34 237.085 548.65C236.655 548.95 236.145 549.1 235.545 549.1C234.025 549.1 233.085 548.05 233.085 546.37C233.085 544.69 234.025 543.68 235.535 543.68ZM233.975 545.79V545.93H236.995V545.73C236.995 544.92 236.405 544.38 235.535 544.38C234.615 544.38 233.975 544.95 233.975 545.79ZM239.988 543.78H241.798V544.5H240.068V549H239.198V544.55C239.198 544.04 239.458 543.78 239.988 543.78ZM242.195 547.42H243.055C243.055 548.03 243.555 548.42 244.325 548.42C245.055 548.42 245.495 548.1 245.495 547.55C245.495 547.16 245.265 546.92 244.805 546.83L243.685 546.62C242.755 546.45 242.295 545.99 242.295 545.24C242.295 544.27 243.065 543.68 244.265 543.68C245.505 543.68 246.255 544.31 246.265 545.27H245.405C245.385 544.66 245.005 544.35 244.265 544.35C243.555 544.35 243.165 544.66 243.165 545.15C243.165 545.43 243.285 545.63 243.495 545.74C243.705 545.83 243.795 545.86 244.005 545.9L245.035 546.09C245.945 546.25 246.405 546.72 246.405 547.5C246.405 548.5 245.595 549.1 244.325 549.1C243.005 549.1 242.195 548.43 242.195 547.42ZM248.544 542.81H247.684V541.67H248.544V542.81ZM248.544 549H247.684V543.78H248.544V549ZM249.852 546.39C249.852 545.55 250.082 544.89 250.542 544.41C251.002 543.92 251.612 543.68 252.362 543.68C253.112 543.68 253.722 543.92 254.172 544.4C254.632 544.88 254.862 545.54 254.862 546.39C254.862 548.04 253.932 549.1 252.362 549.1C251.582 549.1 250.972 548.86 250.522 548.37C250.072 547.88 249.852 547.22 249.852 546.39ZM250.742 546.01V546.82C250.742 547.81 251.442 548.38 252.362 548.38C253.292 548.38 253.982 547.79 253.982 546.82V546.01C253.982 545.05 253.312 544.41 252.362 544.41C251.892 544.41 251.502 544.56 251.192 544.86C250.892 545.15 250.742 545.54 250.742 546.01ZM257.051 549H256.181V543.78H256.941L257.051 544.75H257.121C257.441 544.08 258.091 543.68 258.881 543.68C260.011 543.68 260.691 544.5 260.691 545.79V549H259.821V545.88C259.821 544.93 259.411 544.45 258.591 544.45C257.671 544.45 257.051 545.18 257.051 546.27V549ZM266.116 543.7H264.306V543.02H264.586C265.516 543.02 266.146 542.54 266.176 541.79H266.986V549H266.116V543.7ZM270.196 549H269.076V547.74H270.196V549ZM274.007 541.7C275.677 541.7 276.487 542.91 276.487 545.4C276.487 547.89 275.677 549.1 274.007 549.1C272.347 549.1 271.517 547.87 271.517 545.4C271.517 542.93 272.347 541.7 274.007 541.7ZM272.487 544.32V546.48C272.487 547.68 273.067 548.32 273.997 548.32C274.917 548.32 275.517 547.69 275.517 546.48V544.32C275.517 543.11 274.917 542.48 273.997 542.48C273.067 542.48 272.487 543.12 272.487 544.32ZM278.927 549H277.807V547.74H278.927V549ZM282.738 541.7C284.408 541.7 285.218 542.91 285.218 545.4C285.218 547.89 284.408 549.1 282.738 549.1C281.078 549.1 280.248 547.87 280.248 545.4C280.248 542.93 281.078 541.7 282.738 541.7ZM281.218 544.32V546.48C281.218 547.68 281.798 548.32 282.728 548.32C283.648 548.32 284.248 547.69 284.248 546.48V544.32C284.248 543.11 283.648 542.48 282.728 542.48C281.798 542.48 281.218 543.12 281.218 544.32Z" fill="#7B7979"/>
<path d="M123.024 273.24C118.032 273.24 115.08 269.928 115.08 264.264C115.08 258.6 118.032 255.264 123.216 255.264C125.352 255.264 127.104 255.816 128.448 256.92C129.816 258.024 130.608 259.512 130.824 261.36H128.568C128.088 258.864 126.168 257.256 123.168 257.256C121.416 257.256 120 257.76 118.944 258.792C117.912 259.8 117.384 261.168 117.384 262.92V265.752C117.384 267.36 117.912 268.704 118.968 269.736C120.024 270.768 121.392 271.272 123.096 271.272C125.904 271.272 127.992 269.664 128.568 267.144H130.824C130.512 269.016 129.672 270.504 128.28 271.608C126.888 272.688 125.136 273.24 123.024 273.24ZM133.079 266.736C133.079 264.72 133.631 263.136 134.735 261.984C135.839 260.808 137.303 260.232 139.103 260.232C140.903 260.232 142.367 260.808 143.447 261.96C144.551 263.112 145.103 264.696 145.103 266.736C145.103 270.696 142.871 273.24 139.103 273.24C137.231 273.24 135.767 272.664 134.687 271.488C133.607 270.312 133.079 268.728 133.079 266.736ZM135.215 265.824V267.768C135.215 270.144 136.895 271.512 139.103 271.512C141.335 271.512 142.991 270.096 142.991 267.768V265.824C142.991 263.52 141.383 261.984 139.103 261.984C137.975 261.984 137.039 262.344 136.295 263.064C135.575 263.76 135.215 264.696 135.215 265.824ZM150.356 273H148.268V260.472H150.092L150.356 262.8H150.524C151.292 261.192 152.852 260.232 154.748 260.232C157.46 260.232 159.092 262.2 159.092 265.296V273H157.004V265.512C157.004 263.232 156.02 262.08 154.052 262.08C151.844 262.08 150.356 263.832 150.356 266.448V273ZM162.024 269.208H164.088C164.088 270.672 165.288 271.608 167.136 271.608C168.888 271.608 169.944 270.84 169.944 269.52C169.944 268.584 169.392 268.008 168.288 267.792L165.6 267.288C163.368 266.88 162.264 265.776 162.264 263.976C162.264 261.648 164.112 260.232 166.992 260.232C169.968 260.232 171.768 261.744 171.792 264.048H169.728C169.68 262.584 168.768 261.84 166.992 261.84C165.288 261.84 164.352 262.584 164.352 263.76C164.352 264.432 164.64 264.912 165.144 265.176C165.648 265.392 165.864 265.464 166.368 265.56L168.84 266.016C171.024 266.4 172.128 267.528 172.128 269.4C172.128 271.8 170.184 273.24 167.136 273.24C163.968 273.24 162.024 271.632 162.024 269.208ZM180.233 260.232C183.665 260.232 185.801 262.392 185.801 265.872C185.801 266.352 185.777 266.784 185.729 267.168H176.489V267.888C176.489 270.096 178.001 271.56 180.305 271.56C182.057 271.56 183.401 270.648 183.809 269.232H185.873C185.609 270.456 184.985 271.416 183.953 272.16C182.921 272.88 181.697 273.24 180.257 273.24C176.609 273.24 174.353 270.72 174.353 266.688C174.353 262.656 176.609 260.232 180.233 260.232ZM176.489 265.296V265.632H183.737V265.152C183.737 263.208 182.321 261.912 180.233 261.912C178.025 261.912 176.489 263.28 176.489 265.296ZM191.114 273H189.026V260.472H190.85L191.114 262.8H191.282C192.05 261.192 193.61 260.232 195.506 260.232C198.218 260.232 199.85 262.2 199.85 265.296V273H197.762V265.512C197.762 263.232 196.778 262.08 194.81 262.08C192.602 262.08 191.114 263.832 191.114 266.448V273ZM202.781 269.208H204.845C204.845 270.672 206.045 271.608 207.893 271.608C209.645 271.608 210.701 270.84 210.701 269.52C210.701 268.584 210.149 268.008 209.045 267.792L206.357 267.288C204.125 266.88 203.021 265.776 203.021 263.976C203.021 261.648 204.869 260.232 207.749 260.232C210.725 260.232 212.525 261.744 212.549 264.048H210.485C210.437 262.584 209.525 261.84 207.749 261.84C206.045 261.84 205.109 262.584 205.109 263.76C205.109 264.432 205.397 264.912 205.901 265.176C206.405 265.392 206.621 265.464 207.125 265.56L209.597 266.016C211.781 266.4 212.885 267.528 212.885 269.4C212.885 271.8 210.941 273.24 207.893 273.24C204.725 273.24 202.781 271.632 202.781 269.208ZM224.355 260.472H226.443V273H224.667L224.379 270.672H224.187C223.515 272.232 221.883 273.24 219.939 273.24C217.347 273.24 215.787 271.512 215.787 268.464V260.472H217.851V268.176C217.851 270.384 218.787 271.488 220.635 271.488C222.915 271.488 224.355 269.688 224.355 267.024V260.472ZM229.547 269.208H231.611C231.611 270.672 232.811 271.608 234.659 271.608C236.411 271.608 237.467 270.84 237.467 269.52C237.467 268.584 236.915 268.008 235.811 267.792L233.123 267.288C230.891 266.88 229.787 265.776 229.787 263.976C229.787 261.648 231.635 260.232 234.515 260.232C237.491 260.232 239.291 261.744 239.315 264.048H237.251C237.203 262.584 236.291 261.84 234.515 261.84C232.811 261.84 231.875 262.584 231.875 263.76C231.875 264.432 232.163 264.912 232.667 265.176C233.171 265.392 233.387 265.464 233.891 265.56L236.363 266.016C238.547 266.4 239.651 267.528 239.651 269.4C239.651 271.8 237.707 273.24 234.659 273.24C231.491 273.24 229.547 271.632 229.547 269.208ZM248.442 273H246.93L253.89 255.504H255.426L248.442 273ZM266.311 273H264.127V255.504H266.839L276.127 270.264H276.247L276.079 264.96V255.504H278.239V273H275.527L266.263 258.24H266.167L266.311 263.328V273ZM287.624 260.232C291.056 260.232 293.192 262.392 293.192 265.872C293.192 266.352 293.168 266.784 293.12 267.168H283.88V267.888C283.88 270.096 285.392 271.56 287.696 271.56C289.448 271.56 290.792 270.648 291.2 269.232H293.264C293 270.456 292.376 271.416 291.344 272.16C290.312 272.88 289.088 273.24 287.648 273.24C284 273.24 281.744 270.72 281.744 266.688C281.744 262.656 284 260.232 287.624 260.232ZM283.88 265.296V265.632H291.128V265.152C291.128 263.208 289.712 261.912 287.624 261.912C285.416 261.912 283.88 263.28 283.88 265.296ZM298.984 262.2V271.272H301.624V273H298.744C297.52 273 296.92 272.424 296.92 271.248V262.2H294.64V260.472H296.92V256.32H298.984V260.472H301.6V262.2H298.984ZM316.306 267.192L318.034 260.472H320.218L316.714 273H314.002L312.394 266.568L311.578 263.016H311.434L310.666 266.568L309.13 273H306.37L302.842 260.472H305.098L306.85 267.12L307.666 270.936H307.834L310.282 260.472H312.802L315.37 270.888H315.49L316.306 267.192ZM321.47 266.736C321.47 264.72 322.022 263.136 323.126 261.984C324.23 260.808 325.694 260.232 327.494 260.232C329.294 260.232 330.758 260.808 331.838 261.96C332.942 263.112 333.494 264.696 333.494 266.736C333.494 270.696 331.262 273.24 327.494 273.24C325.622 273.24 324.158 272.664 323.078 271.488C321.998 270.312 321.47 268.728 321.47 266.736ZM323.606 265.824V267.768C323.606 270.144 325.286 271.512 327.494 271.512C329.726 271.512 331.382 270.096 331.382 267.768V265.824C331.382 263.52 329.774 261.984 327.494 261.984C326.366 261.984 325.43 262.344 324.686 263.064C323.966 263.76 323.606 264.696 323.606 265.824ZM338.554 260.472H342.898V262.2H338.746V273H336.658V262.32C336.658 261.096 337.282 260.472 338.554 260.472ZM356.083 273H353.707L349.579 266.808L347.395 269.016V273H345.307V255.408H347.395V266.424L353.179 260.472H355.843L351.019 265.368L356.083 273ZM364.364 273H362.852L369.812 255.504H371.348L364.364 273ZM377.745 255.504H390.801V257.472H385.377V273H383.217V257.472H377.745V255.504ZM393.164 260.472H397.508V262.2H393.356V273H391.268V262.32C391.268 261.096 391.892 260.472 393.164 260.472ZM398.227 269.4C398.227 266.928 399.931 265.536 402.787 265.536H406.555V264.576C406.555 262.776 405.619 261.888 403.723 261.888C401.875 261.888 400.867 262.776 400.795 264.216H398.755C398.875 261.72 400.795 260.232 403.843 260.232C405.499 260.232 406.795 260.784 407.443 261.456C407.755 261.792 408.019 262.176 408.211 262.632C408.595 263.52 408.619 264.048 408.619 264.624V271.464H410.467V273H408.331C407.179 273 406.771 272.52 406.699 271.584L406.675 270.936H406.531C405.979 272.352 404.299 273.24 402.259 273.24C399.739 273.24 398.227 271.728 398.227 269.4ZM400.363 268.872V269.64C400.363 270.888 401.299 271.56 402.739 271.56C405.067 271.56 406.555 270.024 406.555 267.72V267.048H402.979C401.323 267.048 400.363 267.792 400.363 268.872ZM415.176 273H413.088V260.472H414.912L415.176 262.8H415.344C416.112 261.192 417.672 260.232 419.568 260.232C422.28 260.232 423.912 262.2 423.912 265.296V273H421.824V265.512C421.824 263.232 420.84 262.08 418.872 262.08C416.664 262.08 415.176 263.832 415.176 266.448V273ZM426.844 269.208H428.908C428.908 270.672 430.108 271.608 431.956 271.608C433.708 271.608 434.764 270.84 434.764 269.52C434.764 268.584 434.212 268.008 433.108 267.792L430.42 267.288C428.188 266.88 427.084 265.776 427.084 263.976C427.084 261.648 428.932 260.232 431.812 260.232C434.788 260.232 436.588 261.744 436.612 264.048H434.548C434.5 262.584 433.588 261.84 431.812 261.84C430.108 261.84 429.172 262.584 429.172 263.76C429.172 264.432 429.46 264.912 429.964 265.176C430.468 265.392 430.684 265.464 431.188 265.56L433.66 266.016C435.844 266.4 436.948 267.528 436.948 269.4C436.948 271.8 435.004 273.24 431.956 273.24C428.788 273.24 426.844 271.632 426.844 269.208ZM439.313 269.4C439.313 266.928 441.017 265.536 443.873 265.536H447.641V264.576C447.641 262.776 446.705 261.888 444.809 261.888C442.961 261.888 441.953 262.776 441.881 264.216H439.841C439.961 261.72 441.881 260.232 444.929 260.232C446.585 260.232 447.881 260.784 448.529 261.456C448.841 261.792 449.105 262.176 449.297 262.632C449.681 263.52 449.705 264.048 449.705 264.624V271.464H451.553V273H449.417C448.265 273 447.857 272.52 447.785 271.584L447.761 270.936H447.617C447.065 272.352 445.385 273.24 443.345 273.24C440.825 273.24 439.313 271.728 439.313 269.4ZM441.449 268.872V269.64C441.449 270.888 442.385 271.56 443.825 271.56C446.153 271.56 447.641 270.024 447.641 267.72V267.048H444.065C442.409 267.048 441.449 267.792 441.449 268.872ZM462.598 268.728H464.662C464.254 271.512 462.142 273.24 459.094 273.24C457.246 273.24 455.782 272.664 454.726 271.488C453.67 270.312 453.142 268.752 453.142 266.76C453.142 264.72 453.694 263.112 454.798 261.96C455.902 260.808 457.366 260.232 459.166 260.232C462.07 260.232 464.182 261.936 464.59 264.552H462.526C462.118 262.848 460.798 261.984 459.07 261.984C456.838 261.984 455.278 263.592 455.278 265.896V267.792C455.278 270.024 456.79 271.512 459.07 271.512C460.918 271.512 462.286 270.432 462.598 268.728ZM475.857 258.36V255.624H477.921V258.36H475.857ZM470.289 260.472H477.921V273H475.857V262.2H470.289V271.272H472.881V273H470.145C468.801 273 468.273 272.376 468.249 271.152V262.2H465.945V260.472H468.249V256.32H470.289V260.472ZM481.056 266.736C481.056 264.72 481.608 263.136 482.712 261.984C483.816 260.808 485.28 260.232 487.08 260.232C488.88 260.232 490.344 260.808 491.424 261.96C492.528 263.112 493.08 264.696 493.08 266.736C493.08 270.696 490.848 273.24 487.08 273.24C485.208 273.24 483.744 272.664 482.664 271.488C481.584 270.312 481.056 268.728 481.056 266.736ZM483.192 265.824V267.768C483.192 270.144 484.872 271.512 487.08 271.512C489.312 271.512 490.968 270.096 490.968 267.768V265.824C490.968 263.52 489.36 261.984 487.08 261.984C485.952 261.984 485.016 262.344 484.272 263.064C483.552 263.76 483.192 264.696 483.192 265.824ZM498.332 273H496.244V260.472H498.068L498.332 262.8H498.5C499.268 261.192 500.828 260.232 502.724 260.232C505.436 260.232 507.068 262.2 507.068 265.296V273H504.98V265.512C504.98 263.232 503.996 262.08 502.028 262.08C499.82 262.08 498.332 263.832 498.332 266.448V273ZM510 269.208H512.064C512.064 270.672 513.264 271.608 515.112 271.608C516.864 271.608 517.92 270.84 517.92 269.52C517.92 268.584 517.368 268.008 516.264 267.792L513.576 267.288C511.344 266.88 510.24 265.776 510.24 263.976C510.24 261.648 512.088 260.232 514.968 260.232C517.944 260.232 519.744 261.744 519.768 264.048H517.704C517.656 262.584 516.744 261.84 514.968 261.84C513.264 261.84 512.328 262.584 512.328 263.76C512.328 264.432 512.616 264.912 513.12 265.176C513.624 265.392 513.84 265.464 514.344 265.56L516.816 266.016C519 266.4 520.104 267.528 520.104 269.4C520.104 271.8 518.16 273.24 515.112 273.24C511.944 273.24 510 271.632 510 269.208Z" fill="#626262"/>
<path d="M128.04 222.4C119.72 222.4 114.8 216.88 114.8 207.44C114.8 198 119.72 192.44 128.36 192.44C131.92 192.44 134.84 193.36 137.08 195.2C139.36 197.04 140.68 199.52 141.04 202.6H137.28C136.48 198.44 133.28 195.76 128.28 195.76C125.36 195.76 123 196.6 121.24 198.32C119.52 200 118.64 202.28 118.64 205.2V209.92C118.64 212.6 119.52 214.84 121.28 216.56C123.04 218.28 125.32 219.12 128.16 219.12C132.84 219.12 136.32 216.44 137.28 212.24H141.04C140.52 215.36 139.12 217.84 136.8 219.68C134.48 221.48 131.56 222.4 128.04 222.4ZM144.799 211.56C144.799 208.2 145.719 205.56 147.559 203.64C149.399 201.68 151.839 200.72 154.839 200.72C157.839 200.72 160.279 201.68 162.079 203.6C163.919 205.52 164.839 208.16 164.839 211.56C164.839 218.16 161.119 222.4 154.839 222.4C151.719 222.4 149.279 221.44 147.479 219.48C145.679 217.52 144.799 214.88 144.799 211.56ZM148.359 210.04V213.28C148.359 217.24 151.159 219.52 154.839 219.52C158.559 219.52 161.319 217.16 161.319 213.28V210.04C161.319 206.2 158.639 203.64 154.839 203.64C152.959 203.64 151.399 204.24 150.159 205.44C148.959 206.6 148.359 208.16 148.359 210.04ZM173.593 222H170.113V201.12H173.153L173.593 205H173.873C175.153 202.32 177.753 200.72 180.913 200.72C185.433 200.72 188.153 204 188.153 209.16V222H184.673V209.52C184.673 205.72 183.033 203.8 179.753 203.8C176.073 203.8 173.593 206.72 173.593 211.08V222ZM193.039 215.68H196.479C196.479 218.12 198.479 219.68 201.559 219.68C204.479 219.68 206.239 218.4 206.239 216.2C206.239 214.64 205.319 213.68 203.479 213.32L198.999 212.48C195.279 211.8 193.439 209.96 193.439 206.96C193.439 203.08 196.519 200.72 201.319 200.72C206.279 200.72 209.279 203.24 209.319 207.08H205.879C205.799 204.64 204.279 203.4 201.319 203.4C198.479 203.4 196.919 204.64 196.919 206.6C196.919 207.72 197.399 208.52 198.239 208.96C199.079 209.32 199.439 209.44 200.279 209.6L204.399 210.36C208.039 211 209.879 212.88 209.879 216C209.879 220 206.639 222.4 201.559 222.4C196.279 222.4 193.039 219.72 193.039 215.68ZM223.388 200.72C229.108 200.72 232.668 204.32 232.668 210.12C232.668 210.92 232.628 211.64 232.548 212.28H217.148V213.48C217.148 217.16 219.668 219.6 223.508 219.6C226.428 219.6 228.668 218.08 229.348 215.72H232.788C232.348 217.76 231.308 219.36 229.588 220.6C227.868 221.8 225.828 222.4 223.428 222.4C217.348 222.4 213.588 218.2 213.588 211.48C213.588 204.76 217.348 200.72 223.388 200.72ZM217.148 209.16V209.72H229.228V208.92C229.228 205.68 226.868 203.52 223.388 203.52C219.708 203.52 217.148 205.8 217.148 209.16ZM241.523 222H238.043V201.12H241.083L241.523 205H241.803C243.083 202.32 245.683 200.72 248.843 200.72C253.363 200.72 256.083 204 256.083 209.16V222H252.603V209.52C252.603 205.72 250.963 203.8 247.683 203.8C244.003 203.8 241.523 206.72 241.523 211.08V222ZM260.969 215.68H264.409C264.409 218.12 266.409 219.68 269.489 219.68C272.409 219.68 274.169 218.4 274.169 216.2C274.169 214.64 273.249 213.68 271.409 213.32L266.929 212.48C263.209 211.8 261.369 209.96 261.369 206.96C261.369 203.08 264.449 200.72 269.249 200.72C274.209 200.72 277.209 203.24 277.249 207.08H273.809C273.729 204.64 272.209 203.4 269.249 203.4C266.409 203.4 264.849 204.64 264.849 206.6C264.849 207.72 265.329 208.52 266.169 208.96C267.009 209.32 267.369 209.44 268.209 209.6L272.329 210.36C275.969 211 277.809 212.88 277.809 216C277.809 220 274.569 222.4 269.489 222.4C264.209 222.4 260.969 219.72 260.969 215.68ZM296.925 201.12H300.405V222H297.445L296.965 218.12H296.645C295.525 220.72 292.805 222.4 289.565 222.4C285.245 222.4 282.645 219.52 282.645 214.44V201.12H286.085V213.96C286.085 217.64 287.645 219.48 290.725 219.48C294.525 219.48 296.925 216.48 296.925 212.04V201.12ZM305.578 215.68H309.018C309.018 218.12 311.018 219.68 314.098 219.68C317.018 219.68 318.778 218.4 318.778 216.2C318.778 214.64 317.858 213.68 316.018 213.32L311.538 212.48C307.818 211.8 305.978 209.96 305.978 206.96C305.978 203.08 309.058 200.72 313.858 200.72C318.818 200.72 321.818 203.24 321.858 207.08H318.418C318.338 204.64 316.818 203.4 313.858 203.4C311.018 203.4 309.458 204.64 309.458 206.6C309.458 207.72 309.938 208.52 310.778 208.96C311.618 209.32 311.978 209.44 312.818 209.6L316.938 210.36C320.578 211 322.418 212.88 322.418 216C322.418 220 319.178 222.4 314.098 222.4C308.818 222.4 305.578 219.72 305.578 215.68Z" fill="#ABABAB"/>
<defs>
<filter id="filter0_d_958_32" x="0" y="598" width="169.355" height="101" filterUnits="userSpaceOnUse" color-interpolation-filters="sRGB">
<feFlood flood-opacity="0" result="BackgroundImageFix"/>
<feColorMatrix in="SourceAlpha" type="matrix" values="0 0 0 0 0 0 0 0 0 0 0 0 0 0 0 0 0 0 127 0" result="hardAlpha"/>
<feOffset dx="-3" dy="-4"/>
<feGaussianBlur stdDeviation="3"/>
<feComposite in2="hardAlpha" operator="out"/>
<feColorMatrix type="matrix" values="0 0 0 0 0 0 0 0 0 0 0 0 0 0 0 0 0 0 0.24 0"/>
<feBlend mode="normal" in2="BackgroundImageFix" result="effect1_dropShadow_958_32"/>
<feBlend mode="normal" in="SourceGraphic" in2="effect1_dropShadow_958_32" result="shape"/>
</filter>
<linearGradient id="paint0_linear_958_32" x1="330.71" y1="-18.7954" x2="332.5" y2="633" gradientUnits="userSpaceOnUse">
<stop stop-color="#2D2D2D"/>
<stop offset="1" stop-color="#0F0F0F" stop-opacity="0"/>
</linearGradient>
</defs>
</svg>
