<svg width="1365" height="886" viewBox="0 0 1365 886" fill="none" xmlns="http://www.w3.org/2000/svg">
<g clip-path="url(#clip0_775_10577)">
<path d="M1103.09 234.717H1047.89C1038.26 234.717 1030.46 242.522 1030.46 252.15V304.448C1030.46 314.077 1038.26 321.881 1047.89 321.881H1103.09C1112.72 321.881 1120.53 314.077 1120.53 304.448V252.15C1120.53 242.522 1112.72 234.717 1103.09 234.717Z" fill="white" fill-opacity="0.02" stroke="#292929"/>
<path d="M1042.42 260.146C1042.42 252.523 1048.6 246.345 1056.22 246.345H1094.72C1102.34 246.345 1108.52 252.523 1108.52 260.146V296.464C1108.52 304.085 1102.34 310.265 1094.72 310.265H1056.22C1048.6 310.265 1042.42 304.085 1042.42 296.464V260.146Z" fill="#1A1A1A" stroke="black" stroke-opacity="0.35"/>
<path d="M1076.13 279.663C1076.9 279.663 1077.53 279.053 1077.53 278.301C1077.53 277.548 1076.9 276.938 1076.13 276.938C1075.35 276.938 1074.72 277.548 1074.72 278.301C1074.72 279.053 1075.35 279.663 1076.13 279.663Z" stroke="#B4B4B4" stroke-linecap="round" stroke-linejoin="round"/>
<path d="M1085.96 279.663C1086.74 279.663 1087.37 279.053 1087.37 278.301C1087.37 277.548 1086.74 276.938 1085.96 276.938C1085.19 276.938 1084.55 277.548 1084.55 278.301C1084.55 279.053 1085.19 279.663 1085.96 279.663Z" stroke="#B4B4B4" stroke-linecap="round" stroke-linejoin="round"/>
<path d="M1066.27 279.663C1067.04 279.663 1067.67 279.053 1067.67 278.301C1067.67 277.548 1067.04 276.938 1066.27 276.938C1065.49 276.938 1064.86 277.548 1064.86 278.301C1064.86 279.053 1065.49 279.663 1066.27 279.663Z" stroke="#B4B4B4" stroke-linecap="round" stroke-linejoin="round"/>
<path d="M989.762 234.717H937.464C927.835 234.717 920.031 242.522 920.031 252.15V304.448C920.031 314.077 927.835 321.881 937.464 321.881H989.762C999.391 321.881 1007.2 314.077 1007.2 304.448V252.15C1007.2 242.522 999.391 234.717 989.762 234.717Z" fill="white" fill-opacity="0.02" stroke="#292929"/>
<path d="M931.648 260.146C931.648 252.523 937.828 246.345 945.449 246.345H981.767C989.388 246.345 995.568 252.523 995.568 260.146V296.464C995.568 304.085 989.388 310.265 981.767 310.265H945.449C937.828 310.265 931.648 304.085 931.648 296.464V260.146Z" fill="#1A1A1A" stroke="black" stroke-opacity="0.35"/>
<path d="M964.227 279.663C964.98 279.663 965.59 279.053 965.59 278.301C965.59 277.548 964.98 276.938 964.227 276.938C963.477 276.938 962.867 277.548 962.867 278.301C962.867 279.053 963.477 279.663 964.227 279.663Z" stroke="#B4B4B4" stroke-linecap="round" stroke-linejoin="round"/>
<path d="M973.761 279.663C974.514 279.663 975.121 279.053 975.121 278.301C975.121 277.548 974.514 276.938 973.761 276.938C973.009 276.938 972.398 277.548 972.398 278.301C972.398 279.053 973.009 279.663 973.761 279.663Z" stroke="#B4B4B4" stroke-linecap="round" stroke-linejoin="round"/>
<path d="M954.706 279.663C955.459 279.663 956.069 279.053 956.069 278.301C956.069 277.548 955.459 276.938 954.706 276.938C953.954 276.938 953.344 277.548 953.344 278.301C953.344 279.053 953.954 279.663 954.706 279.663Z" stroke="#B4B4B4" stroke-linecap="round" stroke-linejoin="round"/>
<path d="M879.364 234.717H827.066C817.437 234.717 809.633 242.522 809.633 252.15V304.448C809.633 314.077 817.437 321.881 827.066 321.881H879.364C888.992 321.881 896.796 314.077 896.796 304.448V252.15C896.796 242.522 888.992 234.717 879.364 234.717Z" fill="white" fill-opacity="0.02" stroke="#292929"/>
<path d="M821.242 260.146C821.242 252.523 827.422 246.345 835.043 246.345H871.361C878.982 246.345 885.162 252.523 885.162 260.146V296.464C885.162 304.085 878.982 310.265 871.361 310.265H835.043C827.422 310.265 821.242 304.085 821.242 296.464V260.146Z" fill="#1A1A1A" stroke="black" stroke-opacity="0.35"/>
<path d="M853.821 279.663C854.573 279.663 855.183 279.053 855.183 278.301C855.183 277.548 854.573 276.938 853.821 276.938C853.071 276.938 852.461 277.548 852.461 278.301C852.461 279.053 853.071 279.663 853.821 279.663Z" stroke="#B4B4B4" stroke-linecap="round" stroke-linejoin="round"/>
<path d="M863.359 279.663C864.111 279.663 864.719 279.053 864.719 278.301C864.719 277.548 864.111 276.938 863.359 276.938C862.606 276.938 861.996 277.548 861.996 278.301C861.996 279.053 862.606 279.663 863.359 279.663Z" stroke="#B4B4B4" stroke-linecap="round" stroke-linejoin="round"/>
<path d="M844.292 279.663C845.045 279.663 845.655 279.053 845.655 278.301C845.655 277.548 845.045 276.938 844.292 276.938C843.54 276.938 842.93 277.548 842.93 278.301C842.93 279.053 843.54 279.663 844.292 279.663Z" stroke="#B4B4B4" stroke-linecap="round" stroke-linejoin="round"/>
<path d="M771.875 234.717H716.671C707.042 234.717 699.238 242.522 699.238 252.15V304.448C699.238 314.077 707.042 321.881 716.671 321.881H771.875C781.503 321.881 789.307 314.077 789.307 304.448V252.15C789.307 242.522 781.503 234.717 771.875 234.717Z" fill="white" fill-opacity="0.02" stroke="#292929"/>
<path d="M711.195 260.146C711.195 252.523 717.375 246.345 724.996 246.345H763.493C771.114 246.345 777.294 252.523 777.294 260.146V296.464C777.294 304.085 771.114 310.265 763.493 310.265H724.996C717.375 310.265 711.195 304.085 711.195 296.464V260.146Z" fill="#1A1A1A" stroke="black" stroke-opacity="0.35"/>
<path d="M744.843 279.663C745.618 279.663 746.249 279.053 746.249 278.301C746.249 277.548 745.618 276.938 744.843 276.938C744.064 276.938 743.434 277.548 743.434 278.301C743.434 279.053 744.064 279.663 744.843 279.663Z" stroke="#B4B4B4" stroke-linecap="round" stroke-linejoin="round"/>
<path d="M754.754 279.663C755.533 279.663 756.163 279.053 756.163 278.301C756.163 277.548 755.533 276.938 754.754 276.938C753.978 276.938 753.348 277.548 753.348 278.301C753.348 279.053 753.978 279.663 754.754 279.663Z" stroke="#B4B4B4" stroke-linecap="round" stroke-linejoin="round"/>
<path d="M735.055 279.663C735.83 279.663 736.461 279.053 736.461 278.301C736.461 277.548 735.83 276.938 735.055 276.938C734.276 276.938 733.648 277.548 733.648 278.301C733.648 279.053 734.276 279.663 735.055 279.663Z" stroke="#B4B4B4" stroke-linecap="round" stroke-linejoin="round"/>
<path d="M771.875 124.311H716.671C707.042 124.311 699.238 132.115 699.238 141.743V194.041C699.238 203.669 707.042 211.474 716.671 211.474H771.875C781.503 211.474 789.307 203.669 789.307 194.041V141.743C789.307 132.115 781.503 124.311 771.875 124.311Z" fill="white" fill-opacity="0.02" stroke="#292929"/>
<path d="M711.195 149.734C711.195 142.111 717.375 135.933 724.996 135.933H763.493C771.114 135.933 777.294 142.111 777.294 149.734V186.052C777.294 193.674 771.114 199.853 763.493 199.853H724.996C717.375 199.853 711.195 193.674 711.195 186.052V149.734Z" fill="#1A1A1A" stroke="black" stroke-opacity="0.35"/>
<path d="M744.843 169.258C745.618 169.258 746.249 168.648 746.249 167.896C746.249 167.144 745.618 166.534 744.843 166.534C744.064 166.534 743.434 167.144 743.434 167.896C743.434 168.648 744.064 169.258 744.843 169.258Z" stroke="#B4B4B4" stroke-linecap="round" stroke-linejoin="round"/>
<path d="M754.754 169.258C755.533 169.258 756.163 168.648 756.163 167.896C756.163 167.144 755.533 166.534 754.754 166.534C753.978 166.534 753.348 167.144 753.348 167.896C753.348 168.648 753.978 169.258 754.754 169.258Z" stroke="#B4B4B4" stroke-linecap="round" stroke-linejoin="round"/>
<path d="M735.055 169.258C735.83 169.258 736.461 168.648 736.461 167.896C736.461 167.144 735.83 166.534 735.055 166.534C734.276 166.534 733.648 167.144 733.648 167.896C733.648 168.648 734.276 169.258 735.055 169.258Z" stroke="#B4B4B4" stroke-linecap="round" stroke-linejoin="round"/>
<path d="M661.457 234.717H609.159C599.531 234.717 591.727 242.522 591.727 252.15V304.448C591.727 314.077 599.531 321.881 609.159 321.881H661.457C671.086 321.881 678.89 314.077 678.89 304.448V252.15C678.89 242.522 671.086 234.717 661.457 234.717Z" fill="white" fill-opacity="0.02" stroke="#292929"/>
<path d="M603.344 260.146C603.344 252.523 609.524 246.345 617.145 246.345H653.463C661.084 246.345 667.264 252.523 667.264 260.146V296.464C667.264 304.085 661.084 310.265 653.463 310.265H617.145C609.524 310.265 603.344 304.085 603.344 296.464V260.146Z" fill="#1A1A1A" stroke="black" stroke-opacity="0.35"/>
<path d="M635.918 279.663C636.671 279.663 637.281 279.053 637.281 278.301C637.281 277.548 636.671 276.938 635.918 276.938C635.169 276.938 634.559 277.548 634.559 278.301C634.559 279.053 635.169 279.663 635.918 279.663Z" stroke="#B4B4B4" stroke-linecap="round" stroke-linejoin="round"/>
<path d="M645.433 279.663C646.186 279.663 646.793 279.053 646.793 278.301C646.793 277.548 646.186 276.938 645.433 276.938C644.681 276.938 644.07 277.548 644.07 278.301C644.07 279.053 644.681 279.663 645.433 279.663Z" stroke="#B4B4B4" stroke-linecap="round" stroke-linejoin="round"/>
<path d="M626.363 279.663C627.115 279.663 627.725 279.053 627.725 278.301C627.725 277.548 627.115 276.938 626.363 276.938C625.61 276.938 625 277.548 625 278.301C625 279.053 625.61 279.663 626.363 279.663Z" stroke="#B4B4B4" stroke-linecap="round" stroke-linejoin="round"/>
<path d="M661.457 345.129H609.159C599.531 345.129 591.727 352.933 591.727 362.562V417.765C591.727 427.394 599.531 435.198 609.159 435.198H661.457C671.086 435.198 678.89 427.394 678.89 417.765V362.562C678.89 352.933 671.086 345.129 661.457 345.129Z" fill="white" fill-opacity="0.02" stroke="#292929"/>
<path d="M603.344 370.917C603.344 363.296 609.524 357.116 617.145 357.116H653.463C661.084 357.116 667.264 363.296 667.264 370.917V409.414C667.264 417.035 661.084 423.215 653.463 423.215H617.145C609.524 423.215 603.344 417.035 603.344 409.414V370.917Z" fill="#1A1A1A" stroke="black" stroke-opacity="0.35"/>
<path d="M635.918 391.569C636.671 391.569 637.281 390.942 637.281 390.163C637.281 389.384 636.671 388.757 635.918 388.757C635.169 388.757 634.559 389.384 634.559 390.163C634.559 390.942 635.169 391.569 635.918 391.569Z" stroke="#B4B4B4" stroke-linecap="round" stroke-linejoin="round"/>
<path d="M645.433 391.569C646.186 391.569 646.793 390.942 646.793 390.163C646.793 389.384 646.186 388.757 645.433 388.757C644.681 388.757 644.07 389.384 644.07 390.163C644.07 390.942 644.681 391.569 645.433 391.569Z" stroke="#B4B4B4" stroke-linecap="round" stroke-linejoin="round"/>
<path d="M626.363 391.569C627.115 391.569 627.725 390.942 627.725 390.163C627.725 389.384 627.115 388.757 626.363 388.757C625.61 388.757 625 389.384 625 390.163C625 390.942 625.61 391.569 626.363 391.569Z" stroke="#B4B4B4" stroke-linecap="round" stroke-linejoin="round"/>
<path d="M551.042 234.717H495.839C486.21 234.717 478.406 242.522 478.406 252.15V304.448C478.406 314.077 486.21 321.881 495.839 321.881H551.042C560.671 321.881 568.475 314.077 568.475 304.448V252.15C568.475 242.522 560.671 234.717 551.042 234.717Z" fill="white" fill-opacity="0.02" stroke="#292929"/>
<path d="M490.379 260.146C490.379 252.523 496.559 246.345 504.18 246.345H542.677C550.298 246.345 556.478 252.523 556.478 260.146V296.464C556.478 304.085 550.298 310.265 542.677 310.265H504.18C496.559 310.265 490.379 304.085 490.379 296.464V260.146Z" fill="#1A1A1A" stroke="black" stroke-opacity="0.35"/>
<path d="M524.073 279.663C524.849 279.663 525.479 279.053 525.479 278.301C525.479 277.548 524.849 276.938 524.073 276.938C523.295 276.938 522.664 277.548 522.664 278.301C522.664 279.053 523.295 279.663 524.073 279.663Z" stroke="#B4B4B4" stroke-linecap="round" stroke-linejoin="round"/>
<path d="M533.93 279.663C534.708 279.663 535.339 279.053 535.339 278.301C535.339 277.548 534.708 276.938 533.93 276.938C533.154 276.938 532.523 277.548 532.523 278.301C532.523 279.053 533.154 279.663 533.93 279.663Z" stroke="#B4B4B4" stroke-linecap="round" stroke-linejoin="round"/>
<path d="M514.261 279.663C515.037 279.663 515.667 279.053 515.667 278.301C515.667 277.548 515.037 276.938 514.261 276.938C513.482 276.938 512.855 277.548 512.855 278.301C512.855 279.053 513.482 279.663 514.261 279.663Z" stroke="#B4B4B4" stroke-linecap="round" stroke-linejoin="round"/>
<path d="M551.042 124.311H495.839C486.21 124.311 478.406 132.115 478.406 141.743V194.041C478.406 203.669 486.21 211.474 495.839 211.474H551.042C560.671 211.474 568.475 203.669 568.475 194.041V141.743C568.475 132.115 560.671 124.311 551.042 124.311Z" fill="white" fill-opacity="0.02" stroke="#292929"/>
<path d="M490.379 149.734C490.379 142.111 496.559 135.933 504.18 135.933H542.677C550.298 135.933 556.478 142.111 556.478 149.734V186.052C556.478 193.674 550.298 199.853 542.677 199.853H504.18C496.559 199.853 490.379 193.674 490.379 186.052V149.734Z" fill="#1A1A1A" stroke="black" stroke-opacity="0.35"/>
<path d="M524.073 169.258C524.849 169.258 525.479 168.648 525.479 167.896C525.479 167.144 524.849 166.534 524.073 166.534C523.295 166.534 522.664 167.144 522.664 167.896C522.664 168.648 523.295 169.258 524.073 169.258Z" stroke="#B4B4B4" stroke-linecap="round" stroke-linejoin="round"/>
<path d="M533.93 169.258C534.708 169.258 535.339 168.648 535.339 167.896C535.339 167.144 534.708 166.534 533.93 166.534C533.154 166.534 532.523 167.144 532.523 167.896C532.523 168.648 533.154 169.258 533.93 169.258Z" stroke="#B4B4B4" stroke-linecap="round" stroke-linejoin="round"/>
<path d="M514.261 169.258C515.037 169.258 515.667 168.648 515.667 167.896C515.667 167.144 515.037 166.534 514.261 166.534C513.482 166.534 512.855 167.144 512.855 167.896C512.855 168.648 513.482 169.258 514.261 169.258Z" stroke="#B4B4B4" stroke-linecap="round" stroke-linejoin="round"/>
<path d="M437.731 124.311H385.433C375.804 124.311 368 132.115 368 141.743V194.041C368 203.669 375.804 211.474 385.433 211.474H437.731C447.359 211.474 455.163 203.669 455.163 194.041V141.743C455.163 132.115 447.359 124.311 437.731 124.311Z" fill="white" fill-opacity="0.02" stroke="#292929"/>
<path d="M379.621 149.734C379.621 142.111 385.801 135.933 393.422 135.933H429.74C437.361 135.933 443.541 142.111 443.541 149.734V186.052C443.541 193.674 437.361 199.853 429.74 199.853H393.422C385.801 199.853 379.621 193.674 379.621 186.052V149.734Z" fill="#1A1A1A" stroke="black" stroke-opacity="0.35"/>
<path d="M412.192 169.258C412.944 169.258 413.554 168.648 413.554 167.896C413.554 167.144 412.944 166.534 412.192 166.534C411.442 166.534 410.832 167.144 410.832 167.896C410.832 168.648 411.442 169.258 412.192 169.258Z" stroke="#B4B4B4" stroke-linecap="round" stroke-linejoin="round"/>
<path d="M421.746 169.258C422.498 169.258 423.105 168.648 423.105 167.896C423.105 167.144 422.498 166.534 421.746 166.534C420.993 166.534 420.383 167.144 420.383 167.896C420.383 168.648 420.993 169.258 421.746 169.258Z" stroke="#B4B4B4" stroke-linecap="round" stroke-linejoin="round"/>
<path d="M402.644 169.258C403.396 169.258 404.007 168.648 404.007 167.896C404.007 167.144 403.396 166.534 402.644 166.534C401.891 166.534 401.281 167.144 401.281 167.896C401.281 168.648 401.891 169.258 402.644 169.258Z" stroke="#B4B4B4" stroke-linecap="round" stroke-linejoin="round"/>
<path d="M1213.47 234.717H1158.27C1148.64 234.717 1140.84 242.522 1140.84 252.15V304.448C1140.84 314.077 1148.64 321.881 1158.27 321.881H1213.47C1223.1 321.881 1230.9 314.077 1230.9 304.448V252.15C1230.9 242.522 1223.1 234.717 1213.47 234.717Z" fill="white" fill-opacity="0.02" stroke="#292929"/>
<path d="M1152.83 260.146C1152.83 252.523 1159.01 246.345 1166.63 246.345H1205.13C1212.75 246.345 1218.93 252.523 1218.93 260.146V296.464C1218.93 304.085 1212.75 310.265 1205.13 310.265H1166.63C1159.01 310.265 1152.83 304.085 1152.83 296.464V260.146Z" fill="#1A1A1A" stroke="black" stroke-opacity="0.35"/>
<path d="M1186.51 279.663C1187.28 279.663 1187.91 279.053 1187.91 278.301C1187.91 277.548 1187.28 276.938 1186.51 276.938C1185.73 276.938 1185.1 277.548 1185.1 278.301C1185.1 279.053 1185.73 279.663 1186.51 279.663Z" stroke="#B4B4B4" stroke-linecap="round" stroke-linejoin="round"/>
<path d="M1196.36 279.663C1197.14 279.663 1197.77 279.053 1197.77 278.301C1197.77 277.548 1197.14 276.938 1196.36 276.938C1195.58 276.938 1194.95 277.548 1194.95 278.301C1194.95 279.053 1195.58 279.663 1196.36 279.663Z" stroke="#B4B4B4" stroke-linecap="round" stroke-linejoin="round"/>
<path d="M1176.67 279.663C1177.44 279.663 1178.07 279.053 1178.07 278.301C1178.07 277.548 1177.44 276.938 1176.67 276.938C1175.89 276.938 1175.26 277.548 1175.26 278.301C1175.26 279.053 1175.89 279.663 1176.67 279.663Z" stroke="#B4B4B4" stroke-linecap="round" stroke-linejoin="round"/>
<path d="M1213.47 11H1158.27C1148.64 11 1140.84 18.8049 1140.84 28.4327V83.6362C1140.84 93.264 1148.64 101.069 1158.27 101.069H1213.47C1223.1 101.069 1230.9 93.264 1230.9 83.6362V28.4327C1230.9 18.8049 1223.1 11 1213.47 11Z" fill="white" fill-opacity="0.02" stroke="#292929"/>
<path d="M1152.83 36.7745C1152.83 29.1525 1159.01 22.9736 1166.63 22.9736H1205.13C1212.75 22.9736 1218.93 29.1525 1218.93 36.7745V75.2717C1218.93 82.8939 1212.75 89.0726 1205.13 89.0726H1166.63C1159.01 89.0726 1152.83 82.8939 1152.83 75.2717V36.7745Z" fill="#1A1A1A" stroke="black" stroke-opacity="0.35"/>
<path d="M1186.51 57.4471C1187.28 57.4471 1187.91 56.8169 1187.91 56.0397C1187.91 55.2625 1187.28 54.6323 1186.51 54.6323C1185.73 54.6323 1185.1 55.2625 1185.1 56.0397C1185.1 56.8169 1185.73 57.4471 1186.51 57.4471Z" stroke="#B4B4B4" stroke-linecap="round" stroke-linejoin="round"/>
<path d="M1196.36 57.4471C1197.14 57.4471 1197.77 56.8169 1197.77 56.0397C1197.77 55.2625 1197.14 54.6323 1196.36 54.6323C1195.58 54.6323 1194.95 55.2625 1194.95 56.0397C1194.95 56.8169 1195.58 57.4471 1196.36 57.4471Z" stroke="#B4B4B4" stroke-linecap="round" stroke-linejoin="round"/>
<path d="M1176.67 57.4471C1177.44 57.4471 1178.07 56.8169 1178.07 56.0397C1178.07 55.2625 1177.44 54.6323 1176.67 54.6323C1175.89 54.6323 1175.26 55.2625 1175.26 56.0397C1175.26 56.8169 1175.89 57.4471 1176.67 57.4471Z" stroke="#B4B4B4" stroke-linecap="round" stroke-linejoin="round"/>
<path d="M1213.47 345.129H1158.27C1148.64 345.129 1140.84 352.933 1140.84 362.562V417.765C1140.84 427.394 1148.64 435.198 1158.27 435.198H1213.47C1223.1 435.198 1230.9 427.394 1230.9 417.765V362.562C1230.9 352.933 1223.1 345.129 1213.47 345.129Z" fill="white" fill-opacity="0.02" stroke="#292929"/>
<path d="M1152.83 370.917C1152.83 363.296 1159.01 357.116 1166.63 357.116H1205.13C1212.75 357.116 1218.93 363.296 1218.93 370.917V409.414C1218.93 417.035 1212.75 423.215 1205.13 423.215H1166.63C1159.01 423.215 1152.83 417.035 1152.83 409.414V370.917Z" fill="#1A1A1A" stroke="black" stroke-opacity="0.35"/>
<path d="M1186.51 391.569C1187.28 391.569 1187.91 390.942 1187.91 390.163C1187.91 389.384 1187.28 388.757 1186.51 388.757C1185.73 388.757 1185.1 389.384 1185.1 390.163C1185.1 390.942 1185.73 391.569 1186.51 391.569Z" stroke="#B4B4B4" stroke-linecap="round" stroke-linejoin="round"/>
<path d="M1196.36 391.569C1197.14 391.569 1197.77 390.942 1197.77 390.163C1197.77 389.384 1197.14 388.757 1196.36 388.757C1195.58 388.757 1194.95 389.384 1194.95 390.163C1194.95 390.942 1195.58 391.569 1196.36 391.569Z" stroke="#B4B4B4" stroke-linecap="round" stroke-linejoin="round"/>
<path d="M1176.67 391.569C1177.44 391.569 1178.07 390.942 1178.07 390.163C1178.07 389.384 1177.44 388.757 1176.67 388.757C1175.89 388.757 1175.26 389.384 1175.26 390.163C1175.26 390.942 1175.89 391.569 1176.67 391.569Z" stroke="#B4B4B4" stroke-linecap="round" stroke-linejoin="round"/>
<path d="M1213.47 124.311H1158.27C1148.64 124.311 1140.84 132.115 1140.84 141.743V194.041C1140.84 203.669 1148.64 211.474 1158.27 211.474H1213.47C1223.1 211.474 1230.9 203.669 1230.9 194.041V141.743C1230.9 132.115 1223.1 124.311 1213.47 124.311Z" fill="white" fill-opacity="0.02" stroke="#292929"/>
<path d="M1152.83 149.734C1152.83 142.111 1159.01 135.933 1166.63 135.933H1205.13C1212.75 135.933 1218.93 142.111 1218.93 149.734V186.052C1218.93 193.674 1212.75 199.853 1205.13 199.853H1166.63C1159.01 199.853 1152.83 193.674 1152.83 186.052V149.734Z" fill="#1A1A1A" stroke="black" stroke-opacity="0.35"/>
<path d="M1186.51 169.258C1187.28 169.258 1187.91 168.648 1187.91 167.896C1187.91 167.144 1187.28 166.534 1186.51 166.534C1185.73 166.534 1185.1 167.144 1185.1 167.896C1185.1 168.648 1185.73 169.258 1186.51 169.258Z" stroke="#B4B4B4" stroke-linecap="round" stroke-linejoin="round"/>
<path d="M1196.36 169.258C1197.14 169.258 1197.77 168.648 1197.77 167.896C1197.77 167.144 1197.14 166.534 1196.36 166.534C1195.58 166.534 1194.95 167.144 1194.95 167.896C1194.95 168.648 1195.58 169.258 1196.36 169.258Z" stroke="#B4B4B4" stroke-linecap="round" stroke-linejoin="round"/>
<path d="M1176.67 169.258C1177.44 169.258 1178.07 168.648 1178.07 167.896C1178.07 167.144 1177.44 166.534 1176.67 166.534C1175.89 166.534 1175.26 167.144 1175.26 167.896C1175.26 168.648 1175.89 169.258 1176.67 169.258Z" stroke="#B4B4B4" stroke-linecap="round" stroke-linejoin="round"/>
<path d="M1213.47 455.537H1158.27C1148.64 455.537 1140.84 463.341 1140.84 472.97V528.173C1140.84 537.802 1148.64 545.606 1158.27 545.606H1213.47C1223.1 545.606 1230.9 537.802 1230.9 528.173V472.97C1230.9 463.341 1223.1 455.537 1213.47 455.537Z" fill="white" fill-opacity="0.02" stroke="#292929"/>
<path d="M1152.83 481.318C1152.83 473.697 1159.01 467.518 1166.63 467.518H1205.13C1212.75 467.518 1218.93 473.697 1218.93 481.318V519.816C1218.93 527.437 1212.75 533.617 1205.13 533.617H1166.63C1159.01 533.617 1152.83 527.437 1152.83 519.816V481.318Z" fill="#1A1A1A" stroke="black" stroke-opacity="0.35"/>
<path d="M1185.54 503.383C1186.32 503.383 1186.95 502.756 1186.95 501.977C1186.95 501.198 1186.32 500.571 1185.54 500.571C1184.76 500.571 1184.13 501.198 1184.13 501.977C1184.13 502.756 1184.76 503.383 1185.54 503.383Z" stroke="#B4B4B4" stroke-linecap="round" stroke-linejoin="round"/>
<path d="M1195.38 503.383C1196.15 503.383 1196.78 502.756 1196.78 501.977C1196.78 501.198 1196.15 500.571 1195.38 500.571C1194.6 500.571 1193.97 501.198 1193.97 501.977C1193.97 502.756 1194.6 503.383 1195.38 503.383Z" stroke="#B4B4B4" stroke-linecap="round" stroke-linejoin="round"/>
<path d="M1175.66 503.383C1176.43 503.383 1177.06 502.756 1177.06 501.977C1177.06 501.198 1176.43 500.571 1175.66 500.571C1174.88 500.571 1174.25 501.198 1174.25 501.977C1174.25 502.756 1174.88 503.383 1175.66 503.383Z" stroke="#B4B4B4" stroke-linecap="round" stroke-linejoin="round"/>
<path d="M1213.47 565.931H1158.27C1148.64 565.931 1140.84 573.735 1140.84 583.364V638.567C1140.84 648.196 1148.64 656 1158.27 656H1213.47C1223.1 656 1230.9 648.196 1230.9 638.567V583.364C1230.9 573.735 1223.1 565.931 1213.47 565.931Z" fill="white" fill-opacity="0.02" stroke="#292929"/>
<path d="M1152.83 591.723C1152.83 584.102 1159.01 577.922 1166.63 577.922H1205.13C1212.75 577.922 1218.93 584.102 1218.93 591.723V630.22C1218.93 637.841 1212.75 644.021 1205.13 644.021H1166.63C1159.01 644.021 1152.83 637.841 1152.83 630.22V591.723Z" fill="#1A1A1A" stroke="black" stroke-opacity="0.35"/>
<path d="M1186.51 612.38C1187.28 612.38 1187.91 611.753 1187.91 610.974C1187.91 610.195 1187.28 609.568 1186.51 609.568C1185.73 609.568 1185.1 610.195 1185.1 610.974C1185.1 611.753 1185.73 612.38 1186.51 612.38Z" stroke="#B4B4B4" stroke-linecap="round" stroke-linejoin="round"/>
<path d="M1196.36 612.38C1197.14 612.38 1197.77 611.753 1197.77 610.974C1197.77 610.195 1197.14 609.568 1196.36 609.568C1195.58 609.568 1194.95 610.195 1194.95 610.974C1194.95 611.753 1195.58 612.38 1196.36 612.38Z" stroke="#B4B4B4" stroke-linecap="round" stroke-linejoin="round"/>
<path d="M1176.67 612.38C1177.44 612.38 1178.07 611.753 1178.07 610.974C1178.07 610.195 1177.44 609.568 1176.67 609.568C1175.89 609.568 1175.26 610.195 1175.26 610.974C1175.26 611.753 1175.89 612.38 1176.67 612.38Z" stroke="#B4B4B4" stroke-linecap="round" stroke-linejoin="round"/>
<path d="M1323.88 124.311H1268.68C1259.05 124.311 1251.25 132.115 1251.25 141.743V194.041C1251.25 203.669 1259.05 211.474 1268.68 211.474H1323.88C1333.51 211.474 1341.32 203.669 1341.32 194.041V141.743C1341.32 132.115 1333.51 124.311 1323.88 124.311Z" fill="white" fill-opacity="0.02" stroke="#292929"/>
<path d="M1263.25 149.734C1263.25 142.111 1269.43 135.933 1277.05 135.933H1315.54C1323.17 135.933 1329.35 142.111 1329.35 149.734V186.052C1329.35 193.674 1323.17 199.853 1315.54 199.853H1277.05C1269.43 199.853 1263.25 193.674 1263.25 186.052V149.734Z" fill="#1A1A1A" stroke="black" stroke-opacity="0.35"/>
<path d="M1296.94 169.258C1297.72 169.258 1298.35 168.648 1298.35 167.896C1298.35 167.144 1297.72 166.534 1296.94 166.534C1296.16 166.534 1295.53 167.144 1295.53 167.896C1295.53 168.648 1296.16 169.258 1296.94 169.258Z" stroke="#B4B4B4" stroke-linecap="round" stroke-linejoin="round"/>
<path d="M1306.73 169.258C1307.51 169.258 1308.14 168.648 1308.14 167.896C1308.14 167.144 1307.51 166.534 1306.73 166.534C1305.96 166.534 1305.33 167.144 1305.33 167.896C1305.33 168.648 1305.96 169.258 1306.73 169.258Z" stroke="#B4B4B4" stroke-linecap="round" stroke-linejoin="round"/>
<path d="M1287.06 169.258C1287.84 169.258 1288.47 168.648 1288.47 167.896C1288.47 167.144 1287.84 166.534 1287.06 166.534C1286.28 166.534 1285.66 167.144 1285.66 167.896C1285.66 168.648 1286.28 169.258 1287.06 169.258Z" stroke="#B4B4B4" stroke-linecap="round" stroke-linejoin="round"/>
<path d="M1323.88 455.537H1268.68C1259.05 455.537 1251.25 463.341 1251.25 472.97V528.173C1251.25 537.802 1259.05 545.606 1268.68 545.606H1323.88C1333.51 545.606 1341.32 537.802 1341.32 528.173V472.97C1341.32 463.341 1333.51 455.537 1323.88 455.537Z" fill="white" fill-opacity="0.02" stroke="#292929"/>
<path d="M1263.25 481.318C1263.25 473.697 1269.43 467.518 1277.05 467.518H1315.54C1323.17 467.518 1329.35 473.697 1329.35 481.318V519.816C1329.35 527.437 1323.17 533.617 1315.54 533.617H1277.05C1269.43 533.617 1263.25 527.437 1263.25 519.816V481.318Z" fill="#1A1A1A" stroke="black" stroke-opacity="0.35"/>
<path d="M1296.94 501.971C1297.72 501.971 1298.35 501.344 1298.35 500.565C1298.35 499.786 1297.72 499.159 1296.94 499.159C1296.16 499.159 1295.53 499.786 1295.53 500.565C1295.53 501.344 1296.16 501.971 1296.94 501.971Z" stroke="#B4B4B4" stroke-linecap="round" stroke-linejoin="round"/>
<path d="M1306.73 501.971C1307.51 501.971 1308.14 501.344 1308.14 500.565C1308.14 499.786 1307.51 499.159 1306.73 499.159C1305.96 499.159 1305.33 499.786 1305.33 500.565C1305.33 501.344 1305.96 501.971 1306.73 501.971Z" stroke="#B4B4B4" stroke-linecap="round" stroke-linejoin="round"/>
<path d="M1287.06 501.971C1287.84 501.971 1288.47 501.344 1288.47 500.565C1288.47 499.786 1287.84 499.159 1287.06 499.159C1286.28 499.159 1285.66 499.786 1285.66 500.565C1285.66 501.344 1286.28 501.971 1287.06 501.971Z" stroke="#B4B4B4" stroke-linecap="round" stroke-linejoin="round"/>
<path d="M1323.88 565.931H1268.68C1259.05 565.931 1251.25 573.735 1251.25 583.364V638.567C1251.25 648.196 1259.05 656 1268.68 656H1323.88C1333.51 656 1341.32 648.196 1341.32 638.567V583.364C1341.32 573.735 1333.51 565.931 1323.88 565.931Z" fill="white" fill-opacity="0.02" stroke="#292929"/>
<path d="M1263.25 591.723C1263.25 584.102 1269.43 577.922 1277.05 577.922H1315.54C1323.17 577.922 1329.35 584.102 1329.35 591.723V630.22C1329.35 637.841 1323.17 644.021 1315.54 644.021H1277.05C1269.43 644.021 1263.25 637.841 1263.25 630.22V591.723Z" fill="#1A1A1A" stroke="black" stroke-opacity="0.35"/>
<path d="M1296.94 612.38C1297.72 612.38 1298.35 611.753 1298.35 610.974C1298.35 610.195 1297.72 609.568 1296.94 609.568C1296.16 609.568 1295.53 610.195 1295.53 610.974C1295.53 611.753 1296.16 612.38 1296.94 612.38Z" stroke="#B4B4B4" stroke-linecap="round" stroke-linejoin="round"/>
<path d="M1306.73 612.38C1307.51 612.38 1308.14 611.753 1308.14 610.974C1308.14 610.195 1307.51 609.568 1306.73 609.568C1305.96 609.568 1305.33 610.195 1305.33 610.974C1305.33 611.753 1305.96 612.38 1306.73 612.38Z" stroke="#B4B4B4" stroke-linecap="round" stroke-linejoin="round"/>
<path d="M1287.06 612.38C1287.84 612.38 1288.47 611.753 1288.47 610.974C1288.47 610.195 1287.84 609.568 1287.06 609.568C1286.28 609.568 1285.66 610.195 1285.66 610.974C1285.66 611.753 1286.28 612.38 1287.06 612.38Z" stroke="#B4B4B4" stroke-linecap="round" stroke-linejoin="round"/>
<path d="M1323.88 11H1268.68C1259.05 11 1251.25 18.8049 1251.25 28.4327V83.6362C1251.25 93.264 1259.05 101.069 1268.68 101.069H1323.88C1333.51 101.069 1341.32 93.264 1341.32 83.6362V28.4327C1341.32 18.8049 1333.51 11 1323.88 11Z" fill="white" fill-opacity="0.02" stroke="#292929"/>
<path d="M1263.25 36.7745C1263.25 29.1525 1269.43 22.9736 1277.05 22.9736H1315.54C1323.17 22.9736 1329.35 29.1525 1329.35 36.7745V75.2717C1329.35 82.8939 1323.17 89.0726 1315.54 89.0726H1277.05C1269.43 89.0726 1263.25 82.8939 1263.25 75.2717V36.7745Z" fill="#1A1A1A" stroke="black" stroke-opacity="0.35"/>
<path d="M1296.94 57.4471C1297.72 57.4471 1298.35 56.8169 1298.35 56.0397C1298.35 55.2625 1297.72 54.6323 1296.94 54.6323C1296.16 54.6323 1295.53 55.2625 1295.53 56.0397C1295.53 56.8169 1296.16 57.4471 1296.94 57.4471Z" stroke="#B4B4B4" stroke-linecap="round" stroke-linejoin="round"/>
<path d="M1306.73 57.4471C1307.51 57.4471 1308.14 56.8169 1308.14 56.0397C1308.14 55.2625 1307.51 54.6323 1306.73 54.6323C1305.96 54.6323 1305.33 55.2625 1305.33 56.0397C1305.33 56.8169 1305.96 57.4471 1306.73 57.4471Z" stroke="#B4B4B4" stroke-linecap="round" stroke-linejoin="round"/>
<path d="M1287.06 57.4471C1287.84 57.4471 1288.47 56.8169 1288.47 56.0397C1288.47 55.2625 1287.84 54.6323 1287.06 54.6323C1286.28 54.6323 1285.66 55.2625 1285.66 56.0397C1285.66 56.8169 1286.28 57.4471 1287.06 57.4471Z" stroke="#B4B4B4" stroke-linecap="round" stroke-linejoin="round"/>
<path d="M1323.88 345.129H1268.68C1259.05 345.129 1251.25 352.933 1251.25 362.562V417.765C1251.25 427.394 1259.05 435.198 1268.68 435.198H1323.88C1333.51 435.198 1341.32 427.394 1341.32 417.765V362.562C1341.32 352.933 1333.51 345.129 1323.88 345.129Z" fill="white" fill-opacity="0.02" stroke="#292929"/>
<path d="M1263.25 370.917C1263.25 363.296 1269.43 357.116 1277.05 357.116H1315.54C1323.17 357.116 1329.35 363.296 1329.35 370.917V409.414C1329.35 417.035 1323.17 423.215 1315.54 423.215H1277.05C1269.43 423.215 1263.25 417.035 1263.25 409.414V370.917Z" fill="#1A1A1A" stroke="black" stroke-opacity="0.35"/>
<path d="M1296.94 391.569C1297.72 391.569 1298.35 390.942 1298.35 390.163C1298.35 389.384 1297.72 388.757 1296.94 388.757C1296.16 388.757 1295.53 389.384 1295.53 390.163C1295.53 390.942 1296.16 391.569 1296.94 391.569Z" stroke="#B4B4B4" stroke-linecap="round" stroke-linejoin="round"/>
<path d="M1306.73 391.569C1307.51 391.569 1308.14 390.942 1308.14 390.163C1308.14 389.384 1307.51 388.757 1306.73 388.757C1305.96 388.757 1305.33 389.384 1305.33 390.163C1305.33 390.942 1305.96 391.569 1306.73 391.569Z" stroke="#B4B4B4" stroke-linecap="round" stroke-linejoin="round"/>
<path d="M1287.06 391.569C1287.84 391.569 1288.47 390.942 1288.47 390.163C1288.47 389.384 1287.84 388.757 1287.06 388.757C1286.28 388.757 1285.66 389.384 1285.66 390.163C1285.66 390.942 1286.28 391.569 1287.06 391.569Z" stroke="#B4B4B4" stroke-linecap="round" stroke-linejoin="round"/>
<path d="M1323.88 234.717H1268.68C1259.05 234.717 1251.25 242.522 1251.25 252.15V304.448C1251.25 314.077 1259.05 321.881 1268.68 321.881H1323.88C1333.51 321.881 1341.32 314.077 1341.32 304.448V252.15C1341.32 242.522 1333.51 234.717 1323.88 234.717Z" fill="white" fill-opacity="0.02" stroke="#292929"/>
<path d="M1263.25 260.146C1263.25 252.523 1269.43 246.345 1277.05 246.345H1315.54C1323.17 246.345 1329.35 252.523 1329.35 260.146V296.464C1329.35 304.085 1323.17 310.265 1315.54 310.265H1277.05C1269.43 310.265 1263.25 304.085 1263.25 296.464V260.146Z" fill="#1A1A1A" stroke="black" stroke-opacity="0.35"/>
<path d="M1296.94 279.663C1297.72 279.663 1298.35 279.053 1298.35 278.301C1298.35 277.548 1297.72 276.938 1296.94 276.938C1296.16 276.938 1295.53 277.548 1295.53 278.301C1295.53 279.053 1296.16 279.663 1296.94 279.663Z" stroke="#B4B4B4" stroke-linecap="round" stroke-linejoin="round"/>
<path d="M1306.73 279.663C1307.51 279.663 1308.14 279.053 1308.14 278.301C1308.14 277.548 1307.51 276.938 1306.73 276.938C1305.96 276.938 1305.33 277.548 1305.33 278.301C1305.33 279.053 1305.96 279.663 1306.73 279.663Z" stroke="#B4B4B4" stroke-linecap="round" stroke-linejoin="round"/>
<path d="M1287.06 279.663C1287.84 279.663 1288.47 279.053 1288.47 278.301C1288.47 277.548 1287.84 276.938 1287.06 276.938C1286.28 276.938 1285.66 277.548 1285.66 278.301C1285.66 279.053 1286.28 279.663 1287.06 279.663Z" stroke="#B4B4B4" stroke-linecap="round" stroke-linejoin="round"/>
<path d="M1103.09 11H1047.89C1038.26 11 1030.46 18.8049 1030.46 28.4327V83.6362C1030.46 93.264 1038.26 101.069 1047.89 101.069H1103.09C1112.72 101.069 1120.53 93.264 1120.53 83.6362V28.4327C1120.53 18.8049 1112.72 11 1103.09 11Z" fill="white" fill-opacity="0.02" stroke="#292929"/>
<path d="M1042.42 36.7745C1042.42 29.1525 1048.6 22.9736 1056.22 22.9736H1094.72C1102.34 22.9736 1108.52 29.1525 1108.52 36.7745V75.2717C1108.52 82.8939 1102.34 89.0726 1094.72 89.0726H1056.22C1048.6 89.0726 1042.42 82.8939 1042.42 75.2717V36.7745Z" fill="#1A1A1A" stroke="black" stroke-opacity="0.35"/>
<path d="M1076.13 57.4471C1076.9 57.4471 1077.53 56.8169 1077.53 56.0397C1077.53 55.2625 1076.9 54.6323 1076.13 54.6323C1075.35 54.6323 1074.72 55.2625 1074.72 56.0397C1074.72 56.8169 1075.35 57.4471 1076.13 57.4471Z" stroke="#B4B4B4" stroke-linecap="round" stroke-linejoin="round"/>
<path d="M1085.96 57.4471C1086.74 57.4471 1087.37 56.8169 1087.37 56.0397C1087.37 55.2625 1086.74 54.6323 1085.96 54.6323C1085.19 54.6323 1084.55 55.2625 1084.55 56.0397C1084.55 56.8169 1085.19 57.4471 1085.96 57.4471Z" stroke="#B4B4B4" stroke-linecap="round" stroke-linejoin="round"/>
<path d="M1066.27 57.4471C1067.04 57.4471 1067.67 56.8169 1067.67 56.0397C1067.67 55.2625 1067.04 54.6323 1066.27 54.6323C1065.49 54.6323 1064.86 55.2625 1064.86 56.0397C1064.86 56.8169 1065.49 57.4471 1066.27 57.4471Z" stroke="#B4B4B4" stroke-linecap="round" stroke-linejoin="round"/>
<path d="M1103.09 345.129H1047.89C1038.26 345.129 1030.46 352.933 1030.46 362.562V417.765C1030.46 427.394 1038.26 435.198 1047.89 435.198H1103.09C1112.72 435.198 1120.53 427.394 1120.53 417.765V362.562C1120.53 352.933 1112.72 345.129 1103.09 345.129Z" fill="white" fill-opacity="0.02" stroke="#292929"/>
<path d="M1042.42 370.917C1042.42 363.296 1048.6 357.116 1056.22 357.116H1094.72C1102.34 357.116 1108.52 363.296 1108.52 370.917V409.414C1108.52 417.035 1102.34 423.215 1094.72 423.215H1056.22C1048.6 423.215 1042.42 417.035 1042.42 409.414V370.917Z" fill="#1A1A1A" stroke="black" stroke-opacity="0.35"/>
<path d="M1076.13 391.569C1076.9 391.569 1077.53 390.942 1077.53 390.163C1077.53 389.384 1076.9 388.757 1076.13 388.757C1075.35 388.757 1074.72 389.384 1074.72 390.163C1074.72 390.942 1075.35 391.569 1076.13 391.569Z" stroke="#B4B4B4" stroke-linecap="round" stroke-linejoin="round"/>
<path d="M1085.96 391.569C1086.74 391.569 1087.37 390.942 1087.37 390.163C1087.37 389.384 1086.74 388.757 1085.96 388.757C1085.19 388.757 1084.55 389.384 1084.55 390.163C1084.55 390.942 1085.19 391.569 1085.96 391.569Z" stroke="#B4B4B4" stroke-linecap="round" stroke-linejoin="round"/>
<path d="M1066.27 391.569C1067.04 391.569 1067.67 390.942 1067.67 390.163C1067.67 389.384 1067.04 388.757 1066.27 388.757C1065.49 388.757 1064.86 389.384 1064.86 390.163C1064.86 390.942 1065.49 391.569 1066.27 391.569Z" stroke="#B4B4B4" stroke-linecap="round" stroke-linejoin="round"/>
<path d="M879.364 11H827.066C817.437 11 809.633 18.8049 809.633 28.4327V83.6362C809.633 93.264 817.437 101.069 827.066 101.069H879.364C888.992 101.069 896.796 93.264 896.796 83.6362V28.4327C896.796 18.8049 888.992 11 879.364 11Z" fill="white" fill-opacity="0.02" stroke="#292929"/>
<path d="M821.242 36.7745C821.242 29.1525 827.422 22.9736 835.043 22.9736H871.361C878.982 22.9736 885.162 29.1525 885.162 36.7745V75.2717C885.162 82.8939 878.982 89.0726 871.361 89.0726H835.043C827.422 89.0726 821.242 82.8939 821.242 75.2717V36.7745Z" fill="#1A1A1A" stroke="black" stroke-opacity="0.35"/>
<path d="M853.821 57.4471C854.573 57.4471 855.183 56.8169 855.183 56.0397C855.183 55.2625 854.573 54.6323 853.821 54.6323C853.071 54.6323 852.461 55.2625 852.461 56.0397C852.461 56.8169 853.071 57.4471 853.821 57.4471Z" stroke="#B4B4B4" stroke-linecap="round" stroke-linejoin="round"/>
<path d="M863.359 57.4471C864.111 57.4471 864.719 56.8169 864.719 56.0397C864.719 55.2625 864.111 54.6323 863.359 54.6323C862.606 54.6323 861.996 55.2625 861.996 56.0397C861.996 56.8169 862.606 57.4471 863.359 57.4471Z" stroke="#B4B4B4" stroke-linecap="round" stroke-linejoin="round"/>
<path d="M844.292 57.4471C845.045 57.4471 845.655 56.8169 845.655 56.0397C845.655 55.2625 845.045 54.6323 844.292 54.6323C843.54 54.6323 842.93 55.2625 842.93 56.0397C842.93 56.8169 843.54 57.4471 844.292 57.4471Z" stroke="#B4B4B4" stroke-linecap="round" stroke-linejoin="round"/>
<path d="M989.762 345.129H937.464C927.835 345.129 920.031 352.933 920.031 362.562V417.765C920.031 427.394 927.835 435.198 937.464 435.198H989.762C999.391 435.198 1007.2 427.394 1007.2 417.765V362.562C1007.2 352.933 999.391 345.129 989.762 345.129Z" fill="white" fill-opacity="0.02" stroke="#292929"/>
<path d="M931.648 370.917C931.648 363.296 937.828 357.116 945.449 357.116H981.767C989.388 357.116 995.568 363.296 995.568 370.917V409.414C995.568 417.035 989.388 423.215 981.767 423.215H945.449C937.828 423.215 931.648 417.035 931.648 409.414V370.917Z" fill="#1A1A1A" stroke="black" stroke-opacity="0.35"/>
<path d="M964.227 391.569C964.98 391.569 965.59 390.942 965.59 390.163C965.59 389.384 964.98 388.757 964.227 388.757C963.477 388.757 962.867 389.384 962.867 390.163C962.867 390.942 963.477 391.569 964.227 391.569Z" stroke="#B4B4B4" stroke-linecap="round" stroke-linejoin="round"/>
<path d="M973.761 391.569C974.514 391.569 975.121 390.942 975.121 390.163C975.121 389.384 974.514 388.757 973.761 388.757C973.009 388.757 972.398 389.384 972.398 390.163C972.398 390.942 973.009 391.569 973.761 391.569Z" stroke="#B4B4B4" stroke-linecap="round" stroke-linejoin="round"/>
<path d="M954.706 391.569C955.459 391.569 956.069 390.942 956.069 390.163C956.069 389.384 955.459 388.757 954.706 388.757C953.954 388.757 953.344 389.384 953.344 390.163C953.344 390.942 953.954 391.569 954.706 391.569Z" stroke="#B4B4B4" stroke-linecap="round" stroke-linejoin="round"/>
<path d="M754.434 467.16H702.136C692.507 467.16 684.703 474.964 684.703 484.592V539.796C684.703 549.425 692.507 557.229 702.136 557.229H754.434C764.063 557.229 771.867 549.425 771.867 539.796V484.592C771.867 474.964 764.063 467.16 754.434 467.16Z" fill="white" fill-opacity="0.02" stroke="#292929"/>
<path d="M696.297 492.941C696.297 485.32 702.477 479.14 710.098 479.14H746.416C754.037 479.14 760.217 485.32 760.217 492.941V531.438C760.217 539.059 754.037 545.239 746.416 545.239H710.098C702.477 545.239 696.297 539.059 696.297 531.438V492.941Z" fill="#1A1A1A" stroke="black" stroke-opacity="0.35"/>
<path d="M728.899 513.6C729.651 513.6 730.262 512.972 730.262 512.193C730.262 511.415 729.651 510.787 728.899 510.787C728.149 510.787 727.539 511.415 727.539 512.193C727.539 512.972 728.149 513.6 728.899 513.6Z" stroke="#B4B4B4" stroke-linecap="round" stroke-linejoin="round"/>
<path d="M738.452 513.6C739.205 513.6 739.812 512.972 739.812 512.193C739.812 511.415 739.205 510.787 738.452 510.787C737.7 510.787 737.09 511.415 737.09 512.193C737.09 512.972 737.7 513.6 738.452 513.6Z" stroke="#B4B4B4" stroke-linecap="round" stroke-linejoin="round"/>
<path d="M719.37 513.6C720.123 513.6 720.733 512.972 720.733 512.193C720.733 511.415 720.123 510.787 719.37 510.787C718.618 510.787 718.008 511.415 718.008 512.193C718.008 512.972 718.618 513.6 719.37 513.6Z" stroke="#B4B4B4" stroke-linecap="round" stroke-linejoin="round"/>
<path d="M879.364 345.129H827.066C817.437 345.129 809.633 352.933 809.633 362.562V417.765C809.633 427.394 817.437 435.198 827.066 435.198H879.364C888.992 435.198 896.796 427.394 896.796 417.765V362.562C896.796 352.933 888.992 345.129 879.364 345.129Z" fill="white" fill-opacity="0.02" stroke="#292929"/>
<path d="M821.242 370.917C821.242 363.296 827.422 357.116 835.043 357.116H871.361C878.982 357.116 885.162 363.296 885.162 370.917V409.414C885.162 417.035 878.982 423.215 871.361 423.215H835.043C827.422 423.215 821.242 417.035 821.242 409.414V370.917Z" fill="#1A1A1A" stroke="black" stroke-opacity="0.35"/>
<path d="M853.821 391.569C854.573 391.569 855.183 390.942 855.183 390.163C855.183 389.384 854.573 388.757 853.821 388.757C853.071 388.757 852.461 389.384 852.461 390.163C852.461 390.942 853.071 391.569 853.821 391.569Z" stroke="#B4B4B4" stroke-linecap="round" stroke-linejoin="round"/>
<path d="M863.359 391.569C864.111 391.569 864.719 390.942 864.719 390.163C864.719 389.384 864.111 388.757 863.359 388.757C862.606 388.757 861.996 389.384 861.996 390.163C861.996 390.942 862.606 391.569 863.359 391.569Z" stroke="#B4B4B4" stroke-linecap="round" stroke-linejoin="round"/>
<path d="M844.292 391.569C845.045 391.569 845.655 390.942 845.655 390.163C845.655 389.384 845.045 388.757 844.292 388.757C843.54 388.757 842.93 389.384 842.93 390.163C842.93 390.942 843.54 391.569 844.292 391.569Z" stroke="#B4B4B4" stroke-linecap="round" stroke-linejoin="round"/>
<path d="M1103.09 124.311H1047.89C1038.26 124.311 1030.46 132.115 1030.46 141.743V194.041C1030.46 203.669 1038.26 211.474 1047.89 211.474H1103.09C1112.72 211.474 1120.53 203.669 1120.53 194.041V141.743C1120.53 132.115 1112.72 124.311 1103.09 124.311Z" fill="white" fill-opacity="0.02" stroke="#292929"/>
<path d="M1042.42 149.734C1042.42 142.111 1048.6 135.933 1056.22 135.933H1094.72C1102.34 135.933 1108.52 142.111 1108.52 149.734V186.052C1108.52 193.674 1102.34 199.853 1094.72 199.853H1056.22C1048.6 199.853 1042.42 193.674 1042.42 186.052V149.734Z" fill="#1A1A1A" stroke="black" stroke-opacity="0.35"/>
<path d="M1076.13 169.258C1076.9 169.258 1077.53 168.648 1077.53 167.896C1077.53 167.144 1076.9 166.534 1076.13 166.534C1075.35 166.534 1074.72 167.144 1074.72 167.896C1074.72 168.648 1075.35 169.258 1076.13 169.258Z" stroke="#B4B4B4" stroke-linecap="round" stroke-linejoin="round"/>
<path d="M1085.96 169.258C1086.74 169.258 1087.37 168.648 1087.37 167.896C1087.37 167.144 1086.74 166.534 1085.96 166.534C1085.19 166.534 1084.55 167.144 1084.55 167.896C1084.55 168.648 1085.19 169.258 1085.96 169.258Z" stroke="#B4B4B4" stroke-linecap="round" stroke-linejoin="round"/>
<path d="M1066.27 169.258C1067.04 169.258 1067.67 168.648 1067.67 167.896C1067.67 167.144 1067.04 166.534 1066.27 166.534C1065.49 166.534 1064.86 167.144 1064.86 167.896C1064.86 168.648 1065.49 169.258 1066.27 169.258Z" stroke="#B4B4B4" stroke-linecap="round" stroke-linejoin="round"/>
<path d="M1103.09 455.537H1047.89C1038.26 455.537 1030.46 463.341 1030.46 472.97V528.173C1030.46 537.802 1038.26 545.606 1047.89 545.606H1103.09C1112.72 545.606 1120.53 537.802 1120.53 528.173V472.97C1120.53 463.341 1112.72 455.537 1103.09 455.537Z" fill="white" fill-opacity="0.02" stroke="#292929"/>
<path d="M1042.42 481.318C1042.42 473.697 1048.6 467.518 1056.22 467.518H1094.72C1102.34 467.518 1108.52 473.697 1108.52 481.318V519.816C1108.52 527.437 1102.34 533.617 1094.72 533.617H1056.22C1048.6 533.617 1042.42 527.437 1042.42 519.816V481.318Z" fill="#1A1A1A" stroke="black" stroke-opacity="0.35"/>
<path d="M1075.1 610.882C1075.88 610.882 1076.51 610.255 1076.51 609.476C1076.51 608.697 1075.88 608.07 1075.1 608.07C1074.32 608.07 1073.69 608.697 1073.69 609.476C1073.69 610.255 1074.32 610.882 1075.1 610.882Z" stroke="#B4B4B4" stroke-linecap="round" stroke-linejoin="round"/>
<path d="M1084.95 610.882C1085.73 610.882 1086.36 610.255 1086.36 609.476C1086.36 608.697 1085.73 608.07 1084.95 608.07C1084.18 608.07 1083.55 608.697 1083.55 609.476C1083.55 610.255 1084.18 610.882 1084.95 610.882Z" stroke="#B4B4B4" stroke-linecap="round" stroke-linejoin="round"/>
<path d="M1065.28 610.882C1066.05 610.882 1066.68 610.255 1066.68 609.476C1066.68 608.697 1066.05 608.07 1065.28 608.07C1064.5 608.07 1063.87 608.697 1063.87 609.476C1063.87 610.255 1064.5 610.882 1065.28 610.882Z" stroke="#B4B4B4" stroke-linecap="round" stroke-linejoin="round"/>
<path d="M1103.09 565.931H1047.89C1038.26 565.931 1030.46 573.735 1030.46 583.364V638.567C1030.46 648.196 1038.26 656 1047.89 656H1103.09C1112.72 656 1120.53 648.196 1120.53 638.567V583.364C1120.53 573.735 1112.72 565.931 1103.09 565.931Z" fill="white" fill-opacity="0.02" stroke="#292929"/>
<path d="M1042.42 591.723C1042.42 584.102 1048.6 577.922 1056.22 577.922H1094.72C1102.34 577.922 1108.52 584.102 1108.52 591.723V630.22C1108.52 637.841 1102.34 644.021 1094.72 644.021H1056.22C1048.6 644.021 1042.42 637.841 1042.42 630.22V591.723Z" fill="#1A1A1A" stroke="black" stroke-opacity="0.35"/>
<path d="M989.762 124.311H937.464C927.835 124.311 920.031 132.115 920.031 141.743V194.041C920.031 203.669 927.835 211.474 937.464 211.474H989.762C999.391 211.474 1007.2 203.669 1007.2 194.041V141.743C1007.2 132.115 999.391 124.311 989.762 124.311Z" fill="white" fill-opacity="0.02" stroke="#292929"/>
<path d="M931.648 149.734C931.648 142.111 937.828 135.933 945.449 135.933H981.767C989.388 135.933 995.568 142.111 995.568 149.734V186.052C995.568 193.674 989.388 199.853 981.767 199.853H945.449C937.828 199.853 931.648 193.674 931.648 186.052V149.734Z" fill="#1A1A1A" stroke="black" stroke-opacity="0.35"/>
<path d="M964.227 169.258C964.98 169.258 965.59 168.648 965.59 167.896C965.59 167.144 964.98 166.534 964.227 166.534C963.477 166.534 962.867 167.144 962.867 167.896C962.867 168.648 963.477 169.258 964.227 169.258Z" stroke="#B4B4B4" stroke-linecap="round" stroke-linejoin="round"/>
<path d="M973.761 169.258C974.514 169.258 975.121 168.648 975.121 167.896C975.121 167.144 974.514 166.534 973.761 166.534C973.009 166.534 972.398 167.144 972.398 167.896C972.398 168.648 973.009 169.258 973.761 169.258Z" stroke="#B4B4B4" stroke-linecap="round" stroke-linejoin="round"/>
<path d="M954.706 169.258C955.459 169.258 956.069 168.648 956.069 167.896C956.069 167.144 955.459 166.534 954.706 166.534C953.954 166.534 953.344 167.144 953.344 167.896C953.344 168.648 953.954 169.258 954.706 169.258Z" stroke="#B4B4B4" stroke-linecap="round" stroke-linejoin="round"/>
<path d="M989.762 455.537H937.464C927.835 455.537 920.031 463.341 920.031 472.97V528.173C920.031 537.802 927.835 545.606 937.464 545.606H989.762C999.391 545.606 1007.2 537.802 1007.2 528.173V472.97C1007.2 463.341 999.391 455.537 989.762 455.537Z" fill="white" fill-opacity="0.02" stroke="#292929"/>
<path d="M931.648 481.318C931.648 473.697 937.828 467.518 945.449 467.518H981.767C989.388 467.518 995.568 473.697 995.568 481.318V519.816C995.568 527.437 989.388 533.617 981.767 533.617H945.449C937.828 533.617 931.648 527.437 931.648 519.816V481.318Z" fill="#1A1A1A" stroke="black" stroke-opacity="0.35"/>
<path d="M989.762 565.931H937.464C927.835 565.931 920.031 573.735 920.031 583.364V638.567C920.031 648.196 927.835 656 937.464 656H989.762C999.391 656 1007.2 648.196 1007.2 638.567V583.364C1007.2 573.735 999.391 565.931 989.762 565.931Z" fill="white" fill-opacity="0.02" stroke="#292929"/>
<path d="M931.648 591.723C931.648 584.102 937.828 577.922 945.449 577.922H981.767C989.388 577.922 995.568 584.102 995.568 591.723V630.22C995.568 637.841 989.388 644.021 981.767 644.021H945.449C937.828 644.021 931.648 637.841 931.648 630.22V591.723Z" fill="#1A1A1A" stroke="black" stroke-opacity="0.35"/>
<path d="M1075.1 610.882C1075.88 610.882 1076.51 610.255 1076.51 609.476C1076.51 608.697 1075.88 608.07 1075.1 608.07C1074.32 608.07 1073.69 608.697 1073.69 609.476C1073.69 610.255 1074.32 610.882 1075.1 610.882Z" stroke="#B4B4B4" stroke-linecap="round" stroke-linejoin="round"/>
<path d="M1084.95 610.882C1085.73 610.882 1086.36 610.255 1086.36 609.476C1086.36 608.697 1085.73 608.07 1084.95 608.07C1084.18 608.07 1083.55 608.697 1083.55 609.476C1083.55 610.255 1084.18 610.882 1084.95 610.882Z" stroke="#B4B4B4" stroke-linecap="round" stroke-linejoin="round"/>
<path d="M1065.28 610.882C1066.05 610.882 1066.68 610.255 1066.68 609.476C1066.68 608.697 1066.05 608.07 1065.28 608.07C1064.5 608.07 1063.87 608.697 1063.87 609.476C1063.87 610.255 1064.5 610.882 1065.28 610.882Z" stroke="#B4B4B4" stroke-linecap="round" stroke-linejoin="round"/>
<path d="M1075.1 503.383C1075.88 503.383 1076.51 502.756 1076.51 501.977C1076.51 501.198 1075.88 500.571 1075.1 500.571C1074.32 500.571 1073.69 501.198 1073.69 501.977C1073.69 502.756 1074.32 503.383 1075.1 503.383Z" stroke="#B4B4B4" stroke-linecap="round" stroke-linejoin="round"/>
<path d="M1084.95 503.383C1085.73 503.383 1086.36 502.756 1086.36 501.977C1086.36 501.198 1085.73 500.571 1084.95 500.571C1084.18 500.571 1083.55 501.198 1083.55 501.977C1083.55 502.756 1084.18 503.383 1084.95 503.383Z" stroke="#B4B4B4" stroke-linecap="round" stroke-linejoin="round"/>
<path d="M1065.28 503.383C1066.05 503.383 1066.68 502.756 1066.68 501.977C1066.68 501.198 1066.05 500.571 1065.28 500.571C1064.5 500.571 1063.87 501.198 1063.87 501.977C1063.87 502.756 1064.5 503.383 1065.28 503.383Z" stroke="#B4B4B4" stroke-linecap="round" stroke-linejoin="round"/>
<path d="M964.71 610.882C965.486 610.882 966.116 610.255 966.116 609.476C966.116 608.697 965.486 608.07 964.71 608.07C963.931 608.07 963.301 608.697 963.301 609.476C963.301 610.255 963.931 610.882 964.71 610.882Z" stroke="#B4B4B4" stroke-linecap="round" stroke-linejoin="round"/>
<path d="M974.563 610.882C975.341 610.882 975.972 610.255 975.972 609.476C975.972 608.697 975.341 608.07 974.563 608.07C973.787 608.07 973.156 608.697 973.156 609.476C973.156 610.255 973.787 610.882 974.563 610.882Z" stroke="#B4B4B4" stroke-linecap="round" stroke-linejoin="round"/>
<path d="M954.852 610.882C955.627 610.882 956.258 610.255 956.258 609.476C956.258 608.697 955.627 608.07 954.852 608.07C954.073 608.07 953.445 608.697 953.445 609.476C953.445 610.255 954.073 610.882 954.852 610.882Z" stroke="#B4B4B4" stroke-linecap="round" stroke-linejoin="round"/>
<path d="M964.71 503.383C965.486 503.383 966.116 502.756 966.116 501.977C966.116 501.198 965.486 500.571 964.71 500.571C963.931 500.571 963.301 501.198 963.301 501.977C963.301 502.756 963.931 503.383 964.71 503.383Z" stroke="#B4B4B4" stroke-linecap="round" stroke-linejoin="round"/>
<path d="M974.563 503.383C975.341 503.383 975.972 502.756 975.972 501.977C975.972 501.198 975.341 500.571 974.563 500.571C973.787 500.571 973.156 501.198 973.156 501.977C973.156 502.756 973.787 503.383 974.563 503.383Z" stroke="#B4B4B4" stroke-linecap="round" stroke-linejoin="round"/>
<path d="M954.852 503.383C955.627 503.383 956.258 502.756 956.258 501.977C956.258 501.198 955.627 500.571 954.852 500.571C954.073 500.571 953.445 501.198 953.445 501.977C953.445 502.756 954.073 503.383 954.852 503.383Z" stroke="#B4B4B4" stroke-linecap="round" stroke-linejoin="round"/>
</g>
<defs>
<clipPath id="clip0_775_10577">
<rect width="1365" height="886" fill="white"/>
</clipPath>
</defs>
</svg>
