<svg width="25" height="25" viewBox="0 0 25 25" fill="none" xmlns="http://www.w3.org/2000/svg">
<mask id="mask0_8288_325" style="mask-type:luminance" maskUnits="userSpaceOnUse" x="3" y="3" width="19" height="19">
<path d="M21.5 3.5H3.5V21.5H21.5V3.5Z" fill="white"/>
</mask>
<g mask="url(#mask0_8288_325)">
<path d="M17.0399 19.305C15.6944 20.2041 14.1125 20.684 12.4943 20.684C10.3243 20.684 8.24324 19.8219 6.70883 18.2876C5.17449 16.7532 4.3125 14.6721 4.3125 12.5022C4.3125 10.8839 4.79234 9.30207 5.69135 7.95657C6.59036 6.61107 7.86818 5.56239 9.36322 4.94313C10.8583 4.32387 12.5033 4.16183 14.0905 4.47753C15.6776 4.79323 17.1354 5.57247 18.2796 6.71673C19.424 7.86096 20.2032 9.31884 20.5188 10.906C20.8346 12.4932 20.6725 14.1382 20.0533 15.6332C19.434 17.1282 18.3854 18.4061 17.0399 19.305Z" fill="#0F0F0F"/>
<path fill-rule="evenodd" clip-rule="evenodd" d="M13.9808 5.02922C12.5027 4.73522 10.9707 4.88612 9.57848 5.4628C8.18623 6.03949 6.99625 7.01606 6.15905 8.26906C5.32184 9.52204 4.87499 10.9952 4.87499 12.5022C4.87499 14.523 5.67774 16.461 7.10658 17.8898M14.2002 3.92583C15.8964 4.26323 17.4546 5.09604 18.6774 6.31895C19.9004 7.54187 20.7333 9.09996 21.0705 10.7962C21.408 12.4926 21.2348 14.2506 20.5731 15.8484C19.9111 17.4462 18.7904 18.812 17.3524 19.7728C15.9144 20.7336 14.2238 21.2465 12.4943 21.2465C10.1752 21.2465 7.95099 20.3252 6.3111 18.6853C4.67126 17.0455 3.75 14.8212 3.75 12.5022C3.75 10.7727 4.26283 9.08205 5.22365 7.64405C6.18446 6.20604 7.55015 5.08527 9.14796 4.42343C10.7458 3.7616 12.504 3.58843 14.2002 3.92583ZM13.9808 5.02922C15.4588 5.32321 16.8163 6.04887 17.8819 7.11446L13.9808 5.02922ZM19.9671 11.0157C19.6733 9.53768 18.9475 8.18003 17.8819 7.11446L19.9671 11.0157ZM19.5336 15.4179C20.1102 14.0257 20.2612 12.4938 19.9671 11.0157L19.5336 15.4179ZM19.5336 15.4179C18.9569 16.8102 17.9804 18.0002 16.7274 18.8374C15.4743 19.6746 14.0013 20.1215 12.4943 20.1215C10.4735 20.1215 8.5355 19.3187 7.10658 17.8898" fill="#535353"/>
<g style="mix-blend-mode:multiply">
<path d="M5.21968 12.8236C5.21939 11.3373 5.65266 9.8832 6.46641 8.63945C7.28015 7.39571 8.43903 6.41635 9.80104 5.82136C11.163 5.22638 12.669 5.04162 14.1345 5.28973C15.5999 5.53784 16.9612 6.20802 18.0515 7.21818C17.3531 6.46361 16.5096 5.85774 15.5716 5.4369C14.6335 5.01606 13.6202 4.78889 12.5922 4.76901C11.5643 4.74912 10.5429 4.93693 9.58923 5.32116C8.63559 5.70542 7.76932 6.2782 7.04232 7.0052C6.31532 7.7322 5.74254 8.59847 5.35829 9.55211C4.97405 10.5058 4.78624 11.5272 4.80612 12.5551C4.82601 13.5831 5.05318 14.5964 5.47403 15.5344C5.89487 16.4725 6.50074 17.316 7.25531 18.0144C5.94474 16.6037 5.21736 14.749 5.21968 12.8236Z" fill="black"/>
</g>
<path d="M12.9885 20.352C17.0768 20.352 20.3911 16.8632 20.3911 12.5597C20.3911 8.25626 17.0768 4.76758 12.9885 4.76758C8.90019 4.76758 5.58594 8.25626 5.58594 12.5597C5.58594 16.8632 8.90019 20.352 12.9885 20.352Z" fill="black"/>
<path d="M17.8439 17.6275C20.6518 14.8303 20.6518 10.2953 17.8439 7.49821C15.0363 4.70112 10.4839 4.70112 7.67614 7.49821C4.86837 10.2953 4.86837 14.8303 7.67614 17.6275C10.4839 20.4245 15.0363 20.4245 17.8439 17.6275Z" fill="black"/>
<path d="M20.3968 12.5045C20.4037 14.5609 19.5922 16.536 18.1405 17.997C16.6887 19.4579 14.7151 20.2853 12.6524 20.298C10.5897 20.3106 8.60607 19.5074 7.13644 18.0643C5.66682 16.6213 4.83109 14.6563 4.8125 12.6V12.5045C4.8125 10.4443 5.63346 8.46839 7.09482 7.01157C8.55617 5.55475 10.5382 4.73633 12.6048 4.73633H12.7009C14.7511 4.76079 16.7089 5.58999 18.1498 7.04409C19.5905 8.49818 20.3975 10.4606 20.3968 12.5045Z" fill="#343333"/>
<path d="M18.0592 7.04179L7.08482 18.0143C5.64954 16.584 4.83352 14.6475 4.8125 12.6216V12.5263C4.8125 10.4687 5.63004 8.49533 7.08533 7.0403C8.54059 5.58529 10.5144 4.76776 12.5726 4.76758H12.6683C14.6936 4.79147 16.6291 5.60791 18.0592 7.04179Z" fill="#464646"/>
<path d="M20.3937 12.5596C20.3937 13.5829 20.203 14.5962 19.8325 15.5416C19.4618 16.487 18.9185 17.346 18.2336 18.0696C17.5487 18.7932 16.7356 19.3672 15.8407 19.7589C14.9458 20.1504 13.9867 20.352 13.0181 20.352C12.8783 20.352 12.7395 20.348 12.6016 20.3397C14.4829 20.2277 16.2523 19.3591 17.5465 17.9123C18.8409 16.4657 19.562 14.5505 19.562 12.5597C19.562 10.5691 18.8409 8.65391 17.5465 7.20718C16.2523 5.76046 14.4829 4.89191 12.6016 4.77977C12.7395 4.77164 12.8783 4.76758 13.0181 4.76758C14.9743 4.76758 16.8503 5.58851 18.2335 7.0498C19.6167 8.5111 20.3937 10.493 20.3937 12.5596Z" fill="#151520"/>
<path d="M20.3937 12.5596C20.3937 13.5829 20.203 14.5962 19.8325 15.5416C19.4618 16.487 18.9185 17.346 18.2336 18.0696C17.5487 18.7932 16.7356 19.3672 15.8407 19.7589C14.9458 20.1504 13.9867 20.352 13.0181 20.352C12.8783 20.352 12.7395 20.348 12.6016 20.3397C14.4829 20.2277 16.2523 19.3591 17.5465 17.9123C18.8409 16.4657 19.562 14.5505 19.562 12.5597C19.562 10.5691 18.8409 8.65391 17.5465 7.20718C16.2523 5.76046 14.4829 4.89191 12.6016 4.77977C12.7395 4.77164 12.8783 4.76758 13.0181 4.76758C14.9743 4.76758 16.8503 5.58851 18.2335 7.0498C19.6167 8.5111 20.3937 10.493 20.3937 12.5596Z" fill="#151520"/>
</g>
<path fill-rule="evenodd" clip-rule="evenodd" d="M12.5619 18.0396C9.65509 16.5913 8.19976 14.601 8.19602 12.0688C8.19508 11.5827 8.19508 10.7859 8.19602 9.67822L12.5619 8.09961V18.0396Z" fill="#151520"/>
<path fill-rule="evenodd" clip-rule="evenodd" d="M12.5625 14.9868V13.0162L16.1517 9.40922L16.8892 9.67822L16.8899 10.638L12.5625 14.9868ZM12.5625 16.7437L16.8803 12.4049C16.7539 14.7778 15.3147 16.6561 12.5625 18.0396V16.7437ZM12.5625 11.2593V8.09961L14.8689 8.94141L12.5625 11.259V11.2593Z" fill="#151520"/>
<path fill-rule="evenodd" clip-rule="evenodd" d="M12.3666 17.94C9.45978 16.4917 8.00444 14.5014 8.00071 11.9692C7.99976 11.4831 7.99976 10.6863 8.00071 9.57861L12.3666 8V17.94Z" fill="#C4C4C4"/>
<path fill-rule="evenodd" clip-rule="evenodd" d="M12.3666 17.94C9.45978 16.4917 8.00444 14.5014 8.00071 11.9692C7.99976 11.4831 7.99976 10.6863 8.00071 9.57861L12.3666 8V17.94Z" fill="url(#paint0_linear_8288_325)" fill-opacity="0.4"/>
<path fill-rule="evenodd" clip-rule="evenodd" d="M12.3672 14.8872V12.9166L15.9564 9.30961L16.6939 9.57861L16.6945 10.5384L12.3672 14.8872ZM12.3672 16.6441L16.685 12.3053C16.5586 14.6782 15.1194 16.5565 12.3672 17.94V16.6441ZM12.3672 11.1597V8L14.6736 8.8418L12.3672 11.1594V11.1597Z" fill="white" fill-opacity="0.29"/>
<defs>
<linearGradient id="paint0_linear_8288_325" x1="8.497" y1="10.9447" x2="12.717" y2="16.4487" gradientUnits="userSpaceOnUse">
<stop/>
<stop offset="1" stop-color="#5B5151" stop-opacity="0.15"/>
</linearGradient>
</defs>
</svg>
