<svg width="25" height="25" viewBox="0 0 25 25" fill="none" xmlns="http://www.w3.org/2000/svg">
<mask id="mask0_8193_836" style="mask-type:luminance" maskUnits="userSpaceOnUse" x="3" y="3" width="19" height="19">
<path d="M21.5 3.5H3.5V21.5H21.5V3.5Z" fill="white"/>
</mask>
<g mask="url(#mask0_8193_836)">
<path d="M17.0399 19.304C15.6944 20.2031 14.1125 20.683 12.4943 20.683C10.3243 20.683 8.24324 19.8209 6.70883 18.2866C5.17449 16.7522 4.3125 14.6711 4.3125 12.5012C4.3125 10.8829 4.79234 9.30109 5.69135 7.95559C6.59036 6.61009 7.86818 5.56141 9.36322 4.94215C10.8583 4.32289 12.5033 4.16085 14.0905 4.47655C15.6776 4.79225 17.1354 5.57149 18.2796 6.71575C19.424 7.85998 20.2032 9.31786 20.5188 10.905C20.8346 12.4922 20.6725 14.1372 20.0533 15.6322C19.434 17.1272 18.3854 18.4051 17.0399 19.304Z" fill="#0F0F0F"/>
<path fill-rule="evenodd" clip-rule="evenodd" d="M13.9808 5.02825C12.5027 4.73425 10.9707 4.88515 9.57848 5.46183C8.18623 6.03852 6.99625 7.01509 6.15905 8.26809C5.32184 9.52107 4.87499 10.9942 4.87499 12.5012C4.87499 14.522 5.67774 16.46 7.10658 17.8888M14.2002 3.92486C15.8964 4.26226 17.4546 5.09507 18.6774 6.31798C19.9004 7.5409 20.7333 9.09899 21.0705 10.7952C21.408 12.4916 21.2348 14.2496 20.5731 15.8474C19.9111 17.4452 18.7904 18.811 17.3524 19.7718C15.9144 20.7326 14.2238 21.2455 12.4943 21.2455C10.1752 21.2455 7.95099 20.3242 6.3111 18.6843C4.67126 17.0445 3.75 14.8202 3.75 12.5012C3.75 10.7717 4.26283 9.08108 5.22365 7.64308C6.18446 6.20507 7.55015 5.0843 9.14796 4.42246C10.7458 3.76063 12.504 3.58746 14.2002 3.92486ZM13.9808 5.02825C15.4588 5.32224 16.8163 6.0479 17.8819 7.11349L13.9808 5.02825ZM19.9671 11.0147C19.6733 9.53671 18.9475 8.17906 17.8819 7.11349L19.9671 11.0147ZM19.5336 15.4169C20.1102 14.0247 20.2612 12.4928 19.9671 11.0147L19.5336 15.4169ZM19.5336 15.4169C18.9569 16.8092 17.9804 17.9992 16.7274 18.8364C15.4743 19.6736 14.0013 20.1205 12.4943 20.1205C10.4735 20.1205 8.5355 19.3177 7.10658 17.8888" fill="#535353"/>
<g style="mix-blend-mode:multiply">
<path d="M5.21968 12.8226C5.21939 11.3363 5.65266 9.88222 6.46641 8.63847C7.28015 7.39473 8.43903 6.41537 9.80104 5.82038C11.163 5.2254 12.669 5.04064 14.1345 5.28875C15.5999 5.53686 16.9612 6.20704 18.0515 7.2172C17.3531 6.46263 16.5096 5.85676 15.5716 5.43592C14.6335 5.01508 13.6202 4.78791 12.5922 4.76803C11.5643 4.74814 10.5429 4.93595 9.58923 5.32018C8.63559 5.70444 7.76932 6.27722 7.04232 7.00422C6.31532 7.73122 5.74254 8.59749 5.35829 9.55113C4.97405 10.5048 4.78624 11.5262 4.80612 12.5541C4.82601 13.5821 5.05318 14.5954 5.47403 15.5334C5.89487 16.4715 6.50074 17.315 7.25531 18.0134C5.94474 16.6027 5.21736 14.748 5.21968 12.8226Z" fill="black"/>
</g>
<path d="M12.9885 20.352C17.0768 20.352 20.3911 16.8632 20.3911 12.5597C20.3911 8.25626 17.0768 4.76758 12.9885 4.76758C8.90019 4.76758 5.58594 8.25626 5.58594 12.5597C5.58594 16.8632 8.90019 20.352 12.9885 20.352Z" fill="black"/>
<path d="M17.8439 17.6265C20.6518 14.8293 20.6518 10.2943 17.8439 7.49723C15.0363 4.70014 10.4839 4.70014 7.67614 7.49723C4.86837 10.2943 4.86837 14.8293 7.67614 17.6265C10.4839 20.4235 15.0363 20.4235 17.8439 17.6265Z" fill="black"/>
<path d="M20.3968 12.5045C20.4037 14.5609 19.5922 16.536 18.1405 17.997C16.6887 19.4579 14.7151 20.2853 12.6524 20.298C10.5897 20.3106 8.60607 19.5074 7.13644 18.0643C5.66682 16.6213 4.83109 14.6563 4.8125 12.6V12.5045C4.8125 10.4443 5.63346 8.46839 7.09482 7.01157C8.55617 5.55475 10.5382 4.73633 12.6048 4.73633H12.7009C14.7511 4.76079 16.7089 5.58999 18.1498 7.04409C19.5905 8.49818 20.3975 10.4606 20.3968 12.5045Z" fill="#343333"/>
<path d="M18.0592 7.04179L7.08482 18.0143C5.64954 16.584 4.83352 14.6475 4.8125 12.6216V12.5263C4.8125 10.4687 5.63004 8.49533 7.08533 7.0403C8.54059 5.58529 10.5144 4.76776 12.5726 4.76758H12.6683C14.6936 4.79147 16.6291 5.60791 18.0592 7.04179Z" fill="#464646"/>
<path d="M20.3937 12.5596C20.3937 13.5829 20.203 14.5962 19.8325 15.5416C19.4618 16.487 18.9185 17.346 18.2336 18.0696C17.5487 18.7932 16.7356 19.3672 15.8407 19.7589C14.9458 20.1504 13.9867 20.352 13.0181 20.352C12.8783 20.352 12.7395 20.348 12.6016 20.3397C14.4829 20.2277 16.2523 19.3591 17.5465 17.9123C18.8409 16.4657 19.562 14.5505 19.562 12.5597C19.562 10.5691 18.8409 8.65391 17.5465 7.20718C16.2523 5.76046 14.4829 4.89191 12.6016 4.77977C12.7395 4.77164 12.8783 4.76758 13.0181 4.76758C14.9743 4.76758 16.8503 5.58851 18.2335 7.0498C19.6167 8.5111 20.3937 10.493 20.3937 12.5596Z" fill="#151520"/>
<path d="M20.3937 12.5596C20.3937 13.5829 20.203 14.5962 19.8325 15.5416C19.4618 16.487 18.9185 17.346 18.2336 18.0696C17.5487 18.7932 16.7356 19.3672 15.8407 19.7589C14.9458 20.1504 13.9867 20.352 13.0181 20.352C12.8783 20.352 12.7395 20.348 12.6016 20.3397C14.4829 20.2277 16.2523 19.3591 17.5465 17.9123C18.8409 16.4657 19.562 14.5505 19.562 12.5597C19.562 10.5691 18.8409 8.65391 17.5465 7.20718C16.2523 5.76046 14.4829 4.89191 12.6016 4.77977C12.7395 4.77164 12.8783 4.76758 13.0181 4.76758C14.9743 4.76758 16.8503 5.58851 18.2335 7.0498C19.6167 8.5111 20.3937 10.493 20.3937 12.5596Z" fill="#151520"/>
</g>
<path d="M15.1805 10.3348C15.195 10.3659 15.2025 10.3998 15.2026 10.4341V11.2364C15.2019 11.4876 15.1426 11.7351 15.029 11.9594C14.9155 12.1837 14.7512 12.3787 14.5487 12.5289C14.2258 12.7813 13.8949 13.0179 13.5564 13.2559L12.8274 13.7597C12.7318 13.8286 12.6144 13.8613 12.4967 13.8515C12.4358 13.8445 12.3762 13.829 12.3197 13.8055C12.2693 13.7804 12.2205 13.7524 12.1734 13.7218C11.5118 13.2707 10.8503 12.8199 10.2042 12.3463C9.91164 12.1401 9.62735 11.9261 9.33489 11.7123C9.29645 11.6893 9.26584 11.6585 9.22657 11.6358C9.11846 11.5526 9.04461 11.4329 9.01888 11.2995C9.01206 11.264 9.00943 11.2279 9.01102 11.1918V10.4661C9.01216 10.4354 9.00962 10.4045 9.00344 10.3743C9.00118 10.3699 9 10.3649 9 10.3599C9 10.355 9.00118 10.35 9.00344 10.3456C9.00567 10.3411 9.00893 10.3373 9.01292 10.3345C9.01698 10.3316 9.02157 10.3296 9.02646 10.3285H9.03404C9.03582 10.3414 9.03844 10.3542 9.04189 10.3668C9.04807 10.4417 9.0808 10.512 9.13424 10.5652C9.17266 10.6139 9.21953 10.6552 9.27261 10.6875C10.0417 11.2604 10.8264 11.8183 11.6188 12.3684C11.8035 12.4985 11.9955 12.6205 12.1803 12.7503C12.2549 12.8023 12.3379 12.841 12.4258 12.8647C12.529 12.8892 12.6374 12.8785 12.7337 12.834C12.7696 12.8183 12.8033 12.7977 12.8335 12.7729C13.3412 12.4139 13.8413 12.0623 14.35 11.7032C14.45 11.6344 14.5424 11.5657 14.6339 11.4894C14.875 11.2742 15.0509 10.9965 15.1418 10.6875C15.156 10.6349 15.1663 10.5814 15.1728 10.5273C15.1792 10.4972 15.1819 10.4663 15.1805 10.4355V10.3348ZM12.4421 9.22619H12.6265C12.9255 9.24876 13.2154 9.3404 13.4728 9.49384C13.6464 9.59883 13.8086 9.72186 13.9563 9.86086C14.055 9.94527 14.1205 10.0618 14.1411 10.1896C14.1616 10.3145 14.1427 10.4426 14.0869 10.5563C14.0714 10.5946 14.0481 10.6253 14.0328 10.6557C14.0252 10.6705 14.0122 10.682 13.9963 10.6877C13.9806 10.6934 13.9634 10.6928 13.9478 10.6861C13.9402 10.6861 13.9402 10.6785 13.9326 10.6785C13.8786 10.6403 13.8245 10.6097 13.7634 10.5709C13.5432 10.4157 13.295 10.304 13.0322 10.2421C12.8638 10.203 12.6903 10.1902 12.5179 10.2042C12.1661 10.2297 11.8282 10.3507 11.5411 10.5542C11.4327 10.6307 11.318 10.6917 11.2023 10.768C11.1947 10.768 11.1947 10.7758 11.1871 10.7758C11.1813 10.775 11.1759 10.7721 11.1718 10.768L10.5256 10.3326C10.5113 10.3244 10.4983 10.3142 10.4872 10.3021C10.4785 10.2965 10.4723 10.288 10.4694 10.278C10.4666 10.2682 10.4674 10.2577 10.4717 10.2483C10.4717 10.2405 10.4796 10.2405 10.4872 10.2329L10.5023 10.2176C10.687 10.0956 10.8638 9.95753 11.0483 9.82716C11.2061 9.71195 11.3703 9.60525 11.5397 9.50757C11.7373 9.39881 11.9498 9.31925 12.1704 9.27143C12.2585 9.24511 12.3502 9.23045 12.4421 9.22619ZM12.1022 9.28813V7.94586C12.1035 7.89535 12.1249 7.84741 12.1617 7.81254C12.1984 7.77768 12.2476 7.75872 12.2985 7.75981H12.6893C12.74 7.75872 12.7893 7.77768 12.8259 7.81254C12.8628 7.84741 12.8842 7.89535 12.8855 7.94586V9.26524C12.624 9.2352 12.3595 9.24309 12.1003 9.28866L12.1022 9.28813ZM15.1893 12.5731C15.2042 12.6041 15.2121 12.638 15.2125 12.6725V13.4899C15.2055 13.8503 15.0815 14.1988 14.8588 14.4833C14.7625 14.6034 14.6514 14.7113 14.5283 14.8041C14.2033 15.0562 13.8661 15.2931 13.5263 15.5312L12.8494 15.9973C12.7912 16.0373 12.7258 16.0658 12.6567 16.0812C12.5644 16.1045 12.4671 16.0964 12.38 16.0584C12.3172 16.0356 12.2579 16.0048 12.2031 15.9666C11.4493 15.4549 10.6954 14.9353 9.95696 14.3927C9.7262 14.2248 9.49657 14.0567 9.26449 13.8811C9.15044 13.7986 9.07352 13.6749 9.05029 13.5365C9.04357 13.501 9.04102 13.4649 9.04271 13.4289V12.6883C9.04376 12.6602 9.04112 12.6321 9.03485 12.6046C9.02728 12.5814 9.04271 12.5586 9.05815 12.5586C9.05815 12.5739 9.06572 12.5814 9.06572 12.5968C9.0744 12.681 9.11277 12.7596 9.17405 12.8185C9.21141 12.8583 9.25268 12.8944 9.29726 12.9261C10.0971 13.522 10.9204 14.1024 11.7425 14.668C11.8955 14.7756 12.0501 14.8742 12.1964 14.9736C12.2587 15.0213 12.329 15.0579 12.4041 15.0812C12.4605 15.1005 12.5201 15.1081 12.5794 15.1043C12.6389 15.1002 12.6969 15.0847 12.7502 15.0583C12.7879 15.0411 12.824 15.0206 12.8586 14.9975C13.4122 14.6071 13.9663 14.2166 14.5201 13.8206C14.8262 13.6007 15.0507 13.2867 15.1586 12.9269C15.175 12.8664 15.1878 12.8052 15.1971 12.7433C15.1814 12.688 15.1781 12.6301 15.1874 12.5734L15.1893 12.5731ZM12.7413 17.699H12.2809C12.2263 17.6984 12.174 17.6765 12.1355 17.6378C12.0971 17.5991 12.0755 17.5468 12.0756 17.4924L12.1049 15.8957C12.1449 15.8399 12.1991 15.7957 12.2619 15.7673L12.9024 15.644C12.9083 15.644 12.9143 15.6453 12.9198 15.6475C12.9254 15.6497 12.9304 15.6532 12.9346 15.6574C12.9388 15.6617 12.9422 15.6668 12.9444 15.6723C12.9467 15.6779 12.9479 15.6838 12.9479 15.6897V17.4939C12.9476 17.5481 12.9261 17.6001 12.8877 17.6386C12.8494 17.6771 12.7972 17.6992 12.7426 17.6999L12.7413 17.699Z" fill="#151520"/>
<path d="M15.4462 10.075C15.4606 10.1062 15.4681 10.14 15.4682 10.1743V10.9768C15.4676 11.2279 15.4081 11.4754 15.2947 11.6997C15.1812 11.924 15.0169 12.119 14.8145 12.2692C14.4914 12.5215 14.1605 12.7581 13.8221 12.9962L13.093 13.5C12.9974 13.569 12.88 13.6015 12.7624 13.5919C12.7014 13.5847 12.6418 13.5693 12.5853 13.5457C12.5349 13.5207 12.4861 13.4928 12.439 13.4619C11.7774 13.0109 11.1159 12.5603 10.4698 12.0867C10.1774 11.8805 9.89298 11.6663 9.60052 11.4526C9.56207 11.4297 9.53147 11.3987 9.49221 11.376C9.38409 11.2929 9.31024 11.1733 9.2845 11.0397C9.27769 11.0043 9.27506 10.9681 9.27664 10.9321V10.2064C9.27778 10.1756 9.27525 10.1447 9.26907 10.1145C9.26681 10.1101 9.26562 10.1051 9.26562 10.1002C9.26562 10.0952 9.26681 10.0902 9.26907 10.0858C9.27131 10.0814 9.27455 10.0777 9.27855 10.0747C9.2826 10.0718 9.28721 10.0698 9.29209 10.0688H9.29966C9.30145 10.0817 9.30408 10.0945 9.30752 10.107C9.31369 10.1819 9.34642 10.2523 9.39987 10.3054C9.43829 10.3541 9.48516 10.3955 9.53825 10.4278C10.3073 11.0007 11.092 11.5587 11.8845 12.1088C12.0691 12.2388 12.2611 12.3607 12.4461 12.4905C12.5205 12.5425 12.6037 12.5812 12.6915 12.605C12.7945 12.6295 12.9031 12.6186 12.9993 12.5743C13.0352 12.5586 13.0689 12.5381 13.0993 12.513C13.607 12.1543 14.1069 11.8026 14.6157 11.4434C14.7156 11.3747 14.808 11.3061 14.8996 11.2296C15.1406 11.0145 15.3164 10.7368 15.4075 10.4278C15.4216 10.3751 15.4319 10.3216 15.4384 10.2675C15.445 10.2374 15.4475 10.2065 15.4462 10.1757V10.075ZM12.7076 8.96645H12.8921C13.1912 8.989 13.481 9.08064 13.7384 9.23409C13.9122 9.33906 14.0742 9.46209 14.222 9.6011C14.3206 9.68551 14.3861 9.80203 14.4067 9.92986C14.4273 10.0547 14.4083 10.1829 14.3525 10.2965C14.3371 10.3348 14.3137 10.3655 14.2983 10.396C14.2907 10.4107 14.2778 10.4223 14.2621 10.428C14.2462 10.4337 14.229 10.433 14.2136 10.4264C14.206 10.4264 14.206 10.4189 14.1985 10.4189C14.1443 10.3806 14.0901 10.3499 14.0291 10.3111C13.8089 10.1559 13.5606 10.0444 13.2981 9.98236C13.1295 9.94328 12.9559 9.93049 12.7835 9.94444C12.4318 9.9699 12.0938 10.091 11.8067 10.2944C11.6983 10.3709 11.5835 10.432 11.4679 10.5083C11.4603 10.5083 11.4603 10.5161 11.4528 10.5161C11.447 10.5152 11.4415 10.5125 11.4374 10.5083L10.7913 10.0728C10.7769 10.0647 10.7639 10.0544 10.7528 10.0424C10.7441 10.0368 10.7379 10.0282 10.7351 10.0183C10.7322 10.0085 10.7331 9.99789 10.7373 9.9886C10.7373 9.98078 10.7452 9.98078 10.7528 9.97317L10.7679 9.95786C10.9526 9.83584 11.1294 9.69775 11.3138 9.56744C11.4718 9.45218 11.6359 9.34549 11.8054 9.24782C12.003 9.13906 12.2154 9.0595 12.436 9.01167C12.5241 8.98535 12.6158 8.97069 12.7076 8.96645ZM12.3678 9.02837V7.68611C12.3692 7.63558 12.3905 7.58765 12.4274 7.55278C12.4641 7.51792 12.5134 7.49897 12.5641 7.50004H12.9549C13.0057 7.49897 13.0549 7.51792 13.0918 7.55278C13.1284 7.58765 13.1499 7.63558 13.1511 7.68611V9.00548C12.8897 8.97545 12.6251 8.98334 12.366 9.02891L12.3678 9.02837ZM15.4549 12.3134C15.4698 12.3444 15.4777 12.3784 15.4782 12.4128V13.2303C15.4712 13.5906 15.3471 13.939 15.1245 14.2235C15.0281 14.3437 14.9171 14.4515 14.7939 14.5445C14.4689 14.7965 14.1318 15.0334 13.792 15.2714L13.1149 15.7375C13.0568 15.7777 12.9914 15.8063 12.9224 15.8216C12.8302 15.8446 12.7328 15.8367 12.6456 15.7987C12.583 15.7758 12.5235 15.7451 12.4688 15.7068C11.7149 15.1952 10.961 14.6756 10.2226 14.133C9.99186 13.9649 9.76219 13.797 9.53012 13.6215C9.41605 13.539 9.33914 13.4151 9.31591 13.2769C9.30919 13.2414 9.30666 13.2051 9.30834 13.1691V12.4285C9.30938 12.4005 9.30673 12.3723 9.30048 12.3449C9.2929 12.3217 9.30834 12.2988 9.32377 12.2988C9.32377 12.3141 9.33135 12.3217 9.33135 12.337C9.34003 12.4214 9.37841 12.4997 9.43967 12.5587C9.47704 12.5985 9.5183 12.6346 9.56289 12.6664C10.3629 13.2623 11.1861 13.8428 12.0082 14.4083C12.1611 14.5159 12.3158 14.6144 12.4621 14.7138C12.5243 14.7617 12.5946 14.7981 12.6697 14.8215C12.726 14.8406 12.7856 14.8485 12.8451 14.8445C12.9044 14.8405 12.9624 14.8251 13.0158 14.7986C13.0535 14.7813 13.0897 14.761 13.1242 14.7378C13.6779 14.3474 14.232 13.957 14.7857 13.5608C15.0918 13.3411 15.3164 13.0269 15.4242 12.6671C15.4406 12.6068 15.4535 12.5454 15.4628 12.4836C15.4471 12.4283 15.4437 12.3703 15.453 12.3137L15.4549 12.3134ZM13.0069 17.4392H12.5466C12.4919 17.4388 12.4395 17.4166 12.4012 17.378C12.3627 17.3393 12.3413 17.2871 12.3414 17.2327L12.3704 15.6361C12.4107 15.5802 12.4649 15.5359 12.5276 15.5076L13.168 15.3843C13.1739 15.3842 13.18 15.3854 13.1855 15.3878C13.1911 15.39 13.1961 15.3935 13.2002 15.3976C13.2045 15.4019 13.2077 15.407 13.2101 15.4126C13.2124 15.418 13.2135 15.4241 13.2135 15.43V17.234C13.2133 17.2882 13.1917 17.3403 13.1533 17.3789C13.1149 17.4175 13.0628 17.4394 13.0082 17.44L13.0069 17.4392Z" fill="#9F9F9F"/>
</svg>
