<svg width="25" height="25" viewBox="0 0 25 25" fill="none" xmlns="http://www.w3.org/2000/svg">
<mask id="mask0_8193_836" style="mask-type:luminance" maskUnits="userSpaceOnUse" x="3" y="3" width="19" height="19">
<path d="M21.5 3.5H3.5V21.5H21.5V3.5Z" fill="white"/>
</mask>
<g mask="url(#mask0_8193_836)">
<path d="M17.0399 19.304C15.6944 20.2031 14.1125 20.683 12.4943 20.683C10.3243 20.683 8.24324 19.8209 6.70883 18.2866C5.17449 16.7522 4.3125 14.6711 4.3125 12.5012C4.3125 10.8829 4.79234 9.30109 5.69135 7.95559C6.59036 6.61009 7.86818 5.56141 9.36322 4.94215C10.8583 4.32289 12.5033 4.16085 14.0905 4.47655C15.6776 4.79225 17.1354 5.57149 18.2796 6.71575C19.424 7.85998 20.2032 9.31786 20.5188 10.905C20.8346 12.4922 20.6725 14.1372 20.0533 15.6322C19.434 17.1272 18.3854 18.4051 17.0399 19.304Z" fill="#0F0F0F"/>
<path fill-rule="evenodd" clip-rule="evenodd" d="M13.9808 5.02825C12.5027 4.73425 10.9707 4.88515 9.57848 5.46183C8.18623 6.03852 6.99625 7.01509 6.15905 8.26809C5.32184 9.52107 4.87499 10.9942 4.87499 12.5012C4.87499 14.522 5.67774 16.46 7.10658 17.8888M14.2002 3.92486C15.8964 4.26226 17.4546 5.09507 18.6774 6.31798C19.9004 7.5409 20.7333 9.09899 21.0705 10.7952C21.408 12.4916 21.2348 14.2496 20.5731 15.8474C19.9111 17.4452 18.7904 18.811 17.3524 19.7718C15.9144 20.7326 14.2238 21.2455 12.4943 21.2455C10.1752 21.2455 7.95099 20.3242 6.3111 18.6843C4.67126 17.0445 3.75 14.8202 3.75 12.5012C3.75 10.7717 4.26283 9.08108 5.22365 7.64308C6.18446 6.20507 7.55015 5.0843 9.14796 4.42246C10.7458 3.76063 12.504 3.58746 14.2002 3.92486ZM13.9808 5.02825C15.4588 5.32224 16.8163 6.0479 17.8819 7.11349L13.9808 5.02825ZM19.9671 11.0147C19.6733 9.53671 18.9475 8.17906 17.8819 7.11349L19.9671 11.0147ZM19.5336 15.4169C20.1102 14.0247 20.2612 12.4928 19.9671 11.0147L19.5336 15.4169ZM19.5336 15.4169C18.9569 16.8092 17.9804 17.9992 16.7274 18.8364C15.4743 19.6736 14.0013 20.1205 12.4943 20.1205C10.4735 20.1205 8.5355 19.3177 7.10658 17.8888" fill="#535353"/>
<g style="mix-blend-mode:multiply">
<path d="M5.21968 12.8226C5.21939 11.3363 5.65266 9.88222 6.46641 8.63847C7.28015 7.39473 8.43903 6.41537 9.80104 5.82038C11.163 5.2254 12.669 5.04064 14.1345 5.28875C15.5999 5.53686 16.9612 6.20704 18.0515 7.2172C17.3531 6.46263 16.5096 5.85676 15.5716 5.43592C14.6335 5.01508 13.6202 4.78791 12.5922 4.76803C11.5643 4.74814 10.5429 4.93595 9.58923 5.32018C8.63559 5.70444 7.76932 6.27722 7.04232 7.00422C6.31532 7.73122 5.74254 8.59749 5.35829 9.55113C4.97405 10.5048 4.78624 11.5262 4.80612 12.5541C4.82601 13.5821 5.05318 14.5954 5.47403 15.5334C5.89487 16.4715 6.50074 17.315 7.25531 18.0134C5.94474 16.6027 5.21736 14.748 5.21968 12.8226Z" fill="black"/>
</g>
<path d="M12.9885 20.352C17.0768 20.352 20.3911 16.8632 20.3911 12.5597C20.3911 8.25626 17.0768 4.76758 12.9885 4.76758C8.90019 4.76758 5.58594 8.25626 5.58594 12.5597C5.58594 16.8632 8.90019 20.352 12.9885 20.352Z" fill="black"/>
<path d="M17.8439 17.6265C20.6518 14.8293 20.6518 10.2943 17.8439 7.49723C15.0363 4.70014 10.4839 4.70014 7.67614 7.49723C4.86837 10.2943 4.86837 14.8293 7.67614 17.6265C10.4839 20.4235 15.0363 20.4235 17.8439 17.6265Z" fill="black"/>
<path d="M20.3968 12.5045C20.4037 14.5609 19.5922 16.536 18.1405 17.997C16.6887 19.4579 14.7151 20.2853 12.6524 20.298C10.5897 20.3106 8.60607 19.5074 7.13644 18.0643C5.66682 16.6213 4.83109 14.6563 4.8125 12.6V12.5045C4.8125 10.4443 5.63346 8.46839 7.09482 7.01157C8.55617 5.55475 10.5382 4.73633 12.6048 4.73633H12.7009C14.7511 4.76079 16.7089 5.58999 18.1498 7.04409C19.5905 8.49818 20.3975 10.4606 20.3968 12.5045Z" fill="#343333"/>
<path d="M18.0592 7.04179L7.08482 18.0143C5.64954 16.584 4.83352 14.6475 4.8125 12.6216V12.5263C4.8125 10.4687 5.63004 8.49533 7.08533 7.0403C8.54059 5.58529 10.5144 4.76776 12.5726 4.76758H12.6683C14.6936 4.79147 16.6291 5.60791 18.0592 7.04179Z" fill="#464646"/>
<path d="M20.3937 12.5596C20.3937 13.5829 20.203 14.5962 19.8325 15.5416C19.4618 16.487 18.9185 17.346 18.2336 18.0696C17.5487 18.7932 16.7356 19.3672 15.8407 19.7589C14.9458 20.1504 13.9867 20.352 13.0181 20.352C12.8783 20.352 12.7395 20.348 12.6016 20.3397C14.4829 20.2277 16.2523 19.3591 17.5465 17.9123C18.8409 16.4657 19.562 14.5505 19.562 12.5597C19.562 10.5691 18.8409 8.65391 17.5465 7.20718C16.2523 5.76046 14.4829 4.89191 12.6016 4.77977C12.7395 4.77164 12.8783 4.76758 13.0181 4.76758C14.9743 4.76758 16.8503 5.58851 18.2335 7.0498C19.6167 8.5111 20.3937 10.493 20.3937 12.5596Z" fill="#151520"/>
<path d="M20.3937 12.5596C20.3937 13.5829 20.203 14.5962 19.8325 15.5416C19.4618 16.487 18.9185 17.346 18.2336 18.0696C17.5487 18.7932 16.7356 19.3672 15.8407 19.7589C14.9458 20.1504 13.9867 20.352 13.0181 20.352C12.8783 20.352 12.7395 20.348 12.6016 20.3397C14.4829 20.2277 16.2523 19.3591 17.5465 17.9123C18.8409 16.4657 19.562 14.5505 19.562 12.5597C19.562 10.5691 18.8409 8.65391 17.5465 7.20718C16.2523 5.76046 14.4829 4.89191 12.6016 4.77977C12.7395 4.77164 12.8783 4.76758 13.0181 4.76758C14.9743 4.76758 16.8503 5.58851 18.2335 7.0498C19.6167 8.5111 20.3937 10.493 20.3937 12.5596Z" fill="#151520"/>
</g>
<path d="M15.0486 14.4027C15.0486 13.0303 14.2135 12.5676 12.5982 12.3461C11.4042 12.1735 11.1749 11.8933 11.1749 11.3365C11.1749 10.7798 11.5787 10.4328 12.3511 10.4328C13.0549 10.4328 13.4608 10.6778 13.6274 11.2443C13.6451 11.3064 13.6823 11.361 13.7336 11.4002C13.7847 11.4394 13.8472 11.4611 13.9116 11.462H14.5291C14.5695 11.4628 14.6095 11.4548 14.6463 11.4384C14.6833 11.422 14.716 11.3977 14.7423 11.3671C14.7688 11.3366 14.7882 11.3007 14.7991 11.2619C14.81 11.223 14.8123 11.1822 14.8056 11.1424C14.6095 10.2465 14.0058 9.70738 13.0588 9.53878V8.59387C13.0588 8.51587 13.0279 8.44108 12.9727 8.38593C12.9176 8.33078 12.8429 8.2998 12.7648 8.2998H12.1767C12.0987 8.2998 12.0239 8.33078 11.9687 8.38593C11.9136 8.44108 11.8826 8.51587 11.8826 8.59387V9.50547C10.7063 9.67014 9.9633 10.4465 9.9633 11.4423C9.9633 12.7304 10.7475 13.2303 12.3865 13.4519C13.5019 13.6341 13.8194 13.8753 13.8194 14.5085C13.8194 15.1417 13.2803 15.5671 12.5198 15.5671C11.4943 15.5671 11.1474 15.1182 11.0317 14.5359C11.0183 14.4691 10.9823 14.4089 10.93 14.3654C10.8775 14.3219 10.8117 14.2976 10.7436 14.2967H10.0731C10.0331 14.2966 9.9935 14.305 9.9571 14.3216C9.92078 14.3383 9.88851 14.3627 9.86244 14.3931C9.83654 14.4237 9.8176 14.4593 9.80684 14.4979C9.79617 14.5364 9.79402 14.5769 9.80064 14.6164C9.97116 15.5965 10.6004 16.314 11.8826 16.4866V17.4159C11.8826 17.4939 11.9136 17.5686 11.9687 17.6238C12.0239 17.679 12.0987 17.7098 12.1767 17.7098H12.7648C12.8429 17.7098 12.9176 17.679 12.9727 17.6238C13.0279 17.5686 13.0588 17.4939 13.0588 17.4159V16.4866C14.2743 16.2944 15.0486 15.4554 15.0486 14.4027Z" fill="black"/>
<path d="M15.2518 14.1029C15.2518 12.7305 14.4167 12.2678 12.8013 12.0463C11.6074 11.8737 11.378 11.5935 11.378 11.0367C11.378 10.48 11.7819 10.1329 12.5543 10.1329C13.258 10.1329 13.6639 10.378 13.8305 10.9445C13.8482 11.0066 13.8855 11.0612 13.9367 11.1004C13.9878 11.1396 14.0503 11.1613 14.1147 11.1621H14.7322C14.7726 11.163 14.8127 11.1549 14.8494 11.1386C14.8864 11.1222 14.9192 11.0979 14.9455 11.0673C14.9719 11.0368 14.9913 11.0009 15.0022 10.9621C15.0131 10.9232 15.0154 10.8824 15.0087 10.8426C14.8127 9.9467 14.2089 9.40757 13.2619 9.23898V8.29406C13.2619 8.21607 13.231 8.14128 13.1758 8.08612C13.1207 8.03098 13.046 8 12.968 8H12.3798C12.3018 8 12.227 8.03098 12.1718 8.08612C12.1167 8.14128 12.0857 8.21607 12.0857 8.29406V9.20566C10.9094 9.37034 10.1664 10.1467 10.1664 11.1425C10.1664 12.4306 10.9506 12.9305 12.5896 13.1521C13.705 13.3343 14.0226 13.5755 14.0226 14.2087C14.0226 14.8419 13.4834 15.2673 12.7229 15.2673C11.6975 15.2673 11.3505 14.8184 11.2349 14.2361C11.2214 14.1693 11.1855 14.1091 11.1331 14.0656C11.0806 14.0221 11.0149 13.9978 10.9468 13.9969H10.2762C10.2362 13.9968 10.1966 14.0052 10.1602 14.0218C10.1239 14.0385 10.0916 14.0629 10.0656 14.0933C10.0397 14.1239 10.0207 14.1595 10.01 14.1981C9.99929 14.2366 9.99714 14.2771 10.0038 14.3166C10.1743 15.2967 10.8035 16.0142 12.0857 16.1868V17.1161C12.0857 17.194 12.1167 17.2688 12.1718 17.3239C12.227 17.3792 12.3018 17.41 12.3798 17.41H12.968C13.046 17.41 13.1207 17.3792 13.1758 17.3239C13.231 17.2688 13.2619 17.194 13.2619 17.1161V16.1868C14.4774 15.9946 15.2518 15.1556 15.2518 14.1029Z" fill="#9F9F9F"/>
</svg>
