<svg width="344" height="48" viewBox="0 0 344 48" fill="none" xmlns="http://www.w3.org/2000/svg">
<path d="M327.393 4.10547H299.874C296.643 4.10547 294.023 6.72488 294.023 9.9561V37.4747C294.023 40.706 296.643 43.3254 299.874 43.3254H327.393C330.624 43.3254 333.243 40.706 333.243 37.4747V9.9561C333.243 6.72488 330.624 4.10547 327.393 4.10547Z" fill="url(#paint0_linear_765_1461)"/>
<path d="M327.393 4.10547H299.874C296.643 4.10547 294.023 6.72488 294.023 9.9561V37.4747C294.023 40.706 296.643 43.3254 299.874 43.3254H327.393C330.624 43.3254 333.243 40.706 333.243 37.4747V9.9561C333.243 6.72488 330.624 4.10547 327.393 4.10547Z" stroke="url(#paint1_linear_765_1461)" stroke-width="0.780084"/>
<path d="M33.712 30.016L38.16 13.312H42.128L35.76 36H31.792L26.288 18.848L20.784 36H16.848L10.416 13.312H14.448L18.992 29.888L24.304 13.312H28.304L33.712 30.016ZM67.7793 36H63.9073V26.304H53.2513V36H49.4112V13.312H53.2513V22.688H63.9073V13.312H67.7793V36ZM81.2878 36H77.3837V13.312H81.2878V36ZM107.175 16.928H99.7835V36H95.9435V16.928H88.5835V13.312H107.175V16.928ZM128.501 36H114.485V13.312H128.501V16.896H118.325V22.912H127.541V26.4H118.325V32.416H128.501V36ZM141.11 23.744H145.11C146.326 23.744 147.254 23.456 147.958 22.816C148.662 22.176 149.014 21.344 149.014 20.256C149.014 19.168 148.662 18.304 147.958 17.664C147.254 17.024 146.326 16.704 145.11 16.704H141.11V23.744ZM145.686 27.136H141.11V36H137.27V13.312H145.686C147.83 13.312 149.558 13.984 150.902 15.264C152.246 16.576 152.918 18.24 152.918 20.224C152.918 22.272 152.246 23.936 150.902 25.216C149.558 26.496 147.83 27.136 145.686 27.136ZM174.356 36L172.212 30.304H162.612L160.5 36H156.436L165.268 13.312H169.716L178.548 36H174.356ZM167.412 17.472L163.956 26.752H170.868L167.412 17.472ZM189.586 23.744H193.586C194.802 23.744 195.73 23.456 196.434 22.816C197.138 22.176 197.49 21.344 197.49 20.256C197.49 19.168 197.138 18.304 196.434 17.664C195.73 17.024 194.802 16.704 193.586 16.704H189.586V23.744ZM194.162 27.136H189.586V36H185.746V13.312H194.162C196.306 13.312 198.034 13.984 199.378 15.264C200.722 16.576 201.394 18.24 201.394 20.224C201.394 22.272 200.722 23.936 199.378 25.216C198.034 26.496 196.306 27.136 194.162 27.136ZM223.11 36H209.094V13.312H223.11V16.896H212.934V22.912H222.15V26.4H212.934V32.416H223.11V36ZM243.335 36L238.567 27.04H235.751V36H231.879V13.312H240.583C242.695 13.312 244.423 13.984 245.735 15.296C247.015 16.608 247.687 18.24 247.687 20.192C247.687 21.824 247.207 23.2 246.311 24.352C245.383 25.504 244.135 26.272 242.567 26.656L247.687 36H243.335ZM235.751 23.648H239.879C241.031 23.648 241.991 23.36 242.695 22.72C243.399 22.08 243.783 21.248 243.783 20.192C243.783 19.136 243.399 18.304 242.695 17.664C241.991 17.024 241.031 16.704 239.879 16.704H235.751V23.648ZM270.857 18.624L267.401 19.712C267.241 18.848 266.793 18.048 266.089 17.312C265.353 16.608 264.297 16.224 262.953 16.224C261.801 16.224 260.873 16.544 260.137 17.184C259.401 17.824 259.049 18.592 259.049 19.488C259.049 21.056 259.913 22.016 261.705 22.4L264.969 23.072C266.921 23.456 268.425 24.256 269.513 25.408C270.569 26.592 271.113 28 271.113 29.6C271.113 31.488 270.377 33.12 268.937 34.464C267.497 35.808 265.545 36.48 263.081 36.48C260.393 36.48 258.313 35.808 256.841 34.4C255.337 32.992 254.505 31.36 254.313 29.504L257.897 28.48C258.025 29.76 258.537 30.848 259.433 31.712C260.329 32.608 261.545 33.024 263.081 33.024C264.393 33.024 265.417 32.736 266.121 32.16C266.825 31.584 267.209 30.816 267.209 29.888C267.209 29.152 266.921 28.512 266.409 27.968C265.865 27.424 265.129 27.04 264.169 26.816L260.969 26.144C259.177 25.792 257.769 25.056 256.745 23.936C255.721 22.848 255.209 21.44 255.209 19.776C255.209 17.888 255.945 16.256 257.481 14.88C258.985 13.536 260.809 12.832 262.921 12.832C265.321 12.832 267.177 13.44 268.457 14.592C269.737 15.744 270.537 17.088 270.857 18.624Z" fill="#EDEDED"/>
<path fill-rule="evenodd" clip-rule="evenodd" d="M308.696 14C307.759 14 307 14.76 307 15.6964V31.3036C307 32.24 307.76 33 308.696 33H320.232C321.169 33 321.929 32.24 321.929 31.3036V24.1786C321.929 23.2787 321.571 22.4157 320.935 21.7795C320.299 21.1432 319.436 20.7857 318.536 20.7857H316.839C316.389 20.7857 315.958 20.607 315.64 20.2888C315.322 19.9707 315.143 19.5392 315.143 19.0893V17.3929C315.143 16.493 314.785 15.63 314.149 14.9937C313.513 14.3575 312.65 14 311.75 14H308.696ZM310.393 26.2143C310.393 26.0343 310.464 25.8617 310.592 25.7345C310.719 25.6072 310.891 25.5357 311.071 25.5357H317.857C318.037 25.5357 318.21 25.6072 318.337 25.7345C318.464 25.8617 318.536 26.0343 318.536 26.2143C318.536 26.3943 318.464 26.5669 318.337 26.6941C318.21 26.8214 318.037 26.8929 317.857 26.8929H311.071C310.891 26.8929 310.719 26.8214 310.592 26.6941C310.464 26.5669 310.393 26.3943 310.393 26.2143ZM311.071 28.25C310.891 28.25 310.719 28.3215 310.592 28.4487C310.464 28.576 310.393 28.7486 310.393 28.9286C310.393 29.1085 310.464 29.2811 310.592 29.4084C310.719 29.5357 310.891 29.6071 311.071 29.6071H314.464C314.644 29.6071 314.817 29.5357 314.944 29.4084C315.071 29.2811 315.143 29.1085 315.143 28.9286C315.143 28.7486 315.071 28.576 314.944 28.4487C314.817 28.3215 314.644 28.25 314.464 28.25H311.071Z" fill="url(#paint2_linear_765_1461)"/>
<path d="M315.344 14.2871C316.092 15.1493 316.503 16.2527 316.501 17.3941V19.0905C316.501 19.2778 316.653 19.4298 316.84 19.4298H318.537C319.678 19.4282 320.781 19.8392 321.644 20.587C321.246 19.073 320.453 17.692 319.346 16.5851C318.239 15.4782 316.858 14.6852 315.344 14.2871Z" fill="url(#paint3_linear_765_1461)"/>
<defs>
<linearGradient id="paint0_linear_765_1461" x1="305.781" y1="15.2951" x2="326.443" y2="59.1483" gradientUnits="userSpaceOnUse">
<stop stop-color="#14292C"/>
<stop offset="1" stop-color="#121212" stop-opacity="0"/>
</linearGradient>
<linearGradient id="paint1_linear_765_1461" x1="319.004" y1="3.79831" x2="330.003" y2="18.3619" gradientUnits="userSpaceOnUse">
<stop stop-color="#76A891" stop-opacity="0.11"/>
<stop offset="1" stop-color="#132525" stop-opacity="0.35"/>
</linearGradient>
<linearGradient id="paint2_linear_765_1461" x1="291.094" y1="-18.1591" x2="330.111" y2="-16.8087" gradientUnits="userSpaceOnUse">
<stop stop-color="#57796F"/>
<stop offset="1" stop-color="white"/>
</linearGradient>
<linearGradient id="paint3_linear_765_1461" x1="308.631" y1="3.62408" x2="325.084" y2="4.3488" gradientUnits="userSpaceOnUse">
<stop stop-color="#57796F"/>
<stop offset="1" stop-color="white"/>
</linearGradient>
</defs>
</svg>
