<svg width="758" height="690" viewBox="0 0 758 690" fill="none" xmlns="http://www.w3.org/2000/svg">
<path d="M608.749 8.35059H128.107C109.055 8.35059 93.6094 23.7959 93.6094 42.8486V652.502C93.6094 671.555 109.055 687 128.107 687H608.749C627.803 687 643.247 671.555 643.247 652.502V42.8486C643.247 23.7959 627.803 8.35059 608.749 8.35059Z" fill="url(#paint0_linear_958_32)"/>
<path d="M532.768 65.7565L535.22 59.4636H534.1L532.272 64.41L530.429 59.4636H529.281L531.719 65.7565H532.768ZM540.638 63.8714C540.468 64.5801 539.887 64.9769 539.107 64.9769C538.044 64.9769 537.293 64.1549 537.279 62.8084H541.729V62.4258C541.729 60.5974 540.808 59.336 539.079 59.336C537.364 59.336 536.216 60.7392 536.216 62.6242C536.216 64.5659 537.392 65.884 539.107 65.884C540.525 65.884 541.418 65.062 541.644 63.8714H540.638ZM539.093 60.2431C540.142 60.2431 540.638 61.0651 540.652 62.0006H537.307C537.463 60.8951 538.143 60.2431 539.093 60.2431ZM546.732 59.4352C546.619 59.3785 546.392 59.336 546.123 59.336C545.429 59.336 544.833 59.747 544.564 60.2856V59.4636H543.501V65.7565H544.564V61.5329C544.777 60.7958 545.358 60.3565 546.024 60.3565C546.293 60.3565 546.562 60.4132 546.732 60.5266V59.4352ZM547.843 64.0273C548.042 65.1895 549.048 65.884 550.423 65.884C551.769 65.884 552.762 65.1754 552.762 63.9848C552.762 63.1061 552.237 62.5108 551.16 62.2273L549.941 61.9297C549.346 61.7596 549.062 61.5612 549.062 61.136C549.062 60.5266 549.643 60.2289 550.267 60.2289C551.032 60.2289 551.472 60.5549 551.656 61.1218H552.719C552.492 60.0163 551.67 59.336 550.281 59.336C549.006 59.336 548.028 60.073 548.028 61.1927C548.028 62.1706 548.651 62.6242 549.544 62.851L550.792 63.1769C551.444 63.347 551.727 63.6163 551.727 64.0557C551.727 64.6935 551.188 64.9911 550.437 64.9911C549.7 64.9911 549.147 64.6793 548.949 64.0273H547.843ZM555.654 59.4636H554.591V65.7565H555.654V59.4636ZM555.81 57.5643C555.81 57.1817 555.498 56.884 555.115 56.884C554.747 56.884 554.435 57.1817 554.435 57.5643C554.435 57.9329 554.747 58.2447 555.115 58.2447C555.498 58.2447 555.81 57.9329 555.81 57.5643ZM563.236 62.61C563.236 60.6825 562.06 59.336 560.345 59.336C558.616 59.336 557.454 60.6825 557.454 62.61C557.454 64.5376 558.616 65.884 560.345 65.884C562.06 65.884 563.236 64.5376 563.236 62.61ZM562.159 62.61C562.159 63.9848 561.479 64.9486 560.345 64.9486C559.211 64.9486 558.531 63.9848 558.531 62.61C558.531 61.2352 559.211 60.2714 560.345 60.2714C561.479 60.2714 562.159 61.2352 562.159 62.61ZM565.029 65.7565H566.092V61.4903C566.319 60.81 566.957 60.314 567.694 60.314C568.643 60.314 569.083 60.9234 569.083 61.8021V65.7565H570.16V61.6321C570.16 60.2573 569.381 59.336 567.949 59.336C567.141 59.336 566.461 59.7612 566.092 60.2573V59.4636H565.029V65.7565ZM571.822 65.062C571.822 65.5014 572.162 65.8273 572.588 65.8273C572.999 65.8273 573.339 65.5014 573.339 65.062C573.339 64.6226 572.999 64.2825 572.588 64.2825C572.162 64.2825 571.822 64.6226 571.822 65.062ZM571.822 60.6116C571.822 61.051 572.162 61.3769 572.588 61.3769C572.999 61.3769 573.339 61.051 573.339 60.6116C573.339 60.1722 572.999 59.8321 572.588 59.8321C572.162 59.8321 571.822 60.1722 571.822 60.6116ZM581.228 57.0399H580.562L577.982 58.358V59.4919L580.136 58.3864V65.7565H581.228V57.0399ZM583.1 65.062C583.1 65.5014 583.44 65.8273 583.866 65.8273C584.277 65.8273 584.617 65.5014 584.617 65.062C584.617 64.6226 584.277 64.2825 583.866 64.2825C583.44 64.2825 583.1 64.6226 583.1 65.062ZM588.807 65.884C590.748 65.884 592.052 64.0557 592.052 61.4053C592.052 58.7549 590.748 56.9266 588.807 56.9266C586.865 56.9266 585.561 58.7549 585.561 61.4053C585.561 64.0557 586.865 65.884 588.807 65.884ZM588.807 57.9329C590.21 57.9329 590.961 59.3785 590.961 61.4053C590.961 63.4321 590.21 64.8777 588.807 64.8777C587.389 64.8777 586.652 63.4321 586.652 61.4053C586.652 59.3785 587.389 57.9329 588.807 57.9329ZM592.999 65.062C592.999 65.5014 593.34 65.8273 593.765 65.8273C594.176 65.8273 594.516 65.5014 594.516 65.062C594.516 64.6226 594.176 64.2825 593.765 64.2825C593.34 64.2825 592.999 64.6226 592.999 65.062ZM598.706 65.884C600.647 65.884 601.951 64.0557 601.951 61.4053C601.951 58.7549 600.647 56.9266 598.706 56.9266C596.764 56.9266 595.46 58.7549 595.46 61.4053C595.46 64.0557 596.764 65.884 598.706 65.884ZM598.706 57.9329C600.109 57.9329 600.86 59.3785 600.86 61.4053C600.86 63.4321 600.109 64.8777 598.706 64.8777C597.288 64.8777 596.551 63.4321 596.551 61.4053C596.551 59.3785 597.288 57.9329 598.706 57.9329Z" fill="#4F4F4F"/>
<path d="M94.6526 573.845L94.8017 555.26M85.1875 576.29L85.2831 536.087M85.317 473V522.655" stroke="#646464" stroke-width="2" stroke-linecap="round"/>
<path d="M85.3711 461V37.0712C85.3711 17.1491 102.073 1 122.678 1H193.562M652.437 227.347V37.0712C652.437 17.1491 635.736 1 615.13 1H256.983M213.147 1H231.801" stroke="#646464" stroke-width="2" stroke-linecap="round"/>
<path d="M652.602 652V248.617" stroke="#646464" stroke-width="2" stroke-linecap="round"/>
<path d="M73 298.959V181.725M73 73.1511V160.985" stroke="#00D395" stroke-width="2" stroke-linecap="round"/>
<g filter="url(#filter0_d_958_32)">
<path d="M43.9272 687C65.0545 687 77.813 670.921 77.854 643.233C77.895 615.751 64.9725 600 43.9272 600C22.8409 600 10.0414 615.71 10.0004 643.233C9.91834 670.839 22.7588 686.959 43.9272 687ZM43.9272 672.274C34.2866 672.274 28.0509 662.594 28.0919 643.233C28.133 624.16 34.3276 614.562 43.9272 614.562C53.4858 614.562 59.7214 624.16 59.7214 643.233C59.7624 662.594 53.5268 672.274 43.9272 672.274Z" fill="#2D2D2D" fill-opacity="0.4" shape-rendering="crispEdges"/>
<path d="M122.73 686.303C141.602 686.303 155.098 675.925 155.057 661.569C155.098 651.109 148.452 643.644 136.104 642.085V641.429C145.499 639.747 151.981 633.102 151.94 623.668C151.981 610.419 140.371 600 122.977 600C105.747 600 92.783 610.091 92.5369 624.611H109.562C109.767 618.212 115.633 614.069 122.895 614.069C130.074 614.069 134.874 618.417 134.833 624.734C134.874 631.338 129.253 635.809 121.172 635.809H113.336V648.853H121.172C130.689 648.853 136.638 653.611 136.597 660.379C136.638 667.065 130.894 671.659 122.772 671.659C114.936 671.659 109.07 667.557 108.741 661.405H90.8549C91.1421 676.089 104.27 686.303 122.73 686.303Z" fill="#2D2D2D" fill-opacity="0.4" shape-rendering="crispEdges"/>
<path d="M176.991 686.221C182.242 686.221 186.796 681.832 186.837 676.376C186.796 671.003 182.242 666.614 176.991 666.614C171.576 666.614 167.104 671.003 167.145 676.376C167.104 681.832 171.576 686.221 176.991 686.221Z" fill="#2D2D2D" fill-opacity="0.4" shape-rendering="crispEdges"/>
<path d="M43.9262 687.5H43.9272C54.6309 687.5 63.2535 683.42 69.1922 675.807C75.1184 668.21 78.3334 657.147 78.354 643.234C78.3746 629.422 75.1383 618.49 69.1895 611C63.229 603.495 54.5864 599.5 43.9272 599.5C33.2479 599.5 24.6254 603.485 18.68 610.985C12.7468 618.469 9.52106 629.401 9.50039 643.232C9.45922 657.105 12.6641 668.159 18.6008 675.761C24.5496 683.379 33.2025 687.479 43.9262 687.5ZM59.2214 643.233V643.234C59.2418 652.873 57.6976 660.034 55.0049 664.767C52.3274 669.473 48.523 671.774 43.9272 671.774C39.31 671.774 35.4956 669.472 32.8133 664.767C30.1157 660.034 28.5715 652.873 28.5919 643.234C28.6124 633.739 30.1664 626.671 32.8584 621.994C35.5351 617.344 39.3294 615.062 43.9272 615.062C48.504 615.062 52.2985 617.344 54.9754 621.994C57.6674 626.671 59.2214 633.739 59.2214 643.233ZM92.0369 624.603L92.0283 625.111H92.5369H109.562H110.046L110.062 624.627C110.255 618.599 115.789 614.569 122.895 614.569C126.384 614.569 129.253 615.625 131.237 617.405C133.217 619.181 134.352 621.707 134.333 624.731L134.333 624.737C134.352 627.883 133.029 630.509 130.734 632.359C128.431 634.216 125.124 635.309 121.172 635.309H113.336H112.836V635.809V648.853V649.353H113.336H121.172C125.852 649.353 129.603 650.523 132.166 652.476C134.717 654.42 136.116 657.155 136.097 660.376L136.097 660.382C136.116 663.568 134.763 666.246 132.43 668.138C130.09 670.036 126.742 671.159 122.772 671.159C115.071 671.159 109.549 667.152 109.241 661.378L109.215 660.905H108.741H90.8549H90.345L90.355 661.414C90.6494 676.47 104.109 686.803 122.73 686.803C141.744 686.803 155.598 676.318 155.557 661.569C155.578 656.229 153.889 651.619 150.589 648.145C147.469 644.859 142.943 642.628 137.159 641.728C146.232 639.737 152.48 633.053 152.44 623.667C152.48 610.063 140.56 599.5 122.977 599.5C105.574 599.5 92.2892 609.719 92.0369 624.603ZM187.337 676.38L187.337 676.372C187.294 670.72 182.512 666.114 176.991 666.114C171.309 666.114 166.604 670.718 166.645 676.376C166.604 682.114 171.306 686.721 176.991 686.721C182.515 686.721 187.294 682.112 187.337 676.38Z" stroke="#203C2F" stroke-opacity="0.52" shape-rendering="crispEdges"/>
</g>
<line x1="135.998" y1="528.5" x2="595.997" y2="526.419" stroke="#3B3A3A"/>
<line x1="210.992" y1="167.541" x2="329.011" y2="167.541" stroke="#3B3A3A"/>
<path d="M140.752 551H137.212V542.252H140.752C143.356 542.252 144.424 543.752 144.424 546.632C144.424 549.524 143.344 551 140.752 551ZM138.304 543.248V550.004H140.74C142.468 550.004 143.272 549.212 143.272 547.352V545.912C143.272 544.028 142.432 543.248 140.74 543.248H138.304ZM147.041 543.572H146.009V542.204H147.041V543.572ZM147.041 551H146.009V544.736H147.041V551ZM149.258 543.572V542.204H150.278V543.572H149.258ZM149.258 552.164V544.736H150.278V552.08C150.278 552.272 150.266 552.38 150.158 552.62C150.062 552.86 149.774 553.004 149.342 553.004H147.878V552.164H149.258ZM154.691 544.616C156.407 544.616 157.475 545.696 157.475 547.436C157.475 547.676 157.463 547.892 157.439 548.084H152.819V548.444C152.819 549.548 153.575 550.28 154.727 550.28C155.603 550.28 156.275 549.824 156.479 549.116H157.511C157.379 549.728 157.067 550.208 156.551 550.58C156.035 550.94 155.423 551.12 154.703 551.12C152.879 551.12 151.751 549.86 151.751 547.844C151.751 545.828 152.879 544.616 154.691 544.616ZM152.819 547.148V547.316H156.443V547.076C156.443 546.104 155.735 545.456 154.691 545.456C153.587 545.456 152.819 546.14 152.819 547.148ZM160.371 545.6V550.136H161.691V551H160.251C159.639 551 159.339 550.712 159.339 550.124V545.6H158.199V544.736H159.339V542.66H160.371V544.736H161.679V545.6H160.371ZM162.684 549.104H163.716C163.716 549.836 164.316 550.304 165.24 550.304C166.116 550.304 166.644 549.92 166.644 549.26C166.644 548.792 166.368 548.504 165.816 548.396L164.472 548.144C163.356 547.94 162.804 547.388 162.804 546.488C162.804 545.324 163.728 544.616 165.168 544.616C166.656 544.616 167.556 545.372 167.568 546.524H166.536C166.512 545.792 166.056 545.42 165.168 545.42C164.316 545.42 163.848 545.792 163.848 546.38C163.848 546.716 163.992 546.956 164.244 547.088C164.496 547.196 164.604 547.232 164.856 547.28L166.092 547.508C167.184 547.7 167.736 548.264 167.736 549.2C167.736 550.4 166.764 551.12 165.24 551.12C163.656 551.12 162.684 550.316 162.684 549.104ZM173.331 542.252V551H172.239V542.252H173.331ZM176.631 551H175.587V544.736H176.499L176.631 545.9H176.715C177.099 545.096 177.879 544.616 178.827 544.616C180.183 544.616 180.999 545.6 180.999 547.148V551H179.955V547.256C179.955 546.116 179.463 545.54 178.479 545.54C177.375 545.54 176.631 546.416 176.631 547.724V551ZM187.217 548.864H188.249C188.045 550.256 186.989 551.12 185.465 551.12C184.541 551.12 183.809 550.832 183.281 550.244C182.753 549.656 182.489 548.876 182.489 547.88C182.489 546.86 182.765 546.056 183.317 545.48C183.869 544.904 184.601 544.616 185.501 544.616C186.953 544.616 188.009 545.468 188.213 546.776H187.181C186.977 545.924 186.317 545.492 185.453 545.492C184.337 545.492 183.557 546.296 183.557 547.448V548.396C183.557 549.512 184.313 550.256 185.453 550.256C186.377 550.256 187.061 549.716 187.217 548.864ZM190.882 551H189.538V549.488H190.882V551Z" fill="#525252"/>
<path d="M467.752 551H464.212V542.252H467.752C470.356 542.252 471.424 543.752 471.424 546.632C471.424 549.524 470.344 551 467.752 551ZM465.304 543.248V550.004H467.74C469.468 550.004 470.272 549.212 470.272 547.352V545.912C470.272 544.028 469.432 543.248 467.74 543.248H465.304ZM474.041 543.572H473.009V542.204H474.041V543.572ZM474.041 551H473.009V544.736H474.041V551ZM475.586 549.104H476.618C476.618 549.836 477.218 550.304 478.142 550.304C479.018 550.304 479.546 549.92 479.546 549.26C479.546 548.792 479.27 548.504 478.718 548.396L477.374 548.144C476.258 547.94 475.706 547.388 475.706 546.488C475.706 545.324 476.63 544.616 478.07 544.616C479.558 544.616 480.458 545.372 480.47 546.524H479.438C479.414 545.792 478.958 545.42 478.07 545.42C477.218 545.42 476.75 545.792 476.75 546.38C476.75 546.716 476.894 546.956 477.146 547.088C477.398 547.196 477.506 547.232 477.758 547.28L478.994 547.508C480.086 547.7 480.638 548.264 480.638 549.2C480.638 550.4 479.666 551.12 478.142 551.12C476.558 551.12 475.586 550.316 475.586 549.104ZM483.121 544.736H485.293V545.6H483.217V551H482.173V545.66C482.173 545.048 482.485 544.736 483.121 544.736ZM490.697 544.736H491.741V551H490.853L490.709 549.836H490.613C490.277 550.616 489.461 551.12 488.489 551.12C487.193 551.12 486.413 550.256 486.413 548.732V544.736H487.445V548.588C487.445 549.692 487.913 550.244 488.837 550.244C489.977 550.244 490.697 549.344 490.697 548.012V544.736ZM494.877 553.004H493.833V544.736H494.769L494.877 545.84H494.949C495.369 545.06 496.173 544.616 497.193 544.616C498.825 544.616 499.797 545.792 499.797 547.82C499.797 549.872 498.825 551.036 497.193 551.036C496.137 551.036 495.345 550.58 494.949 549.812H494.877V553.004ZM496.905 550.16C498.021 550.16 498.729 549.5 498.729 548.456V547.196C498.729 546.152 498.021 545.48 496.905 545.48C495.693 545.48 494.877 546.272 494.877 547.436V548.216C494.877 549.38 495.693 550.16 496.905 550.16ZM502.652 545.6V550.136H503.972V551H502.532C501.92 551 501.62 550.712 501.62 550.124V545.6H500.48V544.736H501.62V542.66H502.652V544.736H503.96V545.6H502.652ZM507.79 547.868C507.79 546.86 508.066 546.068 508.618 545.492C509.17 544.904 509.902 544.616 510.802 544.616C511.702 544.616 512.434 544.904 512.974 545.48C513.526 546.056 513.802 546.848 513.802 547.868C513.802 549.848 512.686 551.12 510.802 551.12C509.866 551.12 509.134 550.832 508.594 550.244C508.054 549.656 507.79 548.864 507.79 547.868ZM508.858 547.412V548.384C508.858 549.572 509.698 550.256 510.802 550.256C511.918 550.256 512.746 549.548 512.746 548.384V547.412C512.746 546.26 511.942 545.492 510.802 545.492C510.238 545.492 509.77 545.672 509.398 546.032C509.038 546.38 508.858 546.848 508.858 547.412ZM516.332 544.736H518.504V545.6H516.428V551H515.384V545.66C515.384 545.048 515.696 544.736 516.332 544.736ZM523.457 551H522.509V542.204H523.553V545.936H523.625C523.961 545.132 524.813 544.616 525.809 544.616C527.549 544.616 528.461 545.84 528.461 547.892C528.461 549.956 527.489 551.12 525.749 551.12C524.825 551.12 523.997 550.664 523.625 549.908H523.553L523.457 551ZM523.553 547.484V548.3C523.553 548.864 523.745 549.332 524.117 549.704C524.501 550.076 524.993 550.256 525.581 550.256C526.697 550.256 527.405 549.584 527.405 548.54V547.244C527.405 546.176 526.697 545.492 525.581 545.492C524.993 545.492 524.501 545.684 524.117 546.056C523.745 546.428 523.553 546.896 523.553 547.484ZM532.585 544.616C534.301 544.616 535.369 545.696 535.369 547.436C535.369 547.676 535.357 547.892 535.333 548.084H530.713V548.444C530.713 549.548 531.469 550.28 532.621 550.28C533.497 550.28 534.169 549.824 534.373 549.116H535.405C535.273 549.728 534.961 550.208 534.445 550.58C533.929 550.94 533.317 551.12 532.597 551.12C530.773 551.12 529.645 549.86 529.645 547.844C529.645 545.828 530.773 544.616 532.585 544.616ZM530.713 547.148V547.316H534.337V547.076C534.337 546.104 533.629 545.456 532.585 545.456C531.481 545.456 530.713 546.14 530.713 547.148ZM543.49 551H539.95V542.252H543.49C546.094 542.252 547.162 543.752 547.162 546.632C547.162 549.524 546.082 551 543.49 551ZM541.042 543.248V550.004H543.478C545.206 550.004 546.01 549.212 546.01 547.352V545.912C546.01 544.028 545.17 543.248 543.478 543.248H541.042ZM549.779 543.572H548.747V542.204H549.779V543.572ZM549.779 551H548.747V544.736H549.779V551ZM551.324 549.104H552.356C552.356 549.836 552.956 550.304 553.88 550.304C554.756 550.304 555.284 549.92 555.284 549.26C555.284 548.792 555.008 548.504 554.456 548.396L553.112 548.144C551.996 547.94 551.444 547.388 551.444 546.488C551.444 545.324 552.368 544.616 553.808 544.616C555.296 544.616 556.196 545.372 556.208 546.524H555.176C555.152 545.792 554.696 545.42 553.808 545.42C552.956 545.42 552.488 545.792 552.488 546.38C552.488 546.716 552.632 546.956 552.884 547.088C553.136 547.196 553.244 547.232 553.496 547.28L554.732 547.508C555.824 547.7 556.376 548.264 556.376 549.2C556.376 550.4 555.404 551.12 553.88 551.12C552.296 551.12 551.324 550.316 551.324 549.104ZM558.859 544.736H561.031V545.6H558.955V551H557.911V545.66C557.911 545.048 558.223 544.736 558.859 544.736ZM566.435 544.736H567.479V551H566.591L566.447 549.836H566.351C566.015 550.616 565.199 551.12 564.227 551.12C562.931 551.12 562.151 550.256 562.151 548.732V544.736H563.183V548.588C563.183 549.692 563.651 550.244 564.575 550.244C565.715 550.244 566.435 549.344 566.435 548.012V544.736ZM570.615 553.004H569.571V544.736H570.507L570.615 545.84H570.687C571.107 545.06 571.911 544.616 572.931 544.616C574.563 544.616 575.535 545.792 575.535 547.82C575.535 549.872 574.563 551.036 572.931 551.036C571.875 551.036 571.083 550.58 570.687 549.812H570.615V553.004ZM572.643 550.16C573.759 550.16 574.467 549.5 574.467 548.456V547.196C574.467 546.152 573.759 545.48 572.643 545.48C571.431 545.48 570.615 546.272 570.615 547.436V548.216C570.615 549.38 571.431 550.16 572.643 550.16ZM578.391 545.6V550.136H579.711V551H578.271C577.659 551 577.359 550.712 577.359 550.124V545.6H576.219V544.736H577.359V542.66H578.391V544.736H579.699V545.6H578.391ZM583.597 544.616C585.313 544.616 586.381 545.696 586.381 547.436C586.381 547.676 586.369 547.892 586.345 548.084H581.725V548.444C581.725 549.548 582.481 550.28 583.633 550.28C584.509 550.28 585.181 549.824 585.385 549.116H586.417C586.285 549.728 585.973 550.208 585.457 550.58C584.941 550.94 584.329 551.12 583.609 551.12C581.785 551.12 580.657 549.86 580.657 547.844C580.657 545.828 581.785 544.616 583.597 544.616ZM581.725 547.148V547.316H585.349V547.076C585.349 546.104 584.641 545.456 583.597 545.456C582.493 545.456 581.725 546.14 581.725 547.148ZM590.198 551.12C588.566 551.12 587.594 549.944 587.594 547.916C587.594 545.864 588.566 544.7 590.198 544.7C591.254 544.7 592.046 545.156 592.442 545.924H592.514V542.204H593.558V551H592.622L592.514 549.908H592.442C592.01 550.712 591.266 551.12 590.198 551.12ZM590.486 550.256C591.698 550.256 592.514 549.464 592.514 548.3V547.52C592.514 546.356 591.698 545.576 590.486 545.576C589.37 545.576 588.662 546.236 588.662 547.28V548.54C588.662 549.584 589.37 550.256 590.486 550.256Z" fill="#525252"/>
<path d="M128.12 258.504H141.176V260.472H135.752V276H133.592V260.472H128.12V258.504ZM139.978 269.736C139.978 267.72 140.53 266.136 141.634 264.984C142.738 263.808 144.202 263.232 146.002 263.232C147.802 263.232 149.266 263.808 150.346 264.96C151.45 266.112 152.002 267.696 152.002 269.736C152.002 273.696 149.77 276.24 146.002 276.24C144.13 276.24 142.666 275.664 141.586 274.488C140.506 273.312 139.978 271.728 139.978 269.736ZM142.114 268.824V270.768C142.114 273.144 143.794 274.512 146.002 274.512C148.234 274.512 149.89 273.096 149.89 270.768V268.824C149.89 266.52 148.282 264.984 146.002 264.984C144.874 264.984 143.938 265.344 143.194 266.064C142.474 266.76 142.114 267.696 142.114 268.824ZM165.942 276H163.566L159.438 269.808L157.254 272.016V276H155.166V258.408H157.254V269.424L163.038 263.472H165.702L160.878 268.368L165.942 276ZM172.811 263.232C176.243 263.232 178.379 265.392 178.379 268.872C178.379 269.352 178.355 269.784 178.307 270.168H169.067V270.888C169.067 273.096 170.579 274.56 172.883 274.56C174.635 274.56 175.979 273.648 176.387 272.232H178.451C178.187 273.456 177.563 274.416 176.531 275.16C175.499 275.88 174.275 276.24 172.835 276.24C169.187 276.24 166.931 273.72 166.931 269.688C166.931 265.656 169.187 263.232 172.811 263.232ZM169.067 268.296V268.632H176.315V268.152C176.315 266.208 174.899 264.912 172.811 264.912C170.603 264.912 169.067 266.28 169.067 268.296ZM183.692 276H181.604V263.472H183.428L183.692 265.8H183.86C184.628 264.192 186.188 263.232 188.084 263.232C190.796 263.232 192.428 265.2 192.428 268.296V276H190.34V268.512C190.34 266.232 189.356 265.08 187.388 265.08C185.18 265.08 183.692 266.832 183.692 269.448V276ZM214.017 276H202.377V258.504H214.017V260.496H204.561V266.04H212.841V267.936H204.561V274.008H214.017V276ZM225.559 271.728H227.623C227.215 274.512 225.103 276.24 222.055 276.24C220.207 276.24 218.743 275.664 217.687 274.488C216.631 273.312 216.103 271.752 216.103 269.76C216.103 267.72 216.655 266.112 217.759 264.96C218.863 263.808 220.327 263.232 222.127 263.232C225.031 263.232 227.143 264.936 227.551 267.552H225.487C225.079 265.848 223.759 264.984 222.031 264.984C219.799 264.984 218.239 266.592 218.239 268.896V270.792C218.239 273.024 219.751 274.512 222.031 274.512C223.879 274.512 225.247 273.432 225.559 271.728ZM229.65 269.736C229.65 267.72 230.202 266.136 231.306 264.984C232.41 263.808 233.874 263.232 235.674 263.232C237.474 263.232 238.938 263.808 240.018 264.96C241.122 266.112 241.674 267.696 241.674 269.736C241.674 273.696 239.442 276.24 235.674 276.24C233.802 276.24 232.338 275.664 231.258 274.488C230.178 273.312 229.65 271.728 229.65 269.736ZM231.786 268.824V270.768C231.786 273.144 233.466 274.512 235.674 274.512C237.906 274.512 239.562 273.096 239.562 270.768V268.824C239.562 266.52 237.954 264.984 235.674 264.984C234.546 264.984 233.61 265.344 232.866 266.064C232.146 266.76 231.786 267.696 231.786 268.824ZM246.926 276H244.838V263.472H246.662L246.926 265.8H247.094C247.862 264.192 249.422 263.232 251.318 263.232C254.03 263.232 255.662 265.2 255.662 268.296V276H253.574V268.512C253.574 266.232 252.59 265.08 250.622 265.08C248.414 265.08 246.926 266.832 246.926 269.448V276ZM258.642 269.736C258.642 267.72 259.194 266.136 260.298 264.984C261.402 263.808 262.866 263.232 264.666 263.232C266.466 263.232 267.93 263.808 269.01 264.96C270.114 266.112 270.666 267.696 270.666 269.736C270.666 273.696 268.434 276.24 264.666 276.24C262.794 276.24 261.33 275.664 260.25 274.488C259.17 273.312 258.642 271.728 258.642 269.736ZM260.778 268.824V270.768C260.778 273.144 262.458 274.512 264.666 274.512C266.898 274.512 268.554 273.096 268.554 270.768V268.824C268.554 266.52 266.946 264.984 264.666 264.984C263.538 264.984 262.602 265.344 261.858 266.064C261.138 266.76 260.778 267.696 260.778 268.824ZM275.918 276H273.83V263.472H275.63L275.894 265.8H276.086C276.83 264.096 278.102 263.232 279.95 263.232C281.798 263.232 283.142 264.336 283.622 265.968H283.814C284.558 264.144 286.022 263.232 287.918 263.232C290.534 263.232 292.094 265.032 292.094 268.176V276H290.006V268.44C290.006 266.136 289.094 264.984 287.27 264.984C285.182 264.984 284.006 266.688 284.006 269.352V276H281.942V268.488C281.942 266.16 281.03 264.984 279.23 264.984C277.214 264.984 275.918 266.736 275.918 269.328V276ZM298.136 261.144H296.072V258.408H298.136V261.144ZM298.136 276H296.072V263.472H298.136V276ZM310.731 271.728H312.795C312.387 274.512 310.275 276.24 307.227 276.24C305.379 276.24 303.915 275.664 302.859 274.488C301.803 273.312 301.275 271.752 301.275 269.76C301.275 267.72 301.827 266.112 302.931 264.96C304.035 263.808 305.499 263.232 307.299 263.232C310.203 263.232 312.315 264.936 312.723 267.552H310.659C310.251 265.848 308.931 264.984 307.203 264.984C304.971 264.984 303.411 266.592 303.411 268.896V270.792C303.411 273.024 304.923 274.512 307.203 274.512C309.051 274.512 310.419 273.432 310.731 271.728ZM314.774 272.208H316.838C316.838 273.672 318.038 274.608 319.886 274.608C321.638 274.608 322.694 273.84 322.694 272.52C322.694 271.584 322.142 271.008 321.038 270.792L318.35 270.288C316.118 269.88 315.014 268.776 315.014 266.976C315.014 264.648 316.862 263.232 319.742 263.232C322.718 263.232 324.518 264.744 324.542 267.048H322.478C322.43 265.584 321.518 264.84 319.742 264.84C318.038 264.84 317.102 265.584 317.102 266.76C317.102 267.432 317.39 267.912 317.894 268.176C318.398 268.392 318.614 268.464 319.118 268.56L321.59 269.016C323.774 269.4 324.878 270.528 324.878 272.4C324.878 274.8 322.934 276.24 319.886 276.24C316.718 276.24 314.774 274.632 314.774 272.208ZM332.517 269.736C332.517 267.72 333.069 266.136 334.173 264.984C335.277 263.808 336.741 263.232 338.541 263.232C340.341 263.232 341.805 263.808 342.885 264.96C343.989 266.112 344.541 267.696 344.541 269.736C344.541 273.696 342.309 276.24 338.541 276.24C336.669 276.24 335.205 275.664 334.125 274.488C333.045 273.312 332.517 271.728 332.517 269.736ZM334.653 268.824V270.768C334.653 273.144 336.333 274.512 338.541 274.512C340.773 274.512 342.429 273.096 342.429 270.768V268.824C342.429 266.52 340.821 264.984 338.541 264.984C337.413 264.984 336.477 265.344 335.733 266.064C335.013 266.76 334.653 267.696 334.653 268.824ZM353.705 260.112H350.465V263.472H353.177V265.2H350.465V276H348.401V265.2H345.953V263.472H348.401V260.136C348.401 258.984 349.073 258.408 350.393 258.408H353.705V260.112ZM369.137 276H362.057V258.504H369.137C374.345 258.504 376.481 261.504 376.481 267.264C376.481 273.048 374.321 276 369.137 276ZM364.241 260.496V274.008H369.113C372.569 274.008 374.177 272.424 374.177 268.704V265.824C374.177 262.056 372.497 260.496 369.113 260.496H364.241ZM381.715 261.144H379.651V258.408H381.715V261.144ZM381.715 276H379.651V263.472H381.715V276ZM386.149 261.144V258.408H388.189V261.144H386.149ZM386.149 278.328V263.472H388.189V278.16C388.189 278.544 388.165 278.76 387.949 279.24C387.757 279.72 387.181 280.008 386.317 280.008H383.389V278.328H386.149ZM397.014 263.232C400.446 263.232 402.582 265.392 402.582 268.872C402.582 269.352 402.558 269.784 402.51 270.168H393.27V270.888C393.27 273.096 394.782 274.56 397.086 274.56C398.838 274.56 400.182 273.648 400.59 272.232H402.654C402.39 273.456 401.766 274.416 400.734 275.16C399.702 275.88 398.478 276.24 397.038 276.24C393.39 276.24 391.134 273.72 391.134 269.688C391.134 265.656 393.39 263.232 397.014 263.232ZM393.27 268.296V268.632H400.518V268.152C400.518 266.208 399.102 264.912 397.014 264.912C394.806 264.912 393.27 266.28 393.27 268.296ZM408.375 265.2V274.272H411.015V276H408.135C406.911 276 406.311 275.424 406.311 274.248V265.2H404.031V263.472H406.311V259.32H408.375V263.472H410.991V265.2H408.375ZM413 272.208H415.064C415.064 273.672 416.264 274.608 418.112 274.608C419.864 274.608 420.92 273.84 420.92 272.52C420.92 271.584 420.368 271.008 419.264 270.792L416.576 270.288C414.344 269.88 413.24 268.776 413.24 266.976C413.24 264.648 415.088 263.232 417.968 263.232C420.944 263.232 422.744 264.744 422.768 267.048H420.704C420.656 265.584 419.744 264.84 417.968 264.84C416.264 264.84 415.328 265.584 415.328 266.76C415.328 267.432 415.616 267.912 416.12 268.176C416.624 268.392 416.84 268.464 417.344 268.56L419.816 269.016C422 269.4 423.104 270.528 423.104 272.4C423.104 274.8 421.16 276.24 418.112 276.24C414.944 276.24 413 274.632 413 272.208ZM433.864 276H431.776V263.472H433.6L433.864 265.8H434.032C434.8 264.192 436.36 263.232 438.256 263.232C440.968 263.232 442.6 265.2 442.6 268.296V276H440.512V268.512C440.512 266.232 439.528 265.08 437.56 265.08C435.352 265.08 433.864 266.832 433.864 269.448V276ZM445.555 272.4C445.555 269.928 447.259 268.536 450.115 268.536H453.883V267.576C453.883 265.776 452.947 264.888 451.051 264.888C449.203 264.888 448.195 265.776 448.123 267.216H446.083C446.203 264.72 448.123 263.232 451.171 263.232C452.827 263.232 454.123 263.784 454.771 264.456C455.083 264.792 455.347 265.176 455.539 265.632C455.923 266.52 455.947 267.048 455.947 267.624V274.464H457.795V276H455.659C454.507 276 454.099 275.52 454.027 274.584L454.003 273.936H453.859C453.307 275.352 451.627 276.24 449.587 276.24C447.067 276.24 445.555 274.728 445.555 272.4ZM447.691 271.872V272.64C447.691 273.888 448.627 274.56 450.067 274.56C452.395 274.56 453.883 273.024 453.883 270.72V270.048H450.307C448.651 270.048 447.691 270.792 447.691 271.872ZM468.412 261.36V258.624H470.476V261.36H468.412ZM462.844 263.472H470.476V276H468.412V265.2H462.844V274.272H465.436V276H462.7C461.355 276 460.828 275.376 460.804 274.152V265.2H458.5V263.472H460.804V259.32H462.844V263.472ZM477.115 276L472.555 263.472H474.835L477.043 270.144L478.267 273.864H478.411L479.563 270.144L481.771 263.472H484.051L479.587 276H477.115ZM490.928 263.232C494.36 263.232 496.496 265.392 496.496 268.872C496.496 269.352 496.472 269.784 496.424 270.168H487.184V270.888C487.184 273.096 488.696 274.56 491 274.56C492.752 274.56 494.096 273.648 494.504 272.232H496.568C496.304 273.456 495.68 274.416 494.648 275.16C493.616 275.88 492.392 276.24 490.952 276.24C487.304 276.24 485.048 273.72 485.048 269.688C485.048 265.656 487.304 263.232 490.928 263.232ZM487.184 268.296V268.632H494.432V268.152C494.432 266.208 493.016 264.912 490.928 264.912C488.72 264.912 487.184 266.28 487.184 268.296ZM513.746 271.728H515.81C515.402 274.512 513.29 276.24 510.242 276.24C508.394 276.24 506.93 275.664 505.874 274.488C504.818 273.312 504.29 271.752 504.29 269.76C504.29 267.72 504.842 266.112 505.946 264.96C507.05 263.808 508.514 263.232 510.314 263.232C513.218 263.232 515.33 264.936 515.738 267.552H513.674C513.266 265.848 511.946 264.984 510.218 264.984C507.986 264.984 506.426 266.592 506.426 268.896V270.792C506.426 273.024 507.938 274.512 510.218 274.512C512.066 274.512 513.434 273.432 513.746 271.728ZM517.837 269.736C517.837 267.72 518.389 266.136 519.493 264.984C520.597 263.808 522.061 263.232 523.861 263.232C525.661 263.232 527.125 263.808 528.205 264.96C529.309 266.112 529.861 267.696 529.861 269.736C529.861 273.696 527.629 276.24 523.861 276.24C521.989 276.24 520.525 275.664 519.445 274.488C518.365 273.312 517.837 271.728 517.837 269.736ZM519.973 268.824V270.768C519.973 273.144 521.653 274.512 523.861 274.512C526.093 274.512 527.749 273.096 527.749 270.768V268.824C527.749 266.52 526.141 264.984 523.861 264.984C522.733 264.984 521.797 265.344 521.053 266.064C520.333 266.76 519.973 267.696 519.973 268.824ZM535.09 261.144H533.026V258.408H535.09V261.144ZM535.09 276H533.026V263.472H535.09V276ZM541.348 276H539.26V263.472H541.084L541.348 265.8H541.516C542.284 264.192 543.844 263.232 545.74 263.232C548.452 263.232 550.084 265.2 550.084 268.296V276H547.996V268.512C547.996 266.232 547.012 265.08 545.044 265.08C542.836 265.08 541.348 266.832 541.348 269.448V276ZM558.641 272.4C558.641 269.928 560.345 268.536 563.201 268.536H566.969V267.576C566.969 265.776 566.033 264.888 564.137 264.888C562.289 264.888 561.281 265.776 561.209 267.216H559.169C559.289 264.72 561.209 263.232 564.257 263.232C565.913 263.232 567.209 263.784 567.857 264.456C568.169 264.792 568.433 265.176 568.625 265.632C569.009 266.52 569.033 267.048 569.033 267.624V274.464H570.881V276H568.745C567.593 276 567.185 275.52 567.113 274.584L567.089 273.936H566.945C566.393 275.352 564.713 276.24 562.673 276.24C560.153 276.24 558.641 274.728 558.641 272.4ZM560.777 271.872V272.64C560.777 273.888 561.713 274.56 563.153 274.56C565.481 274.56 566.969 273.024 566.969 270.72V270.048H563.393C561.737 270.048 560.777 270.792 560.777 271.872ZM575.59 276H573.502V263.472H575.326L575.59 265.8H575.758C576.526 264.192 578.086 263.232 579.982 263.232C582.694 263.232 584.326 265.2 584.326 268.296V276H582.238V268.512C582.238 266.232 581.254 265.08 579.286 265.08C577.078 265.08 575.59 266.832 575.59 269.448V276ZM592.514 276.24C589.25 276.24 587.306 273.888 587.306 269.832C587.306 265.728 589.25 263.4 592.514 263.4C594.626 263.4 596.21 264.312 597.002 265.848H597.146V258.408H599.234V276H597.362L597.146 273.816H597.002C596.138 275.424 594.65 276.24 592.514 276.24ZM593.09 274.512C595.514 274.512 597.146 272.928 597.146 270.6V269.04C597.146 266.712 595.514 265.152 593.09 265.152C590.858 265.152 589.442 266.472 589.442 268.56V271.08C589.442 273.168 590.858 274.512 593.09 274.512ZM138.488 299.472H140.576V312H138.8L138.512 309.672H138.32C137.648 311.232 136.016 312.24 134.072 312.24C131.48 312.24 129.92 310.512 129.92 307.464V299.472H131.984V307.176C131.984 309.384 132.92 310.488 134.768 310.488C137.048 310.488 138.488 308.688 138.488 306.024V299.472ZM146.848 312H144.76V299.472H146.584L146.848 301.8H147.016C147.784 300.192 149.344 299.232 151.24 299.232C153.952 299.232 155.584 301.2 155.584 304.296V312H153.496V304.512C153.496 302.232 152.512 301.08 150.544 301.08C148.336 301.08 146.848 302.832 146.848 305.448V312ZM161.66 297.144H159.596V294.408H161.66V297.144ZM161.66 312H159.596V299.472H161.66V312ZM168.398 301.2V310.272H171.038V312H168.158C166.934 312 166.334 311.424 166.334 310.248V301.2H164.054V299.472H166.334V295.32H168.398V299.472H171.014V301.2H168.398ZM178.673 305.736C178.673 303.72 179.225 302.136 180.329 300.984C181.433 299.808 182.897 299.232 184.697 299.232C186.497 299.232 187.961 299.808 189.041 300.96C190.145 302.112 190.697 303.696 190.697 305.736C190.697 309.696 188.465 312.24 184.697 312.24C182.825 312.24 181.361 311.664 180.281 310.488C179.201 309.312 178.673 307.728 178.673 305.736ZM180.809 304.824V306.768C180.809 309.144 182.489 310.512 184.697 310.512C186.929 310.512 188.585 309.096 188.585 306.768V304.824C188.585 302.52 186.977 300.984 184.697 300.984C183.569 300.984 182.633 301.344 181.889 302.064C181.169 302.76 180.809 303.696 180.809 304.824ZM199.861 296.112H196.621V299.472H199.333V301.2H196.621V312H194.557V301.2H192.109V299.472H194.557V296.136C194.557 294.984 195.229 294.408 196.549 294.408H199.861V296.112ZM206.821 308.4C206.821 305.928 208.525 304.536 211.381 304.536H215.149V303.576C215.149 301.776 214.213 300.888 212.317 300.888C210.469 300.888 209.461 301.776 209.389 303.216H207.349C207.469 300.72 209.389 299.232 212.437 299.232C214.093 299.232 215.389 299.784 216.037 300.456C216.349 300.792 216.613 301.176 216.805 301.632C217.189 302.52 217.213 303.048 217.213 303.624V310.464H219.061V312H216.925C215.773 312 215.365 311.52 215.293 310.584L215.269 309.936H215.125C214.573 311.352 212.893 312.24 210.853 312.24C208.333 312.24 206.821 310.728 206.821 308.4ZM208.957 307.872V308.64C208.957 309.888 209.893 310.56 211.333 310.56C213.661 310.56 215.149 309.024 215.149 306.72V306.048H211.573C209.917 306.048 208.957 306.792 208.957 307.872ZM230.106 307.728H232.17C231.762 310.512 229.65 312.24 226.602 312.24C224.754 312.24 223.29 311.664 222.234 310.488C221.178 309.312 220.65 307.752 220.65 305.76C220.65 303.72 221.202 302.112 222.306 300.96C223.41 299.808 224.874 299.232 226.674 299.232C229.578 299.232 231.69 300.936 232.098 303.552H230.034C229.626 301.848 228.306 300.984 226.578 300.984C224.346 300.984 222.786 302.592 222.786 304.896V306.792C222.786 309.024 224.298 310.512 226.578 310.512C228.426 310.512 229.794 309.432 230.106 307.728ZM243.653 307.728H245.717C245.309 310.512 243.197 312.24 240.149 312.24C238.301 312.24 236.837 311.664 235.781 310.488C234.725 309.312 234.197 307.752 234.197 305.76C234.197 303.72 234.749 302.112 235.853 300.96C236.957 299.808 238.421 299.232 240.221 299.232C243.125 299.232 245.237 300.936 245.645 303.552H243.581C243.173 301.848 241.853 300.984 240.125 300.984C237.893 300.984 236.333 302.592 236.333 304.896V306.792C236.333 309.024 237.845 310.512 240.125 310.512C241.973 310.512 243.341 309.432 243.653 307.728ZM247.744 305.736C247.744 303.72 248.296 302.136 249.4 300.984C250.504 299.808 251.968 299.232 253.768 299.232C255.568 299.232 257.032 299.808 258.112 300.96C259.216 302.112 259.768 303.696 259.768 305.736C259.768 309.696 257.536 312.24 253.768 312.24C251.896 312.24 250.432 311.664 249.352 310.488C248.271 309.312 247.744 307.728 247.744 305.736ZM249.88 304.824V306.768C249.88 309.144 251.56 310.512 253.768 310.512C256 310.512 257.656 309.096 257.656 306.768V304.824C257.656 302.52 256.048 300.984 253.768 300.984C252.64 300.984 251.704 301.344 250.96 302.064C250.24 302.76 249.88 303.696 249.88 304.824ZM271.332 299.472H273.42V312H271.644L271.356 309.672H271.164C270.492 311.232 268.86 312.24 266.916 312.24C264.324 312.24 262.764 310.512 262.764 307.464V299.472H264.828V307.176C264.828 309.384 265.764 310.488 267.612 310.488C269.892 310.488 271.332 308.688 271.332 306.024V299.472ZM279.692 312H277.604V299.472H279.428L279.692 301.8H279.86C280.628 300.192 282.188 299.232 284.084 299.232C286.796 299.232 288.428 301.2 288.428 304.296V312H286.34V304.512C286.34 302.232 285.356 301.08 283.388 301.08C281.18 301.08 279.692 302.832 279.692 305.448V312ZM294.726 301.2V310.272H297.366V312H294.486C293.262 312 292.662 311.424 292.662 310.248V301.2H290.382V299.472H292.662V295.32H294.726V299.472H297.342V301.2H294.726ZM313.449 312H306.369V294.504H313.449C318.657 294.504 320.793 297.504 320.793 303.264C320.793 309.048 318.633 312 313.449 312ZM308.553 296.496V310.008H313.425C316.881 310.008 318.489 308.424 318.489 304.704V301.824C318.489 298.056 316.809 296.496 313.425 296.496H308.553ZM326.258 310.032V294.504H328.394V310.152C328.394 310.536 328.37 310.776 328.154 311.256C327.962 311.712 327.362 312 326.498 312H321.65V310.032H326.258ZM330.222 294.504H343.278V296.472H337.854V312H335.694V296.472H330.222V294.504Z" fill="#626262"/>
<path d="M150.44 222H131.04V192.84H150.44V196.16H134.68V205.4H148.48V208.56H134.68V218.68H150.44V222ZM169.676 214.88H173.116C172.436 219.52 168.916 222.4 163.836 222.4C160.756 222.4 158.316 221.44 156.556 219.48C154.796 217.52 153.916 214.92 153.916 211.6C153.916 208.2 154.836 205.52 156.676 203.6C158.516 201.68 160.956 200.72 163.956 200.72C168.796 200.72 172.316 203.56 172.996 207.92H169.556C168.876 205.08 166.676 203.64 163.796 203.64C160.076 203.64 157.476 206.32 157.476 210.16V213.32C157.476 217.04 159.996 219.52 163.796 219.52C166.876 219.52 169.156 217.72 169.676 214.88ZM176.494 211.56C176.494 208.2 177.414 205.56 179.254 203.64C181.094 201.68 183.534 200.72 186.534 200.72C189.534 200.72 191.974 201.68 193.774 203.6C195.614 205.52 196.534 208.16 196.534 211.56C196.534 218.16 192.814 222.4 186.534 222.4C183.414 222.4 180.974 221.44 179.174 219.48C177.374 217.52 176.494 214.88 176.494 211.56ZM180.054 210.04V213.28C180.054 217.24 182.854 219.52 186.534 219.52C190.254 219.52 193.014 217.16 193.014 213.28V210.04C193.014 206.2 190.334 203.64 186.534 203.64C184.654 203.64 183.094 204.24 181.854 205.44C180.654 206.6 180.054 208.16 180.054 210.04ZM205.288 222H201.808V201.12H204.848L205.288 205H205.568C206.848 202.32 209.448 200.72 212.608 200.72C217.128 200.72 219.848 204 219.848 209.16V222H216.368V209.52C216.368 205.72 214.728 203.8 211.448 203.8C207.768 203.8 205.288 206.72 205.288 211.08V222ZM224.815 211.56C224.815 208.2 225.735 205.56 227.575 203.64C229.415 201.68 231.855 200.72 234.855 200.72C237.855 200.72 240.295 201.68 242.095 203.6C243.935 205.52 244.855 208.16 244.855 211.56C244.855 218.16 241.135 222.4 234.855 222.4C231.735 222.4 229.295 221.44 227.495 219.48C225.695 217.52 224.815 214.88 224.815 211.56ZM228.375 210.04V213.28C228.375 217.24 231.175 219.52 234.855 219.52C238.575 219.52 241.335 217.16 241.335 213.28V210.04C241.335 206.2 238.655 203.64 234.855 203.64C232.975 203.64 231.415 204.24 230.175 205.44C228.975 206.6 228.375 208.16 228.375 210.04ZM253.608 222H250.128V201.12H253.128L253.568 205H253.888C255.128 202.16 257.248 200.72 260.328 200.72C263.408 200.72 265.648 202.56 266.448 205.28H266.768C268.008 202.24 270.448 200.72 273.608 200.72C277.968 200.72 280.568 203.72 280.568 208.96V222H277.088V209.4C277.088 205.56 275.568 203.64 272.528 203.64C269.048 203.64 267.088 206.48 267.088 210.92V222H263.648V209.48C263.648 205.6 262.128 203.64 259.128 203.64C255.768 203.64 253.608 206.56 253.608 210.88V222ZM290.639 197.24H287.199V192.68H290.639V197.24ZM290.639 222H287.199V201.12H290.639V222ZM311.629 214.88H315.069C314.389 219.52 310.869 222.4 305.789 222.4C302.709 222.4 300.269 221.44 298.509 219.48C296.749 217.52 295.869 214.92 295.869 211.6C295.869 208.2 296.789 205.52 298.629 203.6C300.469 201.68 302.909 200.72 305.909 200.72C310.749 200.72 314.269 203.56 314.949 207.92H311.509C310.829 205.08 308.629 203.64 305.749 203.64C302.029 203.64 299.429 206.32 299.429 210.16V213.32C299.429 217.04 301.949 219.52 305.749 219.52C308.829 219.52 311.109 217.72 311.629 214.88ZM318.368 215.68H321.808C321.808 218.12 323.808 219.68 326.888 219.68C329.808 219.68 331.568 218.4 331.568 216.2C331.568 214.64 330.648 213.68 328.808 213.32L324.328 212.48C320.608 211.8 318.768 209.96 318.768 206.96C318.768 203.08 321.848 200.72 326.648 200.72C331.608 200.72 334.608 203.24 334.648 207.08H331.208C331.128 204.64 329.608 203.4 326.648 203.4C323.808 203.4 322.248 204.64 322.248 206.6C322.248 207.72 322.728 208.52 323.568 208.96C324.408 209.32 324.768 209.44 325.608 209.6L329.728 210.36C333.368 211 335.208 212.88 335.208 216C335.208 220 331.968 222.4 326.888 222.4C321.608 222.4 318.368 219.72 318.368 215.68Z" fill="#D0D0D0"/>
<path d="M135.128 174H129.818V160.878H135.128C139.034 160.878 140.636 163.128 140.636 167.448C140.636 171.786 139.016 174 135.128 174ZM131.456 162.372V172.506H135.11C137.702 172.506 138.908 171.318 138.908 168.528V166.368C138.908 163.542 137.648 162.372 135.11 162.372H131.456ZM147.783 160.878V174H146.145V160.878H147.783ZM156.225 172.524V160.878H157.827V172.614C157.827 172.902 157.809 173.082 157.647 173.442C157.503 173.784 157.053 174 156.405 174H152.769V172.524H156.225ZM172.975 174H164.245V160.878H172.975V162.372H165.883V166.53H172.093V167.952H165.883V172.506H172.975V174ZM176.559 160.878H186.351V162.354H182.283V174H180.663V162.354H176.559V160.878ZM189.6 169.95H191.292C191.31 171.84 192.678 172.848 194.784 172.848C196.746 172.848 197.988 171.93 197.988 170.418C197.988 169.626 197.7 169.068 197.142 168.78C196.584 168.474 196.404 168.42 195.9 168.294L193.596 167.772L192.75 167.574C192.552 167.52 192.246 167.394 191.832 167.214C191.436 167.016 191.112 166.818 190.878 166.602C190.428 166.17 189.96 165.342 189.96 164.334C189.96 163.2 190.374 162.318 191.22 161.67C192.066 161.022 193.164 160.698 194.55 160.698C195.972 160.698 197.106 161.04 197.97 161.706C198.834 162.372 199.284 163.308 199.302 164.496H197.628C197.538 162.912 196.368 162.03 194.55 162.03C192.75 162.03 191.67 162.876 191.67 164.172C191.67 164.874 191.976 165.396 192.534 165.702C193.11 165.99 193.434 166.08 194.01 166.206L196.476 166.746C198.636 167.214 199.716 168.384 199.716 170.256C199.716 171.498 199.266 172.452 198.348 173.154C197.448 173.838 196.242 174.18 194.73 174.18C193.074 174.18 191.796 173.784 190.914 172.992C190.032 172.182 189.6 171.174 189.6 169.95Z" fill="#9B9B9B"/>
<path d="M134.021 50.496L132.243 51.6967C132.103 51.8375 132.059 51.925 132.243 52.0545L132.416 52.1953L134.787 53.8514C134.787 53.8514 137.14 52.5727 137.643 52.3574C138.528 51.9601 139.487 51.7569 140.456 51.7612C141.113 51.8053 141.765 51.9042 142.405 52.0569C143.223 52.2923 143.998 52.6579 144.7 53.1399L145.368 53.5835C145.393 53.6081 145.422 53.6282 145.454 53.6426C145.487 53.6568 145.522 53.6641 145.558 53.6639C145.594 53.664 145.629 53.6568 145.662 53.6426C145.694 53.6286 145.723 53.6085 145.748 53.5835C145.775 53.5636 145.797 53.5377 145.813 53.5078C145.962 53.2754 146.081 53.0242 146.166 52.7608C146.222 52.5521 146.251 52.337 146.252 52.1208C146.253 51.8119 146.19 51.5062 146.068 51.2229C145.946 50.9396 145.766 50.6849 145.541 50.4747L145.085 50.0749C144.537 49.5461 143.907 49.1092 143.221 48.7808L142.698 48.5194C141.781 48.1723 140.807 47.9963 139.827 48.0001C138.756 48.0385 136.954 48.52 134.021 50.496Z" fill="#00D395"/>
<g filter="url(#filter1_d_958_32)">
<g style="mix-blend-mode:difference" opacity="0.9">
<path d="M127.012 56.0528C126.996 56.2353 126.996 56.4188 127.012 56.6012C127.1 57.0402 127.344 57.433 127.7 57.7081L128.346 58.2255C131.724 60.7477 135.216 63.1615 138.667 65.5453L139.189 65.8445C139.416 65.9637 139.664 66.038 139.919 66.0633H140.002C140.413 66.0631 140.813 65.9287 141.139 65.6808L144.34 63.4454C145.382 62.6694 146.508 61.9033 147.541 61.0991C147.881 60.8294 148.197 60.5315 148.486 60.2087C149.284 59.2824 149.784 58.1401 149.922 56.9291C149.922 56.5356 149.972 56.0909 149.972 55.6252V53.2977C149.977 53.2528 149.977 53.2076 149.972 53.1627V53.2044C149.964 53.6648 149.886 54.1213 149.744 54.5594C149.334 55.8061 148.537 56.8922 147.468 57.6624C145.445 59.1206 143.412 60.58 141.338 61.9866L140.865 62.2558C140.636 62.3716 140.382 62.4319 140.125 62.4318H140C139.874 62.427 139.748 62.4073 139.626 62.3731C139.531 62.3484 139.439 62.3117 139.353 62.264L138.613 61.827C136.131 60.1373 133.672 58.4128 131.236 56.6535L128.036 54.2485L127.566 53.8115C127.36 53.6029 127.223 53.3369 127.173 53.0489V52.9375C127.14 52.9375 127.012 56.0528 127.012 56.0528Z" fill="#00D395"/>
</g>
</g>
<g style="mix-blend-mode:difference">
<path d="M149.757 62.4949C149.794 62.3858 149.845 62.2292 149.897 62.0755V64.1514C149.896 64.5467 149.865 64.9414 149.804 65.3322V65.3322C149.601 66.6903 148.913 67.9307 147.864 68.827L146.919 69.6013C145.836 70.406 144.723 71.1809 143.598 71.9558L141.183 73.6181L140.97 73.7396C140.7 73.9114 140.386 74.0019 140.065 74V74C139.877 74.0018 139.69 73.9694 139.513 73.9044V73.9044C139.258 73.8183 139.017 73.6952 138.799 73.5389V73.5389L131.504 68.4827L127.898 65.8149C127.69 65.6689 127.514 65.4822 127.381 65.2665C127.249 65.0535 127.161 64.816 127.125 64.5684C127.115 64.4227 127.115 64.2765 127.125 64.1309V61.6672C127.167 61.7615 127.219 61.8509 127.28 61.9341V61.9341C127.45 62.1353 127.647 62.3128 127.865 62.462L130.229 64.2188C132.497 65.8835 134.798 67.4986 137.135 69.064L138.647 70.0975L139.293 70.4383H139.306C139.57 70.5411 139.855 70.5813 140.138 70.5556V70.5556C140.419 70.5304 140.692 70.4411 140.933 70.2946L141.235 70.1304H141.239L147.286 65.8483C147.813 65.4723 148.282 65.0217 148.677 64.511C149.157 63.9093 149.523 63.2262 149.757 62.4949V62.4949Z" fill="#00D395"/>
</g>
<g filter="url(#filter2_d_958_32)">
<g style="mix-blend-mode:difference" opacity="0.9">
<g style="mix-blend-mode:difference" opacity="0.9">
<path d="M149.749 62.4944C149.786 62.3853 149.837 62.2287 149.889 62.075V64.1509C149.888 64.5462 149.857 64.941 149.797 65.3317V65.3317C149.593 66.6898 148.905 67.9302 147.857 68.8265L146.911 69.6008C145.829 70.4056 144.715 71.1804 143.59 71.9553L141.175 73.6176L140.962 73.7391C140.692 73.9109 140.378 74.0014 140.058 73.9995V73.9995C139.869 74.0013 139.682 73.9689 139.505 73.9039V73.9039C139.25 73.8178 139.009 73.6947 138.791 73.5385V73.5385L131.496 68.4822L127.89 65.8144C127.682 65.6684 127.506 65.4817 127.373 65.266C127.241 65.0531 127.154 64.8155 127.117 64.568C127.107 64.4223 127.107 64.2761 127.117 64.1304V61.6667C127.159 61.761 127.211 61.8504 127.272 61.9336V61.9336C127.443 62.1348 127.639 62.3124 127.857 62.4616L130.221 64.2184C132.489 65.8831 134.791 67.4981 137.127 69.0635L138.639 70.097L139.285 70.4378H139.298C139.562 70.5406 139.847 70.5808 140.13 70.5551V70.5551C140.412 70.5299 140.684 70.4406 140.925 70.2941L141.227 70.1299H141.232L147.278 65.8479C147.805 65.4718 148.274 65.0212 148.669 64.5105C149.149 63.9088 149.515 63.2257 149.749 62.4944V62.4944Z" fill="#00D395"/>
</g>
</g>
</g>
<path d="M134.021 50.496L132.243 51.6967C132.103 51.8375 132.059 51.925 132.243 52.0545L132.416 52.1953L134.787 53.8514C134.787 53.8514 137.14 52.5727 137.643 52.3574C138.528 51.9601 139.487 51.7569 140.456 51.7612C141.113 51.8053 141.765 51.9042 142.405 52.0569C143.223 52.2923 143.998 52.6579 144.7 53.1399L145.368 53.5835C145.393 53.6081 145.422 53.6282 145.454 53.6426C145.487 53.6568 145.522 53.6641 145.558 53.6639C145.594 53.664 145.629 53.6568 145.662 53.6426C145.694 53.6286 145.723 53.6085 145.748 53.5835C145.775 53.5636 145.797 53.5377 145.813 53.5078C145.962 53.2754 146.081 53.0242 146.166 52.7608C146.222 52.5521 146.251 52.337 146.252 52.1208C146.253 51.8119 146.19 51.5062 146.068 51.2229C145.946 50.9396 145.766 50.6849 145.541 50.4747L145.085 50.0749C144.537 49.5461 143.907 49.1092 143.221 48.7808L142.698 48.5194C141.781 48.1723 140.807 47.9963 139.827 48.0001C138.756 48.0385 136.954 48.52 134.021 50.496Z" fill="url(#paint1_linear_958_32)" fill-opacity="0.4"/>
<g filter="url(#filter3_d_958_32)">
<g style="mix-blend-mode:difference" opacity="0.9">
<path d="M127.012 56.0528C126.996 56.2353 126.996 56.4188 127.012 56.6012C127.1 57.0402 127.344 57.433 127.7 57.7081L128.346 58.2255C131.724 60.7477 135.216 63.1615 138.667 65.5453L139.189 65.8445C139.416 65.9637 139.664 66.038 139.919 66.0633H140.002C140.413 66.0631 140.813 65.9287 141.139 65.6808L144.34 63.4454C145.382 62.6694 146.508 61.9033 147.541 61.0991C147.881 60.8294 148.197 60.5315 148.486 60.2087C149.284 59.2824 149.784 58.1401 149.922 56.9291C149.922 56.5356 149.972 56.0909 149.972 55.6252V53.2977C149.977 53.2528 149.977 53.2076 149.972 53.1627V53.2044C149.964 53.6648 149.886 54.1213 149.744 54.5594C149.334 55.8061 148.537 56.8922 147.468 57.6624C145.445 59.1206 143.412 60.58 141.338 61.9866L140.865 62.2558C140.636 62.3716 140.382 62.4319 140.125 62.4318H140C139.874 62.427 139.748 62.4073 139.626 62.3731C139.531 62.3484 139.439 62.3117 139.353 62.264L138.613 61.827C136.131 60.1373 133.672 58.4128 131.236 56.6535L128.036 54.2485L127.566 53.8115C127.36 53.6029 127.223 53.3369 127.173 53.0489V52.9375C127.14 52.9375 127.012 56.0528 127.012 56.0528Z" fill="url(#paint2_linear_958_32)" fill-opacity="0.4"/>
</g>
</g>
<g style="mix-blend-mode:difference">
<path d="M149.757 62.4949C149.794 62.3858 149.845 62.2292 149.897 62.0755V64.1514C149.896 64.5467 149.865 64.9414 149.804 65.3322V65.3322C149.601 66.6903 148.913 67.9307 147.864 68.827L146.919 69.6013C145.836 70.406 144.723 71.1809 143.598 71.9558L141.183 73.6181L140.97 73.7396C140.7 73.9114 140.386 74.0019 140.065 74V74C139.877 74.0018 139.69 73.9694 139.513 73.9044V73.9044C139.258 73.8183 139.017 73.6952 138.799 73.5389V73.5389L131.504 68.4827L127.898 65.8149C127.69 65.6689 127.514 65.4822 127.381 65.2665C127.249 65.0535 127.161 64.816 127.125 64.5684C127.115 64.4227 127.115 64.2765 127.125 64.1309V61.6672C127.167 61.7615 127.219 61.8509 127.28 61.9341V61.9341C127.45 62.1353 127.647 62.3128 127.865 62.462L130.229 64.2188C132.497 65.8835 134.798 67.4986 137.135 69.064L138.647 70.0975L139.293 70.4383H139.306C139.57 70.5411 139.855 70.5813 140.138 70.5556V70.5556C140.419 70.5304 140.692 70.4411 140.933 70.2946L141.235 70.1304H141.239L147.286 65.8483C147.813 65.4723 148.282 65.0217 148.677 64.511C149.157 63.9093 149.523 63.2262 149.757 62.4949V62.4949Z" fill="url(#paint3_linear_958_32)" fill-opacity="0.4"/>
</g>
<g filter="url(#filter4_d_958_32)">
<g style="mix-blend-mode:difference" opacity="0.9">
<g style="mix-blend-mode:difference" opacity="0.9">
<path d="M149.749 62.4944C149.786 62.3853 149.837 62.2287 149.889 62.075V64.1509C149.888 64.5462 149.857 64.941 149.797 65.3317V65.3317C149.593 66.6898 148.905 67.9302 147.857 68.8265L146.911 69.6008C145.829 70.4056 144.715 71.1804 143.59 71.9553L141.175 73.6176L140.962 73.7391C140.692 73.9109 140.378 74.0014 140.058 73.9995V73.9995C139.869 74.0013 139.682 73.9689 139.505 73.9039V73.9039C139.25 73.8178 139.009 73.6947 138.791 73.5385V73.5385L131.496 68.4822L127.89 65.8144C127.682 65.6684 127.506 65.4817 127.373 65.266C127.241 65.0531 127.154 64.8155 127.117 64.568C127.107 64.4223 127.107 64.2761 127.117 64.1304V61.6667C127.159 61.761 127.211 61.8504 127.272 61.9336V61.9336C127.443 62.1348 127.639 62.3124 127.857 62.4616L130.221 64.2184C132.489 65.8831 134.791 67.4981 137.127 69.0635L138.639 70.097L139.285 70.4378H139.298C139.562 70.5406 139.847 70.5808 140.13 70.5551V70.5551C140.412 70.5299 140.684 70.4406 140.925 70.2941L141.227 70.1299H141.232L147.278 65.8479C147.805 65.4718 148.274 65.0212 148.669 64.5105C149.149 63.9088 149.515 63.2257 149.749 62.4944V62.4944Z" fill="url(#paint4_linear_958_32)" fill-opacity="0.4"/>
</g>
</g>
</g>
<defs>
<filter id="filter0_d_958_32" x="0" y="589" width="190.836" height="101" filterUnits="userSpaceOnUse" color-interpolation-filters="sRGB">
<feFlood flood-opacity="0" result="BackgroundImageFix"/>
<feColorMatrix in="SourceAlpha" type="matrix" values="0 0 0 0 0 0 0 0 0 0 0 0 0 0 0 0 0 0 127 0" result="hardAlpha"/>
<feOffset dx="-3" dy="-4"/>
<feGaussianBlur stdDeviation="3"/>
<feComposite in2="hardAlpha" operator="out"/>
<feColorMatrix type="matrix" values="0 0 0 0 0 0 0 0 0 0 0 0 0 0 0 0 0 0 0.24 0"/>
<feBlend mode="normal" in2="BackgroundImageFix" result="effect1_dropShadow_958_32"/>
<feBlend mode="normal" in="SourceGraphic" in2="effect1_dropShadow_958_32" result="shape"/>
</filter>
<filter id="filter1_d_958_32" x="125" y="52.9375" width="24.9766" height="15.1257" filterUnits="userSpaceOnUse" color-interpolation-filters="sRGB">
<feFlood flood-opacity="0" result="BackgroundImageFix"/>
<feColorMatrix in="SourceAlpha" type="matrix" values="0 0 0 0 0 0 0 0 0 0 0 0 0 0 0 0 0 0 127 0" result="hardAlpha"/>
<feOffset dx="-1" dy="1"/>
<feGaussianBlur stdDeviation="0.5"/>
<feComposite in2="hardAlpha" operator="out"/>
<feColorMatrix type="matrix" values="0 0 0 0 0.0980392 0 0 0 0 0.105882 0 0 0 0 0.113725 0 0 0 0.55 0"/>
<feBlend mode="normal" in2="BackgroundImageFix" result="effect1_dropShadow_958_32"/>
<feBlend mode="normal" in="SourceGraphic" in2="effect1_dropShadow_958_32" result="shape"/>
</filter>
<filter id="filter2_d_958_32" x="125.109" y="61.6667" width="24.7812" height="14.3328" filterUnits="userSpaceOnUse" color-interpolation-filters="sRGB">
<feFlood flood-opacity="0" result="BackgroundImageFix"/>
<feColorMatrix in="SourceAlpha" type="matrix" values="0 0 0 0 0 0 0 0 0 0 0 0 0 0 0 0 0 0 127 0" result="hardAlpha"/>
<feOffset dx="-1" dy="1"/>
<feGaussianBlur stdDeviation="0.5"/>
<feComposite in2="hardAlpha" operator="out"/>
<feColorMatrix type="matrix" values="0 0 0 0 0.0965366 0 0 0 0 0.105884 0 0 0 0 0.112652 0 0 0 0.55 0"/>
<feBlend mode="normal" in2="BackgroundImageFix" result="effect1_dropShadow_958_32"/>
<feBlend mode="normal" in="SourceGraphic" in2="effect1_dropShadow_958_32" result="shape"/>
</filter>
<filter id="filter3_d_958_32" x="125" y="52.9375" width="24.9766" height="15.1257" filterUnits="userSpaceOnUse" color-interpolation-filters="sRGB">
<feFlood flood-opacity="0" result="BackgroundImageFix"/>
<feColorMatrix in="SourceAlpha" type="matrix" values="0 0 0 0 0 0 0 0 0 0 0 0 0 0 0 0 0 0 127 0" result="hardAlpha"/>
<feOffset dx="-1" dy="1"/>
<feGaussianBlur stdDeviation="0.5"/>
<feComposite in2="hardAlpha" operator="out"/>
<feColorMatrix type="matrix" values="0 0 0 0 0.0980392 0 0 0 0 0.105882 0 0 0 0 0.113725 0 0 0 0.32 0"/>
<feBlend mode="normal" in2="BackgroundImageFix" result="effect1_dropShadow_958_32"/>
<feBlend mode="normal" in="SourceGraphic" in2="effect1_dropShadow_958_32" result="shape"/>
</filter>
<filter id="filter4_d_958_32" x="125.109" y="61.6667" width="24.7812" height="14.3328" filterUnits="userSpaceOnUse" color-interpolation-filters="sRGB">
<feFlood flood-opacity="0" result="BackgroundImageFix"/>
<feColorMatrix in="SourceAlpha" type="matrix" values="0 0 0 0 0 0 0 0 0 0 0 0 0 0 0 0 0 0 127 0" result="hardAlpha"/>
<feOffset dx="-1" dy="1"/>
<feGaussianBlur stdDeviation="0.5"/>
<feComposite in2="hardAlpha" operator="out"/>
<feColorMatrix type="matrix" values="0 0 0 0 0.0965366 0 0 0 0 0.105884 0 0 0 0 0.112652 0 0 0 0.32 0"/>
<feBlend mode="normal" in2="BackgroundImageFix" result="effect1_dropShadow_958_32"/>
<feBlend mode="normal" in="SourceGraphic" in2="effect1_dropShadow_958_32" result="shape"/>
</filter>
<linearGradient id="paint0_linear_958_32" x1="344.71" y1="-18.7954" x2="346.5" y2="633" gradientUnits="userSpaceOnUse">
<stop stop-color="#2D2D2D"/>
<stop offset="1" stop-color="#0F0F0F" stop-opacity="0"/>
</linearGradient>
<linearGradient id="paint1_linear_958_32" x1="131.532" y1="47.9757" x2="131.712" y2="54.1851" gradientUnits="userSpaceOnUse">
<stop stop-opacity="0.59"/>
<stop offset="0.956462" stop-color="#5B5151" stop-opacity="0.34"/>
</linearGradient>
<linearGradient id="paint2_linear_958_32" x1="126.043" y1="52.8831" x2="126.599" y2="66.8014" gradientUnits="userSpaceOnUse">
<stop stop-opacity="0.59"/>
<stop offset="0.956462" stop-color="#5B5151" stop-opacity="0.34"/>
</linearGradient>
<linearGradient id="paint3_linear_958_32" x1="126.168" y1="61.6161" x2="126.664" y2="74.6957" gradientUnits="userSpaceOnUse">
<stop stop-opacity="0.59"/>
<stop offset="0.956462" stop-color="#5B5151" stop-opacity="0.34"/>
</linearGradient>
<linearGradient id="paint4_linear_958_32" x1="126.16" y1="61.6156" x2="126.656" y2="74.6952" gradientUnits="userSpaceOnUse">
<stop stop-opacity="0.59"/>
<stop offset="0.956462" stop-color="#5B5151" stop-opacity="0.34"/>
</linearGradient>
</defs>
</svg>
