<svg width="758" height="690" viewBox="0 0 758 690" fill="none" xmlns="http://www.w3.org/2000/svg">
<path d="M608.749 8.35059H128.107C109.055 8.35059 93.6094 23.7959 93.6094 42.8486V652.502C93.6094 671.555 109.055 687 128.107 687H608.749C627.803 687 643.247 671.555 643.247 652.502V42.8486C643.247 23.7959 627.803 8.35059 608.749 8.35059Z" fill="url(#paint0_linear_958_35)"/>
<path d="M532.768 74.7565L535.22 68.4636H534.1L532.272 73.41L530.429 68.4636H529.281L531.719 74.7565H532.768ZM540.638 72.8714C540.468 73.5801 539.887 73.9769 539.107 73.9769C538.044 73.9769 537.293 73.1549 537.279 71.8084H541.729V71.4258C541.729 69.5974 540.808 68.336 539.079 68.336C537.364 68.336 536.216 69.7392 536.216 71.6242C536.216 73.5659 537.392 74.884 539.107 74.884C540.525 74.884 541.418 74.062 541.644 72.8714H540.638ZM539.093 69.2431C540.142 69.2431 540.638 70.0651 540.652 71.0006H537.307C537.463 69.8951 538.143 69.2431 539.093 69.2431ZM546.732 68.4352C546.619 68.3785 546.392 68.336 546.123 68.336C545.429 68.336 544.833 68.747 544.564 69.2856V68.4636H543.501V74.7565H544.564V70.5329C544.777 69.7958 545.358 69.3565 546.024 69.3565C546.293 69.3565 546.562 69.4132 546.732 69.5266V68.4352ZM547.843 73.0273C548.042 74.1895 549.048 74.884 550.423 74.884C551.769 74.884 552.762 74.1754 552.762 72.9848C552.762 72.1061 552.237 71.5108 551.16 71.2273L549.941 70.9297C549.346 70.7596 549.062 70.5612 549.062 70.136C549.062 69.5266 549.643 69.2289 550.267 69.2289C551.032 69.2289 551.472 69.5549 551.656 70.1218H552.719C552.492 69.0163 551.67 68.336 550.281 68.336C549.006 68.336 548.028 69.073 548.028 70.1927C548.028 71.1706 548.651 71.6242 549.544 71.851L550.792 72.1769C551.444 72.347 551.727 72.6163 551.727 73.0557C551.727 73.6935 551.188 73.9911 550.437 73.9911C549.7 73.9911 549.147 73.6793 548.949 73.0273H547.843ZM555.654 68.4636H554.591V74.7565H555.654V68.4636ZM555.81 66.5643C555.81 66.1817 555.498 65.884 555.115 65.884C554.747 65.884 554.435 66.1817 554.435 66.5643C554.435 66.9329 554.747 67.2447 555.115 67.2447C555.498 67.2447 555.81 66.9329 555.81 66.5643ZM563.236 71.61C563.236 69.6825 562.06 68.336 560.345 68.336C558.616 68.336 557.454 69.6825 557.454 71.61C557.454 73.5376 558.616 74.884 560.345 74.884C562.06 74.884 563.236 73.5376 563.236 71.61ZM562.159 71.61C562.159 72.9848 561.479 73.9486 560.345 73.9486C559.211 73.9486 558.531 72.9848 558.531 71.61C558.531 70.2352 559.211 69.2714 560.345 69.2714C561.479 69.2714 562.159 70.2352 562.159 71.61ZM565.029 74.7565H566.092V70.4903C566.319 69.81 566.957 69.314 567.694 69.314C568.643 69.314 569.083 69.9234 569.083 70.8021V74.7565H570.16V70.6321C570.16 69.2573 569.381 68.336 567.949 68.336C567.141 68.336 566.461 68.7612 566.092 69.2573V68.4636H565.029V74.7565ZM571.822 74.062C571.822 74.5014 572.162 74.8273 572.588 74.8273C572.999 74.8273 573.339 74.5014 573.339 74.062C573.339 73.6226 572.999 73.2825 572.588 73.2825C572.162 73.2825 571.822 73.6226 571.822 74.062ZM571.822 69.6116C571.822 70.051 572.162 70.3769 572.588 70.3769C572.999 70.3769 573.339 70.051 573.339 69.6116C573.339 69.1722 572.999 68.8321 572.588 68.8321C572.162 68.8321 571.822 69.1722 571.822 69.6116ZM581.228 66.0399H580.562L577.982 67.358V68.4919L580.136 67.3864V74.7565H581.228V66.0399ZM583.1 74.062C583.1 74.5014 583.44 74.8273 583.866 74.8273C584.277 74.8273 584.617 74.5014 584.617 74.062C584.617 73.6226 584.277 73.2825 583.866 73.2825C583.44 73.2825 583.1 73.6226 583.1 74.062ZM588.807 74.884C590.748 74.884 592.052 73.0557 592.052 70.4053C592.052 67.7549 590.748 65.9266 588.807 65.9266C586.865 65.9266 585.561 67.7549 585.561 70.4053C585.561 73.0557 586.865 74.884 588.807 74.884ZM588.807 66.9329C590.21 66.9329 590.961 68.3785 590.961 70.4053C590.961 72.4321 590.21 73.8777 588.807 73.8777C587.389 73.8777 586.652 72.4321 586.652 70.4053C586.652 68.3785 587.389 66.9329 588.807 66.9329ZM592.999 74.062C592.999 74.5014 593.34 74.8273 593.765 74.8273C594.176 74.8273 594.516 74.5014 594.516 74.062C594.516 73.6226 594.176 73.2825 593.765 73.2825C593.34 73.2825 592.999 73.6226 592.999 74.062ZM598.706 74.884C600.647 74.884 601.951 73.0557 601.951 70.4053C601.951 67.7549 600.647 65.9266 598.706 65.9266C596.764 65.9266 595.46 67.7549 595.46 70.4053C595.46 73.0557 596.764 74.884 598.706 74.884ZM598.706 66.9329C600.109 66.9329 600.86 68.3785 600.86 70.4053C600.86 72.4321 600.109 73.8777 598.706 73.8777C597.288 73.8777 596.551 72.4321 596.551 70.4053C596.551 68.3785 597.288 66.9329 598.706 66.9329Z" fill="#4F4F4F"/>
<path d="M94.6526 573.845L94.8017 555.26M85.1875 576.29L85.2831 536.087M85.317 473V522.655" stroke="#646464" stroke-width="2" stroke-linecap="round"/>
<path d="M85.3711 461V37.0712C85.3711 17.1491 102.073 1 122.678 1H193.562M652.437 227.347V37.0712C652.437 17.1491 635.736 1 615.13 1H256.983M213.147 1H231.801" stroke="#646464" stroke-width="2" stroke-linecap="round"/>
<path d="M652.602 652V248.617" stroke="#646464" stroke-width="2" stroke-linecap="round"/>
<path d="M73 298.959V181.725M73 73.1511V160.985" stroke="#00D395" stroke-width="2" stroke-linecap="round"/>
<g filter="url(#filter0_d_958_35)">
<path d="M43.9272 687C65.0545 687 77.813 670.921 77.854 643.233C77.895 615.751 64.9725 600 43.9272 600C22.8409 600 10.0414 615.71 10.0004 643.233C9.91834 670.839 22.7588 686.959 43.9272 687ZM43.9272 672.274C34.2866 672.274 28.0509 662.594 28.0919 643.233C28.133 624.16 34.3276 614.562 43.9272 614.562C53.4858 614.562 59.7214 624.16 59.7214 643.233C59.7624 662.594 53.5268 672.274 43.9272 672.274Z" fill="#2D2D2D" fill-opacity="0.4" shape-rendering="crispEdges"/>
<path d="M122.73 686.303C141.602 686.303 155.098 675.925 155.057 661.569C155.098 651.109 148.452 643.644 136.104 642.085V641.429C145.499 639.747 151.981 633.102 151.94 623.668C151.981 610.419 140.371 600 122.977 600C105.747 600 92.783 610.091 92.5369 624.611H109.562C109.767 618.212 115.633 614.069 122.895 614.069C130.074 614.069 134.874 618.417 134.833 624.734C134.874 631.338 129.253 635.809 121.172 635.809H113.336V648.853H121.172C130.689 648.853 136.638 653.611 136.597 660.379C136.638 667.065 130.894 671.659 122.772 671.659C114.936 671.659 109.07 667.557 108.741 661.405H90.8549C91.1421 676.089 104.27 686.303 122.73 686.303Z" fill="#2D2D2D" fill-opacity="0.4" shape-rendering="crispEdges"/>
<path d="M176.991 686.221C182.242 686.221 186.796 681.832 186.837 676.376C186.796 671.003 182.242 666.614 176.991 666.614C171.576 666.614 167.104 671.003 167.145 676.376C167.104 681.832 171.576 686.221 176.991 686.221Z" fill="#2D2D2D" fill-opacity="0.4" shape-rendering="crispEdges"/>
<path d="M43.9262 687.5H43.9272C54.6309 687.5 63.2535 683.42 69.1922 675.807C75.1184 668.21 78.3334 657.147 78.354 643.234C78.3746 629.422 75.1383 618.49 69.1895 611C63.229 603.495 54.5864 599.5 43.9272 599.5C33.2479 599.5 24.6254 603.485 18.68 610.985C12.7468 618.469 9.52106 629.401 9.50039 643.232C9.45922 657.105 12.6641 668.159 18.6008 675.761C24.5496 683.379 33.2025 687.479 43.9262 687.5ZM59.2214 643.233L59.2214 643.234C59.2418 652.873 57.6976 660.034 55.0049 664.767C52.3274 669.473 48.523 671.774 43.9272 671.774C39.31 671.774 35.4956 669.472 32.8133 664.767C30.1157 660.034 28.5715 652.873 28.5919 643.234C28.6124 633.739 30.1664 626.671 32.8584 621.994C35.5351 617.344 39.3294 615.062 43.9272 615.062C48.504 615.062 52.2985 617.344 54.9754 621.994C57.6674 626.671 59.2214 633.739 59.2214 643.233ZM92.0369 624.603L92.0283 625.111H92.5369H109.562H110.046L110.062 624.627C110.255 618.599 115.789 614.569 122.895 614.569C126.384 614.569 129.253 615.625 131.237 617.405C133.217 619.181 134.352 621.707 134.333 624.731L134.333 624.737C134.352 627.883 133.029 630.509 130.734 632.359C128.431 634.216 125.124 635.309 121.172 635.309H113.336H112.836V635.809V648.853V649.353H113.336H121.172C125.852 649.353 129.603 650.523 132.166 652.476C134.717 654.42 136.116 657.155 136.097 660.376L136.097 660.382C136.116 663.568 134.763 666.246 132.43 668.138C130.09 670.036 126.742 671.159 122.772 671.159C115.071 671.159 109.549 667.152 109.241 661.378L109.215 660.905H108.741H90.8549H90.345L90.355 661.414C90.6494 676.47 104.109 686.803 122.73 686.803C141.745 686.803 155.6 676.317 155.557 661.567C155.578 656.228 153.889 651.618 150.589 648.145C147.469 644.859 142.943 642.628 137.159 641.728C146.232 639.737 152.48 633.053 152.44 623.667C152.48 610.063 140.56 599.5 122.977 599.5C105.574 599.5 92.2892 609.719 92.0369 624.603ZM187.337 676.38L187.337 676.372C187.294 670.72 182.512 666.114 176.991 666.114C171.309 666.114 166.604 670.718 166.645 676.376C166.604 682.114 171.306 686.721 176.991 686.721C182.515 686.721 187.294 682.112 187.337 676.38Z" stroke="#203C2F" stroke-opacity="0.52" shape-rendering="crispEdges"/>
</g>
<line x1="135.998" y1="528.5" x2="595.997" y2="526.419" stroke="#3B3A3A"/>
<path d="M139.96 549H137.01V541.71H139.96C142.13 541.71 143.02 542.96 143.02 545.36C143.02 547.77 142.12 549 139.96 549ZM137.92 542.54V548.17H139.95C141.39 548.17 142.06 547.51 142.06 545.96V544.76C142.06 543.19 141.36 542.54 139.95 542.54H137.92ZM145.201 542.81H144.341V541.67H145.201V542.81ZM145.201 549H144.341V543.78H145.201V549ZM147.048 542.81V541.67H147.898V542.81H147.048ZM147.048 549.97V543.78H147.898V549.9C147.898 550.06 147.888 550.15 147.798 550.35C147.718 550.55 147.478 550.67 147.118 550.67H145.898V549.97H147.048ZM151.576 543.68C153.006 543.68 153.896 544.58 153.896 546.03C153.896 546.23 153.886 546.41 153.866 546.57H150.016V546.87C150.016 547.79 150.646 548.4 151.606 548.4C152.336 548.4 152.896 548.02 153.066 547.43H153.926C153.816 547.94 153.556 548.34 153.126 548.65C152.696 548.95 152.186 549.1 151.586 549.1C150.066 549.1 149.126 548.05 149.126 546.37C149.126 544.69 150.066 543.68 151.576 543.68ZM150.016 545.79V545.93H153.036V545.73C153.036 544.92 152.446 544.38 151.576 544.38C150.656 544.38 150.016 544.95 150.016 545.79ZM156.309 544.5V548.28H157.409V549H156.209C155.699 549 155.449 548.76 155.449 548.27V544.5H154.499V543.78H155.449V542.05H156.309V543.78H157.399V544.5H156.309ZM158.236 547.42H159.096C159.096 548.03 159.596 548.42 160.366 548.42C161.096 548.42 161.536 548.1 161.536 547.55C161.536 547.16 161.306 546.92 160.846 546.83L159.726 546.62C158.796 546.45 158.336 545.99 158.336 545.24C158.336 544.27 159.106 543.68 160.306 543.68C161.546 543.68 162.296 544.31 162.306 545.27H161.446C161.426 544.66 161.046 544.35 160.306 544.35C159.596 544.35 159.206 544.66 159.206 545.15C159.206 545.43 159.326 545.63 159.536 545.74C159.746 545.83 159.836 545.86 160.046 545.9L161.076 546.09C161.986 546.25 162.446 546.72 162.446 547.5C162.446 548.5 161.636 549.1 160.366 549.1C159.046 549.1 158.236 548.43 158.236 547.42ZM167.109 541.71V549H166.199V541.71H167.109ZM169.859 549H168.989V543.78H169.749L169.859 544.75H169.929C170.249 544.08 170.899 543.68 171.689 543.68C172.819 543.68 173.499 544.5 173.499 545.79V549H172.629V545.88C172.629 544.93 172.219 544.45 171.399 544.45C170.479 544.45 169.859 545.18 169.859 546.27V549ZM178.681 547.22H179.541C179.371 548.38 178.491 549.1 177.221 549.1C176.451 549.1 175.841 548.86 175.401 548.37C174.961 547.88 174.741 547.23 174.741 546.4C174.741 545.55 174.971 544.88 175.431 544.4C175.891 543.92 176.501 543.68 177.251 543.68C178.461 543.68 179.341 544.39 179.511 545.48H178.651C178.481 544.77 177.931 544.41 177.211 544.41C176.281 544.41 175.631 545.08 175.631 546.04V546.83C175.631 547.76 176.261 548.38 177.211 548.38C177.981 548.38 178.551 547.93 178.681 547.22ZM181.735 549H180.615V547.74H181.735V549ZM186.34 549L184.86 541.71H185.82L186.67 546.05L187 548H187.07L188.76 541.71H189.99L191.69 548H191.75L192.08 546.06L192.92 541.71H193.89L192.4 549H191.14L189.4 542.7H189.35L187.61 549H186.34ZM195.748 549H194.878V541.67H195.748V544.73H195.808C196.128 544.08 196.798 543.68 197.568 543.68C198.698 543.68 199.378 544.49 199.378 545.78V549H198.518V545.87C198.518 544.9 198.108 544.41 197.278 544.41C196.358 544.41 195.748 545.13 195.748 546.24V549ZM201.91 542.81H201.05V541.67H201.91V542.81ZM201.91 549H201.05V543.78H201.91V549ZM204.717 544.5V548.28H205.817V549H204.617C204.107 549 203.857 548.76 203.857 548.27V544.5H202.907V543.78H203.857V542.05H204.717V543.78H205.807V544.5H204.717ZM209.056 543.68C210.486 543.68 211.376 544.58 211.376 546.03C211.376 546.23 211.366 546.41 211.346 546.57H207.496V546.87C207.496 547.79 208.126 548.4 209.086 548.4C209.816 548.4 210.376 548.02 210.546 547.43H211.406C211.296 547.94 211.036 548.34 210.606 548.65C210.176 548.95 209.666 549.1 209.066 549.1C207.546 549.1 206.606 548.05 206.606 546.37C206.606 544.69 207.546 543.68 209.056 543.68ZM207.496 545.79V545.93H210.516V545.73C210.516 544.92 209.926 544.38 209.056 544.38C208.136 544.38 207.496 544.95 207.496 545.79ZM213.59 550.67H212.72V543.78H213.5L213.59 544.7H213.65C214 544.05 214.67 543.68 215.52 543.68C216.88 543.68 217.69 544.66 217.69 546.35C217.69 548.06 216.88 549.03 215.52 549.03C214.64 549.03 213.98 548.65 213.65 548.01H213.59V550.67ZM215.28 548.3C216.21 548.3 216.8 547.75 216.8 546.88V545.83C216.8 544.96 216.21 544.4 215.28 544.4C214.27 544.4 213.59 545.06 213.59 546.03V546.68C213.59 547.65 214.27 548.3 215.28 548.3ZM218.559 547.5C218.559 546.47 219.269 545.89 220.459 545.89H222.029V545.49C222.029 544.74 221.639 544.37 220.849 544.37C220.079 544.37 219.659 544.74 219.629 545.34H218.779C218.829 544.3 219.629 543.68 220.899 543.68C221.589 543.68 222.129 543.91 222.399 544.19C222.529 544.33 222.639 544.49 222.719 544.68C222.879 545.05 222.889 545.27 222.889 545.51V548.36H223.659V549H222.769C222.289 549 222.119 548.8 222.089 548.41L222.079 548.14H222.019C221.789 548.73 221.089 549.1 220.239 549.1C219.189 549.1 218.559 548.47 218.559 547.5ZM219.449 547.28V547.6C219.449 548.12 219.839 548.4 220.439 548.4C221.409 548.4 222.029 547.76 222.029 546.8V546.52H220.539C219.849 546.52 219.449 546.83 219.449 547.28ZM225.621 550.67H224.751V543.78H225.531L225.621 544.7H225.681C226.031 544.05 226.701 543.68 227.551 543.68C228.911 543.68 229.721 544.66 229.721 546.35C229.721 548.06 228.911 549.03 227.551 549.03C226.671 549.03 226.011 548.65 225.681 548.01H225.621V550.67ZM227.311 548.3C228.241 548.3 228.831 547.75 228.831 546.88V545.83C228.831 544.96 228.241 544.4 227.311 544.4C226.301 544.4 225.621 545.06 225.621 546.03V546.68C225.621 547.65 226.301 548.3 227.311 548.3ZM233.148 543.68C234.578 543.68 235.468 544.58 235.468 546.03C235.468 546.23 235.458 546.41 235.438 546.57H231.588V546.87C231.588 547.79 232.218 548.4 233.178 548.4C233.908 548.4 234.468 548.02 234.638 547.43H235.498C235.388 547.94 235.128 548.34 234.698 548.65C234.268 548.95 233.758 549.1 233.158 549.1C231.638 549.1 230.698 548.05 230.698 546.37C230.698 544.69 231.638 543.68 233.148 543.68ZM231.588 545.79V545.93H234.608V545.73C234.608 544.92 234.018 544.38 233.148 544.38C232.228 544.38 231.588 544.95 231.588 545.79ZM237.601 543.78H239.411V544.5H237.681V549H236.811V544.55C236.811 544.04 237.071 543.78 237.601 543.78ZM243.779 549L241.879 543.78H242.829L243.749 546.56L244.259 548.11H244.319L244.799 546.56L245.719 543.78H246.669L244.809 549H243.779ZM249.535 543.68C250.965 543.68 251.855 544.58 251.855 546.03C251.855 546.23 251.845 546.41 251.825 546.57H247.975V546.87C247.975 547.79 248.605 548.4 249.565 548.4C250.295 548.4 250.855 548.02 251.025 547.43H251.885C251.775 547.94 251.515 548.34 251.085 548.65C250.655 548.95 250.145 549.1 249.545 549.1C248.025 549.1 247.085 548.05 247.085 546.37C247.085 544.69 248.025 543.68 249.535 543.68ZM247.975 545.79V545.93H250.995V545.73C250.995 544.92 250.405 544.38 249.535 544.38C248.615 544.38 247.975 544.95 247.975 545.79ZM253.988 543.78H255.798V544.5H254.068V549H253.198V544.55C253.198 544.04 253.458 543.78 253.988 543.78ZM256.195 547.42H257.055C257.055 548.03 257.555 548.42 258.325 548.42C259.055 548.42 259.495 548.1 259.495 547.55C259.495 547.16 259.265 546.92 258.805 546.83L257.685 546.62C256.755 546.45 256.295 545.99 256.295 545.24C256.295 544.27 257.065 543.68 258.265 543.68C259.505 543.68 260.255 544.31 260.265 545.27H259.405C259.385 544.66 259.005 544.35 258.265 544.35C257.555 544.35 257.165 544.66 257.165 545.15C257.165 545.43 257.285 545.63 257.495 545.74C257.705 545.83 257.795 545.86 258.005 545.9L259.035 546.09C259.945 546.25 260.405 546.72 260.405 547.5C260.405 548.5 259.595 549.1 258.325 549.1C257.005 549.1 256.195 548.43 256.195 547.42ZM262.544 542.81H261.684V541.67H262.544V542.81ZM262.544 549H261.684V543.78H262.544V549ZM263.852 546.39C263.852 545.55 264.082 544.89 264.542 544.41C265.002 543.92 265.612 543.68 266.362 543.68C267.112 543.68 267.722 543.92 268.172 544.4C268.632 544.88 268.862 545.54 268.862 546.39C268.862 548.04 267.932 549.1 266.362 549.1C265.582 549.1 264.972 548.86 264.522 548.37C264.072 547.88 263.852 547.22 263.852 546.39ZM264.742 546.01V546.82C264.742 547.81 265.442 548.38 266.362 548.38C267.292 548.38 267.982 547.79 267.982 546.82V546.01C267.982 545.05 267.312 544.41 266.362 544.41C265.892 544.41 265.502 544.56 265.192 544.86C264.892 545.15 264.742 545.54 264.742 546.01ZM271.051 549H270.181V543.78H270.941L271.051 544.75H271.121C271.441 544.08 272.091 543.68 272.881 543.68C274.011 543.68 274.691 544.5 274.691 545.79V549H273.821V545.88C273.821 544.93 273.411 544.45 272.591 544.45C271.671 544.45 271.051 545.18 271.051 546.27V549ZM280.116 543.7H278.306V543.02H278.586C279.516 543.02 280.146 542.54 280.176 541.79H280.986V549H280.116V543.7ZM284.196 549H283.076V547.74H284.196V549ZM288.007 541.7C289.677 541.7 290.487 542.91 290.487 545.4C290.487 547.89 289.677 549.1 288.007 549.1C286.347 549.1 285.517 547.87 285.517 545.4C285.517 542.93 286.347 541.7 288.007 541.7ZM286.487 544.32V546.48C286.487 547.68 287.067 548.32 287.997 548.32C288.917 548.32 289.517 547.69 289.517 546.48V544.32C289.517 543.11 288.917 542.48 287.997 542.48C287.067 542.48 286.487 543.12 286.487 544.32ZM292.927 549H291.807V547.74H292.927V549ZM296.738 541.7C298.408 541.7 299.218 542.91 299.218 545.4C299.218 547.89 298.408 549.1 296.738 549.1C295.078 549.1 294.248 547.87 294.248 545.4C294.248 542.93 295.078 541.7 296.738 541.7ZM295.218 544.32V546.48C295.218 547.68 295.798 548.32 296.728 548.32C297.648 548.32 298.248 547.69 298.248 546.48V544.32C298.248 543.11 297.648 542.48 296.728 542.48C295.798 542.48 295.218 543.12 295.218 544.32Z" fill="#7B7979"/>
<path d="M128.12 255.504H141.176V257.472H135.752V273H133.592V257.472H128.12V255.504ZM139.978 266.736C139.978 264.72 140.53 263.136 141.634 261.984C142.738 260.808 144.202 260.232 146.002 260.232C147.802 260.232 149.266 260.808 150.346 261.96C151.45 263.112 152.002 264.696 152.002 266.736C152.002 270.696 149.77 273.24 146.002 273.24C144.13 273.24 142.666 272.664 141.586 271.488C140.506 270.312 139.978 268.728 139.978 266.736ZM142.114 265.824V267.768C142.114 270.144 143.794 271.512 146.002 271.512C148.234 271.512 149.89 270.096 149.89 267.768V265.824C149.89 263.52 148.282 261.984 146.002 261.984C144.874 261.984 143.938 262.344 143.194 263.064C142.474 263.76 142.114 264.696 142.114 265.824ZM165.942 273H163.566L159.438 266.808L157.254 269.016V273H155.166V255.408H157.254V266.424L163.038 260.472H165.702L160.878 265.368L165.942 273ZM172.811 260.232C176.243 260.232 178.379 262.392 178.379 265.872C178.379 266.352 178.355 266.784 178.307 267.168H169.067V267.888C169.067 270.096 170.579 271.56 172.883 271.56C174.635 271.56 175.979 270.648 176.387 269.232H178.451C178.187 270.456 177.563 271.416 176.531 272.16C175.499 272.88 174.275 273.24 172.835 273.24C169.187 273.24 166.931 270.72 166.931 266.688C166.931 262.656 169.187 260.232 172.811 260.232ZM169.067 265.296V265.632H176.315V265.152C176.315 263.208 174.899 261.912 172.811 261.912C170.603 261.912 169.067 263.28 169.067 265.296ZM183.692 273H181.604V260.472H183.428L183.692 262.8H183.86C184.628 261.192 186.188 260.232 188.084 260.232C190.796 260.232 192.428 262.2 192.428 265.296V273H190.34V265.512C190.34 263.232 189.356 262.08 187.388 262.08C185.18 262.08 183.692 263.832 183.692 266.448V273ZM214.017 273H202.377V255.504H214.017V257.496H204.561V263.04H212.841V264.936H204.561V271.008H214.017V273ZM225.559 268.728H227.623C227.215 271.512 225.103 273.24 222.055 273.24C220.207 273.24 218.743 272.664 217.687 271.488C216.631 270.312 216.103 268.752 216.103 266.76C216.103 264.72 216.655 263.112 217.759 261.96C218.863 260.808 220.327 260.232 222.127 260.232C225.031 260.232 227.143 261.936 227.551 264.552H225.487C225.079 262.848 223.759 261.984 222.031 261.984C219.799 261.984 218.239 263.592 218.239 265.896V267.792C218.239 270.024 219.751 271.512 222.031 271.512C223.879 271.512 225.247 270.432 225.559 268.728ZM229.65 266.736C229.65 264.72 230.202 263.136 231.306 261.984C232.41 260.808 233.874 260.232 235.674 260.232C237.474 260.232 238.938 260.808 240.018 261.96C241.122 263.112 241.674 264.696 241.674 266.736C241.674 270.696 239.442 273.24 235.674 273.24C233.802 273.24 232.338 272.664 231.258 271.488C230.178 270.312 229.65 268.728 229.65 266.736ZM231.786 265.824V267.768C231.786 270.144 233.466 271.512 235.674 271.512C237.906 271.512 239.562 270.096 239.562 267.768V265.824C239.562 263.52 237.954 261.984 235.674 261.984C234.546 261.984 233.61 262.344 232.866 263.064C232.146 263.76 231.786 264.696 231.786 265.824ZM246.926 273H244.838V260.472H246.662L246.926 262.8H247.094C247.862 261.192 249.422 260.232 251.318 260.232C254.03 260.232 255.662 262.2 255.662 265.296V273H253.574V265.512C253.574 263.232 252.59 262.08 250.622 262.08C248.414 262.08 246.926 263.832 246.926 266.448V273ZM258.642 266.736C258.642 264.72 259.194 263.136 260.298 261.984C261.402 260.808 262.866 260.232 264.666 260.232C266.466 260.232 267.93 260.808 269.01 261.96C270.114 263.112 270.666 264.696 270.666 266.736C270.666 270.696 268.434 273.24 264.666 273.24C262.794 273.24 261.33 272.664 260.25 271.488C259.17 270.312 258.642 268.728 258.642 266.736ZM260.778 265.824V267.768C260.778 270.144 262.458 271.512 264.666 271.512C266.898 271.512 268.554 270.096 268.554 267.768V265.824C268.554 263.52 266.946 261.984 264.666 261.984C263.538 261.984 262.602 262.344 261.858 263.064C261.138 263.76 260.778 264.696 260.778 265.824ZM275.918 273H273.83V260.472H275.63L275.894 262.8H276.086C276.83 261.096 278.102 260.232 279.95 260.232C281.798 260.232 283.142 261.336 283.622 262.968H283.814C284.558 261.144 286.022 260.232 287.918 260.232C290.534 260.232 292.094 262.032 292.094 265.176V273H290.006V265.44C290.006 263.136 289.094 261.984 287.27 261.984C285.182 261.984 284.006 263.688 284.006 266.352V273H281.942V265.488C281.942 263.16 281.03 261.984 279.23 261.984C277.214 261.984 275.918 263.736 275.918 266.328V273ZM298.136 258.144H296.072V255.408H298.136V258.144ZM298.136 273H296.072V260.472H298.136V273ZM310.731 268.728H312.795C312.387 271.512 310.275 273.24 307.227 273.24C305.379 273.24 303.915 272.664 302.859 271.488C301.803 270.312 301.275 268.752 301.275 266.76C301.275 264.72 301.827 263.112 302.931 261.96C304.035 260.808 305.499 260.232 307.299 260.232C310.203 260.232 312.315 261.936 312.723 264.552H310.659C310.251 262.848 308.931 261.984 307.203 261.984C304.971 261.984 303.411 263.592 303.411 265.896V267.792C303.411 270.024 304.923 271.512 307.203 271.512C309.051 271.512 310.419 270.432 310.731 268.728ZM314.774 269.208H316.838C316.838 270.672 318.038 271.608 319.886 271.608C321.638 271.608 322.694 270.84 322.694 269.52C322.694 268.584 322.142 268.008 321.038 267.792L318.35 267.288C316.118 266.88 315.014 265.776 315.014 263.976C315.014 261.648 316.862 260.232 319.742 260.232C322.718 260.232 324.518 261.744 324.542 264.048H322.478C322.43 262.584 321.518 261.84 319.742 261.84C318.038 261.84 317.102 262.584 317.102 263.76C317.102 264.432 317.39 264.912 317.894 265.176C318.398 265.392 318.614 265.464 319.118 265.56L321.59 266.016C323.774 266.4 324.878 267.528 324.878 269.4C324.878 271.8 322.934 273.24 319.886 273.24C316.718 273.24 314.774 271.632 314.774 269.208ZM332.517 266.736C332.517 264.72 333.069 263.136 334.173 261.984C335.277 260.808 336.741 260.232 338.541 260.232C340.341 260.232 341.805 260.808 342.885 261.96C343.989 263.112 344.541 264.696 344.541 266.736C344.541 270.696 342.309 273.24 338.541 273.24C336.669 273.24 335.205 272.664 334.125 271.488C333.045 270.312 332.517 268.728 332.517 266.736ZM334.653 265.824V267.768C334.653 270.144 336.333 271.512 338.541 271.512C340.773 271.512 342.429 270.096 342.429 267.768V265.824C342.429 263.52 340.821 261.984 338.541 261.984C337.413 261.984 336.477 262.344 335.733 263.064C335.013 263.76 334.653 264.696 334.653 265.824ZM353.705 257.112H350.465V260.472H353.177V262.2H350.465V273H348.401V262.2H345.953V260.472H348.401V257.136C348.401 255.984 349.073 255.408 350.393 255.408H353.705V257.112ZM369.137 273H362.057V255.504H369.137C374.345 255.504 376.481 258.504 376.481 264.264C376.481 270.048 374.321 273 369.137 273ZM364.241 257.496V271.008H369.113C372.569 271.008 374.177 269.424 374.177 265.704V262.824C374.177 259.056 372.497 257.496 369.113 257.496H364.241ZM381.715 258.144H379.651V255.408H381.715V258.144ZM381.715 273H379.651V260.472H381.715V273ZM386.149 258.144V255.408H388.189V258.144H386.149ZM386.149 275.328V260.472H388.189V275.16C388.189 275.544 388.165 275.76 387.949 276.24C387.757 276.72 387.181 277.008 386.317 277.008H383.389V275.328H386.149ZM397.014 260.232C400.446 260.232 402.582 262.392 402.582 265.872C402.582 266.352 402.558 266.784 402.51 267.168H393.27V267.888C393.27 270.096 394.782 271.56 397.086 271.56C398.838 271.56 400.182 270.648 400.59 269.232H402.654C402.39 270.456 401.766 271.416 400.734 272.16C399.702 272.88 398.478 273.24 397.038 273.24C393.39 273.24 391.134 270.72 391.134 266.688C391.134 262.656 393.39 260.232 397.014 260.232ZM393.27 265.296V265.632H400.518V265.152C400.518 263.208 399.102 261.912 397.014 261.912C394.806 261.912 393.27 263.28 393.27 265.296ZM408.375 262.2V271.272H411.015V273H408.135C406.911 273 406.311 272.424 406.311 271.248V262.2H404.031V260.472H406.311V256.32H408.375V260.472H410.991V262.2H408.375ZM413 269.208H415.064C415.064 270.672 416.264 271.608 418.112 271.608C419.864 271.608 420.92 270.84 420.92 269.52C420.92 268.584 420.368 268.008 419.264 267.792L416.576 267.288C414.344 266.88 413.24 265.776 413.24 263.976C413.24 261.648 415.088 260.232 417.968 260.232C420.944 260.232 422.744 261.744 422.768 264.048H420.704C420.656 262.584 419.744 261.84 417.968 261.84C416.264 261.84 415.328 262.584 415.328 263.76C415.328 264.432 415.616 264.912 416.12 265.176C416.624 265.392 416.84 265.464 417.344 265.56L419.816 266.016C422 266.4 423.104 267.528 423.104 269.4C423.104 271.8 421.16 273.24 418.112 273.24C414.944 273.24 413 271.632 413 269.208ZM433.864 273H431.776V260.472H433.6L433.864 262.8H434.032C434.8 261.192 436.36 260.232 438.256 260.232C440.968 260.232 442.6 262.2 442.6 265.296V273H440.512V265.512C440.512 263.232 439.528 262.08 437.56 262.08C435.352 262.08 433.864 263.832 433.864 266.448V273ZM445.555 269.4C445.555 266.928 447.259 265.536 450.115 265.536H453.883V264.576C453.883 262.776 452.947 261.888 451.051 261.888C449.203 261.888 448.195 262.776 448.123 264.216H446.083C446.203 261.72 448.123 260.232 451.171 260.232C452.827 260.232 454.123 260.784 454.771 261.456C455.083 261.792 455.347 262.176 455.539 262.632C455.923 263.52 455.947 264.048 455.947 264.624V271.464H457.795V273H455.659C454.507 273 454.099 272.52 454.027 271.584L454.003 270.936H453.859C453.307 272.352 451.627 273.24 449.587 273.24C447.067 273.24 445.555 271.728 445.555 269.4ZM447.691 268.872V269.64C447.691 270.888 448.627 271.56 450.067 271.56C452.395 271.56 453.883 270.024 453.883 267.72V267.048H450.307C448.651 267.048 447.691 267.792 447.691 268.872ZM468.412 258.36V255.624H470.476V258.36H468.412ZM462.844 260.472H470.476V273H468.412V262.2H462.844V271.272H465.436V273H462.7C461.355 273 460.828 272.376 460.804 271.152V262.2H458.5V260.472H460.804V256.32H462.844V260.472ZM477.115 273L472.555 260.472H474.835L477.043 267.144L478.267 270.864H478.411L479.563 267.144L481.771 260.472H484.051L479.587 273H477.115ZM490.928 260.232C494.36 260.232 496.496 262.392 496.496 265.872C496.496 266.352 496.472 266.784 496.424 267.168H487.184V267.888C487.184 270.096 488.696 271.56 491 271.56C492.752 271.56 494.096 270.648 494.504 269.232H496.568C496.304 270.456 495.68 271.416 494.648 272.16C493.616 272.88 492.392 273.24 490.952 273.24C487.304 273.24 485.048 270.72 485.048 266.688C485.048 262.656 487.304 260.232 490.928 260.232ZM487.184 265.296V265.632H494.432V265.152C494.432 263.208 493.016 261.912 490.928 261.912C488.72 261.912 487.184 263.28 487.184 265.296ZM513.746 268.728H515.81C515.402 271.512 513.29 273.24 510.242 273.24C508.394 273.24 506.93 272.664 505.874 271.488C504.818 270.312 504.29 268.752 504.29 266.76C504.29 264.72 504.842 263.112 505.946 261.96C507.05 260.808 508.514 260.232 510.314 260.232C513.218 260.232 515.33 261.936 515.738 264.552H513.674C513.266 262.848 511.946 261.984 510.218 261.984C507.986 261.984 506.426 263.592 506.426 265.896V267.792C506.426 270.024 507.938 271.512 510.218 271.512C512.066 271.512 513.434 270.432 513.746 268.728ZM517.837 266.736C517.837 264.72 518.389 263.136 519.493 261.984C520.597 260.808 522.061 260.232 523.861 260.232C525.661 260.232 527.125 260.808 528.205 261.96C529.309 263.112 529.861 264.696 529.861 266.736C529.861 270.696 527.629 273.24 523.861 273.24C521.989 273.24 520.525 272.664 519.445 271.488C518.365 270.312 517.837 268.728 517.837 266.736ZM519.973 265.824V267.768C519.973 270.144 521.653 271.512 523.861 271.512C526.093 271.512 527.749 270.096 527.749 267.768V265.824C527.749 263.52 526.141 261.984 523.861 261.984C522.733 261.984 521.797 262.344 521.053 263.064C520.333 263.76 519.973 264.696 519.973 265.824ZM535.09 258.144H533.026V255.408H535.09V258.144ZM535.09 273H533.026V260.472H535.09V273ZM541.348 273H539.26V260.472H541.084L541.348 262.8H541.516C542.284 261.192 543.844 260.232 545.74 260.232C548.452 260.232 550.084 262.2 550.084 265.296V273H547.996V265.512C547.996 263.232 547.012 262.08 545.044 262.08C542.836 262.08 541.348 263.832 541.348 266.448V273ZM558.641 269.4C558.641 266.928 560.345 265.536 563.201 265.536H566.969V264.576C566.969 262.776 566.033 261.888 564.137 261.888C562.289 261.888 561.281 262.776 561.209 264.216H559.169C559.289 261.72 561.209 260.232 564.257 260.232C565.913 260.232 567.209 260.784 567.857 261.456C568.169 261.792 568.433 262.176 568.625 262.632C569.009 263.52 569.033 264.048 569.033 264.624V271.464H570.881V273H568.745C567.593 273 567.185 272.52 567.113 271.584L567.089 270.936H566.945C566.393 272.352 564.713 273.24 562.673 273.24C560.153 273.24 558.641 271.728 558.641 269.4ZM560.777 268.872V269.64C560.777 270.888 561.713 271.56 563.153 271.56C565.481 271.56 566.969 270.024 566.969 267.72V267.048H563.393C561.737 267.048 560.777 267.792 560.777 268.872ZM575.59 273H573.502V260.472H575.326L575.59 262.8H575.758C576.526 261.192 578.086 260.232 579.982 260.232C582.694 260.232 584.326 262.2 584.326 265.296V273H582.238V265.512C582.238 263.232 581.254 262.08 579.286 262.08C577.078 262.08 575.59 263.832 575.59 266.448V273ZM592.514 273.24C589.25 273.24 587.306 270.888 587.306 266.832C587.306 262.728 589.25 260.4 592.514 260.4C594.626 260.4 596.21 261.312 597.002 262.848H597.146V255.408H599.234V273H597.362L597.146 270.816H597.002C596.138 272.424 594.65 273.24 592.514 273.24ZM593.09 271.512C595.514 271.512 597.146 269.928 597.146 267.6V266.04C597.146 263.712 595.514 262.152 593.09 262.152C590.858 262.152 589.442 263.472 589.442 265.56V268.08C589.442 270.168 590.858 271.512 593.09 271.512ZM138.488 289.472H140.576V302H138.8L138.512 299.672H138.32C137.648 301.232 136.016 302.24 134.072 302.24C131.48 302.24 129.92 300.512 129.92 297.464V289.472H131.984V297.176C131.984 299.384 132.92 300.488 134.768 300.488C137.048 300.488 138.488 298.688 138.488 296.024V289.472ZM146.848 302H144.76V289.472H146.584L146.848 291.8H147.016C147.784 290.192 149.344 289.232 151.24 289.232C153.952 289.232 155.584 291.2 155.584 294.296V302H153.496V294.512C153.496 292.232 152.512 291.08 150.544 291.08C148.336 291.08 146.848 292.832 146.848 295.448V302ZM161.66 287.144H159.596V284.408H161.66V287.144ZM161.66 302H159.596V289.472H161.66V302ZM168.398 291.2V300.272H171.038V302H168.158C166.934 302 166.334 301.424 166.334 300.248V291.2H164.054V289.472H166.334V285.32H168.398V289.472H171.014V291.2H168.398ZM178.673 295.736C178.673 293.72 179.225 292.136 180.329 290.984C181.433 289.808 182.897 289.232 184.697 289.232C186.497 289.232 187.961 289.808 189.041 290.96C190.145 292.112 190.697 293.696 190.697 295.736C190.697 299.696 188.465 302.24 184.697 302.24C182.825 302.24 181.361 301.664 180.281 300.488C179.201 299.312 178.673 297.728 178.673 295.736ZM180.809 294.824V296.768C180.809 299.144 182.489 300.512 184.697 300.512C186.929 300.512 188.585 299.096 188.585 296.768V294.824C188.585 292.52 186.977 290.984 184.697 290.984C183.569 290.984 182.633 291.344 181.889 292.064C181.169 292.76 180.809 293.696 180.809 294.824ZM199.861 286.112H196.621V289.472H199.333V291.2H196.621V302H194.557V291.2H192.109V289.472H194.557V286.136C194.557 284.984 195.229 284.408 196.549 284.408H199.861V286.112ZM206.821 298.4C206.821 295.928 208.525 294.536 211.381 294.536H215.149V293.576C215.149 291.776 214.213 290.888 212.317 290.888C210.469 290.888 209.461 291.776 209.389 293.216H207.349C207.469 290.72 209.389 289.232 212.437 289.232C214.093 289.232 215.389 289.784 216.037 290.456C216.349 290.792 216.613 291.176 216.805 291.632C217.189 292.52 217.213 293.048 217.213 293.624V300.464H219.061V302H216.925C215.773 302 215.365 301.52 215.293 300.584L215.269 299.936H215.125C214.573 301.352 212.893 302.24 210.853 302.24C208.333 302.24 206.821 300.728 206.821 298.4ZM208.957 297.872V298.64C208.957 299.888 209.893 300.56 211.333 300.56C213.661 300.56 215.149 299.024 215.149 296.72V296.048H211.573C209.917 296.048 208.957 296.792 208.957 297.872ZM230.106 297.728H232.17C231.762 300.512 229.65 302.24 226.602 302.24C224.754 302.24 223.29 301.664 222.234 300.488C221.178 299.312 220.65 297.752 220.65 295.76C220.65 293.72 221.202 292.112 222.306 290.96C223.41 289.808 224.874 289.232 226.674 289.232C229.578 289.232 231.69 290.936 232.098 293.552H230.034C229.626 291.848 228.306 290.984 226.578 290.984C224.346 290.984 222.786 292.592 222.786 294.896V296.792C222.786 299.024 224.298 300.512 226.578 300.512C228.426 300.512 229.794 299.432 230.106 297.728ZM243.653 297.728H245.717C245.309 300.512 243.197 302.24 240.149 302.24C238.301 302.24 236.837 301.664 235.781 300.488C234.725 299.312 234.197 297.752 234.197 295.76C234.197 293.72 234.749 292.112 235.853 290.96C236.957 289.808 238.421 289.232 240.221 289.232C243.125 289.232 245.237 290.936 245.645 293.552H243.581C243.173 291.848 241.853 290.984 240.125 290.984C237.893 290.984 236.333 292.592 236.333 294.896V296.792C236.333 299.024 237.845 300.512 240.125 300.512C241.973 300.512 243.341 299.432 243.653 297.728ZM247.744 295.736C247.744 293.72 248.296 292.136 249.4 290.984C250.504 289.808 251.968 289.232 253.768 289.232C255.568 289.232 257.032 289.808 258.112 290.96C259.216 292.112 259.768 293.696 259.768 295.736C259.768 299.696 257.536 302.24 253.768 302.24C251.896 302.24 250.432 301.664 249.352 300.488C248.271 299.312 247.744 297.728 247.744 295.736ZM249.88 294.824V296.768C249.88 299.144 251.56 300.512 253.768 300.512C256 300.512 257.656 299.096 257.656 296.768V294.824C257.656 292.52 256.048 290.984 253.768 290.984C252.64 290.984 251.704 291.344 250.96 292.064C250.24 292.76 249.88 293.696 249.88 294.824ZM271.332 289.472H273.42V302H271.644L271.356 299.672H271.164C270.492 301.232 268.86 302.24 266.916 302.24C264.324 302.24 262.764 300.512 262.764 297.464V289.472H264.828V297.176C264.828 299.384 265.764 300.488 267.612 300.488C269.892 300.488 271.332 298.688 271.332 296.024V289.472ZM279.692 302H277.604V289.472H279.428L279.692 291.8H279.86C280.628 290.192 282.188 289.232 284.084 289.232C286.796 289.232 288.428 291.2 288.428 294.296V302H286.34V294.512C286.34 292.232 285.356 291.08 283.388 291.08C281.18 291.08 279.692 292.832 279.692 295.448V302ZM294.726 291.2V300.272H297.366V302H294.486C293.262 302 292.662 301.424 292.662 300.248V291.2H290.382V289.472H292.662V285.32H294.726V289.472H297.342V291.2H294.726ZM313.449 302H306.369V284.504H313.449C318.657 284.504 320.793 287.504 320.793 293.264C320.793 299.048 318.633 302 313.449 302ZM308.553 286.496V300.008H313.425C316.881 300.008 318.489 298.424 318.489 294.704V291.824C318.489 288.056 316.809 286.496 313.425 286.496H308.553ZM326.258 300.032V284.504H328.394V300.152C328.394 300.536 328.37 300.776 328.154 301.256C327.962 301.712 327.362 302 326.498 302H321.65V300.032H326.258ZM330.222 284.504H343.278V286.472H337.854V302H335.694V286.472H330.222V284.504Z" fill="#626262"/>
<path d="M150.44 222H131.04V192.84H150.44V196.16H134.68V205.4H148.48V208.56H134.68V218.68H150.44V222ZM169.676 214.88H173.116C172.436 219.52 168.916 222.4 163.836 222.4C160.756 222.4 158.316 221.44 156.556 219.48C154.796 217.52 153.916 214.92 153.916 211.6C153.916 208.2 154.836 205.52 156.676 203.6C158.516 201.68 160.956 200.72 163.956 200.72C168.796 200.72 172.316 203.56 172.996 207.92H169.556C168.876 205.08 166.676 203.64 163.796 203.64C160.076 203.64 157.476 206.32 157.476 210.16V213.32C157.476 217.04 159.996 219.52 163.796 219.52C166.876 219.52 169.156 217.72 169.676 214.88ZM176.494 211.56C176.494 208.2 177.414 205.56 179.254 203.64C181.094 201.68 183.534 200.72 186.534 200.72C189.534 200.72 191.974 201.68 193.774 203.6C195.614 205.52 196.534 208.16 196.534 211.56C196.534 218.16 192.814 222.4 186.534 222.4C183.414 222.4 180.974 221.44 179.174 219.48C177.374 217.52 176.494 214.88 176.494 211.56ZM180.054 210.04V213.28C180.054 217.24 182.854 219.52 186.534 219.52C190.254 219.52 193.014 217.16 193.014 213.28V210.04C193.014 206.2 190.334 203.64 186.534 203.64C184.654 203.64 183.094 204.24 181.854 205.44C180.654 206.6 180.054 208.16 180.054 210.04ZM205.288 222H201.808V201.12H204.848L205.288 205H205.568C206.848 202.32 209.448 200.72 212.608 200.72C217.128 200.72 219.848 204 219.848 209.16V222H216.368V209.52C216.368 205.72 214.728 203.8 211.448 203.8C207.768 203.8 205.288 206.72 205.288 211.08V222ZM224.815 211.56C224.815 208.2 225.735 205.56 227.575 203.64C229.415 201.68 231.855 200.72 234.855 200.72C237.855 200.72 240.295 201.68 242.095 203.6C243.935 205.52 244.855 208.16 244.855 211.56C244.855 218.16 241.135 222.4 234.855 222.4C231.735 222.4 229.295 221.44 227.495 219.48C225.695 217.52 224.815 214.88 224.815 211.56ZM228.375 210.04V213.28C228.375 217.24 231.175 219.52 234.855 219.52C238.575 219.52 241.335 217.16 241.335 213.28V210.04C241.335 206.2 238.655 203.64 234.855 203.64C232.975 203.64 231.415 204.24 230.175 205.44C228.975 206.6 228.375 208.16 228.375 210.04ZM253.608 222H250.128V201.12H253.128L253.568 205H253.888C255.128 202.16 257.248 200.72 260.328 200.72C263.408 200.72 265.648 202.56 266.448 205.28H266.768C268.008 202.24 270.448 200.72 273.608 200.72C277.968 200.72 280.568 203.72 280.568 208.96V222H277.088V209.4C277.088 205.56 275.568 203.64 272.528 203.64C269.048 203.64 267.088 206.48 267.088 210.92V222H263.648V209.48C263.648 205.6 262.128 203.64 259.128 203.64C255.768 203.64 253.608 206.56 253.608 210.88V222ZM290.639 197.24H287.199V192.68H290.639V197.24ZM290.639 222H287.199V201.12H290.639V222ZM311.629 214.88H315.069C314.389 219.52 310.869 222.4 305.789 222.4C302.709 222.4 300.269 221.44 298.509 219.48C296.749 217.52 295.869 214.92 295.869 211.6C295.869 208.2 296.789 205.52 298.629 203.6C300.469 201.68 302.909 200.72 305.909 200.72C310.749 200.72 314.269 203.56 314.949 207.92H311.509C310.829 205.08 308.629 203.64 305.749 203.64C302.029 203.64 299.429 206.32 299.429 210.16V213.32C299.429 217.04 301.949 219.52 305.749 219.52C308.829 219.52 311.109 217.72 311.629 214.88ZM318.368 215.68H321.808C321.808 218.12 323.808 219.68 326.888 219.68C329.808 219.68 331.568 218.4 331.568 216.2C331.568 214.64 330.648 213.68 328.808 213.32L324.328 212.48C320.608 211.8 318.768 209.96 318.768 206.96C318.768 203.08 321.848 200.72 326.648 200.72C331.608 200.72 334.608 203.24 334.648 207.08H331.208C331.128 204.64 329.608 203.4 326.648 203.4C323.808 203.4 322.248 204.64 322.248 206.6C322.248 207.72 322.728 208.52 323.568 208.96C324.408 209.32 324.768 209.44 325.608 209.6L329.728 210.36C333.368 211 335.208 212.88 335.208 216C335.208 220 331.968 222.4 326.888 222.4C321.608 222.4 318.368 219.72 318.368 215.68Z" fill="#ABABAB"/>
<defs>
<filter id="filter0_d_958_35" x="0" y="589" width="190.836" height="101" filterUnits="userSpaceOnUse" color-interpolation-filters="sRGB">
<feFlood flood-opacity="0" result="BackgroundImageFix"/>
<feColorMatrix in="SourceAlpha" type="matrix" values="0 0 0 0 0 0 0 0 0 0 0 0 0 0 0 0 0 0 127 0" result="hardAlpha"/>
<feOffset dx="-3" dy="-4"/>
<feGaussianBlur stdDeviation="3"/>
<feComposite in2="hardAlpha" operator="out"/>
<feColorMatrix type="matrix" values="0 0 0 0 0 0 0 0 0 0 0 0 0 0 0 0 0 0 0.24 0"/>
<feBlend mode="normal" in2="BackgroundImageFix" result="effect1_dropShadow_958_35"/>
<feBlend mode="normal" in="SourceGraphic" in2="effect1_dropShadow_958_35" result="shape"/>
</filter>
<linearGradient id="paint0_linear_958_35" x1="344.71" y1="-18.7954" x2="346.5" y2="633" gradientUnits="userSpaceOnUse">
<stop stop-color="#2D2D2D"/>
<stop offset="1" stop-color="#0F0F0F" stop-opacity="0"/>
</linearGradient>
</defs>
</svg>
