<svg width="25" height="25" viewBox="0 0 25 25" fill="none" xmlns="http://www.w3.org/2000/svg">
<path d="M12.484 19.5186C15.3904 19.5186 17.1711 16.9601 17.1711 12.4776C17.1711 7.95422 15.3904 5.51855 12.484 5.51855C9.57757 5.51855 7.79688 7.95422 7.79688 12.4776C7.79688 16.9601 9.57757 19.5186 12.484 19.5186ZM12.484 18.1677C10.6624 18.1677 9.37285 16.3665 9.37285 12.4776C9.37285 8.56826 10.6624 6.86943 12.484 6.86943C14.3056 6.86943 15.5951 8.56826 15.5951 12.4776C15.5951 16.3665 14.3056 18.1677 12.484 18.1677ZM12.484 13.7262C13.1594 13.7262 13.753 13.2145 13.753 12.3343C13.753 11.4542 13.1594 10.9425 12.484 10.9425C11.8086 10.9425 11.2149 11.4542 11.2149 12.3343C11.2149 13.2145 11.8086 13.7262 12.484 13.7262Z" fill="#4F4F4F"/>
</svg>
