<svg width="92" height="32" viewBox="0 0 92 32" fill="none" xmlns="http://www.w3.org/2000/svg">
<g clip-path="url(#clip0_8295_380)">
<path d="M0.00032046 4C0.00032046 1.79 1.75032 0 3.90032 0H88.1003C90.2503 0 92.0003 1.79 92.0003 4V28C92.0003 30.21 90.2503 32 88.1003 32H3.90032C3.38159 31.9935 2.86922 31.8848 2.39248 31.6803C1.91573 31.4757 1.48396 31.1793 1.1218 30.8078C0.759643 30.4364 0.474202 29.9972 0.281777 29.5155C0.089352 29.0337 -0.00628734 28.5187 0.00032046 28V4Z" fill="#1374EF"/>
<path fill-rule="evenodd" clip-rule="evenodd" d="M32 32V0H33V32H32Z" fill="#0E5EBF"/>
<path d="M23.3207 12.1249H19.5852V10.3584H20.5028C20.875 10.3584 21.182 10.0514 21.182 9.67918C21.182 9.30694 20.875 9 20.5028 9H17.3093C16.9371 9 16.6302 9.30694 16.6302 9.67918C16.6302 10.0514 16.9371 10.3584 17.3093 10.3584H18.2269V12.1249H10.9551C9.32571 12.1249 8 13.4147 8 15.0114V20.1738C8 20.5461 8.30694 20.853 8.67918 20.853H13.231C13.6032 20.853 13.9102 20.582 13.9102 20.2065V17.9306H23.3207C23.693 17.9306 23.9999 17.6236 23.9999 17.2514V12.8041C23.9999 12.4318 23.693 12.1249 23.3207 12.1249ZM22.6742 16.5755H13.2669C12.8947 16.5755 12.5877 16.8824 12.5877 17.2546V19.5306H9.32571V15.0114C9.32571 14.1624 10.0735 13.4473 10.9551 13.4473H22.6742V16.5755Z" fill="#F1EDED"/>
<path d="M8.8198 21.4336C8.44756 21.4336 8.14062 21.7405 8.14062 22.1128V24.3201C8.14062 24.6924 8.44756 24.9993 8.8198 24.9993C9.19205 24.9993 9.49898 24.6924 9.49898 24.3201V22.1128C9.49898 21.7373 9.19205 21.4336 8.8198 21.4336Z" fill="#F1EDED"/>
<path d="M10.7886 21.4336C10.4163 21.4336 10.1094 21.7405 10.1094 22.1128V24.3201C10.1094 24.6924 10.4163 24.9993 10.7886 24.9993C11.1608 24.9993 11.4677 24.6924 11.4677 24.3201V22.1128C11.4677 21.7373 11.1641 21.4336 10.7886 21.4336Z" fill="#F1EDED"/>
<path d="M12.7573 21.4336C12.3851 21.4336 12.0781 21.7405 12.0781 22.1128V24.3201C12.0781 24.6924 12.3851 24.9993 12.7573 24.9993C13.1295 24.9993 13.4365 24.6924 13.4365 24.3201V22.1128C13.4397 21.7373 13.1328 21.4336 12.7573 21.4336Z" fill="#F1EDED"/>
<path d="M42.632 21H41.26V11.074H47.294V12.348H42.632V15.54H46.86V16.828H42.632V21ZM47.9188 19.194C47.9188 18.62 48.1008 18.158 48.4788 17.808C48.8428 17.458 49.3468 17.234 49.9628 17.15L51.7828 16.884C52.1188 16.842 52.3008 16.674 52.3008 16.38C52.3008 16.03 52.1748 15.736 51.9368 15.512C51.6848 15.288 51.3208 15.176 50.8448 15.176C50.3968 15.176 50.0328 15.302 49.7808 15.554C49.5148 15.806 49.3608 16.128 49.3188 16.534L48.0588 16.24C48.1148 15.596 48.4088 15.078 48.9408 14.672C49.4588 14.266 50.0888 14.056 50.8167 14.056C51.7688 14.056 52.4688 14.294 52.9308 14.756C53.3788 15.218 53.6168 15.806 53.6168 16.52V19.894C53.6168 20.3 53.6448 20.664 53.7008 21H52.4128C52.3568 20.72 52.3428 20.426 52.3428 20.09C52.1468 20.398 51.8808 20.65 51.5168 20.874C51.1528 21.098 50.7048 21.21 50.1728 21.21C49.5008 21.21 48.9688 21.014 48.5488 20.622C48.1288 20.23 47.9188 19.754 47.9188 19.194ZM50.3548 20.104C50.9428 20.104 51.4048 19.95 51.7688 19.628C52.1188 19.32 52.3008 18.816 52.3008 18.116V17.808L50.2428 18.116C49.9348 18.172 49.6968 18.27 49.5288 18.438C49.3468 18.606 49.2628 18.844 49.2628 19.124C49.2628 19.39 49.3608 19.614 49.5568 19.81C49.7528 20.006 50.0188 20.104 50.3548 20.104ZM59.9682 20.188C59.7862 20.524 59.5202 20.79 59.1562 20.958C58.7922 21.126 58.4002 21.21 57.9802 21.21C57.2102 21.21 56.5942 20.958 56.1462 20.454C55.6842 19.95 55.4602 19.292 55.4602 18.508V14.266H56.7762V18.312C56.7762 18.816 56.8882 19.236 57.1402 19.558C57.3922 19.894 57.7702 20.048 58.3022 20.048C58.8202 20.048 59.2122 19.894 59.4922 19.586C59.7582 19.278 59.8982 18.858 59.8982 18.326V14.266H61.2142V19.754C61.2142 20.202 61.2282 20.608 61.2842 21H60.0242C59.9822 20.804 59.9682 20.524 59.9682 20.188ZM66.2195 15.274C65.6455 15.274 65.1555 15.484 64.7635 15.89C64.3715 16.31 64.1755 16.884 64.1755 17.626C64.1755 18.368 64.3715 18.942 64.7635 19.362C65.1555 19.782 65.6455 19.992 66.2335 19.992C66.7935 19.992 67.2135 19.852 67.5075 19.572C67.8015 19.292 67.9975 18.97 68.1095 18.606L69.2715 19.11C69.0755 19.67 68.7255 20.16 68.2075 20.58C67.6895 21 67.0315 21.21 66.2335 21.21C65.2535 21.21 64.4415 20.874 63.7975 20.188C63.1535 19.516 62.8315 18.662 62.8315 17.626C62.8315 16.59 63.1535 15.736 63.7975 15.064C64.4415 14.392 65.2395 14.056 66.2195 14.056C67.0315 14.056 67.7035 14.266 68.2075 14.686C68.7115 15.106 69.0475 15.61 69.2155 16.198L68.0255 16.702C67.9135 16.31 67.7175 15.974 67.4375 15.694C67.1435 15.414 66.7375 15.274 66.2195 15.274ZM71.601 16.94H75.283C75.255 16.436 75.087 16.03 74.779 15.708C74.457 15.386 74.009 15.218 73.435 15.218C72.903 15.218 72.483 15.4 72.147 15.736C71.811 16.072 71.629 16.478 71.601 16.94ZM75.479 18.69L76.613 19.082C76.417 19.712 76.053 20.23 75.521 20.622C74.989 21.014 74.345 21.21 73.589 21.21C72.637 21.21 71.839 20.888 71.181 20.244C70.523 19.6 70.201 18.718 70.201 17.612C70.201 16.59 70.509 15.736 71.153 15.064C71.783 14.392 72.539 14.056 73.421 14.056C74.429 14.056 75.227 14.378 75.801 15.022C76.361 15.666 76.655 16.52 76.655 17.584C76.655 17.752 76.641 17.892 76.627 18.004H71.559C71.559 18.606 71.755 19.096 72.147 19.474C72.539 19.866 73.015 20.048 73.589 20.048C74.541 20.048 75.171 19.6 75.479 18.69ZM80.0988 12.138V14.266H81.5548V15.456H80.0988V18.956C80.0988 19.278 80.1688 19.516 80.3088 19.656C80.4488 19.81 80.7008 19.88 81.0368 19.88C81.2328 19.88 81.4008 19.866 81.5548 19.824V20.944C81.3308 21.028 81.0228 21.07 80.6588 21.07C80.0708 21.07 79.6228 20.902 79.2868 20.566C78.9508 20.23 78.7828 19.768 78.7828 19.152V15.456H77.4948V14.266H77.8588C78.1948 14.266 78.4608 14.182 78.6288 13.986C78.7968 13.79 78.8948 13.538 78.8948 13.23V12.138H80.0988Z" fill="white"/>
</g>
<defs>
<clipPath id="clip0_8295_380">
<rect width="92" height="32" fill="white"/>
</clipPath>
</defs>
</svg>
