<svg width="390" height="160" viewBox="0 0 390 160" fill="none" xmlns="http://www.w3.org/2000/svg">
<mask id="mask0_1887_450" style="mask-type:luminance" maskUnits="userSpaceOnUse" x="50" y="0" width="294" height="160">
<path d="M50 0H344V160H50V0Z" fill="white"/>
</mask>
<g mask="url(#mask0_1887_450)">
<path fill-rule="evenodd" clip-rule="evenodd" d="M84.666 31.334V0.333984H115.667V31.334H84.666ZM83.666 32.334V63.334H74.666V64.334H83.666V95.334H74.666V96.334H83.666V127.334H74.666V128.334H83.666V159.334H74.666V160.334H83.666V168.334H84.666V160.334H115.667V168.334H116.667V160.334H147.667V168.334H148.667V160.334H179.667V168.334H180.667V160.334H211.667V168.334H212.667V160.334H243.667V168.334H244.667V160.334H275.667V168.334H276.667V160.334H307.667V168.334H308.667V160.334H318.667V159.334H308.667V128.334H318.667V127.334H308.667V96.334H318.667V95.334H308.667V64.334H318.667V63.334H308.667V32.334H318.667V31.334H308.667V0.333984H318.667V-0.666016H308.667V-7.66602H307.667V-0.666016H276.667V-7.66602H275.667V-0.666016H244.667V-7.66602H243.667V-0.666016H212.667V-7.66602H211.667V-0.666016H180.667V-7.66602H179.667V-0.666016H148.667V-7.66602H147.667V-0.666016H116.667V-7.66602H115.667V-0.666016H84.667V-7.66602H83.667V-0.666016H74.667V0.333984H83.667V31.334H74.667V32.334H83.666ZM307.667 159.334V128.334H276.667V159.334H307.667ZM275.667 159.334V128.334H244.667V159.334H275.667ZM243.667 159.334V128.334H212.667V159.334H243.667ZM211.667 159.334V128.334H180.667V159.334H211.667ZM179.667 159.334V128.334H148.667V159.334H179.667ZM147.667 159.334V128.334H116.667V159.334H147.667ZM115.667 159.334V128.334H84.667V159.334H115.667ZM115.667 127.334H84.667V96.334H115.667V127.334ZM147.667 127.334H116.667V96.334H147.667V127.334ZM179.667 127.334H148.667V96.334H179.667V127.334ZM211.667 127.334H180.667V96.334H211.667V127.334ZM243.667 127.334H212.667V96.334H243.667V127.334ZM275.667 127.334H244.667V96.334H275.667V127.334ZM307.667 127.334H276.667V96.334H307.667V127.334ZM307.667 95.334V64.334H276.667V95.334H307.667ZM275.667 95.334V64.334H244.667V95.334H275.667ZM243.667 95.334V64.334H212.667V95.334H243.667ZM211.667 95.334V64.334H180.667V95.334H211.667ZM179.667 95.334V64.334H148.667V95.334H179.667ZM147.667 95.334V64.334H116.667V95.334H147.667ZM115.667 95.334V64.334H84.667V95.334H115.667ZM115.667 63.334H84.667V32.334H115.667V63.334ZM147.667 63.334H116.667V32.334H147.667V63.334ZM179.667 63.334H148.667V32.334H179.667V63.334ZM211.667 63.334H180.667V32.334H211.667V63.334ZM243.667 63.334H212.667V32.334H243.667V63.334ZM275.667 63.334H244.667V32.334H275.667V63.334ZM307.667 63.334H276.667V32.334H307.667V63.334ZM307.667 31.334V0.333984H276.667V31.334H307.667ZM275.667 31.334V0.333984H244.667V31.334H275.667ZM243.667 31.334V0.333984H212.667V31.334H243.667ZM211.667 31.334V0.333984H180.667V31.334H211.667ZM179.667 31.334V0.333984H148.667V31.334H179.667ZM147.667 31.334V0.333984H116.667V31.334H147.667Z" fill="url(#paint0_radial_1887_450)"/>
<path d="M195.12 171.5C245.654 171.5 286.62 130.534 286.62 80C286.62 29.4659 245.654 -11.5 195.12 -11.5C144.586 -11.5 103.62 29.4659 103.62 80C103.62 130.534 144.586 171.5 195.12 171.5Z" stroke="url(#paint1_radial_1887_450)" stroke-linecap="round"/>
<path opacity="0.4" d="M327.239 76.4807C327.239 149.25 268.248 208.241 195.48 208.241C122.711 208.241 63.7202 149.25 63.7202 76.4807C63.7202 3.71172 122.711 -55.2793 195.48 -55.2793C268.248 -55.2793 327.239 3.71172 327.239 76.4807Z" stroke="url(#paint2_radial_1887_450)" stroke-width="1.44" stroke-linecap="round"/>
<mask id="mask1_1887_450" style="mask-type:luminance" maskUnits="userSpaceOnUse" x="140" y="62" width="111" height="28">
<path d="M140 62H250.592V89.215H140V62Z" fill="white"/>
</mask>
<g mask="url(#mask1_1887_450)">
<path d="M205.36 72.5901V72.5981C205.305 72.5981 205.25 72.6081 205.195 72.6081C205.139 72.6081 205.084 72.5981 205.029 72.5981C201.739 72.5981 199.702 74.6531 199.702 77.9531V79.5751C199.702 82.7541 201.766 84.7261 205.075 84.7261C205.142 84.7281 205.21 84.7251 205.278 84.7171C205.324 84.7171 205.36 84.7271 205.407 84.7271C207.627 84.7271 209.176 83.9151 210.162 82.2381L208.199 81.1041C207.544 82.0721 206.669 82.8001 205.416 82.8001C203.738 82.8001 202.734 81.7681 202.734 80.0261V79.5661H210.512V77.6481C210.512 74.5701 208.494 72.5901 205.36 72.5901ZM205.195 74.4781C206.724 74.5521 207.646 75.5661 207.646 77.2341V77.6941H202.725V77.4271C202.725 75.5841 203.6 74.5521 205.195 74.4781ZM193.113 72.5981C191.648 72.5981 190.385 73.2071 189.722 74.2201L189.556 74.4781V72.8751H186.773V88.4401H189.694V83.0031L189.86 83.2521C190.486 84.1821 191.712 84.7361 193.141 84.7361H193.279C195.684 84.7361 198.108 83.1691 198.108 79.6581V77.6861C198.108 75.1601 196.615 72.6081 193.26 72.6081L193.242 72.5981H193.113ZM192.431 74.7921C194.127 74.8191 195.177 75.9721 195.177 77.8141V79.5101C195.177 81.3531 194.117 82.4961 192.403 82.5331C190.809 82.5051 189.694 81.2891 189.694 79.5561V77.8141C189.694 76.0641 190.818 74.8291 192.431 74.7921ZM230.289 68.7551L224.668 84.4591H227.829L228.907 81.0951H235.044V81.1321L236.123 84.4681H239.284L233.653 68.7641H233.321L233.312 68.7551H230.289ZM231.967 71.4551L234.317 78.8751H229.598L231.967 71.4551ZM250.591 70.9671V68.7551H240.952V70.9671H244.334V82.2301H240.952V84.4421H250.591V82.2301H247.209V70.9671H250.591ZM218.871 72.5991H218.742C217.111 72.5991 215.949 73.1511 215.378 74.2111L215.203 74.5341V72.8751H212.42V84.4501H215.341V77.5571C215.341 75.9351 216.217 75.0041 217.728 74.9771C219.175 75.0041 220.004 75.9171 220.004 77.4921V84.4501H222.926V76.9941C222.926 74.2391 221.414 72.5981 218.88 72.5981L218.871 72.5991ZM177.381 68.4331C173.077 68.4331 170.396 71.1151 170.396 75.4371V77.7691C170.396 82.0911 173.068 84.7721 177.381 84.7721H177.51C181.814 84.7721 184.496 82.0911 184.496 77.7681V75.4371C184.496 71.1151 181.814 68.4331 177.51 68.4331H177.381ZM177.446 70.7731C180.008 70.8021 181.482 72.4421 181.482 75.2801V77.9341C181.482 80.7731 180.008 82.4141 177.446 82.4411C174.884 82.4131 173.409 80.7731 173.409 77.9341V75.2801C173.409 72.4421 174.884 70.8001 177.446 70.7731ZM152.001 62.0001C150.549 62.0002 149.135 62.4593 147.96 63.3117C146.785 64.164 145.909 65.3661 145.458 66.7461C144.512 66.9413 143.619 67.3356 142.837 67.9029C142.055 68.4701 141.403 69.1973 140.924 70.0361C140.196 71.2928 139.885 72.7483 140.038 74.1928C140.19 75.6373 140.798 76.9961 141.772 78.0731C141.467 78.9871 141.36 79.9559 141.46 80.9144C141.56 81.8729 141.865 82.7988 142.352 83.6301C143.077 84.8913 144.183 85.8902 145.511 86.483C146.839 87.0758 148.321 87.232 149.744 86.9291C150.383 87.6515 151.169 88.2292 152.05 88.6232C152.93 89.0173 153.885 89.2187 154.849 89.2141C156.301 89.214 157.716 88.755 158.891 87.9026C160.066 87.0502 160.942 85.8481 161.393 84.4681C162.338 84.2739 163.231 83.8799 164.011 83.3124C164.792 82.745 165.442 82.0173 165.918 81.1781C166.65 79.9231 166.963 78.4678 166.812 77.023C166.661 75.5781 166.054 74.2189 165.079 73.1421V73.1331C165.384 72.2174 165.49 71.2472 165.39 70.2873C165.289 69.3275 164.985 68.4001 164.498 67.5671C163.773 66.3094 162.668 65.3136 161.342 64.7226C160.016 64.1316 158.536 63.9756 157.116 64.2771C156.473 63.5569 155.685 62.9815 154.803 62.5889C153.922 62.1964 152.966 61.9957 152.001 62.0001ZM152.001 63.7701L151.992 63.7791C153.187 63.7777 154.345 64.1952 155.264 64.9591C155.227 64.9771 155.153 65.0231 155.098 65.0511L149.679 68.1751C149.543 68.2533 149.431 68.3662 149.353 68.5022C149.276 68.6382 149.236 68.7924 149.237 68.9491V76.2851L146.905 74.9401V68.8761C146.905 67.5235 147.441 66.2262 148.397 65.2688C149.352 64.3115 150.649 63.7725 152.001 63.7701ZM158.529 65.9061C159.427 65.9042 160.31 66.1395 161.088 66.5882C161.865 67.0368 162.511 67.6829 162.959 68.4611C163.549 69.4931 163.77 70.7011 163.567 71.8711C163.53 71.8431 163.457 71.8061 163.41 71.7791L157.991 68.6451C157.855 68.5678 157.701 68.5273 157.545 68.5273C157.388 68.5273 157.234 68.5678 157.098 68.6451L150.748 72.3131V69.6221L155.992 66.5901C156.763 66.1429 157.638 65.9077 158.529 65.9061ZM145.126 68.6911V75.1331C145.126 75.4561 145.292 75.7411 145.569 75.9071L151.909 79.5661L149.568 80.9201L144.334 77.8971C143.495 77.4114 142.812 76.697 142.365 75.8373C141.917 74.9776 141.723 74.0082 141.806 73.0425C141.889 72.0769 142.246 71.1548 142.834 70.3842C143.422 69.6136 144.217 69.0263 145.126 68.6911ZM157.273 70.2851L162.516 73.3081C163.096 73.6428 163.605 74.0886 164.013 74.6201C164.42 75.1516 164.719 75.7582 164.892 76.4054C165.065 77.0525 165.109 77.7274 165.021 78.3914C164.932 79.0554 164.714 79.6955 164.378 80.2751L164.387 80.2851C163.791 81.3161 162.852 82.1053 161.733 82.5151V76.0731C161.735 75.9163 161.695 75.7619 161.617 75.6259C161.539 75.4898 161.426 75.377 161.29 75.2991L154.941 71.6311L157.273 70.2851ZM153.42 72.5061L156.093 74.0551V77.1421L153.42 78.6901L150.748 77.1421V74.0551L153.42 72.5061ZM157.623 74.9401L159.954 76.2851V82.3401C159.955 83.6926 159.418 84.99 158.463 85.9473C157.507 86.9045 156.211 87.4432 154.858 87.4451V87.4361C153.666 87.4373 152.512 87.0197 151.596 86.2561C151.633 86.2391 151.716 86.1921 151.762 86.1641L157.18 83.0401C157.317 82.9637 157.431 82.8511 157.509 82.7147C157.587 82.5783 157.626 82.4231 157.622 82.2661L157.623 74.9401ZM156.102 78.9021V81.5931L150.858 84.6161C149.687 85.2902 148.296 85.4727 146.99 85.1237C145.684 84.7748 144.57 83.9227 143.891 82.7541H143.9C143.302 81.7244 143.087 80.5169 143.292 79.3441C143.329 79.3721 143.403 79.4091 143.449 79.4371L148.867 82.5701C149.004 82.6468 149.158 82.6871 149.314 82.6871C149.471 82.6871 149.625 82.6468 149.761 82.5701L156.102 78.9021Z" fill="#EEEEEE"/>
</g>
</g>
<path opacity="0.16" d="M113.12 129C117.538 129 121.12 125.418 121.12 121C121.12 116.582 117.538 113 113.12 113C108.702 113 105.12 116.582 105.12 121C105.12 125.418 108.702 129 113.12 129Z" fill="#47A97D"/>
<path opacity="0.16" d="M113.12 133C119.748 133 125.12 127.627 125.12 121C125.12 114.373 119.748 109 113.12 109C106.493 109 101.12 114.373 101.12 121C101.12 127.627 106.493 133 113.12 133Z" fill="#47A97D"/>
<path d="M113.12 125C115.329 125 117.12 123.209 117.12 121C117.12 118.791 115.329 117 113.12 117C110.911 117 109.12 118.791 109.12 121C109.12 123.209 110.911 125 113.12 125Z" fill="#47A97D"/>
<path opacity="0.16" d="M273 41C277.418 41 281 37.4183 281 33C281 28.5817 277.418 25 273 25C268.582 25 265 28.5817 265 33C265 37.4183 268.582 41 273 41Z" fill="#47A97D"/>
<path opacity="0.16" d="M273 45C279.627 45 285 39.6274 285 33C285 26.3726 279.627 21 273 21C266.373 21 261 26.3726 261 33C261 39.6274 266.373 45 273 45Z" fill="#47A97D"/>
<path d="M273 37C275.209 37 277 35.2091 277 33C277 30.7909 275.209 29 273 29C270.791 29 269 30.7909 269 33C269 35.2091 270.791 37 273 37Z" fill="#47A97D"/>
<path opacity="0.16" d="M286.12 105C290.538 105 294.12 101.418 294.12 97C294.12 92.5817 290.538 89 286.12 89C281.702 89 278.12 92.5817 278.12 97C278.12 101.418 281.702 105 286.12 105Z" fill="#47A97D"/>
<path opacity="0.16" d="M286.12 109C292.748 109 298.12 103.627 298.12 97C298.12 90.3726 292.748 85 286.12 85C279.493 85 274.12 90.3726 274.12 97C274.12 103.627 279.493 109 286.12 109Z" fill="#47A97D"/>
<path d="M286.12 101C288.329 101 290.12 99.2091 290.12 97C290.12 94.7909 288.329 93 286.12 93C283.911 93 282.12 94.7909 282.12 97C282.12 99.2091 283.911 101 286.12 101Z" fill="#47A97D"/>
<path opacity="0.16" d="M115.12 45C119.538 45 123.12 41.4183 123.12 37C123.12 32.5817 119.538 29 115.12 29C110.702 29 107.12 32.5817 107.12 37C107.12 41.4183 110.702 45 115.12 45Z" fill="#47A97D"/>
<path opacity="0.16" d="M115.12 49C121.748 49 127.12 43.6274 127.12 37C127.12 30.3726 121.748 25 115.12 25C108.493 25 103.12 30.3726 103.12 37C103.12 43.6274 108.493 49 115.12 49Z" fill="#47A97D"/>
<path d="M115.12 41C117.329 41 119.12 39.2091 119.12 37C119.12 34.7909 117.329 33 115.12 33C112.911 33 111.12 34.7909 111.12 37C111.12 39.2091 112.911 41 115.12 41Z" fill="#47A97D"/>
<defs>
<radialGradient id="paint0_radial_1887_450" cx="0" cy="0" r="1" gradientUnits="userSpaceOnUse" gradientTransform="translate(196.666 80.334) rotate(90) scale(88 122)">
<stop stop-color="#282828" stop-opacity="0.24"/>
<stop offset="1" stop-color="#8B8B8B" stop-opacity="0"/>
</radialGradient>
<radialGradient id="paint1_radial_1887_450" cx="0" cy="0" r="1" gradientUnits="userSpaceOnUse" gradientTransform="translate(117.273 36.7523) rotate(56.2528) scale(190.317 164.985)">
<stop stop-color="#16A86B"/>
<stop offset="1" stop-color="#15D456" stop-opacity="0"/>
</radialGradient>
<radialGradient id="paint2_radial_1887_450" cx="0" cy="0" r="1" gradientUnits="userSpaceOnUse" gradientTransform="translate(83.3822 14.2037) rotate(42.8534) scale(279.796 242.554)">
<stop stop-color="#15D43F"/>
<stop offset="1" stop-color="#15D48F" stop-opacity="0"/>
</radialGradient>
</defs>
</svg>
