<svg width="276" height="160" viewBox="0 0 276 160" fill="none" xmlns="http://www.w3.org/2000/svg">
<g clip-path="url(#clip0_1887_419)">
<mask id="mask0_1887_419" style="mask-type:luminance" maskUnits="userSpaceOnUse" x="0" y="0" width="276" height="160">
<path d="M0 0H276V160H0V0Z" fill="white"/>
</mask>
<g mask="url(#mask0_1887_419)">
<path fill-rule="evenodd" clip-rule="evenodd" d="M25.666 17V-14H56.666V17H25.666ZM24.666 18V49H15.666V50H24.666V81H15.666V82H24.666V113H15.666V114H24.666V145H15.666V146H24.666V154H25.666V146H56.666V154H57.666V146H88.666V154H89.666V146H120.667V154H121.667V146H152.667V154H153.667V146H184.667V154H185.667V146H216.667V154H217.667V146H248.667V154H249.667V146H259.667V145H249.667V114H259.667V113H249.667V82H259.667V81H249.667V50H259.667V49H249.667V18H259.667V17H249.667V-14H259.667V-15H249.667V-22H248.667V-15H217.667V-22H216.667V-15H185.667V-22H184.667V-15H153.667V-22H152.667V-15H121.667V-22H120.667V-15H89.667V-22H88.667V-15H57.667V-22H56.667V-15H25.667V-22H24.667V-15H15.667V-14H24.667V17H15.667V18H24.666ZM248.667 145V114H217.667V145H248.667ZM216.667 145V114H185.667V145H216.667ZM184.667 145V114H153.667V145H184.667ZM152.667 145V114H121.667V145H152.667ZM120.667 145V114H89.667V145H120.667ZM88.667 145V114H57.667V145H88.667ZM56.667 145V114H25.667V145H56.667ZM56.667 113H25.667V82H56.667V113ZM88.667 113H57.667V82H88.667V113ZM120.667 113H89.667V82H120.667V113ZM152.667 113H121.667V82H152.667V113ZM184.667 113H153.667V82H184.667V113ZM216.667 113H185.667V82H216.667V113ZM248.667 113H217.667V82H248.667V113ZM248.667 81V50H217.667V81H248.667ZM216.667 81V50H185.667V81H216.667ZM184.667 81V50H153.667V81H184.667ZM152.667 81V50H121.667V81H152.667ZM120.667 81V50H89.667V81H120.667ZM88.667 81V50H57.667V81H88.667ZM56.667 81V50H25.667V81H56.667ZM56.667 49H25.667V18H56.667V49ZM88.667 49H57.667V18H88.667V49ZM120.667 49H89.667V18H120.667V49ZM152.667 49H121.667V18H152.667V49ZM184.667 49H153.667V18H184.667V49ZM216.667 49H185.667V18H216.667V49ZM248.667 49H217.667V18H248.667V49ZM248.667 17V-14H217.667V17H248.667ZM216.667 17V-14H185.667V17H216.667ZM184.667 17V-14H153.667V17H184.667ZM152.667 17V-14H121.667V17H152.667ZM120.667 17V-14H89.667V17H120.667ZM88.667 17V-14H57.667V17H88.667Z" fill="url(#paint0_radial_1887_419)"/>
<path opacity="0.24" d="M99.2931 51.4671C84.0876 72.8444 89.0908 102.501 110.468 117.706C131.845 132.912 161.502 127.909 176.707 106.531C191.913 85.154 186.91 55.4977 165.532 40.2921C144.155 25.0866 114.499 30.0898 99.2931 51.4671Z" stroke="url(#paint1_linear_1887_419)"/>
<path d="M165.167 79C165.167 63.8122 152.855 51.5 137.667 51.5C122.479 51.5 110.167 63.8122 110.167 79C110.167 94.1878 122.479 106.5 137.667 106.5C152.855 106.5 165.167 94.1878 165.167 79Z" stroke="#15D49B"/>
<mask id="mask1_1887_419" style="mask-type:luminance" maskUnits="userSpaceOnUse" x="125" y="67" width="25" height="24">
<path d="M125.667 67H149.667V91H125.667V67Z" fill="white"/>
</mask>
<g mask="url(#mask1_1887_419)">
<path d="M146.884 70.0233L137.884 68.0233C137.741 67.9922 137.593 67.9922 137.45 68.0233L128.45 70.0233C128.228 70.0728 128.029 70.1966 127.887 70.3742C127.745 70.5518 127.667 70.7726 127.667 71.0003V81.0003C127.667 82.3135 127.926 83.6138 128.428 84.8271C128.931 86.0403 129.667 87.1427 130.596 88.0713C131.525 88.9999 132.627 89.7365 133.84 90.239C135.053 90.7416 136.354 91.0003 137.667 91.0003C138.98 91.0003 140.281 90.7416 141.494 90.239C142.707 89.7365 143.809 88.9999 144.738 88.0713C145.667 87.1427 146.403 86.0403 146.906 84.8271C147.408 83.6138 147.667 82.3135 147.667 81.0003V71.0003C147.666 70.7728 147.589 70.5522 147.446 70.3748C147.304 70.1973 147.106 70.0733 146.884 70.0233ZM142.667 84.0003C142.666 84.2653 142.561 84.5194 142.374 84.7068C142.186 84.8942 141.932 84.9997 141.667 85.0003H133.667C133.402 85 133.148 84.8946 132.96 84.7071C132.773 84.5196 132.667 84.2654 132.667 84.0003V79.0003C132.667 78.7351 132.773 78.4809 132.96 78.2934C133.148 78.106 133.402 78.0005 133.667 78.0003H134.667V76.0003C134.668 75.2048 134.984 74.442 135.546 73.8795C136.109 73.317 136.872 73.0008 137.667 73.0003C138.463 73.0005 139.225 73.3167 139.788 73.8792C140.351 74.4418 140.667 75.2047 140.667 76.0003V78.0003H141.667C141.932 78.0005 142.186 78.106 142.374 78.2934C142.561 78.4809 142.667 78.7351 142.667 79.0003V84.0003Z" fill="#3DDCA3"/>
<path d="M137.667 75C137.402 75.0005 137.148 75.1061 136.96 75.2935C136.773 75.4809 136.668 75.7349 136.667 76V78H138.667V76C138.666 75.7349 138.561 75.4809 138.374 75.2935C138.186 75.1061 137.932 75.0005 137.667 75Z" fill="#3DDCA3"/>
</g>
<g opacity="0.4">
<path d="M197.16 109.001C197.16 108.53 197.218 108.074 197.335 107.635C197.451 107.19 197.607 106.769 197.803 106.372C198.005 105.969 198.222 105.596 198.455 105.251C198.693 104.902 198.929 104.589 199.162 104.314H196.334V103.551H200.194V104.084C200.009 104.306 199.816 104.552 199.614 104.823C199.407 105.096 199.214 105.38 199.035 105.673C198.849 105.974 198.681 106.287 198.534 106.61C198.392 106.93 198.278 107.263 198.193 107.603C198.108 107.937 198.065 108.273 198.065 108.612V109.001H197.16ZM202.939 109.096C202.591 109.103 202.245 109.03 201.93 108.882C201.653 108.747 201.421 108.534 201.262 108.27C201.098 107.977 201.015 107.645 201.024 107.309H201.874C201.874 107.537 201.919 107.735 202.009 107.905C202.099 108.069 202.224 108.196 202.383 108.286C202.547 108.371 202.732 108.413 202.939 108.413C203.14 108.413 203.317 108.371 203.471 108.286C203.631 108.195 203.759 108.056 203.836 107.889C203.926 107.709 203.971 107.486 203.971 107.222C203.971 106.978 203.929 106.777 203.844 106.618C203.772 106.462 203.649 106.335 203.495 106.26C203.335 106.178 203.157 106.137 202.978 106.141C202.835 106.141 202.7 106.165 202.573 106.213C202.452 106.252 202.339 106.314 202.24 106.395C202.144 106.475 202.062 106.57 201.993 106.681L201.215 106.57L201.437 103.551H204.543V104.314H202.16L202.049 105.839C202.134 105.776 202.226 105.715 202.327 105.657C202.433 105.598 202.555 105.551 202.692 105.514C202.851 105.475 203.014 105.456 203.177 105.458C203.484 105.458 203.762 105.522 204.011 105.649C204.26 105.776 204.459 105.969 204.607 106.229C204.755 106.483 204.829 106.811 204.829 107.214C204.829 107.611 204.752 107.95 204.599 108.23C204.451 108.505 204.224 108.729 203.947 108.874C203.667 109.022 203.331 109.096 202.939 109.096ZM207.548 109.096C207.13 109.096 206.78 109.02 206.499 108.866C206.214 108.701 205.991 108.447 205.864 108.143C205.726 107.82 205.657 107.41 205.657 106.912C205.657 106.414 205.729 106.006 205.872 105.688C206.015 105.365 206.227 105.124 206.507 104.966C206.793 104.807 207.143 104.727 207.556 104.727C207.842 104.727 208.091 104.764 208.303 104.838C208.514 104.907 208.695 105.013 208.843 105.156C208.991 105.294 209.1 105.466 209.169 105.673C209.243 105.879 209.28 106.115 209.28 106.38H208.446C208.446 106.157 208.414 105.974 208.35 105.831C208.293 105.694 208.188 105.581 208.056 105.514C207.896 105.433 207.719 105.394 207.54 105.402C207.34 105.395 207.143 105.451 206.976 105.561C206.812 105.675 206.689 105.84 206.626 106.03C206.547 106.237 206.507 106.509 206.507 106.848V106.983C206.507 107.306 206.544 107.576 206.619 107.794C206.698 108.005 206.814 108.164 206.968 108.27C207.127 108.371 207.328 108.421 207.572 108.421C207.784 108.421 207.953 108.384 208.08 108.31C208.211 108.232 208.314 108.115 208.374 107.976C208.447 107.808 208.482 107.627 208.477 107.444H209.28C209.28 107.693 209.243 107.918 209.169 108.119C209.102 108.316 208.99 108.496 208.843 108.644C208.69 108.793 208.505 108.907 208.303 108.977C208.06 109.061 207.805 109.101 207.548 109.096ZM211.363 109.001L209.814 104.823H210.68L211.403 106.816C211.494 107.093 211.581 107.371 211.665 107.651L211.792 108.08H211.832C211.863 107.958 211.9 107.82 211.943 107.666C211.99 107.508 212.038 107.351 212.086 107.198C212.133 107.044 212.176 106.917 212.213 106.816L212.928 104.823H213.77L212.213 109.001H211.363ZM214.529 109.001V103.258H215.356V106.729L217 104.823H217.977L216.563 106.443L218.057 109.001H217.103L216.031 107.047L215.356 107.714V109.001H214.529ZM221.356 109.096C220.8 109.096 220.326 108.998 219.934 108.802C219.544 108.597 219.232 108.271 219.044 107.873C218.838 107.455 218.734 106.922 218.734 106.276C218.734 105.323 218.965 104.616 219.425 104.155C219.891 103.689 220.538 103.456 221.364 103.456C221.819 103.456 222.227 103.533 222.587 103.687C222.953 103.84 223.239 104.07 223.445 104.378C223.657 104.68 223.763 105.066 223.763 105.537H222.857C222.857 105.246 222.796 105.003 222.674 104.807C222.55 104.608 222.367 104.452 222.15 104.362C221.904 104.256 221.639 104.205 221.372 104.211C221.001 104.211 220.686 104.285 220.426 104.433C220.172 104.576 219.979 104.793 219.846 105.085C219.719 105.376 219.656 105.747 219.656 106.197V106.372C219.656 106.822 219.719 107.192 219.846 107.484C219.979 107.775 220.172 107.992 220.426 108.135C220.681 108.273 220.996 108.342 221.372 108.342C221.679 108.342 221.946 108.294 222.174 108.199C222.402 108.098 222.577 107.95 222.698 107.754C222.825 107.558 222.889 107.314 222.889 107.023H223.763C223.763 107.494 223.657 107.884 223.445 108.191C223.236 108.501 222.936 108.739 222.587 108.874C222.227 109.022 221.817 109.096 221.356 109.096ZM224.912 109.001V103.551H227.628C228.015 103.551 228.335 103.623 228.59 103.766C228.844 103.909 229.034 104.108 229.162 104.362C229.294 104.611 229.36 104.907 229.36 105.251C229.36 105.596 229.291 105.9 229.154 106.165C229.016 106.425 228.815 106.626 228.55 106.769C228.29 106.912 227.973 106.983 227.597 106.983H225.801V109.001H224.912ZM225.801 106.221H227.557C227.838 106.221 228.057 106.136 228.216 105.966C228.38 105.797 228.462 105.561 228.462 105.259C228.462 105.058 228.428 104.889 228.359 104.751C228.295 104.613 228.19 104.499 228.057 104.425C227.903 104.346 227.73 104.307 227.557 104.314H225.801V106.221ZM229.378 109.001L231.514 103.551H232.65L234.795 109.001H233.842L233.357 107.738H230.776L230.291 109.001H229.378ZM231.062 106.983H233.063L232.452 105.387C232.429 105.32 232.405 105.254 232.38 105.188L232.277 104.91C232.245 104.808 232.211 104.708 232.174 104.608C232.145 104.512 232.116 104.417 232.086 104.322H232.039C231.957 104.575 231.87 104.827 231.777 105.077C231.734 105.204 231.697 105.307 231.665 105.387L231.062 106.983Z" fill="url(#paint2_linear_1887_419)"/>
<path d="M190.288 120.095C189.832 120.095 189.462 120.024 189.176 119.881C188.916 119.758 188.7 119.558 188.556 119.309C188.428 119.061 188.363 118.786 188.365 118.507C188.365 118.21 188.437 117.95 188.58 117.728C188.723 117.5 188.951 117.326 189.263 117.204C189.03 117.086 188.834 116.904 188.699 116.679C188.572 116.463 188.506 116.216 188.508 115.965C188.508 115.684 188.575 115.43 188.707 115.202C188.839 114.974 189.038 114.794 189.303 114.662C189.568 114.524 189.896 114.455 190.288 114.455C190.68 114.455 191.005 114.524 191.265 114.662C191.524 114.794 191.72 114.974 191.853 115.202C191.99 115.43 192.059 115.684 192.059 115.965C192.059 116.222 191.988 116.474 191.854 116.692C191.719 116.911 191.527 117.088 191.297 117.204C191.614 117.326 191.842 117.5 191.98 117.728C192.123 117.95 192.194 118.21 192.194 118.507C192.194 118.798 192.128 119.065 191.996 119.309C191.857 119.559 191.643 119.759 191.384 119.881C191.103 120.024 190.738 120.095 190.288 120.095ZM190.288 119.42C190.632 119.42 190.894 119.338 191.074 119.174C191.254 119.004 191.344 118.774 191.344 118.483C191.344 118.191 191.254 117.964 191.074 117.8C190.894 117.635 190.632 117.553 190.288 117.553C189.938 117.553 189.671 117.635 189.486 117.8C189.305 117.964 189.215 118.191 189.215 118.483C189.215 118.774 189.305 119.004 189.486 119.174C189.671 119.338 189.938 119.42 190.288 119.42ZM190.288 116.878C190.574 116.878 190.799 116.804 190.963 116.656C191.133 116.502 191.217 116.285 191.217 116.004C191.217 115.729 191.135 115.514 190.971 115.361C190.807 115.207 190.579 115.13 190.288 115.13C189.991 115.13 189.758 115.207 189.589 115.361C189.425 115.514 189.343 115.729 189.343 116.004C189.343 116.285 189.425 116.502 189.589 116.656C189.758 116.804 189.991 116.878 190.288 116.878ZM195.731 120.095C195.175 120.095 194.701 119.997 194.309 119.801C193.919 119.597 193.607 119.27 193.419 118.872C193.213 118.454 193.109 117.921 193.109 117.275C193.109 116.322 193.34 115.615 193.801 115.154C194.267 114.688 194.913 114.455 195.739 114.455C196.194 114.455 196.602 114.532 196.962 114.686C197.328 114.839 197.614 115.069 197.82 115.377C198.032 115.679 198.138 116.065 198.138 116.536H197.232C197.232 116.245 197.171 116.002 197.05 115.806C196.925 115.607 196.742 115.452 196.525 115.361C196.28 115.256 196.014 115.204 195.747 115.21C195.376 115.21 195.061 115.284 194.802 115.432C194.547 115.575 194.354 115.792 194.222 116.084C194.095 116.375 194.031 116.746 194.031 117.196V117.371C194.031 117.821 194.095 118.191 194.222 118.483C194.354 118.774 194.547 118.991 194.802 119.134C195.056 119.272 195.371 119.341 195.747 119.341C196.054 119.341 196.321 119.293 196.549 119.198C196.777 119.097 196.952 118.949 197.073 118.753C197.201 118.557 197.264 118.313 197.264 118.022H198.138C198.138 118.493 198.032 118.883 197.82 119.19C197.611 119.5 197.311 119.738 196.962 119.873C196.602 120.021 196.192 120.095 195.731 120.095ZM199.287 120V114.55H203.513V115.313H200.176V116.83H203.163V117.593H200.176V119.237H203.561V120H199.287ZM206.419 120.095C205.99 120.095 205.63 120.019 205.339 119.865C205.049 119.702 204.82 119.448 204.687 119.142C204.539 118.819 204.465 118.409 204.465 117.911C204.465 117.408 204.539 116.997 204.687 116.679C204.835 116.356 205.055 116.118 205.347 115.965C205.638 115.806 206.001 115.726 206.435 115.726C206.832 115.726 207.163 115.803 207.428 115.957C207.698 116.105 207.902 116.333 208.039 116.64C208.177 116.947 208.246 117.334 208.246 117.8V118.117H205.315C205.325 118.414 205.37 118.663 205.45 118.864C205.517 119.046 205.643 119.199 205.807 119.301C205.971 119.391 206.178 119.436 206.427 119.436C206.58 119.436 206.718 119.417 206.84 119.38C206.954 119.343 207.059 119.284 207.15 119.206C207.234 119.128 207.301 119.033 207.348 118.928C207.398 118.81 207.422 118.682 207.42 118.554H208.23C208.23 118.803 208.188 119.023 208.103 119.214C208.018 119.404 207.894 119.566 207.73 119.698C207.571 119.825 207.38 119.923 207.158 119.992C206.919 120.063 206.669 120.098 206.419 120.095ZM205.331 117.514H207.38C207.385 117.339 207.361 117.164 207.309 116.997C207.274 116.867 207.208 116.748 207.118 116.648C207.036 116.559 206.932 116.494 206.816 116.457C206.689 116.413 206.554 116.391 206.419 116.393C206.197 116.393 206.006 116.433 205.847 116.513C205.691 116.595 205.565 116.726 205.49 116.886C205.397 117.083 205.343 117.296 205.331 117.514ZM211.374 120.095C211.077 120.095 210.791 120.064 210.516 120C210.258 119.948 210.01 119.852 209.785 119.714C209.58 119.583 209.409 119.407 209.284 119.198C209.158 118.967 209.096 118.706 209.102 118.443V118.356C209.107 118.33 209.11 118.303 209.11 118.276H209.999C209.999 118.292 209.997 118.316 209.991 118.348V118.427C209.991 118.623 210.05 118.79 210.166 118.928C210.283 119.065 210.444 119.169 210.651 119.237C210.863 119.306 211.104 119.341 211.374 119.341C211.522 119.341 211.665 119.333 211.803 119.317C211.94 119.296 212.065 119.267 212.176 119.229C212.283 119.192 212.384 119.142 212.478 119.079C212.559 119.02 212.627 118.944 212.676 118.856C212.726 118.766 212.75 118.665 212.748 118.562C212.748 118.393 212.698 118.252 212.597 118.141C212.488 118.02 212.352 117.925 212.2 117.863C212.018 117.783 211.829 117.716 211.636 117.664C211.422 117.604 211.208 117.546 210.992 117.49C210.772 117.432 210.555 117.363 210.341 117.283C210.144 117.208 209.954 117.113 209.777 116.997C209.616 116.884 209.48 116.738 209.38 116.568C209.28 116.372 209.23 116.153 209.237 115.933C209.237 115.694 209.287 115.483 209.388 115.297C209.488 115.112 209.634 114.958 209.825 114.836C210.034 114.701 210.266 114.604 210.508 114.55C210.773 114.487 211.072 114.455 211.405 114.455C211.691 114.455 211.961 114.487 212.216 114.55C212.47 114.609 212.692 114.701 212.883 114.829C213.074 114.956 213.222 115.117 213.328 115.313C213.439 115.509 213.495 115.742 213.495 116.012V116.107H212.613V116.004C212.618 115.847 212.564 115.694 212.462 115.575C212.348 115.45 212.203 115.357 212.041 115.305C211.839 115.238 211.626 115.206 211.413 115.21C211.133 115.21 210.897 115.239 210.706 115.297C210.543 115.335 210.393 115.415 210.269 115.528C210.223 115.573 210.186 115.628 210.162 115.688C210.137 115.748 210.125 115.812 210.126 115.877C210.126 116.031 210.177 116.158 210.277 116.258C210.378 116.354 210.51 116.436 210.675 116.505C210.844 116.574 211.032 116.637 211.239 116.695C211.45 116.748 211.665 116.807 211.882 116.87C212.104 116.928 212.319 116.997 212.525 117.077C212.737 117.156 212.925 117.254 213.089 117.371C213.259 117.487 213.394 117.633 213.495 117.807C213.595 117.977 213.646 118.186 213.646 118.435C213.646 118.827 213.548 119.147 213.352 119.396C213.156 119.64 212.886 119.817 212.541 119.929C212.163 120.046 211.77 120.102 211.374 120.095ZM215.766 120.095C215.528 120.095 215.34 120.05 215.202 119.96C215.075 119.871 214.975 119.747 214.916 119.603C214.863 119.452 214.836 119.294 214.837 119.134V116.505H214.312V115.822H214.852L215.003 114.654H215.663V115.822H216.417V116.505H215.663V119.039C215.663 119.161 215.689 119.253 215.742 119.317C215.795 119.38 215.882 119.412 216.004 119.412H216.417V119.968C216.353 119.992 216.287 120.011 216.219 120.024C216.144 120.046 216.066 120.061 215.988 120.071C215.915 120.086 215.841 120.094 215.766 120.095ZM216.86 120L218.909 117.14L217.05 114.55H218.139L219.497 116.481H219.529L220.879 114.55H221.904L220.053 117.132L222.111 120H221.03L219.481 117.792H219.434L217.892 120H216.86ZM222.997 120V114.55H224.387L225.444 117.855C225.476 117.95 225.508 118.059 225.539 118.181C225.571 118.303 225.6 118.419 225.627 118.53C225.659 118.642 225.682 118.74 225.698 118.824H225.762C225.776 118.728 225.794 118.632 225.817 118.538C225.844 118.427 225.87 118.311 225.897 118.189C225.929 118.067 225.96 117.953 225.992 117.847L227.057 114.55H228.423V120H227.541V117.013C227.541 116.812 227.544 116.603 227.549 116.386C227.554 116.168 227.56 115.975 227.565 115.806C227.57 115.636 227.573 115.528 227.573 115.48H227.509C227.499 115.538 227.472 115.639 227.43 115.782C227.39 115.93 227.351 116.079 227.311 116.227C227.268 116.386 227.229 116.523 227.192 116.64L226.087 120H225.301L224.197 116.648C224.085 116.261 223.981 115.872 223.887 115.48H223.823C223.829 115.607 223.831 115.763 223.831 115.949L223.847 116.513C223.853 116.698 223.855 116.865 223.855 117.013V120H222.997Z" fill="url(#paint3_linear_1887_419)"/>
<path d="M182.629 131.095C182.354 131.095 182.105 131.04 181.883 130.929C181.658 130.815 181.469 130.642 181.335 130.428H181.279L181.207 131H180.532V125.257H181.358V127.33H181.406C181.496 127.192 181.602 127.078 181.724 126.988C181.851 126.898 181.994 126.832 182.153 126.79C182.312 126.747 182.484 126.726 182.669 126.726C182.987 126.726 183.268 126.803 183.511 126.957C183.755 127.11 183.943 127.346 184.075 127.664C184.213 127.981 184.282 128.392 184.282 128.895C184.282 129.409 184.216 129.827 184.083 130.15C183.951 130.473 183.76 130.711 183.511 130.865C183.268 131.019 182.974 131.095 182.629 131.095ZM182.399 130.38C182.637 130.38 182.831 130.333 182.979 130.237C183.14 130.133 183.261 129.976 183.321 129.793C183.395 129.586 183.432 129.319 183.432 128.99V128.847C183.432 128.519 183.395 128.251 183.321 128.045C183.268 127.859 183.149 127.699 182.987 127.592C182.833 127.491 182.632 127.441 182.383 127.441C182.23 127.441 182.089 127.468 181.962 127.521C181.833 127.576 181.72 127.663 181.636 127.775C181.546 127.886 181.478 128.032 181.43 128.212C181.382 128.392 181.358 128.609 181.358 128.863V128.974C181.358 129.276 181.393 129.533 181.462 129.745C181.525 129.935 181.644 130.101 181.803 130.221C181.957 130.327 182.155 130.38 182.399 130.38ZM186.364 131L184.815 126.822H185.681L186.404 128.815C186.436 128.911 186.475 129.035 186.523 129.189C186.617 129.485 186.707 129.781 186.793 130.079H186.833L186.944 129.665C186.992 129.507 187.039 129.35 187.087 129.197C187.135 129.043 187.177 128.916 187.214 128.815L187.929 126.822H188.771L187.214 131H186.364ZM191.286 131.095C190.831 131.095 190.46 131.024 190.174 130.881C189.915 130.758 189.699 130.558 189.555 130.309C189.427 130.062 189.362 129.786 189.364 129.507C189.364 129.21 189.436 128.95 189.579 128.728C189.722 128.5 189.949 128.326 190.262 128.204C190.028 128.086 189.833 127.904 189.698 127.679C189.571 127.463 189.505 127.216 189.507 126.965C189.507 126.684 189.573 126.43 189.706 126.202C189.838 125.974 190.037 125.794 190.301 125.662C190.566 125.524 190.895 125.455 191.286 125.455C191.678 125.455 192.004 125.524 192.264 125.662C192.523 125.794 192.719 125.974 192.851 126.202C192.989 126.43 193.058 126.684 193.058 126.965C193.058 127.224 192.992 127.462 192.859 127.679C192.725 127.904 192.529 128.086 192.295 128.204C192.613 128.326 192.841 128.5 192.978 128.728C193.121 128.95 193.193 129.21 193.193 129.507C193.193 129.798 193.127 130.065 192.994 130.309C192.855 130.559 192.641 130.759 192.383 130.881C192.102 131.024 191.737 131.095 191.286 131.095ZM191.286 130.42C191.631 130.42 191.893 130.338 192.073 130.174C192.253 130.004 192.343 129.774 192.343 129.483C192.343 129.191 192.253 128.964 192.073 128.8C191.893 128.635 191.631 128.553 191.286 128.553C190.937 128.553 190.669 128.635 190.484 128.8C190.304 128.964 190.214 129.191 190.214 129.483C190.214 129.774 190.304 130.004 190.484 130.174C190.669 130.338 190.937 130.42 191.286 130.42ZM191.286 127.878C191.572 127.878 191.798 127.804 191.962 127.656C192.131 127.502 192.216 127.285 192.216 127.004C192.216 126.729 192.134 126.514 191.97 126.361C191.805 126.207 191.578 126.13 191.286 126.13C190.99 126.13 190.757 126.207 190.587 126.361C190.423 126.514 190.341 126.729 190.341 127.004C190.341 127.285 190.423 127.502 190.587 127.656C190.757 127.804 190.99 127.878 191.286 127.878ZM194.37 131V125.55H197.087C197.474 125.55 197.794 125.622 198.048 125.765C198.302 125.908 198.493 126.107 198.62 126.361C198.753 126.61 198.819 126.906 198.819 127.25C198.819 127.595 198.75 127.899 198.612 128.164C198.477 128.422 198.267 128.633 198.009 128.768C197.749 128.911 197.431 128.982 197.055 128.982H195.26V131H194.37ZM195.26 128.22H197.016C197.296 128.22 197.516 128.135 197.675 127.965C197.839 127.796 197.921 127.56 197.921 127.258C197.921 127.057 197.887 126.888 197.818 126.75C197.754 126.613 197.649 126.499 197.516 126.424C197.362 126.345 197.19 126.307 197.016 126.313H195.26V128.22ZM199.828 131V125.55H201.933C202.494 125.55 202.973 125.648 203.371 125.844C203.768 126.035 204.072 126.332 204.284 126.734C204.501 127.131 204.61 127.645 204.61 128.275C204.61 128.9 204.501 129.414 204.284 129.816C204.085 130.207 203.765 130.522 203.371 130.714C202.973 130.905 202.494 131 201.933 131H199.828ZM200.717 130.237H201.925C202.205 130.237 202.454 130.2 202.672 130.126C202.886 130.058 203.08 129.939 203.236 129.778C203.393 129.618 203.507 129.421 203.569 129.205C203.649 128.966 203.688 128.686 203.688 128.363V128.196C203.688 127.867 203.649 127.587 203.569 127.354C203.509 127.137 203.395 126.938 203.239 126.775C203.082 126.613 202.887 126.492 202.672 126.424C202.431 126.347 202.179 126.309 201.925 126.313H200.717V130.237ZM207.251 131.095C206.864 131.095 206.536 131.034 206.266 130.913C205.996 130.791 205.789 130.613 205.646 130.38C205.503 130.147 205.432 129.856 205.432 129.507V129.244H206.313V129.53C206.313 129.79 206.393 129.991 206.552 130.134C206.711 130.272 206.944 130.341 207.251 130.341C207.553 130.341 207.783 130.24 207.942 130.039C208.101 129.838 208.18 129.549 208.18 129.173V125.55H209.07V129.157C209.07 129.586 208.998 129.946 208.855 130.237C208.723 130.513 208.506 130.738 208.236 130.881C207.966 131.024 207.637 131.095 207.251 131.095ZM210.383 131V126.822H211.066L211.138 127.497H211.185C211.233 127.364 211.294 127.24 211.368 127.123C211.447 127.008 211.55 126.91 211.67 126.837C211.811 126.76 211.97 126.722 212.131 126.726C212.206 126.725 212.28 126.733 212.353 126.75C212.422 126.766 212.475 126.779 212.512 126.79V127.568H212.234C212.064 127.568 211.913 127.595 211.781 127.648C211.655 127.7 211.543 127.782 211.455 127.886C211.366 127.996 211.302 128.123 211.265 128.259C211.226 128.423 211.207 128.592 211.209 128.76V131H210.383ZM213.471 131V127.505H212.859V126.822H213.471V126.218C213.471 126.043 213.497 125.879 213.55 125.725C213.608 125.572 213.711 125.44 213.844 125.344C213.987 125.243 214.188 125.193 214.448 125.193C214.522 125.193 214.596 125.198 214.67 125.209C214.809 125.218 214.945 125.247 215.075 125.296V125.876H214.67C214.543 125.876 214.448 125.908 214.384 125.972C214.326 126.035 214.297 126.128 214.297 126.25V126.822H215.075V127.505H214.297V131H213.471Z" fill="url(#paint4_linear_1887_419)"/>
</g>
<g opacity="0.4">
<path d="M74.4682 33.5922V29.4132H73.7852L73.7132 30.0092H73.6582C73.5629 29.8616 73.4416 29.7325 73.3002 29.6282C73.1625 29.5278 73.0095 29.4501 72.8472 29.3982C72.667 29.3435 72.4795 29.3166 72.2912 29.3182C72.0262 29.3182 71.7932 29.3662 71.5922 29.4612C71.3899 29.552 71.2245 29.7089 71.1232 29.9062C71.0072 30.1122 70.9492 30.3902 70.9492 30.7402V33.5922H71.7752V30.8672C71.7752 30.7082 71.7962 30.5762 71.8382 30.4702C71.8702 30.3722 71.9279 30.2845 72.0052 30.2162C72.0811 30.1518 72.1707 30.1056 72.2672 30.0812C72.3672 30.0542 72.4792 30.0412 72.6012 30.0412C72.7838 30.0413 72.9632 30.0898 73.121 30.1819C73.2788 30.2739 73.4093 30.4062 73.4992 30.5652C73.5942 30.7292 73.6422 30.9232 73.6422 31.1452V33.5922H74.4682ZM68.3092 33.5922V28.9052H70.1132V28.1422H65.6002V28.9052H67.4202V33.5922H68.3092ZM63.6762 33.5922L65.1772 28.1422H64.2322L63.3022 31.7322C63.2544 31.9152 63.2174 32.1009 63.1912 32.2882C63.1702 32.3952 63.1512 32.4932 63.1352 32.5832H63.0882C63.0714 32.5099 63.058 32.4358 63.0482 32.3612C63.0375 32.2811 63.0241 32.2014 63.0082 32.1222C62.9933 32.0485 62.9799 31.9745 62.9682 31.9002C62.9551 31.8451 62.9448 31.7893 62.9372 31.7332L62.0792 28.1432H60.9352L60.0692 31.7332C60.0216 31.9163 59.9845 32.1019 59.9582 32.2892C59.9372 32.3952 59.9182 32.4932 59.9022 32.5832H59.8552C59.8146 32.36 59.7696 32.1376 59.7202 31.9162C59.7011 31.856 59.6851 31.795 59.6722 31.7332L58.7422 28.1432H57.9002L59.4022 33.5922H60.4422L61.3562 29.9532C61.3722 29.8742 61.3902 29.7842 61.4122 29.6832L61.4752 29.3662C61.4912 29.2542 61.5052 29.1592 61.5152 29.0802H61.5552C61.5652 29.1642 61.5782 29.2622 61.5952 29.3742C61.6224 29.5692 61.6591 29.7628 61.7052 29.9542L62.6032 33.5922H63.6762ZM57.6682 33.5922V33.1792L55.4442 30.0962H57.5172V29.4132H54.2532V29.8182L56.4852 32.9082H54.1402V33.5922H57.6682ZM51.3382 33.6872C51.6502 33.6872 51.9312 33.6422 52.1802 33.5522C52.4232 33.4622 52.6332 33.3162 52.8072 33.1152C52.9822 32.9092 53.1142 32.6352 53.2052 32.2972C53.2952 31.9532 53.3402 31.5292 53.3402 31.0262C53.3402 30.4652 53.2972 29.9932 53.2122 29.6122C53.1222 29.2312 52.9922 28.9262 52.8232 28.6982C52.6676 28.4766 52.4528 28.3033 52.2032 28.1982C51.9378 28.0935 51.6544 28.0422 51.3692 28.0472C50.9782 28.0472 50.6592 28.1212 50.4162 28.2692C50.1672 28.4182 49.9872 28.6192 49.8762 28.8732C49.7558 29.1458 49.696 29.4413 49.7012 29.7392H50.5432C50.5432 29.5222 50.5752 29.3392 50.6392 29.1912C50.6899 29.0463 50.7915 28.9248 50.9252 28.8492C51.0721 28.7648 51.2399 28.7235 51.4092 28.7302C51.7002 28.7302 51.9262 28.8102 52.0842 28.9682C52.2382 29.1222 52.3442 29.3452 52.4022 29.6362C52.4552 29.9222 52.4842 30.2662 52.4902 30.6682C52.4194 30.5655 52.3302 30.4766 52.2272 30.4062C52.0917 30.3094 51.9419 30.2345 51.7832 30.1842C51.5941 30.1189 51.3952 30.0864 51.1952 30.0882C50.8082 30.0882 50.4902 30.1682 50.2422 30.3272C49.997 30.4759 49.8049 30.6981 49.6932 30.9622C49.5722 31.2322 49.5112 31.5372 49.5112 31.8762C49.5112 32.2412 49.5912 32.5622 49.7492 32.8372C49.9082 33.1072 50.1252 33.3172 50.4002 33.4652C50.6762 33.6132 50.9882 33.6872 51.3382 33.6872ZM51.3932 33.0042C51.1602 33.0042 50.9702 32.9542 50.8212 32.8532C50.6706 32.7507 50.5524 32.6074 50.4802 32.4402C50.4049 32.259 50.3671 32.0644 50.3692 31.8682C50.3692 31.6612 50.4062 31.4762 50.4792 31.3122C50.5445 31.1471 50.6617 31.0078 50.8132 30.9152C50.9622 30.8152 51.1532 30.7642 51.3852 30.7642C51.6182 30.7642 51.8122 30.8142 51.9652 30.9142C52.1177 31.0082 52.2373 31.1473 52.3072 31.3122C52.3812 31.4822 52.4182 31.6752 52.4182 31.8922C52.4182 32.0932 52.3812 32.2822 52.3072 32.4562C52.2371 32.6205 52.1211 32.7611 51.9732 32.8612C51.7971 32.9624 51.5961 33.0119 51.3932 33.0042ZM45.8952 33.6872C46.7582 33.6872 47.4222 33.4592 47.8882 33.0042C48.3492 32.5482 48.5802 31.8362 48.5802 30.8672C48.5802 30.2312 48.4712 29.7072 48.2542 29.2942C48.0489 28.8878 47.7173 28.559 47.3092 28.3572C46.8962 28.1502 46.3922 28.0472 45.7992 28.0472C45.4442 28.0472 45.1162 28.0872 44.8142 28.1672C44.5072 28.2462 44.2402 28.3672 44.0122 28.5312C43.7792 28.6912 43.6022 28.8912 43.4802 29.1352C43.3532 29.3792 43.2892 29.6672 43.2892 30.0012H44.1952C44.1952 29.7952 44.2372 29.6172 44.3222 29.4692C44.4022 29.3152 44.5152 29.1892 44.6632 29.0882C44.8062 28.9872 44.9762 28.9162 45.1722 28.8732C45.3722 28.8247 45.5774 28.8008 45.7832 28.8022C46.0852 28.8022 46.3552 28.8422 46.5932 28.9212C46.8272 29.0012 47.0232 29.1222 47.1812 29.2862C47.3412 29.4502 47.4602 29.6562 47.5392 29.9062C47.6192 30.1552 47.6592 30.4492 47.6592 30.7882V30.9542C47.6592 31.4202 47.5922 31.7992 47.4592 32.0902C47.336 32.3664 47.1237 32.5932 46.8562 32.7342C46.5862 32.8662 46.2572 32.9322 45.8712 32.9322C45.5052 32.9322 45.1982 32.8792 44.9492 32.7742C44.7148 32.68 44.5151 32.5159 44.3772 32.3042C44.2452 32.0942 44.1792 31.8312 44.1792 31.5182V31.4392H46.0142V30.7002H43.2892V33.5922H43.9322L44.0202 32.9402C44.1682 33.1152 44.3382 33.2582 44.5282 33.3702C44.7182 33.4752 44.9282 33.5552 45.1562 33.6082C45.3782 33.6612 45.6242 33.6872 45.8952 33.6872ZM42.4872 33.5922L40.3502 28.1422H39.2142L37.0702 33.5922H38.0232L38.5072 32.3292H41.0892L41.5742 33.5922H42.4872ZM40.8032 31.5742H38.8012L39.4132 29.9772C39.4292 29.9302 39.4532 29.8632 39.4852 29.7792L39.5882 29.5012C39.6202 29.4012 39.6542 29.2992 39.6912 29.1992L39.7782 28.9132H39.8262C39.9063 29.1673 39.9937 29.4191 40.0882 29.6682C40.1312 29.7952 40.1682 29.8982 40.1992 29.9782L40.8032 31.5742ZM33.8472 33.6872C34.7112 33.6872 35.3752 33.4592 35.8412 33.0042C36.3012 32.5482 36.5322 31.8362 36.5322 30.8672C36.5322 30.2312 36.4242 29.7072 36.2072 29.2942C36.0017 28.8877 35.6697 28.5588 35.2612 28.3572C34.8482 28.1502 34.3452 28.0472 33.7512 28.0472C33.3972 28.0472 33.0692 28.0872 32.7672 28.1672C32.4602 28.2462 32.1922 28.3672 31.9642 28.5312C31.7322 28.6912 31.5542 28.8912 31.4322 29.1352C31.3052 29.3792 31.2422 29.6672 31.2422 30.0012H32.1472C32.1472 29.7952 32.1902 29.6172 32.2742 29.4692C32.3542 29.3152 32.4682 29.1892 32.6162 29.0882C32.7592 28.9872 32.9282 28.9162 33.1242 28.8732C33.3245 28.8246 33.5301 28.8008 33.7362 28.8022C34.0382 28.8022 34.3082 28.8422 34.5462 28.9212C34.7792 29.0012 34.9762 29.1222 35.1342 29.2862C35.2932 29.4502 35.4122 29.6562 35.4922 29.9062C35.5722 30.1552 35.6112 30.4492 35.6112 30.7882V30.9542C35.6112 31.4202 35.5452 31.7992 35.4122 32.0902C35.2888 32.3665 35.0761 32.5934 34.8082 32.7342C34.5382 32.8662 34.2102 32.9322 33.8232 32.9322C33.4582 32.9322 33.1512 32.8792 32.9022 32.7742C32.6678 32.68 32.4681 32.5159 32.3302 32.3042C32.1982 32.0942 32.1312 31.8312 32.1312 31.5182V31.4392H33.9662V30.7002H31.2422V33.5922H31.8852L31.9722 32.9402C32.1212 33.1152 32.2902 33.2582 32.4812 33.3702C32.6712 33.4752 32.8812 33.5552 33.1082 33.6082C33.3312 33.6612 33.5782 33.6882 33.8482 33.6882L33.8472 33.6872Z" fill="url(#paint5_linear_1887_419)"/>
<path d="M80.3703 23.0958C80.6463 23.0958 80.8953 23.0408 81.1173 22.9298C81.3403 22.8178 81.5223 22.6518 81.6653 22.4288H81.7213L81.7933 23.0008H82.4683V17.2578H81.6423V19.3308H81.5943C81.5096 19.1987 81.4019 19.0829 81.2763 18.9888C81.1463 18.8977 81.001 18.8306 80.8473 18.7908C80.6788 18.7471 80.5053 18.7256 80.3313 18.7268C80.0133 18.7268 79.7323 18.8038 79.4893 18.9568C79.2453 19.1108 79.0573 19.3468 78.9253 19.6648C78.7873 19.9818 78.7183 20.3928 78.7183 20.8948C78.7183 21.4098 78.7843 21.8278 78.9173 22.1508C79.0493 22.4738 79.2403 22.7118 79.4893 22.8658C79.7323 23.0198 80.0253 23.0958 80.3703 23.0958ZM80.6003 22.3808C80.3633 22.3808 80.1703 22.3338 80.0213 22.2378C79.8604 22.1329 79.7401 21.9763 79.6803 21.7938C79.6053 21.5868 79.5683 21.3198 79.5683 20.9908V20.8478C79.5683 20.5198 79.6053 20.2518 79.6803 20.0458C79.7335 19.8598 79.8516 19.6991 80.0133 19.5928C80.1673 19.4928 80.3683 19.4428 80.6173 19.4428C80.7703 19.4428 80.9113 19.4688 81.0373 19.5218C81.1668 19.5761 81.2797 19.6637 81.3643 19.7758C81.4543 19.8868 81.5223 20.0328 81.5703 20.2128C81.6183 20.3928 81.6423 20.6098 81.6423 20.8638V20.9748C81.6423 21.2768 81.6073 21.5338 81.5383 21.7448C81.4763 21.935 81.3572 22.1016 81.1973 22.2218C81.0433 22.3278 80.8453 22.3818 80.6013 22.3818L80.6003 22.3808ZM75.9533 23.0958C76.4083 23.0958 76.7793 23.0248 77.0653 22.8818C77.3453 22.7388 77.5523 22.5478 77.6853 22.3098C77.8123 22.0658 77.8753 21.7988 77.8753 21.5078C77.8753 21.2108 77.8043 20.9518 77.6613 20.7288C77.5183 20.5008 77.2913 20.3268 76.9783 20.2048C77.2119 20.0867 77.4074 19.9051 77.5423 19.6808C77.6691 19.464 77.7347 19.2169 77.7323 18.9658C77.7323 18.6848 77.6663 18.4308 77.5343 18.2028C77.3936 17.9676 77.1862 17.7796 76.9383 17.6628C76.6733 17.5248 76.3453 17.4558 75.9533 17.4558C75.5613 17.4558 75.2353 17.5248 74.9763 17.6628C74.7163 17.7948 74.5203 17.9748 74.3883 18.2028C74.2499 18.4327 74.1782 18.6965 74.1813 18.9648C74.1814 19.2218 74.2528 19.4738 74.3875 19.6927C74.5222 19.9116 74.7149 20.0889 74.9443 20.2048C74.6263 20.3268 74.3993 20.5008 74.2613 20.7288C74.1151 20.9619 74.0403 21.2327 74.0463 21.5078C74.0463 21.7978 74.1133 22.0658 74.2453 22.3098C74.3723 22.5478 74.5763 22.7388 74.8573 22.8818C75.1373 23.0248 75.5033 23.0958 75.9533 23.0958ZM75.9533 22.4208C75.6093 22.4208 75.3473 22.3388 75.1663 22.1748C74.9863 22.0048 74.8963 21.7748 74.8963 21.4838C74.8963 21.1918 74.9863 20.9638 75.1663 20.7998C75.3463 20.6358 75.6093 20.5538 75.9533 20.5538C76.3033 20.5538 76.5703 20.6358 76.7553 20.7998C76.9353 20.9648 77.0253 21.1918 77.0253 21.4838C77.0253 21.7748 76.9353 22.0048 76.7553 22.1738C76.5703 22.3388 76.3023 22.4208 75.9533 22.4208ZM75.9533 19.8788C75.6673 19.8788 75.4423 19.8048 75.2783 19.6568C75.1083 19.5028 75.0233 19.2858 75.0233 19.0048C75.0233 18.7298 75.1063 18.5148 75.2703 18.3618C75.4343 18.2078 75.6623 18.1318 75.9533 18.1318C76.2493 18.1318 76.4833 18.2078 76.6523 18.3618C76.8163 18.5148 76.8983 18.7298 76.8983 19.0048C76.8983 19.2848 76.8163 19.5028 76.6523 19.6568C76.4823 19.8048 76.2493 19.8788 75.9533 19.8788ZM70.8513 23.0958C71.1483 23.0958 71.4343 23.0648 71.7093 23.0008C71.9853 22.9428 72.2293 22.8468 72.4403 22.7148C72.6523 22.5768 72.8193 22.4048 72.9403 22.1988C73.0633 21.9868 73.1233 21.7348 73.1233 21.4438V21.3568C73.1185 21.3304 73.1158 21.3037 73.1153 21.2768H72.2253C72.2253 21.2928 72.2283 21.3168 72.2343 21.3488V21.4288C72.2388 21.6112 72.1766 21.789 72.0593 21.9288C71.9423 22.0658 71.7813 22.1688 71.5743 22.2388C71.3405 22.3107 71.0969 22.3455 70.8523 22.3418C70.7086 22.3421 70.565 22.3341 70.4223 22.3178C70.2957 22.299 70.1709 22.2696 70.0493 22.2298C69.9427 22.1928 69.8412 22.1424 69.7473 22.0798C69.6664 22.0202 69.5989 21.9442 69.5493 21.8568C69.5001 21.7667 69.4753 21.6654 69.4773 21.5628C69.4773 21.3928 69.5273 21.2528 69.6283 21.1428C69.7233 21.0308 69.8563 20.9378 70.0253 20.8638C70.1893 20.7898 70.3773 20.7238 70.5893 20.6658C70.7963 20.6068 71.0103 20.5488 71.2333 20.4908C71.4553 20.4328 71.6733 20.3638 71.8843 20.2838C72.0913 20.2038 72.2793 20.1088 72.4483 19.9978C72.6123 19.8818 72.7453 19.7378 72.8453 19.5688C72.9456 19.3725 72.9948 19.1541 72.9883 18.9338C72.9883 18.6948 72.9383 18.4838 72.8383 18.2978C72.7343 18.1094 72.5834 17.9509 72.4003 17.8378C72.1914 17.7026 71.9601 17.6054 71.7173 17.5508C71.423 17.4842 71.122 17.4523 70.8203 17.4558C70.5343 17.4558 70.2643 17.4878 70.0103 17.5518C69.7553 17.6098 69.5333 17.7018 69.3423 17.8288C69.1523 17.9568 69.0033 18.1188 68.8973 18.3138C68.7813 18.5285 68.7237 18.7699 68.7303 19.0138V19.1088H69.6123V19.0048C69.6123 18.8348 69.6623 18.6928 69.7633 18.5758C69.8775 18.4504 70.0227 18.3573 70.1843 18.3058C70.3643 18.2428 70.5743 18.2108 70.8123 18.2108C71.0923 18.2108 71.3283 18.2398 71.5193 18.2978C71.7093 18.3508 71.8553 18.4278 71.9563 18.5278C72.0028 18.5733 72.0395 18.6278 72.0641 18.688C72.0887 18.7482 72.1007 18.8128 72.0993 18.8778C72.0993 19.0318 72.0493 19.1578 71.9483 19.2588C71.8483 19.3548 71.7153 19.4368 71.5513 19.5058C71.3813 19.5748 71.1933 19.6378 70.9873 19.6958C70.7753 19.7488 70.5603 19.8078 70.3433 19.8708C70.1253 19.9278 69.9106 19.997 69.7003 20.0778C69.4883 20.1578 69.3003 20.2548 69.1363 20.3718C68.9696 20.4849 68.8308 20.6343 68.7303 20.8088C68.6303 20.9778 68.5803 21.1868 68.5803 21.4358C68.5803 21.8278 68.6773 22.1478 68.8733 22.3968C69.0693 22.6408 69.3393 22.8178 69.6833 22.9288C70.0233 23.0408 70.4123 23.0958 70.8513 23.0958ZM67.3893 23.0008V17.5508H64.4983C64.2243 17.545 63.9527 17.6021 63.7043 17.7178C63.4821 17.8203 63.2948 17.9855 63.1651 18.1929C63.0354 18.4004 62.9691 18.6412 62.9743 18.8858C62.9733 19.0928 63.0123 19.2808 63.0923 19.4498C63.1663 19.6198 63.2723 19.7628 63.4103 19.8798C63.5423 19.9958 63.6933 20.0828 63.8633 20.1408V20.1728C63.6663 20.2148 63.4923 20.2948 63.3383 20.4108C63.1793 20.5218 63.0553 20.6708 62.9653 20.8558C62.8693 21.0358 62.8223 21.2528 62.8223 21.5078C62.8223 21.8518 62.8993 22.1348 63.0523 22.3578C63.2003 22.5798 63.3993 22.7438 63.6483 22.8498C63.8973 22.9498 64.1803 23.0008 64.4983 23.0008H67.3893ZM66.4993 22.2378H64.5693C64.3263 22.2378 64.1273 22.1748 63.9743 22.0478C63.8143 21.9148 63.7353 21.7028 63.7353 21.4118C63.7353 21.2368 63.7703 21.0888 63.8393 20.9668C63.9018 20.8407 64.0056 20.7398 64.1333 20.6808C64.2653 20.6118 64.4323 20.5778 64.6333 20.5778H66.5003L66.4993 22.2378ZM66.4993 19.8308H64.7053C64.5541 19.835 64.4041 19.8024 64.2683 19.7358C64.1504 19.6761 64.0535 19.5819 63.9903 19.4658C63.9206 19.3478 63.8847 19.2129 63.8863 19.0758C63.8863 18.8168 63.9583 18.6258 64.1013 18.5048C64.2393 18.3778 64.4213 18.3148 64.6493 18.3148H66.4993V19.8308ZM62.2003 23.0008L60.7073 20.8558L62.1133 18.8218H61.1123L60.1903 20.2208H60.1433L59.2133 18.8228H58.2683L59.6823 20.8328L58.1883 23.0008H59.1813L60.1983 21.4678H60.2383L61.2553 23.0008H62.2003ZM55.2233 23.0008V21.7218H57.6933V21.0388C57.4763 20.6688 57.2783 20.2948 57.0983 19.9188C56.9183 19.5428 56.7533 19.1508 56.6053 18.7428C56.4548 18.3218 56.3303 17.892 56.2323 17.4558H55.3663C55.4353 17.7418 55.5223 18.0358 55.6283 18.3378C55.7283 18.6348 55.8433 18.9258 55.9703 19.2118C56.0923 19.4978 56.2133 19.7618 56.3353 20.0058C56.4573 20.2498 56.5713 20.4618 56.6773 20.6418C56.7833 20.8218 56.8673 20.9538 56.9313 21.0388H55.2233V19.4738C55.1845 19.3792 55.1475 19.2838 55.1123 19.1878C55.0286 18.9792 54.9542 18.767 54.8893 18.5518C54.8573 18.4518 54.8293 18.3568 54.8023 18.2658H54.3973V21.0388H53.6973V21.7218H54.3973V23.0008H55.2233ZM50.2713 23.0958C50.8273 23.0958 51.3013 22.9978 51.6933 22.8018C52.0793 22.6018 52.3763 22.2918 52.5833 21.8728C52.7893 21.4548 52.8933 20.9228 52.8933 20.2758C52.8933 19.3228 52.6623 18.6158 52.2013 18.1558C51.7353 17.6888 51.0893 17.4558 50.2633 17.4558C49.8073 17.4558 49.4003 17.5328 49.0393 17.6858C48.6908 17.8259 48.392 18.0669 48.1813 18.3778C47.9703 18.6798 47.8643 19.0658 47.8643 19.5378H48.7693C48.7693 19.2458 48.8303 19.0028 48.9523 18.8068C49.0743 18.6108 49.2493 18.4618 49.4763 18.3618C49.6993 18.2618 49.9583 18.2108 50.2553 18.2108C50.6253 18.2108 50.9413 18.2848 51.2003 18.4328C51.4543 18.5758 51.6483 18.7928 51.7803 19.0848C51.9073 19.3748 51.9703 19.7468 51.9703 20.1968V20.3718C51.9703 20.8218 51.9073 21.1918 51.7803 21.4838C51.6629 21.7581 51.4593 21.9867 51.2003 22.1348C50.9463 22.2728 50.6303 22.3418 50.2553 22.3418C49.9483 22.3418 49.6803 22.2938 49.4523 22.1988C49.2361 22.1078 49.0532 21.9524 48.9283 21.7538C48.8013 21.5578 48.7383 21.3138 48.7383 21.0228H47.8643C47.8643 21.4938 47.9703 21.8828 48.1813 22.1908C48.3883 22.4978 48.6743 22.7258 49.0393 22.8738C49.3993 23.0218 49.8093 23.0958 50.2713 23.0958ZM45.7703 23.0958C45.9023 23.0958 46.0453 23.0798 46.1993 23.0488C46.3523 23.0168 46.4983 22.9588 46.6363 22.8738C46.7717 22.7855 46.8833 22.6653 46.9613 22.5238C47.0463 22.3708 47.0883 22.1718 47.0883 21.9288C47.0883 21.6428 47.0223 21.4068 46.8903 21.2218C46.748 21.0285 46.5558 20.8774 46.3343 20.7848C46.0632 20.6699 45.7769 20.5948 45.4843 20.5618C45.123 20.518 44.7593 20.497 44.3953 20.4988V20.0858C44.3953 19.9478 44.4193 19.8258 44.4673 19.7198C44.5145 19.6091 44.6026 19.521 44.7133 19.4738C44.8303 19.4158 44.9993 19.3868 45.2213 19.3868C45.4443 19.3868 45.6193 19.4158 45.7463 19.4738C45.8683 19.5268 45.9553 19.5958 46.0083 19.6808C46.0557 19.7599 46.0802 19.8506 46.0793 19.9428V20.0618H46.8743C46.8796 20.0355 46.8823 20.0087 46.8823 19.9818V19.8868C46.8896 19.6596 46.8163 19.4372 46.6753 19.2588C46.5171 19.0739 46.3108 18.9365 46.0793 18.8618C45.7954 18.7672 45.4975 18.7215 45.1983 18.7268C44.8383 18.7268 44.5383 18.7798 44.3003 18.8868C44.0563 18.9868 43.8743 19.1318 43.7523 19.3228C43.6303 19.5128 43.5693 19.7438 43.5693 20.0138V22.1348C43.5693 22.2348 43.5453 22.3068 43.4983 22.3498C43.4466 22.3916 43.3818 22.4139 43.3153 22.4128H43.0293V22.9688C43.0923 22.9958 43.1723 23.0218 43.2673 23.0488C43.3633 23.0748 43.4743 23.0888 43.6013 23.0888C43.7277 23.0923 43.853 23.0648 43.9663 23.0088C44.0621 22.961 44.1443 22.8898 44.2053 22.8018C44.2643 22.7044 44.3047 22.5969 44.3243 22.4848H44.3713C44.5764 22.7454 44.8607 22.9321 45.1813 23.0168C45.3563 23.0698 45.5533 23.0968 45.7703 23.0968V23.0958ZM45.5403 22.4128C45.3753 22.4128 45.2243 22.3888 45.0863 22.3418C44.9522 22.2938 44.8283 22.2208 44.7213 22.1268C44.6213 22.0318 44.5413 21.9208 44.4833 21.7928C44.4243 21.6579 44.3944 21.5121 44.3953 21.3648V21.0858C44.7613 21.0858 45.0813 21.1078 45.3563 21.1498C45.6323 21.1918 45.8463 21.2718 46.0003 21.3878C46.1543 21.4998 46.2303 21.6558 46.2303 21.8578C46.2334 21.9663 46.2057 22.0735 46.1503 22.1668C46.0919 22.2506 46.0092 22.3145 45.9133 22.3498C45.8073 22.3918 45.6843 22.4128 45.5403 22.4128Z" fill="url(#paint6_linear_1887_419)"/>
<path d="M63.7597 45.558V43.675H63.8157C63.8997 43.813 64.0057 43.927 64.1327 44.017C64.2597 44.107 64.4027 44.173 64.5627 44.215C64.7207 44.258 64.8907 44.279 65.0707 44.279C65.3877 44.279 65.6687 44.202 65.9127 44.049C66.1557 43.895 66.3467 43.659 66.4847 43.342C66.6217 43.019 66.6907 42.608 66.6907 42.11C66.6907 41.596 66.6247 41.178 66.4927 40.855C66.3547 40.532 66.1617 40.294 65.9127 40.14C65.6462 39.9818 65.3405 39.9021 65.0307 39.91C64.7547 39.91 64.5067 39.965 64.2837 40.077C64.06 40.1893 63.8728 40.3627 63.7437 40.577H63.6877L63.6087 40.005H62.9337V45.558H63.7597ZM64.7927 43.564C64.6277 43.564 64.4847 43.538 64.3627 43.484C64.2354 43.4307 64.1236 43.346 64.0377 43.238C63.9397 43.105 63.8693 42.9537 63.8307 42.793C63.7797 42.5826 63.7558 42.3665 63.7597 42.15V42.039C63.7597 41.737 63.7967 41.48 63.8707 41.269C63.9302 41.0773 64.0502 40.9099 64.2127 40.792C64.3607 40.68 64.5567 40.625 64.7997 40.625C65.0387 40.625 65.2347 40.672 65.3877 40.768C65.5467 40.8773 65.6643 41.0368 65.7217 41.221C65.7957 41.427 65.8327 41.697 65.8327 42.031V42.174C65.8327 42.492 65.7987 42.754 65.7297 42.96C65.67 43.1474 65.5497 43.3095 65.3877 43.421C65.2347 43.516 65.0357 43.564 64.7927 43.564ZM61.7097 44.184V40.005H61.0257L60.9547 40.68H60.9067C60.86 40.5493 60.799 40.4242 60.7247 40.307C60.6458 40.191 60.5428 40.0935 60.4227 40.021C60.2817 39.9435 60.1225 39.9051 59.9617 39.91C59.887 39.909 59.8124 39.917 59.7397 39.934C59.686 39.946 59.6327 39.9594 59.5797 39.974V40.752H59.8587C60.0287 40.752 60.1787 40.778 60.3107 40.832C60.4369 40.884 60.5487 40.9656 60.6367 41.07C60.7217 41.17 60.7847 41.295 60.8267 41.443C60.8647 41.591 60.8827 41.758 60.8827 41.943V44.183L61.7097 44.184ZM56.6277 44.184V42.904H59.0977V42.221C58.8807 41.851 58.6827 41.477 58.5027 41.101C58.3193 40.7176 58.1547 40.3255 58.0097 39.926C57.8592 39.505 57.7346 39.0752 57.6367 38.639H56.7707C56.8397 38.925 56.9267 39.219 57.0327 39.52C57.1327 39.817 57.2477 40.108 57.3747 40.394C57.4957 40.68 57.6177 40.945 57.7397 41.189C57.8617 41.432 57.9757 41.644 58.0817 41.824C58.1867 42.004 58.2717 42.137 58.3357 42.222H56.6277V40.656C56.5889 40.5617 56.5519 40.4667 56.5167 40.371C56.4331 40.1623 56.3587 39.9501 56.2937 39.735C56.2617 39.635 56.2337 39.539 56.2067 39.449H55.8007V42.222H55.1007V42.905H55.8007V44.184H56.6277ZM52.4857 44.279C52.8777 44.279 53.1957 44.205 53.4387 44.056C53.6827 43.908 53.8627 43.707 53.9787 43.453C54.0957 43.193 54.1537 42.905 54.1537 42.587H53.3117C53.3117 42.804 53.2797 42.989 53.2167 43.143C53.1592 43.2837 53.0592 43.4029 52.9307 43.484C52.7818 43.5638 52.6144 43.6024 52.4457 43.596C52.1497 43.596 51.9267 43.519 51.7787 43.366C51.6247 43.206 51.5187 42.981 51.4607 42.69C51.3978 42.3493 51.366 42.0035 51.3657 41.657C51.4127 41.737 51.4977 41.824 51.6197 41.92C51.7417 42.01 51.8897 42.086 52.0647 42.15C52.2397 42.208 52.4327 42.237 52.6447 42.237C53.0307 42.237 53.3487 42.161 53.5977 42.007C53.8427 41.8526 54.0362 41.6287 54.1537 41.364C54.2757 41.088 54.3367 40.784 54.3367 40.45C54.3367 40.08 54.2567 39.759 54.0977 39.489C53.9437 39.2232 53.7186 39.0058 53.4477 38.861C53.1612 38.7101 52.8414 38.6338 52.5177 38.639C52.2047 38.639 51.9237 38.684 51.6757 38.774C51.4257 38.864 51.2147 39.012 51.0397 39.219C50.8647 39.419 50.7327 39.693 50.6427 40.037C50.5527 40.376 50.5077 40.797 50.5077 41.3C50.5077 41.856 50.5527 42.327 50.6427 42.714C50.7327 43.095 50.8627 43.402 51.0327 43.636C51.1957 43.863 51.3997 44.027 51.6427 44.128C51.8867 44.228 52.1677 44.279 52.4857 44.279ZM52.4697 41.562C52.2367 41.562 52.0437 41.515 51.8897 41.419C51.738 41.3209 51.619 41.1799 51.5477 41.014C51.4666 40.8315 51.426 40.6337 51.4287 40.434C51.4287 40.228 51.4657 40.039 51.5397 39.87C51.6098 39.7054 51.7293 39.5667 51.8817 39.473C52.0357 39.373 52.2287 39.322 52.4617 39.322C52.6947 39.322 52.8877 39.375 53.0417 39.481C53.1897 39.581 53.3017 39.717 53.3757 39.886C53.4497 40.056 53.4857 40.246 53.4857 40.458C53.4857 40.664 53.4497 40.853 53.3757 41.022C53.3039 41.1831 53.1882 41.3207 53.0417 41.419C52.8937 41.515 52.7027 41.562 52.4697 41.562ZM47.6697 44.279C48.1257 44.279 48.4957 44.207 48.7817 44.064C49.0627 43.921 49.2697 43.731 49.4017 43.492C49.5287 43.249 49.5917 42.982 49.5917 42.69C49.5917 42.394 49.5217 42.134 49.3777 41.912C49.2347 41.684 49.0077 41.509 48.6947 41.387C48.9437 41.255 49.1317 41.08 49.2587 40.863C49.3854 40.6462 49.4511 40.3991 49.4487 40.148C49.4487 39.868 49.3827 39.613 49.2507 39.385C49.11 39.1498 48.9025 38.9618 48.6547 38.845C48.3897 38.708 48.0617 38.639 47.6697 38.639C47.2777 38.639 46.9527 38.708 46.6927 38.845C46.4327 38.978 46.2377 39.158 46.1047 39.385C45.9664 39.6152 45.8951 39.8795 45.8987 40.148C45.8987 40.405 45.97 40.6571 46.1047 40.876C46.2394 41.0949 46.4322 41.2722 46.6617 41.388C46.3437 41.509 46.1157 41.684 45.9777 41.912C45.832 42.1449 45.7576 42.4153 45.7637 42.69C45.7637 42.981 45.8297 43.249 45.9617 43.493C46.0887 43.731 46.2927 43.921 46.5737 44.064C46.8537 44.207 47.2197 44.279 47.6697 44.279ZM47.6697 43.604C47.3257 43.604 47.0637 43.522 46.8837 43.357C46.7037 43.188 46.6137 42.957 46.6137 42.667C46.6137 42.375 46.7037 42.147 46.8837 41.983C47.0637 41.819 47.3257 41.737 47.6697 41.737C48.0197 41.737 48.2867 41.819 48.4727 41.983C48.6527 42.147 48.7427 42.375 48.7427 42.666C48.7427 42.958 48.6527 43.188 48.4727 43.357C48.2867 43.522 48.0197 43.604 47.6697 43.604ZM47.6697 41.062C47.3837 41.062 47.1597 40.987 46.9947 40.839C46.8247 40.686 46.7407 40.469 46.7407 40.188C46.7407 39.912 46.8227 39.698 46.9867 39.544C47.1507 39.391 47.3787 39.314 47.6697 39.314C47.9667 39.314 48.1997 39.391 48.3697 39.544C48.5327 39.698 48.6147 39.912 48.6147 40.188C48.6147 40.468 48.5327 40.686 48.3687 40.839C48.1987 40.987 47.9667 41.062 47.6697 41.062ZM45.1347 44.184L43.6407 42.039L45.0467 40.005H44.0467L43.1247 41.403H43.0767L42.1467 40.005H41.2017L42.6157 42.015L41.1227 44.184H42.1157L43.1327 42.65H43.1727L44.1887 44.184H45.1347ZM38.4667 44.279C38.7797 44.279 39.0597 44.234 39.3087 44.144C39.5527 44.054 39.7617 43.908 39.9367 43.707C40.1117 43.5 40.2437 43.227 40.3337 42.889C40.4237 42.544 40.4687 42.121 40.4687 41.618C40.4687 41.056 40.4267 40.585 40.3417 40.204C40.2517 39.822 40.1217 39.518 39.9517 39.29C39.7964 39.0685 39.5819 38.8952 39.3327 38.79C39.0673 38.6853 38.7839 38.634 38.4987 38.639C38.1067 38.639 37.7887 38.713 37.5457 38.861C37.2957 39.01 37.1157 39.211 37.0057 39.465C36.8853 39.7376 36.8256 40.0331 36.8307 40.331H37.6727C37.6727 40.114 37.7047 39.931 37.7677 39.783C37.8184 39.6381 37.92 39.5165 38.0537 39.441C38.2008 39.356 38.3689 39.3144 38.5387 39.321C38.8297 39.321 39.0547 39.401 39.2137 39.561C39.3677 39.714 39.4737 39.936 39.5317 40.227C39.5847 40.514 39.6137 40.857 39.6187 41.26C39.5481 41.1574 39.4593 41.0686 39.3567 40.998C39.2209 40.9011 39.0707 40.8262 38.9117 40.776C38.7226 40.7107 38.5237 40.6782 38.3237 40.68C37.9377 40.68 37.6197 40.76 37.3707 40.919C37.1258 41.0678 36.934 41.29 36.8227 41.554C36.7007 41.824 36.6397 42.129 36.6397 42.468C36.6397 42.833 36.7197 43.153 36.8777 43.428C37.0377 43.699 37.2537 43.908 37.5297 44.057C37.8047 44.205 38.1177 44.279 38.4667 44.279ZM38.5227 43.596C38.2897 43.596 38.0987 43.546 37.9507 43.445C37.7998 43.3426 37.6811 43.1994 37.6087 43.032C37.5336 42.8508 37.4962 42.6562 37.4987 42.46C37.4987 42.253 37.5347 42.068 37.6087 41.904C37.6737 41.7385 37.791 41.5988 37.9427 41.506C38.0907 41.406 38.2817 41.356 38.5147 41.356C38.7477 41.356 38.9407 41.406 39.0947 41.506C39.2469 41.6001 39.366 41.7392 39.4357 41.904C39.5107 42.074 39.5477 42.266 39.5477 42.484C39.5477 42.684 39.5107 42.873 39.4357 43.048C39.3659 43.2122 39.2503 43.3528 39.1027 43.453C38.9266 43.5542 38.7256 43.6037 38.5227 43.596ZM35.9157 44.184V43.771L33.6907 40.688H35.7647V40.005H32.4997V40.41L34.7317 43.5H32.3887V44.184H35.9157Z" fill="url(#paint7_linear_1887_419)"/>
</g>
<path opacity="0.24" d="M190.907 114.117C210.301 84.8979 202.336 45.4887 173.117 26.0945C143.897 6.70027 104.488 14.6652 85.0939 43.8846C65.6997 73.104 73.6646 112.513 102.884 131.907C132.103 151.302 171.513 143.337 190.907 114.117Z" stroke="url(#paint8_linear_1887_419)"/>
<path d="M86 45C87.6569 45 89 43.6569 89 42C89 40.3431 87.6569 39 86 39C84.3431 39 83 40.3431 83 42C83 43.6569 84.3431 45 86 45Z" fill="#15D461"/>
<path d="M177 109C178.657 109 180 107.657 180 106C180 104.343 178.657 103 177 103C175.343 103 174 104.343 174 106C174 107.657 175.343 109 177 109Z" fill="#15D461"/>
<path d="M231 31H199" stroke="url(#paint9_linear_1887_419)" stroke-linecap="round"/>
<path d="M231.5 35C233.709 35 235.5 33.2091 235.5 31C235.5 28.7909 233.709 27 231.5 27C229.291 27 227.5 28.7909 227.5 31C227.5 33.2091 229.291 35 231.5 35Z" fill="#15D461"/>
<path d="M57 126V94" stroke="url(#paint10_linear_1887_419)" stroke-linecap="round"/>
<path d="M61 126.5C61 128.709 59.2091 130.5 57 130.5C54.7909 130.5 53 128.709 53 126.5C53 124.291 54.7909 122.5 57 122.5C59.2091 122.5 61 124.291 61 126.5Z" fill="#15D461"/>
</g>
</g>
<defs>
<radialGradient id="paint0_radial_1887_419" cx="0" cy="0" r="1" gradientUnits="userSpaceOnUse" gradientTransform="translate(137.666 66) rotate(90) scale(88 122)">
<stop stop-color="#282828" stop-opacity="0.24"/>
<stop offset="1" stop-color="#8B8B8B" stop-opacity="0"/>
</radialGradient>
<linearGradient id="paint1_linear_1887_419" x1="177.115" y1="106.821" x2="98.8857" y2="51.1773" gradientUnits="userSpaceOnUse">
<stop stop-color="#15D484"/>
<stop offset="1" stop-color="#15D4C9" stop-opacity="0"/>
</linearGradient>
<linearGradient id="paint2_linear_1887_419" x1="196.222" y1="106.501" x2="236.222" y2="106.501" gradientUnits="userSpaceOnUse">
<stop stop-color="#15D48F"/>
<stop offset="0.708" stop-color="#15D49B" stop-opacity="0.2"/>
<stop offset="1" stop-color="#15D49B" stop-opacity="0"/>
</linearGradient>
<linearGradient id="paint3_linear_1887_419" x1="188.233" y1="117.5" x2="230.233" y2="117.5" gradientUnits="userSpaceOnUse">
<stop stop-color="#15D4A6"/>
<stop offset="0.708" stop-color="#15D49B" stop-opacity="0.2"/>
<stop offset="1" stop-color="#15D484" stop-opacity="0"/>
</linearGradient>
<linearGradient id="paint4_linear_1887_419" x1="180.2" y1="128.5" x2="216.2" y2="128.5" gradientUnits="userSpaceOnUse">
<stop stop-color="#15D49B"/>
<stop offset="0.708" stop-color="#15D49B" stop-opacity="0.2"/>
<stop offset="1" stop-color="#15D49B" stop-opacity="0"/>
</linearGradient>
<linearGradient id="paint5_linear_1887_419" x1="74.7502" y1="31.0922" x2="29.7502" y2="31.0922" gradientUnits="userSpaceOnUse">
<stop stop-color="#15D4A6"/>
<stop offset="0.708" stop-color="#15D4A6" stop-opacity="0.2"/>
<stop offset="1" stop-color="#15D4A6" stop-opacity="0"/>
</linearGradient>
<linearGradient id="paint6_linear_1887_419" x1="82.7723" y1="20.5008" x2="41.7723" y2="20.5008" gradientUnits="userSpaceOnUse">
<stop stop-color="#15D484"/>
<stop offset="0.708" stop-color="#15D48F" stop-opacity="0.2"/>
<stop offset="1" stop-color="#15D48F" stop-opacity="0"/>
</linearGradient>
<linearGradient id="paint7_linear_1887_419" x1="66.8007" y1="41.684" x2="30.8007" y2="41.684" gradientUnits="userSpaceOnUse">
<stop stop-color="#15D48F"/>
<stop offset="0.708" stop-color="#15D484" stop-opacity="0.2"/>
<stop offset="1" stop-color="#15D49B" stop-opacity="0"/>
</linearGradient>
<linearGradient id="paint8_linear_1887_419" x1="84.6773" y1="43.6081" x2="191.323" y2="114.394" gradientUnits="userSpaceOnUse">
<stop stop-color="#15D46D"/>
<stop offset="1" stop-color="#15D46D" stop-opacity="0"/>
</linearGradient>
<linearGradient id="paint9_linear_1887_419" x1="nan" y1="nan" x2="nan" y2="nan" gradientUnits="userSpaceOnUse">
<stop stop-color="#5E15D4"/>
<stop offset="1" stop-color="#5E15D4" stop-opacity="0"/>
</linearGradient>
<linearGradient id="paint10_linear_1887_419" x1="nan" y1="nan" x2="nan" y2="nan" gradientUnits="userSpaceOnUse">
<stop stop-color="#5E15D4"/>
<stop offset="1" stop-color="#5E15D4" stop-opacity="0"/>
</linearGradient>
<clipPath id="clip0_1887_419">
<rect width="276" height="160" fill="white"/>
</clipPath>
</defs>
</svg>
