<svg width="214" height="154" viewBox="0 0 214 154" fill="none" xmlns="http://www.w3.org/2000/svg">
<path fill-rule="evenodd" clip-rule="evenodd" d="M204.75 34.125V7H177.625V34.125H204.75ZM205.625 35V62.125H213.5V63H205.625V90.125H213.5V91H205.625V118.125H213.5V119H205.625V146.125H213.5V147H205.625V154H204.75V147H177.625V154H176.75V147H149.625V154H148.75V147H121.625V154H120.75V147H93.625V154H92.75V147H65.625V154H64.75V147H37.625V154H36.75V147H9.62505V154H8.75005V147H4.57764e-05V146.125H8.75005V119H4.57764e-05V118.125H8.75005V91H4.57764e-05V90.125H8.75005V63H4.57764e-05V62.125H8.75005V35H4.57764e-05V34.125H8.75005V7H4.57764e-05V6.125H8.75005V0H9.62505V6.125H36.75V0H37.625V6.125H64.75V0H65.625V6.125H92.75V0H93.625V6.125H120.75V0H121.625V6.125H148.75V0H149.625V6.125H176.75V0H177.625V6.125H204.75V0H205.625V6.125H213.5V7H205.625V34.125H213.5V35H205.625ZM9.62505 146.125V119H36.75V146.125H9.62505ZM37.625 146.125V119H64.75V146.125H37.625ZM65.625 146.125V119H92.75V146.125H65.625ZM93.625 146.125V119H120.75V146.125H93.625ZM121.625 146.125V119H148.75V146.125H121.625ZM149.625 146.125V119H176.75V146.125H149.625ZM177.625 146.125V119H204.75V146.125H177.625ZM177.625 118.125H204.75V91H177.625V118.125ZM149.625 118.125H176.75V91H149.625V118.125ZM121.625 118.125H148.75V91H121.625V118.125ZM93.625 118.125H120.75V91H93.625V118.125ZM65.625 118.125H92.75V91H65.625V118.125ZM37.625 118.125H64.75V91H37.625V118.125ZM9.62505 118.125H36.75V91H9.62505V118.125ZM9.62505 90.125V63H36.75V90.125H9.62505ZM37.625 90.125V63H64.75V90.125H37.625ZM65.625 90.125V63H92.75V90.125H65.625ZM93.625 90.125V63H120.75V90.125H93.625ZM121.625 90.125V63H148.75V90.125H121.625ZM149.625 90.125V63H176.75V90.125H149.625ZM177.625 90.125V63H204.75V90.125H177.625ZM177.625 62.125H204.75V35H177.625V62.125ZM149.625 62.125H176.75V35H149.625V62.125ZM121.625 62.125H148.75V48.5625V35H121.625V62.125ZM93.625 62.125H120.75V35H93.625V62.125ZM65.625 62.125H92.75V35H65.625V62.125ZM37.625 62.125H64.75V35H37.625V62.125ZM9.62505 62.125H36.75V35H9.62505V62.125ZM9.62505 34.125V7H36.75V34.125H9.62505ZM37.625 34.125V7H64.75V34.125H37.625ZM65.625 34.125V7H92.75V34.125H65.625ZM93.625 34.125V7H120.75V34.125H93.625ZM121.625 34.125V7H148.75V34.125H121.625ZM149.625 34.125V7H176.75V34.125H149.625Z" fill="url(#paint0_radial_1894_766)"/>
<path d="M102.5 35H85.2541H68.0082" stroke="url(#paint1_linear_1894_766)" stroke-linecap="round"/>
<path d="M65 38C63.067 38 61.5 36.433 61.5 34.5C61.5 32.567 63.067 31 65 31C66.933 31 68.5 32.567 68.5 34.5C68.5 36.433 66.933 38 65 38Z" fill="#3DDCA3"/>
<path d="M92.8945 90.5605H64.8945V118.561" stroke="url(#paint2_linear_1894_766)" stroke-linecap="round"/>
<path d="M36.5 62H8.5V39" stroke="url(#paint3_linear_1894_766)" stroke-linecap="round"/>
<path d="M64.459 121.633C62.526 121.633 60.959 120.066 60.959 118.133C60.959 116.2 62.526 114.633 64.459 114.633C66.392 114.633 67.959 116.2 67.959 118.133C67.959 120.066 66.392 121.633 64.459 121.633Z" fill="#3DDCA3"/>
<path d="M8.46093 37.6113C6.52794 37.6113 4.96093 36.0443 4.96093 34.1113C4.96093 32.1783 6.52794 30.6113 8.46093 30.6113C10.3939 30.6113 11.9609 32.1783 11.9609 34.1113C11.9609 36.0443 10.3939 37.6113 8.46093 37.6113Z" fill="#3DDCA3"/>
<defs>
<radialGradient id="paint0_radial_1894_766" cx="0" cy="0" r="1" gradientUnits="userSpaceOnUse" gradientTransform="translate(92.5 77) rotate(89.6129) scale(74.0017 92.9901)">
<stop stop-color="#2F2F2F" stop-opacity="0.82"/>
<stop offset="1" stop-color="#8B8B8B" stop-opacity="0"/>
</radialGradient>
<linearGradient id="paint1_linear_1894_766" x1="66.5" y1="32" x2="98" y2="32" gradientUnits="userSpaceOnUse">
<stop stop-color="#3DDCA3"/>
<stop offset="1" stop-color="#15D484" stop-opacity="0"/>
</linearGradient>
<linearGradient id="paint2_linear_1894_766" x1="64.457" y1="114.575" x2="66.6148" y2="86.7849" gradientUnits="userSpaceOnUse">
<stop stop-color="#3DDCA3"/>
<stop offset="1" stop-color="#15D484" stop-opacity="0"/>
</linearGradient>
<linearGradient id="paint3_linear_1894_766" x1="8.9375" y1="41.8347" x2="25.7934" y2="64.793" gradientUnits="userSpaceOnUse">
<stop stop-color="#3DDCA3"/>
<stop offset="1" stop-color="#3DDC99" stop-opacity="0"/>
</linearGradient>
</defs>
</svg>
