<svg width="361" height="210" viewBox="0 0 361 210" fill="none" xmlns="http://www.w3.org/2000/svg">
<mask id="mask0_305_1959" style="mask-type:luminance" maskUnits="userSpaceOnUse" x="1" y="0" width="360" height="210">
<path d="M361 0H1V210H361V0Z" fill="white"/>
</mask>
<g mask="url(#mask0_305_1959)">
<path d="M307.732 33.5H53.2679C48.9778 33.5 45.5 36.9778 45.5 41.2679V241.732C45.5 246.022 48.9778 249.5 53.2679 249.5H307.732C312.022 249.5 315.5 246.022 315.5 241.732V41.2679C315.5 36.9778 312.022 33.5 307.732 33.5Z" fill="white" stroke="#ECEEF0"/>
<path d="M204.839 51H103.161C102.244 51 101.5 52.1193 101.5 53.5C101.5 54.8807 102.244 56 103.161 56H204.839C205.756 56 206.5 54.8807 206.5 53.5C206.5 52.1193 205.756 51 204.839 51Z" fill="#F1F3F5"/>
<path d="M204.839 67H103.161C102.244 67 101.5 68.1193 101.5 69.5C101.5 70.8807 102.244 72 103.161 72H204.839C205.756 72 206.5 70.8807 206.5 69.5C206.5 68.1193 205.756 67 204.839 67Z" fill="#F1F3F5"/>
<path d="M52.3602 144.688L47.8745 138.46C47.3071 137.672 46.063 138.073 46.063 139.044L46.0629 172.22C46.0629 172.772 45.5102 210.5 46.0625 210.5L307.015 209L308 105.511C308 104.795 307.268 104.311 306.609 104.591L303.56 105.886C303.22 106.031 303 106.364 303 106.732C303 106.907 302.95 107.078 302.856 107.226L293.064 122.613C292.757 123.096 292.109 123.223 291.642 122.893L281.338 115.594C280.879 115.269 280.242 115.386 279.929 115.854L267.208 134.886C266.847 135.425 266.077 135.484 265.639 135.006L251.179 119.24C250.804 118.832 250.169 118.806 249.763 119.182L232.345 135.296C231.952 135.659 231.344 135.649 230.964 135.274L217.5 122L204.668 108.217C204.297 107.818 203.675 107.79 203.269 108.152L174.249 134.077C173.757 134.516 172.981 134.367 172.687 133.776L162 107.536C161.626 106.784 159.852 105.238 159.5 106L145.699 134.834C145.434 135.408 144.709 135.595 144.199 135.221L136.939 129.897C136.6 129.649 136.142 129.639 135.793 129.872L124.706 137.268C124.187 137.614 123.481 137.406 123.233 136.833L112.5 107C112.193 106.29 110.956 104.375 110.5 105L94.7293 126.956C94.3452 127.482 93.5688 127.507 93.1526 127.006L89 118.5C88.5953 118.013 86.9938 120.504 86.5982 120.998L73.7095 137.104C73.3499 137.554 72.6861 137.607 72.2587 137.222L66.5 130.48C66.0409 130.066 63.3818 129.959 63.0492 130.48L54.0147 144.642C53.6346 145.238 52.7732 145.262 52.3602 144.688Z" fill="url(#paint0_linear_305_1959)"/>
</g>
<path d="M48.1875 135.573L53.5837 144.752C53.9707 145.41 54.9228 145.409 55.3087 144.75L63.9689 129.961C64.3024 129.392 65.0863 129.296 65.5474 129.768L72.8208 137.218C73.2508 137.659 73.9727 137.61 74.3394 137.115L87.9314 118.799C88.3793 118.196 89.3081 118.284 89.6349 118.96L93.6397 127.255C93.976 127.951 94.9418 128.019 95.3716 127.376L110.156 105.257C110.609 104.578 111.64 104.699 111.924 105.464L123.588 136.845C123.816 137.459 124.562 137.691 125.098 137.316L136.645 129.239C136.995 128.994 137.462 128.998 137.807 129.249L145.482 134.836C146.001 135.213 146.736 135.011 146.989 134.422L159.272 105.802C159.62 104.99 160.774 104.996 161.114 105.812L172.967 134.242C173.235 134.886 174.064 135.064 174.574 134.587L203.268 107.687C203.672 107.308 204.307 107.33 204.684 107.735L217.5 121.501L231.614 134.904C232.006 135.277 232.623 135.27 233.007 134.888L249.749 118.247C250.156 117.842 250.821 117.863 251.202 118.294L265.623 134.582C266.063 135.079 266.856 135.018 267.214 134.459L279.441 115.373C279.746 114.896 280.387 114.768 280.852 115.09L292.108 122.883C292.589 123.216 293.251 123.068 293.543 122.562L304.5 103.63" stroke="#ECEEF0" stroke-width="1.5" stroke-linecap="round"/>
<path d="M287.414 161H78.5858C76.3293 161 74.5 163.015 74.5 165.5V188.5C74.5 190.985 76.3293 193 78.5858 193H287.414C289.671 193 291.5 190.985 291.5 188.5V165.5C291.5 163.015 289.671 161 287.414 161Z" fill="white" stroke="#ECEEF0"/>
<path d="M308 103C308 101.343 306.657 100 305 100C303.343 100 302 101.343 302 103C302 104.657 303.343 106 305 106C306.657 106 308 104.657 308 103Z" fill="#6FF1B3" stroke="#ECEEF0"/>
<path d="M287 60.9925C287.002 63.0592 286.292 65.0635 284.99 66.6687C283.689 68.274 281.874 69.3823 279.852 69.8075C277.829 70.2326 275.722 69.9488 273.884 69.0037C272.046 68.0586 270.59 66.5097 269.759 64.6173C268.928 62.7248 268.774 60.6042 269.323 58.6116C269.871 56.6191 271.089 54.8759 272.771 53.6751C274.453 52.4743 276.497 51.8889 278.559 52.0174C280.622 52.1459 282.578 52.9803 284.098 54.3806C285.012 55.2226 285.742 56.2448 286.241 57.3828C286.741 58.5207 286.999 59.7498 287 60.9925Z" fill="#6B757E"/>
<path d="M287 60.9924C286.937 62.6896 286.376 64.3308 285.387 65.7115C284.398 67.0922 283.024 68.1515 281.438 68.7573C279.851 69.3632 278.121 69.4889 276.463 69.1188C274.806 68.7487 273.294 67.8992 272.115 66.676C270.937 65.4528 270.144 63.91 269.837 62.2397C269.529 60.5694 269.719 58.8454 270.384 57.2825C271.048 55.7195 272.158 54.3866 273.575 53.4498C274.992 52.513 276.653 52.0136 278.351 52.0139C280.674 52.1008 282.873 53.0848 284.486 54.7591C286.099 56.4333 287 58.6676 287 60.9924Z" fill="#C1C6C8"/>
<path d="M284.098 54.3807L271.404 67.0744C270.972 66.6045 270.59 66.09 270.266 65.5396L282.565 53.2415C283.115 53.5657 283.629 53.9476 284.098 54.3807Z" fill="#C5C5C5" fill-opacity="0.6"/>
<path d="M286.38 57.7083L274.73 69.3582C273.912 69.0366 273.145 68.5962 272.455 68.0513L285.074 55.4331C285.618 56.1233 286.059 56.89 286.38 57.7083Z" fill="#C5C5C5" fill-opacity="0.6"/>
<path d="M284.997 60.9925C285.003 62.8406 284.276 64.6158 282.975 65.9287C281.675 67.2417 279.906 67.9854 278.058 67.9967C276.21 68.0081 274.433 67.2862 273.116 65.9893C271.8 64.6924 271.051 62.9264 271.034 61.0783V60.9925C271.034 59.1409 271.77 57.3651 273.079 56.0558C274.388 54.7465 276.164 54.011 278.016 54.011H278.102C279.939 54.033 281.693 54.7782 282.984 56.085C284.274 57.3919 284.998 59.155 284.998 60.9919L284.997 60.9925Z" fill="#777C81"/>
<path d="M282.953 56.0562L273.081 65.9296C271.789 64.6426 271.055 62.9 271.036 61.0771V60.9913C271.036 59.1398 271.772 57.3641 273.081 56.0548C274.39 54.7456 276.166 54.0099 278.017 54.0098H278.103C279.925 54.0313 281.666 54.7659 282.953 56.0562Z" fill="#94989A"/>
<path d="M279.222 62.2301C279.222 62.7442 279.018 63.1685 278.61 63.5031C278.211 63.8376 277.66 64.0457 276.958 64.1273L276.762 65.9021L275.795 66L275.722 65.9143L275.918 64.1518C275.665 64.1273 275.432 64.0906 275.22 64.0416C275.008 63.9845 274.841 63.9355 274.718 63.8947C274.604 63.8458 274.53 63.8131 274.498 63.7968L274.4 63.6499C274.416 63.552 274.449 63.3399 274.498 63.0135C274.547 62.6789 274.575 62.3566 274.584 62.0465L275.538 61.9731C275.538 62.43 275.612 62.7483 275.759 62.9278C275.914 63.0991 276.187 63.1848 276.579 63.1848C276.872 63.1848 277.105 63.1277 277.276 63.0135C277.448 62.8992 277.533 62.7483 277.533 62.5606C277.533 62.3729 277.435 62.2138 277.24 62.0832C277.052 61.9445 276.75 61.7854 276.334 61.6059L276.065 61.4957C275.567 61.2591 275.179 61.0143 274.902 60.7613C274.624 60.5084 274.486 60.1738 274.486 59.7577C274.486 59.2681 274.677 58.8519 275.061 58.5092C275.453 58.1665 275.971 57.9502 276.615 57.8605L276.799 56.1102L277.778 56L277.852 56.1102L277.656 57.8237C277.901 57.8401 278.125 57.8686 278.329 57.9094C278.541 57.9421 278.704 57.9747 278.819 58.0073C278.941 58.04 279.018 58.0604 279.051 58.0685L279.137 58.2154C279.12 58.3052 279.084 58.5133 279.027 58.8397C278.969 59.1579 278.925 59.4965 278.892 59.8556L278.023 59.929L277.925 59.8556L277.937 59.5863C277.937 59.3252 277.864 59.1375 277.717 59.0233C277.57 58.9009 277.337 58.8397 277.019 58.8397C276.758 58.8397 276.542 58.8968 276.371 59.011C276.207 59.1171 276.126 59.2599 276.126 59.4394C276.126 59.6434 276.232 59.8148 276.444 59.9535C276.656 60.084 276.991 60.2472 277.448 60.4431C278.003 60.6797 278.435 60.9286 278.745 61.1897C279.063 61.4427 279.222 61.7895 279.222 62.2301Z" fill="#4B4B4B"/>
<path d="M280.14 62.2301C280.14 62.7442 279.936 63.1685 279.528 63.5031C279.129 63.8376 278.578 64.0457 277.876 64.1273L277.68 65.9021L276.713 66L276.64 65.9143L276.836 64.1518C276.583 64.1273 276.35 64.0906 276.138 64.0416C275.926 63.9845 275.759 63.9355 275.636 63.8947C275.522 63.8458 275.448 63.8131 275.416 63.7968L275.318 63.6499C275.334 63.552 275.367 63.3399 275.416 63.0135C275.465 62.6789 275.493 62.3566 275.501 62.0465L276.456 61.9731C276.456 62.43 276.53 62.7483 276.677 62.9278C276.832 63.0991 277.105 63.1848 277.497 63.1848C277.79 63.1848 278.023 63.1277 278.194 63.0135C278.366 62.8992 278.451 62.7483 278.451 62.5606C278.451 62.3729 278.353 62.2138 278.158 62.0832C277.97 61.9445 277.668 61.7854 277.252 61.6059L276.982 61.4957C276.485 61.2591 276.097 61.0143 275.82 60.7613C275.542 60.5084 275.404 60.1738 275.404 59.7577C275.404 59.2681 275.595 58.8519 275.979 58.5092C276.371 58.1665 276.889 57.9502 277.533 57.8605L277.717 56.1102L278.696 56L278.77 56.1102L278.574 57.8237C278.818 57.8401 279.043 57.8686 279.247 57.9094C279.459 57.9421 279.622 57.9747 279.736 58.0073C279.859 58.04 279.936 58.0604 279.969 58.0685L280.055 58.2154C280.038 58.3052 280.002 58.5133 279.945 58.8397C279.887 59.1579 279.843 59.4965 279.81 59.8556L278.941 59.929L278.843 59.8556L278.855 59.5863C278.855 59.3252 278.782 59.1375 278.635 59.0233C278.488 58.9009 278.255 58.8397 277.937 58.8397C277.676 58.8397 277.46 58.8968 277.288 59.011C277.125 59.1171 277.044 59.2599 277.044 59.4394C277.044 59.6434 277.15 59.8148 277.362 59.9535C277.574 60.084 277.909 60.2472 278.366 60.4431C278.92 60.6797 279.353 60.9286 279.663 61.1897C279.981 61.4427 280.14 61.7895 280.14 62.2301Z" fill="#F4F4F4"/>
<path d="M284.997 60.9925C284.997 61.9094 284.816 62.8173 284.465 63.6643C284.115 64.5114 283.6 65.2811 282.952 65.9294C282.304 66.5777 281.534 67.092 280.687 67.4429C279.84 67.7938 278.932 67.9744 278.015 67.9744C277.883 67.9744 277.751 67.9707 277.621 67.9634C279.402 67.863 281.076 67.0848 282.302 65.7885C283.527 64.4923 284.209 62.7763 284.209 60.9927C284.209 59.2091 283.527 57.4931 282.302 56.1968C281.076 54.9006 279.402 54.1224 277.621 54.0219C277.751 54.0146 277.883 54.011 278.015 54.011C279.867 54.011 281.643 54.7465 282.952 56.0558C284.261 57.3651 284.997 59.1409 284.997 60.9925Z" fill="#646363"/>
<path d="M298 60.9925C298.002 63.0592 297.292 65.0635 295.99 66.6687C294.689 68.274 292.874 69.3823 290.852 69.8075C288.829 70.2326 286.722 69.9488 284.884 69.0037C283.046 68.0586 281.59 66.5097 280.759 64.6173C279.928 62.7248 279.774 60.6042 280.323 58.6116C280.871 56.6191 282.089 54.8759 283.771 53.6751C285.453 52.4743 287.497 51.8889 289.559 52.0174C291.622 52.1459 293.578 52.9803 295.098 54.3806C296.012 55.2226 296.742 56.2448 297.241 57.3828C297.741 58.5207 297.999 59.7498 298 60.9925Z" fill="#6B757E"/>
<path d="M298 60.9924C297.937 62.6896 297.376 64.3308 296.387 65.7115C295.398 67.0922 294.024 68.1515 292.438 68.7573C290.851 69.3632 289.121 69.4889 287.463 69.1188C285.806 68.7487 284.294 67.8992 283.115 66.676C281.937 65.4528 281.144 63.91 280.837 62.2397C280.529 60.5694 280.719 58.8454 281.384 57.2825C282.048 55.7195 283.158 54.3866 284.575 53.4498C285.992 52.513 287.653 52.0136 289.351 52.0139C291.674 52.1008 293.873 53.0848 295.486 54.7591C297.099 56.4333 298 58.6676 298 60.9924Z" fill="#C1C6C8"/>
<path d="M295.098 54.3807L282.404 67.0744C281.972 66.6045 281.59 66.09 281.266 65.5396L293.565 53.2415C294.115 53.5657 294.629 53.9476 295.098 54.3807Z" fill="#C5C5C5" fill-opacity="0.6"/>
<path d="M297.38 57.7083L285.73 69.3582C284.912 69.0366 284.145 68.5962 283.455 68.0513L296.074 55.4331C296.618 56.1233 297.059 56.89 297.38 57.7083Z" fill="#C5C5C5" fill-opacity="0.6"/>
<path d="M295.997 60.9925C296.003 62.8406 295.276 64.6158 293.975 65.9287C292.675 67.2417 290.906 67.9854 289.058 67.9967C287.21 68.0081 285.433 67.2862 284.116 65.9893C282.8 64.6924 282.051 62.9264 282.034 61.0783V60.9925C282.034 59.1409 282.77 57.3651 284.079 56.0558C285.388 54.7465 287.164 54.011 289.016 54.011H289.102C290.939 54.033 292.693 54.7782 293.984 56.085C295.274 57.3919 295.998 59.155 295.998 60.9919L295.997 60.9925Z" fill="#777C81"/>
<path d="M293.953 56.0562L284.081 65.9296C282.789 64.6426 282.055 62.9 282.036 61.0771V60.9913C282.036 59.1398 282.772 57.3641 284.081 56.0548C285.39 54.7456 287.166 54.0099 289.017 54.0098H289.103C290.925 54.0313 292.666 54.7659 293.953 56.0562Z" fill="#94989A"/>
<path d="M295.997 60.9925C295.997 61.9094 295.816 62.8173 295.465 63.6643C295.115 64.5114 294.6 65.2811 293.952 65.9294C293.304 66.5777 292.534 67.092 291.687 67.4429C290.84 67.7938 289.932 67.9744 289.015 67.9744C288.883 67.9744 288.751 67.9707 288.621 67.9634C290.402 67.863 292.076 67.0848 293.302 65.7885C294.527 64.4923 295.209 62.7763 295.209 60.9927C295.209 59.2091 294.527 57.4931 293.302 56.1968C292.076 54.9006 290.402 54.1224 288.621 54.0219C288.751 54.0146 288.883 54.011 289.015 54.011C290.867 54.011 292.643 54.7465 293.952 56.0558C295.261 57.3651 295.997 59.1409 295.997 60.9925Z" fill="#646363"/>
<path d="M285.142 58.7441C285.156 58.759 285.182 58.7727 285.184 58.789C285.202 58.9482 285.302 59.055 285.422 59.1405C286.532 59.9255 287.643 60.71 288.756 61.4892C289.026 61.6775 289.239 61.6666 289.504 61.4799C290.111 61.0535 290.717 60.6263 291.323 60.198C291.666 59.9552 291.916 59.6394 292.047 59.2396C292.093 59.1001 292.11 58.9515 292.13 58.8603C292.13 59.2086 292.155 59.6124 292.123 60.0116C292.083 60.5036 291.835 60.9094 291.439 61.2016C290.779 61.6883 290.107 62.1577 289.433 62.6262C289.215 62.7785 288.983 62.7386 288.768 62.5994C288.548 62.4566 288.33 62.3109 288.116 62.1593C287.23 61.5314 286.346 60.9004 285.461 60.2715C285.309 60.1637 285.189 60.0364 285.162 59.8438C285.163 59.5308 285.164 59.2179 285.163 58.905C285.163 58.8812 285.149 58.8574 285.142 58.8337C285.142 58.8039 285.142 58.7741 285.142 58.7441Z" fill="#4B4B4B"/>
<path d="M285.142 61.2061C285.156 61.2154 285.181 61.2235 285.182 61.2342C285.201 61.4117 285.321 61.5188 285.453 61.615C285.962 61.985 286.468 62.3587 286.982 62.7209C287.551 63.1219 288.128 63.5125 288.703 63.9063C289.032 64.1318 289.215 64.1328 289.543 63.9029C290.127 63.4953 290.706 63.0825 291.289 62.6743C291.636 62.431 291.899 62.1222 292.036 61.7196C292.087 61.5701 292.107 61.4106 292.162 61.2553C292.147 61.6886 292.16 62.1252 292.109 62.5543C292.055 63.0142 291.801 63.3896 291.429 63.6629C290.775 64.1437 290.108 64.6083 289.442 65.0738C289.208 65.2369 288.97 65.1884 288.748 65.0403C288.458 64.8473 288.169 64.6531 287.885 64.4517C287.066 63.8709 286.251 63.2863 285.434 62.7032C285.288 62.599 285.184 62.4682 285.161 62.2847C285.162 61.9676 285.163 61.6505 285.163 61.3335C285.163 61.3134 285.149 61.2934 285.142 61.2733C285.142 61.2508 285.142 61.2284 285.142 61.2061Z" fill="#4B4B4B"/>
<path d="M286.763 58.6272C286.782 58.6056 286.791 58.5889 286.806 58.5789C287.159 58.3326 287.506 58.0766 287.868 57.8442C288.243 57.6036 288.657 57.4624 289.11 57.4631C289.532 57.4638 289.915 57.5974 290.262 57.8282C290.429 57.9398 290.592 58.063 290.741 58.1983C290.981 58.4169 291.006 58.8064 290.815 59.0682C290.772 59.1267 290.728 59.1305 290.671 59.0932C290.593 59.0413 290.516 58.9885 290.437 58.9387C289.636 58.4368 288.834 58.4422 288.033 58.9394C287.906 59.0185 287.78 59.0996 287.65 59.1745C287.624 59.1896 287.575 59.1955 287.552 59.1808C287.302 59.0156 287.056 58.8459 286.808 58.6765C286.794 58.6664 286.783 58.6498 286.763 58.6272Z" fill="#4B4B4B"/>
<path d="M285.463 58.4226C285.478 58.4375 285.503 58.4512 285.505 58.4675C285.523 58.6266 285.623 58.7335 285.744 58.8189C286.854 59.6039 287.964 60.3885 289.078 61.1677C289.347 61.3559 289.56 61.345 289.826 61.1584C290.432 60.732 291.039 60.3047 291.644 59.8765C291.987 59.6336 292.237 59.3179 292.368 58.9181C292.414 58.7786 292.432 58.63 292.451 58.5388C292.451 58.8871 292.477 59.2909 292.444 59.69C292.404 60.1821 292.156 60.5878 291.76 60.88C291.101 61.3668 290.428 61.8361 289.755 62.3046C289.536 62.457 289.304 62.4171 289.09 62.2779C288.87 62.1351 288.652 61.9893 288.438 61.8378C287.552 61.2099 286.668 60.5789 285.782 59.9499C285.63 59.8422 285.511 59.7149 285.484 59.5223C285.484 59.2093 285.485 58.8964 285.485 58.5835C285.485 58.5597 285.471 58.5359 285.463 58.5122C285.463 58.4824 285.463 58.4525 285.463 58.4226Z" fill="#FAFEFF"/>
<path d="M285.463 60.8848C285.477 60.8941 285.502 60.9023 285.503 60.9129C285.523 61.0904 285.642 61.1975 285.774 61.2937C286.283 61.6637 286.789 62.0374 287.303 62.3996C287.873 62.8006 288.45 63.1912 289.024 63.585C289.353 63.8105 289.536 63.8115 289.865 63.5816C290.448 63.174 291.027 62.7612 291.61 62.353C291.958 62.1097 292.221 61.8009 292.357 61.3983C292.408 61.2488 292.429 61.0893 292.483 60.934C292.468 61.3673 292.481 61.8039 292.431 62.233C292.376 62.6929 292.123 63.0683 291.751 63.3416C291.096 63.8224 290.429 64.287 289.763 64.7525C289.53 64.9156 289.292 64.8671 289.069 64.719C288.779 64.526 288.49 64.3318 288.206 64.1304C287.388 63.5496 286.572 62.965 285.755 62.3819C285.609 62.2777 285.505 62.1469 285.482 61.9634C285.483 61.6463 285.485 61.3293 285.484 61.0122C285.484 60.9921 285.471 60.9721 285.463 60.9521C285.463 60.9295 285.463 60.9071 285.463 60.8848Z" fill="#FAFEFF"/>
<path d="M287.084 58.3059C287.103 58.2843 287.113 58.2678 287.127 58.2578C287.481 58.0114 287.827 57.7554 288.19 57.5229C288.565 57.2824 288.978 57.1411 289.431 57.1418C289.853 57.1425 290.236 57.2761 290.583 57.5069C290.751 57.6185 290.913 57.7417 291.062 57.877C291.303 58.0957 291.328 58.4851 291.136 58.7469C291.094 58.8054 291.049 58.8092 290.993 58.7719C290.915 58.72 290.838 58.6672 290.758 58.6174C289.957 58.1155 289.156 58.1209 288.355 58.6181C288.228 58.6972 288.102 58.7783 287.972 58.8532C287.946 58.8683 287.896 58.8742 287.874 58.8595C287.624 58.6944 287.377 58.5247 287.13 58.3553C287.115 58.3452 287.105 58.3285 287.084 58.3059Z" fill="#FAFEFF"/>
<path d="M85 51H63C61.8954 51 61 51.8954 61 53V54C61 55.1046 61.8954 56 63 56H85C86.1046 56 87 55.1046 87 54V53C87 51.8954 86.1046 51 85 51Z" fill="#F1F3F5"/>
<path d="M85 67H63C61.8954 67 61 67.8954 61 69V70C61 71.1046 61.8954 72 63 72H85C86.1046 72 87 71.1046 87 70V69C87 67.8954 86.1046 67 85 67Z" fill="#F1F3F5"/>
<path d="M139.41 182L138.539 179.686H134.639L133.781 182H132.13L135.718 172.783H137.525L141.113 182H139.41ZM136.589 174.473L135.185 178.243H137.993L136.589 174.473ZM143.104 178.815C143.104 179.426 143.26 179.92 143.572 180.284C143.884 180.648 144.287 180.83 144.807 180.83C145.301 180.83 145.704 180.648 146.016 180.271C146.328 179.907 146.484 179.413 146.484 178.802C146.484 178.204 146.328 177.736 146.029 177.372C145.717 177.021 145.314 176.839 144.82 176.839C144.313 176.839 143.897 177.021 143.585 177.385C143.26 177.749 143.104 178.217 143.104 178.815ZM147.94 172.588V180.843C147.94 181.272 147.953 181.662 148.005 182H146.562C146.51 181.766 146.497 181.493 146.497 181.181C146.341 181.467 146.094 181.701 145.769 181.883C145.431 182.065 145.054 182.156 144.638 182.156C143.728 182.156 143 181.844 142.441 181.207C141.869 180.583 141.596 179.777 141.596 178.815C141.596 177.892 141.869 177.112 142.441 176.462C143.013 175.825 143.728 175.5 144.612 175.5C145.106 175.5 145.509 175.591 145.821 175.773C146.133 175.955 146.341 176.176 146.471 176.41V172.588H147.94ZM150.925 178.815C150.925 179.426 151.081 179.92 151.393 180.284C151.705 180.648 152.108 180.83 152.628 180.83C153.122 180.83 153.525 180.648 153.837 180.271C154.149 179.907 154.305 179.413 154.305 178.802C154.305 178.204 154.149 177.736 153.85 177.372C153.538 177.021 153.135 176.839 152.641 176.839C152.134 176.839 151.718 177.021 151.406 177.385C151.081 177.749 150.925 178.217 150.925 178.815ZM155.761 172.588V180.843C155.761 181.272 155.774 181.662 155.826 182H154.383C154.331 181.766 154.318 181.493 154.318 181.181C154.162 181.467 153.915 181.701 153.59 181.883C153.252 182.065 152.875 182.156 152.459 182.156C151.549 182.156 150.821 181.844 150.262 181.207C149.69 180.583 149.417 179.777 149.417 178.815C149.417 177.892 149.69 177.112 150.262 176.462C150.834 175.825 151.549 175.5 152.433 175.5C152.927 175.5 153.33 175.591 153.642 175.773C153.954 175.955 154.162 176.176 154.292 176.41V172.588H155.761ZM166.87 182H161.085V172.783H162.645V180.518H166.87V182ZM169.661 182H168.166V175.669H169.661V182ZM167.932 173.446C167.932 173.186 168.023 172.952 168.218 172.757C168.4 172.562 168.634 172.458 168.907 172.458C169.18 172.458 169.414 172.562 169.609 172.744C169.791 172.939 169.895 173.173 169.895 173.446C169.895 173.719 169.791 173.953 169.609 174.135C169.414 174.33 169.18 174.421 168.907 174.421C168.634 174.421 168.4 174.33 168.218 174.135C168.023 173.953 167.932 173.719 167.932 173.446ZM177.496 184.47H176.014V181.246C175.676 181.857 175.052 182.156 174.155 182.156C173.258 182.156 172.53 181.844 171.958 181.207C171.386 180.57 171.113 179.777 171.113 178.815C171.113 177.879 171.386 177.099 171.932 176.462C172.478 175.838 173.206 175.513 174.116 175.513C174.61 175.513 175.026 175.617 175.364 175.812C175.689 176.02 175.923 176.254 176.053 176.514V175.669H177.496V184.47ZM172.634 178.815C172.634 179.413 172.79 179.907 173.102 180.271C173.414 180.648 173.83 180.83 174.324 180.83C174.818 180.83 175.221 180.648 175.546 180.271C175.858 179.907 176.027 179.413 176.027 178.815C176.027 178.217 175.858 177.749 175.546 177.385C175.234 177.034 174.818 176.852 174.324 176.852C173.817 176.852 173.414 177.034 173.102 177.385C172.79 177.749 172.634 178.217 172.634 178.815ZM183.472 181.298C183.316 181.584 183.082 181.792 182.744 181.948C182.406 182.104 182.055 182.182 181.678 182.182C180.937 182.182 180.352 181.948 179.923 181.467C179.494 180.999 179.286 180.388 179.286 179.66V175.669H180.794V179.387C180.794 179.816 180.898 180.167 181.106 180.427C181.314 180.7 181.626 180.83 182.068 180.83C182.484 180.83 182.809 180.7 183.043 180.44C183.277 180.18 183.394 179.842 183.394 179.413V175.669H184.902V180.843C184.902 181.233 184.915 181.61 184.967 182H183.524C183.485 181.818 183.472 181.584 183.472 181.298ZM188.349 182H186.854V175.669H188.349V182ZM186.62 173.446C186.62 173.186 186.711 172.952 186.906 172.757C187.088 172.562 187.322 172.458 187.595 172.458C187.868 172.458 188.102 172.562 188.297 172.744C188.479 172.939 188.583 173.173 188.583 173.446C188.583 173.719 188.479 173.953 188.297 174.135C188.102 174.33 187.868 174.421 187.595 174.421C187.322 174.421 187.088 174.33 186.906 174.135C186.711 173.953 186.62 173.719 186.62 173.446ZM191.308 178.815C191.308 179.426 191.464 179.92 191.776 180.284C192.088 180.648 192.491 180.83 193.011 180.83C193.505 180.83 193.908 180.648 194.22 180.271C194.532 179.907 194.688 179.413 194.688 178.802C194.688 178.204 194.532 177.736 194.233 177.372C193.921 177.021 193.518 176.839 193.024 176.839C192.517 176.839 192.101 177.021 191.789 177.385C191.464 177.749 191.308 178.217 191.308 178.815ZM196.144 172.588V180.843C196.144 181.272 196.157 181.662 196.209 182H194.766C194.714 181.766 194.701 181.493 194.701 181.181C194.545 181.467 194.298 181.701 193.973 181.883C193.635 182.065 193.258 182.156 192.842 182.156C191.932 182.156 191.204 181.844 190.645 181.207C190.073 180.583 189.8 179.777 189.8 178.815C189.8 177.892 190.073 177.112 190.645 176.462C191.217 175.825 191.932 175.5 192.816 175.5C193.31 175.5 193.713 175.591 194.025 175.773C194.337 175.955 194.545 176.176 194.675 176.41V172.588H196.144ZM199.61 182H198.115V175.669H199.61V182ZM197.881 173.446C197.881 173.186 197.972 172.952 198.167 172.757C198.349 172.562 198.583 172.458 198.856 172.458C199.129 172.458 199.363 172.562 199.558 172.744C199.74 172.939 199.844 173.173 199.844 173.446C199.844 173.719 199.74 173.953 199.558 174.135C199.363 174.33 199.129 174.421 198.856 174.421C198.583 174.421 198.349 174.33 198.167 174.135C197.972 173.953 197.881 173.719 197.881 173.446ZM203.466 173.732V175.669H204.779V177.008H203.466V179.946C203.466 180.232 203.531 180.427 203.661 180.557C203.791 180.687 203.986 180.739 204.272 180.739C204.441 180.739 204.61 180.726 204.792 180.687V181.935C204.558 182.039 204.259 182.078 203.869 182.078C203.271 182.078 202.816 181.922 202.478 181.584C202.14 181.246 201.971 180.791 201.971 180.193V177.008H200.801V175.669H201.126C201.438 175.669 201.685 175.578 201.854 175.396C202.01 175.214 202.101 174.98 202.101 174.681V173.732H203.466ZM208.354 184.561H206.742L208.263 181.246L205.559 175.669H207.262L209.082 179.673L210.785 175.669H212.384L208.354 184.561Z" fill="#050505"/>
<path d="M234.243 176.68C235.636 177.142 236.551 177.869 236.551 178.478V180.74C236.551 181.719 234.189 183 231.275 183C228.362 183 226 181.719 226 180.74V178.478C226 177.869 226.915 177.142 228.308 176.681" stroke="#2A2E3B" stroke-linecap="round" stroke-linejoin="round"/>
<path d="M236.551 178.477C236.551 179.517 234.189 180.727 231.275 180.727C228.362 180.727 226 179.517 226 178.477" stroke="#2A2E3B" stroke-linecap="round" stroke-linejoin="round"/>
<path d="M231.276 177.254V170M231.276 177.254L233.584 174.946M231.276 177.254L228.968 174.946" stroke="#222222" stroke-linecap="round" stroke-linejoin="round"/>
<defs>
<linearGradient id="paint0_linear_305_1959" x1="193.5" y1="32" x2="148" y2="210" gradientUnits="userSpaceOnUse">
<stop offset="0.0001" stop-color="#F1F3F5"/>
<stop offset="0.556195" stop-color="#F9F9F9"/>
<stop offset="0.909615" stop-color="white" stop-opacity="0"/>
</linearGradient>
</defs>
</svg>
