<svg width="361" height="210" viewBox="0 0 361 210" fill="none" xmlns="http://www.w3.org/2000/svg">
<path d="M211.538 155.237C211.547 164.131 208.492 172.756 202.889 179.664C197.29 186.572 189.479 191.342 180.778 193.172C172.072 195.001 163.005 193.78 155.096 189.712C147.186 185.645 140.92 178.98 137.344 170.836C133.768 162.692 133.106 153.566 135.468 144.992C137.826 136.417 143.068 128.916 150.306 123.748C157.544 118.581 166.34 116.062 175.214 116.615C184.092 117.167 192.509 120.758 199.05 126.784C202.983 130.408 206.125 134.806 208.272 139.704C210.424 144.6 211.534 149.89 211.538 155.237Z" fill="#FBFBFB"/>
<path d="M211.546 155.234C211.275 162.538 208.861 169.6 204.605 175.542C200.349 181.484 194.436 186.042 187.611 188.649C180.781 191.256 173.337 191.797 166.202 190.205C159.071 188.612 152.564 184.956 147.491 179.692C142.421 174.429 139.009 167.789 137.688 160.602C136.362 153.414 137.18 145.995 140.042 139.269C142.899 132.543 147.676 126.807 153.774 122.776C159.871 118.744 167.019 116.595 174.326 116.596C184.323 116.97 193.786 121.205 200.727 128.41C207.669 135.615 211.546 145.23 211.546 155.234Z" fill="white"/>
<path d="M199.047 126.777L144.42 181.403C142.561 179.38 140.917 177.166 139.523 174.798L192.45 121.875C194.817 123.27 197.029 124.913 199.047 126.777Z" fill="white" fill-opacity="0.53"/>
<path d="M208.869 141.101L158.735 191.234C155.215 189.85 151.914 187.955 148.945 185.61L203.249 131.31C205.59 134.28 207.488 137.579 208.869 141.101Z" fill="white" fill-opacity="0.53"/>
<path d="M202.908 155.245C202.934 163.198 199.805 170.837 194.206 176.487C188.612 182.137 181 185.337 173.047 185.386C165.094 185.435 157.447 182.329 151.78 176.747C146.117 171.166 142.893 163.567 142.82 155.614V155.245C142.82 147.276 145.987 139.635 151.621 134C157.254 128.366 164.896 125.201 172.866 125.201H173.236C181.141 125.295 188.69 128.502 194.245 134.126C199.797 139.75 202.912 147.337 202.912 155.242L202.908 155.245Z" fill="#F0F0F0" fill-opacity="0.88"/>
<path d="M194.135 133.989L151.653 176.478C146.093 170.939 142.934 163.44 142.852 155.596V155.226C142.852 147.259 146.019 139.617 151.653 133.983C157.286 128.349 164.928 125.183 172.894 125.183H173.264C181.105 125.275 188.597 128.436 194.135 133.989Z" fill="#F9F9FA"/>
<path d="M156.203 145.568C156.263 145.632 156.375 145.691 156.383 145.761C156.461 146.446 156.891 146.906 157.407 147.274C162.184 150.652 166.965 154.028 171.755 157.381C172.917 158.191 173.833 158.144 174.974 157.341C177.586 155.506 180.194 153.668 182.802 151.825C184.278 150.78 185.353 149.421 185.917 147.7C186.115 147.1 186.188 146.46 186.274 146.068C186.274 147.567 186.382 149.304 186.244 151.022C186.072 153.14 185.005 154.886 183.301 156.143C180.461 158.238 177.569 160.258 174.668 162.274C173.73 162.929 172.732 162.758 171.807 162.159C170.86 161.544 169.922 160.917 169.001 160.265C165.188 157.563 161.384 154.847 157.575 152.141C156.921 151.677 156.405 151.129 156.289 150.3C156.293 148.953 156.297 147.607 156.293 146.26C156.293 146.158 156.233 146.055 156.203 145.953C156.203 145.825 156.203 145.697 156.203 145.568Z" fill="#E8ECEE"/>
<path d="M156.203 156.158C156.263 156.198 156.37 156.233 156.375 156.279C156.457 157.043 156.973 157.504 157.541 157.918C159.731 159.51 161.909 161.118 164.121 162.677C166.569 164.403 169.052 166.084 171.527 167.778C172.943 168.749 173.73 168.753 175.142 167.764C177.655 166.01 180.146 164.233 182.655 162.477C184.148 161.43 185.28 160.101 185.87 158.368C186.089 157.725 186.175 157.038 186.412 156.37C186.347 158.235 186.403 160.114 186.184 161.96C185.952 163.939 184.858 165.555 183.258 166.731C180.443 168.8 177.573 170.799 174.707 172.802C173.7 173.504 172.676 173.296 171.72 172.658C170.472 171.828 169.229 170.992 168.007 170.125C164.482 167.626 160.975 165.11 157.459 162.601C156.831 162.153 156.383 161.59 156.284 160.8C156.289 159.435 156.293 158.071 156.293 156.707C156.293 156.62 156.233 156.534 156.203 156.448C156.203 156.351 156.203 156.254 156.203 156.158Z" fill="#E8ECEE"/>
<path d="M163.164 145.056C163.246 144.963 163.285 144.891 163.349 144.848C164.868 143.788 166.362 142.687 167.92 141.687C169.533 140.651 171.315 140.044 173.264 140.047C175.08 140.05 176.728 140.625 178.222 141.618C178.94 142.098 179.642 142.628 180.283 143.21C181.316 144.151 181.423 145.827 180.601 146.954C180.416 147.206 180.227 147.222 179.982 147.062C179.646 146.838 179.315 146.611 178.975 146.397C175.528 144.237 172.076 144.26 168.629 146.4C168.083 146.74 167.541 147.089 166.981 147.411C166.869 147.476 166.659 147.502 166.56 147.439C165.484 146.728 164.425 145.997 163.358 145.268C163.298 145.225 163.25 145.153 163.164 145.056Z" fill="#E8ECEE"/>
<path d="M163.922 143.284C164.004 143.191 164.043 143.119 164.107 143.076C165.626 142.016 167.119 140.915 168.677 139.914C170.291 138.879 172.073 138.271 174.022 138.274C175.838 138.277 177.486 138.852 178.979 139.846C179.698 140.326 180.4 140.856 181.041 141.438C182.074 142.379 182.181 144.055 181.359 145.182C181.174 145.433 180.985 145.45 180.739 145.289C180.404 145.066 180.073 144.839 179.733 144.624C176.286 142.465 172.834 142.488 169.387 144.627C168.841 144.968 168.299 145.317 167.739 145.639C167.627 145.704 167.416 145.73 167.317 145.666C166.242 144.955 165.183 144.225 164.116 143.496C164.056 143.453 164.008 143.381 163.922 143.284Z" fill="white"/>
<path d="M157.602 144.171C157.667 144.236 157.774 144.294 157.783 144.365C157.86 145.049 158.29 145.509 158.811 145.877C163.588 149.255 168.365 152.631 173.159 155.985C174.316 156.794 175.233 156.747 176.377 155.944C178.985 154.11 181.597 152.271 184.201 150.428C185.677 149.383 186.753 148.024 187.317 146.304C187.515 145.703 187.592 145.064 187.674 144.671C187.674 146.17 187.786 147.908 187.644 149.625C187.471 151.743 186.404 153.489 184.7 154.746C181.864 156.841 178.968 158.861 176.072 160.877C175.129 161.533 174.131 161.361 173.21 160.762C172.263 160.148 171.325 159.52 170.404 158.868C166.592 156.166 162.788 153.451 158.975 150.744C158.321 150.28 157.809 149.733 157.692 148.904C157.692 147.557 157.697 146.21 157.697 144.864C157.697 144.761 157.636 144.659 157.602 144.557C157.602 144.429 157.602 144.3 157.602 144.171Z" fill="white"/>
<path d="M157.602 154.778C157.662 154.818 157.77 154.853 157.774 154.899C157.86 155.663 158.372 156.123 158.94 156.537C161.131 158.13 163.308 159.738 165.52 161.297C167.973 163.022 170.456 164.703 172.926 166.398C174.342 167.368 175.129 167.372 176.545 166.383C179.054 164.629 181.546 162.853 184.055 161.096C185.552 160.049 186.684 158.72 187.269 156.988C187.489 156.344 187.579 155.658 187.811 154.99C187.747 156.854 187.803 158.733 187.588 160.58C187.351 162.559 186.262 164.174 184.661 165.35C181.843 167.419 178.972 169.419 176.106 171.422C175.104 172.124 174.079 171.915 173.12 171.278C171.872 170.447 170.628 169.611 169.406 168.745C165.886 166.245 162.374 163.73 158.859 161.22C158.23 160.772 157.783 160.209 157.684 159.419C157.688 158.055 157.697 156.691 157.692 155.326C157.692 155.24 157.636 155.154 157.602 155.067C157.602 154.97 157.602 154.874 157.602 154.778Z" fill="white"/>
<path d="M203.945 155.269C203.945 159.225 203.187 163.142 201.717 166.797C200.252 170.452 198.095 173.773 195.382 176.57C192.669 179.367 189.445 181.586 185.899 183.1C182.353 184.614 178.552 185.393 174.712 185.393C174.16 185.393 173.607 185.377 173.062 185.346C180.519 184.912 187.528 181.555 192.661 175.962C197.79 170.369 200.645 162.965 200.645 155.27C200.645 147.574 197.79 140.17 192.661 134.577C187.528 128.985 180.519 125.627 173.062 125.193C173.607 125.162 174.16 125.146 174.712 125.146C182.467 125.146 189.902 128.32 195.382 133.969C200.863 139.618 203.945 147.28 203.945 155.269Z" fill="#8B8B8B" fill-opacity="0.18"/>
<path d="M112.804 79.7461H50.6438C47.5268 79.7461 45 82.2729 45 85.3898V105.086C45 108.203 47.5268 110.73 50.6438 110.73H112.804C115.921 110.73 118.448 108.203 118.448 105.086V85.3898C118.448 82.2729 115.921 79.7461 112.804 79.7461Z" fill="white"/>
<path d="M112.804 79.7461H50.6438C47.5268 79.7461 45 82.2729 45 85.3898V105.086C45 108.203 47.5268 110.73 50.6438 110.73H112.804C115.921 110.73 118.448 108.203 118.448 105.086V85.3898C118.448 82.2729 115.921 79.7461 112.804 79.7461Z" stroke="url(#paint0_linear_8367_3650)" stroke-width="0.6"/>
<path d="M117.617 95.2383C117.617 96.3078 118.465 97.1748 119.511 97.1748C120.557 97.1748 121.405 96.3078 121.405 95.2383C121.405 94.1687 120.557 93.3018 119.511 93.3018C118.465 93.3018 117.617 94.1687 117.617 95.2383ZM119.511 95.6013H193.141V94.8752H119.511V95.6013Z" fill="url(#paint1_linear_8367_3650)"/>
<path d="M65.0917 100.077C63.9449 100.085 65.1277 100.071 63.9809 100.072C61.4899 100.076 58.9995 100.078 56.5078 100.076C55.2913 100.076 54.0741 100.074 52.8562 100.07C52.547 100.07 52.2378 100.055 51.93 100.047C51.8756 100.047 51.823 100.027 51.7812 99.9923C51.8329 99.9828 51.885 99.9756 51.9373 99.9705C52.5078 99.9473 53.0783 99.924 53.6488 99.9037C54.3035 99.8819 54.9589 99.8631 55.6157 99.8427C55.795 99.8369 55.8328 99.7992 55.8407 99.609C55.8553 98.8564 55.9467 98.1066 56.1137 97.3728C56.179 97.0897 56.1507 96.9721 55.901 96.8182C55.464 96.5504 55.2057 96.1178 55.0982 95.6098C55.0256 95.2693 55.1309 94.9609 55.3356 94.6872C55.443 94.5435 55.5555 94.4042 55.6615 94.2597C55.7493 94.1473 55.8785 94.0746 56.0201 94.058C56.0691 94.0609 56.1142 94.0854 56.1434 94.1247C56.1565 94.1407 56.1363 94.2118 56.1101 94.2307C56.0027 94.3113 55.8959 94.4158 55.7732 94.4484C55.5845 94.4985 55.4924 94.6343 55.4161 94.7823C55.1186 95.3637 55.3958 95.9342 55.7457 96.247C55.8879 96.3697 56.0418 96.4764 56.2058 96.5657C56.3909 96.6702 56.4868 96.6397 56.6451 96.4982C57.2664 95.9349 57.8891 95.3731 58.514 94.8128C58.5598 94.7722 58.6032 94.7286 58.6489 94.688C58.752 94.5943 58.8436 94.6168 58.8741 94.7555C58.9299 95.0313 58.9741 95.3085 59.0169 95.5858C59.0373 95.7208 59.0445 95.858 59.0569 95.9937H59.0953C59.1135 95.8907 59.1229 95.7861 59.1244 95.6816C59.1019 95.2788 59.0889 94.8731 59.0308 94.4746C58.9974 94.2452 58.8819 94.0282 58.8094 93.8039C58.784 93.7386 58.7741 93.6683 58.7803 93.5985C58.797 93.4998 58.7585 93.4679 58.6773 93.4316C58.1714 93.2029 57.6422 93.0483 57.1095 92.9061C57.0495 92.8925 56.9953 92.8605 56.9543 92.8146C56.9128 92.7684 56.8864 92.7107 56.8787 92.6491C56.8542 92.5428 56.8224 92.4383 56.7836 92.3363C56.7371 92.2078 56.7502 92.1077 56.8787 92.0336C57.1966 91.8522 57.5123 91.6686 57.8259 91.4798C57.9297 91.424 58.024 91.3528 58.1068 91.2694C58.2672 91.0908 58.482 91.0226 58.6874 90.9355C59.1839 90.7264 59.6818 90.5225 60.1761 90.3127C60.2184 90.2861 60.2564 90.253 60.2886 90.2147C60.2631 90.1795 60.2336 90.1474 60.2007 90.1189C59.591 89.7129 59.0559 89.2046 58.6192 88.6165C58.5931 88.5802 58.6048 88.5141 58.5975 88.4612C58.6449 88.4585 58.6924 88.4634 58.7382 88.4757C59.1469 88.6615 59.5511 88.8574 59.9605 89.0382C60.269 89.1746 60.5883 89.2857 60.8968 89.4229C61.2409 89.576 61.6016 89.7059 61.8672 89.9999C61.9962 90.1305 62.0072 90.3369 61.8926 90.4804L61.439 91.1162C61.4941 91.1301 61.5506 91.1374 61.6074 91.138C61.9224 91.1002 62.2367 91.0538 62.5524 91.0182C62.6141 91.0197 62.6758 91.0291 62.7339 91.0472C62.7201 91.1069 62.6986 91.1645 62.67 91.2185C62.4014 91.5916 62.0748 91.9182 61.7046 92.1861C61.6248 92.2427 61.6488 92.3051 61.6887 92.3697C61.8629 92.6412 62.048 92.9046 62.2069 93.1841C62.4639 93.637 62.7222 94.0906 62.9473 94.5602C63.1868 95.0589 63.4009 95.572 63.5976 96.0903C63.7478 96.4909 63.8618 96.9017 63.9772 97.3133C64.0846 97.6972 64.1833 98.0848 64.2639 98.4746C64.3408 98.852 64.3902 99.236 64.4497 99.617C64.4816 99.8231 64.5268 99.9485 64.7285 99.9557L65.0917 100.077ZM61.4579 99.805V99.8246H63.1839C63.4089 99.8246 63.4219 99.7977 63.3196 99.588C63.2637 99.4777 63.2165 99.3644 63.1672 99.2519C62.9963 98.8401 62.7471 98.4654 62.4334 98.1487C62.2926 98.0115 62.114 97.9063 61.918 97.915C61.6161 97.9288 61.32 98.0442 61.0463 98.1676C60.6206 98.3634 60.2513 98.6637 59.9728 99.0407C59.8286 99.2383 59.6962 99.4443 59.5765 99.6577C59.5236 99.7469 59.5585 99.8065 59.6768 99.8057C60.2684 99.8028 60.8627 99.805 61.4579 99.805ZM57.4688 99.8217V99.8152H58.3252C58.5052 99.8152 58.5248 99.7905 58.5466 99.6163C58.5669 99.4508 58.5945 99.2868 58.6206 99.122C58.6693 98.8172 58.7238 98.5123 58.7645 98.206C58.787 98.0347 58.7389 97.9992 58.5851 98.0601C58.3475 98.1453 58.1159 98.2464 57.8919 98.3628C57.3243 98.6843 56.8409 99.1031 56.5063 99.6787C56.4417 99.7934 56.4548 99.8188 56.5847 99.8195C56.8787 99.8246 57.1726 99.8217 57.4688 99.8217Z" fill="#4A4A4A"/>
<path d="M58.9414 90.5376C58.9549 90.5494 59.2003 90.7698 59.2108 90.7843L59.6208 90.6202C59.668 90.5612 59.6808 90.5424 59.6277 90.4886C59.5183 90.3676 59.3698 90.3141 59.2281 90.251C59.1011 90.1945 58.9695 90.1488 58.8425 90.0926C58.6739 90.0182 58.5074 89.9375 58.3392 89.861C58.3203 89.8559 58.3008 89.8539 58.2812 89.855C58.2843 89.8768 58.2794 89.904 58.2902 89.919C58.47 90.1612 58.6903 90.3705 58.9414 90.5376Z" fill="#222222"/>
<path d="M72.0581 97.5904H73.5081C74.1981 97.5904 74.7681 97.3604 75.2281 96.9004C75.6881 96.4404 75.9181 95.7904 75.9181 94.9304C75.9181 94.0704 75.6881 93.4104 75.2381 92.9404C74.7881 92.4804 74.2181 92.2404 73.5281 92.2404H72.0581V97.5904ZM73.5381 98.4604H71.0781V91.3704H73.5581C74.5081 91.3704 75.3081 91.6904 75.9581 92.3204C76.5981 92.9504 76.9281 93.8204 76.9281 94.9304C76.9281 96.0404 76.5981 96.9104 75.9481 97.5304C75.2881 98.1504 74.4881 98.4604 73.5381 98.4604ZM79.1054 98.4604H78.1754V93.6504H79.1054V98.4604ZM77.9654 91.8304C77.9654 91.6504 78.0254 91.4904 78.1554 91.3504C78.2854 91.2204 78.4454 91.1504 78.6354 91.1504C78.8154 91.1504 78.9754 91.2204 79.1154 91.3504C79.2454 91.4804 79.3154 91.6404 79.3154 91.8304C79.3154 92.0204 79.2454 92.1804 79.1154 92.3104C78.9754 92.4404 78.8154 92.5004 78.6354 92.5004C78.4454 92.5004 78.2854 92.4404 78.1554 92.3104C78.0254 92.1804 77.9654 92.0204 77.9654 91.8304ZM80.7047 98.9804V93.6504H81.6447V99.0204C81.6447 99.4604 81.5247 99.8204 81.2847 100.1C81.0447 100.38 80.7147 100.51 80.3147 100.51C80.0747 100.51 79.8947 100.49 79.7547 100.44V99.6504C79.8547 99.6704 79.9547 99.6804 80.0547 99.6804C80.4847 99.6804 80.7047 99.4504 80.7047 98.9804ZM80.4947 91.8104C80.4947 91.6304 80.5547 91.4704 80.6847 91.3304C80.8147 91.2004 80.9747 91.1304 81.1647 91.1304C81.3447 91.1304 81.5047 91.2004 81.6447 91.3304C81.7747 91.4604 81.8447 91.6204 81.8447 91.8104C81.8447 92.0004 81.7747 92.1604 81.6447 92.2904C81.5047 92.4204 81.3447 92.4804 81.1647 92.4804C80.9747 92.4804 80.8147 92.4204 80.6847 92.2904C80.5547 92.1604 80.4947 92.0004 80.4947 91.8104ZM83.8537 95.5604H86.4837C86.4637 95.2004 86.3437 94.9104 86.1237 94.6804C85.8937 94.4504 85.5737 94.3304 85.1637 94.3304C84.7837 94.3304 84.4837 94.4604 84.2437 94.7004C84.0037 94.9404 83.8737 95.2304 83.8537 95.5604ZM86.6237 96.8104L87.4337 97.0904C87.2937 97.5404 87.0337 97.9104 86.6537 98.1904C86.2737 98.4704 85.8137 98.6104 85.2737 98.6104C84.5937 98.6104 84.0237 98.3804 83.5537 97.9204C83.0837 97.4604 82.8537 96.8304 82.8537 96.0404C82.8537 95.3104 83.0737 94.7004 83.5337 94.2204C83.9837 93.7404 84.5237 93.5004 85.1537 93.5004C85.8737 93.5004 86.4437 93.7304 86.8537 94.1904C87.2537 94.6504 87.4637 95.2604 87.4637 96.0204C87.4637 96.1404 87.4537 96.2404 87.4437 96.3204H83.8237C83.8237 96.7504 83.9637 97.1004 84.2437 97.3704C84.5237 97.6504 84.8637 97.7804 85.2737 97.7804C85.9537 97.7804 86.4037 97.4604 86.6237 96.8104ZM89.9237 92.1304V93.6504H90.9637V94.5004H89.9237V97.0004C89.9237 97.2304 89.9737 97.4004 90.0737 97.5004C90.1737 97.6104 90.3537 97.6604 90.5937 97.6604C90.7337 97.6604 90.8537 97.6504 90.9637 97.6204V98.4204C90.8037 98.4804 90.5837 98.5104 90.3237 98.5104C89.9037 98.5104 89.5837 98.3904 89.3437 98.1504C89.1037 97.9104 88.9837 97.5804 88.9837 97.1404V94.5004H88.0637V93.6504H88.3237C88.5637 93.6504 88.7537 93.5904 88.8737 93.4504C88.9937 93.3104 89.0637 93.1304 89.0637 92.9104V92.1304H89.9237ZM92.7795 95.5604H95.4095C95.3895 95.2004 95.2695 94.9104 95.0495 94.6804C94.8195 94.4504 94.4995 94.3304 94.0895 94.3304C93.7095 94.3304 93.4095 94.4604 93.1695 94.7004C92.9295 94.9404 92.7995 95.2304 92.7795 95.5604ZM95.5495 96.8104L96.3595 97.0904C96.2195 97.5404 95.9595 97.9104 95.5795 98.1904C95.1995 98.4704 94.7395 98.6104 94.1995 98.6104C93.5195 98.6104 92.9495 98.3804 92.4795 97.9204C92.0095 97.4604 91.7795 96.8304 91.7795 96.0404C91.7795 95.3104 91.9995 94.7004 92.4595 94.2204C92.9095 93.7404 93.4495 93.5004 94.0795 93.5004C94.7995 93.5004 95.3695 93.7304 95.7795 94.1904C96.1795 94.6504 96.3895 95.2604 96.3895 96.0204C96.3895 96.1404 96.3795 96.2404 96.3695 96.3204H92.7495C92.7495 96.7504 92.8895 97.1004 93.1695 97.3704C93.4495 97.6504 93.7895 97.7804 94.1995 97.7804C94.8795 97.7804 95.3295 97.4604 95.5495 96.8104ZM96.8406 98.4604L98.6306 96.0104L96.9006 93.6504H98.0406L99.2206 95.3404L100.38 93.6504H101.49L99.7806 96.0104C99.8806 96.1404 100.17 96.5504 100.67 97.2304C101.16 97.9204 101.45 98.3304 101.55 98.4604H100.42L99.1806 96.6904L97.9606 98.4604H96.8406Z" fill="#4A4A4A"/>
<path d="M247.941 79.7463H310.101C313.218 79.7463 315.745 82.2731 315.745 85.3901V105.087C315.745 108.204 313.218 110.73 310.101 110.73H247.941C244.824 110.73 242.297 108.204 242.297 105.087V85.3901C242.297 82.2731 244.824 79.7463 247.941 79.7463Z" fill="white"/>
<path d="M247.941 79.7463H310.101C313.218 79.7463 315.745 82.2731 315.745 85.3901V105.087C315.745 108.204 313.218 110.73 310.101 110.73H247.941C244.824 110.73 242.297 108.204 242.297 105.087V85.3901C242.297 82.2731 244.824 79.7463 247.941 79.7463Z" stroke="url(#paint2_linear_8367_3650)" stroke-width="0.6"/>
<path d="M243.599 95.473C243.599 96.4401 242.815 97.224 241.848 97.224C240.881 97.224 240.097 96.4401 240.097 95.473C240.097 94.5058 240.881 93.7219 241.848 93.7219C242.815 93.7219 243.599 94.5058 243.599 95.473ZM241.848 95.8012H173.781V95.1447H241.848V95.8012Z" fill="url(#paint3_linear_8367_3650)"/>
<path d="M247.941 159.143H310.101C313.218 159.143 315.745 161.67 315.745 164.787V184.483C315.745 187.6 313.218 190.127 310.101 190.127H247.941C244.824 190.127 242.297 187.6 242.297 184.483V164.787C242.297 161.67 244.824 159.143 247.941 159.143Z" stroke="url(#paint4_linear_8367_3650)" stroke-width="0.6"/>
<mask id="mask0_8367_3650" style="mask-type:luminance" maskUnits="userSpaceOnUse" x="254" y="89" width="9" height="13">
<path d="M262.143 89.4287H254.141V101.048H262.143V89.4287Z" fill="white"/>
</mask>
<g mask="url(#mask0_8367_3650)">
<path d="M254.141 99.3491V93.5944L255.996 92.0168V97.7688L254.141 99.3491Z" fill="#4A4A4A"/>
<path d="M254.141 99.3491V93.5944L255.996 92.0168V97.7688L254.141 99.3491Z" fill="url(#paint5_linear_8367_3650)" fill-opacity="0.2"/>
<path d="M262.143 96.8525C261.538 97.367 260.928 97.8854 260.297 98.4216V92.6708C260.904 92.1535 261.529 91.6342 262.143 91.1108V96.8525Z" fill="#4A4A4A"/>
<path d="M262.143 96.8525C261.538 97.367 260.928 97.8854 260.297 98.4216V92.6708C260.904 92.1535 261.529 91.6342 262.143 91.1108V96.8525Z" fill="url(#paint6_linear_8367_3650)" fill-opacity="0.2"/>
<path d="M259.084 99.4554C258.464 99.9843 257.844 100.515 257.219 101.048V95.7383H259.084V99.4554Z" fill="#4A4A4A"/>
<path d="M259.084 99.4554C258.464 99.9843 257.844 100.515 257.219 101.048V95.7383H259.084V99.4554Z" fill="url(#paint7_linear_8367_3650)" fill-opacity="0.2"/>
<path d="M257.211 94.7174V90.9956L259.076 89.3899C259.079 91.0454 259.081 94.6966 259.081 94.6966L257.211 94.7174Z" fill="#4A4A4A"/>
<path d="M257.211 94.7174V90.9956L259.076 89.3899C259.079 91.0454 259.081 94.6966 259.081 94.6966L257.211 94.7174Z" fill="url(#paint8_linear_8367_3650)" fill-opacity="0.2"/>
</g>
<path d="M278.049 99.4287H277.069V96.2787H273.449V99.4287H272.469V92.3387H273.449V95.3687H277.069V92.3387H278.049V99.4287ZM281.812 98.7387C282.232 98.7387 282.582 98.5887 282.872 98.2887C283.162 97.9887 283.312 97.5587 283.312 97.0187C283.312 96.4887 283.162 96.0687 282.872 95.7687C282.582 95.4687 282.232 95.3087 281.812 95.3087C281.392 95.3087 281.032 95.4687 280.742 95.7687C280.452 96.0687 280.312 96.4887 280.312 97.0187C280.312 97.5587 280.452 97.9887 280.742 98.2887C281.032 98.5887 281.392 98.7387 281.812 98.7387ZM281.812 94.4687C282.522 94.4687 283.112 94.7187 283.572 95.1987C284.032 95.6787 284.272 96.2887 284.272 97.0187C284.272 97.7587 284.042 98.3787 283.582 98.8587C283.122 99.3387 282.532 99.5787 281.812 99.5787C281.092 99.5787 280.502 99.3387 280.042 98.8587C279.582 98.3787 279.352 97.7587 279.352 97.0187C279.352 96.2887 279.582 95.6787 280.042 95.1987C280.502 94.7187 281.092 94.4687 281.812 94.4687ZM288.145 94.5687V95.5687C288.005 95.5487 287.865 95.5387 287.735 95.5387C286.855 95.5387 286.415 96.0387 286.415 97.0187V99.4287H285.475V94.6187H286.395V95.4587C286.685 94.8487 287.165 94.5387 287.835 94.5387C287.935 94.5387 288.045 94.5487 288.145 94.5687ZM290.077 99.4287H289.147V94.6187H290.077V99.4287ZM288.937 92.7987C288.937 92.6187 288.997 92.4587 289.127 92.3187C289.257 92.1887 289.417 92.1187 289.607 92.1187C289.787 92.1187 289.947 92.1887 290.087 92.3187C290.217 92.4487 290.287 92.6087 290.287 92.7987C290.287 92.9887 290.217 93.1487 290.087 93.2787C289.947 93.4087 289.787 93.4687 289.607 93.4687C289.417 93.4687 289.257 93.4087 289.127 93.2787C288.997 93.1487 288.937 92.9887 288.937 92.7987ZM295.136 99.4287H291.276V98.6087L293.916 95.4687H291.316V94.6187H295.086V95.4387L292.446 98.5787H295.136V99.4287ZM298.394 98.7387C298.814 98.7387 299.164 98.5887 299.454 98.2887C299.744 97.9887 299.894 97.5587 299.894 97.0187C299.894 96.4887 299.744 96.0687 299.454 95.7687C299.164 95.4687 298.814 95.3087 298.394 95.3087C297.974 95.3087 297.614 95.4687 297.324 95.7687C297.034 96.0687 296.894 96.4887 296.894 97.0187C296.894 97.5587 297.034 97.9887 297.324 98.2887C297.614 98.5887 297.974 98.7387 298.394 98.7387ZM298.394 94.4687C299.104 94.4687 299.694 94.7187 300.154 95.1987C300.614 95.6787 300.854 96.2887 300.854 97.0187C300.854 97.7587 300.624 98.3787 300.164 98.8587C299.704 99.3387 299.114 99.5787 298.394 99.5787C297.674 99.5787 297.084 99.3387 296.624 98.8587C296.164 98.3787 295.934 97.7587 295.934 97.0187C295.934 96.2887 296.164 95.6787 296.624 95.1987C297.084 94.7187 297.674 94.4687 298.394 94.4687ZM302.997 96.6487V99.4287H302.057V94.6187H302.977V95.3087C303.297 94.7587 303.787 94.4787 304.457 94.4787C305.007 94.4787 305.427 94.6587 305.727 95.0087C306.027 95.3687 306.177 95.8187 306.177 96.3787V99.4287H305.237V96.5387C305.237 95.7387 304.857 95.3287 304.117 95.3287C303.757 95.3287 303.487 95.4587 303.287 95.7087C303.087 95.9587 302.997 96.2687 302.997 96.6487Z" fill="#4A4A4A"/>
<path d="M247.941 118.476H310.101C313.218 118.476 315.745 121.003 315.745 124.12V143.816C315.745 146.933 313.218 149.46 310.101 149.46H247.941C244.824 149.46 242.297 146.933 242.297 143.816V124.12C242.297 121.003 244.824 118.476 247.941 118.476Z" fill="white"/>
<path d="M247.941 118.476H310.101C313.218 118.476 315.745 121.003 315.745 124.12V143.816C315.745 146.933 313.218 149.46 310.101 149.46H247.941C244.824 149.46 242.297 146.933 242.297 143.816V124.12C242.297 121.003 244.824 118.476 247.941 118.476Z" stroke="url(#paint9_linear_8367_3650)" stroke-width="0.6"/>
<path d="M243.599 134.203C243.599 135.17 242.815 135.954 241.848 135.954C240.881 135.954 240.097 135.17 240.097 134.203C240.097 133.236 240.881 132.452 241.848 132.452C242.815 132.452 243.599 133.236 243.599 134.203ZM241.848 134.531H173.781V133.874H241.848V134.531Z" fill="url(#paint10_linear_8367_3650)"/>
<path d="M256.367 136.174L256.294 136.204C255.86 136.351 255.21 136.571 254.645 136.85C254.615 136.864 254.588 136.908 254.588 136.908C254.572 136.937 254.557 136.967 254.545 136.997C254.484 137.143 254.386 137.364 254.356 137.466L254.328 137.541C254.328 137.556 254.328 137.569 254.328 137.569L254.341 137.585H254.356L254.426 137.556C254.588 137.481 254.789 137.364 254.993 137.262H255.006C255.411 137.07 255.86 136.85 256.12 136.718C256.12 136.718 256.163 136.689 256.192 136.645L256.395 136.233C256.395 136.218 256.395 136.204 256.395 136.204C256.395 136.174 256.379 136.16 256.367 136.174Z" fill="#4A4A4A"/>
<path d="M258.255 138.555H257.422C256.376 138.538 255.464 138.513 254.094 138.552C254.023 138.554 253.953 138.576 253.953 138.576C253.913 138.592 253.875 138.609 253.843 138.626C253.811 138.643 253.689 138.673 253.689 138.673L253.284 138.943C253.283 138.953 253.281 138.962 253.281 138.962L253.31 138.976L253.346 138.981L253.515 138.98C253.907 138.972 254.396 138.946 254.891 138.932L254.922 138.935C255.904 138.914 256.792 138.874 257.422 138.854L258.079 138.816L258.838 138.745L260.432 138.557C260.435 138.536 258.285 138.55 258.255 138.555Z" fill="#4A4A4A"/>
<path d="M254.735 135.537C254.765 135.478 254.893 135.229 254.924 135.171V135.157C255.806 133.476 256.878 131.896 258.104 130.448L258.135 130.404C258.15 130.389 258.15 130.375 258.135 130.361C258.12 130.346 258.104 130.331 258.092 130.346H258.034C257.222 130.463 256.398 130.609 255.589 130.814C255.501 130.843 255.458 130.887 255.443 130.901C254.835 131.632 254.27 132.407 253.734 133.198C253.751 133.241 253.751 133.329 253.751 133.329C253.751 133.329 253.88 134.352 254.069 135.113C253.606 136.502 253.172 138.344 253.172 138.344C253.172 138.359 253.172 138.374 253.172 138.374C253.172 138.388 253.187 138.388 253.199 138.388H253.474C253.489 138.388 253.504 138.374 253.519 138.36L253.532 138.3C253.806 137.541 254.127 136.78 254.472 136.048C254.561 135.886 254.735 135.537 254.735 135.537Z" fill="#4A4A4A"/>
<path d="M258.547 130.786V130.727C258.547 130.713 258.532 130.697 258.519 130.684C258.504 130.684 258.488 130.684 258.474 130.697L258.445 130.741C256.983 132.411 255.773 134.27 254.812 136.259L254.781 136.302C254.781 136.317 254.781 136.331 254.781 136.347C254.793 136.36 254.793 136.36 254.812 136.36H254.824L254.868 136.347C255.684 136.012 256.518 135.722 257.349 135.475C257.392 135.461 257.438 135.432 257.466 135.389C257.832 134.692 258.676 133.326 258.676 133.326C258.708 133.282 258.694 133.239 258.694 133.239C258.694 133.239 258.547 131.612 258.547 130.786Z" fill="#4A4A4A"/>
<path d="M260.415 128.436C260.213 128.261 259.904 128.174 259.441 128.16C259.037 128.145 258.541 128.247 257.975 128.421C257.888 128.451 257.83 128.494 257.756 128.552C257.177 129.09 256.626 129.673 256.102 130.255L256.057 130.298C256.044 130.313 256.044 130.327 256.057 130.342C256.072 130.356 256.087 130.37 256.102 130.356L256.16 130.342C257.018 130.153 257.873 130.022 258.716 129.934C258.773 129.934 258.832 129.948 258.874 129.977C258.921 130.022 258.933 130.066 258.933 130.123C258.921 130.967 258.948 131.811 259.019 132.625V132.683C259.019 132.697 259.037 132.712 259.049 132.712C259.049 132.712 259.049 132.712 259.065 132.712C259.08 132.712 259.092 132.712 259.092 132.697L259.122 132.654C259.601 131.971 260.109 131.316 260.661 130.691C260.718 130.618 260.734 130.574 260.749 130.515C260.921 129.453 260.661 128.64 260.415 128.436Z" fill="#4A4A4A"/>
<path d="M275.543 138.308C274.573 138.308 273.743 137.978 273.053 137.308C272.363 136.648 272.023 135.748 272.023 134.608C272.023 133.848 272.193 133.188 272.543 132.608C272.883 132.038 273.323 131.618 273.853 131.338C274.373 131.058 274.943 130.918 275.543 130.918C276.343 130.918 277.013 131.128 277.563 131.528C278.113 131.928 278.483 132.478 278.663 133.168L277.753 133.488C277.613 132.958 277.363 132.548 276.983 132.258C276.603 131.968 276.123 131.818 275.543 131.818C274.843 131.818 274.253 132.068 273.763 132.558C273.263 133.048 273.023 133.728 273.023 134.608C273.023 135.488 273.263 136.178 273.763 136.668C274.253 137.168 274.843 137.408 275.543 137.408C276.123 137.408 276.603 137.258 276.993 136.948C277.373 136.638 277.643 136.228 277.803 135.708L278.673 136.028C278.473 136.718 278.103 137.268 277.553 137.688C277.003 138.108 276.333 138.308 275.543 138.308ZM282.396 133.298V134.298C282.256 134.278 282.116 134.268 281.986 134.268C281.106 134.268 280.666 134.768 280.666 135.748V138.158H279.726V133.348H280.646V134.188C280.936 133.578 281.416 133.268 282.086 133.268C282.186 133.268 282.296 133.278 282.396 133.298ZM283.959 135.258H286.589C286.569 134.898 286.449 134.608 286.229 134.378C285.999 134.148 285.679 134.028 285.269 134.028C284.889 134.028 284.589 134.158 284.349 134.398C284.109 134.638 283.979 134.928 283.959 135.258ZM286.729 136.508L287.539 136.788C287.399 137.238 287.139 137.608 286.759 137.888C286.379 138.168 285.919 138.308 285.379 138.308C284.699 138.308 284.129 138.078 283.659 137.618C283.189 137.158 282.959 136.528 282.959 135.738C282.959 135.008 283.179 134.398 283.639 133.918C284.089 133.438 284.629 133.198 285.259 133.198C285.979 133.198 286.549 133.428 286.959 133.888C287.359 134.348 287.569 134.958 287.569 135.718C287.569 135.838 287.559 135.938 287.549 136.018H283.929C283.929 136.448 284.069 136.798 284.349 137.068C284.629 137.348 284.969 137.478 285.379 137.478C286.059 137.478 286.509 137.158 286.729 136.508ZM289.379 135.258H292.009C291.989 134.898 291.869 134.608 291.649 134.378C291.419 134.148 291.099 134.028 290.689 134.028C290.309 134.028 290.009 134.158 289.769 134.398C289.529 134.638 289.399 134.928 289.379 135.258ZM292.149 136.508L292.959 136.788C292.819 137.238 292.559 137.608 292.179 137.888C291.799 138.168 291.339 138.308 290.799 138.308C290.119 138.308 289.549 138.078 289.079 137.618C288.609 137.158 288.379 136.528 288.379 135.738C288.379 135.008 288.599 134.398 289.059 133.918C289.509 133.438 290.049 133.198 290.679 133.198C291.399 133.198 291.969 133.428 292.379 133.888C292.779 134.348 292.989 134.958 292.989 135.718C292.989 135.838 292.979 135.938 292.969 136.018H289.349C289.349 136.448 289.489 136.798 289.769 137.068C290.049 137.348 290.389 137.478 290.799 137.478C291.479 137.478 291.929 137.158 292.149 136.508ZM294.749 135.738C294.749 136.248 294.869 136.658 295.119 136.978C295.369 137.298 295.719 137.458 296.159 137.458C296.579 137.458 296.909 137.298 297.169 136.968C297.419 136.648 297.549 136.228 297.549 135.718C297.549 135.218 297.419 134.818 297.179 134.508C296.929 134.208 296.589 134.048 296.169 134.048C295.739 134.048 295.399 134.208 295.139 134.518C294.879 134.838 294.749 135.238 294.749 135.738ZM297.559 137.508V137.428C297.429 137.678 297.239 137.888 296.979 138.048C296.719 138.208 296.419 138.288 296.069 138.288C295.379 138.288 294.829 138.048 294.409 137.568C293.989 137.088 293.789 136.478 293.789 135.738C293.789 135.038 293.999 134.448 294.429 133.958C294.849 133.468 295.399 133.218 296.069 133.218C296.459 133.218 296.779 133.298 297.029 133.458C297.269 133.618 297.439 133.808 297.539 134.028V130.918H298.469V137.268C298.469 137.598 298.479 137.898 298.519 138.158H297.609C297.569 137.978 297.559 137.758 297.559 137.508Z" fill="#4A4A4A"/>
<path d="M247.971 159.207H310.132C313.249 159.207 315.776 161.733 315.776 164.85V184.547C315.776 187.664 313.249 190.191 310.132 190.191H247.971C244.854 190.191 242.328 187.664 242.328 184.547V164.85C242.328 161.733 244.854 159.207 247.971 159.207Z" fill="white"/>
<path d="M242.525 172.698C242.525 173.768 241.698 174.635 240.679 174.635C239.66 174.635 238.834 173.768 238.834 172.698C238.834 171.629 239.66 170.762 240.679 170.762C241.698 170.762 242.525 171.629 242.525 172.698ZM240.679 173.061H168.938V172.335H240.679V173.061Z" fill="url(#paint11_linear_8367_3650)"/>
<path d="M255.79 177.886C255.79 177.801 255.791 177.716 255.791 177.631C255.791 177.538 255.79 177.444 255.789 177.35C255.787 177.115 255.785 176.879 255.796 176.641C255.806 176.38 255.728 176.406 255.545 176.51C255.066 176.782 254.586 177.048 254.106 177.315C253.867 177.448 253.627 177.581 253.387 177.715C253.064 177.892 252.819 177.851 252.688 177.595C252.574 177.37 252.683 177.147 252.996 176.975C253.059 176.939 253.121 176.9 253.183 176.862C253.322 176.776 253.46 176.689 253.611 176.636C254.018 176.479 254.143 176.223 254.122 175.786C254.121 175.757 254.12 175.729 254.119 175.702C254.086 174.878 254.086 174.866 253.298 174.488C253.147 174.414 253.027 174.425 252.892 174.518C252.754 174.61 252.615 174.7 252.477 174.79C252.339 174.879 252.201 174.969 252.063 175.061C251.761 175.259 251.536 175.248 251.38 175.025C251.223 174.795 251.302 174.555 251.604 174.352C251.885 174.164 252.167 173.981 252.459 173.809C252.6 173.721 252.668 173.622 252.657 173.45C252.642 173.163 252.647 172.877 252.657 172.59C252.662 172.449 252.621 172.345 252.501 172.266C252.204 172.068 251.912 171.865 251.625 171.651C251.505 171.562 251.416 171.583 251.307 171.672C251.286 171.689 251.265 171.706 251.245 171.723C251.052 171.884 250.856 172.046 250.644 172.183C250.368 172.36 250.259 172.584 250.29 172.918C250.311 173.163 250.378 173.153 250.545 173.054C250.816 172.892 251.087 172.735 251.364 172.595C251.64 172.459 251.938 172.626 251.969 172.913C251.995 173.158 251.839 173.293 251.646 173.403C251.275 173.606 250.905 173.815 250.535 174.029C250.233 174.201 250.175 174.748 250.451 174.967C250.659 175.137 250.87 175.302 251.082 175.466C251.254 175.6 251.425 175.734 251.594 175.869C251.692 175.947 251.771 175.942 251.875 175.885C252.204 175.686 252.537 175.499 252.871 175.316C253.147 175.17 253.45 175.29 253.512 175.572C253.564 175.801 253.45 175.958 253.257 176.067C253.015 176.208 252.771 176.345 252.527 176.484C252.371 176.572 252.214 176.661 252.057 176.75C251.839 176.876 251.776 177.819 251.979 177.97L252.026 178.001C252.167 178.085 252.309 178.167 252.451 178.249C252.593 178.331 252.736 178.414 252.876 178.497C253.012 178.581 253.126 178.581 253.262 178.497C253.663 178.257 254.07 178.028 254.482 177.798C254.711 177.668 254.957 177.725 255.076 177.918C255.201 178.127 255.134 178.388 254.904 178.523C254.777 178.602 254.647 178.675 254.516 178.749C254.465 178.778 254.413 178.807 254.362 178.836C254.134 178.965 254.022 179.027 254.02 179.091C254.019 179.156 254.131 179.223 254.352 179.368C254.55 179.493 254.696 179.498 254.889 179.368C255.123 179.206 255.379 179.07 255.634 178.935C255.754 178.867 255.796 178.784 255.796 178.648C255.788 178.394 255.789 178.14 255.79 177.886Z" fill="#4A4A4A"/>
<path d="M261.868 174.665C262.035 174.769 262.123 174.774 262.118 174.529C262.108 173.903 262.113 173.277 262.118 172.652C262.118 172.516 262.071 172.428 261.967 172.344C261.836 172.247 261.709 172.145 261.582 172.043C261.384 171.884 261.186 171.726 260.976 171.583C260.663 171.37 260.475 171.119 260.538 170.723C260.564 170.545 260.486 170.478 260.298 170.483C259.85 170.493 259.396 170.488 258.948 170.483C258.818 170.483 258.713 170.514 258.609 170.587C258.291 170.801 257.931 170.754 257.697 170.483C257.493 170.243 257.483 169.899 257.676 169.67C257.926 169.372 258.275 169.32 258.609 169.539C258.708 169.607 258.802 169.643 258.922 169.643C259.151 169.641 259.381 169.641 259.61 169.641C259.839 169.641 260.069 169.641 260.298 169.638C260.315 169.638 260.334 169.64 260.352 169.642C260.43 169.649 260.512 169.657 260.533 169.539C260.554 169.43 260.491 169.362 260.408 169.305C259.693 168.846 258.979 168.387 258.265 167.918C258.145 167.834 258.056 167.839 257.942 167.918C257.561 168.173 257.175 168.429 256.789 168.674C256.675 168.746 256.623 168.835 256.623 168.971C256.628 169.847 256.628 170.728 256.628 171.604C256.628 171.617 256.627 171.63 256.627 171.643C256.624 171.712 256.62 171.783 256.691 171.818C256.824 171.877 256.947 171.959 257.071 172.042C257.324 172.209 257.578 172.378 257.921 172.36C258.249 172.35 258.489 172.594 258.541 172.923C258.583 173.204 258.416 173.491 258.135 173.606C257.837 173.731 257.472 173.653 257.337 173.366C257.214 173.106 257.002 172.981 256.778 172.848L256.763 172.839C256.69 172.799 256.618 172.755 256.545 172.711C256.432 172.642 256.318 172.573 256.2 172.516C255.882 172.37 255.772 172.141 255.783 171.791C255.795 171.276 255.793 170.759 255.791 170.242C255.79 169.855 255.789 169.467 255.794 169.08C255.794 168.882 255.752 168.741 255.564 168.637C255.405 168.548 255.251 168.443 255.098 168.34C255.036 168.298 254.974 168.256 254.913 168.215C254.291 167.811 254.287 167.814 253.683 168.217L253.672 168.225C253.525 168.324 253.484 168.429 253.489 168.59C253.494 169.169 253.494 169.753 253.489 170.337C253.484 170.629 253.312 170.817 253.056 170.811C252.811 170.811 252.655 170.629 252.649 170.342V168.903C252.606 168.931 252.564 168.958 252.524 168.984C252.345 169.1 252.192 169.2 252.034 169.289C251.909 169.357 251.873 169.45 251.873 169.586C251.878 169.925 251.883 170.264 251.867 170.603C251.862 170.765 251.93 170.858 252.055 170.942C252.342 171.135 252.628 171.333 252.91 171.536C253.03 171.63 253.135 171.635 253.264 171.557C253.499 171.416 253.745 171.276 253.989 171.15C254.151 171.072 254.219 170.968 254.214 170.785C254.209 170.379 254.209 169.972 254.209 169.56C254.214 169.253 254.365 169.07 254.626 169.07C254.881 169.065 255.048 169.242 255.053 169.549C255.055 169.782 255.055 170.014 255.054 170.245C255.053 170.552 255.052 170.859 255.058 171.166C255.063 171.426 254.954 171.588 254.73 171.703C254.555 171.797 254.382 171.896 254.209 171.995C254.035 172.094 253.862 172.193 253.687 172.287C253.546 172.36 253.479 172.449 253.489 172.61C253.499 172.892 253.499 173.168 253.489 173.444C253.479 173.601 253.541 173.684 253.677 173.747C253.795 173.803 253.913 173.863 254.03 173.923C254.206 174.012 254.382 174.101 254.563 174.179C254.85 174.3 254.98 174.487 254.954 174.805C254.94 174.999 254.944 175.196 254.95 175.394C254.952 175.493 254.954 175.592 254.954 175.691C254.954 175.785 254.964 175.838 255.09 175.801C255.632 175.624 255.788 175.415 255.788 174.837C255.788 174.802 255.787 174.768 255.787 174.733C255.784 174.646 255.782 174.558 255.794 174.472C255.82 174.284 255.736 174.169 255.579 174.075C255.376 173.961 255.178 173.835 254.985 173.7C254.771 173.543 254.725 173.298 254.855 173.105C254.991 172.902 255.22 172.855 255.45 172.996C255.644 173.116 255.835 173.24 256.024 173.363C256.139 173.438 256.253 173.512 256.367 173.585C256.549 173.705 256.633 173.867 256.628 174.091C256.623 174.45 256.624 174.81 256.625 175.17C256.626 175.53 256.628 175.89 256.623 176.249C256.617 176.458 256.68 176.536 256.888 176.515C257.045 176.502 257.206 176.507 257.364 176.513C257.396 176.514 257.426 176.515 257.456 176.515C257.598 176.521 257.702 176.484 257.816 176.401C258.103 176.192 258.484 176.244 258.713 176.494C258.932 176.74 258.932 177.11 258.718 177.355C258.484 177.626 258.103 177.668 257.806 177.449C257.728 177.391 257.65 177.35 257.55 177.35C257.306 177.355 257.061 177.355 256.82 177.35C256.675 177.345 256.623 177.402 256.623 177.548C256.628 177.933 256.628 178.314 256.623 178.695C256.623 178.804 256.664 178.867 256.758 178.919C257.05 179.08 257.337 179.242 257.613 179.42C257.743 179.503 257.853 179.488 257.973 179.414C258.771 178.94 259.573 178.47 260.376 178.001C260.496 177.933 260.543 177.85 260.538 177.715C260.536 177.531 260.536 177.349 260.537 177.167C260.538 176.924 260.539 176.682 260.533 176.437C260.533 176.203 260.596 176.02 260.799 175.879C260.924 175.796 261.04 175.699 261.156 175.603C261.201 175.566 261.245 175.529 261.289 175.494C261.29 175.492 261.292 175.491 261.294 175.49C261.351 175.443 261.432 175.377 261.315 175.316C261.217 175.268 261.127 175.204 261.036 175.141C260.831 174.997 260.626 174.853 260.34 174.889C260.215 174.904 260.1 174.863 259.996 174.784C259.766 174.612 259.662 174.341 259.73 174.07C259.793 173.814 260.048 173.617 260.345 173.585C260.585 173.559 260.851 173.716 260.987 173.95C261.004 173.982 261.016 174.015 261.029 174.048C261.058 174.125 261.087 174.202 261.174 174.253C261.409 174.378 261.638 174.518 261.868 174.665Z" fill="#4A4A4A"/>
<path d="M277.107 177.857L275.487 174.957H274.427V177.857H273.438V170.767H276.107C276.757 170.767 277.277 170.977 277.677 171.377C278.077 171.777 278.277 172.277 278.277 172.877C278.277 173.397 278.118 173.837 277.818 174.197C277.508 174.557 277.087 174.787 276.557 174.887L278.247 177.857H277.107ZM274.427 174.077H275.927C276.327 174.077 276.647 173.977 276.897 173.757C277.137 173.537 277.267 173.247 277.267 172.877C277.267 172.507 277.137 172.207 276.897 171.987C276.647 171.767 276.327 171.647 275.927 171.647H274.427V174.077ZM281.393 177.167C281.813 177.167 282.163 177.017 282.453 176.717C282.743 176.417 282.893 175.987 282.893 175.447C282.893 174.917 282.743 174.497 282.453 174.197C282.163 173.897 281.813 173.737 281.393 173.737C280.973 173.737 280.613 173.897 280.323 174.197C280.033 174.497 279.893 174.917 279.893 175.447C279.893 175.987 280.033 176.417 280.323 176.717C280.613 177.017 280.973 177.167 281.393 177.167ZM281.393 172.897C282.103 172.897 282.694 173.147 283.154 173.627C283.614 174.107 283.853 174.717 283.853 175.447C283.853 176.187 283.623 176.807 283.163 177.287C282.703 177.767 282.113 178.007 281.393 178.007C280.673 178.007 280.084 177.767 279.624 177.287C279.164 176.807 278.934 176.187 278.934 175.447C278.934 174.717 279.164 174.107 279.624 173.627C280.084 173.147 280.673 172.897 281.393 172.897ZM284.706 178.117L285.616 177.907C285.646 178.247 285.786 178.537 286.026 178.757C286.266 178.977 286.566 179.087 286.926 179.087C287.906 179.087 288.396 178.567 288.396 177.527V176.837C288.276 177.077 288.086 177.267 287.826 177.407C287.566 177.557 287.266 177.627 286.926 177.627C286.286 177.627 285.756 177.417 285.336 176.977C284.916 176.537 284.715 175.977 284.715 175.297C284.715 174.637 284.916 174.087 285.336 173.637C285.746 173.187 286.276 172.957 286.926 172.957C287.656 172.957 288.145 173.217 288.405 173.717V173.047H289.336V177.497C289.336 177.817 289.286 178.117 289.206 178.397C289.126 178.677 288.995 178.927 288.815 179.157C288.635 179.397 288.376 179.577 288.056 179.707C287.736 179.847 287.356 179.907 286.926 179.907C286.326 179.907 285.825 179.747 285.415 179.407C284.995 179.067 284.766 178.637 284.706 178.117ZM287.065 176.837C287.465 176.837 287.796 176.697 288.056 176.417C288.306 176.137 288.435 175.757 288.435 175.297C288.435 174.837 288.306 174.467 288.056 174.187C287.796 173.907 287.465 173.757 287.065 173.757C286.645 173.757 286.316 173.897 286.056 174.177C285.796 174.457 285.676 174.837 285.676 175.297C285.676 175.777 285.796 176.147 286.046 176.427C286.296 176.707 286.635 176.837 287.065 176.837ZM293.958 177.277C293.828 177.517 293.639 177.707 293.379 177.827C293.119 177.947 292.838 178.007 292.538 178.007C291.988 178.007 291.548 177.827 291.228 177.467C290.898 177.107 290.738 176.637 290.738 176.077V173.047H291.678V175.937C291.678 176.297 291.759 176.597 291.939 176.827C292.119 177.067 292.388 177.177 292.768 177.177C293.138 177.177 293.418 177.067 293.618 176.847C293.808 176.627 293.909 176.327 293.909 175.947V173.047H294.849V176.967C294.849 177.287 294.858 177.577 294.898 177.857H293.999C293.969 177.717 293.958 177.517 293.958 177.277ZM297.013 174.957H299.643C299.623 174.597 299.504 174.307 299.284 174.077C299.054 173.847 298.733 173.727 298.323 173.727C297.943 173.727 297.644 173.857 297.404 174.097C297.164 174.337 297.033 174.627 297.013 174.957ZM299.784 176.207L300.594 176.487C300.454 176.937 300.194 177.307 299.814 177.587C299.434 177.867 298.974 178.007 298.434 178.007C297.754 178.007 297.184 177.777 296.714 177.317C296.244 176.857 296.013 176.227 296.013 175.437C296.013 174.707 296.234 174.097 296.694 173.617C297.144 173.137 297.684 172.897 298.314 172.897C299.034 172.897 299.603 173.127 300.013 173.587C300.413 174.047 300.624 174.657 300.624 175.417C300.624 175.537 300.613 175.637 300.603 175.717H296.983C296.983 176.147 297.124 176.497 297.404 176.767C297.684 177.047 298.024 177.177 298.434 177.177C299.114 177.177 299.564 176.857 299.784 176.207Z" fill="#4A4A4A"/>
<path d="M112.804 118.476H50.6438C47.5268 118.476 45 121.003 45 124.12V143.817C45 146.934 47.5268 149.46 50.6438 149.46H112.804C115.921 149.46 118.448 146.934 118.448 143.817V124.12C118.448 121.003 115.921 118.476 112.804 118.476Z" fill="white"/>
<path d="M112.804 118.476H50.6438C47.5268 118.476 45 121.003 45 124.12V143.817C45 146.934 47.5268 149.46 50.6438 149.46H112.804C115.921 149.46 118.448 146.934 118.448 143.817V124.12C118.448 121.003 115.921 118.476 112.804 118.476Z" stroke="url(#paint12_linear_8367_3650)" stroke-width="0.6"/>
<path d="M117.148 134.203C117.148 135.17 117.932 135.954 118.899 135.954C119.867 135.954 120.65 135.17 120.65 134.203C120.65 133.236 119.867 132.452 118.899 132.452C117.932 132.452 117.148 133.236 117.148 134.203ZM118.899 134.531H186.967V133.875H118.899V134.531Z" fill="url(#paint13_linear_8367_3650)"/>
<path d="M58.2026 129.128C59.0183 129.128 59.8341 129.13 60.6497 129.127C60.7353 129.126 60.7647 129.146 60.7645 129.237C60.7618 130.709 60.766 132.18 60.7615 133.652C60.7591 134.474 60.6405 135.277 60.3171 136.04C59.9401 136.93 59.3231 137.603 58.4764 138.065C57.7764 138.447 57.0194 138.647 56.2341 138.752C56.0694 138.773 55.9036 138.788 55.7385 138.808C55.6729 138.816 55.6482 138.795 55.6484 138.725C55.6507 138.127 55.6505 137.529 55.6487 136.931C55.6485 136.87 55.6709 136.849 55.7288 136.838C56.0689 136.771 56.4099 136.695 56.6971 136.491C57.2925 136.069 57.6741 135.515 57.7057 134.761C57.7117 134.617 57.7109 134.473 57.7201 134.329C57.7254 134.248 57.6949 134.227 57.6167 134.228C57.0026 134.23 56.3884 134.229 55.7742 134.229C55.6914 134.229 55.6499 134.187 55.6499 134.103C55.6499 132.487 55.65 130.872 55.65 129.256C55.6501 129.171 55.6916 129.129 55.7747 129.128C56.584 129.128 57.3933 129.128 58.2026 129.128Z" fill="#4A4A4A"/>
<path d="M68.6875 133.64C68.6875 133.07 68.7875 132.55 68.9875 132.07C69.1875 131.6 69.4575 131.21 69.7975 130.91C70.1375 130.61 70.5175 130.37 70.9375 130.2C71.3575 130.04 71.7875 129.95 72.2475 129.95C72.6975 129.95 73.1375 130.04 73.5575 130.2C73.9775 130.37 74.3475 130.61 74.6875 130.91C75.0275 131.21 75.2975 131.6 75.4975 132.07C75.6975 132.55 75.8075 133.07 75.8075 133.64C75.8075 134.7 75.4675 135.58 74.8075 136.26L75.6375 137.19L74.9675 137.78L74.1075 136.83C73.5475 137.17 72.9275 137.34 72.2475 137.34C71.6375 137.34 71.0675 137.2 70.5375 136.92C69.9975 136.64 69.5575 136.22 69.2075 135.64C68.8575 135.07 68.6875 134.4 68.6875 133.64ZM69.6875 133.64C69.6875 134.52 69.9375 135.21 70.4375 135.7C70.9375 136.2 71.5375 136.44 72.2475 136.44C72.6975 136.44 73.1075 136.34 73.4875 136.13L72.2575 134.75L72.9375 134.16L74.1775 135.56C74.5975 135.06 74.8075 134.42 74.8075 133.64C74.8075 132.76 74.5575 132.08 74.0575 131.59C73.5575 131.1 72.9475 130.85 72.2475 130.85C71.5375 130.85 70.9375 131.1 70.4375 131.59C69.9375 132.08 69.6875 132.76 69.6875 133.64ZM79.1151 136.5C79.5351 136.5 79.8851 136.35 80.1751 136.05C80.4651 135.75 80.6151 135.32 80.6151 134.78C80.6151 134.25 80.4651 133.83 80.1751 133.53C79.8851 133.23 79.5351 133.07 79.1151 133.07C78.6951 133.07 78.3351 133.23 78.0451 133.53C77.7551 133.83 77.6151 134.25 77.6151 134.78C77.6151 135.32 77.7551 135.75 78.0451 136.05C78.3351 136.35 78.6951 136.5 79.1151 136.5ZM79.1151 132.23C79.8251 132.23 80.4151 132.48 80.8751 132.96C81.3351 133.44 81.5751 134.05 81.5751 134.78C81.5751 135.52 81.3451 136.14 80.8851 136.62C80.4251 137.1 79.8351 137.34 79.1151 137.34C78.3951 137.34 77.8051 137.1 77.3451 136.62C76.8851 136.14 76.6551 135.52 76.6551 134.78C76.6551 134.05 76.8851 133.44 77.3451 132.96C77.8051 132.48 78.3951 132.23 79.1151 132.23ZM85.3901 132.38H86.3601L87.6101 136L88.6701 132.38H89.6601L88.1001 137.19H87.1301L85.8501 133.53L84.6001 137.19H83.6101L82.0301 132.38H83.0601L84.1401 136L85.3901 132.38ZM90.2609 135.9C90.2609 135.49 90.3909 135.16 90.6609 134.91C90.9209 134.66 91.2809 134.5 91.7209 134.44L93.0209 134.25C93.2609 134.22 93.3909 134.1 93.3909 133.89C93.3909 133.64 93.3009 133.43 93.1309 133.27C92.9509 133.11 92.6909 133.03 92.3509 133.03C92.0309 133.03 91.7709 133.12 91.5909 133.3C91.4009 133.48 91.2909 133.71 91.2609 134L90.3609 133.79C90.4009 133.33 90.6109 132.96 90.9909 132.67C91.3609 132.38 91.8109 132.23 92.3309 132.23C93.0109 132.23 93.5109 132.4 93.8409 132.73C94.1609 133.06 94.3309 133.48 94.3309 133.99V136.4C94.3309 136.69 94.3509 136.95 94.3909 137.19H93.4709C93.4309 136.99 93.4209 136.78 93.4209 136.54C93.2809 136.76 93.0909 136.94 92.8309 137.1C92.5709 137.26 92.2509 137.34 91.8709 137.34C91.3909 137.34 91.0109 137.2 90.7109 136.92C90.4109 136.64 90.2609 136.3 90.2609 135.9ZM92.0009 136.55C92.4209 136.55 92.7509 136.44 93.0109 136.21C93.2609 135.99 93.3909 135.63 93.3909 135.13V134.91L91.9209 135.13C91.7009 135.17 91.5309 135.24 91.4109 135.36C91.2809 135.48 91.2209 135.65 91.2209 135.85C91.2209 136.04 91.2909 136.2 91.4309 136.34C91.5709 136.48 91.7609 136.55 92.0009 136.55ZM96.7353 137.19H95.7953V129.95H96.7353V137.19ZM99.5944 130.86V132.38H100.634V133.23H99.5944V135.73C99.5944 135.96 99.6444 136.13 99.7444 136.23C99.8444 136.34 100.024 136.39 100.264 136.39C100.404 136.39 100.524 136.38 100.634 136.35V137.15C100.474 137.21 100.254 137.24 99.9944 137.24C99.5744 137.24 99.2544 137.12 99.0144 136.88C98.7744 136.64 98.6544 136.31 98.6544 135.87V133.23H97.7344V132.38H97.9944C98.2344 132.38 98.4244 132.32 98.5444 132.18C98.6644 132.04 98.7344 131.86 98.7344 131.64V130.86H99.5944ZM101.488 135.94L102.338 135.64C102.368 135.9 102.478 136.12 102.678 136.29C102.868 136.46 103.128 136.54 103.458 136.54C103.708 136.54 103.908 136.48 104.058 136.36C104.198 136.24 104.278 136.08 104.278 135.9C104.278 135.58 104.068 135.38 103.658 135.28L102.838 135.1C102.458 135.02 102.168 134.86 101.958 134.62C101.738 134.38 101.638 134.09 101.638 133.75C101.638 133.34 101.798 132.98 102.138 132.68C102.478 132.38 102.878 132.23 103.348 132.23C103.648 132.23 103.928 132.28 104.168 132.37C104.408 132.46 104.588 132.58 104.728 132.72C104.858 132.87 104.958 133.01 105.028 133.13C105.088 133.26 105.138 133.39 105.178 133.52L104.348 133.83C104.328 133.75 104.308 133.68 104.278 133.6C104.238 133.52 104.188 133.44 104.118 133.34C104.048 133.25 103.948 133.18 103.818 133.12C103.678 133.06 103.528 133.03 103.348 133.03C103.108 133.03 102.918 133.1 102.768 133.22C102.618 133.35 102.548 133.5 102.548 133.67C102.548 133.98 102.728 134.17 103.098 134.25L103.878 134.42C104.298 134.52 104.628 134.69 104.858 134.94C105.088 135.19 105.208 135.49 105.208 135.85C105.208 136.23 105.048 136.58 104.738 136.88C104.428 137.19 103.998 137.34 103.448 137.34C102.848 137.34 102.388 137.2 102.058 136.9C101.718 136.6 101.528 136.28 101.488 135.94Z" fill="#4A4A4A"/>
<path d="M112.804 157.207H50.6438C47.5268 157.207 45 159.733 45 162.85V182.547C45 185.664 47.5268 188.191 50.6438 188.191H112.804C115.921 188.191 118.448 185.664 118.448 182.547V162.85C118.448 159.733 115.921 157.207 112.804 157.207Z" fill="white"/>
<path d="M112.804 157.207H50.6438C47.5268 157.207 45 159.733 45 162.85V182.547C45 185.664 47.5268 188.191 50.6438 188.191H112.804C115.921 188.191 118.448 185.664 118.448 182.547V162.85C118.448 159.733 115.921 157.207 112.804 157.207Z" stroke="url(#paint14_linear_8367_3650)" stroke-width="0.6"/>
<path d="M117.148 172.933C117.148 173.9 117.932 174.684 118.899 174.684C119.867 174.684 120.65 173.9 120.65 172.933C120.65 171.966 119.867 171.182 118.899 171.182C117.932 171.182 117.148 171.966 117.148 172.933ZM118.899 173.261H186.967V172.605H118.899V173.261Z" fill="url(#paint15_linear_8367_3650)"/>
<path fill-rule="evenodd" clip-rule="evenodd" d="M57.8466 179.476C54.4486 177.783 52.7474 175.456 52.743 172.497C52.7419 171.928 52.7419 170.997 52.743 169.702L57.8466 167.857V179.476Z" fill="#222222"/>
<path fill-rule="evenodd" clip-rule="evenodd" d="M57.8466 179.476C54.4486 177.783 52.7474 175.456 52.743 172.497C52.7419 171.928 52.7419 170.997 52.743 169.702L57.8466 167.857V179.476Z" fill="#4A4A4A"/>
<path fill-rule="evenodd" clip-rule="evenodd" d="M57.8516 175.907V173.604L62.0472 169.388L62.9093 169.702L62.91 170.824L57.8516 175.907ZM57.8516 177.961L62.8988 172.889C62.751 175.663 61.0687 177.859 57.8516 179.476V177.961ZM57.8516 171.55V167.857L60.5477 168.841L57.8516 171.55Z" fill="#7A7A7A" fill-opacity="0.6"/>
<path d="M79.5566 177.857H78.5766V174.707H74.9566V177.857H73.9766V170.767H74.9566V173.797H78.5766V170.767H79.5566V177.857ZM80.9106 176.567C80.9106 176.157 81.0406 175.827 81.3106 175.577C81.5706 175.327 81.9306 175.167 82.3706 175.107L83.6706 174.917C83.9106 174.887 84.0406 174.767 84.0406 174.557C84.0406 174.307 83.9506 174.097 83.7806 173.937C83.6006 173.777 83.3406 173.697 83.0006 173.697C82.6806 173.697 82.4206 173.787 82.2406 173.967C82.0506 174.147 81.9406 174.377 81.9106 174.667L81.0106 174.457C81.0506 173.997 81.2606 173.627 81.6406 173.337C82.0106 173.047 82.4606 172.897 82.9806 172.897C83.6606 172.897 84.1606 173.067 84.4906 173.397C84.8106 173.727 84.9806 174.147 84.9806 174.657V177.067C84.9806 177.357 85.0006 177.617 85.0406 177.857H84.1206C84.0806 177.657 84.0706 177.447 84.0706 177.207C83.9306 177.427 83.7406 177.607 83.4806 177.767C83.2206 177.927 82.9006 178.007 82.5206 178.007C82.0406 178.007 81.6606 177.867 81.3606 177.587C81.0606 177.307 80.9106 176.967 80.9106 176.567ZM82.6506 177.217C83.0706 177.217 83.4006 177.107 83.6606 176.877C83.9106 176.657 84.0406 176.297 84.0406 175.797V175.577L82.5706 175.797C82.3506 175.837 82.1806 175.907 82.0606 176.027C81.9306 176.147 81.8706 176.317 81.8706 176.517C81.8706 176.707 81.9406 176.867 82.0806 177.007C82.2206 177.147 82.4106 177.217 82.6506 177.217ZM87.3849 177.857H86.4449V170.617H87.3849V177.857Z" fill="#4A4A4A"/>
<g filter="url(#filter0_d_8367_3650)">
<path d="M226.062 110.698C226.07 119.592 223.015 128.217 217.412 135.125C211.813 142.033 204.003 146.802 195.301 148.632C186.596 150.461 177.529 149.24 169.619 145.173C161.71 141.106 155.444 134.44 151.868 126.297C148.292 118.153 147.629 109.027 149.992 100.452C152.35 91.8777 157.591 84.3761 164.829 79.2086C172.068 74.0412 180.864 71.522 189.737 72.075C198.615 72.6279 207.032 76.2187 213.573 82.2446C217.507 85.8681 220.648 90.2669 222.796 95.1642C224.947 100.061 226.058 105.35 226.062 110.698Z" fill="#FBFBFB"/>
<path d="M226.062 110.695C225.791 117.998 223.376 125.061 219.12 131.003C214.864 136.944 208.952 141.503 202.127 144.11C195.297 146.717 187.852 147.258 180.718 145.665C173.587 144.073 167.08 140.417 162.007 135.153C156.937 129.889 153.525 123.25 152.204 116.062C150.878 108.874 151.696 101.455 154.558 94.7297C157.415 88.0036 162.192 82.2677 168.29 78.2363C174.387 74.2049 181.535 72.0558 188.842 72.0571C198.839 72.4311 208.302 76.6656 215.243 83.8707C222.184 91.0753 226.062 100.69 226.062 110.695Z" fill="white"/>
<path d="M213.571 82.2373L158.944 136.863C157.085 134.841 155.441 132.627 154.047 130.258L206.974 77.335C209.341 78.7301 211.553 80.3735 213.571 82.2373Z" fill="white" fill-opacity="0.53"/>
<path d="M223.393 96.5612L173.259 146.695C169.739 145.311 166.438 143.416 163.469 141.071L217.773 86.7703C220.114 89.7404 222.012 93.0398 223.393 96.5612Z" fill="white" fill-opacity="0.53"/>
<path d="M217.424 110.704C217.45 118.657 214.321 126.297 208.723 131.947C203.128 137.597 195.516 140.797 187.563 140.846C179.611 140.895 171.963 137.788 166.296 132.207C160.633 126.626 157.409 119.027 157.336 111.074V110.704C157.336 102.736 160.504 95.0945 166.137 89.4601C171.77 83.8258 179.412 80.6606 187.382 80.6606H187.752C195.658 80.7553 203.206 83.9622 208.761 89.5858C214.313 95.2098 217.428 102.797 217.428 110.702L217.424 110.704Z" fill="#F0F0F0" fill-opacity="0.88"/>
<path d="M208.658 89.4494L166.175 131.938C160.616 126.4 157.457 118.901 157.375 111.056V110.687C157.375 102.719 160.542 95.0778 166.175 89.4434C171.809 83.8095 179.451 80.6435 187.417 80.6431H187.787C195.628 80.7356 203.12 83.8968 208.658 89.4494Z" fill="#F9F9FA"/>
<path d="M170.727 101.028C170.787 101.092 170.899 101.151 170.907 101.221C170.985 101.906 171.415 102.366 171.932 102.734C176.708 106.112 181.489 109.488 186.279 112.841C187.441 113.652 188.358 113.605 189.498 112.801C192.11 110.966 194.718 109.128 197.326 107.285C198.802 106.24 199.878 104.881 200.441 103.16C200.639 102.56 200.712 101.921 200.799 101.528C200.799 103.027 200.906 104.765 200.768 106.483C200.596 108.6 199.529 110.346 197.825 111.604C194.985 113.698 192.093 115.718 189.192 117.734C188.254 118.39 187.256 118.218 186.331 117.619C185.384 117.004 184.446 116.377 183.525 115.725C179.712 113.023 175.908 110.307 172.1 107.601C171.445 107.137 170.929 106.589 170.813 105.76C170.817 104.414 170.821 103.067 170.817 101.72C170.817 101.618 170.757 101.516 170.727 101.414C170.727 101.285 170.727 101.157 170.727 101.028Z" fill="#E8ECEE"/>
<path d="M170.727 111.619C170.787 111.659 170.895 111.694 170.899 111.74C170.981 112.504 171.497 112.965 172.065 113.379C174.255 114.971 176.433 116.579 178.645 118.138C181.093 119.863 183.577 121.544 186.051 123.239C187.467 124.209 188.254 124.213 189.666 123.224C192.179 121.47 194.671 119.694 197.179 117.937C198.673 116.89 199.804 115.561 200.394 113.829C200.614 113.185 200.699 112.499 200.936 111.831C200.872 113.695 200.928 115.574 200.708 117.421C200.476 119.4 199.383 121.015 197.782 122.191C194.967 124.26 192.097 126.26 189.231 128.263C188.224 128.965 187.2 128.756 186.245 128.119C184.997 127.288 183.753 126.453 182.531 125.586C179.006 123.086 175.499 120.571 171.983 118.061C171.355 117.613 170.908 117.05 170.809 116.26C170.813 114.896 170.817 113.531 170.817 112.167C170.817 112.081 170.757 111.995 170.727 111.908C170.727 111.811 170.727 111.715 170.727 111.619Z" fill="#E8ECEE"/>
<path d="M177.688 100.517C177.77 100.424 177.808 100.352 177.872 100.309C179.392 99.2488 180.886 98.1472 182.444 97.1471C184.057 96.1117 185.839 95.5041 187.788 95.5071C189.604 95.5101 191.252 96.085 192.745 97.0782C193.463 97.5585 194.166 98.0887 194.807 98.6709C195.84 99.6116 195.948 101.288 195.126 102.414C194.941 102.666 194.751 102.682 194.506 102.522C194.17 102.299 193.839 102.071 193.499 101.857C190.052 99.6973 186.601 99.7205 183.154 101.86C182.607 102.201 182.065 102.55 181.505 102.872C181.394 102.937 181.183 102.962 181.084 102.899C180.008 102.188 178.949 101.458 177.882 100.729C177.822 100.685 177.774 100.614 177.688 100.517Z" fill="#E8ECEE"/>
<g filter="url(#filter1_f_8367_3650)">
<path d="M178.445 98.7446C178.527 98.6517 178.566 98.5798 178.63 98.5368C180.149 97.4769 181.643 96.3752 183.2 95.3751C184.814 94.3397 186.596 93.7321 188.545 93.7351C190.361 93.7381 192.009 94.3131 193.503 95.3063C194.221 95.7865 194.923 96.3167 195.564 96.8989C196.597 97.8396 196.704 99.5158 195.882 100.642C195.697 100.894 195.508 100.911 195.263 100.75C194.927 100.527 194.596 100.299 194.256 100.085C190.809 97.9253 187.357 97.9485 183.91 100.088C183.364 100.429 182.822 100.778 182.262 101.1C182.15 101.165 181.94 101.19 181.841 101.127C180.765 100.416 179.706 99.6858 178.639 98.9568C178.579 98.9133 178.531 98.8419 178.445 98.7446Z" fill="#CAEBFD" fill-opacity="0.31"/>
<path d="M172.125 99.6318C172.189 99.696 172.297 99.7549 172.306 99.8251C172.383 100.51 172.813 100.97 173.334 101.337C178.111 104.715 182.888 108.092 187.681 111.445C188.839 112.255 189.756 112.208 190.9 111.405C193.508 109.57 196.12 107.731 198.724 105.888C200.2 104.843 201.276 103.485 201.84 101.764C202.037 101.164 202.115 100.524 202.197 100.132C202.197 101.631 202.309 103.368 202.167 105.086C201.994 107.204 200.927 108.949 199.223 110.207C196.387 112.302 193.491 114.321 190.595 116.337C189.652 116.993 188.654 116.822 187.733 116.223C186.786 115.608 185.848 114.981 184.927 114.329C181.115 111.627 177.31 108.911 173.498 106.204C172.844 105.741 172.331 105.193 172.215 104.364C172.215 103.017 172.219 101.671 172.219 100.324C172.219 100.222 172.159 100.119 172.125 100.017C172.125 99.8892 172.125 99.7605 172.125 99.6318Z" fill="#CAEBFD" fill-opacity="0.31"/>
<path d="M172.125 110.238C172.185 110.278 172.293 110.313 172.297 110.359C172.383 111.123 172.895 111.583 173.463 111.997C175.654 113.59 177.831 115.198 180.043 116.757C182.496 118.482 184.979 120.163 187.449 121.858C188.865 122.828 189.652 122.832 191.068 121.843C193.577 120.089 196.069 118.313 198.577 116.556C200.075 115.509 201.207 114.18 201.792 112.448C202.012 111.804 202.102 111.118 202.334 110.45C202.27 112.314 202.326 114.193 202.111 116.04C201.874 118.019 200.785 119.634 199.184 120.81C196.366 122.879 193.495 124.879 190.629 126.882C189.627 127.584 188.602 127.375 187.643 126.738C186.395 125.907 185.151 125.071 183.929 124.205C180.409 121.705 176.897 119.19 173.381 116.68C172.753 116.232 172.306 115.669 172.207 114.879C172.211 113.515 172.22 112.151 172.215 110.786C172.215 110.7 172.159 110.613 172.125 110.527C172.125 110.43 172.125 110.334 172.125 110.238Z" fill="#CAEBFD" fill-opacity="0.31"/>
</g>
<path d="M178.445 98.7446C178.527 98.6517 178.566 98.5798 178.63 98.5368C180.149 97.4769 181.643 96.3752 183.2 95.3751C184.814 94.3397 186.596 93.7321 188.545 93.7351C190.361 93.7381 192.009 94.3131 193.503 95.3063C194.221 95.7865 194.923 96.3167 195.564 96.8989C196.597 97.8396 196.704 99.5158 195.882 100.642C195.697 100.894 195.508 100.911 195.263 100.75C194.927 100.527 194.596 100.299 194.256 100.085C190.809 97.9253 187.357 97.9485 183.91 100.088C183.364 100.429 182.822 100.778 182.262 101.1C182.15 101.165 181.94 101.19 181.841 101.127C180.765 100.416 179.706 99.6858 178.639 98.9568C178.579 98.9133 178.531 98.8419 178.445 98.7446Z" fill="white"/>
<path d="M172.125 99.6318C172.189 99.696 172.297 99.7549 172.306 99.8251C172.383 100.51 172.813 100.97 173.334 101.337C178.111 104.715 182.888 108.092 187.681 111.445C188.839 112.255 189.756 112.208 190.9 111.405C193.508 109.57 196.12 107.731 198.724 105.888C200.2 104.843 201.276 103.485 201.84 101.764C202.037 101.164 202.115 100.524 202.197 100.132C202.197 101.631 202.309 103.368 202.167 105.086C201.994 107.204 200.927 108.949 199.223 110.207C196.387 112.302 193.491 114.321 190.595 116.337C189.652 116.993 188.654 116.822 187.733 116.223C186.786 115.608 185.848 114.981 184.927 114.329C181.115 111.627 177.31 108.911 173.498 106.204C172.844 105.741 172.331 105.193 172.215 104.364C172.215 103.017 172.219 101.671 172.219 100.324C172.219 100.222 172.159 100.119 172.125 100.017C172.125 99.8892 172.125 99.7605 172.125 99.6318Z" fill="white"/>
<path d="M172.125 110.238C172.185 110.278 172.293 110.313 172.297 110.359C172.383 111.123 172.895 111.583 173.463 111.997C175.654 113.59 177.831 115.198 180.043 116.757C182.496 118.482 184.979 120.163 187.449 121.858C188.865 122.828 189.652 122.832 191.068 121.843C193.577 120.089 196.069 118.313 198.577 116.556C200.075 115.509 201.207 114.18 201.792 112.448C202.012 111.804 202.102 111.118 202.334 110.45C202.27 112.314 202.326 114.193 202.111 116.04C201.874 118.019 200.785 119.634 199.184 120.81C196.366 122.879 193.495 124.879 190.629 126.882C189.627 127.584 188.602 127.375 187.643 126.738C186.395 125.907 185.151 125.071 183.929 124.205C180.409 121.705 176.897 119.19 173.381 116.68C172.753 116.232 172.306 115.669 172.207 114.879C172.211 113.515 172.22 112.151 172.215 110.786C172.215 110.7 172.159 110.613 172.125 110.527C172.125 110.43 172.125 110.334 172.125 110.238Z" fill="white"/>
<path d="M218.469 110.729C218.469 114.685 217.711 118.603 216.241 122.257C214.776 125.912 212.619 129.233 209.906 132.03C207.193 134.827 203.969 137.046 200.423 138.56C196.877 140.074 193.075 140.854 189.235 140.854C188.683 140.854 188.13 140.838 187.586 140.806C195.043 140.373 202.052 137.015 207.185 131.422C212.314 125.83 215.169 118.426 215.169 110.73C215.169 103.035 212.314 95.6307 207.185 90.0376C202.052 84.445 195.043 81.0873 187.586 80.6537C188.13 80.6222 188.683 80.6067 189.235 80.6067C196.99 80.6067 204.425 83.7801 209.906 89.4292C215.387 95.0784 218.469 102.74 218.469 110.729Z" fill="#8B8B8B" fill-opacity="0.18"/>
</g>
<path fill-rule="evenodd" clip-rule="evenodd" d="M124.977 31.7749H118.669C116.196 31.7749 114.547 33.5449 114.547 36.0796V42.0229C114.547 44.5599 116.192 46.3276 118.669 46.3276H124.976C127.453 46.3276 129.099 44.5599 129.099 42.0229V36.0796C129.099 33.5427 127.453 31.7749 124.977 31.7749ZM118.669 32.8664H124.977C126.832 32.8664 128.008 34.1288 128.008 36.0796V42.0229C128.008 43.9738 126.832 45.2361 124.976 45.2361H118.669C116.813 45.2361 115.638 43.9739 115.638 42.0229V36.0796C115.638 34.1313 116.817 32.8664 118.669 32.8664Z" fill="#8094FF"/>
<path d="M120.257 35.9961L121.792 40.8208H121.851L123.389 35.9961H124.877L122.688 42.3464H120.958L118.766 35.9961H120.257Z" fill="#8094FF"/>
<path fill-rule="evenodd" clip-rule="evenodd" d="M133.456 27.065C133.546 27.1529 133.547 27.2968 133.459 27.3865L133.299 27.55C133.211 27.6397 133.067 27.6412 132.977 27.5533C132.888 27.4654 132.886 27.3215 132.974 27.2318L133.134 27.0682C133.222 26.9785 133.366 26.9771 133.456 27.065ZM132.655 27.8825C132.745 27.9704 132.746 28.1144 132.658 28.2041L132.338 28.5311C132.25 28.6208 132.106 28.6223 132.016 28.5344C131.927 28.4465 131.925 28.3025 132.013 28.2128L132.333 27.8858C132.421 27.7961 132.565 27.7946 132.655 27.8825ZM131.694 28.8636C131.783 28.9514 131.785 29.0954 131.697 29.1851L131.377 29.5121C131.289 29.6018 131.145 29.6033 131.055 29.5154C130.965 29.4275 130.964 29.2836 131.052 29.1939L131.372 28.8668C131.46 28.7771 131.604 28.7757 131.694 28.8636ZM130.732 29.8446C130.822 29.9325 130.824 30.0765 130.736 30.1662L130.415 30.4932C130.327 30.5829 130.184 30.5844 130.094 30.4965C130.004 30.4086 130.003 30.2646 130.091 30.1749L130.411 29.8479C130.499 29.7582 130.643 29.7567 130.732 29.8446ZM129.771 30.8257C129.861 30.9136 129.862 31.0575 129.775 31.1472L129.454 31.4742C129.366 31.5639 129.222 31.5654 129.133 31.4775C129.043 31.3896 129.041 31.2457 129.129 31.156L129.45 30.8289C129.538 30.7392 129.682 30.7378 129.771 30.8257ZM128.81 31.8067C128.9 31.8946 128.901 32.0386 128.813 32.1283L128.493 32.4553C128.405 32.545 128.261 32.5465 128.171 32.4586C128.082 32.3707 128.08 32.2267 128.168 32.137L128.488 31.81C128.576 31.7203 128.72 31.7188 128.81 31.8067ZM115.353 45.5414C115.443 45.6293 115.444 45.7733 115.356 45.863L115.036 46.19C114.948 46.2797 114.804 46.2812 114.714 46.1933C114.624 46.1054 114.623 45.9614 114.711 45.8717L115.031 45.5447C115.119 45.455 115.263 45.4535 115.353 45.5414ZM114.392 46.5225C114.481 46.6104 114.483 46.7543 114.395 46.844L114.075 47.1711C113.987 47.2608 113.843 47.2622 113.753 47.1743C113.663 47.0864 113.662 46.9425 113.75 46.8528L114.07 46.5258C114.158 46.4361 114.302 46.4346 114.392 46.5225ZM113.43 47.5035C113.52 47.5914 113.522 47.7354 113.434 47.8251L113.113 48.1521C113.025 48.2418 112.881 48.2433 112.792 48.1554C112.702 48.0675 112.701 47.9235 112.788 47.8338L113.109 47.5068C113.197 47.4171 113.341 47.4156 113.43 47.5035ZM112.469 48.4846C112.559 48.5725 112.56 48.7164 112.472 48.8061L112.152 49.1332C112.064 49.2229 111.92 49.2243 111.83 49.1364C111.741 49.0486 111.739 48.9046 111.827 48.8149L112.148 48.4879C112.236 48.3982 112.379 48.3967 112.469 48.4846ZM111.508 49.4656C111.598 49.5535 111.599 49.6975 111.511 49.7872L111.191 50.1142C111.103 50.2039 110.959 50.2054 110.869 50.1175C110.78 50.0296 110.778 49.8856 110.866 49.7959L111.186 49.4689C111.274 49.3792 111.418 49.3777 111.508 49.4656ZM110.547 50.4467C110.636 50.5346 110.638 50.6785 110.55 50.7682L110.39 50.9318C110.302 51.0215 110.158 51.0229 110.068 50.935C109.979 50.8471 109.977 50.7032 110.065 50.6135L110.225 50.45C110.313 50.3603 110.457 50.3588 110.547 50.4467Z" fill="#8094FF"/>
<path fill-rule="evenodd" clip-rule="evenodd" d="M168.018 27.065C168.108 27.1529 168.11 27.2968 168.022 27.3865L167.862 27.55C167.774 27.6397 167.63 27.6412 167.54 27.5533C167.45 27.4654 167.449 27.3215 167.537 27.2318L167.697 27.0682C167.785 26.9785 167.929 26.9771 168.018 27.065ZM167.217 27.8825C167.307 27.9704 167.309 28.1144 167.221 28.2041L166.9 28.5311C166.812 28.6208 166.668 28.6223 166.579 28.5344C166.489 28.4465 166.488 28.3025 166.575 28.2128L166.896 27.8858C166.984 27.7961 167.128 27.7946 167.217 27.8825ZM166.256 28.8636C166.346 28.9514 166.347 29.0954 166.26 29.1851L165.939 29.5121C165.851 29.6018 165.707 29.6033 165.618 29.5154C165.528 29.4275 165.526 29.2836 165.614 29.1939L165.935 28.8668C166.023 28.7771 166.167 28.7757 166.256 28.8636ZM165.295 29.8446C165.385 29.9325 165.386 30.0765 165.298 30.1662L164.978 30.4932C164.89 30.5829 164.746 30.5844 164.656 30.4965C164.567 30.4086 164.565 30.2646 164.653 30.1749L164.973 29.8479C165.061 29.7582 165.205 29.7567 165.295 29.8446ZM164.334 30.8257C164.423 30.9136 164.425 31.0575 164.337 31.1472L164.017 31.4742C163.929 31.5639 163.785 31.5654 163.695 31.4775C163.605 31.3896 163.604 31.2457 163.692 31.156L164.012 30.8289C164.1 30.7392 164.244 30.7378 164.334 30.8257ZM163.373 31.8067C163.462 31.8946 163.464 32.0386 163.376 32.1283L163.055 32.4553C162.968 32.545 162.824 32.5465 162.734 32.4586C162.644 32.3707 162.643 32.2267 162.731 32.137L163.051 31.81C163.139 31.7203 163.283 31.7188 163.373 31.8067ZM149.915 45.5414C150.005 45.6293 150.007 45.7733 149.919 45.863L149.598 46.19C149.51 46.2797 149.366 46.2812 149.277 46.1933C149.187 46.1054 149.186 45.9614 149.273 45.8717L149.594 45.5447C149.682 45.455 149.826 45.4535 149.915 45.5414ZM148.954 46.5225C149.044 46.6104 149.045 46.7543 148.957 46.844L148.637 47.1711C148.549 47.2608 148.405 47.2622 148.315 47.1743C148.226 47.0864 148.224 46.9425 148.312 46.8528L148.633 46.5258C148.72 46.4361 148.864 46.4346 148.954 46.5225ZM147.993 47.5035C148.083 47.5914 148.084 47.7354 147.996 47.8251L147.676 48.1521C147.588 48.2418 147.444 48.2433 147.354 48.1554C147.265 48.0675 147.263 47.9235 147.351 47.8338L147.671 47.5068C147.759 47.4171 147.903 47.4156 147.993 47.5035ZM147.032 48.4846C147.121 48.5725 147.123 48.7164 147.035 48.8061L146.715 49.1332C146.627 49.2229 146.483 49.2243 146.393 49.1364C146.303 49.0486 146.302 48.9046 146.39 48.8149L146.71 48.4879C146.798 48.3982 146.942 48.3967 147.032 48.4846ZM146.07 49.4656C146.16 49.5535 146.162 49.6975 146.074 49.7872L145.753 50.1142C145.665 50.2039 145.521 50.2054 145.432 50.1175C145.342 50.0296 145.341 49.8856 145.428 49.7959L145.749 49.4689C145.837 49.3792 145.981 49.3777 146.07 49.4656ZM145.109 50.4467C145.199 50.5346 145.2 50.6785 145.113 50.7682L144.952 50.9318C144.864 51.0215 144.72 51.0229 144.631 50.935C144.541 50.8471 144.54 50.7032 144.627 50.6135L144.788 50.45C144.876 50.3603 145.02 50.3588 145.109 50.4467Z" fill="#F5A938"/>
<path fill-rule="evenodd" clip-rule="evenodd" d="M159.539 31.7749H153.231C150.759 31.7749 149.109 33.5449 149.109 36.0796V42.0229C149.109 44.5599 150.755 46.3276 153.231 46.3276H159.539C162.016 46.3276 163.662 44.5599 163.662 42.0229V36.0796C163.662 33.5427 162.016 31.7749 159.539 31.7749ZM153.231 32.8664H159.539C161.395 32.8664 162.571 34.1288 162.571 36.0796V42.0229C162.571 43.9738 161.395 45.2361 159.539 45.2361H153.231C151.376 45.2361 150.201 43.9739 150.201 42.0229V36.0796C150.201 34.1313 151.38 32.8664 153.231 32.8664Z" fill="#F5A938"/>
<path d="M152.969 35.9961H154.624L156.373 40.2627H156.448L158.196 35.9961H159.852V42.3464H158.55V38.2131H158.497L156.854 42.3153H155.967L154.324 38.1976H154.271V42.3464H152.969V35.9961Z" fill="#F5A938"/>
<path fill-rule="evenodd" clip-rule="evenodd" d="M203.722 27.065C203.812 27.1529 203.813 27.2968 203.725 27.3865L203.565 27.55C203.477 27.6397 203.333 27.6412 203.243 27.5533C203.154 27.4654 203.152 27.3215 203.24 27.2318L203.4 27.0682C203.488 26.9785 203.632 26.9771 203.722 27.065ZM202.921 27.8825C203.011 27.9704 203.012 28.1144 202.924 28.2041L202.604 28.5311C202.516 28.6208 202.372 28.6223 202.282 28.5344C202.193 28.4465 202.191 28.3025 202.279 28.2128L202.599 27.8858C202.687 27.7961 202.831 27.7946 202.921 27.8825ZM201.96 28.8636C202.049 28.9514 202.051 29.0954 201.963 29.1851L201.643 29.5121C201.555 29.6018 201.411 29.6033 201.321 29.5154C201.231 29.4275 201.23 29.2836 201.318 29.1939L201.638 28.8668C201.726 28.7771 201.87 28.7757 201.96 28.8636ZM200.998 29.8446C201.088 29.9325 201.09 30.0765 201.002 30.1662L200.681 30.4932C200.593 30.5829 200.449 30.5844 200.36 30.4965C200.27 30.4086 200.269 30.2646 200.356 30.1749L200.677 29.8479C200.765 29.7582 200.909 29.7567 200.998 29.8446ZM200.037 30.8257C200.127 30.9136 200.128 31.0575 200.041 31.1472L199.72 31.4742C199.632 31.5639 199.488 31.5654 199.399 31.4775C199.309 31.3896 199.307 31.2457 199.395 31.156L199.716 30.8289C199.804 30.7392 199.948 30.7378 200.037 30.8257ZM199.076 31.8067C199.166 31.8946 199.167 32.0386 199.079 32.1283L198.759 32.4553C198.671 32.545 198.527 32.5465 198.437 32.4586C198.348 32.3707 198.346 32.2267 198.434 32.137L198.754 31.81C198.842 31.7203 198.986 31.7188 199.076 31.8067ZM185.619 45.5414C185.709 45.6293 185.71 45.7733 185.622 45.863L185.302 46.19C185.214 46.2797 185.07 46.2812 184.98 46.1933C184.89 46.1054 184.889 45.9614 184.977 45.8717L185.297 45.5447C185.385 45.455 185.529 45.4535 185.619 45.5414ZM184.658 46.5225C184.747 46.6104 184.749 46.7543 184.661 46.844L184.34 47.1711C184.253 47.2608 184.109 47.2622 184.019 47.1743C183.929 47.0864 183.928 46.9425 184.016 46.8528L184.336 46.5258C184.424 46.4361 184.568 46.4346 184.658 46.5225ZM183.696 47.5035C183.786 47.5914 183.788 47.7354 183.7 47.8251L183.379 48.1521C183.291 48.2418 183.147 48.2433 183.058 48.1554C182.968 48.0675 182.967 47.9235 183.054 47.8338L183.375 47.5068C183.463 47.4171 183.607 47.4156 183.696 47.5035ZM182.735 48.4846C182.825 48.5725 182.826 48.7164 182.738 48.8061L182.418 49.1332C182.33 49.2229 182.186 49.2243 182.096 49.1364C182.007 49.0486 182.005 48.9046 182.093 48.8149L182.414 48.4879C182.501 48.3982 182.645 48.3967 182.735 48.4846ZM181.774 49.4656C181.864 49.5535 181.865 49.6975 181.777 49.7872L181.457 50.1142C181.369 50.2039 181.225 50.2054 181.135 50.1175C181.046 50.0296 181.044 49.8856 181.132 49.7959L181.452 49.4689C181.54 49.3792 181.684 49.3777 181.774 49.4656ZM180.813 50.4467C180.902 50.5346 180.904 50.6785 180.816 50.7682L180.656 50.9318C180.568 51.0215 180.424 51.0229 180.334 50.935C180.245 50.8471 180.243 50.7032 180.331 50.6135L180.491 50.45C180.579 50.3603 180.723 50.3588 180.813 50.4467Z" fill="#33B57B"/>
<path fill-rule="evenodd" clip-rule="evenodd" d="M195.243 31.7749H188.935C186.463 31.7749 184.812 33.5449 184.812 36.0796V42.0229C184.812 44.5599 186.459 46.3276 188.935 46.3276H195.242C197.72 46.3276 199.366 44.5599 199.366 42.0229V36.0796C199.366 33.5427 197.72 31.7749 195.243 31.7749ZM188.935 32.8664H195.243C197.099 32.8664 198.273 34.1288 198.273 36.0796V42.0229C198.273 43.9738 197.099 45.2361 195.242 45.2361H188.935C187.079 45.2361 185.904 43.9739 185.904 42.0229V36.0796C185.904 34.1313 187.083 32.8664 188.935 32.8664Z" fill="#33B57B"/>
<path d="M193.461 36.1411H194.804V40.2651C194.804 40.7281 194.693 41.1333 194.472 41.4806C194.253 41.8278 193.946 42.0986 193.551 42.2929C193.156 42.4852 192.696 42.5813 192.171 42.5813C191.644 42.5813 191.183 42.4852 190.788 42.2929C190.393 42.0986 190.086 41.8278 189.867 41.4806C189.648 41.1333 189.539 40.7281 189.539 40.2651V36.1411H190.881V40.1503C190.881 40.3922 190.934 40.6072 191.039 40.7953C191.147 40.9834 191.298 41.1312 191.492 41.2387C191.686 41.3462 191.913 41.3999 192.171 41.3999C192.432 41.3999 192.658 41.3462 192.85 41.2387C193.044 41.1312 193.194 40.9834 193.3 40.7953C193.407 40.6072 193.461 40.3922 193.461 40.1503V36.1411Z" fill="#33B57B"/>
<path d="M216.925 46.0715C217.026 46.1683 217.028 46.3267 216.929 46.4255L216.57 46.7854C216.471 46.8841 216.31 46.8858 216.209 46.789C216.109 46.6923 216.107 46.5338 216.206 46.4351L216.565 46.0751C216.664 45.9764 216.825 45.9748 216.925 46.0715Z" fill="#D26464"/>
<path d="M215.847 47.1514C215.947 47.2481 215.949 47.4066 215.851 47.5053L215.491 47.8653C215.393 47.964 215.231 47.9656 215.131 47.8689C215.03 47.7721 215.029 47.6137 215.127 47.5149L215.486 47.155C215.585 47.0562 215.746 47.0546 215.847 47.1514Z" fill="#D26464"/>
<path d="M214.769 48.2312C214.87 48.328 214.871 48.4864 214.773 48.5852L214.414 48.9451C214.315 49.0439 214.154 49.0455 214.053 48.9487C213.953 48.852 213.951 48.6935 214.05 48.5948L214.409 48.2348C214.507 48.1361 214.669 48.1345 214.769 48.2312Z" fill="#D26464"/>
<path d="M213.691 49.311C213.791 49.4077 213.793 49.5662 213.694 49.6649L213.335 50.0249C213.237 50.1236 213.075 50.1252 212.975 50.0285C212.874 49.9318 212.872 49.7733 212.971 49.6746L213.33 49.3146C213.429 49.2159 213.59 49.2143 213.691 49.311Z" fill="#D26464"/>
<path d="M212.613 50.3909C212.714 50.4876 212.715 50.6461 212.617 50.7448L212.437 50.9248C212.338 51.0235 212.177 51.0251 212.077 50.9284C211.976 50.8316 211.974 50.6732 212.073 50.5744L212.252 50.3945C212.351 50.2957 212.512 50.2941 212.613 50.3909Z" fill="#D26464"/>
<path fill-rule="evenodd" clip-rule="evenodd" d="M245.923 27.0715C246.024 27.1683 246.026 27.3267 245.927 27.4255L245.748 27.6054C245.649 27.7042 245.488 27.7058 245.387 27.609C245.286 27.5123 245.285 27.3538 245.383 27.2551L245.563 27.0751C245.662 26.9764 245.823 26.9748 245.923 27.0715ZM245.025 27.9714C245.126 28.0681 245.128 28.2266 245.029 28.3253L244.67 28.6853C244.571 28.784 244.41 28.7856 244.309 28.6889C244.209 28.5922 244.207 28.4337 244.306 28.335L244.665 27.975C244.763 27.8763 244.925 27.8747 245.025 27.9714ZM243.948 29.0513C244.048 29.148 244.05 29.3065 243.951 29.4052L243.592 29.7652C243.494 29.8639 243.332 29.8655 243.232 29.7688C243.131 29.672 243.13 29.5136 243.228 29.4148L243.587 29.0549C243.686 28.9561 243.847 28.9545 243.948 29.0513ZM242.87 30.1311C242.971 30.2279 242.972 30.3863 242.874 30.4851L242.515 30.845C242.416 30.9438 242.255 30.9454 242.154 30.8486C242.054 30.7519 242.052 30.5934 242.15 30.4947L242.51 30.1347C242.608 30.036 242.77 30.0344 242.87 30.1311ZM241.793 31.211C241.893 31.3077 241.895 31.4662 241.796 31.5649L241.437 31.9249C241.338 32.0236 241.177 32.0252 241.077 31.9285C240.976 31.8317 240.974 31.6733 241.073 31.5745L241.432 31.2146C241.531 31.1159 241.692 31.1142 241.793 31.211Z" fill="#D26464"/>
<path fill-rule="evenodd" clip-rule="evenodd" d="M219.384 33.1717C218.087 33.1717 217.036 34.2681 217.036 35.6205V42.6538C217.036 44.0063 218.087 45.1027 219.384 45.1027H239.616C240.913 45.1027 241.964 44.0063 241.964 42.6538V35.6205C241.964 34.2681 240.913 33.1717 239.616 33.1717H219.384ZM216 35.6205C216 33.6713 217.515 32.0911 219.384 32.0911H239.616C241.485 32.0911 243 33.6713 243 35.6205V42.6538C243 44.6031 241.485 46.1833 239.616 46.1833H219.384C217.515 46.1833 216 44.6031 216 42.6538V35.6205Z" fill="#D26464"/>
<path d="M238.768 38.2194H237.482C237.459 38.046 237.411 37.8919 237.339 37.7572C237.266 37.6205 237.173 37.5042 237.06 37.4083C236.946 37.3124 236.815 37.239 236.667 37.188C236.52 37.137 236.36 37.1114 236.188 37.1114C235.877 37.1114 235.606 37.192 235.375 37.3532C235.144 37.5124 234.965 37.745 234.838 38.0511C234.711 38.3551 234.648 38.7244 234.648 39.159C234.648 39.6059 234.711 39.9813 234.838 40.2854C234.967 40.5894 235.147 40.8189 235.378 40.974C235.609 41.1291 235.876 41.2066 236.179 41.2066C236.35 41.2066 236.507 41.1832 236.652 41.1362C236.799 41.0893 236.929 41.0209 237.042 40.9312C237.156 40.8393 237.25 40.7281 237.324 40.5975C237.4 40.467 237.453 40.318 237.482 40.1507L238.768 40.1568C238.735 40.4445 238.651 40.722 238.518 40.9893C238.387 41.2546 238.21 41.4923 237.987 41.7024C237.766 41.9106 237.502 42.0758 237.195 42.1983C236.89 42.3187 236.544 42.3789 236.159 42.3789C235.623 42.3789 235.144 42.2523 234.721 41.9993C234.3 41.7463 233.968 41.3801 233.723 40.9006C233.481 40.421 233.359 39.8405 233.359 39.159C233.359 38.4755 233.482 37.894 233.729 37.4145C233.975 36.9349 234.31 36.5697 234.733 36.3187C235.155 36.0657 235.631 35.9392 236.159 35.9392C236.507 35.9392 236.83 35.9902 237.127 36.0922C237.427 36.1943 237.692 36.3432 237.923 36.5391C238.154 36.7329 238.341 36.9707 238.486 37.2522C238.633 37.5338 238.727 37.8562 238.768 38.2194Z" fill="#D26464"/>
<path d="M231.729 38.2194H230.443C230.42 38.046 230.372 37.8919 230.299 37.7572C230.227 37.6205 230.134 37.5042 230.021 37.4083C229.907 37.3124 229.776 37.239 229.627 37.188C229.481 37.137 229.321 37.1114 229.149 37.1114C228.838 37.1114 228.567 37.192 228.336 37.3532C228.105 37.5124 227.926 37.745 227.799 38.0511C227.672 38.3551 227.608 38.7244 227.608 39.159C227.608 39.6059 227.672 39.9813 227.799 40.2854C227.928 40.5894 228.108 40.8189 228.339 40.974C228.57 41.1291 228.837 41.2066 229.14 41.2066C229.31 41.2066 229.468 41.1832 229.613 41.1362C229.759 41.0893 229.889 41.0209 230.003 40.9312C230.116 40.8393 230.21 40.7281 230.285 40.5975C230.361 40.467 230.414 40.318 230.443 40.1507L231.729 40.1568C231.695 40.4445 231.612 40.722 231.479 40.9893C231.348 41.2546 231.171 41.4923 230.948 41.7024C230.727 41.9106 230.463 42.0758 230.156 42.1983C229.85 42.3187 229.505 42.3789 229.12 42.3789C228.584 42.3789 228.104 42.2523 227.682 41.9993C227.261 41.7463 226.928 41.3801 226.684 40.9006C226.441 40.421 226.32 39.8405 226.32 39.159C226.32 38.4755 226.443 37.894 226.69 37.4145C226.936 36.9349 227.271 36.5697 227.693 36.3187C228.116 36.0657 228.591 35.9392 229.12 35.9392C229.468 35.9392 229.791 35.9902 230.088 36.0922C230.387 36.1943 230.653 36.3432 230.883 36.5391C231.114 36.7329 231.302 36.9707 231.447 37.2522C231.594 37.5338 231.687 37.8562 231.729 38.2194Z" fill="#D26464"/>
<path d="M220.438 42.4055V36.1599H224.473V37.2486H221.704V38.7368H224.266V39.8255H221.704V41.3168H224.484V42.4055H220.438Z" fill="#D26464"/>
<g filter="url(#filter2_f_8367_3650)">
<path d="M203.602 75.6482C203.661 75.5806 203.69 75.5282 203.736 75.4969C204.843 74.725 205.931 73.9227 207.064 73.1944C208.24 72.4403 209.538 71.9978 210.957 72C212.279 72.0022 213.48 72.4209 214.568 73.1442C215.091 73.494 215.602 73.8801 216.069 74.3041C216.821 74.9892 216.899 76.2099 216.3 77.03C216.165 77.2135 216.028 77.2259 215.849 77.1087C215.605 76.9463 215.364 76.7802 215.116 76.6244C212.606 75.0516 210.092 75.0685 207.581 76.6266C207.184 76.8749 206.789 77.1291 206.381 77.3636C206.3 77.4109 206.147 77.4291 206.075 77.3832C205.291 76.8654 204.52 76.3337 203.743 75.8028C203.699 75.7711 203.664 75.7191 203.602 75.6482Z" fill="#CAEBFD"/>
<path d="M199 76.2942C199.047 76.3409 199.125 76.3838 199.132 76.435C199.188 76.9338 199.501 77.2687 199.88 77.536C203.359 79.9961 206.838 82.4554 210.329 84.8973C211.172 85.4872 211.84 85.4529 212.673 84.8681C214.572 83.5318 216.475 82.1925 218.371 80.8503C219.446 80.0893 220.229 79.1003 220.64 77.847C220.784 77.41 220.841 76.9439 220.9 76.6585C220.9 77.7501 220.982 79.0151 220.878 80.2663C220.752 81.8087 219.975 83.0795 218.734 83.9957C216.669 85.5214 214.56 86.9917 212.451 88.4599C211.764 88.9377 211.037 88.8131 210.367 88.3769C209.677 87.929 208.994 87.4724 208.323 86.9976C205.547 85.0298 202.776 83.0519 200 81.0805C199.524 80.7433 199.15 80.3442 199.066 79.7405C199.066 78.7595 199.068 77.7793 199.068 76.7983C199.068 76.724 199.025 76.649 199 76.5747C199 76.4816 199 76.3879 199 76.2942Z" fill="#CAEBFD"/>
<path d="M199 84.0183C199.044 84.0474 199.122 84.0729 199.125 84.1064C199.188 84.6628 199.561 84.9978 199.974 85.2993C201.57 86.4594 203.155 87.6305 204.766 88.7658C206.553 90.0221 208.361 91.2463 210.16 92.4807C211.191 93.1871 211.764 93.19 212.795 92.4698C214.623 91.1924 216.437 89.899 218.264 88.6195C219.355 87.857 220.179 86.8891 220.605 85.6278C220.765 85.1588 220.831 84.6592 221 84.1727C220.953 85.5302 220.994 86.8986 220.838 88.2437C220.665 89.6849 219.872 90.861 218.706 91.7175C216.654 93.2242 214.563 94.6808 212.476 96.1395C211.746 96.6507 211 96.4985 210.301 96.0346C209.392 95.4294 208.486 94.8206 207.596 94.1899C205.033 92.3693 202.475 90.5377 199.915 88.7098C199.457 88.3835 199.132 87.9735 199.06 87.3982C199.063 86.4048 199.069 85.4115 199.066 84.4174C199.066 84.3548 199.025 84.2914 199 84.2288C199 84.1581 199 84.0882 199 84.0183Z" fill="#CAEBFD"/>
</g>
<defs>
<filter id="filter0_d_8367_3650" x="137.602" y="69" width="93.4609" height="93.4602" filterUnits="userSpaceOnUse" color-interpolation-filters="sRGB">
<feFlood flood-opacity="0" result="BackgroundImageFix"/>
<feColorMatrix in="SourceAlpha" type="matrix" values="0 0 0 0 0 0 0 0 0 0 0 0 0 0 0 0 0 0 127 0" result="hardAlpha"/>
<feOffset dx="-3" dy="5"/>
<feGaussianBlur stdDeviation="4"/>
<feComposite in2="hardAlpha" operator="out"/>
<feColorMatrix type="matrix" values="0 0 0 0 0.494678 0 0 0 0 0.568357 0 0 0 0 0.621712 0 0 0 0.11 0"/>
<feBlend mode="normal" in2="BackgroundImageFix" result="effect1_dropShadow_8367_3650"/>
<feBlend mode="normal" in="SourceGraphic" in2="effect1_dropShadow_8367_3650" result="shape"/>
</filter>
<filter id="filter1_f_8367_3650" x="154.725" y="76.3351" width="65.0109" height="68.3854" filterUnits="userSpaceOnUse" color-interpolation-filters="sRGB">
<feFlood flood-opacity="0" result="BackgroundImageFix"/>
<feBlend mode="normal" in="SourceGraphic" in2="BackgroundImageFix" result="shape"/>
<feGaussianBlur stdDeviation="8.7" result="effect1_foregroundBlur_8367_3650"/>
</filter>
<filter id="filter2_f_8367_3650" x="159" y="32" width="102" height="104.459" filterUnits="userSpaceOnUse" color-interpolation-filters="sRGB">
<feFlood flood-opacity="0" result="BackgroundImageFix"/>
<feBlend mode="normal" in="SourceGraphic" in2="BackgroundImageFix" result="shape"/>
<feGaussianBlur stdDeviation="20" result="effect1_foregroundBlur_8367_3650"/>
</filter>
<linearGradient id="paint0_linear_8367_3650" x1="81.724" y1="80.1371" x2="81.724" y2="110.339" gradientUnits="userSpaceOnUse">
<stop stop-color="#EEEEEE"/>
<stop offset="1" stop-color="#DCDCDC" stop-opacity="0.49"/>
</linearGradient>
<linearGradient id="paint1_linear_8367_3650" x1="140.645" y1="94.9784" x2="166.83" y2="94.9784" gradientUnits="userSpaceOnUse">
<stop stop-color="#C4C4C4"/>
<stop offset="1" stop-color="#292929" stop-opacity="0"/>
</linearGradient>
<linearGradient id="paint2_linear_8367_3650" x1="279.021" y1="80.1373" x2="279.021" y2="110.339" gradientUnits="userSpaceOnUse">
<stop stop-color="#EEEEEE"/>
<stop offset="1" stop-color="#DCDCDC" stop-opacity="0.49"/>
</linearGradient>
<linearGradient id="paint3_linear_8367_3650" x1="222.312" y1="95.2383" x2="198.106" y2="95.2383" gradientUnits="userSpaceOnUse">
<stop stop-color="#C4C4C4"/>
<stop offset="1" stop-color="#292929" stop-opacity="0"/>
</linearGradient>
<linearGradient id="paint4_linear_8367_3650" x1="279.021" y1="159.534" x2="279.021" y2="189.736" gradientUnits="userSpaceOnUse">
<stop stop-color="#EEEEEE"/>
<stop offset="1" stop-color="#DCDCDC" stop-opacity="0.49"/>
</linearGradient>
<linearGradient id="paint5_linear_8367_3650" x1="256.291" y1="99.0725" x2="254.678" y2="97.885" gradientUnits="userSpaceOnUse">
<stop stop-color="white"/>
<stop offset="1" stop-opacity="0"/>
</linearGradient>
<linearGradient id="paint6_linear_8367_3650" x1="262.437" y1="98.1458" x2="260.83" y2="96.9642" gradientUnits="userSpaceOnUse">
<stop stop-color="white"/>
<stop offset="1" stop-opacity="0"/>
</linearGradient>
<linearGradient id="paint7_linear_8367_3650" x1="258.924" y1="91.7333" x2="262.361" y2="96.1322" gradientUnits="userSpaceOnUse">
<stop stop-color="#D0C8C8"/>
<stop offset="1" stop-opacity="0"/>
</linearGradient>
<linearGradient id="paint8_linear_8367_3650" x1="259.379" y1="94.5164" x2="258.152" y2="93.2628" gradientUnits="userSpaceOnUse">
<stop stop-color="white"/>
<stop offset="1" stop-opacity="0"/>
</linearGradient>
<linearGradient id="paint9_linear_8367_3650" x1="279.021" y1="118.867" x2="279.021" y2="149.069" gradientUnits="userSpaceOnUse">
<stop stop-color="#EEEEEE"/>
<stop offset="1" stop-color="#DCDCDC" stop-opacity="0.49"/>
</linearGradient>
<linearGradient id="paint10_linear_8367_3650" x1="222.312" y1="133.968" x2="198.106" y2="133.968" gradientUnits="userSpaceOnUse">
<stop stop-color="#C4C4C4"/>
<stop offset="1" stop-color="#292929" stop-opacity="0"/>
</linearGradient>
<linearGradient id="paint11_linear_8367_3650" x1="220.089" y1="172.439" x2="194.576" y2="172.439" gradientUnits="userSpaceOnUse">
<stop stop-color="#C4C4C4"/>
<stop offset="1" stop-color="#292929" stop-opacity="0"/>
</linearGradient>
<linearGradient id="paint12_linear_8367_3650" x1="81.724" y1="118.867" x2="81.724" y2="149.069" gradientUnits="userSpaceOnUse">
<stop stop-color="#EEEEEE"/>
<stop offset="1" stop-color="#DCDCDC" stop-opacity="0.49"/>
</linearGradient>
<linearGradient id="paint13_linear_8367_3650" x1="138.436" y1="133.968" x2="162.643" y2="133.968" gradientUnits="userSpaceOnUse">
<stop stop-color="#C4C4C4"/>
<stop offset="1" stop-color="#292929" stop-opacity="0"/>
</linearGradient>
<linearGradient id="paint14_linear_8367_3650" x1="81.724" y1="157.598" x2="81.724" y2="187.8" gradientUnits="userSpaceOnUse">
<stop stop-color="#EEEEEE"/>
<stop offset="1" stop-color="#DCDCDC" stop-opacity="0.49"/>
</linearGradient>
<linearGradient id="paint15_linear_8367_3650" x1="138.436" y1="172.698" x2="162.643" y2="172.698" gradientUnits="userSpaceOnUse">
<stop stop-color="#C4C4C4"/>
<stop offset="1" stop-color="#292929" stop-opacity="0"/>
</linearGradient>
</defs>
</svg>
