<svg width="156" height="31" viewBox="0 0 156 31" fill="none" xmlns="http://www.w3.org/2000/svg">
<g clip-path="url(#clip0_8442_347)">
<path d="M151 1H5C2.51472 1 0.5 3.01472 0.5 5.5V25.5C0.5 27.9853 2.51472 30 5 30H151C153.485 30 155.5 27.9853 155.5 25.5V5.5C155.5 3.01472 153.485 1 151 1Z" fill="#1C1C1C"/>
<path d="M151 1H5C2.51472 1 0.5 3.01472 0.5 5.5V25.5C0.5 27.9853 2.51472 30 5 30H151C153.485 30 155.5 27.9853 155.5 25.5V5.5C155.5 3.01472 153.485 1 151 1Z" stroke="#2E2E2E"/>
<path d="M143.584 14.1003V15.2803C143.444 15.2603 143.324 15.2503 143.204 15.2503C142.324 15.2503 141.894 15.7303 141.894 16.6803V19.0003H140.734V14.1303H141.864V14.9103C141.974 14.6503 142.154 14.4503 142.414 14.3003C142.664 14.1503 142.954 14.0703 143.274 14.0703C143.374 14.0703 143.484 14.0803 143.584 14.1003Z" fill="white"/>
<path d="M136.065 16.0305H138.455C138.435 15.7305 138.325 15.4705 138.125 15.2605C137.925 15.0605 137.635 14.9505 137.255 14.9505C136.905 14.9505 136.625 15.0605 136.415 15.2805C136.195 15.5005 136.085 15.7505 136.065 16.0305ZM138.585 17.3005L139.565 17.6105C139.425 18.0605 139.155 18.4305 138.775 18.7205C138.395 19.0105 137.925 19.1505 137.365 19.1505C136.665 19.1505 136.075 18.9205 135.595 18.4405C135.115 17.9705 134.875 17.3405 134.875 16.5405C134.875 15.8005 135.105 15.1805 135.575 14.7005C136.045 14.2205 136.605 13.9805 137.245 13.9805C137.985 13.9805 138.575 14.2105 138.995 14.6705C139.415 15.1305 139.625 15.7405 139.625 16.5105C139.625 16.7205 139.615 16.8405 139.595 16.8805H136.035C136.045 17.2505 136.175 17.5505 136.435 17.7905C136.695 18.0305 137.005 18.1505 137.365 18.1505C137.985 18.1505 138.395 17.8705 138.585 17.3005Z" fill="white"/>
<path d="M130.668 16.1417V19.0017H129.508V11.7617H130.668V14.6017C130.978 14.2017 131.438 13.9917 132.058 13.9917C132.628 13.9917 133.068 14.1717 133.378 14.5317C133.678 14.8917 133.838 15.3617 133.838 15.9217V19.0017H132.678V16.1217C132.678 15.8017 132.598 15.5417 132.438 15.3417C132.278 15.1417 132.018 15.0417 131.678 15.0417C131.368 15.0417 131.128 15.1517 130.948 15.3517C130.768 15.5617 130.678 15.8217 130.668 16.1417Z" fill="white"/>
<path d="M124.627 20.8995H123.477V14.1295H124.597V14.7895C124.717 14.5695 124.917 14.3895 125.197 14.2395C125.467 14.0995 125.787 14.0195 126.147 14.0195C126.847 14.0195 127.397 14.2595 127.797 14.7395C128.197 15.2195 128.397 15.8195 128.397 16.5595C128.397 17.2995 128.187 17.9195 127.767 18.3995C127.347 18.8795 126.787 19.1195 126.107 19.1195C125.767 19.1195 125.477 19.0595 125.217 18.9295C124.957 18.8095 124.757 18.6495 124.627 18.4495V20.8995ZM127.237 16.5595C127.237 16.1095 127.117 15.7495 126.877 15.4695C126.637 15.1895 126.317 15.0495 125.927 15.0495C125.537 15.0495 125.217 15.1895 124.977 15.4695C124.737 15.7495 124.617 16.1095 124.617 16.5595C124.617 17.0195 124.737 17.3895 124.977 17.6695C125.217 17.9495 125.537 18.0895 125.927 18.0895C126.307 18.0895 126.627 17.9495 126.867 17.6695C127.107 17.3895 127.237 17.0195 127.237 16.5595Z" fill="white"/>
<path d="M119.525 20.9689H118.285L119.455 18.4189L117.375 14.1289H118.685L120.085 17.2089L121.395 14.1289H122.625L119.525 20.9689Z" fill="white"/>
<path d="M114.836 15.0505C114.456 15.0505 114.146 15.1905 113.886 15.4605C113.626 15.7305 113.496 16.1005 113.496 16.5605C113.496 17.0405 113.626 17.4105 113.886 17.6805C114.146 17.9605 114.476 18.0905 114.856 18.0905C115.196 18.0905 115.466 18.0005 115.666 17.8205C115.866 17.6405 116.006 17.4305 116.076 17.1905L117.096 17.5605C116.956 18.0005 116.696 18.3705 116.316 18.6805C115.936 19.0005 115.446 19.1505 114.856 19.1505C114.136 19.1505 113.536 18.9105 113.056 18.4105C112.576 17.9205 112.336 17.3005 112.336 16.5605C112.336 15.8205 112.566 15.2005 113.046 14.7105C113.526 14.2305 114.116 13.9805 114.826 13.9805C115.426 13.9805 115.926 14.1405 116.306 14.4505C116.686 14.7705 116.936 15.1405 117.056 15.5805L116.016 15.9605C115.946 15.7105 115.816 15.5005 115.626 15.3205C115.436 15.1405 115.176 15.0505 114.836 15.0505Z" fill="white"/>
<path d="M108.049 16.0305H110.439C110.419 15.7305 110.309 15.4705 110.109 15.2605C109.909 15.0605 109.619 14.9505 109.239 14.9505C108.889 14.9505 108.609 15.0605 108.399 15.2805C108.179 15.5005 108.069 15.7505 108.049 16.0305ZM110.569 17.3005L111.549 17.6105C111.409 18.0605 111.139 18.4305 110.759 18.7205C110.379 19.0105 109.909 19.1505 109.349 19.1505C108.649 19.1505 108.059 18.9205 107.579 18.4405C107.099 17.9705 106.859 17.3405 106.859 16.5405C106.859 15.8005 107.089 15.1805 107.559 14.7005C108.029 14.2205 108.589 13.9805 109.229 13.9805C109.969 13.9805 110.559 14.2105 110.979 14.6705C111.399 15.1305 111.609 15.7405 111.609 16.5105C111.609 16.7205 111.599 16.8405 111.579 16.8805H108.019C108.029 17.2505 108.159 17.5505 108.419 17.7905C108.679 18.0305 108.989 18.1505 109.349 18.1505C109.969 18.1505 110.379 17.8705 110.569 17.3005Z" fill="white"/>
<path d="M101.302 17.9002H102.562C103.212 17.9002 103.752 17.7002 104.172 17.2802C104.592 16.8602 104.812 16.2602 104.812 15.4702C104.812 14.6802 104.602 14.0702 104.182 13.6502C103.762 13.2302 103.222 13.0102 102.572 13.0102H101.302V17.9002ZM102.602 19.0002H100.102V11.9102H102.612C103.612 11.9102 104.432 12.2302 105.082 12.8602C105.732 13.5002 106.062 14.3702 106.062 15.4702C106.062 16.5702 105.732 17.4402 105.082 18.0602C104.422 18.6902 103.602 19.0002 102.602 19.0002Z" fill="white"/>
<path d="M92.9334 16.1417V19.0017H91.7734V11.7617H92.9334V14.6017C93.2434 14.2017 93.7034 13.9917 94.3234 13.9917C94.8934 13.9917 95.3334 14.1717 95.6434 14.5317C95.9434 14.8917 96.1034 15.3617 96.1034 15.9217V19.0017H94.9434V16.1217C94.9434 15.8017 94.8634 15.5417 94.7034 15.3417C94.5434 15.1417 94.2834 15.0417 93.9434 15.0417C93.6334 15.0417 93.3934 15.1517 93.2134 15.3517C93.0334 15.5617 92.9434 15.8217 92.9334 16.1417Z" fill="white"/>
<path d="M89.7141 12.6406V14.1306H90.7241V15.1606H89.7141V17.4206C89.7141 17.6406 89.7641 17.7906 89.8641 17.8906C89.9641 17.9906 90.1141 18.0306 90.3341 18.0306C90.4641 18.0306 90.5941 18.0206 90.7341 17.9906V18.9506C90.5541 19.0306 90.3241 19.0606 90.0241 19.0606C89.5641 19.0606 89.2141 18.9406 88.9541 18.6806C88.6941 18.4206 88.5641 18.0706 88.5641 17.6106V15.1606H87.6641V14.1306H87.9141C88.1541 14.1306 88.3441 14.0606 88.4741 13.9206C88.5941 13.7806 88.6641 13.6006 88.6641 13.3706V12.6406H89.7141Z" fill="white"/>
<path d="M86.7441 19.0002H85.5941V14.1302H86.7441V19.0002ZM85.4141 12.4202C85.4141 12.2202 85.4841 12.0402 85.6341 11.8902C85.7741 11.7402 85.9541 11.6602 86.1641 11.6602C86.3741 11.6602 86.5541 11.7402 86.7041 11.8802C86.8441 12.0302 86.9241 12.2102 86.9241 12.4202C86.9241 12.6302 86.8441 12.8102 86.7041 12.9502C86.5541 13.1002 86.3741 13.1702 86.1641 13.1702C85.9541 13.1702 85.7741 13.1002 85.6341 12.9502C85.4841 12.8102 85.4141 12.6302 85.4141 12.4202Z" fill="white"/>
<path d="M80.2081 14.1289H81.4081L82.5581 17.4989L83.5281 14.1289H84.7081L83.1481 18.9989H81.9881L80.7781 15.4989L79.5981 18.9989H78.4081L76.8281 14.1289H78.0681L79.0581 17.4989L80.2081 14.1289Z" fill="white"/>
<path d="M72.7844 12.6406V14.1306H73.7944V15.1606H72.7844V17.4206C72.7844 17.6406 72.8344 17.7906 72.9344 17.8906C73.0344 17.9906 73.1844 18.0306 73.4044 18.0306C73.5344 18.0306 73.6644 18.0206 73.8044 17.9906V18.9506C73.6244 19.0306 73.3944 19.0606 73.0944 19.0606C72.6344 19.0606 72.2844 18.9406 72.0244 18.6806C71.7644 18.4206 71.6344 18.0706 71.6344 17.6106V15.1606H70.7344V14.1306H70.9844C71.2244 14.1306 71.4144 14.0606 71.5444 13.9206C71.6644 13.7806 71.7344 13.6006 71.7344 13.3706V12.6406H72.7844Z" fill="white"/>
<path d="M68.0312 15.0505C67.6512 15.0505 67.3412 15.1905 67.0812 15.4605C66.8212 15.7305 66.6912 16.1005 66.6912 16.5605C66.6912 17.0405 66.8212 17.4105 67.0812 17.6805C67.3412 17.9605 67.6712 18.0905 68.0512 18.0905C68.3912 18.0905 68.6613 18.0005 68.8612 17.8205C69.0613 17.6405 69.2012 17.4305 69.2712 17.1905L70.2913 17.5605C70.1513 18.0005 69.8912 18.3705 69.5112 18.6805C69.1312 19.0005 68.6412 19.1505 68.0512 19.1505C67.3312 19.1505 66.7312 18.9105 66.2512 18.4105C65.7712 17.9205 65.5312 17.3005 65.5312 16.5605C65.5312 15.8205 65.7612 15.2005 66.2412 14.7105C66.7212 14.2305 67.3112 13.9805 68.0212 13.9805C68.6212 13.9805 69.1212 14.1405 69.5012 14.4505C69.8812 14.7705 70.1312 15.1405 70.2512 15.5805L69.2112 15.9605C69.1412 15.7105 69.0112 15.5005 68.8212 15.3205C68.6312 15.1405 68.3712 15.0505 68.0312 15.0505Z" fill="white"/>
<path d="M61.2369 16.0305H63.6269C63.6069 15.7305 63.4969 15.4705 63.2969 15.2605C63.0969 15.0605 62.8069 14.9505 62.4269 14.9505C62.0769 14.9505 61.7969 15.0605 61.5869 15.2805C61.3669 15.5005 61.2569 15.7505 61.2369 16.0305ZM63.7569 17.3005L64.7369 17.6105C64.5969 18.0605 64.3269 18.4305 63.9469 18.7205C63.5669 19.0105 63.0969 19.1505 62.5369 19.1505C61.8369 19.1505 61.2469 18.9205 60.7669 18.4405C60.2869 17.9705 60.0469 17.3405 60.0469 16.5405C60.0469 15.8005 60.2769 15.1805 60.7469 14.7005C61.2169 14.2205 61.7769 13.9805 62.4169 13.9805C63.1569 13.9805 63.7469 14.2105 64.1669 14.6705C64.5869 15.1305 64.7969 15.7405 64.7969 16.5105C64.7969 16.7205 64.7869 16.8405 64.7669 16.8805H61.2069C61.2169 17.2505 61.3469 17.5505 61.6069 17.7905C61.8669 18.0305 62.1769 18.1505 62.5369 18.1505C63.1569 18.1505 63.5669 17.8705 63.7569 17.3005Z" fill="white"/>
<path d="M55.8475 16.1883V18.9983H54.6875V14.1283H55.8175V14.7783C55.9675 14.5183 56.1675 14.3183 56.4275 14.1883C56.6875 14.0583 56.9575 13.9883 57.2575 13.9883C57.8275 13.9883 58.2675 14.1683 58.5675 14.5283C58.8675 14.8883 59.0175 15.3583 59.0175 15.9183V18.9983H57.8575V16.1183C57.8575 15.7983 57.7775 15.5383 57.6175 15.3383C57.4575 15.1383 57.1975 15.0383 56.8575 15.0383C56.5375 15.0383 56.2875 15.1483 56.1075 15.3683C55.9275 15.5883 55.8475 15.8583 55.8475 16.1883Z" fill="white"/>
<path d="M50.1053 16.1883V18.9983H48.9453V14.1283H50.0753V14.7783C50.2253 14.5183 50.4253 14.3183 50.6853 14.1883C50.9453 14.0583 51.2153 13.9883 51.5153 13.9883C52.0853 13.9883 52.5253 14.1683 52.8253 14.5283C53.1253 14.8883 53.2753 15.3583 53.2753 15.9183V18.9983H52.1153V16.1183C52.1153 15.7983 52.0353 15.5383 51.8753 15.3383C51.7153 15.1383 51.4553 15.0383 51.1153 15.0383C50.7953 15.0383 50.5453 15.1483 50.3653 15.3683C50.1853 15.5883 50.1053 15.8583 50.1053 16.1883Z" fill="white"/>
<path d="M45.2934 18.1105C45.6734 18.1105 45.9934 17.9805 46.2534 17.7005C46.5134 17.4305 46.6534 17.0505 46.6534 16.5605C46.6534 16.0805 46.5134 15.7105 46.2534 15.4405C45.9934 15.1705 45.6734 15.0305 45.2934 15.0305C44.9134 15.0305 44.5834 15.1705 44.3234 15.4405C44.0634 15.7105 43.9334 16.0805 43.9334 16.5605C43.9334 17.0405 44.0634 17.4205 44.3234 17.7005C44.5834 17.9805 44.9134 18.1105 45.2934 18.1105ZM45.2934 13.9805C46.0234 13.9805 46.6234 14.2305 47.1034 14.7105C47.5834 15.2005 47.8234 15.8205 47.8234 16.5605C47.8234 17.3105 47.5834 17.9305 47.1034 18.4205C46.6234 18.9105 46.0234 19.1505 45.2934 19.1505C44.5634 19.1505 43.9634 18.9105 43.4834 18.4205C43.0034 17.9305 42.7734 17.3105 42.7734 16.5605C42.7734 15.8205 43.0034 15.2005 43.4834 14.7105C43.9634 14.2305 44.5634 13.9805 45.2934 13.9805Z" fill="white"/>
<path d="M39.0019 19.1517C38.0019 19.1517 37.1619 18.8217 36.4619 18.1417C35.7619 17.4717 35.4219 16.5817 35.4219 15.4617C35.4219 14.3617 35.7719 13.4617 36.4819 12.7817C37.1819 12.1017 38.0219 11.7617 38.9919 11.7617C39.8419 11.7617 40.5419 11.9817 41.0919 12.4117C41.6419 12.8517 42.0019 13.4017 42.1819 14.0617L41.0519 14.4417C40.9319 13.9817 40.7019 13.6117 40.3619 13.3217C40.0119 13.0417 39.5519 12.8917 38.9919 12.8917C38.3519 12.8917 37.8019 13.1217 37.3419 13.5717C36.8819 14.0217 36.6519 14.6517 36.6519 15.4617C36.6519 16.2617 36.8819 16.8817 37.3419 17.3317C37.8019 17.7817 38.3519 18.0017 39.0019 18.0017C39.5519 18.0017 40.0119 17.8517 40.3719 17.5517C40.7319 17.2517 40.9719 16.8817 41.1119 16.4417L42.2119 16.8017C42.0319 17.4617 41.6719 18.0217 41.1119 18.4717C40.5519 18.9317 39.8519 19.1517 39.0019 19.1517Z" fill="white"/>
<path d="M11 9.506C11 9.506 17.7673 9.489 20.9442 9.51225C22.8602 9.5265 24.3921 10.3257 25.606 11.8307C28.2118 15.0618 26.6916 20.356 22.1098 21.3602C21.5765 21.4773 21.0116 21.4717 20.4607 21.4803C19.731 21.4915 18.9893 21.5378 18.2732 21.4318C16.74 21.205 15.371 19.7231 15.329 18.1118C15.3197 17.765 15.4042 17.8053 15.1583 17.6688C14.0788 17.0697 13.148 15.6698 13.0095 14.4918C12.9603 14.0735 13.0505 13.9258 12.8438 13.8205C11.9485 13.0812 11.2045 11.671 11.1055 10.5475L11 9.506ZM16.746 18.0092C16.8657 19.108 17.686 20.1535 19.0282 20.1498H20.8935C22.669 20.1505 24.41 19.024 25.1375 17.2858C26.4103 14.2445 24.1868 10.8873 20.892 10.8835C20.0428 10.8825 19.1936 10.884 18.3442 10.8833C16.6635 10.8815 14.9828 10.879 13.302 10.877C13.0558 10.8765 12.8095 10.877 12.5555 10.877C12.702 11.984 13.4658 13.0153 14.8445 12.9917L20.8818 12.984C22.1448 12.986 23.2468 13.9563 23.3707 15.1665C23.5116 16.5416 22.6653 17.7105 21.3402 17.9608C21.157 17.9953 20.967 18.0067 20.7803 18.0072C19.444 18.0113 18.1075 18.0095 16.7463 18.0095L16.746 18.0092ZM14.3903 14.4185C14.3903 14.4185 14.7185 16.5722 16.6728 16.5643C16.6728 16.5643 20.5032 16.568 20.932 16.5475C21.3648 16.5268 21.6908 16.32 21.8705 15.9177C22.0375 15.544 21.9952 15.1875 21.746 14.859C21.477 14.505 21.0953 14.4285 20.6828 14.4275L14.3903 14.4185Z" fill="#00D395"/>
<path d="M11 9.506C11 9.506 17.7673 9.489 20.9442 9.51225C22.8602 9.5265 24.3921 10.3257 25.606 11.8307C28.2118 15.0618 26.6916 20.356 22.1098 21.3602C21.5765 21.4773 21.0116 21.4717 20.4607 21.4803C19.731 21.4915 18.9893 21.5378 18.2732 21.4318C16.74 21.205 15.371 19.7231 15.329 18.1118C15.3197 17.765 15.4042 17.8053 15.1583 17.6688C14.0788 17.0697 13.148 15.6698 13.0095 14.4918C12.9603 14.0735 13.0505 13.9258 12.8438 13.8205C11.9485 13.0812 11.2045 11.671 11.1055 10.5475L11 9.506ZM16.746 18.0092C16.8657 19.108 17.686 20.1535 19.0282 20.1498H20.8935C22.669 20.1505 24.41 19.024 25.1375 17.2858C26.4103 14.2445 24.1868 10.8873 20.892 10.8835C20.0428 10.8825 19.1936 10.884 18.3442 10.8833C16.6635 10.8815 14.9828 10.879 13.302 10.877C13.0558 10.8765 12.8095 10.877 12.5555 10.877C12.702 11.984 13.4658 13.0153 14.8445 12.9917L20.8818 12.984C22.1448 12.986 23.2468 13.9563 23.3707 15.1665C23.5116 16.5416 22.6653 17.7105 21.3402 17.9608C21.157 17.9953 20.967 18.0067 20.7803 18.0072C19.444 18.0113 18.1075 18.0095 16.7463 18.0095L16.746 18.0092ZM14.3903 14.4185C14.3903 14.4185 14.7185 16.5722 16.6728 16.5643C16.6728 16.5643 20.5032 16.568 20.932 16.5475C21.3648 16.5268 21.6908 16.32 21.8705 15.9177C22.0375 15.544 21.9952 15.1875 21.746 14.859C21.477 14.505 21.0953 14.4285 20.6828 14.4275L14.3903 14.4185Z" fill="url(#paint0_linear_8442_347)" fill-opacity="0.4"/>
</g>
<defs>
<linearGradient id="paint0_linear_8442_347" x1="10.3385" y1="9.45025" x2="11.011" y2="22.1595" gradientUnits="userSpaceOnUse">
<stop/>
<stop offset="0.956462" stop-color="#5B5151" stop-opacity="0.34"/>
</linearGradient>
<clipPath id="clip0_8442_347">
<rect width="156" height="31" fill="white"/>
</clipPath>
</defs>
</svg>
