<svg width="25" height="25" viewBox="0 0 25 25" fill="none" xmlns="http://www.w3.org/2000/svg">
<path d="M4.5 6.49023C4.53318 6.525 4.59135 6.55685 4.5956 6.59499C4.63693 6.96637 4.86301 7.21571 5.13772 7.4152C7.66029 9.24714 10.1834 11.0783 12.7151 12.8969C13.3266 13.3362 13.8115 13.3108 14.415 12.8752C15.7938 11.8799 17.1715 10.8829 18.5474 9.88335C19.3275 9.31652 19.8964 8.57969 20.194 7.6466C20.2978 7.32098 20.3377 6.97414 20.3814 6.76141C20.3814 7.57431 20.4401 8.51676 20.3664 9.44827C20.2755 10.5966 19.712 11.5436 18.8118 12.2255C17.3124 13.3614 15.7834 14.457 14.2536 15.5504C13.7562 15.9059 13.2292 15.8128 12.7419 15.4879C12.2422 15.1546 11.7464 14.8144 11.2604 14.4608C9.24641 12.9952 7.23741 11.5226 5.22502 10.0548C4.88025 9.80334 4.60794 9.50609 4.54663 9.0566C4.54807 8.32626 4.55062 7.59588 4.54877 6.86555C4.54862 6.81008 4.51699 6.75471 4.5 6.69934C4.5 6.62965 4.5 6.55997 4.5 6.49023Z" fill="white"/>
<path d="M4.50005 12.2344C4.53178 12.2563 4.5888 12.2753 4.59145 12.3003C4.63548 12.7144 4.90664 12.9644 5.20708 13.1888C6.36332 14.0523 7.51347 14.9246 8.68235 15.77C9.97647 16.7059 11.2874 17.6175 12.5933 18.5364C13.3415 19.0629 13.7567 19.0651 14.5038 18.5287C15.8291 17.5773 17.1462 16.6139 18.4707 15.6611C19.26 15.0933 19.8583 14.3726 20.1686 13.433C20.2838 13.0842 20.3305 12.7119 20.4549 12.3495C20.4207 13.3608 20.4502 14.3796 20.3351 15.3812C20.2118 16.4543 19.6356 17.3307 18.7898 17.9685C17.3018 19.0906 15.7862 20.1748 14.2727 21.2612C13.7422 21.642 13.2014 21.529 12.6955 21.1832C12.0367 20.7328 11.3792 20.2795 10.7339 19.8093C8.8739 18.454 7.02032 17.0894 5.1641 15.7287C4.83233 15.4855 4.5951 15.1802 4.54373 14.7518C4.54603 14.0118 4.54922 13.2718 4.54837 12.5319C4.54832 12.4851 4.51684 12.4382 4.5 12.3914C4.50005 12.339 4.50005 12.2867 4.50005 12.2344Z" fill="white"/>
<path d="M8.20312 6.21668C8.24625 6.16642 8.26849 6.12757 8.30133 6.10405C9.10395 5.52924 9.89244 4.93184 10.7156 4.38934C11.5675 3.82798 12.5082 3.49837 13.5373 3.50001C14.4965 3.50154 15.3666 3.81336 16.1555 4.35207C16.5368 4.6125 16.906 4.89993 17.2443 5.21569C17.7913 5.72608 17.8479 6.63504 17.4127 7.2461C17.3154 7.38266 17.2142 7.3915 17.0866 7.30428C16.9094 7.18326 16.7335 7.05995 16.5532 6.94394C14.7325 5.7724 12.9115 5.78502 11.0911 6.94548C10.8018 7.12989 10.5153 7.31931 10.2206 7.49416C10.1614 7.52928 10.0483 7.54314 9.99778 7.50889C9.42968 7.12345 8.86868 6.72707 8.30697 6.33187C8.27329 6.30825 8.24989 6.26944 8.20312 6.21668Z" fill="white"/>
<path d="M4.5 6.49023C4.53318 6.525 4.59135 6.55685 4.5956 6.59499C4.63693 6.96637 4.86301 7.21571 5.13772 7.4152C7.66029 9.24714 10.1834 11.0783 12.7151 12.8969C13.3266 13.3362 13.8115 13.3108 14.415 12.8752C15.7938 11.8799 17.1715 10.8829 18.5474 9.88335C19.3275 9.31652 19.8964 8.57969 20.194 7.6466C20.2978 7.32098 20.3377 6.97414 20.3814 6.76141C20.3814 7.57431 20.4401 8.51676 20.3664 9.44827C20.2755 10.5966 19.712 11.5436 18.8118 12.2255C17.3124 13.3614 15.7834 14.457 14.2536 15.5504C13.7562 15.9059 13.2292 15.8128 12.7419 15.4879C12.2422 15.1546 11.7464 14.8144 11.2604 14.4608C9.24641 12.9952 7.23741 11.5226 5.22502 10.0548C4.88025 9.80334 4.60794 9.50609 4.54663 9.0566C4.54807 8.32626 4.55062 7.59588 4.54877 6.86555C4.54862 6.81008 4.51699 6.75471 4.5 6.69934C4.5 6.62965 4.5 6.55997 4.5 6.49023Z" fill="url(#paint0_linear_8256_7751)"/>
<path d="M4.50005 12.2344C4.53178 12.2563 4.5888 12.2753 4.59145 12.3003C4.63548 12.7144 4.90664 12.9644 5.20708 13.1888C6.36332 14.0523 7.51347 14.9246 8.68235 15.77C9.97647 16.7059 11.2874 17.6175 12.5933 18.5364C13.3415 19.0629 13.7567 19.0651 14.5038 18.5287C15.8291 17.5773 17.1462 16.6139 18.4707 15.6611C19.26 15.0933 19.8583 14.3726 20.1686 13.433C20.2838 13.0842 20.3305 12.7119 20.4549 12.3495C20.4207 13.3608 20.4502 14.3796 20.3351 15.3812C20.2118 16.4543 19.6356 17.3307 18.7898 17.9685C17.3018 19.0906 15.7862 20.1748 14.2727 21.2612C13.7422 21.642 13.2014 21.529 12.6955 21.1832C12.0367 20.7328 11.3792 20.2795 10.7339 19.8093C8.8739 18.454 7.02032 17.0894 5.1641 15.7287C4.83233 15.4855 4.5951 15.1802 4.54373 14.7518C4.54603 14.0118 4.54922 13.2718 4.54837 12.5319C4.54832 12.4851 4.51684 12.4382 4.5 12.3914C4.50005 12.339 4.50005 12.2867 4.50005 12.2344Z" fill="url(#paint1_linear_8256_7751)"/>
<path d="M8.20312 6.21668C8.24625 6.16642 8.26849 6.12757 8.30133 6.10405C9.10395 5.52924 9.89244 4.93184 10.7156 4.38934C11.5675 3.82798 12.5082 3.49837 13.5373 3.50001C14.4965 3.50154 15.3666 3.81336 16.1555 4.35207C16.5368 4.6125 16.906 4.89993 17.2443 5.21569C17.7913 5.72608 17.8479 6.63504 17.4127 7.2461C17.3154 7.38266 17.2142 7.3915 17.0866 7.30428C16.9094 7.18326 16.7335 7.05995 16.5532 6.94394C14.7325 5.7724 12.9115 5.78502 11.0911 6.94548C10.8018 7.12989 10.5153 7.31931 10.2206 7.49416C10.1614 7.52928 10.0483 7.54314 9.99778 7.50889C9.42968 7.12345 8.86868 6.72707 8.30697 6.33187C8.27329 6.30825 8.24989 6.26944 8.20312 6.21668Z" fill="url(#paint2_linear_8256_7751)"/>
<defs>
<linearGradient id="paint0_linear_8256_7751" x1="4.5" y1="38.6747" x2="9.15509" y2="-2.79016" gradientUnits="userSpaceOnUse">
<stop/>
<stop offset="1" stop-opacity="0"/>
</linearGradient>
<linearGradient id="paint1_linear_8256_7751" x1="4.5" y1="44.341" x2="9.11831" y2="2.97067" gradientUnits="userSpaceOnUse">
<stop/>
<stop offset="1" stop-opacity="0"/>
</linearGradient>
<linearGradient id="paint2_linear_8256_7751" x1="8.20313" y1="17.4607" x2="9.67833" y2="-0.631985" gradientUnits="userSpaceOnUse">
<stop/>
<stop offset="1" stop-opacity="0"/>
</linearGradient>
</defs>
</svg>
