<svg width="32" height="32" viewBox="0 0 32 32" fill="none" xmlns="http://www.w3.org/2000/svg">
<path d="M26 0H6C2.68629 0 0 2.68629 0 6V26C0 29.3137 2.68629 32 6 32H26C29.3137 32 32 29.3137 32 26V6C32 2.68629 29.3137 0 26 0Z" fill="#696969" fill-opacity="0.17"/>
<path d="M9 11.6719C9.02701 11.6994 9.07442 11.7247 9.0779 11.755C9.11158 12.0497 9.29579 12.2475 9.51962 12.4058C11.575 13.8594 13.6308 15.3123 15.6937 16.7553C16.1919 17.1038 16.587 17.0837 17.0788 16.738C18.2022 15.9483 19.3248 15.1573 20.4458 14.3641C21.0814 13.9144 21.545 13.3298 21.7874 12.5894C21.8721 12.331 21.9046 12.0558 21.9401 11.887C21.9401 12.532 21.988 13.2798 21.9279 14.0189C21.8539 14.9301 21.3947 15.6815 20.6612 16.2226C19.4395 17.1238 18.1937 17.9932 16.9473 18.8606C16.5419 19.1427 16.1125 19.0689 15.7155 18.8111C15.3083 18.5466 14.9043 18.2767 14.5083 17.9961C12.8674 16.8333 11.2305 15.6648 9.59074 14.5002C9.30985 14.3006 9.08793 14.0648 9.038 13.7082C9.03917 13.1287 9.04125 12.5492 9.03973 11.9697C9.03962 11.9256 9.01384 11.8817 9 11.8378C9 11.7825 9 11.7272 9 11.6719Z" fill="#3ABF83"/>
<path d="M9.00006 16.2314C9.02589 16.2487 9.07235 16.2638 9.07454 16.2836C9.1104 16.6122 9.33132 16.8106 9.57611 16.9887C10.5182 17.6738 11.4554 18.3659 12.4078 19.0367C13.4622 19.7792 14.5304 20.5027 15.5944 21.2317C16.2041 21.6494 16.5423 21.6512 17.1511 21.2256C18.231 20.4707 19.3041 19.7063 20.3833 18.9504C21.0264 18.4998 21.5139 17.9279 21.7668 17.1824C21.8606 16.9056 21.8987 16.6102 22 16.3227C21.9721 17.1251 21.9962 17.9335 21.9024 18.7282C21.8019 19.5797 21.3325 20.275 20.6433 20.7811C19.4309 21.6714 18.196 22.5317 16.9628 23.3936C16.5306 23.6958 16.0899 23.6061 15.6777 23.3318C15.1409 22.9744 14.6052 22.6148 14.0794 22.2417C12.5639 21.1663 11.0535 20.0836 9.54108 19.0039C9.27079 18.811 9.07751 18.5688 9.03564 18.2288C9.03749 17.6417 9.04013 17.0545 9.0394 16.4674C9.0394 16.4302 9.01373 16.3931 9 16.356C9.00006 16.3144 9.00006 16.2729 9.00006 16.2314Z" fill="#3ABF83"/>
<path d="M12.0063 11.4553C12.0415 11.4155 12.0596 11.3846 12.0864 11.366C12.7404 10.9099 13.3828 10.4359 14.0536 10.0054C14.7476 9.56007 15.5141 9.29852 16.3526 9.29981C17.1342 9.30104 17.8432 9.54847 18.4859 9.9759C18.7966 10.1825 19.0974 10.4106 19.3731 10.6611C19.8188 11.0661 19.8649 11.7873 19.5103 12.2722C19.4311 12.3805 19.3486 12.3875 19.2446 12.3183C19.1002 12.2223 18.9569 12.1244 18.81 12.0324C17.3265 11.1028 15.8427 11.1129 14.3595 12.0336C14.1237 12.18 13.8904 12.3302 13.6502 12.469C13.602 12.4968 13.5098 12.5078 13.4686 12.4806C13.0058 12.1748 12.5487 11.8603 12.091 11.5467C12.0636 11.528 12.0445 11.4972 12.0063 11.4553Z" fill="#3ABF83"/>
</svg>
