<svg width="32" height="32" viewBox="0 0 32 32" fill="none" xmlns="http://www.w3.org/2000/svg">
<path d="M27.4462 6.02734H20.7891C18.4986 6.02734 16.5081 7.61306 16.0081 9.85114C15.5033 7.61306 13.5176 6.02734 11.2272 6.02734H4.57478C3.31287 6.02734 2.28906 7.05114 2.28906 8.31306V20.0178C2.28906 21.2797 3.31287 22.3035 4.57478 22.3035H8.84621C13.7129 22.3035 15.1653 23.4654 15.8605 25.875C15.8938 26.0082 16.1081 26.0082 16.1462 25.875C16.8462 23.4654 18.2986 22.3035 23.1605 22.3035H27.4319C28.6938 22.3035 29.7176 21.2797 29.7176 20.0178V8.31781C29.7176 7.06067 28.7034 6.03685 27.4462 6.02734ZM13.8129 18.6654C13.8129 18.7559 13.7414 18.8321 13.6462 18.8321H6.01287C5.9224 18.8321 5.8462 18.7607 5.8462 18.6654V17.575C5.8462 17.4844 5.91763 17.4083 6.01287 17.4083H13.651C13.7414 17.4083 13.8176 17.4796 13.8176 17.575V18.6654H13.8129ZM13.8129 15.7654C13.8129 15.8559 13.7414 15.9321 13.6462 15.9321H6.01287C5.9224 15.9321 5.8462 15.8607 5.8462 15.7654V14.675C5.8462 14.5844 5.91763 14.5083 6.01287 14.5083H13.651C13.7414 14.5083 13.8176 14.5796 13.8176 14.675V15.7654H13.8129ZM13.8129 12.8654C13.8129 12.9559 13.7414 13.0321 13.6462 13.0321H6.01287C5.9224 13.0321 5.8462 12.9607 5.8462 12.8654V11.775C5.8462 11.6844 5.91763 11.6083 6.01287 11.6083H13.651C13.7414 11.6083 13.8176 11.6796 13.8176 11.775V12.8654H13.8129ZM26.1605 18.6607C26.1605 18.7512 26.0891 18.8273 25.9938 18.8273H18.3605C18.27 18.8273 18.1938 18.756 18.1938 18.6607V17.5702C18.1938 17.4797 18.2652 17.4036 18.3605 17.4036H25.9986C26.0891 17.4036 26.1653 17.4749 26.1653 17.5702V18.6607H26.1605ZM26.1605 15.7607C26.1605 15.8512 26.0891 15.9273 25.9938 15.9273H18.3605C18.27 15.9273 18.1938 15.856 18.1938 15.7607V14.6702C18.1938 14.5797 18.2652 14.5036 18.3605 14.5036H25.9986C26.0891 14.5036 26.1653 14.5749 26.1653 14.6702V15.7607H26.1605ZM26.1605 12.8607C26.1605 12.9512 26.0891 13.0273 25.9938 13.0273H18.3605C18.27 13.0273 18.1938 12.956 18.1938 12.8607V11.775C18.1938 11.6844 18.2652 11.6083 18.3605 11.6083H25.9986C26.0891 11.6083 26.1653 11.6796 26.1653 11.775V12.8607H26.1605Z" fill="url(#paint0_linear_8443_436)"/>
<defs>
<linearGradient id="paint0_linear_8443_436" x1="2.28906" y1="25.9749" x2="21.2661" y2="-0.119068" gradientUnits="userSpaceOnUse">
<stop stop-color="#EDEDED" stop-opacity="0.5"/>
<stop offset="1" stop-color="white"/>
</linearGradient>
</defs>
</svg>
