<svg width="25" height="25" viewBox="0 0 25 25" fill="none" xmlns="http://www.w3.org/2000/svg">
<path d="M18.7392 15.8131C18.292 15.8153 17.8741 15.9419 17.5191 16.1596L17.5293 16.1539L16.0139 14.7764C16.4211 14.1548 16.663 13.3932 16.663 12.5753C16.663 11.6911 16.3801 10.8726 15.8991 10.2061L15.9076 10.2179L17.6299 8.4955C17.9506 8.67325 18.3325 8.77844 18.7386 8.78125H18.7397C20.0599 8.78125 21.1304 7.71081 21.1304 6.39062C21.1304 5.07044 20.0599 4 18.7397 4C17.4196 4 16.3491 5.07044 16.3491 6.39062C16.3519 6.79787 16.4577 7.17981 16.6411 7.51281L16.6349 7.50044L14.9125 9.22281C14.2673 8.75031 13.4573 8.46681 12.5815 8.46681C12.0933 8.46681 11.6258 8.55513 11.1938 8.716L11.2214 8.707L10.8591 8.04887C11.2675 7.62306 11.5189 7.04369 11.5189 6.40581C11.5189 5.09406 10.4552 4.03037 9.1435 4.03037C7.83175 4.03037 6.76806 5.09406 6.76806 6.40581C6.76806 7.71756 7.83175 8.78125 9.1435 8.78125C9.31562 8.78125 9.48381 8.76269 9.64581 8.72781L9.63006 8.73063L9.99119 9.3865C9.04338 10.1262 8.43981 11.2681 8.43981 12.5517C8.43981 12.892 8.48256 13.2227 8.56244 13.5383L8.55625 13.5107L8.18106 13.6699C7.74231 13.1614 7.09712 12.8408 6.37712 12.8408C5.06425 12.8408 4 13.9051 4 15.2179C4 16.5308 5.06425 17.5951 6.37712 17.5951C7.69 17.5951 8.75425 16.5308 8.75425 15.2179C8.75425 15.2134 8.75425 15.2084 8.75425 15.2039C8.74975 15.1144 8.74131 15.0317 8.72837 14.9507L8.73006 14.9642L9.10525 14.8051C9.83819 15.9447 11.1004 16.6889 12.5365 16.6889C13.4944 16.6889 14.3747 16.3576 15.0694 15.8035L15.061 15.8097L16.5809 17.1906C16.4357 17.4865 16.3502 17.8341 16.348 18.2014C16.348 19.5216 17.4184 20.5926 18.7386 20.5926C20.0588 20.5926 21.1292 19.5222 21.1292 18.202C21.1292 16.8818 20.0588 15.8114 18.7386 15.8114L18.7392 15.8131ZM8.15856 6.39119C8.15856 5.84781 8.59956 5.40681 9.14294 5.40681C9.68631 5.40681 10.1273 5.84781 10.1273 6.39119C10.1273 6.93456 9.68631 7.37556 9.14294 7.37556C8.59956 7.375 8.15912 6.93456 8.15856 6.39119ZM6.36419 16.1899C5.82081 16.1894 5.38094 15.7495 5.38094 15.2061C5.38094 14.6627 5.82137 14.2223 6.36475 14.2223C6.90812 14.2223 7.348 14.6622 7.34856 15.2056C7.348 15.7489 6.90756 16.1894 6.36419 16.1899ZM18.7392 5.40681C19.2826 5.40681 19.7236 5.84781 19.7236 6.39119C19.7236 6.93456 19.2826 7.37556 18.7392 7.37556C18.1958 7.37556 17.7548 6.93456 17.7548 6.39119C17.7554 5.84781 18.1958 5.40737 18.7392 5.40681ZM9.84606 12.5787V12.577C9.84606 11.0836 11.0566 9.87306 12.55 9.87306C13.297 9.87306 13.9731 10.1763 14.4625 10.6656L14.4636 10.6667C14.953 11.1561 15.2551 11.8323 15.2551 12.5787C15.2551 14.0727 14.044 15.2832 12.5506 15.2832C11.0571 15.2832 9.84606 14.0721 9.84606 12.5787ZM18.7392 19.1881C18.1958 19.1881 17.7548 18.7471 17.7548 18.2037C17.7548 17.6603 18.1958 17.2193 18.7392 17.2193C19.2826 17.2193 19.7236 17.6603 19.7236 18.2037C19.723 18.7471 19.2826 19.1875 18.7392 19.1881Z" fill="white"/>
<path d="M18.7392 15.8131C18.292 15.8153 17.8741 15.9419 17.5191 16.1596L17.5293 16.1539L16.0139 14.7764C16.4211 14.1548 16.663 13.3932 16.663 12.5753C16.663 11.6911 16.3801 10.8726 15.8991 10.2061L15.9076 10.2179L17.6299 8.4955C17.9506 8.67325 18.3325 8.77844 18.7386 8.78125H18.7397C20.0599 8.78125 21.1304 7.71081 21.1304 6.39062C21.1304 5.07044 20.0599 4 18.7397 4C17.4196 4 16.3491 5.07044 16.3491 6.39062C16.3519 6.79787 16.4577 7.17981 16.6411 7.51281L16.6349 7.50044L14.9125 9.22281C14.2673 8.75031 13.4573 8.46681 12.5815 8.46681C12.0933 8.46681 11.6258 8.55513 11.1938 8.716L11.2214 8.707L10.8591 8.04887C11.2675 7.62306 11.5189 7.04369 11.5189 6.40581C11.5189 5.09406 10.4552 4.03037 9.1435 4.03037C7.83175 4.03037 6.76806 5.09406 6.76806 6.40581C6.76806 7.71756 7.83175 8.78125 9.1435 8.78125C9.31562 8.78125 9.48381 8.76269 9.64581 8.72781L9.63006 8.73063L9.99119 9.3865C9.04338 10.1262 8.43981 11.2681 8.43981 12.5517C8.43981 12.892 8.48256 13.2227 8.56244 13.5383L8.55625 13.5107L8.18106 13.6699C7.74231 13.1614 7.09712 12.8408 6.37712 12.8408C5.06425 12.8408 4 13.9051 4 15.2179C4 16.5308 5.06425 17.5951 6.37712 17.5951C7.69 17.5951 8.75425 16.5308 8.75425 15.2179C8.75425 15.2134 8.75425 15.2084 8.75425 15.2039C8.74975 15.1144 8.74131 15.0317 8.72837 14.9507L8.73006 14.9642L9.10525 14.8051C9.83819 15.9447 11.1004 16.6889 12.5365 16.6889C13.4944 16.6889 14.3747 16.3576 15.0694 15.8035L15.061 15.8097L16.5809 17.1906C16.4357 17.4865 16.3502 17.8341 16.348 18.2014C16.348 19.5216 17.4184 20.5926 18.7386 20.5926C20.0588 20.5926 21.1292 19.5222 21.1292 18.202C21.1292 16.8818 20.0588 15.8114 18.7386 15.8114L18.7392 15.8131ZM8.15856 6.39119C8.15856 5.84781 8.59956 5.40681 9.14294 5.40681C9.68631 5.40681 10.1273 5.84781 10.1273 6.39119C10.1273 6.93456 9.68631 7.37556 9.14294 7.37556C8.59956 7.375 8.15912 6.93456 8.15856 6.39119ZM6.36419 16.1899C5.82081 16.1894 5.38094 15.7495 5.38094 15.2061C5.38094 14.6627 5.82137 14.2223 6.36475 14.2223C6.90812 14.2223 7.348 14.6622 7.34856 15.2056C7.348 15.7489 6.90756 16.1894 6.36419 16.1899ZM18.7392 5.40681C19.2826 5.40681 19.7236 5.84781 19.7236 6.39119C19.7236 6.93456 19.2826 7.37556 18.7392 7.37556C18.1958 7.37556 17.7548 6.93456 17.7548 6.39119C17.7554 5.84781 18.1958 5.40737 18.7392 5.40681ZM9.84606 12.5787V12.577C9.84606 11.0836 11.0566 9.87306 12.55 9.87306C13.297 9.87306 13.9731 10.1763 14.4625 10.6656L14.4636 10.6667C14.953 11.1561 15.2551 11.8323 15.2551 12.5787C15.2551 14.0727 14.044 15.2832 12.5506 15.2832C11.0571 15.2832 9.84606 14.0721 9.84606 12.5787ZM18.7392 19.1881C18.1958 19.1881 17.7548 18.7471 17.7548 18.2037C17.7548 17.6603 18.1958 17.2193 18.7392 17.2193C19.2826 17.2193 19.7236 17.6603 19.7236 18.2037C19.723 18.7471 19.2826 19.1875 18.7392 19.1881Z" fill="url(#paint0_linear_8255_7731)"/>
<defs>
<linearGradient id="paint0_linear_8255_7731" x1="4" y1="61.5" x2="17.5" y2="-11" gradientUnits="userSpaceOnUse">
<stop/>
<stop offset="1" stop-opacity="0"/>
</linearGradient>
</defs>
</svg>
