<svg width="32" height="32" viewBox="0 0 32 32" fill="none" xmlns="http://www.w3.org/2000/svg">
<path d="M26 0H6C2.68629 0 0 2.68629 0 6V26C0 29.3137 2.68629 32 6 32H26C29.3137 32 32 29.3137 32 26V6C32 2.68629 29.3137 0 26 0Z" fill="#696969" fill-opacity="0.17"/>
<path d="M21.7969 19.8912C21.3662 19.8933 20.9636 20.0154 20.6217 20.2253L20.6315 20.2198L19.1719 18.8915C19.5641 18.2921 19.7971 17.5577 19.7971 16.769C19.7971 15.9164 19.5246 15.1271 19.0613 14.4845L19.0695 14.4958L20.7284 12.8349C21.0373 13.0063 21.4052 13.1078 21.7963 13.1105H21.7974C23.069 13.1105 24.1001 12.0783 24.1001 10.8052C24.1001 9.53221 23.069 8.5 21.7974 8.5C20.5259 8.5 19.4947 9.53221 19.4947 10.8052C19.4974 11.1979 19.5994 11.5662 19.776 11.8874L19.77 11.8754L18.111 13.5363C17.4896 13.0807 16.7094 12.8073 15.8658 12.8073C15.3956 12.8073 14.9453 12.8924 14.5292 13.0476L14.5557 13.0389L14.2068 12.4043C14.6002 11.9937 14.8423 11.435 14.8423 10.8199C14.8423 9.55499 13.8177 8.52929 12.5543 8.52929C11.2908 8.52929 10.2663 9.55499 10.2663 10.8199C10.2663 12.0848 11.2908 13.1105 12.5543 13.1105C12.7201 13.1105 12.8821 13.0926 13.0381 13.059L13.023 13.0617L13.3708 13.6941C12.4579 14.4074 11.8765 15.5085 11.8765 16.7463C11.8765 17.0744 11.9177 17.3933 11.9946 17.6976L11.9887 17.671L11.6273 17.8245C11.2047 17.3342 10.5832 17.0251 9.88974 17.0251C8.62518 17.0251 7.6001 18.0513 7.6001 19.3173C7.6001 20.5833 8.62518 21.6096 9.88974 21.6096C11.1543 21.6096 12.1794 20.5833 12.1794 19.3173C12.1794 19.3129 12.1794 19.3081 12.1794 19.3038C12.1751 19.2175 12.1669 19.1377 12.1545 19.0596L12.1561 19.0726L12.5175 18.9192C13.2234 20.0181 14.4392 20.7357 15.8225 20.7357C16.7451 20.7357 17.593 20.4163 18.2621 19.8819L18.2541 19.8879L19.718 21.2195C19.5782 21.5048 19.4958 21.84 19.4937 22.1942C19.4937 23.4673 20.5247 24.5 21.7963 24.5C23.0679 24.5 24.0989 23.4678 24.0989 22.1948C24.0989 20.9217 23.0679 19.8896 21.7963 19.8896L21.7969 19.8912ZM11.6056 10.8058C11.6056 10.2818 12.0304 9.85657 12.5538 9.85657C13.0772 9.85657 13.5019 10.2818 13.5019 10.8058C13.5019 11.3298 13.0772 11.755 12.5538 11.755C12.0304 11.7545 11.6062 11.3298 11.6056 10.8058ZM9.87729 20.2545C9.3539 20.2541 8.93022 19.8299 8.93022 19.3059C8.93022 18.7819 9.35444 18.3572 9.87782 18.3572C10.4012 18.3572 10.8249 18.7814 10.8254 19.3054C10.8249 19.8293 10.4007 20.2541 9.87729 20.2545ZM21.7969 9.85657C22.3203 9.85657 22.7451 10.2818 22.7451 10.8058C22.7451 11.3298 22.3203 11.755 21.7969 11.755C21.2735 11.755 20.8487 11.3298 20.8487 10.8058C20.8493 10.2818 21.2735 9.85711 21.7969 9.85657ZM13.231 16.7723V16.7707C13.231 15.3306 14.397 14.1633 15.8355 14.1633C16.555 14.1633 17.2062 14.4557 17.6776 14.9275L17.6786 14.9286C18.15 15.4005 18.441 16.0526 18.441 16.7723C18.441 18.213 17.2745 19.3802 15.836 19.3802C14.3975 19.3802 13.231 18.2124 13.231 16.7723ZM21.7969 23.1457C21.2735 23.1457 20.8487 22.7204 20.8487 22.1964C20.8487 21.6724 21.2735 21.2472 21.7969 21.2472C22.3203 21.2472 22.7451 21.6724 22.7451 22.1964C22.7445 22.7204 22.3203 23.1451 21.7969 23.1457Z" fill="url(#paint0_linear_1854_12442)"/>
<defs>
<linearGradient id="paint0_linear_1854_12442" x1="7.6001" y1="63.9464" x2="20.6316" y2="-5.959" gradientUnits="userSpaceOnUse">
<stop stop-color="#ECECEC"/>
<stop offset="1" stop-color="#F9F9F9" stop-opacity="0.63"/>
</linearGradient>
</defs>
</svg>
