<svg width="146" height="76" viewBox="0 0 146 76" fill="none" xmlns="http://www.w3.org/2000/svg">
<g clip-path="url(#clip0_8326_284)">
<path d="M137.193 0.929688H9.68991C4.99631 0.929688 1.19141 4.7346 1.19141 9.42819V66.9312C1.19141 71.6248 4.99631 75.4297 9.68991 75.4297H137.193C141.887 75.4297 145.691 71.6248 145.691 66.9312V9.42819C145.691 4.7346 141.887 0.929688 137.193 0.929688Z" stroke="#828282" stroke-width="0.5"/>
<path fill-rule="evenodd" clip-rule="evenodd" d="M23 35C19.6863 35 17 37.6863 17 41V57C17 60.3137 19.6863 63 23 63H53C56.3137 63 59 60.3137 59 57V41C59 37.6863 56.3137 35 53 35H23ZM47.429 43.8164V53.9982H53.9468V52.2234H49.5817V43.8164H47.429ZM33.9885 43.8164H36.6433L39.4473 50.6573H39.5666L42.3706 43.8164H45.0254V53.9982H42.9374V47.3711H42.8528L40.2179 53.9485H38.796L36.1611 47.3462H36.0766V53.9982H33.9885V43.8164ZM22.334 53.9982H24.6408L25.3961 51.6765H29.0723L29.8262 53.9982H32.133L28.623 43.8164H25.8489L22.334 53.9982ZM28.5267 49.9961L27.2757 46.1431H27.1962L25.9428 49.9961H28.5267Z" fill="#828282"/>
<line x1="65.8" y1="59" x2="65.8" y2="38" stroke="#828282" stroke-width="0.4"/>
<path d="M100.618 50.4986C100.579 50.379 100.528 50.2719 100.464 50.1772C100.401 50.0813 100.326 49.9996 100.238 49.9322C100.152 49.8647 100.053 49.8132 99.9434 49.7777C99.8333 49.7422 99.7125 49.7244 99.5811 49.7244C99.3657 49.7244 99.1698 49.7801 98.9934 49.8913C98.8171 50.0026 98.6768 50.1665 98.5726 50.3832C98.4685 50.5998 98.4164 50.8655 98.4164 51.1804C98.4164 51.4953 98.469 51.761 98.5744 51.9776C98.6797 52.1942 98.8224 52.3582 99.0023 52.4695C99.1822 52.5807 99.3846 52.6364 99.6096 52.6364C99.8179 52.6364 100.001 52.592 100.16 52.5032C100.32 52.4132 100.444 52.2866 100.533 52.1232C100.623 51.9587 100.668 51.7652 100.668 51.5426L100.803 51.571H99.709V51.1804H101.094V51.571C101.094 51.8705 101.03 52.1309 100.902 52.3523C100.776 52.5736 100.6 52.7453 100.377 52.8672C100.154 52.9879 99.8984 53.0483 99.6096 53.0483C99.2876 53.0483 99.0047 52.9725 98.7608 52.821C98.5182 52.6695 98.3288 52.4541 98.1926 52.1747C98.0577 51.8954 97.9902 51.5639 97.9902 51.1804C97.9902 50.8928 98.0287 50.6341 98.1056 50.4045C98.1838 50.1737 98.2939 49.9772 98.4359 49.815C98.5779 49.6528 98.746 49.5285 98.9402 49.4421C99.1343 49.3557 99.348 49.3125 99.5811 49.3125C99.7729 49.3125 99.9516 49.3415 100.117 49.3995C100.284 49.4563 100.433 49.5374 100.563 49.6428C100.694 49.7469 100.804 49.8718 100.892 50.0174C100.979 50.1618 101.039 50.3222 101.073 50.4986H100.618Z" fill="#828282"/>
<path d="M97.0261 49.3633V52.9996H96.6L94.6184 50.1445H94.5829V52.9996H94.1426V49.3633H94.5687L96.5574 52.2255H96.5929V49.3633H97.0261Z" fill="#828282"/>
<path d="M93.0341 49.3633V52.9996H92.5938V49.3633H93.0341Z" fill="#828282"/>
<path d="M91.658 50.4986H91.2177C91.1916 50.3719 91.1461 50.2607 91.081 50.1648C91.017 50.0689 90.9389 49.9884 90.8466 49.9233C90.7554 49.857 90.6542 49.8073 90.543 49.7741C90.4317 49.741 90.3157 49.7244 90.195 49.7244C89.9748 49.7244 89.7753 49.7801 89.5966 49.8913C89.419 50.0026 89.2776 50.1665 89.1722 50.3832C89.0681 50.5998 89.016 50.8655 89.016 51.1804C89.016 51.4953 89.0681 51.761 89.1722 51.9776C89.2776 52.1942 89.419 52.3582 89.5966 52.4695C89.7753 52.5807 89.9748 52.6364 90.195 52.6364C90.3157 52.6364 90.4317 52.6198 90.543 52.5866C90.6542 52.5535 90.7554 52.5044 90.8466 52.4393C90.9389 52.373 91.017 52.2919 91.081 52.196C91.1461 52.099 91.1916 51.9877 91.2177 51.8622H91.658C91.6249 52.0481 91.5645 52.2144 91.4769 52.3612C91.3893 52.5079 91.2804 52.6328 91.1502 52.7358C91.02 52.8376 90.8738 52.9151 90.7116 52.9684C90.5507 53.0217 90.3784 53.0483 90.195 53.0483C89.8848 53.0483 89.609 52.9725 89.3675 52.821C89.1261 52.6695 88.9361 52.4541 88.7976 52.1747C88.6591 51.8954 88.5898 51.5639 88.5898 51.1804C88.5898 50.7969 88.6591 50.4654 88.7976 50.1861C88.9361 49.9067 89.1261 49.6913 89.3675 49.5398C89.609 49.3883 89.8848 49.3125 90.195 49.3125C90.3784 49.3125 90.5507 49.3391 90.7116 49.3924C90.8738 49.4457 91.02 49.5238 91.1502 49.6268C91.2804 49.7286 91.3893 49.8529 91.4769 49.9996C91.5645 50.1452 91.6249 50.3116 91.658 50.4986Z" fill="#828282"/>
<path d="M87.6257 49.3633V52.9996H87.1996L85.218 50.1445H85.1825V52.9996H84.7422V49.3633H85.1683L87.157 52.2255H87.1925V49.3633H87.6257Z" fill="#828282"/>
<path d="M81.2878 52.9996H80.8262L82.1614 49.3633H82.6159L83.9512 52.9996H83.4895L82.4029 49.9386H82.3745L81.2878 52.9996ZM81.4583 51.5792H83.3191V51.9698H81.4583V51.5792Z" fill="#828282"/>
<path d="M80.032 49.3633V52.9996H79.6058L77.6243 50.1445H77.5888V52.9996H77.1484V49.3633H77.5746L79.5632 52.2255H79.5987V49.3633H80.032Z" fill="#828282"/>
<path d="M76.04 49.3633V52.9996H75.5996V49.3633H76.04Z" fill="#828282"/>
<path d="M72.4414 52.9996V49.3633H74.6218V49.7539H72.8817V50.9826H74.4585V51.3732H72.8817V52.9996H72.4414Z" fill="#828282"/>
<path d="M126.193 43.7539V43.3633H128.921V43.7539H127.777V46.9996H127.337V43.7539H126.193Z" fill="#828282"/>
<path d="M124.967 44.2713C124.946 44.0914 124.859 43.9517 124.708 43.8523C124.556 43.7528 124.371 43.7031 124.15 43.7031C123.989 43.7031 123.849 43.7292 123.728 43.7812C123.608 43.8333 123.515 43.9049 123.447 43.9961C123.381 44.0872 123.348 44.1908 123.348 44.3068C123.348 44.4039 123.371 44.4873 123.417 44.5572C123.464 44.6258 123.525 44.6832 123.598 44.7294C123.672 44.7744 123.749 44.8117 123.829 44.8413C123.91 44.8697 123.983 44.8928 124.051 44.9105L124.42 45.0099C124.515 45.0348 124.62 45.0691 124.736 45.1129C124.854 45.1567 124.965 45.2165 125.072 45.2923C125.18 45.3668 125.268 45.4627 125.338 45.5799C125.408 45.6971 125.443 45.8409 125.443 46.0114C125.443 46.2079 125.392 46.3854 125.289 46.544C125.187 46.7027 125.038 46.8287 124.841 46.9222C124.646 47.0157 124.408 47.0625 124.129 47.0625C123.869 47.0625 123.643 47.0205 123.453 46.9364C123.263 46.8524 123.114 46.7352 123.005 46.5849C122.897 46.4345 122.836 46.2599 122.822 46.0611H123.277C123.289 46.1984 123.335 46.312 123.415 46.402C123.497 46.4908 123.6 46.5571 123.724 46.6009C123.85 46.6435 123.985 46.6648 124.129 46.6648C124.297 46.6648 124.448 46.6375 124.582 46.5831C124.716 46.5275 124.822 46.4505 124.9 46.3523C124.978 46.2528 125.017 46.1368 125.017 46.0043C125.017 45.8835 124.983 45.7853 124.916 45.7095C124.848 45.6338 124.759 45.5722 124.649 45.5249C124.539 45.4775 124.42 45.4361 124.292 45.4006L123.845 45.2727C123.561 45.1911 123.336 45.0745 123.17 44.9229C123.005 44.7714 122.922 44.5732 122.922 44.3281C122.922 44.1245 122.977 43.947 123.087 43.7955C123.198 43.6428 123.347 43.5244 123.534 43.4403C123.722 43.3551 123.933 43.3125 124.165 43.3125C124.399 43.3125 124.607 43.3545 124.79 43.4386C124.972 43.5214 125.116 43.6351 125.223 43.7795C125.331 43.9239 125.387 44.0878 125.393 44.2713H124.967Z" fill="#828282"/>
<path d="M121.872 43.3633V46.9996H121.432V43.3633H121.872Z" fill="#828282"/>
<path d="M118.008 46.9996V43.3633H119.237C119.521 43.3633 119.754 43.4118 119.936 43.5089C120.118 43.6048 120.253 43.7367 120.341 43.9048C120.429 44.0729 120.472 44.2641 120.472 44.4783C120.472 44.6926 120.429 44.8826 120.341 45.0483C120.253 45.214 120.119 45.3442 119.938 45.4389C119.757 45.5324 119.525 45.5792 119.244 45.5792H118.249V45.1815H119.229C119.424 45.1815 119.58 45.1531 119.698 45.0962C119.818 45.0394 119.904 44.9589 119.957 44.8548C120.012 44.7494 120.039 44.6239 120.039 44.4783C120.039 44.3327 120.012 44.2055 119.957 44.0966C119.903 43.9877 119.816 43.9036 119.696 43.8445C119.577 43.7841 119.419 43.7539 119.222 43.7539H118.448V46.9996H118.008ZM119.719 45.3661L120.614 46.9996H120.103L119.222 45.3661H119.719Z" fill="#828282"/>
<path d="M117.042 45.1804C117.042 45.5639 116.973 45.8954 116.835 46.1747C116.696 46.4541 116.506 46.6695 116.265 46.821C116.023 46.9725 115.747 47.0483 115.437 47.0483C115.127 47.0483 114.851 46.9725 114.61 46.821C114.368 46.6695 114.178 46.4541 114.04 46.1747C113.901 45.8954 113.832 45.5639 113.832 45.1804C113.832 44.7969 113.901 44.4654 114.04 44.1861C114.178 43.9067 114.368 43.6913 114.61 43.5398C114.851 43.3883 115.127 43.3125 115.437 43.3125C115.747 43.3125 116.023 43.3883 116.265 43.5398C116.506 43.6913 116.696 43.9067 116.835 44.1861C116.973 44.4654 117.042 44.7969 117.042 45.1804ZM116.616 45.1804C116.616 44.8655 116.563 44.5998 116.458 44.3832C116.354 44.1665 116.212 44.0026 116.034 43.8913C115.856 43.7801 115.657 43.7244 115.437 43.7244C115.217 43.7244 115.018 43.7801 114.839 43.8913C114.661 44.0026 114.52 44.1665 114.414 44.3832C114.31 44.5998 114.258 44.8655 114.258 45.1804C114.258 45.4953 114.31 45.761 114.414 45.9776C114.52 46.1942 114.661 46.3582 114.839 46.4695C115.018 46.5807 115.217 46.6364 115.437 46.6364C115.657 46.6364 115.856 46.5807 116.034 46.4695C116.212 46.3582 116.354 46.1942 116.458 45.9776C116.563 45.761 116.616 45.4953 116.616 45.1804Z" fill="#828282"/>
<path d="M110.551 46.9996V43.3633H111.779C112.064 43.3633 112.297 43.4118 112.479 43.5089C112.661 43.6048 112.796 43.7367 112.884 43.9048C112.971 44.0729 113.015 44.2641 113.015 44.4783C113.015 44.6926 112.971 44.8826 112.884 45.0483C112.796 45.214 112.662 45.3442 112.481 45.4389C112.3 45.5324 112.068 45.5792 111.787 45.5792H110.792V45.1815H111.772C111.966 45.1815 112.123 45.1531 112.241 45.0962C112.361 45.0394 112.447 44.9589 112.5 44.8548C112.555 44.7494 112.582 44.6239 112.582 44.4783C112.582 44.3327 112.555 44.2055 112.5 44.0966C112.446 43.9877 112.359 43.9036 112.239 43.8445C112.12 43.7841 111.962 43.7539 111.765 43.7539H110.991V46.9996H110.551ZM112.262 45.3661L113.157 46.9996H112.646L111.765 45.3661H112.262Z" fill="#828282"/>
<path d="M107.127 46.9996V43.3633H108.356C108.64 43.3633 108.873 43.4118 109.055 43.5089C109.238 43.6048 109.372 43.7367 109.46 43.9048C109.548 44.0729 109.591 44.2641 109.591 44.4783C109.591 44.6926 109.548 44.8826 109.46 45.0483C109.372 45.214 109.238 45.3442 109.057 45.4389C108.876 45.5324 108.644 45.5792 108.363 45.5792H107.368V45.1815H108.349C108.543 45.1815 108.699 45.1531 108.817 45.0962C108.937 45.0394 109.023 44.9589 109.077 44.8548C109.131 44.7494 109.158 44.6239 109.158 44.4783C109.158 44.3327 109.131 44.2055 109.077 44.0966C109.022 43.9877 108.935 43.9036 108.816 43.8445C108.696 43.7841 108.538 43.7539 108.341 43.7539H107.567V46.9996H107.127ZM108.839 45.3661L109.733 46.9996H109.222L108.341 45.3661H108.839Z" fill="#828282"/>
<path d="M103.914 46.9996V43.3633H106.109V43.7539H104.354V44.9826H105.995V45.3732H104.354V46.609H106.137V46.9996H103.914Z" fill="#828282"/>
<path d="M100.283 43.7539V43.3633H103.01V43.7539H101.867V46.9996H101.427V43.7539H100.283Z" fill="#828282"/>
<path d="M99.8331 44.9844V45.375H98.2422V44.9844H99.8331Z" fill="#828282"/>
<path d="M94.9043 46.9996V43.3633H96.133C96.4171 43.3633 96.6503 43.4118 96.8326 43.5089C97.0149 43.6048 97.1498 43.7367 97.2374 43.9048C97.325 44.0729 97.3688 44.2641 97.3688 44.4783C97.3688 44.6926 97.325 44.8826 97.2374 45.0483C97.1498 45.214 97.0154 45.3442 96.8343 45.4389C96.6532 45.5324 96.4218 45.5792 96.1401 45.5792H95.1458V45.1815H96.1259C96.32 45.1815 96.4763 45.1531 96.5946 45.0962C96.7142 45.0394 96.8006 44.9589 96.8539 44.8548C96.9083 44.7494 96.9355 44.6239 96.9355 44.4783C96.9355 44.3327 96.9083 44.2055 96.8539 44.0966C96.7994 43.9877 96.7124 43.9036 96.5929 43.8445C96.4733 43.7841 96.3153 43.7539 96.1188 43.7539H95.3446V46.9996H94.9043ZM96.6159 45.3661L97.5108 46.9996H96.9995L96.1188 45.3661H96.6159Z" fill="#828282"/>
<path d="M91.6914 46.9996V43.3633H93.886V43.7539H92.1317V44.9826H93.7724V45.3732H92.1317V46.609H93.9144V46.9996H91.6914Z" fill="#828282"/>
<path d="M88.0586 43.7539V43.3633H90.7859V43.7539H89.6424V46.9996H89.2021V43.7539H88.0586Z" fill="#828282"/>
<path d="M87.1511 43.3633V46.9996H86.725L84.7434 44.1445H84.7079V46.9996H84.2676V43.3633H84.6937L86.6824 46.2255H86.7179V43.3633H87.1511Z" fill="#828282"/>
<path d="M82.7243 43.3633H83.1646V45.771C83.1646 46.0195 83.106 46.2415 82.9888 46.4368C82.8728 46.6309 82.7089 46.7842 82.497 46.8967C82.2851 47.0079 82.0365 47.0636 81.7512 47.0636C81.466 47.0636 81.2174 47.0079 81.0055 46.8967C80.7936 46.7842 80.6291 46.6309 80.5119 46.4368C80.3959 46.2415 80.3379 46.0195 80.3379 45.771V43.3633H80.7782V45.7354C80.7782 45.913 80.8173 46.071 80.8954 46.2095C80.9735 46.3468 81.0848 46.4551 81.2292 46.5344C81.3748 46.6126 81.5488 46.6516 81.7512 46.6516C81.9537 46.6516 82.1277 46.6126 82.2733 46.5344C82.4189 46.4551 82.5301 46.3468 82.6071 46.2095C82.6852 46.071 82.7243 45.913 82.7243 45.7354V43.3633Z" fill="#828282"/>
<path d="M79.3723 45.1804C79.3723 45.5639 79.3031 45.8954 79.1646 46.1747C79.0261 46.4541 78.8361 46.6695 78.5946 46.821C78.3532 46.9725 78.0774 47.0483 77.7672 47.0483C77.4571 47.0483 77.1813 46.9725 76.9398 46.821C76.6983 46.6695 76.5083 46.4541 76.3699 46.1747C76.2314 45.8954 76.1621 45.5639 76.1621 45.1804C76.1621 44.7969 76.2314 44.4654 76.3699 44.1861C76.5083 43.9067 76.6983 43.6913 76.9398 43.5398C77.1813 43.3883 77.4571 43.3125 77.7672 43.3125C78.0774 43.3125 78.3532 43.3883 78.5946 43.5398C78.8361 43.6913 79.0261 43.9067 79.1646 44.1861C79.3031 44.4654 79.3723 44.7969 79.3723 45.1804ZM78.9462 45.1804C78.9462 44.8655 78.8935 44.5998 78.7882 44.3832C78.684 44.1665 78.5426 44.0026 78.3638 43.8913C78.1863 43.7801 77.9874 43.7244 77.7672 43.7244C77.5471 43.7244 77.3476 43.7801 77.1689 43.8913C76.9913 44.0026 76.8498 44.1665 76.7445 44.3832C76.6403 44.5998 76.5882 44.8655 76.5882 45.1804C76.5882 45.4953 76.6403 45.761 76.7445 45.9776C76.8498 46.1942 76.9913 46.3582 77.1689 46.4695C77.3476 46.5807 77.5471 46.6364 77.7672 46.6364C77.9874 46.6364 78.1863 46.5807 78.3638 46.4695C78.5426 46.3582 78.684 46.1942 78.7882 45.9776C78.8935 45.761 78.9462 45.4953 78.9462 45.1804Z" fill="#828282"/>
<path d="M75.367 44.4986H74.9267C74.9006 44.3719 74.8551 44.2607 74.79 44.1648C74.726 44.0689 74.6479 43.9884 74.5556 43.9233C74.4644 43.857 74.3632 43.8073 74.252 43.7741C74.1407 43.741 74.0247 43.7244 73.9039 43.7244C73.6838 43.7244 73.4843 43.7801 73.3056 43.8913C73.128 44.0026 72.9866 44.1665 72.8812 44.3832C72.777 44.5998 72.725 44.8655 72.725 45.1804C72.725 45.4953 72.777 45.761 72.8812 45.9776C72.9866 46.1942 73.128 46.3582 73.3056 46.4695C73.4843 46.5807 73.6838 46.6364 73.9039 46.6364C74.0247 46.6364 74.1407 46.6198 74.252 46.5866C74.3632 46.5535 74.4644 46.5044 74.5556 46.4393C74.6479 46.373 74.726 46.2919 74.79 46.196C74.8551 46.099 74.9006 45.9877 74.9267 45.8622H75.367C75.3339 46.0481 75.2735 46.2144 75.1859 46.3612C75.0983 46.5079 74.9894 46.6328 74.8592 46.7358C74.729 46.8376 74.5828 46.9151 74.4206 46.9684C74.2596 47.0217 74.0874 47.0483 73.9039 47.0483C73.5938 47.0483 73.318 46.9725 73.0765 46.821C72.835 46.6695 72.6451 46.4541 72.5066 46.1747C72.3681 45.8954 72.2988 45.5639 72.2988 45.1804C72.2988 44.7969 72.3681 44.4654 72.5066 44.1861C72.6451 43.9067 72.835 43.6913 73.0765 43.5398C73.318 43.3883 73.5938 43.3125 73.9039 43.3125C74.0874 43.3125 74.2596 43.3391 74.4206 43.3924C74.5828 43.4457 74.729 43.5238 74.8592 43.6268C74.9894 43.7286 75.0983 43.8529 75.1859 43.9996C75.2735 44.1452 75.3339 44.3116 75.367 44.4986Z" fill="#828282"/>
<path d="M109.924 21.0408C109.808 21.0408 109.708 20.9996 109.624 20.9173C109.54 20.8335 109.498 20.7326 109.498 20.6147C109.498 20.4982 109.54 20.3988 109.624 20.3164C109.708 20.2326 109.808 20.1907 109.924 20.1907C110.041 20.1907 110.141 20.2326 110.225 20.3164C110.308 20.3988 110.35 20.4982 110.35 20.6147C110.35 20.6928 110.33 20.7646 110.291 20.8299C110.252 20.8938 110.201 20.945 110.137 20.9833C110.073 21.0217 110.002 21.0408 109.924 21.0408ZM109.924 18.6587C109.808 18.6587 109.708 18.6168 109.624 18.533C109.54 18.4492 109.498 18.3491 109.498 18.2326C109.498 18.1161 109.54 18.0167 109.624 17.9343C109.708 17.8505 109.808 17.8086 109.924 17.8086C110.041 17.8086 110.141 17.8505 110.225 17.9343C110.308 18.0167 110.35 18.1161 110.35 18.2326C110.35 18.3107 110.33 18.3825 110.291 18.4478C110.252 18.5117 110.201 18.5629 110.137 18.6012C110.073 18.6396 110.002 18.6587 109.924 18.6587Z" fill="#828282"/>
<path d="M106.412 19.0572V21.0004H105.775V16.6367H106.404V18.2603H106.444C106.521 18.0842 106.638 17.9442 106.796 17.8406C106.954 17.7369 107.16 17.685 107.414 17.685C107.638 17.685 107.834 17.7312 108.002 17.8235C108.171 17.9158 108.302 18.0536 108.394 18.2369C108.488 18.4187 108.535 18.646 108.535 18.9187V21.0004H107.898V18.9954C107.898 18.7553 107.836 18.5692 107.712 18.4371C107.589 18.3036 107.417 18.2369 107.197 18.2369C107.046 18.2369 106.911 18.2688 106.792 18.3327C106.674 18.3967 106.581 18.4904 106.513 18.614C106.446 18.7362 106.412 18.8839 106.412 19.0572Z" fill="#828282"/>
<path d="M104.879 17.7255V18.2369H103.092V17.7255H104.879ZM103.571 16.9414H104.208V20.0373C104.208 20.1609 104.227 20.2539 104.264 20.3164C104.301 20.3775 104.348 20.4194 104.406 20.4421C104.466 20.4634 104.531 20.4741 104.6 20.4741C104.651 20.4741 104.696 20.4705 104.735 20.4634C104.773 20.4563 104.803 20.4506 104.824 20.4464L104.939 20.9727C104.902 20.9869 104.85 21.0011 104.781 21.0153C104.713 21.0309 104.628 21.0394 104.526 21.0408C104.358 21.0437 104.202 21.0138 104.057 20.9513C103.912 20.8888 103.795 20.7923 103.705 20.6616C103.616 20.5309 103.571 20.3668 103.571 20.1694V16.9414Z" fill="#828282"/>
<path d="M101.737 20.9993V17.7266H102.374V20.9993H101.737ZM102.059 17.2216C101.948 17.2216 101.853 17.1847 101.773 17.1108C101.695 17.0355 101.656 16.946 101.656 16.8423C101.656 16.7372 101.695 16.6477 101.773 16.5739C101.853 16.4986 101.948 16.4609 102.059 16.4609C102.17 16.4609 102.264 16.4986 102.342 16.5739C102.422 16.6477 102.462 16.7372 102.462 16.8423C102.462 16.946 102.422 17.0355 102.342 17.1108C102.264 17.1847 102.17 17.2216 102.059 17.2216Z" fill="#828282"/>
<path d="M97.3771 20.9993L96.4141 17.7266H97.0724L97.7138 20.13H97.7457L98.3892 17.7266H99.0476L99.6868 20.1193H99.7188L100.356 17.7266H101.014L100.053 20.9993H99.4034L98.7386 18.6364H98.6896L98.0249 20.9993H97.3771Z" fill="#828282"/>
<path d="M92.7274 21.065C92.405 21.065 92.1273 20.9961 91.8944 20.8583C91.6628 20.7191 91.4838 20.5238 91.3574 20.2724C91.2324 20.0195 91.1699 19.7234 91.1699 19.3839C91.1699 19.0487 91.2324 18.7532 91.3574 18.4975C91.4838 18.2418 91.66 18.0423 91.8858 17.8988C92.1131 17.7553 92.3787 17.6836 92.6827 17.6836C92.8674 17.6836 93.0463 17.7141 93.2196 17.7752C93.3929 17.8363 93.5485 17.9322 93.6863 18.0629C93.824 18.1935 93.9327 18.3633 94.0123 18.5721C94.0918 18.7795 94.1316 19.0316 94.1316 19.3285V19.5543H91.53V19.0771H93.5073C93.5073 18.9094 93.4732 18.761 93.405 18.6317C93.3368 18.5011 93.2409 18.3981 93.1174 18.3228C92.9952 18.2475 92.8517 18.2099 92.687 18.2099C92.508 18.2099 92.3517 18.2539 92.2182 18.342C92.0861 18.4286 91.9838 18.5423 91.9114 18.6829C91.8404 18.8221 91.8049 18.9734 91.8049 19.1367V19.5096C91.8049 19.7283 91.8432 19.9144 91.9199 20.0678C91.998 20.2212 92.1067 20.3384 92.2459 20.4194C92.3851 20.4989 92.5478 20.5387 92.7338 20.5387C92.8546 20.5387 92.9647 20.5217 93.0641 20.4876C93.1635 20.4521 93.2495 20.3995 93.3219 20.3299C93.3944 20.2603 93.4498 20.1744 93.4881 20.0721L94.0911 20.1808C94.0428 20.3583 93.9561 20.5138 93.8311 20.6474C93.7076 20.7795 93.552 20.8825 93.3645 20.9563C93.1784 21.0288 92.9661 21.065 92.7274 21.065Z" fill="#828282"/>
<path d="M89.1721 21.065C88.8553 21.065 88.5826 20.9933 88.3539 20.8498C88.1266 20.7049 87.9519 20.5053 87.8297 20.2511C87.7076 19.9968 87.6465 19.7056 87.6465 19.3775C87.6465 19.0451 87.709 18.7518 87.834 18.4975C87.959 18.2418 88.1351 18.0423 88.3624 17.8988C88.5897 17.7553 88.8574 17.6836 89.1657 17.6836C89.4142 17.6836 89.6358 17.7298 89.8304 17.8221C90.025 17.913 90.182 18.0408 90.3013 18.2056C90.4221 18.3704 90.4938 18.5629 90.5165 18.783H89.8965C89.8624 18.6296 89.7843 18.4975 89.6621 18.3867C89.5414 18.2759 89.3794 18.2205 89.1763 18.2205C88.9988 18.2205 88.8432 18.2674 88.7097 18.3612C88.5776 18.4535 88.4746 18.5856 88.4007 18.7575C88.3269 18.9279 88.2899 19.1296 88.2899 19.3626C88.2899 19.6012 88.3262 19.8072 88.3986 19.9805C88.4711 20.1538 88.5733 20.288 88.7054 20.3832C88.839 20.4783 88.9959 20.5259 89.1763 20.5259C89.2971 20.5259 89.4064 20.5039 89.5044 20.4599C89.6039 20.4144 89.687 20.3498 89.7537 20.266C89.8219 20.1822 89.8695 20.0813 89.8965 19.9634H90.5165C90.4938 20.1751 90.4249 20.364 90.3098 20.5302C90.1948 20.6964 90.0407 20.8271 89.8475 20.9222C89.6557 21.0174 89.4306 21.065 89.1721 21.065Z" fill="#828282"/>
<path d="M84.725 19.0558V20.9989H84.0879V17.7262H84.6994V18.2589H84.7399C84.8152 18.0856 84.9331 17.9464 85.0936 17.8413C85.2555 17.7362 85.4593 17.6836 85.7051 17.6836C85.9281 17.6836 86.1234 17.7305 86.291 17.8242C86.4586 17.9165 86.5886 18.0543 86.6809 18.2376C86.7733 18.4208 86.8194 18.6474 86.8194 18.9173V20.9989H86.1824V18.994C86.1824 18.7567 86.1206 18.5714 85.997 18.4379C85.8734 18.3029 85.7037 18.2354 85.4877 18.2354C85.34 18.2354 85.2086 18.2674 85.0936 18.3313C84.9799 18.3952 84.8897 18.489 84.823 18.6126C84.7576 18.7347 84.725 18.8825 84.725 19.0558Z" fill="#828282"/>
<path d="M81.5043 21.0714C81.2969 21.0714 81.1094 21.033 80.9418 20.9563C80.7741 20.8782 80.6413 20.7653 80.5433 20.6175C80.4467 20.4698 80.3984 20.2887 80.3984 20.0742C80.3984 19.8896 80.434 19.7376 80.505 19.6183C80.576 19.4989 80.6719 19.4045 80.7926 19.3349C80.9134 19.2653 81.0483 19.2127 81.1974 19.1772C81.3466 19.1417 81.4986 19.1147 81.6534 19.0962C81.8494 19.0735 82.0085 19.055 82.1307 19.0408C82.2528 19.0252 82.3416 19.0004 82.397 18.9663C82.4524 18.9322 82.4801 18.8768 82.4801 18.8001V18.7852C82.4801 18.5991 82.4276 18.4549 82.3224 18.3526C82.2187 18.2504 82.0639 18.1992 81.858 18.1992C81.6435 18.1992 81.4744 18.2468 81.3509 18.342C81.2287 18.4357 81.1442 18.5401 81.0973 18.6552L80.4986 18.5188C80.5696 18.32 80.6733 18.1594 80.8097 18.0373C80.9474 17.9137 81.1058 17.8242 81.2848 17.7688C81.4638 17.712 81.652 17.6836 81.8494 17.6836C81.9801 17.6836 82.1186 17.6992 82.2649 17.7305C82.4126 17.7603 82.5504 17.8157 82.6783 17.8967C82.8075 17.9776 82.9134 18.0934 82.9957 18.244C83.0781 18.3931 83.1193 18.587 83.1193 18.8256V20.9989H82.4972V20.5515H82.4716C82.4304 20.6339 82.3686 20.7148 82.2862 20.7944C82.2038 20.8739 82.098 20.94 81.9688 20.9925C81.8395 21.0451 81.6847 21.0714 81.5043 21.0714ZM81.6428 20.56C81.8189 20.56 81.9695 20.5252 82.0945 20.4556C82.2209 20.386 82.3168 20.2951 82.3821 20.1829C82.4489 20.0692 82.4822 19.9478 82.4822 19.8185V19.3967C82.4595 19.4194 82.4155 19.4407 82.3501 19.4606C82.2862 19.479 82.2131 19.4954 82.1307 19.5096C82.0483 19.5224 81.968 19.5344 81.8899 19.5458C81.8118 19.5558 81.7465 19.5643 81.6939 19.5714C81.5703 19.587 81.4574 19.6133 81.3551 19.6502C81.2543 19.6871 81.1733 19.7404 81.1122 19.81C81.0526 19.8782 81.0227 19.9691 81.0227 20.0827C81.0227 20.2404 81.081 20.3597 81.1974 20.4407C81.3139 20.5202 81.4624 20.56 81.6428 20.56Z" fill="#828282"/>
<path d="M78.9364 20.9993V17.7266H79.5735V20.9993H78.9364ZM79.2582 17.2216C79.1474 17.2216 79.0522 17.1847 78.9727 17.1108C78.8945 17.0355 78.8555 16.946 78.8555 16.8423C78.8555 16.7372 78.8945 16.6477 78.9727 16.5739C79.0522 16.4986 79.1474 16.4609 79.2582 16.4609C79.369 16.4609 79.4634 16.4986 79.5415 16.5739C79.6211 16.6477 79.6609 16.7372 79.6609 16.8423C79.6609 16.946 79.6211 17.0355 79.5415 17.1108C79.4634 17.1847 79.369 17.2216 79.2582 17.2216Z" fill="#828282"/>
<path d="M77.9593 16.6367V21.0004H77.3223V16.6367H77.9593Z" fill="#828282"/>
<path d="M73.5 22.2262V17.7262H74.1222V18.2567H74.1754C74.2124 18.1886 74.2656 18.1097 74.3352 18.0202C74.4048 17.9308 74.5014 17.8526 74.625 17.7859C74.7486 17.7177 74.9119 17.6836 75.1151 17.6836C75.3793 17.6836 75.6151 17.7504 75.8224 17.8839C76.0298 18.0174 76.1925 18.2099 76.3104 18.4613C76.4297 18.7127 76.4893 19.0153 76.4893 19.369C76.4893 19.7227 76.4304 20.0259 76.3125 20.2788C76.1946 20.5302 76.0327 20.7241 75.8267 20.8604C75.6207 20.9954 75.3857 21.0629 75.1214 21.0629C74.9226 21.0629 74.7599 21.0295 74.6335 20.9627C74.5085 20.896 74.4105 20.8178 74.3395 20.7283C74.2685 20.6388 74.2138 20.5593 74.1754 20.4897H74.1371V22.2262H73.5ZM74.1243 19.3626C74.1243 19.5927 74.1577 19.7944 74.2244 19.9677C74.2912 20.141 74.3878 20.2766 74.5142 20.3746C74.6406 20.4712 74.7955 20.5195 74.9787 20.5195C75.169 20.5195 75.3281 20.4691 75.456 20.3683C75.5838 20.266 75.6804 20.1275 75.7457 19.9528C75.8125 19.7781 75.8459 19.5813 75.8459 19.3626C75.8459 19.1467 75.8132 18.9528 75.7479 18.7809C75.6839 18.609 75.5874 18.4734 75.4581 18.3739C75.3303 18.2745 75.1705 18.2248 74.9787 18.2248C74.794 18.2248 74.6378 18.2724 74.5099 18.3675C74.3835 18.4627 74.2876 18.5955 74.2223 18.766C74.157 18.9364 74.1243 19.1353 74.1243 19.3626Z" fill="#828282"/>
<path d="M68.0762 20.9989V17.7262H68.6877V18.2589H68.7282C68.7963 18.0785 68.9078 17.9379 69.0627 17.837C69.2175 17.7347 69.4029 17.6836 69.6188 17.6836C69.8375 17.6836 70.0208 17.7347 70.1685 17.837C70.3176 17.9393 70.4277 18.0799 70.4988 18.2589H70.5328C70.611 18.0842 70.7353 17.945 70.9057 17.8413C71.0762 17.7362 71.2793 17.6836 71.5151 17.6836C71.812 17.6836 72.0542 17.7766 72.2417 17.9627C72.4306 18.1488 72.525 18.4293 72.525 18.8043V20.9989H71.888V18.864C71.888 18.6424 71.8276 18.4819 71.7069 18.3825C71.5861 18.283 71.4419 18.2333 71.2743 18.2333C71.0669 18.2333 70.9057 18.2972 70.7907 18.4251C70.6756 18.5515 70.6181 18.7141 70.6181 18.913V20.9989H69.9831V18.8235C69.9831 18.646 69.9277 18.5032 69.8169 18.3952C69.7061 18.2873 69.562 18.2333 69.3844 18.2333C69.2637 18.2333 69.1522 18.2653 69.0499 18.3292C68.949 18.3917 68.8674 18.479 68.8049 18.5913C68.7438 18.7035 68.7132 18.8335 68.7132 18.9812V20.9989H68.0762Z" fill="#828282"/>
<path d="M65.7209 21.065C65.4141 21.065 65.1463 20.9947 64.9176 20.854C64.6889 20.7134 64.5114 20.5167 64.3849 20.2638C64.2585 20.011 64.1953 19.7156 64.1953 19.3775C64.1953 19.038 64.2585 18.7411 64.3849 18.4869C64.5114 18.2326 64.6889 18.0352 64.9176 17.8945C65.1463 17.7539 65.4141 17.6836 65.7209 17.6836C66.0277 17.6836 66.2955 17.7539 66.5241 17.8945C66.7528 18.0352 66.9304 18.2326 67.0568 18.4869C67.1832 18.7411 67.2464 19.038 67.2464 19.3775C67.2464 19.7156 67.1832 20.011 67.0568 20.2638C66.9304 20.5167 66.7528 20.7134 66.5241 20.854C66.2955 20.9947 66.0277 21.065 65.7209 21.065ZM65.723 20.5302C65.9219 20.5302 66.0866 20.4776 66.2173 20.3725C66.348 20.2674 66.4446 20.1275 66.5071 19.9528C66.571 19.7781 66.603 19.5856 66.603 19.3754C66.603 19.1665 66.571 18.9748 66.5071 18.8001C66.4446 18.6239 66.348 18.4826 66.2173 18.3761C66.0866 18.2695 65.9219 18.2163 65.723 18.2163C65.5227 18.2163 65.3565 18.2695 65.2244 18.3761C65.0937 18.4826 64.9964 18.6239 64.9325 18.8001C64.87 18.9748 64.8388 19.1665 64.8388 19.3754C64.8388 19.5856 64.87 19.7781 64.9325 19.9528C64.9964 20.1275 65.0937 20.2674 65.2244 20.3725C65.3565 20.4776 65.5227 20.5302 65.723 20.5302Z" fill="#828282"/>
<path d="M63.4856 18.0529H62.8208C62.7953 17.9109 62.7477 17.7859 62.6781 17.6779C62.6085 17.57 62.5233 17.4783 62.4224 17.4031C62.3216 17.3278 62.2086 17.271 62.0836 17.2326C61.9601 17.1942 61.8287 17.1751 61.6895 17.1751C61.438 17.1751 61.2129 17.2383 61.014 17.3647C60.8166 17.4911 60.6603 17.6765 60.5453 17.9208C60.4316 18.1651 60.3748 18.4634 60.3748 18.8157C60.3748 19.1708 60.4316 19.4705 60.5453 19.7148C60.6603 19.9592 60.8173 20.1438 61.0162 20.2688C61.215 20.3938 61.4387 20.4563 61.6873 20.4563C61.8251 20.4563 61.9558 20.4379 62.0794 20.4009C62.2044 20.3626 62.3173 20.3065 62.4181 20.2326C62.519 20.1587 62.6042 20.0685 62.6738 19.962C62.7449 19.854 62.7939 19.7305 62.8208 19.5913L63.4856 19.5934C63.4501 19.8079 63.3812 20.0053 63.2789 20.1857C63.1781 20.3647 63.0481 20.5195 62.889 20.6502C62.7314 20.7795 62.551 20.8796 62.3478 20.9506C62.1447 21.0217 61.9231 21.0572 61.6831 21.0572C61.3052 21.0572 60.9686 20.9677 60.6731 20.7887C60.3777 20.6083 60.1447 20.3505 59.9743 20.0153C59.8052 19.68 59.7207 19.2802 59.7207 18.8157C59.7207 18.3498 59.8059 17.9499 59.9764 17.6161C60.1468 17.2809 60.3798 17.0238 60.6752 16.8448C60.9707 16.6644 61.3066 16.5742 61.6831 16.5742C61.9146 16.5742 62.1305 16.6076 62.3308 16.6744C62.5325 16.7397 62.7136 16.8363 62.8741 16.9641C63.0346 17.0906 63.1674 17.2454 63.2725 17.4286C63.3777 17.6104 63.4487 17.8185 63.4856 18.0529Z" fill="#828282"/>
<path d="M55.7443 21.065C55.4375 21.065 55.1697 20.9947 54.9411 20.854C54.7124 20.7134 54.5348 20.5167 54.4084 20.2638C54.282 20.011 54.2188 19.7156 54.2188 19.3775C54.2188 19.038 54.282 18.7411 54.4084 18.4869C54.5348 18.2326 54.7124 18.0352 54.9411 17.8945C55.1697 17.7539 55.4375 17.6836 55.7443 17.6836C56.0511 17.6836 56.3189 17.7539 56.5476 17.8945C56.7763 18.0352 56.9538 18.2326 57.0803 18.4869C57.2067 18.7411 57.2699 19.038 57.2699 19.3775C57.2699 19.7156 57.2067 20.011 57.0803 20.2638C56.9538 20.5167 56.7763 20.7134 56.5476 20.854C56.3189 20.9947 56.0511 21.065 55.7443 21.065ZM55.7464 20.5302C55.9453 20.5302 56.1101 20.4776 56.2408 20.3725C56.3715 20.2674 56.468 20.1275 56.5305 19.9528C56.5945 19.7781 56.6264 19.5856 56.6264 19.3754C56.6264 19.1665 56.5945 18.9748 56.5305 18.8001C56.468 18.6239 56.3715 18.4826 56.2408 18.3761C56.1101 18.2695 55.9453 18.2163 55.7464 18.2163C55.5462 18.2163 55.38 18.2695 55.2479 18.3761C55.1172 18.4826 55.0199 18.6239 54.956 18.8001C54.8935 18.9748 54.8622 19.1665 54.8622 19.3754C54.8622 19.5856 54.8935 19.7781 54.956 19.9528C55.0199 20.1275 55.1172 20.2674 55.2479 20.3725C55.38 20.4776 55.5462 20.5302 55.7464 20.5302Z" fill="#828282"/>
<path d="M53.5767 17.7255V18.2369H51.7891V17.7255H53.5767ZM52.2685 16.9414H52.9055V20.0373C52.9055 20.1609 52.924 20.2539 52.9609 20.3164C52.9979 20.3775 53.0455 20.4194 53.1037 20.4421C53.1634 20.4634 53.228 20.4741 53.2976 20.4741C53.3487 20.4741 53.3935 20.4705 53.4318 20.4634C53.4702 20.4563 53.5 20.4506 53.5213 20.4464L53.6364 20.9727C53.5994 20.9869 53.5469 21.0011 53.4787 21.0153C53.4105 21.0309 53.3253 21.0394 53.223 21.0408C53.0554 21.0437 52.8991 21.0138 52.7543 20.9513C52.6094 20.8888 52.4922 20.7923 52.4027 20.6616C52.3132 20.5309 52.2685 20.3668 52.2685 20.1694V16.9414Z" fill="#828282"/>
<path d="M47.6902 21.0643C47.426 21.0643 47.1902 20.9968 46.9828 20.8619C46.7768 20.7255 46.6149 20.5316 46.497 20.2802C46.3805 20.0273 46.3223 19.7241 46.3223 19.3704C46.3223 19.0167 46.3812 18.7141 46.4991 18.4627C46.6184 18.2113 46.7818 18.0188 46.9892 17.8853C47.1966 17.7518 47.4316 17.685 47.6944 17.685C47.8976 17.685 48.0609 17.7191 48.1845 17.7873C48.3095 17.854 48.4061 17.9322 48.4743 18.0217C48.5439 18.1112 48.5978 18.19 48.6362 18.2582H48.6745V16.6367H49.3116V21.0004H48.6895V20.4911H48.6362C48.5978 20.5607 48.5424 20.6403 48.47 20.7298C48.399 20.8192 48.301 20.8974 48.176 20.9641C48.051 21.0309 47.889 21.0643 47.6902 21.0643ZM47.8308 20.521C48.014 20.521 48.1689 20.4727 48.2953 20.3761C48.4231 20.2781 48.5197 20.1424 48.5851 19.9691C48.6518 19.7958 48.6852 19.5941 48.6852 19.364C48.6852 19.1367 48.6525 18.9379 48.5872 18.7674C48.5218 18.5969 48.426 18.4641 48.2995 18.369C48.1731 18.2738 48.0169 18.2262 47.8308 18.2262C47.639 18.2262 47.4792 18.2759 47.3514 18.3754C47.2235 18.4748 47.127 18.6104 47.0616 18.7823C46.9977 18.9542 46.9657 19.1481 46.9657 19.364C46.9657 19.5827 46.9984 19.7795 47.0637 19.9542C47.1291 20.1289 47.2257 20.2674 47.3535 20.3697C47.4828 20.4705 47.6419 20.521 47.8308 20.521Z" fill="#828282"/>
<path d="M44.2353 21.065C43.9128 21.065 43.6351 20.9961 43.4022 20.8583C43.1706 20.7191 42.9917 20.5238 42.8652 20.2724C42.7402 20.0195 42.6777 19.7234 42.6777 19.3839C42.6777 19.0487 42.7402 18.7532 42.8652 18.4975C42.9917 18.2418 43.1678 18.0423 43.3936 17.8988C43.6209 17.7553 43.8865 17.6836 44.1905 17.6836C44.3752 17.6836 44.5542 17.7141 44.7275 17.7752C44.9007 17.8363 45.0563 17.9322 45.1941 18.0629C45.3319 18.1935 45.4405 18.3633 45.5201 18.5721C45.5996 18.7795 45.6394 19.0316 45.6394 19.3285V19.5543H43.0378V19.0771H45.0151C45.0151 18.9094 44.981 18.761 44.9128 18.6317C44.8446 18.5011 44.7488 18.3981 44.6252 18.3228C44.503 18.2475 44.3596 18.2099 44.1948 18.2099C44.0158 18.2099 43.8596 18.2539 43.726 18.342C43.5939 18.4286 43.4917 18.5423 43.4192 18.6829C43.3482 18.8221 43.3127 18.9734 43.3127 19.1367V19.5096C43.3127 19.7283 43.351 19.9144 43.4277 20.0678C43.5059 20.2212 43.6145 20.3384 43.7537 20.4194C43.8929 20.4989 44.0556 20.5387 44.2417 20.5387C44.3624 20.5387 44.4725 20.5217 44.5719 20.4876C44.6713 20.4521 44.7573 20.3995 44.8297 20.3299C44.9022 20.2603 44.9576 20.1744 44.9959 20.0721L45.5989 20.1808C45.5506 20.3583 45.464 20.5138 45.339 20.6474C45.2154 20.7795 45.0598 20.8825 44.8723 20.9563C44.6863 21.0288 44.4739 21.065 44.2353 21.065Z" fill="#828282"/>
<path d="M42.0337 17.7255V18.2369H40.2461V17.7255H42.0337ZM40.7255 16.9414H41.3626V20.0373C41.3626 20.1609 41.381 20.2539 41.418 20.3164C41.4549 20.3775 41.5025 20.4194 41.5607 20.4421C41.6204 20.4634 41.685 20.4741 41.7546 20.4741C41.8058 20.4741 41.8505 20.4705 41.8888 20.4634C41.9272 20.4563 41.957 20.4506 41.9783 20.4464L42.0934 20.9727C42.0565 20.9869 42.0039 21.0011 41.9357 21.0153C41.8675 21.0309 41.7823 21.0394 41.68 21.0408C41.5124 21.0437 41.3562 21.0138 41.2113 20.9513C41.0664 20.8888 40.9492 20.7923 40.8597 20.6616C40.7702 20.5309 40.7255 20.3668 40.7255 20.1694V16.9414Z" fill="#828282"/>
<path d="M39.6822 17.7255V18.2369H37.8945V17.7255H39.6822ZM38.3739 16.9414H39.011V20.0373C39.011 20.1609 39.0295 20.2539 39.0664 20.3164C39.1033 20.3775 39.1509 20.4194 39.2092 20.4421C39.2688 20.4634 39.3335 20.4741 39.4031 20.4741C39.4542 20.4741 39.4989 20.4705 39.5373 20.4634C39.5756 20.4563 39.6055 20.4506 39.6268 20.4464L39.7418 20.9727C39.7049 20.9869 39.6523 21.0011 39.5842 21.0153C39.516 21.0309 39.4308 21.0394 39.3285 21.0408C39.1609 21.0437 39.0046 21.0138 38.8597 20.9513C38.7148 20.8888 38.5977 20.7923 38.5082 20.6616C38.4187 20.5309 38.3739 20.3668 38.3739 20.1694V16.9414Z" fill="#828282"/>
<path d="M36.5399 20.9993V17.7266H37.177V20.9993H36.5399ZM36.8617 17.2216C36.7509 17.2216 36.6557 17.1847 36.5762 17.1108C36.498 17.0355 36.459 16.946 36.459 16.8423C36.459 16.7372 36.498 16.6477 36.5762 16.5739C36.6557 16.4986 36.7509 16.4609 36.8617 16.4609C36.9725 16.4609 37.0669 16.4986 37.1451 16.5739C37.2246 16.6477 37.2644 16.7372 37.2644 16.8423C37.2644 16.946 37.2246 17.0355 37.1451 17.1108C37.0669 17.1847 36.9725 17.2216 36.8617 17.2216Z" fill="#828282"/>
<path d="M31.1172 20.9989V17.7262H31.7287V18.2589H31.7692C31.8374 18.0785 31.9489 17.9379 32.1037 17.837C32.2585 17.7347 32.4439 17.6836 32.6598 17.6836C32.8786 17.6836 33.0618 17.7347 33.2095 17.837C33.3587 17.9393 33.4687 18.0799 33.5398 18.2589H33.5739C33.652 18.0842 33.7763 17.945 33.9467 17.8413C34.1172 17.7362 34.3203 17.6836 34.5561 17.6836C34.853 17.6836 35.0952 17.7766 35.2827 17.9627C35.4716 18.1488 35.5661 18.4293 35.5661 18.8043V20.9989H34.929V18.864C34.929 18.6424 34.8686 18.4819 34.7479 18.3825C34.6271 18.283 34.483 18.2333 34.3153 18.2333C34.108 18.2333 33.9467 18.2972 33.8317 18.4251C33.7166 18.5515 33.6591 18.7141 33.6591 18.913V20.9989H33.0241V18.8235C33.0241 18.646 32.9687 18.5032 32.858 18.3952C32.7472 18.2873 32.603 18.2333 32.4254 18.2333C32.3047 18.2333 32.1932 18.2653 32.0909 18.3292C31.9901 18.3917 31.9084 18.479 31.8459 18.5913C31.7848 18.7035 31.7543 18.8335 31.7543 18.9812V20.9989H31.1172Z" fill="#828282"/>
<path d="M25.6953 20.9989V17.7262H26.3068V18.2589H26.3473C26.4155 18.0785 26.527 17.9379 26.6818 17.837C26.8366 17.7347 27.022 17.6836 27.2379 17.6836C27.4567 17.6836 27.6399 17.7347 27.7876 17.837C27.9368 17.9393 28.0469 18.0799 28.1179 18.2589H28.152C28.2301 18.0842 28.3544 17.945 28.5249 17.8413C28.6953 17.7362 28.8984 17.6836 29.1342 17.6836C29.4311 17.6836 29.6733 17.7766 29.8608 17.9627C30.0497 18.1488 30.1442 18.4293 30.1442 18.8043V20.9989H29.5071V18.864C29.5071 18.6424 29.4467 18.4819 29.326 18.3825C29.2053 18.283 29.0611 18.2333 28.8935 18.2333C28.6861 18.2333 28.5249 18.2972 28.4098 18.4251C28.2947 18.5515 28.2372 18.7141 28.2372 18.913V20.9989H27.6023V18.8235C27.6023 18.646 27.5469 18.5032 27.4361 18.3952C27.3253 18.2873 27.1811 18.2333 27.0036 18.2333C26.8828 18.2333 26.7713 18.2653 26.669 18.3292C26.5682 18.3917 26.4865 18.479 26.424 18.5913C26.3629 18.7035 26.3324 18.8335 26.3324 18.9812V20.9989H25.6953Z" fill="#828282"/>
<path d="M23.3381 21.065C23.0312 21.065 22.7635 20.9947 22.5348 20.854C22.3061 20.7134 22.1286 20.5167 22.0021 20.2638C21.8757 20.011 21.8125 19.7156 21.8125 19.3775C21.8125 19.038 21.8757 18.7411 22.0021 18.4869C22.1286 18.2326 22.3061 18.0352 22.5348 17.8945C22.7635 17.7539 23.0312 17.6836 23.3381 17.6836C23.6449 17.6836 23.9126 17.7539 24.1413 17.8945C24.37 18.0352 24.5476 18.2326 24.674 18.4869C24.8004 18.7411 24.8636 19.038 24.8636 19.3775C24.8636 19.7156 24.8004 20.011 24.674 20.2638C24.5476 20.5167 24.37 20.7134 24.1413 20.854C23.9126 20.9947 23.6449 21.065 23.3381 21.065ZM23.3402 20.5302C23.5391 20.5302 23.7038 20.4776 23.8345 20.3725C23.9652 20.2674 24.0618 20.1275 24.1243 19.9528C24.1882 19.7781 24.2202 19.5856 24.2202 19.3754C24.2202 19.1665 24.1882 18.9748 24.1243 18.8001C24.0618 18.6239 23.9652 18.4826 23.8345 18.3761C23.7038 18.2695 23.5391 18.2163 23.3402 18.2163C23.1399 18.2163 22.9737 18.2695 22.8416 18.3761C22.7109 18.4826 22.6136 18.6239 22.5497 18.8001C22.4872 18.9748 22.456 19.1665 22.456 19.3754C22.456 19.5856 22.4872 19.7781 22.5497 19.9528C22.6136 20.1275 22.7109 20.2674 22.8416 20.3725C22.9737 20.4776 23.1399 20.5302 23.3402 20.5302Z" fill="#828282"/>
<path d="M21.1028 18.0529H20.438C20.4125 17.9109 20.3649 17.7859 20.2953 17.6779C20.2257 17.57 20.1404 17.4783 20.0396 17.4031C19.9387 17.3278 19.8258 17.271 19.7008 17.2326C19.5772 17.1942 19.4458 17.1751 19.3066 17.1751C19.0552 17.1751 18.8301 17.2383 18.6312 17.3647C18.4338 17.4911 18.2775 17.6765 18.1625 17.9208C18.0488 18.1651 17.992 18.4634 17.992 18.8157C17.992 19.1708 18.0488 19.4705 18.1625 19.7148C18.2775 19.9592 18.4345 20.1438 18.6333 20.2688C18.8322 20.3938 19.0559 20.4563 19.3045 20.4563C19.4423 20.4563 19.573 20.4379 19.6966 20.4009C19.8216 20.3626 19.9345 20.3065 20.0353 20.2326C20.1362 20.1587 20.2214 20.0685 20.291 19.962C20.362 19.854 20.411 19.7305 20.438 19.5913L21.1028 19.5934C21.0673 19.8079 20.9984 20.0053 20.8961 20.1857C20.7953 20.3647 20.6653 20.5195 20.5062 20.6502C20.3485 20.7795 20.1681 20.8796 19.965 20.9506C19.7619 21.0217 19.5403 21.0572 19.3002 21.0572C18.9224 21.0572 18.5858 20.9677 18.2903 20.7887C17.9949 20.6083 17.7619 20.3505 17.5914 20.0153C17.4224 19.68 17.3379 19.2802 17.3379 18.8157C17.3379 18.3498 17.4231 17.9499 17.5936 17.6161C17.764 17.2809 17.997 17.0238 18.2924 16.8448C18.5879 16.6644 18.9238 16.5742 19.3002 16.5742C19.5318 16.5742 19.7477 16.6076 19.948 16.6744C20.1497 16.7397 20.3308 16.8363 20.4913 16.9641C20.6518 17.0906 20.7846 17.2454 20.8897 17.4286C20.9949 17.6104 21.0659 17.8185 21.1028 18.0529Z" fill="#828282"/>
</g>
<defs>
<clipPath id="clip0_8326_284">
<rect width="146" height="76" fill="white"/>
</clipPath>
</defs>
</svg>
