<svg width="146" height="76" viewBox="0 0 146 76" fill="none" xmlns="http://www.w3.org/2000/svg">
<path d="M137.193 0.929688H9.68991C4.99631 0.929688 1.19141 4.7346 1.19141 9.42819V66.9312C1.19141 71.6248 4.99631 75.4297 9.68991 75.4297H137.193C141.887 75.4297 145.691 71.6248 145.691 66.9312V9.42819C145.691 4.7346 141.887 0.929688 137.193 0.929688Z" stroke="#828282" stroke-width="0.5"/>
<path fill-rule="evenodd" clip-rule="evenodd" d="M75.1118 58.2764C75.0414 58.2412 74.9586 58.2412 74.8882 58.2764L72.8882 59.2764C72.8035 59.3187 72.75 59.4053 72.75 59.5V61C72.75 61.6656 72.9651 62.2228 73.3507 62.679C73.7323 63.1305 74.2712 63.472 74.9053 63.7314C74.966 63.7562 75.034 63.7562 75.0947 63.7314C75.7288 63.472 76.2677 63.1305 76.6493 62.679C77.0349 62.2228 77.25 61.6656 77.25 61V59.5C77.25 59.4053 77.1965 59.3187 77.1118 59.2764L75.1118 58.2764ZM73.25 61V59.6545L75 58.7795L76.75 59.6545V61C76.75 61.5481 76.5762 61.9909 76.2674 62.3562C75.9715 62.7063 75.543 62.9951 75 63.2289C74.457 62.9951 74.0285 62.7063 73.7326 62.3562C73.4238 61.9909 73.25 61.5481 73.25 61ZM76.1893 60.4133C76.2795 60.3088 76.2679 60.1509 76.1633 60.0607C76.0588 59.9705 75.9009 59.9822 75.8107 60.0867L74.6907 61.3849L74.1751 60.8792C74.0765 60.7825 73.9182 60.7841 73.8215 60.8826C73.7248 60.9812 73.7264 61.1395 73.8249 61.2362L74.5308 61.9285C74.5801 61.9769 74.6473 62.0027 74.7163 61.9998C74.7853 61.9969 74.85 61.9656 74.8952 61.9133L76.1893 60.4133Z" fill="#828282"/>
<path d="M67.2603 58.6367V63.0004H66.6552L64.4371 59.8001H64.3967V63.0004H63.7383V58.6367H64.3477L66.5678 61.8413H66.6083V58.6367H67.2603Z" fill="#828282"/>
<path d="M62.7963 60.8196C62.7963 61.2855 62.7111 61.6861 62.5407 62.0213C62.3702 62.3551 62.1365 62.6122 61.8397 62.7926C61.5442 62.9716 61.2083 63.0611 60.8319 63.0611C60.454 63.0611 60.1167 62.9716 59.8198 62.7926C59.5243 62.6122 59.2914 62.3544 59.1209 62.0192C58.9505 61.6839 58.8652 61.2841 58.8652 60.8196C58.8652 60.3537 58.9505 59.9538 59.1209 59.62C59.2914 59.2848 59.5243 59.0277 59.8198 58.8487C60.1167 58.6683 60.454 58.5781 60.8319 58.5781C61.2083 58.5781 61.5442 58.6683 61.8397 58.8487C62.1365 59.0277 62.3702 59.2848 62.5407 59.62C62.7111 59.9538 62.7963 60.3537 62.7963 60.8196ZM62.1444 60.8196C62.1444 60.4645 62.0868 60.1655 61.9718 59.9226C61.8581 59.6783 61.7019 59.4936 61.503 59.3686C61.3056 59.2422 61.0819 59.179 60.8319 59.179C60.5804 59.179 60.356 59.2422 60.1586 59.3686C59.9611 59.4936 59.8049 59.6783 59.6898 59.9226C59.5762 60.1655 59.5194 60.4645 59.5194 60.8196C59.5194 61.1747 59.5762 61.4744 59.6898 61.7188C59.8049 61.9616 59.9611 62.1463 60.1586 62.2727C60.356 62.3977 60.5804 62.4602 60.8319 62.4602C61.0819 62.4602 61.3056 62.3977 61.503 62.2727C61.7019 62.1463 61.8581 61.9616 61.9718 61.7188C62.0868 61.4744 62.1444 61.1747 62.1444 60.8196Z" fill="#828282"/>
<path d="M56.2173 58.6367V63.0004H55.6122L53.3942 59.8001H53.3537V63.0004H52.6953V58.6367H53.3047L55.5249 61.8413H55.5653V58.6367H56.2173Z" fill="#828282"/>
<path d="M51.0352 60.0163C50.994 59.8871 50.9386 59.7713 50.869 59.669C50.8008 59.5653 50.7191 59.4773 50.6239 59.4048C50.5288 59.331 50.4201 59.2749 50.2979 59.2365C50.1772 59.1982 50.0444 59.179 49.8995 59.179C49.6538 59.179 49.4322 59.2422 49.2347 59.3686C49.0373 59.495 48.881 59.6804 48.766 59.9247C48.6523 60.1676 48.5955 60.4652 48.5955 60.8175C48.5955 61.1712 48.6531 61.4702 48.7681 61.7145C48.8832 61.9588 49.0408 62.1442 49.2411 62.2706C49.4414 62.397 49.6694 62.4602 49.9251 62.4602C50.1623 62.4602 50.369 62.4119 50.5451 62.3153C50.7227 62.2188 50.8597 62.0824 50.9563 61.9062C51.0543 61.7287 51.1033 61.5199 51.1033 61.2798L51.2738 61.3118H50.0252V60.7685H51.7404V61.2649C51.7404 61.6314 51.6623 61.9496 51.506 62.2195C51.3512 62.4879 51.1367 62.6953 50.8626 62.8416C50.5898 62.9879 50.2773 63.0611 49.9251 63.0611C49.5302 63.0611 49.1836 62.9702 48.8853 62.7884C48.5884 62.6065 48.3569 62.3487 48.1907 62.0149C48.0245 61.6797 47.9414 61.282 47.9414 60.8217C47.9414 60.4737 47.9897 60.1612 48.0863 59.8842C48.1829 59.6072 48.3185 59.3722 48.4933 59.179C48.6694 58.9844 48.8761 58.8359 49.1133 58.7337C49.3519 58.63 49.6126 58.5781 49.8952 58.5781C50.131 58.5781 50.3505 58.6129 50.5536 58.6825C50.7582 58.7521 50.94 58.8509 51.0991 58.9787C51.2596 59.1065 51.3924 59.2585 51.4975 59.4347C51.6026 59.6094 51.6737 59.8033 51.7106 60.0163H51.0352Z" fill="#828282"/>
<path d="M47.0041 58.6367V63.0004H46.3457V58.6367H47.0041Z" fill="#828282"/>
<path d="M44.744 59.7841C44.7212 59.5824 44.6275 59.4261 44.4627 59.3153C44.2979 59.2031 44.0906 59.147 43.8406 59.147C43.6616 59.147 43.5067 59.1754 43.3761 59.2322C43.2454 59.2876 43.1438 59.3643 43.0714 59.4624C43.0004 59.5589 42.9648 59.669 42.9648 59.7926C42.9648 59.8963 42.989 59.9858 43.0373 60.0611C43.087 60.1364 43.1516 60.1996 43.2312 60.2507C43.3121 60.3004 43.3988 60.3423 43.4911 60.3764C43.5835 60.4091 43.6722 60.4361 43.7575 60.4574L44.1836 60.5682C44.3228 60.6023 44.4656 60.6484 44.6119 60.7067C44.7582 60.7649 44.8938 60.8416 45.0188 60.9368C45.1438 61.032 45.2447 61.1499 45.3214 61.2905C45.3995 61.4311 45.4386 61.5994 45.4386 61.7955C45.4386 62.0426 45.3746 62.2621 45.2468 62.4538C45.1204 62.6456 44.9364 62.7969 44.695 62.9077C44.4549 63.0185 44.1644 63.0739 43.8235 63.0739C43.4968 63.0739 43.2141 63.022 42.9755 62.9183C42.7369 62.8146 42.5501 62.6676 42.4151 62.4773C42.2802 62.2855 42.2056 62.0582 42.1914 61.7955H42.8519C42.8647 61.9531 42.9158 62.0845 43.0053 62.1896C43.0962 62.2933 43.212 62.3707 43.3526 62.4219C43.4947 62.4716 43.6502 62.4964 43.8192 62.4964C44.0053 62.4964 44.1708 62.4673 44.3157 62.4091C44.462 62.3494 44.5771 62.267 44.6609 62.1619C44.7447 62.0554 44.7866 61.9311 44.7866 61.7891C44.7866 61.6598 44.7496 61.554 44.6758 61.4716C44.6033 61.3892 44.5046 61.321 44.3796 61.267C44.256 61.2131 44.1161 61.1655 43.9599 61.1243L43.4442 60.9837C43.0948 60.8885 42.8178 60.7486 42.6133 60.5639C42.4102 60.3793 42.3086 60.1349 42.3086 59.831C42.3086 59.5795 42.3768 59.3601 42.5131 59.1726C42.6495 58.9851 42.8342 58.8395 43.0671 58.7358C43.3001 58.6307 43.5629 58.5781 43.8555 58.5781C44.1509 58.5781 44.4116 58.63 44.6374 58.7337C44.8647 58.8374 45.0437 58.9801 45.1744 59.1619C45.305 59.3423 45.3732 59.5497 45.3789 59.7841H44.744Z" fill="#828282"/>
<path d="M36.9199 63.0004V58.6367H39.6557V59.2035H37.5783V60.533H39.513V61.0977H37.5783V62.4336H39.6813V63.0004H36.9199Z" fill="#828282"/>
<path d="M33.4141 63.0004V58.6367H34.0724V62.4336H36.0497V63.0004H33.4141Z" fill="#828282"/>
<path d="M31.752 60.0163C31.7108 59.8871 31.6554 59.7713 31.5858 59.669C31.5176 59.5653 31.4359 59.4773 31.3407 59.4048C31.2456 59.331 31.1369 59.2749 31.0147 59.2365C30.894 59.1982 30.7612 59.179 30.6163 59.179C30.3706 59.179 30.149 59.2422 29.9515 59.3686C29.7541 59.495 29.5978 59.6804 29.4828 59.9247C29.3691 60.1676 29.3123 60.4652 29.3123 60.8175C29.3123 61.1712 29.3699 61.4702 29.4849 61.7145C29.6 61.9588 29.7576 62.1442 29.9579 62.2706C30.1582 62.397 30.3862 62.4602 30.6419 62.4602C30.8791 62.4602 31.0858 62.4119 31.2619 62.3153C31.4395 62.2188 31.5765 62.0824 31.6731 61.9062C31.7711 61.7287 31.8201 61.5199 31.8201 61.2798L31.9906 61.3118H30.742V60.7685H32.4572V61.2649C32.4572 61.6314 32.3791 61.9496 32.2228 62.2195C32.068 62.4879 31.8535 62.6953 31.5794 62.8416C31.3066 62.9879 30.9941 63.0611 30.6419 63.0611C30.247 63.0611 29.9004 62.9702 29.6021 62.7884C29.3052 62.6065 29.0737 62.3487 28.9075 62.0149C28.7413 61.6797 28.6582 61.282 28.6582 60.8217C28.6582 60.4737 28.7065 60.1612 28.8031 59.8842C28.8997 59.6072 29.0353 59.3722 29.21 59.179C29.3862 58.9844 29.5929 58.8359 29.8301 58.7337C30.0687 58.63 30.3294 58.5781 30.612 58.5781C30.8478 58.5781 31.0673 58.6129 31.2704 58.6825C31.475 58.7521 31.6568 58.8509 31.8159 58.9787C31.9764 59.1065 32.1092 59.2585 32.2143 59.4347C32.3194 59.6094 32.3904 59.8033 32.4274 60.0163H31.752Z" fill="#828282"/>
<path d="M27.7193 58.6367V63.0004H27.1142L24.8961 59.8001H24.8556V63.0004H24.1973V58.6367H24.8066L27.0268 61.8413H27.0673V58.6367H27.7193Z" fill="#828282"/>
<path d="M23.1193 58.6367V63.0004H22.4609V58.6367H23.1193Z" fill="#828282"/>
<path d="M20.8592 59.7841C20.8365 59.5824 20.7427 59.4261 20.5779 59.3153C20.4132 59.2031 20.2058 59.147 19.9558 59.147C19.7768 59.147 19.622 59.1754 19.4913 59.2322C19.3606 59.2876 19.2591 59.3643 19.1866 59.4624C19.1156 59.5589 19.0801 59.669 19.0801 59.7926C19.0801 59.8963 19.1042 59.9858 19.1525 60.0611C19.2022 60.1364 19.2669 60.1996 19.3464 60.2507C19.4274 60.3004 19.514 60.3423 19.6064 60.3764C19.6987 60.4091 19.7875 60.4361 19.8727 60.4574L20.2988 60.5682C20.438 60.6023 20.5808 60.6484 20.7271 60.7067C20.8734 60.7649 21.0091 60.8416 21.1341 60.9368C21.2591 61.032 21.3599 61.1499 21.4366 61.2905C21.5147 61.4311 21.5538 61.5994 21.5538 61.7955C21.5538 62.0426 21.4899 62.2621 21.362 62.4538C21.2356 62.6456 21.0517 62.7969 20.8102 62.9077C20.5701 63.0185 20.2797 63.0739 19.9387 63.0739C19.612 63.0739 19.3294 63.022 19.0907 62.9183C18.8521 62.8146 18.6653 62.6676 18.5304 62.4773C18.3954 62.2855 18.3208 62.0582 18.3066 61.7955H18.9672C18.9799 61.9531 19.0311 62.0845 19.1206 62.1896C19.2115 62.2933 19.3272 62.3707 19.4679 62.4219C19.6099 62.4716 19.7654 62.4964 19.9345 62.4964C20.1206 62.4964 20.286 62.4673 20.4309 62.4091C20.5772 62.3494 20.6923 62.267 20.7761 62.1619C20.8599 62.0554 20.9018 61.9311 20.9018 61.7891C20.9018 61.6598 20.8649 61.554 20.791 61.4716C20.7186 61.3892 20.6199 61.321 20.4949 61.267C20.3713 61.2131 20.2314 61.1655 20.0751 61.1243L19.5595 60.9837C19.21 60.8885 18.9331 60.7486 18.7285 60.5639C18.5254 60.3793 18.4238 60.1349 18.4238 59.831C18.4238 59.5795 18.492 59.3601 18.6284 59.1726C18.7647 58.9851 18.9494 58.8395 19.1824 58.7358C19.4153 58.6307 19.6781 58.5781 19.9707 58.5781C20.2662 58.5781 20.5268 58.63 20.7527 58.7337C20.9799 58.8374 21.1589 58.9801 21.2896 59.1619C21.4203 59.3423 21.4885 59.5497 21.4941 59.7841H20.8592Z" fill="#828282"/>
<path d="M102.618 49.6367V54.0004H102.013L99.7946 50.8001H99.7541V54.0004H99.0957V49.6367H99.7051L101.925 52.8413H101.966V49.6367H102.618Z" fill="#828282"/>
<path d="M95.3594 54.0004V49.6367H98.0952V50.2035H96.0178V51.533H97.9524V52.0977H96.0178V53.4336H98.1207V54.0004H95.3594Z" fill="#828282"/>
<path d="M91.2559 54.0004V49.6367H91.9142V51.7205H91.9675L93.7978 49.6367H94.6266L92.8667 51.6012L94.633 54.0004H93.8404L92.4299 52.0508L91.9142 52.6431V54.0004H91.2559Z" fill="#828282"/>
<path d="M90.3139 51.8196C90.3139 52.2855 90.2287 52.6861 90.0582 53.0213C89.8878 53.3551 89.6541 53.6122 89.3572 53.7926C89.0618 53.9716 88.7259 54.0611 88.3494 54.0611C87.9716 54.0611 87.6342 53.9716 87.3374 53.7926C87.0419 53.6122 86.809 53.3544 86.6385 53.0192C86.468 52.6839 86.3828 52.2841 86.3828 51.8196C86.3828 51.3537 86.468 50.9538 86.6385 50.62C86.809 50.2848 87.0419 50.0277 87.3374 49.8487C87.6342 49.6683 87.9716 49.5781 88.3494 49.5781C88.7259 49.5781 89.0618 49.6683 89.3572 49.8487C89.6541 50.0277 89.8878 50.2848 90.0582 50.62C90.2287 50.9538 90.3139 51.3537 90.3139 51.8196ZM89.6619 51.8196C89.6619 51.4645 89.6044 51.1655 89.4893 50.9226C89.3757 50.6783 89.2195 50.4936 89.0206 50.3686C88.8232 50.2422 88.5994 50.179 88.3494 50.179C88.098 50.179 87.8736 50.2422 87.6761 50.3686C87.4787 50.4936 87.3224 50.6783 87.2074 50.9226C87.0938 51.1655 87.0369 51.4645 87.0369 51.8196C87.0369 52.1747 87.0938 52.4744 87.2074 52.7188C87.3224 52.9616 87.4787 53.1463 87.6761 53.2727C87.8736 53.3977 88.098 53.4602 88.3494 53.4602C88.5994 53.4602 88.8232 53.3977 89.0206 53.2727C89.2195 53.1463 89.3757 52.9616 89.4893 52.7188C89.6044 52.4744 89.6619 52.1747 89.6619 51.8196Z" fill="#828282"/>
<path d="M82.4688 50.2035V49.6367H85.8459V50.2035H84.4844V54.0004H83.8281V50.2035H82.4688Z" fill="#828282"/>
<path d="M79.8951 49.6367V54.0004H79.2899L77.0719 50.8001H77.0314V54.0004H76.373V49.6367H76.9824L79.2026 52.8413H79.2431V49.6367H79.8951Z" fill="#828282"/>
<path d="M75.4331 51.8196C75.4331 52.2855 75.3478 52.6861 75.1774 53.0213C75.0069 53.3551 74.7733 53.6122 74.4764 53.7926C74.1809 53.9716 73.845 54.0611 73.4686 54.0611C73.0907 54.0611 72.7534 53.9716 72.4565 53.7926C72.161 53.6122 71.9281 53.3544 71.7576 53.0192C71.5872 52.6839 71.502 52.2841 71.502 51.8196C71.502 51.3537 71.5872 50.9538 71.7576 50.62C71.9281 50.2848 72.161 50.0277 72.4565 49.8487C72.7534 49.6683 73.0907 49.5781 73.4686 49.5781C73.845 49.5781 74.1809 49.6683 74.4764 49.8487C74.7733 50.0277 75.0069 50.2848 75.1774 50.62C75.3478 50.9538 75.4331 51.3537 75.4331 51.8196ZM74.7811 51.8196C74.7811 51.4645 74.7235 51.1655 74.6085 50.9226C74.4948 50.6783 74.3386 50.4936 74.1397 50.3686C73.9423 50.2422 73.7186 50.179 73.4686 50.179C73.2172 50.179 72.9927 50.2422 72.7953 50.3686C72.5978 50.4936 72.4416 50.6783 72.3265 50.9226C72.2129 51.1655 72.1561 51.4645 72.1561 51.8196C72.1561 52.1747 72.2129 52.4744 72.3265 52.7188C72.4416 52.9616 72.5978 53.1463 72.7953 53.2727C72.9927 53.3977 73.2172 53.4602 73.4686 53.4602C73.7186 53.4602 73.9423 53.3977 74.1397 53.2727C74.3386 53.1463 74.4948 52.9616 74.6085 52.7188C74.7235 52.4744 74.7811 52.1747 74.7811 51.8196Z" fill="#828282"/>
<path d="M70.5627 49.6367V54.0004H69.9043V49.6367H70.5627Z" fill="#828282"/>
<path d="M65.6621 50.2035V49.6367H69.0392V50.2035H67.6777V54.0004H67.0215V50.2035H65.6621Z" fill="#828282"/>
<path d="M62.4391 54.0004H61.7402L63.3105 49.6367H64.0712L65.6415 54.0004H64.9426L63.709 50.4293H63.6749L62.4391 54.0004ZM62.5563 52.2915H64.8233V52.8455H62.5563V52.2915Z" fill="#828282"/>
<path d="M60.5057 50.7841C60.483 50.5824 60.3892 50.4261 60.2244 50.3153C60.0597 50.2031 59.8523 50.147 59.6023 50.147C59.4233 50.147 59.2685 50.1754 59.1378 50.2322C59.0071 50.2876 58.9055 50.3643 58.8331 50.4624C58.7621 50.5589 58.7266 50.669 58.7266 50.7926C58.7266 50.8963 58.7507 50.9858 58.799 51.0611C58.8487 51.1364 58.9134 51.1996 58.9929 51.2507C59.0739 51.3004 59.1605 51.3423 59.2528 51.3764C59.3452 51.4091 59.4339 51.4361 59.5192 51.4574L59.9453 51.5682C60.0845 51.6023 60.2273 51.6484 60.3736 51.7067C60.5199 51.7649 60.6555 51.8416 60.7805 51.9368C60.9055 52.032 61.0064 52.1499 61.0831 52.2905C61.1612 52.4311 61.2003 52.5994 61.2003 52.7955C61.2003 53.0426 61.1364 53.2621 61.0085 53.4538C60.8821 53.6456 60.6982 53.7969 60.4567 53.9077C60.2166 54.0185 59.9261 54.0739 59.5852 54.0739C59.2585 54.0739 58.9758 54.022 58.7372 53.9183C58.4986 53.8146 58.3118 53.6676 58.1768 53.4773C58.0419 53.2855 57.9673 53.0582 57.9531 52.7955H58.6136C58.6264 52.9531 58.6776 53.0845 58.767 53.1896C58.858 53.2933 58.9737 53.3707 59.1143 53.4219C59.2564 53.4716 59.4119 53.4964 59.581 53.4964C59.767 53.4964 59.9325 53.4673 60.0774 53.4091C60.2237 53.3494 60.3388 53.267 60.4226 53.1619C60.5064 53.0554 60.5483 52.9311 60.5483 52.7891C60.5483 52.6598 60.5114 52.554 60.4375 52.4716C60.3651 52.3892 60.2663 52.321 60.1413 52.267C60.0178 52.2131 59.8778 52.1655 59.7216 52.1243L59.206 51.9837C58.8565 51.8885 58.5795 51.7486 58.375 51.5639C58.1719 51.3793 58.0703 51.1349 58.0703 50.831C58.0703 50.5795 58.1385 50.3601 58.2749 50.1726C58.4112 49.9851 58.5959 49.8395 58.8288 49.7358C59.0618 49.6307 59.3246 49.5781 59.6172 49.5781C59.9126 49.5781 60.1733 49.63 60.3991 49.7337C60.6264 49.8374 60.8054 49.9801 60.9361 50.1619C61.0668 50.3423 61.1349 50.5497 61.1406 50.7841H60.5057Z" fill="#828282"/>
<path d="M57.0451 49.6367V54.0004H56.3867V49.6367H57.0451Z" fill="#828282"/>
<path d="M52.4004 54.0004V49.6367H53.9558C54.2939 49.6367 54.5744 49.695 54.7974 49.8114C55.0218 49.9279 55.1895 50.0891 55.3002 50.2951C55.411 50.4996 55.4664 50.7362 55.4664 51.0046C55.4664 51.2717 55.4103 51.5067 55.2981 51.7099C55.1873 51.9116 55.0197 52.0685 54.7953 52.1808C54.5723 52.293 54.2917 52.3491 53.9537 52.3491H52.7754V51.7823H53.894C54.1071 51.7823 54.2804 51.7518 54.4139 51.6907C54.5488 51.6296 54.6475 51.5408 54.71 51.4244C54.7725 51.3079 54.8038 51.168 54.8038 51.0046C54.8038 50.8398 54.7718 50.6971 54.7079 50.5763C54.6454 50.4556 54.5467 50.3633 54.4118 50.2994C54.2782 50.234 54.1028 50.2013 53.8855 50.2013H53.0588V54.0004H52.4004ZM54.5545 52.0316L55.6326 54.0004H54.8826L53.8258 52.0316H54.5545Z" fill="#828282"/>
<path d="M51.4604 51.8196C51.4604 52.2855 51.3752 52.6861 51.2047 53.0213C51.0343 53.3551 50.8006 53.6122 50.5037 53.7926C50.2083 53.9716 49.8723 54.0611 49.4959 54.0611C49.1181 54.0611 48.7807 53.9716 48.4838 53.7926C48.1884 53.6122 47.9554 53.3544 47.785 53.0192C47.6145 52.6839 47.5293 52.2841 47.5293 51.8196C47.5293 51.3537 47.6145 50.9538 47.785 50.62C47.9554 50.2848 48.1884 50.0277 48.4838 49.8487C48.7807 49.6683 49.1181 49.5781 49.4959 49.5781C49.8723 49.5781 50.2083 49.6683 50.5037 49.8487C50.8006 50.0277 51.0343 50.2848 51.2047 50.62C51.3752 50.9538 51.4604 51.3537 51.4604 51.8196ZM50.8084 51.8196C50.8084 51.4645 50.7509 51.1655 50.6358 50.9226C50.5222 50.6783 50.3659 50.4936 50.1671 50.3686C49.9696 50.2422 49.7459 50.179 49.4959 50.179C49.2445 50.179 49.0201 50.2422 48.8226 50.3686C48.6252 50.4936 48.4689 50.6783 48.3539 50.9226C48.2402 51.1655 48.1834 51.4645 48.1834 51.8196C48.1834 52.1747 48.2402 52.4744 48.3539 52.7188C48.4689 52.9616 48.6252 53.1463 48.8226 53.2727C49.0201 53.3977 49.2445 53.4602 49.4959 53.4602C49.7459 53.4602 49.9696 53.3977 50.1671 53.2727C50.3659 53.1463 50.5222 52.9616 50.6358 52.7188C50.7509 52.4744 50.8084 52.1747 50.8084 51.8196Z" fill="#828282"/>
<path d="M43.0957 54.0004V49.6367H43.7541V51.533H45.9295V49.6367H46.59V54.0004H45.9295V52.0977H43.7541V54.0004H43.0957Z" fill="#828282"/>
<path d="M38.8535 50.2035V49.6367H42.2306V50.2035H40.8691V54.0004H40.2129V50.2035H38.8535Z" fill="#828282"/>
<path d="M37.3295 49.6367H37.9901V52.5067C37.9901 52.8121 37.9183 53.0827 37.7749 53.3185C37.6314 53.5529 37.4297 53.7376 37.1697 53.8725C36.9098 54.006 36.6051 54.0728 36.2557 54.0728C35.9077 54.0728 35.6037 54.006 35.3438 53.8725C35.0838 53.7376 34.8821 53.5529 34.7386 53.3185C34.5952 53.0827 34.5234 52.8121 34.5234 52.5067V49.6367H35.1818V52.4535C35.1818 52.6509 35.2251 52.8263 35.3118 52.9798C35.3999 53.1332 35.5241 53.2539 35.6847 53.342C35.8452 53.4286 36.0355 53.4719 36.2557 53.4719C36.4773 53.4719 36.6683 53.4286 36.8288 53.342C36.9908 53.2539 37.1143 53.1332 37.1996 52.9798C37.2862 52.8263 37.3295 52.6509 37.3295 52.4535V49.6367Z" fill="#828282"/>
<path d="M30.5719 54.0004H29.873L31.4434 49.6367H32.204L33.7743 54.0004H33.0755L31.8418 50.4293H31.8077L30.5719 54.0004ZM30.6891 52.2915H32.9561V52.8455H30.6891V52.2915Z" fill="#828282"/>
<path d="M27.4162 49.6367V54.0004H26.7578V49.6367H27.4162Z" fill="#828282"/>
<path d="M22.8008 54.0004V49.6367H24.3562C24.6957 49.6367 24.9769 49.6985 25.1999 49.8221C25.4229 49.9457 25.5898 50.1147 25.7006 50.3292C25.8114 50.5423 25.8668 50.7823 25.8668 51.0494C25.8668 51.3178 25.8107 51.5593 25.6985 51.7738C25.5877 51.9869 25.4201 52.1559 25.1957 52.2809C24.9727 52.4045 24.6921 52.4663 24.354 52.4663H23.2844V51.908H24.2944C24.5089 51.908 24.6829 51.8711 24.8164 51.7972C24.9499 51.7219 25.0479 51.6197 25.1104 51.4904C25.1729 51.3612 25.2042 51.2141 25.2042 51.0494C25.2042 50.8846 25.1729 50.7383 25.1104 50.6104C25.0479 50.4826 24.9492 50.3825 24.8143 50.31C24.6808 50.2376 24.5046 50.2013 24.2859 50.2013H23.4592V54.0004H22.8008Z" fill="#828282"/>
<path d="M18.8473 54.0004H18.1484L19.7188 49.6367H20.4794L22.0497 54.0004H21.3509L20.1172 50.4293H20.0831L18.8473 54.0004ZM18.9645 52.2915H21.2315V52.8455H18.9645V52.2915Z" fill="#828282"/>
<path fill-rule="evenodd" clip-rule="evenodd" d="M48 18.5H20C19.0717 18.5 18.1815 18.8687 17.5251 19.5251C16.8687 20.1815 16.5 21.0717 16.5 22V36C16.5 36.9283 16.8687 37.8185 17.5251 38.4749C18.1815 39.1313 19.0717 39.5 20 39.5H48C48.9283 39.5 49.8185 39.1313 50.4749 38.4749C51.1312 37.8185 51.5 36.9283 51.5 36V22C51.5 21.0717 51.1312 20.1815 50.4749 19.5251C49.8185 18.8687 48.9283 18.5 48 18.5ZM29.2575 33.9L28.75 32.0275H25.53L25.0225 33.9H22.0475L25.25 23.8725H28.9075L32.25 33.9H29.2575ZM40.3525 28.405C40.2266 28.8198 40.0116 29.202 39.7225 29.525C39.3937 29.8656 38.9932 30.1287 38.55 30.295C37.9902 30.5018 37.3967 30.6027 36.8 30.5925H36.03V33.9H33.3V23.9075H36.8C37.8129 23.8344 38.8185 24.1261 39.635 24.73C39.9636 25.0254 40.2209 25.3915 40.3876 25.8007C40.5543 26.2099 40.6261 26.6516 40.5975 27.0925C40.5876 27.5404 40.5048 27.9837 40.3525 28.405ZM44.8675 33.9H42.155V23.9075H44.8675V33.9ZM27.7875 28.1775L28.2075 29.805H26.09L26.51 28.1775C26.51 27.95 26.65 27.6875 26.72 27.355C26.79 27.0225 26.8775 26.69 26.9475 26.3575C27.0206 26.0808 27.079 25.8004 27.1225 25.5175C27.1225 25.745 27.245 26.025 27.315 26.3925L27.5775 27.4075L27.7875 28.1775ZM37.57 26.4275C37.6663 26.5267 37.7409 26.6448 37.7891 26.7743C37.8373 26.9039 37.858 27.042 37.85 27.18C37.8597 27.4386 37.7927 27.6943 37.6575 27.915C37.5423 28.088 37.3776 28.2221 37.185 28.3C36.9802 28.386 36.7596 28.4278 36.5375 28.4225H35.995V26.095H36.695C36.8423 26.0883 36.9894 26.1111 37.1276 26.1622C37.2659 26.2133 37.3925 26.2916 37.5 26.3925L37.57 26.4275Z" fill="#828282"/>
</svg>
