<svg width="146" height="76" viewBox="0 0 146 76" fill="none" xmlns="http://www.w3.org/2000/svg">
<g clip-path="url(#clip0_8326_284)">
<path d="M137.193 0.929688H9.68991C4.99631 0.929688 1.19141 4.7346 1.19141 9.42819V66.9312C1.19141 71.6248 4.99631 75.4297 9.68991 75.4297H137.193C141.887 75.4297 145.691 71.6248 145.691 66.9312V9.42819C145.691 4.7346 141.887 0.929688 137.193 0.929688Z" stroke="#828282" stroke-width="0.5"/>
<path d="M42.4107 15L30.5884 45.8204H55.0225L66.8447 15H42.4107ZM67.1852 21.4417L59.6815 41.0506H62.6505L64.6795 35.5834H72.4078L74.4368 41.0506H77.5817L69.8983 21.4417H67.1852ZM37.0736 21.4425L24 21.4456V41.056H26.8223V32.4699H32.8442L33.8037 29.9701H26.8223V23.9707H36.1066L37.0736 21.4425ZM48.4789 21.5727C49.4528 21.5727 50.3269 21.6929 51.0985 21.932C51.871 22.1706 52.5471 22.4692 53.126 22.8279C53.7048 23.1865 54.202 23.5769 54.6153 23.9999C55.0292 24.423 55.3645 24.8268 55.622 25.2131L53.7464 26.8133C53.5257 26.5011 53.2638 26.1738 52.9613 25.8336C52.6578 25.4938 52.2941 25.1859 51.8716 24.91C51.4485 24.6341 50.9609 24.4046 50.4091 24.2207C49.8584 24.0368 49.2235 23.9445 48.5066 23.9445C47.4955 23.9445 46.5899 24.1381 45.7898 24.5238C44.9902 24.9101 44.3099 25.4333 43.7489 26.0955C43.1889 26.7577 42.7606 27.5295 42.4668 28.4119C42.173 29.2948 42.026 30.233 42.026 31.2253C42.026 32.2185 42.1775 33.1517 42.481 34.0244C42.7845 34.8981 43.2123 35.6569 43.7631 36.2996C44.3149 36.9434 44.9854 37.4486 45.7764 37.8159C46.5668 38.1843 47.4492 38.3675 48.4236 38.3675C49.2513 38.3675 49.9638 38.2622 50.5611 38.0502C51.1589 37.8392 51.6643 37.5868 52.0781 37.292C52.4915 36.9983 52.8316 36.6997 53.0983 36.3962C53.3645 36.0932 53.5899 35.8403 53.7733 35.638L55.622 37.182C55.4196 37.5126 55.1067 37.8904 54.6842 38.3129C54.2611 38.7354 53.7466 39.1356 53.1402 39.5126C52.5332 39.8892 51.8342 40.2064 51.0438 40.4639C50.2534 40.7214 49.3795 40.8501 48.4236 40.8501C47.063 40.8501 45.8218 40.6103 44.7009 40.1331C43.5794 39.6549 42.6145 38.9888 41.8052 38.134C40.9964 37.2787 40.3668 36.2679 39.9161 35.0999C39.465 33.9324 39.2403 32.6589 39.2403 31.2799C39.2403 29.9382 39.465 28.6792 39.9161 27.5025C40.3668 26.3259 40.9964 25.2961 41.8052 24.4138C42.6145 23.5314 43.5842 22.8367 44.7143 22.3309C45.845 21.8256 47.0999 21.5727 48.4789 21.5727ZM68.5376 24.5874L71.5553 33.2019H65.5028L68.5376 24.5874Z" fill="#828282"/>
<path d="M106.824 21.3281C106.478 21.3281 106.162 21.3912 105.875 21.519C105.587 21.6462 105.34 21.8202 105.133 22.0384C104.925 22.2571 104.765 22.5115 104.652 22.8033C104.538 23.0945 104.481 23.4067 104.481 23.7388C104.481 24.0806 104.538 24.3947 104.652 24.6818C104.765 24.9685 104.925 25.2182 105.13 25.4303C105.335 25.6418 105.579 25.807 105.861 25.925C106.144 26.044 106.455 26.1024 106.797 26.1024C107.015 26.1024 107.222 26.0728 107.419 26.0141C107.614 25.9543 107.794 25.8785 107.958 25.785C108.122 25.692 108.264 25.5898 108.386 25.4804C108.506 25.3711 108.6 25.2648 108.668 25.1601L108.067 24.6407C108.013 24.6959 107.952 24.7607 107.886 24.8353C107.82 24.9109 107.738 24.9824 107.64 25.0508C107.542 25.1193 107.424 25.1765 107.285 25.2215C107.146 25.2674 106.979 25.2903 106.783 25.2903C106.569 25.2903 106.377 25.2486 106.206 25.1668C106.035 25.0846 105.888 24.9731 105.765 24.8315C105.643 24.6905 105.548 24.5247 105.482 24.3331C105.415 24.142 105.383 23.9373 105.383 23.7186C105.383 23.4999 105.415 23.2914 105.482 23.0937C105.548 22.8954 105.643 22.7224 105.769 22.5743C105.894 22.4266 106.045 22.3077 106.223 22.2188C106.401 22.1304 106.6 22.0863 106.824 22.0863C107.115 22.0863 107.358 22.1494 107.552 22.2771C107.745 22.4044 107.914 22.5734 108.06 22.7823L108.668 22.2427C108.577 22.1155 108.473 21.9961 108.354 21.8842C108.236 21.7723 108.1 21.6756 107.948 21.5938C107.795 21.5116 107.625 21.4473 107.439 21.3992C107.252 21.3517 107.047 21.3281 106.824 21.3281ZM83.12 21.4374V25.9931H83.9807V24.1422H85.5382V23.3766H83.9807V22.1956H86.0643V21.4374H83.12ZM87.1907 21.4374V25.9931H88.0514V21.4374H87.1907ZM89.3813 21.4374V25.9931H90.2218V22.7142L92.4484 25.9931H93.2956V21.4374H92.4552V24.6751L90.2488 21.4374H89.3813ZM96.0005 21.4374L94.2723 25.9931H95.1735L95.5701 24.839H97.2638L97.6605 25.9931H98.617L96.8881 21.4374H96.0005ZM99.548 21.4374V25.9931H100.388V22.7142L102.615 25.9931H103.462V21.4374H102.622V24.6751L100.415 21.4374H99.548ZM109.677 21.4374V25.9931H110.537V21.4374H109.677ZM113.199 21.4374L111.471 25.9931H112.372L112.769 24.839H114.463L114.859 25.9931H115.816L114.087 21.4374H113.199ZM116.561 21.4374V25.9931H119.669V25.2282H117.421V21.4374H116.561ZM96.4166 22.3595L97.0183 24.1288H95.8096L96.4166 22.3595ZM113.616 22.3595L114.217 24.1288H113.008L113.616 22.3595ZM89.9629 28.888C89.6303 28.888 89.3195 28.9507 89.0303 29.0759C88.7411 29.2006 88.4909 29.3719 88.2789 29.5886C88.0674 29.8047 87.8998 30.0585 87.7767 30.3497C87.6541 30.6409 87.5926 30.9531 87.5926 31.2853C87.5926 31.6184 87.6541 31.9303 87.7767 32.2215C87.8998 32.5133 88.0678 32.768 88.2819 32.9872C88.496 33.2054 88.7469 33.3772 89.0341 33.5029C89.3207 33.628 89.6303 33.69 89.9629 33.69C90.2955 33.69 90.6053 33.628 90.8924 33.5029C91.1791 33.3772 91.429 33.2054 91.6431 32.9872C91.8572 32.768 92.0252 32.5133 92.1483 32.2215C92.2719 31.9303 92.3332 31.6184 92.3332 31.2853C92.3332 30.9531 92.2719 30.6409 92.1483 30.3497C92.0252 30.0585 91.8572 29.8047 91.6431 29.5886C91.429 29.3719 91.1791 29.2006 90.8924 29.0759C90.6053 28.9507 90.2955 28.888 89.9629 28.888ZM85.1422 28.9022C84.7963 28.9022 84.4799 28.9654 84.1932 29.0931C83.9061 29.2203 83.659 29.3943 83.4515 29.6125C83.2441 29.8312 83.0837 30.0862 82.9703 30.3774C82.8564 30.6691 82.7989 30.9808 82.7989 31.3129C82.7989 31.6548 82.8564 31.9693 82.9703 32.256C83.0837 32.5431 83.2431 32.7924 83.4485 33.0044C83.6529 33.2159 83.897 33.3811 84.179 33.4991C84.4615 33.6182 84.774 33.6765 85.1153 33.6765C85.3335 33.6765 85.541 33.6469 85.7372 33.5882C85.9329 33.5284 86.1121 33.4527 86.2761 33.3592C86.4401 33.2662 86.5821 33.1646 86.7027 33.0553C86.8238 32.946 86.9184 32.839 86.9864 32.7342L86.3861 32.2148C86.3315 32.27 86.2709 32.3348 86.205 32.4094C86.1386 32.485 86.0569 32.5565 85.9588 32.6249C85.8612 32.6934 85.7428 32.7506 85.6033 32.7956C85.4648 32.8416 85.2968 32.8637 85.1011 32.8637C84.887 32.8637 84.6949 32.8227 84.5248 32.7409C84.3536 32.6587 84.2063 32.5479 84.0832 32.4064C83.9606 32.2654 83.8662 32.0988 83.8003 31.9072C83.7339 31.7161 83.7008 31.5114 83.7008 31.2927C83.7008 31.0741 83.7339 30.8653 83.8003 30.667C83.8662 30.4693 83.9613 30.2966 84.0869 30.1484C84.2121 30.0007 84.3634 29.8818 84.5412 29.7929C84.719 29.7045 84.919 29.6604 85.1422 29.6604C85.4335 29.6604 85.6761 29.724 85.8697 29.8513C86.0634 29.979 86.233 30.1475 86.3786 30.3564L86.9864 29.8176C86.8954 29.6898 86.7913 29.5702 86.6728 29.4583C86.5542 29.3464 86.4186 29.2504 86.2664 29.1687C86.1136 29.0864 85.9439 29.0209 85.7574 28.9733C85.5704 28.9258 85.3655 28.9022 85.1422 28.9022ZM110.57 28.9022C110.224 28.9022 109.908 28.9654 109.621 29.0931C109.334 29.2203 109.086 29.3943 108.879 29.6125C108.672 29.8312 108.512 30.0862 108.398 30.3774C108.285 30.6691 108.228 30.9808 108.228 31.3129C108.228 31.6548 108.285 31.9693 108.398 32.256C108.512 32.5431 108.671 32.7924 108.876 33.0044C109.081 33.2159 109.325 33.3811 109.607 33.4991C109.89 33.6182 110.202 33.6765 110.543 33.6765C110.762 33.6765 110.969 33.6469 111.165 33.5882C111.36 33.5284 111.541 33.4527 111.704 33.3592C111.868 33.2662 112.011 33.1646 112.131 33.0553C112.253 32.946 112.347 32.839 112.415 32.7342L111.814 32.2148C111.759 32.27 111.698 32.3348 111.633 32.4094C111.567 32.485 111.484 32.5565 111.387 32.6249C111.289 32.6934 111.171 32.7506 111.031 32.7956C110.893 32.8416 110.725 32.8637 110.53 32.8637C110.316 32.8637 110.123 32.8227 109.952 32.7409C109.781 32.6587 109.635 32.5479 109.512 32.4064C109.389 32.2654 109.294 32.0988 109.228 31.9072C109.162 31.7161 109.129 31.5114 109.129 31.2927C109.129 31.0741 109.162 30.8653 109.228 30.667C109.294 30.4693 109.39 30.2966 109.515 30.1484C109.641 30.0007 109.791 29.8818 109.969 29.7929C110.146 29.7045 110.347 29.6604 110.57 29.6604C110.861 29.6604 111.104 29.724 111.298 29.8513C111.491 29.979 111.661 30.1475 111.807 30.3564L112.415 29.8176C112.324 29.6898 112.219 29.5702 112.101 29.4583C111.982 29.3464 111.846 29.2504 111.694 29.1687C111.541 29.0864 111.372 29.0209 111.185 28.9733C110.998 28.9258 110.793 28.9022 110.57 28.9022ZM93.2477 29.0115V33.5672H94.0875V30.2883L96.3148 33.5672H97.162V29.0115H96.3216V32.2492L94.1152 29.0115H93.2477ZM98.4419 29.0115V33.5672H100.136C100.487 33.5672 100.809 33.5208 101.106 33.4273C101.401 33.3343 101.658 33.1934 101.874 33.0044C102.09 32.8154 102.259 32.5801 102.379 32.3001C102.5 32.0206 102.56 31.691 102.56 31.3129C102.56 30.917 102.502 30.5736 102.383 30.2824C102.265 29.9906 102.097 29.7511 101.884 29.5646C101.67 29.3776 101.414 29.2387 101.119 29.1477C100.823 29.0568 100.497 29.0115 100.142 29.0115H98.4419ZM103.533 29.0115V31.8862C103.533 32.1422 103.574 32.3793 103.656 32.598C103.738 32.8167 103.86 33.0056 104.018 33.1676C104.178 33.329 104.373 33.4573 104.602 33.5508C104.832 33.6437 105.095 33.6907 105.392 33.6907C105.688 33.6907 105.951 33.6437 106.181 33.5508C106.411 33.4573 106.605 33.329 106.764 33.1676C106.924 33.0056 107.044 32.8167 107.127 32.598C107.208 32.3793 107.249 32.1422 107.249 31.8862V29.0115H106.388V31.7366C106.388 31.9098 106.371 32.0659 106.337 32.2043C106.303 32.3433 106.248 32.4617 106.17 32.5598C106.093 32.6579 105.99 32.7332 105.863 32.7859C105.735 32.838 105.578 32.8637 105.392 32.8637C105.205 32.8637 105.047 32.838 104.92 32.7859C104.792 32.7332 104.69 32.6579 104.613 32.5598C104.535 32.4617 104.479 32.3433 104.445 32.2043C104.411 32.0659 104.394 31.9098 104.394 31.7366V29.0115H103.533ZM113.195 29.0115V29.7697H114.738V33.568H115.599V29.7697H117.143V29.0115H113.195ZM89.9629 29.6671C90.1862 29.6671 90.3882 29.7093 90.5706 29.7936C90.7525 29.8779 90.9077 29.993 91.0354 30.1387C91.1626 30.2843 91.2603 30.4537 91.3288 30.6468C91.3972 30.841 91.4313 31.0476 91.4313 31.2658C91.4313 31.4799 91.3972 31.6841 91.3288 31.8803C91.2603 32.0754 91.1626 32.2478 91.0354 32.3959C90.9077 32.5436 90.7525 32.6613 90.5706 32.7477C90.3882 32.8345 90.1862 32.8779 89.9629 32.8779C89.735 32.8779 89.5313 32.8345 89.3514 32.7477C89.1716 32.6613 89.0176 32.5436 88.8904 32.3959C88.7626 32.2478 88.6647 32.0754 88.5962 31.8803C88.5278 31.6841 88.4937 31.4799 88.4937 31.2658C88.4937 31.0476 88.5278 30.841 88.5962 30.6468C88.6647 30.4537 88.7626 30.2843 88.8904 30.1387C89.0176 29.993 89.1716 29.8779 89.3514 29.7936C89.5313 29.7093 89.735 29.6671 89.9629 29.6671ZM99.3018 29.7764H100.06C100.62 29.7764 101.027 29.9151 101.28 30.1925C101.533 30.471 101.659 30.8489 101.659 31.3272C101.659 31.8095 101.522 32.1763 101.248 32.4266C100.976 32.677 100.579 32.8023 100.06 32.8023H99.3018V29.7764ZM104.119 36.3574C103.787 36.3574 103.477 36.4206 103.188 36.5452C102.898 36.6704 102.648 36.8405 102.436 37.0572C102.224 37.2733 102.057 37.5278 101.934 37.8191C101.811 38.1103 101.75 38.422 101.75 38.7546C101.75 39.0872 101.811 39.3991 101.934 39.6909C102.057 39.9821 102.225 40.2366 102.439 40.4558C102.654 40.6745 102.904 40.8458 103.191 40.9714C103.477 41.0966 103.787 41.1601 104.119 41.1601C104.452 41.1601 104.762 41.0966 105.049 40.9714C105.336 40.8458 105.586 40.6745 105.8 40.4558C106.015 40.2366 106.183 39.9821 106.306 39.6909C106.43 39.3991 106.49 39.0872 106.49 38.7546C106.49 38.422 106.43 38.1103 106.306 37.8191C106.183 37.5278 106.015 37.2733 105.8 37.0572C105.586 36.8405 105.336 36.6704 105.049 36.5452C104.762 36.4206 104.452 36.3574 104.119 36.3574ZM84.2613 36.4801L82.5332 41.0366H83.4343L83.831 39.8825H85.5247L85.9214 41.0366H86.8778L85.149 36.4801H84.2613ZM87.4773 36.4801V39.3556C87.4773 39.611 87.5183 39.8484 87.6001 40.0666C87.6823 40.2853 87.8034 40.4749 87.9623 40.6369C88.1217 40.7978 88.3169 40.9258 88.5468 41.0193C88.7768 41.1123 89.0394 41.1593 89.3357 41.1593C89.6315 41.1593 89.8946 41.1123 90.1245 41.0193C90.3545 40.9258 90.5497 40.7978 90.7091 40.6369C90.8685 40.4749 90.989 40.2853 91.0713 40.0666C91.1531 39.8484 91.1933 39.611 91.1933 39.3556V36.4801H90.3326V39.2059C90.3326 39.3791 90.3159 39.5347 90.2817 39.6737C90.248 39.8121 90.1925 39.9311 90.1148 40.0292C90.0371 40.1268 89.9344 40.2018 89.8072 40.2545C89.6795 40.3066 89.5222 40.333 89.3357 40.333C89.1487 40.333 88.9914 40.3066 88.8642 40.2545C88.7365 40.2018 88.6345 40.1268 88.5573 40.0292C88.4797 39.9311 88.4239 39.8121 88.3897 39.6737C88.3555 39.5347 88.3388 39.3791 88.3388 39.2059V36.4801H87.4773ZM92.075 36.4801V37.2383H93.619V41.0366H94.4789V37.2383H96.0229V36.4801H92.075ZM96.7863 36.4801V41.0366H97.647V39.0764H99.908V41.0366H100.769V36.4801H99.908V38.3108H97.647V36.4801H96.7863ZM107.458 36.4801V41.0366H108.285V39.2403H108.933L109.856 41.0366H110.826L109.774 39.1311C110.033 38.9982 110.226 38.8219 110.352 38.6012C110.477 38.3804 110.54 38.1264 110.54 37.8393C110.54 37.6936 110.51 37.5414 110.453 37.382C110.397 37.2231 110.307 37.0755 110.184 36.9411C110.061 36.8068 109.899 36.6964 109.699 36.6096C109.499 36.5238 109.255 36.4801 108.969 36.4801H107.458ZM113.635 36.4801V37.2383H115.18V41.0366H116.04V37.2383H117.584V36.4801H113.635ZM118.12 36.4801L119.699 39.0353V41.0366H120.573V39.0353L122.151 36.4801H121.249L120.156 38.2973L119.063 36.4801H118.12ZM111.825 36.4809V41.0366H112.685V36.4809H111.825ZM104.119 37.1365C104.343 37.1365 104.546 37.1784 104.728 37.2622C104.91 37.3465 105.065 37.4617 105.192 37.6073C105.32 37.7529 105.418 37.9226 105.487 38.1162C105.555 38.3098 105.589 38.5162 105.589 38.7344C105.589 38.949 105.555 39.1534 105.487 39.3496C105.418 39.5448 105.32 39.7171 105.192 39.8653C105.065 40.0129 104.91 40.13 104.728 40.2163C104.546 40.3032 104.343 40.3465 104.119 40.3465C103.892 40.3465 103.688 40.3032 103.508 40.2163C103.328 40.13 103.175 40.0129 103.048 39.8653C102.92 39.7171 102.822 39.5448 102.754 39.3496C102.685 39.1534 102.651 38.949 102.651 38.7344C102.651 38.5162 102.685 38.3098 102.754 38.1162C102.822 37.9226 102.92 37.7529 103.048 37.6073C103.175 37.4617 103.328 37.3465 103.508 37.2622C103.688 37.1784 103.892 37.1365 104.119 37.1365ZM108.285 37.2113H108.975C109.18 37.2113 109.346 37.2723 109.474 37.3955C109.601 37.5186 109.665 37.678 109.665 37.8737C109.665 38.0556 109.604 38.2113 109.483 38.3385C109.363 38.4662 109.194 38.5293 108.975 38.5293H108.285V37.2113ZM84.6782 37.4022L85.2792 39.1715H84.0705L84.6782 37.4022Z" fill="#828282"/>
<path d="M126.311 62.0895C125.891 62.0895 125.528 61.9967 125.223 61.8111C124.92 61.6236 124.686 61.3622 124.522 61.027C124.359 60.6899 124.277 60.2978 124.277 59.8509C124.277 59.4039 124.359 59.0099 124.522 58.669C124.686 58.3262 124.916 58.0592 125.209 57.8679C125.505 57.6747 125.849 57.5781 126.243 57.5781C126.471 57.5781 126.695 57.616 126.917 57.6918C127.138 57.7675 127.34 57.8906 127.522 58.0611C127.703 58.2296 127.848 58.4531 127.956 58.7315C128.064 59.0099 128.118 59.3527 128.118 59.7599V60.044H124.755V59.4645H127.436C127.436 59.2183 127.387 58.9986 127.289 58.8054C127.192 58.6122 127.054 58.4598 126.874 58.348C126.696 58.2363 126.486 58.1804 126.243 58.1804C125.976 58.1804 125.745 58.2467 125.55 58.3793C125.357 58.5099 125.208 58.6804 125.104 58.8906C125 59.1009 124.948 59.3262 124.948 59.5668V59.9531C124.948 60.2827 125.005 60.562 125.118 60.7912C125.234 61.0185 125.394 61.1918 125.598 61.3111C125.803 61.4285 126.041 61.4872 126.311 61.4872C126.488 61.4872 126.647 61.4626 126.789 61.4134C126.933 61.3622 127.057 61.2865 127.161 61.1861C127.265 61.0838 127.346 60.9569 127.402 60.8054L128.05 60.9872C127.982 61.2069 127.867 61.4001 127.706 61.5668C127.545 61.7315 127.346 61.8603 127.11 61.9531C126.873 62.044 126.607 62.0895 126.311 62.0895Z" fill="#828282"/>
<path d="M121.637 61.9982V57.6346H122.284V58.2937H122.33C122.409 58.0778 122.553 57.9026 122.762 57.7681C122.97 57.6336 123.205 57.5664 123.466 57.5664C123.516 57.5664 123.577 57.5674 123.651 57.5692C123.725 57.5711 123.781 57.574 123.819 57.5778V58.2596C123.796 58.2539 123.744 58.2454 123.662 58.234C123.583 58.2208 123.498 58.2141 123.409 58.2141C123.197 58.2141 123.008 58.2586 122.841 58.3477C122.676 58.4348 122.546 58.556 122.449 58.7113C122.355 58.8647 122.307 59.0399 122.307 59.2369V61.9982H121.637Z" fill="#828282"/>
<path d="M119.738 60.2163V57.6367H120.409V62.0004H119.738V61.2617H119.693C119.591 61.4833 119.431 61.6718 119.216 61.8271C119 61.9805 118.727 62.0572 118.397 62.0572C118.125 62.0572 117.882 61.9975 117.67 61.8782C117.458 61.757 117.291 61.5752 117.17 61.3327C117.049 61.0884 116.988 60.7807 116.988 60.4094V57.6367H117.659V60.364C117.659 60.6822 117.748 60.936 117.926 61.1254C118.106 61.3147 118.335 61.4094 118.613 61.4094C118.78 61.4094 118.949 61.3668 119.122 61.2816C119.296 61.1964 119.442 61.0657 119.559 60.8896C119.679 60.7134 119.738 60.489 119.738 60.2163Z" fill="#828282"/>
<path d="M115.901 58.6122L115.299 58.7827C115.261 58.6823 115.205 58.5848 115.131 58.4901C115.059 58.3935 114.961 58.3139 114.836 58.2514C114.711 58.1889 114.551 58.1577 114.356 58.1577C114.089 58.1577 113.866 58.2192 113.688 58.3423C113.512 58.4635 113.424 58.6179 113.424 58.8054C113.424 58.9721 113.485 59.1037 113.606 59.2003C113.727 59.2969 113.916 59.3774 114.174 59.4418L114.822 59.6009C115.212 59.6955 115.503 59.8404 115.694 60.0355C115.885 60.2287 115.981 60.4777 115.981 60.7827C115.981 61.0327 115.909 61.2562 115.765 61.4531C115.623 61.6501 115.424 61.8054 115.168 61.919C114.913 62.0327 114.615 62.0895 114.276 62.0895C113.831 62.0895 113.463 61.9929 113.171 61.7997C112.879 61.6065 112.695 61.3243 112.617 60.9531L113.254 60.794C113.314 61.0289 113.429 61.205 113.597 61.3224C113.768 61.4399 113.99 61.4986 114.265 61.4986C114.577 61.4986 114.826 61.4323 115.009 61.2997C115.195 61.1652 115.288 61.0043 115.288 60.8168C115.288 60.6652 115.235 60.5384 115.129 60.4361C115.022 60.3319 114.86 60.2543 114.64 60.2031L113.913 60.0327C113.513 59.938 113.219 59.7912 113.032 59.5923C112.846 59.3916 112.754 59.1406 112.754 58.8395C112.754 58.5933 112.823 58.3755 112.961 58.1861C113.101 57.9967 113.291 57.848 113.532 57.7401C113.774 57.6321 114.049 57.5781 114.356 57.5781C114.788 57.5781 115.127 57.6728 115.373 57.8622C115.621 58.0516 115.797 58.3016 115.901 58.6122Z" fill="#828282"/>
<path d="M109.809 62.0895C109.415 62.0895 109.07 61.9957 108.772 61.8082C108.477 61.6207 108.246 61.3584 108.079 61.0213C107.914 60.6842 107.832 60.2902 107.832 59.8395C107.832 59.3849 107.914 58.9882 108.079 58.6491C108.246 58.3101 108.477 58.0469 108.772 57.8594C109.07 57.6719 109.415 57.5781 109.809 57.5781C110.203 57.5781 110.548 57.6719 110.843 57.8594C111.141 58.0469 111.372 58.3101 111.537 58.6491C111.703 58.9882 111.787 59.3849 111.787 59.8395C111.787 60.2902 111.703 60.6842 111.537 61.0213C111.372 61.3584 111.141 61.6207 110.843 61.8082C110.548 61.9957 110.203 62.0895 109.809 62.0895ZM109.809 61.4872C110.109 61.4872 110.355 61.4105 110.548 61.2571C110.741 61.1037 110.884 60.902 110.977 60.652C111.07 60.402 111.116 60.1312 111.116 59.8395C111.116 59.5478 111.07 59.276 110.977 59.0241C110.884 58.7723 110.741 58.5687 110.548 58.4134C110.355 58.258 110.109 58.1804 109.809 58.1804C109.51 58.1804 109.264 58.258 109.071 58.4134C108.877 58.5687 108.734 58.7723 108.642 59.0241C108.549 59.276 108.502 59.5478 108.502 59.8395C108.502 60.1312 108.549 60.402 108.642 60.652C108.734 60.902 108.877 61.1037 109.071 61.2571C109.264 61.4105 109.51 61.4872 109.809 61.4872Z" fill="#828282"/>
<path d="M106.807 56.1836V62.0018H106.137V56.1836H106.807Z" fill="#828282"/>
<path d="M103.442 62.0895C103.033 62.0895 102.681 61.9929 102.385 61.7997C102.09 61.6065 101.863 61.3404 101.703 61.0014C101.544 60.6624 101.465 60.2751 101.465 59.8395C101.465 59.3963 101.546 59.0052 101.709 58.6662C101.874 58.3253 102.103 58.0592 102.397 57.8679C102.692 57.6747 103.037 57.5781 103.431 57.5781C103.738 57.5781 104.014 57.6349 104.26 57.7486C104.507 57.8622 104.708 58.0213 104.865 58.2259C105.023 58.4304 105.12 58.669 105.158 58.9418H104.488C104.436 58.7429 104.323 58.5668 104.147 58.4134C103.972 58.258 103.738 58.1804 103.442 58.1804C103.181 58.1804 102.952 58.2486 102.755 58.3849C102.56 58.5194 102.407 58.7098 102.297 58.956C102.189 59.2003 102.135 59.4872 102.135 59.8168C102.135 60.1539 102.188 60.4474 102.294 60.6974C102.402 60.9474 102.554 61.1416 102.749 61.2798C102.946 61.4181 103.177 61.4872 103.442 61.4872C103.616 61.4872 103.775 61.4569 103.917 61.3963C104.059 61.3357 104.179 61.2486 104.277 61.1349C104.376 61.0213 104.446 60.8849 104.488 60.7259H105.158C105.12 60.9834 105.026 61.2154 104.877 61.4219C104.729 61.6264 104.533 61.7893 104.289 61.9105C104.046 62.0298 103.764 62.0895 103.442 62.0895Z" fill="#828282"/>
<path d="M100.581 58.6122L99.9787 58.7827C99.9408 58.6823 99.8849 58.5848 99.8111 58.4901C99.7391 58.3935 99.6406 58.3139 99.5156 58.2514C99.3906 58.1889 99.2306 58.1577 99.0355 58.1577C98.7685 58.1577 98.5459 58.2192 98.3679 58.3423C98.1918 58.4635 98.1037 58.6179 98.1037 58.8054C98.1037 58.9721 98.1643 59.1037 98.2855 59.2003C98.4067 59.2969 98.5961 59.3774 98.8537 59.4418L99.5014 59.6009C99.8916 59.6955 100.182 59.8404 100.374 60.0355C100.565 60.2287 100.661 60.4777 100.661 60.7827C100.661 61.0327 100.589 61.2562 100.445 61.4531C100.303 61.6501 100.104 61.8054 99.848 61.919C99.5923 62.0327 99.295 62.0895 98.956 62.0895C98.5109 62.0895 98.1425 61.9929 97.8509 61.7997C97.5592 61.6065 97.3745 61.3243 97.2969 60.9531L97.9332 60.794C97.9938 61.0289 98.1084 61.205 98.277 61.3224C98.4474 61.4399 98.67 61.4986 98.9446 61.4986C99.2571 61.4986 99.5052 61.4323 99.6889 61.2997C99.8745 61.1652 99.9673 61.0043 99.9673 60.8168C99.9673 60.6652 99.9143 60.5384 99.8082 60.4361C99.7022 60.3319 99.5393 60.2543 99.3196 60.2031L98.5923 60.0327C98.1927 59.938 97.8991 59.7912 97.7116 59.5923C97.526 59.3916 97.4332 59.1406 97.4332 58.8395C97.4332 58.5933 97.5024 58.3755 97.6406 58.1861C97.7808 57.9967 97.9711 57.848 98.2116 57.7401C98.4541 57.6321 98.7287 57.5781 99.0355 57.5781C99.4673 57.5781 99.8063 57.6728 100.053 57.8622C100.301 58.0516 100.477 58.3016 100.581 58.6122Z" fill="#828282"/>
<path d="M95.5914 62V57.6364H96.2619V62H95.5914ZM95.9324 56.9091C95.8017 56.9091 95.689 56.8646 95.5943 56.7756C95.5015 56.6866 95.4551 56.5795 95.4551 56.4545C95.4551 56.3295 95.5015 56.2225 95.5943 56.1335C95.689 56.0445 95.8017 56 95.9324 56C96.063 56 96.1748 56.0445 96.2676 56.1335C96.3623 56.2225 96.4096 56.3295 96.4096 56.4545C96.4096 56.5795 96.3623 56.6866 96.2676 56.7756C96.1748 56.8646 96.063 56.9091 95.9324 56.9091Z" fill="#828282"/>
<path d="M91.7271 62.0018H89.9316V56.1836H91.8066C92.371 56.1836 92.854 56.3001 93.2555 56.533C93.657 56.7641 93.9648 57.0965 94.1788 57.5302C94.3928 57.962 94.4998 58.479 94.4998 59.0813C94.4998 59.6874 94.3919 60.2092 94.176 60.6467C93.9601 61.0823 93.6457 61.4175 93.2328 61.6523C92.8199 61.8853 92.318 62.0018 91.7271 62.0018ZM90.6362 61.3768H91.6816C92.1627 61.3768 92.5614 61.284 92.8777 61.0984C93.194 60.9128 93.4297 60.6486 93.5851 60.3058C93.7404 59.9629 93.818 59.5548 93.818 59.0813C93.818 58.6116 93.7413 58.2073 93.5879 57.8683C93.4345 57.5273 93.2053 57.266 92.9004 57.0842C92.5955 56.9004 92.2157 56.8086 91.7612 56.8086H90.6362V61.3768Z" fill="#828282"/>
<path d="M84.7646 62.0895C84.3441 62.0895 83.9814 61.9967 83.6765 61.8111C83.3735 61.6236 83.1396 61.3622 82.9748 61.027C82.8119 60.6899 82.7305 60.2978 82.7305 59.8509C82.7305 59.4039 82.8119 59.0099 82.9748 58.669C83.1396 58.3262 83.3687 58.0592 83.6623 57.8679C83.9577 57.6747 84.3024 57.5781 84.6964 57.5781C84.9236 57.5781 85.1481 57.616 85.3697 57.6918C85.5913 57.7675 85.793 57.8906 85.9748 58.0611C86.1566 58.2296 86.3015 58.4531 86.4094 58.7315C86.5174 59.0099 86.5714 59.3527 86.5714 59.7599V60.044H83.2077V59.4645H85.8896C85.8896 59.2183 85.8403 58.9986 85.7418 58.8054C85.6452 58.6122 85.507 58.4598 85.3271 58.348C85.149 58.2363 84.9388 58.1804 84.6964 58.1804C84.4293 58.1804 84.1983 58.2467 84.0032 58.3793C83.81 58.5099 83.6613 58.6804 83.5572 58.8906C83.453 59.1009 83.4009 59.3262 83.4009 59.5668V59.9531C83.4009 60.2827 83.4577 60.562 83.5714 60.7912C83.6869 61.0185 83.8469 61.1918 84.0515 61.3111C84.256 61.4285 84.4937 61.4872 84.7646 61.4872C84.9407 61.4872 85.0998 61.4626 85.2418 61.4134C85.3858 61.3622 85.5098 61.2865 85.614 61.1861C85.7182 61.0838 85.7986 60.9569 85.8555 60.8054L86.5032 60.9872C86.435 61.2069 86.3204 61.4001 86.1594 61.5668C85.9985 61.7315 85.7996 61.8603 85.5629 61.9531C85.3261 62.044 85.06 62.0895 84.7646 62.0895Z" fill="#828282"/>
<path d="M78.0586 63.6349V57.6349H78.7063V58.3281H78.7859C78.8351 58.2524 78.9033 58.1558 78.9904 58.0384C79.0794 57.919 79.2063 57.813 79.3711 57.7202C79.5378 57.6255 79.7631 57.5781 80.0472 57.5781C80.4147 57.5781 80.7385 57.67 81.0188 57.8537C81.2991 58.0374 81.5179 58.2978 81.6751 58.6349C81.8323 58.9721 81.9109 59.3698 81.9109 59.8281C81.9109 60.2902 81.8323 60.6908 81.6751 61.0298C81.5179 61.367 81.3001 61.6283 81.0217 61.8139C80.7433 61.9976 80.4222 62.0895 80.0586 62.0895C79.7783 62.0895 79.5539 62.0431 79.3853 61.9503C79.2167 61.8556 79.087 61.7486 78.9961 61.6293C78.9052 61.508 78.8351 61.4077 78.7859 61.3281H78.729V63.6349H78.0586ZM78.7177 59.8168C78.7177 60.1463 78.766 60.437 78.8626 60.6889C78.9592 60.9389 79.1003 61.1349 79.2859 61.277C79.4715 61.4171 79.6987 61.4872 79.9677 61.4872C80.248 61.4872 80.4819 61.4134 80.6694 61.2656C80.8588 61.116 81.0008 60.9152 81.0955 60.6634C81.1921 60.4096 81.2404 60.1274 81.2404 59.8168C81.2404 59.5099 81.1931 59.2334 81.0984 58.9872C81.0056 58.7391 80.8645 58.5431 80.6751 58.3991C80.4876 58.2533 80.2518 58.1804 79.9677 58.1804C79.695 58.1804 79.4658 58.2495 79.2802 58.3878C79.0946 58.5241 78.9544 58.7154 78.8597 58.9616C78.765 59.206 78.7177 59.491 78.7177 59.8168Z" fill="#828282"/>
<path d="M75.0593 62.0895C74.6654 62.0895 74.3197 61.9957 74.0224 61.8082C73.7269 61.6207 73.4959 61.3584 73.3292 61.0213C73.1644 60.6842 73.082 60.2902 73.082 59.8395C73.082 59.3849 73.1644 58.9882 73.3292 58.6491C73.4959 58.3101 73.7269 58.0469 74.0224 57.8594C74.3197 57.6719 74.6654 57.5781 75.0593 57.5781C75.4532 57.5781 75.7979 57.6719 76.0934 57.8594C76.3907 58.0469 76.6218 58.3101 76.7866 58.6491C76.9532 58.9882 77.0366 59.3849 77.0366 59.8395C77.0366 60.2902 76.9532 60.6842 76.7866 61.0213C76.6218 61.3584 76.3907 61.6207 76.0934 61.8082C75.7979 61.9957 75.4532 62.0895 75.0593 62.0895ZM75.0593 61.4872C75.3585 61.4872 75.6048 61.4105 75.7979 61.2571C75.9911 61.1037 76.1341 60.902 76.2269 60.652C76.3197 60.402 76.3661 60.1312 76.3661 59.8395C76.3661 59.5478 76.3197 59.276 76.2269 59.0241C76.1341 58.7723 75.9911 58.5687 75.7979 58.4134C75.6048 58.258 75.3585 58.1804 75.0593 58.1804C74.7601 58.1804 74.5138 58.258 74.3207 58.4134C74.1275 58.5687 73.9845 58.7723 73.8917 59.0241C73.7989 59.276 73.7525 59.5478 73.7525 59.8395C73.7525 60.1312 73.7989 60.402 73.8917 60.652C73.9845 60.902 74.1275 61.1037 74.3207 61.2571C74.5138 61.4105 74.7601 61.4872 75.0593 61.4872Z" fill="#828282"/>
<path d="M70.5906 62.0895C70.1815 62.0895 69.8292 61.9929 69.5337 61.7997C69.2383 61.6065 69.011 61.3404 68.8519 61.0014C68.6928 60.6624 68.6133 60.2751 68.6133 59.8395C68.6133 59.3963 68.6947 59.0052 68.8576 58.6662C69.0224 58.3253 69.2515 58.0592 69.5451 57.8679C69.8406 57.6747 70.1852 57.5781 70.5792 57.5781C70.886 57.5781 71.1625 57.6349 71.4087 57.7486C71.6549 57.8622 71.8567 58.0213 72.0138 58.2259C72.171 58.4304 72.2686 58.669 72.3065 58.9418H71.636C71.5849 58.7429 71.4712 58.5668 71.2951 58.4134C71.1209 58.258 70.886 58.1804 70.5906 58.1804C70.3292 58.1804 70.1 58.2486 69.9031 58.3849C69.708 58.5194 69.5555 58.7098 69.4457 58.956C69.3377 59.2003 69.2837 59.4872 69.2837 59.8168C69.2837 60.1539 69.3368 60.4474 69.4428 60.6974C69.5508 60.9474 69.7023 61.1416 69.8974 61.2798C70.0943 61.4181 70.3254 61.4872 70.5906 61.4872C70.7648 61.4872 70.9229 61.4569 71.065 61.3963C71.207 61.3357 71.3273 61.2486 71.4258 61.1349C71.5243 61.0213 71.5943 60.8849 71.636 60.7259H72.3065C72.2686 60.9834 72.1748 61.2154 72.0252 61.4219C71.8775 61.6264 71.6815 61.7893 71.4371 61.9105C71.1947 62.0298 70.9125 62.0895 70.5906 62.0895Z" fill="#828282"/>
<path d="M66.9885 57.6357C66.9544 57.3478 66.8161 57.1243 66.5737 56.9652C66.3313 56.8061 66.0339 56.7266 65.6816 56.7266C65.4241 56.7266 65.1987 56.7682 65.0055 56.8516C64.8142 56.9349 64.6646 57.0495 64.5566 57.1953C64.4506 57.3411 64.3976 57.5069 64.3976 57.6925C64.3976 57.8478 64.4345 57.9813 64.5083 58.093C64.5841 58.2029 64.6807 58.2947 64.7981 58.3686C64.9155 58.4406 65.0387 58.5002 65.1674 58.5476C65.2962 58.593 65.4146 58.63 65.5226 58.6584L66.1135 58.8175C66.265 58.8572 66.4335 58.9122 66.6191 58.9822C66.8066 59.0523 66.9856 59.148 67.1561 59.2692C67.3284 59.3885 67.4705 59.5419 67.5822 59.7294C67.694 59.9169 67.7498 60.147 67.7498 60.4197C67.7498 60.7341 67.6674 61.0182 67.5027 61.272C67.3398 61.5258 67.1011 61.7275 66.7868 61.8771C66.4743 62.0268 66.0945 62.1016 65.6476 62.1016C65.2309 62.1016 64.8701 62.0343 64.5652 61.8999C64.2621 61.7654 64.0235 61.5779 63.8493 61.3374C63.6769 61.0968 63.5794 60.8175 63.5566 60.4993H64.2839C64.3029 60.719 64.3767 60.9008 64.5055 61.0447C64.6362 61.1868 64.801 61.2929 64.9998 61.3629C65.2006 61.4311 65.4165 61.4652 65.6476 61.4652C65.9165 61.4652 66.158 61.4216 66.372 61.3345C66.586 61.2455 66.7555 61.1224 66.8805 60.9652C67.0055 60.8061 67.068 60.6205 67.068 60.4084C67.068 60.2152 67.014 60.058 66.9061 59.9368C66.7981 59.8156 66.6561 59.7171 66.4799 59.6413C66.3038 59.5656 66.1135 59.4993 65.9089 59.4425L65.193 59.2379C64.7385 59.1072 64.3786 58.9207 64.1135 58.6783C63.8483 58.4358 63.7157 58.1186 63.7157 57.7266C63.7157 57.4008 63.8038 57.1167 63.9799 56.8743C64.158 56.63 64.3966 56.4406 64.6958 56.3061C64.997 56.1697 65.3332 56.1016 65.7044 56.1016C66.0794 56.1016 66.4127 56.1688 66.7044 56.3033C66.996 56.4358 67.2271 56.6177 67.3976 56.8487C67.5699 57.0798 67.6608 57.3421 67.6703 57.6357H66.9885Z" fill="#828282"/>
<path d="M57.4446 63.6367C57.331 63.6367 57.2296 63.6272 57.1406 63.6083C57.0516 63.5913 56.9901 63.5742 56.956 63.5572L57.1264 62.9663C57.2893 63.0079 57.4332 63.0231 57.5582 63.0117C57.6832 63.0004 57.794 62.9445 57.8906 62.8441C57.9891 62.7456 58.0791 62.5856 58.1605 62.364L58.2855 62.0231L56.6719 57.6367H57.3991L58.6037 61.114H58.6491L59.8537 57.6367H60.581L58.7287 62.6367C58.6454 62.8621 58.5421 63.0487 58.419 63.1964C58.2959 63.346 58.1529 63.4568 57.9901 63.5288C57.8291 63.6007 57.6473 63.6367 57.4446 63.6367Z" fill="#828282"/>
<path d="M53.9023 61.9982V57.6346H54.5501V58.2937H54.5955C54.6751 58.0778 54.819 57.9026 55.0273 57.7681C55.2357 57.6336 55.4705 57.5664 55.7319 57.5664C55.7811 57.5664 55.8427 57.5674 55.9165 57.5692C55.9904 57.5711 56.0463 57.574 56.0842 57.5778V58.2596C56.0614 58.2539 56.0094 58.2454 55.9279 58.234C55.8484 58.2208 55.7641 58.2141 55.6751 58.2141C55.463 58.2141 55.2736 58.2586 55.1069 58.3477C54.9421 58.4348 54.8114 58.556 54.7148 58.7113C54.6201 58.8647 54.5728 59.0399 54.5728 59.2369V61.9982H53.9023Z" fill="#828282"/>
<path d="M50.9031 62.0895C50.5091 62.0895 50.1635 61.9957 49.8661 61.8082C49.5707 61.6207 49.3396 61.3584 49.1729 61.0213C49.0082 60.6842 48.9258 60.2902 48.9258 59.8395C48.9258 59.3849 49.0082 58.9882 49.1729 58.6491C49.3396 58.3101 49.5707 58.0469 49.8661 57.8594C50.1635 57.6719 50.5091 57.5781 50.9031 57.5781C51.297 57.5781 51.6417 57.6719 51.9371 57.8594C52.2345 58.0469 52.4656 58.3101 52.6303 58.6491C52.797 58.9882 52.8803 59.3849 52.8803 59.8395C52.8803 60.2902 52.797 60.6842 52.6303 61.0213C52.4656 61.3584 52.2345 61.6207 51.9371 61.8082C51.6417 61.9957 51.297 62.0895 50.9031 62.0895ZM50.9031 61.4872C51.2023 61.4872 51.4485 61.4105 51.6417 61.2571C51.8349 61.1037 51.9779 60.902 52.0707 60.652C52.1635 60.402 52.2099 60.1312 52.2099 59.8395C52.2099 59.5478 52.1635 59.276 52.0707 59.0241C51.9779 58.7723 51.8349 58.5687 51.6417 58.4134C51.4485 58.258 51.2023 58.1804 50.9031 58.1804C50.6038 58.1804 50.3576 58.258 50.1644 58.4134C49.9712 58.5687 49.8282 58.7723 49.7354 59.0241C49.6426 59.276 49.5962 59.5478 49.5962 59.8395C49.5962 60.1312 49.6426 60.402 49.7354 60.652C49.8282 60.902 49.9712 61.1037 50.1644 61.2571C50.3576 61.4105 50.6038 61.4872 50.9031 61.4872Z" fill="#828282"/>
<path d="M48.1676 57.6353V58.2035H45.9062V57.6353H48.1676ZM46.5653 56.5898H47.2358V60.7489C47.2358 60.9383 47.2633 61.0804 47.3182 61.1751C47.375 61.2679 47.447 61.3304 47.5341 61.3626C47.6231 61.3929 47.7169 61.408 47.8153 61.408C47.8892 61.408 47.9498 61.4042 47.9972 61.3967C48.0445 61.3872 48.0824 61.3796 48.1108 61.3739L48.2472 61.9762C48.2017 61.9933 48.1383 62.0103 48.0568 62.0273C47.9754 62.0463 47.8722 62.0558 47.7472 62.0558C47.5578 62.0558 47.3722 62.015 47.1903 61.9336C47.0104 61.8522 46.8608 61.7281 46.7415 61.5614C46.6241 61.3948 46.5653 61.1845 46.5653 60.9308V56.5898Z" fill="#828282"/>
<path d="M43.0472 62.1009C42.7707 62.1009 42.5198 62.0488 42.2944 61.9446C42.069 61.8385 41.89 61.6861 41.7575 61.4872C41.6249 61.2865 41.5586 61.044 41.5586 60.7599C41.5586 60.5099 41.6078 60.3073 41.7063 60.152C41.8048 59.9948 41.9364 59.8717 42.1012 59.7827C42.266 59.6937 42.4478 59.6274 42.6467 59.5838C42.8474 59.5384 43.0491 59.5024 43.2518 59.4759C43.5169 59.4418 43.7319 59.4162 43.8967 59.3991C44.0633 59.3802 44.1845 59.349 44.2603 59.3054C44.338 59.2618 44.3768 59.1861 44.3768 59.0781V59.0554C44.3768 58.7751 44.3001 58.5573 44.1467 58.402C43.9951 58.2467 43.765 58.169 43.4563 58.169C43.1362 58.169 42.8853 58.2391 42.7035 58.3793C42.5217 58.5194 42.3938 58.669 42.32 58.8281L41.6836 58.6009C41.7972 58.3357 41.9487 58.1293 42.1381 57.9815C42.3294 57.8319 42.5378 57.7277 42.7631 57.669C42.9904 57.6084 43.2139 57.5781 43.4336 57.5781C43.5737 57.5781 43.7347 57.5952 43.9165 57.6293C44.1003 57.6615 44.2773 57.7287 44.4478 57.831C44.6201 57.9332 44.7631 58.0876 44.8768 58.294C44.9904 58.5005 45.0472 58.777 45.0472 59.1236V61.9986H44.3768V61.4077H44.3427C44.2972 61.5024 44.2215 61.6037 44.1154 61.7116C44.0094 61.8196 43.8683 61.9115 43.6921 61.9872C43.516 62.063 43.301 62.1009 43.0472 62.1009ZM43.1495 61.4986C43.4147 61.4986 43.6381 61.4465 43.82 61.3423C44.0037 61.2382 44.1419 61.1037 44.2347 60.9389C44.3294 60.7741 44.3768 60.6009 44.3768 60.419V59.8054C44.3484 59.8395 44.2859 59.8707 44.1893 59.8991C44.0946 59.9257 43.9847 59.9493 43.8597 59.9702C43.7366 59.9891 43.6164 60.0062 43.4989 60.0213C43.3834 60.0346 43.2897 60.0459 43.2177 60.0554C43.0434 60.0781 42.8806 60.1151 42.729 60.1662C42.5794 60.2154 42.4582 60.2902 42.3654 60.3906C42.2745 60.4891 42.229 60.6236 42.229 60.794C42.229 61.027 42.3152 61.2031 42.4876 61.3224C42.6618 61.4399 42.8825 61.4986 43.1495 61.4986Z" fill="#828282"/>
<path d="M40.5337 56.1836V62.0018H39.8633V56.1836H40.5337Z" fill="#828282"/>
<path d="M37.9648 60.2163V57.6367H38.6353V62.0004H37.9648V61.2617H37.9194C37.8171 61.4833 37.658 61.6718 37.4421 61.8271C37.2262 61.9805 36.9535 62.0572 36.6239 62.0572C36.3512 62.0572 36.1088 61.9975 35.8967 61.8782C35.6845 61.757 35.5179 61.5752 35.3967 61.3327C35.2755 61.0884 35.2148 60.7807 35.2148 60.4094V57.6367H35.8853V60.364C35.8853 60.6822 35.9743 60.936 36.1523 61.1254C36.3323 61.3147 36.5614 61.4094 36.8398 61.4094C37.0065 61.4094 37.176 61.3668 37.3484 61.2816C37.5226 61.1964 37.6684 61.0657 37.7859 60.8896C37.9052 60.7134 37.9648 60.489 37.9648 60.2163Z" fill="#828282"/>
<path d="M32.1026 63.7259C31.7788 63.7259 31.5004 63.6842 31.2674 63.6009C31.0344 63.5194 30.8403 63.4115 30.685 63.277C30.5316 63.1444 30.4094 63.0024 30.3185 62.8509L30.8526 62.4759C30.9132 62.5554 30.9899 62.6463 31.0827 62.7486C31.1755 62.8527 31.3024 62.9427 31.4634 63.0185C31.6263 63.0961 31.8394 63.1349 32.1026 63.1349C32.4549 63.1349 32.7456 63.0497 32.9748 62.8793C33.204 62.7088 33.3185 62.4418 33.3185 62.0781V61.1918H33.2617C33.2125 61.2713 33.1424 61.3698 33.0515 61.4872C32.9625 61.6027 32.8337 61.706 32.6651 61.7969C32.4985 61.8859 32.2731 61.9304 31.989 61.9304C31.6367 61.9304 31.3204 61.8471 31.0401 61.6804C30.7617 61.5137 30.5411 61.2713 30.3782 60.9531C30.2172 60.6349 30.1367 60.2486 30.1367 59.794C30.1367 59.3471 30.2153 58.9579 30.3725 58.6264C30.5297 58.2931 30.7485 58.0355 31.0288 57.8537C31.3091 57.67 31.6329 57.5781 32.0004 57.5781C32.2844 57.5781 32.5098 57.6255 32.6765 57.7202C32.8451 57.813 32.9738 57.919 33.0629 58.0384C33.1538 58.1558 33.2238 58.2524 33.2731 58.3281H33.3413V57.6349H33.989V62.1236C33.989 62.4986 33.9038 62.8035 33.7333 63.0384C33.5647 63.2751 33.3375 63.4484 33.0515 63.5582C32.7674 63.67 32.4511 63.7259 32.1026 63.7259ZM32.0799 61.3281C32.3488 61.3281 32.5761 61.2666 32.7617 61.1435C32.9473 61.0204 33.0884 60.8433 33.185 60.6122C33.2816 60.3812 33.3299 60.1046 33.3299 59.7827C33.3299 59.4683 33.2826 59.1908 33.1879 58.9503C33.0932 58.7098 32.953 58.5213 32.7674 58.3849C32.5818 58.2486 32.3526 58.1804 32.0799 58.1804C31.7958 58.1804 31.5591 58.2524 31.3697 58.3963C31.1822 58.5402 31.0411 58.7334 30.9464 58.9759C30.8536 59.2183 30.8072 59.4872 30.8072 59.7827C30.8072 60.0857 30.8545 60.3537 30.9492 60.5866C31.0458 60.8177 31.1879 60.9995 31.3754 61.1321C31.5647 61.2628 31.7996 61.3281 32.0799 61.3281Z" fill="#828282"/>
<path d="M27.5146 62.0895C27.0941 62.0895 26.7314 61.9967 26.4265 61.8111C26.1235 61.6236 25.8896 61.3622 25.7248 61.027C25.5619 60.6899 25.4805 60.2978 25.4805 59.8509C25.4805 59.4039 25.5619 59.0099 25.7248 58.669C25.8896 58.3262 26.1187 58.0592 26.4123 57.8679C26.7077 57.6747 27.0524 57.5781 27.4464 57.5781C27.6737 57.5781 27.8981 57.616 28.1197 57.6918C28.3413 57.7675 28.543 57.8906 28.7248 58.0611C28.9066 58.2296 29.0515 58.4531 29.1594 58.7315C29.2674 59.0099 29.3214 59.3527 29.3214 59.7599V60.044H25.9577V59.4645H28.6396C28.6396 59.2183 28.5903 58.9986 28.4918 58.8054C28.3952 58.6122 28.257 58.4598 28.0771 58.348C27.899 58.2363 27.6888 58.1804 27.4464 58.1804C27.1793 58.1804 26.9483 58.2467 26.7532 58.3793C26.56 58.5099 26.4113 58.6804 26.3072 58.8906C26.203 59.1009 26.1509 59.3262 26.1509 59.5668V59.9531C26.1509 60.2827 26.2077 60.562 26.3214 60.7912C26.4369 61.0185 26.5969 61.1918 26.8015 61.3111C27.006 61.4285 27.2437 61.4872 27.5146 61.4872C27.6907 61.4872 27.8498 61.4626 27.9918 61.4134C28.1358 61.3622 28.2598 61.2865 28.364 61.1861C28.4682 61.0838 28.5487 60.9569 28.6055 60.8054L29.2532 60.9872C29.185 61.2069 29.0704 61.4001 28.9094 61.5668C28.7485 61.7315 28.5496 61.8603 28.3129 61.9531C28.0761 62.044 27.81 62.0895 27.5146 62.0895Z" fill="#828282"/>
<path d="M20.7051 62.0018V56.1836H22.671C23.1255 56.1836 23.4986 56.2612 23.7903 56.4165C24.082 56.57 24.2979 56.7811 24.438 57.0501C24.5782 57.319 24.6483 57.6249 24.6483 57.9677C24.6483 58.3105 24.5782 58.6145 24.438 58.8796C24.2979 59.1448 24.0829 59.3531 23.7931 59.5046C23.5034 59.6542 23.1331 59.729 22.6824 59.729H21.0914V59.0927H22.6596C22.9702 59.0927 23.2202 59.0472 23.4096 58.9563C23.6009 58.8654 23.7392 58.7366 23.8244 58.57C23.9115 58.4014 23.9551 58.2006 23.9551 57.9677C23.9551 57.7347 23.9115 57.5311 23.8244 57.3569C23.7373 57.1826 23.5981 57.0482 23.4068 56.9535C23.2155 56.8569 22.9627 56.8086 22.6483 56.8086H21.4096V62.0018H20.7051ZM23.4437 59.3881L24.8755 62.0018H24.0574L22.6483 59.3881H23.4437Z" fill="#828282"/>
</g>
<defs>
<clipPath id="clip0_8326_284">
<rect width="146" height="76" fill="white"/>
</clipPath>
</defs>
</svg>
