<svg width="146" height="76" viewBox="0 0 146 76" fill="none" xmlns="http://www.w3.org/2000/svg">
<g clip-path="url(#clip0_8326_571)">
<mask id="mask0_8326_571" style="mask-type:luminance" maskUnits="userSpaceOnUse" x="0" y="0" width="146" height="76">
<path d="M146 0H0V76H146V0Z" fill="white"/>
</mask>
<g mask="url(#mask0_8326_571)">
<path d="M137.193 0.929688H9.68991C4.99631 0.929688 1.19141 4.7346 1.19141 9.42819V66.9312C1.19141 71.6248 4.99631 75.4297 9.68991 75.4297H137.193C141.887 75.4297 145.691 71.6248 145.691 66.9312V9.42819C145.691 4.7346 141.887 0.929688 137.193 0.929688Z" stroke="#828282" stroke-width="0.5"/>
<mask id="mask1_8326_571" style="mask-type:luminance" maskUnits="userSpaceOnUse" x="23" y="21" width="100" height="34">
<path d="M123 21H23V54.4466H123V21Z" fill="white"/>
</mask>
<g mask="url(#mask1_8326_571)">
<path d="M54.2218 46.2821H52.5572C52.5186 46.089 52.4995 45.8926 52.5 45.6957C52.5002 45.5053 52.5193 45.3155 52.5572 45.1289H57.2541C57.2914 45.3155 57.3099 45.5054 57.3095 45.6957C57.3106 45.8925 57.2921 46.089 57.2541 46.2821H55.5895V51.8247C55.4769 51.8354 55.366 51.8479 55.2534 51.8568C55.1408 51.8658 55.0335 51.8711 54.928 51.8711C54.8225 51.8711 54.7099 51.8711 54.5883 51.8604C54.4667 51.8497 54.3451 51.8425 54.2218 51.8247V46.2821Z" fill="#828282"/>
<path d="M56.3775 34.5434C55.9492 34.3835 55.5343 34.1898 55.1367 33.9641C54.7863 33.7655 54.4705 33.5113 54.2016 33.2114C53.9351 32.9046 53.731 32.5487 53.6009 32.1637C53.4515 31.6904 53.3821 31.1955 53.3953 30.6994C53.3828 30.07 53.5047 29.4452 53.7529 28.8668C53.9804 28.3506 54.325 27.8945 54.7595 27.5348C55.2187 27.1618 55.7483 26.8851 56.3168 26.7212C56.9844 26.5297 57.6765 26.4369 58.3711 26.4459C59.0233 26.4401 59.6744 26.5 60.3145 26.6247C60.9598 26.7614 61.5953 26.9406 62.2169 27.1611C62.1309 27.9667 61.9109 28.7523 61.5661 29.4854L60.9457 29.2422C60.727 29.1575 60.5023 29.0894 60.2734 29.0384C60.0084 28.98 59.7404 28.9358 59.4706 28.9061C59.1327 28.8704 58.7931 28.8537 58.4533 28.856C58.2178 28.8561 57.9827 28.8765 57.7507 28.9168C57.5258 28.9532 57.3092 29.0288 57.1106 29.1403C56.9152 29.2555 56.7536 29.4202 56.6422 29.6177C56.5118 29.8722 56.4501 30.1563 56.4634 30.4419C56.4548 30.6772 56.5039 30.9111 56.6064 31.1231C56.6998 31.3053 56.8315 31.4651 56.9926 31.5915C57.1599 31.7197 57.3432 31.8255 57.5379 31.9062C57.7417 31.9938 57.9438 32.085 58.1476 32.1601L59.3687 32.6285C59.8836 32.8324 60.3515 33.0421 60.7722 33.2579C61.1746 33.4605 61.5378 33.7329 61.845 34.0624C62.1433 34.4013 62.3706 34.7964 62.5137 35.2246C62.6934 35.7687 62.7786 36.3395 62.7658 36.9124C62.7737 37.5624 62.6451 38.2068 62.3885 38.804C62.1418 39.3682 61.7701 39.8689 61.3015 40.2683C60.7832 40.6991 60.1855 41.0241 59.5422 41.2248C58.7611 41.4641 57.947 41.5776 57.1303 41.561C56.6833 41.561 56.2828 41.5484 55.9306 41.5198C55.5927 41.4956 55.2566 41.4514 54.924 41.3875C54.6048 41.327 54.2891 41.2494 53.9782 41.1551C53.6659 41.0598 53.3405 40.9441 53.002 40.8083C53.0464 40.3933 53.1211 39.9822 53.2254 39.5782C53.3339 39.1503 53.4626 38.72 53.6116 38.2873C54.1336 38.5019 54.6717 38.6753 55.2208 38.8058C55.7487 38.9256 56.2885 38.9855 56.8299 38.9846C57.6845 38.9846 58.3556 38.8254 58.8431 38.5072C59.3306 38.189 59.5749 37.7044 59.5761 37.0536C59.5835 36.7714 59.5221 36.4916 59.3973 36.2383C59.2859 36.0278 59.134 35.8412 58.9504 35.6894C58.761 35.5375 58.5524 35.4113 58.3299 35.314C58.0987 35.2127 57.8603 35.1143 57.6148 35.019L56.3775 34.5434Z" fill="#828282"/>
<path d="M64.9004 26.6914H73.1999C73.2809 27.1 73.3216 27.5156 73.3215 27.9322C73.3229 28.3619 73.2821 28.7906 73.1999 29.2124H67.8773V32.3859H72.1093C72.1883 32.8021 72.229 33.2246 72.2309 33.6482C72.2309 34.0778 72.1902 34.5064 72.1093 34.9283H67.8773V38.7938H73.3501C73.431 39.2025 73.4718 39.6181 73.4717 40.0346C73.4729 40.4649 73.4322 40.8942 73.3501 41.3166H64.9004V26.6914Z" fill="#828282"/>
<path d="M85.3635 38.5525C85.5394 38.9303 85.6859 39.3213 85.8015 39.7218C85.916 40.1184 86.0009 40.523 86.0554 40.9322C85.4383 41.1656 84.7991 41.3358 84.1477 41.4399C83.5446 41.5235 82.9364 41.5641 82.3276 41.5615C81.2868 41.5849 80.2523 41.3944 79.2881 41.0019C78.4502 40.6519 77.7026 40.1164 77.1015 39.4357C76.4971 38.7401 76.0436 37.9268 75.7695 37.047C75.4628 36.0732 75.3114 35.0571 75.3207 34.0362C75.3165 33.0089 75.4795 31.9877 75.8035 31.0128C76.091 30.1279 76.551 29.3088 77.1569 28.6027C77.7549 27.9185 78.4984 27.3766 79.3328 27.0168C80.2618 26.6227 81.2632 26.4284 82.2721 26.4465C82.8744 26.4435 83.4762 26.4841 84.0726 26.568C84.6835 26.6683 85.2806 26.8399 85.8516 27.0794C85.8243 27.4848 85.7425 27.8848 85.6084 28.2684C85.4725 28.6569 85.3229 29.0473 85.1596 29.4394C84.7484 29.2935 84.3271 29.1776 83.8991 29.0926C83.4692 29.0194 83.0336 28.9853 82.5975 28.9907C81.2959 28.9907 80.2959 29.4144 79.5974 30.2619C78.8989 31.1094 78.5497 32.3675 78.5497 34.0362C78.5497 37.3438 79.9532 38.9982 82.7602 38.9994C83.2028 39.0041 83.6449 38.97 84.0815 38.8975C84.517 38.8153 84.9456 38.7 85.3635 38.5525Z" fill="#828282"/>
<path d="M88.1914 26.6918C88.4402 26.6518 88.6908 26.6243 88.9423 26.6095C89.1873 26.597 89.4376 26.5898 89.695 26.5898C89.9525 26.5898 90.1635 26.5898 90.4102 26.6095C90.6569 26.6292 90.9037 26.6506 91.1629 26.6918V34.2779C91.1576 34.9876 91.1881 35.6971 91.2541 36.4037C91.2928 36.909 91.4167 37.4041 91.6206 37.868C91.7787 38.2291 92.0497 38.529 92.393 38.7227C92.7932 38.9219 93.2373 39.0166 93.6839 38.998C94.1277 39.0176 94.5692 38.9228 94.9658 38.7227C95.3044 38.5258 95.5717 38.2266 95.7293 37.868C95.9292 37.4033 96.0501 36.9083 96.0868 36.4037C96.1545 35.6972 96.1855 34.9876 96.1798 34.2779V26.6918C96.4498 26.6506 96.7162 26.6238 96.9522 26.6095C97.1882 26.5952 97.4332 26.5898 97.6674 26.5898C97.9016 26.5898 98.159 26.5898 98.4094 26.6095C98.6651 26.6239 98.9199 26.6514 99.1728 26.6918V34.9162C99.1809 35.8255 99.0995 36.7333 98.9296 37.6267C98.7946 38.3833 98.4962 39.1014 98.0553 39.731C97.623 40.3241 97.0404 40.7913 96.3676 41.0845C95.6631 41.4027 94.7692 41.5619 93.6857 41.5619C92.6022 41.5619 91.7082 41.4027 91.0038 41.0845C90.3301 40.7918 89.7469 40.3246 89.3142 39.731C88.8735 39.1012 88.5746 38.3832 88.4381 37.6267C88.2689 36.7314 88.1874 35.8218 88.195 34.9108L88.1914 26.6918Z" fill="#828282"/>
<path d="M102.062 26.6917C102.657 26.6238 103.217 26.5642 103.74 26.5129C104.262 26.4664 104.842 26.4414 105.48 26.4414C106.22 26.4409 106.959 26.5092 107.686 26.6452C108.379 26.7661 109.045 27.0082 109.653 27.3604C110.234 27.7034 110.72 28.1858 111.067 28.7639C111.425 29.3539 111.604 30.1031 111.604 31.0113C111.612 31.4959 111.543 31.9786 111.4 32.4417C111.278 32.8269 111.104 33.1933 110.881 33.5305C110.687 33.8239 110.458 34.0934 110.2 34.3333C109.986 34.5325 109.754 34.712 109.508 34.8697L109.163 35.0931L112.723 41.2758C112.451 41.3026 112.167 41.3312 111.868 41.358C111.57 41.3848 111.264 41.3991 110.953 41.3991C110.442 41.3995 109.932 41.3582 109.428 41.2758L105.602 34.5013L106.09 34.2582C106.279 34.1634 106.51 34.0418 106.782 33.9006C107.064 33.7423 107.328 33.5528 107.568 33.3356C107.827 33.1032 108.043 32.828 108.208 32.5221C108.389 32.173 108.476 31.7832 108.462 31.3904C108.462 30.5357 108.218 29.9082 107.729 29.5077C107.189 29.091 106.519 28.8788 105.838 28.9087C105.565 28.9065 105.293 28.9269 105.024 28.9695V41.3169C104.781 41.3437 104.536 41.3669 104.293 41.3866C104.05 41.4063 103.81 41.4188 103.578 41.4188C103.345 41.4188 103.102 41.4188 102.845 41.3973C102.587 41.3759 102.323 41.3562 102.051 41.3169L102.062 26.6917Z" fill="#828282"/>
<path d="M114.348 26.6914H122.647C122.728 27.1 122.769 27.5156 122.769 27.9322C122.77 28.3619 122.729 28.7906 122.647 29.2124H117.317V32.3859H121.548C121.628 32.8019 121.669 33.2245 121.671 33.6482C121.671 34.0779 121.63 34.5066 121.548 34.9283H117.317V38.7938H122.788C122.87 39.2023 122.911 39.618 122.91 40.0346C122.912 40.4649 122.871 40.8944 122.788 41.3166H114.348V26.6914Z" fill="#828282"/>
<path d="M64.3172 48.8358C64.1242 48.7621 63.9371 48.6737 63.7576 48.5712C63.5974 48.4801 63.4531 48.3635 63.3303 48.2261C63.2082 48.0861 63.1152 47.9232 63.0568 47.747C62.9864 47.5312 62.9531 47.3051 62.9584 47.0783C62.9525 46.7904 63.008 46.5045 63.1211 46.2397C63.226 46.0043 63.3838 45.7962 63.5824 45.6318C63.793 45.4601 64.0363 45.3329 64.2976 45.2582C64.6034 45.1716 64.9202 45.1295 65.238 45.133C65.538 45.1313 65.8375 45.1594 66.132 45.2171C66.4267 45.2778 66.717 45.3585 67.0009 45.4584C66.9617 45.8259 66.8614 46.1842 66.7041 46.5187L66.4198 46.4078C66.3197 46.3694 66.2169 46.3383 66.1123 46.3148C65.9913 46.2881 65.869 46.2678 65.7458 46.254C65.5907 46.2382 65.435 46.2304 65.2791 46.2308C65.1718 46.2307 65.0647 46.2403 64.9591 46.2594C64.856 46.2754 64.7567 46.3099 64.6659 46.3613C64.5767 46.4142 64.5028 46.4894 64.4513 46.5794C64.3915 46.6959 64.3631 46.8259 64.3691 46.9567C64.3657 47.064 64.3877 47.1706 64.4334 47.2678C64.4765 47.3516 64.5376 47.4249 64.6122 47.4823C64.6884 47.5432 64.7726 47.5931 64.8625 47.6307C64.9555 47.6719 65.0413 47.7094 65.1415 47.747L65.7011 47.9615C65.9353 48.0545 66.1499 48.151 66.3429 48.2494C66.526 48.3426 66.6912 48.4673 66.831 48.6177C66.9695 48.7739 67.0753 48.9563 67.1421 49.154C67.2232 49.402 67.2613 49.662 67.2548 49.9229C67.2563 50.22 67.1954 50.5143 67.076 50.7864C66.9633 51.0447 66.7933 51.274 66.579 51.4569C66.3417 51.6537 66.0684 51.8024 65.7744 51.8949C65.4174 52.0057 65.045 52.0588 64.6712 52.0523C64.4674 52.0523 64.2851 52.0523 64.1224 52.0344C63.9682 52.0222 63.8148 52.0019 63.6629 51.9736C63.5162 51.945 63.3732 51.9092 63.2302 51.8663C63.0871 51.8234 62.9388 51.7698 62.7832 51.7072C62.8047 51.518 62.8387 51.3305 62.8851 51.1458C62.9352 50.9491 62.9942 50.7524 63.0639 50.554C63.3021 50.6527 63.5478 50.7323 63.7987 50.7918C64.04 50.8451 64.2865 50.8715 64.5336 50.8704C64.8551 50.8885 65.175 50.8127 65.4544 50.6523C65.5641 50.581 65.6529 50.4818 65.712 50.365C65.771 50.2482 65.7981 50.1179 65.7905 49.9872C65.795 49.8585 65.7674 49.7307 65.71 49.6153C65.6599 49.5183 65.5906 49.4325 65.5062 49.3632C65.4199 49.2911 65.3243 49.231 65.2219 49.1844C65.1164 49.138 65.0092 49.0933 64.8965 49.0503L64.3172 48.8358Z" fill="#828282"/>
<path d="M58.2559 45.2447C58.4739 45.2078 58.6945 45.1887 58.9156 45.1875C59.1432 45.1886 59.3704 45.2078 59.595 45.2447V50.7604H61.9193C61.9383 50.8602 61.9508 50.9612 61.9569 51.0626C61.9569 51.1591 61.9569 51.2503 61.9569 51.3379C61.9569 51.4255 61.9569 51.5346 61.9569 51.6294C61.9509 51.7314 61.9383 51.8329 61.9193 51.9333H58.2559V45.2447Z" fill="#828282"/>
<path d="M69.8438 45.2461H73.6395C73.6768 45.4327 73.6952 45.6226 73.6948 45.8129C73.6959 46.0097 73.6775 46.2062 73.6395 46.3993H71.206V47.8493H73.1406C73.1769 48.0397 73.1955 48.233 73.196 48.4268C73.1964 48.6236 73.1779 48.82 73.1406 49.0132H71.206V50.7797H73.7091C73.7471 50.9668 73.7663 51.1573 73.7663 51.3483C73.7667 51.5451 73.7475 51.7416 73.7091 51.9347H69.8438V45.2461Z" fill="#828282"/>
<path d="M74.7871 45.2447C74.9678 45.208 75.1516 45.1888 75.336 45.1875C75.5293 45.1885 75.722 45.2077 75.9117 45.2447L78.4988 49.5053V45.2447C78.7108 45.2078 78.9255 45.1887 79.1407 45.1875C79.3281 45.1874 79.515 45.2066 79.6985 45.2447V51.9315C79.5217 51.9656 79.3422 51.9841 79.1621 51.987C78.972 51.9848 78.7824 51.9662 78.5954 51.9315L75.9904 47.6799V51.9315C75.791 51.9679 75.5887 51.9865 75.3861 51.987C75.1863 51.9869 74.987 51.9683 74.7907 51.9315L74.7871 45.2447Z" fill="#828282"/>
<path d="M85.4202 50.6651C85.5004 50.8384 85.5667 51.0177 85.6186 51.2015C85.672 51.383 85.7114 51.5683 85.7367 51.7557C85.455 51.8625 85.1633 51.9403 84.8659 51.9882C84.5899 52.0267 84.3115 52.0452 84.0328 52.0436C83.5583 52.0531 83.0869 51.9661 82.6471 51.7879C82.2643 51.628 81.9226 51.3835 81.6477 51.0728C81.3709 50.7548 81.1633 50.3828 81.038 49.9803C80.8986 49.5349 80.8298 49.0704 80.8342 48.6036C80.8302 48.1345 80.9021 47.6678 81.0469 47.2216C81.1791 46.8175 81.3893 46.4434 81.6656 46.1202C81.9392 45.807 82.2795 45.559 82.6614 45.3943C83.0865 45.2144 83.5445 45.1254 84.0059 45.1333C84.2811 45.1324 84.5559 45.1509 84.8284 45.1887C85.1084 45.2345 85.3821 45.3131 85.6437 45.4229C85.6306 45.606 85.5927 45.7864 85.531 45.9593C85.4685 46.1381 85.4005 46.3169 85.3272 46.4957C85.139 46.4288 84.9459 46.3762 84.7497 46.3383C84.5531 46.3044 84.3538 46.2889 84.1543 46.2919C83.5584 46.2919 83.1013 46.4856 82.783 46.8729C82.4648 47.2603 82.305 47.8354 82.3038 48.5983C82.3038 50.1109 82.9457 50.8671 84.2294 50.8671C84.4319 50.8699 84.6341 50.8543 84.8337 50.8207C85.033 50.7842 85.2291 50.7322 85.4202 50.6651Z" fill="#828282"/>
<path d="M86.8145 45.2455C87.088 45.2133 87.3508 45.1882 87.5815 45.165C87.8121 45.1418 88.0857 45.1328 88.3771 45.1328C88.7159 45.1332 89.054 45.1643 89.3873 45.2258C89.7022 45.2834 90.0047 45.3953 90.2812 45.5565C90.5465 45.7134 90.7684 45.934 90.9267 46.1984C91.1021 46.5118 91.1874 46.8676 91.1734 47.2265C91.1775 47.4487 91.1461 47.6702 91.0804 47.8826C90.9745 48.2133 90.7855 48.5112 90.5315 48.748C90.4343 48.8397 90.3283 48.9218 90.2151 48.9929L90.0577 49.0966L91.6847 51.9233L91.295 51.9609C91.1591 51.9734 91.0178 51.9805 90.8766 51.9805C90.643 51.9804 90.4098 51.9613 90.1793 51.9233L88.4379 48.8177L88.6614 48.7051C88.749 48.6622 88.8545 48.6067 88.9778 48.537C89.1063 48.4655 89.2262 48.3797 89.3354 48.2813C89.4532 48.175 89.5518 48.0492 89.6268 47.9094C89.7347 47.6854 89.7721 47.4339 89.7341 47.1881C89.6961 46.9423 89.5846 46.7138 89.4141 46.5328C89.1668 46.3427 88.8604 46.2458 88.5487 46.2592C88.4243 46.2583 88.2999 46.2673 88.1768 46.286V51.9323C88.0642 51.943 87.9534 51.9555 87.8407 51.9644C87.7281 51.9734 87.6208 51.9787 87.5153 51.9787C87.4098 51.9787 87.299 51.9787 87.181 51.968C87.063 51.9573 86.9414 51.9501 86.8234 51.9323L86.8145 45.2455Z" fill="#828282"/>
<path d="M93.7722 49.5396L91.6875 45.2486C91.9462 45.211 92.2073 45.1918 92.4688 45.1914C92.7084 45.1914 92.9475 45.2105 93.184 45.2486L94.5053 48.2881L95.8069 45.2486C96.0403 45.2104 96.2765 45.1913 96.5131 45.1914C96.7526 45.1931 96.9916 45.2122 97.2283 45.2486L95.1453 49.5396V51.9408C95.0261 51.9587 94.9069 51.9712 94.7877 51.9783C94.6769 51.9783 94.5643 51.9783 94.4534 51.9783C94.3426 51.9783 94.2371 51.9783 94.1226 51.9783C94.0082 51.9783 93.892 51.9587 93.7651 51.9408L93.7722 49.5396Z" fill="#828282"/>
<path d="M97.9668 45.2168C98.2529 45.1918 98.5407 45.1721 98.8322 45.1561C99.1236 45.14 99.4186 45.1328 99.7172 45.1328C100.033 45.1341 100.349 45.1652 100.659 45.2258C100.968 45.2835 101.262 45.402 101.525 45.5744C101.791 45.7563 102.008 46.0022 102.154 46.2896C102.329 46.6582 102.412 47.0638 102.395 47.4714C102.412 47.8774 102.33 48.2813 102.154 48.6479C102.008 48.9336 101.793 49.1792 101.53 49.363C101.274 49.5395 100.984 49.6612 100.679 49.7206C100.374 49.7821 100.064 49.8132 99.7529 49.8136C99.6725 49.8136 99.5974 49.8136 99.5259 49.8136C99.4543 49.8136 99.3864 49.8136 99.3256 49.8011V51.9466C99.2113 51.9644 99.0961 51.9763 98.9805 51.9823C98.8697 51.9823 98.7606 51.9931 98.6551 51.9931C98.5497 51.9931 98.4477 51.9931 98.3297 51.9823C98.2117 51.9716 98.092 51.9644 97.9722 51.9466L97.9668 45.2168ZM99.3256 48.6586C99.3947 48.6708 99.4647 48.6774 99.5348 48.6783H99.7726C99.9266 48.6777 100.08 48.6573 100.229 48.6175C100.373 48.5785 100.507 48.5104 100.624 48.4172C100.743 48.3178 100.836 48.1916 100.897 48.0489C100.97 47.8709 101.005 47.6797 100.999 47.4875C101.005 47.2883 100.97 47.0901 100.897 46.9046C100.84 46.7613 100.749 46.6336 100.633 46.532C100.517 46.4304 100.378 46.3577 100.229 46.32C100.08 46.2794 99.9266 46.2589 99.7726 46.2592H99.5813L99.3256 46.2824V48.6586Z" fill="#828282"/>
<path d="M104.694 46.3993H103.03C102.991 46.2062 102.972 46.0098 102.973 45.8129C102.973 45.6225 102.992 45.4326 103.03 45.2461H107.727C107.764 45.4327 107.783 45.6226 107.782 45.8129C107.783 46.0097 107.765 46.2062 107.727 46.3993H106.062V51.9418C105.95 51.9526 105.839 51.9651 105.726 51.974C105.613 51.983 105.506 51.9883 105.401 51.9883C105.295 51.9883 105.183 51.9883 105.061 51.9776C104.939 51.9669 104.818 51.9597 104.694 51.9418V46.3993Z" fill="#828282"/>
<path d="M108.664 45.2447C108.889 45.2073 109.116 45.1882 109.343 45.1875C109.574 45.1884 109.804 45.2075 110.032 45.2447V51.9315C109.579 52.0054 109.117 52.0054 108.664 51.9315V45.2447Z" fill="#828282"/>
<path d="M114.06 52.0434C113.612 52.0545 113.168 51.9653 112.759 51.7824C112.408 51.6189 112.101 51.3736 111.865 51.0672C111.62 50.7421 111.441 50.3722 111.339 49.9784C111.218 49.5313 111.158 49.0701 111.16 48.6071C111.159 48.1405 111.219 47.6758 111.339 47.225C111.441 46.8271 111.619 46.453 111.865 46.1237C112.099 45.8128 112.406 45.5636 112.759 45.3978C113.171 45.2254 113.613 45.1367 114.06 45.1367C114.507 45.1367 114.949 45.2254 115.362 45.3978C115.714 45.5636 116.021 45.8128 116.256 46.1237C116.501 46.453 116.68 46.8271 116.781 47.225C116.902 47.6758 116.962 48.1405 116.96 48.6071C116.962 49.0701 116.902 49.5313 116.781 49.9784C116.679 50.3722 116.5 50.7421 116.256 51.0672C116.019 51.3736 115.713 51.6189 115.362 51.7824C114.953 51.9653 114.508 52.0545 114.06 52.0434ZM114.06 50.9081C115.022 50.9081 115.502 50.1393 115.501 48.6017C115.501 47.8329 115.382 47.256 115.144 46.871C115.034 46.6846 114.874 46.5323 114.683 46.4307C114.492 46.3291 114.276 46.2823 114.06 46.2953C113.088 46.2953 112.601 47.0641 112.599 48.6017C112.598 50.1393 113.085 50.9081 114.06 50.9081Z" fill="#828282"/>
<path d="M118.088 45.2447C118.269 45.208 118.452 45.1888 118.637 45.1875C118.83 45.1885 119.023 45.2077 119.212 45.2447L121.8 49.5053V45.2447C122.012 45.2078 122.226 45.1887 122.441 45.1875C122.629 45.1874 122.816 45.2066 122.999 45.2447V51.9315C122.822 51.9656 122.643 51.9841 122.463 51.987C122.273 51.9848 122.083 51.9662 121.896 51.9315L119.291 47.6799V51.9315C119.092 51.9679 118.89 51.9865 118.687 51.987C118.487 51.9869 118.288 51.9683 118.091 51.9315L118.088 45.2447Z" fill="#828282"/>
</g>
</g>
</g>
<path d="M39.3713 35.2839H36.5697V33.1465C36.5697 31.7275 36.006 30.3666 35.0026 29.3632C33.9992 28.3598 32.6383 27.7961 31.2193 27.7961C29.8003 27.7961 28.4394 28.3598 27.436 29.3632C26.4326 30.3666 25.8689 31.7275 25.8689 33.1465V35.2839H23.0742V33.1465C23.0742 30.9859 23.9325 28.9138 25.4603 27.386C26.988 25.8583 29.0601 25 31.2207 25C33.3813 25 35.4534 25.8583 36.9811 27.386C38.5089 28.9138 39.3672 30.9859 39.3672 33.1465L39.3713 35.2839Z" fill="#D5D5D9"/>
<path d="M22.46 35.2344H39.9815C40.0423 35.2344 40.1026 35.2464 40.1588 35.2699C40.215 35.2934 40.2659 35.3277 40.3087 35.371C40.3515 35.4143 40.3853 35.4657 40.408 35.5222C40.4308 35.5786 40.4422 35.639 40.4415 35.6999V46.5619C40.4415 47.1446 40.3267 47.7216 40.1037 48.26C39.8807 48.7983 39.5538 49.2875 39.1418 49.6995C38.7297 50.1116 38.2405 50.4384 37.7022 50.6614C37.1638 50.8844 36.5868 50.9992 36.0041 50.9992H26.4373C25.8543 50.9992 25.2769 50.8843 24.7383 50.661C24.1996 50.4378 23.7103 50.1105 23.2982 49.698C22.8861 49.2855 22.5593 48.7959 22.3366 48.257C22.1138 47.7182 21.9995 47.1408 22 46.5577V35.6999C22 35.5779 22.0485 35.4609 22.1347 35.3747C22.221 35.2884 22.338 35.2399 22.46 35.2399V35.2344Z" fill="#828282"/>
<mask id="mask2_8326_571" style="mask-type:luminance" maskUnits="userSpaceOnUse" x="22" y="25" width="19" height="26">
<path d="M39.3714 35.2342V33.4275C39.3899 32.3575 39.1974 31.2942 38.8051 30.2984C38.4127 29.3028 37.828 28.394 37.0845 27.6243C35.5828 26.0697 33.525 25.1753 31.3639 25.1379C29.2027 25.1005 27.1153 25.9232 25.5606 27.4249C24.0061 28.9266 23.1117 30.9842 23.0743 33.1454V35.23H22.7282C22.6322 35.2301 22.5371 35.2493 22.4485 35.2863C22.3599 35.3233 22.2794 35.3775 22.2117 35.4457C22.1441 35.5138 22.0906 35.5947 22.0543 35.6836C22.0179 35.7725 21.9995 35.8677 22 35.9637V41.7755C22.0004 44.2209 22.972 46.566 24.7011 48.2952C26.4303 50.0243 28.7754 50.9959 31.2207 50.9962C33.6661 50.9959 36.0112 50.0243 37.7404 48.2952C39.4695 46.566 40.4411 44.2209 40.4415 41.7755V35.9637C40.4415 35.7705 40.3648 35.5851 40.2283 35.4483C40.0917 35.3116 39.9065 35.2345 39.7132 35.2342H39.3714ZM25.8759 33.1496C25.8759 31.7306 26.4396 30.3696 27.443 29.3663C28.4464 28.3629 29.8073 27.7992 31.2263 27.7992C32.6453 27.7992 34.0062 28.3629 35.0096 29.3663C36.013 30.3696 36.5767 31.7306 36.5767 33.1496V35.2342H25.8759V33.1496Z" fill="white"/>
</mask>
<g mask="url(#mask2_8326_571)">
<g style="mix-blend-mode:multiply" opacity="0.1">
<path d="M40.4433 35.2383H31.2227V50.9989H40.4433V35.2383Z" fill="#828282"/>
</g>
<path d="M30.4007 46.2503L26.0703 42.1909L27.9173 40.4607L30.4007 42.7885L35.3911 38.1094L37.2366 39.8409L30.4007 46.2503Z" fill="white"/>
</g>
<defs>
<clipPath id="clip0_8326_571">
<rect width="146" height="76" fill="white"/>
</clipPath>
</defs>
</svg>
