<svg width="1680" height="712" viewBox="0 0 1680 712" fill="none" xmlns="http://www.w3.org/2000/svg">
<g clip-path="url(#clip0_869_24)">
<mask id="mask0_869_24" style="mask-type:luminance" maskUnits="userSpaceOnUse" x="0" y="24" width="1680" height="712">
<path d="M1680 24H0V736H1680V24Z" fill="white"/>
</mask>
<g mask="url(#mask0_869_24)">
<path d="M1688.62 599.434H1170.53V636.825H1688.62V599.434Z" fill="#0F0F0F"/>
<path d="M1688.62 599.434H1170.53V636.825H1688.62V599.434Z" fill="#121212"/>
<path d="M1347.93 674.581H1081.83V711.973H1347.93V674.581Z" fill="#0F0F0F"/>
<path d="M1347.93 674.581H1081.83V711.973H1347.93V674.581Z" fill="#121212"/>
<path d="M1436.64 523.546H1081.83V560.938H1436.64V523.546Z" fill="#0F0F0F"/>
<path d="M1436.64 523.546H1081.83V560.938H1436.64V523.546Z" fill="#121212"/>
<path d="M1688.63 447.656H1436.64V485.048H1688.63V447.656Z" fill="#0F0F0F"/>
<path d="M1688.63 447.656H1436.64V485.048H1688.63V447.656Z" fill="#121212"/>
<path d="M1170.53 675.203H1081.83V713.292H1170.53V675.203Z" stroke="#242424" stroke-width="0.860678"/>
<path d="M993.132 408.486H904.43V446.575H993.132V408.486Z" stroke="#242424" stroke-width="0.860678"/>
<path d="M1347.94 675.203H1259.24V713.292H1347.94V675.203Z" stroke="#242424" stroke-width="0.860678"/>
<path d="M1259.23 675.203H1170.53V713.292H1259.23V675.203Z" stroke="#242424" stroke-width="0.860678"/>
<path d="M1170.53 370.397H1081.83V408.486H1170.53V370.397Z" fill="#0F0F0F"/>
<path d="M1170.53 370.397H1081.83V408.486H1170.53V370.397Z" fill="#121212"/>
<path d="M1170.53 370.397H1081.83V408.486H1170.53V370.397Z" stroke="#242424" stroke-width="0.860678"/>
<path d="M1081.83 294.221H993.129V332.309H1081.83V294.221Z" fill="#0F0F0F"/>
<path d="M1081.83 294.221H993.129V332.309H1081.83V294.221Z" fill="#121212"/>
<path d="M1081.83 294.221H993.129V332.309H1081.83V294.221Z" stroke="#242424" stroke-width="0.860678"/>
<path d="M1525.34 675.203H1436.64V713.292H1525.34V675.203Z" stroke="#242424" stroke-width="0.860678"/>
<path d="M1259.23 599.025H1170.53V637.114H1259.23V599.025Z" stroke="#242424" stroke-width="0.860678"/>
<path d="M1347.94 599.025H1259.24V637.114H1347.94V599.025Z" stroke="#242424" stroke-width="0.860678"/>
<path d="M1436.64 599.025H1347.94V637.114H1436.64V599.025Z" stroke="#242424" stroke-width="0.860678"/>
<path d="M1525.34 599.025H1436.64V637.114H1525.34V599.025Z" stroke="#242424" stroke-width="0.860678"/>
<path d="M1614.04 599.025H1525.34V637.114H1614.04V599.025Z" stroke="#242424" stroke-width="0.860678"/>
<path d="M1702.74 599.025H1614.04V637.114H1702.74V599.025Z" stroke="#242424" stroke-width="0.860678"/>
<path d="M1436.64 408.486H1347.94V446.575H1436.64V408.486Z" stroke="#242424" stroke-width="0.860678"/>
<path d="M1347.94 332.31H1259.24V370.398H1347.94V332.31Z" stroke="#242424" stroke-width="0.860678"/>
<path d="M1525.34 370.397H1436.64V408.486H1525.34V370.397Z" fill="#0F0F0F"/>
<path d="M1525.34 370.397H1436.64V408.486H1525.34V370.397Z" fill="#121212"/>
<path d="M1525.34 370.397H1436.64V408.486H1525.34V370.397Z" stroke="#242424" stroke-width="0.860678"/>
<path d="M1525.34 294.221H1436.64V332.309H1525.34V294.221Z" fill="#0F0F0F"/>
<path d="M1525.34 294.221H1436.64V332.309H1525.34V294.221Z" fill="#121212"/>
<path d="M1525.34 294.221H1436.64V332.309H1525.34V294.221Z" stroke="#242424" stroke-width="0.860678"/>
<path d="M1525.34 446.576H1436.64V484.665H1525.34V446.576Z" stroke="#242424" stroke-width="0.860678"/>
<path d="M1614.04 446.576H1525.34V484.665H1614.04V446.576Z" stroke="#242424" stroke-width="0.860678"/>
<path d="M1702.74 446.576H1614.04V484.665H1702.74V446.576Z" stroke="#242424" stroke-width="0.860678"/>
<path d="M1436.64 484.664H1347.94V522.753H1436.64V484.664Z" stroke="#242424" stroke-width="0.860678"/>
<path d="M1525.34 484.664H1436.64V522.753H1525.34V484.664Z" stroke="#242424" stroke-width="0.860678"/>
<path d="M1614.04 484.664H1525.34V522.753H1614.04V484.664Z" stroke="#242424" stroke-width="0.860678"/>
<path d="M1702.74 484.664H1614.04V522.753H1702.74V484.664Z" stroke="#242424" stroke-width="0.860678"/>
<path d="M549.62 522.849H460.918V560.937H549.62V522.849Z" stroke="#242424" stroke-width="0.860678"/>
<path d="M638.323 484.664H549.621V522.753H638.323V484.664Z" stroke="#242424" stroke-width="0.860678"/>
<path d="M727.022 522.849H638.32V560.937H727.022V522.849Z" fill="#0F0F0F"/>
<path d="M727.022 522.849H638.32V560.937H727.022V522.849Z" fill="#121212"/>
<path d="M727.022 522.849H638.32V560.937H727.022V522.849Z" stroke="#242424" stroke-width="0.860678"/>
<path d="M815.725 522.849H727.023V560.937H815.725V522.849Z" fill="#0F0F0F"/>
<path d="M815.725 522.849H727.023V560.937H815.725V522.849Z" fill="#121212"/>
<path d="M815.725 522.849H727.023V560.937H815.725V522.849Z" stroke="#242424" stroke-width="0.860678"/>
<path d="M993.132 522.849H904.43V560.937H993.132V522.849Z" fill="#0F0F0F"/>
<path d="M993.132 522.849H904.43V560.937H993.132V522.849Z" fill="#121212"/>
<path d="M993.132 522.849H904.43V560.937H993.132V522.849Z" stroke="#242424" stroke-width="0.860678"/>
<path d="M1170.53 522.849H1081.83V560.937H1170.53V522.849Z" stroke="#242424" stroke-width="0.860678"/>
<path d="M1259.23 522.849H1170.53V560.937H1259.23V522.849Z" stroke="#242424" stroke-width="0.860678"/>
<path d="M1347.94 522.849H1259.24V560.937H1347.94V522.849Z" stroke="#242424" stroke-width="0.860678"/>
<path d="M1436.64 522.849H1347.94V560.937H1436.64V522.849Z" stroke="#242424" stroke-width="0.860678"/>
<path d="M904.429 637.113H815.727V675.202H904.429V637.113Z" stroke="#242424" stroke-width="0.860678"/>
<path d="M1259.23 637.113H1170.53V675.202H1259.23V637.113Z" stroke="#242424" stroke-width="0.860678"/>
<path d="M1347.94 637.113H1259.24V675.202H1347.94V637.113Z" stroke="#242424" stroke-width="0.860678"/>
<path d="M1436.64 637.113H1347.94V675.202H1436.64V637.113Z" stroke="#242424" stroke-width="0.860678"/>
<path d="M1525.34 637.113H1436.64V675.202H1525.34V637.113Z" stroke="#242424" stroke-width="0.860678"/>
<path d="M904.429 560.937H815.727V599.025H904.429V560.937Z" stroke="#242424" stroke-width="0.860678"/>
<path d="M993.132 599.025H904.43V637.114H993.132V599.025Z" stroke="#242424" stroke-width="0.860678"/>
<path d="M1081.83 560.937H993.129V599.025H1081.83V560.937Z" stroke="#242424" stroke-width="0.860678"/>
<path d="M1170.53 560.937H1081.83V599.025H1170.53V560.937Z" stroke="#242424" stroke-width="0.860678"/>
<path d="M1259.23 560.937H1170.53V599.025H1259.23V560.937Z" stroke="#242424" stroke-width="0.860678"/>
<path d="M1347.94 560.937H1259.24V599.025H1347.94V560.937Z" stroke="#242424" stroke-width="0.860678"/>
<path d="M1436.64 560.937H1347.94V599.025H1436.64V560.937Z" stroke="#242424" stroke-width="0.860678"/>
<path d="M1525.34 560.937H1436.64V599.025H1525.34V560.937Z" stroke="#242424" stroke-width="0.860678"/>
<path d="M1614.04 560.937H1525.34V599.025H1614.04V560.937Z" stroke="#242424" stroke-width="0.860678"/>
<path d="M904.43 561.483V637.756" stroke="url(#paint0_radial_869_24)" stroke-width="0.484489"/>
<path d="M815.727 522.849V599.122" stroke="url(#paint1_radial_869_24)" stroke-width="0.484489"/>
<path d="M1436.64 446.576V539.558" stroke="url(#paint2_radial_869_24)" stroke-width="0.484489"/>
<path d="M1436.64 599.294V692.276" stroke="url(#paint3_radial_869_24)" stroke-width="0.484489"/>
<path d="M1347.94 484.759V577.742" stroke="url(#paint4_radial_869_24)" stroke-width="0.484489"/>
<path d="M1614.04 561.205V654.188" stroke="url(#paint5_radial_869_24)" stroke-width="0.484489"/>
</g>
</g>
<defs>
<radialGradient id="paint0_radial_869_24" cx="0" cy="0" r="1" gradientUnits="userSpaceOnUse" gradientTransform="translate(904.704 580.104) rotate(93.8865) scale(51.6482 22331.1)">
<stop stop-color="#47D897"/>
<stop offset="1" stop-color="#47D897" stop-opacity="0"/>
</radialGradient>
<radialGradient id="paint1_radial_869_24" cx="0" cy="0" r="1" gradientUnits="userSpaceOnUse" gradientTransform="translate(816.001 541.471) rotate(93.8865) scale(51.6482 22331.1)">
<stop stop-color="#47D897"/>
<stop offset="1" stop-color="#47D897" stop-opacity="0"/>
</radialGradient>
<radialGradient id="paint2_radial_869_24" cx="0" cy="0" r="1" gradientUnits="userSpaceOnUse" gradientTransform="translate(1436.92 469.277) rotate(93.1897) scale(62.9153 22347.9)">
<stop stop-color="#47D897"/>
<stop offset="1" stop-color="#47D897" stop-opacity="0"/>
</radialGradient>
<radialGradient id="paint3_radial_869_24" cx="0" cy="0" r="1" gradientUnits="userSpaceOnUse" gradientTransform="translate(1436.92 621.995) rotate(93.1897) scale(62.9153 22347.9)">
<stop stop-color="#47D897"/>
<stop offset="1" stop-color="#47D897" stop-opacity="0"/>
</radialGradient>
<radialGradient id="paint4_radial_869_24" cx="0" cy="0" r="1" gradientUnits="userSpaceOnUse" gradientTransform="translate(1348.22 507.46) rotate(93.1896) scale(62.9159 22347.9)">
<stop stop-color="#47D897"/>
<stop offset="1" stop-color="#47D897" stop-opacity="0"/>
</radialGradient>
<radialGradient id="paint5_radial_869_24" cx="0" cy="0" r="1" gradientUnits="userSpaceOnUse" gradientTransform="translate(1614.31 583.907) rotate(93.1896) scale(62.916 22347.9)">
<stop stop-color="#47D897"/>
<stop offset="1" stop-color="#47D897" stop-opacity="0"/>
</radialGradient>
<clipPath id="clip0_869_24">
<rect width="1680" height="712" fill="white"/>
</clipPath>
</defs>
</svg>
