<svg width="49" height="49" viewBox="0 0 49 49" fill="none" xmlns="http://www.w3.org/2000/svg">
<g clip-path="url(#clip0_107_8734)">
<mask id="mask0_107_8734" style="mask-type:luminance" maskUnits="userSpaceOnUse" x="0" y="0" width="49" height="49">
<path d="M49 0H0V49H49V0Z" fill="white"/>
</mask>
<g mask="url(#mask0_107_8734)">
<path d="M40.6152 0.583008H8.61523C4.19696 0.583008 0.615234 4.16473 0.615234 8.58301V40.583C0.615234 45.0013 4.19696 48.583 8.61523 48.583H40.6152C45.0335 48.583 48.6152 45.0013 48.6152 40.583V8.58301C48.6152 4.16473 45.0335 0.583008 40.6152 0.583008Z" fill="#DDF3E4"/>
<mask id="mask1_107_8734" style="mask-type:luminance" maskUnits="userSpaceOnUse" x="9" y="9" width="32" height="32">
<path d="M41 9H9V41H41V9Z" fill="white"/>
</mask>
<g mask="url(#mask1_107_8734)">
<mask id="mask2_107_8734" style="mask-type:luminance" maskUnits="userSpaceOnUse" x="9" y="9" width="32" height="32">
<path d="M41 9H9V41H41V9Z" fill="white"/>
</mask>
<g mask="url(#mask2_107_8734)">
<path d="M10 13V19C10 20.656 12.2387 22 15 22C17.7613 22 20 20.6573 20 19V13" fill="#C6FFE4"/>
<path d="M10 13V19C10 20.656 12.2387 22 15 22C17.7613 22 20 20.6573 20 19V13" stroke="#21714C" stroke-width="1.5" stroke-linecap="round" stroke-linejoin="round"/>
<path d="M10 13.001C10 13.7966 10.5268 14.5597 11.4645 15.1223C12.4021 15.6849 13.6739 16.001 15 16.001C16.3261 16.001 17.5979 15.6849 18.5355 15.1223C19.4732 14.5597 20 13.7966 20 13.001C20 12.2053 19.4732 11.4423 18.5355 10.8797C17.5979 10.317 16.3261 10.001 15 10.001C13.6739 10.001 12.4021 10.317 11.4645 10.8797C10.5268 11.4423 10 12.2053 10 13.001Z" fill="#C6FFE4"/>
<path d="M10 13.001C10 13.7966 10.5268 14.5597 11.4645 15.1223C12.4021 15.6849 13.6739 16.001 15 16.001C16.3261 16.001 17.5979 15.6849 18.5355 15.1223C19.4732 14.5597 20 13.7966 20 13.001C20 12.2053 19.4732 11.4423 18.5355 10.8797C17.5979 10.317 16.3261 10.001 15 10.001C13.6739 10.001 12.4021 10.317 11.4645 10.8797C10.5268 11.4423 10 12.2053 10 13.001Z" stroke="#21714C" stroke-width="1.5" stroke-linecap="round" stroke-linejoin="round"/>
<path d="M10 31V37C10 38.656 12.2387 40 15 40C17.7613 40 20 38.6573 20 37V31" fill="#C6FFE4"/>
<path d="M10 31V37C10 38.656 12.2387 40 15 40C17.7613 40 20 38.6573 20 37V31" stroke="#21714C" stroke-width="1.5" stroke-linecap="round" stroke-linejoin="round"/>
<path d="M10 31.001C10 31.7967 10.5268 32.5597 11.4645 33.1223C12.4021 33.6849 13.6739 34.001 15 34.001C16.3261 34.001 17.5979 33.6849 18.5355 33.1223C19.4732 32.5597 20 31.7967 20 31.001C20 30.2054 19.4732 29.4423 18.5355 28.8797C17.5979 28.3171 16.3261 28.001 15 28.001C13.6739 28.001 12.4021 28.3171 11.4645 28.8797C10.5268 29.4423 10 30.2054 10 31.001Z" fill="#C6FFE4"/>
<path d="M10 31.001C10 31.7967 10.5268 32.5597 11.4645 33.1223C12.4021 33.6849 13.6739 34.001 15 34.001C16.3261 34.001 17.5979 33.6849 18.5355 33.1223C19.4732 32.5597 20 31.7967 20 31.001C20 30.2054 19.4732 29.4423 18.5355 28.8797C17.5979 28.3171 16.3261 28.001 15 28.001C13.6739 28.001 12.4021 28.3171 11.4645 28.8797C10.5268 29.4423 10 30.2054 10 31.001Z" stroke="#21714C" stroke-width="1.5" stroke-linecap="round" stroke-linejoin="round"/>
<path d="M30 13V19C30 20.656 32.2387 22 35 22C37.7613 22 40 20.656 40 19V13" fill="#C6FFE4"/>
<path d="M30 13V19C30 20.656 32.2387 22 35 22C37.7613 22 40 20.656 40 19V13" stroke="#21714C" stroke-width="1.5" stroke-linecap="round" stroke-linejoin="round"/>
<path d="M30 13.001C30 13.7966 30.5268 14.5597 31.4645 15.1223C32.4021 15.6849 33.6739 16.001 35 16.001C36.3261 16.001 37.5979 15.6849 38.5355 15.1223C39.4732 14.5597 40 13.7966 40 13.001C40 12.2053 39.4732 11.4423 38.5355 10.8797C37.5979 10.317 36.3261 10.001 35 10.001C33.6739 10.001 32.4021 10.317 31.4645 10.8797C30.5268 11.4423 30 12.2053 30 13.001Z" fill="#C6FFE4"/>
<path d="M30 13.001C30 13.7966 30.5268 14.5597 31.4645 15.1223C32.4021 15.6849 33.6739 16.001 35 16.001C36.3261 16.001 37.5979 15.6849 38.5355 15.1223C39.4732 14.5597 40 13.7966 40 13.001C40 12.2053 39.4732 11.4423 38.5355 10.8797C37.5979 10.317 36.3261 10.001 35 10.001C33.6739 10.001 32.4021 10.317 31.4645 10.8797C30.5268 11.4423 30 12.2053 30 13.001Z" stroke="#21714C" stroke-width="1.5" stroke-linecap="round" stroke-linejoin="round"/>
<path d="M30 31V37C30 38.656 32.2387 40 35 40C37.7613 40 40 38.656 40 37V31" fill="#C6FFE4"/>
<path d="M30 31V37C30 38.656 32.2387 40 35 40C37.7613 40 40 38.656 40 37V31" stroke="#21714C" stroke-width="1.5" stroke-linecap="round" stroke-linejoin="round"/>
<path d="M30 31.001C30 31.7967 30.5268 32.5597 31.4645 33.1223C32.4021 33.6849 33.6739 34.001 35 34.001C36.3261 34.001 37.5979 33.6849 38.5355 33.1223C39.4732 32.5597 40 31.7967 40 31.001C40 30.2054 39.4732 29.4423 38.5355 28.8797C37.5979 28.3171 36.3261 28.001 35 28.001C33.6739 28.001 32.4021 28.3171 31.4645 28.8797C30.5268 29.4423 30 30.2054 30 31.001Z" fill="#C6FFE4"/>
<path d="M30 31.001C30 31.7967 30.5268 32.5597 31.4645 33.1223C32.4021 33.6849 33.6739 34.001 35 34.001C36.3261 34.001 37.5979 33.6849 38.5355 33.1223C39.4732 32.5597 40 31.7967 40 31.001C40 30.2054 39.4732 29.4423 38.5355 28.8797C37.5979 28.3171 36.3261 28.001 35 28.001C33.6739 28.001 32.4021 28.3171 31.4645 28.8797C30.5268 29.4423 30 30.2054 30 31.001Z" stroke="#21714C" stroke-width="1.5" stroke-linecap="round" stroke-linejoin="round"/>
<path d="M19.7214 19.9917L30.1081 30.3784" stroke="#21714C" stroke-width="1.5" stroke-linecap="round" stroke-linejoin="round"/>
<path d="M20 30.9998L30.588 20.4131" stroke="#21714C" stroke-width="1.5" stroke-linecap="round" stroke-linejoin="round"/>
</g>
</g>
</g>
</g>
<defs>
<clipPath id="clip0_107_8734">
<rect width="49" height="49" fill="white"/>
</clipPath>
</defs>
</svg>
