<svg width="49" height="49" viewBox="0 0 49 49" fill="none" xmlns="http://www.w3.org/2000/svg">
<g clip-path="url(#clip0_107_8652)">
<path d="M40.6152 0.583008H8.61523C4.19696 0.583008 0.615234 4.16473 0.615234 8.58301V40.583C0.615234 45.0013 4.19696 48.583 8.61523 48.583H40.6152C45.0335 48.583 48.6152 45.0013 48.6152 40.583V8.58301C48.6152 4.16473 45.0335 0.583008 40.6152 0.583008Z" fill="#DDF3E4"/>
<mask id="mask0_107_8652" style="mask-type:luminance" maskUnits="userSpaceOnUse" x="8" y="9" width="32" height="32">
<path d="M40 9H8V41H40V9Z" fill="white"/>
</mask>
<g mask="url(#mask0_107_8652)">
<path d="M15.2001 17.2668C17.1147 17.2668 18.6667 15.7147 18.6667 13.8002C18.6667 11.8856 17.1147 10.3335 15.2001 10.3335C13.2855 10.3335 11.7334 11.8856 11.7334 13.8002C11.7334 15.7147 13.2855 17.2668 15.2001 17.2668Z" fill="#C6F8DB"/>
<path d="M15.2001 17.2668C17.1147 17.2668 18.6667 15.7147 18.6667 13.8002C18.6667 11.8856 17.1147 10.3335 15.2001 10.3335C13.2855 10.3335 11.7334 11.8856 11.7334 13.8002C11.7334 15.7147 13.2855 17.2668 15.2001 17.2668Z" stroke="#21714C" stroke-width="1.5" stroke-linecap="round" stroke-linejoin="round"/>
<path d="M17.9999 24.1997H9.33325C9.33325 20.8664 11.9999 18.1997 15.3333 18.1997C17.0666 18.1997 18.6666 18.8664 19.7333 20.1997" fill="#C6F8DB"/>
<path d="M17.9999 24.1997H9.33325C9.33325 20.8664 11.9999 18.1997 15.3333 18.1997C17.0666 18.1997 18.6666 18.8664 19.7333 20.1997" stroke="#21714C" stroke-width="1.5" stroke-linecap="round" stroke-linejoin="round"/>
<path d="M32.5335 26.3334C34.4001 25.9334 36.2668 27.2667 36.6668 29.1334C37.0668 31.0001 35.7335 32.8667 33.8668 33.2667C32.5335 33.5334 31.2001 33.0001 30.4001 31.9334" fill="#C6F8DB"/>
<path d="M32.5335 26.3334C34.4001 25.9334 36.2668 27.2667 36.6668 29.1334C37.0668 31.0001 35.7335 32.8667 33.8668 33.2667C32.5335 33.5334 31.2001 33.0001 30.4001 31.9334" stroke="#21714C" stroke-width="1.5" stroke-linecap="round" stroke-linejoin="round"/>
<path d="M27.2 40.1997C27.2 36.8664 29.8666 34.1997 33.2 34.1997C36.5333 34.1997 39.2 36.8664 39.2 40.1997H27.2Z" fill="#C6F8DB"/>
<path d="M27.2 40.1997C27.2 36.8664 29.8666 34.1997 33.2 34.1997C36.5333 34.1997 39.2 36.8664 39.2 40.1997H27.2Z" stroke="#21714C" stroke-width="1.5" stroke-linecap="round" stroke-linejoin="round"/>
<path d="M18.2666 33.2671L15.2 36.2004L18.2666 39.2671" stroke="#21714C" stroke-width="1.5" stroke-linecap="round" stroke-linejoin="round"/>
<path d="M15.2 36.1997H22.2667" stroke="#21714C" stroke-width="1.5" stroke-linecap="round" stroke-linejoin="round"/>
<path d="M30.2666 11.2671L33.3333 14.3338L30.2666 17.2671" stroke="#21714C" stroke-width="1.5" stroke-linecap="round" stroke-linejoin="round"/>
<path d="M33.3333 14.3335H26.2666" stroke="#21714C" stroke-width="1.5" stroke-linecap="round" stroke-linejoin="round"/>
<path d="M25.3315 30.9998C27.9088 30.9998 29.9981 28.9105 29.9981 26.3332C29.9981 23.7558 27.9088 21.6665 25.3315 21.6665C22.7541 21.6665 20.6648 23.7558 20.6648 26.3332C20.6648 28.9105 22.7541 30.9998 25.3315 30.9998Z" fill="#C6F8DB" stroke="#21714C"/>
<path d="M25.3314 31.6667C28.2769 31.6667 30.6647 29.2789 30.6647 26.3333C30.6647 23.3878 28.2769 21 25.3314 21C22.3859 21 19.998 23.3878 19.998 26.3333C19.998 29.2789 22.3859 31.6667 25.3314 31.6667Z" fill="#C6F8DB"/>
<path d="M25.3314 30.6667C27.7246 30.6667 29.6647 28.7266 29.6647 26.3333C29.6647 23.9401 27.7246 22 25.3314 22C22.9381 22 20.998 23.9401 20.998 26.3333C20.998 28.7266 22.9381 30.6667 25.3314 30.6667Z" stroke="#21714C" stroke-width="1.5"/>
<path d="M27.2169 26.3334L25.3313 24.4478L23.4457 26.3334L25.3313 28.219L27.2169 26.3334Z" fill="#21714C"/>
</g>
</g>
<defs>
<clipPath id="clip0_107_8652">
<rect width="49" height="49" fill="white"/>
</clipPath>
</defs>
</svg>
