<svg width="49" height="49" viewBox="0 0 49 49" fill="none" xmlns="http://www.w3.org/2000/svg">
<g clip-path="url(#clip0_107_8652)">
<path d="M40.6152 0.583008H8.61523C4.19696 0.583008 0.615234 4.16473 0.615234 8.58301V40.583C0.615234 45.0013 4.19696 48.583 8.61523 48.583H40.6152C45.0335 48.583 48.6152 45.0013 48.6152 40.583V8.58301C48.6152 4.16473 45.0335 0.583008 40.6152 0.583008Z" fill="#DDF3E4"/>
<g clip-path="url(#clip1_107_8652)">
<mask id="mask0_107_8652" style="mask-type:luminance" maskUnits="userSpaceOnUse" x="9" y="9" width="32" height="32">
<path d="M41 9H9V41H41V9Z" fill="white"/>
</mask>
<g mask="url(#mask0_107_8652)">
<path d="M37 33.998C38.6569 33.998 40 32.6549 40 30.998C40 29.3412 38.6569 27.998 37 27.998C35.3431 27.998 34 29.3412 34 30.998C34 32.6549 35.3431 33.998 37 33.998Z" fill="#C6F8DB"/>
<path d="M37 33.998C38.6569 33.998 40 32.6549 40 30.998C40 29.3412 38.6569 27.998 37 27.998C35.3431 27.998 34 29.3412 34 30.998C34 32.6549 35.3431 33.998 37 33.998Z" stroke="#21714C" stroke-width="1.5" stroke-linecap="round" stroke-linejoin="round"/>
<path d="M25 39.998C26.6569 39.998 28 38.6549 28 36.998C28 35.3412 26.6569 33.998 25 33.998C23.3431 33.998 22 35.3412 22 36.998C22 38.6549 23.3431 39.998 25 39.998Z" fill="#C6F8DB"/>
<path d="M25 39.998C26.6569 39.998 28 38.6549 28 36.998C28 35.3412 26.6569 33.998 25 33.998C23.3431 33.998 22 35.3412 22 36.998C22 38.6549 23.3431 39.998 25 39.998Z" stroke="#21714C" stroke-width="1.5" stroke-linecap="round" stroke-linejoin="round"/>
<path d="M25 16C26.6569 16 28 14.6568 28 13C28 11.3432 26.6569 10 25 10C23.3431 10 22 11.3432 22 13C22 14.6568 23.3431 16 25 16Z" fill="#C6F8DB"/>
<path d="M25 16C26.6569 16 28 14.6568 28 13C28 11.3432 26.6569 10 25 10C23.3431 10 22 11.3432 22 13C22 14.6568 23.3431 16 25 16Z" stroke="#21714C" stroke-width="1.5" stroke-linecap="round" stroke-linejoin="round"/>
<path d="M13 33.998C11.3432 33.998 10 32.6549 10 30.998C10 29.3412 11.3432 27.998 13 27.998C14.6568 27.998 16 29.3412 16 30.998C16 32.6549 14.6568 33.998 13 33.998Z" fill="#C6F8DB"/>
<path d="M13 33.998C11.3432 33.998 10 32.6549 10 30.998C10 29.3412 11.3432 27.998 13 27.998C14.6568 27.998 16 29.3412 16 30.998C16 32.6549 14.6568 33.998 13 33.998Z" stroke="#21714C" stroke-width="1.5" stroke-linecap="round" stroke-linejoin="round"/>
<path d="M13 16C11.3432 16 10 17.3432 10 19C10 20.6569 11.3432 22 13 22C14.6568 22 16 20.6569 16 19C16 17.3432 14.6568 16 13 16Z" fill="#C6F8DB"/>
<path d="M13 16C11.3432 16 10 17.3432 10 19C10 20.6569 11.3432 22 13 22C14.6568 22 16 20.6569 16 19C16 17.3432 14.6568 16 13 16Z" stroke="#21714C" stroke-width="1.5" stroke-linecap="round" stroke-linejoin="round"/>
<path d="M37 15.998C38.6569 15.998 40 17.3412 40 18.998C40 20.6549 38.6569 21.998 37 21.998C35.3431 21.998 34 20.6549 34 18.998C34 17.3412 35.3431 15.998 37 15.998Z" fill="#C6F8DB"/>
<path d="M37 15.998C38.6569 15.998 40 17.3412 40 18.998C40 20.6549 38.6569 21.998 37 21.998C35.3431 21.998 34 20.6549 34 18.998C34 17.3412 35.3431 15.998 37 15.998Z" stroke="#21714C" stroke-width="1.5" stroke-linecap="round" stroke-linejoin="round"/>
<path d="M19.8479 15.4668L18.1519 16.5266" stroke="#21714C" stroke-width="1.5" stroke-linecap="round" stroke-linejoin="round"/>
<path d="M31.848 33.4668L30.1519 34.5266" stroke="#21714C" stroke-width="1.5" stroke-linecap="round" stroke-linejoin="round"/>
<path d="M30.1516 15.4668L31.8477 16.5266" stroke="#21714C" stroke-width="1.5" stroke-linecap="round" stroke-linejoin="round"/>
<path d="M18.3313 33.4668L20.0274 34.5266" stroke="#21714C" stroke-width="1.5" stroke-linecap="round" stroke-linejoin="round"/>
<path d="M13 23.998V25.998" stroke="#21714C" stroke-width="1.5" stroke-linecap="round" stroke-linejoin="round"/>
<path d="M36.998 23.998V25.998" stroke="#21714C" stroke-width="1.5" stroke-linecap="round" stroke-linejoin="round"/>
<path d="M25 25.75C25.4142 25.75 25.75 25.4142 25.75 25C25.75 24.5858 25.4142 24.25 25 24.25C24.5858 24.25 24.25 24.5858 24.25 25C24.25 25.4142 24.5858 25.75 25 25.75Z" fill="#21714C"/>
<path d="M28.5537 23.334H21.4426C20.4607 23.334 19.6648 24.0802 19.6648 25.0007V30.0007C19.6648 30.9211 20.4607 31.6673 21.4426 31.6673H28.5537C29.5355 31.6673 30.3314 30.9211 30.3314 30.0007V25.0007C30.3314 24.0802 29.5355 23.334 28.5537 23.334Z" fill="#C6F8DB"/>
<path d="M28.5537 23.334H21.4426C20.4607 23.334 19.6648 24.0802 19.6648 25.0007V30.0007C19.6648 30.9211 20.4607 31.6673 21.4426 31.6673H28.5537C29.5355 31.6673 30.3314 30.9211 30.3314 30.0007V25.0007C30.3314 24.0802 29.5355 23.334 28.5537 23.334Z" stroke="#21714C" stroke-width="1.5" stroke-linecap="round" stroke-linejoin="round"/>
<path d="M24.9986 18.334C24.0557 18.334 23.1513 18.6852 22.4845 19.3103C21.8177 19.9354 21.4431 20.7833 21.4431 21.6673V23.334H28.5542V21.6673C28.5542 20.7833 28.1796 19.9354 27.5128 19.3103C26.846 18.6852 25.9416 18.334 24.9986 18.334Z" stroke="#21714C" stroke-width="1.5" stroke-linecap="round" stroke-linejoin="round"/>
<path d="M24.9974 27.1152C25.0853 27.1152 25.1713 27.1397 25.2444 27.1855C25.3175 27.2312 25.3744 27.2963 25.4081 27.3724C25.4417 27.4486 25.4505 27.5324 25.4333 27.6132C25.4162 27.694 25.3739 27.7683 25.3117 27.8265C25.2496 27.8848 25.1704 27.9245 25.0842 27.9406C24.9979 27.9566 24.9086 27.9484 24.8274 27.9168C24.7462 27.8853 24.6767 27.8319 24.6279 27.7634C24.5791 27.6949 24.553 27.6143 24.553 27.5319C24.553 27.4214 24.5998 27.3154 24.6832 27.2373C24.7665 27.1591 24.8796 27.1152 24.9974 27.1152Z" stroke="#21714C" stroke-width="1.5" stroke-linecap="round" stroke-linejoin="round"/>
</g>
</g>
</g>
<defs>
<clipPath id="clip0_107_8652">
<rect width="49" height="49" fill="white"/>
</clipPath>
<clipPath id="clip1_107_8652">
<rect width="32" height="32" fill="white" transform="translate(9 9)"/>
</clipPath>
</defs>
</svg>
