<svg width="49" height="49" viewBox="0 0 49 49" fill="none" xmlns="http://www.w3.org/2000/svg">
<g clip-path="url(#clip0_107_8567)">
<path d="M40.6152 0.583008H8.61523C4.19696 0.583008 0.615234 4.16473 0.615234 8.58301V40.583C0.615234 45.0013 4.19696 48.583 8.61523 48.583H40.6152C45.0335 48.583 48.6152 45.0013 48.6152 40.583V8.58301C48.6152 4.16473 45.0335 0.583008 40.6152 0.583008Z" fill="#164430"/>
<path d="M19.5581 34.4297L21.7059 30.7095" stroke="#4CC38A" stroke-width="1.5" stroke-linecap="round" stroke-linejoin="round"/>
<path d="M20.4282 37.3409L19.385 39.1478L15.6648 37L16.708 35.1931C17.3217 34.1302 18.6016 33.8771 19.5582 34.4294C20.6211 35.043 20.9805 36.3843 20.4282 37.3409Z" fill="#1C1C1C" stroke="#4CC38A" stroke-width="1.5" stroke-linecap="round" stroke-linejoin="round"/>
<path d="M30.0519 16.2539L27.9041 19.9741" stroke="#4CC38A" stroke-width="1.5" stroke-linecap="round" stroke-linejoin="round"/>
<path d="M29.288 13.4036L30.3312 11.5967L34.0514 13.7445L33.0082 15.5514C32.3945 16.6144 31.1146 16.8675 30.158 16.3152C29.0951 15.7015 28.7357 14.3602 29.288 13.4036Z" fill="#1C1C1C" stroke="#4CC38A" stroke-width="1.5" stroke-linecap="round" stroke-linejoin="round"/>
<path d="M19.9443 16.3232L22.0922 20.0434" stroke="#4CC38A" stroke-width="1.5" stroke-linecap="round" stroke-linejoin="round"/>
<path d="M16.9881 15.6213L15.9448 13.8143L19.665 11.6665L20.7083 13.4734C21.3219 14.5363 20.9012 15.7713 19.9446 16.3236C18.8816 16.9373 17.5404 16.5779 16.9881 15.6213Z" fill="#1C1C1C" stroke="#4CC38A" stroke-width="1.5" stroke-linecap="round" stroke-linejoin="round"/>
<path d="M30.4381 34.4994L28.2903 30.7793" stroke="#4CC38A" stroke-width="1.5" stroke-linecap="round" stroke-linejoin="round"/>
<path d="M33.2884 35.2629L34.3316 37.0698L30.6114 39.2176L29.5682 37.4107C28.9545 36.3478 29.3753 35.1128 30.3319 34.5605C31.3948 33.9469 32.7361 34.3063 33.2884 35.2629Z" fill="#1C1C1C" stroke="#4CC38A" stroke-width="1.5" stroke-linecap="round" stroke-linejoin="round"/>
<path d="M14.5044 25.7534H18.8001" stroke="#4CC38A" stroke-width="1.5" stroke-linecap="round" stroke-linejoin="round"/>
<path d="M12.4183 27.9622H10.3318V23.6665H12.4183C13.6456 23.6665 14.5047 24.6484 14.5047 25.753C14.5047 26.9804 13.5229 27.9622 12.4183 27.9622Z" fill="#1C1C1C" stroke="#4CC38A" stroke-width="1.5" stroke-linecap="round" stroke-linejoin="round"/>
<path d="M35.492 25.7534H31.1963" stroke="#4CC38A" stroke-width="1.5" stroke-linecap="round" stroke-linejoin="round"/>
<path d="M37.5784 23.6665H39.6649V27.9622H37.5784C36.3511 27.9622 35.4919 26.9804 35.4919 25.8758C35.4919 24.6484 36.4738 23.6665 37.5784 23.6665Z" fill="#1C1C1C" stroke="#4CC38A" stroke-width="1.5" stroke-linecap="round" stroke-linejoin="round"/>
<path d="M31.5718 29.6625V22.0188L25.02 18.3335L18.3318 22.0188V29.6625L25.02 33.4844L31.5718 29.6625Z" fill="#1C1C1C"/>
<path d="M31.5718 29.6625V22.0188L25.02 18.3335L18.3318 22.0188V29.6625L25.02 33.4844L31.5718 29.6625Z" stroke="#4CC38A" stroke-width="1.5" stroke-linecap="round" stroke-linejoin="round"/>
<path d="M27.6126 27.4787V24.3393L25.0192 22.8379L22.2893 24.3393V27.4787L25.0192 28.9801L27.6126 27.4787Z" stroke="#4CC38A" stroke-width="1.5" stroke-linecap="round" stroke-linejoin="round"/>
</g>
<defs>
<clipPath id="clip0_107_8567">
<rect width="49" height="49" fill="white"/>
</clipPath>
</defs>
</svg>
