<svg width="49" height="49" viewBox="0 0 49 49" fill="none" xmlns="http://www.w3.org/2000/svg">
<g clip-path="url(#clip0_107_8652)">
<path d="M40.6152 0.583008H8.61523C4.19696 0.583008 0.615234 4.16473 0.615234 8.58301V40.583C0.615234 45.0013 4.19696 48.583 8.61523 48.583H40.6152C45.0335 48.583 48.6152 45.0013 48.6152 40.583V8.58301C48.6152 4.16473 45.0335 0.583008 40.6152 0.583008Z" fill="#DDF3E4"/>
<path d="M19.353 34.1463L21.5303 30.375" stroke="#21714C" stroke-width="1.5" stroke-linecap="round" stroke-linejoin="round"/>
<path d="M20.235 37.0976L19.1775 38.9293L15.4062 36.752L16.4638 34.9204C17.0859 33.8429 18.3834 33.5863 19.3531 34.1462C20.4306 34.7682 20.7949 36.1279 20.235 37.0976Z" fill="#C6F8DB" stroke="#21714C" stroke-width="1.5" stroke-linecap="round" stroke-linejoin="round"/>
<path d="M29.9908 15.7212L27.8135 19.4924" stroke="#21714C" stroke-width="1.5" stroke-linecap="round" stroke-linejoin="round"/>
<path d="M29.2164 12.8317L30.2739 11L34.0451 13.1773L32.9876 15.009C32.3655 16.0865 31.068 16.3431 30.0983 15.7832C29.0208 15.1611 28.6565 13.8015 29.2164 12.8317Z" fill="#C6F8DB" stroke="#21714C" stroke-width="1.5" stroke-linecap="round" stroke-linejoin="round"/>
<path d="M19.7444 15.7915L21.9218 19.5627" stroke="#21714C" stroke-width="1.5" stroke-linecap="round" stroke-linejoin="round"/>
<path d="M16.7475 15.0798L15.6899 13.2481L19.4611 11.0708L20.5187 12.9025C21.1408 13.98 20.7143 15.2319 19.7446 15.7918C18.667 16.4139 17.3074 16.0496 16.7475 15.0798Z" fill="#C6F8DB" stroke="#21714C" stroke-width="1.5" stroke-linecap="round" stroke-linejoin="round"/>
<path d="M30.3821 34.217L28.2048 30.4458" stroke="#21714C" stroke-width="1.5" stroke-linecap="round" stroke-linejoin="round"/>
<path d="M33.2716 34.9911L34.3292 36.8228L30.5579 39.0001L29.5004 37.1684C28.8783 36.0909 29.3048 34.8389 30.2746 34.2791C31.3521 33.657 32.7118 34.0214 33.2716 34.9911Z" fill="#C6F8DB" stroke="#21714C" stroke-width="1.5" stroke-linecap="round" stroke-linejoin="round"/>
<path d="M14.23 25.3511H18.5846" stroke="#21714C" stroke-width="1.5" stroke-linecap="round" stroke-linejoin="round"/>
<path d="M12.1151 27.59H10V23.2354H12.1151C13.3593 23.2354 14.2302 24.2307 14.2302 25.3505C14.2302 26.5947 13.2349 27.59 12.1151 27.59Z" fill="#C6F8DB" stroke="#21714C" stroke-width="1.5" stroke-linecap="round" stroke-linejoin="round"/>
<path d="M35.5055 25.3511H31.1509" stroke="#21714C" stroke-width="1.5" stroke-linecap="round" stroke-linejoin="round"/>
<path d="M37.6205 23.2354H39.7356V27.59H37.6205C36.3764 27.59 35.5054 26.5947 35.5054 25.475C35.5054 24.2307 36.5007 23.2354 37.6205 23.2354Z" fill="#C6F8DB" stroke="#21714C" stroke-width="1.5" stroke-linecap="round" stroke-linejoin="round"/>
<path d="M31.5316 29.3136V21.565L24.8899 17.8291L18.1099 21.565V29.3136L24.8899 33.1879L31.5316 29.3136Z" fill="#C6F8DB"/>
<path d="M31.5316 29.3136V21.565L24.8899 17.8291L18.1099 21.565V29.3136L24.8899 33.1879L31.5316 29.3136Z" stroke="#21714C" stroke-width="1.5" stroke-linecap="round" stroke-linejoin="round"/>
<path d="M27.5179 27.1V23.9175L24.8889 22.3955L22.1216 23.9175V27.1L24.8889 28.622L27.5179 27.1Z" stroke="#21714C" stroke-width="1.5" stroke-linecap="round" stroke-linejoin="round"/>
</g>
<defs>
<clipPath id="clip0_107_8652">
<rect width="49" height="49" fill="white"/>
</clipPath>
</defs>
</svg>
