<svg width="49" height="49" viewBox="0 0 49 49" fill="none" xmlns="http://www.w3.org/2000/svg">
<g clip-path="url(#clip0_107_8567)">
<path d="M40.6152 0.583008H8.61523C4.19696 0.583008 0.615234 4.16473 0.615234 8.58301V40.583C0.615234 45.0013 4.19696 48.583 8.61523 48.583H40.6152C45.0335 48.583 48.6152 45.0013 48.6152 40.583V8.58301C48.6152 4.16473 45.0335 0.583008 40.6152 0.583008Z" fill="#164430"/>
<g clip-path="url(#clip1_107_8567)">
<path d="M30 34.5V40H36L37 39L38.5 37L39.5 35.5L40 34V26.5V25.5L39.5 25V24.5L39 24H38H37.5L36.5 24.5L36 25.5V27.5V30.5L35.5 29.5H34L32.5 30L31.5 32L30 34.5Z" fill="#1B2F27"/>
<path d="M20 34.5V40H14L13 39L11.5 37L10.5 35.5L10 34V26.5V25.5L10.5 25V24.5L11 24H12H12.5L13.5 24.5L14 25.5V27.5V30.5L14.5 29.5H16L17.5 30L18.5 32L20 34.5Z" fill="#1B2F27"/>
<path d="M14 40L11.3147 36.644C10.4636 35.5802 10 34.2584 10 32.896V26C10 25.4696 10.2107 24.9609 10.5858 24.5858C10.9609 24.2107 11.4696 24 12 24C12.5304 24 13.0391 24.2107 13.4142 24.5858C13.7893 24.9609 14 25.4696 14 26V31" stroke="#4CC38A" stroke-width="1.5" stroke-linecap="round" stroke-linejoin="round"/>
<path d="M19.9996 40.0001V35.8188C20.0007 34.6322 19.6494 33.4721 18.9903 32.4854L17.4676 30.2001C17.3377 29.9834 17.1652 29.7954 16.9605 29.6474C16.7558 29.4994 16.5231 29.3945 16.2767 29.339C16.0302 29.2835 15.7751 29.2787 15.5267 29.3247C15.2783 29.3707 15.0419 29.4667 14.8316 29.6068C14.4521 29.8596 14.1783 30.2427 14.0619 30.6836C13.9454 31.1245 13.9944 31.5928 14.1996 32.0001L15.9996 35.0001" stroke="#4CC38A" stroke-width="1.5" stroke-linecap="round" stroke-linejoin="round"/>
<path d="M36 40L38.6853 36.644C39.5364 35.5802 40 34.2584 40 32.896V26C40 25.4696 39.7893 24.9609 39.4142 24.5858C39.0391 24.2107 38.5304 24 38 24C37.4696 24 36.9609 24.2107 36.5858 24.5858C36.2107 24.9609 36 25.4696 36 26V31" stroke="#4CC38A" stroke-width="1.5" stroke-linecap="round" stroke-linejoin="round"/>
<path d="M30 40.0001V35.8188C29.9989 34.6322 30.3502 33.4721 31.0093 32.4854L32.532 30.2001C32.6619 29.9834 32.8345 29.7954 33.0392 29.6474C33.2439 29.4994 33.4765 29.3945 33.723 29.339C33.9694 29.2835 34.2246 29.2787 34.4729 29.3247C34.7213 29.3707 34.9578 29.4667 35.168 29.6068C35.5475 29.8596 35.8213 30.2427 35.9378 30.6836C36.0542 31.1245 36.0052 31.5928 35.8 32.0001L34 35.0001" stroke="#4CC38A" stroke-width="1.5" stroke-linecap="round" stroke-linejoin="round"/>
<path d="M18.8893 12.4438L14 16.1105L18.8893 19.7772" stroke="#4CC38A" stroke-width="1.5" stroke-linecap="round" stroke-linejoin="round"/>
<path d="M31.1113 12.4438L36.0007 16.1105L31.1113 19.7772" stroke="#4CC38A" stroke-width="1.5" stroke-linecap="round" stroke-linejoin="round"/>
<path d="M26.2227 10L23.7773 22.2227" stroke="#4CC38A" stroke-width="1.5" stroke-linecap="round" stroke-linejoin="round"/>
</g>
</g>
<defs>
<clipPath id="clip0_107_8567">
<rect width="49" height="49" fill="white"/>
</clipPath>
<clipPath id="clip1_107_8567">
<rect width="32" height="32" fill="white" transform="translate(9 9)"/>
</clipPath>
</defs>
</svg>
