<svg width="917" height="1000" viewBox="0 0 917 1000" fill="none" xmlns="http://www.w3.org/2000/svg">
<g filter="url(#filter0_i_8324_360)">
<path d="M272.144 328.145C318.619 281.671 318.619 206.326 272.144 159.854C225.675 113.382 150.327 113.382 103.853 159.854C57.3824 206.326 57.3824 281.671 103.853 328.145C150.327 374.614 225.675 374.614 272.144 328.145Z" fill="#2F2F2F" stroke="url(#paint0_linear_8324_360)" stroke-opacity="0.7" stroke-width="0.7" stroke-miterlimit="10"/>
<path d="M272.144 328.145C318.619 281.671 318.619 206.326 272.144 159.854C225.675 113.382 150.327 113.382 103.853 159.854C57.3824 206.326 57.3824 281.671 103.853 328.145C150.327 374.614 225.675 374.614 272.144 328.145Z" fill="#2F2F2F" stroke="url(#paint1_linear_8324_360)" stroke-opacity="0.7" stroke-miterlimit="10"/>
<path d="M255.329 311.344C292.504 274.164 292.504 213.887 255.329 176.709C218.154 139.532 157.874 139.532 120.696 176.709C83.5179 213.887 83.5179 274.164 120.696 311.344C157.874 348.519 218.154 348.519 255.329 311.344Z" fill="#2F2F2F"/>
</g>
<path fill-rule="evenodd" clip-rule="evenodd" d="M338 243.5C338 326.067 271.067 393 188.5 393C188.333 393 188.167 393 188 392.999V734.286C188 781.617 226.366 820 273.714 820H702.286C749.634 820 788 781.617 788 734.286V305.714C788 258.383 749.634 220 702.286 220H336.164C337.372 227.656 338 235.505 338 243.5ZM663.714 712.857H312.286C298.091 712.857 286.571 701.354 286.571 687.143C286.571 672.931 298.091 661.429 312.286 661.429H663.714C677.909 661.429 689.429 672.931 689.429 687.143C689.429 701.354 677.909 712.857 663.714 712.857ZM663.714 601.429H312.286C298.091 601.429 286.571 589.926 286.571 575.714C286.571 561.503 298.091 550 312.286 550H663.714C677.909 550 689.429 561.503 689.429 575.714C689.429 589.926 677.909 601.429 663.714 601.429ZM848 365.097V744.177C848 786.04 814.074 820 772.177 820H729.44C776.789 820 815.154 781.617 815.154 734.286V305.714C815.154 305.125 815.068 304.556 814.982 303.985C814.905 303.476 814.828 302.965 814.811 302.44C834.834 316.086 848 339.04 848 365.097ZM633.813 400.245C636.034 402.101 637.277 404.686 637.542 408H663.991C663.958 401.338 662.3 395.522 659.019 390.55C655.771 385.545 651.147 381.667 645.148 378.916C639.149 376.166 632.04 374.79 623.82 374.79C615.766 374.79 608.624 376.149 602.393 378.867C596.195 381.585 591.339 385.38 587.826 390.252C584.346 395.091 582.622 400.742 582.655 407.205C582.622 415.159 585.191 421.44 590.361 426.047C595.565 430.621 602.674 433.886 611.69 435.841L621.832 438.029C625.61 438.857 628.61 439.752 630.83 440.713C633.051 441.641 634.642 442.702 635.603 443.895C636.597 445.055 637.111 446.414 637.144 447.972C637.111 449.629 636.581 451.104 635.553 452.397C634.526 453.689 633.018 454.7 631.029 455.429C629.04 456.158 626.571 456.523 623.621 456.523C620.108 456.523 617.075 455.976 614.523 454.882C612.004 453.789 610.049 452.181 608.657 450.06C607.265 447.939 606.486 445.32 606.32 442.205H580.07C580.103 450.723 581.926 457.716 585.539 463.185C589.185 468.621 594.289 472.648 600.852 475.266C607.447 477.884 615.17 479.193 624.019 479.193C632.637 479.193 640.011 477.984 646.143 475.564C652.307 473.145 657.047 469.615 660.361 464.975C663.676 460.335 665.35 454.667 665.383 447.972C665.35 444.094 664.72 440.514 663.494 437.233C662.3 433.952 660.428 431.002 657.876 428.384C655.324 425.732 652.042 423.429 648.032 421.473C644.021 419.518 639.199 417.943 633.565 416.75L625.212 414.96C622.793 414.463 620.705 413.9 618.948 413.27C617.191 412.64 615.75 411.944 614.623 411.182C613.496 410.387 612.667 409.508 612.137 408.547C611.64 407.553 611.424 406.443 611.491 405.216C611.524 403.725 611.971 402.399 612.833 401.239C613.695 400.079 615.021 399.167 616.81 398.505C618.633 397.809 620.97 397.46 623.82 397.46C628.295 397.46 631.626 398.389 633.813 400.245ZM330.562 478H369.739C380.08 478 389.045 475.979 396.635 471.935C404.225 467.858 410.091 462.025 414.234 454.435C418.377 446.812 420.449 437.697 420.449 427.091C420.449 416.485 418.361 407.387 414.185 399.797C410.042 392.174 404.142 386.341 396.486 382.297C388.863 378.22 379.814 376.182 369.341 376.182H330.562V478ZM368.744 454.534H358.205V399.648H367.949C373.252 399.648 377.726 400.46 381.372 402.084C385.051 403.708 387.835 406.509 389.724 410.486C391.647 414.463 392.608 419.998 392.608 427.091C392.608 434.184 391.663 439.719 389.774 443.696C387.918 447.674 385.2 450.474 381.621 452.098C378.074 453.722 373.782 454.534 368.744 454.534ZM466.48 478V376.182H438.838V478H466.48ZM485.18 478V376.182H529.129C536.686 376.182 543.298 377.674 548.966 380.657C554.634 383.639 559.042 387.832 562.19 393.235C565.339 398.637 566.913 404.951 566.913 412.176C566.913 419.468 565.289 425.782 562.041 431.118C558.826 436.454 554.302 440.564 548.469 443.448C542.669 446.331 535.891 447.773 528.135 447.773H512.823V478H485.18ZM522.567 426.296H512.823V398.256H522.567C525.815 398.256 528.582 398.819 530.869 399.946C533.189 401.04 534.963 402.631 536.189 404.719C537.448 406.774 538.078 409.26 538.078 412.176C538.078 415.06 537.448 417.562 536.189 419.684C534.963 421.805 533.189 423.445 530.869 424.605C528.582 425.732 525.815 426.296 522.567 426.296Z" fill="#BF4723"/>
<g clip-path="url(#clip0_8324_360)">
<path fill-rule="evenodd" clip-rule="evenodd" d="M257.846 172.388C258.386 172.913 258.394 173.773 257.865 174.309L256.904 175.286C256.376 175.822 255.511 175.831 254.973 175.306C254.434 174.781 254.426 173.92 254.953 173.385L255.916 172.408C256.443 171.872 257.308 171.863 257.846 172.388ZM253.036 177.272C253.575 177.798 253.584 178.658 253.056 179.194L251.132 181.147C250.604 181.683 249.74 181.692 249.201 181.167C248.663 180.642 248.654 179.782 249.182 179.246L251.106 177.292C251.633 176.756 252.498 176.747 253.036 177.272ZM247.265 183.134C247.803 183.659 247.812 184.519 247.284 185.055L245.36 187.008C244.832 187.544 243.968 187.553 243.429 187.028C242.891 186.503 242.882 185.643 243.41 185.107L245.334 183.153C245.861 182.617 246.726 182.609 247.265 183.134ZM241.493 188.995C242.031 189.52 242.04 190.38 241.512 190.916L239.588 192.87C239.061 193.406 238.196 193.414 237.658 192.889C237.119 192.364 237.11 191.504 237.638 190.968L239.562 189.014C240.09 188.478 240.954 188.47 241.493 188.995ZM235.721 194.856C236.259 195.381 236.268 196.241 235.74 196.777L233.816 198.731C233.289 199.267 232.424 199.276 231.886 198.75C231.347 198.225 231.338 197.365 231.866 196.829L233.79 194.876C234.318 194.34 235.182 194.331 235.721 194.856ZM229.949 200.717C230.487 201.242 230.496 202.102 229.969 202.638L228.045 204.592C227.517 205.128 226.652 205.137 226.114 204.612C225.575 204.087 225.566 203.226 226.094 202.69L228.018 200.737C228.546 200.201 229.41 200.192 229.949 200.717ZM149.142 282.774C149.681 283.299 149.69 284.159 149.162 284.695L147.238 286.649C146.71 287.185 145.846 287.193 145.307 286.668C144.769 286.143 144.76 285.283 145.288 284.747L147.212 282.793C147.739 282.258 148.604 282.249 149.142 282.774ZM143.37 288.635C143.909 289.16 143.918 290.02 143.39 290.556L141.466 292.51C140.938 293.046 140.074 293.054 139.535 292.529C138.997 292.004 138.988 291.144 139.516 290.608L141.44 288.655C141.967 288.119 142.832 288.11 143.37 288.635ZM137.599 294.496C138.137 295.021 138.146 295.881 137.618 296.417L135.694 298.371C135.167 298.907 134.302 298.916 133.764 298.391C133.225 297.866 133.216 297.005 133.744 296.47L135.668 294.516C136.196 293.98 137.06 293.971 137.599 294.496ZM131.827 300.357C132.365 300.882 132.374 301.743 131.846 302.278L129.922 304.232C129.395 304.768 128.53 304.777 127.992 304.252C127.453 303.727 127.444 302.867 127.972 302.331L129.896 300.377C130.424 299.841 131.288 299.832 131.827 300.357ZM126.055 306.218C126.593 306.744 126.602 307.604 126.075 308.14L124.151 310.093C123.623 310.63 122.758 310.638 122.22 310.112C121.681 309.588 121.672 308.728 122.2 308.191L124.124 306.238C124.652 305.702 125.516 305.693 126.055 306.218ZM120.283 312.079C120.822 312.605 120.83 313.465 120.303 314L119.341 314.977C118.813 315.514 117.948 315.522 117.41 314.997C116.871 314.472 116.862 313.612 117.39 313.077L118.352 312.1C118.88 311.563 119.744 311.555 120.283 312.079Z" fill="#BF4723"/>
<path fill-rule="evenodd" clip-rule="evenodd" d="M206.937 200.528H169.06C154.215 200.528 144.309 211.103 144.309 226.246V261.754C144.309 276.911 154.189 287.472 169.06 287.472H206.933C221.808 287.472 231.693 276.911 231.693 261.754V226.246C231.693 211.09 221.809 200.528 206.937 200.528ZM169.06 207.049H206.937C218.081 207.049 225.139 214.591 225.139 226.246V261.754C225.139 273.409 218.08 280.951 206.933 280.951H169.06C157.918 280.951 150.862 273.41 150.862 261.754V226.246C150.862 214.606 157.942 207.049 169.06 207.049Z" fill="#BF4723"/>
<path d="M167.457 225.745H177.399L187.901 251.235H188.347L198.848 225.745H208.791V263.684H200.971V238.991H200.654L190.787 263.499H185.461L175.593 238.898H175.277V263.684H167.457V225.745Z" fill="#BF4723"/>
</g>
<defs>
<filter id="filter0_i_8324_360" x="68.5" y="124.5" width="239" height="239.996" filterUnits="userSpaceOnUse" color-interpolation-filters="sRGB">
<feFlood flood-opacity="0" result="BackgroundImageFix"/>
<feBlend mode="normal" in="SourceGraphic" in2="BackgroundImageFix" result="shape"/>
<feColorMatrix in="SourceAlpha" type="matrix" values="0 0 0 0 0 0 0 0 0 0 0 0 0 0 0 0 0 0 127 0" result="hardAlpha"/>
<feOffset dy="1"/>
<feGaussianBlur stdDeviation="4"/>
<feComposite in2="hardAlpha" operator="arithmetic" k2="-1" k3="1"/>
<feColorMatrix type="matrix" values="0 0 0 0 0 0 0 0 0 0 0 0 0 0 0 0 0 0 0.65 0"/>
<feBlend mode="normal" in2="shape" result="effect1_innerShadow_8324_360"/>
</filter>
<linearGradient id="paint0_linear_8324_360" x1="187.999" y1="125" x2="187.999" y2="362.999" gradientUnits="userSpaceOnUse">
<stop stop-color="#6B6B6F"/>
<stop offset="0.96875" stop-color="#848487" stop-opacity="0.42"/>
</linearGradient>
<linearGradient id="paint1_linear_8324_360" x1="3.783" y1="13.5895" x2="249.129" y2="360.136" gradientUnits="userSpaceOnUse">
<stop offset="0.0835138" stop-color="#F5A938"/>
<stop offset="0.96875" stop-color="#848487" stop-opacity="0"/>
</linearGradient>
<clipPath id="clip0_8324_360">
<rect width="142" height="144" fill="white" transform="translate(117 172)"/>
</clipPath>
</defs>
</svg>
