<svg width="256" height="256" viewBox="0 0 256 256" fill="none" xmlns="http://www.w3.org/2000/svg">
<g clip-path="url(#clip0_108_8908)">
<path d="M155.429 9.14307H27.4285C22.5789 9.14307 17.9278 11.0696 14.4986 14.4988C11.0693 17.9281 9.14282 22.5791 9.14282 27.4288V228.572C9.14282 233.421 11.0693 238.072 14.4986 241.502C17.9278 244.931 22.5789 246.857 27.4285 246.857H228.571C233.421 246.857 238.072 244.931 241.501 241.502C244.931 238.072 246.857 233.421 246.857 228.572V100.572L155.429 9.14307Z" stroke="#B3B3B3" stroke-width="18" stroke-linecap="round" stroke-linejoin="round"/>
<path d="M155.428 91.4288V9.14307L246.857 100.572H164.571C162.146 100.572 159.821 99.6084 158.106 97.8938C156.392 96.1791 155.428 93.8536 155.428 91.4288Z" stroke="#B3B3B3" stroke-width="18" stroke-linecap="round" stroke-linejoin="round"/>
<path d="M82.2856 82.286V54.8574" stroke="#B3B3B3" stroke-width="18" stroke-linecap="round" stroke-linejoin="round"/>
<path d="M54.8572 155.429C54.8572 169.143 67.1086 173.715 82.2857 173.715C97.4629 173.715 109.714 173.715 109.714 155.429C109.714 128 54.8572 128 54.8572 100.572C54.8572 82.2861 67.1086 82.2861 82.2857 82.2861C97.4629 82.2861 109.714 89.2347 109.714 100.572" stroke="#B3B3B3" stroke-width="18" stroke-linecap="round" stroke-linejoin="round"/>
<path d="M82.2856 173.714V201.143" stroke="#B3B3B3" stroke-width="18" stroke-linecap="round" stroke-linejoin="round"/>
<path d="M155.428 173.714H210.286" stroke="#B3B3B3" stroke-width="18" stroke-linecap="round" stroke-linejoin="round"/>
</g>
<defs>
<clipPath id="clip0_108_8908">
<rect width="256" height="256" fill="white"/>
</clipPath>
</defs>
</svg>
