<svg width="256" height="256" viewBox="0 0 256 256" fill="none" xmlns="http://www.w3.org/2000/svg">
<path d="M236.069 100.572H19.9314C9.6914 100.572 5.30283 89.4174 13.3485 84.1145L121.417 13.3488C123.412 12.1751 125.685 11.5562 128 11.5562C130.315 11.5562 132.588 12.1751 134.583 13.3488L242.651 84.1145C250.697 89.4174 246.309 100.572 236.069 100.572Z" stroke="#B3B3B3" stroke-width="18" stroke-linecap="round" stroke-linejoin="round"/>
<path d="M237.714 201.143H18.2857C13.2362 201.143 9.14282 205.236 9.14282 210.286V237.714C9.14282 242.764 13.2362 246.857 18.2857 246.857H237.714C242.764 246.857 246.857 242.764 246.857 237.714V210.286C246.857 205.236 242.764 201.143 237.714 201.143Z" stroke="#B3B3B3" stroke-width="18" stroke-linecap="round" stroke-linejoin="round"/>
<path d="M36.5713 100.572V201.143" stroke="#B3B3B3" stroke-width="18" stroke-linecap="round" stroke-linejoin="round"/>
<path d="M82.2856 100.572V201.143" stroke="#B3B3B3" stroke-width="18" stroke-linecap="round" stroke-linejoin="round"/>
<path d="M128 100.572V201.143" stroke="#B3B3B3" stroke-width="18" stroke-linecap="round" stroke-linejoin="round"/>
<path d="M173.714 100.572V201.143" stroke="#B3B3B3" stroke-width="18" stroke-linecap="round" stroke-linejoin="round"/>
<path d="M219.428 100.572V201.143" stroke="#B3B3B3" stroke-width="18" stroke-linecap="round" stroke-linejoin="round"/>
</svg>
