<svg width="256" height="256" viewBox="0 0 256 256" fill="none" xmlns="http://www.w3.org/2000/svg">
<g clip-path="url(#clip0_108_8987)">
<path d="M134.583 245.577C130.346 247.212 125.653 247.212 121.417 245.577C88.3326 232.605 59.9246 209.964 39.8973 180.608C19.8699 151.252 9.15262 116.543 9.14282 81.0059V27.4288C9.14282 22.5791 11.0693 17.9281 14.4986 14.4988C17.9278 11.0696 22.5789 9.14307 27.4285 9.14307H228.571C233.421 9.14307 238.072 11.0696 241.501 14.4988C244.931 17.9281 246.857 22.5791 246.857 27.4288V80.8231C246.884 116.391 236.184 151.141 216.154 180.533C196.124 209.925 167.696 232.593 134.583 245.577Z" stroke="#B3B3B3" stroke-width="18" stroke-linecap="round" stroke-linejoin="round"/>
<path d="M155.429 100.572H100.571C90.4724 100.572 82.2856 108.759 82.2856 118.857V155.429C82.2856 165.528 90.4724 173.715 100.571 173.715H155.429C165.527 173.715 173.714 165.528 173.714 155.429V118.857C173.714 108.759 165.527 100.572 155.429 100.572Z" stroke="#B3B3B3" stroke-width="18" stroke-linecap="round" stroke-linejoin="round"/>
<path d="M155.429 100.572V82.286C155.429 78.684 154.719 75.1173 153.341 71.7895C151.962 68.4617 149.942 65.438 147.395 62.8911C144.848 60.3441 141.824 58.3237 138.496 56.9453C135.169 55.5669 131.602 54.8574 128 54.8574C124.398 54.8574 120.831 55.5669 117.504 56.9453C114.176 58.3237 111.152 60.3441 108.605 62.8911C106.058 65.438 104.038 68.4617 102.659 71.7895C101.281 75.1173 100.571 78.684 100.571 82.286V100.572" stroke="#B3B3B3" stroke-width="18" stroke-linecap="round" stroke-linejoin="round"/>
</g>
<defs>
<clipPath id="clip0_108_8987">
<rect width="256" height="256" fill="white"/>
</clipPath>
</defs>
</svg>
