<svg width="256" height="256" viewBox="0 0 256 256" fill="none" xmlns="http://www.w3.org/2000/svg">
<path d="M9.14259 146.286C9.14259 174.058 31.6562 196.572 59.4283 196.572C80.7492 196.572 98.9711 183.301 106.286 164.572H149.714C157.029 183.301 175.251 196.572 196.571 196.572C224.344 196.572 246.857 174.058 246.857 146.286V100.571C246.857 70.2746 222.296 45.7144 192 45.7144H63.9995C33.7026 45.7144 9.14217 70.275 9.14233 100.572L9.14259 146.286Z" stroke="#B3B3B3" stroke-width="18" stroke-linejoin="round"/>
<path d="M64 91.4268V127.998" stroke="#B3B3B3" stroke-width="18" stroke-linecap="round" stroke-linejoin="round"/>
<path d="M45.7144 109.712H82.2857" stroke="#B3B3B3" stroke-width="18" stroke-linecap="round" stroke-linejoin="round"/>
<path d="M205.716 100.572C203.191 100.572 201.144 98.5249 201.144 96.0002C201.144 93.4754 203.191 91.4287 205.716 91.4287" stroke="#B3B3B3" stroke-width="18" stroke-linecap="round" stroke-linejoin="round"/>
<path d="M205.717 100.572C208.239 100.572 210.287 98.5249 210.287 96.0002C210.287 93.4754 208.239 91.4287 205.717 91.4287" stroke="#B3B3B3" stroke-width="18" stroke-linecap="round" stroke-linejoin="round"/>
<path d="M169.143 127.998C166.618 127.998 164.571 125.951 164.571 123.427C164.571 120.902 166.618 118.855 169.143 118.855" stroke="#B3B3B3" stroke-width="18" stroke-linecap="round" stroke-linejoin="round"/>
<path d="M169.143 127.998C171.667 127.998 173.714 125.951 173.714 123.427C173.714 120.902 171.667 118.855 169.143 118.855" stroke="#B3B3B3" stroke-width="18" stroke-linecap="round" stroke-linejoin="round"/>
</svg>
