<svg width="242" height="257" viewBox="0 0 242 257" fill="none" xmlns="http://www.w3.org/2000/svg">
<g clip-path="url(#clip0_2311_44475)">
<path d="M33.9108 255.967H207.572C230.505 255.967 241.42 249.06 241.42 233.862C241.42 197.666 195.691 145.305 120.81 145.305C45.7922 145.305 0.0629883 197.666 0.0629883 233.862C0.0629883 249.06 10.9772 255.967 33.9108 255.967ZM27.4176 235.106C23.8255 235.106 22.3059 234.139 22.3059 231.238C22.3059 208.442 57.3971 166.166 120.81 166.166C184.085 166.166 219.176 208.442 219.176 231.238C219.176 234.139 217.795 235.106 214.203 235.106H27.4176ZM120.81 128.037C153.69 128.037 180.493 98.8856 180.493 63.2417C180.493 27.8741 153.829 0.10498 120.81 0.10498C88.0674 0.10498 61.1274 28.4266 61.1274 63.518C61.1274 99.0236 87.9293 128.037 120.81 128.037ZM120.81 107.175C100.64 107.175 83.3703 87.9713 83.3703 63.518C83.3703 39.479 100.363 20.9663 120.81 20.9663C141.395 20.9663 158.25 39.0646 158.25 63.2417C158.25 87.695 141.118 107.175 120.81 107.175Z" fill="#B3B3B3"/>
</g>
<defs>
<clipPath id="clip0_2311_44475">
<rect width="241.357" height="256" fill="white" transform="translate(0.0629883 0.10498)"/>
</clipPath>
</defs>
</svg>
