<svg width="261" height="257" viewBox="0 0 261 257" fill="none" xmlns="http://www.w3.org/2000/svg">
<g clip-path="url(#clip0_2311_68179)">
<path d="M13.6017 167.979C17.0245 166.916 18.6769 163.375 17.7327 159.362C14.782 147.442 13.0116 134.813 13.6017 118.289C13.7198 113.922 11.3592 111.562 7.81842 111.326C3.21538 110.971 0.736819 113.805 0.382739 117.463C-0.6795 130.8 0.382739 146.734 4.98578 163.139C6.16604 167.152 9.94289 169.158 13.6017 167.979ZM8.40855 97.6345C11.8313 98.9328 16.1983 97.3984 17.8506 92.9135C36.8529 39.8015 82.2932 13.3635 128.441 13.3635C149.451 13.3635 165.974 17.6125 180.019 25.6383C184.033 27.9988 188.517 27.9988 190.288 24.104C192.176 19.973 190.051 17.3764 187.101 15.488C169.161 4.27546 150.985 0.144531 128.441 0.144531C75.0936 0.144531 26.7027 28.589 4.98578 86.422C2.74327 92.3233 4.98578 96.4542 8.40855 97.6345ZM253.904 140.478C257.681 140.478 260.395 137.409 260.041 133.279C254.73 85.2417 238.915 54.9089 211.651 31.0675C208.228 27.9988 204.097 28.9431 202.09 31.3036C199.848 33.7821 199.611 37.677 203.152 40.8637C226.404 62.5806 243.282 90.6709 247.294 133.515C247.767 137.409 250.127 140.478 253.904 140.478Z" fill="#B3B3B3"/>
<path d="M27.2927 202.206C29.5352 205.275 34.0202 206.101 37.325 203.269C45.8229 196.069 50.0719 184.502 50.0719 172.464C50.0719 156.176 42.9903 147.914 42.9903 127.613C42.9903 81.347 81.467 42.8703 127.733 42.8703C183.56 42.8703 219.558 88.5466 219.676 155.94C219.676 182.259 215.309 200.908 210.942 211.648C209.408 215.307 210.824 219.202 213.893 220.855C217.197 222.271 221.801 221.091 223.217 217.196C227.82 204.685 232.895 184.148 232.895 155.821C232.895 80.6389 191.467 29.6514 127.733 29.6514C74.1493 29.6514 29.7713 74.1474 29.7713 127.613C29.7713 146.97 37.089 160.071 37.207 172.346C37.207 180.371 34.2563 188.043 28.7091 192.882C25.8764 195.243 25.4043 199.492 27.2927 202.206Z" fill="#B3B3B3"/>
<path d="M80.4048 160.188C77.4541 152.163 72.615 142.012 72.615 128.322C72.615 96.9262 97.0466 72.4946 128.441 72.4946C140.48 72.4946 144.257 73.793 154.761 78.8681C158.42 80.5205 161.725 79.4582 163.023 76.8617C164.794 73.5569 163.85 69.544 159.836 67.1835C152.047 62.5805 140.126 59.1577 128.441 59.1577C89.7289 59.1577 59.2781 89.6085 59.2781 128.322C59.2781 143.192 63.2909 155.231 67.4219 165.263C69.0742 169.158 72.615 171.047 76.864 169.277C80.4048 167.86 81.7031 164.083 80.4048 160.188Z" fill="#B3B3B3"/>
<path d="M55.1471 224.159C63.881 219.674 75.8017 204.33 79.1065 192.174C80.0507 188.869 78.5163 184.856 74.8575 183.676C71.5528 182.496 68.0119 184.502 66.7137 188.279C63.5269 198.665 57.9797 206.455 49.2457 212.356C44.9968 215.307 44.4066 218.966 45.7049 221.68C47.1212 224.631 50.898 226.283 55.1471 224.159ZM173.292 94.6837C184.74 111.326 190.406 134.34 190.406 162.194C190.406 191.938 182.144 220.028 169.279 236.08C167.154 238.912 166.918 242.925 169.515 245.522C172.347 248.118 177.187 248 179.548 244.814C193.946 225.339 203.388 194.417 203.388 161.723C203.388 125.961 195.717 104.716 184.976 87.6021C182.498 83.8252 178.367 82.645 175.062 84.4154C171.639 86.3038 170.577 90.6708 173.292 94.6837Z" fill="#B3B3B3"/>
<path d="M79.9327 239.739C99.289 224.159 109.912 199.373 109.794 171.873C109.676 151.101 102.24 138.235 102.24 126.905C102.24 112.034 112.744 102.119 128.088 102.119C151.693 102.119 159.364 129.03 160.073 160.896C161.135 197.721 147.798 228.88 130.33 244.224C127.498 246.584 126.907 250.242 128.796 253.193C131.038 256.38 135.641 256.97 138.71 254.138C157.122 237.378 172.702 200.553 172.465 159.953C172.347 120.296 161.135 88.9004 128.088 88.9004C106.135 88.9004 89.2568 103.535 89.2568 125.725C89.2568 139.062 96.3383 155.468 96.4564 171.873C96.5744 195.242 87.8404 216.251 71.6708 229.352C68.4841 231.948 68.0119 235.725 70.0184 238.676C72.497 242.099 76.7459 242.453 79.9327 239.739Z" fill="#B3B3B3"/>
<path d="M107.551 249.181C116.875 242.453 128.441 226.991 132.926 211.884C133.753 209.287 133.163 204.92 129.386 203.622C125.372 202.206 121.95 204.212 120.888 207.281C114.869 223.097 107.433 232.421 99.5251 238.559C96.5744 240.918 95.7483 244.814 97.7547 247.883C99.6431 251.187 104.246 251.66 107.551 249.181ZM139.654 184.384C142.958 168.45 141.66 148.032 135.877 130.328C134.343 125.961 130.92 124.073 127.261 125.253C123.839 126.433 121.714 129.62 123.013 133.75C128.441 150.864 129.386 167.742 126.672 182.614C125.963 186.155 127.38 189.577 131.51 190.168C135.287 190.876 138.828 188.633 139.654 184.384Z" fill="#B3B3B3"/>
</g>
<defs>
<clipPath id="clip0_2311_68179">
<rect width="260.068" height="256" fill="white" transform="translate(0.00415039 0.144531)"/>
</clipPath>
</defs>
</svg>
