<svg width="330" height="256" viewBox="0 0 330 256" fill="none" xmlns="http://www.w3.org/2000/svg">
<path d="M70.0336 69.1452C67.6646 69.1452 65.7398 68.4049 64.2592 66.9242C62.7786 65.3449 62.0383 63.4201 62.0383 61.1498C62.0383 58.7808 62.7786 56.9053 64.2592 55.5234C65.7398 54.0428 67.6646 53.3025 70.0336 53.3025H189.52C191.889 53.3025 193.814 54.0428 195.295 55.5234C196.874 56.9053 197.664 58.7808 197.664 61.1498C197.664 63.4201 196.874 65.3449 195.295 66.9242C193.814 68.4049 191.889 69.1452 189.52 69.1452H70.0336ZM70.0336 202.549C67.6646 202.549 65.7398 201.809 64.2592 200.329C62.7786 198.749 62.0383 196.874 62.0383 194.702C62.0383 192.432 62.7786 190.556 64.2592 189.076C65.7398 187.496 67.6646 186.707 70.0336 186.707H189.52C191.889 186.707 193.814 187.496 195.295 189.076C196.874 190.556 197.664 192.432 197.664 194.702C197.664 196.874 196.874 198.749 195.295 200.329C193.814 201.809 191.889 202.549 189.52 202.549H70.0336ZM42.9382 256C28.6255 256 17.8662 252.447 10.6605 245.34C3.5535 238.233 0 227.671 0 213.654V42.3459C0 28.2306 3.5535 17.6688 10.6605 10.6605C17.8662 3.5535 28.6255 0 42.9382 0H286.353C300.666 0 311.376 3.5535 318.483 10.6605C325.59 17.7675 329.143 28.3293 329.143 42.3459V213.654C329.143 227.671 325.59 238.233 318.483 245.34C311.376 252.447 300.666 256 286.353 256H42.9382ZM43.2343 235.419H286.057C293.263 235.419 298.84 233.495 302.788 229.645C306.737 225.795 308.711 220.07 308.711 212.47V43.3823C308.711 35.7818 306.737 30.0567 302.788 26.2071C298.84 22.2587 293.263 20.2846 286.057 20.2846H43.2343C35.9299 20.2846 30.3035 22.2587 26.3552 26.2071C22.5055 30.0567 20.5807 35.7818 20.5807 43.3823V212.47C20.5807 220.07 22.5055 225.795 26.3552 229.645C30.3035 233.495 35.9299 235.419 43.2343 235.419ZM56.4119 160.5C50.7855 160.5 46.393 158.871 43.2343 155.614C40.0756 152.258 38.4963 147.816 38.4963 142.288V113.268C38.4963 107.74 40.0756 103.348 43.2343 100.09C46.393 96.7341 50.7855 95.0561 56.4119 95.0561H273.176C278.802 95.0561 283.195 96.7341 286.353 100.09C289.512 103.348 291.091 107.74 291.091 113.268V142.288C291.091 147.816 289.512 152.258 286.353 155.614C283.195 158.871 278.802 160.5 273.176 160.5H56.4119ZM70.0336 135.921H141.548C143.818 135.921 145.694 135.132 147.174 133.552C148.754 131.973 149.543 130.048 149.543 127.778C149.543 125.508 148.754 123.632 147.174 122.152C145.694 120.671 143.818 119.931 141.548 119.931H70.0336C67.7634 119.931 65.8385 120.671 64.2592 122.152C62.7786 123.632 62.0383 125.508 62.0383 127.778C62.0383 130.048 62.7786 131.973 64.2592 133.552C65.8385 135.132 67.7634 135.921 70.0336 135.921Z" fill="#B3B3B3"/>
</svg>
