<svg width="210" height="235" viewBox="0 0 210 235" fill="none" xmlns="http://www.w3.org/2000/svg">
<path d="M112.286 111.509L140.108 80.1574C145.61 74.0325 142.496 65.2085 133.672 65.2085H114.882V9.04621C114.882 4.06324 110.937 0.222229 106.058 0.222229C100.971 0.222229 97.1299 4.06324 97.1299 9.04621V65.2085H78.132C69.6194 65.2085 65.986 73.721 71.5918 80.1574L99.5173 111.509C103.255 115.869 108.445 115.869 112.286 111.509Z" fill="#B3B3B3"/>
<path fill-rule="evenodd" clip-rule="evenodd" d="M110.456 182.42V195.344C110.456 199.082 107.445 202.092 103.708 202.092C99.9713 202.092 96.8566 199.082 96.8566 195.344V182.358C89.616 182.152 82.6836 181.668 76.0941 180.923V192.645C76.0941 196.383 72.9798 199.496 69.2426 199.496C65.5053 199.496 62.4948 196.383 62.4948 192.645V178.932C55.9665 177.741 49.8619 176.264 44.2239 174.521V185.586C44.2239 189.323 41.2133 192.438 37.4761 192.438C33.7389 192.438 30.6245 189.323 30.6245 185.586V169.395C25.3619 166.993 20.7061 164.293 16.7137 161.323V173.336C16.7137 206.349 50.0374 218.286 104.954 218.286C159.871 218.286 193.194 206.349 193.194 173.336V161.302C188.582 164.734 183.085 167.805 176.791 170.473V185.586C176.791 189.323 173.678 192.438 169.94 192.438C166.203 192.438 163.193 189.323 163.193 185.586V175.252C157.53 176.887 151.426 178.263 144.922 179.361V192.645C144.922 196.383 141.911 199.496 138.174 199.496C134.437 199.496 131.322 196.383 131.322 192.645V181.187C124.688 181.864 117.721 182.28 110.456 182.42ZM193.194 131.915C193.194 114.572 167.018 102.078 125.936 98.9434L139.376 83.7077C182.728 89.7464 209.908 107.542 209.908 131.915V173.336C209.908 216.729 170.252 235 104.954 235C39.5523 235 0 216.729 0 173.336V131.915C0 107.348 27.5473 89.4629 71.5344 83.5654L85.6364 98.4839L90.2594 98.5432C45.5795 100.838 16.7137 113.702 16.7137 131.915C16.7137 152.055 52.0098 165.757 104.954 165.757C157.898 165.757 193.194 152.055 193.194 131.915ZM76.1272 83C74.5771 83.1742 73.0461 83.3627 71.5344 83.5654L71 83L76.1272 83ZM76.1272 83C85.1264 81.989 94.7648 81.4624 104.954 81.4624C115.127 81.4624 124.754 81.989 133.745 83L103.409 83L76.1272 83ZM90.2594 98.5432C94.9858 98.3004 99.8893 98.176 104.954 98.176C112.304 98.176 119.314 98.4381 125.936 98.9434L125.886 99L105.761 98.7419L90.2594 98.5432ZM133.745 83L140 83L139.376 83.7077C137.528 83.4503 135.651 83.2143 133.745 83Z" fill="#B3B3B3"/>
</svg>
