<svg width="256" height="256" viewBox="0 0 256 256" fill="none" xmlns="http://www.w3.org/2000/svg">
<g clip-path="url(#clip0_2501_3)">
<path d="M127.937 255.874C197.926 255.874 255.874 197.801 255.874 127.937C255.874 57.948 197.801 0 127.812 0C57.948 0 0 57.948 0 127.937C0 197.801 58.0734 255.874 127.937 255.874ZM127.937 234.552C68.7349 234.552 21.4483 187.14 21.4483 127.937C21.4483 68.7349 68.6095 21.3229 127.812 21.3229C187.014 21.3229 234.552 68.7349 234.552 127.937C234.552 187.14 187.14 234.552 127.937 234.552Z" fill="#B3B3B3"/>
<path d="M92.4409 178.36C92.4409 184.129 96.4546 188.143 102.35 188.143H107.618V198.052C107.618 201.69 110.127 204.197 113.638 204.197C117.15 204.197 119.659 201.69 119.659 198.052V188.143H127.812V198.052C127.812 201.69 130.446 204.197 133.832 204.197C137.344 204.197 139.978 201.69 139.978 198.052V187.767C160.799 185.508 172.967 173.467 172.967 155.03C172.967 140.857 164.562 130.32 151.644 126.432C160.925 121.916 167.322 112.007 167.322 101.346C167.322 85.793 156.66 74.5045 139.978 71.9959V61.8362C139.978 58.1988 137.344 55.6902 133.832 55.6902C130.446 55.6902 127.812 58.1988 127.812 61.8362V71.4943H119.659V61.8362C119.659 58.1988 117.15 55.6902 113.638 55.6902C110.127 55.6902 107.618 58.1988 107.618 61.8362V71.4943H102.35C96.5801 71.4943 92.4409 75.508 92.4409 81.4031V178.36ZM108.496 173.467V135.337H129.693C147.63 135.337 156.912 141.734 156.912 154.403C156.912 166.82 148.005 173.217 131.073 173.342L108.496 173.467ZM108.496 120.662V86.0439H129.944C143.49 86.0439 151.267 91.9391 151.267 102.601C151.267 114.391 142.487 120.913 126.432 120.788L108.496 120.662Z" fill="#B3B3B3"/>
</g>
<defs>
<clipPath id="clip0_2501_3">
<rect width="255.874" height="256" fill="white"/>
</clipPath>
</defs>
</svg>
