<svg width="207" height="257" viewBox="0 0 207 257" fill="none" xmlns="http://www.w3.org/2000/svg">
<g clip-path="url(#clip0_2311_64996)">
<path d="M7.5807 209.039H199.003C203.221 209.039 206.636 205.725 206.636 201.406C206.636 197.188 203.221 193.874 199.003 193.874H7.5807C3.36258 193.874 0.0483398 197.188 0.0483398 201.406C0.0483398 205.725 3.36258 209.039 7.5807 209.039ZM7.5807 256.141H131.413C135.631 256.141 139.046 252.827 139.046 248.609C139.046 244.391 135.631 240.976 131.413 240.976H7.5807C3.36258 240.976 0.0483398 244.391 0.0483398 248.609C0.0483398 252.827 3.36258 256.141 7.5807 256.141Z" fill="#B3B3B3"/>
<path d="M27.9683 161.836H178.716C197.396 161.836 206.636 152.697 206.636 134.419V27.8607C206.636 9.58206 197.396 0.241943 178.716 0.241943H27.9683C9.48888 0.241943 0.0483398 9.6825 0.0483398 27.8607V134.419C0.0483398 152.597 9.38844 161.836 27.9683 161.836ZM28.1692 146.57C19.733 146.57 15.2135 142.152 15.2135 133.515V28.664C15.2135 20.1274 19.733 15.4071 28.1692 15.4071H178.615C186.951 15.4071 191.471 20.0269 191.471 28.664V133.515C191.471 142.051 186.951 146.57 178.615 146.57H28.1692ZM197.095 129.598L145.372 80.8885C141.456 77.3734 136.836 75.5656 132.116 75.5656C127.396 75.5656 123.177 77.2729 119.06 80.7881L79.6905 116.039L63.6215 101.376C60.0059 98.0624 55.9887 96.3552 51.6702 96.3552C47.8537 96.3552 44.2382 98.0624 40.5223 101.376L7.48028 131.305C7.98243 146.972 14.41 155.007 27.4662 155.007H173.494C189.261 155.007 197.095 146.27 197.095 129.598Z" fill="#B3B3B3"/>
<path d="M65.4293 81.8929C76.6776 81.8929 86.0173 72.5528 86.0173 61.2041C86.0173 49.9557 76.6776 40.7161 65.4293 40.7161C54.0805 40.7161 44.9412 49.9557 44.9412 61.2041C44.9412 72.5528 54.0805 81.8929 65.4293 81.8929Z" fill="#B3B3B3"/>
</g>
<defs>
<clipPath id="clip0_2311_64996">
<rect width="206.588" height="256" fill="white" transform="translate(0.0483398 0.141602)"/>
</clipPath>
</defs>
</svg>
