<svg width="328" height="257" viewBox="0 0 328 257" fill="none" xmlns="http://www.w3.org/2000/svg">
<g clip-path="url(#clip0_2311_43635)">
<path d="M43.676 256.011H284.241C313.443 256.011 327.904 241.689 327.904 213.043V43.1182C327.904 14.4729 313.443 0.0112305 284.241 0.0112305H43.676C14.6135 0.0112305 0.0126953 14.4729 0.0126953 43.1182V213.043C0.0126953 241.689 14.6135 256.011 43.676 256.011ZM43.954 233.624C30.0486 233.624 22.4006 226.254 22.4006 211.792V44.3698C22.4006 29.908 30.0486 22.3991 43.954 22.3991H283.963C297.729 22.3991 305.517 29.908 305.517 44.3698V211.792C305.517 226.254 297.729 233.624 283.963 233.624H43.954Z" fill="#B3B3B3"/>
<path d="M59.8063 107.501C48.9601 114.036 58.1377 130.584 70.0964 123.075L110.144 98.0449C118.07 93.0389 117.653 81.2193 110.144 76.4914L70.0964 51.4615C58.1377 43.9525 48.821 60.361 59.8063 67.0357L93.3186 87.1987L59.8063 107.501ZM118.488 122.936C118.488 127.802 122.381 131.836 127.387 131.836H180.367C185.373 131.836 189.266 127.802 189.266 122.936C189.266 117.93 185.373 113.897 180.367 113.897H127.387C122.381 113.897 118.488 117.93 118.488 122.936Z" fill="#B3B3B3"/>
</g>
<defs>
<clipPath id="clip0_2311_43635">
<rect width="327.892" height="256" fill="white" transform="translate(0.0126953 0.0112305)"/>
</clipPath>
</defs>
</svg>
