<svg width="678" height="447" viewBox="0 0 678 447" fill="none" xmlns="http://www.w3.org/2000/svg">
<path opacity="0.6" d="M83.8199 411.321C90.8155 411.321 96.4865 405.649 96.4865 398.653C96.4865 391.657 90.8155 385.987 83.8199 385.987C76.8243 385.987 71.1533 391.657 71.1533 398.653C71.1533 405.649 76.8243 411.321 83.8199 411.321Z" fill="#0D0D0D"/>
<path d="M23.0479 381.013V371.961H24.1437V375.993H28.9695V371.961H30.0653V381.013H28.9695V376.963H24.1437V381.013H23.0479ZM40.3934 376.488C40.3934 377.441 40.2209 378.265 39.8762 378.962C39.5315 379.656 39.0586 380.194 38.4578 380.57C37.8568 380.948 37.1704 381.135 36.3984 381.135C35.6266 381.135 34.9402 380.948 34.3391 380.57C33.7383 380.194 33.2654 379.656 32.9207 378.962C32.576 378.265 32.4036 377.441 32.4036 376.488C32.4036 375.532 32.576 374.708 32.9207 374.012C33.2654 373.317 33.7383 372.78 34.3391 372.404C34.9402 372.026 35.6266 371.839 36.3984 371.839C37.1704 371.839 37.8568 372.026 38.4578 372.404C39.0586 372.78 39.5315 373.317 39.8762 374.012C40.2209 374.708 40.3934 375.532 40.3934 376.488ZM39.3327 376.488C39.3327 375.704 39.2015 375.042 38.9394 374.502C38.6801 373.964 38.3282 373.556 37.8832 373.277C37.4414 373.001 36.9464 372.864 36.3984 372.864C35.8506 372.864 35.354 373.001 34.9093 373.277C34.4673 373.556 34.1154 373.964 33.853 374.502C33.5937 375.042 33.4643 375.704 33.4643 376.488C33.4643 377.269 33.5937 377.931 33.853 378.472C34.1154 379.009 34.4673 379.417 34.9093 379.696C35.354 379.972 35.8506 380.109 36.3984 380.109C36.9464 380.109 37.4414 379.972 37.8832 379.696C38.3282 379.417 38.6801 379.009 38.9394 378.472C39.2015 377.931 39.3327 377.269 39.3327 376.488ZM42.7339 381.013V371.961H45.7919C46.499 371.961 47.0791 372.083 47.5328 372.324C47.9865 372.563 48.3225 372.892 48.5405 373.31C48.7586 373.728 48.8676 374.203 48.8676 374.736C48.8676 375.271 48.7586 375.744 48.5405 376.154C48.3225 376.568 47.988 376.891 47.5373 377.128C47.0866 377.362 46.5107 377.476 45.8096 377.476H43.3347V376.488H45.7742C46.2573 376.488 46.646 376.416 46.9407 376.274C47.2384 376.132 47.4534 375.933 47.5858 375.674C47.7215 375.41 47.7892 375.099 47.7892 374.736C47.7892 374.375 47.7215 374.059 47.5858 373.788C47.4504 373.516 47.2339 373.307 46.9362 373.16C46.6388 373.009 46.2456 372.934 45.7565 372.934H43.8297V381.013H42.7339ZM46.9937 376.946L49.221 381.013H47.9482L45.7565 376.946H46.9937ZM52.2874 371.961V381.013H51.1914V371.961H52.2874ZM54.6819 381.013V380.216L59.5605 372.934H54.6289V371.961H60.8686V372.757L55.9901 380.04H60.9216V381.013H54.6819ZM70.4685 376.488C70.4685 377.441 70.2963 378.265 69.9516 378.962C69.6069 379.656 69.134 380.194 68.5329 380.57C67.9321 380.948 67.2457 381.135 66.4737 381.135C65.7019 381.135 65.0155 380.948 64.4144 380.57C63.8134 380.194 63.3405 379.656 62.9961 378.962C62.6514 378.265 62.4789 377.441 62.4789 376.488C62.4789 375.532 62.6514 374.708 62.9961 374.012C63.3405 373.317 63.8134 372.78 64.4144 372.404C65.0155 372.026 65.7019 371.839 66.4737 371.839C67.2457 371.839 67.9321 372.026 68.5329 372.404C69.134 372.78 69.6069 373.317 69.9516 374.012C70.2963 374.708 70.4685 375.532 70.4685 376.488ZM69.408 376.488C69.408 375.704 69.2768 375.042 69.0148 374.502C68.7554 373.964 68.4035 373.556 67.9585 373.277C67.5167 373.001 67.0217 372.864 66.4737 372.864C65.9259 372.864 65.4294 373.001 64.9846 373.277C64.5426 373.556 64.1904 373.964 63.9284 374.502C63.669 375.042 63.5394 375.704 63.5394 376.488C63.5394 377.269 63.669 377.931 63.9284 378.472C64.1904 379.009 64.5426 379.417 64.9846 379.696C65.4294 379.972 65.9259 380.109 66.4737 380.109C67.0217 380.109 67.5167 379.972 67.9585 379.696C68.4035 379.417 68.7554 379.009 69.0148 378.472C69.2768 377.931 69.408 377.269 69.408 376.488ZM79.9857 371.961V381.013H78.925L73.9934 373.907H73.905V381.013H72.809V371.961H73.8697L78.819 379.086H78.9073V371.961H79.9857Z" fill="#969696"/>
<mask id="mask0_109_9119" style="mask-type:luminance" maskUnits="userSpaceOnUse" x="78" y="391" width="11" height="16">
<path d="M88.8586 391.055H78.3901V406.255H88.8586V391.055Z" fill="white"/>
</mask>
<g mask="url(#mask0_109_9119)">
<path d="M78.3872 404.04V396.511L80.8138 394.448V401.972L78.3872 404.04Z" fill="#7A7A7A"/>
<path d="M78.3872 404.04V396.511L80.8138 394.448V401.972L78.3872 404.04Z" fill="url(#paint0_linear_109_9119)" fill-opacity="0.2"/>
<path d="M88.9056 400.763C88.1142 401.435 87.316 402.112 86.4907 402.814V395.293C87.2847 394.616 88.1022 393.936 88.9056 393.252V400.763Z" fill="#7A7A7A"/>
<path d="M88.9056 400.763C88.1142 401.435 87.316 402.112 86.4907 402.814V395.293C87.2847 394.616 88.1022 393.936 88.9056 393.252V400.763Z" fill="url(#paint1_linear_109_9119)" fill-opacity="0.2"/>
<path d="M84.9315 404.177C84.1204 404.868 83.3093 405.563 82.4917 406.26V399.313H84.9315V404.177Z" fill="#7A7A7A"/>
<path d="M84.9315 404.177C84.1204 404.868 83.3093 405.563 82.4917 406.26V399.313H84.9315V404.177Z" fill="url(#paint2_linear_109_9119)" fill-opacity="0.2"/>
<path d="M82.4712 397.968V393.097L84.911 390.997C84.9147 393.165 84.9175 397.941 84.9175 397.941L82.4712 397.968Z" fill="#7A7A7A"/>
<path d="M82.4712 397.968V393.097L84.911 390.997C84.9147 393.165 84.9175 397.941 84.9175 397.941L82.4712 397.968Z" fill="url(#paint3_linear_109_9119)" fill-opacity="0.2"/>
</g>
<path d="M420.613 213.232C420.63 231.848 414.236 249.902 402.506 264.364C390.787 278.824 374.438 288.807 356.222 292.637C338.001 296.465 319.022 293.909 302.464 285.397C285.908 276.883 272.789 262.928 265.306 245.885C257.819 228.837 256.43 209.732 261.378 191.783C266.314 173.835 277.284 158.132 292.436 147.315C307.588 136.498 326 131.225 344.574 132.382C363.158 133.54 380.779 141.056 394.47 153.67C402.706 161.255 409.281 170.463 413.776 180.715C418.281 190.964 420.605 202.037 420.613 213.232Z" fill="#313131"/>
<path d="M420.565 213.228C419.997 228.514 414.942 243.3 406.035 255.739C397.125 268.173 384.75 277.718 370.462 283.176C356.166 288.631 340.582 289.764 325.649 286.429C310.721 283.096 297.099 275.446 286.48 264.425C275.867 253.407 268.724 239.51 265.959 224.462C263.184 209.417 264.897 193.887 270.887 179.808C276.868 165.729 286.868 153.722 299.633 145.283C312.396 136.844 327.358 132.345 342.655 132.348C363.581 133.131 383.389 141.995 397.919 157.077C412.449 172.159 420.565 192.284 420.565 213.228Z" fill="#363636"/>
<path d="M394.395 153.658L280.047 268.005C276.154 263.771 272.712 259.137 269.795 254.18L380.588 143.396C385.54 146.317 390.172 149.757 394.395 153.658Z" fill="#4B4B4B" fill-opacity="0.37"/>
<path d="M415.04 183.639L310.097 288.585C302.728 285.686 295.819 281.721 289.604 276.811L403.278 163.145C408.179 169.362 412.151 176.269 415.04 183.639Z" fill="#4B4B4B" fill-opacity="0.37"/>
<path d="M402.515 213.247C402.567 229.895 396.019 245.888 384.299 257.715C372.589 269.542 356.653 276.242 340.006 276.344C323.36 276.446 307.35 269.943 295.488 258.26C283.634 246.578 276.884 230.669 276.732 214.022V213.247C276.732 196.57 283.365 180.572 295.155 168.779C306.947 156.984 322.945 150.359 339.627 150.359H340.401C356.952 150.557 372.751 157.27 384.379 169.042C396.001 180.813 402.522 196.697 402.522 213.245L402.515 213.247Z" fill="#3F3F3F"/>
<path d="M384.179 168.759L295.251 257.698C283.616 246.105 277.003 230.408 276.831 213.987V213.216C276.831 196.536 283.461 180.54 295.251 168.747C307.045 156.954 323.041 150.327 339.716 150.326H340.49C356.904 150.519 372.586 157.137 384.179 168.759Z" fill="#4B4B4B"/>
<path d="M304.733 192.993C304.86 193.128 305.094 193.252 305.109 193.399C305.273 194.832 306.174 195.796 307.255 196.565C317.252 203.635 327.26 210.701 337.285 217.72C339.719 219.417 341.638 219.32 344.024 217.637C349.49 213.795 354.95 209.949 360.408 206.092C363.497 203.904 365.749 201.059 366.929 197.458C367.342 196.201 367.496 194.865 367.678 194.041C367.678 197.179 367.902 200.815 367.613 204.412C367.252 208.844 365.02 212.498 361.453 215.131C355.508 219.514 349.455 223.742 343.382 227.961C341.421 229.335 339.33 228.974 337.394 227.722C335.413 226.433 333.449 225.121 331.521 223.757C323.541 218.1 315.577 212.416 307.608 206.751C306.237 205.781 305.156 204.633 304.913 202.899C304.923 200.081 304.93 197.261 304.923 194.442C304.923 194.23 304.796 194.016 304.733 193.802C304.733 193.533 304.733 193.264 304.733 192.993Z" fill="#2B2B2B"/>
<path d="M304.733 215.164C304.86 215.246 305.084 215.321 305.094 215.418C305.266 217.015 306.346 217.981 307.533 218.847C312.118 222.18 316.677 225.545 321.306 228.807C326.431 232.419 331.63 235.938 336.809 239.484C339.773 241.515 341.418 241.525 344.375 239.455C349.634 235.784 354.851 232.065 360.102 228.387C363.228 226.197 365.595 223.414 366.829 219.788C367.29 218.442 367.469 217.006 367.964 215.607C367.83 219.509 367.947 223.442 367.486 227.307C367.001 231.451 364.714 234.83 361.364 237.292C355.47 241.622 349.462 245.809 343.464 250.002C341.356 251.471 339.213 251.033 337.215 249.701C334.602 247.961 331.998 246.212 329.44 244.397C322.063 239.166 314.721 233.902 307.362 228.648C306.047 227.71 305.112 226.53 304.905 224.878C304.913 222.023 304.923 219.166 304.923 216.311C304.923 216.129 304.796 215.95 304.733 215.769C304.733 215.565 304.733 215.365 304.733 215.164Z" fill="#2B2B2B"/>
<path d="M319.341 191.922C319.513 191.728 319.595 191.576 319.729 191.487C322.91 189.269 326.036 186.962 329.296 184.869C332.673 182.701 336.402 181.43 340.481 181.437C344.284 181.442 347.736 182.647 350.859 184.725C352.362 185.73 353.831 186.84 355.172 188.06C357.335 190.028 357.562 193.538 355.842 195.895C355.454 196.42 355.055 196.455 354.543 196.119C353.841 195.653 353.146 195.175 352.435 194.727C345.219 190.208 337.997 190.255 330.782 194.735C329.637 195.447 328.502 196.178 327.33 196.853C327.098 196.987 326.658 197.039 326.449 196.908C324.196 195.419 321.981 193.894 319.746 192.365C319.622 192.273 319.523 192.127 319.341 191.922Z" fill="#2B2B2B"/>
<path d="M320.956 188.211C321.127 188.017 321.207 187.866 321.341 187.776C324.522 185.558 327.648 183.251 330.908 181.158C334.286 178.99 338.016 177.719 342.096 177.726C345.896 177.731 349.345 178.936 352.474 181.014C353.975 182.019 355.446 183.129 356.787 184.349C358.95 186.317 359.174 189.824 357.452 192.184C357.066 192.711 356.67 192.746 356.157 192.408C355.453 191.942 354.761 191.464 354.049 191.016C346.834 186.497 339.609 186.544 332.394 191.024C331.252 191.736 330.117 192.467 328.945 193.142C328.711 193.276 328.27 193.328 328.064 193.197C325.811 191.711 323.594 190.18 321.361 188.655C321.234 188.565 321.135 188.416 320.956 188.211Z" fill="#B4B4B4"/>
<path d="M307.719 190.07C307.854 190.204 308.08 190.326 308.098 190.473C308.259 191.907 309.16 192.87 310.25 193.639C320.248 200.71 330.248 207.778 340.28 214.796C342.704 216.491 344.623 216.392 347.018 214.712C352.478 210.872 357.944 207.021 363.394 203.164C366.485 200.976 368.737 198.134 369.917 194.533C370.33 193.276 370.492 191.937 370.664 191.115C370.664 194.254 370.898 197.89 370.602 201.486C370.238 205.919 368.006 209.57 364.439 212.203C358.503 216.588 352.441 220.814 346.38 225.035C344.407 226.409 342.316 226.051 340.39 224.796C338.406 223.51 336.443 222.196 334.516 220.832C326.537 215.177 318.573 209.49 310.594 203.826C309.225 202.855 308.15 201.71 307.908 199.973C307.908 197.156 307.916 194.338 307.916 191.519C307.916 191.305 307.791 191.088 307.719 190.874C307.719 190.608 307.719 190.339 307.719 190.07Z" fill="#B4B4B4"/>
<path d="M307.719 212.269C307.846 212.353 308.07 212.426 308.08 212.523C308.259 214.12 309.332 215.084 310.519 215.95C315.106 219.285 319.663 222.65 324.292 225.915C329.427 229.524 334.626 233.043 339.795 236.592C342.759 238.62 344.407 238.63 347.369 236.56C352.622 232.889 357.836 229.17 363.088 225.492C366.221 223.302 368.593 220.519 369.815 216.896C370.278 215.547 370.465 214.111 370.95 212.712C370.818 216.614 370.935 220.547 370.485 224.412C369.987 228.556 367.71 231.935 364.357 234.397C358.459 238.727 352.451 242.914 346.45 247.107C344.355 248.576 342.209 248.138 340.201 246.806C337.587 245.066 334.984 243.317 332.426 241.502C325.059 236.271 317.707 231.007 310.347 225.753C309.033 224.815 308.098 223.635 307.891 221.983C307.901 219.128 307.918 216.273 307.908 213.416C307.908 213.234 307.791 213.053 307.719 212.874C307.719 212.669 307.719 212.47 307.719 212.269Z" fill="#B4B4B4"/>
<path d="M404.77 213.301C404.77 221.582 403.182 229.785 400.106 237.433C397.04 245.084 392.523 252.035 386.846 257.891C381.166 263.745 374.416 268.391 366.995 271.56C359.571 274.728 351.611 276.361 343.575 276.361C342.418 276.361 341.26 276.328 340.123 276.261C355.733 275.355 370.404 268.324 381.149 256.617C391.885 244.912 397.861 229.414 397.861 213.304C397.861 197.196 391.885 181.696 381.149 169.989C370.404 158.282 355.733 151.253 340.123 150.346C341.26 150.28 342.418 150.247 343.575 150.247C359.807 150.247 375.372 156.89 386.846 168.715C398.319 180.541 404.77 196.579 404.77 213.301Z" fill="#202020"/>
<path d="M373.118 375.45V321.936" stroke="#4F4F4F" stroke-linecap="round" stroke-linejoin="round" stroke-dasharray="2 2"/>
<path d="M157.19 389.391V333.803L234.137 279.577" stroke="#4F4F4F" stroke-linecap="round" stroke-linejoin="round" stroke-dasharray="2 2"/>
<path d="M240.348 269.79C243.758 269.79 246.523 272.552 246.523 275.962C246.523 279.372 243.758 282.137 240.348 282.137C236.938 282.137 234.176 279.372 234.176 275.962C234.176 272.552 236.938 269.79 240.348 269.79Z" stroke="#4F4F4F" stroke-width="1.5" stroke-linecap="round" stroke-linejoin="round"/>
<path d="M379.202 315.763C379.202 312.356 376.44 309.591 373.03 309.591C369.62 309.591 366.858 312.353 366.858 315.763C366.858 319.172 369.62 321.938 373.03 321.938C376.437 321.938 379.202 319.172 379.202 315.763Z" stroke="#4F4F4F" stroke-width="1.5" stroke-linecap="round" stroke-linejoin="round"/>
<path d="M299.505 375.45V321.936" stroke="#4F4F4F" stroke-linecap="round" stroke-linejoin="round" stroke-dasharray="2 2"/>
<path d="M305.778 315.763C305.778 312.356 303.016 309.591 299.606 309.591C296.196 309.591 293.434 312.353 293.434 315.763C293.434 319.172 296.199 321.938 299.606 321.938C303.013 321.938 305.778 319.172 305.778 315.763Z" stroke="#4F4F4F" stroke-width="1.5" stroke-linecap="round" stroke-linejoin="round"/>
<path d="M512.976 390.654V333.8L436.029 279.571" stroke="#4F4F4F" stroke-linecap="round" stroke-linejoin="round" stroke-dasharray="2 2"/>
<path d="M429.771 269.79C433.181 269.79 435.946 272.552 435.946 275.962C435.946 279.372 433.181 282.137 429.771 282.137C426.361 282.137 423.599 279.372 423.599 275.962C423.599 272.552 426.361 269.79 429.771 269.79Z" stroke="#4F4F4F" stroke-width="1.5" stroke-linecap="round" stroke-linejoin="round"/>
<path d="M60.731 353.914V324.778L221.759 213.51" stroke="#4F4F4F" stroke-linecap="round" stroke-linejoin="round" stroke-dasharray="2 2"/>
<path d="M227.895 203.17C231.305 203.17 234.07 205.933 234.07 209.343C234.07 212.752 231.305 215.517 227.895 215.517C224.485 215.517 221.723 212.752 221.723 209.343C221.723 205.933 224.485 203.17 227.895 203.17Z" stroke="#4F4F4F" stroke-width="1.5" stroke-linecap="round" stroke-linejoin="round"/>
<path d="M612.906 355.181V324.778L451.877 213.51" stroke="#4F4F4F" stroke-linecap="round" stroke-linejoin="round" stroke-dasharray="2 2"/>
<path d="M445.714 203.17C442.304 203.17 439.539 205.935 439.539 209.345C439.539 212.755 442.304 215.517 445.714 215.517C449.121 215.517 451.886 212.755 451.886 209.345C451.886 205.935 449.121 203.17 445.714 203.17Z" stroke="#4F4F4F" stroke-width="1.5" stroke-linecap="round" stroke-linejoin="round"/>
<path fill-rule="evenodd" clip-rule="evenodd" d="M136.433 61.2942C137.668 61.2942 138.67 62.2957 138.67 63.5311V85.8595L226.602 147.828C227.612 148.539 227.853 149.935 227.142 150.945C226.43 151.955 225.036 152.196 224.026 151.485L135.144 88.8484C134.55 88.4293 134.196 87.7473 134.196 87.0198V63.5311C134.196 62.2957 135.197 61.2942 136.433 61.2942Z" fill="#4F4F4F"/>
<path fill-rule="evenodd" clip-rule="evenodd" d="M232.438 148.369C229.426 148.369 226.985 150.81 226.985 153.823C226.985 156.835 229.426 159.276 232.438 159.276C235.449 159.276 237.893 156.835 237.893 153.823C237.893 150.81 235.449 148.369 232.438 148.369ZM223.63 153.823C223.63 148.957 227.572 145.013 232.438 145.013C237.303 145.013 241.248 148.957 241.248 153.823C241.248 158.688 237.303 162.632 232.438 162.632C227.572 162.632 223.63 158.688 223.63 153.823Z" fill="#4F4F4F"/>
<path fill-rule="evenodd" clip-rule="evenodd" d="M338.841 61.8491C339.769 61.8491 340.519 62.6002 340.519 63.5268V100.717C340.519 101.643 339.769 102.394 338.841 102.394C337.915 102.394 337.164 101.643 337.164 100.717V63.5268C337.164 62.6002 337.915 61.8491 338.841 61.8491Z" fill="#4F4F4F"/>
<path fill-rule="evenodd" clip-rule="evenodd" d="M338.837 102.392C335.828 102.392 333.384 104.833 333.384 107.846C333.384 110.859 335.825 113.3 338.837 113.3C341.848 113.3 344.29 110.857 344.29 107.846C344.29 104.834 341.848 102.392 338.837 102.392ZM330.029 107.846C330.029 102.98 333.971 99.0366 338.837 99.0366C343.7 99.0366 347.645 102.98 347.645 107.846C347.645 112.709 343.702 116.655 338.837 116.655C333.969 116.655 330.029 112.711 330.029 107.846Z" fill="#4F4F4F"/>
<path fill-rule="evenodd" clip-rule="evenodd" d="M547.302 61.8491C548.228 61.8491 548.98 62.6002 548.98 63.5268V87.0155C548.98 87.561 548.716 88.0725 548.268 88.3868L459.39 151.023C458.633 151.557 457.586 151.376 457.053 150.618C456.518 149.861 456.7 148.814 457.456 148.28L545.625 86.1451V63.5268C545.625 62.6002 546.377 61.8491 547.302 61.8491Z" fill="#4F4F4F"/>
<path fill-rule="evenodd" clip-rule="evenodd" d="M451.303 148.369C448.291 148.369 445.85 150.811 445.85 153.823C445.85 156.835 448.291 159.276 451.303 159.276C454.314 159.276 456.758 156.835 456.758 153.823C456.758 150.811 454.314 148.369 451.303 148.369ZM442.495 153.823C442.495 148.957 446.437 145.013 451.303 145.013C456.168 145.013 460.113 148.957 460.113 153.823C460.113 158.688 456.168 162.632 451.303 162.632C446.437 162.632 442.495 158.688 442.495 153.823Z" fill="#4F4F4F"/>
<path opacity="0.6" d="M201.652 446.795C208.646 446.795 214.318 441.125 214.318 434.129C214.318 427.133 208.646 421.461 201.652 421.461C194.656 421.461 188.984 427.133 188.984 434.129C188.984 441.125 194.656 446.795 201.652 446.795Z" fill="#0D0D0D"/>
<path d="M198.428 428.557C199.282 428.557 200.135 428.559 200.989 428.557C201.078 428.554 201.108 428.577 201.108 428.671C201.106 430.212 201.111 431.75 201.106 433.291C201.103 434.152 200.979 434.993 200.64 435.789C200.245 436.723 199.6 437.427 198.714 437.91C197.982 438.31 197.188 438.52 196.367 438.629C196.195 438.651 196.021 438.666 195.849 438.686C195.78 438.696 195.755 438.674 195.755 438.599C195.757 437.975 195.757 437.35 195.755 436.723C195.755 436.658 195.777 436.638 195.839 436.626C196.195 436.556 196.551 436.476 196.852 436.262C197.475 435.822 197.875 435.242 197.908 434.453C197.913 434.301 197.913 434.152 197.923 434C197.928 433.915 197.895 433.893 197.813 433.895C197.171 433.895 196.529 433.895 195.887 433.895C195.8 433.895 195.755 433.851 195.755 433.763C195.755 432.071 195.755 430.381 195.755 428.691C195.757 428.602 195.8 428.557 195.887 428.557C196.733 428.557 197.582 428.557 198.428 428.557Z" fill="#7A7A7A"/>
<path opacity="0.6" d="M317.377 429.055C324.37 429.055 330.042 423.383 330.042 416.387C330.042 409.391 324.37 403.721 317.377 403.721C310.381 403.721 304.708 409.391 304.708 416.387C304.708 423.383 310.381 429.055 317.377 429.055Z" fill="#0E0E0E"/>
<path d="M67.5778 389.228H10.123V362.775H92.3137V379.385" stroke="#4F4F4F" stroke-width="0.5" stroke-linecap="round" stroke-linejoin="round"/>
<path d="M181.634 424.706H117.941V398.252H209.055V414.863" stroke="#4F4F4F" stroke-width="0.5" stroke-linecap="round" stroke-linejoin="round"/>
<path d="M135.342 413.018H136.544L137.551 414.342L137.816 414.695L139.319 416.694H138.117L137.127 415.367L136.879 415.031L135.342 413.018ZM139.69 411.32C139.69 412.273 139.518 413.1 139.173 413.794C138.828 414.489 138.355 415.026 137.754 415.402C137.153 415.78 136.467 415.969 135.695 415.969C134.923 415.969 134.237 415.78 133.636 415.402C133.035 415.026 132.562 414.489 132.217 413.794C131.873 413.1 131.7 412.273 131.7 411.32C131.7 410.365 131.873 409.541 132.217 408.844C132.562 408.15 133.035 407.614 133.636 407.236C134.237 406.86 134.923 406.671 135.695 406.671C136.467 406.671 137.153 406.86 137.754 407.236C138.355 407.614 138.828 408.15 139.173 408.844C139.518 409.541 139.69 410.365 139.69 411.32ZM138.629 411.32C138.629 410.536 138.498 409.874 138.236 409.337C137.977 408.797 137.625 408.388 137.18 408.112C136.738 407.833 136.243 407.697 135.695 407.697C135.147 407.697 134.651 407.833 134.206 408.112C133.764 408.388 133.412 408.797 133.15 409.337C132.891 409.874 132.761 410.536 132.761 411.32C132.761 412.104 132.891 412.764 133.15 413.304C133.412 413.844 133.764 414.252 134.206 414.528C134.651 414.805 135.147 414.944 135.695 414.944C136.243 414.944 136.738 414.805 137.18 414.528C137.625 414.252 137.977 413.844 138.236 413.304C138.498 412.764 138.629 412.104 138.629 411.32ZM149.666 411.32C149.666 412.273 149.495 413.1 149.149 413.794C148.805 414.489 148.332 415.026 147.73 415.402C147.13 415.78 146.443 415.969 145.672 415.969C144.9 415.969 144.213 415.78 143.614 415.402C143.011 415.026 142.539 414.489 142.194 413.794C141.849 413.1 141.677 412.273 141.677 411.32C141.677 410.365 141.849 409.541 142.194 408.844C142.539 408.15 143.011 407.614 143.614 407.236C144.213 406.86 144.9 406.671 145.672 406.671C146.443 406.671 147.13 406.86 147.73 407.236C148.332 407.614 148.805 408.15 149.149 408.844C149.495 409.541 149.666 410.365 149.666 411.32ZM148.606 411.32C148.606 410.536 148.474 409.874 148.213 409.337C147.954 408.797 147.601 408.388 147.158 408.112C146.715 407.833 146.219 407.697 145.672 407.697C145.124 407.697 144.627 407.833 144.184 408.112C143.741 408.388 143.39 408.797 143.126 409.337C142.867 409.874 142.738 410.536 142.738 411.32C142.738 412.104 142.867 412.764 143.126 413.304C143.39 413.844 143.741 414.252 144.184 414.528C144.627 414.805 145.124 414.944 145.672 414.944C146.219 414.944 146.715 414.805 147.158 414.528C147.601 414.252 147.954 413.844 148.213 413.304C148.474 412.764 148.606 412.104 148.606 411.32ZM153.651 415.845L151.177 406.796H152.29L154.181 414.165H154.271L156.197 406.796H157.434L159.36 414.165H159.45L161.339 406.796H162.454L159.98 415.845H158.848L156.849 408.632H156.779L154.783 415.845H153.651ZM163.985 415.845H162.835L166.157 406.796H167.29L170.612 415.845H169.463L166.76 408.227H166.687L163.985 415.845ZM164.408 412.308H169.039V413.281H164.408V412.308ZM172.519 415.845V406.796H173.616V414.872H177.822V415.845H172.519ZM178.32 407.766V406.796H185.107V407.766H182.26V415.845H181.165V407.766H178.32ZM192.245 409.058C192.193 408.61 191.976 408.262 191.601 408.015C191.222 407.766 190.759 407.642 190.212 407.642C189.811 407.642 189.46 407.706 189.161 407.838C188.863 407.968 188.631 408.145 188.462 408.371C188.298 408.6 188.216 408.856 188.216 409.145C188.216 409.386 188.273 409.595 188.387 409.77C188.504 409.939 188.656 410.083 188.838 410.198C189.02 410.31 189.211 410.402 189.413 410.477C189.612 410.546 189.796 410.603 189.965 410.648L190.884 410.895C191.12 410.957 191.382 411.042 191.67 411.151C191.961 411.261 192.24 411.41 192.506 411.599C192.773 411.783 192.994 412.022 193.168 412.313C193.343 412.604 193.43 412.963 193.43 413.388C193.43 413.876 193.3 414.319 193.044 414.713C192.793 415.108 192.419 415.422 191.932 415.656C191.446 415.887 190.854 416.004 190.16 416.004C189.512 416.004 188.95 415.9 188.475 415.691C188.004 415.482 187.633 415.19 187.362 414.815C187.093 414.441 186.941 414.006 186.907 413.51H188.039C188.069 413.854 188.183 414.135 188.382 414.359C188.587 414.581 188.843 414.745 189.152 414.854C189.465 414.961 189.801 415.014 190.16 415.014C190.578 415.014 190.953 414.946 191.287 414.81C191.618 414.673 191.882 414.481 192.078 414.237C192.272 413.988 192.37 413.7 192.37 413.371C192.37 413.07 192.285 412.826 192.118 412.637C191.949 412.448 191.727 412.296 191.454 412.176C191.18 412.059 190.884 411.955 190.565 411.868L189.453 411.549C188.746 411.345 188.186 411.056 187.773 410.678C187.36 410.302 187.155 409.807 187.155 409.197C187.155 408.692 187.292 408.249 187.566 407.873C187.842 407.492 188.213 407.199 188.679 406.99C189.147 406.776 189.669 406.671 190.247 406.671C190.831 406.671 191.349 406.776 191.802 406.985C192.258 407.191 192.616 407.473 192.882 407.833C193.149 408.192 193.29 408.6 193.305 409.058H192.245Z" fill="#969696"/>
<path d="M301.634 409.909H256.748V383.456H320.96V400.068" stroke="#4F4F4F" stroke-width="0.5" stroke-linecap="round" stroke-linejoin="round"/>
<path d="M407.067 409.909H362.182V383.456H426.393V400.066" stroke="#4F4F4F" stroke-width="0.5" stroke-linecap="round" stroke-linejoin="round"/>
<path opacity="0.6" d="M422.529 429.037C429.622 429.037 435.372 423.367 435.372 416.371C435.372 409.375 429.622 403.703 422.529 403.703C415.436 403.703 409.687 409.375 409.687 416.371C409.687 423.367 415.436 429.037 422.529 429.037Z" fill="#0D0D0D"/>
<path d="M380.71 394.697H379.613C379.548 394.381 379.436 394.104 379.274 393.865C379.115 393.626 378.921 393.427 378.69 393.266C378.463 393.101 378.212 392.977 377.935 392.895C377.657 392.813 377.368 392.77 377.069 392.77C376.519 392.77 376.024 392.91 375.579 393.186C375.138 393.462 374.785 393.87 374.523 394.41C374.264 394.948 374.135 395.61 374.135 396.394C374.135 397.178 374.264 397.84 374.523 398.378C374.785 398.918 375.138 399.326 375.579 399.602C376.024 399.878 376.519 400.018 377.069 400.018C377.368 400.018 377.657 399.975 377.935 399.893C378.212 399.811 378.463 399.689 378.69 399.527C378.921 399.363 379.115 399.159 379.274 398.923C379.436 398.679 379.548 398.402 379.613 398.091H380.71C380.628 398.554 380.476 398.967 380.26 399.333C380.041 399.697 379.77 400.008 379.446 400.264C379.123 400.518 378.757 400.712 378.354 400.844C377.953 400.976 377.525 401.043 377.069 401.043C376.295 401.043 375.611 400.854 375.009 400.478C374.409 400.1 373.936 399.565 373.59 398.868C373.247 398.173 373.072 397.347 373.072 396.394C373.072 395.438 373.247 394.614 373.59 393.92C373.936 393.223 374.409 392.688 375.009 392.31C375.611 391.934 376.295 391.745 377.069 391.745C377.525 391.745 377.953 391.812 378.354 391.944C378.757 392.076 379.123 392.27 379.446 392.526C379.77 392.78 380.041 393.089 380.26 393.455C380.476 393.818 380.628 394.231 380.71 394.697ZM382.978 400.919V391.869H386.037C386.743 391.869 387.323 391.989 387.776 392.23C388.232 392.469 388.568 392.798 388.784 393.216C389.003 393.634 389.113 394.112 389.113 394.644C389.113 395.177 389.003 395.65 388.784 396.063C388.568 396.474 388.232 396.8 387.781 397.034C387.331 397.268 386.756 397.385 386.054 397.385H383.58V396.394H386.019C386.502 396.394 386.89 396.324 387.186 396.182C387.483 396.041 387.699 395.839 387.831 395.58C387.965 395.319 388.033 395.005 388.033 394.644C388.033 394.281 387.965 393.965 387.831 393.694C387.694 393.422 387.478 393.213 387.181 393.066C386.883 392.917 386.489 392.84 386.002 392.84H384.075V400.919H382.978ZM387.239 396.854L389.466 400.919H388.192L386.002 396.854H387.239ZM391.435 400.919V391.869H396.898V392.84H392.532V395.899H396.614V396.872H392.532V399.946H396.967V400.919H391.435ZM399.372 400.919V391.869H404.832V392.84H400.467V395.899H404.551V396.872H400.467V399.946H404.904V400.919H399.372ZM410.098 400.919H407.306V391.869H410.223C411.101 391.869 411.851 392.051 412.475 392.412C413.1 392.773 413.58 393.288 413.914 393.962C414.245 394.634 414.411 395.438 414.411 396.377C414.411 397.32 414.245 398.131 413.909 398.811C413.573 399.488 413.082 400.01 412.44 400.376C411.798 400.737 411.019 400.919 410.098 400.919ZM408.401 399.946H410.029C410.775 399.946 411.398 399.801 411.888 399.512C412.381 399.224 412.746 398.813 412.988 398.281C413.229 397.748 413.351 397.113 413.351 396.377C413.351 395.645 413.232 395.018 412.993 394.49C412.754 393.96 412.398 393.552 411.923 393.271C411.45 392.984 410.86 392.84 410.151 392.84H408.401V399.946Z" fill="#969696"/>
<path d="M639.482 389.228H585.614V362.775H662.67V379.387" stroke="#4F4F4F" stroke-width="0.5" stroke-linecap="round" stroke-linejoin="round"/>
<path opacity="0.6" d="M654.97 408.789C662.06 408.789 667.81 403.117 667.81 396.121C667.81 389.125 662.06 383.456 654.97 383.456C647.877 383.456 642.127 389.125 642.127 396.121C642.127 403.117 647.877 408.789 654.97 408.789Z" fill="#0D0D0D"/>
<path d="M662.006 401.182C660.737 401.19 662.046 401.175 660.777 401.175C658.024 401.18 655.272 401.182 652.519 401.18C651.175 401.18 649.829 401.178 648.482 401.175C648.141 401.175 647.798 401.158 647.459 401.15C647.399 401.15 647.34 401.128 647.295 401.09C647.352 401.078 647.409 401.07 647.467 401.065C648.096 401.041 648.729 401.016 649.358 400.993C650.082 400.968 650.807 400.949 651.533 400.926C651.73 400.919 651.772 400.879 651.78 400.672C651.797 399.851 651.899 399.035 652.083 398.233C652.156 397.925 652.123 397.798 651.847 397.628C651.364 397.337 651.078 396.864 650.961 396.312C650.881 395.941 650.996 395.605 651.222 395.306C651.342 395.15 651.466 394.998 651.583 394.841C651.68 394.717 651.822 394.637 651.979 394.619C652.034 394.622 652.083 394.649 652.116 394.692C652.131 394.709 652.108 394.789 652.078 394.809C651.959 394.896 651.842 395.01 651.708 395.045C651.499 395.1 651.397 395.249 651.312 395.408C650.983 396.043 651.289 396.665 651.675 397.006C651.832 397.141 652.004 397.255 652.185 397.355C652.39 397.467 652.494 397.434 652.671 397.28C653.358 396.665 654.045 396.053 654.737 395.443C654.786 395.398 654.834 395.351 654.886 395.306C654.998 395.204 655.1 395.229 655.135 395.381C655.194 395.682 655.244 395.983 655.292 396.285C655.314 396.434 655.321 396.583 655.336 396.73H655.379C655.399 396.618 655.409 396.504 655.411 396.389C655.386 395.951 655.371 395.508 655.306 395.075C655.269 394.824 655.142 394.587 655.063 394.343C655.035 394.271 655.023 394.194 655.03 394.119C655.048 394.012 655.005 393.977 654.916 393.938C654.358 393.689 653.773 393.519 653.183 393.365C653.116 393.35 653.057 393.315 653.012 393.266C652.967 393.213 652.937 393.151 652.927 393.084C652.902 392.967 652.865 392.855 652.823 392.743C652.773 392.604 652.785 392.494 652.927 392.412C653.281 392.215 653.629 392.016 653.975 391.81C654.089 391.747 654.194 391.67 654.286 391.581C654.463 391.384 654.699 391.312 654.928 391.215C655.476 390.988 656.026 390.767 656.573 390.538C656.621 390.508 656.66 390.471 656.698 390.431C656.668 390.391 656.635 390.356 656.601 390.326C655.926 389.883 655.334 389.328 654.851 388.689C654.824 388.649 654.836 388.577 654.829 388.519C654.881 388.514 654.933 388.522 654.983 388.534C655.436 388.736 655.881 388.95 656.334 389.147C656.675 389.296 657.029 389.418 657.37 389.567C657.75 389.734 658.149 389.876 658.442 390.197C658.584 390.339 658.597 390.563 658.47 390.719L657.969 391.414C658.029 391.429 658.091 391.436 658.154 391.436C658.502 391.396 658.851 391.344 659.199 391.307C659.269 391.307 659.336 391.317 659.401 391.337C659.386 391.404 659.361 391.466 659.328 391.523C659.032 391.932 658.671 392.287 658.263 392.579C658.174 392.641 658.201 392.708 658.246 392.78C658.437 393.076 658.641 393.363 658.818 393.666C659.102 394.162 659.388 394.654 659.637 395.167C659.901 395.712 660.137 396.27 660.354 396.835C660.521 397.273 660.647 397.721 660.774 398.169C660.894 398.587 661.001 399.01 661.09 399.435C661.175 399.846 661.23 400.264 661.297 400.68C661.332 400.904 661.382 401.041 661.606 401.051L662.006 401.182ZM657.989 400.886V400.906H659.898C660.145 400.906 660.16 400.876 660.048 400.647C659.985 400.528 659.933 400.406 659.878 400.282C659.689 399.834 659.415 399.425 659.067 399.079C658.913 398.93 658.714 398.816 658.497 398.826C658.164 398.841 657.838 398.965 657.534 399.099C657.064 399.313 656.655 399.642 656.349 400.053C656.187 400.267 656.043 400.493 655.911 400.725C655.851 400.822 655.891 400.886 656.021 400.886C656.675 400.884 657.332 400.886 657.989 400.886ZM653.582 400.904V400.896H654.527C654.727 400.896 654.746 400.869 654.771 400.68C654.794 400.498 654.824 400.321 654.853 400.14C654.908 399.809 654.968 399.475 655.013 399.142C655.038 398.955 654.985 398.918 654.814 398.982C654.552 399.077 654.296 399.186 654.047 399.313C653.42 399.664 652.887 400.12 652.517 400.747C652.444 400.871 652.459 400.901 652.604 400.901C652.927 400.906 653.253 400.904 653.582 400.904Z" fill="#7A7A7A"/>
<path d="M601.895 380.394H599.1V371.342H602.016C602.895 371.342 603.647 371.524 604.271 371.887C604.896 372.246 605.374 372.763 605.707 373.438C606.041 374.11 606.205 374.914 606.205 375.849C606.205 376.793 606.038 377.604 605.702 378.286C605.366 378.963 604.879 379.485 604.237 379.849C603.594 380.212 602.813 380.394 601.895 380.394ZM600.197 379.421H601.822C602.571 379.421 603.191 379.276 603.684 378.988C604.174 378.699 604.543 378.288 604.784 377.756C605.025 377.221 605.145 376.586 605.145 375.849C605.145 375.12 605.025 374.49 604.787 373.963C604.55 373.433 604.192 373.027 603.719 372.743C603.243 372.457 602.654 372.315 601.947 372.315H600.197V379.421ZM609.637 371.342V380.394H608.542V371.342H609.637ZM615.797 371.342H616.895V377.813C616.895 378.39 616.788 378.881 616.576 379.284C616.365 379.687 616.066 379.993 615.678 380.202C615.292 380.411 614.836 380.516 614.314 380.516C613.818 380.516 613.378 380.426 612.992 380.247C612.606 380.065 612.303 379.807 612.081 379.471C611.86 379.135 611.75 378.734 611.75 378.271H612.828C612.828 378.527 612.893 378.751 613.02 378.943C613.149 379.132 613.326 379.279 613.55 379.386C613.774 379.49 614.028 379.545 614.314 379.545C614.627 379.545 614.896 379.478 615.118 379.346C615.339 379.214 615.506 379.02 615.62 378.764C615.74 378.502 615.797 378.186 615.797 377.813V371.342ZM619.588 380.394V371.342H625.05V372.315H620.685V375.374H624.767V376.345H620.685V379.421H625.12V380.394H619.588ZM627.029 372.315V371.342H633.816V372.315H630.969V380.394H629.874V372.315H627.029ZM636.004 380.394V371.342H641.467V372.315H637.101V375.374H641.183V376.345H637.101V379.421H641.536V380.394H636.004ZM644.471 371.342L646.803 375.108H646.875L649.207 371.342H650.499L647.651 375.869L650.499 380.394H649.207L646.875 376.698H646.803L644.471 380.394H643.179L646.096 375.869L643.179 371.342H644.471Z" fill="#969696"/>
<path d="M197.89 1H3.58588C2.1578 1 1 3.06099 1 5.60331V42.4295C1 44.9719 2.1578 47.0326 3.58588 47.0326H197.89C199.319 47.0326 200.476 44.9719 200.476 42.4295V5.60331C200.476 3.06099 199.319 1 197.89 1Z" fill="#343434" stroke="#3E3E3E"/>
<path d="M42.4502 25.2988C42.4502 33.3601 35.915 39.8955 27.8535 39.8955C19.792 39.8955 13.2568 33.3601 13.2568 25.2988C13.2568 17.2373 19.792 10.7021 27.8535 10.7021C35.915 10.7021 42.4502 17.2373 42.4502 25.2988Z" fill="#232323" stroke="#938AFF" stroke-width="0.6"/>
<path d="M25.4548 20.8608L28.0242 28.9368H28.123L30.6972 20.8608H33.1878L29.5237 31.4903H26.6282L22.959 20.8608H25.4548Z" fill="#938AFF"/>
<path fill-rule="evenodd" clip-rule="evenodd" d="M44.627 6.21244C44.7654 6.3436 44.7654 6.55813 44.6317 6.69203L44.3861 6.93593C44.2524 7.06958 44.0327 7.07207 43.8943 6.94066C43.7584 6.80975 43.7559 6.59496 43.8896 6.46107L44.1355 6.21716C44.2691 6.08351 44.4886 6.08127 44.627 6.21244ZM43.4028 7.43195C43.5386 7.56287 43.5411 7.77765 43.4075 7.91155L42.9157 8.39936C42.782 8.53301 42.5625 8.53549 42.4242 8.40408C42.288 8.27317 42.2858 8.05839 42.4194 7.92449L42.9087 7.43693C43.0446 7.30303 43.2641 7.30079 43.4028 7.43195ZM41.9324 8.89538C42.0685 9.02654 42.071 9.24132 41.9349 9.37497L41.4455 9.86278C41.3119 9.99668 41.0924 9.99866 40.9538 9.86775C40.8154 9.73634 40.8154 9.52181 40.949 9.38816L41.4383 8.90011C41.5745 8.76621 41.794 8.76422 41.9324 8.89538ZM40.4597 10.3588C40.5984 10.49 40.6006 10.7047 40.4647 10.8386L39.9754 11.3262C39.8393 11.4601 39.622 11.4621 39.4836 11.3312C39.3452 11.2003 39.3452 10.9852 39.4789 10.8513L39.9682 10.3635C40.1041 10.2299 40.3238 10.2276 40.4597 10.3588ZM38.9896 11.8222C39.128 11.9534 39.128 12.1679 38.9943 12.3018L38.5043 12.7896C38.3699 12.9233 38.1491 12.9258 38.0132 12.7943C37.8756 12.6634 37.8724 12.4489 38.007 12.315L38.4983 11.8272C38.6327 11.6933 38.8535 11.6913 38.9896 11.8222ZM37.5189 13.2856C37.6566 13.4168 37.6583 13.6316 37.5237 13.7652L37.0339 14.253C36.8992 14.3869 36.679 14.3892 36.5413 14.2583C36.4052 14.1269 36.4022 13.9121 36.5369 13.7784L37.0262 13.2906C37.1611 13.1567 37.3813 13.1545 37.5189 13.2856ZM16.9305 33.7738C17.0681 33.905 17.0696 34.1198 16.9349 34.2537L16.4454 34.7412C16.311 34.8751 16.0905 34.8773 15.9528 34.7462C15.8152 34.6153 15.8135 34.4005 15.9481 34.2666L16.4379 33.7788C16.5726 33.6449 16.7928 33.6426 16.9305 33.7738ZM15.4603 35.2375C15.5962 35.3684 15.5994 35.5832 15.4648 35.7171L14.9752 36.2049C14.8403 36.3385 14.6201 36.3408 14.4824 36.2096C14.3446 36.0784 14.3433 35.8639 14.4777 35.73L14.9673 35.2422C15.1022 35.1086 15.3224 35.1061 15.4603 35.2375ZM13.9884 36.7007C14.126 36.8318 14.129 37.0466 13.9946 37.1805L13.5033 37.6683C13.3687 37.8022 13.1484 37.8042 13.0121 37.6733C12.8744 37.5419 12.8729 37.3271 13.0061 37.1934L13.4971 36.7056C13.6318 36.5717 13.852 36.5697 13.9884 36.7007ZM12.518 38.1641C12.6559 38.2955 12.6572 38.51 12.5228 38.6437L12.0332 39.1317C11.8986 39.2656 11.678 39.2676 11.5404 39.1365C11.4043 39.0055 11.401 38.7905 11.5357 38.6569L12.027 38.169C12.1616 38.0351 12.3804 38.0332 12.518 38.1641ZM11.0476 39.6277C11.1853 39.7587 11.187 39.9734 11.0524 40.1073L10.5626 40.5951C10.4282 40.7288 10.2077 40.7313 10.07 40.5999C9.93389 40.469 9.9309 40.2542 10.0655 40.1203L10.5551 39.6325C10.6897 39.4988 10.9102 39.4963 11.0476 39.6277ZM9.57748 41.0912C9.71362 41.2221 9.71686 41.4369 9.58196 41.5708L9.33731 41.8147C9.20266 41.9486 8.98241 41.9505 8.84478 41.8196C8.70839 41.6882 8.7054 41.4737 8.8398 41.34L9.0847 41.0961C9.21935 40.9622 9.4396 40.96 9.57748 41.0912Z" fill="#938AFF"/>
<path d="M438.756 1H239.474C238.008 1 236.821 3.06099 236.821 5.60331V42.4288C236.821 44.9711 238.008 47.0321 239.474 47.0321H438.756C440.222 47.0321 441.409 44.9711 441.409 42.4288V5.60331C441.409 3.06099 440.222 1 438.756 1Z" fill="#343434" stroke="#3E3E3E"/>
<path d="M279.357 25.3C279.357 33.3439 272.664 39.8967 264.367 39.8967C256.069 39.8967 249.376 33.3439 249.376 25.3C249.376 17.2564 256.069 10.7034 264.367 10.7034C272.664 10.7034 279.357 17.2564 279.357 25.3Z" fill="#232323" stroke="#F5A938" stroke-width="0.6"/>
<path d="M258.186 20.3127H261.03L264.034 27.4601H264.166L267.168 20.3127H270.015V30.9507H267.775V24.0268H267.685L264.863 30.8987H263.337L260.515 24.0007H260.423V30.9507H258.186V20.3127Z" fill="#F5A938"/>
<path fill-rule="evenodd" clip-rule="evenodd" d="M281.555 6.21244C281.697 6.3436 281.697 6.55813 281.56 6.69203L281.309 6.93594C281.172 7.06958 280.945 7.07207 280.804 6.94066C280.664 6.80975 280.662 6.59496 280.799 6.46107L281.052 6.21716C281.189 6.08351 281.413 6.08127 281.555 6.21244ZM280.301 7.43195C280.44 7.56311 280.443 7.7779 280.306 7.91155L279.801 8.39936C279.664 8.53325 279.437 8.5355 279.295 8.40434C279.156 8.27318 279.153 8.05839 279.29 7.92474L279.793 7.43693C279.933 7.30303 280.159 7.30079 280.301 7.43195ZM278.793 8.89538C278.932 9.02654 278.934 9.24132 278.795 9.37522L278.292 9.86278C278.155 9.99668 277.931 9.99866 277.79 9.86775C277.648 9.73659 277.648 9.52206 277.785 9.38816L278.285 8.90011C278.424 8.76646 278.651 8.76422 278.793 8.89538ZM277.282 10.3588C277.424 10.49 277.426 10.7047 277.287 10.8386L276.784 11.3264C276.645 11.4601 276.423 11.4623 276.281 11.3312C276.14 11.2003 276.14 10.9852 276.276 10.8513L276.777 10.3635C276.916 10.2299 277.143 10.2276 277.282 10.3588ZM275.774 11.8222C275.916 11.9536 275.916 12.1682 275.779 12.3018L275.276 12.7896C275.139 12.9235 274.913 12.9258 274.773 12.7946C274.631 12.6634 274.629 12.4489 274.766 12.3153L275.271 11.8272C275.408 11.6933 275.634 11.6913 275.774 11.8222ZM274.265 13.2856C274.407 13.4168 274.407 13.6316 274.27 13.7652L273.768 14.253C273.631 14.3869 273.404 14.3892 273.262 14.2583C273.123 14.1269 273.121 13.9121 273.257 13.7784L273.76 13.2906C273.9 13.1567 274.124 13.1545 274.265 13.2856ZM253.15 33.7741C253.29 33.905 253.292 34.1198 253.153 34.2536L252.653 34.7415C252.513 34.8751 252.287 34.8776 252.147 34.7462C252.006 34.6153 252.003 34.4005 252.142 34.2666L252.643 33.7788C252.782 33.6451 253.009 33.6426 253.15 33.7741ZM251.642 35.2375C251.782 35.3684 251.784 35.5832 251.645 35.7171L251.144 36.2049C251.005 36.3385 250.779 36.3408 250.639 36.2096C250.497 36.0784 250.495 35.8639 250.634 35.73L251.137 35.2425C251.274 35.1086 251.5 35.1063 251.642 35.2375ZM250.131 36.7007C250.273 36.8321 250.276 37.0468 250.139 37.1805L249.634 37.6683C249.497 37.8022 249.27 37.8042 249.131 37.6733C248.989 37.5419 248.987 37.3271 249.123 37.1934L249.629 36.7056C249.766 36.5717 249.992 36.5697 250.131 36.7007ZM248.623 38.1643C248.765 38.2955 248.768 38.51 248.628 38.6439L248.125 39.1317C247.989 39.2656 247.762 39.2676 247.62 39.1364C247.481 39.0058 247.478 38.7908 247.615 38.6569L248.12 38.1691C248.257 38.0354 248.481 38.0332 248.623 38.1643ZM247.115 39.6277C247.257 39.7586 247.259 39.9734 247.12 40.1073L246.617 40.5951C246.48 40.7288 246.254 40.7313 246.112 40.5999C245.973 40.469 245.97 40.2542 246.107 40.1203L246.61 39.6327C246.749 39.4988 246.976 39.4966 247.115 39.6277ZM245.607 41.0912C245.746 41.2223 245.751 41.4371 245.612 41.5708L245.36 41.8147C245.223 41.9486 244.997 41.9506 244.855 41.8196C244.716 41.6882 244.713 41.4737 244.85 41.34L245.102 41.0961C245.241 40.9622 245.467 40.96 245.607 41.0912Z" fill="#F5A938"/>
<path d="M674.414 1H480.112C478.684 1 477.526 3.06099 477.526 5.60331V42.4295C477.526 44.9719 478.684 47.0326 480.112 47.0326H674.414C675.843 47.0326 677 44.9719 677 42.4295V5.60331C677 3.06099 675.843 1 674.414 1Z" fill="#343434" stroke="#3E3E3E"/>
<path d="M518.98 25.3C518.98 33.3616 512.445 39.8967 504.384 39.8967C496.322 39.8967 489.787 33.3616 489.787 25.3C489.787 17.2388 496.322 10.7034 504.384 10.7034C512.445 10.7034 518.98 17.2388 518.98 25.3Z" fill="#232323" stroke="#33B57B" stroke-width="0.6"/>
<path d="M507.015 20.5525H509.233V27.3646C509.233 28.1294 509.051 28.7987 508.685 29.3724C508.324 29.946 507.816 30.3933 507.164 30.7141C506.51 31.0319 505.751 31.1904 504.885 31.1904C504.013 31.1904 503.252 31.0319 502.597 30.7141C501.945 30.3933 501.438 29.946 501.077 29.3724C500.716 28.7987 500.537 28.1294 500.537 27.3646V20.5525H502.752V27.175C502.752 27.5747 502.841 27.9298 503.013 28.2404C503.192 28.551 503.441 28.7954 503.762 28.9729C504.083 29.1503 504.459 29.2392 504.885 29.2392C505.315 29.2392 505.688 29.1503 506.005 28.9729C506.326 28.7954 506.574 28.551 506.749 28.2404C506.925 27.9298 507.015 27.5747 507.015 27.175V20.5525Z" fill="#33B57B"/>
<path fill-rule="evenodd" clip-rule="evenodd" d="M521.152 6.21244C521.291 6.3436 521.291 6.55813 521.157 6.69203L520.911 6.93593C520.779 7.06958 520.557 7.07207 520.42 6.94066C520.283 6.80975 520.281 6.59496 520.415 6.46107L520.662 6.21716C520.794 6.08351 521.015 6.08127 521.152 6.21244ZM519.928 7.43195C520.064 7.56287 520.067 7.77765 519.933 7.91155L519.442 8.39936C519.308 8.53301 519.089 8.53549 518.949 8.40408C518.813 8.27317 518.81 8.05839 518.944 7.92449L519.435 7.43693C519.569 7.30303 519.791 7.30079 519.928 7.43195ZM518.457 8.89538C518.594 9.02654 518.596 9.24132 518.459 9.37497L517.971 9.86278C517.837 9.99668 517.618 9.99866 517.479 9.86775C517.342 9.73634 517.342 9.52181 517.474 9.38816L517.964 8.90011C518.101 8.76621 518.32 8.76422 518.457 8.89538ZM516.986 10.3588C517.123 10.49 517.125 10.7047 516.991 10.8386L516.5 11.3262C516.364 11.4601 516.147 11.4621 516.01 11.3312C515.871 11.2003 515.871 10.9852 516.005 10.8513L516.493 10.3635C516.63 10.2299 516.849 10.2276 516.986 10.3588ZM515.515 11.8222C515.654 11.9534 515.654 12.1679 515.52 12.3018L515.03 12.7896C514.895 12.9233 514.674 12.9258 514.539 12.7943C514.4 12.6634 514.397 12.4489 514.532 12.315L515.025 11.8272C515.159 11.6933 515.378 11.6913 515.515 11.8222ZM514.044 13.2856C514.181 13.4168 514.183 13.6316 514.049 13.7652L513.559 14.253C513.424 14.3869 513.205 14.3892 513.066 14.2583C512.931 14.1269 512.926 13.9121 513.063 13.7784L513.551 13.2906C513.686 13.1567 513.907 13.1545 514.044 13.2856ZM493.457 33.7738C493.593 33.905 493.596 34.1198 493.461 34.2537L492.971 34.7412C492.837 34.8751 492.615 34.8773 492.478 34.7462C492.342 34.6153 492.339 34.4005 492.473 34.2666L492.964 33.7788C493.098 33.6449 493.317 33.6426 493.457 33.7738ZM491.986 35.2375C492.123 35.3684 492.125 35.5832 491.991 35.7171L491.5 36.2049C491.366 36.3385 491.144 36.3408 491.008 36.2096C490.871 36.0784 490.868 35.8639 491.003 35.73L491.493 35.2422C491.627 35.1086 491.849 35.1061 491.986 35.2375ZM490.515 36.7007C490.652 36.8318 490.654 37.0466 490.52 37.1805L490.029 37.6683C489.895 37.8022 489.674 37.8042 489.537 37.6733C489.4 37.5419 489.397 37.3271 489.532 37.1934L490.022 36.7056C490.156 36.5717 490.378 36.5697 490.515 36.7007ZM489.044 38.1641C489.181 38.2955 489.183 38.51 489.049 38.6437L488.559 39.1317C488.424 39.2656 488.203 39.2676 488.066 39.1365C487.929 39.0055 487.926 38.7905 488.061 38.6569L488.554 38.169C488.688 38.0351 488.907 38.0332 489.044 38.1641ZM487.573 39.6277C487.71 39.7587 487.712 39.9734 487.578 40.1073L487.088 40.5951C486.953 40.7288 486.734 40.7313 486.595 40.5999C486.46 40.469 486.455 40.2542 486.59 40.1203L487.08 39.6325C487.215 39.4988 487.436 39.4963 487.573 39.6277ZM486.102 41.0912C486.239 41.2221 486.241 41.4369 486.107 41.5708L485.863 41.8147C485.729 41.9486 485.507 41.9505 485.37 41.8196C485.233 41.6882 485.231 41.4737 485.365 41.34L485.609 41.0961C485.744 40.9622 485.965 40.96 486.102 41.0912Z" fill="#33B57B"/>
<path d="M71.8185 26.8385L74.2948 19.9694H75.8752L72.5402 28.7922H71.022L67.7368 19.9694H69.3545L71.8185 26.8385ZM83.1204 28.7922L82.2867 26.5772H78.5534L77.7322 28.7922H76.1518L79.5863 19.9694H81.316L84.7506 28.7922H83.1204ZM80.4201 21.5871L79.0761 25.1959H81.764L80.4201 21.5871ZM92.2163 28.7922H86.6787V19.9694H88.172V27.3736H92.2163V28.7922ZM97.392 28.9789C96.4214 28.9789 95.6374 28.6927 95.0277 28.1203C94.4055 27.5478 94.1068 26.7514 94.1068 25.7185V19.9694H95.5876V25.6314C95.5876 26.2536 95.737 26.7265 96.0605 27.0625C96.3841 27.3985 96.8196 27.5603 97.392 27.5603C97.9645 27.5603 98.4 27.3985 98.7235 27.0625C99.0346 26.739 99.1964 26.2536 99.1964 25.6314V19.9694H100.69V25.7185C100.69 26.7514 100.379 27.5478 99.7564 28.1203C99.1342 28.6927 98.3502 28.9789 97.392 28.9789ZM108.898 28.7922H103.448V19.9694H108.898V21.3631H104.941V23.7026H108.525V25.059H104.941V27.3985H108.898V28.7922ZM119.19 28.9789C117.946 28.9789 116.901 28.5682 116.03 27.722C115.158 26.8883 114.735 25.7808 114.735 24.387C114.735 23.0182 115.171 21.8982 116.054 21.052C116.925 20.2058 117.971 19.7827 119.178 19.7827C120.236 19.7827 121.107 20.0565 121.791 20.5916C122.476 21.1391 122.924 21.8235 123.148 22.6449L121.741 23.1177C121.592 22.5453 121.306 22.0849 120.883 21.724C120.447 21.3756 119.875 21.1889 119.178 21.1889C118.381 21.1889 117.697 21.4751 117.125 22.0351C116.552 22.5951 116.266 23.3791 116.266 24.387C116.266 25.3826 116.552 26.1541 117.125 26.7141C117.697 27.274 118.381 27.5478 119.19 27.5478C119.875 27.5478 120.447 27.3612 120.895 26.9878C121.343 26.6145 121.642 26.1541 121.816 25.6065L123.185 26.0545C122.961 26.8758 122.513 27.5727 121.816 28.1327C121.119 28.7051 120.248 28.9789 119.19 28.9789ZM132.59 28.7922H131.084V25.0217H126.94V28.7922H125.447V19.9694H126.94V23.6155H131.084V19.9694H132.59V28.7922ZM141.489 28.7922L140.656 26.5772H136.922L136.101 28.7922H134.521L137.955 19.9694H139.685L143.119 28.7922H141.489ZM138.789 21.5871L137.445 25.1959H140.133L138.789 21.5871ZM146.566 28.7922H145.048V19.9694H146.566V28.7922ZM156.832 28.7922H155.277L150.921 22.1098V28.7922H149.428V19.9694H151.332L155.339 26.2287V19.9694H156.832V28.7922Z" fill="white"/>
<path d="M311.224 28.7922H309.743V22.2964L306.993 28.7922H305.699L302.974 22.3213V28.7922H301.518V19.9694H303.509L306.371 26.7016L309.196 19.9694H311.224V28.7922ZM319.539 28.7922H314.089V19.9694H319.539V21.3631H315.582V23.7026H319.166V25.059H315.582V27.3985H319.539V28.7922ZM328.499 21.3756H325.624V28.7922H324.131V21.3756H321.269V19.9694H328.499V21.3756ZM337.613 28.7922H336.107V25.0217H331.963V28.7922H330.47V19.9694H331.963V23.6155H336.107V19.9694H337.613V28.7922ZM341.471 24.3746C341.471 25.3826 341.757 26.1665 342.342 26.7265C342.914 27.2865 343.611 27.5603 344.42 27.5603C345.216 27.5603 345.913 27.2865 346.498 26.7265C347.083 26.1665 347.381 25.3826 347.381 24.3746C347.381 23.3791 347.083 22.5951 346.498 22.0351C345.913 21.4751 345.216 21.1889 344.42 21.1889C343.611 21.1889 342.914 21.4751 342.342 22.0351C341.757 22.5951 341.471 23.3791 341.471 24.3746ZM339.94 24.3746C339.94 23.4537 340.151 22.6324 340.575 21.9231C340.998 21.2138 341.558 20.6787 342.23 20.3178C342.902 19.9694 343.623 19.7827 344.42 19.7827C345.204 19.7827 345.938 19.9694 346.61 20.3178C347.282 20.6787 347.829 21.2138 348.265 21.9231C348.688 22.6324 348.912 23.4537 348.912 24.3746C348.912 25.3079 348.688 26.1292 348.265 26.8385C347.829 27.5603 347.282 28.0954 346.61 28.4438C345.938 28.8047 345.204 28.9789 344.42 28.9789C343.623 28.9789 342.902 28.8047 342.23 28.4438C341.558 28.0954 340.998 27.5603 340.575 26.8385C340.151 26.1292 339.94 25.3079 339.94 24.3746ZM352.73 27.4234H354.298C355.107 27.4234 355.779 27.1745 356.301 26.6519C356.824 26.1292 357.098 25.3825 357.098 24.3995C357.098 23.4164 356.836 22.6573 356.314 22.1346C355.791 21.612 355.119 21.3382 354.31 21.3382H352.73V27.4234ZM354.348 28.7922H351.237V19.9694H354.36C355.605 19.9694 356.625 20.3676 357.434 21.1516C358.243 21.948 358.653 23.0306 358.653 24.3995C358.653 25.7683 358.243 26.851 357.434 27.6225C356.612 28.4065 355.592 28.7922 354.348 28.7922ZM368.718 28.9789C367.474 28.9789 366.428 28.5682 365.557 27.722C364.686 26.8883 364.263 25.7808 364.263 24.387C364.263 23.0182 364.699 21.8982 365.582 21.052C366.453 20.2058 367.499 19.7827 368.706 19.7827C369.763 19.7827 370.634 20.0565 371.319 20.5916C372.003 21.1391 372.451 21.8235 372.675 22.6449L371.269 23.1177C371.12 22.5453 370.834 22.0849 370.41 21.724C369.975 21.3756 369.402 21.1889 368.706 21.1889C367.909 21.1889 367.225 21.4751 366.652 22.0351C366.08 22.5951 365.794 23.3791 365.794 24.387C365.794 25.3826 366.08 26.1541 366.652 26.7141C367.225 27.274 367.909 27.5478 368.718 27.5478C369.402 27.5478 369.975 27.3612 370.423 26.9878C370.871 26.6145 371.17 26.1541 371.344 25.6065L372.713 26.0545C372.489 26.8758 372.041 27.5727 371.344 28.1327C370.647 28.7051 369.776 28.9789 368.718 28.9789ZM382.118 28.7922H380.612V25.0217H376.468V28.7922H374.975V19.9694H376.468V23.6155H380.612V19.9694H382.118V28.7922ZM391.015 28.7922L390.182 26.5772H386.448L385.627 28.7922H384.047L387.481 19.9694H389.211L392.646 28.7922H391.015ZM388.315 21.5871L386.971 25.1959H389.659L388.315 21.5871ZM396.093 28.7922H394.574V19.9694H396.093V28.7922ZM406.359 28.7922H404.803L400.448 22.1098V28.7922H398.955V19.9694H400.859L404.866 26.2287V19.9694H406.359V28.7922Z" fill="white"/>
<path d="M545.838 28.9789C544.867 28.9789 544.083 28.6927 543.474 28.1203C542.851 27.5478 542.553 26.7514 542.553 25.7185V19.9694H544.034V25.6314C544.034 26.2536 544.183 26.7265 544.506 27.0625C544.83 27.3985 545.265 27.5603 545.838 27.5603C546.41 27.5603 546.846 27.3985 547.169 27.0625C547.481 26.739 547.642 26.2536 547.642 25.6314V19.9694H549.136V25.7185C549.136 26.7514 548.825 27.5478 548.202 28.1203C547.58 28.6927 546.796 28.9789 545.838 28.9789ZM558.252 21.3756H555.378V28.7922H553.884V21.3756H551.022V19.9694H558.252V21.3756ZM561.741 28.7922H560.223V19.9694H561.741V28.7922ZM570.141 28.7922H564.604V19.9694H566.097V27.3736H570.141V28.7922ZM573.77 28.7922H572.252V19.9694H573.77V28.7922ZM582.966 21.3756H580.091V28.7922H578.598V21.3756H575.736V19.9694H582.966V21.3756ZM587.334 25.059L584.248 19.9694H586.015L588.13 23.6653L590.258 19.9694H591.938L588.827 25.059V28.7922H587.334V25.059ZM601.617 28.9789C600.373 28.9789 599.328 28.5682 598.456 27.722C597.585 26.8883 597.162 25.7808 597.162 24.387C597.162 23.0182 597.598 21.8982 598.481 21.052C599.352 20.2058 600.398 19.7827 601.605 19.7827C602.663 19.7827 603.534 20.0565 604.218 20.5916C604.902 21.1391 605.35 21.8235 605.574 22.6449L604.168 23.1177C604.019 22.5453 603.733 22.0849 603.31 21.724C602.874 21.3756 602.302 21.1889 601.605 21.1889C600.808 21.1889 600.124 21.4751 599.551 22.0351C598.979 22.5951 598.693 23.3791 598.693 24.387C598.693 25.3826 598.979 26.1541 599.551 26.7141C600.124 27.274 600.808 27.5478 601.617 27.5478C602.302 27.5478 602.874 27.3612 603.322 26.9878C603.77 26.6145 604.069 26.1541 604.243 25.6065L605.612 26.0545C605.388 26.8758 604.94 27.5727 604.243 28.1327C603.546 28.7051 602.675 28.9789 601.617 28.9789ZM615.017 28.7922H613.511V25.0217H609.367V28.7922H607.874V19.9694H609.367V23.6155H613.511V19.9694H615.017V28.7922ZM623.917 28.7922L623.083 26.5772H619.35L618.529 28.7922H616.948L620.383 19.9694H622.113L625.547 28.7922H623.917ZM621.217 21.5871L619.873 25.1959H622.561L621.217 21.5871ZM628.992 28.7922H627.474V19.9694H628.992V28.7922ZM639.258 28.7922H637.703L633.347 22.1098V28.7922H631.854V19.9694H633.758L637.765 26.2287V19.9694H639.258V28.7922Z" fill="white"/>
<path d="M422.633 419.981L422.543 420.019C422.005 420.2 421.199 420.474 420.5 420.82C420.462 420.838 420.43 420.892 420.43 420.892C420.41 420.927 420.39 420.964 420.375 421.002C420.301 421.184 420.179 421.457 420.141 421.582L420.106 421.676C420.106 421.694 420.106 421.711 420.106 421.711L420.124 421.731H420.141L420.228 421.694C420.43 421.602 420.679 421.457 420.93 421.33H420.948C421.448 421.091 422.005 420.82 422.326 420.656C422.326 420.656 422.381 420.621 422.416 420.566L422.667 420.056C422.667 420.036 422.667 420.019 422.667 420.019C422.667 419.981 422.648 419.964 422.633 419.981Z" fill="#7A7A7A"/>
<path d="M420.549 419.2C420.584 419.128 420.743 418.819 420.783 418.747V418.729C421.873 416.649 423.202 414.693 424.72 412.898L424.758 412.846C424.778 412.826 424.778 412.809 424.758 412.791C424.74 412.774 424.72 412.754 424.705 412.774H424.633C423.628 412.918 422.607 413.1 421.604 413.354C421.497 413.388 421.443 413.443 421.425 413.461C420.671 414.367 419.972 415.325 419.307 416.305C419.33 416.358 419.33 416.467 419.33 416.467C419.33 416.467 419.489 417.734 419.723 418.675C419.15 420.394 418.613 422.677 418.613 422.677C418.613 422.694 418.613 422.714 418.613 422.714C418.613 422.731 418.63 422.731 418.645 422.731H418.986C419.006 422.731 419.023 422.714 419.043 422.697L419.058 422.622C419.397 421.681 419.795 420.74 420.223 419.834C420.333 419.633 420.549 419.2 420.549 419.2Z" fill="#7A7A7A"/>
<path d="M425.257 413.304V413.232C425.257 413.215 425.239 413.195 425.222 413.18C425.205 413.18 425.185 413.18 425.167 413.195L425.132 413.25C423.32 415.318 421.822 417.62 420.633 420.081L420.595 420.136C420.595 420.154 420.595 420.171 420.595 420.191C420.61 420.208 420.61 420.208 420.633 420.208H420.648L420.702 420.191C421.713 419.778 422.746 419.417 423.773 419.111C423.828 419.093 423.885 419.058 423.92 419.006C424.373 418.143 425.419 416.45 425.419 416.45C425.458 416.395 425.441 416.343 425.441 416.343C425.441 416.343 425.257 414.327 425.257 413.304Z" fill="#7A7A7A"/>
<path d="M427.577 410.403C427.325 410.187 426.942 410.08 426.37 410.062C425.87 410.042 425.255 410.169 424.553 410.386C424.446 410.423 424.374 410.476 424.282 410.548C423.565 411.215 422.883 411.936 422.233 412.658L422.179 412.71C422.161 412.73 422.161 412.745 422.179 412.765C422.196 412.783 422.216 412.8 422.233 412.783L422.306 412.765C423.368 412.531 424.426 412.37 425.471 412.26C425.541 412.26 425.616 412.277 425.668 412.312C425.725 412.369 425.74 412.424 425.74 412.494C425.725 413.539 425.76 414.585 425.847 415.592V415.665C425.847 415.682 425.87 415.702 425.884 415.702C425.884 415.702 425.884 415.702 425.904 415.702C425.922 415.702 425.937 415.702 425.937 415.682L425.974 415.63C426.569 414.784 427.196 413.972 427.88 413.198C427.953 413.106 427.973 413.051 427.99 412.979C428.204 411.663 427.88 410.657 427.577 410.403Z" fill="#7A7A7A"/>
<path d="M546.064 426.196H461.445V398.964H570.953V416.063" stroke="#4F4F4F" stroke-width="0.5" stroke-linecap="round" stroke-linejoin="round"/>
<path opacity="0.6" d="M562.256 446.249C569.347 446.249 575.096 440.607 575.096 433.648C575.096 426.688 569.347 421.049 562.256 421.049C555.163 421.049 549.414 426.688 549.414 433.648C549.414 440.607 555.163 446.249 562.256 446.249Z" fill="#0D0D0D"/>
<path d="M559.783 410.251C559.73 409.806 559.514 409.46 559.137 409.214C558.76 408.968 558.298 408.845 557.75 408.845C557.349 408.845 556.999 408.909 556.698 409.038C556.401 409.167 556.168 409.344 556 409.57C555.835 409.796 555.752 410.052 555.752 410.339C555.752 410.58 555.81 410.786 555.925 410.959C556.043 411.129 556.193 411.271 556.375 411.385C556.558 411.497 556.75 411.589 556.95 411.662C557.15 411.733 557.334 411.79 557.502 411.834L558.421 412.08C558.657 412.142 558.919 412.227 559.208 412.335C559.5 412.443 559.778 412.591 560.043 412.779C560.311 412.964 560.532 413.201 560.706 413.491C560.88 413.781 560.967 414.137 560.967 414.559C560.967 415.046 560.839 415.485 560.582 415.878C560.329 416.271 559.958 416.583 559.469 416.814C558.983 417.046 558.392 417.161 557.697 417.161C557.049 417.161 556.487 417.057 556.013 416.849C555.542 416.641 555.171 416.351 554.9 415.979C554.631 415.607 554.48 415.175 554.444 414.682H555.576C555.605 415.022 555.72 415.304 555.92 415.526C556.124 415.746 556.38 415.91 556.689 416.019C557.001 416.124 557.337 416.177 557.697 416.177C558.115 416.177 558.491 416.109 558.824 415.975C559.157 415.837 559.42 415.646 559.615 415.403C559.809 415.157 559.906 414.87 559.906 414.542C559.906 414.243 559.822 413.999 559.654 413.812C559.486 413.624 559.266 413.472 558.992 413.355C558.718 413.238 558.421 413.135 558.103 413.047L556.99 412.731C556.283 412.528 555.723 412.24 555.31 411.865C554.898 411.49 554.692 410.999 554.692 410.392C554.692 409.888 554.829 409.448 555.103 409.073C555.38 408.695 555.751 408.402 556.216 408.194C556.685 407.983 557.208 407.878 557.785 407.878C558.368 407.878 558.887 407.982 559.341 408.19C559.794 408.395 560.154 408.676 560.419 409.034C560.687 409.391 560.828 409.797 560.843 410.251H559.783Z" fill="#969696"/>
<path d="M553.068 410.814H551.972C551.907 410.5 551.794 410.225 551.632 409.987C551.472 409.75 551.278 409.551 551.048 409.39C550.821 409.225 550.57 409.102 550.293 409.02C550.016 408.938 549.727 408.897 549.426 408.897C548.879 408.897 548.382 409.035 547.937 409.31C547.495 409.586 547.143 409.992 546.881 410.528C546.622 411.064 546.492 411.722 546.492 412.502C546.492 413.281 546.622 413.939 546.881 414.475C547.143 415.012 547.495 415.418 547.937 415.693C548.382 415.969 548.879 416.106 549.426 416.106C549.727 416.106 550.016 416.065 550.293 415.983C550.57 415.901 550.821 415.779 551.048 415.618C551.278 415.454 551.472 415.253 551.632 415.016C551.794 414.776 551.907 414.5 551.972 414.19H553.068C552.985 414.65 552.835 415.062 552.617 415.425C552.399 415.788 552.128 416.097 551.804 416.352C551.48 416.604 551.116 416.796 550.712 416.928C550.312 417.06 549.883 417.126 549.426 417.126C548.655 417.126 547.968 416.938 547.367 416.563C546.766 416.188 546.293 415.655 545.949 414.963C545.604 414.272 545.432 413.451 545.432 412.502C545.432 411.552 545.604 410.732 545.949 410.04C546.293 409.349 546.766 408.815 547.367 408.44C547.968 408.065 548.655 407.877 549.426 407.877C549.883 407.877 550.312 407.943 550.712 408.075C551.116 408.207 551.48 408.401 551.804 408.655C552.128 408.908 552.399 409.215 552.617 409.579C552.835 409.939 552.985 410.351 553.068 410.814Z" fill="#969696"/>
<path d="M537.827 416.997V407.994H540.885C541.592 407.994 542.172 408.115 542.626 408.355C543.079 408.592 543.415 408.919 543.633 409.335C543.851 409.751 543.96 410.224 543.96 410.755C543.96 411.285 543.851 411.756 543.633 412.166C543.415 412.576 543.081 412.899 542.63 413.133C542.179 413.364 541.603 413.48 540.902 413.48H538.428V412.496H540.867C541.35 412.496 541.739 412.425 542.034 412.285C542.331 412.144 542.546 411.945 542.679 411.687C542.814 411.426 542.882 411.115 542.882 410.755C542.882 410.394 542.814 410.079 542.679 409.81C542.543 409.54 542.327 409.332 542.029 409.186C541.732 409.036 541.338 408.961 540.849 408.961H538.923V416.997H537.827ZM542.087 412.953L544.314 416.997H543.041L540.849 412.953H542.087Z" fill="#969696"/>
<path d="M529.79 416.997H528.641L531.964 407.995H533.096L536.419 416.997H535.27L532.565 409.419H532.495L529.79 416.997ZM530.214 413.48H534.845V414.448H530.214V413.48Z" fill="#969696"/>
<path d="M519.756 416.997H516.963V407.994H519.88C520.758 407.994 521.509 408.175 522.134 408.535C522.758 408.893 523.237 409.407 523.57 410.078C523.903 410.746 524.069 411.546 524.069 412.478C524.069 413.416 523.901 414.223 523.565 414.9C523.23 415.574 522.741 416.093 522.098 416.456C521.456 416.817 520.675 416.997 519.756 416.997ZM518.059 416.03H519.686C520.434 416.03 521.054 415.886 521.546 415.599C522.038 415.312 522.405 414.903 522.646 414.373C522.888 413.842 523.009 413.211 523.009 412.478C523.009 411.751 522.889 411.126 522.651 410.601C522.412 410.074 522.056 409.669 521.581 409.388C521.107 409.104 520.516 408.961 519.809 408.961H518.059V416.03Z" fill="#969696"/>
<path d="M515.131 412.502C515.131 413.451 514.959 414.272 514.614 414.963C514.27 415.655 513.797 416.188 513.196 416.563C512.595 416.938 511.908 417.126 511.136 417.126C510.365 417.126 509.678 416.938 509.077 416.563C508.476 416.188 508.003 415.655 507.659 414.963C507.314 414.272 507.142 413.451 507.142 412.502C507.142 411.552 507.314 410.732 507.659 410.04C508.003 409.349 508.476 408.815 509.077 408.44C509.678 408.065 510.365 407.877 511.136 407.877C511.908 407.877 512.595 408.065 513.196 408.44C513.797 408.815 514.27 409.349 514.614 410.04C514.959 410.732 515.131 411.552 515.131 412.502ZM514.071 412.502C514.071 411.722 513.94 411.064 513.677 410.528C513.418 409.992 513.066 409.586 512.621 409.31C512.179 409.035 511.684 408.897 511.136 408.897C510.588 408.897 510.092 409.035 509.647 409.31C509.205 409.586 508.853 409.992 508.591 410.528C508.332 411.064 508.202 411.722 508.202 412.502C508.202 413.281 508.332 413.939 508.591 414.475C508.853 415.012 509.205 415.418 509.647 415.693C510.092 415.969 510.588 416.106 511.136 416.106C511.684 416.106 512.179 415.969 512.621 415.693C513.066 415.418 513.418 415.012 513.677 414.475C513.94 413.939 514.071 413.281 514.071 412.502Z" fill="#969696"/>
<path d="M498.279 416.997V407.995H499.375V412.004H504.2V407.995H505.296V416.997H504.2V412.971H499.375V416.997H498.279Z" fill="#969696"/>
<path d="M489.805 408.961V407.994H496.593V408.961H493.747V416.997H492.651V408.961H489.805Z" fill="#969696"/>
<path d="M482.856 416.997V407.995H488.318V408.962H483.952V412.004H488.035V412.971H483.952V416.03H488.389V416.997H482.856Z" fill="#969696"/>
<path d="M471.797 407.989H473.105L476.181 415.462H476.287L479.363 407.989H480.671V416.991H479.646V410.152H479.557L476.729 416.991H475.739L472.911 410.152H472.823V416.991H471.797V407.989Z" fill="#969696"/>
<path d="M305.592 396.224L304.618 396.5C304.556 396.338 304.466 396.18 304.347 396.027C304.23 395.871 304.071 395.742 303.869 395.641C303.666 395.54 303.408 395.489 303.092 395.489C302.66 395.489 302.3 395.589 302.012 395.788C301.727 395.984 301.585 396.234 301.585 396.537C301.585 396.807 301.683 397.019 301.879 397.176C302.075 397.332 302.381 397.462 302.798 397.566L303.846 397.824C304.477 397.977 304.947 398.211 305.257 398.527C305.566 398.839 305.721 399.242 305.721 399.736C305.721 400.14 305.604 400.502 305.371 400.82C305.142 401.139 304.82 401.39 304.406 401.574C303.993 401.758 303.512 401.85 302.963 401.85C302.243 401.85 301.647 401.693 301.175 401.381C300.704 401.068 300.405 400.612 300.279 400.011L301.309 399.754C301.407 400.134 301.592 400.419 301.865 400.609C302.141 400.799 302.501 400.894 302.945 400.894C303.45 400.894 303.852 400.787 304.149 400.572C304.449 400.355 304.599 400.094 304.599 399.791C304.599 399.546 304.514 399.34 304.342 399.175C304.17 399.006 303.907 398.881 303.552 398.798L302.375 398.522C301.729 398.369 301.254 398.132 300.95 397.81C300.65 397.485 300.5 397.079 300.5 396.592C300.5 396.194 300.612 395.841 300.835 395.535C301.062 395.229 301.37 394.988 301.759 394.813C302.151 394.639 302.596 394.552 303.092 394.552C303.791 394.552 304.339 394.705 304.737 395.011C305.139 395.317 305.424 395.722 305.592 396.224Z" fill="#969696"/>
<path d="M298.905 395.223H297.765C297.698 394.895 297.58 394.607 297.411 394.359C297.246 394.111 297.044 393.902 296.805 393.734C296.569 393.562 296.307 393.434 296.019 393.348C295.731 393.262 295.431 393.219 295.118 393.219C294.548 393.219 294.032 393.363 293.569 393.651C293.11 393.939 292.743 394.363 292.471 394.924C292.201 395.485 292.066 396.173 292.066 396.988C292.066 397.803 292.201 398.49 292.471 399.051C292.743 399.612 293.11 400.036 293.569 400.324C294.032 400.612 294.548 400.756 295.118 400.756C295.431 400.756 295.731 400.713 296.019 400.628C296.307 400.542 296.569 400.415 296.805 400.246C297.044 400.074 297.246 399.865 297.411 399.616C297.58 399.365 297.698 399.077 297.765 398.752H298.905C298.819 399.233 298.663 399.664 298.436 400.044C298.209 400.424 297.928 400.747 297.591 401.014C297.254 401.277 296.875 401.478 296.455 401.616C296.039 401.753 295.593 401.822 295.118 401.822C294.315 401.822 293.601 401.626 292.976 401.234C292.351 400.842 291.86 400.284 291.501 399.561C291.143 398.838 290.963 397.98 290.963 396.988C290.963 395.995 291.143 395.137 291.501 394.414C291.86 393.691 292.351 393.133 292.976 392.741C293.601 392.349 294.315 392.153 295.118 392.153C295.593 392.153 296.039 392.222 296.455 392.36C296.875 392.498 297.254 392.7 297.591 392.966C297.928 393.23 298.209 393.551 298.436 393.931C298.663 394.308 298.819 394.739 298.905 395.223Z" fill="#969696"/>
<path d="M289.5 395.222H288.36C288.293 394.895 288.175 394.607 288.007 394.358C287.841 394.11 287.639 393.902 287.4 393.733C287.164 393.562 286.902 393.433 286.614 393.347C286.326 393.261 286.026 393.219 285.713 393.219C285.143 393.219 284.627 393.363 284.164 393.651C283.705 393.939 283.339 394.363 283.066 394.924C282.796 395.484 282.662 396.172 282.662 396.987C282.662 397.802 282.796 398.49 283.066 399.051C283.339 399.611 283.705 400.036 284.164 400.324C284.627 400.612 285.143 400.756 285.713 400.756C286.026 400.756 286.326 400.713 286.614 400.627C286.902 400.541 287.164 400.414 287.4 400.246C287.639 400.074 287.841 399.864 288.007 399.616C288.175 399.365 288.293 399.077 288.36 398.752H289.5C289.414 399.233 289.258 399.663 289.031 400.043C288.805 400.423 288.523 400.747 288.186 401.013C287.849 401.277 287.47 401.477 287.051 401.615C286.634 401.753 286.188 401.822 285.713 401.822C284.91 401.822 284.197 401.626 283.572 401.234C282.947 400.842 282.455 400.284 282.096 399.561C281.738 398.838 281.559 397.98 281.559 396.987C281.559 395.994 281.738 395.137 282.096 394.413C282.455 393.69 282.947 393.133 283.572 392.741C284.197 392.348 284.91 392.152 285.713 392.152C286.188 392.152 286.634 392.221 287.051 392.359C287.47 392.497 287.849 392.699 288.186 392.966C288.523 393.229 288.805 393.551 289.031 393.931C289.258 394.308 289.414 394.738 289.5 395.222Z" fill="#969696"/>
<path d="M274.177 401.701V392.289H279.858V393.3H275.317V396.48H279.564V397.491H275.317V400.69H279.931V401.701H274.177Z" fill="#969696"/>
<path d="M316.979 420.591C316.797 420.773 316.494 420.591 316.555 420.318C316.676 419.983 316.797 419.559 316.949 419.073C315.431 420.257 313.7 421.259 311.97 422.078C311.727 422.2 311.485 421.896 311.666 421.684C312.668 420.439 313.639 419.164 314.55 417.859L312.668 418.8C312.425 418.921 312.213 418.648 312.364 418.435C313.275 417.191 315.066 414.762 316.433 413.092L316.949 413.7L316.616 414.884C316.558 415.074 316.547 415.276 316.584 415.471C316.621 415.667 316.704 415.851 316.828 416.007C317.07 416.341 317.465 416.523 317.86 416.523C318.042 416.523 318.194 416.492 318.346 416.432L319.5 415.976L320.532 416.644C320.563 416.675 320.593 416.675 320.623 416.705C319.439 418.223 317.89 419.771 316.979 420.591ZM322.96 412.91L321.897 413.76C321.828 413.814 321.772 413.883 321.735 413.962C321.698 414.041 321.681 414.128 321.685 414.216L321.776 415.551C321.806 415.886 321.533 416.128 321.23 416.128C321.122 416.126 321.017 416.095 320.925 416.037L319.802 415.309C319.713 415.247 319.607 415.215 319.498 415.218C319.438 415.218 319.346 415.218 319.286 415.248L318.041 415.764C317.981 415.795 317.89 415.795 317.829 415.795C317.496 415.795 317.191 415.461 317.313 415.096L317.677 413.791C317.705 413.707 317.708 413.617 317.686 413.531C317.665 413.445 317.62 413.367 317.556 413.306L316.706 412.273C316.403 411.939 316.645 411.393 317.1 411.363L318.436 411.302C318.522 411.303 318.607 411.281 318.682 411.238C318.756 411.195 318.819 411.134 318.862 411.059L319.559 409.905C319.606 409.827 319.674 409.764 319.754 409.721C319.834 409.678 319.925 409.658 320.016 409.662C320.228 409.662 320.44 409.784 320.531 410.027L321.017 411.271C321.046 411.358 321.098 411.435 321.167 411.494C321.237 411.553 321.322 411.592 321.412 411.606L322.718 411.94C323.203 412.061 323.324 412.637 322.96 412.91ZM321.927 412.394C321.715 412.242 321.351 412.273 321.138 412.394C320.925 412.546 320.925 412.758 321.138 412.91C321.351 413.062 321.715 413.031 321.927 412.91C322.14 412.789 322.14 412.546 321.927 412.394Z" fill="#7A7A7A"/>
<path fill-rule="evenodd" clip-rule="evenodd" d="M568.638 436.304C568.585 434.421 567.88 432.851 566.46 431.629C565.392 430.709 564.139 430.219 562.732 430.17C560.998 430.109 559.487 430.676 558.232 431.878C556.977 433.079 556.37 434.571 556.325 436.309H554.266C554.239 435.689 554.322 435.088 554.458 434.496C554.859 432.759 555.734 431.297 557.073 430.121C559.867 427.667 563.846 427.476 566.791 429.307C569.78 431.164 570.777 434.292 570.681 436.305L568.638 436.304ZM560.659 434.52C561.144 434.033 561.731 433.776 562.421 433.759C562.973 433.745 563.477 433.891 563.927 434.205C564.653 434.71 564.999 435.427 565.048 436.304H567.085C567.179 435.135 566.525 433.382 564.962 432.399C563.201 431.291 561.013 431.452 559.441 432.824C558.394 433.736 557.875 434.905 557.849 436.311H559.916C559.951 435.614 560.174 435.008 560.659 434.52Z" fill="#7A7A7A"/>
<defs>
<linearGradient id="paint0_linear_109_9119" x1="81.1998" y1="403.679" x2="79.0896" y2="402.124" gradientUnits="userSpaceOnUse">
<stop stop-color="white"/>
<stop offset="1" stop-opacity="0"/>
</linearGradient>
<linearGradient id="paint1_linear_109_9119" x1="89.2901" y1="402.453" x2="87.1878" y2="400.908" gradientUnits="userSpaceOnUse">
<stop stop-color="white"/>
<stop offset="1" stop-opacity="0"/>
</linearGradient>
<linearGradient id="paint2_linear_109_9119" x1="84.7222" y1="394.075" x2="89.2185" y2="399.829" gradientUnits="userSpaceOnUse">
<stop stop-color="#D0C8C8"/>
<stop offset="1" stop-opacity="0"/>
</linearGradient>
<linearGradient id="paint3_linear_109_9119" x1="85.3072" y1="397.704" x2="83.7022" y2="396.064" gradientUnits="userSpaceOnUse">
<stop stop-color="white"/>
<stop offset="1" stop-opacity="0"/>
</linearGradient>
</defs>
</svg>
