<svg width="361" height="210" viewBox="0 0 361 210" fill="none" xmlns="http://www.w3.org/2000/svg">
<mask id="mask0_305_1910" style="mask-type:luminance" maskUnits="userSpaceOnUse" x="1" y="0" width="360" height="210">
<path d="M361 0H1V210H361V0Z" fill="white"/>
</mask>
<g mask="url(#mask0_305_1910)">
<path d="M307.732 33.5H53.2679C48.9778 33.5 45.5 36.9778 45.5 41.2679V241.732C45.5 246.022 48.9778 249.5 53.2679 249.5H307.732C312.022 249.5 315.5 246.022 315.5 241.732V41.2679C315.5 36.9778 312.022 33.5 307.732 33.5Z" fill="#343434" stroke="#3E3E3E"/>
<path d="M204.839 51H103.161C102.244 51 101.5 52.1193 101.5 53.5C101.5 54.8807 102.244 56 103.161 56H204.839C205.756 56 206.5 54.8807 206.5 53.5C206.5 52.1193 205.756 51 204.839 51Z" fill="#404040"/>
<path d="M204.839 67H103.161C102.244 67 101.5 68.1193 101.5 69.5C101.5 70.8807 102.244 72 103.161 72H204.839C205.756 72 206.5 70.8807 206.5 69.5C206.5 68.1193 205.756 67 204.839 67Z" fill="#404040"/>
<path d="M52.3598 144.688L47.8741 138.46C47.3067 137.672 46.0626 138.073 46.0626 139.044L46.0625 172.22C46.0625 172.772 46.5102 173.22 47.0625 173.22H307C307.552 173.22 307.5 173.772 307.5 173.22L308 105.511C308 104.795 307.268 104.311 306.609 104.591L303.56 105.886C303.22 106.031 303 106.364 303 106.732C303 106.907 302.95 107.078 302.856 107.226L293.064 122.613C292.757 123.096 292.109 123.223 291.642 122.893L281.338 115.594C280.879 115.269 280.242 115.386 279.929 115.854L267.208 134.886C266.847 135.425 266.077 135.484 265.639 135.006L251.179 119.24C250.804 118.832 250.169 118.806 249.763 119.182L232.345 135.296C231.952 135.659 231.344 135.649 230.964 135.274L217.5 122L204.668 108.217C204.297 107.818 203.675 107.79 203.269 108.152L174.249 134.077C173.757 134.516 172.981 134.367 172.687 133.776L159.882 107.994C159.508 107.242 158.43 107.257 158.078 108.019L145.699 134.834C145.434 135.408 144.709 135.595 144.199 135.221L136.939 129.897C136.6 129.649 136.142 129.639 135.793 129.872L124.706 137.268C124.187 137.614 123.481 137.406 123.233 136.833L110.636 107.729C110.329 107.019 109.367 106.911 108.911 107.536L94.7289 126.956C94.3448 127.482 93.5684 127.507 93.1522 127.006L88.1477 120.984C87.743 120.497 86.9934 120.504 86.5978 120.998L73.7091 137.104C73.3495 137.554 72.6857 137.607 72.2583 137.222L64.5619 130.275C64.1028 129.861 63.3814 129.959 63.0488 130.48L54.0143 144.642C53.6342 145.238 52.7728 145.262 52.3598 144.688Z" fill="url(#paint0_linear_305_1910)"/>
</g>
<path d="M48.1875 135.573L53.5837 144.752C53.9707 145.41 54.9228 145.409 55.3087 144.75L63.9689 129.961C64.3024 129.392 65.0863 129.296 65.5474 129.768L72.8208 137.218C73.2508 137.659 73.9727 137.61 74.3394 137.115L87.9314 118.799C88.3793 118.196 89.3081 118.284 89.6349 118.96L93.6397 127.255C93.976 127.951 94.9418 128.019 95.3716 127.376L110.156 105.257C110.609 104.578 111.64 104.699 111.924 105.464L123.588 136.845C123.816 137.459 124.562 137.691 125.098 137.316L136.645 129.239C136.995 128.994 137.462 128.998 137.807 129.249L145.482 134.836C146.001 135.213 146.736 135.011 146.989 134.422L159.272 105.802C159.62 104.99 160.774 104.996 161.114 105.812L172.967 134.242C173.235 134.886 174.064 135.064 174.574 134.587L203.268 107.687C203.672 107.308 204.307 107.33 204.684 107.735L217.5 121.501L231.614 134.904C232.006 135.277 232.623 135.27 233.007 134.888L249.749 118.247C250.156 117.842 250.821 117.863 251.202 118.294L265.623 134.582C266.063 135.079 266.856 135.018 267.214 134.459L279.441 115.373C279.746 114.896 280.387 114.768 280.852 115.09L292.108 122.883C292.589 123.216 293.251 123.068 293.543 122.562L304.5 103.63" stroke="#545454" stroke-width="1.5" stroke-linecap="round"/>
<path d="M287.414 161H78.5858C76.3293 161 74.5 163.015 74.5 165.5V188.5C74.5 190.985 76.3293 193 78.5858 193H287.414C289.671 193 291.5 190.985 291.5 188.5V165.5C291.5 163.015 289.671 161 287.414 161Z" fill="#282828" stroke="#3E3E3E"/>
<path d="M230.243 175.68C231.636 176.142 232.551 176.869 232.551 177.478V179.74C232.551 180.719 230.189 182 227.275 182C224.362 182 222 180.719 222 179.74V177.478C222 176.869 222.915 176.142 224.308 175.681" stroke="white" stroke-linecap="round" stroke-linejoin="round"/>
<path d="M232.551 177.477C232.551 178.517 230.189 179.727 227.275 179.727C224.362 179.727 222 178.517 222 177.477" stroke="white" stroke-linecap="round" stroke-linejoin="round"/>
<path d="M227.276 176.254V169M227.276 176.254L229.584 173.946M227.276 176.254L224.968 173.946" stroke="white" stroke-linecap="round" stroke-linejoin="round"/>
<path d="M308 103C308 101.343 306.657 100 305 100C303.343 100 302 101.343 302 103C302 104.657 303.343 106 305 106C306.657 106 308 104.657 308 103Z" fill="#30B776" stroke="#343434"/>
<path d="M136.84 181L136.036 178.864H132.436L131.644 181H130.12L133.432 172.492H135.1L138.412 181H136.84ZM134.236 174.052L132.94 177.532H135.532L134.236 174.052ZM140.49 178.06C140.49 178.624 140.634 179.08 140.922 179.416C141.21 179.752 141.582 179.92 142.062 179.92C142.518 179.92 142.89 179.752 143.178 179.404C143.466 179.068 143.61 178.612 143.61 178.048C143.61 177.496 143.466 177.064 143.19 176.728C142.902 176.404 142.53 176.236 142.074 176.236C141.606 176.236 141.222 176.404 140.934 176.74C140.634 177.076 140.49 177.508 140.49 178.06ZM144.954 172.312V179.932C144.954 180.328 144.966 180.688 145.014 181H143.682C143.634 180.784 143.622 180.532 143.622 180.244C143.478 180.508 143.25 180.724 142.95 180.892C142.638 181.06 142.29 181.144 141.906 181.144C141.066 181.144 140.394 180.856 139.878 180.268C139.35 179.692 139.098 178.948 139.098 178.06C139.098 177.208 139.35 176.488 139.878 175.888C140.406 175.3 141.066 175 141.882 175C142.338 175 142.71 175.084 142.998 175.252C143.286 175.42 143.478 175.624 143.598 175.84V172.312H144.954ZM147.949 178.06C147.949 178.624 148.093 179.08 148.381 179.416C148.669 179.752 149.041 179.92 149.521 179.92C149.977 179.92 150.349 179.752 150.637 179.404C150.925 179.068 151.069 178.612 151.069 178.048C151.069 177.496 150.925 177.064 150.649 176.728C150.361 176.404 149.989 176.236 149.533 176.236C149.065 176.236 148.681 176.404 148.393 176.74C148.093 177.076 147.949 177.508 147.949 178.06ZM152.413 172.312V179.932C152.413 180.328 152.425 180.688 152.473 181H151.141C151.093 180.784 151.081 180.532 151.081 180.244C150.937 180.508 150.709 180.724 150.409 180.892C150.097 181.06 149.749 181.144 149.365 181.144C148.525 181.144 147.853 180.856 147.337 180.268C146.809 179.692 146.557 178.948 146.557 178.06C146.557 177.208 146.809 176.488 147.337 175.888C147.865 175.3 148.525 175 149.341 175C149.797 175 150.169 175.084 150.457 175.252C150.745 175.42 150.937 175.624 151.057 175.84V172.312H152.413ZM163.148 181H157.808V172.492H159.248V179.632H163.148V181ZM165.964 181H164.584V175.156H165.964V181ZM164.368 173.104C164.368 172.864 164.452 172.648 164.632 172.468C164.8 172.288 165.016 172.192 165.268 172.192C165.52 172.192 165.736 172.288 165.916 172.456C166.084 172.636 166.18 172.852 166.18 173.104C166.18 173.356 166.084 173.572 165.916 173.74C165.736 173.92 165.52 174.004 165.268 174.004C165.016 174.004 164.8 173.92 164.632 173.74C164.452 173.572 164.368 173.356 164.368 173.104ZM173.436 183.28H172.068V180.304C171.756 180.868 171.18 181.144 170.352 181.144C169.524 181.144 168.852 180.856 168.324 180.268C167.796 179.68 167.544 178.948 167.544 178.06C167.544 177.196 167.796 176.476 168.3 175.888C168.804 175.312 169.476 175.012 170.316 175.012C170.772 175.012 171.156 175.108 171.468 175.288C171.768 175.48 171.984 175.696 172.104 175.936V175.156H173.436V183.28ZM168.948 178.06C168.948 178.612 169.092 179.068 169.38 179.404C169.668 179.752 170.052 179.92 170.508 179.92C170.964 179.92 171.336 179.752 171.636 179.404C171.924 179.068 172.08 178.612 172.08 178.06C172.08 177.508 171.924 177.076 171.636 176.74C171.348 176.416 170.964 176.248 170.508 176.248C170.04 176.248 169.668 176.416 169.38 176.74C169.092 177.076 168.948 177.508 168.948 178.06ZM179.193 180.352C179.049 180.616 178.833 180.808 178.521 180.952C178.209 181.096 177.885 181.168 177.537 181.168C176.853 181.168 176.313 180.952 175.917 180.508C175.521 180.076 175.329 179.512 175.329 178.84V175.156H176.721V178.588C176.721 178.984 176.817 179.308 177.009 179.548C177.201 179.8 177.489 179.92 177.897 179.92C178.281 179.92 178.581 179.8 178.797 179.56C179.013 179.32 179.121 179.008 179.121 178.612V175.156H180.513V179.932C180.513 180.292 180.525 180.64 180.573 181H179.241C179.205 180.832 179.193 180.616 179.193 180.352ZM183.934 181H182.554V175.156H183.934V181ZM182.338 173.104C182.338 172.864 182.422 172.648 182.602 172.468C182.77 172.288 182.986 172.192 183.238 172.192C183.49 172.192 183.706 172.288 183.886 172.456C184.054 172.636 184.15 172.852 184.15 173.104C184.15 173.356 184.054 173.572 183.886 173.74C183.706 173.92 183.49 174.004 183.238 174.004C182.986 174.004 182.77 173.92 182.602 173.74C182.422 173.572 182.338 173.356 182.338 173.104ZM186.906 178.06C186.906 178.624 187.05 179.08 187.338 179.416C187.626 179.752 187.998 179.92 188.478 179.92C188.934 179.92 189.306 179.752 189.594 179.404C189.882 179.068 190.026 178.612 190.026 178.048C190.026 177.496 189.882 177.064 189.606 176.728C189.318 176.404 188.946 176.236 188.49 176.236C188.022 176.236 187.638 176.404 187.35 176.74C187.05 177.076 186.906 177.508 186.906 178.06ZM191.37 172.312V179.932C191.37 180.328 191.382 180.688 191.43 181H190.098C190.05 180.784 190.038 180.532 190.038 180.244C189.894 180.508 189.666 180.724 189.366 180.892C189.054 181.06 188.706 181.144 188.322 181.144C187.482 181.144 186.81 180.856 186.294 180.268C185.766 179.692 185.514 178.948 185.514 178.06C185.514 177.208 185.766 176.488 186.294 175.888C186.822 175.3 187.482 175 188.298 175C188.754 175 189.126 175.084 189.414 175.252C189.702 175.42 189.894 175.624 190.014 175.84V172.312H191.37ZM194.809 181H193.429V175.156H194.809V181ZM193.213 173.104C193.213 172.864 193.297 172.648 193.477 172.468C193.645 172.288 193.861 172.192 194.113 172.192C194.365 172.192 194.581 172.288 194.761 172.456C194.929 172.636 195.025 172.852 195.025 173.104C195.025 173.356 194.929 173.572 194.761 173.74C194.581 173.92 194.365 174.004 194.113 174.004C193.861 174.004 193.645 173.92 193.477 173.74C193.297 173.572 193.213 173.356 193.213 173.104ZM198.609 173.368V175.156H199.821V176.392H198.609V179.104C198.609 179.368 198.669 179.548 198.789 179.668C198.909 179.788 199.089 179.836 199.353 179.836C199.509 179.836 199.665 179.824 199.833 179.788V180.94C199.617 181.036 199.341 181.072 198.981 181.072C198.429 181.072 198.009 180.928 197.697 180.616C197.385 180.304 197.229 179.884 197.229 179.332V176.392H196.149V175.156H196.449C196.737 175.156 196.965 175.072 197.121 174.904C197.265 174.736 197.349 174.52 197.349 174.244V173.368H198.609ZM203.361 183.364H201.873L203.277 180.304L200.781 175.156H202.353L204.033 178.852L205.605 175.156H207.081L203.361 183.364Z" fill="white"/>
<path d="M287 60.9925C287.002 63.0592 286.292 65.0635 284.99 66.6687C283.689 68.274 281.874 69.3823 279.852 69.8075C277.829 70.2326 275.722 69.9488 273.884 69.0037C272.046 68.0586 270.59 66.5097 269.759 64.6173C268.928 62.7248 268.774 60.6042 269.323 58.6116C269.871 56.6191 271.089 54.8759 272.771 53.6751C274.453 52.4743 276.497 51.8889 278.559 52.0174C280.622 52.1459 282.578 52.9803 284.098 54.3806C285.012 55.2226 285.742 56.2448 286.241 57.3828C286.741 58.5207 286.999 59.7498 287 60.9925Z" fill="#6B757E"/>
<path d="M287 60.9924C286.937 62.6896 286.376 64.3308 285.387 65.7115C284.398 67.0922 283.024 68.1515 281.438 68.7573C279.851 69.3632 278.121 69.4889 276.463 69.1188C274.806 68.7487 273.294 67.8992 272.115 66.676C270.937 65.4528 270.144 63.91 269.837 62.2397C269.529 60.5694 269.719 58.8454 270.384 57.2825C271.048 55.7195 272.158 54.3866 273.575 53.4498C274.992 52.513 276.653 52.0136 278.351 52.0139C280.674 52.1008 282.873 53.0848 284.486 54.7591C286.099 56.4333 287 58.6676 287 60.9924Z" fill="#C1C6C8"/>
<path d="M284.098 54.3807L271.404 67.0744C270.972 66.6045 270.59 66.09 270.266 65.5396L282.565 53.2415C283.115 53.5657 283.629 53.9476 284.098 54.3807Z" fill="#C5C5C5" fill-opacity="0.6"/>
<path d="M286.38 57.7083L274.73 69.3582C273.912 69.0366 273.145 68.5962 272.455 68.0513L285.074 55.4331C285.618 56.1233 286.059 56.89 286.38 57.7083Z" fill="#C5C5C5" fill-opacity="0.6"/>
<path d="M284.997 60.9925C285.003 62.8406 284.276 64.6158 282.975 65.9287C281.675 67.2417 279.906 67.9854 278.058 67.9967C276.21 68.0081 274.433 67.2862 273.116 65.9893C271.8 64.6924 271.051 62.9264 271.034 61.0783V60.9925C271.034 59.1409 271.77 57.3651 273.079 56.0558C274.388 54.7465 276.164 54.011 278.016 54.011H278.102C279.939 54.033 281.693 54.7782 282.984 56.085C284.274 57.3919 284.998 59.155 284.998 60.9919L284.997 60.9925Z" fill="#777C81"/>
<path d="M282.953 56.0562L273.081 65.9296C271.789 64.6426 271.055 62.9 271.036 61.0771V60.9913C271.036 59.1398 271.772 57.3641 273.081 56.0548C274.39 54.7456 276.166 54.0099 278.017 54.0098H278.103C279.925 54.0313 281.666 54.7659 282.953 56.0562Z" fill="#94989A"/>
<path d="M279.222 62.2301C279.222 62.7442 279.018 63.1685 278.61 63.5031C278.211 63.8376 277.66 64.0457 276.958 64.1273L276.762 65.9021L275.795 66L275.722 65.9143L275.918 64.1518C275.665 64.1273 275.432 64.0906 275.22 64.0416C275.008 63.9845 274.841 63.9355 274.718 63.8947C274.604 63.8458 274.53 63.8131 274.498 63.7968L274.4 63.6499C274.416 63.552 274.449 63.3399 274.498 63.0135C274.547 62.6789 274.575 62.3566 274.584 62.0465L275.538 61.9731C275.538 62.43 275.612 62.7483 275.759 62.9278C275.914 63.0991 276.187 63.1848 276.579 63.1848C276.872 63.1848 277.105 63.1277 277.276 63.0135C277.448 62.8992 277.533 62.7483 277.533 62.5606C277.533 62.3729 277.435 62.2138 277.24 62.0832C277.052 61.9445 276.75 61.7854 276.334 61.6059L276.065 61.4957C275.567 61.2591 275.179 61.0143 274.902 60.7613C274.624 60.5084 274.486 60.1738 274.486 59.7577C274.486 59.2681 274.677 58.8519 275.061 58.5092C275.453 58.1665 275.971 57.9502 276.615 57.8605L276.799 56.1102L277.778 56L277.852 56.1102L277.656 57.8237C277.901 57.8401 278.125 57.8686 278.329 57.9094C278.541 57.9421 278.704 57.9747 278.819 58.0073C278.941 58.04 279.018 58.0604 279.051 58.0685L279.137 58.2154C279.12 58.3052 279.084 58.5133 279.027 58.8397C278.969 59.1579 278.925 59.4965 278.892 59.8556L278.023 59.929L277.925 59.8556L277.937 59.5863C277.937 59.3252 277.864 59.1375 277.717 59.0233C277.57 58.9009 277.337 58.8397 277.019 58.8397C276.758 58.8397 276.542 58.8968 276.371 59.011C276.207 59.1171 276.126 59.2599 276.126 59.4394C276.126 59.6434 276.232 59.8148 276.444 59.9535C276.656 60.084 276.991 60.2472 277.448 60.4431C278.003 60.6797 278.435 60.9286 278.745 61.1897C279.063 61.4427 279.222 61.7895 279.222 62.2301Z" fill="#4B4B4B"/>
<path d="M280.14 62.2301C280.14 62.7442 279.936 63.1685 279.528 63.5031C279.129 63.8376 278.578 64.0457 277.876 64.1273L277.68 65.9021L276.713 66L276.64 65.9143L276.836 64.1518C276.583 64.1273 276.35 64.0906 276.138 64.0416C275.926 63.9845 275.759 63.9355 275.636 63.8947C275.522 63.8458 275.448 63.8131 275.416 63.7968L275.318 63.6499C275.334 63.552 275.367 63.3399 275.416 63.0135C275.465 62.6789 275.493 62.3566 275.501 62.0465L276.456 61.9731C276.456 62.43 276.53 62.7483 276.677 62.9278C276.832 63.0991 277.105 63.1848 277.497 63.1848C277.79 63.1848 278.023 63.1277 278.194 63.0135C278.366 62.8992 278.451 62.7483 278.451 62.5606C278.451 62.3729 278.353 62.2138 278.158 62.0832C277.97 61.9445 277.668 61.7854 277.252 61.6059L276.982 61.4957C276.485 61.2591 276.097 61.0143 275.82 60.7613C275.542 60.5084 275.404 60.1738 275.404 59.7577C275.404 59.2681 275.595 58.8519 275.979 58.5092C276.371 58.1665 276.889 57.9502 277.533 57.8605L277.717 56.1102L278.696 56L278.77 56.1102L278.574 57.8237C278.818 57.8401 279.043 57.8686 279.247 57.9094C279.459 57.9421 279.622 57.9747 279.736 58.0073C279.859 58.04 279.936 58.0604 279.969 58.0685L280.055 58.2154C280.038 58.3052 280.002 58.5133 279.945 58.8397C279.887 59.1579 279.843 59.4965 279.81 59.8556L278.941 59.929L278.843 59.8556L278.855 59.5863C278.855 59.3252 278.782 59.1375 278.635 59.0233C278.488 58.9009 278.255 58.8397 277.937 58.8397C277.676 58.8397 277.46 58.8968 277.288 59.011C277.125 59.1171 277.044 59.2599 277.044 59.4394C277.044 59.6434 277.15 59.8148 277.362 59.9535C277.574 60.084 277.909 60.2472 278.366 60.4431C278.92 60.6797 279.353 60.9286 279.663 61.1897C279.981 61.4427 280.14 61.7895 280.14 62.2301Z" fill="#F4F4F4"/>
<path d="M284.997 60.9925C284.997 61.9094 284.816 62.8173 284.465 63.6643C284.115 64.5114 283.6 65.2811 282.952 65.9294C282.304 66.5777 281.534 67.092 280.687 67.4429C279.84 67.7938 278.932 67.9744 278.015 67.9744C277.883 67.9744 277.751 67.9707 277.621 67.9634C279.402 67.863 281.076 67.0848 282.302 65.7885C283.527 64.4923 284.209 62.7763 284.209 60.9927C284.209 59.2091 283.527 57.4931 282.302 56.1968C281.076 54.9006 279.402 54.1224 277.621 54.0219C277.751 54.0146 277.883 54.011 278.015 54.011C279.867 54.011 281.643 54.7465 282.952 56.0558C284.261 57.3651 284.997 59.1409 284.997 60.9925Z" fill="#646363"/>
<path d="M298 60.9925C298.002 63.0592 297.292 65.0635 295.99 66.6687C294.689 68.274 292.874 69.3823 290.852 69.8075C288.829 70.2326 286.722 69.9488 284.884 69.0037C283.046 68.0586 281.59 66.5097 280.759 64.6173C279.928 62.7248 279.774 60.6042 280.323 58.6116C280.871 56.6191 282.089 54.8759 283.771 53.6751C285.453 52.4743 287.497 51.8889 289.559 52.0174C291.622 52.1459 293.578 52.9803 295.098 54.3806C296.012 55.2226 296.742 56.2448 297.241 57.3828C297.741 58.5207 297.999 59.7498 298 60.9925Z" fill="#6B757E"/>
<path d="M298 60.9924C297.937 62.6896 297.376 64.3308 296.387 65.7115C295.398 67.0922 294.024 68.1515 292.438 68.7573C290.851 69.3632 289.121 69.4889 287.463 69.1188C285.806 68.7487 284.294 67.8992 283.115 66.676C281.937 65.4528 281.144 63.91 280.837 62.2397C280.529 60.5694 280.719 58.8454 281.384 57.2825C282.048 55.7195 283.158 54.3866 284.575 53.4498C285.992 52.513 287.653 52.0136 289.351 52.0139C291.674 52.1008 293.873 53.0848 295.486 54.7591C297.099 56.4333 298 58.6676 298 60.9924Z" fill="#C1C6C8"/>
<path d="M295.098 54.3807L282.404 67.0744C281.972 66.6045 281.59 66.09 281.266 65.5396L293.565 53.2415C294.115 53.5657 294.629 53.9476 295.098 54.3807Z" fill="#C5C5C5" fill-opacity="0.6"/>
<path d="M297.38 57.7083L285.73 69.3582C284.912 69.0366 284.145 68.5962 283.455 68.0513L296.074 55.4331C296.618 56.1233 297.059 56.89 297.38 57.7083Z" fill="#C5C5C5" fill-opacity="0.6"/>
<path d="M295.997 60.9925C296.003 62.8406 295.276 64.6158 293.975 65.9287C292.675 67.2417 290.906 67.9854 289.058 67.9967C287.21 68.0081 285.433 67.2862 284.116 65.9893C282.8 64.6924 282.051 62.9264 282.034 61.0783V60.9925C282.034 59.1409 282.77 57.3651 284.079 56.0558C285.388 54.7465 287.164 54.011 289.016 54.011H289.102C290.939 54.033 292.693 54.7782 293.984 56.085C295.274 57.3919 295.998 59.155 295.998 60.9919L295.997 60.9925Z" fill="#777C81"/>
<path d="M293.953 56.0562L284.081 65.9296C282.789 64.6426 282.055 62.9 282.036 61.0771V60.9913C282.036 59.1398 282.772 57.3641 284.081 56.0548C285.39 54.7456 287.166 54.0099 289.017 54.0098H289.103C290.925 54.0313 292.666 54.7659 293.953 56.0562Z" fill="#94989A"/>
<path d="M295.997 60.9925C295.997 61.9094 295.816 62.8173 295.465 63.6643C295.115 64.5114 294.6 65.2811 293.952 65.9294C293.304 66.5777 292.534 67.092 291.687 67.4429C290.84 67.7938 289.932 67.9744 289.015 67.9744C288.883 67.9744 288.751 67.9707 288.621 67.9634C290.402 67.863 292.076 67.0848 293.302 65.7885C294.527 64.4923 295.209 62.7763 295.209 60.9927C295.209 59.2091 294.527 57.4931 293.302 56.1968C292.076 54.9006 290.402 54.1224 288.621 54.0219C288.751 54.0146 288.883 54.011 289.015 54.011C290.867 54.011 292.643 54.7465 293.952 56.0558C295.261 57.3651 295.997 59.1409 295.997 60.9925Z" fill="#646363"/>
<path d="M285.142 58.7441C285.156 58.759 285.182 58.7727 285.184 58.789C285.202 58.9482 285.302 59.055 285.422 59.1405C286.532 59.9255 287.643 60.71 288.756 61.4892C289.026 61.6775 289.239 61.6666 289.504 61.4799C290.111 61.0535 290.717 60.6263 291.323 60.198C291.666 59.9552 291.916 59.6394 292.047 59.2396C292.093 59.1001 292.11 58.9515 292.13 58.8603C292.13 59.2086 292.155 59.6124 292.123 60.0116C292.083 60.5036 291.835 60.9094 291.439 61.2016C290.779 61.6883 290.107 62.1577 289.433 62.6262C289.215 62.7785 288.983 62.7386 288.768 62.5994C288.548 62.4566 288.33 62.3109 288.116 62.1593C287.23 61.5314 286.346 60.9004 285.461 60.2715C285.309 60.1637 285.189 60.0364 285.162 59.8438C285.163 59.5308 285.164 59.2179 285.163 58.905C285.163 58.8812 285.149 58.8574 285.142 58.8337C285.142 58.8039 285.142 58.7741 285.142 58.7441Z" fill="#4B4B4B"/>
<path d="M285.142 61.2061C285.156 61.2154 285.181 61.2235 285.182 61.2342C285.201 61.4117 285.321 61.5188 285.453 61.615C285.962 61.985 286.468 62.3587 286.982 62.7209C287.551 63.1219 288.128 63.5125 288.703 63.9063C289.032 64.1318 289.215 64.1328 289.543 63.9029C290.127 63.4953 290.706 63.0825 291.289 62.6743C291.636 62.431 291.899 62.1222 292.036 61.7196C292.087 61.5701 292.107 61.4106 292.162 61.2553C292.147 61.6886 292.16 62.1252 292.109 62.5543C292.055 63.0142 291.801 63.3896 291.429 63.6629C290.775 64.1437 290.108 64.6083 289.442 65.0738C289.208 65.2369 288.97 65.1884 288.748 65.0403C288.458 64.8473 288.169 64.6531 287.885 64.4517C287.066 63.8709 286.251 63.2863 285.434 62.7032C285.288 62.599 285.184 62.4682 285.161 62.2847C285.162 61.9676 285.163 61.6505 285.163 61.3335C285.163 61.3134 285.149 61.2934 285.142 61.2733C285.142 61.2508 285.142 61.2284 285.142 61.2061Z" fill="#4B4B4B"/>
<path d="M286.763 58.6272C286.782 58.6056 286.791 58.5889 286.806 58.5789C287.159 58.3326 287.506 58.0766 287.868 57.8442C288.243 57.6036 288.657 57.4624 289.11 57.4631C289.532 57.4638 289.915 57.5974 290.262 57.8282C290.429 57.9398 290.592 58.063 290.741 58.1983C290.981 58.4169 291.006 58.8064 290.815 59.0682C290.772 59.1267 290.728 59.1305 290.671 59.0932C290.593 59.0413 290.516 58.9885 290.437 58.9387C289.636 58.4368 288.834 58.4422 288.033 58.9394C287.906 59.0185 287.78 59.0996 287.65 59.1745C287.624 59.1896 287.575 59.1955 287.552 59.1808C287.302 59.0156 287.056 58.8459 286.808 58.6765C286.794 58.6664 286.783 58.6498 286.763 58.6272Z" fill="#4B4B4B"/>
<path d="M285.463 58.4226C285.478 58.4375 285.503 58.4512 285.505 58.4675C285.523 58.6266 285.623 58.7335 285.744 58.8189C286.854 59.6039 287.964 60.3885 289.078 61.1677C289.347 61.3559 289.56 61.345 289.826 61.1584C290.432 60.732 291.039 60.3047 291.644 59.8765C291.987 59.6336 292.237 59.3179 292.368 58.9181C292.414 58.7786 292.432 58.63 292.451 58.5388C292.451 58.8871 292.477 59.2909 292.444 59.69C292.404 60.1821 292.156 60.5878 291.76 60.88C291.101 61.3668 290.428 61.8361 289.755 62.3046C289.536 62.457 289.304 62.4171 289.09 62.2779C288.87 62.1351 288.652 61.9893 288.438 61.8378C287.552 61.2099 286.668 60.5789 285.782 59.9499C285.63 59.8422 285.511 59.7149 285.484 59.5223C285.484 59.2093 285.485 58.8964 285.485 58.5835C285.485 58.5597 285.471 58.5359 285.463 58.5122C285.463 58.4824 285.463 58.4525 285.463 58.4226Z" fill="#FAFEFF"/>
<path d="M285.463 60.8848C285.477 60.8941 285.502 60.9023 285.503 60.9129C285.523 61.0904 285.642 61.1975 285.774 61.2937C286.283 61.6637 286.789 62.0374 287.303 62.3996C287.873 62.8006 288.45 63.1912 289.024 63.585C289.353 63.8105 289.536 63.8115 289.865 63.5816C290.448 63.174 291.027 62.7612 291.61 62.353C291.958 62.1097 292.221 61.8009 292.357 61.3983C292.408 61.2488 292.429 61.0893 292.483 60.934C292.468 61.3673 292.481 61.8039 292.431 62.233C292.376 62.6929 292.123 63.0683 291.751 63.3416C291.096 63.8224 290.429 64.287 289.763 64.7525C289.53 64.9156 289.292 64.8671 289.069 64.719C288.779 64.526 288.49 64.3318 288.206 64.1304C287.388 63.5496 286.572 62.965 285.755 62.3819C285.609 62.2777 285.505 62.1469 285.482 61.9634C285.483 61.6463 285.485 61.3293 285.484 61.0122C285.484 60.9921 285.471 60.9721 285.463 60.9521C285.463 60.9295 285.463 60.9071 285.463 60.8848Z" fill="#FAFEFF"/>
<path d="M287.084 58.3059C287.103 58.2843 287.113 58.2678 287.127 58.2578C287.481 58.0114 287.827 57.7554 288.19 57.5229C288.565 57.2824 288.978 57.1411 289.431 57.1418C289.853 57.1425 290.236 57.2761 290.583 57.5069C290.751 57.6185 290.913 57.7417 291.062 57.877C291.303 58.0957 291.328 58.4851 291.136 58.7469C291.094 58.8054 291.049 58.8092 290.993 58.7719C290.915 58.72 290.838 58.6672 290.758 58.6174C289.957 58.1155 289.156 58.1209 288.355 58.6181C288.228 58.6972 288.102 58.7783 287.972 58.8532C287.946 58.8683 287.896 58.8742 287.874 58.8595C287.624 58.6944 287.377 58.5247 287.13 58.3553C287.115 58.3452 287.105 58.3285 287.084 58.3059Z" fill="#FAFEFF"/>
<path d="M85 51H63C61.8954 51 61 51.8954 61 53V54C61 55.1046 61.8954 56 63 56H85C86.1046 56 87 55.1046 87 54V53C87 51.8954 86.1046 51 85 51Z" fill="#404040"/>
<path d="M85 67H63C61.8954 67 61 67.8954 61 69V70C61 71.1046 61.8954 72 63 72H85C86.1046 72 87 71.1046 87 70V69C87 67.8954 86.1046 67 85 67Z" fill="#404040"/>
<defs>
<linearGradient id="paint0_linear_305_1910" x1="177" y1="68.5001" x2="182" y2="184.5" gradientUnits="userSpaceOnUse">
<stop stop-color="#1E1E1E"/>
<stop offset="1" stop-color="#343434" stop-opacity="0"/>
</linearGradient>
</defs>
</svg>
