<svg width="361" height="210" viewBox="0 0 361 210" fill="none" xmlns="http://www.w3.org/2000/svg">
<mask id="mask0_305_1748" style="mask-type:luminance" maskUnits="userSpaceOnUse" x="0" y="0" width="361" height="210">
<path d="M360.5 0H0.5V210H360.5V0Z" fill="white"/>
</mask>
<g mask="url(#mask0_305_1748)">
<path d="M312.5 19H159.5C158.119 19 157 20.1193 157 21.5C157 22.8807 158.119 24 159.5 24H312.5C313.881 24 315 22.8807 315 21.5C315 20.1193 313.881 19 312.5 19Z" fill="#ECEEF0"/>
<path d="M275.5 19H159.5C158.119 19 157 20.1193 157 21.5C157 22.8807 158.119 24 159.5 24H275.5C276.881 24 278 22.8807 278 21.5C278 20.1193 276.881 19 275.5 19Z" fill="#3FCF8E"/>
</g>
<path d="M115.482 23.8434H114.473V16.0752H115.482V23.8434Z" fill="#7A7A7A"/>
<path d="M110.543 23.103C110.994 23.103 111.369 22.9421 111.681 22.6202C111.992 22.2983 112.153 21.8369 112.153 21.2575C112.153 20.6889 111.992 20.2382 111.681 19.9163C111.369 19.5944 110.994 19.4228 110.543 19.4228C110.093 19.4228 109.706 19.5944 109.395 19.9163C109.084 20.2382 108.934 20.6889 108.934 21.2575C108.934 21.8369 109.084 22.2983 109.395 22.6202C109.706 22.9421 110.093 23.103 110.543 23.103ZM110.543 18.5215C111.305 18.5215 111.938 18.7897 112.432 19.3047C112.925 19.8198 113.183 20.4743 113.183 21.2575C113.183 22.0515 112.936 22.7168 112.442 23.2318C111.949 23.7468 111.316 24.0043 110.543 24.0043C109.771 24.0043 109.138 23.7468 108.644 23.2318C108.151 22.7168 107.904 22.0515 107.904 21.2575C107.904 20.4743 108.151 19.8198 108.644 19.3047C109.138 18.7897 109.771 18.5215 110.543 18.5215Z" fill="#7A7A7A"/>
<path d="M104.403 23.103C104.854 23.103 105.229 22.9421 105.54 22.6202C105.851 22.2983 106.012 21.8369 106.012 21.2575C106.012 20.6889 105.851 20.2382 105.54 19.9163C105.229 19.5944 104.854 19.4228 104.403 19.4228C103.952 19.4228 103.566 19.5944 103.255 19.9163C102.944 20.2382 102.793 20.6889 102.793 21.2575C102.793 21.8369 102.944 22.2983 103.255 22.6202C103.566 22.9421 103.952 23.103 104.403 23.103ZM104.403 18.5215C105.165 18.5215 105.798 18.7897 106.291 19.3047C106.785 19.8198 107.042 20.4743 107.042 21.2575C107.042 22.0515 106.796 22.7168 106.302 23.2318C105.808 23.7468 105.175 24.0043 104.403 24.0043C103.63 24.0043 102.997 23.7468 102.504 23.2318C102.01 22.7168 101.763 22.0515 101.763 21.2575C101.763 20.4743 102.01 19.8198 102.504 19.3047C102.997 18.7897 103.63 18.5215 104.403 18.5215Z" fill="#7A7A7A"/>
<path d="M97.3789 19.7876H98.9025C99.3531 19.7876 99.7072 19.6803 99.9755 19.4442C100.233 19.2082 100.372 18.897 100.372 18.5C100.372 18.103 100.233 17.7811 99.9755 17.5451C99.7072 17.309 99.3531 17.1803 98.9025 17.1803H97.3789V19.7876ZM99.0956 20.7318H97.3789V23.8434H96.3274V16.2361H99.0956C99.7823 16.2361 100.351 16.4507 100.791 16.8799C101.22 17.309 101.445 17.8455 101.445 18.4893C101.445 19.1438 101.22 19.6803 100.791 20.0987C100.351 20.5279 99.7823 20.7318 99.0956 20.7318Z" fill="#7A7A7A"/>
<path d="M89.209 26H88.1039L89.3914 23.2746L87.1704 18.6824H88.3292L89.9387 22.2446L91.4837 18.6824H92.5674L89.209 26Z" fill="#7A7A7A"/>
<path d="M85.4068 17.0515V18.6824H86.5227V19.5944H85.4068V22.2768C85.4068 22.5236 85.4605 22.706 85.5678 22.8133C85.6751 22.9313 85.8682 22.985 86.1257 22.985C86.2759 22.985 86.4047 22.9743 86.5227 22.9421V23.8004C86.351 23.8648 86.115 23.897 85.836 23.897C85.3854 23.897 85.042 23.7683 84.7845 23.5107C84.527 23.2532 84.3983 22.8992 84.3983 22.4271V19.5944H83.4111V18.6824H83.6901C83.9476 18.6824 84.1515 18.618 84.2802 18.4678C84.409 18.3176 84.4841 18.1245 84.4841 17.8884V17.0515H85.4068Z" fill="#7A7A7A"/>
<path d="M82.3391 23.8433H81.3413V18.6824H82.3391V23.8433ZM81.116 16.7296C81.116 16.5365 81.1803 16.3648 81.3198 16.2146C81.4593 16.0751 81.631 16 81.8349 16C82.028 16 82.1997 16.0751 82.3499 16.2146C82.4894 16.3541 82.5645 16.5258 82.5645 16.7296C82.5645 16.9335 82.4894 17.1052 82.3499 17.2446C82.1997 17.3841 82.028 17.4485 81.8349 17.4485C81.631 17.4485 81.4593 17.3841 81.3198 17.2446C81.1803 17.1052 81.116 16.9335 81.116 16.7296Z" fill="#7A7A7A"/>
<path d="M75.6343 21.2469C75.6343 21.7941 75.763 22.234 76.0313 22.5773C76.2995 22.9207 76.6751 23.0924 77.1472 23.0924C77.5978 23.0924 77.9519 22.9207 78.2309 22.5666C78.4991 22.2233 78.6386 21.7726 78.6386 21.2254C78.6386 20.6889 78.4991 20.2597 78.2416 19.9271C77.9733 19.6052 77.6085 19.4336 77.1579 19.4336C76.6965 19.4336 76.3317 19.6052 76.0527 19.9379C75.7738 20.2812 75.6343 20.7104 75.6343 21.2469ZM78.6493 23.146V23.0602C78.5098 23.3284 78.306 23.5537 78.027 23.7254C77.748 23.8971 77.4261 23.9829 77.0506 23.9829C76.3103 23.9829 75.7201 23.7254 75.2695 23.2104C74.8188 22.6954 74.6042 22.0409 74.6042 21.2469C74.6042 20.4958 74.8296 19.8627 75.2909 19.337C75.7416 18.8112 76.3317 18.543 77.0506 18.543C77.4691 18.543 77.8124 18.6288 78.0806 18.8005C78.3382 18.9722 78.5206 19.1761 78.6279 19.4121V16.0752H79.6257V22.8885C79.6257 23.2426 79.6364 23.5645 79.6794 23.8434H78.703C78.66 23.6503 78.6493 23.4143 78.6493 23.146Z" fill="#7A7A7A"/>
<path d="M73.3174 23.8433H72.3196V18.6824H73.3174V23.8433ZM72.0942 16.7296C72.0942 16.5365 72.1586 16.3648 72.2981 16.2146C72.4376 16.0751 72.6093 16 72.8131 16C73.0063 16 73.1779 16.0751 73.3281 16.2146C73.4676 16.3541 73.5427 16.5258 73.5427 16.7296C73.5427 16.9335 73.4676 17.1052 73.3281 17.2446C73.1779 17.3841 73.0063 17.4485 72.8131 17.4485C72.6093 17.4485 72.4376 17.3841 72.2981 17.2446C72.1586 17.1052 72.0942 16.9335 72.0942 16.7296Z" fill="#7A7A7A"/>
<path d="M69.6434 23.221C69.5039 23.4785 69.3001 23.6824 69.0211 23.8111C68.7421 23.9399 68.4417 24.0043 68.1198 24.0043C67.5297 24.0043 67.0576 23.8111 66.7142 23.4249C66.3602 23.0386 66.1885 22.5343 66.1885 21.9334V18.6824H67.1971V21.7832C67.1971 22.1695 67.2829 22.4914 67.476 22.7382C67.6692 22.9957 67.9589 23.1137 68.3666 23.1137C68.7636 23.1137 69.064 22.9957 69.2786 22.7596C69.4825 22.5236 69.5898 22.2017 69.5898 21.794V18.6824H70.5983V22.8884C70.5983 23.2317 70.6091 23.5429 70.652 23.8433H69.6863C69.6541 23.6931 69.6434 23.4785 69.6434 23.221Z" fill="#7A7A7A"/>
<path d="M64.6323 25.8818H63.6344V23.1136C63.4949 23.3818 63.2803 23.5964 63.0014 23.7466C62.7224 23.9075 62.3898 23.9827 62.025 23.9827C61.2954 23.9827 60.7052 23.7251 60.2546 23.1994C59.8039 22.6736 59.5786 22.0191 59.5786 21.2466C59.5786 20.4955 59.7932 19.8518 60.2331 19.3367C60.673 18.8217 61.2632 18.5535 62.0035 18.5535C62.4112 18.5535 62.7653 18.65 63.0443 18.8217C63.3232 19.0041 63.5271 19.2187 63.6559 19.4762V18.6822H64.6323V25.8818ZM60.6087 21.2466C60.6087 21.7831 60.7374 22.2337 61.0164 22.5771C61.2954 22.9204 61.6602 23.0921 62.1215 23.0921C62.5722 23.0921 62.937 22.9204 63.216 22.5771C63.4949 22.2337 63.6451 21.7831 63.6451 21.2466C63.6451 20.7101 63.5057 20.2809 63.2267 19.9483C62.9477 19.6157 62.5722 19.444 62.1215 19.444C61.6494 19.444 61.2846 19.6157 61.0164 19.9483C60.7374 20.2809 60.6087 20.7101 60.6087 21.2466Z" fill="#7A7A7A"/>
<path d="M58.2918 23.8433H57.2939V18.6824H58.2918V23.8433ZM57.0686 16.7296C57.0686 16.5365 57.133 16.3648 57.2725 16.2146C57.412 16.0751 57.5836 16 57.7875 16C57.9806 16 58.1523 16.0751 58.3025 16.2146C58.442 16.3541 58.5171 16.5258 58.5171 16.7296C58.5171 16.9335 58.442 17.1052 58.3025 17.2446C58.1523 17.3841 57.9806 17.4485 57.7875 17.4485C57.5836 17.4485 57.412 17.3841 57.2725 17.2446C57.133 17.1052 57.0686 16.9335 57.0686 16.7296Z" fill="#7A7A7A"/>
<path d="M56.1689 23.8434H51.5229V16.2361H52.5745V22.8563H56.1689V23.8434Z" fill="#7A7A7A"/>
<path d="M113.963 97.3611H112.946L114.131 94.8537L112.087 90.6287H113.153L114.634 93.906L116.056 90.6287H117.053L113.963 97.3611Z" fill="#7A7A7A"/>
<path d="M110.465 89.1282V90.6287H111.491V91.4678H110.465V93.9357C110.465 94.1627 110.514 94.3305 110.613 94.4293C110.712 94.5378 110.889 94.5872 111.126 94.5872C111.264 94.5872 111.383 94.5773 111.491 94.5477V95.3374C111.333 95.3967 111.116 95.4263 110.86 95.4263C110.445 95.4263 110.129 95.3078 109.892 95.0709C109.655 94.834 109.537 94.5082 109.537 94.0739V91.4678H108.629V90.6287H108.885C109.122 90.6287 109.31 90.5694 109.428 90.4312C109.547 90.293 109.616 90.1153 109.616 89.8982V89.1282H110.465Z" fill="#7A7A7A"/>
<path d="M107.642 95.3768H106.724V90.6286H107.642V95.3768ZM106.517 88.8319C106.517 88.6542 106.576 88.4963 106.704 88.3581C106.833 88.2297 106.991 88.1606 107.178 88.1606C107.356 88.1606 107.514 88.2297 107.652 88.3581C107.78 88.4864 107.85 88.6444 107.85 88.8319C107.85 89.0195 107.78 89.1774 107.652 89.3058C107.514 89.4341 107.356 89.4933 107.178 89.4933C106.991 89.4933 106.833 89.4341 106.704 89.3058C106.576 89.1774 106.517 89.0195 106.517 88.8319Z" fill="#7A7A7A"/>
<path d="M101.474 92.9879C101.474 93.4913 101.592 93.8961 101.839 94.212C102.086 94.5278 102.431 94.6858 102.865 94.6858C103.28 94.6858 103.606 94.5278 103.862 94.2021C104.109 93.8862 104.238 93.4716 104.238 92.9681C104.238 92.4745 104.109 92.0797 103.872 91.7737C103.626 91.4775 103.29 91.3196 102.875 91.3196C102.451 91.3196 102.115 91.4775 101.859 91.7835C101.602 92.0994 101.474 92.4943 101.474 92.9879ZM104.247 94.7352V94.6562C104.119 94.903 103.932 95.1103 103.675 95.2682C103.418 95.4262 103.122 95.5051 102.777 95.5051C102.095 95.5051 101.553 95.2682 101.138 94.7944C100.723 94.3205 100.526 93.7184 100.526 92.9879C100.526 92.2969 100.733 91.7144 101.158 91.2307C101.572 90.747 102.115 90.5002 102.777 90.5002C103.162 90.5002 103.478 90.5792 103.724 90.7371C103.961 90.8951 104.129 91.0826 104.228 91.2998V88.2297H105.146V94.4982C105.146 94.824 105.156 95.1201 105.195 95.3768H104.297C104.257 95.1991 104.247 94.9819 104.247 94.7352Z" fill="#7A7A7A"/>
<path d="M99.3419 95.3768H98.4239V90.6286H99.3419V95.3768ZM98.2166 88.8319C98.2166 88.6542 98.2758 88.4963 98.4041 88.3581C98.5324 88.2297 98.6904 88.1606 98.878 88.1606C99.0556 88.1606 99.2136 88.2297 99.3518 88.3581C99.4801 88.4864 99.5492 88.6444 99.5492 88.8319C99.5492 89.0195 99.4801 89.1774 99.3518 89.3058C99.2136 89.4341 99.0556 89.4933 98.878 89.4933C98.6904 89.4933 98.5324 89.4341 98.4041 89.3058C98.2758 89.1774 98.2166 89.0195 98.2166 88.8319Z" fill="#7A7A7A"/>
<path d="M95.9619 94.8044C95.8335 95.0413 95.646 95.2289 95.3893 95.3473C95.1327 95.4658 94.8563 95.525 94.5601 95.525C94.0172 95.525 93.5828 95.3473 93.2669 94.9919C92.9412 94.6366 92.7832 94.1726 92.7832 93.6198V90.6287H93.7111V93.4816C93.7111 93.8369 93.7901 94.1331 93.9678 94.3601C94.1455 94.5971 94.412 94.7057 94.7872 94.7057C95.1524 94.7057 95.4288 94.5971 95.6262 94.3799C95.8138 94.1627 95.9125 93.8666 95.9125 93.4914V90.6287H96.8405V94.4983C96.8405 94.8142 96.8503 95.1005 96.8898 95.3769H96.0014C95.9717 95.2387 95.9619 95.0413 95.9619 94.8044Z" fill="#7A7A7A"/>
<path d="M91.3512 97.2523H90.4331V94.7055C90.3048 94.9523 90.1074 95.1497 89.8507 95.2879C89.5941 95.436 89.288 95.5051 88.9524 95.5051C88.2811 95.5051 87.7382 95.2681 87.3236 94.7844C86.909 94.3007 86.7017 93.6986 86.7017 92.9878C86.7017 92.2968 86.8991 91.7045 87.3038 91.2306C87.7086 90.7568 88.2515 90.51 88.9327 90.51C89.3078 90.51 89.6335 90.5989 89.8902 90.7568C90.1469 90.9246 90.3344 91.1221 90.4529 91.359V90.6285H91.3512V97.2523ZM87.6493 92.9878C87.6493 93.4814 87.7678 93.896 88.0245 94.2119C88.2811 94.5278 88.6168 94.6857 89.0412 94.6857C89.4558 94.6857 89.7915 94.5278 90.0481 94.2119C90.3048 93.896 90.443 93.4814 90.443 92.9878C90.443 92.4942 90.3147 92.0993 90.058 91.7933C89.8014 91.4873 89.4558 91.3294 89.0412 91.3294C88.6069 91.3294 88.2713 91.4873 88.0245 91.7933C87.7678 92.0993 87.6493 92.4942 87.6493 92.9878Z" fill="#7A7A7A"/>
<path d="M85.5177 95.3768H84.5996V90.6286H85.5177V95.3768ZM84.3923 88.8319C84.3923 88.6542 84.4516 88.4963 84.5799 88.3581C84.7082 88.2297 84.8662 88.1606 85.0537 88.1606C85.2314 88.1606 85.3894 88.2297 85.5276 88.3581C85.6559 88.4864 85.725 88.6444 85.725 88.8319C85.725 89.0195 85.6559 89.1774 85.5276 89.3058C85.3894 89.4341 85.2314 89.4933 85.0537 89.4933C84.8662 89.4933 84.7082 89.4341 84.5799 89.3058C84.4516 89.1774 84.3923 89.0195 84.3923 88.8319Z" fill="#7A7A7A"/>
<path d="M83.5645 95.3769H79.29V88.3779H80.2575V94.4687H83.5645V95.3769Z" fill="#7A7A7A"/>
<path d="M75.7346 90.5792V91.5663C75.5964 91.5466 75.4582 91.5367 75.3299 91.5367C74.4612 91.5367 74.0268 92.0303 74.0268 92.9977V95.3768H73.0989V90.6285H74.0071V91.4578C74.2933 90.8556 74.7672 90.5496 75.4286 90.5496C75.5273 90.5496 75.6359 90.5594 75.7346 90.5792Z" fill="#7A7A7A"/>
<path d="M70.6367 94.8044C70.5083 95.0413 70.3208 95.2289 70.0641 95.3473C69.8075 95.4658 69.5311 95.525 69.2349 95.525C68.692 95.525 68.2576 95.3473 67.9417 94.9919C67.616 94.6366 67.458 94.1726 67.458 93.6198V90.6287H68.3859V93.4816C68.3859 93.8369 68.4649 94.1331 68.6426 94.3601C68.8203 94.5971 69.0868 94.7057 69.462 94.7057C69.8272 94.7057 70.1036 94.5971 70.301 94.3799C70.4886 94.1627 70.5873 93.8666 70.5873 93.4914V90.6287H71.5153V94.4983C71.5153 94.8142 71.5251 95.1005 71.5646 95.3769H70.6762C70.6466 95.2387 70.6367 95.0413 70.6367 94.8044Z" fill="#7A7A7A"/>
<path d="M63.9399 94.6957C64.3545 94.6957 64.7 94.5476 64.9863 94.2514C65.2726 93.9553 65.4206 93.5308 65.4206 92.9977C65.4206 92.4745 65.2726 92.0599 64.9863 91.7638C64.7 91.4676 64.3545 91.3097 63.9399 91.3097C63.5253 91.3097 63.1699 91.4676 62.8836 91.7638C62.5974 92.0599 62.4592 92.4745 62.4592 92.9977C62.4592 93.5308 62.5974 93.9553 62.8836 94.2514C63.1699 94.5476 63.5253 94.6957 63.9399 94.6957ZM63.9399 90.4805C64.6408 90.4805 65.2232 90.7273 65.6773 91.2011C66.1314 91.6749 66.3683 92.2771 66.3683 92.9977C66.3683 93.7282 66.1413 94.3403 65.6872 94.8141C65.2331 95.288 64.6507 95.5249 63.9399 95.5249C63.2291 95.5249 62.6467 95.288 62.1926 94.8141C61.7385 94.3403 61.5115 93.7282 61.5115 92.9977C61.5115 92.2771 61.7385 91.6749 62.1926 91.2011C62.6467 90.7273 63.2291 90.4805 63.9399 90.4805Z" fill="#7A7A7A"/>
<path d="M58.4679 92.3858L56 88.3779H57.1649L58.9812 91.4974L60.7976 88.3779H61.9032L59.4353 92.3858V95.3769H58.4679V92.3858Z" fill="#7A7A7A"/>
<path d="M307.699 89.3196L306.594 89.1843C306.582 89.1166 306.582 89.0263 306.582 88.8909C306.582 88.2366 306.808 87.6838 307.271 87.2212C307.722 86.7586 308.342 86.5217 309.11 86.5217C309.865 86.5217 310.463 86.7474 310.915 87.1761C311.355 87.6048 311.58 88.135 311.58 88.7668C311.58 89.6919 311.118 90.4478 310.204 91.0232L308.76 91.9483C308.241 92.2868 307.936 92.6252 307.869 92.975H311.625V94.0016H306.503C306.515 93.3924 306.65 92.8509 306.921 92.377C307.192 91.9145 307.632 91.4858 308.241 91.0909L309.459 90.3012C310.125 89.8724 310.463 89.3648 310.463 88.7781C310.463 88.4171 310.339 88.1125 310.102 87.8643C309.854 87.6161 309.516 87.492 309.087 87.492C308.624 87.492 308.275 87.6386 308.038 87.9094C307.79 88.1914 307.677 88.5525 307.677 88.9925C307.677 89.0602 307.677 89.173 307.699 89.3196Z" fill="white"/>
<path d="M305.213 94.0016H304.13V88.8458H302.358V88.0673C302.855 88.0673 303.272 87.9319 303.611 87.6837C303.949 87.4355 304.152 87.0971 304.242 86.6909H305.213V94.0016Z" fill="white"/>
<path d="M300.343 93.2796C300.343 93.0765 300.422 92.9073 300.58 92.7493C300.738 92.6027 300.93 92.5237 301.167 92.5237C301.415 92.5237 301.629 92.6252 301.81 92.8057C301.99 92.9975 302.08 93.257 302.08 93.5955C302.08 94.2724 301.9 94.8026 301.561 95.1636C301.212 95.5359 300.828 95.7503 300.411 95.7954V95.2088C300.681 95.1524 300.896 95.0057 301.076 94.7688C301.246 94.5319 301.336 94.2724 301.347 93.9903C301.291 94.0355 301.212 94.0467 301.099 94.0467C300.873 94.0467 300.693 93.979 300.557 93.8437C300.411 93.7083 300.343 93.5165 300.343 93.2796Z" fill="white"/>
<path d="M293.877 92.016L294.938 91.7001C294.961 92.1514 295.13 92.5237 295.434 92.7944C295.739 93.0765 296.123 93.2118 296.585 93.2118C297.025 93.2118 297.397 93.0765 297.702 92.8057C297.995 92.5349 298.153 92.1852 298.153 91.7339C298.153 91.2601 297.995 90.8878 297.702 90.617C297.397 90.3575 297.025 90.2221 296.574 90.2221C296.021 90.2221 295.581 90.4027 295.243 90.7524C295.13 90.7186 294.961 90.6509 294.724 90.5493C294.475 90.4591 294.295 90.3801 294.159 90.3237L295.107 86.6909H298.966V87.7063H295.84L295.299 89.8047C295.615 89.4437 296.111 89.2632 296.788 89.2632C297.51 89.2632 298.108 89.4888 298.571 89.9175C299.033 90.3575 299.27 90.9442 299.27 91.6888C299.27 92.3996 299.022 92.9975 298.526 93.4713C298.029 93.9452 297.375 94.1821 296.585 94.1821C295.829 94.1821 295.197 93.979 294.701 93.5503C294.205 93.1329 293.923 92.6252 293.877 92.016Z" fill="white"/>
<path d="M290.328 89.8048C290.712 89.8048 291.039 89.6919 291.299 89.4663C291.547 89.2519 291.682 88.9699 291.682 88.6089C291.682 88.2817 291.558 87.9997 291.31 87.774C291.062 87.5484 290.735 87.4356 290.328 87.4356C289.922 87.4356 289.595 87.5484 289.347 87.774C289.099 87.9997 288.975 88.2817 288.975 88.6089C288.975 88.9699 289.099 89.2519 289.358 89.4663C289.606 89.6919 289.934 89.8048 290.328 89.8048ZM290.328 93.2119C290.802 93.2119 291.175 93.0991 291.445 92.8621C291.716 92.6365 291.863 92.3432 291.863 91.9822C291.863 91.6211 291.716 91.3278 291.445 91.0909C291.175 90.854 290.802 90.7299 290.328 90.7299C289.855 90.7299 289.471 90.854 289.2 91.0909C288.93 91.3278 288.794 91.6211 288.794 91.9822C288.794 92.3432 288.93 92.6365 289.2 92.8621C289.471 93.0991 289.855 93.2119 290.328 93.2119ZM290.328 94.1708C289.505 94.1708 288.862 93.9791 288.388 93.5842C287.914 93.1893 287.677 92.6816 287.677 92.0724C287.677 91.6437 287.801 91.2714 288.061 90.9555C288.32 90.6396 288.659 90.4027 289.065 90.2673C288.715 90.1432 288.433 89.9289 288.207 89.613C287.982 89.2971 287.869 88.9473 287.869 88.5525C287.869 87.9658 288.095 87.4807 288.569 87.0971C289.031 86.7135 289.618 86.5217 290.328 86.5217C291.028 86.5217 291.615 86.7135 292.088 87.0971C292.551 87.4807 292.788 87.9658 292.788 88.5525C292.788 88.9361 292.675 89.2858 292.449 89.6017C292.224 89.9176 291.931 90.1432 291.592 90.2673C291.998 90.4027 292.325 90.6283 292.585 90.9442C292.844 91.2714 292.98 91.6437 292.98 92.0724C292.98 92.6816 292.743 93.1893 292.269 93.5842C291.795 93.9791 291.141 94.1708 290.328 94.1708Z" fill="white"/>
<path d="M287.109 86.6909V87.7514C286.917 87.9094 286.736 88.0673 286.556 88.2365C286.375 88.417 286.127 88.6878 285.834 89.0714C285.541 89.455 285.281 89.8611 285.055 90.2898C284.83 90.7186 284.615 91.2714 284.412 91.9257C284.209 92.5801 284.085 93.2795 284.018 94.0016H282.878C282.923 93.4262 283.013 92.8621 283.149 92.3206C283.284 91.779 283.442 91.2939 283.623 90.8878C283.803 90.4816 283.995 90.1093 284.198 89.7483C284.401 89.3873 284.604 89.094 284.807 88.8458C285.01 88.5976 285.191 88.3945 285.349 88.214C285.507 88.0447 285.642 87.9206 285.744 87.8304L285.89 87.7063H281.772V86.6909H287.109Z" fill="white"/>
<path d="M279.41 93.2796C279.41 93.0765 279.489 92.9073 279.647 92.7493C279.805 92.6027 279.996 92.5237 280.233 92.5237C280.481 92.5237 280.696 92.6252 280.876 92.8057C281.057 92.9975 281.147 93.257 281.147 93.5955C281.147 94.2724 280.967 94.8026 280.628 95.1636C280.278 95.5359 279.895 95.7503 279.477 95.7954V95.2088C279.748 95.1524 279.962 95.0057 280.143 94.7688C280.312 94.5319 280.402 94.2724 280.414 93.9903C280.357 94.0355 280.278 94.0467 280.166 94.0467C279.94 94.0467 279.759 93.979 279.624 93.8437C279.477 93.7083 279.41 93.5165 279.41 93.2796Z" fill="white"/>
<path d="M272.537 92.3544V91.0796L275.673 86.6909H277.196V91.3278H278.448V92.3544H277.196V94.0016H276.124V92.3544H272.537ZM276.124 91.3278V87.7514L273.552 91.3278H276.124Z" fill="white"/>
<path d="M271.52 86.9279L271.182 87.8304C270.821 87.6274 270.381 87.5145 269.873 87.5145C269.129 87.5145 268.519 87.7627 268.057 88.2479C267.594 88.7443 267.346 89.3648 267.301 90.1319C267.459 89.8612 267.707 89.6355 268.046 89.455C268.384 89.2745 268.779 89.1843 269.23 89.1843C269.975 89.1843 270.573 89.4099 271.035 89.8499C271.498 90.3012 271.735 90.9104 271.735 91.6776C271.735 92.4447 271.464 93.0427 270.945 93.4939C270.415 93.9452 269.772 94.1708 269.027 94.1708C268.237 94.1708 267.572 93.8888 267.008 93.3247C266.444 92.7606 266.173 91.9145 266.173 90.7863C266.173 89.4663 266.523 88.4284 267.233 87.6612C267.933 86.9053 268.835 86.5217 269.941 86.5217C270.607 86.5217 271.137 86.6571 271.52 86.9279ZM267.459 91.6776C267.459 92.1401 267.617 92.5124 267.933 92.7945C268.249 93.0765 268.61 93.2119 269.038 93.2119C269.478 93.2119 269.851 93.0765 270.155 92.7945C270.46 92.5237 270.618 92.1514 270.618 91.6776C270.618 91.2037 270.46 90.8314 270.155 90.5494C269.851 90.2786 269.478 90.1319 269.038 90.1319C268.587 90.1319 268.215 90.2786 267.91 90.5494C267.606 90.8314 267.459 91.2037 267.459 91.6776Z" fill="white"/>
<path d="M264.701 94.0016H263.618V88.8458H261.847V88.0673C262.344 88.0673 262.761 87.9319 263.099 87.6837C263.438 87.4355 263.641 87.0971 263.731 86.6909H264.701V94.0016Z" fill="white"/>
<path d="M258.759 95.3218H257.879V94.1485C257.146 94.0808 256.57 93.8213 256.153 93.3926C255.724 92.9639 255.487 92.4675 255.419 91.9146L256.491 91.5762C256.525 91.971 256.66 92.3095 256.897 92.6028C257.123 92.8962 257.45 93.088 257.879 93.1556V90.7977L257.597 90.7413C257.01 90.6285 256.548 90.3916 256.22 90.0306C255.882 89.6808 255.724 89.2296 255.724 88.688C255.724 88.1465 255.916 87.6726 256.322 87.2665C256.728 86.8604 257.247 86.6234 257.879 86.5445V85.3599H258.759V86.5557C259.379 86.646 259.853 86.8604 260.192 87.2101C260.53 87.5598 260.756 87.9547 260.869 88.3947L259.853 88.767C259.808 88.5188 259.695 88.2819 259.515 88.045C259.323 87.8193 259.075 87.6501 258.759 87.5598V89.8726L258.928 89.9065C259.537 90.0306 260.034 90.2788 260.395 90.6623C260.756 91.0459 260.936 91.4972 260.936 92.0049C260.936 92.5464 260.744 93.009 260.361 93.4151C259.977 93.8213 259.436 94.0695 258.759 94.1485V95.3218ZM259.831 92.0613C259.831 91.8131 259.74 91.5987 259.56 91.3957C259.379 91.2039 259.109 91.0685 258.759 90.9782V93.1556C259.109 93.088 259.379 92.9639 259.56 92.7608C259.74 92.569 259.831 92.3321 259.831 92.0613ZM256.841 88.6429C256.841 89.1957 257.179 89.5342 257.879 89.6695V87.526C257.552 87.5937 257.292 87.7178 257.112 87.9209C256.931 88.1239 256.841 88.3721 256.841 88.6429Z" fill="white"/>
<path d="M62.859 164.948L58.8279 159.001C58.275 158.185 57.0001 158.577 57.0001 159.562L57 192.58C57 193.132 57.4477 193.58 58 193.58H311C311.552 193.58 312 193.132 312 192.58V115.236C312 114.159 310.531 113.843 310.088 114.826L298.163 141.308C297.855 141.991 296.933 142.106 296.467 141.519L284.198 126.038C283.69 125.397 282.669 125.604 282.45 126.392L274.612 154.691C274.41 155.42 273.502 155.669 272.956 155.146L256.119 139C255.766 138.661 255.219 138.628 254.827 138.922L232.561 155.632C232.083 155.991 231.4 155.853 231.098 155.338L222.335 140.4L209.068 118.725C208.711 118.142 207.887 118.081 207.448 118.605L177.733 154.107C177.264 154.668 176.371 154.551 176.061 153.888L164.189 128.493C163.824 127.713 162.709 127.728 162.366 128.518L150.807 155.121C150.546 155.721 149.791 155.913 149.275 155.512L142.586 150.3C142.238 150.029 141.754 150.018 141.394 150.273L131.108 157.564C130.582 157.936 129.847 157.722 129.604 157.125L117.822 128.202C117.521 127.465 116.522 127.357 116.071 128.013L102.864 147.229C102.481 147.786 101.668 147.811 101.252 147.279L96.6746 141.427C96.2696 140.909 95.4836 140.916 95.0881 141.441L83.0741 157.393C82.7136 157.871 82.0158 157.928 81.5832 157.513L74.4898 150.711C74.0266 150.267 73.2707 150.368 72.9403 150.918L64.5441 164.902C64.168 165.528 63.2689 165.553 62.859 164.948Z" fill="url(#paint0_linear_305_1748)"/>
<path d="M128.217 95.9993C125.946 95.9968 124.106 94.1568 124.104 91.8861V91.8039C124.149 89.5435 126.01 87.7433 128.271 87.7733C130.531 87.8033 132.344 89.6522 132.329 91.913C132.314 94.1738 130.478 95.9989 128.217 95.9993ZM128.21 95.1767H128.217C130.034 95.1749 131.505 93.7012 131.504 91.8845C131.503 90.0678 130.03 88.5956 128.214 88.5956C126.397 88.5956 124.924 90.0678 124.923 91.8845C124.922 93.7012 126.394 95.1749 128.21 95.1767ZM128.628 94.3541H127.806V93.5314H128.628V94.3541ZM128.628 93.1201H127.806C127.793 92.5844 128.071 92.0839 128.534 91.8129C128.805 91.6048 129.04 91.4255 129.04 91.0635C129.04 90.6092 128.671 90.2409 128.217 90.2409C127.763 90.2409 127.394 90.6092 127.394 91.0635H126.572V91.0265C126.578 90.4387 126.898 89.8991 127.41 89.6109C127.923 89.3227 128.55 89.3298 129.056 89.6294C129.561 89.929 129.869 90.4757 129.862 91.0635C129.833 91.5073 129.595 91.9109 129.221 92.1514C128.882 92.3638 128.663 92.7223 128.628 93.1201Z" fill="#7A7A7A" fill-opacity="0.7"/>
<path d="M51.9889 46.0801H315.011C316.392 46.0801 317.5 47.1838 317.5 48.5325V73.6277C317.5 74.9763 316.392 76.0801 315.011 76.0801H51.9889C50.6085 76.0801 49.5 74.9763 49.5 73.6277V48.5325C49.5 47.1838 50.6085 46.0801 51.9889 46.0801Z" fill="#343434" stroke="#3E3E3E"/>
<g filter="url(#filter0_b_305_1748)">
<path d="M59 155.932L64.015 164.996C64.3959 165.684 65.386 165.683 65.7658 164.994L73.8054 150.407C74.1353 149.808 74.9551 149.71 75.4175 150.213L82.1127 157.5C82.5454 157.97 83.3028 157.92 83.6689 157.396L96.3285 139.27C96.7721 138.634 97.7382 138.723 98.0587 139.428L101.726 147.498C102.055 148.223 103.059 148.291 103.483 147.617L117.241 125.746C117.687 125.037 118.755 125.158 119.031 125.948L129.94 157.133C130.163 157.77 130.939 158.008 131.48 157.606L142.196 149.641C142.556 149.374 143.05 149.378 143.404 149.653L150.48 155.125C151.004 155.53 151.771 155.323 152.019 154.708L163.487 126.318C163.825 125.48 165.015 125.486 165.345 126.327L176.332 154.328C176.612 155.043 177.561 155.188 178.042 154.59L208.107 117.223C208.547 116.676 209.399 116.741 209.751 117.348L224.517 142.8L231.727 154.967C232.032 155.481 232.717 155.615 233.193 155.253L255.409 138.353C255.804 138.053 256.358 138.088 256.713 138.433L273.423 154.732C273.972 155.267 274.895 155.011 275.089 154.268L282.491 125.921C282.7 125.124 283.727 124.907 284.241 125.55L296.953 141.49C297.425 142.082 298.358 141.955 298.655 141.258L313 107.58" stroke="#545454" stroke-width="1.5" stroke-linecap="round"/>
</g>
<circle cx="311.82" cy="110.401" r="3.57047" fill="#F91F54" stroke="#545454" stroke-width="1.5"/>
<path d="M149.84 66L149.036 63.864H145.436L144.644 66H143.12L146.432 57.492H148.1L151.412 66H149.84ZM147.236 59.052L145.94 62.532H148.532L147.236 59.052ZM153.49 63.06C153.49 63.624 153.634 64.08 153.922 64.416C154.21 64.752 154.582 64.92 155.062 64.92C155.518 64.92 155.89 64.752 156.178 64.404C156.466 64.068 156.61 63.612 156.61 63.048C156.61 62.496 156.466 62.064 156.19 61.728C155.902 61.404 155.53 61.236 155.074 61.236C154.606 61.236 154.222 61.404 153.934 61.74C153.634 62.076 153.49 62.508 153.49 63.06ZM157.954 57.312V64.932C157.954 65.328 157.966 65.688 158.014 66H156.682C156.634 65.784 156.622 65.532 156.622 65.244C156.478 65.508 156.25 65.724 155.95 65.892C155.638 66.06 155.29 66.144 154.906 66.144C154.066 66.144 153.394 65.856 152.878 65.268C152.35 64.692 152.098 63.948 152.098 63.06C152.098 62.208 152.35 61.488 152.878 60.888C153.406 60.3 154.066 60 154.882 60C155.338 60 155.71 60.084 155.998 60.252C156.286 60.42 156.478 60.624 156.598 60.84V57.312H157.954ZM160.949 63.06C160.949 63.624 161.093 64.08 161.381 64.416C161.669 64.752 162.041 64.92 162.521 64.92C162.977 64.92 163.349 64.752 163.637 64.404C163.925 64.068 164.069 63.612 164.069 63.048C164.069 62.496 163.925 62.064 163.649 61.728C163.361 61.404 162.989 61.236 162.533 61.236C162.065 61.236 161.681 61.404 161.393 61.74C161.093 62.076 160.949 62.508 160.949 63.06ZM165.413 57.312V64.932C165.413 65.328 165.425 65.688 165.473 66H164.141C164.093 65.784 164.081 65.532 164.081 65.244C163.937 65.508 163.709 65.724 163.409 65.892C163.097 66.06 162.749 66.144 162.365 66.144C161.525 66.144 160.853 65.856 160.337 65.268C159.809 64.692 159.557 63.948 159.557 63.06C159.557 62.208 159.809 61.488 160.337 60.888C160.865 60.3 161.525 60 162.341 60C162.797 60 163.169 60.084 163.457 60.252C163.745 60.42 163.937 60.624 164.057 60.84V57.312H165.413ZM176.148 66H170.808V57.492H172.248V64.632H176.148V66ZM178.964 66H177.584V60.156H178.964V66ZM177.368 58.104C177.368 57.864 177.452 57.648 177.632 57.468C177.8 57.288 178.016 57.192 178.268 57.192C178.52 57.192 178.736 57.288 178.916 57.456C179.084 57.636 179.18 57.852 179.18 58.104C179.18 58.356 179.084 58.572 178.916 58.74C178.736 58.92 178.52 59.004 178.268 59.004C178.016 59.004 177.8 58.92 177.632 58.74C177.452 58.572 177.368 58.356 177.368 58.104ZM186.436 68.28H185.068V65.304C184.756 65.868 184.18 66.144 183.352 66.144C182.524 66.144 181.852 65.856 181.324 65.268C180.796 64.68 180.544 63.948 180.544 63.06C180.544 62.196 180.796 61.476 181.3 60.888C181.804 60.312 182.476 60.012 183.316 60.012C183.772 60.012 184.156 60.108 184.468 60.288C184.768 60.48 184.984 60.696 185.104 60.936V60.156H186.436V68.28ZM181.948 63.06C181.948 63.612 182.092 64.068 182.38 64.404C182.668 64.752 183.052 64.92 183.508 64.92C183.964 64.92 184.336 64.752 184.636 64.404C184.924 64.068 185.08 63.612 185.08 63.06C185.08 62.508 184.924 62.076 184.636 61.74C184.348 61.416 183.964 61.248 183.508 61.248C183.04 61.248 182.668 61.416 182.38 61.74C182.092 62.076 181.948 62.508 181.948 63.06ZM192.193 65.352C192.049 65.616 191.833 65.808 191.521 65.952C191.209 66.096 190.885 66.168 190.537 66.168C189.853 66.168 189.313 65.952 188.917 65.508C188.521 65.076 188.329 64.512 188.329 63.84V60.156H189.721V63.588C189.721 63.984 189.817 64.308 190.009 64.548C190.201 64.8 190.489 64.92 190.897 64.92C191.281 64.92 191.581 64.8 191.797 64.56C192.013 64.32 192.121 64.008 192.121 63.612V60.156H193.513V64.932C193.513 65.292 193.525 65.64 193.573 66H192.241C192.205 65.832 192.193 65.616 192.193 65.352ZM196.934 66H195.554V60.156H196.934V66ZM195.338 58.104C195.338 57.864 195.422 57.648 195.602 57.468C195.77 57.288 195.986 57.192 196.238 57.192C196.49 57.192 196.706 57.288 196.886 57.456C197.054 57.636 197.15 57.852 197.15 58.104C197.15 58.356 197.054 58.572 196.886 58.74C196.706 58.92 196.49 59.004 196.238 59.004C195.986 59.004 195.77 58.92 195.602 58.74C195.422 58.572 195.338 58.356 195.338 58.104ZM199.906 63.06C199.906 63.624 200.05 64.08 200.338 64.416C200.626 64.752 200.998 64.92 201.478 64.92C201.934 64.92 202.306 64.752 202.594 64.404C202.882 64.068 203.026 63.612 203.026 63.048C203.026 62.496 202.882 62.064 202.606 61.728C202.318 61.404 201.946 61.236 201.49 61.236C201.022 61.236 200.638 61.404 200.35 61.74C200.05 62.076 199.906 62.508 199.906 63.06ZM204.37 57.312V64.932C204.37 65.328 204.382 65.688 204.43 66H203.098C203.05 65.784 203.038 65.532 203.038 65.244C202.894 65.508 202.666 65.724 202.366 65.892C202.054 66.06 201.706 66.144 201.322 66.144C200.482 66.144 199.81 65.856 199.294 65.268C198.766 64.692 198.514 63.948 198.514 63.06C198.514 62.208 198.766 61.488 199.294 60.888C199.822 60.3 200.482 60 201.298 60C201.754 60 202.126 60.084 202.414 60.252C202.702 60.42 202.894 60.624 203.014 60.84V57.312H204.37ZM207.809 66H206.429V60.156H207.809V66ZM206.213 58.104C206.213 57.864 206.297 57.648 206.477 57.468C206.645 57.288 206.861 57.192 207.113 57.192C207.365 57.192 207.581 57.288 207.761 57.456C207.929 57.636 208.025 57.852 208.025 58.104C208.025 58.356 207.929 58.572 207.761 58.74C207.581 58.92 207.365 59.004 207.113 59.004C206.861 59.004 206.645 58.92 206.477 58.74C206.297 58.572 206.213 58.356 206.213 58.104ZM211.609 58.368V60.156H212.821V61.392H211.609V64.104C211.609 64.368 211.669 64.548 211.789 64.668C211.909 64.788 212.089 64.836 212.353 64.836C212.509 64.836 212.665 64.824 212.833 64.788V65.94C212.617 66.036 212.341 66.072 211.981 66.072C211.429 66.072 211.009 65.928 210.697 65.616C210.385 65.304 210.229 64.884 210.229 64.332V61.392H209.149V60.156H209.449C209.737 60.156 209.965 60.072 210.121 59.904C210.265 59.736 210.349 59.52 210.349 59.244V58.368H211.609ZM216.361 68.364H214.873L216.277 65.304L213.781 60.156H215.353L217.033 63.852L218.605 60.156H220.081L216.361 68.364Z" fill="white"/>
<path d="M127.27 24L126.533 22.042H123.233L122.507 24H121.11L124.146 16.201H125.675L128.711 24H127.27ZM124.883 17.631L123.695 20.821H126.071L124.883 17.631Z" fill="#7A7A7A"/>
<defs>
<filter id="filter0_b_305_1748" x="53.2498" y="101.83" width="265.5" height="69.4316" filterUnits="userSpaceOnUse" color-interpolation-filters="sRGB">
<feFlood flood-opacity="0" result="BackgroundImageFix"/>
<feGaussianBlur in="BackgroundImageFix" stdDeviation="2.5"/>
<feComposite in2="SourceAlpha" operator="in" result="effect1_backgroundBlur_305_1748"/>
<feBlend mode="normal" in="SourceGraphic" in2="effect1_backgroundBlur_305_1748" result="shape"/>
</filter>
<linearGradient id="paint0_linear_305_1748" x1="371.944" y1="94.4087" x2="10.7896" y2="211.558" gradientUnits="userSpaceOnUse">
<stop stop-color="#343434"/>
<stop offset="1" stop-color="#212121"/>
</linearGradient>
</defs>
</svg>
