<svg width="361" height="210" viewBox="0 0 361 210" fill="none" xmlns="http://www.w3.org/2000/svg">
<path d="M211.54 155.237C211.549 164.131 208.494 172.756 202.891 179.664C197.292 186.572 189.481 191.342 180.78 193.172C172.074 195.001 163.007 193.78 155.098 189.712C147.188 185.645 140.922 178.98 137.346 170.836C133.77 162.692 133.108 153.566 135.47 144.992C137.828 136.417 143.07 128.916 150.308 123.748C157.546 118.581 166.342 116.062 175.216 116.615C184.094 117.167 192.511 120.758 199.052 126.784C202.985 130.408 206.127 134.806 208.274 139.704C210.426 144.6 211.536 149.89 211.54 155.237Z" fill="#303030"/>
<path d="M211.543 155.234C211.272 162.538 208.858 169.6 204.602 175.542C200.346 181.484 194.433 186.042 187.608 188.649C180.778 191.256 173.334 191.797 166.199 190.205C159.068 188.612 152.561 184.956 147.488 179.692C142.418 174.429 139.006 167.789 137.685 160.602C136.359 153.414 137.177 145.995 140.039 139.269C142.896 132.543 147.673 126.807 153.771 122.776C159.868 118.744 167.016 116.595 174.323 116.596C184.32 116.97 193.783 121.205 200.724 128.41C207.666 135.615 211.543 145.23 211.543 155.234Z" fill="#363636"/>
<path d="M199.05 126.777L144.423 181.403C142.564 179.38 140.92 177.166 139.526 174.798L192.453 121.875C194.82 123.27 197.032 124.913 199.05 126.777Z" fill="#4B4B4B" fill-opacity="0.37"/>
<path d="M208.868 141.101L158.734 191.234C155.214 189.85 151.913 187.955 148.944 185.61L203.248 131.31C205.589 134.28 207.487 137.579 208.868 141.101Z" fill="#4B4B4B" fill-opacity="0.37"/>
<path d="M202.905 155.245C202.931 163.198 199.802 170.837 194.203 176.487C188.609 182.137 180.997 185.337 173.044 185.386C165.091 185.435 157.444 182.329 151.777 176.747C146.114 171.166 142.89 163.567 142.817 155.614V155.245C142.817 147.276 145.984 139.635 151.618 134C157.251 128.366 164.893 125.201 172.863 125.201H173.233C181.138 125.295 188.687 128.502 194.242 134.126C199.794 139.75 202.909 147.337 202.909 155.242L202.905 155.245Z" fill="#414040"/>
<path d="M194.136 133.989L151.654 176.478C146.094 170.939 142.935 163.44 142.853 155.596V155.226C142.853 147.259 146.02 139.617 151.654 133.983C157.287 128.349 164.929 125.183 172.895 125.183H173.265C181.106 125.275 188.598 128.436 194.136 133.989Z" fill="#4B4B4B"/>
<path d="M156.206 145.568C156.266 145.632 156.378 145.691 156.386 145.761C156.464 146.446 156.894 146.906 157.41 147.274C162.187 150.652 166.968 154.028 171.758 157.381C172.92 158.191 173.836 158.144 174.977 157.341C177.589 155.506 180.197 153.668 182.805 151.825C184.281 150.78 185.356 149.421 185.92 147.7C186.118 147.1 186.191 146.46 186.277 146.068C186.277 147.567 186.385 149.304 186.247 151.022C186.075 153.14 185.008 154.886 183.304 156.143C180.464 158.238 177.572 160.258 174.671 162.274C173.733 162.929 172.735 162.758 171.81 162.159C170.863 161.544 169.925 160.917 169.004 160.265C165.191 157.563 161.387 154.847 157.578 152.141C156.924 151.677 156.408 151.129 156.292 150.3C156.296 148.953 156.3 147.607 156.296 146.26C156.296 146.158 156.236 146.055 156.206 145.953C156.206 145.825 156.206 145.697 156.206 145.568Z" fill="#2A2929"/>
<path d="M156.206 156.158C156.266 156.198 156.373 156.233 156.378 156.279C156.46 157.043 156.976 157.504 157.544 157.918C159.734 159.51 161.912 161.118 164.124 162.677C166.572 164.403 169.055 166.084 171.53 167.778C172.946 168.749 173.733 168.753 175.145 167.764C177.658 166.01 180.149 164.233 182.658 162.477C184.151 161.43 185.283 160.101 185.873 158.368C186.092 157.725 186.178 157.038 186.415 156.37C186.35 158.235 186.406 160.114 186.187 161.96C185.955 163.939 184.861 165.555 183.261 166.731C180.446 168.8 177.576 170.799 174.71 172.802C173.703 173.504 172.679 173.296 171.723 172.658C170.475 171.828 169.232 170.992 168.01 170.125C164.485 167.626 160.978 165.11 157.462 162.601C156.834 162.153 156.386 161.59 156.287 160.8C156.292 159.435 156.296 158.071 156.296 156.707C156.296 156.62 156.236 156.534 156.206 156.448C156.206 156.351 156.206 156.254 156.206 156.158Z" fill="#2A2929"/>
<path d="M163.165 145.056C163.247 144.963 163.286 144.891 163.35 144.848C164.869 143.788 166.363 142.687 167.921 141.687C169.534 140.651 171.316 140.044 173.265 140.047C175.081 140.05 176.729 140.625 178.223 141.618C178.941 142.098 179.643 142.628 180.284 143.21C181.317 144.151 181.424 145.827 180.602 146.954C180.417 147.206 180.228 147.222 179.983 147.062C179.647 146.838 179.316 146.611 178.976 146.397C175.529 144.237 172.077 144.26 168.63 146.4C168.084 146.74 167.542 147.089 166.982 147.411C166.87 147.476 166.66 147.502 166.561 147.439C165.485 146.728 164.426 145.997 163.359 145.268C163.299 145.225 163.251 145.153 163.165 145.056Z" fill="#2A2929"/>
<path d="M163.925 143.284C164.007 143.191 164.046 143.119 164.11 143.076C165.629 142.016 167.122 140.915 168.68 139.914C170.294 138.879 172.076 138.271 174.025 138.274C175.841 138.277 177.489 138.852 178.982 139.846C179.701 140.326 180.403 140.856 181.044 141.438C182.077 142.379 182.184 144.055 181.362 145.182C181.177 145.433 180.988 145.45 180.742 145.289C180.407 145.066 180.076 144.839 179.736 144.624C176.289 142.465 172.837 142.488 169.39 144.627C168.844 144.968 168.302 145.317 167.742 145.639C167.63 145.704 167.419 145.73 167.32 145.666C166.245 144.955 165.186 144.225 164.119 143.496C164.059 143.453 164.011 143.381 163.925 143.284Z" fill="#B4B4B4"/>
<path d="M157.604 144.171C157.669 144.236 157.776 144.294 157.785 144.365C157.862 145.049 158.292 145.509 158.813 145.877C163.59 149.255 168.367 152.631 173.161 155.985C174.318 156.794 175.235 156.747 176.379 155.944C178.987 154.11 181.599 152.271 184.203 150.428C185.679 149.383 186.755 148.024 187.319 146.304C187.517 145.703 187.594 145.064 187.676 144.671C187.676 146.17 187.788 147.908 187.646 149.625C187.473 151.743 186.406 153.489 184.702 154.746C181.866 156.841 178.97 158.861 176.074 160.877C175.131 161.533 174.133 161.361 173.212 160.762C172.265 160.148 171.327 159.52 170.406 158.868C166.594 156.166 162.79 153.451 158.977 150.744C158.323 150.28 157.811 149.733 157.694 148.904C157.694 147.557 157.699 146.21 157.699 144.864C157.699 144.761 157.638 144.659 157.604 144.557C157.604 144.429 157.604 144.3 157.604 144.171Z" fill="#B4B4B4"/>
<path d="M157.604 154.778C157.664 154.818 157.772 154.853 157.776 154.899C157.862 155.663 158.374 156.123 158.942 156.537C161.133 158.13 163.31 159.738 165.522 161.297C167.975 163.022 170.458 164.703 172.928 166.398C174.344 167.368 175.131 167.372 176.547 166.383C179.056 164.629 181.548 162.853 184.057 161.096C185.554 160.049 186.686 158.72 187.271 156.988C187.491 156.344 187.581 155.658 187.813 154.99C187.749 156.854 187.805 158.733 187.59 160.58C187.353 162.559 186.264 164.174 184.663 165.35C181.845 167.419 178.974 169.419 176.108 171.422C175.106 172.124 174.081 171.915 173.122 171.278C171.874 170.447 170.63 169.611 169.408 168.745C165.888 166.245 162.376 163.73 158.861 161.22C158.232 160.772 157.785 160.209 157.686 159.419C157.69 158.055 157.699 156.691 157.694 155.326C157.694 155.24 157.638 155.154 157.604 155.067C157.604 154.97 157.604 154.874 157.604 154.778Z" fill="#B4B4B4"/>
<path d="M203.946 155.269C203.946 159.225 203.188 163.142 201.718 166.797C200.253 170.452 198.096 173.773 195.383 176.57C192.67 179.367 189.446 181.586 185.9 183.1C182.354 184.614 178.552 185.393 174.712 185.393C174.16 185.393 173.607 185.377 173.063 185.346C180.52 184.912 187.529 181.555 192.662 175.962C197.791 170.369 200.646 162.965 200.646 155.27C200.646 147.574 197.791 140.17 192.662 134.577C187.529 128.985 180.52 125.627 173.063 125.193C173.607 125.162 174.16 125.146 174.712 125.146C182.467 125.146 189.903 128.32 195.383 133.969C200.864 139.618 203.946 147.28 203.946 155.269Z" fill="#202020"/>
<path d="M112.804 79.7461H50.6438C47.5268 79.7461 45 82.2729 45 85.3898V105.086C45 108.203 47.5268 110.73 50.6438 110.73H112.804C115.921 110.73 118.448 108.203 118.448 105.086V85.3898C118.448 82.2729 115.921 79.7461 112.804 79.7461Z" fill="#343434"/>
<path d="M112.804 79.7461H50.6438C47.5268 79.7461 45 82.2729 45 85.3898V105.086C45 108.203 47.5268 110.73 50.6438 110.73H112.804C115.921 110.73 118.448 108.203 118.448 105.086V85.3898C118.448 82.2729 115.921 79.7461 112.804 79.7461Z" stroke="url(#paint0_linear_307_2152)" stroke-width="0.6"/>
<path d="M117.619 95.2383C117.619 96.3078 118.467 97.1748 119.513 97.1748C120.559 97.1748 121.407 96.3078 121.407 95.2383C121.407 94.1687 120.559 93.3018 119.513 93.3018C118.467 93.3018 117.619 94.1687 117.619 95.2383ZM119.513 95.6013H193.143V94.8752H119.513V95.6013Z" fill="url(#paint1_linear_307_2152)"/>
<path d="M65.0882 100.077C63.9414 100.085 65.1242 100.071 63.9774 100.072C61.4864 100.076 58.9961 100.078 56.5044 100.076C55.2879 100.076 54.0707 100.074 52.8528 100.07C52.5436 100.07 52.2344 100.055 51.9266 100.047C51.8722 100.047 51.8195 100.027 51.7778 99.9923C51.8294 99.9828 51.8816 99.9756 51.9339 99.9705C52.5044 99.9473 53.0749 99.924 53.6454 99.9037C54.3001 99.8819 54.9555 99.8631 55.6123 99.8427C55.7916 99.8369 55.8294 99.7992 55.8373 99.609C55.8519 98.8564 55.9433 98.1066 56.1103 97.3728C56.1756 97.0897 56.1473 96.9721 55.8976 96.8182C55.4606 96.5504 55.2023 96.1178 55.0948 95.6098C55.0222 95.2693 55.1275 94.9609 55.3322 94.6872C55.4396 94.5435 55.5521 94.4042 55.6581 94.2597C55.7459 94.1473 55.875 94.0746 56.0166 94.058C56.0656 94.0609 56.1108 94.0854 56.14 94.1247C56.1531 94.1407 56.1328 94.2118 56.1066 94.2307C55.9992 94.3113 55.8925 94.4158 55.7698 94.4484C55.5811 94.4985 55.489 94.6343 55.4127 94.7823C55.1152 95.3637 55.3924 95.9342 55.7423 96.247C55.8845 96.3697 56.0384 96.4764 56.2024 96.5657C56.3875 96.6702 56.4833 96.6397 56.6416 96.4982C57.2629 95.9349 57.8856 95.3731 58.5105 94.8128C58.5563 94.7722 58.5998 94.7286 58.6455 94.688C58.7486 94.5943 58.8401 94.6168 58.8706 94.7555C58.9264 95.0313 58.9707 95.3085 59.0135 95.5858C59.0339 95.7208 59.0411 95.858 59.0535 95.9937H59.0919C59.1101 95.8907 59.1195 95.7861 59.121 95.6816C59.0985 95.2788 59.0854 94.8731 59.0273 94.4746C58.9939 94.2452 58.8785 94.0282 58.806 93.8039C58.7806 93.7386 58.7707 93.6683 58.7769 93.5985C58.7936 93.4998 58.7551 93.4679 58.6739 93.4316C58.168 93.2029 57.6388 93.0483 57.1061 92.9061C57.0461 92.8925 56.9918 92.8605 56.9508 92.8146C56.9093 92.7684 56.883 92.7107 56.8753 92.6491C56.8508 92.5428 56.819 92.4383 56.7802 92.3363C56.7337 92.2078 56.7468 92.1077 56.8753 92.0336C57.1932 91.8522 57.5089 91.6686 57.8225 91.4798C57.9263 91.424 58.0206 91.3528 58.1034 91.2694C58.2638 91.0908 58.4786 91.0226 58.684 90.9355C59.1805 90.7264 59.6784 90.5225 60.1727 90.3127C60.215 90.2861 60.253 90.253 60.2852 90.2147C60.2597 90.1795 60.2302 90.1474 60.1973 90.1189C59.5876 89.7129 59.0525 89.2046 58.6158 88.6165C58.5897 88.5802 58.6013 88.5141 58.594 88.4612C58.6414 88.4585 58.689 88.4634 58.7348 88.4757C59.1435 88.6615 59.5477 88.8574 59.9571 89.0382C60.2656 89.1746 60.5849 89.2857 60.8934 89.4229C61.2375 89.576 61.5982 89.7059 61.8638 89.9999C61.9928 90.1305 62.0038 90.3369 61.8892 90.4804L61.4356 91.1162C61.4907 91.1301 61.5472 91.1374 61.604 91.138C61.919 91.1002 62.2333 91.0538 62.549 91.0182C62.6107 91.0197 62.6724 91.0291 62.7305 91.0472C62.7167 91.1069 62.6952 91.1645 62.6666 91.2185C62.398 91.5916 62.0714 91.9182 61.7012 92.1861C61.6214 92.2427 61.6454 92.3051 61.6853 92.3697C61.8595 92.6412 62.0446 92.9046 62.2035 93.1841C62.4605 93.637 62.7188 94.0906 62.9439 94.5602C63.1834 95.0589 63.3975 95.572 63.5942 96.0903C63.7444 96.4909 63.8584 96.9017 63.9738 97.3133C64.0812 97.6972 64.1799 98.0848 64.2605 98.4746C64.3374 98.852 64.3868 99.236 64.4463 99.617C64.4782 99.8231 64.5234 99.9485 64.7251 99.9557L65.0882 100.077ZM61.4545 99.805V99.8246H63.1805C63.4055 99.8246 63.4185 99.7977 63.3162 99.588C63.2603 99.4777 63.2131 99.3644 63.1638 99.2519C62.9929 98.8401 62.7437 98.4654 62.43 98.1487C62.2892 98.0115 62.1106 97.9063 61.9146 97.915C61.6127 97.9288 61.3166 98.0442 61.0429 98.1676C60.6172 98.3634 60.2479 98.6637 59.9694 99.0407C59.8252 99.2383 59.6928 99.4443 59.5731 99.6577C59.5202 99.7469 59.555 99.8065 59.6733 99.8057C60.2649 99.8028 60.8593 99.805 61.4545 99.805ZM57.4654 99.8217V99.8152H58.3218C58.5018 99.8152 58.5214 99.7905 58.5432 99.6163C58.5635 99.4508 58.5911 99.2868 58.6172 99.122C58.6659 98.8172 58.7203 98.5123 58.761 98.206C58.7835 98.0347 58.7355 97.9992 58.5817 98.0601C58.3441 98.1453 58.1125 98.2464 57.8885 98.3628C57.3209 98.6843 56.8375 99.1031 56.5029 99.6787C56.4383 99.7934 56.4514 99.8188 56.5813 99.8195C56.8753 99.8246 57.1692 99.8217 57.4654 99.8217Z" fill="#7A7A7A"/>
<path d="M58.9447 90.5376C58.9582 90.5494 59.2035 90.7698 59.214 90.7843L59.6241 90.6202C59.6713 90.5612 59.684 90.5424 59.6309 90.4886C59.5215 90.3676 59.373 90.3141 59.2313 90.251C59.1043 90.1945 58.9728 90.1488 58.8458 90.0926C58.6772 90.0182 58.5107 89.9375 58.3425 89.861C58.3236 89.8559 58.304 89.8539 58.2845 89.855C58.2875 89.8768 58.2827 89.904 58.2935 89.919C58.4733 90.1612 58.6936 90.3705 58.9447 90.5376Z" fill="#7A7A7A"/>
<path d="M72.0548 97.5904H73.5048C74.1948 97.5904 74.7648 97.3604 75.2248 96.9004C75.6848 96.4404 75.9148 95.7904 75.9148 94.9304C75.9148 94.0704 75.6848 93.4104 75.2348 92.9404C74.7848 92.4804 74.2148 92.2404 73.5248 92.2404H72.0548V97.5904ZM73.5348 98.4604H71.0748V91.3704H73.5548C74.5048 91.3704 75.3048 91.6904 75.9548 92.3204C76.5948 92.9504 76.9248 93.8204 76.9248 94.9304C76.9248 96.0404 76.5948 96.9104 75.9448 97.5304C75.2848 98.1504 74.4848 98.4604 73.5348 98.4604ZM79.1021 98.4604H78.1721V93.6504H79.1021V98.4604ZM77.9621 91.8304C77.9621 91.6504 78.0221 91.4904 78.1521 91.3504C78.2821 91.2204 78.4421 91.1504 78.6321 91.1504C78.8121 91.1504 78.9721 91.2204 79.1121 91.3504C79.2421 91.4804 79.3121 91.6404 79.3121 91.8304C79.3121 92.0204 79.2421 92.1804 79.1121 92.3104C78.9721 92.4404 78.8121 92.5004 78.6321 92.5004C78.4421 92.5004 78.2821 92.4404 78.1521 92.3104C78.0221 92.1804 77.9621 92.0204 77.9621 91.8304ZM80.7014 98.9804V93.6504H81.6414V99.0204C81.6414 99.4604 81.5214 99.8204 81.2814 100.1C81.0414 100.38 80.7114 100.51 80.3114 100.51C80.0714 100.51 79.8914 100.49 79.7514 100.44V99.6504C79.8514 99.6704 79.9514 99.6804 80.0514 99.6804C80.4814 99.6804 80.7014 99.4504 80.7014 98.9804ZM80.4914 91.8104C80.4914 91.6304 80.5514 91.4704 80.6814 91.3304C80.8114 91.2004 80.9714 91.1304 81.1614 91.1304C81.3414 91.1304 81.5014 91.2004 81.6414 91.3304C81.7714 91.4604 81.8414 91.6204 81.8414 91.8104C81.8414 92.0004 81.7714 92.1604 81.6414 92.2904C81.5014 92.4204 81.3414 92.4804 81.1614 92.4804C80.9714 92.4804 80.8114 92.4204 80.6814 92.2904C80.5514 92.1604 80.4914 92.0004 80.4914 91.8104ZM83.8504 95.5604H86.4804C86.4604 95.2004 86.3404 94.9104 86.1204 94.6804C85.8904 94.4504 85.5704 94.3304 85.1604 94.3304C84.7804 94.3304 84.4804 94.4604 84.2404 94.7004C84.0004 94.9404 83.8704 95.2304 83.8504 95.5604ZM86.6204 96.8104L87.4304 97.0904C87.2904 97.5404 87.0304 97.9104 86.6504 98.1904C86.2704 98.4704 85.8104 98.6104 85.2704 98.6104C84.5904 98.6104 84.0204 98.3804 83.5504 97.9204C83.0804 97.4604 82.8504 96.8304 82.8504 96.0404C82.8504 95.3104 83.0704 94.7004 83.5304 94.2204C83.9804 93.7404 84.5204 93.5004 85.1504 93.5004C85.8704 93.5004 86.4404 93.7304 86.8504 94.1904C87.2504 94.6504 87.4604 95.2604 87.4604 96.0204C87.4604 96.1404 87.4504 96.2404 87.4404 96.3204H83.8204C83.8204 96.7504 83.9604 97.1004 84.2404 97.3704C84.5204 97.6504 84.8604 97.7804 85.2704 97.7804C85.9504 97.7804 86.4004 97.4604 86.6204 96.8104ZM89.9204 92.1304V93.6504H90.9604V94.5004H89.9204V97.0004C89.9204 97.2304 89.9704 97.4004 90.0704 97.5004C90.1704 97.6104 90.3504 97.6604 90.5904 97.6604C90.7304 97.6604 90.8504 97.6504 90.9604 97.6204V98.4204C90.8004 98.4804 90.5804 98.5104 90.3204 98.5104C89.9004 98.5104 89.5804 98.3904 89.3404 98.1504C89.1004 97.9104 88.9804 97.5804 88.9804 97.1404V94.5004H88.0604V93.6504H88.3204C88.5604 93.6504 88.7504 93.5904 88.8704 93.4504C88.9904 93.3104 89.0604 93.1304 89.0604 92.9104V92.1304H89.9204ZM92.7762 95.5604H95.4062C95.3862 95.2004 95.2662 94.9104 95.0462 94.6804C94.8162 94.4504 94.4962 94.3304 94.0862 94.3304C93.7062 94.3304 93.4062 94.4604 93.1662 94.7004C92.9262 94.9404 92.7962 95.2304 92.7762 95.5604ZM95.5462 96.8104L96.3562 97.0904C96.2162 97.5404 95.9562 97.9104 95.5762 98.1904C95.1962 98.4704 94.7362 98.6104 94.1962 98.6104C93.5162 98.6104 92.9462 98.3804 92.4762 97.9204C92.0062 97.4604 91.7762 96.8304 91.7762 96.0404C91.7762 95.3104 91.9962 94.7004 92.4562 94.2204C92.9062 93.7404 93.4462 93.5004 94.0762 93.5004C94.7962 93.5004 95.3662 93.7304 95.7762 94.1904C96.1762 94.6504 96.3862 95.2604 96.3862 96.0204C96.3862 96.1404 96.3762 96.2404 96.3662 96.3204H92.7462C92.7462 96.7504 92.8862 97.1004 93.1662 97.3704C93.4462 97.6504 93.7862 97.7804 94.1962 97.7804C94.8762 97.7804 95.3262 97.4604 95.5462 96.8104ZM96.8373 98.4604L98.6273 96.0104L96.8973 93.6504H98.0373L99.2173 95.3404L100.377 93.6504H101.487L99.7773 96.0104C99.8773 96.1404 100.167 96.5504 100.667 97.2304C101.157 97.9204 101.447 98.3304 101.547 98.4604H100.417L99.1773 96.6904L97.9573 98.4604H96.8373Z" fill="#7A7A7A"/>
<path d="M247.941 79.7463H310.101C313.218 79.7463 315.745 82.2731 315.745 85.3901V105.087C315.745 108.204 313.218 110.73 310.101 110.73H247.941C244.824 110.73 242.297 108.204 242.297 105.087V85.3901C242.297 82.2731 244.824 79.7463 247.941 79.7463Z" fill="#343434"/>
<path d="M247.941 79.7463H310.101C313.218 79.7463 315.745 82.2731 315.745 85.3901V105.087C315.745 108.204 313.218 110.73 310.101 110.73H247.941C244.824 110.73 242.297 108.204 242.297 105.087V85.3901C242.297 82.2731 244.824 79.7463 247.941 79.7463Z" stroke="url(#paint2_linear_307_2152)" stroke-width="0.6"/>
<path d="M243.596 95.473C243.596 96.4401 242.812 97.224 241.845 97.224C240.878 97.224 240.094 96.4401 240.094 95.473C240.094 94.5058 240.878 93.7219 241.845 93.7219C242.812 93.7219 243.596 94.5058 243.596 95.473ZM241.845 95.8012H173.778V95.1447H241.845V95.8012Z" fill="url(#paint3_linear_307_2152)"/>
<path d="M247.941 159.143H310.101C313.218 159.143 315.745 161.67 315.745 164.787V184.483C315.745 187.6 313.218 190.127 310.101 190.127H247.941C244.824 190.127 242.297 187.6 242.297 184.483V164.787C242.297 161.67 244.824 159.143 247.941 159.143Z" stroke="url(#paint4_linear_307_2152)" stroke-width="0.6"/>
<g clip-path="url(#clip0_307_2152)">
<path d="M254.143 99.3491V93.5944L255.998 92.0168V97.7688L254.143 99.3491Z" fill="#7A7A7A"/>
<path d="M254.143 99.3491V93.5944L255.998 92.0168V97.7688L254.143 99.3491Z" fill="url(#paint5_linear_307_2152)" fill-opacity="0.2"/>
<path d="M262.145 96.8525C261.54 97.367 260.93 97.8854 260.299 98.4216V92.6708C260.906 92.1535 261.531 91.6342 262.145 91.1108V96.8525Z" fill="#7A7A7A"/>
<path d="M262.145 96.8525C261.54 97.367 260.93 97.8854 260.299 98.4216V92.6708C260.906 92.1535 261.531 91.6342 262.145 91.1108V96.8525Z" fill="url(#paint6_linear_307_2152)" fill-opacity="0.2"/>
<path d="M259.086 99.4554C258.466 99.9843 257.846 100.515 257.221 101.048V95.7383H259.086V99.4554Z" fill="#7A7A7A"/>
<path d="M259.086 99.4554C258.466 99.9843 257.846 100.515 257.221 101.048V95.7383H259.086V99.4554Z" fill="url(#paint7_linear_307_2152)" fill-opacity="0.2"/>
<path d="M257.216 94.7174V90.9956L259.081 89.3899C259.084 91.0454 259.086 94.6966 259.086 94.6966L257.216 94.7174Z" fill="#7A7A7A"/>
<path d="M257.216 94.7174V90.9956L259.081 89.3899C259.084 91.0454 259.086 94.6966 259.086 94.6966L257.216 94.7174Z" fill="url(#paint8_linear_307_2152)" fill-opacity="0.2"/>
</g>
<path d="M278.051 99.4287H277.071V96.2787H273.451V99.4287H272.471V92.3387H273.451V95.3687H277.071V92.3387H278.051V99.4287ZM281.814 98.7387C282.234 98.7387 282.584 98.5887 282.874 98.2887C283.164 97.9887 283.314 97.5587 283.314 97.0187C283.314 96.4887 283.164 96.0687 282.874 95.7687C282.584 95.4687 282.234 95.3087 281.814 95.3087C281.394 95.3087 281.034 95.4687 280.744 95.7687C280.454 96.0687 280.314 96.4887 280.314 97.0187C280.314 97.5587 280.454 97.9887 280.744 98.2887C281.034 98.5887 281.394 98.7387 281.814 98.7387ZM281.814 94.4687C282.524 94.4687 283.114 94.7187 283.574 95.1987C284.034 95.6787 284.274 96.2887 284.274 97.0187C284.274 97.7587 284.044 98.3787 283.584 98.8587C283.124 99.3387 282.534 99.5787 281.814 99.5787C281.094 99.5787 280.504 99.3387 280.044 98.8587C279.584 98.3787 279.354 97.7587 279.354 97.0187C279.354 96.2887 279.584 95.6787 280.044 95.1987C280.504 94.7187 281.094 94.4687 281.814 94.4687ZM288.147 94.5687V95.5687C288.007 95.5487 287.867 95.5387 287.737 95.5387C286.857 95.5387 286.417 96.0387 286.417 97.0187V99.4287H285.477V94.6187H286.397V95.4587C286.687 94.8487 287.167 94.5387 287.837 94.5387C287.937 94.5387 288.047 94.5487 288.147 94.5687ZM290.079 99.4287H289.149V94.6187H290.079V99.4287ZM288.939 92.7987C288.939 92.6187 288.999 92.4587 289.129 92.3187C289.259 92.1887 289.419 92.1187 289.609 92.1187C289.789 92.1187 289.949 92.1887 290.089 92.3187C290.219 92.4487 290.289 92.6087 290.289 92.7987C290.289 92.9887 290.219 93.1487 290.089 93.2787C289.949 93.4087 289.789 93.4687 289.609 93.4687C289.419 93.4687 289.259 93.4087 289.129 93.2787C288.999 93.1487 288.939 92.9887 288.939 92.7987ZM295.138 99.4287H291.278V98.6087L293.918 95.4687H291.318V94.6187H295.088V95.4387L292.448 98.5787H295.138V99.4287ZM298.396 98.7387C298.816 98.7387 299.166 98.5887 299.456 98.2887C299.746 97.9887 299.896 97.5587 299.896 97.0187C299.896 96.4887 299.746 96.0687 299.456 95.7687C299.166 95.4687 298.816 95.3087 298.396 95.3087C297.976 95.3087 297.616 95.4687 297.326 95.7687C297.036 96.0687 296.896 96.4887 296.896 97.0187C296.896 97.5587 297.036 97.9887 297.326 98.2887C297.616 98.5887 297.976 98.7387 298.396 98.7387ZM298.396 94.4687C299.106 94.4687 299.696 94.7187 300.156 95.1987C300.616 95.6787 300.856 96.2887 300.856 97.0187C300.856 97.7587 300.626 98.3787 300.166 98.8587C299.706 99.3387 299.116 99.5787 298.396 99.5787C297.676 99.5787 297.086 99.3387 296.626 98.8587C296.166 98.3787 295.936 97.7587 295.936 97.0187C295.936 96.2887 296.166 95.6787 296.626 95.1987C297.086 94.7187 297.676 94.4687 298.396 94.4687ZM302.999 96.6487V99.4287H302.059V94.6187H302.979V95.3087C303.299 94.7587 303.789 94.4787 304.459 94.4787C305.009 94.4787 305.429 94.6587 305.729 95.0087C306.029 95.3687 306.179 95.8187 306.179 96.3787V99.4287H305.239V96.5387C305.239 95.7387 304.859 95.3287 304.119 95.3287C303.759 95.3287 303.489 95.4587 303.289 95.7087C303.089 95.9587 302.999 96.2687 302.999 96.6487Z" fill="#7A7A7A"/>
<path d="M247.941 118.476H310.101C313.218 118.476 315.745 121.003 315.745 124.12V143.816C315.745 146.933 313.218 149.46 310.101 149.46H247.941C244.824 149.46 242.297 146.933 242.297 143.816V124.12C242.297 121.003 244.824 118.476 247.941 118.476Z" fill="#343434"/>
<path d="M247.941 118.476H310.101C313.218 118.476 315.745 121.003 315.745 124.12V143.816C315.745 146.933 313.218 149.46 310.101 149.46H247.941C244.824 149.46 242.297 146.933 242.297 143.816V124.12C242.297 121.003 244.824 118.476 247.941 118.476Z" stroke="url(#paint9_linear_307_2152)" stroke-width="0.6"/>
<path d="M243.596 134.203C243.596 135.17 242.812 135.954 241.845 135.954C240.878 135.954 240.094 135.17 240.094 134.203C240.094 133.236 240.878 132.452 241.845 132.452C242.812 132.452 243.596 133.236 243.596 134.203ZM241.845 134.531H173.778V133.874H241.845V134.531Z" fill="url(#paint10_linear_307_2152)"/>
<path d="M256.364 136.174L256.291 136.204C255.857 136.351 255.207 136.571 254.642 136.85C254.612 136.864 254.585 136.908 254.585 136.908C254.569 136.937 254.554 136.967 254.542 136.997C254.481 137.143 254.383 137.364 254.353 137.466L254.325 137.541C254.325 137.556 254.325 137.569 254.325 137.569L254.338 137.585H254.353L254.423 137.556C254.585 137.481 254.786 137.364 254.99 137.262H255.003C255.408 137.07 255.857 136.85 256.117 136.718C256.117 136.718 256.16 136.689 256.189 136.645L256.392 136.233C256.392 136.218 256.392 136.204 256.392 136.204C256.392 136.174 256.376 136.16 256.364 136.174Z" fill="#7A7A7A"/>
<path d="M258.252 138.555L257.419 138.555C256.373 138.538 255.461 138.513 254.091 138.552C254.02 138.554 253.95 138.576 253.95 138.576C253.91 138.592 253.872 138.609 253.84 138.626C253.808 138.643 253.686 138.673 253.686 138.673L253.281 138.943C253.28 138.953 253.278 138.962 253.278 138.962L253.307 138.976L253.343 138.981L253.512 138.98C253.904 138.972 254.393 138.946 254.888 138.932L254.919 138.935C255.901 138.914 256.789 138.874 257.419 138.854L258.076 138.816L258.835 138.745L260.429 138.557C260.432 138.536 258.282 138.55 258.252 138.555Z" fill="#7A7A7A"/>
<path d="M254.738 135.537C254.768 135.478 254.896 135.229 254.927 135.171V135.157C255.809 133.476 256.881 131.896 258.107 130.448L258.138 130.404C258.153 130.389 258.153 130.375 258.138 130.361C258.123 130.346 258.107 130.331 258.095 130.346H258.037C257.225 130.463 256.401 130.609 255.592 130.814C255.504 130.843 255.461 130.887 255.446 130.901C254.838 131.632 254.273 132.407 253.737 133.198C253.754 133.241 253.754 133.329 253.754 133.329C253.754 133.329 253.883 134.352 254.072 135.113C253.609 136.502 253.175 138.344 253.175 138.344C253.175 138.359 253.175 138.374 253.175 138.374C253.175 138.388 253.19 138.388 253.202 138.388H253.477C253.492 138.388 253.507 138.374 253.522 138.36L253.535 138.3C253.809 137.541 254.13 136.78 254.475 136.048C254.564 135.886 254.738 135.537 254.738 135.537Z" fill="#7A7A7A"/>
<path d="M258.549 130.786V130.727C258.549 130.713 258.534 130.697 258.521 130.684C258.506 130.684 258.49 130.684 258.476 130.697L258.447 130.741C256.985 132.411 255.775 134.27 254.814 136.259L254.783 136.302C254.783 136.317 254.783 136.331 254.783 136.347C254.795 136.36 254.795 136.36 254.814 136.36H254.826L254.87 136.347C255.686 136.012 256.52 135.722 257.351 135.475C257.394 135.461 257.44 135.432 257.468 135.389C257.834 134.692 258.678 133.326 258.678 133.326C258.71 133.282 258.696 133.239 258.696 133.239C258.696 133.239 258.549 131.612 258.549 130.786Z" fill="#7A7A7A"/>
<path d="M260.415 128.436C260.213 128.261 259.904 128.174 259.441 128.16C259.037 128.145 258.541 128.247 257.975 128.421C257.888 128.451 257.83 128.494 257.756 128.552C257.177 129.09 256.626 129.673 256.102 130.255L256.057 130.298C256.044 130.313 256.044 130.327 256.057 130.342C256.072 130.356 256.087 130.37 256.102 130.356L256.16 130.342C257.018 130.153 257.873 130.022 258.716 129.934C258.773 129.934 258.832 129.948 258.874 129.977C258.921 130.022 258.933 130.066 258.933 130.123C258.921 130.967 258.948 131.811 259.019 132.625V132.683C259.019 132.697 259.037 132.712 259.049 132.712C259.049 132.712 259.049 132.712 259.065 132.712C259.08 132.712 259.092 132.712 259.092 132.697L259.122 132.654C259.601 131.971 260.109 131.316 260.661 130.691C260.718 130.618 260.734 130.574 260.749 130.515C260.921 129.453 260.661 128.64 260.415 128.436Z" fill="#7A7A7A"/>
<path d="M275.542 138.308C274.572 138.308 273.742 137.978 273.052 137.308C272.362 136.648 272.022 135.748 272.022 134.608C272.022 133.848 272.192 133.188 272.542 132.608C272.882 132.038 273.322 131.618 273.852 131.338C274.372 131.058 274.942 130.918 275.542 130.918C276.342 130.918 277.012 131.128 277.562 131.528C278.112 131.928 278.482 132.478 278.662 133.168L277.752 133.488C277.612 132.958 277.362 132.548 276.982 132.258C276.602 131.968 276.122 131.818 275.542 131.818C274.842 131.818 274.252 132.068 273.762 132.558C273.262 133.048 273.022 133.728 273.022 134.608C273.022 135.488 273.262 136.178 273.762 136.668C274.252 137.168 274.842 137.408 275.542 137.408C276.122 137.408 276.602 137.258 276.992 136.948C277.372 136.638 277.642 136.228 277.802 135.708L278.672 136.028C278.472 136.718 278.102 137.268 277.552 137.688C277.002 138.108 276.332 138.308 275.542 138.308ZM282.395 133.298V134.298C282.255 134.278 282.115 134.268 281.985 134.268C281.105 134.268 280.665 134.768 280.665 135.748V138.158H279.725V133.348H280.645V134.188C280.935 133.578 281.415 133.268 282.085 133.268C282.185 133.268 282.295 133.278 282.395 133.298ZM283.958 135.258H286.588C286.568 134.898 286.448 134.608 286.228 134.378C285.998 134.148 285.678 134.028 285.268 134.028C284.888 134.028 284.588 134.158 284.348 134.398C284.108 134.638 283.978 134.928 283.958 135.258ZM286.728 136.508L287.538 136.788C287.398 137.238 287.138 137.608 286.758 137.888C286.378 138.168 285.918 138.308 285.378 138.308C284.698 138.308 284.128 138.078 283.658 137.618C283.188 137.158 282.958 136.528 282.958 135.738C282.958 135.008 283.178 134.398 283.638 133.918C284.088 133.438 284.628 133.198 285.258 133.198C285.978 133.198 286.548 133.428 286.958 133.888C287.358 134.348 287.568 134.958 287.568 135.718C287.568 135.838 287.558 135.938 287.548 136.018H283.928C283.928 136.448 284.068 136.798 284.348 137.068C284.628 137.348 284.968 137.478 285.378 137.478C286.058 137.478 286.508 137.158 286.728 136.508ZM289.378 135.258H292.008C291.988 134.898 291.868 134.608 291.648 134.378C291.418 134.148 291.098 134.028 290.688 134.028C290.308 134.028 290.008 134.158 289.768 134.398C289.528 134.638 289.398 134.928 289.378 135.258ZM292.148 136.508L292.958 136.788C292.818 137.238 292.558 137.608 292.178 137.888C291.798 138.168 291.338 138.308 290.798 138.308C290.118 138.308 289.548 138.078 289.078 137.618C288.608 137.158 288.378 136.528 288.378 135.738C288.378 135.008 288.598 134.398 289.058 133.918C289.508 133.438 290.048 133.198 290.678 133.198C291.398 133.198 291.968 133.428 292.378 133.888C292.778 134.348 292.988 134.958 292.988 135.718C292.988 135.838 292.978 135.938 292.968 136.018H289.348C289.348 136.448 289.488 136.798 289.768 137.068C290.048 137.348 290.388 137.478 290.798 137.478C291.478 137.478 291.928 137.158 292.148 136.508ZM294.748 135.738C294.748 136.248 294.868 136.658 295.118 136.978C295.368 137.298 295.718 137.458 296.158 137.458C296.578 137.458 296.908 137.298 297.168 136.968C297.418 136.648 297.548 136.228 297.548 135.718C297.548 135.218 297.418 134.818 297.178 134.508C296.928 134.208 296.588 134.048 296.168 134.048C295.738 134.048 295.398 134.208 295.138 134.518C294.878 134.838 294.748 135.238 294.748 135.738ZM297.558 137.508V137.428C297.428 137.678 297.238 137.888 296.978 138.048C296.718 138.208 296.418 138.288 296.068 138.288C295.378 138.288 294.828 138.048 294.408 137.568C293.988 137.088 293.788 136.478 293.788 135.738C293.788 135.038 293.998 134.448 294.428 133.958C294.848 133.468 295.398 133.218 296.068 133.218C296.458 133.218 296.778 133.298 297.028 133.458C297.268 133.618 297.438 133.808 297.538 134.028V130.918H298.468V137.268C298.468 137.598 298.478 137.898 298.518 138.158H297.608C297.568 137.978 297.558 137.758 297.558 137.508Z" fill="#7A7A7A"/>
<path d="M246.972 157.207H309.133C312.25 157.207 314.777 159.733 314.777 162.85V182.547C314.777 185.664 312.25 188.191 309.133 188.191H246.972C243.855 188.191 241.329 185.664 241.329 182.547V162.85C241.329 159.733 243.855 157.207 246.972 157.207Z" fill="#343434"/>
<path d="M242.524 172.698C242.524 173.768 241.697 174.635 240.678 174.635C239.659 174.635 238.833 173.768 238.833 172.698C238.833 171.629 239.659 170.762 240.678 170.762C241.697 170.762 242.524 171.629 242.524 172.698ZM240.678 173.061H168.936V172.335H240.678V173.061Z" fill="url(#paint11_linear_307_2152)"/>
<path d="M255.787 177.886C255.787 177.801 255.788 177.716 255.788 177.631C255.788 177.538 255.787 177.444 255.786 177.35C255.784 177.115 255.782 176.879 255.793 176.641C255.803 176.38 255.725 176.406 255.542 176.51C255.063 176.782 254.583 177.048 254.103 177.315C253.864 177.448 253.624 177.581 253.384 177.715C253.061 177.892 252.816 177.851 252.685 177.595C252.571 177.37 252.68 177.147 252.993 176.975C253.056 176.939 253.118 176.9 253.18 176.862C253.319 176.776 253.457 176.689 253.608 176.636C254.015 176.479 254.14 176.223 254.119 175.786C254.118 175.757 254.117 175.729 254.116 175.702C254.083 174.878 254.083 174.866 253.295 174.488C253.144 174.414 253.024 174.425 252.889 174.518C252.751 174.61 252.612 174.7 252.474 174.79C252.336 174.879 252.198 174.969 252.06 175.061C251.758 175.259 251.533 175.248 251.377 175.025C251.22 174.795 251.299 174.555 251.601 174.352C251.882 174.164 252.164 173.981 252.456 173.809C252.597 173.721 252.665 173.622 252.654 173.45C252.639 173.163 252.644 172.877 252.654 172.59C252.659 172.449 252.618 172.345 252.498 172.266C252.201 172.068 251.909 171.865 251.622 171.651C251.502 171.562 251.413 171.583 251.304 171.672C251.283 171.689 251.262 171.706 251.242 171.723C251.049 171.884 250.853 172.046 250.641 172.183C250.365 172.36 250.256 172.584 250.287 172.918C250.308 173.163 250.375 173.153 250.542 173.054C250.813 172.892 251.084 172.735 251.361 172.595C251.637 172.459 251.935 172.626 251.966 172.913C251.992 173.158 251.836 173.293 251.643 173.403C251.272 173.606 250.902 173.815 250.532 174.029C250.23 174.201 250.172 174.748 250.448 174.967C250.656 175.137 250.867 175.302 251.079 175.466C251.251 175.6 251.422 175.734 251.591 175.869C251.689 175.947 251.768 175.942 251.872 175.885C252.201 175.686 252.534 175.499 252.868 175.316C253.144 175.17 253.447 175.29 253.509 175.572C253.561 175.801 253.447 175.958 253.254 176.067C253.012 176.208 252.768 176.345 252.524 176.484C252.368 176.572 252.211 176.661 252.054 176.75C251.836 176.876 251.773 177.819 251.976 177.97L252.023 178.001C252.164 178.085 252.306 178.167 252.448 178.249C252.59 178.331 252.733 178.414 252.873 178.497C253.009 178.581 253.123 178.581 253.259 178.497C253.66 178.257 254.067 178.028 254.479 177.798C254.708 177.668 254.954 177.725 255.073 177.918C255.198 178.127 255.131 178.388 254.901 178.523C254.774 178.602 254.644 178.675 254.513 178.749C254.462 178.778 254.41 178.807 254.359 178.836C254.131 178.965 254.019 179.027 254.017 179.091C254.016 179.156 254.128 179.223 254.349 179.368C254.547 179.493 254.693 179.498 254.886 179.368C255.12 179.206 255.376 179.07 255.631 178.935C255.751 178.867 255.793 178.784 255.793 178.648C255.785 178.394 255.786 178.14 255.787 177.886Z" fill="#7A7A7A"/>
<path d="M261.867 174.665C262.034 174.769 262.122 174.774 262.117 174.529C262.107 173.903 262.112 173.277 262.117 172.652C262.117 172.516 262.07 172.428 261.966 172.344C261.835 172.247 261.708 172.145 261.581 172.043C261.383 171.884 261.185 171.726 260.975 171.583C260.662 171.37 260.474 171.119 260.537 170.723C260.563 170.545 260.485 170.478 260.297 170.483C259.849 170.493 259.395 170.488 258.947 170.483C258.817 170.483 258.712 170.514 258.608 170.587C258.29 170.801 257.93 170.754 257.696 170.483C257.492 170.243 257.482 169.899 257.675 169.67C257.925 169.372 258.274 169.32 258.608 169.539C258.707 169.607 258.801 169.643 258.921 169.643C259.15 169.641 259.38 169.641 259.609 169.641C259.838 169.641 260.068 169.641 260.297 169.638C260.314 169.638 260.333 169.64 260.351 169.642C260.429 169.649 260.511 169.657 260.532 169.539C260.553 169.43 260.49 169.362 260.407 169.305C259.692 168.846 258.978 168.387 258.264 167.918C258.144 167.834 258.055 167.839 257.941 167.918C257.56 168.173 257.174 168.429 256.788 168.674C256.674 168.746 256.622 168.835 256.622 168.971C256.627 169.847 256.627 170.728 256.627 171.604C256.627 171.617 256.626 171.63 256.626 171.643C256.623 171.712 256.619 171.783 256.69 171.818C256.823 171.877 256.946 171.959 257.07 172.042C257.323 172.209 257.577 172.378 257.92 172.36C258.248 172.35 258.488 172.594 258.54 172.923C258.582 173.204 258.415 173.491 258.134 173.606C257.836 173.731 257.471 173.653 257.336 173.366C257.213 173.106 257.001 172.981 256.777 172.848L256.762 172.839C256.689 172.799 256.617 172.755 256.544 172.711C256.431 172.642 256.317 172.573 256.199 172.516C255.881 172.37 255.771 172.141 255.782 171.791C255.794 171.276 255.792 170.759 255.79 170.242C255.789 169.855 255.788 169.467 255.793 169.08C255.793 168.882 255.751 168.741 255.563 168.637C255.404 168.548 255.25 168.443 255.097 168.34C255.035 168.298 254.973 168.256 254.912 168.215C254.29 167.811 254.286 167.814 253.682 168.217L253.671 168.225C253.524 168.324 253.483 168.429 253.488 168.59C253.493 169.169 253.493 169.753 253.488 170.337C253.483 170.629 253.311 170.817 253.055 170.811C252.81 170.811 252.654 170.629 252.648 170.342V168.903C252.605 168.931 252.563 168.958 252.523 168.984C252.344 169.1 252.191 169.2 252.033 169.289C251.908 169.357 251.872 169.45 251.872 169.586C251.877 169.925 251.882 170.264 251.866 170.603C251.861 170.765 251.929 170.858 252.054 170.942C252.341 171.135 252.627 171.333 252.909 171.536C253.029 171.63 253.134 171.635 253.263 171.557C253.498 171.416 253.744 171.276 253.988 171.15C254.15 171.072 254.218 170.968 254.213 170.785C254.208 170.379 254.208 169.972 254.208 169.56C254.213 169.253 254.364 169.07 254.625 169.07C254.88 169.065 255.047 169.242 255.052 169.549C255.054 169.782 255.054 170.014 255.053 170.245C255.052 170.552 255.051 170.859 255.057 171.166C255.062 171.426 254.953 171.588 254.729 171.703C254.554 171.797 254.381 171.896 254.208 171.995C254.034 172.094 253.861 172.193 253.686 172.287C253.545 172.36 253.478 172.449 253.488 172.61C253.498 172.892 253.498 173.168 253.488 173.444C253.478 173.601 253.54 173.684 253.676 173.747C253.794 173.803 253.912 173.863 254.029 173.923C254.205 174.012 254.381 174.101 254.562 174.179C254.849 174.3 254.979 174.487 254.953 174.805C254.939 174.999 254.943 175.196 254.949 175.394C254.951 175.493 254.953 175.592 254.953 175.691C254.953 175.785 254.963 175.838 255.089 175.801C255.631 175.624 255.787 175.415 255.787 174.837C255.787 174.802 255.786 174.768 255.786 174.733C255.783 174.646 255.781 174.558 255.793 174.472C255.819 174.284 255.735 174.169 255.578 174.075C255.375 173.961 255.177 173.835 254.984 173.7C254.77 173.543 254.724 173.298 254.854 173.105C254.99 172.902 255.219 172.855 255.449 172.996C255.643 173.116 255.834 173.24 256.023 173.363C256.138 173.438 256.252 173.512 256.366 173.585C256.548 173.705 256.632 173.867 256.627 174.091C256.622 174.45 256.623 174.81 256.624 175.17C256.625 175.53 256.627 175.89 256.622 176.249C256.616 176.458 256.679 176.536 256.887 176.515C257.044 176.502 257.205 176.507 257.363 176.513C257.395 176.514 257.425 176.515 257.455 176.515C257.597 176.521 257.701 176.484 257.815 176.401C258.102 176.192 258.483 176.244 258.712 176.494C258.931 176.74 258.931 177.11 258.717 177.355C258.483 177.626 258.102 177.668 257.805 177.449C257.727 177.391 257.649 177.35 257.549 177.35C257.305 177.355 257.06 177.355 256.819 177.35C256.674 177.345 256.622 177.402 256.622 177.548C256.627 177.933 256.627 178.314 256.622 178.695C256.622 178.804 256.663 178.867 256.757 178.919C257.049 179.08 257.336 179.242 257.612 179.42C257.742 179.503 257.852 179.488 257.972 179.414C258.77 178.94 259.572 178.47 260.375 178.001C260.495 177.933 260.542 177.85 260.537 177.715C260.535 177.531 260.535 177.349 260.536 177.167C260.537 176.924 260.538 176.682 260.532 176.437C260.532 176.203 260.595 176.02 260.798 175.879C260.923 175.796 261.039 175.699 261.155 175.603C261.2 175.566 261.244 175.529 261.288 175.494C261.289 175.492 261.291 175.491 261.293 175.49C261.35 175.443 261.431 175.377 261.314 175.316C261.216 175.268 261.126 175.204 261.035 175.141C260.83 174.997 260.625 174.853 260.339 174.889C260.214 174.904 260.099 174.863 259.995 174.784C259.765 174.612 259.661 174.341 259.729 174.07C259.792 173.814 260.047 173.617 260.344 173.585C260.584 173.559 260.85 173.716 260.986 173.95C261.003 173.982 261.015 174.015 261.028 174.048C261.057 174.125 261.086 174.202 261.173 174.253C261.408 174.378 261.637 174.518 261.867 174.665Z" fill="#7A7A7A"/>
<path d="M277.11 177.857L275.49 174.957H274.43V177.857H273.44V170.767H276.11C276.76 170.767 277.28 170.977 277.68 171.377C278.08 171.777 278.28 172.277 278.28 172.877C278.28 173.397 278.12 173.837 277.82 174.197C277.51 174.557 277.09 174.787 276.56 174.887L278.25 177.857H277.11ZM274.43 174.077H275.93C276.33 174.077 276.65 173.977 276.9 173.757C277.14 173.537 277.27 173.247 277.27 172.877C277.27 172.507 277.14 172.207 276.9 171.987C276.65 171.767 276.33 171.647 275.93 171.647H274.43V174.077ZM281.396 177.167C281.816 177.167 282.166 177.017 282.456 176.717C282.746 176.417 282.896 175.987 282.896 175.447C282.896 174.917 282.746 174.497 282.456 174.197C282.166 173.897 281.816 173.737 281.396 173.737C280.976 173.737 280.616 173.897 280.326 174.197C280.036 174.497 279.896 174.917 279.896 175.447C279.896 175.987 280.036 176.417 280.326 176.717C280.616 177.017 280.976 177.167 281.396 177.167ZM281.396 172.897C282.106 172.897 282.696 173.147 283.156 173.627C283.616 174.107 283.856 174.717 283.856 175.447C283.856 176.187 283.626 176.807 283.166 177.287C282.706 177.767 282.116 178.007 281.396 178.007C280.676 178.007 280.086 177.767 279.626 177.287C279.166 176.807 278.936 176.187 278.936 175.447C278.936 174.717 279.166 174.107 279.626 173.627C280.086 173.147 280.676 172.897 281.396 172.897ZM284.708 178.117L285.618 177.907C285.648 178.247 285.788 178.537 286.028 178.757C286.268 178.977 286.568 179.087 286.928 179.087C287.908 179.087 288.398 178.567 288.398 177.527V176.837C288.278 177.077 288.088 177.267 287.828 177.407C287.568 177.557 287.268 177.627 286.928 177.627C286.288 177.627 285.758 177.417 285.338 176.977C284.918 176.537 284.718 175.977 284.718 175.297C284.718 174.637 284.918 174.087 285.338 173.637C285.748 173.187 286.278 172.957 286.928 172.957C287.658 172.957 288.148 173.217 288.408 173.717V173.047H289.338V177.497C289.338 177.817 289.288 178.117 289.208 178.397C289.128 178.677 288.998 178.927 288.818 179.157C288.638 179.397 288.378 179.577 288.058 179.707C287.738 179.847 287.358 179.907 286.928 179.907C286.328 179.907 285.828 179.747 285.418 179.407C284.998 179.067 284.768 178.637 284.708 178.117ZM287.068 176.837C287.468 176.837 287.798 176.697 288.058 176.417C288.308 176.137 288.438 175.757 288.438 175.297C288.438 174.837 288.308 174.467 288.058 174.187C287.798 173.907 287.468 173.757 287.068 173.757C286.648 173.757 286.318 173.897 286.058 174.177C285.798 174.457 285.678 174.837 285.678 175.297C285.678 175.777 285.798 176.147 286.048 176.427C286.298 176.707 286.638 176.837 287.068 176.837ZM293.961 177.277C293.831 177.517 293.641 177.707 293.381 177.827C293.121 177.947 292.841 178.007 292.541 178.007C291.991 178.007 291.551 177.827 291.231 177.467C290.901 177.107 290.741 176.637 290.741 176.077V173.047H291.681V175.937C291.681 176.297 291.761 176.597 291.941 176.827C292.121 177.067 292.391 177.177 292.771 177.177C293.141 177.177 293.421 177.067 293.621 176.847C293.811 176.627 293.911 176.327 293.911 175.947V173.047H294.851V176.967C294.851 177.287 294.861 177.577 294.901 177.857H294.001C293.971 177.717 293.961 177.517 293.961 177.277ZM297.016 174.957H299.646C299.626 174.597 299.506 174.307 299.286 174.077C299.056 173.847 298.736 173.727 298.326 173.727C297.946 173.727 297.646 173.857 297.406 174.097C297.166 174.337 297.036 174.627 297.016 174.957ZM299.786 176.207L300.596 176.487C300.456 176.937 300.196 177.307 299.816 177.587C299.436 177.867 298.976 178.007 298.436 178.007C297.756 178.007 297.186 177.777 296.716 177.317C296.246 176.857 296.016 176.227 296.016 175.437C296.016 174.707 296.236 174.097 296.696 173.617C297.146 173.137 297.686 172.897 298.316 172.897C299.036 172.897 299.606 173.127 300.016 173.587C300.416 174.047 300.626 174.657 300.626 175.417C300.626 175.537 300.616 175.637 300.606 175.717H296.986C296.986 176.147 297.126 176.497 297.406 176.767C297.686 177.047 298.026 177.177 298.436 177.177C299.116 177.177 299.566 176.857 299.786 176.207Z" fill="#7A7A7A"/>
<path d="M112.804 118.476H50.6438C47.5268 118.476 45 121.003 45 124.12V143.817C45 146.934 47.5268 149.46 50.6438 149.46H112.804C115.921 149.46 118.448 146.934 118.448 143.817V124.12C118.448 121.003 115.921 118.476 112.804 118.476Z" fill="#343434"/>
<path d="M112.804 118.476H50.6438C47.5268 118.476 45 121.003 45 124.12V143.817C45 146.934 47.5268 149.46 50.6438 149.46H112.804C115.921 149.46 118.448 146.934 118.448 143.817V124.12C118.448 121.003 115.921 118.476 112.804 118.476Z" stroke="url(#paint12_linear_307_2152)" stroke-width="0.6"/>
<path d="M117.148 134.203C117.148 135.17 117.932 135.954 118.899 135.954C119.867 135.954 120.65 135.17 120.65 134.203C120.65 133.236 119.867 132.452 118.899 132.452C117.932 132.452 117.148 133.236 117.148 134.203ZM118.899 134.531H186.967V133.875H118.899V134.531Z" fill="url(#paint13_linear_307_2152)"/>
<path d="M58.2048 129.128C59.0205 129.128 59.8363 129.13 60.6519 129.127C60.7375 129.126 60.7669 129.146 60.7667 129.237C60.764 130.709 60.7682 132.18 60.7637 133.652C60.7613 134.474 60.6427 135.277 60.3193 136.04C59.9423 136.93 59.3253 137.603 58.4786 138.065C57.7786 138.447 57.0216 138.647 56.2363 138.752C56.0716 138.773 55.9058 138.788 55.7407 138.808C55.6751 138.816 55.6504 138.795 55.6506 138.725C55.6529 138.127 55.6527 137.529 55.6509 136.931C55.6507 136.87 55.6731 136.849 55.731 136.838C56.0711 136.771 56.4121 136.695 56.6993 136.491C57.2947 136.069 57.6763 135.515 57.7079 134.761C57.7139 134.617 57.7131 134.473 57.7223 134.329C57.7276 134.248 57.6971 134.227 57.6189 134.228C57.0048 134.23 56.3906 134.229 55.7764 134.229C55.6936 134.229 55.6521 134.187 55.6521 134.103C55.6521 132.487 55.6522 130.872 55.6522 129.256C55.6523 129.171 55.6938 129.129 55.7769 129.128C56.5862 129.128 57.3955 129.128 58.2048 129.128Z" fill="#7A7A7A"/>
<path d="M68.6883 133.64C68.6883 133.07 68.7883 132.55 68.9883 132.07C69.1883 131.6 69.4583 131.21 69.7983 130.91C70.1383 130.61 70.5183 130.37 70.9383 130.2C71.3583 130.04 71.7883 129.95 72.2483 129.95C72.6983 129.95 73.1383 130.04 73.5583 130.2C73.9783 130.37 74.3483 130.61 74.6883 130.91C75.0283 131.21 75.2983 131.6 75.4983 132.07C75.6983 132.55 75.8083 133.07 75.8083 133.64C75.8083 134.7 75.4683 135.58 74.8083 136.26L75.6383 137.19L74.9683 137.78L74.1083 136.83C73.5483 137.17 72.9283 137.34 72.2483 137.34C71.6383 137.34 71.0683 137.2 70.5383 136.92C69.9983 136.64 69.5583 136.22 69.2083 135.64C68.8583 135.07 68.6883 134.4 68.6883 133.64ZM69.6883 133.64C69.6883 134.52 69.9383 135.21 70.4383 135.7C70.9383 136.2 71.5383 136.44 72.2483 136.44C72.6983 136.44 73.1083 136.34 73.4883 136.13L72.2583 134.75L72.9383 134.16L74.1783 135.56C74.5983 135.06 74.8083 134.42 74.8083 133.64C74.8083 132.76 74.5583 132.08 74.0583 131.59C73.5583 131.1 72.9483 130.85 72.2483 130.85C71.5383 130.85 70.9383 131.1 70.4383 131.59C69.9383 132.08 69.6883 132.76 69.6883 133.64ZM79.1159 136.5C79.5359 136.5 79.8859 136.35 80.1759 136.05C80.4659 135.75 80.6159 135.32 80.6159 134.78C80.6159 134.25 80.4659 133.83 80.1759 133.53C79.8859 133.23 79.5359 133.07 79.1159 133.07C78.6959 133.07 78.3359 133.23 78.0459 133.53C77.7559 133.83 77.6159 134.25 77.6159 134.78C77.6159 135.32 77.7559 135.75 78.0459 136.05C78.3359 136.35 78.6959 136.5 79.1159 136.5ZM79.1159 132.23C79.8259 132.23 80.4159 132.48 80.8759 132.96C81.3359 133.44 81.5759 134.05 81.5759 134.78C81.5759 135.52 81.3459 136.14 80.8859 136.62C80.4259 137.1 79.8359 137.34 79.1159 137.34C78.3959 137.34 77.8059 137.1 77.3459 136.62C76.8859 136.14 76.6559 135.52 76.6559 134.78C76.6559 134.05 76.8859 133.44 77.3459 132.96C77.8059 132.48 78.3959 132.23 79.1159 132.23ZM85.3909 132.38H86.3609L87.6109 136L88.6709 132.38H89.6609L88.1009 137.19H87.1309L85.8509 133.53L84.6009 137.19H83.6109L82.0309 132.38H83.0609L84.1409 136L85.3909 132.38ZM90.2617 135.9C90.2617 135.49 90.3917 135.16 90.6617 134.91C90.9217 134.66 91.2817 134.5 91.7217 134.44L93.0217 134.25C93.2617 134.22 93.3917 134.1 93.3917 133.89C93.3917 133.64 93.3017 133.43 93.1317 133.27C92.9517 133.11 92.6917 133.03 92.3517 133.03C92.0317 133.03 91.7717 133.12 91.5917 133.3C91.4017 133.48 91.2917 133.71 91.2617 134L90.3617 133.79C90.4017 133.33 90.6117 132.96 90.9917 132.67C91.3617 132.38 91.8117 132.23 92.3317 132.23C93.0117 132.23 93.5117 132.4 93.8417 132.73C94.1617 133.06 94.3317 133.48 94.3317 133.99V136.4C94.3317 136.69 94.3517 136.95 94.3917 137.19H93.4717C93.4317 136.99 93.4217 136.78 93.4217 136.54C93.2817 136.76 93.0917 136.94 92.8317 137.1C92.5717 137.26 92.2517 137.34 91.8717 137.34C91.3917 137.34 91.0117 137.2 90.7117 136.92C90.4117 136.64 90.2617 136.3 90.2617 135.9ZM92.0017 136.55C92.4217 136.55 92.7517 136.44 93.0117 136.21C93.2617 135.99 93.3917 135.63 93.3917 135.13V134.91L91.9217 135.13C91.7017 135.17 91.5317 135.24 91.4117 135.36C91.2817 135.48 91.2217 135.65 91.2217 135.85C91.2217 136.04 91.2917 136.2 91.4317 136.34C91.5717 136.48 91.7617 136.55 92.0017 136.55ZM96.7361 137.19H95.7961V129.95H96.7361V137.19ZM99.5952 130.86V132.38H100.635V133.23H99.5952V135.73C99.5952 135.96 99.6452 136.13 99.7452 136.23C99.8452 136.34 100.025 136.39 100.265 136.39C100.405 136.39 100.525 136.38 100.635 136.35V137.15C100.475 137.21 100.255 137.24 99.9952 137.24C99.5752 137.24 99.2552 137.12 99.0152 136.88C98.7752 136.64 98.6552 136.31 98.6552 135.87V133.23H97.7352V132.38H97.9952C98.2352 132.38 98.4252 132.32 98.5452 132.18C98.6652 132.04 98.7352 131.86 98.7352 131.64V130.86H99.5952ZM101.489 135.94L102.339 135.64C102.369 135.9 102.479 136.12 102.679 136.29C102.869 136.46 103.129 136.54 103.459 136.54C103.709 136.54 103.909 136.48 104.059 136.36C104.199 136.24 104.279 136.08 104.279 135.9C104.279 135.58 104.069 135.38 103.659 135.28L102.839 135.1C102.459 135.02 102.169 134.86 101.959 134.62C101.739 134.38 101.639 134.09 101.639 133.75C101.639 133.34 101.799 132.98 102.139 132.68C102.479 132.38 102.879 132.23 103.349 132.23C103.649 132.23 103.929 132.28 104.169 132.37C104.409 132.46 104.589 132.58 104.729 132.72C104.859 132.87 104.959 133.01 105.029 133.13C105.089 133.26 105.139 133.39 105.179 133.52L104.349 133.83C104.329 133.75 104.309 133.68 104.279 133.6C104.239 133.52 104.189 133.44 104.119 133.34C104.049 133.25 103.949 133.18 103.819 133.12C103.679 133.06 103.529 133.03 103.349 133.03C103.109 133.03 102.919 133.1 102.769 133.22C102.619 133.35 102.549 133.5 102.549 133.67C102.549 133.98 102.729 134.17 103.099 134.25L103.879 134.42C104.299 134.52 104.629 134.69 104.859 134.94C105.089 135.19 105.209 135.49 105.209 135.85C105.209 136.23 105.049 136.58 104.739 136.88C104.429 137.19 103.999 137.34 103.449 137.34C102.849 137.34 102.389 137.2 102.059 136.9C101.719 136.6 101.529 136.28 101.489 135.94Z" fill="#7A7A7A"/>
<path d="M112.804 157.207H50.6438C47.5268 157.207 45 159.733 45 162.85V182.547C45 185.664 47.5268 188.191 50.6438 188.191H112.804C115.921 188.191 118.448 185.664 118.448 182.547V162.85C118.448 159.733 115.921 157.207 112.804 157.207Z" fill="#343434"/>
<path d="M112.804 157.207H50.6438C47.5268 157.207 45 159.733 45 162.85V182.547C45 185.664 47.5268 188.191 50.6438 188.191H112.804C115.921 188.191 118.448 185.664 118.448 182.547V162.85C118.448 159.733 115.921 157.207 112.804 157.207Z" stroke="url(#paint14_linear_307_2152)" stroke-width="0.6"/>
<path d="M117.148 172.933C117.148 173.9 117.932 174.684 118.899 174.684C119.867 174.684 120.65 173.9 120.65 172.933C120.65 171.966 119.867 171.182 118.899 171.182C117.932 171.182 117.148 171.966 117.148 172.933ZM118.899 173.261H186.967V172.605H118.899V173.261Z" fill="url(#paint15_linear_307_2152)"/>
<path fill-rule="evenodd" clip-rule="evenodd" d="M57.8505 179.476C54.4525 177.783 52.7513 175.456 52.7469 172.497C52.7458 171.928 52.7458 170.997 52.7469 169.702L57.8505 167.857V179.476Z" fill="#7A7A7A"/>
<path fill-rule="evenodd" clip-rule="evenodd" d="M57.8505 179.476C54.4525 177.783 52.7513 175.456 52.7469 172.497C52.7458 171.928 52.7458 170.997 52.7469 169.702L57.8505 167.857V179.476Z" fill="#7A7A7A" fill-opacity="0.4"/>
<path fill-rule="evenodd" clip-rule="evenodd" d="M57.8489 175.907V173.604L62.0445 169.388L62.9066 169.702L62.9073 170.824L57.8489 175.907ZM57.8489 177.961L62.8961 172.889C62.7483 175.663 61.066 177.859 57.8489 179.476V177.961ZM57.8489 171.55V167.857L60.545 168.841L57.8489 171.55V171.55Z" fill="#7A7A7A" fill-opacity="0.6"/>
<path d="M79.5596 177.857H78.5796V174.707H74.9596V177.857H73.9796V170.767H74.9596V173.797H78.5796V170.767H79.5596V177.857ZM80.9136 176.567C80.9136 176.157 81.0436 175.827 81.3136 175.577C81.5736 175.327 81.9336 175.167 82.3736 175.107L83.6736 174.917C83.9136 174.887 84.0436 174.767 84.0436 174.557C84.0436 174.307 83.9536 174.097 83.7836 173.937C83.6036 173.777 83.3436 173.697 83.0036 173.697C82.6836 173.697 82.4236 173.787 82.2436 173.967C82.0536 174.147 81.9436 174.377 81.9136 174.667L81.0136 174.457C81.0536 173.997 81.2636 173.627 81.6436 173.337C82.0136 173.047 82.4636 172.897 82.9836 172.897C83.6636 172.897 84.1636 173.067 84.4936 173.397C84.8136 173.727 84.9836 174.147 84.9836 174.657V177.067C84.9836 177.357 85.0036 177.617 85.0436 177.857H84.1236C84.0836 177.657 84.0736 177.447 84.0736 177.207C83.9336 177.427 83.7436 177.607 83.4836 177.767C83.2236 177.927 82.9036 178.007 82.5236 178.007C82.0436 178.007 81.6636 177.867 81.3636 177.587C81.0636 177.307 80.9136 176.967 80.9136 176.567ZM82.6536 177.217C83.0736 177.217 83.4036 177.107 83.6636 176.877C83.9136 176.657 84.0436 176.297 84.0436 175.797V175.577L82.5736 175.797C82.3536 175.837 82.1836 175.907 82.0636 176.027C81.9336 176.147 81.8736 176.317 81.8736 176.517C81.8736 176.707 81.9436 176.867 82.0836 177.007C82.2236 177.147 82.4136 177.217 82.6536 177.217ZM87.3879 177.857H86.4479V170.617H87.3879V177.857Z" fill="#7A7A7A"/>
<g filter="url(#filter0_d_307_2152)">
<path d="M226.064 110.698C226.072 119.592 223.017 128.217 217.414 135.125C211.815 142.033 204.005 146.802 195.303 148.632C186.598 150.461 177.531 149.24 169.621 145.173C161.712 141.106 155.446 134.44 151.87 126.297C148.294 118.153 147.631 109.027 149.994 100.452C152.352 91.8777 157.593 84.3761 164.831 79.2086C172.07 74.0412 180.866 71.522 189.739 72.075C198.617 72.6279 207.034 76.2187 213.575 82.2446C217.509 85.8681 220.65 90.2669 222.798 95.1642C224.949 100.061 226.06 105.35 226.064 110.698Z" fill="#313131"/>
<path d="M226.067 110.695C225.796 117.998 223.381 125.061 219.125 131.003C214.869 136.944 208.957 141.503 202.132 144.11C195.302 146.717 187.857 147.258 180.723 145.665C173.592 144.073 167.085 140.417 162.012 135.153C156.942 129.889 153.53 123.25 152.209 116.062C150.883 108.874 151.701 101.455 154.563 94.7297C157.42 88.0036 162.197 82.2677 168.295 78.2363C174.392 74.2049 181.54 72.0558 188.847 72.0571C198.844 72.4311 208.307 76.6656 215.248 83.8707C222.189 91.0753 226.067 100.69 226.067 110.695Z" fill="#363636"/>
<path d="M213.574 82.2373L158.947 136.863C157.088 134.841 155.444 132.627 154.05 130.258L206.977 77.335C209.344 78.7301 211.556 80.3735 213.574 82.2373Z" fill="#4B4B4B" fill-opacity="0.37"/>
<path d="M223.392 96.5612L173.258 146.695C169.738 145.311 166.437 143.416 163.468 141.071L217.772 86.7703C220.113 89.7404 222.011 93.0398 223.392 96.5612Z" fill="#4B4B4B" fill-opacity="0.37"/>
<path d="M217.429 110.704C217.455 118.657 214.326 126.297 208.728 131.947C203.133 137.597 195.521 140.797 187.568 140.846C179.616 140.895 171.968 137.788 166.301 132.207C160.638 126.626 157.414 119.027 157.341 111.074V110.704C157.341 102.736 160.509 95.0945 166.142 89.4601C171.775 83.8258 179.417 80.6606 187.387 80.6606H187.757C195.663 80.7553 203.211 83.9622 208.766 89.5858C214.318 95.2098 217.433 102.797 217.433 110.702L217.429 110.704Z" fill="#3F3F3F"/>
<path d="M208.66 89.4494L166.177 131.938C160.618 126.4 157.459 118.901 157.377 111.056V110.687C157.377 102.719 160.544 95.0778 166.177 89.4434C171.811 83.8095 179.453 80.6435 187.419 80.6431H187.789C195.63 80.7356 203.122 83.8968 208.66 89.4494Z" fill="#4B4B4B"/>
<path d="M170.73 101.028C170.79 101.092 170.902 101.151 170.91 101.221C170.988 101.906 171.418 102.366 171.935 102.734C176.711 106.112 181.492 109.488 186.282 112.841C187.444 113.652 188.361 113.605 189.501 112.801C192.113 110.966 194.721 109.128 197.329 107.285C198.805 106.24 199.881 104.881 200.444 103.16C200.642 102.56 200.715 101.921 200.802 101.528C200.802 103.027 200.909 104.765 200.771 106.483C200.599 108.6 199.532 110.346 197.828 111.604C194.988 113.698 192.096 115.718 189.195 117.734C188.257 118.39 187.259 118.218 186.334 117.619C185.387 117.004 184.449 116.377 183.528 115.725C179.715 113.023 175.911 110.307 172.103 107.601C171.448 107.137 170.932 106.589 170.816 105.76C170.82 104.414 170.824 103.067 170.82 101.72C170.82 101.618 170.76 101.516 170.73 101.414C170.73 101.285 170.73 101.157 170.73 101.028Z" fill="#2B2B2B"/>
<path d="M170.73 111.619C170.79 111.659 170.898 111.694 170.902 111.74C170.984 112.504 171.5 112.965 172.068 113.379C174.258 114.971 176.436 116.579 178.648 118.138C181.096 119.863 183.58 121.544 186.054 123.239C187.47 124.209 188.257 124.213 189.669 123.224C192.182 121.47 194.674 119.694 197.182 117.937C198.676 116.89 199.807 115.561 200.397 113.829C200.617 113.185 200.702 112.499 200.939 111.831C200.875 113.695 200.931 115.574 200.711 117.421C200.479 119.4 199.386 121.015 197.785 122.191C194.97 124.26 192.1 126.26 189.234 128.263C188.227 128.965 187.203 128.756 186.248 128.119C185 127.288 183.756 126.453 182.534 125.586C179.009 123.086 175.502 120.571 171.986 118.061C171.358 117.613 170.911 117.05 170.812 116.26C170.816 114.896 170.82 113.531 170.82 112.167C170.82 112.081 170.76 111.995 170.73 111.908C170.73 111.811 170.73 111.715 170.73 111.619Z" fill="#2B2B2B"/>
<path d="M177.689 100.517C177.771 100.424 177.81 100.352 177.874 100.309C179.394 99.2488 180.887 98.1472 182.445 97.1471C184.058 96.1117 185.84 95.5041 187.789 95.5071C189.605 95.5101 191.254 96.085 192.747 97.0782C193.465 97.5585 194.167 98.0887 194.808 98.6709C195.841 99.6116 195.949 101.288 195.127 102.414C194.942 102.666 194.752 102.682 194.507 102.522C194.171 102.299 193.84 102.071 193.5 101.857C190.053 99.6973 186.602 99.7205 183.155 101.86C182.608 102.201 182.066 102.55 181.506 102.872C181.395 102.937 181.184 102.962 181.085 102.899C180.009 102.188 178.95 101.458 177.883 100.729C177.823 100.685 177.776 100.614 177.689 100.517Z" fill="#2B2B2B"/>
<path d="M178.449 98.7446C178.531 98.6517 178.57 98.5798 178.634 98.5368C180.153 97.4769 181.647 96.3752 183.204 95.3751C184.818 94.3397 186.6 93.7321 188.549 93.7351C190.365 93.7381 192.013 94.3131 193.507 95.3063C194.225 95.7865 194.927 96.3167 195.568 96.8989C196.601 97.8396 196.708 99.5158 195.886 100.642C195.701 100.894 195.512 100.911 195.267 100.75C194.931 100.527 194.6 100.299 194.26 100.085C190.813 97.9253 187.361 97.9485 183.914 100.088C183.368 100.429 182.826 100.778 182.266 101.1C182.154 101.165 181.944 101.19 181.845 101.127C180.769 100.416 179.71 99.6858 178.643 98.9568C178.583 98.9133 178.535 98.8419 178.449 98.7446Z" fill="#B4B4B4"/>
<path d="M172.128 99.6318C172.192 99.696 172.3 99.7549 172.309 99.8251C172.386 100.51 172.816 100.97 173.337 101.337C178.114 104.715 182.891 108.092 187.684 111.445C188.842 112.255 189.759 112.208 190.903 111.405C193.511 109.57 196.123 107.731 198.727 105.888C200.203 104.843 201.279 103.485 201.843 101.764C202.04 101.164 202.118 100.524 202.2 100.132C202.2 101.631 202.312 103.368 202.17 105.086C201.997 107.204 200.93 108.949 199.226 110.207C196.39 112.302 193.494 114.321 190.598 116.337C189.655 116.993 188.657 116.822 187.736 116.223C186.789 115.608 185.851 114.981 184.93 114.329C181.118 111.627 177.313 108.911 173.501 106.204C172.847 105.741 172.334 105.193 172.218 104.364C172.218 103.017 172.222 101.671 172.222 100.324C172.222 100.222 172.162 100.119 172.128 100.017C172.128 99.8892 172.128 99.7605 172.128 99.6318Z" fill="#B4B4B4"/>
<path d="M172.128 110.238C172.188 110.278 172.296 110.313 172.3 110.359C172.386 111.123 172.898 111.583 173.466 111.997C175.657 113.59 177.834 115.198 180.046 116.757C182.499 118.482 184.982 120.163 187.452 121.858C188.868 122.828 189.655 122.832 191.071 121.843C193.58 120.089 196.072 118.313 198.58 116.556C200.078 115.509 201.21 114.18 201.795 112.448C202.015 111.804 202.105 111.118 202.337 110.45C202.273 112.314 202.329 114.193 202.114 116.04C201.877 118.019 200.788 119.634 199.187 120.81C196.369 122.879 193.498 124.879 190.632 126.882C189.63 127.584 188.605 127.375 187.646 126.738C186.398 125.907 185.154 125.071 183.932 124.205C180.412 121.705 176.9 119.19 173.384 116.68C172.756 116.232 172.309 115.669 172.21 114.879C172.214 113.515 172.223 112.151 172.218 110.786C172.218 110.7 172.162 110.613 172.128 110.527C172.128 110.43 172.128 110.334 172.128 110.238Z" fill="#B4B4B4"/>
<path d="M218.47 110.729C218.47 114.685 217.712 118.603 216.242 122.257C214.777 125.912 212.62 129.233 209.907 132.03C207.194 134.827 203.97 137.046 200.424 138.56C196.878 140.074 193.076 140.854 189.236 140.854C188.684 140.854 188.131 140.838 187.587 140.806C195.044 140.373 202.053 137.015 207.186 131.422C212.315 125.83 215.17 118.426 215.17 110.73C215.17 103.035 212.315 95.6307 207.186 90.0376C202.053 84.445 195.044 81.0873 187.587 80.6537C188.131 80.6222 188.684 80.6067 189.236 80.6067C196.991 80.6067 204.426 83.7801 209.907 89.4292C215.388 95.0784 218.47 102.74 218.47 110.729Z" fill="#202020"/>
</g>
<path fill-rule="evenodd" clip-rule="evenodd" d="M124.978 31.7749H118.67C116.197 31.7749 114.548 33.5449 114.548 36.0796V42.0229C114.548 44.5599 116.193 46.3276 118.67 46.3276H124.977C127.454 46.3276 129.1 44.5599 129.1 42.0229V36.0796C129.1 33.5427 127.454 31.7749 124.978 31.7749ZM118.67 32.8664H124.978C126.833 32.8664 128.009 34.1288 128.009 36.0796V42.0229C128.009 43.9738 126.833 45.2361 124.977 45.2361H118.67C116.814 45.2361 115.639 43.9739 115.639 42.0229V36.0796C115.639 34.1313 116.818 32.8664 118.67 32.8664Z" fill="#8094FF"/>
<path d="M120.257 35.9961L121.792 40.8208H121.851L123.389 35.9961H124.877L122.688 42.3464H120.958L118.766 35.9961H120.257Z" fill="#8094FF"/>
<path fill-rule="evenodd" clip-rule="evenodd" d="M133.456 27.065C133.546 27.1529 133.547 27.2968 133.459 27.3865L133.299 27.55C133.211 27.6397 133.067 27.6412 132.977 27.5533C132.888 27.4654 132.886 27.3215 132.974 27.2318L133.134 27.0682C133.222 26.9785 133.366 26.9771 133.456 27.065ZM132.655 27.8825C132.745 27.9704 132.746 28.1144 132.658 28.2041L132.338 28.5311C132.25 28.6208 132.106 28.6223 132.016 28.5344C131.927 28.4465 131.925 28.3025 132.013 28.2128L132.333 27.8858C132.421 27.7961 132.565 27.7946 132.655 27.8825ZM131.694 28.8636C131.783 28.9514 131.785 29.0954 131.697 29.1851L131.377 29.5121C131.289 29.6018 131.145 29.6033 131.055 29.5154C130.965 29.4275 130.964 29.2836 131.052 29.1939L131.372 28.8668C131.46 28.7771 131.604 28.7757 131.694 28.8636ZM130.732 29.8446C130.822 29.9325 130.824 30.0765 130.736 30.1662L130.415 30.4932C130.327 30.5829 130.184 30.5844 130.094 30.4965C130.004 30.4086 130.003 30.2646 130.091 30.1749L130.411 29.8479C130.499 29.7582 130.643 29.7567 130.732 29.8446ZM129.771 30.8257C129.861 30.9136 129.862 31.0575 129.775 31.1472L129.454 31.4742C129.366 31.5639 129.222 31.5654 129.133 31.4775C129.043 31.3896 129.041 31.2457 129.129 31.156L129.45 30.8289C129.538 30.7392 129.682 30.7378 129.771 30.8257ZM128.81 31.8067C128.9 31.8946 128.901 32.0386 128.813 32.1283L128.493 32.4553C128.405 32.545 128.261 32.5465 128.171 32.4586C128.082 32.3707 128.08 32.2267 128.168 32.137L128.488 31.81C128.576 31.7203 128.72 31.7188 128.81 31.8067ZM115.353 45.5414C115.443 45.6293 115.444 45.7733 115.356 45.863L115.036 46.19C114.948 46.2797 114.804 46.2812 114.714 46.1933C114.624 46.1054 114.623 45.9614 114.711 45.8717L115.031 45.5447C115.119 45.455 115.263 45.4535 115.353 45.5414ZM114.392 46.5225C114.481 46.6104 114.483 46.7543 114.395 46.844L114.075 47.1711C113.987 47.2608 113.843 47.2622 113.753 47.1743C113.663 47.0864 113.662 46.9425 113.75 46.8528L114.07 46.5258C114.158 46.4361 114.302 46.4346 114.392 46.5225ZM113.43 47.5035C113.52 47.5914 113.522 47.7354 113.434 47.8251L113.113 48.1521C113.025 48.2418 112.881 48.2433 112.792 48.1554C112.702 48.0675 112.701 47.9235 112.788 47.8338L113.109 47.5068C113.197 47.4171 113.341 47.4156 113.43 47.5035ZM112.469 48.4846C112.559 48.5725 112.56 48.7164 112.472 48.8061L112.152 49.1332C112.064 49.2229 111.92 49.2243 111.83 49.1364C111.741 49.0486 111.739 48.9046 111.827 48.8149L112.148 48.4879C112.236 48.3982 112.379 48.3967 112.469 48.4846ZM111.508 49.4656C111.598 49.5535 111.599 49.6975 111.511 49.7872L111.191 50.1142C111.103 50.2039 110.959 50.2054 110.869 50.1175C110.78 50.0296 110.778 49.8856 110.866 49.7959L111.186 49.4689C111.274 49.3792 111.418 49.3777 111.508 49.4656ZM110.547 50.4467C110.636 50.5346 110.638 50.6785 110.55 50.7682L110.39 50.9318C110.302 51.0215 110.158 51.0229 110.068 50.935C109.979 50.8471 109.977 50.7032 110.065 50.6135L110.225 50.45C110.313 50.3603 110.457 50.3588 110.547 50.4467Z" fill="#8094FF"/>
<path fill-rule="evenodd" clip-rule="evenodd" d="M168.018 27.065C168.108 27.1529 168.11 27.2968 168.022 27.3865L167.862 27.55C167.774 27.6397 167.63 27.6412 167.54 27.5533C167.45 27.4654 167.449 27.3215 167.537 27.2318L167.697 27.0682C167.785 26.9785 167.929 26.9771 168.018 27.065ZM167.217 27.8825C167.307 27.9704 167.309 28.1144 167.221 28.2041L166.9 28.5311C166.812 28.6208 166.668 28.6223 166.579 28.5344C166.489 28.4465 166.488 28.3025 166.575 28.2128L166.896 27.8858C166.984 27.7961 167.128 27.7946 167.217 27.8825ZM166.256 28.8636C166.346 28.9514 166.347 29.0954 166.26 29.1851L165.939 29.5121C165.851 29.6018 165.707 29.6033 165.618 29.5154C165.528 29.4275 165.526 29.2836 165.614 29.1939L165.935 28.8668C166.023 28.7771 166.167 28.7757 166.256 28.8636ZM165.295 29.8446C165.385 29.9325 165.386 30.0765 165.298 30.1662L164.978 30.4932C164.89 30.5829 164.746 30.5844 164.656 30.4965C164.567 30.4086 164.565 30.2646 164.653 30.1749L164.973 29.8479C165.061 29.7582 165.205 29.7567 165.295 29.8446ZM164.334 30.8257C164.423 30.9136 164.425 31.0575 164.337 31.1472L164.017 31.4742C163.929 31.5639 163.785 31.5654 163.695 31.4775C163.605 31.3896 163.604 31.2457 163.692 31.156L164.012 30.8289C164.1 30.7392 164.244 30.7378 164.334 30.8257ZM163.373 31.8067C163.462 31.8946 163.464 32.0386 163.376 32.1283L163.055 32.4553C162.968 32.545 162.824 32.5465 162.734 32.4586C162.644 32.3707 162.643 32.2267 162.731 32.137L163.051 31.81C163.139 31.7203 163.283 31.7188 163.373 31.8067ZM149.915 45.5414C150.005 45.6293 150.007 45.7733 149.919 45.863L149.598 46.19C149.51 46.2797 149.366 46.2812 149.277 46.1933C149.187 46.1054 149.186 45.9614 149.273 45.8717L149.594 45.5447C149.682 45.455 149.826 45.4535 149.915 45.5414ZM148.954 46.5225C149.044 46.6104 149.045 46.7543 148.957 46.844L148.637 47.1711C148.549 47.2608 148.405 47.2622 148.315 47.1743C148.226 47.0864 148.224 46.9425 148.312 46.8528L148.633 46.5258C148.72 46.4361 148.864 46.4346 148.954 46.5225ZM147.993 47.5035C148.083 47.5914 148.084 47.7354 147.996 47.8251L147.676 48.1521C147.588 48.2418 147.444 48.2433 147.354 48.1554C147.265 48.0675 147.263 47.9235 147.351 47.8338L147.671 47.5068C147.759 47.4171 147.903 47.4156 147.993 47.5035ZM147.032 48.4846C147.121 48.5725 147.123 48.7164 147.035 48.8061L146.715 49.1332C146.627 49.2229 146.483 49.2243 146.393 49.1364C146.303 49.0486 146.302 48.9046 146.39 48.8149L146.71 48.4879C146.798 48.3982 146.942 48.3967 147.032 48.4846ZM146.07 49.4656C146.16 49.5535 146.162 49.6975 146.074 49.7872L145.753 50.1142C145.665 50.2039 145.521 50.2054 145.432 50.1175C145.342 50.0296 145.341 49.8856 145.428 49.7959L145.749 49.4689C145.837 49.3792 145.981 49.3777 146.07 49.4656ZM145.109 50.4467C145.199 50.5346 145.2 50.6785 145.113 50.7682L144.952 50.9318C144.864 51.0215 144.72 51.0229 144.631 50.935C144.541 50.8471 144.54 50.7032 144.627 50.6135L144.788 50.45C144.876 50.3603 145.02 50.3588 145.109 50.4467Z" fill="#F5A938"/>
<path fill-rule="evenodd" clip-rule="evenodd" d="M159.54 31.7749H153.232C150.76 31.7749 149.11 33.5449 149.11 36.0796V42.0229C149.11 44.5599 150.756 46.3276 153.232 46.3276H159.54C162.017 46.3276 163.663 44.5599 163.663 42.0229V36.0796C163.663 33.5427 162.017 31.7749 159.54 31.7749ZM153.232 32.8664H159.54C161.396 32.8664 162.572 34.1288 162.572 36.0796V42.0229C162.572 43.9738 161.396 45.2361 159.54 45.2361H153.232C151.377 45.2361 150.202 43.9739 150.202 42.0229V36.0796C150.202 34.1313 151.381 32.8664 153.232 32.8664Z" fill="#F5A938"/>
<path d="M152.965 35.9961H154.62L156.369 40.2627H156.444L158.192 35.9961H159.848V42.3464H158.546V38.2131H158.493L156.85 42.3153H155.963L154.32 38.1976H154.267V42.3464H152.965V35.9961Z" fill="#F5A938"/>
<path fill-rule="evenodd" clip-rule="evenodd" d="M203.718 27.065C203.808 27.1529 203.809 27.2968 203.721 27.3865L203.561 27.55C203.473 27.6397 203.329 27.6412 203.239 27.5533C203.15 27.4654 203.148 27.3215 203.236 27.2318L203.396 27.0682C203.484 26.9785 203.628 26.9771 203.718 27.065ZM202.917 27.8825C203.007 27.9704 203.008 28.1144 202.92 28.2041L202.6 28.5311C202.512 28.6208 202.368 28.6223 202.278 28.5344C202.189 28.4465 202.187 28.3025 202.275 28.2128L202.595 27.8858C202.683 27.7961 202.827 27.7946 202.917 27.8825ZM201.956 28.8636C202.045 28.9514 202.047 29.0954 201.959 29.1851L201.639 29.5121C201.551 29.6018 201.407 29.6033 201.317 29.5154C201.227 29.4275 201.226 29.2836 201.314 29.1939L201.634 28.8668C201.722 28.7771 201.866 28.7757 201.956 28.8636ZM200.994 29.8446C201.084 29.9325 201.086 30.0765 200.998 30.1662L200.677 30.4932C200.589 30.5829 200.445 30.5844 200.356 30.4965C200.266 30.4086 200.265 30.2646 200.352 30.1749L200.673 29.8479C200.761 29.7582 200.905 29.7567 200.994 29.8446ZM200.033 30.8257C200.123 30.9136 200.124 31.0575 200.037 31.1472L199.716 31.4742C199.628 31.5639 199.484 31.5654 199.395 31.4775C199.305 31.3896 199.303 31.2457 199.391 31.156L199.712 30.8289C199.8 30.7392 199.944 30.7378 200.033 30.8257ZM199.072 31.8067C199.162 31.8946 199.163 32.0386 199.075 32.1283L198.755 32.4553C198.667 32.545 198.523 32.5465 198.433 32.4586C198.344 32.3707 198.342 32.2267 198.43 32.137L198.75 31.81C198.838 31.7203 198.982 31.7188 199.072 31.8067ZM185.615 45.5414C185.705 45.6293 185.706 45.7733 185.618 45.863L185.298 46.19C185.21 46.2797 185.066 46.2812 184.976 46.1933C184.886 46.1054 184.885 45.9614 184.973 45.8717L185.293 45.5447C185.381 45.455 185.525 45.4535 185.615 45.5414ZM184.654 46.5225C184.743 46.6104 184.745 46.7543 184.657 46.844L184.336 47.1711C184.249 47.2608 184.105 47.2622 184.015 47.1743C183.925 47.0864 183.924 46.9425 184.012 46.8528L184.332 46.5258C184.42 46.4361 184.564 46.4346 184.654 46.5225ZM183.692 47.5035C183.782 47.5914 183.784 47.7354 183.696 47.8251L183.375 48.1521C183.287 48.2418 183.143 48.2433 183.054 48.1554C182.964 48.0675 182.963 47.9235 183.05 47.8338L183.371 47.5068C183.459 47.4171 183.603 47.4156 183.692 47.5035ZM182.731 48.4846C182.821 48.5725 182.822 48.7164 182.734 48.8061L182.414 49.1332C182.326 49.2229 182.182 49.2243 182.092 49.1364C182.003 49.0486 182.001 48.9046 182.089 48.8149L182.41 48.4879C182.497 48.3982 182.641 48.3967 182.731 48.4846ZM181.77 49.4656C181.86 49.5535 181.861 49.6975 181.773 49.7872L181.453 50.1142C181.365 50.2039 181.221 50.2054 181.131 50.1175C181.042 50.0296 181.04 49.8856 181.128 49.7959L181.448 49.4689C181.536 49.3792 181.68 49.3777 181.77 49.4656ZM180.809 50.4467C180.898 50.5346 180.9 50.6785 180.812 50.7682L180.652 50.9318C180.564 51.0215 180.42 51.0229 180.33 50.935C180.241 50.8471 180.239 50.7032 180.327 50.6135L180.487 50.45C180.575 50.3603 180.719 50.3588 180.809 50.4467Z" fill="#33B57B"/>
<path fill-rule="evenodd" clip-rule="evenodd" d="M195.24 31.7749H188.932C186.46 31.7749 184.81 33.5449 184.81 36.0796V42.0229C184.81 44.5599 186.456 46.3276 188.932 46.3276H195.239C197.717 46.3276 199.363 44.5599 199.363 42.0229V36.0796C199.363 33.5427 197.717 31.7749 195.24 31.7749ZM188.932 32.8664H195.24C197.096 32.8664 198.271 34.1288 198.271 36.0796V42.0229C198.271 43.9738 197.096 45.2361 195.239 45.2361H188.932C187.076 45.2361 185.902 43.9739 185.902 42.0229V36.0796C185.902 34.1313 187.08 32.8664 188.932 32.8664Z" fill="#33B57B"/>
<path d="M193.462 36.1411H194.805V40.2651C194.805 40.7281 194.694 41.1333 194.473 41.4806C194.254 41.8278 193.947 42.0986 193.552 42.2929C193.157 42.4852 192.697 42.5813 192.172 42.5813C191.645 42.5813 191.184 42.4852 190.789 42.2929C190.394 42.0986 190.087 41.8278 189.868 41.4806C189.649 41.1333 189.54 40.7281 189.54 40.2651V36.1411H190.882V40.1503C190.882 40.3922 190.935 40.6072 191.04 40.7953C191.148 40.9834 191.299 41.1312 191.493 41.2387C191.687 41.3462 191.914 41.3999 192.172 41.3999C192.433 41.3999 192.659 41.3462 192.851 41.2387C193.045 41.1312 193.195 40.9834 193.301 40.7953C193.408 40.6072 193.462 40.3922 193.462 40.1503V36.1411Z" fill="#33B57B"/>
<path d="M216.923 46.0715C217.024 46.1683 217.026 46.3267 216.927 46.4255L216.568 46.7854C216.469 46.8841 216.308 46.8858 216.207 46.789C216.107 46.6923 216.105 46.5338 216.204 46.4351L216.563 46.0751C216.662 45.9764 216.823 45.9748 216.923 46.0715Z" fill="#D26464"/>
<path d="M215.846 47.1514C215.946 47.2481 215.948 47.4066 215.85 47.5053L215.49 47.8653C215.392 47.964 215.23 47.9656 215.13 47.8689C215.029 47.7721 215.028 47.6137 215.126 47.5149L215.485 47.155C215.584 47.0562 215.745 47.0546 215.846 47.1514Z" fill="#D26464"/>
<path d="M214.768 48.2312C214.869 48.328 214.87 48.4864 214.772 48.5852L214.413 48.9451C214.314 49.0439 214.153 49.0455 214.052 48.9487C213.952 48.852 213.95 48.6935 214.049 48.5948L214.408 48.2348C214.506 48.1361 214.668 48.1345 214.768 48.2312Z" fill="#D26464"/>
<path d="M213.691 49.3111C213.791 49.4078 213.793 49.5663 213.694 49.665L213.335 50.025C213.237 50.1237 213.075 50.1253 212.975 50.0286C212.874 49.9319 212.872 49.7734 212.971 49.6747L213.33 49.3147C213.429 49.216 213.59 49.2144 213.691 49.3111Z" fill="#D26464"/>
<path d="M212.613 50.391C212.714 50.4877 212.715 50.6462 212.617 50.7449L212.437 50.9249C212.338 51.0236 212.177 51.0252 212.077 50.9285C211.976 50.8317 211.974 50.6733 212.073 50.5745L212.252 50.3946C212.351 50.2958 212.512 50.2942 212.613 50.391Z" fill="#D26464"/>
<path fill-rule="evenodd" clip-rule="evenodd" d="M245.923 27.0715C246.024 27.1683 246.026 27.3267 245.927 27.4255L245.748 27.6054C245.649 27.7042 245.488 27.7058 245.387 27.609C245.286 27.5123 245.285 27.3538 245.383 27.2551L245.563 27.0751C245.662 26.9764 245.823 26.9748 245.923 27.0715ZM245.025 27.9714C245.126 28.0681 245.128 28.2266 245.029 28.3253L244.67 28.6853C244.571 28.784 244.41 28.7856 244.309 28.6889C244.209 28.5922 244.207 28.4337 244.306 28.335L244.665 27.975C244.763 27.8763 244.925 27.8747 245.025 27.9714ZM243.948 29.0513C244.048 29.148 244.05 29.3065 243.951 29.4052L243.592 29.7652C243.494 29.8639 243.332 29.8655 243.232 29.7688C243.131 29.672 243.13 29.5136 243.228 29.4148L243.587 29.0549C243.686 28.9561 243.847 28.9545 243.948 29.0513ZM242.87 30.1311C242.971 30.2279 242.972 30.3863 242.874 30.4851L242.515 30.845C242.416 30.9438 242.255 30.9454 242.154 30.8486C242.054 30.7519 242.052 30.5934 242.15 30.4947L242.51 30.1347C242.608 30.036 242.77 30.0344 242.87 30.1311ZM241.793 31.211C241.893 31.3077 241.895 31.4662 241.796 31.5649L241.437 31.9249C241.338 32.0236 241.177 32.0252 241.077 31.9285C240.976 31.8317 240.974 31.6733 241.073 31.5745L241.432 31.2146C241.531 31.1159 241.692 31.1142 241.793 31.211Z" fill="#D26464"/>
<path fill-rule="evenodd" clip-rule="evenodd" d="M219.384 33.1717C218.087 33.1717 217.036 34.2681 217.036 35.6205V42.6538C217.036 44.0063 218.087 45.1027 219.384 45.1027H239.616C240.913 45.1027 241.964 44.0063 241.964 42.6538V35.6205C241.964 34.2681 240.913 33.1717 239.616 33.1717H219.384ZM216 35.6205C216 33.6713 217.515 32.0911 219.384 32.0911H239.616C241.485 32.0911 243 33.6713 243 35.6205V42.6538C243 44.6031 241.485 46.1833 239.616 46.1833H219.384C217.515 46.1833 216 44.6031 216 42.6538V35.6205Z" fill="#D26464"/>
<path d="M238.765 38.2194H237.479C237.456 38.046 237.408 37.8919 237.336 37.7572C237.263 37.6205 237.17 37.5042 237.057 37.4083C236.943 37.3124 236.812 37.239 236.664 37.188C236.517 37.137 236.357 37.1114 236.185 37.1114C235.874 37.1114 235.603 37.192 235.372 37.3532C235.141 37.5124 234.962 37.745 234.835 38.0511C234.708 38.3551 234.645 38.7244 234.645 39.159C234.645 39.6059 234.708 39.9813 234.835 40.2854C234.964 40.5894 235.144 40.8189 235.375 40.974C235.606 41.1291 235.873 41.2066 236.176 41.2066C236.347 41.2066 236.504 41.1832 236.649 41.1362C236.796 41.0893 236.926 41.0209 237.039 40.9312C237.153 40.8393 237.247 40.7281 237.321 40.5975C237.397 40.467 237.45 40.318 237.479 40.1507L238.765 40.1568C238.732 40.4445 238.648 40.722 238.515 40.9893C238.384 41.2546 238.207 41.4923 237.984 41.7024C237.763 41.9106 237.499 42.0758 237.192 42.1983C236.887 42.3187 236.541 42.3789 236.156 42.3789C235.62 42.3789 235.141 42.2523 234.718 41.9993C234.297 41.7463 233.965 41.3801 233.72 40.9006C233.478 40.421 233.356 39.8405 233.356 39.159C233.356 38.4755 233.479 37.894 233.726 37.4145C233.972 36.9349 234.307 36.5697 234.73 36.3187C235.152 36.0657 235.628 35.9392 236.156 35.9392C236.504 35.9392 236.827 35.9902 237.124 36.0922C237.424 36.1943 237.689 36.3432 237.92 36.5391C238.151 36.7329 238.338 36.9707 238.483 37.2522C238.63 37.5338 238.724 37.8562 238.765 38.2194Z" fill="#D26464"/>
<path d="M231.726 38.2194H230.44C230.417 38.046 230.369 37.8919 230.296 37.7572C230.224 37.6205 230.131 37.5042 230.018 37.4083C229.904 37.3124 229.773 37.239 229.624 37.188C229.478 37.137 229.318 37.1114 229.146 37.1114C228.835 37.1114 228.564 37.192 228.333 37.3532C228.102 37.5124 227.923 37.745 227.796 38.0511C227.669 38.3551 227.605 38.7244 227.605 39.159C227.605 39.6059 227.669 39.9813 227.796 40.2854C227.925 40.5894 228.105 40.8189 228.336 40.974C228.567 41.1291 228.834 41.2066 229.137 41.2066C229.307 41.2066 229.465 41.1832 229.61 41.1362C229.756 41.0893 229.886 41.0209 230 40.9312C230.113 40.8393 230.207 40.7281 230.282 40.5975C230.358 40.467 230.411 40.318 230.44 40.1507L231.726 40.1568C231.692 40.4445 231.609 40.722 231.476 40.9893C231.345 41.2546 231.168 41.4923 230.945 41.7024C230.724 41.9106 230.46 42.0758 230.153 42.1983C229.847 42.3187 229.502 42.3789 229.117 42.3789C228.581 42.3789 228.101 42.2523 227.679 41.9993C227.258 41.7463 226.925 41.3801 226.681 40.9006C226.438 40.421 226.317 39.8405 226.317 39.159C226.317 38.4755 226.44 37.894 226.687 37.4145C226.933 36.9349 227.268 36.5697 227.69 36.3187C228.113 36.0657 228.588 35.9392 229.117 35.9392C229.465 35.9392 229.788 35.9902 230.085 36.0922C230.384 36.1943 230.65 36.3432 230.88 36.5391C231.111 36.7329 231.299 36.9707 231.444 37.2522C231.591 37.5338 231.684 37.8562 231.726 38.2194Z" fill="#D26464"/>
<path d="M220.44 42.4055V36.1599H224.476V37.2486H221.707V38.7368H224.268V39.8255H221.707V41.3168H224.487V42.4055H220.44Z" fill="#D26464"/>
<defs>
<filter id="filter0_d_307_2152" x="137.603" y="69" width="93.4639" height="93.4602" filterUnits="userSpaceOnUse" color-interpolation-filters="sRGB">
<feFlood flood-opacity="0" result="BackgroundImageFix"/>
<feColorMatrix in="SourceAlpha" type="matrix" values="0 0 0 0 0 0 0 0 0 0 0 0 0 0 0 0 0 0 127 0" result="hardAlpha"/>
<feOffset dx="-3" dy="5"/>
<feGaussianBlur stdDeviation="4"/>
<feComposite in2="hardAlpha" operator="out"/>
<feColorMatrix type="matrix" values="0 0 0 0 0 0 0 0 0 0 0 0 0 0 0 0 0 0 0.37 0"/>
<feBlend mode="normal" in2="BackgroundImageFix" result="effect1_dropShadow_307_2152"/>
<feBlend mode="normal" in="SourceGraphic" in2="effect1_dropShadow_307_2152" result="shape"/>
</filter>
<linearGradient id="paint0_linear_307_2152" x1="81.7237" y1="80.1374" x2="81.7237" y2="110.339" gradientUnits="userSpaceOnUse">
<stop stop-color="#292929"/>
<stop offset="1" stop-color="#292929" stop-opacity="0.49"/>
</linearGradient>
<linearGradient id="paint1_linear_307_2152" x1="140.646" y1="94.9786" x2="166.831" y2="94.9786" gradientUnits="userSpaceOnUse">
<stop stop-color="#4F4F4F"/>
<stop offset="1" stop-color="#292929" stop-opacity="0"/>
</linearGradient>
<linearGradient id="paint2_linear_307_2152" x1="279.021" y1="80.1376" x2="279.021" y2="110.339" gradientUnits="userSpaceOnUse">
<stop stop-color="#292929"/>
<stop offset="1" stop-color="#292929" stop-opacity="0.49"/>
</linearGradient>
<linearGradient id="paint3_linear_307_2152" x1="222.308" y1="95.2381" x2="198.102" y2="95.2381" gradientUnits="userSpaceOnUse">
<stop stop-color="#4F4F4F"/>
<stop offset="1" stop-color="#292929" stop-opacity="0"/>
</linearGradient>
<linearGradient id="paint4_linear_307_2152" x1="279.021" y1="159.534" x2="279.021" y2="189.736" gradientUnits="userSpaceOnUse">
<stop stop-color="#292929"/>
<stop offset="1" stop-color="#292929" stop-opacity="0.49"/>
</linearGradient>
<linearGradient id="paint5_linear_307_2152" x1="256.293" y1="99.0725" x2="254.68" y2="97.885" gradientUnits="userSpaceOnUse">
<stop stop-color="white"/>
<stop offset="1" stop-opacity="0"/>
</linearGradient>
<linearGradient id="paint6_linear_307_2152" x1="262.439" y1="98.1458" x2="260.832" y2="96.9641" gradientUnits="userSpaceOnUse">
<stop stop-color="white"/>
<stop offset="1" stop-opacity="0"/>
</linearGradient>
<linearGradient id="paint7_linear_307_2152" x1="258.926" y1="91.7333" x2="262.363" y2="96.1322" gradientUnits="userSpaceOnUse">
<stop stop-color="#D0C8C8"/>
<stop offset="1" stop-opacity="0"/>
</linearGradient>
<linearGradient id="paint8_linear_307_2152" x1="259.384" y1="94.5164" x2="258.157" y2="93.2628" gradientUnits="userSpaceOnUse">
<stop stop-color="white"/>
<stop offset="1" stop-opacity="0"/>
</linearGradient>
<linearGradient id="paint9_linear_307_2152" x1="279.021" y1="118.867" x2="279.021" y2="149.069" gradientUnits="userSpaceOnUse">
<stop stop-color="#292929"/>
<stop offset="1" stop-color="#292929" stop-opacity="0.49"/>
</linearGradient>
<linearGradient id="paint10_linear_307_2152" x1="222.308" y1="133.968" x2="198.102" y2="133.968" gradientUnits="userSpaceOnUse">
<stop stop-color="#4F4F4F"/>
<stop offset="1" stop-color="#292929" stop-opacity="0"/>
</linearGradient>
<linearGradient id="paint11_linear_307_2152" x1="220.087" y1="172.439" x2="194.574" y2="172.439" gradientUnits="userSpaceOnUse">
<stop stop-color="#4F4F4F"/>
<stop offset="1" stop-color="#292929" stop-opacity="0"/>
</linearGradient>
<linearGradient id="paint12_linear_307_2152" x1="81.7237" y1="118.868" x2="81.7237" y2="149.069" gradientUnits="userSpaceOnUse">
<stop stop-color="#292929"/>
<stop offset="1" stop-color="#292929" stop-opacity="0.49"/>
</linearGradient>
<linearGradient id="paint13_linear_307_2152" x1="138.436" y1="133.968" x2="162.643" y2="133.968" gradientUnits="userSpaceOnUse">
<stop stop-color="#4F4F4F"/>
<stop offset="1" stop-color="#292929" stop-opacity="0"/>
</linearGradient>
<linearGradient id="paint14_linear_307_2152" x1="81.7237" y1="157.598" x2="81.7237" y2="187.799" gradientUnits="userSpaceOnUse">
<stop stop-color="#292929"/>
<stop offset="1" stop-color="#292929" stop-opacity="0.49"/>
</linearGradient>
<linearGradient id="paint15_linear_307_2152" x1="138.436" y1="172.698" x2="162.643" y2="172.698" gradientUnits="userSpaceOnUse">
<stop stop-color="#4F4F4F"/>
<stop offset="1" stop-color="#292929" stop-opacity="0"/>
</linearGradient>
<clipPath id="clip0_307_2152">
<rect width="8.00232" height="11.619" fill="white" transform="translate(254.143 89.4287)"/>
</clipPath>
</defs>
</svg>
