<?xml version="1.0" encoding="UTF-8"?><svg id="a" xmlns="http://www.w3.org/2000/svg" viewBox="0 0 48 48"><g id="b"><g id="c" transform="translate(-421.000000, -1310.000000)"><g id="d" transform="translate(421.000000, 1310.000000)"><rect id="e" width="48" height="48" style="fill:none;"/><path id="f" d="M30,2h-12V6h12V2Zm-8,26h4v-12h-4v12Zm16.06-13.22l2.84-2.84c-.86-1.02-1.8-1.98-2.82-2.82l-2.84,2.84c-3.1-2.48-7-3.96-11.24-3.96-9.94,0-18,8.06-18,18s8.04,18,18,18,18-8.06,18-18c0-4.24-1.48-8.14-3.94-11.22Zm-14.06,25.22c-7.74,0-14-6.26-14-14s6.26-14,14-14,14,6.26,14,14-6.26,14-14,14Z" style="fill:#7976ff;"/></g></g></g></svg>