<svg width="64" height="64" viewBox="0 0 64 64" fill="none" xmlns="http://www.w3.org/2000/svg">
<path fill-rule="evenodd" clip-rule="evenodd" d="M46.6641 34.666C48.4811 34.666 50.0449 34.6628 51.3155 34.7922C52.6307 34.9258 53.9249 35.2234 55.1086 36.0143C55.9822 36.598 56.7321 37.3479 57.3158 38.2215C58.1067 39.4052 58.4043 40.6994 58.5379 42.0146C58.6643 43.2551 58.6641 44.7746 58.6641 46.5364C58.6641 48.1282 58.6993 49.7319 58.5379 51.3175C58.4043 52.6327 58.1067 53.9268 57.3158 55.1106C56.7321 55.9842 55.9822 56.734 55.1086 57.3178C53.9249 58.1087 52.6307 58.4063 51.3155 58.5399C50.075 58.6663 48.5555 58.666 46.7937 58.666C45.2019 58.666 43.5982 58.7012 42.0126 58.5399C40.6974 58.4063 39.4033 58.1087 38.2195 57.3178C37.3459 56.734 36.5961 55.9842 36.0123 55.1106C35.2214 53.9268 34.9238 52.6327 34.7902 51.3175C34.6609 50.0468 34.6641 48.4831 34.6641 46.666C34.6641 44.849 34.6609 43.2852 34.7902 42.0146C34.9238 40.6994 35.2214 39.4052 36.0123 38.2215C36.5961 37.3479 37.3459 36.598 38.2195 36.0143C39.4033 35.2234 40.6974 34.9258 42.0126 34.7922C43.2833 34.6628 44.847 34.666 46.6641 34.666Z" fill="#7E7E7E"/>
<path fill-rule="evenodd" clip-rule="evenodd" d="M17.3359 34.666C19.153 34.666 20.7166 34.6628 21.9874 34.7922C23.3027 34.9258 24.5967 35.2234 25.7805 36.0143C26.654 36.598 27.4039 37.3479 27.9877 38.2215C28.7786 39.4052 29.0762 40.6994 29.2098 42.0146C29.3362 43.2551 29.3359 44.7746 29.3359 46.5364C29.3359 48.1282 29.3711 49.7319 29.2098 51.3175C29.0762 52.6327 28.7786 53.9268 27.9877 55.1106C27.4039 55.9842 26.654 56.734 25.7805 57.3178C24.5967 58.1087 23.3027 58.4063 21.9874 58.5399C20.7469 58.6663 19.2275 58.666 17.4655 58.666C15.8738 58.666 14.2702 58.7012 12.6845 58.5399C11.3692 58.4063 10.0752 58.1087 8.89138 57.3178C8.01786 56.734 7.26786 55.9842 6.68418 55.1106C5.89322 53.9268 5.59581 52.6327 5.462 51.3175C5.33272 50.0468 5.33594 48.4831 5.33594 46.666C5.33594 44.849 5.33272 43.2852 5.462 42.0146C5.59581 40.6994 5.89322 39.4052 6.68418 38.2215C7.26786 37.3479 8.01786 36.598 8.89138 36.0143C10.0752 35.2234 11.3692 34.9258 12.6845 34.7922C13.9553 34.6628 15.5188 34.666 17.3359 34.666Z" fill="#7E7E7E"/>
<path fill-rule="evenodd" clip-rule="evenodd" d="M17.3359 5.33399C19.153 5.33399 20.7166 5.33077 21.9874 5.46005C23.3027 5.59386 24.5967 5.89127 25.7805 6.68223C26.654 7.26591 27.4039 8.01591 27.9877 8.88943C28.7786 10.0732 29.0762 11.3673 29.2098 12.6826C29.3362 13.923 29.3359 15.4425 29.3359 17.2045C29.3359 18.7961 29.3711 20.3998 29.2098 21.9854C29.0762 23.3007 28.7786 24.5948 27.9877 25.7786C27.4039 26.6521 26.654 27.402 25.7805 27.9857C24.5967 28.7767 23.3027 29.0743 21.9874 29.2079C20.7469 29.3343 19.2275 29.334 17.4655 29.334C15.8738 29.334 14.2702 29.3692 12.6845 29.2079C11.3692 29.0743 10.0752 28.7767 8.89138 27.9857C8.01786 27.402 7.26786 26.6521 6.68418 25.7786C5.89322 24.5948 5.59581 23.3007 5.462 21.9854C5.33272 20.7147 5.33594 19.1511 5.33594 17.334C5.33594 15.5169 5.33272 13.9533 5.462 12.6826C5.59581 11.3673 5.89322 10.0732 6.68418 8.88943C7.26786 8.01591 8.01786 7.26591 8.89138 6.68223C10.0752 5.89127 11.3692 5.59386 12.6845 5.46005C13.9553 5.33077 15.5188 5.33399 17.3359 5.33399Z" fill="#7E7E7E"/>
<path fill-rule="evenodd" clip-rule="evenodd" d="M49.3307 8.00065C49.3307 6.5279 48.1369 5.33398 46.6641 5.33398C45.1913 5.33398 43.9974 6.5279 43.9974 8.00065V14.6673H37.3307C35.8579 14.6673 34.6641 15.8612 34.6641 17.334C34.6641 18.8067 35.8579 20.0007 37.3307 20.0007H43.9974V26.6673C43.9974 28.1401 45.1913 29.334 46.6641 29.334C48.1369 29.334 49.3307 28.1401 49.3307 26.6673V20.0007H55.9974C57.4702 20.0007 58.6641 18.8067 58.6641 17.334C58.6641 15.8612 57.4702 14.6673 55.9974 14.6673H49.3307V8.00065Z" fill="#7E7E7E"/>
</svg>
