<svg width="298" height="18" viewBox="0 0 298 18" fill="none" xmlns="http://www.w3.org/2000/svg">
<path fill-rule="evenodd" clip-rule="evenodd" d="M11.2209 3.58008H6.48997C4.63583 3.58008 3.39844 4.90761 3.39844 6.80859V11.2661C3.39844 13.1689 4.63252 14.4946 6.48997 14.4946H11.2203C13.0783 14.4946 14.3129 13.1689 14.3129 11.2661V6.80859C14.3129 4.90592 13.0784 3.58008 11.2209 3.58008ZM6.48997 4.39867H11.2209C12.6127 4.39867 13.4944 5.34548 13.4944 6.80859V11.2661C13.4944 12.7292 12.6127 13.676 11.2203 13.676H6.48997C5.09824 13.676 4.21703 12.7293 4.21703 11.2661V6.80859C4.21703 5.34734 5.10129 4.39867 6.48997 4.39867Z" fill="#8094FF"/>
<path d="M7.68108 6.74609L8.83224 10.3646H8.87639L10.0299 6.74609H11.1461L9.5043 11.5088H8.20667L6.5625 6.74609H7.68108Z" fill="#8094FF"/>
<path fill-rule="evenodd" clip-rule="evenodd" d="M17.592 0.0487247C17.6592 0.114642 17.6604 0.222615 17.5944 0.289891L17.4743 0.412522C17.4084 0.479798 17.3004 0.4809 17.2331 0.414982C17.1658 0.349067 17.1647 0.241092 17.2307 0.173817L17.3508 0.051187C17.4167 -0.0160893 17.5247 -0.0171908 17.592 0.0487247ZM16.9912 0.661881C17.0585 0.727796 17.0596 0.835771 16.9937 0.903045L16.7534 1.14831C16.6874 1.21559 16.5795 1.21669 16.5122 1.15077C16.4449 1.08485 16.4438 0.976882 16.5097 0.909606L16.75 0.664341C16.816 0.597065 16.9239 0.595963 16.9912 0.661881ZM16.2703 1.39767C16.3376 1.46358 16.3387 1.57156 16.2727 1.63884L16.0324 1.8841C15.9665 1.95137 15.8586 1.95248 15.7913 1.88656C15.724 1.82064 15.7229 1.71267 15.7888 1.64539L16.0291 1.40013C16.095 1.33285 16.203 1.33175 16.2703 1.39767ZM15.5494 2.13346C15.6166 2.19937 15.6177 2.30735 15.5518 2.37462L15.3115 2.61989C15.2456 2.68716 15.1376 2.68826 15.0704 2.62235C15.0031 2.55643 15.002 2.44846 15.0679 2.38118L15.3082 2.13592C15.3741 2.06864 15.4821 2.06754 15.5494 2.13346ZM14.8284 2.86925C14.8957 2.93516 14.8968 3.04314 14.8309 3.11041L14.5906 3.35567C14.5247 3.42295 14.4167 3.42405 14.3494 3.35814C14.2822 3.29222 14.2811 3.18425 14.347 3.11697L14.5873 2.87171C14.6532 2.80443 14.7612 2.80333 14.8284 2.86925ZM14.1075 3.60503C14.1748 3.67095 14.1759 3.77892 14.11 3.8462L13.8697 4.09146C13.8038 4.15874 13.6958 4.15984 13.6285 4.09392C13.5612 4.02801 13.5601 3.92003 13.6261 3.85276L13.8664 3.6075C13.9323 3.54022 14.0403 3.53912 14.1075 3.60503ZM4.01465 13.9061C4.08192 13.972 4.08302 14.08 4.01711 14.1472L3.7768 14.3925C3.71088 14.4598 3.60291 14.4609 3.53563 14.395C3.46836 14.329 3.46726 14.2211 3.53317 14.1538L3.77348 13.9085C3.8394 13.8413 3.94737 13.8402 4.01465 13.9061ZM3.29373 14.6419C3.361 14.7078 3.3621 14.8158 3.29619 14.883L3.05588 15.1283C2.98996 15.1956 2.88199 15.1967 2.81471 15.1308C2.74744 15.0648 2.74634 14.9569 2.81225 14.8896L3.05256 14.6443C3.11848 14.577 3.22645 14.5759 3.29373 14.6419ZM2.57281 15.3777C2.64008 15.4436 2.64118 15.5515 2.57527 15.6188L2.33496 15.8641C2.26904 15.9314 2.16107 15.9325 2.09379 15.8665C2.02652 15.8006 2.02542 15.6927 2.09133 15.6254L2.33164 15.3801C2.39756 15.3128 2.50553 15.3117 2.57281 15.3777ZM1.85189 16.1134C1.91916 16.1794 1.92026 16.2873 1.85435 16.3546L1.61404 16.5999C1.54812 16.6671 1.44015 16.6682 1.37287 16.6023C1.3056 16.5364 1.3045 16.4284 1.37041 16.3612L1.61072 16.1159C1.67664 16.0486 1.78461 16.0475 1.85189 16.1134ZM1.13097 16.8492C1.19824 16.9151 1.19934 17.0231 1.13343 17.0904L0.89312 17.3357C0.827203 17.4029 0.71923 17.404 0.651954 17.3381C0.584678 17.2722 0.583576 17.1642 0.649492 17.097L0.889799 16.8517C0.955715 16.7844 1.06369 16.7833 1.13097 16.8492ZM0.410045 17.585C0.477321 17.6509 0.478423 17.7589 0.412506 17.8262L0.292353 17.9488C0.226437 18.0161 0.118463 18.0172 0.0511869 17.9513C-0.0160891 17.8854 -0.0171912 17.7774 0.0487253 17.7101L0.168879 17.5875C0.234795 17.5202 0.342769 17.5191 0.410045 17.585Z" fill="#8094FF"/>
<path fill-rule="evenodd" clip-rule="evenodd" d="M92.592 0.0487247C92.6592 0.114642 92.6604 0.222615 92.5944 0.289891L92.4743 0.412522C92.4084 0.479798 92.3004 0.4809 92.2331 0.414982C92.1658 0.349067 92.1647 0.241092 92.2307 0.173817L92.3508 0.051187C92.4167 -0.0160893 92.5247 -0.0171908 92.592 0.0487247ZM91.9912 0.661881C92.0585 0.727796 92.0596 0.835771 91.9937 0.903045L91.7534 1.14831C91.6874 1.21559 91.5795 1.21669 91.5122 1.15077C91.4449 1.08485 91.4438 0.976882 91.5097 0.909606L91.75 0.664341C91.816 0.597065 91.9239 0.595963 91.9912 0.661881ZM91.2703 1.39767C91.3376 1.46358 91.3387 1.57156 91.2727 1.63884L91.0324 1.8841C90.9665 1.95137 90.8586 1.95248 90.7913 1.88656C90.724 1.82064 90.7229 1.71267 90.7888 1.64539L91.0291 1.40013C91.095 1.33285 91.203 1.33175 91.2703 1.39767ZM90.5494 2.13346C90.6166 2.19937 90.6177 2.30735 90.5518 2.37462L90.3115 2.61989C90.2456 2.68716 90.1376 2.68826 90.0704 2.62235C90.0031 2.55643 90.002 2.44846 90.0679 2.38118L90.3082 2.13592C90.3741 2.06864 90.4821 2.06754 90.5494 2.13346ZM89.8284 2.86925C89.8957 2.93516 89.8968 3.04314 89.8309 3.11041L89.5906 3.35567C89.5247 3.42295 89.4167 3.42405 89.3494 3.35814C89.2822 3.29222 89.2811 3.18425 89.347 3.11697L89.5873 2.87171C89.6532 2.80443 89.7612 2.80333 89.8284 2.86925ZM89.1075 3.60503C89.1748 3.67095 89.1759 3.77892 89.11 3.8462L88.8697 4.09146C88.8038 4.15874 88.6958 4.15984 88.6285 4.09392C88.5612 4.02801 88.5601 3.92003 88.6261 3.85276L88.8664 3.6075C88.9323 3.54022 89.0403 3.53912 89.1075 3.60503ZM79.0146 13.9061C79.0819 13.972 79.083 14.08 79.0171 14.1472L78.7768 14.3925C78.7109 14.4598 78.6029 14.4609 78.5356 14.395C78.4684 14.329 78.4673 14.2211 78.5332 14.1538L78.7735 13.9085C78.8394 13.8413 78.9474 13.8402 79.0146 13.9061ZM78.2937 14.6419C78.361 14.7078 78.3621 14.8158 78.2962 14.883L78.0559 15.1283C77.99 15.1956 77.882 15.1967 77.8147 15.1308C77.7474 15.0648 77.7463 14.9569 77.8123 14.8896L78.0526 14.6443C78.1185 14.577 78.2264 14.5759 78.2937 14.6419ZM77.5728 15.3777C77.6401 15.4436 77.6412 15.5515 77.5753 15.6188L77.335 15.8641C77.269 15.9314 77.1611 15.9325 77.0938 15.8665C77.0265 15.8006 77.0254 15.6927 77.0913 15.6254L77.3316 15.3801C77.3976 15.3128 77.5055 15.3117 77.5728 15.3777ZM76.8519 16.1134C76.9192 16.1794 76.9203 16.2873 76.8543 16.3546L76.614 16.5999C76.5481 16.6671 76.4401 16.6682 76.3729 16.6023C76.3056 16.5364 76.3045 16.4284 76.3704 16.3612L76.6107 16.1159C76.6766 16.0486 76.7846 16.0475 76.8519 16.1134ZM76.131 16.8492C76.1982 16.9151 76.1993 17.0231 76.1334 17.0904L75.8931 17.3357C75.8272 17.4029 75.7192 17.404 75.652 17.3381C75.5847 17.2722 75.5836 17.1642 75.6495 17.097L75.8898 16.8517C75.9557 16.7844 76.0637 16.7833 76.131 16.8492ZM75.41 17.585C75.4773 17.6509 75.4784 17.7589 75.4125 17.8262L75.2924 17.9488C75.2264 18.0161 75.1185 18.0172 75.0512 17.9513C74.9839 17.8854 74.9828 17.7774 75.0487 17.7101L75.1689 17.5875C75.2348 17.5202 75.3428 17.5191 75.41 17.585Z" fill="#F5A938"/>
<path fill-rule="evenodd" clip-rule="evenodd" d="M86.2209 3.58008H81.49C79.6358 3.58008 78.3984 4.90761 78.3984 6.80859V11.2661C78.3984 13.1689 79.6325 14.4946 81.49 14.4946H86.2203C88.0783 14.4946 89.3129 13.1689 89.3129 11.2661V6.80859C89.3129 4.90592 88.0784 3.58008 86.2209 3.58008ZM81.49 4.39867H86.2209C87.6127 4.39867 88.4944 5.34548 88.4944 6.80859V11.2661C88.4944 12.7292 87.6127 13.676 86.2203 13.676H81.49C80.0983 13.676 79.217 12.7293 79.217 11.2661V6.80859C79.217 5.34734 80.1013 4.39867 81.49 4.39867Z" fill="#F5A938"/>
<path d="M81.2969 6.74609H82.5387L83.8503 9.94602H83.9061L85.2177 6.74609H86.4595V11.5088H85.4828V8.40888H85.4433L84.2108 11.4855H83.5456L82.3131 8.3972H82.2736V11.5088H81.2969V6.74609Z" fill="#F5A938"/>
<path fill-rule="evenodd" clip-rule="evenodd" d="M176.592 0.0487247C176.659 0.114642 176.66 0.222615 176.594 0.289891L176.474 0.412522C176.408 0.479798 176.3 0.4809 176.233 0.414982C176.166 0.349067 176.165 0.241092 176.231 0.173817L176.351 0.051187C176.417 -0.0160893 176.525 -0.0171908 176.592 0.0487247ZM175.991 0.661881C176.058 0.727796 176.06 0.835771 175.994 0.903045L175.753 1.14831C175.687 1.21559 175.579 1.21669 175.512 1.15077C175.445 1.08485 175.444 0.976882 175.51 0.909606L175.75 0.664341C175.816 0.597065 175.924 0.595963 175.991 0.661881ZM175.27 1.39767C175.338 1.46358 175.339 1.57156 175.273 1.63884L175.032 1.8841C174.967 1.95137 174.859 1.95248 174.791 1.88656C174.724 1.82064 174.723 1.71267 174.789 1.64539L175.029 1.40013C175.095 1.33285 175.203 1.33175 175.27 1.39767ZM174.549 2.13346C174.617 2.19937 174.618 2.30735 174.552 2.37462L174.312 2.61989C174.246 2.68716 174.138 2.68826 174.07 2.62235C174.003 2.55643 174.002 2.44846 174.068 2.38118L174.308 2.13592C174.374 2.06864 174.482 2.06754 174.549 2.13346ZM173.828 2.86925C173.896 2.93516 173.897 3.04314 173.831 3.11041L173.591 3.35567C173.525 3.42295 173.417 3.42405 173.349 3.35814C173.282 3.29222 173.281 3.18425 173.347 3.11697L173.587 2.87171C173.653 2.80443 173.761 2.80333 173.828 2.86925ZM173.108 3.60503C173.175 3.67095 173.176 3.77892 173.11 3.8462L172.87 4.09146C172.804 4.15874 172.696 4.15984 172.629 4.09392C172.561 4.02801 172.56 3.92003 172.626 3.85276L172.866 3.6075C172.932 3.54022 173.04 3.53912 173.108 3.60503ZM163.015 13.9061C163.082 13.972 163.083 14.08 163.017 14.1472L162.777 14.3925C162.711 14.4598 162.603 14.4609 162.536 14.395C162.468 14.329 162.467 14.2211 162.533 14.1538L162.773 13.9085C162.839 13.8413 162.947 13.8402 163.015 13.9061ZM162.294 14.6419C162.361 14.7078 162.362 14.8158 162.296 14.883L162.056 15.1283C161.99 15.1956 161.882 15.1967 161.815 15.1308C161.747 15.0648 161.746 14.9569 161.812 14.8896L162.053 14.6443C162.118 14.577 162.226 14.5759 162.294 14.6419ZM161.573 15.3777C161.64 15.4436 161.641 15.5515 161.575 15.6188L161.335 15.8641C161.269 15.9314 161.161 15.9325 161.094 15.8665C161.027 15.8006 161.025 15.6927 161.091 15.6254L161.332 15.3801C161.398 15.3128 161.506 15.3117 161.573 15.3777ZM160.852 16.1134C160.919 16.1794 160.92 16.2873 160.854 16.3546L160.614 16.5999C160.548 16.6671 160.44 16.6682 160.373 16.6023C160.306 16.5364 160.304 16.4284 160.37 16.3612L160.611 16.1159C160.677 16.0486 160.785 16.0475 160.852 16.1134ZM160.131 16.8492C160.198 16.9151 160.199 17.0231 160.133 17.0904L159.893 17.3357C159.827 17.4029 159.719 17.404 159.652 17.3381C159.585 17.2722 159.584 17.1642 159.649 17.097L159.89 16.8517C159.956 16.7844 160.064 16.7833 160.131 16.8492ZM159.41 17.585C159.477 17.6509 159.478 17.7589 159.413 17.8262L159.292 17.9488C159.226 18.0161 159.118 18.0172 159.051 17.9513C158.984 17.8854 158.983 17.7774 159.049 17.7101L159.169 17.5875C159.235 17.5202 159.343 17.5191 159.41 17.585Z" fill="#33B57B"/>
<path fill-rule="evenodd" clip-rule="evenodd" d="M170.221 3.58008H165.49C163.636 3.58008 162.398 4.90761 162.398 6.80859V11.2661C162.398 13.1689 163.633 14.4946 165.49 14.4946H170.22C172.078 14.4946 173.313 13.1689 173.313 11.2661V6.80859C173.313 4.90592 172.078 3.58008 170.221 3.58008ZM165.49 4.39867H170.221C171.613 4.39867 172.494 5.34548 172.494 6.80859V11.2661C172.494 12.7292 171.613 13.676 170.22 13.676H165.49C164.098 13.676 163.217 12.7293 163.217 11.2661V6.80859C163.217 5.34734 164.101 4.39867 165.49 4.39867Z" fill="#33B57B"/>
<path d="M168.887 6.85547H169.894V9.94842C169.894 10.2957 169.811 10.5996 169.645 10.8601C169.481 11.1205 169.251 11.3236 168.955 11.4693C168.658 11.6135 168.313 11.6856 167.92 11.6856C167.524 11.6856 167.179 11.6135 166.882 11.4693C166.586 11.3236 166.356 11.1205 166.192 10.8601C166.027 10.5996 165.945 10.2957 165.945 9.94842V6.85547H166.952V9.86236C166.952 10.0438 166.992 10.205 167.071 10.3461C167.151 10.4872 167.265 10.5981 167.41 10.6787C167.556 10.7593 167.726 10.7996 167.92 10.7996C168.115 10.7996 168.285 10.7593 168.429 10.6787C168.575 10.5981 168.687 10.4872 168.766 10.3461C168.847 10.205 168.887 10.0438 168.887 9.86236V6.85547Z" fill="#33B57B"/>
<path fill-rule="evenodd" clip-rule="evenodd" d="M253.592 0.0487247C253.659 0.114642 253.66 0.222615 253.594 0.289891L253.474 0.412522C253.408 0.479798 253.3 0.4809 253.233 0.414982C253.166 0.349067 253.165 0.241092 253.231 0.173817L253.351 0.051187C253.417 -0.0160893 253.525 -0.0171908 253.592 0.0487247ZM252.991 0.661881C253.058 0.727796 253.06 0.835771 252.994 0.903045L252.753 1.14831C252.687 1.21559 252.579 1.21669 252.512 1.15077C252.445 1.08485 252.444 0.976882 252.51 0.909606L252.75 0.664341C252.816 0.597065 252.924 0.595963 252.991 0.661881ZM252.27 1.39767C252.338 1.46358 252.339 1.57156 252.273 1.63884L252.032 1.8841C251.967 1.95137 251.859 1.95248 251.791 1.88656C251.724 1.82064 251.723 1.71267 251.789 1.64539L252.029 1.40013C252.095 1.33285 252.203 1.33175 252.27 1.39767ZM251.549 2.13346C251.617 2.19937 251.618 2.30735 251.552 2.37462L251.312 2.61989C251.246 2.68716 251.138 2.68826 251.07 2.62235C251.003 2.55643 251.002 2.44846 251.068 2.38118L251.308 2.13592C251.374 2.06864 251.482 2.06754 251.549 2.13346ZM250.828 2.86925C250.896 2.93516 250.897 3.04314 250.831 3.11041L250.591 3.35567C250.525 3.42295 250.417 3.42405 250.349 3.35814C250.282 3.29222 250.281 3.18425 250.347 3.11697L250.587 2.87171C250.653 2.80443 250.761 2.80333 250.828 2.86925ZM250.108 3.60503C250.175 3.67095 250.176 3.77892 250.11 3.8462L249.87 4.09146C249.804 4.15874 249.696 4.15984 249.629 4.09392C249.561 4.02801 249.56 3.92003 249.626 3.85276L249.866 3.6075C249.932 3.54022 250.04 3.53912 250.108 3.60503ZM240.015 13.9061C240.082 13.972 240.083 14.08 240.017 14.1472L239.777 14.3925C239.711 14.4598 239.603 14.4609 239.536 14.395C239.468 14.329 239.467 14.2211 239.533 14.1538L239.773 13.9085C239.839 13.8413 239.947 13.8402 240.015 13.9061ZM239.294 14.6419C239.361 14.7078 239.362 14.8158 239.296 14.883L239.056 15.1283C238.99 15.1956 238.882 15.1967 238.815 15.1308C238.747 15.0648 238.746 14.9569 238.812 14.8896L239.053 14.6443C239.118 14.577 239.226 14.5759 239.294 14.6419ZM238.573 15.3777C238.64 15.4436 238.641 15.5515 238.575 15.6188L238.335 15.8641C238.269 15.9314 238.161 15.9325 238.094 15.8665C238.027 15.8006 238.025 15.6927 238.091 15.6254L238.332 15.3801C238.398 15.3128 238.506 15.3117 238.573 15.3777ZM237.852 16.1134C237.919 16.1794 237.92 16.2873 237.854 16.3546L237.614 16.5999C237.548 16.6671 237.44 16.6682 237.373 16.6023C237.306 16.5364 237.304 16.4284 237.37 16.3612L237.611 16.1159C237.677 16.0486 237.785 16.0475 237.852 16.1134ZM237.131 16.8492C237.198 16.9151 237.199 17.0231 237.133 17.0904L236.893 17.3357C236.827 17.4029 236.719 17.404 236.652 17.3381C236.585 17.2722 236.584 17.1642 236.649 17.097L236.89 16.8517C236.956 16.7844 237.064 16.7833 237.131 16.8492ZM236.41 17.585C236.477 17.6509 236.478 17.7589 236.413 17.8262L236.292 17.9488C236.226 18.0161 236.118 18.0172 236.051 17.9513C235.984 17.8854 235.983 17.7774 236.049 17.7101L236.169 17.5875C236.235 17.5202 236.343 17.5191 236.41 17.585Z" fill="#B5B5B5"/>
<path fill-rule="evenodd" clip-rule="evenodd" d="M247.221 3.58008H242.49C240.636 3.58008 239.398 4.90761 239.398 6.80859V11.2661C239.398 13.1689 240.633 14.4946 242.49 14.4946H247.22C249.078 14.4946 250.313 13.1689 250.313 11.2661V6.80859C250.313 4.90592 249.078 3.58008 247.221 3.58008ZM242.49 4.39867H247.221C248.613 4.39867 249.494 5.34548 249.494 6.80859V11.2661C249.494 12.7292 248.613 13.676 247.22 13.676H242.49C241.098 13.676 240.217 12.7293 240.217 11.2661V6.80859C240.217 5.34734 241.101 4.39867 242.49 4.39867Z" fill="#B5B5B5"/>
<path d="M247.367 6.89516L247.381 6.90864L247.367 6.89516ZM247.367 6.89516L243.736 10.5214L242.349 9.13585C242.288 9.07485 242.206 9.04084 242.12 9.04084C242.034 9.04084 241.952 9.07485 241.891 9.13585L241.905 9.14933L241.891 9.13585C241.862 9.16538 241.837 9.20133 241.821 9.24049C241.805 9.27966 241.797 9.3214 241.797 9.36377C241.797 9.40615 241.805 9.44852 241.821 9.48768C241.837 9.52685 241.862 9.56215 241.891 9.59233L243.508 11.2064C243.568 11.2668 243.65 11.3008 243.736 11.3008C243.822 11.3008 243.904 11.2668 243.965 11.2064L247.825 7.35165C247.854 7.32211 247.878 7.28616 247.895 7.247C247.911 7.20783 247.919 7.16609 247.919 7.12372C247.919 7.08134 247.911 7.03897 247.895 6.99981C247.878 6.96065 247.854 6.92534 247.825 6.89516C247.764 6.83481 247.682 6.80078 247.596 6.80078C247.51 6.80078 247.428 6.83481 247.367 6.89516Z" fill="#B5B5B5" stroke="#B5B5B5" stroke-width="0.4"/>
<path d="M20.224 9.232H16.52V8.616H20.224V9.232ZM20.224 10.792H16.52V10.16H20.224V10.792ZM25.3662 10.992L27.0942 6.328H27.9182L25.7342 12H24.9582L22.8222 6.328H23.6542L25.3662 10.992ZM27.9625 10.968C27.9625 10.64 28.0665 10.376 28.2825 10.176C28.4905 9.976 28.7785 9.848 29.1305 9.8L30.1705 9.648C30.3625 9.624 30.4665 9.528 30.4665 9.36C30.4665 9.16 30.3945 8.992 30.2585 8.864C30.1145 8.736 29.9065 8.672 29.6345 8.672C29.3785 8.672 29.1705 8.744 29.0265 8.888C28.8745 9.032 28.7865 9.216 28.7625 9.448L28.0425 9.28C28.0745 8.912 28.2425 8.616 28.5465 8.384C28.8425 8.152 29.2025 8.032 29.6185 8.032C30.1625 8.032 30.5625 8.168 30.8265 8.432C31.0825 8.696 31.2185 9.032 31.2185 9.44V11.368C31.2185 11.6 31.2345 11.808 31.2665 12H30.5305C30.4985 11.84 30.4905 11.672 30.4905 11.48C30.3785 11.656 30.2265 11.8 30.0185 11.928C29.8105 12.056 29.5545 12.12 29.2505 12.12C28.8665 12.12 28.5625 12.008 28.3225 11.784C28.0825 11.56 27.9625 11.288 27.9625 10.968ZM29.3545 11.488C29.6905 11.488 29.9545 11.4 30.1625 11.216C30.3625 11.04 30.4665 10.752 30.4665 10.352V10.176L29.2905 10.352C29.1145 10.384 28.9785 10.44 28.8825 10.536C28.7785 10.632 28.7305 10.768 28.7305 10.928C28.7305 11.08 28.7865 11.208 28.8985 11.32C29.0105 11.432 29.1625 11.488 29.3545 11.488ZM33.142 12H32.39V6.208H33.142V12ZM36.9182 11.536C36.8142 11.728 36.6622 11.88 36.4542 11.976C36.2462 12.072 36.0222 12.12 35.7822 12.12C35.3422 12.12 34.9902 11.976 34.7342 11.688C34.4702 11.4 34.3422 11.024 34.3422 10.576V8.152H35.0942V10.464C35.0942 10.752 35.1582 10.992 35.3022 11.176C35.4462 11.368 35.6622 11.456 35.9662 11.456C36.2622 11.456 36.4862 11.368 36.6462 11.192C36.7982 11.016 36.8782 10.776 36.8782 10.472V8.152H37.6302V11.288C37.6302 11.544 37.6382 11.776 37.6702 12H36.9502C36.9262 11.888 36.9182 11.728 36.9182 11.536ZM39.3624 9.68H41.4664C41.4504 9.392 41.3544 9.16 41.1784 8.976C40.9944 8.792 40.7384 8.696 40.4104 8.696C40.1064 8.696 39.8664 8.8 39.6744 8.992C39.4824 9.184 39.3784 9.416 39.3624 9.68ZM41.5784 10.68L42.2264 10.904C42.1144 11.264 41.9064 11.56 41.6024 11.784C41.2984 12.008 40.9304 12.12 40.4984 12.12C39.9544 12.12 39.4984 11.936 39.1224 11.568C38.7464 11.2 38.5624 10.696 38.5624 10.064C38.5624 9.48 38.7384 8.992 39.1064 8.608C39.4664 8.224 39.8984 8.032 40.4024 8.032C40.9784 8.032 41.4344 8.216 41.7624 8.584C42.0824 8.952 42.2504 9.44 42.2504 10.048C42.2504 10.144 42.2424 10.224 42.2344 10.288H39.3384C39.3384 10.632 39.4504 10.912 39.6744 11.128C39.8984 11.352 40.1704 11.456 40.4984 11.456C41.0424 11.456 41.4024 11.2 41.5784 10.68ZM47.7463 12.12C46.9703 12.12 46.3063 11.856 45.7543 11.32C45.2023 10.792 44.9303 10.072 44.9303 9.16C44.9303 8.552 45.0663 8.024 45.3463 7.56C45.6183 7.104 45.9703 6.768 46.3943 6.544C46.8103 6.32 47.2663 6.208 47.7463 6.208C48.3863 6.208 48.9223 6.376 49.3623 6.696C49.8023 7.016 50.0983 7.456 50.2423 8.008L49.5143 8.264C49.4023 7.84 49.2023 7.512 48.8983 7.28C48.5943 7.048 48.2103 6.928 47.7463 6.928C47.1863 6.928 46.7143 7.128 46.3223 7.52C45.9223 7.912 45.7303 8.456 45.7303 9.16C45.7303 9.864 45.9223 10.416 46.3223 10.808C46.7143 11.208 47.1863 11.4 47.7463 11.4C48.2103 11.4 48.5943 11.28 48.9063 11.032C49.2103 10.784 49.4263 10.456 49.5543 10.04L50.2503 10.296C50.0903 10.848 49.7943 11.288 49.3543 11.624C48.9143 11.96 48.3783 12.12 47.7463 12.12ZM51.8842 9.736V12H51.1322V6.208H51.8842V8.6C52.1402 8.232 52.5242 8.04 53.0522 8.04C53.4922 8.04 53.8282 8.184 54.0682 8.464C54.3082 8.752 54.4282 9.112 54.4282 9.56V12H53.6762V9.688C53.6762 9.048 53.3722 8.72 52.7802 8.72C52.5002 8.72 52.2842 8.816 52.1322 9.008C51.9722 9.2 51.8922 9.44 51.8842 9.736ZM55.3844 10.968C55.3844 10.64 55.4884 10.376 55.7044 10.176C55.9124 9.976 56.2004 9.848 56.5524 9.8L57.5924 9.648C57.7844 9.624 57.8884 9.528 57.8884 9.36C57.8884 9.16 57.8164 8.992 57.6804 8.864C57.5364 8.736 57.3284 8.672 57.0564 8.672C56.8004 8.672 56.5924 8.744 56.4484 8.888C56.2964 9.032 56.2084 9.216 56.1844 9.448L55.4644 9.28C55.4964 8.912 55.6644 8.616 55.9684 8.384C56.2644 8.152 56.6244 8.032 57.0404 8.032C57.5844 8.032 57.9844 8.168 58.2484 8.432C58.5044 8.696 58.6404 9.032 58.6404 9.44V11.368C58.6404 11.6 58.6564 11.808 58.6884 12H57.9524C57.9204 11.84 57.9124 11.672 57.9124 11.48C57.8004 11.656 57.6484 11.8 57.4404 11.928C57.2324 12.056 56.9764 12.12 56.6724 12.12C56.2884 12.12 55.9844 12.008 55.7444 11.784C55.5044 11.56 55.3844 11.288 55.3844 10.968ZM56.7764 11.488C57.1124 11.488 57.3764 11.4 57.5844 11.216C57.7844 11.04 57.8884 10.752 57.8884 10.352V10.176L56.7124 10.352C56.5364 10.384 56.4004 10.44 56.3044 10.536C56.2004 10.632 56.1524 10.768 56.1524 10.928C56.1524 11.08 56.2084 11.208 56.3204 11.32C56.4324 11.432 56.5844 11.488 56.7764 11.488ZM60.5559 12H59.8119V8.152H60.5559V12ZM59.6439 6.696C59.6439 6.552 59.6919 6.424 59.7959 6.312C59.8999 6.208 60.0279 6.152 60.1799 6.152C60.3239 6.152 60.4519 6.208 60.5639 6.312C60.6679 6.416 60.7239 6.544 60.7239 6.696C60.7239 6.848 60.6679 6.976 60.5639 7.08C60.4519 7.184 60.3239 7.232 60.1799 7.232C60.0279 7.232 59.8999 7.184 59.7959 7.08C59.6919 6.976 59.6439 6.848 59.6439 6.696ZM62.5873 9.776V12H61.8353V8.152H62.5713V8.704C62.8273 8.264 63.2193 8.04 63.7553 8.04C64.1953 8.04 64.5313 8.184 64.7713 8.464C65.0113 8.752 65.1313 9.112 65.1313 9.56V12H64.3793V9.688C64.3793 9.048 64.0753 8.72 63.4833 8.72C63.1953 8.72 62.9793 8.824 62.8193 9.024C62.6593 9.224 62.5873 9.472 62.5873 9.776Z" fill="#7E7E7E"/>
<path d="M95.224 9.232H91.52V8.616H95.224V9.232ZM95.224 10.792H91.52V10.16H95.224V10.792ZM104.59 12H103.814V7.584L101.878 12H101.158L99.2382 7.584V12H98.4622V6.328H99.5262L101.526 10.944L103.542 6.328H104.59V12ZM106.441 9.68H108.545C108.529 9.392 108.433 9.16 108.257 8.976C108.073 8.792 107.817 8.696 107.489 8.696C107.185 8.696 106.945 8.8 106.753 8.992C106.561 9.184 106.457 9.416 106.441 9.68ZM108.657 10.68L109.305 10.904C109.193 11.264 108.985 11.56 108.681 11.784C108.377 12.008 108.009 12.12 107.577 12.12C107.033 12.12 106.577 11.936 106.201 11.568C105.825 11.2 105.641 10.696 105.641 10.064C105.641 9.48 105.817 8.992 106.185 8.608C106.545 8.224 106.977 8.032 107.481 8.032C108.057 8.032 108.513 8.216 108.841 8.584C109.161 8.952 109.329 9.44 109.329 10.048C109.329 10.144 109.321 10.224 109.312 10.288H106.417C106.417 10.632 106.529 10.912 106.753 11.128C106.977 11.352 107.249 11.456 107.577 11.456C108.121 11.456 108.481 11.2 108.657 10.68ZM111.296 6.936V8.152H112.128V8.832H111.296V10.832C111.296 11.016 111.336 11.152 111.416 11.232C111.496 11.32 111.64 11.36 111.832 11.36C111.944 11.36 112.04 11.352 112.128 11.328V11.968C112 12.016 111.824 12.04 111.616 12.04C111.28 12.04 111.024 11.944 110.832 11.752C110.64 11.56 110.544 11.296 110.544 10.944V8.832H109.808V8.152H110.016C110.208 8.152 110.36 8.104 110.456 7.992C110.552 7.88 110.608 7.736 110.608 7.56V6.936H111.296ZM113.884 9.736V12H113.132V6.208H113.884V8.6C114.14 8.232 114.524 8.04 115.052 8.04C115.492 8.04 115.828 8.184 116.068 8.464C116.308 8.752 116.428 9.112 116.428 9.56V12H115.676V9.688C115.676 9.048 115.372 8.72 114.78 8.72C114.5 8.72 114.284 8.816 114.132 9.008C113.972 9.2 113.892 9.44 113.884 9.736ZM119.272 11.448C119.608 11.448 119.888 11.328 120.12 11.088C120.352 10.848 120.472 10.504 120.472 10.072C120.472 9.648 120.352 9.312 120.12 9.072C119.888 8.832 119.608 8.704 119.272 8.704C118.936 8.704 118.648 8.832 118.416 9.072C118.184 9.312 118.072 9.648 118.072 10.072C118.072 10.504 118.184 10.848 118.416 11.088C118.648 11.328 118.936 11.448 119.272 11.448ZM119.272 8.032C119.84 8.032 120.312 8.232 120.68 8.616C121.048 9 121.24 9.488 121.24 10.072C121.24 10.664 121.056 11.16 120.688 11.544C120.32 11.928 119.848 12.12 119.272 12.12C118.696 12.12 118.224 11.928 117.856 11.544C117.488 11.16 117.304 10.664 117.304 10.072C117.304 9.488 117.488 9 117.856 8.616C118.224 8.232 118.696 8.032 119.272 8.032ZM122.651 10.064C122.651 10.472 122.747 10.8 122.947 11.056C123.147 11.312 123.427 11.44 123.779 11.44C124.115 11.44 124.379 11.312 124.587 11.048C124.787 10.792 124.891 10.456 124.891 10.048C124.891 9.648 124.787 9.328 124.595 9.08C124.395 8.84 124.123 8.712 123.787 8.712C123.443 8.712 123.171 8.84 122.963 9.088C122.755 9.344 122.651 9.664 122.651 10.064ZM124.899 11.48V11.416C124.795 11.616 124.643 11.784 124.435 11.912C124.227 12.04 123.987 12.104 123.707 12.104C123.155 12.104 122.715 11.912 122.379 11.528C122.043 11.144 121.883 10.656 121.883 10.064C121.883 9.504 122.051 9.032 122.395 8.64C122.731 8.248 123.171 8.048 123.707 8.048C124.019 8.048 124.275 8.112 124.475 8.24C124.667 8.368 124.803 8.52 124.883 8.696V6.208H125.627V11.288C125.627 11.552 125.635 11.792 125.667 12H124.939C124.907 11.856 124.899 11.68 124.899 11.48ZM131.442 12.12C130.666 12.12 130.002 11.856 129.45 11.32C128.898 10.792 128.626 10.072 128.626 9.16C128.626 8.552 128.762 8.024 129.042 7.56C129.314 7.104 129.666 6.768 130.09 6.544C130.506 6.32 130.962 6.208 131.442 6.208C132.082 6.208 132.618 6.376 133.058 6.696C133.498 7.016 133.794 7.456 133.938 8.008L133.21 8.264C133.098 7.84 132.898 7.512 132.594 7.28C132.29 7.048 131.906 6.928 131.442 6.928C130.882 6.928 130.41 7.128 130.018 7.52C129.618 7.912 129.426 8.456 129.426 9.16C129.426 9.864 129.618 10.416 130.018 10.808C130.41 11.208 130.882 11.4 131.442 11.4C131.906 11.4 132.29 11.28 132.602 11.032C132.906 10.784 133.122 10.456 133.25 10.04L133.946 10.296C133.786 10.848 133.49 11.288 133.05 11.624C132.61 11.96 132.074 12.12 131.442 12.12ZM135.58 9.736V12H134.828V6.208H135.58V8.6C135.836 8.232 136.22 8.04 136.748 8.04C137.188 8.04 137.524 8.184 137.764 8.464C138.004 8.752 138.124 9.112 138.124 9.56V12H137.372V9.688C137.372 9.048 137.068 8.72 136.476 8.72C136.196 8.72 135.98 8.816 135.828 9.008C135.668 9.2 135.588 9.44 135.58 9.736ZM139.08 10.968C139.08 10.64 139.184 10.376 139.4 10.176C139.608 9.976 139.896 9.848 140.248 9.8L141.288 9.648C141.48 9.624 141.584 9.528 141.584 9.36C141.584 9.16 141.512 8.992 141.376 8.864C141.232 8.736 141.024 8.672 140.752 8.672C140.496 8.672 140.288 8.744 140.144 8.888C139.992 9.032 139.904 9.216 139.88 9.448L139.16 9.28C139.192 8.912 139.36 8.616 139.664 8.384C139.96 8.152 140.32 8.032 140.736 8.032C141.28 8.032 141.68 8.168 141.944 8.432C142.2 8.696 142.336 9.032 142.336 9.44V11.368C142.336 11.6 142.352 11.808 142.384 12H141.648C141.616 11.84 141.608 11.672 141.608 11.48C141.496 11.656 141.344 11.8 141.136 11.928C140.928 12.056 140.672 12.12 140.368 12.12C139.984 12.12 139.68 12.008 139.44 11.784C139.2 11.56 139.08 11.288 139.08 10.968ZM140.472 11.488C140.808 11.488 141.072 11.4 141.28 11.216C141.48 11.04 141.584 10.752 141.584 10.352V10.176L140.408 10.352C140.232 10.384 140.096 10.44 140 10.536C139.896 10.632 139.848 10.768 139.848 10.928C139.848 11.08 139.904 11.208 140.016 11.32C140.128 11.432 140.28 11.488 140.472 11.488ZM144.251 12H143.507V8.152H144.251V12ZM143.339 6.696C143.339 6.552 143.387 6.424 143.491 6.312C143.595 6.208 143.723 6.152 143.875 6.152C144.019 6.152 144.147 6.208 144.259 6.312C144.363 6.416 144.419 6.544 144.419 6.696C144.419 6.848 144.363 6.976 144.259 7.08C144.147 7.184 144.019 7.232 143.875 7.232C143.723 7.232 143.595 7.184 143.491 7.08C143.387 6.976 143.339 6.848 143.339 6.696ZM146.283 9.776V12H145.531V8.152H146.267V8.704C146.523 8.264 146.915 8.04 147.451 8.04C147.891 8.04 148.227 8.184 148.467 8.464C148.707 8.752 148.827 9.112 148.827 9.56V12H148.075V9.688C148.075 9.048 147.771 8.72 147.179 8.72C146.891 8.72 146.675 8.824 146.515 9.024C146.355 9.224 146.283 9.472 146.283 9.776Z" fill="#7E7E7E"/>
<path d="M180.224 9.232H176.52V8.616H180.224V9.232ZM180.224 10.792H176.52V10.16H180.224V10.792ZM185.422 12.12C184.822 12.12 184.334 11.944 183.95 11.576C183.566 11.216 183.382 10.712 183.382 10.064V6.328H184.158V10.04C184.158 10.472 184.262 10.808 184.486 11.04C184.71 11.28 185.022 11.392 185.422 11.392C185.822 11.392 186.126 11.28 186.35 11.04C186.566 10.808 186.678 10.472 186.678 10.04V6.328H187.462V10.064C187.462 10.712 187.27 11.216 186.886 11.576C186.502 11.944 186.014 12.12 185.422 12.12ZM189.75 6.936V8.152H190.582V8.832H189.75V10.832C189.75 11.016 189.79 11.152 189.87 11.232C189.95 11.32 190.094 11.36 190.286 11.36C190.398 11.36 190.494 11.352 190.582 11.328V11.968C190.454 12.016 190.278 12.04 190.07 12.04C189.734 12.04 189.478 11.944 189.286 11.752C189.094 11.56 188.998 11.296 188.998 10.944V8.832H188.262V8.152H188.47C188.662 8.152 188.814 8.104 188.91 7.992C189.006 7.88 189.062 7.736 189.062 7.56V6.936H189.75ZM192.329 12H191.585V8.152H192.329V12ZM191.417 6.696C191.417 6.552 191.465 6.424 191.569 6.312C191.673 6.208 191.801 6.152 191.953 6.152C192.097 6.152 192.225 6.208 192.337 6.312C192.441 6.416 192.497 6.544 192.497 6.696C192.497 6.848 192.441 6.976 192.337 7.08C192.225 7.184 192.097 7.232 191.953 7.232C191.801 7.232 191.673 7.184 191.569 7.08C191.465 6.976 191.417 6.848 191.417 6.696ZM194.361 12H193.609V6.208H194.361V12ZM196.384 12H195.64V8.152H196.384V12ZM195.472 6.696C195.472 6.552 195.52 6.424 195.624 6.312C195.728 6.208 195.856 6.152 196.008 6.152C196.152 6.152 196.28 6.208 196.392 6.312C196.496 6.416 196.552 6.544 196.552 6.696C196.552 6.848 196.496 6.976 196.392 7.08C196.28 7.184 196.152 7.232 196.008 7.232C195.856 7.232 195.728 7.184 195.624 7.08C195.52 6.976 195.472 6.848 195.472 6.696ZM198.671 6.936V8.152H199.503V8.832H198.671V10.832C198.671 11.016 198.711 11.152 198.791 11.232C198.871 11.32 199.015 11.36 199.207 11.36C199.319 11.36 199.415 11.352 199.503 11.328V11.968C199.375 12.016 199.199 12.04 198.991 12.04C198.655 12.04 198.399 11.944 198.207 11.752C198.015 11.56 197.919 11.296 197.919 10.944V8.832H197.183V8.152H197.391C197.583 8.152 197.735 8.104 197.831 7.992C197.927 7.88 197.983 7.736 197.983 7.56V6.936H198.671ZM201.506 13.608H200.682L201.642 11.576L199.986 8.152H200.85L202.05 10.808L203.202 8.152H204.01L201.506 13.608ZM209.27 12.12C208.494 12.12 207.83 11.856 207.278 11.32C206.726 10.792 206.454 10.072 206.454 9.16C206.454 8.552 206.59 8.024 206.87 7.56C207.142 7.104 207.494 6.768 207.918 6.544C208.334 6.32 208.79 6.208 209.27 6.208C209.91 6.208 210.446 6.376 210.886 6.696C211.326 7.016 211.622 7.456 211.766 8.008L211.038 8.264C210.926 7.84 210.726 7.512 210.422 7.28C210.118 7.048 209.734 6.928 209.27 6.928C208.71 6.928 208.238 7.128 207.846 7.52C207.446 7.912 207.254 8.456 207.254 9.16C207.254 9.864 207.446 10.416 207.846 10.808C208.238 11.208 208.71 11.4 209.27 11.4C209.734 11.4 210.118 11.28 210.43 11.032C210.734 10.784 210.95 10.456 211.078 10.04L211.774 10.296C211.614 10.848 211.318 11.288 210.878 11.624C210.438 11.96 209.902 12.12 209.27 12.12ZM213.408 9.736V12H212.656V6.208H213.408V8.6C213.664 8.232 214.048 8.04 214.576 8.04C215.016 8.04 215.352 8.184 215.592 8.464C215.832 8.752 215.952 9.112 215.952 9.56V12H215.2V9.688C215.2 9.048 214.896 8.72 214.304 8.72C214.024 8.72 213.808 8.816 213.656 9.008C213.496 9.2 213.416 9.44 213.408 9.736ZM216.908 10.968C216.908 10.64 217.012 10.376 217.228 10.176C217.436 9.976 217.724 9.848 218.076 9.8L219.116 9.648C219.308 9.624 219.412 9.528 219.412 9.36C219.412 9.16 219.34 8.992 219.204 8.864C219.06 8.736 218.852 8.672 218.58 8.672C218.324 8.672 218.116 8.744 217.972 8.888C217.82 9.032 217.732 9.216 217.708 9.448L216.988 9.28C217.02 8.912 217.188 8.616 217.492 8.384C217.788 8.152 218.148 8.032 218.564 8.032C219.108 8.032 219.508 8.168 219.772 8.432C220.028 8.696 220.164 9.032 220.164 9.44V11.368C220.164 11.6 220.18 11.808 220.212 12H219.476C219.444 11.84 219.436 11.672 219.436 11.48C219.324 11.656 219.172 11.8 218.964 11.928C218.756 12.056 218.5 12.12 218.196 12.12C217.812 12.12 217.508 12.008 217.268 11.784C217.028 11.56 216.908 11.288 216.908 10.968ZM218.3 11.488C218.636 11.488 218.9 11.4 219.108 11.216C219.308 11.04 219.412 10.752 219.412 10.352V10.176L218.236 10.352C218.06 10.384 217.924 10.44 217.828 10.536C217.724 10.632 217.676 10.768 217.676 10.928C217.676 11.08 217.732 11.208 217.844 11.32C217.956 11.432 218.108 11.488 218.3 11.488ZM222.079 12H221.335V8.152H222.079V12ZM221.167 6.696C221.167 6.552 221.215 6.424 221.319 6.312C221.423 6.208 221.551 6.152 221.703 6.152C221.847 6.152 221.975 6.208 222.087 6.312C222.191 6.416 222.247 6.544 222.247 6.696C222.247 6.848 222.191 6.976 222.087 7.08C221.975 7.184 221.847 7.232 221.703 7.232C221.551 7.232 221.423 7.184 221.319 7.08C221.215 6.976 221.167 6.848 221.167 6.696ZM224.111 9.776V12H223.359V8.152H224.095V8.704C224.351 8.264 224.743 8.04 225.279 8.04C225.719 8.04 226.055 8.184 226.295 8.464C226.535 8.752 226.655 9.112 226.655 9.56V12H225.903V9.688C225.903 9.048 225.599 8.72 225.007 8.72C224.719 8.72 224.503 8.824 224.343 9.024C224.183 9.224 224.111 9.472 224.111 9.776Z" fill="#7E7E7E"/>
<path d="M257.224 9.232H253.52V8.616H257.224V9.232ZM257.224 10.792H253.52V10.16H257.224V10.792ZM264.39 12L263.774 10.416H261.262L260.662 12H259.822L262.078 6.328H262.982L265.238 12H264.39ZM262.51 7.144L261.542 9.688H263.494L262.51 7.144ZM266.712 12H265.96V6.208H266.712V12ZM268.744 12H267.992V6.208H268.744V12ZM274.559 12.12C273.783 12.12 273.119 11.856 272.567 11.32C272.015 10.792 271.743 10.072 271.743 9.16C271.743 8.552 271.879 8.024 272.159 7.56C272.431 7.104 272.783 6.768 273.207 6.544C273.623 6.32 274.079 6.208 274.559 6.208C275.199 6.208 275.735 6.376 276.175 6.696C276.615 7.016 276.911 7.456 277.055 8.008L276.327 8.264C276.215 7.84 276.015 7.512 275.711 7.28C275.407 7.048 275.023 6.928 274.559 6.928C273.999 6.928 273.527 7.128 273.135 7.52C272.735 7.912 272.543 8.456 272.543 9.16C272.543 9.864 272.735 10.416 273.135 10.808C273.527 11.208 273.999 11.4 274.559 11.4C275.023 11.4 275.407 11.28 275.719 11.032C276.023 10.784 276.239 10.456 276.367 10.04L277.063 10.296C276.903 10.848 276.607 11.288 276.167 11.624C275.727 11.96 275.191 12.12 274.559 12.12ZM278.697 9.736V12H277.945V6.208H278.697V8.6C278.953 8.232 279.337 8.04 279.865 8.04C280.305 8.04 280.641 8.184 280.881 8.464C281.121 8.752 281.241 9.112 281.241 9.56V12H280.489V9.688C280.489 9.048 280.185 8.72 279.593 8.72C279.313 8.72 279.097 8.816 278.945 9.008C278.785 9.2 278.705 9.44 278.697 9.736ZM282.197 10.968C282.197 10.64 282.301 10.376 282.517 10.176C282.725 9.976 283.013 9.848 283.365 9.8L284.405 9.648C284.597 9.624 284.701 9.528 284.701 9.36C284.701 9.16 284.629 8.992 284.493 8.864C284.349 8.736 284.141 8.672 283.869 8.672C283.613 8.672 283.405 8.744 283.261 8.888C283.109 9.032 283.021 9.216 282.997 9.448L282.277 9.28C282.309 8.912 282.477 8.616 282.781 8.384C283.077 8.152 283.437 8.032 283.853 8.032C284.397 8.032 284.797 8.168 285.061 8.432C285.317 8.696 285.453 9.032 285.453 9.44V11.368C285.453 11.6 285.469 11.808 285.501 12H284.765C284.733 11.84 284.725 11.672 284.725 11.48C284.613 11.656 284.461 11.8 284.253 11.928C284.045 12.056 283.789 12.12 283.485 12.12C283.101 12.12 282.797 12.008 282.557 11.784C282.317 11.56 282.197 11.288 282.197 10.968ZM283.589 11.488C283.925 11.488 284.189 11.4 284.397 11.216C284.597 11.04 284.701 10.752 284.701 10.352V10.176L283.525 10.352C283.349 10.384 283.213 10.44 283.117 10.536C283.013 10.632 282.965 10.768 282.965 10.928C282.965 11.08 283.021 11.208 283.133 11.32C283.245 11.432 283.397 11.488 283.589 11.488ZM287.368 12H286.624V8.152H287.368V12ZM286.456 6.696C286.456 6.552 286.504 6.424 286.608 6.312C286.712 6.208 286.84 6.152 286.992 6.152C287.136 6.152 287.264 6.208 287.376 6.312C287.48 6.416 287.536 6.544 287.536 6.696C287.536 6.848 287.48 6.976 287.376 7.08C287.264 7.184 287.136 7.232 286.992 7.232C286.84 7.232 286.712 7.184 286.608 7.08C286.504 6.976 286.456 6.848 286.456 6.696ZM289.4 9.776V12H288.648V8.152H289.384V8.704C289.64 8.264 290.032 8.04 290.568 8.04C291.008 8.04 291.344 8.184 291.584 8.464C291.824 8.752 291.944 9.112 291.944 9.56V12H291.192V9.688C291.192 9.048 290.888 8.72 290.296 8.72C290.008 8.72 289.792 8.824 289.632 9.024C289.472 9.224 289.4 9.472 289.4 9.776ZM292.78 11L293.46 10.76C293.484 10.968 293.572 11.144 293.732 11.28C293.884 11.416 294.092 11.48 294.356 11.48C294.556 11.48 294.716 11.432 294.836 11.336C294.948 11.24 295.012 11.112 295.012 10.968C295.012 10.712 294.844 10.552 294.516 10.472L293.86 10.328C293.556 10.264 293.324 10.136 293.156 9.944C292.98 9.752 292.9 9.52 292.9 9.248C292.9 8.92 293.028 8.632 293.3 8.392C293.572 8.152 293.892 8.032 294.268 8.032C294.508 8.032 294.732 8.072 294.924 8.144C295.116 8.216 295.26 8.312 295.372 8.424C295.476 8.544 295.556 8.656 295.612 8.752C295.66 8.856 295.7 8.96 295.732 9.064L295.068 9.312C295.052 9.248 295.036 9.192 295.012 9.128C294.98 9.064 294.94 9 294.884 8.92C294.828 8.848 294.748 8.792 294.644 8.744C294.532 8.696 294.412 8.672 294.268 8.672C294.076 8.672 293.924 8.728 293.804 8.824C293.684 8.928 293.628 9.048 293.628 9.184C293.628 9.432 293.772 9.584 294.068 9.648L294.692 9.784C295.028 9.864 295.292 10 295.476 10.2C295.66 10.4 295.756 10.64 295.756 10.928C295.756 11.232 295.628 11.512 295.38 11.752C295.132 12 294.788 12.12 294.348 12.12C293.868 12.12 293.5 12.008 293.236 11.768C292.964 11.528 292.812 11.272 292.78 11Z" fill="#7E7E7E"/>
</svg>
