<svg width="800" height="800" viewBox="0 0 800 800" fill="none" xmlns="http://www.w3.org/2000/svg">
<g clip-path="url(#clip0_8217_407)">
<path d="M399.998 66.6664C320.619 66.367 243.739 94.4048 183.19 145.735C122.641 197.066 82.3972 268.319 69.6994 346.676C57.0016 425.033 72.6833 505.349 113.923 573.174C155.163 641 219.254 691.882 294.664 716.666C311.331 719.333 316.664 709 316.664 700V643.666C224.331 663.666 204.664 600 204.664 600C198.439 579.297 184.944 561.541 166.664 550C136.331 529.333 168.998 530 168.998 530C179.461 531.353 189.483 535.054 198.314 540.827C207.146 546.599 214.558 554.293 219.998 563.333C229.257 579.797 244.642 591.94 262.806 597.121C280.971 602.302 300.446 600.102 316.998 591C318.516 574.102 325.954 558.283 337.998 546.333C266.664 539 187.331 510.333 187.331 383.333C186.367 350.048 198.311 317.68 220.664 293C210.515 264.314 211.708 232.835 223.998 205C223.998 205 251.998 196 315.664 238.333C370.251 223.659 427.744 223.659 482.331 238.333C545.998 195.333 573.998 205 573.998 205C586.287 232.835 587.48 264.314 577.331 293C599.684 317.68 611.628 350.048 610.664 383.333C610.664 510.666 532.664 538.666 458.331 547C466.336 555.047 472.53 564.712 476.497 575.347C480.463 585.982 482.112 597.342 481.331 608.666V700C481.331 709 486.664 719.666 503.664 716.666C578.937 691.926 642.935 641.18 684.184 573.529C725.433 505.878 741.234 425.746 728.755 347.501C716.276 269.255 676.332 198.013 616.086 146.549C555.84 95.0856 479.232 66.7653 399.998 66.6664Z" fill="#7E7E7E"/>
</g>
<defs>
<clipPath id="clip0_8217_407">
<rect width="800" height="800" fill="white"/>
</clipPath>
</defs>
</svg>
