<svg width="56" height="8" viewBox="0 0 56 8" fill="none" xmlns="http://www.w3.org/2000/svg">
<path d="M3 2.98995C3 2.81344 3 2.72519 3.01387 2.65168C3.07493 2.32806 3.32806 2.07493 3.65168 2.01387C3.72519 2 3.81344 2 3.98995 2C4.06728 2 4.10595 2 4.14311 2.00348C4.30333 2.01846 4.4553 2.08141 4.57919 2.1841C4.60792 2.20792 4.63526 2.23527 4.68994 2.28995L4.8 2.4C4.96316 2.56316 5.04474 2.64473 5.14242 2.69909C5.19608 2.72894 5.25302 2.75252 5.31208 2.76936C5.41958 2.8 5.53494 2.8 5.76568 2.8H5.84042C6.3669 2.8 6.63012 2.8 6.80124 2.95389C6.81698 2.96805 6.83196 2.98303 6.8461 2.99877C7 3.16987 7 3.43311 7 3.95958V4.4C7 5.15424 7 5.53138 6.76568 5.76568C6.53138 6 6.15424 6 5.4 6H4.6C3.84575 6 3.46863 6 3.23431 5.76568C3 5.53138 3 5.15424 3 4.4V2.98995Z" fill="#393939"/>
<path fill-rule="evenodd" clip-rule="evenodd" d="M5.05003 3.59998C5.05003 3.51714 5.11719 3.44998 5.20003 3.44998H6.20003C6.28287 3.44998 6.35003 3.51714 6.35003 3.59998C6.35003 3.68282 6.28287 3.74998 6.20003 3.74998H5.20003C5.11719 3.74998 5.05003 3.68282 5.05003 3.59998Z" fill="#282828"/>
<path d="M5.99714 2.20418C5.96644 2.19999 5.92986 2.19999 5.85672 2.19999H5.00002L5.074 2.27662C5.2072 2.41459 5.2584 2.46609 5.31756 2.50018C5.3519 2.51997 5.38832 2.5356 5.4261 2.54676C5.4912 2.56598 5.56258 2.56707 5.75094 2.56707H5.81782C6.0183 2.56706 6.17992 2.56706 6.3078 2.58372C6.3397 2.58787 6.37044 2.59316 6.40002 2.59999C6.3629 2.39262 6.20088 2.23196 5.99714 2.20418Z" fill="#393939"/>
<path d="M11.6273 6.10102C11.4427 6.10102 11.2783 6.05775 11.134 5.97121C10.9927 5.88178 10.8816 5.75341 10.8008 5.5861C10.7201 5.4159 10.6797 5.21108 10.6797 4.97165C10.6797 4.73222 10.7201 4.52885 10.8008 4.36153C10.8816 4.19422 10.9927 4.06729 11.134 3.98075C11.2783 3.89421 11.4427 3.85094 11.6273 3.85094C11.8033 3.85094 11.9475 3.88555 12.06 3.95479C12.1725 4.02402 12.2562 4.11633 12.311 4.23172V2.93359H12.6139V6.0491H12.3802L12.337 5.70726H12.311C12.2562 5.82841 12.1696 5.92505 12.0514 5.99717C11.936 6.0664 11.7946 6.10102 11.6273 6.10102ZM11.649 5.81543C11.8422 5.81543 12.0009 5.7462 12.1249 5.60773C12.249 5.46927 12.311 5.25868 12.311 4.97598C12.311 4.69328 12.249 4.48269 12.1249 4.34422C12.0009 4.20576 11.8422 4.13652 11.649 4.13652C11.4557 4.13652 11.297 4.20576 11.173 4.34422C11.0489 4.48269 10.9869 4.69328 10.9869 4.97598C10.9869 5.25868 11.0489 5.46927 11.173 5.60773C11.297 5.7462 11.4557 5.81543 11.649 5.81543Z" fill="#454545"/>
<path d="M14.2522 3.48746C14.1801 3.48746 14.1166 3.4615 14.0618 3.40957C14.0099 3.35476 13.9839 3.2913 13.9839 3.21918C13.9839 3.14418 14.0099 3.08071 14.0618 3.02879C14.1166 2.97686 14.1801 2.9509 14.2522 2.9509C14.3272 2.9509 14.3906 2.97686 14.4426 3.02879C14.4945 3.08071 14.5204 3.14418 14.5204 3.21918C14.5204 3.2913 14.4945 3.35476 14.4426 3.40957C14.3906 3.4615 14.3272 3.48746 14.2522 3.48746ZM13.4257 6.0491V5.78947H14.118V4.24903C14.118 4.19133 14.0892 4.16249 14.0315 4.16249H13.5122V3.90286H14.118C14.32 3.90286 14.4209 4.00383 14.4209 4.20576V5.78947H15.1133V6.0491H13.4257Z" fill="#454545"/>
<path d="M16.9289 3.48746C16.8568 3.48746 16.7934 3.4615 16.7386 3.40957C16.6866 3.35476 16.6607 3.2913 16.6607 3.21918C16.6607 3.14418 16.6866 3.08071 16.7386 3.02879C16.7934 2.97686 16.8568 2.9509 16.9289 2.9509C17.0039 2.9509 17.0674 2.97686 17.1193 3.02879C17.1713 3.08071 17.1972 3.14418 17.1972 3.21918C17.1972 3.2913 17.1713 3.35476 17.1193 3.40957C17.0674 3.4615 17.0039 3.48746 16.9289 3.48746ZM15.8428 7.00105V6.74143H16.7083C16.766 6.74143 16.7948 6.71258 16.7948 6.65489V4.24903C16.7948 4.19133 16.766 4.16249 16.7083 4.16249H16.189V3.90286H16.7948C16.9967 3.90286 17.0977 4.00383 17.0977 4.20576V6.69816C17.0977 6.90009 16.9967 7.00105 16.7948 7.00105H15.8428Z" fill="#454545"/>
<path d="M19.4802 6.10102C19.2812 6.10102 19.1052 6.05486 18.9523 5.96255C18.7994 5.86736 18.6783 5.7361 18.5889 5.56879C18.5023 5.39859 18.459 5.19954 18.459 4.97165C18.459 4.74376 18.5023 4.54615 18.5889 4.37884C18.6754 4.21153 18.7951 4.08171 18.948 3.9894C19.1038 3.89709 19.2841 3.85094 19.4889 3.85094C19.6966 3.85094 19.8726 3.89853 20.0168 3.99373C20.161 4.08604 20.2706 4.2072 20.3457 4.3572C20.4207 4.50721 20.4582 4.66876 20.4582 4.84184C20.4582 4.87069 20.4582 4.90098 20.4582 4.93271C20.4582 4.96444 20.4567 5.0005 20.4538 5.04088H18.7533C18.7619 5.21685 18.8009 5.36253 18.8701 5.47792C18.9422 5.59042 19.0317 5.67552 19.1384 5.73322C19.248 5.78803 19.362 5.81543 19.4802 5.81543C19.6562 5.81543 19.7918 5.77937 19.887 5.70726C19.9851 5.63225 20.0572 5.53129 20.1033 5.40436H20.3976C20.3514 5.59764 20.2519 5.76207 20.099 5.89765C19.949 6.03323 19.7427 6.10102 19.4802 6.10102ZM19.4759 4.12787C19.2942 4.12787 19.1341 4.18412 18.9956 4.29663C18.86 4.40913 18.7807 4.56491 18.7576 4.76395H20.1639C20.1524 4.56202 20.0831 4.40625 19.9562 4.29663C19.8322 4.18412 19.6721 4.12787 19.4759 4.12787Z" fill="#454545"/>
<path d="M22.2738 6.0491C22.0863 6.0491 21.9392 6.00438 21.8325 5.91496C21.7286 5.82264 21.6767 5.65822 21.6767 5.42167V4.16249H21.1315V3.90286H21.456C21.606 3.90286 21.6911 3.83074 21.7113 3.68651L21.7632 3.36198H21.9796V3.90286H22.845V4.16249H21.9796V5.42167C21.9796 5.55148 22.0084 5.64235 22.0661 5.69427C22.1267 5.7462 22.2306 5.77216 22.3777 5.77216H22.845V6.0491H22.2738Z" fill="#454545"/>
<path d="M24.6737 6.10102C24.4054 6.10102 24.1862 6.03756 24.016 5.91063C23.8458 5.7837 23.7506 5.60773 23.7304 5.38272H24.0463C24.0636 5.50965 24.127 5.61494 24.2366 5.6986C24.3492 5.78226 24.4977 5.82409 24.6823 5.82409C24.8612 5.82409 24.9924 5.78514 25.0761 5.70726C25.1598 5.62648 25.2016 5.5385 25.2016 5.4433C25.2016 5.31061 25.1511 5.22118 25.0501 5.17502C24.9521 5.12887 24.8006 5.09425 24.5958 5.07117C24.3621 5.04521 24.1717 4.98463 24.0246 4.88944C23.8775 4.79136 23.8039 4.64568 23.8039 4.4524C23.8039 4.2822 23.8761 4.13941 24.0203 4.02402C24.1674 3.90863 24.365 3.85094 24.6131 3.85094C24.8612 3.85094 25.0559 3.90719 25.1973 4.01969C25.3415 4.12931 25.4223 4.29086 25.4396 4.50433H25.1324C25.1266 4.39182 25.0732 4.30095 24.9723 4.23172C24.8742 4.16249 24.7516 4.12787 24.6045 4.12787C24.4487 4.12787 24.3275 4.15672 24.241 4.21441C24.1573 4.26922 24.1155 4.34711 24.1155 4.44807C24.1155 4.5375 24.1616 4.61395 24.254 4.67741C24.3463 4.73799 24.4934 4.77837 24.6953 4.79857C24.8453 4.81299 24.9809 4.8404 25.1021 4.88078C25.2261 4.91828 25.3256 4.98031 25.4006 5.06685C25.4756 5.15339 25.5131 5.27455 25.5131 5.43032C25.516 5.55725 25.4814 5.67264 25.4093 5.77649C25.3372 5.87745 25.2376 5.95678 25.1107 6.01448C24.9867 6.07217 24.841 6.10102 24.6737 6.10102Z" fill="#454545"/>
<path d="M26.5499 4.66443V4.4048H27.9346V4.66443H26.5499Z" fill="#454545"/>
<path d="M29.7114 6.10102C29.4488 6.10102 29.2527 6.02458 29.1229 5.87169C28.9931 5.71591 28.9282 5.49667 28.9282 5.21397V3.90286H29.2311V5.17935C29.2311 5.3784 29.2758 5.53417 29.3652 5.64668C29.4546 5.75918 29.5916 5.81543 29.7763 5.81543C29.9551 5.81543 30.108 5.75485 30.2349 5.6337C30.3619 5.50965 30.4253 5.33224 30.4253 5.10146V3.90286H30.7282V6.0491H30.4816L30.4426 5.72456H30.4253C30.3676 5.82553 30.2753 5.91351 30.1484 5.98852C30.0244 6.06352 29.8787 6.10102 29.7114 6.10102Z" fill="#454545"/>
<path d="M32.4574 6.10102C32.1891 6.10102 31.9698 6.03756 31.7997 5.91063C31.6295 5.7837 31.5343 5.60773 31.5141 5.38272H31.8299C31.8472 5.50965 31.9107 5.61494 32.0203 5.6986C32.1328 5.78226 32.2814 5.82409 32.466 5.82409C32.6449 5.82409 32.7761 5.78514 32.8598 5.70726C32.9434 5.62648 32.9853 5.5385 32.9853 5.4433C32.9853 5.31061 32.9348 5.22118 32.8338 5.17502C32.7357 5.12887 32.5843 5.09425 32.3795 5.07117C32.1458 5.04521 31.9554 4.98463 31.8083 4.88944C31.6612 4.79136 31.5876 4.64568 31.5876 4.4524C31.5876 4.2822 31.6597 4.13941 31.804 4.02402C31.9511 3.90863 32.1487 3.85094 32.3968 3.85094C32.6449 3.85094 32.8396 3.90719 32.9809 4.01969C33.1252 4.12931 33.206 4.29086 33.2233 4.50433H32.916C32.9103 4.39182 32.8569 4.30095 32.7559 4.23172C32.6579 4.16249 32.5353 4.12787 32.3881 4.12787C32.2324 4.12787 32.1112 4.15672 32.0247 4.21441C31.941 4.26922 31.8992 4.34711 31.8992 4.44807C31.8992 4.5375 31.9453 4.61395 32.0376 4.67741C32.13 4.73799 32.2771 4.77837 32.479 4.79857C32.629 4.81299 32.7646 4.8404 32.8857 4.88078C33.0098 4.91828 33.1093 4.98031 33.1843 5.06685C33.2593 5.15339 33.2968 5.27455 33.2968 5.43032C33.2997 5.55725 33.2651 5.67264 33.193 5.77649C33.1209 5.87745 33.0213 5.95678 32.8944 6.01448C32.7704 6.07217 32.6247 6.10102 32.4574 6.10102Z" fill="#454545"/>
<path d="M34.1086 6.0491V5.78947H34.6798V4.24903C34.6798 4.22595 34.6711 4.20576 34.6538 4.18845C34.6365 4.17114 34.6163 4.16249 34.5933 4.16249H34.1735V3.90286H34.7014C34.7851 3.90286 34.85 3.9245 34.8962 3.96777C34.9423 4.01104 34.9654 4.0745 34.9654 4.15816V4.27932H34.9827C35.0144 4.14374 35.0764 4.03844 35.1688 3.96344C35.264 3.88844 35.3866 3.85094 35.5366 3.85094H35.9693V4.17114H35.5366C35.3606 4.17114 35.2236 4.22883 35.1255 4.34422C35.0303 4.45961 34.9827 4.61395 34.9827 4.80722V5.78947H35.662V6.0491H34.1086Z" fill="#454545"/>
<path d="M39.1074 5.07117V4.62981H40.4098V5.07117H39.1074Z" fill="#454545"/>
<path d="M40.1401 5.07117V4.62981H41.4426V5.07117H40.1401Z" fill="#454545"/>
<path d="M41.9757 5.07117V4.62981H43.2782V5.07117H41.9757Z" fill="#454545"/>
<path d="M44.4518 6.0491V5.60773H44.8931V6.0491H44.4518Z" fill="#454545"/>
<path d="M45.5359 6.0491V5.76351L46.847 4.18845H45.5576V3.90286H47.1845V4.18845L45.8734 5.76351H47.2062V6.0491H45.5359Z" fill="#454545"/>
<path d="M48.9916 6.10102C48.7233 6.10102 48.5041 6.03756 48.3339 5.91063C48.1637 5.7837 48.0685 5.60773 48.0483 5.38272H48.3641C48.3814 5.50965 48.4449 5.61494 48.5545 5.6986C48.667 5.78226 48.8156 5.82409 49.0002 5.82409C49.1791 5.82409 49.3103 5.78514 49.394 5.70726C49.4776 5.62648 49.5195 5.5385 49.5195 5.4433C49.5195 5.31061 49.469 5.22118 49.368 5.17502C49.2699 5.12887 49.1185 5.09425 48.9137 5.07117C48.68 5.04521 48.4896 4.98463 48.3425 4.88944C48.1954 4.79136 48.1218 4.64568 48.1218 4.4524C48.1218 4.2822 48.1939 4.13941 48.3382 4.02402C48.4853 3.90863 48.6829 3.85094 48.931 3.85094C49.1791 3.85094 49.3738 3.90719 49.5151 4.01969C49.6594 4.12931 49.7402 4.29086 49.7575 4.50433H49.4502C49.4445 4.39182 49.3911 4.30095 49.2901 4.23172C49.1921 4.16249 49.0695 4.12787 48.9223 4.12787C48.7666 4.12787 48.6454 4.15672 48.5589 4.21441C48.4752 4.26922 48.4334 4.34711 48.4334 4.44807C48.4334 4.5375 48.4795 4.61395 48.5718 4.67741C48.6642 4.73799 48.8113 4.77837 49.0132 4.79857C49.1632 4.81299 49.2988 4.8404 49.4199 4.88078C49.544 4.91828 49.6435 4.98031 49.7185 5.06685C49.7935 5.15339 49.831 5.27455 49.831 5.43032C49.8339 5.55725 49.7993 5.67264 49.7272 5.77649C49.6551 5.87745 49.5555 5.95678 49.4286 6.01448C49.3046 6.07217 49.1589 6.10102 48.9916 6.10102Z" fill="#454545"/>
<path d="M50.6515 6.0491V2.93359H50.9544V4.22739C51.0121 4.11777 51.1087 4.02835 51.2443 3.95911C51.3799 3.887 51.527 3.85094 51.6857 3.85094C51.9482 3.85094 52.1472 3.93027 52.2828 4.08893C52.4184 4.24759 52.4862 4.46394 52.4862 4.73799V6.0491H52.1833V4.77261C52.1833 4.57356 52.1342 4.41778 52.0361 4.30528C51.9381 4.19278 51.7996 4.13652 51.6207 4.13652C51.5025 4.13652 51.3914 4.16393 51.2876 4.21874C51.1866 4.27355 51.1058 4.35432 51.0452 4.46105C50.9847 4.5649 50.9544 4.69472 50.9544 4.85049V6.0491H50.6515Z" fill="#454545"/>
</svg>
