<svg width="25" height="25" viewBox="0 0 25 25" fill="none" xmlns="http://www.w3.org/2000/svg">
<g clip-path="url(#clip0_6626_321)">
<path d="M20.6954 20.6914C25.3898 15.997 25.3898 8.38583 20.6954 3.69141C16.001 -1.00301 8.38977 -1.00301 3.69534 3.69141C-0.999097 8.38583 -0.999097 15.997 3.69534 20.6914C8.38977 25.3858 16.001 25.3858 20.6954 20.6914Z" fill="#FEE475"/>
<path d="M20.481 20.4741C25.0555 15.8997 25.0555 8.48311 20.481 3.90869C15.9066 -0.665732 8.48999 -0.665732 3.91556 3.90869C-0.658877 8.48311 -0.658877 15.8997 3.91556 20.4741C8.48999 25.0485 15.9066 25.0485 20.481 20.4741Z" fill="#FED425"/>
<g style="mix-blend-mode:soft-light">
<path d="M12.425 20.8969C17.1126 20.8969 20.9126 17.0969 20.9126 12.4094C20.9126 7.72187 17.1126 3.92188 12.425 3.92188C7.73751 3.92188 3.9375 7.72187 3.9375 12.4094C3.9375 17.0969 7.73751 20.8969 12.425 20.8969Z" fill="white"/>
</g>
<path d="M18.2001 18.193C21.5147 14.8784 21.5147 9.5044 18.2001 6.18982C14.8855 2.87523 9.51151 2.87523 6.19692 6.18982C2.88232 9.5044 2.88232 14.8784 6.19692 18.193C9.51151 21.5076 14.8855 21.5076 18.2001 18.193Z" fill="#FEB724"/>
<path d="M20.3489 12.6059C20.3561 14.8747 19.4846 17.0539 17.9252 18.6658C16.3659 20.2776 14.2461 21.1906 12.0304 21.2045C9.81478 21.2185 7.68414 20.3322 6.10558 18.7401C4.52703 17.1481 3.62936 14.98 3.60938 12.7112V12.6059C3.60938 10.3328 4.49121 8.1528 6.06088 6.54547C7.63055 4.93814 9.75948 4.03516 11.9793 4.03516H12.0826C14.2846 4.06215 16.3875 4.97702 17.9351 6.58134C19.4828 8.18566 20.3503 10.3501 20.3497 12.6051L20.3489 12.6059Z" fill="#FAA300"/>
<path d="M4.1719 12.6555C4.17157 11.0046 4.65284 9.38937 5.55674 8.00784C6.46063 6.62631 7.7479 5.53845 9.2608 4.87756C10.7737 4.21666 12.4465 4.01144 14.0743 4.28703C15.7021 4.56262 17.2142 5.30706 18.4252 6.42913C17.6495 5.59095 16.7126 4.91798 15.6706 4.45051C14.6286 3.98305 13.503 3.73071 12.3612 3.70862C11.2194 3.68653 10.0848 3.89514 9.02553 4.32195C7.96624 4.74877 7.004 5.385 6.19646 6.19255C5.38891 7.00009 4.75268 7.96233 4.32586 9.02161C3.89905 10.0809 3.69043 11.2154 3.71253 12.3573C3.73462 13.4991 3.98695 14.6247 4.45442 15.6667C4.92189 16.7087 5.59487 17.6456 6.43304 18.4213C4.97728 16.8545 4.16932 14.7942 4.1719 12.6555Z" fill="#FB9D12"/>
<g style="mix-blend-mode:soft-light">
<path d="M12.2006 0.634197C18.7622 0.634197 24.0922 5.8924 24.2156 12.4246C24.217 12.3477 24.2214 12.2715 24.2214 12.1942C24.2251 10.6131 23.917 9.04691 23.3146 7.58515C22.7122 6.1234 21.8274 4.79483 20.7107 3.67554C19.5941 2.55625 18.2677 1.66823 16.8074 1.06232C15.3471 0.456414 13.7816 0.144531 12.2005 0.144531C10.6195 0.144531 9.05402 0.456414 7.5937 1.06232C6.13339 1.66823 4.80694 2.55625 3.69033 3.67554C2.57372 4.79483 1.68887 6.1234 1.08647 7.58515C0.484062 9.04691 0.175932 10.6131 0.179722 12.1942C0.179722 12.2715 0.184074 12.3477 0.185525 12.4246C0.308837 5.8924 5.6389 0.634197 12.2006 0.634197Z" fill="#FFCF00"/>
</g>
<path d="M18.0426 6.12619L5.89754 18.2692C4.30914 16.6864 3.40608 14.5432 3.38281 12.3012V12.1957C3.38281 9.91861 4.28758 7.73476 5.89809 6.12453C7.50861 4.51431 9.69296 3.60958 11.9707 3.60938H12.0766C14.318 3.63582 16.4598 4.53935 18.0426 6.12619Z" fill="#FFBD00"/>
<path d="M20.7796 12.4086C20.7797 13.5641 20.559 14.7084 20.1303 15.776C19.7015 16.8436 19.0731 17.8137 18.2808 18.6308C17.4885 19.4479 16.5479 20.0961 15.5127 20.5383C14.4775 20.9805 13.368 21.2081 12.2475 21.2081C12.0857 21.2081 11.9251 21.2036 11.7656 21.1944C13.9419 21.0677 15.9887 20.0869 17.486 18.4532C18.9832 16.8195 19.8175 14.6567 19.8175 12.4088C19.8175 10.1608 18.9832 7.99803 17.486 6.36431C15.9887 4.73059 13.9419 3.74978 11.7656 3.62315C11.9251 3.61397 12.0857 3.60938 12.2475 3.60938C14.5104 3.60938 16.6805 4.53643 18.2806 6.1866C19.8807 7.83676 20.7796 10.0749 20.7796 12.4086Z" fill="#EE8A02"/>
<path d="M16.2812 8.66933C16.3028 8.71509 16.3138 8.76493 16.3136 8.81533V9.99767C16.3128 10.3677 16.2241 10.7324 16.0543 11.0629C15.8846 11.3935 15.6385 11.6808 15.3356 11.9021C14.8517 12.2735 14.3569 12.6226 13.8503 12.9734L12.7592 13.7161C12.6161 13.8179 12.4402 13.8658 12.2639 13.851C12.173 13.8407 12.0839 13.818 11.9993 13.7835C11.9238 13.7467 11.8507 13.7054 11.7804 13.6598C10.7903 12.9952 9.80019 12.331 8.83317 11.6331C8.39546 11.3292 7.9695 11.0138 7.53219 10.6987C7.47464 10.665 7.42844 10.6194 7.37008 10.5861C7.20854 10.4635 7.09817 10.2874 7.05963 10.0909C7.04943 10.0386 7.04549 9.98538 7.04787 9.93221V8.86096C7.04962 8.81556 7.04568 8.77012 7.03612 8.72567C7.03285 8.71912 7.03119 8.71192 7.03126 8.70464C7.03112 8.69728 7.03282 8.69 7.03621 8.68343C7.0396 8.67686 7.04458 8.67121 7.05071 8.66695C7.05677 8.66268 7.06367 8.65971 7.07098 8.65822H7.08232C7.08505 8.67719 7.08884 8.69599 7.09367 8.71456C7.10333 8.82498 7.15224 8.92859 7.23188 9.00736C7.28976 9.07871 7.36 9.13954 7.43938 9.1871C8.59041 10.0318 9.76493 10.8535 10.9508 11.6645C11.2272 11.8561 11.5146 12.0354 11.791 12.2271C11.9027 12.3035 12.0271 12.3604 12.1586 12.3953C12.313 12.4314 12.4753 12.4156 12.6194 12.3505C12.6731 12.327 12.7233 12.2967 12.7689 12.2604C13.5285 11.7311 14.277 11.2129 15.0386 10.6841C15.1881 10.5825 15.3263 10.4813 15.4633 10.369C15.8238 10.0525 16.0871 9.6439 16.2236 9.18908C16.2447 9.11156 16.2601 9.03267 16.2698 8.95301C16.2796 8.90858 16.2836 8.86312 16.2816 8.81771L16.2812 8.66933ZM12.1825 7.03667H12.4585C12.9063 7.06957 13.34 7.20449 13.725 7.43065C13.9856 7.58527 14.2288 7.7664 14.4505 7.97103C14.5983 8.09519 14.6961 8.26677 14.7265 8.45508C14.7575 8.6392 14.7291 8.82821 14.6454 8.99586C14.6223 9.0518 14.5875 9.09703 14.5644 9.14187C14.5532 9.16387 14.5337 9.18081 14.5101 9.18916C14.4865 9.19751 14.4605 9.19663 14.4375 9.1867C14.4262 9.1867 14.4262 9.17559 14.4148 9.17559C14.3338 9.11925 14.2527 9.07442 14.1615 9.01689C13.8318 8.78835 13.4603 8.62401 13.0672 8.53284C12.8151 8.47489 12.5553 8.45588 12.2972 8.4765C11.7704 8.51457 11.2645 8.69384 10.8349 8.99467C10.6728 9.10695 10.5009 9.19702 10.3283 9.30969C10.3169 9.30969 10.3169 9.3208 10.3052 9.3208C10.2966 9.31957 10.2886 9.31568 10.2825 9.30969L9.31506 8.66814C9.29385 8.65589 9.2746 8.64065 9.25792 8.62291C9.24491 8.6148 9.2355 8.60219 9.23157 8.58759C9.22724 8.57317 9.22825 8.55772 9.23441 8.54395C9.23441 8.53284 9.24616 8.53284 9.25792 8.52173L9.28061 8.49872C9.55702 8.31899 9.82167 8.11545 10.0977 7.92382C10.3345 7.75349 10.5804 7.59575 10.8345 7.45128C11.1301 7.29085 11.4481 7.17362 11.7784 7.10332C11.9101 7.06414 12.0462 7.04135 12.1837 7.03548L12.1825 7.03667ZM11.6738 7.12752V5.14889C11.6745 5.11172 11.6827 5.07504 11.6979 5.04099C11.7131 5.00694 11.7351 4.97618 11.7626 4.95051C11.8177 4.89875 11.8913 4.87025 11.9677 4.87116H12.5541C12.6302 4.86956 12.7038 4.8975 12.7588 4.94888C12.8139 5.00025 12.846 5.07088 12.848 5.14532V7.08943C12.4569 7.0458 12.0613 7.05809 11.6738 7.12594V7.12752ZM16.2941 11.968C16.3164 12.0136 16.3282 12.0634 16.3286 12.114V13.3189C16.3188 13.8496 16.134 14.3628 15.8017 14.7822C15.6575 14.9594 15.4913 15.1183 15.3069 15.2551C14.8205 15.6265 14.3159 15.9756 13.8073 16.3264L12.7941 17.0132C12.7072 17.0726 12.6093 17.1148 12.5059 17.1373C12.3678 17.1715 12.222 17.1595 12.0917 17.1032C11.9979 17.0697 11.9089 17.0243 11.827 16.9683C10.6987 16.2145 9.5704 15.4483 8.46314 14.6489C8.11784 14.4013 7.77415 14.1537 7.42682 13.895C7.25586 13.7736 7.14067 13.5912 7.10624 13.3872C7.09604 13.3349 7.09209 13.2816 7.09448 13.2285V12.137C7.09637 12.0954 7.09255 12.0538 7.08313 12.0132C7.07179 11.9795 7.09448 11.9454 7.11799 11.9454C7.11799 11.9684 7.12934 11.9795 7.12934 12.0021C7.14232 12.1261 7.19975 12.2417 7.29145 12.3282C7.34716 12.3872 7.40895 12.4404 7.47586 12.4869C8.67308 13.365 9.90516 14.2204 11.1356 15.054C11.3646 15.2127 11.596 15.3575 11.8149 15.5043C11.9082 15.5746 12.0134 15.6284 12.1257 15.663C12.2102 15.6908 12.2994 15.7023 12.3884 15.6967C12.4772 15.6908 12.564 15.6677 12.6437 15.6289C12.7002 15.6034 12.7544 15.5734 12.8058 15.5392C13.6346 14.9639 14.4639 14.3886 15.2927 13.8054C15.7508 13.4814 16.0868 13.0183 16.2484 12.4881C16.2728 12.3992 16.292 12.309 16.3059 12.2179C16.2835 12.1364 16.2796 12.0511 16.2946 11.968H16.2941ZM12.6299 19.5207H11.9409C11.859 19.5199 11.7807 19.4875 11.7231 19.4304C11.6655 19.3733 11.6334 19.2962 11.6337 19.216L11.6775 16.8636C11.7372 16.781 11.8184 16.7156 11.9126 16.6739L12.8711 16.4922C12.8801 16.4923 12.889 16.494 12.8973 16.4975C12.9055 16.5009 12.9131 16.5059 12.9194 16.5121C12.9257 16.5184 12.9307 16.5258 12.9341 16.534C12.9375 16.5421 12.9392 16.5509 12.9392 16.5597V19.2179C12.9391 19.298 12.9067 19.3748 12.8491 19.4316C12.7915 19.4884 12.7133 19.5207 12.6315 19.5215L12.6299 19.5207Z" fill="#F68E00"/>
<path d="M16.5918 8.69607C16.613 8.74205 16.6241 8.79202 16.6242 8.84261V10.026C16.6232 10.3963 16.5356 10.7613 16.3683 11.0922C16.201 11.423 15.9585 11.7106 15.6601 11.9321C15.1836 12.3042 14.6956 12.6533 14.1964 13.0043L13.1212 13.7473C12.9802 13.849 12.8072 13.8971 12.6336 13.8827C12.5438 13.8723 12.4559 13.8495 12.3724 13.8148C12.2982 13.7779 12.2262 13.7366 12.1567 13.6913C11.1811 13.0262 10.2054 12.3614 9.25247 11.6629C8.82115 11.3587 8.4018 11.043 7.97047 10.7277C7.91376 10.6939 7.86863 10.6483 7.81072 10.6149C7.65128 10.4922 7.54236 10.3158 7.5044 10.1189C7.49435 10.0666 7.49047 10.0133 7.49282 9.96008V8.88987C7.49449 8.84445 7.49074 8.79899 7.48164 8.75445C7.4783 8.74786 7.47656 8.74058 7.47656 8.7332C7.47656 8.72583 7.4783 8.71855 7.48164 8.71196C7.48493 8.70551 7.48972 8.69993 7.49561 8.69568C7.50159 8.69141 7.50839 8.68844 7.51558 8.68694H7.52677C7.52939 8.70597 7.53326 8.7248 7.53835 8.74333C7.54746 8.85385 7.59572 8.95756 7.67454 9.036C7.73121 9.10771 7.80033 9.16877 7.87862 9.21629C9.01285 10.0613 10.1702 10.8842 11.3388 11.6955C11.6112 11.8873 11.8944 12.0672 12.1671 12.2586C12.277 12.3352 12.3994 12.3923 12.529 12.4273C12.6811 12.4635 12.8411 12.4475 12.9831 12.3821C13.0361 12.3589 13.0857 12.3286 13.1304 12.2919C13.8793 11.7626 14.6165 11.2439 15.3669 10.7142C15.5143 10.6129 15.6505 10.5117 15.7855 10.3989C16.141 10.0817 16.4005 9.67211 16.5347 9.21629C16.5555 9.1387 16.5707 9.05974 16.5802 8.98001C16.5899 8.93555 16.5938 8.89004 16.5918 8.84459V8.69607ZM12.5529 7.06117H12.8249C13.2661 7.09444 13.6935 7.2296 14.073 7.4559C14.3293 7.61073 14.5684 7.79216 14.7862 7.99716C14.9318 8.12167 15.0283 8.29347 15.0586 8.48203C15.089 8.6662 15.061 8.85518 14.9787 9.0229C14.956 9.07929 14.9216 9.12456 14.8989 9.16943C14.8877 9.19134 14.8685 9.20822 14.8453 9.21669C14.8221 9.22505 14.7965 9.2242 14.7739 9.2143C14.7627 9.2143 14.7627 9.20319 14.7515 9.20319C14.6716 9.1468 14.5917 9.10153 14.5019 9.04434C14.177 8.81548 13.8109 8.65086 13.4236 8.55947C13.1751 8.50179 12.9191 8.4829 12.6647 8.50348C12.1461 8.54112 11.6478 8.7197 11.2242 9.01972C11.0644 9.1325 10.8951 9.22264 10.7246 9.33503C10.7134 9.33503 10.7134 9.34654 10.7022 9.34654C10.6936 9.34529 10.6856 9.34124 10.6794 9.33503L9.72653 8.6929C9.70543 8.68092 9.6863 8.66578 9.66982 8.64802C9.65713 8.63965 9.64787 8.62705 9.64369 8.61249C9.63952 8.59793 9.64071 8.58237 9.64706 8.5686C9.64706 8.55709 9.65864 8.55709 9.66982 8.54597L9.69219 8.52333C9.96456 8.34344 10.2254 8.13972 10.4973 7.94752C10.7303 7.77756 10.9722 7.62021 11.2222 7.47615C11.5136 7.31575 11.8269 7.19842 12.1523 7.12788C12.2822 7.08905 12.4163 7.06625 12.5517 7.05998L12.5529 7.06117ZM12.0517 7.1525V5.17291C12.0537 5.0984 12.0853 5.02771 12.1395 4.97629C12.1938 4.92487 12.2663 4.8969 12.3413 4.8985H12.9176C12.9925 4.8969 13.065 4.92487 13.1193 4.97629C13.1735 5.02771 13.2051 5.0984 13.2071 5.17291V7.11875C12.8214 7.07446 12.4313 7.0861 12.0489 7.1533L12.0517 7.1525ZM16.6046 11.9973C16.6264 12.0431 16.6382 12.0931 16.6389 12.1438V13.3494C16.6287 13.8809 16.4457 14.3948 16.1174 14.8144C15.9752 14.9916 15.8114 15.1506 15.6297 15.2877C15.1505 15.6594 14.6532 16.0089 14.152 16.3599L13.1536 17.0473C13.0679 17.1065 12.9714 17.1485 12.8696 17.1712C12.7336 17.2053 12.59 17.1935 12.4615 17.1375C12.369 17.1039 12.2813 17.0583 12.2007 17.002C11.0888 16.2475 9.97694 15.4811 8.88784 14.6809C8.54757 14.4331 8.2089 14.1853 7.86664 13.9264C7.69842 13.8047 7.58499 13.6222 7.55073 13.4181C7.54081 13.3658 7.53706 13.3125 7.53955 13.2593V12.1672C7.54109 12.1257 7.53719 12.0842 7.52796 12.0437C7.51678 12.0096 7.53955 11.9758 7.56231 11.9758C7.56231 11.9985 7.57349 12.0096 7.57349 12.0322C7.58629 12.1565 7.64288 12.2722 7.73324 12.359C7.78834 12.4179 7.84922 12.4711 7.91496 12.5179C9.09472 13.3967 10.3088 14.2528 11.5213 15.0868C11.747 15.2456 11.975 15.391 12.1907 15.5375C12.2825 15.6081 12.3863 15.6618 12.497 15.6963C12.5801 15.7245 12.668 15.7361 12.7556 15.7303C12.8432 15.7245 12.9288 15.7015 13.0074 15.6626C13.063 15.6371 13.1165 15.607 13.1672 15.5728C13.9839 14.997 14.801 14.4212 15.6177 13.8371C16.0691 13.5129 16.4002 13.0496 16.5595 12.5191C16.5836 12.4299 16.6025 12.3395 16.6162 12.2482C16.5931 12.1667 16.5882 12.0812 16.6018 11.9977L16.6046 11.9973ZM12.9942 19.5571H12.3153C12.2346 19.5562 12.1576 19.5238 12.1009 19.4667C12.0442 19.4097 12.0125 19.3327 12.0126 19.2525L12.0557 16.8976C12.1148 16.8153 12.1947 16.75 12.2873 16.7082L13.2319 16.5263C13.2407 16.5263 13.2495 16.528 13.2576 16.5315C13.2658 16.5349 13.2732 16.5399 13.2794 16.5462C13.2856 16.5524 13.2906 16.5599 13.294 16.5681C13.2973 16.5762 13.299 16.585 13.299 16.5938V19.2545C13.2988 19.3345 13.2669 19.4112 13.2102 19.4681C13.1536 19.5249 13.0767 19.5573 12.9962 19.5583L12.9942 19.5571Z" fill="#FFF0B1"/>
</g>
<defs>
<clipPath id="clip0_6626_321">
<rect width="25" height="25" fill="white"/>
</clipPath>
</defs>
</svg>
