<svg width="171" height="102" viewBox="0 0 171 102" fill="none" xmlns="http://www.w3.org/2000/svg">
<g opacity="0.7">
<path d="M127.366 101H106.172V80.9999H127.366V101Z" stroke="#396764" stroke-opacity="0.1" stroke-width="0.386912"/>
<path d="M148.562 101H127.367V80.9999H148.562V101Z" stroke="#396764" stroke-opacity="0.1" stroke-width="0.386912"/>
<path d="M84.9915 101H63.7969V80.9999H84.9915V101Z" stroke="#396764" stroke-opacity="0.1" stroke-width="0.386912"/>
<path d="M106.171 101H84.9766V80.9999H106.171V101Z" stroke="#396764" stroke-opacity="0.1" stroke-width="0.386912"/>
<path d="M127.366 81H106.172V60.9999H127.366V81Z" stroke="#396764" stroke-opacity="0.1" stroke-width="0.386912"/>
<path d="M127.366 61H106.172V40.9999H127.366V61Z" stroke="#396764" stroke-opacity="0.1" stroke-width="0.386912"/>
<path d="M148.562 81H127.367V60.9999H148.562V81Z" stroke="#346458" stroke-opacity="0.3" stroke-width="0.898712"/>
<path d="M148.562 61H127.367V40.9999H148.562V61Z" stroke="#396764" stroke-opacity="0.1" stroke-width="0.386912"/>
<path d="M169.749 81H148.555V60.9999H169.749V81Z" stroke="#396764" stroke-opacity="0.1" stroke-width="0.386912"/>
<path d="M106.171 81H84.9766V60.9999H106.171V81Z" stroke="#396764" stroke-opacity="0.1" stroke-width="0.386912"/>
<path d="M21.3977 21L0.203125 21L0.203125 0.999887L21.3977 0.999887L21.3977 21Z" stroke="#396764" stroke-opacity="0.1" stroke-width="0.386912"/>
<path d="M148.562 41H127.367V20.9999L148.562 20.9999V41Z" stroke="#396764" stroke-opacity="0.1" stroke-width="0.386912"/>
<path d="M42.593 41H21.3984L21.3984 20.9999L42.593 20.9999V41Z" stroke="#396764" stroke-opacity="0.1" stroke-width="0.386912"/>
<path d="M148.562 21L127.367 21V0.999887L148.562 0.999887V21Z" stroke="#396764" stroke-opacity="0.1" stroke-width="0.386912"/>
<path d="M42.593 21L21.3984 21L21.3984 0.999887L42.593 0.999887V21Z" stroke="#396764" stroke-opacity="0.1" stroke-width="0.386912"/>
<path d="M169.749 41H148.555V20.9999L169.749 20.9999V41Z" stroke="#396764" stroke-opacity="0.1" stroke-width="0.386912"/>
<path d="M63.7884 21L42.5938 21V0.999887L63.7884 0.999887V21Z" stroke="#396764" stroke-opacity="0.1" stroke-width="0.386912"/>
<path d="M84.9915 41H63.7969V20.9999L84.9915 20.9999V41Z" stroke="#396764" stroke-opacity="0.1" stroke-width="0.386912"/>
<path d="M84.9915 21L63.7969 21V0.999887L84.9915 0.999887V21Z" stroke="#396764" stroke-opacity="0.1" stroke-width="0.386912"/>
<path d="M106.171 41H84.9766V20.9999L106.171 20.9999V41Z" stroke="#396764" stroke-opacity="0.1" stroke-width="0.386912"/>
<path d="M106.171 21L84.9766 21V0.999887L106.171 0.999887V21Z" stroke="#396764" stroke-opacity="0.1" stroke-width="0.386912"/>
<path d="M169.749 61H148.555V40.9999H169.749V61Z" stroke="#346458" stroke-opacity="0.3" stroke-width="0.898712"/>
</g>
</svg>
