<svg width="57" height="57" viewBox="0 0 57 57" fill="none" xmlns="http://www.w3.org/2000/svg">
<path d="M48.4048 0H8.59524C3.84822 0 0 3.84822 0 8.59524V48.4048C0 53.1518 3.84822 57 8.59524 57H48.4048C53.1518 57 57 53.1518 57 48.4048V8.59524C57 3.84822 53.1518 0 48.4048 0Z" fill="#111111"/>
<g clip-path="url(#clip0_652_6377)">
<path d="M19.59 19.0323C20.0426 19.0323 20.4477 19.2306 20.724 19.5459H34.2232L36.081 22.7597L34.2266 25.9701H25.6481C25.3718 26.2854 24.965 26.4837 24.5141 26.4837C23.6801 26.4837 23.0038 25.8074 23.0038 24.9751C23.0038 24.1428 23.6801 23.4665 24.5141 23.4665C24.9667 23.4665 25.3718 23.6648 25.6481 23.9801H33.0808L33.7876 22.7563L33.0825 21.5376H20.724C20.4477 21.8528 20.0409 22.0512 19.59 22.0512C18.7561 22.0512 18.0797 21.3748 18.0797 20.5426C18.0797 19.7103 18.7561 19.0323 19.59 19.0323ZM19.59 35.9504C20.0426 35.9504 20.4477 36.1488 20.724 36.464H33.0842L33.7893 35.2453L33.0825 34.0215H25.8972C25.6209 34.3368 25.2141 34.5351 24.7633 34.5351C23.9293 34.5351 23.253 33.8588 23.253 33.0265C23.253 32.1942 23.9293 31.5179 24.7633 31.5179C25.2158 31.5179 25.6209 31.7162 25.8972 32.0315H34.2266L36.081 35.2419L34.2232 38.4557H20.724C20.4477 38.771 20.0409 38.9693 19.59 38.9693C18.7561 38.9693 18.0797 38.293 18.0797 37.4607C18.0797 36.6285 18.7561 35.9521 19.59 35.9521V35.9504ZM22.5428 28.0058H35.4081L38.4422 22.7597L35.4081 17.5135H19.6443C19.368 17.8288 18.9612 18.0271 18.5103 18.0271C17.6763 18.0271 17 17.3508 17 16.5186C17 15.6863 17.6763 15.0066 18.5103 15.0066C18.9629 15.0066 19.368 15.2049 19.6443 15.5202H36.5522L40.7305 22.758L37.1268 28.9991L40.7305 35.2419L36.5522 42.4797H19.6443C19.368 42.795 18.9612 42.9933 18.5103 42.9933C17.6763 42.9933 17 42.317 17 41.4847C17 40.6525 17.6763 39.9762 18.5103 39.9762C18.9629 39.9762 19.368 40.1745 19.6443 40.4897H35.4064L38.4405 35.2436L35.4064 29.9975H22.5428C21.3986 29.9975 21.5393 28.0058 22.5428 28.0058Z" fill="white"/>
</g>
<defs>
<clipPath id="clip0_652_6377">
<rect width="23.7305" height="28" fill="white" transform="translate(17 15)"/>
</clipPath>
</defs>
</svg>
