<svg width="512" height="512" viewBox="0 0 512 512" fill="none" xmlns="http://www.w3.org/2000/svg">
<path d="M321.678 374.592H190.336V470.138H321.678V374.592Z" fill="#353640"/>
<path opacity="0.1" d="M228.241 374.592H190.336V470.138H228.241V374.592Z" fill="#7B7C8E"/>
<path d="M69.921 399.575C31.367 399.575 0 368.208 0 329.654V90.1521C0 51.5971 31.367 20.2321 69.921 20.2321H442.08C480.635 20.2321 512 51.5991 512 90.1521V329.654C512 368.209 480.635 399.575 442.08 399.575H69.921Z" fill="#515262"/>
<path d="M15.5 373C15.5 373 0 355.5 0 329.654V90.1521C0 51.5971 31.367 20.2321 69.921 20.2321C69.921 20.2321 413.5 20.2321 446 20.2321C478.5 20.2321 499 49.5 499 49.5L15.5 373Z" fill="#74758D"/>
<path d="M442.08 64.453H69.9197C55.7277 64.453 44.2227 75.959 44.2227 90.151V329.653C44.2227 343.846 55.7287 355.351 69.9207 355.351H442.08C456.273 355.351 467.778 343.846 467.778 329.653V90.152C467.777 75.959 456.272 64.453 442.08 64.453Z" fill="#30302F"/>
<path d="M354.117 448.503H157.883C145.935 448.503 136.25 458.188 136.25 470.136C136.25 482.084 145.935 491.769 157.883 491.769H354.117C366.065 491.769 375.75 482.084 375.75 470.136C375.75 458.188 366.065 448.503 354.117 448.503Z" fill="#515262"/>
<path opacity="0.1" d="M174.157 470.136C174.157 458.188 183.842 448.503 195.79 448.503H157.885C145.937 448.503 136.252 458.188 136.252 470.136C136.252 482.084 145.937 491.769 157.885 491.769H195.79C183.841 491.768 174.157 482.082 174.157 470.136Z" fill="black"/>
</svg>
