<?xml version="1.0" encoding="iso-8859-1"?>
<!-- Uploaded to: SVG Repo, www.svgrepo.com, Generator: SVG Repo Mixer Tools -->
<svg version="1.1" id="Layer_1" xmlns="http://www.w3.org/2000/svg" xmlns:xlink="http://www.w3.org/1999/xlink" 
	 viewBox="0 0 512 512" xml:space="preserve">
<path style="fill:#6B6B6B;" d="M0,355.2v-324c0.104-5.704,4.696-10.296,10.4-10.4h491.2c5.704,0.104,10.296,4.696,10.4,10.4v324H0z"
	/>
<path d="M512,355.2v41.6c-0.104,5.704-4.696,10.296-10.4,10.4H10.4c-5.704-0.104-10.296-4.696-10.4-10.4v-41.6H512z"/>
<rect x="146.4" y="480.8" style="fill:#333333;" width="219.2" height="10.4"/>
<polygon style="fill:#6B6B6B;" points="328.8,480.8 183.2,480.8 193.6,407.2 318.4,407.2 "/>
<rect x="20.8" y="41.6" width="470.4" height="292.8"/>
<polygon style="fill:#333333;" points="318.4,407.2 193.6,407.2 187.792,448.28 320.272,420.424 "/>
<g style="opacity:0.12;">
	<rect x="56.24" y="51.2" style="fill:#FFFFFF;" width="16" height="16"/>
	<rect x="91.072" y="51.2" style="fill:#FFFFFF;" width="16" height="16"/>
	<rect x="125.944" y="51.2" style="fill:#FFFFFF;" width="16" height="16"/>
	<rect x="160.8" y="51.2" style="fill:#FFFFFF;" width="16" height="16"/>
	<rect x="195.688" y="51.2" style="fill:#FFFFFF;" width="16" height="16"/>
	<rect x="230.56" y="51.2" style="fill:#FFFFFF;" width="16" height="16"/>
	<rect x="265.44" y="51.2" style="fill:#FFFFFF;" width="16" height="16"/>
	<rect x="300.312" y="51.2" style="fill:#FFFFFF;" width="16" height="16"/>
	<rect x="335.184" y="51.2" style="fill:#FFFFFF;" width="16" height="16"/>
	<rect x="370.08" y="51.2" style="fill:#FFFFFF;" width="16" height="16"/>
	<rect x="404.928" y="51.2" style="fill:#FFFFFF;" width="16" height="16"/>
	<rect x="439.8" y="51.2" style="fill:#FFFFFF;" width="16" height="16"/>
	<rect x="56.24" y="83.2" style="fill:#FFFFFF;" width="16" height="16"/>
	<rect x="91.072" y="83.2" style="fill:#FFFFFF;" width="16" height="16"/>
	<rect x="125.944" y="83.2" style="fill:#FFFFFF;" width="16" height="16"/>
	<rect x="160.8" y="83.2" style="fill:#FFFFFF;" width="16" height="16"/>
	<rect x="195.688" y="83.2" style="fill:#FFFFFF;" width="16" height="16"/>
	<rect x="230.56" y="83.2" style="fill:#FFFFFF;" width="16" height="16"/>
	<rect x="265.44" y="83.2" style="fill:#FFFFFF;" width="16" height="16"/>
	<rect x="300.312" y="83.2" style="fill:#FFFFFF;" width="16" height="16"/>
	<rect x="335.184" y="83.2" style="fill:#FFFFFF;" width="16" height="16"/>
	<rect x="370.08" y="83.2" style="fill:#FFFFFF;" width="16" height="16"/>
	<rect x="404.928" y="83.2" style="fill:#FFFFFF;" width="16" height="16"/>
	<rect x="439.8" y="83.2" style="fill:#FFFFFF;" width="16" height="16"/>
	<rect x="56.24" y="115.2" style="fill:#FFFFFF;" width="16" height="16"/>
	<rect x="91.072" y="115.2" style="fill:#FFFFFF;" width="16" height="16"/>
	<rect x="125.944" y="115.2" style="fill:#FFFFFF;" width="16" height="16"/>
	<rect x="160.8" y="115.2" style="fill:#FFFFFF;" width="16" height="16"/>
	<rect x="195.688" y="115.2" style="fill:#FFFFFF;" width="16" height="16"/>
	<rect x="230.56" y="115.2" style="fill:#FFFFFF;" width="16" height="16"/>
	<rect x="265.44" y="115.2" style="fill:#FFFFFF;" width="16" height="16"/>
	<rect x="300.312" y="115.2" style="fill:#FFFFFF;" width="16" height="16"/>
	<rect x="335.184" y="115.2" style="fill:#FFFFFF;" width="16" height="16"/>
	<rect x="370.08" y="115.2" style="fill:#FFFFFF;" width="16" height="16"/>
	<rect x="404.928" y="115.2" style="fill:#FFFFFF;" width="16" height="16"/>
	<rect x="439.8" y="115.2" style="fill:#FFFFFF;" width="16" height="16"/>
	<rect x="56.24" y="147.2" style="fill:#FFFFFF;" width="16" height="16"/>
	<rect x="91.072" y="147.2" style="fill:#FFFFFF;" width="16" height="16"/>
	<rect x="125.944" y="147.2" style="fill:#FFFFFF;" width="16" height="16"/>
	<rect x="160.8" y="147.2" style="fill:#FFFFFF;" width="16" height="16"/>
	<rect x="195.688" y="147.2" style="fill:#FFFFFF;" width="16" height="16"/>
	<rect x="230.56" y="147.2" style="fill:#FFFFFF;" width="16" height="16"/>
	<rect x="265.44" y="147.2" style="fill:#FFFFFF;" width="16" height="16"/>
	<rect x="300.312" y="147.2" style="fill:#FFFFFF;" width="16" height="16"/>
	<rect x="335.184" y="147.2" style="fill:#FFFFFF;" width="16" height="16"/>
	<rect x="370.08" y="147.2" style="fill:#FFFFFF;" width="16" height="16"/>
	<rect x="404.928" y="147.2" style="fill:#FFFFFF;" width="16" height="16"/>
	<rect x="439.8" y="147.2" style="fill:#FFFFFF;" width="16" height="16"/>
	<rect x="56.24" y="179.2" style="fill:#FFFFFF;" width="16" height="16"/>
	<rect x="91.072" y="179.2" style="fill:#FFFFFF;" width="16" height="16"/>
	<rect x="125.944" y="179.2" style="fill:#FFFFFF;" width="16" height="16"/>
	<rect x="160.8" y="179.2" style="fill:#FFFFFF;" width="16" height="16"/>
	<rect x="195.688" y="179.2" style="fill:#FFFFFF;" width="16" height="16"/>
	<rect x="230.56" y="179.2" style="fill:#FFFFFF;" width="16" height="16"/>
	<rect x="265.44" y="179.2" style="fill:#FFFFFF;" width="16" height="16"/>
	<rect x="300.312" y="179.2" style="fill:#FFFFFF;" width="16" height="16"/>
	<rect x="335.184" y="179.2" style="fill:#FFFFFF;" width="16" height="16"/>
	<rect x="370.08" y="179.2" style="fill:#FFFFFF;" width="16" height="16"/>
	<rect x="404.928" y="179.2" style="fill:#FFFFFF;" width="16" height="16"/>
	<rect x="439.8" y="179.2" style="fill:#FFFFFF;" width="16" height="16"/>
	<rect x="56.24" y="211.2" style="fill:#FFFFFF;" width="16" height="16"/>
	<rect x="91.072" y="211.2" style="fill:#FFFFFF;" width="16" height="16"/>
	<rect x="125.944" y="211.2" style="fill:#FFFFFF;" width="16" height="16"/>
	<rect x="160.8" y="211.2" style="fill:#FFFFFF;" width="16" height="16"/>
	<rect x="195.688" y="211.2" style="fill:#FFFFFF;" width="16" height="16"/>
	<rect x="230.56" y="211.2" style="fill:#FFFFFF;" width="16" height="16"/>
	<rect x="265.44" y="211.2" style="fill:#FFFFFF;" width="16" height="16"/>
	<rect x="300.312" y="211.2" style="fill:#FFFFFF;" width="16" height="16"/>
	<rect x="335.184" y="211.2" style="fill:#FFFFFF;" width="16" height="16"/>
	<rect x="370.08" y="211.2" style="fill:#FFFFFF;" width="16" height="16"/>
	<rect x="404.928" y="211.2" style="fill:#FFFFFF;" width="16" height="16"/>
	<rect x="439.8" y="211.2" style="fill:#FFFFFF;" width="16" height="16"/>
	<rect x="56.24" y="243.2" style="fill:#FFFFFF;" width="16" height="16"/>
	<rect x="91.072" y="243.2" style="fill:#FFFFFF;" width="16" height="16"/>
	<rect x="125.944" y="243.2" style="fill:#FFFFFF;" width="16" height="16"/>
	<rect x="160.8" y="243.2" style="fill:#FFFFFF;" width="16" height="16"/>
	<rect x="195.688" y="243.2" style="fill:#FFFFFF;" width="16" height="16"/>
	<rect x="230.56" y="243.2" style="fill:#FFFFFF;" width="16" height="16"/>
	<rect x="265.44" y="243.2" style="fill:#FFFFFF;" width="16" height="16"/>
	<rect x="300.312" y="243.2" style="fill:#FFFFFF;" width="16" height="16"/>
	<rect x="335.184" y="243.2" style="fill:#FFFFFF;" width="16" height="16"/>
	<rect x="370.08" y="243.2" style="fill:#FFFFFF;" width="16" height="16"/>
	<rect x="404.928" y="243.2" style="fill:#FFFFFF;" width="16" height="16"/>
	<rect x="439.8" y="243.2" style="fill:#FFFFFF;" width="16" height="16"/>
	<rect x="56.24" y="275.2" style="fill:#FFFFFF;" width="16" height="16"/>
	<rect x="91.072" y="275.2" style="fill:#FFFFFF;" width="16" height="16"/>
	<rect x="125.944" y="275.2" style="fill:#FFFFFF;" width="16" height="16"/>
	<rect x="160.8" y="275.2" style="fill:#FFFFFF;" width="16" height="16"/>
	<rect x="195.688" y="275.2" style="fill:#FFFFFF;" width="16" height="16"/>
	<rect x="230.56" y="275.2" style="fill:#FFFFFF;" width="16" height="16"/>
	<rect x="265.44" y="275.2" style="fill:#FFFFFF;" width="16" height="16"/>
	<rect x="300.312" y="275.2" style="fill:#FFFFFF;" width="16" height="16"/>
	<rect x="335.184" y="275.2" style="fill:#FFFFFF;" width="16" height="16"/>
	<rect x="370.08" y="275.2" style="fill:#FFFFFF;" width="16" height="16"/>
	<rect x="404.928" y="275.2" style="fill:#FFFFFF;" width="16" height="16"/>
	<rect x="439.8" y="275.2" style="fill:#FFFFFF;" width="16" height="16"/>
	<rect x="56.24" y="307.2" style="fill:#FFFFFF;" width="16" height="16"/>
	<rect x="91.072" y="307.2" style="fill:#FFFFFF;" width="16" height="16"/>
	<rect x="125.944" y="307.2" style="fill:#FFFFFF;" width="16" height="16"/>
	<rect x="160.8" y="307.2" style="fill:#FFFFFF;" width="16" height="16"/>
	<rect x="195.688" y="307.2" style="fill:#FFFFFF;" width="16" height="16"/>
	<rect x="230.56" y="307.2" style="fill:#FFFFFF;" width="16" height="16"/>
	<rect x="265.44" y="307.2" style="fill:#FFFFFF;" width="16" height="16"/>
	<rect x="300.312" y="307.2" style="fill:#FFFFFF;" width="16" height="16"/>
	<rect x="335.184" y="307.2" style="fill:#FFFFFF;" width="16" height="16"/>
	<rect x="370.08" y="307.2" style="fill:#FFFFFF;" width="16" height="16"/>
	<rect x="404.928" y="307.2" style="fill:#FFFFFF;" width="16" height="16"/>
	<rect x="439.8" y="307.2" style="fill:#FFFFFF;" width="16" height="16"/>
</g>
</svg>