<?xml version="1.0" encoding="iso-8859-1"?>
<!-- Uploaded to: SVG Repo, www.svgrepo.com, Generator: SVG Repo Mixer Tools -->
<svg version="1.1" id="Layer_1" xmlns="http://www.w3.org/2000/svg" xmlns:xlink="http://www.w3.org/1999/xlink" 
	 viewBox="0 0 512 512" xml:space="preserve">
<rect x="190.335" y="374.592" style="fill:#353640;" width="131.342" height="95.546"/>
<rect x="190.335" y="374.592" style="opacity:0.1;enable-background:new    ;" width="37.905" height="95.546"/>
<path style="fill:#515262;" d="M69.921,399.575C31.367,399.575,0,368.208,0,329.654V90.152c0-38.555,31.367-69.92,69.921-69.92
	H442.08c38.555,0,69.92,31.367,69.92,69.92v239.502c0,38.555-31.365,69.921-69.92,69.921L69.921,399.575L69.921,399.575z"/>
<path style="fill:#353640;" d="M442.08,64.453H69.92c-14.192,0-25.697,11.506-25.697,25.698v239.502
	c0,14.193,11.506,25.698,25.698,25.698H442.08c14.193,0,25.698-11.505,25.698-25.698V90.152
	C467.777,75.959,456.272,64.453,442.08,64.453z"/>
<path style="opacity:0.1;enable-background:new    ;" d="M82.128,128.057c0-14.193,11.506-25.699,25.698-25.699h359.952V90.152
	c0-14.193-11.505-25.698-25.698-25.698H69.921c-14.193,0-25.698,11.506-25.698,25.699v239.502c0,14.193,11.506,25.698,25.698,25.698
	h12.207V128.057z"/>
<path style="fill:#515262;" d="M354.117,448.503H157.883c-11.948,0-21.633,9.685-21.633,21.633s9.685,21.633,21.633,21.633h196.234
	c11.948,0,21.633-9.685,21.633-21.633C375.75,458.188,366.065,448.503,354.117,448.503z"/>
<path style="opacity:0.1;enable-background:new    ;" d="M174.156,470.136c0-11.948,9.685-21.633,21.633-21.633h-37.905
	c-11.948,0-21.633,9.685-21.633,21.633s9.685,21.633,21.633,21.633h37.905C183.84,491.768,174.156,482.082,174.156,470.136z"/>
</svg>