<?xml version="1.0" encoding="UTF-8"?><svg id="a" xmlns="http://www.w3.org/2000/svg" viewBox="0 0 450 450"><rect x="24.5" y="25" width="1" height="400" style="fill:#686868; opacity:.5;"/><rect x="44.049" y="24.5" width="1.003" height="401" style="fill:#686868; opacity:.2;"/><rect x="64.099" y="24.5" width="1.002" height="401" style="fill:#686868; opacity:.2;"/><rect x="84.149" y="24.5" width="1.002" height="401" style="fill:#686868; opacity:.2;"/><rect x="104.199" y="24.5" width="1.002" height="401" style="fill:#686868; opacity:.2;"/><rect x="124.248" y="24.5" width="1.003" height="401" style="fill:#686868; opacity:.5;"/><rect x="144.299" y="24.5" width="1.002" height="401" style="fill:#686868; opacity:.2;"/><rect x="164.349" y="24.5" width="1.002" height="401" style="fill:#686868; opacity:.2;"/><rect x="184.399" y="24.5" width="1.002" height="401" style="fill:#686868; opacity:.2;"/><rect x="204.449" y="24.5" width="1.002" height="401" style="fill:#686868; opacity:.2;"/><rect x="224.498" y="24.5" width="1.003" height="401" style="fill:#686868; opacity:.5;"/><rect x="244.549" y="24.5" width="1.002" height="401" style="fill:#686868; opacity:.2;"/><rect x="264.599" y="24.5" width="1.003" height="401" style="fill:#686868; opacity:.2;"/><rect x="284.648" y="24.5" width="1.003" height="401" style="fill:#686868; opacity:.2;"/><rect x="304.699" y="24.5" width="1.002" height="401" style="fill:#686868; opacity:.2;"/><rect x="324.749" y="24.5" width="1.002" height="401" style="fill:#686868; opacity:.5;"/><rect x="344.799" y="24.5" width="1.002" height="401" style="fill:#686868; opacity:.2;"/><rect x="364.849" y="24.5" width="1.003" height="401" style="fill:#686868; opacity:.2;"/><rect x="384.898" y="24.5" width="1.003" height="401" style="fill:#686868; opacity:.2;"/><rect x="404.949" y="24.5" width="1.002" height="401" style="fill:#686868; opacity:.2;"/><rect x="424.5" y="25" width="1" height="400" style="fill:#686868; opacity:.5;"/><rect x="25" y="24.5" width="400" height="1" style="fill:#686868; opacity:.5;"/><rect x="24.5" y="44.049" width="401" height="1.003" style="fill:#686868; opacity:.2;"/><rect x="24.5" y="64.099" width="401" height="1.002" style="fill:#686868; opacity:.2;"/><rect x="24.5" y="84.149" width="401" height="1.002" style="fill:#686868; opacity:.2;"/><rect x="24.5" y="104.199" width="401" height="1.003" style="fill:#686868; opacity:.2;"/><rect x="24.5" y="124.248" width="401" height="1.003" style="fill:#686868; opacity:.5;"/><rect x="24.5" y="144.299" width="401" height="1.003" style="fill:#686868; opacity:.2;"/><rect x="24.5" y="164.349" width="401" height="1.002" style="fill:#686868; opacity:.2;"/><rect x="24.5" y="184.399" width="401" height="1.002" style="fill:#686868; opacity:.2;"/><rect x="24.5" y="204.449" width="401" height="1.003" style="fill:#686868; opacity:.2;"/><rect x="24.5" y="224.498" width="401" height="1.003" style="fill:#686868; opacity:.5;"/><rect x="24.5" y="244.549" width="401" height="1.002" style="fill:#686868; opacity:.2;"/><rect x="24.5" y="264.599" width="401" height="1.003" style="fill:#686868; opacity:.2;"/><rect x="24.5" y="284.648" width="401" height="1.003" style="fill:#686868; opacity:.2;"/><rect x="24.5" y="304.699" width="401" height="1.002" style="fill:#686868; opacity:.2;"/><rect x="24.5" y="324.749" width="401" height="1.002" style="fill:#686868; opacity:.5;"/><rect x="24.5" y="344.799" width="401" height="1.002" style="fill:#686868; opacity:.2;"/><rect x="24.5" y="364.849" width="401" height="1.003" style="fill:#686868; opacity:.2;"/><rect x="24.5" y="384.898" width="401" height="1.003" style="fill:#686868; opacity:.2;"/><rect x="24.5" y="404.949" width="401" height="1.002" style="fill:#686868; opacity:.2;"/><rect x="25" y="424.5" width="400" height="1" style="fill:#686868; opacity:.5;"/><g><rect x="24.5" y="21.5" width="1" height="7" style="fill:#686868;"/><rect x="21.5" y="24.5" width="7" height="1" style="fill:#686868;"/></g><g><rect x="424.5" y="21.5" width="1" height="7" style="fill:#686868;"/><rect x="421.5" y="24.5" width="7" height="1" style="fill:#686868;"/></g><g><rect x="24.5" y="121.5" width="1" height="7" style="fill:#686868;"/><rect x="21.5" y="124.5" width="7" height="1" style="fill:#686868;"/></g><g><rect x="424.5" y="121.5" width="1" height="7" style="fill:#686868;"/><rect x="421.5" y="124.5" width="7" height="1" style="fill:#686868;"/></g><g><rect x="24.5" y="221.5" width="1" height="7" style="fill:#686868;"/><rect x="21.5" y="224.5" width="7" height="1" style="fill:#686868;"/></g><g><rect x="424.5" y="221.5" width="1" height="7" style="fill:#686868;"/><rect x="421.5" y="224.5" width="7" height="1" style="fill:#686868;"/></g><g><rect x="24.5" y="321.5" width="1" height="7" style="fill:#686868;"/><rect x="21.5" y="324.5" width="7" height="1" style="fill:#686868;"/></g><g><rect x="424.5" y="321.5" width="1" height="7" style="fill:#686868;"/><rect x="421.5" y="324.5" width="7" height="1" style="fill:#686868;"/></g><g><rect x="24.5" y="421.5" width="1" height="7" style="fill:#686868;"/><rect x="21.5" y="424.5" width="7" height="1" style="fill:#686868;"/></g><g><rect x="124.5" y="21.5" width="1" height="7" style="fill:#686868;"/><rect x="121.5" y="24.5" width="7" height="1" style="fill:#686868;"/></g><g><rect x="124.5" y="121.5" width="1" height="7" style="fill:#686868;"/><rect x="121.5" y="124.5" width="7" height="1" style="fill:#686868;"/></g><g><rect x="124.5" y="221.5" width="1" height="7" style="fill:#686868;"/><rect x="121.5" y="224.5" width="7" height="1" style="fill:#686868;"/></g><g><rect x="124.5" y="321.5" width="1" height="7" style="fill:#686868;"/><rect x="121.5" y="324.5" width="7" height="1" style="fill:#686868;"/></g><g><rect x="124.5" y="421.5" width="1" height="7" style="fill:#686868;"/><rect x="121.5" y="424.5" width="7" height="1" style="fill:#686868;"/></g><g><rect x="224.5" y="21.5" width="1" height="7" style="fill:#686868;"/><rect x="221.5" y="24.5" width="7" height="1" style="fill:#686868;"/></g><g><rect x="224.5" y="121.5" width="1" height="7" style="fill:#686868;"/><rect x="221.5" y="124.5" width="7" height="1" style="fill:#686868;"/></g><g><rect x="224.5" y="221.5" width="1" height="7" style="fill:#686868;"/><rect x="221.5" y="224.5" width="7" height="1" style="fill:#686868;"/></g><g><rect x="224.5" y="321.5" width="1" height="7" style="fill:#686868;"/><rect x="221.5" y="324.5" width="7" height="1" style="fill:#686868;"/></g><g><rect x="224.5" y="421.5" width="1" height="7" style="fill:#686868;"/><rect x="221.5" y="424.5" width="7" height="1" style="fill:#686868;"/></g><g><rect x="324.5" y="21.5" width="1" height="7" style="fill:#686868;"/><rect x="321.5" y="24.5" width="7" height="1" style="fill:#686868;"/></g><g><rect x="324.5" y="121.5" width="1" height="7" style="fill:#686868;"/><rect x="321.5" y="124.5" width="7" height="1" style="fill:#686868;"/></g><g><rect x="324.5" y="221.5" width="1" height="7" style="fill:#686868;"/><rect x="321.5" y="224.5" width="7" height="1" style="fill:#686868;"/></g><g><rect x="324.5" y="321.5" width="1" height="7" style="fill:#686868;"/><rect x="321.5" y="324.5" width="7" height="1" style="fill:#686868;"/></g><g><rect x="324.5" y="421.5" width="1" height="7" style="fill:#686868;"/><rect x="321.5" y="424.5" width="7" height="1" style="fill:#686868;"/></g><g><rect x="424.5" y="421.5" width="1" height="7" style="fill:#686868;"/><rect x="421.5" y="424.5" width="7" height="1" style="fill:#686868;"/></g><rect x="74.5" y="74.5" width="1" height="1" style="fill:#686868;"/><rect x="174.5" y="74.5" width="1" height="1" style="fill:#686868;"/><rect x="274.5" y="74.5" width="1" height="1" style="fill:#686868;"/><rect x="374.5" y="74.5" width="1" height="1" style="fill:#686868;"/><rect x="74.5" y="174.5" width="1" height="1" style="fill:#686868;"/><rect x="174.5" y="174.5" width="1" height="1" style="fill:#686868;"/><rect x="274.5" y="174.5" width="1" height="1" style="fill:#686868;"/><rect x="374.5" y="174.5" width="1" height="1" style="fill:#686868;"/><rect x="74.5" y="274.5" width="1" height="1" style="fill:#686868;"/><rect x="174.5" y="274.5" width="1" height="1" style="fill:#686868;"/><rect x="274.5" y="274.5" width="1" height="1" style="fill:#686868;"/><rect x="374.5" y="274.5" width="1" height="1" style="fill:#686868;"/><rect x="74.5" y="374.5" width="1" height="1" style="fill:#686868;"/><rect x="174.5" y="374.5" width="1" height="1" style="fill:#686868;"/><rect x="274.5" y="374.5" width="1" height="1" style="fill:#686868;"/><rect x="374.5" y="374.5" width="1" height="1" style="fill:#686868;"/></svg>