<svg width="163" height="107" viewBox="0 0 163 107" fill="none" xmlns="http://www.w3.org/2000/svg">
<mask id="mask0_1948_252" style="mask-type:alpha" maskUnits="userSpaceOnUse" x="0" y="1" width="159" height="105">
<rect width="159" height="105" transform="matrix(1 0 0 -1 0 106)" fill="#D9D9D9"/>
</mask>
<g mask="url(#mask0_1948_252)">
<path fill-rule="evenodd" clip-rule="evenodd" d="M19.7787 70.9631V104.377H53.1926V70.9631H19.7787ZM18.7008 69.8852V36.4713H9V35.3934H18.7008V1.97948H9V0.901619H18.7008V-32.5123H9V-33.5902H18.7008V-67.0041H9V-68.082H18.7008V-76.705H19.7787V-68.082H53.1926V-76.705H54.2705V-68.082H87.6844V-76.705H88.7623V-68.082H122.176V-76.705H123.254V-68.082H156.668V-76.705H157.746V-68.082H191.16V-76.705H192.238V-68.082H225.652V-76.705H226.73V-68.082H260.143V-76.705H261.221V-68.082H272V-67.0041H261.221V-33.5902H272V-32.5123H261.221V0.901619H272V1.97948H261.221V35.3934H272V36.4713H261.221V69.8852H272V70.9631H261.221V104.377H272V105.455H261.221V113H260.143V105.455H226.73V113H225.652V105.455H192.238V113H191.16V105.455H157.746V113H156.668V105.455H123.254V113H122.176V105.455H88.7623V113H87.6844V105.455H54.2705V113H53.1926V105.455H19.7787V113H18.7008V105.455H9V104.377H18.7008V70.9631H9V69.8852H18.7008ZM260.143 -67.0041V-33.5902H226.73V-67.0041H260.143ZM225.652 -67.0041V-33.5902H192.238V-67.0041H225.652ZM191.16 -67.0041V-33.5902H157.746V-67.0041H191.16ZM156.668 -67.0041V-33.5902H123.254V-67.0041H156.668ZM122.176 -67.0041V-33.5902H88.7623V-67.0041H122.176ZM87.6844 -67.0041V-33.5902H54.2705V-67.0041H87.6844ZM53.1926 -67.0041V-33.5902H19.7787V-67.0041H53.1926ZM53.1926 -32.5123H19.7787V0.901619H53.1926V-32.5123ZM87.6844 -32.5123H54.2705V0.901619H87.6844V-32.5123ZM122.176 -32.5123H88.7623V0.901619H122.176V-32.5123ZM156.668 -32.5123H123.254V0.901619H156.668V-32.5123ZM191.16 -32.5123H157.746V0.901619H191.16V-32.5123ZM225.652 -32.5123H192.238V0.901619H225.652V-32.5123ZM260.143 -32.5123H226.73V0.901619H260.143V-32.5123ZM260.143 1.97948V35.3934H226.73V1.97948H260.143ZM225.652 1.97948V35.3934H192.238V1.97948H225.652ZM191.16 1.97948V35.3934H157.746V1.97948H191.16ZM156.668 1.97948V35.3934H123.254V1.97948H156.668ZM122.176 1.97948V35.3934H88.7623V1.97948H122.176ZM87.6844 1.97948V35.3934H54.2705V1.97948H87.6844ZM53.1926 1.97948V35.3934H19.7787V1.97948H53.1926ZM53.1926 36.4713H19.7787V69.8852H53.1926V36.4713ZM87.6844 36.4713H54.2705V69.8852H87.6844V36.4713ZM122.176 36.4713H88.7623V69.8852H122.176V36.4713ZM156.668 36.4713H123.254V69.8852H156.668V36.4713ZM191.16 36.4713H157.746V69.8852H191.16V36.4713ZM225.652 36.4713H192.238V69.8852H225.652V36.4713ZM260.143 36.4713H226.73V69.8852H260.143V36.4713ZM260.143 70.9631V104.377H226.73V70.9631H260.143ZM225.652 70.9631V104.377H192.238V70.9631H225.652ZM191.16 70.9631V104.377H157.746V70.9631H191.16ZM156.668 70.9631V104.377H123.254V70.9631H156.668ZM122.176 70.9631V104.377H88.7623V70.9631H122.176ZM87.6844 70.9631V104.377H54.2705V70.9631H87.6844Z" fill="url(#paint0_radial_1948_252)"/>
</g>
<path d="M123 1H140.246H157.492V18.2459V35.4918" stroke="url(#paint1_linear_1948_252)" stroke-linecap="round"/>
<path d="M158.028 39.2753C160.409 39.2753 162.34 37.345 162.34 34.9638C162.34 32.5827 160.409 30.6523 158.028 30.6523C155.647 30.6523 153.717 32.5827 153.717 34.9638C153.717 37.345 155.647 39.2753 158.028 39.2753Z" fill="#3DDCA3"/>
<path d="M123.344 106.363H88.8525V71.8711" stroke="url(#paint2_linear_1948_252)" stroke-linecap="round"/>
<path d="M88.3115 75.623C90.6926 75.623 92.623 73.6926 92.623 71.3115C92.623 68.9303 90.6926 67 88.3115 67C85.9303 67 84 68.9303 84 71.3115C84 73.6926 85.9303 75.623 88.3115 75.623Z" fill="#3DDCA3"/>
<defs>
<radialGradient id="paint0_radial_1948_252" cx="0" cy="0" r="1" gradientUnits="userSpaceOnUse" gradientTransform="translate(141 87.5) rotate(-90) scale(116.5 123.184)">
<stop stop-color="#424242" stop-opacity="0.45"/>
<stop offset="1" stop-color="#8B8B8B" stop-opacity="0"/>
</radialGradient>
<linearGradient id="paint1_linear_1948_252" x1="158.031" y1="30.5821" x2="155.373" y2="-3.65101" gradientUnits="userSpaceOnUse">
<stop stop-color="#3DDCA3"/>
<stop offset="1" stop-color="#15D484" stop-opacity="0"/>
</linearGradient>
<linearGradient id="paint2_linear_1948_252" x1="89.3915" y1="76.1222" x2="115.72" y2="105.578" gradientUnits="userSpaceOnUse">
<stop stop-color="#3DDCA3"/>
<stop offset="1" stop-color="#3DDC99" stop-opacity="0"/>
</linearGradient>
</defs>
</svg>
