<svg width="450" height="450" viewBox="0 0 450 450" fill="none" xmlns="http://www.w3.org/2000/svg">
<g clip-path="url(#clip0_1969_404)">
<path opacity="0.2" d="M25.5 25H24.5V425H25.5V25Z" fill="#686868"/>
<path opacity="0.2" d="M45.0518 24.5H44.0488V425.5H45.0518V24.5Z" fill="#686868"/>
<path opacity="0.2" d="M65.1011 24.5H64.0991V425.5H65.1011V24.5Z" fill="#686868"/>
<path opacity="0.2" d="M85.1509 24.5H84.1489V425.5H85.1509V24.5Z" fill="#686868"/>
<path opacity="0.2" d="M105.201 24.5H104.199V425.5H105.201V24.5Z" fill="#686868"/>
<path opacity="0.2" d="M125.251 24.5H124.248V425.5H125.251V24.5Z" fill="#686868"/>
<path opacity="0.2" d="M145.301 24.5H144.299V425.5H145.301V24.5Z" fill="#686868"/>
<path opacity="0.2" d="M165.351 24.5H164.349V425.5H165.351V24.5Z" fill="#686868"/>
<path opacity="0.2" d="M185.401 24.5H184.399V425.5H185.401V24.5Z" fill="#686868"/>
<path opacity="0.2" d="M205.451 24.5H204.449V425.5H205.451V24.5Z" fill="#686868"/>
<path opacity="0.2" d="M225.501 24.5H224.498V425.5H225.501V24.5Z" fill="#686868"/>
<path opacity="0.2" d="M245.551 24.5H244.549V425.5H245.551V24.5Z" fill="#686868"/>
<path opacity="0.2" d="M265.602 24.5H264.599V425.5H265.602V24.5Z" fill="#686868"/>
<path opacity="0.2" d="M285.651 24.5H284.648V425.5H285.651V24.5Z" fill="#686868"/>
<path opacity="0.2" d="M305.701 24.5H304.699V425.5H305.701V24.5Z" fill="#686868"/>
<path opacity="0.2" d="M325.751 24.5H324.749V425.5H325.751V24.5Z" fill="#686868"/>
<path opacity="0.2" d="M345.801 24.5H344.799V425.5H345.801V24.5Z" fill="#686868"/>
<path opacity="0.2" d="M365.852 24.5H364.849V425.5H365.852V24.5Z" fill="#686868"/>
<path opacity="0.2" d="M385.901 24.5H384.898V425.5H385.901V24.5Z" fill="#686868"/>
<path opacity="0.2" d="M405.951 24.5H404.949V425.5H405.951V24.5Z" fill="#686868"/>
<path opacity="0.2" d="M425.5 25H424.5V425H425.5V25Z" fill="#686868"/>
<path opacity="0.2" d="M425.5 44.0488H24.5V45.0518H425.5V44.0488Z" fill="#686868"/>
<path opacity="0.2" d="M425.5 64.0996H24.5V65.1016H425.5V64.0996Z" fill="#686868"/>
<path opacity="0.2" d="M425.5 84.1484H24.5V85.1504H425.5V84.1484Z" fill="#686868"/>
<path opacity="0.2" d="M425.5 104.199H24.5V105.202H425.5V104.199Z" fill="#686868"/>
<path opacity="0.2" d="M425.5 144.299H24.5V145.302H425.5V144.299Z" fill="#686868"/>
<path opacity="0.2" d="M425.5 164.35H24.5V165.352H425.5V164.35Z" fill="#686868"/>
<path opacity="0.2" d="M425.5 184.398H24.5V185.4H425.5V184.398Z" fill="#686868"/>
<path opacity="0.2" d="M425.5 204.449H24.5V205.452H425.5V204.449Z" fill="#686868"/>
<path opacity="0.2" d="M425.5 244.549H24.5V245.551H425.5V244.549Z" fill="#686868"/>
<path opacity="0.2" d="M425.5 264.6H24.5V265.603H425.5V264.6Z" fill="#686868"/>
<path opacity="0.2" d="M451 325H1V326.003H451V325Z" fill="#686868"/>
<path opacity="0.2" d="M450 424H0V425.003H450V424Z" fill="#686868"/>
<path opacity="0.2" d="M451 225H1V226.003H451V225Z" fill="#686868"/>
<path opacity="0.2" d="M450 124H0V125.003H450V124Z" fill="#686868"/>
<path opacity="0.2" d="M450 25H0V26.003H450V25Z" fill="#686868"/>
<path opacity="0.2" d="M425.5 304.699H24.5V305.701H425.5V304.699Z" fill="#686868"/>
<path opacity="0.2" d="M425.5 344.799H24.5V345.801H425.5V344.799Z" fill="#686868"/>
<path opacity="0.2" d="M425.5 364.85H24.5V365.853H425.5V364.85Z" fill="#686868"/>
<path opacity="0.2" d="M425.5 384.898H24.5V385.901H425.5V384.898Z" fill="#686868"/>
<path opacity="0.2" d="M425.5 404.949H24.5V405.951H425.5V404.949Z" fill="#686868"/>
<path d="M25.5 21.5H24.5V28.5H25.5V21.5Z" fill="#686868"/>
<path d="M28.5 24.5H21.5V25.5H28.5V24.5Z" fill="#686868"/>
<path d="M425.5 21.5H424.5V28.5H425.5V21.5Z" fill="#686868"/>
<path d="M428.5 24.5H421.5V25.5H428.5V24.5Z" fill="#686868"/>
<path d="M25.5 121.5H24.5V128.5H25.5V121.5Z" fill="#686868"/>
<path d="M28.5 124.5H21.5V125.5H28.5V124.5Z" fill="#686868"/>
<path d="M425.5 121.5H424.5V128.5H425.5V121.5Z" fill="#686868"/>
<path d="M428.5 124.5H421.5V125.5H428.5V124.5Z" fill="#686868"/>
<path d="M25.5 221.5H24.5V228.5H25.5V221.5Z" fill="#686868"/>
<path d="M28.5 224.5H21.5V225.5H28.5V224.5Z" fill="#686868"/>
<path d="M425.5 221.5H424.5V228.5H425.5V221.5Z" fill="#686868"/>
<path d="M428.5 224.5H421.5V225.5H428.5V224.5Z" fill="#686868"/>
<path d="M25.5 321.5H24.5V328.5H25.5V321.5Z" fill="#686868"/>
<path d="M28.5 324.5H21.5V325.5H28.5V324.5Z" fill="#686868"/>
<path d="M425.5 321.5H424.5V328.5H425.5V321.5Z" fill="#686868"/>
<path d="M428.5 324.5H421.5V325.5H428.5V324.5Z" fill="#686868"/>
<path d="M25.5 421.5H24.5V428.5H25.5V421.5Z" fill="#686868"/>
<path d="M28.5 424.5H21.5V425.5H28.5V424.5Z" fill="#686868"/>
<path d="M125.5 21.5H124.5V28.5H125.5V21.5Z" fill="#686868"/>
<path d="M128.5 24.5H121.5V25.5H128.5V24.5Z" fill="#686868"/>
<path d="M125.5 121.5H124.5V128.5H125.5V121.5Z" fill="#686868"/>
<path d="M128.5 124.5H121.5V125.5H128.5V124.5Z" fill="#686868"/>
<path d="M125.5 221.5H124.5V228.5H125.5V221.5Z" fill="#686868"/>
<path d="M128.5 224.5H121.5V225.5H128.5V224.5Z" fill="#686868"/>
<path d="M125.5 321.5H124.5V328.5H125.5V321.5Z" fill="#686868"/>
<path d="M128.5 324.5H121.5V325.5H128.5V324.5Z" fill="#686868"/>
<path d="M125.5 421.5H124.5V428.5H125.5V421.5Z" fill="#686868"/>
<path d="M128.5 424.5H121.5V425.5H128.5V424.5Z" fill="#686868"/>
<path d="M225.5 21.5H224.5V28.5H225.5V21.5Z" fill="#686868"/>
<path d="M228.5 24.5H221.5V25.5H228.5V24.5Z" fill="#686868"/>
<path d="M225.5 121.5H224.5V128.5H225.5V121.5Z" fill="#686868"/>
<path d="M228.5 124.5H221.5V125.5H228.5V124.5Z" fill="#686868"/>
<path d="M225.5 221.5H224.5V228.5H225.5V221.5Z" fill="#686868"/>
<path d="M228.5 224.5H221.5V225.5H228.5V224.5Z" fill="#686868"/>
<path d="M225.5 321.5H224.5V328.5H225.5V321.5Z" fill="#686868"/>
<path d="M228.5 324.5H221.5V325.5H228.5V324.5Z" fill="#686868"/>
<path d="M225.5 421.5H224.5V428.5H225.5V421.5Z" fill="#686868"/>
<path d="M228.5 424.5H221.5V425.5H228.5V424.5Z" fill="#686868"/>
<path d="M325.5 21.5H324.5V28.5H325.5V21.5Z" fill="#686868"/>
<path d="M328.5 24.5H321.5V25.5H328.5V24.5Z" fill="#686868"/>
<path d="M325.5 121.5H324.5V128.5H325.5V121.5Z" fill="#686868"/>
<path d="M328.5 124.5H321.5V125.5H328.5V124.5Z" fill="#686868"/>
<path d="M325.5 221.5H324.5V228.5H325.5V221.5Z" fill="#686868"/>
<path d="M328.5 224.5H321.5V225.5H328.5V224.5Z" fill="#686868"/>
<path d="M325.5 321.5H324.5V328.5H325.5V321.5Z" fill="#686868"/>
<path d="M328.5 324.5H321.5V325.5H328.5V324.5Z" fill="#686868"/>
<path d="M325.5 421.5H324.5V428.5H325.5V421.5Z" fill="#686868"/>
<path d="M328.5 424.5H321.5V425.5H328.5V424.5Z" fill="#686868"/>
<path d="M425.5 421.5H424.5V428.5H425.5V421.5Z" fill="#686868"/>
<path d="M428.5 424.5H421.5V425.5H428.5V424.5Z" fill="#686868"/>
<path d="M75.5 74.5H74.5V75.5H75.5V74.5Z" fill="#686868"/>
<path d="M175.5 74.5H174.5V75.5H175.5V74.5Z" fill="#686868"/>
<path d="M275.5 74.5H274.5V75.5H275.5V74.5Z" fill="#686868"/>
<path d="M375.5 74.5H374.5V75.5H375.5V74.5Z" fill="#686868"/>
<path d="M75.5 174.5H74.5V175.5H75.5V174.5Z" fill="#686868"/>
<path d="M175.5 174.5H174.5V175.5H175.5V174.5Z" fill="#686868"/>
<path d="M275.5 174.5H274.5V175.5H275.5V174.5Z" fill="#686868"/>
<path d="M375.5 174.5H374.5V175.5H375.5V174.5Z" fill="#686868"/>
<path d="M75.5 274.5H74.5V275.5H75.5V274.5Z" fill="#686868"/>
<path d="M175.5 274.5H174.5V275.5H175.5V274.5Z" fill="#686868"/>
<path d="M275.5 274.5H274.5V275.5H275.5V274.5Z" fill="#686868"/>
<path d="M375.5 274.5H374.5V275.5H375.5V274.5Z" fill="#686868"/>
<path d="M75.5 374.5H74.5V375.5H75.5V374.5Z" fill="#686868"/>
<path d="M175.5 374.5H174.5V375.5H175.5V374.5Z" fill="#686868"/>
<path d="M275.5 374.5H274.5V375.5H275.5V374.5Z" fill="#686868"/>
<path d="M375.5 374.5H374.5V375.5H375.5V374.5Z" fill="#686868"/>
</g>
<defs>
<clipPath id="clip0_1969_404">
<rect width="450" height="450" fill="white"/>
</clipPath>
</defs>
</svg>
