<svg width="42" height="42" viewBox="0 0 42 42" fill="none" xmlns="http://www.w3.org/2000/svg">
<g clip-path="url(#clip0_1993_249)">
<g opacity="0.2">
<path d="M33 41C33 42.1 32.1 43 31 43H11C9.9 43 9 42.1 9 41C9 39.9 9.9 39 11 39H31C32.1 39 33 39.9 33 41Z" fill="#231F20"/>
</g>
<path d="M33 39C33 40.1 32.1 41 31 41H11C9.9 41 9 40.1 9 39C9 37.9 9.9 37 11 37H31C32.1 37 33 37.9 33 39Z" fill="#4F4F4F"/>
<path d="M25.9996 31C25.9996 31 24.9996 37 28.9996 37C28.9996 37 8.99963 37 12.9996 37C16.9996 37 15.9996 31 15.9996 31H25.9996Z" fill="#878787"/>
<g opacity="0.2">
<path d="M41 29C41 31.2 39.2 33 37 33H5C2.8 33 1 31.2 1 29V7C1 4.8 2.8 3 5 3H37C39.2 3 41 4.8 41 7V29Z" fill="#231F20"/>
</g>
<path d="M5 29.5C3.6 29.5 2.5 28.4 2.5 27V5C2.5 3.6 3.6 2.5 5 2.5H37C38.4 2.5 39.5 3.6 39.5 5V27C39.5 28.4 38.4 29.5 37 29.5H5Z" fill="#1C1C1D"/>
<path d="M37 4C37.6 4 38 4.4 38 5V27C38 27.6 37.6 28 37 28H5C4.4 28 4 27.6 4 27V5C4 4.4 4.4 4 5 4H37ZM37 1H5C2.8 1 1 2.8 1 5V27C1 29.2 2.8 31 5 31H37C39.2 31 41 29.2 41 27V5C41 2.8 39.2 1 37 1Z" fill="#4F4F4F"/>
<g opacity="0.2">
<path d="M39.0002 28.9004V2.90039H15.2002L30.2002 28.9004H39.0002Z" fill="#919191"/>
</g>
</g>
<defs>
<clipPath id="clip0_1993_249">
<rect width="42" height="42" fill="white"/>
</clipPath>
</defs>
</svg>
