<svg width="500" height="500" viewBox="0 0 500 500" fill="none" xmlns="http://www.w3.org/2000/svg">
<path d="M181.85 454.547V466.369H295.495V454.547H318.219C324.585 454.547 330.041 457.27 334.586 460.913C339.139 464.547 340.952 470.913 340.952 477.28C340.952 490.012 330.952 500.003 318.219 500.003H159.117C152.751 500.003 147.304 497.28 142.75 493.646C138.205 490.012 136.393 483.646 136.393 477.28C136.393 464.547 146.384 454.556 159.117 454.556H181.85V454.547Z" fill="#57606F"/>
<path d="M181.85 380.125V454.672V466.493H295.495V454.672V380.125H181.85Z" fill="#414A56"/>
<path d="M499.112 318.129V353.585C499.112 368.13 487.29 380.863 471.843 380.863H27.2684C12.7234 380.863 0 369.05 0 353.585V318.129H499.112Z" fill="#57606F"/>
<path d="M499.127 27.2775V318.205H0.917725V27.2775C0.917725 12.7325 12.7304 0 28.1861 0H473.662C487.305 0 499.118 11.8217 499.118 27.2775H499.127Z" fill="#D7DEED"/>
<path d="M246.414 423.732C248.226 425.544 250.048 429.178 250.048 431.91C250.048 434.643 249.137 438.277 246.414 440.089C244.601 441.911 240.958 443.723 238.235 443.723C235.512 443.723 231.869 442.813 230.056 440.089C228.235 437.366 227.324 434.634 227.324 431.91C227.324 429.187 228.235 425.544 230.958 423.732C232.771 421.91 236.404 420.098 239.137 420.098C241.869 420.098 244.592 421.919 246.414 423.732Z" fill="#B3B3B3"/>
<path d="M454.56 284.635C448.202 284.635 442.747 279.18 442.747 272.814V57.3434H57.2725V272.814C57.2725 279.18 51.8082 284.635 45.451 284.635C39.0937 284.635 33.6289 279.18 33.6289 272.814V45.5307C33.6289 39.1644 39.0847 33.709 45.451 33.709H454.56C460.926 33.709 466.382 39.1644 466.382 45.5307V272.814C466.382 279.18 460.935 284.635 454.56 284.635Z" fill="#AFB9D2"/>
<path d="M204.583 204.705C200.949 204.705 197.306 202.884 194.583 199.25C190.949 193.794 192.77 186.526 198.217 183.794L323.685 103.792C329.131 100.158 336.408 101.971 339.14 107.426C341.864 112.882 340.953 120.159 335.506 122.882L210.039 202.884C209.128 203.795 206.396 204.705 204.583 204.705Z" fill="white"/>
<path d="M204.583 250.139C200.949 250.139 197.306 248.318 194.583 244.684C190.949 239.229 192.77 231.96 198.217 229.228L251.852 194.683C257.308 191.049 264.585 192.861 267.317 198.317C270.942 203.772 269.13 211.049 263.683 213.772L210.039 248.318C209.128 249.229 206.396 250.139 204.583 250.139Z" fill="white"/>
</svg>
