<svg width="749" height="400" viewBox="0 0 749 400" fill="none" xmlns="http://www.w3.org/2000/svg">
<path opacity="0.3" fill-rule="evenodd" clip-rule="evenodd" d="M326.652 125.585V71.8636H381.374V125.585H326.652ZM324.887 127.318V181.04H309V182.773H324.887V236.494H309V238.227H324.887V291.949H309V293.682H324.887V347.403H309V349.136H324.887V363H326.652V349.136H381.374V363H383.139V349.136H437.861V363H439.626V349.136H494.347V363H496.113V349.136H550.834V363H552.599V349.136H607.321V363H609.086V349.136H663.808V363H665.573V349.136H720.295V363H722.06V349.136H739.712V347.403H722.06V293.682H739.712V291.949H722.06V238.227H739.712V236.494H722.06V182.773H739.712V181.04H722.06V127.318H739.712V125.585H722.06V71.8636H739.712V70.1307H722.06V58H720.295V70.1307H665.573V58H663.808V70.1307H609.086V58H607.321V70.1307H552.599V58H550.834V70.1307H496.113V58H494.347V70.1307H439.626V58H437.861V70.1307H383.139V58H381.374V70.1307H326.652V58H324.887V70.1307H309V71.8636H324.887V125.585H309V127.318H324.887ZM720.295 347.403V293.682H665.573V347.403H720.295ZM663.808 347.403V293.682H609.086V347.403H663.808ZM607.321 347.403V293.682H552.599V347.403H607.321ZM550.834 347.403V293.682H496.113V347.403H550.834ZM494.347 347.403V293.682H439.626V347.403H494.347ZM437.861 347.403V293.682H383.139V347.403H437.861ZM381.374 347.403V293.682H326.652V347.403H381.374ZM381.374 291.949H326.652V238.227H381.374V291.949ZM437.861 291.949H383.139V238.227H437.861V291.949ZM494.347 291.949H439.626V238.227H494.347V291.949ZM550.834 291.949H496.113V238.227H550.834V291.949ZM607.321 291.949H552.599V238.227H607.321V291.949ZM663.808 291.949H609.086V238.227H663.808V291.949ZM720.295 291.949H665.573V238.227H720.295V291.949ZM720.295 236.494V182.773H665.573V236.494H720.295ZM663.808 236.494V182.773H609.086V236.494H663.808ZM607.321 236.494V182.773H552.599V236.494H607.321ZM550.834 236.494V182.773H496.113V236.494H550.834ZM494.347 236.494V182.773H439.626V236.494H494.347ZM437.861 236.494V182.773H383.139V236.494H437.861ZM381.374 236.494V182.773H326.652V236.494H381.374ZM381.374 181.04H326.652V127.318H381.374V181.04ZM437.861 181.04H383.139V127.318H437.861V181.04ZM494.347 181.04H439.626V127.318H494.347V181.04ZM550.834 181.04H496.113V127.318H550.834V181.04ZM607.321 181.04H552.599V127.318H607.321V181.04ZM663.808 181.04H609.086V127.318H663.808V181.04ZM720.295 181.04H665.573V127.318H720.295V181.04ZM720.295 125.585V71.8636H665.573V125.585H720.295ZM663.808 125.585V71.8636H609.086V125.585H663.808ZM607.321 125.585V71.8636H552.599V125.585H607.321ZM550.834 125.585V71.8636H496.113V125.585H550.834ZM494.347 125.585V71.8636H439.626V125.585H494.347ZM437.861 125.585V71.8636H383.139V125.585H437.861Z" fill="url(#paint0_radial_520_828)"/>
<path fill-rule="evenodd" clip-rule="evenodd" d="M620.776 104.278V103.33L619.856 103.103L531.738 81.3575L531.447 81.2859L531.158 81.3575L443.04 103.103L442.119 103.33V104.278V132.057V132.319C442.119 169.304 442.119 188.084 447.241 205.111C452.171 221.496 460.527 236.649 471.753 249.563C483.419 262.982 499.302 273.005 530.58 292.743L530.801 292.883L531.447 293.289L532.093 292.883L532.315 292.743C563.592 273.005 579.475 262.982 591.141 249.563C602.368 236.649 610.723 221.496 615.653 205.111C620.776 188.084 620.776 169.304 620.776 132.319V132.057V104.278ZM472.667 248.769C484.215 262.053 499.959 271.988 531.447 291.858C562.935 271.988 578.679 262.053 590.227 248.769C601.342 235.984 609.613 220.984 614.493 204.762C619.565 187.907 619.565 169.29 619.565 132.057V104.278L531.447 82.5326L443.329 104.278V132.057C443.329 169.29 443.329 187.907 448.401 204.762C453.281 220.984 461.552 235.984 472.667 248.769Z" fill="url(#paint1_radial_520_828)"/>
<path d="M630.634 94.454V93.98L630.173 93.8665L531.613 69.5448L531.468 69.509L531.324 69.5448L432.764 93.8665L432.303 93.98V94.454V125.525V125.657C432.303 167.176 432.303 188.081 438.002 207.019C443.486 225.246 452.778 242.099 465.267 256.463C478.241 271.39 495.92 282.546 531.033 304.703L531.116 304.756L531.427 305.004L531.792 304.773L531.903 304.703C567.016 282.546 584.694 271.39 597.67 256.463C610.158 242.099 619.451 225.246 624.935 207.019C630.634 188.081 630.634 167.176 630.634 125.657V125.525V94.454Z" stroke="#326357" stroke-width="0.43"/>
<path d="M608.886 115V114.439L608.342 114.305L531.621 95.3717L531.449 95.3293L531.277 95.3717L454.554 114.305L454.01 114.439V115V139.186V139.342C454.01 171.612 454.01 187.918 458.456 202.695C462.735 216.917 469.986 230.067 479.73 241.275C489.854 252.92 503.644 261.623 530.935 278.844L531.067 278.927L531.422 279.152L531.791 278.95L531.811 278.94L531.831 278.927L531.963 278.844C559.254 261.623 573.044 252.92 583.167 241.275C592.91 230.067 600.161 216.917 604.44 202.695C608.886 187.918 608.886 171.612 608.886 139.342V139.186V115Z" fill="#1C1C1C" stroke="url(#paint2_linear_520_828)" stroke-width="0.8"/>
<path fill-rule="evenodd" clip-rule="evenodd" d="M532.016 215.179V182.914L587.921 123.855L599.408 128.26L599.417 143.976L532.016 215.179ZM532.016 243.945L599.268 172.904C597.299 211.756 574.883 242.511 532.016 265.163V243.945ZM532.016 154.147V107.345L568.182 115.564L532.016 154.142V154.147Z" fill="#383838" fill-opacity="0.45"/>
<defs>
<radialGradient id="paint0_radial_520_828" cx="0" cy="0" r="1" gradientUnits="userSpaceOnUse" gradientTransform="translate(524 152) rotate(142.438) scale(281.321 165.686)">
<stop stop-color="#777777" stop-opacity="0.42"/>
<stop offset="1" stop-color="#7D7D7D" stop-opacity="0"/>
</radialGradient>
<radialGradient id="paint1_radial_520_828" cx="0" cy="0" r="1" gradientUnits="userSpaceOnUse" gradientTransform="translate(531.444 187.237) rotate(90) scale(232.23 195.559)">
<stop stop-color="#6EABA1"/>
<stop offset="1" stop-color="#5A6563" stop-opacity="0"/>
</radialGradient>
<linearGradient id="paint2_linear_520_828" x1="531.449" y1="96.0666" x2="582" y2="336" gradientUnits="userSpaceOnUse">
<stop offset="0.144128" stop-color="#454545" stop-opacity="0.56"/>
<stop offset="0.807485" stop-color="#8B8B8B" stop-opacity="0.66"/>
</linearGradient>
</defs>
</svg>
