<svg width="749" height="400" viewBox="0 0 749 400" fill="none" xmlns="http://www.w3.org/2000/svg">
<path opacity="0.3" fill-rule="evenodd" clip-rule="evenodd" d="M326.652 125.585V71.8636H381.374V125.585H326.652ZM324.887 127.318V181.04H309V182.773H324.887V236.494H309V238.227H324.887V291.949H309V293.682H324.887V347.403H309V349.136H324.887V363H326.652V349.136H381.374V363H383.139V349.136H437.861V363H439.626V349.136H494.347V363H496.113V349.136H550.834V363H552.599V349.136H607.321V363H609.086V349.136H663.808V363H665.573V349.136H720.295V363H722.06V349.136H739.712V347.403H722.06V293.682H739.712V291.949H722.06V238.227H739.712V236.494H722.06V182.773H739.712V181.04H722.06V127.318H739.712V125.585H722.06V71.8636H739.712V70.1307H722.06V58H720.295V70.1307H665.573V58H663.808V70.1307H609.086V58H607.321V70.1307H552.599V58H550.834V70.1307H496.113V58H494.347V70.1307H439.626V58H437.861V70.1307H383.139V58H381.374V70.1307H326.652V58H324.887V70.1307H309V71.8636H324.887V125.585H309V127.318H324.887ZM720.295 347.403V293.682H665.573V347.403H720.295ZM663.808 347.403V293.682H609.086V347.403H663.808ZM607.321 347.403V293.682H552.599V347.403H607.321ZM550.834 347.403V293.682H496.113V347.403H550.834ZM494.347 347.403V293.682H439.626V347.403H494.347ZM437.861 347.403V293.682H383.139V347.403H437.861ZM381.374 347.403V293.682H326.652V347.403H381.374ZM381.374 291.949H326.652V238.227H381.374V291.949ZM437.861 291.949H383.139V238.227H437.861V291.949ZM494.347 291.949H439.626V238.227H494.347V291.949ZM550.834 291.949H496.113V238.227H550.834V291.949ZM607.321 291.949H552.599V238.227H607.321V291.949ZM663.808 291.949H609.086V238.227H663.808V291.949ZM720.295 291.949H665.573V238.227H720.295V291.949ZM720.295 236.494V182.773H665.573V236.494H720.295ZM663.808 236.494V182.773H609.086V236.494H663.808ZM607.321 236.494V182.773H552.599V236.494H607.321ZM550.834 236.494V182.773H496.113V236.494H550.834ZM494.347 236.494V182.773H439.626V236.494H494.347ZM437.861 236.494V182.773H383.139V236.494H437.861ZM381.374 236.494V182.773H326.652V236.494H381.374ZM381.374 181.04H326.652V127.318H381.374V181.04ZM437.861 181.04H383.139V127.318H437.861V181.04ZM494.347 181.04H439.626V127.318H494.347V181.04ZM550.834 181.04H496.113V127.318H550.834V181.04ZM607.321 181.04H552.599V127.318H607.321V181.04ZM663.808 181.04H609.086V127.318H663.808V181.04ZM720.295 181.04H665.573V127.318H720.295V181.04ZM720.295 125.585V71.8636H665.573V125.585H720.295ZM663.808 125.585V71.8636H609.086V125.585H663.808ZM607.321 125.585V71.8636H552.599V125.585H607.321ZM550.834 125.585V71.8636H496.113V125.585H550.834ZM494.347 125.585V71.8636H439.626V125.585H494.347ZM437.861 125.585V71.8636H383.139V125.585H437.861Z" fill="url(#paint0_radial_520_983)"/>
<path fill-rule="evenodd" clip-rule="evenodd" d="M631.063 98.793V98.0079L630.302 97.8198L557.336 79.814L557.095 79.7546L556.855 79.814L483.889 97.8198L483.127 98.0079V98.793V121.795V122.012C483.127 152.637 483.127 168.188 487.369 182.287C491.451 195.856 498.37 208.403 507.666 219.095C517.326 230.207 530.477 238.507 556.376 254.85L556.56 254.967L557.095 255.304L557.63 254.967L557.814 254.85C583.713 238.507 596.864 230.207 606.524 219.095C615.821 208.403 622.739 195.856 626.821 182.287C631.063 168.188 631.063 152.637 631.063 122.012V121.795V98.793ZM508.422 218.438C517.984 229.438 531.021 237.664 557.095 254.118C583.168 237.664 596.205 229.438 605.768 218.438C614.972 207.851 621.82 195.431 625.862 181.998C630.061 168.041 630.061 152.625 630.061 121.795V98.793L557.095 80.787L484.129 98.793V121.795C484.129 152.625 484.129 168.041 488.328 181.998C492.37 195.431 499.218 207.851 508.422 218.438Z" fill="url(#paint1_radial_520_983)"/>
<path d="M639.227 90.6556V90.263L638.846 90.1691L557.234 70.0295L557.114 70L556.994 70.0295L475.381 90.1691L475 90.263V90.6556V116.383V116.493C475 150.873 475 168.183 479.719 183.865C484.261 198.957 491.955 212.913 502.296 224.806C513.039 237.166 527.678 246.404 556.753 264.752L556.821 264.796L557.079 265L557.381 264.809L557.474 264.752C586.549 246.404 601.188 237.166 611.932 224.806C622.272 212.913 629.968 198.957 634.509 183.865C639.227 168.183 639.227 150.873 639.227 116.493V116.383V90.6556Z" stroke="#858585" stroke-width="0.43"/>
<path d="M621.213 107.669V107.204L620.763 107.093L557.234 91.416L557.091 91.3809L556.95 91.416L493.419 107.093L492.969 107.204V107.669V127.696V127.825C492.969 154.546 492.969 168.049 496.65 180.285C500.193 192.061 506.198 202.95 514.266 212.231C522.65 221.873 534.068 229.079 556.667 243.34L556.775 243.408L557.069 243.594L557.376 243.427L557.392 243.419L557.408 243.408L557.517 243.34C580.116 229.079 591.534 221.873 599.918 212.231C607.985 202.95 613.989 192.061 617.533 180.285C621.213 168.049 621.213 154.546 621.213 127.825V127.696V107.669Z" fill="white" stroke="url(#paint2_linear_520_983)" stroke-width="0.5"/>
<path fill-rule="evenodd" clip-rule="evenodd" d="M557.59 190.621V163.904L603.882 115.001L613.395 118.648L613.402 131.662L557.59 190.621ZM557.59 214.441L613.278 155.617C611.648 187.787 593.086 213.254 557.59 232.011V214.441ZM557.59 140.084V101.33L587.538 108.136L557.59 140.08V140.084Z" fill="#A5A5A5" fill-opacity="0.07"/>
<defs>
<radialGradient id="paint0_radial_520_983" cx="0" cy="0" r="1" gradientUnits="userSpaceOnUse" gradientTransform="translate(524 152) rotate(142.438) scale(281.321 165.686)">
<stop stop-color="#575757" stop-opacity="0.47"/>
<stop offset="1" stop-color="#7D7D7D" stop-opacity="0"/>
</radialGradient>
<radialGradient id="paint1_radial_520_983" cx="0" cy="0" r="1" gradientUnits="userSpaceOnUse" gradientTransform="translate(557.092 167.487) rotate(90) scale(192.297 161.933)">
<stop stop-color="#6EABA1"/>
<stop offset="1" stop-color="#5A6563" stop-opacity="0"/>
</radialGradient>
<linearGradient id="paint2_linear_520_983" x1="557.091" y1="91.9914" x2="557.558" y2="275.681" gradientUnits="userSpaceOnUse">
<stop stop-color="#868686" stop-opacity="0.66"/>
<stop offset="1" stop-color="#7A7A7A" stop-opacity="0.56"/>
</linearGradient>
</defs>
</svg>
