<svg width="812" height="216" viewBox="0 0 812 216" fill="none" xmlns="http://www.w3.org/2000/svg">
<g clip-path="url(#clip0_498_557)">
<mask id="mask0_498_557" style="mask-type:luminance" maskUnits="userSpaceOnUse" x="0" y="0" width="812" height="216">
<path d="M812 0H0V216H812V0Z" fill="white"/>
</mask>
<g mask="url(#mask0_498_557)">
<mask id="mask1_498_557" style="mask-type:alpha" maskUnits="userSpaceOnUse" x="0" y="-133" width="813" height="535">
<path d="M812.503 -133H0V401.214H812.503V-133Z" fill="url(#paint0_radial_498_557)"/>
</mask>
<g mask="url(#mask1_498_557)">
<path d="M444.064 36.7196V0.898441L408.243 0.898438" stroke="#E8E8E8" stroke-width="0.432598"/>
<path d="M479.821 144L461.911 161.91L444 179.821" stroke="#E8E8E8" stroke-width="0.432598"/>
<path d="M336 144L353.911 161.91L371.821 179.821" stroke="#E8E8E8" stroke-width="0.432598"/>
<path d="M372.423 36.7197H408.244" stroke="#E8E8E8" stroke-width="0.432598"/>
<path d="M408.244 215.825L372.423 180.004" stroke="#E8E8E8" stroke-width="0.432598"/>
<path d="M479.886 0.898529L444.065 0.898525V-34.9226L479.886 0.898529Z" stroke="#E8E8E8" stroke-width="0.432598"/>
<path d="M444.065 36.7195L479.886 36.7195V0.89838L444.065 0.89838V36.7195Z" stroke="#E8E8E8" stroke-width="0.432598"/>
<path d="M372.422 36.7196V0.898441L408.243 0.898438" stroke="#E8E8E8" stroke-width="0.432598"/>
<path d="M444.065 36.7197H408.244" stroke="#E8E8E8" stroke-width="0.432598"/>
<path d="M408.244 215.825L444.065 180.004" stroke="#E8E8E8" stroke-width="0.432598"/>
<path d="M336.602 0.898529L372.423 0.898525V-34.9226L336.602 0.898529Z" stroke="#E8E8E8" stroke-width="0.432598"/>
<path d="M372.423 36.7195L336.602 36.7195L336.602 0.898384L372.423 0.898381L372.423 36.7195Z" stroke="#E8E8E8" stroke-width="0.432598"/>
<path d="M372.422 -34.9226H408.243V0.898518L372.422 -34.9226Z" stroke="#E8E8E8" stroke-width="0.432598"/>
<path d="M444.065 -34.9226H408.244V0.898491H444.065V-34.9226Z" stroke="#E8E8E8" stroke-width="0.432598"/>
<path d="M444.065 -34.9226V0.898518H408.244L444.065 -34.9226Z" stroke="#E8E8E8" stroke-width="0.432598"/>
<path d="M229.138 -34.9226H264.959V0.898491H229.138V-34.9226Z" stroke="#E8E8E8" stroke-width="0.432598"/>
<path d="M229.138 36.7196L264.959 0.898438L229.138 0.898441V36.7196Z" stroke="#E8E8E8" stroke-width="0.432598"/>
<path d="M193.316 0.898529L229.138 0.898525V-34.9226L193.316 0.898529Z" stroke="#E8E8E8" stroke-width="0.432598"/>
<path d="M229.138 36.7195L193.316 36.7195L193.316 0.898384L229.138 0.898381L229.138 36.7195Z" stroke="#E8E8E8" stroke-width="0.432598"/>
<path d="M300.78 -34.9226H264.959V0.898518L300.78 -34.9226Z" stroke="#E8E8E8" stroke-width="0.432598"/>
<path d="M264.959 0.898438L229.138 36.7196H264.959V0.898438Z" stroke="#E8E8E8" stroke-width="0.432598"/>
<path d="M587.349 -34.9226H551.528V0.898491H587.349V-34.9226Z" stroke="#E8E8E8" stroke-width="0.432598"/>
<path d="M587.35 36.7196L551.528 0.898438L587.35 0.898441V36.7196Z" stroke="#E8E8E8" stroke-width="0.432598"/>
<path d="M623.171 0.898529L587.35 0.898525V-34.9226L623.171 0.898529Z" stroke="#E8E8E8" stroke-width="0.432598"/>
<path d="M587.35 36.7195L623.171 36.7195V0.89838L587.35 0.89838V36.7195Z" stroke="#E8E8E8" stroke-width="0.432598"/>
<path d="M515.707 -34.9226H551.528V0.898518L515.707 -34.9226Z" stroke="#E8E8E8" stroke-width="0.432598"/>
<path d="M551.528 0.898438L587.349 36.7196H551.528V0.898438Z" stroke="#E8E8E8" stroke-width="0.432598"/>
<path d="M300.78 -34.9226H336.602V0.898491H300.78V-34.9226Z" stroke="#E8E8E8" stroke-width="0.432598"/>
<path d="M300.78 36.7196L336.601 0.898438L300.78 0.898441V36.7196Z" stroke="#E8E8E8" stroke-width="0.432598"/>
<path d="M264.959 0.898529L300.78 0.898525V-34.9226L264.959 0.898529Z" stroke="#E8E8E8" stroke-width="0.432598"/>
<path d="M300.78 36.7195L264.959 36.7195L264.959 0.898384L300.78 0.898381L300.78 36.7195Z" stroke="#E8E8E8" stroke-width="0.432598"/>
<path d="M372.422 -34.9226H336.601V0.898518L372.422 -34.9226Z" stroke="#E8E8E8" stroke-width="0.432598"/>
<path d="M336.602 0.898438L300.78 36.7196H336.602V0.898438Z" stroke="#E8E8E8" stroke-width="0.432598"/>
<path d="M408.244 0.898438V36.7196H372.423" stroke="#E8E8E8" stroke-width="0.432598"/>
<path d="M515.707 -34.9226H479.886V0.898491H515.707V-34.9226Z" stroke="#E8E8E8" stroke-width="0.432598"/>
<path d="M515.707 36.7196L479.886 0.898438L515.707 0.898441V36.7196Z" stroke="#E8E8E8" stroke-width="0.432598"/>
<path d="M551.528 0.898529L515.707 0.898525V-34.9226L551.528 0.898529Z" stroke="#E8E8E8" stroke-width="0.432598"/>
<path d="M515.707 36.7195L551.528 36.7195V0.89838L515.707 0.89838V36.7195Z" stroke="#E8E8E8" stroke-width="0.432598"/>
<path d="M444.064 -34.9226H479.886V0.898518L444.064 -34.9226Z" stroke="#E8E8E8" stroke-width="0.432598"/>
<path d="M479.886 0.898438L515.707 36.7196H479.886V0.898438Z" stroke="#E8E8E8" stroke-width="0.432598"/>
<path d="M408.244 0.898438V36.7196H444.065" stroke="#E8E8E8" stroke-width="0.432598"/>
<path d="M372.422 -34.9226L408.243 0.898518H372.422V-34.9226Z" stroke="#E8E8E8" stroke-width="0.432598"/>
<path d="M157.495 -34.9226H193.316V0.898491H157.495V-34.9226Z" stroke="#E8E8E8" stroke-width="0.432598"/>
<path d="M157.496 36.7196L193.317 0.898438L157.496 0.898441V36.7196Z" stroke="#E8E8E8" stroke-width="0.432598"/>
<path d="M121.674 0.898529L157.495 0.898525V-34.9226L121.674 0.898529Z" stroke="#E8E8E8" stroke-width="0.432598"/>
<path d="M157.495 36.7195L121.674 36.7195L121.674 0.898384L157.495 0.898381L157.495 36.7195Z" stroke="#E8E8E8" stroke-width="0.432598"/>
<path d="M229.138 -34.9226H193.317V0.898518L229.138 -34.9226Z" stroke="#E8E8E8" stroke-width="0.432598"/>
<path d="M193.316 0.898438L157.495 36.7196H193.316V0.898438Z" stroke="#E8E8E8" stroke-width="0.432598"/>
<path d="M658.992 -34.9226H623.171V0.898491H658.992V-34.9226Z" stroke="#E8E8E8" stroke-width="0.432598"/>
<path d="M658.991 36.7196L623.17 0.898438L658.991 0.898441V36.7196Z" stroke="#E8E8E8" stroke-width="0.432598"/>
<path d="M694.812 0.898529L658.991 0.898525V-34.9226L694.812 0.898529Z" stroke="#E8E8E8" stroke-width="0.432598"/>
<path d="M658.991 36.7195L694.812 36.7195V0.89838L658.991 0.89838V36.7195Z" stroke="#E8E8E8" stroke-width="0.432598"/>
<path d="M587.35 -34.9226H623.171V0.898518L587.35 -34.9226Z" stroke="#E8E8E8" stroke-width="0.432598"/>
<path d="M623.171 0.898438L658.992 36.7196H623.171V0.898438Z" stroke="#E8E8E8" stroke-width="0.432598"/>
<path d="M85.8527 -34.9226H121.674V0.898491H85.8527V-34.9226Z" stroke="#E8E8E8" stroke-width="0.432598"/>
<path d="M85.8535 36.7196L121.675 0.898438L85.8535 0.898441V36.7196Z" stroke="#E8E8E8" stroke-width="0.432598"/>
<path d="M50.0322 0.898529L85.8534 0.898525V-34.9226L50.0322 0.898529Z" stroke="#E8E8E8" stroke-width="0.432598"/>
<path d="M85.8533 36.7195L50.0322 36.7195L50.0322 0.898384L85.8533 0.898381L85.8533 36.7195Z" stroke="#E8E8E8" stroke-width="0.432598"/>
<path d="M157.496 -34.9226H121.675V0.898518L157.496 -34.9226Z" stroke="#E8E8E8" stroke-width="0.432598"/>
<path d="M121.674 0.898438L85.8525 36.7196H121.674V0.898438Z" stroke="#E8E8E8" stroke-width="0.432598"/>
<path d="M730.634 -34.9226H694.812V0.898491H730.634V-34.9226Z" stroke="#E8E8E8" stroke-width="0.432598"/>
<path d="M730.633 36.7196L694.812 0.898438L730.633 0.898441V36.7196Z" stroke="#E8E8E8" stroke-width="0.432598"/>
<path d="M766.455 0.898529L730.634 0.898525V-34.9226L766.455 0.898529Z" stroke="#E8E8E8" stroke-width="0.432598"/>
<path d="M730.634 36.7195L766.455 36.7195V0.89838L730.634 0.89838V36.7195Z" stroke="#E8E8E8" stroke-width="0.432598"/>
<path d="M658.991 -34.9226H694.812V0.898518L658.991 -34.9226Z" stroke="#E8E8E8" stroke-width="0.432598"/>
<path d="M694.812 0.898438L730.634 36.7196H694.812V0.898438Z" stroke="#E8E8E8" stroke-width="0.432598"/>
<path d="M730.634 -34.9226H766.455V0.898518L730.634 -34.9226Z" stroke="#E8E8E8" stroke-width="0.432598"/>
<path d="M85.8533 -34.9226H50.0322V0.898518L85.8533 -34.9226Z" stroke="#E8E8E8" stroke-width="0.432598"/>
<path d="M336.602 72.541V108.362" stroke="#E8E8E8" stroke-width="0.432598"/>
<path d="M479.886 72.541V108.362" stroke="#E8E8E8" stroke-width="0.432598"/>
<path d="M229.138 108.362H264.959V144.183H229.138V108.362Z" stroke="#E8E8E8" stroke-width="0.432598"/>
<path d="M264.959 72.541H300.78V108.362H264.959V72.541Z" stroke="#E8E8E8" stroke-width="0.432598"/>
<path d="M300.78 36.7195L264.959 72.5406H300.78V36.7195Z" stroke="#E8E8E8" stroke-width="0.432598"/>
<path d="M300.78 36.7195H336.602V72.5406H300.78V36.7195Z" stroke="#E8E8E8" stroke-width="0.432598"/>
<path d="M336.602 72.541H300.78V108.362L336.602 72.541Z" stroke="#E8E8E8" stroke-width="0.432598"/>
<path d="M229.138 180.004L264.959 144.183H229.138V180.004Z" stroke="#E8E8E8" stroke-width="0.432598"/>
<path d="M193.316 144.183H229.138V108.362L193.316 144.183Z" stroke="#E8E8E8" stroke-width="0.432598"/>
<path d="M229.138 180.004L193.316 180.004L193.316 144.183L229.138 144.183L229.138 180.004Z" stroke="#E8E8E8" stroke-width="0.432598"/>
<path d="M300.78 108.362H264.959V144.183L300.78 108.362Z" stroke="#E8E8E8" stroke-width="0.432598"/>
<path d="M300.78 36.7195H264.959V72.5406L300.78 36.7195Z" stroke="#E8E8E8" stroke-width="0.432598"/>
<path d="M264.959 72.541L229.138 108.362H264.959V72.541Z" stroke="#E8E8E8" stroke-width="0.432598"/>
<path d="M264.959 144.183L229.138 180.004H264.959V144.183Z" stroke="#E8E8E8" stroke-width="0.432598"/>
<path d="M587.349 108.362H551.528V144.183H587.349V108.362Z" stroke="#E8E8E8" stroke-width="0.432598"/>
<path d="M551.528 72.541H515.707V108.362H551.528V72.541Z" stroke="#E8E8E8" stroke-width="0.432598"/>
<path d="M515.707 36.7195L551.528 72.5406H515.707V36.7195Z" stroke="#E8E8E8" stroke-width="0.432598"/>
<path d="M515.707 36.7195H479.886V72.5406H515.707V36.7195Z" stroke="#E8E8E8" stroke-width="0.432598"/>
<path d="M479.886 72.541H515.707V108.362L479.886 72.541Z" stroke="#E8E8E8" stroke-width="0.432598"/>
<path d="M587.35 180.004L551.528 144.183H587.35V180.004Z" stroke="#E8E8E8" stroke-width="0.432598"/>
<path d="M623.171 144.183H587.35V108.362L623.171 144.183Z" stroke="#E8E8E8" stroke-width="0.432598"/>
<path d="M587.35 180.004H623.171V144.183H587.35V180.004Z" stroke="#E8E8E8" stroke-width="0.432598"/>
<path d="M515.707 108.362H551.528V144.183L515.707 108.362Z" stroke="#E8E8E8" stroke-width="0.432598"/>
<path d="M515.707 36.7195H551.528V72.5406L515.707 36.7195Z" stroke="#E8E8E8" stroke-width="0.432598"/>
<path d="M551.528 72.541L587.349 108.362H551.528V72.541Z" stroke="#E8E8E8" stroke-width="0.432598"/>
<path d="M551.528 144.183L587.349 180.004H551.528V144.183Z" stroke="#E8E8E8" stroke-width="0.432598"/>
<path d="M300.78 108.362H336.602V144.183H300.78V108.362Z" stroke="#E8E8E8" stroke-width="0.432598"/>
<path d="M300.78 180.004L336.601 144.183H300.78V180.004Z" stroke="#E8E8E8" stroke-width="0.432598"/>
<path d="M264.959 144.183H300.78V108.362L264.959 144.183Z" stroke="#E8E8E8" stroke-width="0.432598"/>
<path d="M300.78 180.004L264.959 180.004L264.959 144.183L300.78 144.183L300.78 180.004Z" stroke="#E8E8E8" stroke-width="0.432598"/>
<path d="M336.601 108.362V144.183" stroke="#E8E8E8" stroke-width="0.432598"/>
<path d="M336.602 72.541L300.78 108.362H336.602V72.541Z" stroke="#E8E8E8" stroke-width="0.432598"/>
<path d="M336.602 144.183L300.78 180.004H336.602V144.183Z" stroke="#E8E8E8" stroke-width="0.432598"/>
<path d="M515.707 108.362H479.886V144.183H515.707V108.362Z" stroke="#E8E8E8" stroke-width="0.432598"/>
<path d="M515.707 180.004L479.886 144.183H515.707V180.004Z" stroke="#E8E8E8" stroke-width="0.432598"/>
<path d="M551.528 144.183H515.707V108.362L551.528 144.183Z" stroke="#E8E8E8" stroke-width="0.432598"/>
<path d="M515.707 180.004H551.528V144.183H515.707V180.004Z" stroke="#E8E8E8" stroke-width="0.432598"/>
<path d="M479.886 108.362V144.183" stroke="#E8E8E8" stroke-width="0.432598"/>
<path d="M479.886 72.541L515.707 108.362H479.886V72.541Z" stroke="#E8E8E8" stroke-width="0.432598"/>
<path d="M479.886 144.183L515.707 180.004H479.886V144.183Z" stroke="#E8E8E8" stroke-width="0.432598"/>
<path d="M157.495 108.362H193.316V144.183H157.495V108.362Z" stroke="#E8E8E8" stroke-width="0.432598"/>
<path d="M193.317 72.541H229.138V108.362H193.317V72.541Z" stroke="#E8E8E8" stroke-width="0.432598"/>
<path d="M229.138 36.7195L193.317 72.5406H229.138V36.7195Z" stroke="#E8E8E8" stroke-width="0.432598"/>
<path d="M229.138 36.7195H264.959V72.5406H229.138V36.7195Z" stroke="#E8E8E8" stroke-width="0.432598"/>
<path d="M264.959 72.541H229.138V108.362L264.959 72.541Z" stroke="#E8E8E8" stroke-width="0.432598"/>
<path d="M157.496 180.004L193.317 144.183H157.496V180.004Z" stroke="#E8E8E8" stroke-width="0.432598"/>
<path d="M121.674 144.183H157.495V108.362L121.674 144.183Z" stroke="#E8E8E8" stroke-width="0.432598"/>
<path d="M157.495 180.004L121.674 180.004L121.674 144.183L157.495 144.183L157.495 180.004Z" stroke="#E8E8E8" stroke-width="0.432598"/>
<path d="M229.138 108.362H193.317V144.183L229.138 108.362Z" stroke="#E8E8E8" stroke-width="0.432598"/>
<path d="M229.138 36.7195H193.317V72.5406L229.138 36.7195Z" stroke="#E8E8E8" stroke-width="0.432598"/>
<path d="M193.316 72.541L157.495 108.362H193.316V72.541Z" stroke="#E8E8E8" stroke-width="0.432598"/>
<path d="M193.316 144.183L157.495 180.004H193.316V144.183Z" stroke="#E8E8E8" stroke-width="0.432598"/>
<path d="M658.992 108.362H623.171V144.183H658.992V108.362Z" stroke="#E8E8E8" stroke-width="0.432598"/>
<path d="M623.171 72.541H587.35V108.362H623.171V72.541Z" stroke="#E8E8E8" stroke-width="0.432598"/>
<path d="M587.35 36.7195L623.171 72.5406H587.35V36.7195Z" stroke="#E8E8E8" stroke-width="0.432598"/>
<path d="M587.349 36.7195H551.528V72.5406H587.349V36.7195Z" stroke="#E8E8E8" stroke-width="0.432598"/>
<path d="M551.528 72.541H587.349V108.362L551.528 72.541Z" stroke="#E8E8E8" stroke-width="0.432598"/>
<path d="M658.991 180.004L623.17 144.183H658.991V180.004Z" stroke="#E8E8E8" stroke-width="0.432598"/>
<path d="M694.812 144.183H658.991V108.362L694.812 144.183Z" stroke="#E8E8E8" stroke-width="0.432598"/>
<path d="M658.991 180.004H694.812V144.183H658.991V180.004Z" stroke="#E8E8E8" stroke-width="0.432598"/>
<path d="M587.35 108.362H623.171V144.183L587.35 108.362Z" stroke="#E8E8E8" stroke-width="0.432598"/>
<path d="M587.35 36.7195H623.171V72.5406L587.35 36.7195Z" stroke="#E8E8E8" stroke-width="0.432598"/>
<path d="M623.171 72.541L658.992 108.362H623.171V72.541Z" stroke="#E8E8E8" stroke-width="0.432598"/>
<path d="M623.171 144.183L658.992 180.004H623.171V144.183Z" stroke="#E8E8E8" stroke-width="0.432598"/>
<path d="M85.8527 108.362H121.674V144.183H85.8527V108.362Z" stroke="#E8E8E8" stroke-width="0.432598"/>
<path d="M121.675 72.541H157.496V108.362H121.675V72.541Z" stroke="#E8E8E8" stroke-width="0.432598"/>
<path d="M157.496 36.7195L121.675 72.5406H157.496V36.7195Z" stroke="#E8E8E8" stroke-width="0.432598"/>
<path d="M157.495 36.7195H193.316V72.5406H157.495V36.7195Z" stroke="#E8E8E8" stroke-width="0.432598"/>
<path d="M193.316 72.541H157.495V108.362L193.316 72.541Z" stroke="#E8E8E8" stroke-width="0.432598"/>
<path d="M85.8535 180.004L121.675 144.183H85.8535V180.004Z" stroke="#E8E8E8" stroke-width="0.432598"/>
<path d="M50.0322 144.183H85.8534V108.362L50.0322 144.183Z" stroke="#E8E8E8" stroke-width="0.432598"/>
<path d="M85.8533 180.004L50.0322 180.004L50.0322 144.183L85.8533 144.183L85.8533 180.004Z" stroke="#E8E8E8" stroke-width="0.432598"/>
<path d="M157.496 108.362H121.675V144.183L157.496 108.362Z" stroke="#E8E8E8" stroke-width="0.432598"/>
<path d="M157.496 36.7195H121.675V72.5406L157.496 36.7195Z" stroke="#E8E8E8" stroke-width="0.432598"/>
<path d="M121.674 72.541L85.8525 108.362H121.674V72.541Z" stroke="#E8E8E8" stroke-width="0.432598"/>
<path d="M121.674 144.183L85.8525 180.004H121.674V144.183Z" stroke="#E8E8E8" stroke-width="0.432598"/>
<path d="M730.634 108.362H694.812V144.183H730.634V108.362Z" stroke="#E8E8E8" stroke-width="0.432598"/>
<path d="M694.812 72.541H658.991V108.362H694.812V72.541Z" stroke="#E8E8E8" stroke-width="0.432598"/>
<path d="M658.991 36.7195L694.812 72.5406H658.991V36.7195Z" stroke="#E8E8E8" stroke-width="0.432598"/>
<path d="M658.992 36.7195H623.171V72.5406H658.992V36.7195Z" stroke="#E8E8E8" stroke-width="0.432598"/>
<path d="M623.171 72.541H658.992V108.362L623.171 72.541Z" stroke="#E8E8E8" stroke-width="0.432598"/>
<path d="M730.633 180.004L694.812 144.183H730.633V180.004Z" stroke="#E8E8E8" stroke-width="0.432598"/>
<path d="M766.455 144.183H730.634V108.362L766.455 144.183Z" stroke="#E8E8E8" stroke-width="0.432598"/>
<path d="M730.634 180.004H766.455V144.183H730.634V180.004Z" stroke="#E8E8E8" stroke-width="0.432598"/>
<path d="M658.991 108.362H694.812V144.183L658.991 108.362Z" stroke="#E8E8E8" stroke-width="0.432598"/>
<path d="M658.991 36.7195H694.812V72.5406L658.991 36.7195Z" stroke="#E8E8E8" stroke-width="0.432598"/>
<path d="M694.812 72.541L730.634 108.362H694.812V72.541Z" stroke="#E8E8E8" stroke-width="0.432598"/>
<path d="M694.812 144.183L730.634 180.004H694.812V144.183Z" stroke="#E8E8E8" stroke-width="0.432598"/>
<path d="M766.455 72.541H730.634V108.362H766.455V72.541Z" stroke="#E8E8E8" stroke-width="0.432598"/>
<path d="M730.634 36.7195L766.455 72.5406H730.634V36.7195Z" stroke="#E8E8E8" stroke-width="0.432598"/>
<path d="M730.634 36.7195H694.812V72.5406H730.634V36.7195Z" stroke="#E8E8E8" stroke-width="0.432598"/>
<path d="M694.812 72.541H730.634V108.362L694.812 72.541Z" stroke="#E8E8E8" stroke-width="0.432598"/>
<path d="M730.634 108.362H766.455V144.183L730.634 108.362Z" stroke="#E8E8E8" stroke-width="0.432598"/>
<path d="M730.634 36.7195H766.455V72.5406L730.634 36.7195Z" stroke="#E8E8E8" stroke-width="0.432598"/>
<path d="M50.0324 72.541H85.8535V108.362H50.0324V72.541Z" stroke="#E8E8E8" stroke-width="0.432598"/>
<path d="M85.8533 36.7195L50.0322 72.5406H85.8533V36.7195Z" stroke="#E8E8E8" stroke-width="0.432598"/>
<path d="M85.8527 36.7195H121.674V72.5406H85.8527V36.7195Z" stroke="#E8E8E8" stroke-width="0.432598"/>
<path d="M121.674 72.541H85.8525V108.362L121.674 72.541Z" stroke="#E8E8E8" stroke-width="0.432598"/>
<path d="M85.8533 108.362H50.0322V144.183L85.8533 108.362Z" stroke="#E8E8E8" stroke-width="0.432598"/>
<path d="M85.8533 36.7195H50.0322V72.5406L85.8533 36.7195Z" stroke="#E8E8E8" stroke-width="0.432598"/>
<path d="M408.243 215.825H372.422V251.646H408.243V215.825Z" stroke="#E8E8E8" stroke-width="0.432598"/>
<path d="M372.422 180.004L408.243 215.825H372.422V180.004Z" stroke="#E8E8E8" stroke-width="0.432598"/>
<path d="M372.423 180.004H336.602V215.825H372.423V180.004Z" stroke="#E8E8E8" stroke-width="0.432598"/>
<path d="M336.602 215.825H372.423V251.646L336.602 215.825Z" stroke="#E8E8E8" stroke-width="0.432598"/>
<path d="M444.064 251.646L408.243 215.825H444.064V251.646Z" stroke="#E8E8E8" stroke-width="0.432598"/>
<path d="M444.065 180.004H479.886V215.825H444.065V180.004Z" stroke="#E8E8E8" stroke-width="0.432598"/>
<path d="M479.886 215.825H444.065V251.646L479.886 215.825Z" stroke="#E8E8E8" stroke-width="0.432598"/>
<path d="M444.065 180.004V215.825H408.244L426.155 197.915L444.065 180.004Z" stroke="#E8E8E8" stroke-width="0.432598"/>
<path d="M408.244 215.825L444.065 251.646H408.244V215.825Z" stroke="#E8E8E8" stroke-width="0.432598"/>
<path d="M336.602 215.825L372.423 251.646H336.602V215.825Z" stroke="#E8E8E8" stroke-width="0.432598"/>
<path d="M479.886 215.825V251.646H444.064L479.886 215.825Z" stroke="#E8E8E8" stroke-width="0.432598"/>
<path d="M264.959 215.825H300.78V251.646H264.959V215.825Z" stroke="#E8E8E8" stroke-width="0.432598"/>
<path d="M300.78 180.004L264.959 215.825H300.78V180.004Z" stroke="#E8E8E8" stroke-width="0.432598"/>
<path d="M300.78 180.004H336.602V215.825H300.78V180.004Z" stroke="#E8E8E8" stroke-width="0.432598"/>
<path d="M336.602 215.825H300.78V251.646L336.602 215.825Z" stroke="#E8E8E8" stroke-width="0.432598"/>
<path d="M300.78 180.004H264.959V215.825L300.78 180.004Z" stroke="#E8E8E8" stroke-width="0.432598"/>
<path d="M264.959 215.825L229.138 251.646H264.959V215.825Z" stroke="#E8E8E8" stroke-width="0.432598"/>
<path d="M551.528 215.825H515.707V251.646H551.528V215.825Z" stroke="#E8E8E8" stroke-width="0.432598"/>
<path d="M515.707 180.004L551.528 215.825H515.707V180.004Z" stroke="#E8E8E8" stroke-width="0.432598"/>
<path d="M515.707 180.004H479.886V215.825H515.707V180.004Z" stroke="#E8E8E8" stroke-width="0.432598"/>
<path d="M479.886 215.825H515.707V251.646L479.886 215.825Z" stroke="#E8E8E8" stroke-width="0.432598"/>
<path d="M515.707 180.004H551.528V215.825L515.707 180.004Z" stroke="#E8E8E8" stroke-width="0.432598"/>
<path d="M551.528 215.825L587.349 251.646H551.528V215.825Z" stroke="#E8E8E8" stroke-width="0.432598"/>
<path d="M408.244 215.825H372.423V251.646L408.244 215.825Z" stroke="#E8E8E8" stroke-width="0.432598"/>
<path d="M336.602 215.825L300.78 251.646H336.602V215.825Z" stroke="#E8E8E8" stroke-width="0.432598"/>
<path d="M479.886 215.825L515.707 251.646H479.886V215.825Z" stroke="#E8E8E8" stroke-width="0.432598"/>
<path d="M193.317 215.825H229.138V251.646H193.317V215.825Z" stroke="#E8E8E8" stroke-width="0.432598"/>
<path d="M229.138 180.004L193.317 215.825H229.138V180.004Z" stroke="#E8E8E8" stroke-width="0.432598"/>
<path d="M229.138 180.004H264.959V215.825H229.138V180.004Z" stroke="#E8E8E8" stroke-width="0.432598"/>
<path d="M264.959 215.825H229.138V251.646L264.959 215.825Z" stroke="#E8E8E8" stroke-width="0.432598"/>
<path d="M229.138 180.004H193.317V215.825L229.138 180.004Z" stroke="#E8E8E8" stroke-width="0.432598"/>
<path d="M193.316 215.825L157.495 251.646H193.316V215.825Z" stroke="#E8E8E8" stroke-width="0.432598"/>
<path d="M623.171 215.825H587.35V251.646H623.171V215.825Z" stroke="#E8E8E8" stroke-width="0.432598"/>
<path d="M587.35 180.004L623.171 215.825H587.35V180.004Z" stroke="#E8E8E8" stroke-width="0.432598"/>
<path d="M587.349 180.004H551.528V215.825H587.349V180.004Z" stroke="#E8E8E8" stroke-width="0.432598"/>
<path d="M551.528 215.825H587.349V251.646L551.528 215.825Z" stroke="#E8E8E8" stroke-width="0.432598"/>
<path d="M587.35 180.004H623.171V215.825L587.35 180.004Z" stroke="#E8E8E8" stroke-width="0.432598"/>
<path d="M623.171 215.825L658.992 251.646H623.171V215.825Z" stroke="#E8E8E8" stroke-width="0.432598"/>
<path d="M121.675 215.825H157.496V251.646H121.675V215.825Z" stroke="#E8E8E8" stroke-width="0.432598"/>
<path d="M157.496 180.004L121.675 215.825H157.496V180.004Z" stroke="#E8E8E8" stroke-width="0.432598"/>
<path d="M157.495 180.004H193.316V215.825H157.495V180.004Z" stroke="#E8E8E8" stroke-width="0.432598"/>
<path d="M193.316 215.825H157.495V251.646L193.316 215.825Z" stroke="#E8E8E8" stroke-width="0.432598"/>
<path d="M157.496 180.004H121.675V215.825L157.496 180.004Z" stroke="#E8E8E8" stroke-width="0.432598"/>
<path d="M121.674 215.825L85.8525 251.646H121.674V215.825Z" stroke="#E8E8E8" stroke-width="0.432598"/>
<path d="M694.812 215.825H658.991V251.646H694.812V215.825Z" stroke="#E8E8E8" stroke-width="0.432598"/>
<path d="M658.991 180.004L694.812 215.825H658.991V180.004Z" stroke="#E8E8E8" stroke-width="0.432598"/>
<path d="M658.992 180.004H623.171V215.825H658.992V180.004Z" stroke="#E8E8E8" stroke-width="0.432598"/>
<path d="M623.171 215.825H658.992V251.646L623.171 215.825Z" stroke="#E8E8E8" stroke-width="0.432598"/>
<path d="M658.991 180.004H694.812V215.825L658.991 180.004Z" stroke="#E8E8E8" stroke-width="0.432598"/>
<path d="M694.812 215.825L730.634 251.646H694.812V215.825Z" stroke="#E8E8E8" stroke-width="0.432598"/>
<path d="M766.455 215.825H730.634V251.646H766.455V215.825Z" stroke="#E8E8E8" stroke-width="0.432598"/>
<path d="M730.634 180.004L766.455 215.825H730.634V180.004Z" stroke="#E8E8E8" stroke-width="0.432598"/>
<path d="M730.634 180.004H694.812V215.825H730.634V180.004Z" stroke="#E8E8E8" stroke-width="0.432598"/>
<path d="M694.812 215.825H730.634V251.646L694.812 215.825Z" stroke="#E8E8E8" stroke-width="0.432598"/>
<path d="M730.634 180.004H766.455V215.825L730.634 180.004Z" stroke="#E8E8E8" stroke-width="0.432598"/>
<path d="M50.0324 215.825H85.8535V251.646H50.0324V215.825Z" stroke="#E8E8E8" stroke-width="0.432598"/>
<path d="M85.8533 180.004L50.0322 215.825H85.8533V180.004Z" stroke="#E8E8E8" stroke-width="0.432598"/>
<path d="M85.8527 180.004H121.674V215.825H85.8527V180.004Z" stroke="#E8E8E8" stroke-width="0.432598"/>
<path d="M121.674 215.825H85.8525V251.646L121.674 215.825Z" stroke="#E8E8E8" stroke-width="0.432598"/>
<path d="M85.8533 180.004H50.0322V215.825L85.8533 180.004Z" stroke="#E8E8E8" stroke-width="0.432598"/>
<path fill-rule="evenodd" clip-rule="evenodd" d="M462.998 66.1352V65.5585L462.439 65.4203L408.837 52.193L408.66 52.1494L408.484 52.193L354.882 65.4203L354.322 65.5585V66.1352V83.0329V83.1925C354.322 105.69 354.322 117.114 357.438 127.471C360.437 137.439 365.52 146.656 372.349 154.511C379.445 162.674 389.106 168.771 408.132 180.777L408.267 180.863L408.66 181.11L409.053 180.863L409.188 180.777C428.214 168.771 437.875 162.674 444.971 154.511C451.801 146.656 456.883 137.439 459.882 127.471C462.998 117.114 462.998 105.69 462.998 83.1924V83.0329V66.1352ZM372.904 154.028C379.929 162.109 389.506 168.152 408.66 180.239C427.814 168.152 437.391 162.109 444.416 154.028C451.177 146.251 456.208 137.127 459.177 127.259C462.262 117.006 462.262 105.681 462.262 83.0329V66.1352L408.66 52.9078L355.058 66.1352V83.0329C355.058 105.681 355.058 117.006 358.143 127.259C361.112 137.127 366.143 146.251 372.904 154.028Z" fill="url(#paint1_radial_498_557)"/>
<path d="M468.981 60.1583V59.8699L468.701 59.8009L408.748 45.0061L408.66 44.9844L408.572 45.0061L348.618 59.8009L348.338 59.8699V60.1583V79.0583V79.1389C348.338 104.395 348.338 117.111 351.805 128.631C355.141 139.718 360.793 149.97 368.39 158.707C376.282 167.787 387.036 174.573 408.395 188.052L408.445 188.084L408.634 188.234L408.856 188.094L408.924 188.052C430.283 174.573 441.037 167.787 448.93 158.707C456.526 149.97 462.179 139.718 465.515 128.631C468.981 117.111 468.981 104.395 468.981 79.1387V79.0583V60.1583Z" stroke="#A5A5A5" stroke-width="0.43"/>
<path d="M455.761 72.6572V72.3161L455.43 72.2345L408.761 60.7177L408.656 60.6919L408.552 60.7177L361.882 72.2345L361.551 72.3161V72.6572V87.3696V87.4645C361.551 107.094 361.551 117.013 364.255 126.002C366.858 134.653 371.269 142.652 377.196 149.47C383.355 156.553 391.743 161.847 408.344 172.323L408.424 172.373L408.64 172.51L408.865 172.387L408.877 172.381L408.889 172.373L408.969 172.323C425.57 161.847 433.958 156.553 440.117 149.47C446.043 142.652 450.454 134.653 453.057 126.002C455.761 117.013 455.761 107.094 455.761 87.4646V87.3698V72.6572Z" stroke="url(#paint2_linear_498_557)" stroke-width="0.5"/>
</g>
</g>
<path fill-rule="evenodd" clip-rule="evenodd" d="M409 133.595V113.968L443.007 78.0433L449.995 80.7224L450 90.2823L409 133.595ZM409 151.093L449.909 107.88C448.712 131.513 435.076 150.221 409 164V151.093ZM409 96.4698V68L431 73L409 96.4666V96.4698Z" fill="#858585" fill-opacity="0.45"/>
</g>
<defs>
<radialGradient id="paint0_radial_498_557" cx="0" cy="0" r="1" gradientUnits="userSpaceOnUse" gradientTransform="translate(488 85) rotate(45.769) scale(210.737 293.74)">
<stop stop-color="#D9D9D9"/>
<stop offset="1" stop-color="#D9D9D9" stop-opacity="0"/>
</radialGradient>
<radialGradient id="paint1_radial_498_557" cx="0" cy="0" r="1" gradientUnits="userSpaceOnUse" gradientTransform="translate(408.658 116.599) rotate(90) scale(141.264 118.958)">
<stop stop-color="#6EABA1"/>
<stop offset="1" stop-color="#5A6563" stop-opacity="0"/>
</radialGradient>
<linearGradient id="paint2_linear_498_557" x1="408.656" y1="61.1404" x2="408.999" y2="196.081" gradientUnits="userSpaceOnUse">
<stop stop-color="#868686" stop-opacity="0.66"/>
<stop offset="1" stop-color="#7A7A7A" stop-opacity="0.56"/>
</linearGradient>
<clipPath id="clip0_498_557">
<rect width="812" height="216" fill="white"/>
</clipPath>
</defs>
</svg>
