<svg width="550" height="216" viewBox="0 0 550 216" fill="none" xmlns="http://www.w3.org/2000/svg">
<mask id="mask0_520_559" style="mask-type:luminance" maskUnits="userSpaceOnUse" x="0" y="0" width="550" height="216">
<path d="M550 0H0V216H550V0Z" fill="white"/>
</mask>
<g mask="url(#mask0_520_559)">
</g>
<mask id="mask1_520_559" style="mask-type:luminance" maskUnits="userSpaceOnUse" x="0" y="0" width="550" height="216">
<path d="M550 0H0V216H550V0Z" fill="white"/>
</mask>
<g mask="url(#mask1_520_559)">
<path d="M182.064 36.7196V0.898441L146.243 0.898438" stroke="#E8E8E8" stroke-width="0.432598"/>
<path d="M217.821 144L199.911 161.91L182 179.821" stroke="#E8E8E8" stroke-width="0.432598"/>
<path d="M74 144L91.911 161.91L109.821 179.821" stroke="#E8E8E8" stroke-width="0.432598"/>
<path d="M110.423 36.7197H146.244" stroke="#E8E8E8" stroke-width="0.432598"/>
<path d="M146.244 215.825L110.423 180.004" stroke="#E8E8E8" stroke-width="0.432598"/>
<path d="M217.886 0.898521L182.065 0.898518V-34.9226L217.886 0.898521Z" stroke="#E8E8E8" stroke-width="0.432598"/>
<path d="M182.065 36.7196H217.886V0.898438H182.065V36.7196Z" stroke="#E8E8E8" stroke-width="0.432598"/>
<path d="M110.422 36.7196V0.898441L146.243 0.898438" stroke="#E8E8E8" stroke-width="0.432598"/>
<path d="M182.065 36.7197H146.244" stroke="#E8E8E8" stroke-width="0.432598"/>
<path d="M146.244 215.825L182.065 180.004" stroke="#E8E8E8" stroke-width="0.432598"/>
<path d="M74.6016 0.898521L110.423 0.898518V-34.9226L74.6016 0.898521Z" stroke="#E8E8E8" stroke-width="0.432598"/>
<path d="M110.423 36.7196H74.6016V0.89844L110.423 0.898438V36.7196Z" stroke="#E8E8E8" stroke-width="0.432598"/>
<path d="M110.422 -34.9226H146.243V0.89851L110.422 -34.9226Z" stroke="#E8E8E8" stroke-width="0.432598"/>
<path d="M182.065 -34.9226H146.244V0.898483H182.065V-34.9226Z" stroke="#E8E8E8" stroke-width="0.432598"/>
<path d="M182.065 -34.9226V0.89851H146.244L182.065 -34.9226Z" stroke="#E8E8E8" stroke-width="0.432598"/>
<path d="M38.78 -34.9226H2.95898V0.89851L38.78 -34.9226Z" stroke="#E8E8E8" stroke-width="0.432598"/>
<path d="M325.349 -34.9226H289.528V0.898483H325.349V-34.9226Z" stroke="#E8E8E8" stroke-width="0.432598"/>
<path d="M325.35 36.7196L289.528 0.898438L325.35 0.898441V36.7196Z" stroke="#E8E8E8" stroke-width="0.432598"/>
<path d="M361.171 0.898521L325.35 0.898518V-34.9226L361.171 0.898521Z" stroke="#E8E8E8" stroke-width="0.432598"/>
<path d="M325.35 36.7196H361.171V0.898438H325.35V36.7196Z" stroke="#E8E8E8" stroke-width="0.432598"/>
<path d="M253.707 -34.9226H289.528V0.89851L253.707 -34.9226Z" stroke="#E8E8E8" stroke-width="0.432598"/>
<path d="M289.528 0.898438L325.349 36.7196H289.528V0.898438Z" stroke="#E8E8E8" stroke-width="0.432598"/>
<path d="M38.7803 -34.9226H74.6023V0.898483H38.7803V-34.9226Z" stroke="#E8E8E8" stroke-width="0.432598"/>
<path d="M38.7803 36.7196L74.6013 0.898438L38.7803 0.898441V36.7196Z" stroke="#E8E8E8" stroke-width="0.432598"/>
<path d="M2.95898 0.898521L38.78 0.898518V-34.9226L2.95898 0.898521Z" stroke="#E8E8E8" stroke-width="0.432598"/>
<path d="M38.78 36.7196H2.95898V0.89844L38.78 0.898438V36.7196Z" stroke="#E8E8E8" stroke-width="0.432598"/>
<path d="M110.422 -34.9226H74.6006V0.89851L110.422 -34.9226Z" stroke="#E8E8E8" stroke-width="0.432598"/>
<path d="M74.6023 0.898438L38.7803 36.7196H74.6023V0.898438Z" stroke="#E8E8E8" stroke-width="0.432598"/>
<path d="M146.244 0.898438V36.7196H110.423" stroke="#E8E8E8" stroke-width="0.432598"/>
<path d="M253.707 -34.9226H217.886V0.898483H253.707V-34.9226Z" stroke="#E8E8E8" stroke-width="0.432598"/>
<path d="M253.707 36.7196L217.886 0.898438L253.707 0.898441V36.7196Z" stroke="#E8E8E8" stroke-width="0.432598"/>
<path d="M289.528 0.898521L253.707 0.898518V-34.9226L289.528 0.898521Z" stroke="#E8E8E8" stroke-width="0.432598"/>
<path d="M253.707 36.7196H289.528V0.898438H253.707V36.7196Z" stroke="#E8E8E8" stroke-width="0.432598"/>
<path d="M182.064 -34.9226H217.886V0.89851L182.064 -34.9226Z" stroke="#E8E8E8" stroke-width="0.432598"/>
<path d="M217.886 0.898438L253.707 36.7196H217.886V0.898438Z" stroke="#E8E8E8" stroke-width="0.432598"/>
<path d="M146.244 0.898438V36.7196H182.065" stroke="#E8E8E8" stroke-width="0.432598"/>
<path d="M110.422 -34.9226L146.243 0.89851H110.422V-34.9226Z" stroke="#E8E8E8" stroke-width="0.432598"/>
<path d="M396.992 -34.9226H361.171V0.898483H396.992V-34.9226Z" stroke="#E8E8E8" stroke-width="0.432598"/>
<path d="M396.991 36.7196L361.17 0.898438L396.991 0.898441V36.7196Z" stroke="#E8E8E8" stroke-width="0.432598"/>
<path d="M432.812 0.898521L396.991 0.898518V-34.9226L432.812 0.898521Z" stroke="#E8E8E8" stroke-width="0.432598"/>
<path d="M396.991 36.7196H432.812V0.898438H396.991V36.7196Z" stroke="#E8E8E8" stroke-width="0.432598"/>
<path d="M325.35 -34.9226H361.171V0.89851L325.35 -34.9226Z" stroke="#E8E8E8" stroke-width="0.432598"/>
<path d="M361.171 0.898438L396.992 36.7196H361.171V0.898438Z" stroke="#E8E8E8" stroke-width="0.432598"/>
<path d="M468.634 -34.9226H432.812V0.898483H468.634V-34.9226Z" stroke="#E8E8E8" stroke-width="0.432598"/>
<path d="M468.633 36.7196L432.812 0.898438L468.633 0.898441V36.7196Z" stroke="#E8E8E8" stroke-width="0.432598"/>
<path d="M396.991 -34.9226H432.812V0.89851L396.991 -34.9226Z" stroke="#E8E8E8" stroke-width="0.432598"/>
<path d="M432.812 0.898438L468.634 36.7196H432.812V0.898438Z" stroke="#E8E8E8" stroke-width="0.432598"/>
<path d="M74.6016 72.541V108.362" stroke="#E8E8E8" stroke-width="0.432598"/>
<path d="M217.886 72.541V108.362" stroke="#E8E8E8" stroke-width="0.432598"/>
<path d="M325.349 108.362H289.528V144.183H325.349V108.362Z" stroke="#E8E8E8" stroke-width="0.432598"/>
<path d="M289.528 72.541H253.707V108.362H289.528V72.541Z" stroke="#E8E8E8" stroke-width="0.432598"/>
<path d="M253.707 36.7195L289.528 72.5406H253.707V36.7195Z" stroke="#E8E8E8" stroke-width="0.432598"/>
<path d="M253.707 36.7195H217.886V72.5406H253.707V36.7195Z" stroke="#E8E8E8" stroke-width="0.432598"/>
<path d="M217.886 72.541H253.707V108.362L217.886 72.541Z" stroke="#E8E8E8" stroke-width="0.432598"/>
<path d="M325.35 180.004L289.528 144.183H325.35V180.004Z" stroke="#E8E8E8" stroke-width="0.432598"/>
<path d="M361.171 144.183H325.35V108.362L361.171 144.183Z" stroke="#E8E8E8" stroke-width="0.432598"/>
<path d="M325.35 180.004H361.171V144.183H325.35V180.004Z" stroke="#E8E8E8" stroke-width="0.432598"/>
<path d="M253.707 108.362H289.528V144.183L253.707 108.362Z" stroke="#E8E8E8" stroke-width="0.432598"/>
<path d="M253.707 36.7195H289.528V72.5406L253.707 36.7195Z" stroke="#E8E8E8" stroke-width="0.432598"/>
<path d="M289.528 72.541L325.349 108.362H289.528V72.541Z" stroke="#E8E8E8" stroke-width="0.432598"/>
<path d="M289.528 144.183L325.349 180.004H289.528V144.183Z" stroke="#E8E8E8" stroke-width="0.432598"/>
<path d="M253.707 108.362H217.886V144.183H253.707V108.362Z" stroke="#E8E8E8" stroke-width="0.432598"/>
<path d="M253.707 180.004L217.886 144.183H253.707V180.004Z" stroke="#E8E8E8" stroke-width="0.432598"/>
<path d="M289.528 144.183H253.707V108.362L289.528 144.183Z" stroke="#E8E8E8" stroke-width="0.432598"/>
<path d="M253.707 180.004H289.528V144.183H253.707V180.004Z" stroke="#E8E8E8" stroke-width="0.432598"/>
<path d="M217.886 108.362V144.183" stroke="#E8E8E8" stroke-width="0.432598"/>
<path d="M217.886 72.541L253.707 108.362H217.886V72.541Z" stroke="#E8E8E8" stroke-width="0.432598"/>
<path d="M217.886 144.183L253.707 180.004H217.886V144.183Z" stroke="#E8E8E8" stroke-width="0.432598"/>
<path d="M396.992 108.362H361.171V144.183H396.992V108.362Z" stroke="#E8E8E8" stroke-width="0.432598"/>
<path d="M361.171 72.541H325.35V108.362H361.171V72.541Z" stroke="#E8E8E8" stroke-width="0.432598"/>
<path d="M325.35 36.7195L361.171 72.5406H325.35V36.7195Z" stroke="#E8E8E8" stroke-width="0.432598"/>
<path d="M325.349 36.7195H289.528V72.5406H325.349V36.7195Z" stroke="#E8E8E8" stroke-width="0.432598"/>
<path d="M289.528 72.541H325.349V108.362L289.528 72.541Z" stroke="#E8E8E8" stroke-width="0.432598"/>
<path d="M396.991 180.004L361.17 144.183H396.991V180.004Z" stroke="#E8E8E8" stroke-width="0.432598"/>
<path d="M432.812 144.183H396.991V108.362L432.812 144.183Z" stroke="#E8E8E8" stroke-width="0.432598"/>
<path d="M396.991 180.004H432.812V144.183H396.991V180.004Z" stroke="#E8E8E8" stroke-width="0.432598"/>
<path d="M325.35 108.362H361.171V144.183L325.35 108.362Z" stroke="#E8E8E8" stroke-width="0.432598"/>
<path d="M325.35 36.7195H361.171V72.5406L325.35 36.7195Z" stroke="#E8E8E8" stroke-width="0.432598"/>
<path d="M361.171 72.541L396.992 108.362H361.171V72.541Z" stroke="#E8E8E8" stroke-width="0.432598"/>
<path d="M361.171 144.183L396.992 180.004H361.171V144.183Z" stroke="#E8E8E8" stroke-width="0.432598"/>
<path d="M468.634 108.362H432.812V144.183H468.634V108.362Z" stroke="#E8E8E8" stroke-width="0.432598"/>
<path d="M432.812 72.541H396.991V108.362H432.812V72.541Z" stroke="#E8E8E8" stroke-width="0.432598"/>
<path d="M396.991 36.7195L432.812 72.5406H396.991V36.7195Z" stroke="#E8E8E8" stroke-width="0.432598"/>
<path d="M396.992 36.7195H361.171V72.5406H396.992V36.7195Z" stroke="#E8E8E8" stroke-width="0.432598"/>
<path d="M361.171 72.541H396.992V108.362L361.171 72.541Z" stroke="#E8E8E8" stroke-width="0.432598"/>
<path d="M468.633 180.004L432.812 144.183H468.633V180.004Z" stroke="#E8E8E8" stroke-width="0.432598"/>
<path d="M396.991 108.362H432.812V144.183L396.991 108.362Z" stroke="#E8E8E8" stroke-width="0.432598"/>
<path d="M396.991 36.7195H432.812V72.5406L396.991 36.7195Z" stroke="#E8E8E8" stroke-width="0.432598"/>
<path d="M432.812 72.541L468.634 108.362H432.812V72.541Z" stroke="#E8E8E8" stroke-width="0.432598"/>
<path d="M432.812 144.183L468.634 180.004H432.812V144.183Z" stroke="#E8E8E8" stroke-width="0.432598"/>
<path d="M468.634 36.7195H432.812V72.5406H468.634V36.7195Z" stroke="#E8E8E8" stroke-width="0.432598"/>
<path d="M432.812 72.541H468.634V108.362L432.812 72.541Z" stroke="#E8E8E8" stroke-width="0.432598"/>
<path d="M146.243 215.825H110.422V251.646H146.243V215.825Z" stroke="#E8E8E8" stroke-width="0.432598"/>
<path d="M110.422 180.004L146.243 215.825H110.422V180.004Z" stroke="#E8E8E8" stroke-width="0.432598"/>
<path d="M110.423 180.004H74.6016V215.825H110.423V180.004Z" stroke="#E8E8E8" stroke-width="0.432598"/>
<path d="M74.6016 215.825H110.423V251.646L74.6016 215.825Z" stroke="#E8E8E8" stroke-width="0.432598"/>
<path d="M182.064 251.646L146.243 215.825H182.064V251.646Z" stroke="#E8E8E8" stroke-width="0.432598"/>
<path d="M182.065 180.004H217.886V215.825H182.065V180.004Z" stroke="#E8E8E8" stroke-width="0.432598"/>
<path d="M217.886 215.825H182.065V251.646L217.886 215.825Z" stroke="#E8E8E8" stroke-width="0.432598"/>
<path d="M182.065 180.004V215.825H146.244L164.155 197.915L182.065 180.004Z" stroke="#E8E8E8" stroke-width="0.432598"/>
<path d="M146.244 215.825L182.065 251.646H146.244V215.825Z" stroke="#E8E8E8" stroke-width="0.432598"/>
<path d="M74.6016 215.825L110.423 251.646H74.6016V215.825Z" stroke="#E8E8E8" stroke-width="0.432598"/>
<path d="M217.886 215.825V251.646H182.064L217.886 215.825Z" stroke="#E8E8E8" stroke-width="0.432598"/>
<path d="M2.95898 215.825H38.78V251.646H2.95898V215.825Z" stroke="#E8E8E8" stroke-width="0.432598"/>
<path d="M38.78 180.004L2.95898 215.825H38.78V180.004Z" stroke="#E8E8E8" stroke-width="0.432598"/>
<path d="M38.7803 180.004H74.6023V215.825H38.7803V180.004Z" stroke="#E8E8E8" stroke-width="0.432598"/>
<path d="M74.6023 215.825H38.7803V251.646L74.6023 215.825Z" stroke="#E8E8E8" stroke-width="0.432598"/>
<path d="M38.78 180.004H2.95898V215.825L38.78 180.004Z" stroke="#E8E8E8" stroke-width="0.432598"/>
<path d="M289.528 215.825H253.707V251.646H289.528V215.825Z" stroke="#E8E8E8" stroke-width="0.432598"/>
<path d="M253.707 180.004L289.528 215.825H253.707V180.004Z" stroke="#E8E8E8" stroke-width="0.432598"/>
<path d="M253.707 180.004H217.886V215.825H253.707V180.004Z" stroke="#E8E8E8" stroke-width="0.432598"/>
<path d="M217.886 215.825H253.707V251.646L217.886 215.825Z" stroke="#E8E8E8" stroke-width="0.432598"/>
<path d="M253.707 180.004H289.528V215.825L253.707 180.004Z" stroke="#E8E8E8" stroke-width="0.432598"/>
<path d="M289.528 215.825L325.349 251.646H289.528V215.825Z" stroke="#E8E8E8" stroke-width="0.432598"/>
<path d="M146.244 215.825H110.423V251.646L146.244 215.825Z" stroke="#E8E8E8" stroke-width="0.432598"/>
<path d="M74.6023 215.825L38.7803 251.646H74.6023V215.825Z" stroke="#E8E8E8" stroke-width="0.432598"/>
<path d="M217.886 215.825L253.707 251.646H217.886V215.825Z" stroke="#E8E8E8" stroke-width="0.432598"/>
<path d="M361.171 215.825H325.35V251.646H361.171V215.825Z" stroke="#E8E8E8" stroke-width="0.432598"/>
<path d="M325.35 180.004L361.171 215.825H325.35V180.004Z" stroke="#E8E8E8" stroke-width="0.432598"/>
<path d="M325.349 180.004H289.528V215.825H325.349V180.004Z" stroke="#E8E8E8" stroke-width="0.432598"/>
<path d="M289.528 215.825H325.349V251.646L289.528 215.825Z" stroke="#E8E8E8" stroke-width="0.432598"/>
<path d="M325.35 180.004H361.171V215.825L325.35 180.004Z" stroke="#E8E8E8" stroke-width="0.432598"/>
<path d="M361.171 215.825L396.992 251.646H361.171V215.825Z" stroke="#E8E8E8" stroke-width="0.432598"/>
<path d="M432.812 215.825H396.991V251.646H432.812V215.825Z" stroke="#E8E8E8" stroke-width="0.432598"/>
<path d="M396.991 180.004L432.812 215.825H396.991V180.004Z" stroke="#E8E8E8" stroke-width="0.432598"/>
<path d="M396.992 180.004H361.171V215.825H396.992V180.004Z" stroke="#E8E8E8" stroke-width="0.432598"/>
<path d="M361.171 215.825H396.992V251.646L361.171 215.825Z" stroke="#E8E8E8" stroke-width="0.432598"/>
<path d="M396.991 180.004H432.812V215.825L396.991 180.004Z" stroke="#E8E8E8" stroke-width="0.432598"/>
<path d="M432.812 215.825L468.634 251.646H432.812V215.825Z" stroke="#E8E8E8" stroke-width="0.432598"/>
<path d="M468.634 180.004H432.812V215.825H468.634V180.004Z" stroke="#E8E8E8" stroke-width="0.432598"/>
<path d="M432.812 215.825H468.634V251.646L432.812 215.825Z" stroke="#E8E8E8" stroke-width="0.432598"/>
<path fill-rule="evenodd" clip-rule="evenodd" d="M200.998 66.1352V65.5585L200.439 65.4203L146.837 52.193L146.66 52.1494L146.484 52.193L92.8823 65.4203L92.3223 65.5585V66.1352V83.0329V83.1925C92.3223 105.69 92.3223 117.114 95.4383 127.471C98.4373 137.439 103.52 146.656 110.349 154.511C117.445 162.674 127.106 168.771 146.132 180.777L146.267 180.863L146.66 181.11L147.053 180.863L147.188 180.777C166.214 168.771 175.875 162.674 182.971 154.511C189.801 146.656 194.883 137.439 197.882 127.471C200.998 117.114 200.998 105.69 200.998 83.1924V83.0329V66.1352ZM110.904 154.028C117.929 162.109 127.506 168.152 146.66 180.239C165.814 168.152 175.391 162.109 182.416 154.028C189.177 146.251 194.208 137.127 197.177 127.259C200.262 117.006 200.262 105.681 200.262 83.0329V66.1352L146.66 52.9078L93.0583 66.1352V83.0329C93.0583 105.681 93.0583 117.006 96.1433 127.259C99.1123 137.127 104.143 146.251 110.904 154.028Z" fill="url(#paint0_radial_520_559)"/>
<path d="M206.981 60.1583V59.8699L206.701 59.8009L146.748 45.0061L146.66 44.9844L146.572 45.0061L86.6179 59.8009L86.3379 59.8699V60.1583V79.0583V79.1389C86.3379 104.395 86.3379 117.111 89.8049 128.631C93.1409 139.718 98.7929 149.97 106.39 158.707C114.282 167.787 125.036 174.573 146.395 188.052L146.445 188.084L146.634 188.234L146.856 188.094L146.924 188.052C168.283 174.573 179.037 167.787 186.93 158.707C194.526 149.97 200.179 139.718 203.515 128.631C206.981 117.111 206.981 104.395 206.981 79.1387V79.0583V60.1583Z" stroke="#858585" stroke-width="0.43"/>
<path d="M193.761 72.6572V72.3161L193.43 72.2345L146.761 60.7177L146.656 60.6919L146.552 60.7177L99.8818 72.2345L99.5508 72.3161V72.6572V87.3696V87.4645C99.5508 107.094 99.5508 117.013 102.255 126.002C104.858 134.653 109.269 142.652 115.196 149.47C121.355 156.553 129.743 161.847 146.344 172.323L146.424 172.373L146.64 172.51L146.865 172.387L146.877 172.381L146.889 172.373L146.969 172.323C163.57 161.847 171.958 156.553 178.117 149.47C184.043 142.652 188.454 134.653 191.057 126.002C193.761 117.013 193.761 107.094 193.761 87.4646V87.3698V72.6572Z" stroke="url(#paint1_linear_520_559)" stroke-width="0.5"/>
<path fill-rule="evenodd" clip-rule="evenodd" d="M147 133.595V113.968L181.007 78.0433L187.995 80.7224L188 90.2823L147 133.595ZM147 151.093L187.909 107.88C186.712 131.513 173.076 150.221 147 164V151.093ZM147 96.4698V68L169 73L147 96.4666V96.4698Z" fill="#A5A5A5" fill-opacity="0.07"/>
</g>
<defs>
<radialGradient id="paint0_radial_520_559" cx="0" cy="0" r="1" gradientUnits="userSpaceOnUse" gradientTransform="translate(146.658 116.599) rotate(90) scale(141.264 118.958)">
<stop stop-color="#6EABA1"/>
<stop offset="1" stop-color="#5A6563" stop-opacity="0"/>
</radialGradient>
<linearGradient id="paint1_linear_520_559" x1="146.656" y1="61.1404" x2="146.999" y2="196.081" gradientUnits="userSpaceOnUse">
<stop stop-color="#868686" stop-opacity="0.66"/>
<stop offset="1" stop-color="#7A7A7A" stop-opacity="0.56"/>
</linearGradient>
</defs>
</svg>
