<svg width="750" height="227" viewBox="0 0 750 227" fill="none" xmlns="http://www.w3.org/2000/svg">
<g clip-path="url(#clip0_642_3727)">
<mask id="mask0_642_3727" style="mask-type:luminance" maskUnits="userSpaceOnUse" x="0" y="0" width="750" height="227">
<path d="M750 0H0V227H750V0Z" fill="white"/>
</mask>
<g mask="url(#mask0_642_3727)">
<path d="M750 0H0V227H750V0Z" fill="#232323"/>
<path d="M662.5 80.5H643.5C640.186 80.5 637.5 83.1863 637.5 86.5V104.5C637.5 107.814 640.186 110.5 643.5 110.5H662.5C665.814 110.5 668.5 107.814 668.5 104.5V86.5C668.5 83.1863 665.814 80.5 662.5 80.5Z" fill="#1C1C1C" stroke="#292929" stroke-width="0.5"/>
<path d="M641.625 89.25C641.625 86.6266 643.752 84.5 646.375 84.5H659.625C662.248 84.5 664.375 86.6266 664.375 89.25V101.75C664.375 104.373 662.248 106.5 659.625 106.5H646.375C643.752 106.5 641.625 104.373 641.625 101.75V89.25Z" fill="#232323" stroke="#262626" stroke-width="0.5"/>
<path d="M653.219 95.9689C653.486 95.9689 653.703 95.759 653.703 95.5001C653.703 95.2412 653.486 95.0312 653.219 95.0312C652.951 95.0312 652.734 95.2412 652.734 95.5001C652.734 95.759 652.951 95.9689 653.219 95.9689Z" stroke="#B4B4B4" stroke-width="0.5" stroke-linecap="round" stroke-linejoin="round"/>
<path d="M656.609 95.9689C656.877 95.9689 657.094 95.759 657.094 95.5001C657.094 95.2412 656.877 95.0312 656.609 95.0312C656.342 95.0312 656.125 95.2412 656.125 95.5001C656.125 95.759 656.342 95.9689 656.609 95.9689Z" stroke="#B4B4B4" stroke-width="0.5" stroke-linecap="round" stroke-linejoin="round"/>
<path d="M649.828 95.9689C650.095 95.9689 650.312 95.759 650.312 95.5001C650.312 95.2412 650.095 95.0312 649.828 95.0312C649.56 95.0312 649.344 95.2412 649.344 95.5001C649.344 95.759 649.56 95.9689 649.828 95.9689Z" stroke="#B4B4B4" stroke-width="0.5" stroke-linecap="round" stroke-linejoin="round"/>
<path d="M623.5 80.5H605.5C602.186 80.5 599.5 83.1863 599.5 86.5V104.5C599.5 107.814 602.186 110.5 605.5 110.5H623.5C626.814 110.5 629.5 107.814 629.5 104.5V86.5C629.5 83.1863 626.814 80.5 623.5 80.5Z" fill="#1C1C1C" stroke="#292929" stroke-width="0.5"/>
<path d="M603.5 89.25C603.5 86.6266 605.627 84.5 608.25 84.5H620.75C623.373 84.5 625.5 86.6266 625.5 89.25V101.75C625.5 104.373 623.373 106.5 620.75 106.5H608.25C605.627 106.5 603.5 104.373 603.5 101.75V89.25Z" fill="#232323" stroke="#262626" stroke-width="0.5"/>
<path d="M614.711 95.9689C614.97 95.9689 615.18 95.759 615.18 95.5001C615.18 95.2412 614.97 95.0312 614.711 95.0312C614.453 95.0312 614.243 95.2412 614.243 95.5001C614.243 95.759 614.453 95.9689 614.711 95.9689Z" stroke="#B4B4B4" stroke-width="0.5" stroke-linecap="round" stroke-linejoin="round"/>
<path d="M617.993 95.9689C618.252 95.9689 618.461 95.759 618.461 95.5001C618.461 95.2412 618.252 95.0312 617.993 95.0312C617.734 95.0312 617.524 95.2412 617.524 95.5001C617.524 95.759 617.734 95.9689 617.993 95.9689Z" stroke="#B4B4B4" stroke-width="0.5" stroke-linecap="round" stroke-linejoin="round"/>
<path d="M611.43 95.9689C611.689 95.9689 611.899 95.759 611.899 95.5001C611.899 95.2412 611.689 95.0312 611.43 95.0312C611.171 95.0312 610.961 95.2412 610.961 95.5001C610.961 95.759 611.171 95.9689 611.43 95.9689Z" stroke="#B4B4B4" stroke-width="0.5" stroke-linecap="round" stroke-linejoin="round"/>
<path d="M585.5 80.5H567.5C564.186 80.5 561.5 83.1863 561.5 86.5V104.5C561.5 107.814 564.186 110.5 567.5 110.5H585.5C588.814 110.5 591.5 107.814 591.5 104.5V86.5C591.5 83.1863 588.814 80.5 585.5 80.5Z" fill="#1C1C1C" stroke="#292929" stroke-width="0.5"/>
<path d="M565.5 89.25C565.5 86.6266 567.627 84.5 570.25 84.5H582.75C585.373 84.5 587.5 86.6266 587.5 89.25V101.75C587.5 104.373 585.373 106.5 582.75 106.5H570.25C567.627 106.5 565.5 104.373 565.5 101.75V89.25Z" fill="#232323" stroke="#262626" stroke-width="0.5"/>
<path d="M576.711 95.9689C576.97 95.9689 577.18 95.759 577.18 95.5001C577.18 95.2412 576.97 95.0312 576.711 95.0312C576.453 95.0312 576.243 95.2412 576.243 95.5001C576.243 95.759 576.453 95.9689 576.711 95.9689Z" stroke="#B4B4B4" stroke-width="0.5" stroke-linecap="round" stroke-linejoin="round"/>
<path d="M579.993 95.9689C580.252 95.9689 580.461 95.759 580.461 95.5001C580.461 95.2412 580.252 95.0312 579.993 95.0312C579.734 95.0312 579.524 95.2412 579.524 95.5001C579.524 95.759 579.734 95.9689 579.993 95.9689Z" stroke="#B4B4B4" stroke-width="0.5" stroke-linecap="round" stroke-linejoin="round"/>
<path d="M573.43 95.9689C573.689 95.9689 573.899 95.759 573.899 95.5001C573.899 95.2412 573.689 95.0312 573.43 95.0312C573.171 95.0312 572.961 95.2412 572.961 95.5001C572.961 95.759 573.171 95.9689 573.43 95.9689Z" stroke="#B4B4B4" stroke-width="0.5" stroke-linecap="round" stroke-linejoin="round"/>
<path d="M548.5 80.5H529.5C526.186 80.5 523.5 83.1863 523.5 86.5V104.5C523.5 107.814 526.186 110.5 529.5 110.5H548.5C551.814 110.5 554.5 107.814 554.5 104.5V86.5C554.5 83.1863 551.814 80.5 548.5 80.5Z" fill="#1C1C1C" stroke="#292929" stroke-width="0.5"/>
<path d="M527.625 89.25C527.625 86.6266 529.752 84.5 532.375 84.5H545.625C548.248 84.5 550.375 86.6266 550.375 89.25V101.75C550.375 104.373 548.248 106.5 545.625 106.5H532.375C529.752 106.5 527.625 104.373 527.625 101.75V89.25Z" fill="#232323" stroke="#262626" stroke-width="0.5"/>
<path d="M539.219 95.9689C539.486 95.9689 539.703 95.759 539.703 95.5001C539.703 95.2412 539.486 95.0312 539.219 95.0312C538.951 95.0312 538.734 95.2412 538.734 95.5001C538.734 95.759 538.951 95.9689 539.219 95.9689Z" stroke="#B4B4B4" stroke-width="0.5" stroke-linecap="round" stroke-linejoin="round"/>
<path d="M542.609 95.9689C542.877 95.9689 543.094 95.759 543.094 95.5001C543.094 95.2412 542.877 95.0312 542.609 95.0312C542.342 95.0312 542.125 95.2412 542.125 95.5001C542.125 95.759 542.342 95.9689 542.609 95.9689Z" stroke="#B4B4B4" stroke-width="0.5" stroke-linecap="round" stroke-linejoin="round"/>
<path d="M535.828 95.9689C536.095 95.9689 536.312 95.759 536.312 95.5001C536.312 95.2412 536.095 95.0312 535.828 95.0312C535.56 95.0312 535.344 95.2412 535.344 95.5001C535.344 95.759 535.56 95.9689 535.828 95.9689Z" stroke="#B4B4B4" stroke-width="0.5" stroke-linecap="round" stroke-linejoin="round"/>
<path d="M548.5 42.5H529.5C526.186 42.5 523.5 45.1863 523.5 48.5V66.5C523.5 69.8137 526.186 72.5 529.5 72.5H548.5C551.814 72.5 554.5 69.8137 554.5 66.5V48.5C554.5 45.1863 551.814 42.5 548.5 42.5Z" fill="#1C1C1C" stroke="#292929" stroke-width="0.5"/>
<path d="M527.625 51.25C527.625 48.6266 529.752 46.5 532.375 46.5H545.625C548.248 46.5 550.375 48.6266 550.375 51.25V63.75C550.375 66.3734 548.248 68.5 545.625 68.5H532.375C529.752 68.5 527.625 66.3734 527.625 63.75V51.25Z" fill="#232323" stroke="#262626" stroke-width="0.5"/>
<path d="M539.219 57.9688C539.486 57.9688 539.703 57.7589 539.703 57.5C539.703 57.2411 539.486 57.0312 539.219 57.0312C538.951 57.0312 538.734 57.2411 538.734 57.5C538.734 57.7589 538.951 57.9688 539.219 57.9688Z" stroke="#B4B4B4" stroke-width="0.5" stroke-linecap="round" stroke-linejoin="round"/>
<path d="M542.609 57.9688C542.877 57.9688 543.094 57.7589 543.094 57.5C543.094 57.2411 542.877 57.0312 542.609 57.0312C542.342 57.0312 542.125 57.2411 542.125 57.5C542.125 57.7589 542.342 57.9688 542.609 57.9688Z" stroke="#B4B4B4" stroke-width="0.5" stroke-linecap="round" stroke-linejoin="round"/>
<path d="M535.828 57.9688C536.095 57.9688 536.312 57.7589 536.312 57.5C536.312 57.2411 536.095 57.0312 535.828 57.0312C535.56 57.0312 535.344 57.2411 535.344 57.5C535.344 57.7589 535.56 57.9688 535.828 57.9688Z" stroke="#B4B4B4" stroke-width="0.5" stroke-linecap="round" stroke-linejoin="round"/>
<path d="M510.5 80.5H492.5C489.186 80.5 486.5 83.1863 486.5 86.5V104.5C486.5 107.814 489.186 110.5 492.5 110.5H510.5C513.814 110.5 516.5 107.814 516.5 104.5V86.5C516.5 83.1863 513.814 80.5 510.5 80.5Z" fill="#1C1C1C" stroke="#292929" stroke-width="0.5"/>
<path d="M490.5 89.25C490.5 86.6266 492.627 84.5 495.25 84.5H507.75C510.373 84.5 512.5 86.6266 512.5 89.25V101.75C512.5 104.373 510.373 106.5 507.75 106.5H495.25C492.627 106.5 490.5 104.373 490.5 101.75V89.25Z" fill="#232323" stroke="#262626" stroke-width="0.5"/>
<path d="M501.711 95.9689C501.97 95.9689 502.18 95.759 502.18 95.5001C502.18 95.2412 501.97 95.0312 501.711 95.0312C501.453 95.0312 501.243 95.2412 501.243 95.5001C501.243 95.759 501.453 95.9689 501.711 95.9689Z" stroke="#B4B4B4" stroke-width="0.5" stroke-linecap="round" stroke-linejoin="round"/>
<path d="M504.993 95.9689C505.252 95.9689 505.461 95.759 505.461 95.5001C505.461 95.2412 505.252 95.0312 504.993 95.0312C504.734 95.0312 504.524 95.2412 504.524 95.5001C504.524 95.759 504.734 95.9689 504.993 95.9689Z" stroke="#B4B4B4" stroke-width="0.5" stroke-linecap="round" stroke-linejoin="round"/>
<path d="M498.43 95.9689C498.689 95.9689 498.899 95.759 498.899 95.5001C498.899 95.2412 498.689 95.0312 498.43 95.0312C498.171 95.0312 497.961 95.2412 497.961 95.5001C497.961 95.759 498.171 95.9689 498.43 95.9689Z" stroke="#B4B4B4" stroke-width="0.5" stroke-linecap="round" stroke-linejoin="round"/>
<path d="M510.5 118.5H492.5C489.186 118.5 486.5 121.186 486.5 124.5V143.5C486.5 146.814 489.186 149.5 492.5 149.5H510.5C513.814 149.5 516.5 146.814 516.5 143.5V124.5C516.5 121.186 513.814 118.5 510.5 118.5Z" fill="#1C1C1C" stroke="#292929" stroke-width="0.5"/>
<path d="M490.5 127.375C490.5 124.752 492.627 122.625 495.25 122.625H507.75C510.373 122.625 512.5 124.752 512.5 127.375V140.625C512.5 143.248 510.373 145.375 507.75 145.375H495.25C492.627 145.375 490.5 143.248 490.5 140.625V127.375Z" fill="#232323" stroke="#262626" stroke-width="0.5"/>
<path d="M501.711 134.484C501.97 134.484 502.18 134.268 502.18 134C502.18 133.732 501.97 133.516 501.711 133.516C501.453 133.516 501.243 133.732 501.243 134C501.243 134.268 501.453 134.484 501.711 134.484Z" stroke="#B4B4B4" stroke-width="0.5" stroke-linecap="round" stroke-linejoin="round"/>
<path d="M504.993 134.484C505.252 134.484 505.461 134.268 505.461 134C505.461 133.732 505.252 133.516 504.993 133.516C504.734 133.516 504.524 133.732 504.524 134C504.524 134.268 504.734 134.484 504.993 134.484Z" stroke="#B4B4B4" stroke-width="0.5" stroke-linecap="round" stroke-linejoin="round"/>
<path d="M498.43 134.484C498.689 134.484 498.899 134.268 498.899 134C498.899 133.732 498.689 133.516 498.43 133.516C498.171 133.516 497.961 133.732 497.961 134C497.961 134.268 498.171 134.484 498.43 134.484Z" stroke="#B4B4B4" stroke-width="0.5" stroke-linecap="round" stroke-linejoin="round"/>
<path d="M472.5 80.5H453.5C450.186 80.5 447.5 83.1863 447.5 86.5V104.5C447.5 107.814 450.186 110.5 453.5 110.5H472.5C475.814 110.5 478.5 107.814 478.5 104.5V86.5C478.5 83.1863 475.814 80.5 472.5 80.5Z" fill="#1C1C1C" stroke="#292929" stroke-width="0.5"/>
<path d="M451.625 89.25C451.625 86.6266 453.752 84.5 456.375 84.5H469.625C472.248 84.5 474.375 86.6266 474.375 89.25V101.75C474.375 104.373 472.248 106.5 469.625 106.5H456.375C453.752 106.5 451.625 104.373 451.625 101.75V89.25Z" fill="#232323" stroke="#262626" stroke-width="0.5"/>
<path d="M463.219 95.9689C463.486 95.9689 463.703 95.759 463.703 95.5001C463.703 95.2412 463.486 95.0312 463.219 95.0312C462.951 95.0312 462.734 95.2412 462.734 95.5001C462.734 95.759 462.951 95.9689 463.219 95.9689Z" stroke="#B4B4B4" stroke-width="0.5" stroke-linecap="round" stroke-linejoin="round"/>
<path d="M466.609 95.9689C466.877 95.9689 467.094 95.759 467.094 95.5001C467.094 95.2412 466.877 95.0312 466.609 95.0312C466.342 95.0312 466.125 95.2412 466.125 95.5001C466.125 95.759 466.342 95.9689 466.609 95.9689Z" stroke="#B4B4B4" stroke-width="0.5" stroke-linecap="round" stroke-linejoin="round"/>
<path d="M459.828 95.9689C460.095 95.9689 460.312 95.759 460.312 95.5001C460.312 95.2412 460.095 95.0312 459.828 95.0312C459.56 95.0312 459.344 95.2412 459.344 95.5001C459.344 95.759 459.56 95.9689 459.828 95.9689Z" stroke="#B4B4B4" stroke-width="0.5" stroke-linecap="round" stroke-linejoin="round"/>
<path d="M472.5 42.5H453.5C450.186 42.5 447.5 45.1863 447.5 48.5V66.5C447.5 69.8137 450.186 72.5 453.5 72.5H472.5C475.814 72.5 478.5 69.8137 478.5 66.5V48.5C478.5 45.1863 475.814 42.5 472.5 42.5Z" fill="#1C1C1C" stroke="#292929" stroke-width="0.5"/>
<path d="M451.625 51.25C451.625 48.6266 453.752 46.5 456.375 46.5H469.625C472.248 46.5 474.375 48.6266 474.375 51.25V63.75C474.375 66.3734 472.248 68.5 469.625 68.5H456.375C453.752 68.5 451.625 66.3734 451.625 63.75V51.25Z" fill="#232323" stroke="#262626" stroke-width="0.5"/>
<path d="M463.219 57.9688C463.486 57.9688 463.703 57.7589 463.703 57.5C463.703 57.2411 463.486 57.0312 463.219 57.0312C462.951 57.0312 462.734 57.2411 462.734 57.5C462.734 57.7589 462.951 57.9688 463.219 57.9688Z" stroke="#B4B4B4" stroke-width="0.5" stroke-linecap="round" stroke-linejoin="round"/>
<path d="M466.609 57.9688C466.877 57.9688 467.094 57.7589 467.094 57.5C467.094 57.2411 466.877 57.0312 466.609 57.0312C466.342 57.0312 466.125 57.2411 466.125 57.5C466.125 57.7589 466.342 57.9688 466.609 57.9688Z" stroke="#B4B4B4" stroke-width="0.5" stroke-linecap="round" stroke-linejoin="round"/>
<path d="M459.828 57.9688C460.095 57.9688 460.312 57.7589 460.312 57.5C460.312 57.2411 460.095 57.0312 459.828 57.0312C459.56 57.0312 459.344 57.2411 459.344 57.5C459.344 57.7589 459.56 57.9688 459.828 57.9688Z" stroke="#B4B4B4" stroke-width="0.5" stroke-linecap="round" stroke-linejoin="round"/>
<path d="M433.5 42.5H415.5C412.186 42.5 409.5 45.1863 409.5 48.5V66.5C409.5 69.8137 412.186 72.5 415.5 72.5H433.5C436.814 72.5 439.5 69.8137 439.5 66.5V48.5C439.5 45.1863 436.814 42.5 433.5 42.5Z" fill="#1C1C1C" stroke="#292929" stroke-width="0.5"/>
<path d="M413.5 51.25C413.5 48.6266 415.627 46.5 418.25 46.5H430.75C433.373 46.5 435.5 48.6266 435.5 51.25V63.75C435.5 66.3734 433.373 68.5 430.75 68.5H418.25C415.627 68.5 413.5 66.3734 413.5 63.75V51.25Z" fill="#232323" stroke="#262626" stroke-width="0.5"/>
<path d="M424.711 57.9688C424.97 57.9688 425.18 57.7589 425.18 57.5C425.18 57.2411 424.97 57.0312 424.711 57.0312C424.453 57.0312 424.243 57.2411 424.243 57.5C424.243 57.7589 424.453 57.9688 424.711 57.9688Z" stroke="#B4B4B4" stroke-width="0.5" stroke-linecap="round" stroke-linejoin="round"/>
<path d="M427.993 57.9688C428.252 57.9688 428.461 57.7589 428.461 57.5C428.461 57.2411 428.252 57.0312 427.993 57.0312C427.734 57.0312 427.524 57.2411 427.524 57.5C427.524 57.7589 427.734 57.9688 427.993 57.9688Z" stroke="#B4B4B4" stroke-width="0.5" stroke-linecap="round" stroke-linejoin="round"/>
<path d="M421.43 57.9688C421.689 57.9688 421.899 57.7589 421.899 57.5C421.899 57.2411 421.689 57.0312 421.43 57.0312C421.171 57.0312 420.961 57.2411 420.961 57.5C420.961 57.7589 421.171 57.9688 421.43 57.9688Z" stroke="#B4B4B4" stroke-width="0.5" stroke-linecap="round" stroke-linejoin="round"/>
<path d="M700.5 80.5H681.5C678.186 80.5 675.5 83.1863 675.5 86.5V104.5C675.5 107.814 678.186 110.5 681.5 110.5H700.5C703.814 110.5 706.5 107.814 706.5 104.5V86.5C706.5 83.1863 703.814 80.5 700.5 80.5Z" fill="#1C1C1C" stroke="#292929" stroke-width="0.5"/>
<path d="M679.625 89.25C679.625 86.6266 681.752 84.5 684.375 84.5H697.625C700.248 84.5 702.375 86.6266 702.375 89.25V101.75C702.375 104.373 700.248 106.5 697.625 106.5H684.375C681.752 106.5 679.625 104.373 679.625 101.75V89.25Z" fill="#232323" stroke="#262626" stroke-width="0.5"/>
<path d="M691.219 95.9689C691.486 95.9689 691.703 95.759 691.703 95.5001C691.703 95.2412 691.486 95.0312 691.219 95.0312C690.951 95.0312 690.734 95.2412 690.734 95.5001C690.734 95.759 690.951 95.9689 691.219 95.9689Z" stroke="#B4B4B4" stroke-width="0.5" stroke-linecap="round" stroke-linejoin="round"/>
<path d="M694.609 95.9689C694.877 95.9689 695.094 95.759 695.094 95.5001C695.094 95.2412 694.877 95.0312 694.609 95.0312C694.342 95.0312 694.125 95.2412 694.125 95.5001C694.125 95.759 694.342 95.9689 694.609 95.9689Z" stroke="#B4B4B4" stroke-width="0.5" stroke-linecap="round" stroke-linejoin="round"/>
<path d="M687.828 95.9689C688.095 95.9689 688.312 95.759 688.312 95.5001C688.312 95.2412 688.095 95.0312 687.828 95.0312C687.56 95.0312 687.344 95.2412 687.344 95.5001C687.344 95.759 687.56 95.9689 687.828 95.9689Z" stroke="#B4B4B4" stroke-width="0.5" stroke-linecap="round" stroke-linejoin="round"/>
<path d="M700.5 3.5H681.5C678.186 3.5 675.5 6.18629 675.5 9.5V28.5C675.5 31.8137 678.186 34.5 681.5 34.5H700.5C703.814 34.5 706.5 31.8137 706.5 28.5V9.5C706.5 6.18629 703.814 3.5 700.5 3.5Z" fill="#1C1C1C" stroke="#292929" stroke-width="0.5"/>
<path d="M679.625 12.375C679.625 9.75165 681.752 7.625 684.375 7.625H697.625C700.248 7.625 702.375 9.75165 702.375 12.375V25.625C702.375 28.2484 700.248 30.375 697.625 30.375H684.375C681.752 30.375 679.625 28.2484 679.625 25.625V12.375Z" fill="#232323" stroke="#262626" stroke-width="0.5"/>
<path d="M691.219 19.4844C691.486 19.4844 691.703 19.2675 691.703 19C691.703 18.7325 691.486 18.5156 691.219 18.5156C690.951 18.5156 690.734 18.7325 690.734 19C690.734 19.2675 690.951 19.4844 691.219 19.4844Z" stroke="#B4B4B4" stroke-width="0.5" stroke-linecap="round" stroke-linejoin="round"/>
<path d="M694.609 19.4844C694.877 19.4844 695.094 19.2675 695.094 19C695.094 18.7325 694.877 18.5156 694.609 18.5156C694.342 18.5156 694.125 18.7325 694.125 19C694.125 19.2675 694.342 19.4844 694.609 19.4844Z" stroke="#B4B4B4" stroke-width="0.5" stroke-linecap="round" stroke-linejoin="round"/>
<path d="M687.828 19.4844C688.095 19.4844 688.312 19.2675 688.312 19C688.312 18.7325 688.095 18.5156 687.828 18.5156C687.56 18.5156 687.344 18.7325 687.344 19C687.344 19.2675 687.56 19.4844 687.828 19.4844Z" stroke="#B4B4B4" stroke-width="0.5" stroke-linecap="round" stroke-linejoin="round"/>
<path d="M700.5 118.5H681.5C678.186 118.5 675.5 121.186 675.5 124.5V143.5C675.5 146.814 678.186 149.5 681.5 149.5H700.5C703.814 149.5 706.5 146.814 706.5 143.5V124.5C706.5 121.186 703.814 118.5 700.5 118.5Z" fill="#1C1C1C" stroke="#292929" stroke-width="0.5"/>
<path d="M679.625 127.375C679.625 124.752 681.752 122.625 684.375 122.625H697.625C700.248 122.625 702.375 124.752 702.375 127.375V140.625C702.375 143.248 700.248 145.375 697.625 145.375H684.375C681.752 145.375 679.625 143.248 679.625 140.625V127.375Z" fill="#232323" stroke="#262626" stroke-width="0.5"/>
<path d="M691.219 134.484C691.486 134.484 691.703 134.268 691.703 134C691.703 133.732 691.486 133.516 691.219 133.516C690.951 133.516 690.734 133.732 690.734 134C690.734 134.268 690.951 134.484 691.219 134.484Z" stroke="#B4B4B4" stroke-width="0.5" stroke-linecap="round" stroke-linejoin="round"/>
<path d="M694.609 134.484C694.877 134.484 695.094 134.268 695.094 134C695.094 133.732 694.877 133.516 694.609 133.516C694.342 133.516 694.125 133.732 694.125 134C694.125 134.268 694.342 134.484 694.609 134.484Z" stroke="#B4B4B4" stroke-width="0.5" stroke-linecap="round" stroke-linejoin="round"/>
<path d="M687.828 134.484C688.095 134.484 688.312 134.268 688.312 134C688.312 133.732 688.095 133.516 687.828 133.516C687.56 133.516 687.344 133.732 687.344 134C687.344 134.268 687.56 134.484 687.828 134.484Z" stroke="#B4B4B4" stroke-width="0.5" stroke-linecap="round" stroke-linejoin="round"/>
<path d="M700.5 42.5H681.5C678.186 42.5 675.5 45.1863 675.5 48.5V66.5C675.5 69.8137 678.186 72.5 681.5 72.5H700.5C703.814 72.5 706.5 69.8137 706.5 66.5V48.5C706.5 45.1863 703.814 42.5 700.5 42.5Z" fill="#1C1C1C" stroke="#292929" stroke-width="0.5"/>
<path d="M679.625 51.25C679.625 48.6266 681.752 46.5 684.375 46.5H697.625C700.248 46.5 702.375 48.6266 702.375 51.25V63.75C702.375 66.3734 700.248 68.5 697.625 68.5H684.375C681.752 68.5 679.625 66.3734 679.625 63.75V51.25Z" fill="#232323" stroke="#262626" stroke-width="0.5"/>
<path d="M691.219 57.9688C691.486 57.9688 691.703 57.7589 691.703 57.5C691.703 57.2411 691.486 57.0312 691.219 57.0312C690.951 57.0312 690.734 57.2411 690.734 57.5C690.734 57.7589 690.951 57.9688 691.219 57.9688Z" stroke="#B4B4B4" stroke-width="0.5" stroke-linecap="round" stroke-linejoin="round"/>
<path d="M694.609 57.9688C694.877 57.9688 695.094 57.7589 695.094 57.5C695.094 57.2411 694.877 57.0312 694.609 57.0312C694.342 57.0312 694.125 57.2411 694.125 57.5C694.125 57.7589 694.342 57.9688 694.609 57.9688Z" stroke="#B4B4B4" stroke-width="0.5" stroke-linecap="round" stroke-linejoin="round"/>
<path d="M687.828 57.9688C688.095 57.9688 688.312 57.7589 688.312 57.5C688.312 57.2411 688.095 57.0312 687.828 57.0312C687.56 57.0312 687.344 57.2411 687.344 57.5C687.344 57.7589 687.56 57.9688 687.828 57.9688Z" stroke="#B4B4B4" stroke-width="0.5" stroke-linecap="round" stroke-linejoin="round"/>
<path d="M700.5 156.5H681.5C678.186 156.5 675.5 159.186 675.5 162.5V181.5C675.5 184.814 678.186 187.5 681.5 187.5H700.5C703.814 187.5 706.5 184.814 706.5 181.5V162.5C706.5 159.186 703.814 156.5 700.5 156.5Z" fill="#1C1C1C" stroke="#292929" stroke-width="0.5"/>
<path d="M679.625 165.375C679.625 162.752 681.752 160.625 684.375 160.625H697.625C700.248 160.625 702.375 162.752 702.375 165.375V178.625C702.375 181.248 700.248 183.375 697.625 183.375H684.375C681.752 183.375 679.625 181.248 679.625 178.625V165.375Z" fill="#232323" stroke="#262626" stroke-width="0.5"/>
<path d="M690.876 172.968C691.143 172.968 691.36 172.752 691.36 172.484C691.36 172.216 691.143 172 690.876 172C690.608 172 690.391 172.216 690.391 172.484C690.391 172.752 690.608 172.968 690.876 172.968Z" stroke="#B4B4B4" stroke-width="0.5" stroke-linecap="round" stroke-linejoin="round"/>
<path d="M694.265 172.968C694.533 172.968 694.75 172.752 694.75 172.484C694.75 172.216 694.533 172 694.265 172C693.998 172 693.781 172.216 693.781 172.484C693.781 172.752 693.998 172.968 694.265 172.968Z" stroke="#B4B4B4" stroke-width="0.5" stroke-linecap="round" stroke-linejoin="round"/>
<path d="M687.484 172.968C687.751 172.968 687.968 172.752 687.968 172.484C687.968 172.216 687.751 172 687.484 172C687.216 172 687 172.216 687 172.484C687 172.752 687.216 172.968 687.484 172.968Z" stroke="#B4B4B4" stroke-width="0.5" stroke-linecap="round" stroke-linejoin="round"/>
<path d="M700.5 194.5H681.5C678.186 194.5 675.5 197.186 675.5 200.5V219.5C675.5 222.814 678.186 225.5 681.5 225.5H700.5C703.814 225.5 706.5 222.814 706.5 219.5V200.5C706.5 197.186 703.814 194.5 700.5 194.5Z" fill="#1C1C1C" stroke="#292929" stroke-width="0.5"/>
<path d="M679.625 203.375C679.625 200.752 681.752 198.625 684.375 198.625H697.625C700.248 198.625 702.375 200.752 702.375 203.375V216.625C702.375 219.248 700.248 221.375 697.625 221.375H684.375C681.752 221.375 679.625 219.248 679.625 216.625V203.375Z" fill="#232323" stroke="#262626" stroke-width="0.5"/>
<path d="M691.219 210.484C691.486 210.484 691.703 210.268 691.703 210C691.703 209.732 691.486 209.516 691.219 209.516C690.951 209.516 690.734 209.732 690.734 210C690.734 210.268 690.951 210.484 691.219 210.484Z" stroke="#B4B4B4" stroke-width="0.5" stroke-linecap="round" stroke-linejoin="round"/>
<path d="M694.609 210.484C694.877 210.484 695.094 210.268 695.094 210C695.094 209.732 694.877 209.516 694.609 209.516C694.342 209.516 694.125 209.732 694.125 210C694.125 210.268 694.342 210.484 694.609 210.484Z" stroke="#B4B4B4" stroke-width="0.5" stroke-linecap="round" stroke-linejoin="round"/>
<path d="M687.828 210.484C688.095 210.484 688.312 210.268 688.312 210C688.312 209.732 688.095 209.516 687.828 209.516C687.56 209.516 687.344 209.732 687.344 210C687.344 210.268 687.56 210.484 687.828 210.484Z" stroke="#B4B4B4" stroke-width="0.5" stroke-linecap="round" stroke-linejoin="round"/>
<path d="M738.5 42.5H719.5C716.186 42.5 713.5 45.1863 713.5 48.5V66.5C713.5 69.8137 716.186 72.5 719.5 72.5H738.5C741.814 72.5 744.5 69.8137 744.5 66.5V48.5C744.5 45.1863 741.814 42.5 738.5 42.5Z" fill="#1C1C1C" stroke="#292929" stroke-width="0.5"/>
<path d="M717.625 51.25C717.625 48.6266 719.752 46.5 722.375 46.5H735.625C738.248 46.5 740.375 48.6266 740.375 51.25V63.75C740.375 66.3734 738.248 68.5 735.625 68.5H722.375C719.752 68.5 717.625 66.3734 717.625 63.75V51.25Z" fill="#232323" stroke="#262626" stroke-width="0.5"/>
<path d="M729.219 57.9688C729.486 57.9688 729.703 57.7589 729.703 57.5C729.703 57.2411 729.486 57.0312 729.219 57.0312C728.951 57.0312 728.734 57.2411 728.734 57.5C728.734 57.7589 728.951 57.9688 729.219 57.9688Z" stroke="#B4B4B4" stroke-width="0.5" stroke-linecap="round" stroke-linejoin="round"/>
<path d="M732.609 57.9688C732.877 57.9688 733.094 57.7589 733.094 57.5C733.094 57.2411 732.877 57.0312 732.609 57.0312C732.342 57.0312 732.125 57.2411 732.125 57.5C732.125 57.7589 732.342 57.9688 732.609 57.9688Z" stroke="#B4B4B4" stroke-width="0.5" stroke-linecap="round" stroke-linejoin="round"/>
<path d="M725.828 57.9688C726.095 57.9688 726.312 57.7589 726.312 57.5C726.312 57.2411 726.095 57.0312 725.828 57.0312C725.56 57.0312 725.344 57.2411 725.344 57.5C725.344 57.7589 725.56 57.9688 725.828 57.9688Z" stroke="#B4B4B4" stroke-width="0.5" stroke-linecap="round" stroke-linejoin="round"/>
<path d="M738.5 156.5H719.5C716.186 156.5 713.5 159.186 713.5 162.5V181.5C713.5 184.814 716.186 187.5 719.5 187.5H738.5C741.814 187.5 744.5 184.814 744.5 181.5V162.5C744.5 159.186 741.814 156.5 738.5 156.5Z" fill="#1C1C1C" stroke="#292929" stroke-width="0.5"/>
<path d="M717.625 165.375C717.625 162.752 719.752 160.625 722.375 160.625H735.625C738.248 160.625 740.375 162.752 740.375 165.375V178.625C740.375 181.248 738.248 183.375 735.625 183.375H722.375C719.752 183.375 717.625 181.248 717.625 178.625V165.375Z" fill="#232323" stroke="#262626" stroke-width="0.5"/>
<path d="M729.219 172.484C729.486 172.484 729.703 172.268 729.703 172C729.703 171.732 729.486 171.516 729.219 171.516C728.951 171.516 728.734 171.732 728.734 172C728.734 172.268 728.951 172.484 729.219 172.484Z" stroke="#B4B4B4" stroke-width="0.5" stroke-linecap="round" stroke-linejoin="round"/>
<path d="M732.609 172.484C732.877 172.484 733.094 172.268 733.094 172C733.094 171.732 732.877 171.516 732.609 171.516C732.342 171.516 732.125 171.732 732.125 172C732.125 172.268 732.342 172.484 732.609 172.484Z" stroke="#B4B4B4" stroke-width="0.5" stroke-linecap="round" stroke-linejoin="round"/>
<path d="M725.828 172.484C726.095 172.484 726.312 172.268 726.312 172C726.312 171.732 726.095 171.516 725.828 171.516C725.56 171.516 725.344 171.732 725.344 172C725.344 172.268 725.56 172.484 725.828 172.484Z" stroke="#B4B4B4" stroke-width="0.5" stroke-linecap="round" stroke-linejoin="round"/>
<path d="M738.5 194.5H719.5C716.186 194.5 713.5 197.186 713.5 200.5V219.5C713.5 222.814 716.186 225.5 719.5 225.5H738.5C741.814 225.5 744.5 222.814 744.5 219.5V200.5C744.5 197.186 741.814 194.5 738.5 194.5Z" fill="#1C1C1C" stroke="#292929" stroke-width="0.5"/>
<path d="M717.625 203.375C717.625 200.752 719.752 198.625 722.375 198.625H735.625C738.248 198.625 740.375 200.752 740.375 203.375V216.625C740.375 219.248 738.248 221.375 735.625 221.375H722.375C719.752 221.375 717.625 219.248 717.625 216.625V203.375Z" fill="#232323" stroke="#262626" stroke-width="0.5"/>
<path d="M729.219 210.484C729.486 210.484 729.703 210.268 729.703 210C729.703 209.732 729.486 209.516 729.219 209.516C728.951 209.516 728.734 209.732 728.734 210C728.734 210.268 728.951 210.484 729.219 210.484Z" stroke="#B4B4B4" stroke-width="0.5" stroke-linecap="round" stroke-linejoin="round"/>
<path d="M732.609 210.484C732.877 210.484 733.094 210.268 733.094 210C733.094 209.732 732.877 209.516 732.609 209.516C732.342 209.516 732.125 209.732 732.125 210C732.125 210.268 732.342 210.484 732.609 210.484Z" stroke="#B4B4B4" stroke-width="0.5" stroke-linecap="round" stroke-linejoin="round"/>
<path d="M725.828 210.484C726.095 210.484 726.312 210.268 726.312 210C726.312 209.732 726.095 209.516 725.828 209.516C725.56 209.516 725.344 209.732 725.344 210C725.344 210.268 725.56 210.484 725.828 210.484Z" stroke="#B4B4B4" stroke-width="0.5" stroke-linecap="round" stroke-linejoin="round"/>
<path d="M738.5 3.5H719.5C716.186 3.5 713.5 6.18629 713.5 9.5V28.5C713.5 31.8137 716.186 34.5 719.5 34.5H738.5C741.814 34.5 744.5 31.8137 744.5 28.5V9.5C744.5 6.18629 741.814 3.5 738.5 3.5Z" fill="#1C1C1C" stroke="#292929" stroke-width="0.5"/>
<path d="M717.625 12.375C717.625 9.75165 719.752 7.625 722.375 7.625H735.625C738.248 7.625 740.375 9.75165 740.375 12.375V25.625C740.375 28.2484 738.248 30.375 735.625 30.375H722.375C719.752 30.375 717.625 28.2484 717.625 25.625V12.375Z" fill="#232323" stroke="#262626" stroke-width="0.5"/>
<path d="M729.219 19.4844C729.486 19.4844 729.703 19.2675 729.703 19C729.703 18.7325 729.486 18.5156 729.219 18.5156C728.951 18.5156 728.734 18.7325 728.734 19C728.734 19.2675 728.951 19.4844 729.219 19.4844Z" stroke="#B4B4B4" stroke-width="0.5" stroke-linecap="round" stroke-linejoin="round"/>
<path d="M732.609 19.4844C732.877 19.4844 733.094 19.2675 733.094 19C733.094 18.7325 732.877 18.5156 732.609 18.5156C732.342 18.5156 732.125 18.7325 732.125 19C732.125 19.2675 732.342 19.4844 732.609 19.4844Z" stroke="#B4B4B4" stroke-width="0.5" stroke-linecap="round" stroke-linejoin="round"/>
<path d="M725.828 19.4844C726.095 19.4844 726.312 19.2675 726.312 19C726.312 18.7325 726.095 18.5156 725.828 18.5156C725.56 18.5156 725.344 18.7325 725.344 19C725.344 19.2675 725.56 19.4844 725.828 19.4844Z" stroke="#B4B4B4" stroke-width="0.5" stroke-linecap="round" stroke-linejoin="round"/>
<path d="M738.5 118.5H719.5C716.186 118.5 713.5 121.186 713.5 124.5V143.5C713.5 146.814 716.186 149.5 719.5 149.5H738.5C741.814 149.5 744.5 146.814 744.5 143.5V124.5C744.5 121.186 741.814 118.5 738.5 118.5Z" fill="#1C1C1C" stroke="#292929" stroke-width="0.5"/>
<path d="M717.625 127.375C717.625 124.752 719.752 122.625 722.375 122.625H735.625C738.248 122.625 740.375 124.752 740.375 127.375V140.625C740.375 143.248 738.248 145.375 735.625 145.375H722.375C719.752 145.375 717.625 143.248 717.625 140.625V127.375Z" fill="#232323" stroke="#262626" stroke-width="0.5"/>
<path d="M729.219 134.484C729.486 134.484 729.703 134.268 729.703 134C729.703 133.732 729.486 133.516 729.219 133.516C728.951 133.516 728.734 133.732 728.734 134C728.734 134.268 728.951 134.484 729.219 134.484Z" stroke="#B4B4B4" stroke-width="0.5" stroke-linecap="round" stroke-linejoin="round"/>
<path d="M732.609 134.484C732.877 134.484 733.094 134.268 733.094 134C733.094 133.732 732.877 133.516 732.609 133.516C732.342 133.516 732.125 133.732 732.125 134C732.125 134.268 732.342 134.484 732.609 134.484Z" stroke="#B4B4B4" stroke-width="0.5" stroke-linecap="round" stroke-linejoin="round"/>
<path d="M725.828 134.484C726.095 134.484 726.312 134.268 726.312 134C726.312 133.732 726.095 133.516 725.828 133.516C725.56 133.516 725.344 133.732 725.344 134C725.344 134.268 725.56 134.484 725.828 134.484Z" stroke="#B4B4B4" stroke-width="0.5" stroke-linecap="round" stroke-linejoin="round"/>
<path d="M738.5 80.5H719.5C716.186 80.5 713.5 83.1863 713.5 86.5V104.5C713.5 107.814 716.186 110.5 719.5 110.5H738.5C741.814 110.5 744.5 107.814 744.5 104.5V86.5C744.5 83.1863 741.814 80.5 738.5 80.5Z" fill="#1C1C1C" stroke="#292929" stroke-width="0.5"/>
<path d="M717.625 89.25C717.625 86.6266 719.752 84.5 722.375 84.5H735.625C738.248 84.5 740.375 86.6266 740.375 89.25V101.75C740.375 104.373 738.248 106.5 735.625 106.5H722.375C719.752 106.5 717.625 104.373 717.625 101.75V89.25Z" fill="#232323" stroke="#262626" stroke-width="0.5"/>
<path d="M729.219 95.9689C729.486 95.9689 729.703 95.759 729.703 95.5001C729.703 95.2412 729.486 95.0312 729.219 95.0312C728.951 95.0312 728.734 95.2412 728.734 95.5001C728.734 95.759 728.951 95.9689 729.219 95.9689Z" stroke="#B4B4B4" stroke-width="0.5" stroke-linecap="round" stroke-linejoin="round"/>
<path d="M732.609 95.9689C732.877 95.9689 733.094 95.759 733.094 95.5001C733.094 95.2412 732.877 95.0312 732.609 95.0312C732.342 95.0312 732.125 95.2412 732.125 95.5001C732.125 95.759 732.342 95.9689 732.609 95.9689Z" stroke="#B4B4B4" stroke-width="0.5" stroke-linecap="round" stroke-linejoin="round"/>
<path d="M725.828 95.9689C726.095 95.9689 726.312 95.759 726.312 95.5001C726.312 95.2412 726.095 95.0312 725.828 95.0312C725.56 95.0312 725.344 95.2412 725.344 95.5001C725.344 95.759 725.56 95.9689 725.828 95.9689Z" stroke="#B4B4B4" stroke-width="0.5" stroke-linecap="round" stroke-linejoin="round"/>
<path d="M662.5 3.5H643.5C640.186 3.5 637.5 6.18629 637.5 9.5V28.5C637.5 31.8137 640.186 34.5 643.5 34.5H662.5C665.814 34.5 668.5 31.8137 668.5 28.5V9.5C668.5 6.18629 665.814 3.5 662.5 3.5Z" fill="#1C1C1C" stroke="#292929" stroke-width="0.5"/>
<path d="M641.625 12.375C641.625 9.75165 643.752 7.625 646.375 7.625H659.625C662.248 7.625 664.375 9.75165 664.375 12.375V25.625C664.375 28.2484 662.248 30.375 659.625 30.375H646.375C643.752 30.375 641.625 28.2484 641.625 25.625V12.375Z" fill="#232323" stroke="#262626" stroke-width="0.5"/>
<path d="M653.219 19.4844C653.486 19.4844 653.703 19.2675 653.703 19C653.703 18.7325 653.486 18.5156 653.219 18.5156C652.951 18.5156 652.734 18.7325 652.734 19C652.734 19.2675 652.951 19.4844 653.219 19.4844Z" stroke="#B4B4B4" stroke-width="0.5" stroke-linecap="round" stroke-linejoin="round"/>
<path d="M656.609 19.4844C656.877 19.4844 657.094 19.2675 657.094 19C657.094 18.7325 656.877 18.5156 656.609 18.5156C656.342 18.5156 656.125 18.7325 656.125 19C656.125 19.2675 656.342 19.4844 656.609 19.4844Z" stroke="#B4B4B4" stroke-width="0.5" stroke-linecap="round" stroke-linejoin="round"/>
<path d="M649.828 19.4844C650.095 19.4844 650.312 19.2675 650.312 19C650.312 18.7325 650.095 18.5156 649.828 18.5156C649.56 18.5156 649.344 18.7325 649.344 19C649.344 19.2675 649.56 19.4844 649.828 19.4844Z" stroke="#B4B4B4" stroke-width="0.5" stroke-linecap="round" stroke-linejoin="round"/>
<path d="M662.5 118.5H643.5C640.186 118.5 637.5 121.186 637.5 124.5V143.5C637.5 146.814 640.186 149.5 643.5 149.5H662.5C665.814 149.5 668.5 146.814 668.5 143.5V124.5C668.5 121.186 665.814 118.5 662.5 118.5Z" fill="#1C1C1C" stroke="#292929" stroke-width="0.5"/>
<path d="M641.625 127.375C641.625 124.752 643.752 122.625 646.375 122.625H659.625C662.248 122.625 664.375 124.752 664.375 127.375V140.625C664.375 143.248 662.248 145.375 659.625 145.375H646.375C643.752 145.375 641.625 143.248 641.625 140.625V127.375Z" fill="#232323" stroke="#262626" stroke-width="0.5"/>
<path d="M653.219 134.484C653.486 134.484 653.703 134.268 653.703 134C653.703 133.732 653.486 133.516 653.219 133.516C652.951 133.516 652.734 133.732 652.734 134C652.734 134.268 652.951 134.484 653.219 134.484Z" stroke="#B4B4B4" stroke-width="0.5" stroke-linecap="round" stroke-linejoin="round"/>
<path d="M656.609 134.484C656.877 134.484 657.094 134.268 657.094 134C657.094 133.732 656.877 133.516 656.609 133.516C656.342 133.516 656.125 133.732 656.125 134C656.125 134.268 656.342 134.484 656.609 134.484Z" stroke="#B4B4B4" stroke-width="0.5" stroke-linecap="round" stroke-linejoin="round"/>
<path d="M649.828 134.484C650.095 134.484 650.312 134.268 650.312 134C650.312 133.732 650.095 133.516 649.828 133.516C649.56 133.516 649.344 133.732 649.344 134C649.344 134.268 649.56 134.484 649.828 134.484Z" stroke="#B4B4B4" stroke-width="0.5" stroke-linecap="round" stroke-linejoin="round"/>
<path d="M585.5 3.5H567.5C564.186 3.5 561.5 6.18629 561.5 9.5V28.5C561.5 31.8137 564.186 34.5 567.5 34.5H585.5C588.814 34.5 591.5 31.8137 591.5 28.5V9.5C591.5 6.18629 588.814 3.5 585.5 3.5Z" fill="#1C1C1C" stroke="#292929" stroke-width="0.5"/>
<path d="M565.5 12.375C565.5 9.75165 567.627 7.625 570.25 7.625H582.75C585.373 7.625 587.5 9.75165 587.5 12.375V25.625C587.5 28.2484 585.373 30.375 582.75 30.375H570.25C567.627 30.375 565.5 28.2484 565.5 25.625V12.375Z" fill="#232323" stroke="#262626" stroke-width="0.5"/>
<path d="M576.711 19.4844C576.97 19.4844 577.18 19.2675 577.18 19C577.18 18.7325 576.97 18.5156 576.711 18.5156C576.453 18.5156 576.243 18.7325 576.243 19C576.243 19.2675 576.453 19.4844 576.711 19.4844Z" stroke="#B4B4B4" stroke-width="0.5" stroke-linecap="round" stroke-linejoin="round"/>
<path d="M579.993 19.4844C580.252 19.4844 580.461 19.2675 580.461 19C580.461 18.7325 580.252 18.5156 579.993 18.5156C579.734 18.5156 579.524 18.7325 579.524 19C579.524 19.2675 579.734 19.4844 579.993 19.4844Z" stroke="#B4B4B4" stroke-width="0.5" stroke-linecap="round" stroke-linejoin="round"/>
<path d="M573.43 19.4844C573.689 19.4844 573.899 19.2675 573.899 19C573.899 18.7325 573.689 18.5156 573.43 18.5156C573.171 18.5156 572.961 18.7325 572.961 19C572.961 19.2675 573.171 19.4844 573.43 19.4844Z" stroke="#B4B4B4" stroke-width="0.5" stroke-linecap="round" stroke-linejoin="round"/>
<path d="M623.5 118.5H605.5C602.186 118.5 599.5 121.186 599.5 124.5V143.5C599.5 146.814 602.186 149.5 605.5 149.5H623.5C626.814 149.5 629.5 146.814 629.5 143.5V124.5C629.5 121.186 626.814 118.5 623.5 118.5Z" fill="#1C1C1C" stroke="#292929" stroke-width="0.5"/>
<path d="M603.5 127.375C603.5 124.752 605.627 122.625 608.25 122.625H620.75C623.373 122.625 625.5 124.752 625.5 127.375V140.625C625.5 143.248 623.373 145.375 620.75 145.375H608.25C605.627 145.375 603.5 143.248 603.5 140.625V127.375Z" fill="#232323" stroke="#262626" stroke-width="0.5"/>
<path d="M614.711 134.484C614.97 134.484 615.18 134.268 615.18 134C615.18 133.732 614.97 133.516 614.711 133.516C614.453 133.516 614.243 133.732 614.243 134C614.243 134.268 614.453 134.484 614.711 134.484Z" stroke="#B4B4B4" stroke-width="0.5" stroke-linecap="round" stroke-linejoin="round"/>
<path d="M617.993 134.484C618.252 134.484 618.461 134.268 618.461 134C618.461 133.732 618.252 133.516 617.993 133.516C617.734 133.516 617.524 133.732 617.524 134C617.524 134.268 617.734 134.484 617.993 134.484Z" stroke="#B4B4B4" stroke-width="0.5" stroke-linecap="round" stroke-linejoin="round"/>
<path d="M611.43 134.484C611.689 134.484 611.899 134.268 611.899 134C611.899 133.732 611.689 133.516 611.43 133.516C611.171 133.516 610.961 133.732 610.961 134C610.961 134.268 611.171 134.484 611.43 134.484Z" stroke="#B4B4B4" stroke-width="0.5" stroke-linecap="round" stroke-linejoin="round"/>
<path d="M542.5 160.5H524.5C521.186 160.5 518.5 163.186 518.5 166.5V185.5C518.5 188.814 521.186 191.5 524.5 191.5H542.5C545.814 191.5 548.5 188.814 548.5 185.5V166.5C548.5 163.186 545.814 160.5 542.5 160.5Z" fill="#1C1C1C" stroke="#292929" stroke-width="0.5"/>
<path d="M522.5 169.375C522.5 166.752 524.627 164.625 527.25 164.625H539.75C542.373 164.625 544.5 166.752 544.5 169.375V182.625C544.5 185.248 542.373 187.375 539.75 187.375H527.25C524.627 187.375 522.5 185.248 522.5 182.625V169.375Z" fill="#232323" stroke="#262626" stroke-width="0.5"/>
<path d="M533.711 176.484C533.97 176.484 534.18 176.268 534.18 176C534.18 175.732 533.97 175.516 533.711 175.516C533.453 175.516 533.243 175.732 533.243 176C533.243 176.268 533.453 176.484 533.711 176.484Z" stroke="#B4B4B4" stroke-width="0.5" stroke-linecap="round" stroke-linejoin="round"/>
<path d="M536.993 176.484C537.252 176.484 537.461 176.268 537.461 176C537.461 175.732 537.252 175.516 536.993 175.516C536.734 175.516 536.524 175.732 536.524 176C536.524 176.268 536.734 176.484 536.993 176.484Z" stroke="#B4B4B4" stroke-width="0.5" stroke-linecap="round" stroke-linejoin="round"/>
<path d="M530.43 176.484C530.689 176.484 530.899 176.268 530.899 176C530.899 175.732 530.689 175.516 530.43 175.516C530.171 175.516 529.961 175.732 529.961 176C529.961 176.268 530.171 176.484 530.43 176.484Z" stroke="#B4B4B4" stroke-width="0.5" stroke-linecap="round" stroke-linejoin="round"/>
<path d="M585.5 118.5H567.5C564.186 118.5 561.5 121.186 561.5 124.5V143.5C561.5 146.814 564.186 149.5 567.5 149.5H585.5C588.814 149.5 591.5 146.814 591.5 143.5V124.5C591.5 121.186 588.814 118.5 585.5 118.5Z" fill="#1C1C1C" stroke="#292929" stroke-width="0.5"/>
<path d="M565.5 127.375C565.5 124.752 567.627 122.625 570.25 122.625H582.75C585.373 122.625 587.5 124.752 587.5 127.375V140.625C587.5 143.248 585.373 145.375 582.75 145.375H570.25C567.627 145.375 565.5 143.248 565.5 140.625V127.375Z" fill="#232323" stroke="#262626" stroke-width="0.5"/>
<path d="M576.711 134.484C576.97 134.484 577.18 134.268 577.18 134C577.18 133.732 576.97 133.516 576.711 133.516C576.453 133.516 576.243 133.732 576.243 134C576.243 134.268 576.453 134.484 576.711 134.484Z" stroke="#B4B4B4" stroke-width="0.5" stroke-linecap="round" stroke-linejoin="round"/>
<path d="M579.993 134.484C580.252 134.484 580.461 134.268 580.461 134C580.461 133.732 580.252 133.516 579.993 133.516C579.734 133.516 579.524 133.732 579.524 134C579.524 134.268 579.734 134.484 579.993 134.484Z" stroke="#B4B4B4" stroke-width="0.5" stroke-linecap="round" stroke-linejoin="round"/>
<path d="M573.43 134.484C573.689 134.484 573.899 134.268 573.899 134C573.899 133.732 573.689 133.516 573.43 133.516C573.171 133.516 572.961 133.732 572.961 134C572.961 134.268 573.171 134.484 573.43 134.484Z" stroke="#B4B4B4" stroke-width="0.5" stroke-linecap="round" stroke-linejoin="round"/>
<path d="M662.5 42.5H643.5C640.186 42.5 637.5 45.1863 637.5 48.5V66.5C637.5 69.8137 640.186 72.5 643.5 72.5H662.5C665.814 72.5 668.5 69.8137 668.5 66.5V48.5C668.5 45.1863 665.814 42.5 662.5 42.5Z" fill="#1C1C1C" stroke="#292929" stroke-width="0.5"/>
<path d="M641.625 51.25C641.625 48.6266 643.752 46.5 646.375 46.5H659.625C662.248 46.5 664.375 48.6266 664.375 51.25V63.75C664.375 66.3734 662.248 68.5 659.625 68.5H646.375C643.752 68.5 641.625 66.3734 641.625 63.75V51.25Z" fill="#232323" stroke="#262626" stroke-width="0.5"/>
<path d="M653.219 57.9688C653.486 57.9688 653.703 57.7589 653.703 57.5C653.703 57.2411 653.486 57.0312 653.219 57.0312C652.951 57.0312 652.734 57.2411 652.734 57.5C652.734 57.7589 652.951 57.9688 653.219 57.9688Z" stroke="#B4B4B4" stroke-width="0.5" stroke-linecap="round" stroke-linejoin="round"/>
<path d="M656.609 57.9688C656.877 57.9688 657.094 57.7589 657.094 57.5C657.094 57.2411 656.877 57.0312 656.609 57.0312C656.342 57.0312 656.125 57.2411 656.125 57.5C656.125 57.7589 656.342 57.9688 656.609 57.9688Z" stroke="#B4B4B4" stroke-width="0.5" stroke-linecap="round" stroke-linejoin="round"/>
<path d="M649.828 57.9688C650.095 57.9688 650.312 57.7589 650.312 57.5C650.312 57.2411 650.095 57.0312 649.828 57.0312C649.56 57.0312 649.344 57.2411 649.344 57.5C649.344 57.7589 649.56 57.9688 649.828 57.9688Z" stroke="#B4B4B4" stroke-width="0.5" stroke-linecap="round" stroke-linejoin="round"/>
<path d="M662.5 156.5H643.5C640.186 156.5 637.5 159.186 637.5 162.5V181.5C637.5 184.814 640.186 187.5 643.5 187.5H662.5C665.814 187.5 668.5 184.814 668.5 181.5V162.5C668.5 159.186 665.814 156.5 662.5 156.5Z" fill="#1C1C1C" stroke="#292929" stroke-width="0.5"/>
<path d="M641.625 165.375C641.625 162.752 643.752 160.625 646.375 160.625H659.625C662.248 160.625 664.375 162.752 664.375 165.375V178.625C664.375 181.248 662.248 183.375 659.625 183.375H646.375C643.752 183.375 641.625 181.248 641.625 178.625V165.375Z" fill="#232323" stroke="#262626" stroke-width="0.5"/>
<path d="M652.876 209.968C653.143 209.968 653.36 209.752 653.36 209.484C653.36 209.216 653.143 209 652.876 209C652.608 209 652.391 209.216 652.391 209.484C652.391 209.752 652.608 209.968 652.876 209.968Z" stroke="#B4B4B4" stroke-width="0.5" stroke-linecap="round" stroke-linejoin="round"/>
<path d="M656.265 209.968C656.533 209.968 656.75 209.752 656.75 209.484C656.75 209.216 656.533 209 656.265 209C655.998 209 655.781 209.216 655.781 209.484C655.781 209.752 655.998 209.968 656.265 209.968Z" stroke="#B4B4B4" stroke-width="0.5" stroke-linecap="round" stroke-linejoin="round"/>
<path d="M649.484 209.968C649.751 209.968 649.968 209.752 649.968 209.484C649.968 209.216 649.751 209 649.484 209C649.216 209 649 209.216 649 209.484C649 209.752 649.216 209.968 649.484 209.968Z" stroke="#B4B4B4" stroke-width="0.5" stroke-linecap="round" stroke-linejoin="round"/>
<path d="M662.5 194.5H643.5C640.186 194.5 637.5 197.186 637.5 200.5V219.5C637.5 222.814 640.186 225.5 643.5 225.5H662.5C665.814 225.5 668.5 222.814 668.5 219.5V200.5C668.5 197.186 665.814 194.5 662.5 194.5Z" fill="#1C1C1C" stroke="#292929" stroke-width="0.5"/>
<path d="M641.625 203.375C641.625 200.752 643.752 198.625 646.375 198.625H659.625C662.248 198.625 664.375 200.752 664.375 203.375V216.625C664.375 219.248 662.248 221.375 659.625 221.375H646.375C643.752 221.375 641.625 219.248 641.625 216.625V203.375Z" fill="#232323" stroke="#262626" stroke-width="0.5"/>
<path d="M623.5 42.5H605.5C602.186 42.5 599.5 45.1863 599.5 48.5V66.5C599.5 69.8137 602.186 72.5 605.5 72.5H623.5C626.814 72.5 629.5 69.8137 629.5 66.5V48.5C629.5 45.1863 626.814 42.5 623.5 42.5Z" fill="#1C1C1C" stroke="#292929" stroke-width="0.5"/>
<path d="M603.5 51.25C603.5 48.6266 605.627 46.5 608.25 46.5H620.75C623.373 46.5 625.5 48.6266 625.5 51.25V63.75C625.5 66.3734 623.373 68.5 620.75 68.5H608.25C605.627 68.5 603.5 66.3734 603.5 63.75V51.25Z" fill="#232323" stroke="#262626" stroke-width="0.5"/>
<path d="M614.711 57.9688C614.97 57.9688 615.18 57.7589 615.18 57.5C615.18 57.2411 614.97 57.0312 614.711 57.0312C614.453 57.0312 614.243 57.2411 614.243 57.5C614.243 57.7589 614.453 57.9688 614.711 57.9688Z" stroke="#B4B4B4" stroke-width="0.5" stroke-linecap="round" stroke-linejoin="round"/>
<path d="M617.993 57.9688C618.252 57.9688 618.461 57.7589 618.461 57.5C618.461 57.2411 618.252 57.0312 617.993 57.0312C617.734 57.0312 617.524 57.2411 617.524 57.5C617.524 57.7589 617.734 57.9688 617.993 57.9688Z" stroke="#B4B4B4" stroke-width="0.5" stroke-linecap="round" stroke-linejoin="round"/>
<path d="M611.43 57.9688C611.689 57.9688 611.899 57.7589 611.899 57.5C611.899 57.2411 611.689 57.0312 611.43 57.0312C611.171 57.0312 610.961 57.2411 610.961 57.5C610.961 57.7589 611.171 57.9688 611.43 57.9688Z" stroke="#B4B4B4" stroke-width="0.5" stroke-linecap="round" stroke-linejoin="round"/>
<path d="M623.5 156.5H605.5C602.186 156.5 599.5 159.186 599.5 162.5V181.5C599.5 184.814 602.186 187.5 605.5 187.5H623.5C626.814 187.5 629.5 184.814 629.5 181.5V162.5C629.5 159.186 626.814 156.5 623.5 156.5Z" fill="#1C1C1C" stroke="#292929" stroke-width="0.5"/>
<path d="M603.5 165.375C603.5 162.752 605.627 160.625 608.25 160.625H620.75C623.373 160.625 625.5 162.752 625.5 165.375V178.625C625.5 181.248 623.373 183.375 620.75 183.375H608.25C605.627 183.375 603.5 181.248 603.5 178.625V165.375Z" fill="#232323" stroke="#262626" stroke-width="0.5"/>
<path d="M623.5 194.5H605.5C602.186 194.5 599.5 197.186 599.5 200.5V219.5C599.5 222.814 602.186 225.5 605.5 225.5H623.5C626.814 225.5 629.5 222.814 629.5 219.5V200.5C629.5 197.186 626.814 194.5 623.5 194.5Z" fill="#1C1C1C" stroke="#292929" stroke-width="0.5"/>
<path d="M603.5 203.375C603.5 200.752 605.627 198.625 608.25 198.625H620.75C623.373 198.625 625.5 200.752 625.5 203.375V216.625C625.5 219.248 623.373 221.375 620.75 221.375H608.25C605.627 221.375 603.5 219.248 603.5 216.625V203.375Z" fill="#232323" stroke="#262626" stroke-width="0.5"/>
<path d="M652.876 209.968C653.143 209.968 653.36 209.752 653.36 209.484C653.36 209.216 653.143 209 652.876 209C652.608 209 652.391 209.216 652.391 209.484C652.391 209.752 652.608 209.968 652.876 209.968Z" stroke="#B4B4B4" stroke-width="0.5" stroke-linecap="round" stroke-linejoin="round"/>
<path d="M656.265 209.968C656.533 209.968 656.75 209.752 656.75 209.484C656.75 209.216 656.533 209 656.265 209C655.998 209 655.781 209.216 655.781 209.484C655.781 209.752 655.998 209.968 656.265 209.968Z" stroke="#B4B4B4" stroke-width="0.5" stroke-linecap="round" stroke-linejoin="round"/>
<path d="M649.484 209.968C649.751 209.968 649.968 209.752 649.968 209.484C649.968 209.216 649.751 209 649.484 209C649.216 209 649 209.216 649 209.484C649 209.752 649.216 209.968 649.484 209.968Z" stroke="#B4B4B4" stroke-width="0.5" stroke-linecap="round" stroke-linejoin="round"/>
<path d="M652.876 172.968C653.143 172.968 653.36 172.752 653.36 172.484C653.36 172.216 653.143 172 652.876 172C652.608 172 652.391 172.216 652.391 172.484C652.391 172.752 652.608 172.968 652.876 172.968Z" stroke="#B4B4B4" stroke-width="0.5" stroke-linecap="round" stroke-linejoin="round"/>
<path d="M656.265 172.968C656.533 172.968 656.75 172.752 656.75 172.484C656.75 172.216 656.533 172 656.265 172C655.998 172 655.781 172.216 655.781 172.484C655.781 172.752 655.998 172.968 656.265 172.968Z" stroke="#B4B4B4" stroke-width="0.5" stroke-linecap="round" stroke-linejoin="round"/>
<path d="M649.484 172.968C649.751 172.968 649.968 172.752 649.968 172.484C649.968 172.216 649.751 172 649.484 172C649.216 172 649 172.216 649 172.484C649 172.752 649.216 172.968 649.484 172.968Z" stroke="#B4B4B4" stroke-width="0.5" stroke-linecap="round" stroke-linejoin="round"/>
<path d="M614.876 209.968C615.143 209.968 615.36 209.752 615.36 209.484C615.36 209.216 615.143 209 614.876 209C614.608 209 614.391 209.216 614.391 209.484C614.391 209.752 614.608 209.968 614.876 209.968Z" stroke="#B4B4B4" stroke-width="0.5" stroke-linecap="round" stroke-linejoin="round"/>
<path d="M618.265 209.968C618.533 209.968 618.75 209.752 618.75 209.484C618.75 209.216 618.533 209 618.265 209C617.998 209 617.781 209.216 617.781 209.484C617.781 209.752 617.998 209.968 618.265 209.968Z" stroke="#B4B4B4" stroke-width="0.5" stroke-linecap="round" stroke-linejoin="round"/>
<path d="M611.484 209.968C611.751 209.968 611.968 209.752 611.968 209.484C611.968 209.216 611.751 209 611.484 209C611.216 209 611 209.216 611 209.484C611 209.752 611.216 209.968 611.484 209.968Z" stroke="#B4B4B4" stroke-width="0.5" stroke-linecap="round" stroke-linejoin="round"/>
<path d="M614.876 172.968C615.143 172.968 615.36 172.752 615.36 172.484C615.36 172.216 615.143 172 614.876 172C614.608 172 614.391 172.216 614.391 172.484C614.391 172.752 614.608 172.968 614.876 172.968Z" stroke="#B4B4B4" stroke-width="0.5" stroke-linecap="round" stroke-linejoin="round"/>
<path d="M618.265 172.968C618.533 172.968 618.75 172.752 618.75 172.484C618.75 172.216 618.533 172 618.265 172C617.998 172 617.781 172.216 617.781 172.484C617.781 172.752 617.998 172.968 618.265 172.968Z" stroke="#B4B4B4" stroke-width="0.5" stroke-linecap="round" stroke-linejoin="round"/>
<path d="M611.484 172.968C611.751 172.968 611.968 172.752 611.968 172.484C611.968 172.216 611.751 172 611.484 172C611.216 172 611 172.216 611 172.484C611 172.752 611.216 172.968 611.484 172.968Z" stroke="#B4B4B4" stroke-width="0.5" stroke-linecap="round" stroke-linejoin="round"/>
<path d="M764 10H275V227H764V10Z" fill="url(#paint0_linear_642_3727)"/>
</g>
</g>
<defs>
<linearGradient id="paint0_linear_642_3727" x1="721" y1="59" x2="636.132" y2="250.058" gradientUnits="userSpaceOnUse">
<stop stop-color="#232323" stop-opacity="0"/>
<stop offset="1" stop-color="#232323"/>
</linearGradient>
<clipPath id="clip0_642_3727">
<rect width="750" height="227" fill="white"/>
</clipPath>
</defs>
</svg>
