<svg width="445" height="208" viewBox="0 0 445 208" fill="none" xmlns="http://www.w3.org/2000/svg">
<g clip-path="url(#clip0_642_3505)">
<path d="M736 -19H-14V208H736V-19Z" fill="#232323"/>
<path d="M329.741 72.5034H312.838C309.89 72.5034 307.5 74.8933 307.5 77.8413V93.8551C307.5 96.8032 309.89 99.193 312.838 99.193H329.741C332.689 99.193 335.079 96.8032 335.079 93.8551V77.8413C335.079 74.8933 332.689 72.5034 329.741 72.5034Z" fill="#1E1E1E" stroke="#292929" stroke-width="0.5"/>
<path d="M311.17 80.2879C311.17 77.954 313.062 76.062 315.396 76.062H327.184C329.517 76.062 331.41 77.954 331.41 80.2879V91.4085C331.41 93.7425 329.517 95.6344 327.184 95.6344H315.396C313.062 95.6344 311.17 93.7425 311.17 91.4085V80.2879Z" fill="#232323" stroke="#4D4D4D" stroke-width="0.5"/>
<path d="M321.484 86.2653C321.722 86.2653 321.915 86.0786 321.915 85.8482C321.915 85.6179 321.722 85.4312 321.484 85.4312C321.246 85.4312 321.053 85.6179 321.053 85.8482C321.053 86.0786 321.246 86.2653 321.484 86.2653Z" stroke="#B4B4B4" stroke-width="0.5" stroke-linecap="round" stroke-linejoin="round"/>
<path d="M324.5 86.2653C324.738 86.2653 324.931 86.0786 324.931 85.8482C324.931 85.6179 324.738 85.4312 324.5 85.4312C324.262 85.4312 324.069 85.6179 324.069 85.8482C324.069 86.0786 324.262 86.2653 324.5 86.2653Z" stroke="#B4B4B4" stroke-width="0.5" stroke-linecap="round" stroke-linejoin="round"/>
<path d="M318.468 86.2653C318.705 86.2653 318.898 86.0786 318.898 85.8482C318.898 85.6179 318.705 85.4312 318.468 85.4312C318.229 85.4312 318.037 85.6179 318.037 85.8482C318.037 86.0786 318.229 86.2653 318.468 86.2653Z" stroke="#B4B4B4" stroke-width="0.5" stroke-linecap="round" stroke-linejoin="round"/>
<path d="M295.044 72.5034H279.03C276.082 72.5034 273.692 74.8933 273.692 77.8413V93.8551C273.692 96.8032 276.082 99.193 279.03 99.193H295.044C297.992 99.193 300.382 96.8032 300.382 93.8551V77.8413C300.382 74.8933 297.992 72.5034 295.044 72.5034Z" fill="#1E1E1E" stroke="#292929" stroke-width="0.5"/>
<path d="M277.251 80.2879C277.251 77.954 279.143 76.062 281.477 76.062H292.598C294.931 76.062 296.823 77.954 296.823 80.2879V91.4085C296.823 93.7425 294.931 95.6344 292.598 95.6344H281.477C279.143 95.6344 277.251 93.7425 277.251 91.4085V80.2879Z" fill="#232323" stroke="#4D4D4D" stroke-width="0.5"/>
<path d="M287.225 86.2653C287.455 86.2653 287.642 86.0786 287.642 85.8482C287.642 85.6179 287.455 85.4312 287.225 85.4312C286.995 85.4312 286.809 85.6179 286.809 85.8482C286.809 86.0786 286.995 86.2653 287.225 86.2653Z" stroke="#B4B4B4" stroke-width="0.5" stroke-linecap="round" stroke-linejoin="round"/>
<path d="M290.145 86.2653C290.375 86.2653 290.561 86.0786 290.561 85.8482C290.561 85.6179 290.375 85.4312 290.145 85.4312C289.914 85.4312 289.728 85.6179 289.728 85.8482C289.728 86.0786 289.914 86.2653 290.145 86.2653Z" stroke="#B4B4B4" stroke-width="0.5" stroke-linecap="round" stroke-linejoin="round"/>
<path d="M284.307 86.2653C284.537 86.2653 284.724 86.0786 284.724 85.8482C284.724 85.6179 284.537 85.4312 284.307 85.4312C284.076 85.4312 283.89 85.6179 283.89 85.8482C283.89 86.0786 284.076 86.2653 284.307 86.2653Z" stroke="#B4B4B4" stroke-width="0.5" stroke-linecap="round" stroke-linejoin="round"/>
<path d="M261.237 72.5034H245.224C242.276 72.5034 239.886 74.8933 239.886 77.8413V93.8551C239.886 96.8032 242.276 99.193 245.224 99.193H261.237C264.185 99.193 266.575 96.8032 266.575 93.8551V77.8413C266.575 74.8933 264.185 72.5034 261.237 72.5034Z" fill="#1E1E1E" stroke="#292929" stroke-width="0.5"/>
<path d="M243.444 80.2879C243.444 77.954 245.337 76.062 247.67 76.062H258.791C261.124 76.062 263.017 77.954 263.017 80.2879V91.4085C263.017 93.7425 261.124 95.6344 258.791 95.6344H247.67C245.337 95.6344 243.444 93.7425 243.444 91.4085V80.2879Z" fill="#232323" stroke="#4D4D4D" stroke-width="0.5"/>
<path d="M253.418 86.2653C253.649 86.2653 253.836 86.0786 253.836 85.8482C253.836 85.6179 253.649 85.4312 253.418 85.4312C253.189 85.4312 253.002 85.6179 253.002 85.8482C253.002 86.0786 253.189 86.2653 253.418 86.2653Z" stroke="#B4B4B4" stroke-width="0.5" stroke-linecap="round" stroke-linejoin="round"/>
<path d="M256.339 86.2653C256.57 86.2653 256.755 86.0786 256.755 85.8482C256.755 85.6179 256.57 85.4312 256.339 85.4312C256.109 85.4312 255.922 85.6179 255.922 85.8482C255.922 86.0786 256.109 86.2653 256.339 86.2653Z" stroke="#B4B4B4" stroke-width="0.5" stroke-linecap="round" stroke-linejoin="round"/>
<path d="M250.499 86.2653C250.73 86.2653 250.917 86.0786 250.917 85.8482C250.917 85.6179 250.73 85.4312 250.499 85.4312C250.269 85.4312 250.082 85.6179 250.082 85.8482C250.082 86.0786 250.269 86.2653 250.499 86.2653Z" stroke="#B4B4B4" stroke-width="0.5" stroke-linecap="round" stroke-linejoin="round"/>
<path d="M228.32 72.5034H211.417C208.469 72.5034 206.079 74.8933 206.079 77.8413V93.8551C206.079 96.8032 208.469 99.193 211.417 99.193H228.32C231.269 99.193 233.658 96.8032 233.658 93.8551V77.8413C233.658 74.8933 231.269 72.5034 228.32 72.5034Z" fill="#1E1E1E" stroke="#292929" stroke-width="0.5"/>
<path d="M209.749 80.2879C209.749 77.954 211.641 76.062 213.975 76.062H225.763C228.096 76.062 229.989 77.954 229.989 80.2879V91.4085C229.989 93.7425 228.096 95.6344 225.763 95.6344H213.975C211.641 95.6344 209.749 93.7425 209.749 91.4085V80.2879Z" fill="#232323" stroke="#4D4D4D" stroke-width="0.5"/>
<path d="M220.064 86.2653C220.302 86.2653 220.495 86.0786 220.495 85.8482C220.495 85.6179 220.302 85.4312 220.064 85.4312C219.826 85.4312 219.633 85.6179 219.633 85.8482C219.633 86.0786 219.826 86.2653 220.064 86.2653Z" stroke="#B4B4B4" stroke-width="0.5" stroke-linecap="round" stroke-linejoin="round"/>
<path d="M223.08 86.2653C223.318 86.2653 223.511 86.0786 223.511 85.8482C223.511 85.6179 223.318 85.4312 223.08 85.4312C222.842 85.4312 222.649 85.6179 222.649 85.8482C222.649 86.0786 222.842 86.2653 223.08 86.2653Z" stroke="#B4B4B4" stroke-width="0.5" stroke-linecap="round" stroke-linejoin="round"/>
<path d="M217.047 86.2653C217.284 86.2653 217.477 86.0786 217.477 85.8482C217.477 85.6179 217.284 85.4312 217.047 85.4312C216.808 85.4312 216.616 85.6179 216.616 85.8482C216.616 86.0786 216.808 86.2653 217.047 86.2653Z" stroke="#B4B4B4" stroke-width="0.5" stroke-linecap="round" stroke-linejoin="round"/>
<path d="M228.32 38.6965H211.417C208.469 38.6965 206.079 41.0864 206.079 44.0345V60.0482C206.079 62.9963 208.469 65.3862 211.417 65.3862H228.32C231.269 65.3862 233.658 62.9963 233.658 60.0482V44.0345C233.658 41.0864 231.269 38.6965 228.32 38.6965Z" fill="#1E1E1E" stroke="#292929" stroke-width="0.5"/>
<path d="M209.749 46.481C209.749 44.1471 211.641 42.2551 213.975 42.2551H225.763C228.096 42.2551 229.989 44.1471 229.989 46.481V57.6017C229.989 59.9356 228.096 61.8275 225.763 61.8275H213.975C211.641 61.8275 209.749 59.9356 209.749 57.6017V46.481Z" fill="#232323" stroke="#4D4D4D" stroke-width="0.5"/>
<path d="M220.064 52.4584C220.302 52.4584 220.495 52.2717 220.495 52.0413C220.495 51.811 220.302 51.6243 220.064 51.6243C219.826 51.6243 219.633 51.811 219.633 52.0413C219.633 52.2717 219.826 52.4584 220.064 52.4584Z" stroke="#B4B4B4" stroke-width="0.5" stroke-linecap="round" stroke-linejoin="round"/>
<path d="M223.08 52.4584C223.318 52.4584 223.511 52.2717 223.511 52.0413C223.511 51.811 223.318 51.6243 223.08 51.6243C222.842 51.6243 222.649 51.811 222.649 52.0413C222.649 52.2717 222.842 52.4584 223.08 52.4584Z" stroke="#B4B4B4" stroke-width="0.5" stroke-linecap="round" stroke-linejoin="round"/>
<path d="M217.047 52.4584C217.284 52.4584 217.477 52.2717 217.477 52.0413C217.477 51.811 217.284 51.6243 217.047 51.6243C216.808 51.6243 216.616 51.811 216.616 52.0413C216.616 52.2717 216.808 52.4584 217.047 52.4584Z" stroke="#B4B4B4" stroke-width="0.5" stroke-linecap="round" stroke-linejoin="round"/>
<path d="M194.514 72.5034H178.5C175.552 72.5034 173.162 74.8933 173.162 77.8413V93.8551C173.162 96.8032 175.552 99.193 178.5 99.193H194.514C197.462 99.193 199.852 96.8032 199.852 93.8551V77.8413C199.852 74.8933 197.462 72.5034 194.514 72.5034Z" fill="#1E1E1E" stroke="#292929" stroke-width="0.5"/>
<path d="M176.721 80.2879C176.721 77.954 178.613 76.062 180.947 76.062H192.067C194.401 76.062 196.293 77.954 196.293 80.2879V91.4085C196.293 93.7425 194.401 95.6344 192.067 95.6344H180.947C178.613 95.6344 176.721 93.7425 176.721 91.4085V80.2879Z" fill="#232323" stroke="#4D4D4D" stroke-width="0.5"/>
<path d="M186.695 86.2653C186.925 86.2653 187.112 86.0786 187.112 85.8482C187.112 85.6179 186.925 85.4312 186.695 85.4312C186.465 85.4312 186.278 85.6179 186.278 85.8482C186.278 86.0786 186.465 86.2653 186.695 86.2653Z" stroke="#B4B4B4" stroke-width="0.5" stroke-linecap="round" stroke-linejoin="round"/>
<path d="M189.615 86.2653C189.845 86.2653 190.031 86.0786 190.031 85.8482C190.031 85.6179 189.845 85.4312 189.615 85.4312C189.384 85.4312 189.197 85.6179 189.197 85.8482C189.197 86.0786 189.384 86.2653 189.615 86.2653Z" stroke="#B4B4B4" stroke-width="0.5" stroke-linecap="round" stroke-linejoin="round"/>
<path d="M183.775 86.2653C184.005 86.2653 184.192 86.0786 184.192 85.8482C184.192 85.6179 184.005 85.4312 183.775 85.4312C183.544 85.4312 183.357 85.6179 183.357 85.8482C183.357 86.0786 183.544 86.2653 183.775 86.2653Z" stroke="#B4B4B4" stroke-width="0.5" stroke-linecap="round" stroke-linejoin="round"/>
<path d="M194.514 106.31H178.5C175.552 106.31 173.162 108.7 173.162 111.648V128.552C173.162 131.5 175.552 133.89 178.5 133.89H194.514C197.462 133.89 199.852 131.5 199.852 128.552V111.648C199.852 108.7 197.462 106.31 194.514 106.31Z" fill="#1E1E1E" stroke="#292929" stroke-width="0.5"/>
<path d="M176.721 114.206C176.721 111.872 178.613 109.98 180.947 109.98H192.067C194.401 109.98 196.293 111.872 196.293 114.206V125.994C196.293 128.327 194.401 130.22 192.067 130.22H180.947C178.613 130.22 176.721 128.327 176.721 125.994V114.206Z" fill="#232323" stroke="#4D4D4D" stroke-width="0.5"/>
<path d="M186.695 120.53C186.925 120.53 187.112 120.338 187.112 120.1C187.112 119.861 186.925 119.669 186.695 119.669C186.465 119.669 186.278 119.861 186.278 120.1C186.278 120.338 186.465 120.53 186.695 120.53Z" stroke="#B4B4B4" stroke-width="0.5" stroke-linecap="round" stroke-linejoin="round"/>
<path d="M189.615 120.53C189.845 120.53 190.031 120.338 190.031 120.1C190.031 119.861 189.845 119.669 189.615 119.669C189.384 119.669 189.197 119.861 189.197 120.1C189.197 120.338 189.384 120.53 189.615 120.53Z" stroke="#B4B4B4" stroke-width="0.5" stroke-linecap="round" stroke-linejoin="round"/>
<path d="M183.775 120.53C184.005 120.53 184.192 120.338 184.192 120.1C184.192 119.861 184.005 119.669 183.775 119.669C183.544 119.669 183.357 119.861 183.357 120.1C183.357 120.338 183.544 120.53 183.775 120.53Z" stroke="#B4B4B4" stroke-width="0.5" stroke-linecap="round" stroke-linejoin="round"/>
<path d="M160.707 72.5034H143.804C140.856 72.5034 138.466 74.8933 138.466 77.8413V93.8551C138.466 96.8032 140.856 99.193 143.804 99.193H160.707C163.655 99.193 166.045 96.8032 166.045 93.8551V77.8413C166.045 74.8933 163.655 72.5034 160.707 72.5034Z" fill="#1E1E1E" stroke="#292929" stroke-width="0.5"/>
<path d="M142.136 80.2879C142.136 77.954 144.028 76.062 146.362 76.062H158.15C160.483 76.062 162.375 77.954 162.375 80.2879V91.4085C162.375 93.7425 160.483 95.6344 158.15 95.6344H146.362C144.028 95.6344 142.136 93.7425 142.136 91.4085V80.2879Z" fill="#232323" stroke="#4D4D4D" stroke-width="0.5"/>
<path d="M152.45 86.2653C152.688 86.2653 152.881 86.0786 152.881 85.8482C152.881 85.6179 152.688 85.4312 152.45 85.4312C152.212 85.4312 152.019 85.6179 152.019 85.8482C152.019 86.0786 152.212 86.2653 152.45 86.2653Z" stroke="#B4B4B4" stroke-width="0.5" stroke-linecap="round" stroke-linejoin="round"/>
<path d="M155.466 86.2653C155.704 86.2653 155.897 86.0786 155.897 85.8482C155.897 85.6179 155.704 85.4312 155.466 85.4312C155.228 85.4312 155.035 85.6179 155.035 85.8482C155.035 86.0786 155.228 86.2653 155.466 86.2653Z" stroke="#B4B4B4" stroke-width="0.5" stroke-linecap="round" stroke-linejoin="round"/>
<path d="M149.434 86.2653C149.671 86.2653 149.864 86.0786 149.864 85.8482C149.864 85.6179 149.671 85.4312 149.434 85.4312C149.195 85.4312 149.003 85.6179 149.003 85.8482C149.003 86.0786 149.195 86.2653 149.434 86.2653Z" stroke="#B4B4B4" stroke-width="0.5" stroke-linecap="round" stroke-linejoin="round"/>
<path d="M160.707 38.6965H143.804C140.856 38.6965 138.466 41.0864 138.466 44.0345V60.0482C138.466 62.9963 140.856 65.3862 143.804 65.3862H160.707C163.655 65.3862 166.045 62.9963 166.045 60.0482V44.0345C166.045 41.0864 163.655 38.6965 160.707 38.6965Z" fill="#1E1E1E" stroke="#292929" stroke-width="0.5"/>
<path d="M142.136 46.481C142.136 44.1471 144.028 42.2551 146.362 42.2551H158.15C160.483 42.2551 162.375 44.1471 162.375 46.481V57.6017C162.375 59.9356 160.483 61.8275 158.15 61.8275H146.362C144.028 61.8275 142.136 59.9356 142.136 57.6017V46.481Z" fill="#232323" stroke="#4D4D4D" stroke-width="0.5"/>
<path d="M152.45 52.4584C152.688 52.4584 152.881 52.2717 152.881 52.0413C152.881 51.811 152.688 51.6243 152.45 51.6243C152.212 51.6243 152.019 51.811 152.019 52.0413C152.019 52.2717 152.212 52.4584 152.45 52.4584Z" stroke="#B4B4B4" stroke-width="0.5" stroke-linecap="round" stroke-linejoin="round"/>
<path d="M155.466 52.4584C155.704 52.4584 155.897 52.2717 155.897 52.0413C155.897 51.811 155.704 51.6243 155.466 51.6243C155.228 51.6243 155.035 51.811 155.035 52.0413C155.035 52.2717 155.228 52.4584 155.466 52.4584Z" stroke="#B4B4B4" stroke-width="0.5" stroke-linecap="round" stroke-linejoin="round"/>
<path d="M149.434 52.4584C149.671 52.4584 149.864 52.2717 149.864 52.0413C149.864 51.811 149.671 51.6243 149.434 51.6243C149.195 51.6243 149.003 51.811 149.003 52.0413C149.003 52.2717 149.195 52.4584 149.434 52.4584Z" stroke="#B4B4B4" stroke-width="0.5" stroke-linecap="round" stroke-linejoin="round"/>
<path d="M126.01 38.6965H109.996C107.048 38.6965 104.658 41.0864 104.658 44.0345V60.0482C104.658 62.9963 107.048 65.3862 109.996 65.3862H126.01C128.958 65.3862 131.348 62.9963 131.348 60.0482V44.0345C131.348 41.0864 128.958 38.6965 126.01 38.6965Z" fill="#1E1E1E" stroke="#292929" stroke-width="0.5"/>
<path d="M108.217 46.481C108.217 44.1471 110.109 42.2551 112.443 42.2551H123.563C125.897 42.2551 127.789 44.1471 127.789 46.481V57.6017C127.789 59.9356 125.897 61.8275 123.563 61.8275H112.443C110.109 61.8275 108.217 59.9356 108.217 57.6017V46.481Z" fill="#232323" stroke="#4D4D4D" stroke-width="0.5"/>
<path d="M118.191 52.4584C118.421 52.4584 118.608 52.2717 118.608 52.0413C118.608 51.811 118.421 51.6243 118.191 51.6243C117.961 51.6243 117.774 51.811 117.774 52.0413C117.774 52.2717 117.961 52.4584 118.191 52.4584Z" stroke="#B4B4B4" stroke-width="0.5" stroke-linecap="round" stroke-linejoin="round"/>
<path d="M121.111 52.4584C121.341 52.4584 121.527 52.2717 121.527 52.0413C121.527 51.811 121.341 51.6243 121.111 51.6243C120.88 51.6243 120.693 51.811 120.693 52.0413C120.693 52.2717 120.88 52.4584 121.111 52.4584Z" stroke="#B4B4B4" stroke-width="0.5" stroke-linecap="round" stroke-linejoin="round"/>
<path d="M115.272 52.4584C115.502 52.4584 115.689 52.2717 115.689 52.0413C115.689 51.811 115.502 51.6243 115.272 51.6243C115.041 51.6243 114.854 51.811 114.854 52.0413C114.854 52.2717 115.041 52.4584 115.272 52.4584Z" stroke="#B4B4B4" stroke-width="0.5" stroke-linecap="round" stroke-linejoin="round"/>
<path d="M431.161 72.5034H415.147C412.199 72.5034 409.81 74.8933 409.81 77.8413V93.8551C409.81 96.8032 412.199 99.193 415.147 99.193H431.161C434.109 99.193 436.499 96.8032 436.499 93.8551V77.8413C436.499 74.8933 434.109 72.5034 431.161 72.5034Z" fill="#1E1E1E" stroke="#292929" stroke-width="0.5"/>
<path d="M413.368 80.2879C413.368 77.954 415.26 76.062 417.594 76.062H428.715C431.048 76.062 432.941 77.954 432.941 80.2879V91.4085C432.941 93.7425 431.048 95.6344 428.715 95.6344H417.594C415.26 95.6344 413.368 93.7425 413.368 91.4085V80.2879Z" fill="#232323" stroke="#4D4D4D" stroke-width="0.5"/>
<path d="M420.423 86.2653C420.654 86.2653 420.84 86.0786 420.84 85.8482C420.84 85.6179 420.654 85.4312 420.423 85.4312C420.193 85.4312 420.006 85.6179 420.006 85.8482C420.006 86.0786 420.193 86.2653 420.423 86.2653Z" stroke="#B4B4B4" stroke-width="0.5" stroke-linecap="round" stroke-linejoin="round"/>
<path d="M363.548 72.5034H346.645C343.697 72.5034 341.307 74.8933 341.307 77.8413V93.8551C341.307 96.8032 343.697 99.193 346.645 99.193H363.548C366.496 99.193 368.886 96.8032 368.886 93.8551V77.8413C368.886 74.8933 366.496 72.5034 363.548 72.5034Z" fill="#1E1E1E" stroke="#292929" stroke-width="0.5"/>
<path d="M344.977 80.2879C344.977 77.954 346.869 76.062 349.202 76.062H360.99C363.324 76.062 365.216 77.954 365.216 80.2879V91.4085C365.216 93.7425 363.324 95.6344 360.99 95.6344H349.202C346.869 95.6344 344.977 93.7425 344.977 91.4085V80.2879Z" fill="#232323" stroke="#4D4D4D" stroke-width="0.5"/>
<path d="M355.291 86.2653C355.528 86.2653 355.721 86.0786 355.721 85.8482C355.721 85.6179 355.528 85.4312 355.291 85.4312C355.052 85.4312 354.859 85.6179 354.859 85.8482C354.859 86.0786 355.052 86.2653 355.291 86.2653Z" stroke="#B4B4B4" stroke-width="0.5" stroke-linecap="round" stroke-linejoin="round"/>
<path d="M358.308 86.2653C358.546 86.2653 358.739 86.0786 358.739 85.8482C358.739 85.6179 358.546 85.4312 358.308 85.4312C358.07 85.4312 357.877 85.6179 357.877 85.8482C357.877 86.0786 358.07 86.2653 358.308 86.2653Z" stroke="#B4B4B4" stroke-width="0.5" stroke-linecap="round" stroke-linejoin="round"/>
<path d="M352.274 86.2653C352.512 86.2653 352.705 86.0786 352.705 85.8482C352.705 85.6179 352.512 85.4312 352.274 85.4312C352.036 85.4312 351.844 85.6179 351.844 85.8482C351.844 86.0786 352.036 86.2653 352.274 86.2653Z" stroke="#B4B4B4" stroke-width="0.5" stroke-linecap="round" stroke-linejoin="round"/>
<path d="M363.548 4H346.645C343.697 4 341.307 6.38987 341.307 9.33793V26.2414C341.307 29.1894 343.697 31.5793 346.645 31.5793H363.548C366.496 31.5793 368.886 29.1894 368.886 26.2414V9.33793C368.886 6.38987 366.496 4 363.548 4Z" fill="#1E1E1E" stroke="#292929" stroke-width="0.5"/>
<path d="M344.977 11.8957C344.977 9.56178 346.869 7.6698 349.202 7.6698H360.99C363.324 7.6698 365.216 9.56178 365.216 11.8957V23.6836C365.216 26.0175 363.324 27.9094 360.99 27.9094H349.202C346.869 27.9094 344.977 26.0175 344.977 23.6836V11.8957Z" fill="#232323" stroke="#4D4D4D" stroke-width="0.5"/>
<path d="M355.291 18.2206C355.528 18.2206 355.721 18.0276 355.721 17.7896C355.721 17.5516 355.528 17.3587 355.291 17.3587C355.052 17.3587 354.859 17.5516 354.859 17.7896C354.859 18.0276 355.052 18.2206 355.291 18.2206Z" stroke="#B4B4B4" stroke-width="0.5" stroke-linecap="round" stroke-linejoin="round"/>
<path d="M358.308 18.2206C358.546 18.2206 358.739 18.0276 358.739 17.7896C358.739 17.5516 358.546 17.3587 358.308 17.3587C358.07 17.3587 357.877 17.5516 357.877 17.7896C357.877 18.0276 358.07 18.2206 358.308 18.2206Z" stroke="#B4B4B4" stroke-width="0.5" stroke-linecap="round" stroke-linejoin="round"/>
<path d="M352.274 18.2206C352.512 18.2206 352.705 18.0276 352.705 17.7896C352.705 17.5516 352.512 17.3587 352.274 17.3587C352.036 17.3587 351.844 17.5516 351.844 17.7896C351.844 18.0276 352.036 18.2206 352.274 18.2206Z" stroke="#B4B4B4" stroke-width="0.5" stroke-linecap="round" stroke-linejoin="round"/>
<path d="M363.548 106.31H346.645C343.697 106.31 341.307 108.7 341.307 111.648V128.552C341.307 131.5 343.697 133.89 346.645 133.89H363.548C366.496 133.89 368.886 131.5 368.886 128.552V111.648C368.886 108.7 366.496 106.31 363.548 106.31Z" fill="#1E1E1E" stroke="#292929" stroke-width="0.5"/>
<path d="M344.977 114.206C344.977 111.872 346.869 109.98 349.202 109.98H360.99C363.324 109.98 365.216 111.872 365.216 114.206V125.994C365.216 128.327 363.324 130.22 360.99 130.22H349.202C346.869 130.22 344.977 128.327 344.977 125.994V114.206Z" fill="#232323" stroke="#4D4D4D" stroke-width="0.5"/>
<path d="M355.291 120.53C355.528 120.53 355.721 120.338 355.721 120.1C355.721 119.861 355.528 119.669 355.291 119.669C355.052 119.669 354.859 119.861 354.859 120.1C354.859 120.338 355.052 120.53 355.291 120.53Z" stroke="#B4B4B4" stroke-width="0.5" stroke-linecap="round" stroke-linejoin="round"/>
<path d="M358.308 120.53C358.546 120.53 358.739 120.338 358.739 120.1C358.739 119.861 358.546 119.669 358.308 119.669C358.07 119.669 357.877 119.861 357.877 120.1C357.877 120.338 358.07 120.53 358.308 120.53Z" stroke="#B4B4B4" stroke-width="0.5" stroke-linecap="round" stroke-linejoin="round"/>
<path d="M352.274 120.53C352.512 120.53 352.705 120.338 352.705 120.1C352.705 119.861 352.512 119.669 352.274 119.669C352.036 119.669 351.844 119.861 351.844 120.1C351.844 120.338 352.036 120.53 352.274 120.53Z" stroke="#B4B4B4" stroke-width="0.5" stroke-linecap="round" stroke-linejoin="round"/>
<path d="M363.548 38.6965H346.645C343.697 38.6965 341.307 41.0864 341.307 44.0345V60.0482C341.307 62.9963 343.697 65.3862 346.645 65.3862H363.548C366.496 65.3862 368.886 62.9963 368.886 60.0482V44.0345C368.886 41.0864 366.496 38.6965 363.548 38.6965Z" fill="#1E1E1E" stroke="#292929" stroke-width="0.5"/>
<path d="M344.977 46.481C344.977 44.1471 346.869 42.2551 349.202 42.2551H360.99C363.324 42.2551 365.216 44.1471 365.216 46.481V57.6017C365.216 59.9356 363.324 61.8275 360.99 61.8275H349.202C346.869 61.8275 344.977 59.9356 344.977 57.6017V46.481Z" fill="#232323" stroke="#4D4D4D" stroke-width="0.5"/>
<path d="M355.291 52.4584C355.528 52.4584 355.721 52.2717 355.721 52.0413C355.721 51.811 355.528 51.6243 355.291 51.6243C355.052 51.6243 354.859 51.811 354.859 52.0413C354.859 52.2717 355.052 52.4584 355.291 52.4584Z" stroke="#B4B4B4" stroke-width="0.5" stroke-linecap="round" stroke-linejoin="round"/>
<path d="M358.308 52.4584C358.546 52.4584 358.739 52.2717 358.739 52.0413C358.739 51.811 358.546 51.6243 358.308 51.6243C358.07 51.6243 357.877 51.811 357.877 52.0413C357.877 52.2717 358.07 52.4584 358.308 52.4584Z" stroke="#B4B4B4" stroke-width="0.5" stroke-linecap="round" stroke-linejoin="round"/>
<path d="M352.274 52.4584C352.512 52.4584 352.705 52.2717 352.705 52.0413C352.705 51.811 352.512 51.6243 352.274 51.6243C352.036 51.6243 351.844 51.811 351.844 52.0413C351.844 52.2717 352.036 52.4584 352.274 52.4584Z" stroke="#B4B4B4" stroke-width="0.5" stroke-linecap="round" stroke-linejoin="round"/>
<path d="M363.548 140.117H346.645C343.697 140.117 341.307 142.507 341.307 145.455V162.358C341.307 165.307 343.697 167.696 346.645 167.696H363.548C366.496 167.696 368.886 165.307 368.886 162.358V145.455C368.886 142.507 366.496 140.117 363.548 140.117Z" fill="#1E1E1E" stroke="#292929" stroke-width="0.5"/>
<path d="M344.977 148.013C344.977 145.679 346.869 143.787 349.202 143.787H360.99C363.324 143.787 365.216 145.679 365.216 148.013V159.801C365.216 162.134 363.324 164.027 360.99 164.027H349.202C346.869 164.027 344.977 162.134 344.977 159.801V148.013Z" fill="#232323" stroke="#4D4D4D" stroke-width="0.5"/>
<path d="M354.986 154.768C355.224 154.768 355.417 154.576 355.417 154.337C355.417 154.099 355.224 153.907 354.986 153.907C354.748 153.907 354.555 154.099 354.555 154.337C354.555 154.576 354.748 154.768 354.986 154.768Z" stroke="#B4B4B4" stroke-width="0.5" stroke-linecap="round" stroke-linejoin="round"/>
<path d="M358.001 154.768C358.239 154.768 358.432 154.576 358.432 154.337C358.432 154.099 358.239 153.907 358.001 153.907C357.763 153.907 357.57 154.099 357.57 154.337C357.57 154.576 357.763 154.768 358.001 154.768Z" stroke="#B4B4B4" stroke-width="0.5" stroke-linecap="round" stroke-linejoin="round"/>
<path d="M351.969 154.768C352.206 154.768 352.399 154.576 352.399 154.337C352.399 154.099 352.206 153.907 351.969 153.907C351.73 153.907 351.538 154.099 351.538 154.337C351.538 154.576 351.73 154.768 351.969 154.768Z" stroke="#B4B4B4" stroke-width="0.5" stroke-linecap="round" stroke-linejoin="round"/>
<path d="M363.548 173.924H346.645C343.697 173.924 341.307 176.314 341.307 179.262V196.165C341.307 199.113 343.697 201.503 346.645 201.503H363.548C366.496 201.503 368.886 199.113 368.886 196.165V179.262C368.886 176.314 366.496 173.924 363.548 173.924Z" fill="#1E1E1E" stroke="#292929" stroke-width="0.5"/>
<path d="M344.977 181.82C344.977 179.486 346.869 177.594 349.202 177.594H360.99C363.324 177.594 365.216 179.486 365.216 181.82V193.608C365.216 195.941 363.324 197.833 360.99 197.833H349.202C346.869 197.833 344.977 195.941 344.977 193.608V181.82Z" fill="#232323" stroke="#4D4D4D" stroke-width="0.5"/>
<path d="M355.292 188.144C355.529 188.144 355.722 187.952 355.722 187.714C355.722 187.475 355.529 187.283 355.292 187.283C355.053 187.283 354.86 187.475 354.86 187.714C354.86 187.952 355.053 188.144 355.292 188.144Z" stroke="#B4B4B4" stroke-width="0.5" stroke-linecap="round" stroke-linejoin="round"/>
<path d="M358.308 188.144C358.546 188.144 358.739 187.952 358.739 187.714C358.739 187.475 358.546 187.283 358.308 187.283C358.07 187.283 357.877 187.475 357.877 187.714C357.877 187.952 358.07 188.144 358.308 188.144Z" stroke="#B4B4B4" stroke-width="0.5" stroke-linecap="round" stroke-linejoin="round"/>
<path d="M352.274 188.144C352.512 188.144 352.705 187.952 352.705 187.714C352.705 187.475 352.512 187.283 352.274 187.283C352.036 187.283 351.844 187.475 351.844 187.714C351.844 187.952 352.036 188.144 352.274 188.144Z" stroke="#B4B4B4" stroke-width="0.5" stroke-linecap="round" stroke-linejoin="round"/>
<path d="M397.355 38.6965H380.451C377.503 38.6965 375.113 41.0864 375.113 44.0345V60.0482C375.113 62.9963 377.503 65.3862 380.451 65.3862H397.355C400.303 65.3862 402.693 62.9963 402.693 60.0482V44.0345C402.693 41.0864 400.303 38.6965 397.355 38.6965Z" fill="#1E1E1E" stroke="#292929" stroke-width="0.5"/>
<path d="M378.783 46.481C378.783 44.1471 380.675 42.2551 383.009 42.2551H394.797C397.131 42.2551 399.023 44.1471 399.023 46.481V57.6017C399.023 59.9356 397.131 61.8275 394.797 61.8275H383.009C380.675 61.8275 378.783 59.9356 378.783 57.6017V46.481Z" fill="#232323" stroke="#4D4D4D" stroke-width="0.5"/>
<path d="M389.098 52.4584C389.336 52.4584 389.529 52.2717 389.529 52.0413C389.529 51.811 389.336 51.6243 389.098 51.6243C388.86 51.6243 388.667 51.811 388.667 52.0413C388.667 52.2717 388.86 52.4584 389.098 52.4584Z" stroke="#B4B4B4" stroke-width="0.5" stroke-linecap="round" stroke-linejoin="round"/>
<path d="M392.114 52.4584C392.353 52.4584 392.546 52.2717 392.546 52.0413C392.546 51.811 392.353 51.6243 392.114 51.6243C391.877 51.6243 391.684 51.811 391.684 52.0413C391.684 52.2717 391.877 52.4584 392.114 52.4584Z" stroke="#B4B4B4" stroke-width="0.5" stroke-linecap="round" stroke-linejoin="round"/>
<path d="M386.081 52.4584C386.319 52.4584 386.512 52.2717 386.512 52.0413C386.512 51.811 386.319 51.6243 386.081 51.6243C385.843 51.6243 385.65 51.811 385.65 52.0413C385.65 52.2717 385.843 52.4584 386.081 52.4584Z" stroke="#B4B4B4" stroke-width="0.5" stroke-linecap="round" stroke-linejoin="round"/>
<path d="M397.355 140.117H380.451C377.503 140.117 375.113 142.507 375.113 145.455V162.358C375.113 165.307 377.503 167.696 380.451 167.696H397.355C400.303 167.696 402.693 165.307 402.693 162.358V145.455C402.693 142.507 400.303 140.117 397.355 140.117Z" fill="#1E1E1E" stroke="#292929" stroke-width="0.5"/>
<path d="M378.783 148.013C378.783 145.679 380.675 143.787 383.009 143.787H394.797C397.131 143.787 399.023 145.679 399.023 148.013V159.801C399.023 162.134 397.131 164.027 394.797 164.027H383.009C380.675 164.027 378.783 162.134 378.783 159.801V148.013Z" fill="#232323" stroke="#4D4D4D" stroke-width="0.5"/>
<path d="M389.098 154.337C389.336 154.337 389.529 154.145 389.529 153.907C389.529 153.668 389.336 153.476 389.098 153.476C388.86 153.476 388.667 153.668 388.667 153.907C388.667 154.145 388.86 154.337 389.098 154.337Z" stroke="#B4B4B4" stroke-width="0.5" stroke-linecap="round" stroke-linejoin="round"/>
<path d="M392.114 154.337C392.353 154.337 392.546 154.145 392.546 153.907C392.546 153.668 392.353 153.476 392.114 153.476C391.877 153.476 391.684 153.668 391.684 153.907C391.684 154.145 391.877 154.337 392.114 154.337Z" stroke="#B4B4B4" stroke-width="0.5" stroke-linecap="round" stroke-linejoin="round"/>
<path d="M386.081 154.337C386.319 154.337 386.512 154.145 386.512 153.907C386.512 153.668 386.319 153.476 386.081 153.476C385.843 153.476 385.65 153.668 385.65 153.907C385.65 154.145 385.843 154.337 386.081 154.337Z" stroke="#B4B4B4" stroke-width="0.5" stroke-linecap="round" stroke-linejoin="round"/>
<path d="M397.355 173.924H380.451C377.503 173.924 375.113 176.314 375.113 179.262V196.165C375.113 199.113 377.503 201.503 380.451 201.503H397.355C400.303 201.503 402.693 199.113 402.693 196.165V179.262C402.693 176.314 400.303 173.924 397.355 173.924Z" fill="#1E1E1E" stroke="#292929" stroke-width="0.5"/>
<path d="M378.783 181.82C378.783 179.486 380.675 177.594 383.009 177.594H394.797C397.131 177.594 399.023 179.486 399.023 181.82V193.608C399.023 195.941 397.131 197.833 394.797 197.833H383.009C380.675 197.833 378.783 195.941 378.783 193.608V181.82Z" fill="#232323" stroke="#4D4D4D" stroke-width="0.5"/>
<path d="M389.098 188.144C389.336 188.144 389.529 187.952 389.529 187.714C389.529 187.475 389.336 187.283 389.098 187.283C388.86 187.283 388.667 187.475 388.667 187.714C388.667 187.952 388.86 188.144 389.098 188.144Z" stroke="#B4B4B4" stroke-width="0.5" stroke-linecap="round" stroke-linejoin="round"/>
<path d="M392.114 188.144C392.353 188.144 392.546 187.952 392.546 187.714C392.546 187.475 392.353 187.283 392.114 187.283C391.877 187.283 391.684 187.475 391.684 187.714C391.684 187.952 391.877 188.144 392.114 188.144Z" stroke="#B4B4B4" stroke-width="0.5" stroke-linecap="round" stroke-linejoin="round"/>
<path d="M386.081 188.144C386.319 188.144 386.512 187.952 386.512 187.714C386.512 187.475 386.319 187.283 386.081 187.283C385.843 187.283 385.65 187.475 385.65 187.714C385.65 187.952 385.843 188.144 386.081 188.144Z" stroke="#B4B4B4" stroke-width="0.5" stroke-linecap="round" stroke-linejoin="round"/>
<path d="M397.355 4H380.451C377.503 4 375.113 6.38987 375.113 9.33793V26.2414C375.113 29.1894 377.503 31.5793 380.451 31.5793H397.355C400.303 31.5793 402.693 29.1894 402.693 26.2414V9.33793C402.693 6.38987 400.303 4 397.355 4Z" fill="#1E1E1E" stroke="#292929" stroke-width="0.5"/>
<path d="M378.783 11.8957C378.783 9.56178 380.675 7.6698 383.009 7.6698H394.797C397.131 7.6698 399.023 9.56178 399.023 11.8957V23.6836C399.023 26.0175 397.131 27.9094 394.797 27.9094H383.009C380.675 27.9094 378.783 26.0175 378.783 23.6836V11.8957Z" fill="#232323" stroke="#4D4D4D" stroke-width="0.5"/>
<path d="M389.098 18.2206C389.336 18.2206 389.529 18.0276 389.529 17.7896C389.529 17.5516 389.336 17.3587 389.098 17.3587C388.86 17.3587 388.667 17.5516 388.667 17.7896C388.667 18.0276 388.86 18.2206 389.098 18.2206Z" stroke="#B4B4B4" stroke-width="0.5" stroke-linecap="round" stroke-linejoin="round"/>
<path d="M392.114 18.2206C392.353 18.2206 392.546 18.0276 392.546 17.7896C392.546 17.5516 392.353 17.3587 392.114 17.3587C391.877 17.3587 391.684 17.5516 391.684 17.7896C391.684 18.0276 391.877 18.2206 392.114 18.2206Z" stroke="#B4B4B4" stroke-width="0.5" stroke-linecap="round" stroke-linejoin="round"/>
<path d="M386.081 18.2206C386.319 18.2206 386.512 18.0276 386.512 17.7896C386.512 17.5516 386.319 17.3587 386.081 17.3587C385.843 17.3587 385.65 17.5516 385.65 17.7896C385.65 18.0276 385.843 18.2206 386.081 18.2206Z" stroke="#B4B4B4" stroke-width="0.5" stroke-linecap="round" stroke-linejoin="round"/>
<path d="M397.355 106.31H380.451C377.503 106.31 375.113 108.7 375.113 111.648V128.552C375.113 131.5 377.503 133.89 380.451 133.89H397.355C400.303 133.89 402.693 131.5 402.693 128.552V111.648C402.693 108.7 400.303 106.31 397.355 106.31Z" fill="#1E1E1E" stroke="#292929" stroke-width="0.5"/>
<path d="M378.783 114.206C378.783 111.872 380.675 109.98 383.009 109.98H394.797C397.131 109.98 399.023 111.872 399.023 114.206V125.994C399.023 128.327 397.131 130.22 394.797 130.22H383.009C380.675 130.22 378.783 128.327 378.783 125.994V114.206Z" fill="#232323" stroke="#4D4D4D" stroke-width="0.5"/>
<path d="M389.098 120.53C389.336 120.53 389.529 120.338 389.529 120.1C389.529 119.861 389.336 119.669 389.098 119.669C388.86 119.669 388.667 119.861 388.667 120.1C388.667 120.338 388.86 120.53 389.098 120.53Z" stroke="#B4B4B4" stroke-width="0.5" stroke-linecap="round" stroke-linejoin="round"/>
<path d="M392.114 120.53C392.353 120.53 392.546 120.338 392.546 120.1C392.546 119.861 392.353 119.669 392.114 119.669C391.877 119.669 391.684 119.861 391.684 120.1C391.684 120.338 391.877 120.53 392.114 120.53Z" stroke="#B4B4B4" stroke-width="0.5" stroke-linecap="round" stroke-linejoin="round"/>
<path d="M386.081 120.53C386.319 120.53 386.512 120.338 386.512 120.1C386.512 119.861 386.319 119.669 386.081 119.669C385.843 119.669 385.65 119.861 385.65 120.1C385.65 120.338 385.843 120.53 386.081 120.53Z" stroke="#B4B4B4" stroke-width="0.5" stroke-linecap="round" stroke-linejoin="round"/>
<path d="M397.355 72.5034H380.451C377.503 72.5034 375.113 74.8933 375.113 77.8413V93.8551C375.113 96.8032 377.503 99.193 380.451 99.193H397.355C400.303 99.193 402.693 96.8032 402.693 93.8551V77.8413C402.693 74.8933 400.303 72.5034 397.355 72.5034Z" fill="#1E1E1E" stroke="#292929" stroke-width="0.5"/>
<path d="M378.783 80.2879C378.783 77.954 380.675 76.062 383.009 76.062H394.797C397.131 76.062 399.023 77.954 399.023 80.2879V91.4085C399.023 93.7425 397.131 95.6344 394.797 95.6344H383.009C380.675 95.6344 378.783 93.7425 378.783 91.4085V80.2879Z" fill="#232323" stroke="#4D4D4D" stroke-width="0.5"/>
<path d="M389.098 86.2653C389.336 86.2653 389.529 86.0786 389.529 85.8482C389.529 85.6179 389.336 85.4312 389.098 85.4312C388.86 85.4312 388.667 85.6179 388.667 85.8482C388.667 86.0786 388.86 86.2653 389.098 86.2653Z" stroke="#B4B4B4" stroke-width="0.5" stroke-linecap="round" stroke-linejoin="round"/>
<path d="M392.114 86.2653C392.353 86.2653 392.546 86.0786 392.546 85.8482C392.546 85.6179 392.353 85.4312 392.114 85.4312C391.877 85.4312 391.684 85.6179 391.684 85.8482C391.684 86.0786 391.877 86.2653 392.114 86.2653Z" stroke="#B4B4B4" stroke-width="0.5" stroke-linecap="round" stroke-linejoin="round"/>
<path d="M386.081 86.2653C386.319 86.2653 386.512 86.0786 386.512 85.8482C386.512 85.6179 386.319 85.4312 386.081 85.4312C385.843 85.4312 385.65 85.6179 385.65 85.8482C385.65 86.0786 385.843 86.2653 386.081 86.2653Z" stroke="#B4B4B4" stroke-width="0.5" stroke-linecap="round" stroke-linejoin="round"/>
<path d="M329.741 4H312.838C309.89 4 307.5 6.38987 307.5 9.33793V26.2414C307.5 29.1894 309.89 31.5793 312.838 31.5793H329.741C332.689 31.5793 335.079 29.1894 335.079 26.2414V9.33793C335.079 6.38987 332.689 4 329.741 4Z" fill="#1E1E1E" stroke="#292929" stroke-width="0.5"/>
<path d="M311.17 11.8957C311.17 9.56178 313.062 7.6698 315.396 7.6698H327.184C329.517 7.6698 331.41 9.56178 331.41 11.8957V23.6836C331.41 26.0175 329.517 27.9094 327.184 27.9094H315.396C313.062 27.9094 311.17 26.0175 311.17 23.6836V11.8957Z" fill="#232323" stroke="#4D4D4D" stroke-width="0.5"/>
<path d="M321.484 18.2206C321.722 18.2206 321.915 18.0276 321.915 17.7896C321.915 17.5516 321.722 17.3587 321.484 17.3587C321.246 17.3587 321.053 17.5516 321.053 17.7896C321.053 18.0276 321.246 18.2206 321.484 18.2206Z" stroke="#B4B4B4" stroke-width="0.5" stroke-linecap="round" stroke-linejoin="round"/>
<path d="M324.5 18.2206C324.738 18.2206 324.931 18.0276 324.931 17.7896C324.931 17.5516 324.738 17.3587 324.5 17.3587C324.262 17.3587 324.069 17.5516 324.069 17.7896C324.069 18.0276 324.262 18.2206 324.5 18.2206Z" stroke="#B4B4B4" stroke-width="0.5" stroke-linecap="round" stroke-linejoin="round"/>
<path d="M318.468 18.2206C318.705 18.2206 318.898 18.0276 318.898 17.7896C318.898 17.5516 318.705 17.3587 318.468 17.3587C318.229 17.3587 318.037 17.5516 318.037 17.7896C318.037 18.0276 318.229 18.2206 318.468 18.2206Z" stroke="#B4B4B4" stroke-width="0.5" stroke-linecap="round" stroke-linejoin="round"/>
<path d="M329.741 106.31H312.838C309.89 106.31 307.5 108.7 307.5 111.648V128.552C307.5 131.5 309.89 133.89 312.838 133.89H329.741C332.689 133.89 335.079 131.5 335.079 128.552V111.648C335.079 108.7 332.689 106.31 329.741 106.31Z" fill="#1E1E1E" stroke="#292929" stroke-width="0.5"/>
<path d="M311.17 114.206C311.17 111.872 313.062 109.98 315.396 109.98H327.184C329.517 109.98 331.41 111.872 331.41 114.206V125.994C331.41 128.327 329.517 130.22 327.184 130.22H315.396C313.062 130.22 311.17 128.327 311.17 125.994V114.206Z" fill="#232323" stroke="#4D4D4D" stroke-width="0.5"/>
<path d="M321.484 120.53C321.722 120.53 321.915 120.338 321.915 120.1C321.915 119.861 321.722 119.669 321.484 119.669C321.246 119.669 321.053 119.861 321.053 120.1C321.053 120.338 321.246 120.53 321.484 120.53Z" stroke="#B4B4B4" stroke-width="0.5" stroke-linecap="round" stroke-linejoin="round"/>
<path d="M324.5 120.53C324.738 120.53 324.931 120.338 324.931 120.1C324.931 119.861 324.738 119.669 324.5 119.669C324.262 119.669 324.069 119.861 324.069 120.1C324.069 120.338 324.262 120.53 324.5 120.53Z" stroke="#B4B4B4" stroke-width="0.5" stroke-linecap="round" stroke-linejoin="round"/>
<path d="M318.468 120.53C318.705 120.53 318.898 120.338 318.898 120.1C318.898 119.861 318.705 119.669 318.468 119.669C318.229 119.669 318.037 119.861 318.037 120.1C318.037 120.338 318.229 120.53 318.468 120.53Z" stroke="#B4B4B4" stroke-width="0.5" stroke-linecap="round" stroke-linejoin="round"/>
<path d="M261.237 4H245.224C242.276 4 239.886 6.38987 239.886 9.33793V26.2414C239.886 29.1894 242.276 31.5793 245.224 31.5793H261.237C264.185 31.5793 266.575 29.1894 266.575 26.2414V9.33793C266.575 6.38987 264.185 4 261.237 4Z" fill="#1E1E1E" stroke="#292929" stroke-width="0.5"/>
<path d="M243.444 11.8957C243.444 9.56178 245.337 7.6698 247.67 7.6698H258.791C261.124 7.6698 263.017 9.56178 263.017 11.8957V23.6836C263.017 26.0175 261.124 27.9094 258.791 27.9094H247.67C245.337 27.9094 243.444 26.0175 243.444 23.6836V11.8957Z" fill="#232323" stroke="#4D4D4D" stroke-width="0.5"/>
<path d="M253.418 18.2206C253.649 18.2206 253.836 18.0276 253.836 17.7896C253.836 17.5516 253.649 17.3587 253.418 17.3587C253.189 17.3587 253.002 17.5516 253.002 17.7896C253.002 18.0276 253.189 18.2206 253.418 18.2206Z" stroke="#B4B4B4" stroke-width="0.5" stroke-linecap="round" stroke-linejoin="round"/>
<path d="M256.339 18.2206C256.57 18.2206 256.755 18.0276 256.755 17.7896C256.755 17.5516 256.57 17.3587 256.339 17.3587C256.109 17.3587 255.922 17.5516 255.922 17.7896C255.922 18.0276 256.109 18.2206 256.339 18.2206Z" stroke="#B4B4B4" stroke-width="0.5" stroke-linecap="round" stroke-linejoin="round"/>
<path d="M250.499 18.2206C250.73 18.2206 250.917 18.0276 250.917 17.7896C250.917 17.5516 250.73 17.3587 250.499 17.3587C250.269 17.3587 250.082 17.5516 250.082 17.7896C250.082 18.0276 250.269 18.2206 250.499 18.2206Z" stroke="#B4B4B4" stroke-width="0.5" stroke-linecap="round" stroke-linejoin="round"/>
<path d="M295.044 106.31H279.03C276.082 106.31 273.692 108.7 273.692 111.648V128.552C273.692 131.5 276.082 133.89 279.03 133.89H295.044C297.992 133.89 300.382 131.5 300.382 128.552V111.648C300.382 108.7 297.992 106.31 295.044 106.31Z" fill="#1E1E1E" stroke="#292929" stroke-width="0.5"/>
<path d="M277.251 114.206C277.251 111.872 279.143 109.98 281.477 109.98H292.598C294.931 109.98 296.823 111.872 296.823 114.206V125.994C296.823 128.327 294.931 130.22 292.598 130.22H281.477C279.143 130.22 277.251 128.327 277.251 125.994V114.206Z" fill="#232323" stroke="#4D4D4D" stroke-width="0.5"/>
<path d="M287.225 120.53C287.455 120.53 287.642 120.338 287.642 120.1C287.642 119.861 287.455 119.669 287.225 119.669C286.995 119.669 286.809 119.861 286.809 120.1C286.809 120.338 286.995 120.53 287.225 120.53Z" stroke="#B4B4B4" stroke-width="0.5" stroke-linecap="round" stroke-linejoin="round"/>
<path d="M290.145 120.53C290.375 120.53 290.561 120.338 290.561 120.1C290.561 119.861 290.375 119.669 290.145 119.669C289.914 119.669 289.728 119.861 289.728 120.1C289.728 120.338 289.914 120.53 290.145 120.53Z" stroke="#B4B4B4" stroke-width="0.5" stroke-linecap="round" stroke-linejoin="round"/>
<path d="M284.307 120.53C284.537 120.53 284.724 120.338 284.724 120.1C284.724 119.861 284.537 119.669 284.307 119.669C284.076 119.669 283.89 119.861 283.89 120.1C283.89 120.338 284.076 120.53 284.307 120.53Z" stroke="#B4B4B4" stroke-width="0.5" stroke-linecap="round" stroke-linejoin="round"/>
<path d="M222.983 143.676H206.969C204.021 143.676 201.631 146.066 201.631 149.014V165.917C201.631 168.865 204.021 171.255 206.969 171.255H222.983C225.931 171.255 228.32 168.865 228.32 165.917V149.014C228.32 146.066 225.931 143.676 222.983 143.676Z" fill="#1E1E1E" stroke="#292929" stroke-width="0.5"/>
<path d="M205.189 151.571C205.189 149.238 207.082 147.346 209.415 147.346H220.536C222.87 147.346 224.762 149.238 224.762 151.571V163.359C224.762 165.693 222.87 167.585 220.536 167.585H209.415C207.082 167.585 205.189 165.693 205.189 163.359V151.571Z" fill="#232323" stroke="#4D4D4D" stroke-width="0.5"/>
<path d="M215.163 157.896C215.394 157.896 215.581 157.704 215.581 157.465C215.581 157.227 215.394 157.035 215.163 157.035C214.934 157.035 214.747 157.227 214.747 157.465C214.747 157.704 214.934 157.896 215.163 157.896Z" stroke="#B4B4B4" stroke-width="0.5" stroke-linecap="round" stroke-linejoin="round"/>
<path d="M218.084 157.896C218.315 157.896 218.501 157.704 218.501 157.465C218.501 157.227 218.315 157.035 218.084 157.035C217.854 157.035 217.667 157.227 217.667 157.465C217.667 157.704 217.854 157.896 218.084 157.896Z" stroke="#B4B4B4" stroke-width="0.5" stroke-linecap="round" stroke-linejoin="round"/>
<path d="M212.244 157.896C212.475 157.896 212.662 157.704 212.662 157.465C212.662 157.227 212.475 157.035 212.244 157.035C212.014 157.035 211.827 157.227 211.827 157.465C211.827 157.704 212.014 157.896 212.244 157.896Z" stroke="#B4B4B4" stroke-width="0.5" stroke-linecap="round" stroke-linejoin="round"/>
<path d="M261.237 106.31H245.224C242.276 106.31 239.886 108.7 239.886 111.648V128.552C239.886 131.5 242.276 133.89 245.224 133.89H261.237C264.185 133.89 266.575 131.5 266.575 128.552V111.648C266.575 108.7 264.185 106.31 261.237 106.31Z" fill="#1E1E1E" stroke="#292929" stroke-width="0.5"/>
<path d="M243.444 114.206C243.444 111.872 245.337 109.98 247.67 109.98H258.791C261.124 109.98 263.017 111.872 263.017 114.206V125.994C263.017 128.327 261.124 130.22 258.791 130.22H247.67C245.337 130.22 243.444 128.327 243.444 125.994V114.206Z" fill="#232323" stroke="#4D4D4D" stroke-width="0.5"/>
<path d="M253.418 120.53C253.649 120.53 253.836 120.338 253.836 120.1C253.836 119.861 253.649 119.669 253.418 119.669C253.189 119.669 253.002 119.861 253.002 120.1C253.002 120.338 253.189 120.53 253.418 120.53Z" stroke="#B4B4B4" stroke-width="0.5" stroke-linecap="round" stroke-linejoin="round"/>
<path d="M256.339 120.53C256.57 120.53 256.755 120.338 256.755 120.1C256.755 119.861 256.57 119.669 256.339 119.669C256.109 119.669 255.922 119.861 255.922 120.1C255.922 120.338 256.109 120.53 256.339 120.53Z" stroke="#B4B4B4" stroke-width="0.5" stroke-linecap="round" stroke-linejoin="round"/>
<path d="M250.499 120.53C250.73 120.53 250.917 120.338 250.917 120.1C250.917 119.861 250.73 119.669 250.499 119.669C250.269 119.669 250.082 119.861 250.082 120.1C250.082 120.338 250.269 120.53 250.499 120.53Z" stroke="#B4B4B4" stroke-width="0.5" stroke-linecap="round" stroke-linejoin="round"/>
<path d="M431.161 4H415.147C412.199 4 409.81 6.38987 409.81 9.33793V26.2414C409.81 29.1894 412.199 31.5793 415.147 31.5793H431.161C434.109 31.5793 436.499 29.1894 436.499 26.2414V9.33793C436.499 6.38987 434.109 4 431.161 4Z" fill="#1E1E1E" stroke="#292929" stroke-width="0.5"/>
<path d="M413.368 11.8957C413.368 9.56178 415.26 7.6698 417.594 7.6698H428.715C431.048 7.6698 432.941 9.56178 432.941 11.8957V23.6836C432.941 26.0175 431.048 27.9094 428.715 27.9094H417.594C415.26 27.9094 413.368 26.0175 413.368 23.6836V11.8957Z" fill="#232323" stroke="#4D4D4D" stroke-width="0.5"/>
<path d="M420.423 18.2206C420.654 18.2206 420.84 18.0276 420.84 17.7896C420.84 17.5516 420.654 17.3587 420.423 17.3587C420.193 17.3587 420.006 17.5516 420.006 17.7896C420.006 18.0276 420.193 18.2206 420.423 18.2206Z" stroke="#B4B4B4" stroke-width="0.5" stroke-linecap="round" stroke-linejoin="round"/>
<path d="M431.161 106.31H415.147C412.199 106.31 409.81 108.7 409.81 111.648V128.552C409.81 131.5 412.199 133.89 415.147 133.89H431.161C434.109 133.89 436.499 131.5 436.499 128.552V111.648C436.499 108.7 434.109 106.31 431.161 106.31Z" fill="#1E1E1E" stroke="#292929" stroke-width="0.5"/>
<path d="M413.368 114.206C413.368 111.872 415.26 109.98 417.594 109.98H428.715C431.048 109.98 432.941 111.872 432.941 114.206V125.994C432.941 128.327 431.048 130.22 428.715 130.22H417.594C415.26 130.22 413.368 128.327 413.368 125.994V114.206Z" fill="#232323" stroke="#4D4D4D" stroke-width="0.5"/>
<path d="M420.423 120.53C420.654 120.53 420.84 120.338 420.84 120.1C420.84 119.861 420.654 119.669 420.423 119.669C420.193 119.669 420.006 119.861 420.006 120.1C420.006 120.338 420.193 120.53 420.423 120.53Z" stroke="#B4B4B4" stroke-width="0.5" stroke-linecap="round" stroke-linejoin="round"/>
<path d="M329.741 38.6965H312.838C309.89 38.6965 307.5 41.0864 307.5 44.0345V60.0482C307.5 62.9963 309.89 65.3862 312.838 65.3862H329.741C332.689 65.3862 335.079 62.9963 335.079 60.0482V44.0345C335.079 41.0864 332.689 38.6965 329.741 38.6965Z" fill="#1E1E1E" stroke="#292929" stroke-width="0.5"/>
<path d="M311.17 46.481C311.17 44.1471 313.062 42.2551 315.396 42.2551H327.184C329.517 42.2551 331.41 44.1471 331.41 46.481V57.6017C331.41 59.9356 329.517 61.8275 327.184 61.8275H315.396C313.062 61.8275 311.17 59.9356 311.17 57.6017V46.481Z" fill="#232323" stroke="#4D4D4D" stroke-width="0.5"/>
<path d="M321.484 52.4584C321.722 52.4584 321.915 52.2717 321.915 52.0413C321.915 51.811 321.722 51.6243 321.484 51.6243C321.246 51.6243 321.053 51.811 321.053 52.0413C321.053 52.2717 321.246 52.4584 321.484 52.4584Z" stroke="#B4B4B4" stroke-width="0.5" stroke-linecap="round" stroke-linejoin="round"/>
<path d="M324.5 52.4584C324.738 52.4584 324.931 52.2717 324.931 52.0413C324.931 51.811 324.738 51.6243 324.5 51.6243C324.262 51.6243 324.069 51.811 324.069 52.0413C324.069 52.2717 324.262 52.4584 324.5 52.4584Z" stroke="#B4B4B4" stroke-width="0.5" stroke-linecap="round" stroke-linejoin="round"/>
<path d="M318.468 52.4584C318.705 52.4584 318.898 52.2717 318.898 52.0413C318.898 51.811 318.705 51.6243 318.468 51.6243C318.229 51.6243 318.037 51.811 318.037 52.0413C318.037 52.2717 318.229 52.4584 318.468 52.4584Z" stroke="#B4B4B4" stroke-width="0.5" stroke-linecap="round" stroke-linejoin="round"/>
<path d="M329.741 140.117H312.838C309.89 140.117 307.5 142.507 307.5 145.455V162.358C307.5 165.307 309.89 167.696 312.838 167.696H329.741C332.689 167.696 335.079 165.307 335.079 162.358V145.455C335.079 142.507 332.689 140.117 329.741 140.117Z" fill="#1E1E1E" stroke="#292929" stroke-width="0.5"/>
<path d="M311.17 148.013C311.17 145.679 313.062 143.787 315.396 143.787H327.184C329.517 143.787 331.41 145.679 331.41 148.013V159.801C331.41 162.134 329.517 164.027 327.184 164.027H315.396C313.062 164.027 311.17 162.134 311.17 159.801V148.013Z" fill="#232323" stroke="#4D4D4D" stroke-width="0.5"/>
<path d="M321.179 187.685C321.416 187.685 321.609 187.493 321.609 187.255C321.609 187.016 321.416 186.824 321.179 186.824C320.94 186.824 320.747 187.016 320.747 187.255C320.747 187.493 320.94 187.685 321.179 187.685Z" stroke="#B4B4B4" stroke-width="0.5" stroke-linecap="round" stroke-linejoin="round"/>
<path d="M324.194 187.685C324.433 187.685 324.626 187.493 324.626 187.255C324.626 187.016 324.433 186.824 324.194 186.824C323.957 186.824 323.764 187.016 323.764 187.255C323.764 187.493 323.957 187.685 324.194 187.685Z" stroke="#B4B4B4" stroke-width="0.5" stroke-linecap="round" stroke-linejoin="round"/>
<path d="M318.161 187.685C318.399 187.685 318.592 187.493 318.592 187.255C318.592 187.016 318.399 186.824 318.161 186.824C317.923 186.824 317.73 187.016 317.73 187.255C317.73 187.493 317.923 187.685 318.161 187.685Z" stroke="#B4B4B4" stroke-width="0.5" stroke-linecap="round" stroke-linejoin="round"/>
<path d="M329.741 173.924H312.838C309.89 173.924 307.5 176.314 307.5 179.262V196.165C307.5 199.113 309.89 201.503 312.838 201.503H329.741C332.689 201.503 335.079 199.113 335.079 196.165V179.262C335.079 176.314 332.689 173.924 329.741 173.924Z" fill="#1E1E1E" stroke="#292929" stroke-width="0.5"/>
<path d="M311.17 181.82C311.17 179.486 313.062 177.594 315.396 177.594H327.184C329.517 177.594 331.41 179.486 331.41 181.82V193.608C331.41 195.941 329.517 197.833 327.184 197.833H315.396C313.062 197.833 311.17 195.941 311.17 193.608V181.82Z" fill="#232323" stroke="#4D4D4D" stroke-width="0.5"/>
<path d="M295.044 38.6965H279.03C276.082 38.6965 273.692 41.0864 273.692 44.0345V60.0482C273.692 62.9963 276.082 65.3862 279.03 65.3862H295.044C297.992 65.3862 300.382 62.9963 300.382 60.0482V44.0345C300.382 41.0864 297.992 38.6965 295.044 38.6965Z" fill="#1E1E1E" stroke="#292929" stroke-width="0.5"/>
<path d="M277.251 46.481C277.251 44.1471 279.143 42.2551 281.477 42.2551H292.598C294.931 42.2551 296.823 44.1471 296.823 46.481V57.6017C296.823 59.9356 294.931 61.8275 292.598 61.8275H281.477C279.143 61.8275 277.251 59.9356 277.251 57.6017V46.481Z" fill="#232323" stroke="#4D4D4D" stroke-width="0.5"/>
<path d="M287.225 52.4584C287.455 52.4584 287.642 52.2717 287.642 52.0413C287.642 51.811 287.455 51.6243 287.225 51.6243C286.995 51.6243 286.809 51.811 286.809 52.0413C286.809 52.2717 286.995 52.4584 287.225 52.4584Z" stroke="#B4B4B4" stroke-width="0.5" stroke-linecap="round" stroke-linejoin="round"/>
<path d="M290.145 52.4584C290.375 52.4584 290.561 52.2717 290.561 52.0413C290.561 51.811 290.375 51.6243 290.145 51.6243C289.914 51.6243 289.728 51.811 289.728 52.0413C289.728 52.2717 289.914 52.4584 290.145 52.4584Z" stroke="#B4B4B4" stroke-width="0.5" stroke-linecap="round" stroke-linejoin="round"/>
<path d="M284.307 52.4584C284.537 52.4584 284.724 52.2717 284.724 52.0413C284.724 51.811 284.537 51.6243 284.307 51.6243C284.076 51.6243 283.89 51.811 283.89 52.0413C283.89 52.2717 284.076 52.4584 284.307 52.4584Z" stroke="#B4B4B4" stroke-width="0.5" stroke-linecap="round" stroke-linejoin="round"/>
<path d="M295.044 140.117H279.03C276.082 140.117 273.692 142.507 273.692 145.455V162.358C273.692 165.307 276.082 167.696 279.03 167.696H295.044C297.992 167.696 300.382 165.307 300.382 162.358V145.455C300.382 142.507 297.992 140.117 295.044 140.117Z" fill="#1E1E1E" stroke="#292929" stroke-width="0.5"/>
<path d="M277.251 148.013C277.251 145.679 279.143 143.787 281.477 143.787H292.598C294.931 143.787 296.823 145.679 296.823 148.013V159.801C296.823 162.134 294.931 164.027 292.598 164.027H281.477C279.143 164.027 277.251 162.134 277.251 159.801V148.013Z" fill="#232323" stroke="#4D4D4D" stroke-width="0.5"/>
<path d="M295.044 173.924H279.03C276.082 173.924 273.692 176.314 273.692 179.262V196.165C273.692 199.113 276.082 201.503 279.03 201.503H295.044C297.992 201.503 300.382 199.113 300.382 196.165V179.262C300.382 176.314 297.992 173.924 295.044 173.924Z" fill="#1E1E1E" stroke="#292929" stroke-width="0.5"/>
<path d="M277.251 181.82C277.251 179.486 279.143 177.594 281.477 177.594H292.598C294.931 177.594 296.823 179.486 296.823 181.82V193.608C296.823 195.941 294.931 197.833 292.598 197.833H281.477C279.143 197.833 277.251 195.941 277.251 193.608V181.82Z" fill="#232323" stroke="#4D4D4D" stroke-width="0.5"/>
<path d="M431.161 38.6965H415.147C412.199 38.6965 409.81 41.0864 409.81 44.0345V60.0482C409.81 62.9963 412.199 65.3862 415.147 65.3862H431.161C434.109 65.3862 436.499 62.9963 436.499 60.0482V44.0345C436.499 41.0864 434.109 38.6965 431.161 38.6965Z" fill="#1E1E1E" stroke="#292929" stroke-width="0.5"/>
<path d="M413.368 46.481C413.368 44.1471 415.26 42.2551 417.594 42.2551H428.715C431.048 42.2551 432.941 44.1471 432.941 46.481V57.6017C432.941 59.9356 431.048 61.8275 428.715 61.8275H417.594C415.26 61.8275 413.368 59.9356 413.368 57.6017V46.481Z" fill="#232323" stroke="#4D4D4D" stroke-width="0.5"/>
<path d="M420.423 52.4584C420.654 52.4584 420.84 52.2717 420.84 52.0413C420.84 51.811 420.654 51.6243 420.423 51.6243C420.193 51.6243 420.006 51.811 420.006 52.0413C420.006 52.2717 420.193 52.4584 420.423 52.4584Z" stroke="#B4B4B4" stroke-width="0.5" stroke-linecap="round" stroke-linejoin="round"/>
<path d="M431.161 140.117H415.147C412.199 140.117 409.81 142.507 409.81 145.455V162.358C409.81 165.307 412.199 167.696 415.147 167.696H431.161C434.109 167.696 436.499 165.307 436.499 162.358V145.455C436.499 142.507 434.109 140.117 431.161 140.117Z" fill="#1E1E1E" stroke="#292929" stroke-width="0.5"/>
<path d="M413.368 148.013C413.368 145.679 415.26 143.787 417.594 143.787H428.715C431.048 143.787 432.941 145.679 432.941 148.013V159.801C432.941 162.134 431.048 164.027 428.715 164.027H417.594C415.26 164.027 413.368 162.134 413.368 159.801V148.013Z" fill="#232323" stroke="#4D4D4D" stroke-width="0.5"/>
<path d="M420.423 154.337C420.654 154.337 420.84 154.145 420.84 153.907C420.84 153.668 420.654 153.476 420.423 153.476C420.193 153.476 420.006 153.668 420.006 153.907C420.006 154.145 420.193 154.337 420.423 154.337Z" stroke="#B4B4B4" stroke-width="0.5" stroke-linecap="round" stroke-linejoin="round"/>
<path d="M431.161 173.924H415.147C412.199 173.924 409.81 176.314 409.81 179.262V196.165C409.81 199.113 412.199 201.503 415.147 201.503H431.161C434.109 201.503 436.499 199.113 436.499 196.165V179.262C436.499 176.314 434.109 173.924 431.161 173.924Z" fill="#1E1E1E" stroke="#292929" stroke-width="0.5"/>
<path d="M413.368 181.82C413.368 179.486 415.26 177.594 417.594 177.594H428.715C431.048 177.594 432.941 179.486 432.941 181.82V193.608C432.941 195.941 431.048 197.833 428.715 197.833H417.594C415.26 197.833 413.368 195.941 413.368 193.608V181.82Z" fill="#232323" stroke="#4D4D4D" stroke-width="0.5"/>
<path d="M321.179 187.685C321.416 187.685 321.609 187.493 321.609 187.255C321.609 187.016 321.416 186.824 321.179 186.824C320.94 186.824 320.747 187.016 320.747 187.255C320.747 187.493 320.94 187.685 321.179 187.685Z" stroke="#B4B4B4" stroke-width="0.5" stroke-linecap="round" stroke-linejoin="round"/>
<path d="M324.194 187.685C324.433 187.685 324.626 187.493 324.626 187.255C324.626 187.016 324.433 186.824 324.194 186.824C323.957 186.824 323.764 187.016 323.764 187.255C323.764 187.493 323.957 187.685 324.194 187.685Z" stroke="#B4B4B4" stroke-width="0.5" stroke-linecap="round" stroke-linejoin="round"/>
<path d="M318.161 187.685C318.399 187.685 318.592 187.493 318.592 187.255C318.592 187.016 318.399 186.824 318.161 186.824C317.923 186.824 317.73 187.016 317.73 187.255C317.73 187.493 317.923 187.685 318.161 187.685Z" stroke="#B4B4B4" stroke-width="0.5" stroke-linecap="round" stroke-linejoin="round"/>
<path d="M321.179 154.768C321.416 154.768 321.609 154.576 321.609 154.337C321.609 154.099 321.416 153.907 321.179 153.907C320.94 153.907 320.747 154.099 320.747 154.337C320.747 154.576 320.94 154.768 321.179 154.768Z" stroke="#B4B4B4" stroke-width="0.5" stroke-linecap="round" stroke-linejoin="round"/>
<path d="M324.194 154.768C324.433 154.768 324.626 154.576 324.626 154.337C324.626 154.099 324.433 153.907 324.194 153.907C323.957 153.907 323.764 154.099 323.764 154.337C323.764 154.576 323.957 154.768 324.194 154.768Z" stroke="#B4B4B4" stroke-width="0.5" stroke-linecap="round" stroke-linejoin="round"/>
<path d="M318.161 154.768C318.399 154.768 318.592 154.576 318.592 154.337C318.592 154.099 318.399 153.907 318.161 153.907C317.923 153.907 317.73 154.099 317.73 154.337C317.73 154.576 317.923 154.768 318.161 154.768Z" stroke="#B4B4B4" stroke-width="0.5" stroke-linecap="round" stroke-linejoin="round"/>
<path d="M287.372 187.685C287.609 187.685 287.802 187.493 287.802 187.255C287.802 187.016 287.609 186.824 287.372 186.824C287.133 186.824 286.94 187.016 286.94 187.255C286.94 187.493 287.133 187.685 287.372 187.685Z" stroke="#B4B4B4" stroke-width="0.5" stroke-linecap="round" stroke-linejoin="round"/>
<path d="M290.388 187.685C290.626 187.685 290.819 187.493 290.819 187.255C290.819 187.016 290.626 186.824 290.388 186.824C290.15 186.824 289.957 187.016 289.957 187.255C289.957 187.493 290.15 187.685 290.388 187.685Z" stroke="#B4B4B4" stroke-width="0.5" stroke-linecap="round" stroke-linejoin="round"/>
<path d="M284.354 187.685C284.592 187.685 284.785 187.493 284.785 187.255C284.785 187.016 284.592 186.824 284.354 186.824C284.116 186.824 283.924 187.016 283.924 187.255C283.924 187.493 284.116 187.685 284.354 187.685Z" stroke="#B4B4B4" stroke-width="0.5" stroke-linecap="round" stroke-linejoin="round"/>
<path d="M287.372 154.768C287.609 154.768 287.802 154.576 287.802 154.337C287.802 154.099 287.609 153.907 287.372 153.907C287.133 153.907 286.94 154.099 286.94 154.337C286.94 154.576 287.133 154.768 287.372 154.768Z" stroke="#B4B4B4" stroke-width="0.5" stroke-linecap="round" stroke-linejoin="round"/>
<path d="M290.388 154.768C290.626 154.768 290.819 154.576 290.819 154.337C290.819 154.099 290.626 153.907 290.388 153.907C290.15 153.907 289.957 154.099 289.957 154.337C289.957 154.576 290.15 154.768 290.388 154.768Z" stroke="#B4B4B4" stroke-width="0.5" stroke-linecap="round" stroke-linejoin="round"/>
<path d="M284.354 154.768C284.592 154.768 284.785 154.576 284.785 154.337C284.785 154.099 284.592 153.907 284.354 153.907C284.116 153.907 283.924 154.099 283.924 154.337C283.924 154.576 284.116 154.768 284.354 154.768Z" stroke="#B4B4B4" stroke-width="0.5" stroke-linecap="round" stroke-linejoin="round"/>
<path d="M420.423 188.144C420.654 188.144 420.84 187.952 420.84 187.714C420.84 187.475 420.654 187.283 420.423 187.283C420.193 187.283 420.006 187.475 420.006 187.714C420.006 187.952 420.193 188.144 420.423 188.144Z" stroke="#B4B4B4" stroke-width="0.5" stroke-linecap="round" stroke-linejoin="round"/>
<path d="M445 0H0V208H445V0Z" fill="url(#paint0_linear_642_3505)"/>
</g>
<defs>
<linearGradient id="paint0_linear_642_3505" x1="405.869" y1="46.9677" x2="321.703" y2="226.858" gradientUnits="userSpaceOnUse">
<stop stop-color="#232323" stop-opacity="0"/>
<stop offset="1" stop-color="#232323"/>
</linearGradient>
<clipPath id="clip0_642_3505">
<rect width="445" height="208" fill="white"/>
</clipPath>
</defs>
</svg>
