<svg width="702" height="169" viewBox="0 0 702 169" fill="none" xmlns="http://www.w3.org/2000/svg">
<path fill-rule="evenodd" clip-rule="evenodd" d="M30.75 49.125V22H57.875V49.125H30.75ZM29.875 50V77.125H22V78H29.875V105.125H22V106H29.875V133.125H22V134H29.875V161.125H22V162H29.875V169H30.75V162H57.875V169H58.75V162H85.875V169H86.75V162H113.875V169H114.75V162H141.875V169H142.75V162H169.875V169H170.75V162H197.875V169H198.75V162H225.875V169H226.75V162H235.5V161.125H226.75V134H235.5V133.125H226.75V106H235.5V105.125H226.75V78H235.5V77.125H226.75V50H235.5V49.125H226.75V22H235.5V21.125H226.75V15H225.875V21.125H198.75V15H197.875V21.125H170.75V15H169.875V21.125H142.75V15H141.875V21.125H114.75V15H113.875V21.125H86.75V15H85.875V21.125H58.75V15H57.875V21.125H30.75V15H29.875V21.125H22V22H29.875V49.125H22V50H29.875ZM225.875 161.125V134H198.75V161.125H225.875ZM197.875 161.125V134H170.75V161.125H197.875ZM169.875 161.125V134H142.75V161.125H169.875ZM141.875 161.125V134H114.75V161.125H141.875ZM113.875 161.125V134H86.75V161.125H113.875ZM85.875 161.125V134H58.75V161.125H85.875ZM57.875 161.125V134H30.75V161.125H57.875ZM57.875 133.125H30.75V106H57.875V133.125ZM85.875 133.125H58.75V106H85.875V133.125ZM113.875 133.125H86.75V106H113.875V133.125ZM141.875 133.125H114.75V106H141.875V133.125ZM169.875 133.125H142.75V106H169.875V133.125ZM197.875 133.125H170.75V106H197.875V133.125ZM225.875 133.125H198.75V106H225.875V133.125ZM225.875 105.125V78H198.75V105.125H225.875ZM197.875 105.125V78H170.75V105.125H197.875ZM169.875 105.125V78H142.75V105.125H169.875ZM141.875 105.125V78H114.75V105.125H141.875ZM113.875 105.125V78H86.75V105.125H113.875ZM85.875 105.125V78H58.75V105.125H85.875ZM57.875 105.125V78H30.75V105.125H57.875ZM57.875 77.125H30.75V50H57.875V77.125ZM85.875 77.125H58.75V50H85.875V77.125ZM113.875 77.125H86.75V50H113.875V77.125ZM141.875 77.125H114.75V50H141.875V77.125ZM169.875 77.125H142.75V50H169.875V77.125ZM197.875 77.125H170.75V50H197.875V77.125ZM225.875 77.125H198.75V50H225.875V77.125ZM225.875 49.125V22H198.75V49.125H225.875ZM197.875 49.125V22H170.75V49.125H197.875ZM169.875 49.125V22H142.75V49.125H169.875ZM141.875 49.125V22H114.75V49.125H141.875ZM113.875 49.125V22H86.75V49.125H113.875ZM85.875 49.125V22H58.75V49.125H85.875Z" fill="url(#paint0_radial_1893_701)"/>
<path d="M142.605 77.5605H170.605V105.561" stroke="url(#paint1_linear_1893_701)" stroke-linecap="round"/>
<path d="M114.606 77.5664H86.6064V49.5664" stroke="url(#paint2_linear_1893_701)" stroke-linecap="round"/>
<path d="M199 77H227V54" stroke="url(#paint3_linear_1893_701)" stroke-linecap="round"/>
<path d="M198.6 133.553H170.6" stroke="url(#paint4_linear_1893_701)" stroke-linecap="round"/>
<path d="M226.604 49.5664H198.604" stroke="url(#paint5_linear_1893_701)" stroke-linecap="round"/>
<path d="M114.604 105.557H58.6035" stroke="url(#paint6_linear_1893_701)" stroke-linecap="round"/>
<path d="M59.043 108.633C60.976 108.633 62.543 107.066 62.543 105.133C62.543 103.2 60.976 101.633 59.043 101.633C57.11 101.633 55.543 103.2 55.543 105.133C55.543 107.066 57.11 108.633 59.043 108.633Z" fill="#3DDCA3"/>
<path d="M171.041 108.633C172.974 108.633 174.541 107.066 174.541 105.133C174.541 103.2 172.974 101.633 171.041 101.633C169.108 101.633 167.541 103.2 167.541 105.133C167.541 107.066 169.108 108.633 171.041 108.633Z" fill="#3DDCA3"/>
<path d="M86.167 52.6113C88.1 52.6113 89.667 51.0443 89.667 49.1113C89.667 47.1783 88.1 45.6113 86.167 45.6113C84.234 45.6113 82.667 47.1783 82.667 49.1113C82.667 51.0443 84.234 52.6113 86.167 52.6113Z" fill="#3DDCA3"/>
<path d="M199.044 136.629C200.977 136.629 202.544 135.062 202.544 133.129C202.544 131.196 200.977 129.629 199.044 129.629C197.111 129.629 195.544 131.196 195.544 133.129C195.544 135.062 197.111 136.629 199.044 136.629Z" fill="#3DDCA3"/>
<path d="M227.039 52.6113C228.972 52.6113 230.539 51.0443 230.539 49.1113C230.539 47.1783 228.972 45.6113 227.039 45.6113C225.106 45.6113 223.539 47.1783 223.539 49.1113C223.539 51.0443 225.106 52.6113 227.039 52.6113Z" fill="#3DDCA3"/>
<g clip-path="url(#clip0_1893_701)">
<mask id="mask0_1893_701" style="mask-type:luminance" maskUnits="userSpaceOnUse" x="0" y="0" width="156" height="156">
<path d="M156 0H0V156H156V0Z" fill="white"/>
</mask>
<g mask="url(#mask0_1893_701)">
<mask id="mask1_1893_701" style="mask-type:luminance" maskUnits="userSpaceOnUse" x="0" y="0" width="156" height="156">
<path d="M156 0H0V156H156V0Z" fill="white"/>
</mask>
<g mask="url(#mask1_1893_701)">
<path d="M117.388 136.961C105.727 144.752 92.0175 148.912 77.9931 148.912C59.1866 148.912 41.1505 141.44 27.8523 128.143C14.5546 114.845 7.08398 96.8091 7.08398 78.0027C7.08398 63.978 11.2427 50.2688 19.034 38.6078C26.8255 26.9468 37.8999 17.8583 50.8569 12.4915C63.8138 7.12452 78.0711 5.72023 91.8268 8.45626C105.582 11.1924 118.215 17.9457 128.132 27.8626C138.05 37.7793 144.804 50.4141 147.539 64.1692C150.275 77.9247 148.871 92.1817 143.504 105.138C138.137 118.094 129.049 129.17 117.388 136.961Z" fill="#0F0F0F"/>
<path fill-rule="evenodd" clip-rule="evenodd" d="M90.8756 13.2376C78.0657 10.6896 64.7885 11.9974 52.7224 16.9953C40.6563 21.9933 30.3431 30.4569 23.0874 41.3162C15.8316 52.1753 11.9589 64.9421 11.9589 78.0027C11.9589 95.5162 18.9161 112.312 31.2993 124.696M92.7777 3.67492C107.478 6.5991 120.982 13.8168 131.58 24.4152C142.179 35.0139 149.398 48.5173 152.32 63.218C155.245 77.9193 153.744 93.1563 148.009 107.003C142.272 120.851 132.558 132.688 120.096 141.015C107.634 149.341 92.9815 153.787 77.993 153.787C57.8937 153.787 38.6175 145.803 24.4053 131.59C10.1932 117.378 2.20898 98.1015 2.20898 78.0027C2.20898 63.0138 6.65349 48.3621 14.9806 35.8995C23.3076 23.4368 35.1435 13.7234 48.9913 7.98749C62.8389 2.25165 78.0763 0.7508 92.7777 3.67492ZM90.8756 13.2376C103.685 15.7855 115.45 22.0745 124.686 31.3096L90.8756 13.2376ZM142.757 65.1201C140.21 52.3108 133.921 40.5446 124.686 31.3096L142.757 65.1201ZM139.001 103.273C143.998 91.2067 145.306 77.9297 142.757 65.1201L139.001 103.273ZM139.001 103.273C134.002 115.339 125.538 125.652 114.679 132.908C103.82 140.164 91.0532 144.036 77.993 144.036C60.4796 144.036 43.6833 137.079 31.2993 124.696" fill="#383838"/>
<g style="mix-blend-mode:multiply">
<path d="M15.0223 80.7976C15.0198 67.9161 18.7749 55.314 25.8273 44.5347C32.8798 33.7556 42.9234 25.2679 54.7274 20.1112C66.5317 14.9548 79.5833 13.3535 92.2838 15.5038C104.984 17.6541 116.782 23.4623 126.231 32.2171C120.178 25.6774 112.869 20.4266 104.739 16.7793C96.6085 13.132 87.8264 11.1632 78.9174 10.9909C70.0087 10.8185 61.1566 12.4462 52.8918 15.7762C44.6269 19.1064 37.1193 24.0705 30.8186 30.3713C24.5178 36.6719 19.5538 44.1796 16.2237 52.4445C12.8936 60.7094 11.2659 69.5614 11.4382 78.4703C11.6105 87.3793 13.5794 96.1613 17.2268 104.291C20.874 112.421 26.1248 119.731 32.6645 125.784C21.3062 113.558 15.0023 97.4845 15.0223 80.7976Z" fill="black"/>
</g>
<path d="M82.2849 146.043C117.717 146.043 146.44 115.807 146.44 78.5105C146.44 41.2138 117.717 10.9785 82.2849 10.9785C46.8525 10.9785 18.1289 41.2138 18.1289 78.5105C18.1289 115.807 46.8525 146.043 82.2849 146.043Z" fill="black"/>
<path d="M124.348 122.41C148.682 98.1685 148.682 58.8659 124.348 34.6244C100.014 10.383 60.561 10.383 36.2271 34.6244C11.893 58.8659 11.893 98.1685 36.2271 122.41C60.561 146.652 100.014 146.652 124.348 122.41Z" fill="black"/>
<path d="M146.49 78.0272C146.549 95.8495 139.517 112.967 126.936 125.629C114.353 138.29 97.249 145.461 79.3721 145.571C61.4948 145.68 44.3034 138.719 31.5666 126.213C18.8298 113.706 11.5869 96.6763 11.4258 78.8547V78.0272C11.4258 60.1719 18.5409 43.0476 31.2059 30.4219C43.871 17.7962 61.0486 10.7031 78.9593 10.7031H79.7925C97.5606 10.9151 114.529 18.1015 127.016 30.7037C139.502 43.3059 146.497 60.3137 146.49 78.0272Z" fill="#2E3031"/>
<path d="M126.23 30.6884L31.1192 125.784C18.68 113.388 11.6078 96.6046 11.4258 79.0468V78.2207C11.4258 60.3879 18.5111 43.2857 31.1235 30.6754C43.7359 18.0653 60.8422 10.9801 78.6798 10.9785H79.5094C97.0622 11.1855 113.836 18.2613 126.23 30.6884Z" fill="#3B3B3B"/>
<path d="M146.446 78.5092C146.446 87.3777 144.794 96.1599 141.582 104.353C138.369 112.547 133.661 119.991 127.725 126.263C121.789 132.534 114.742 137.508 106.987 140.903C99.2306 144.296 90.9189 146.043 82.5239 146.043C81.3121 146.043 80.1089 146.008 78.9141 145.938C95.2189 144.966 110.553 137.438 121.771 124.9C132.988 112.362 139.237 95.7635 139.237 78.5105C139.237 61.2583 132.988 44.66 121.771 32.1217C110.553 19.5835 95.2189 12.056 78.9141 11.0841C80.1089 11.0137 81.3121 10.9785 82.5239 10.9785C99.4772 10.9785 115.736 18.0933 127.724 30.7577C139.712 43.4223 146.446 60.5991 146.446 78.5092Z" fill="#151520"/>
<path d="M146.446 78.5092C146.446 87.3777 144.794 96.1599 141.582 104.353C138.369 112.547 133.661 119.991 127.725 126.263C121.789 132.534 114.742 137.508 106.987 140.903C99.2306 144.296 90.9189 146.043 82.5239 146.043C81.3121 146.043 80.1089 146.008 78.9141 145.938C95.2189 144.966 110.553 137.438 121.771 124.9C132.988 112.362 139.237 95.7635 139.237 78.5105C139.237 61.2583 132.988 44.66 121.771 32.1217C110.553 19.5835 95.2189 12.056 78.9141 11.0841C80.1089 11.0137 81.3121 10.9785 82.5239 10.9785C99.4772 10.9785 115.736 18.0933 127.724 30.7577C139.712 43.4223 146.446 60.5991 146.446 78.5092Z" fill="#151520"/>
<path d="M100.367 60.8489C100.486 61.1047 100.547 61.3826 100.548 61.6641V68.2467C100.543 70.3066 100.055 72.3373 99.1242 74.1774C98.1931 76.0175 96.8449 77.6173 95.1848 78.8497C92.5343 80.9194 89.8199 82.861 87.0431 84.8138L81.0627 88.9463C80.2784 89.5122 79.3155 89.7795 78.3504 89.7001C77.8504 89.6419 77.3612 89.515 76.8975 89.3222C76.484 89.1166 76.0835 88.8867 75.6976 88.635C70.2703 84.935 64.8431 81.2371 59.5426 77.352C57.1432 75.6601 54.8106 73.9038 52.4113 72.1501C52.096 71.9622 51.8449 71.7083 51.5227 71.5226C50.6358 70.8399 50.0299 69.8589 49.8188 68.7635C49.7629 68.4726 49.7413 68.176 49.7544 67.8799V61.9269C49.7637 61.6743 49.7428 61.4214 49.6922 61.1736C49.6737 61.137 49.6641 61.0965 49.6641 61.0554C49.6641 61.0145 49.6737 60.974 49.6922 60.9373C49.7105 60.9015 49.7372 60.8705 49.77 60.8467C49.8032 60.823 49.8409 60.8065 49.881 60.7982H49.9433C49.9579 60.9039 49.9793 61.0088 50.0076 61.1119C50.0583 61.7266 50.3268 62.3034 50.7653 62.7398C51.0805 63.1387 51.4649 63.4783 51.9004 63.7427C58.2096 68.4432 64.6476 73.0202 71.1482 77.5327C72.6628 78.6001 74.2377 79.6006 75.7551 80.6655C76.3664 81.0917 77.0479 81.4094 77.7683 81.6043C78.6142 81.8051 79.5048 81.7163 80.294 81.3519C80.5891 81.2237 80.8648 81.0549 81.1136 80.8506C85.2788 77.9065 89.3803 75.0211 93.554 72.0749C94.3737 71.5111 95.1317 70.9482 95.8827 70.3209C97.8606 68.5562 99.3036 66.2782 100.05 63.7427C100.166 63.311 100.25 62.8719 100.303 62.4284C100.357 62.181 100.378 61.9278 100.367 61.6751V60.8489ZM77.9015 51.7548H79.414C81.8683 51.9399 84.2457 52.6917 86.3567 53.9505C87.7827 54.8117 89.1123 55.821 90.3241 56.9613C91.1339 57.6539 91.6707 58.6095 91.8395 59.6583C92.0082 60.6827 91.8529 61.734 91.3948 62.667C91.2685 62.9806 91.0772 63.2324 90.9509 63.482C90.8885 63.6039 90.7821 63.6978 90.6531 63.7449C90.5233 63.7914 90.3815 63.7867 90.2552 63.7317C90.1928 63.7317 90.1928 63.6697 90.1304 63.6697C89.6867 63.356 89.242 63.1043 88.742 62.7863C86.9353 61.5131 84.8988 60.5974 82.7439 60.0891C81.3619 59.7683 79.938 59.6632 78.5234 59.7777C75.638 59.9871 72.8663 60.9804 70.5102 62.6492C69.6216 63.2766 68.6797 63.778 67.731 64.4032C67.6688 64.4032 67.6688 64.4672 67.6067 64.4672C67.5586 64.4603 67.5141 64.4376 67.48 64.4032L62.1795 60.8313C62.0621 60.7647 61.9556 60.6804 61.8639 60.5816C61.7933 60.5351 61.7419 60.465 61.7187 60.384C61.6954 60.303 61.7021 60.2165 61.7374 60.1399C61.7374 60.0759 61.8017 60.0759 61.8639 60.0139L61.9884 59.8881C63.5035 58.8874 64.9542 57.7542 66.467 56.6852C67.7627 55.7397 69.1087 54.8645 70.4991 54.0631C72.1196 53.1708 73.8633 52.5182 75.6729 52.1258C76.3955 51.9099 77.1485 51.7897 77.9015 51.7548ZM75.1135 52.2629V41.2513C75.124 40.8369 75.2999 40.4436 75.602 40.1576C75.9032 39.8717 76.3068 39.7161 76.7237 39.725H79.9295C80.3464 39.7161 80.75 39.8717 81.0512 40.1576C81.3535 40.4436 81.5292 40.8369 81.5399 41.2513V52.0751C79.3948 51.8287 77.2244 51.8934 75.0979 52.2673L75.1135 52.2629ZM100.439 79.2119C100.56 79.4665 100.626 79.7445 100.63 80.0267V86.7333C100.572 89.6894 99.5552 92.5485 97.7281 94.8821C96.9378 95.8677 96.0265 96.7527 95.0161 97.5144C92.35 99.5825 89.5844 101.527 86.7964 103.479L81.2428 107.302C80.7656 107.631 80.2295 107.865 79.6628 107.992C78.9063 108.182 78.1072 108.116 77.3924 107.805C76.8776 107.617 76.3904 107.364 75.9416 107.051C69.7572 102.854 63.5724 98.5908 57.5143 94.1397C55.6216 92.7611 53.7377 91.3827 51.8338 89.9425C50.898 89.2654 50.2671 88.2507 50.0765 87.1154C50.0214 86.8241 50.0005 86.5277 50.0143 86.2319V80.1571C50.0229 79.9267 50.0013 79.6955 49.9499 79.4699C49.8877 79.2799 50.0143 79.0927 50.1409 79.0927C50.1409 79.2183 50.2031 79.2799 50.2031 79.4062C50.2744 80.0976 50.5891 80.7414 51.0919 81.2243C51.3984 81.5513 51.7368 81.8477 52.1026 82.1078C58.665 86.9963 65.4185 91.7586 72.1628 96.3974C73.418 97.281 74.6864 98.0897 75.8863 98.9048C76.3976 99.2968 76.974 99.5961 77.5902 99.7882C78.0526 99.9451 78.5411 100.009 79.0291 99.9773C79.5161 99.9442 79.9919 99.8165 80.4294 99.6C80.7386 99.4586 81.0356 99.2909 81.3179 99.1008C85.8611 95.8982 90.4064 92.6953 94.9495 89.4455C97.4604 87.6423 99.3016 85.0655 100.188 82.1142C100.321 81.6186 100.427 81.1158 100.503 80.6081C100.375 80.1543 100.347 79.6793 100.423 79.2141L100.439 79.2119ZM80.3564 121.263H76.5799C76.1309 121.259 75.7019 121.078 75.3871 120.762C75.0716 120.443 74.8951 120.015 74.8957 119.569L75.1354 106.47C75.4644 106.012 75.9091 105.649 76.4239 105.416L81.6781 104.405C81.7271 104.405 81.776 104.415 81.8215 104.433C81.8668 104.452 81.9079 104.48 81.9419 104.515C81.9775 104.55 82.0043 104.592 82.0235 104.637C82.0419 104.683 82.0511 104.731 82.0511 104.78V119.581C82.0496 120.026 81.8724 120.452 81.5576 120.769C81.2428 121.084 80.8152 121.265 80.367 121.27L80.3564 121.263Z" fill="#151520"/>
<path d="M102.501 58.7162C102.619 58.972 102.68 59.2499 102.681 59.5313V66.114C102.675 68.1738 102.188 70.2042 101.258 72.0444C100.327 73.8846 98.9781 75.4843 97.3177 76.7167C94.6672 78.7865 91.9528 80.728 89.176 82.6808L83.1956 86.8141C82.4113 87.3792 81.4484 87.6467 80.4833 87.5672C79.9834 87.5091 79.4941 87.3821 79.0304 87.1892C78.617 86.9836 78.2164 86.7545 77.8306 86.5021C72.4032 82.8021 66.9761 79.1049 61.6755 75.2191C59.2762 73.5272 56.9435 71.7708 54.5443 70.0171C54.2289 69.8293 53.9778 69.5753 53.6557 69.3897C52.7688 68.7072 52.163 67.726 51.9517 66.6308C51.8959 66.3399 51.8742 66.0433 51.8873 65.7472V59.7942C51.8966 59.5416 51.8758 59.2886 51.8252 59.0409C51.8065 59.0042 51.7969 58.9638 51.7969 58.9227C51.7969 58.8816 51.8065 58.8412 51.8252 58.8045C51.8436 58.7686 51.8702 58.7377 51.9029 58.714C51.9361 58.6903 51.974 58.6737 52.0139 58.6654H52.0762C52.0908 58.7712 52.1124 58.876 52.1406 58.9791C52.1912 59.5939 52.4597 60.1707 52.8982 60.6071C53.2134 61.0059 53.5978 61.3455 54.0334 61.61C60.3425 66.3105 66.7806 70.8875 73.2811 75.4006C74.7956 76.4671 76.3706 77.4676 77.888 78.5327C78.4993 78.9588 79.1807 79.2765 79.9012 79.4715C80.7471 79.6722 81.6377 79.5836 82.4269 79.2198C82.7219 79.0907 82.9977 78.922 83.2466 78.7178C87.4118 75.7736 91.5132 72.889 95.6868 69.942C96.5067 69.3787 97.2647 68.8155 98.0157 68.1881C99.9931 66.4235 101.436 64.1455 102.183 61.61C102.299 61.1783 102.383 60.7392 102.436 60.2956C102.49 60.0483 102.511 59.7951 102.501 59.5423V58.7162ZM80.0344 49.622H81.5469C84.0011 49.8071 86.3787 50.5589 88.4896 51.8177C89.9156 52.6789 91.2452 53.6882 92.4569 54.8285C93.2667 55.521 93.8036 56.4768 93.9724 57.5256C94.1411 58.55 93.9857 59.6013 93.5277 60.5341C93.4015 60.8479 93.2101 61.0996 93.0839 61.3492C93.0215 61.4711 92.9151 61.5649 92.786 61.6121C92.6563 61.6587 92.5144 61.6538 92.3881 61.5988C92.3257 61.5988 92.3258 61.537 92.2641 61.537C91.8196 61.2233 91.3749 60.9715 90.875 60.6534C89.0683 59.3804 87.0317 58.4647 84.8776 57.9563C83.4948 57.6356 82.0709 57.5304 80.6563 57.6449C77.771 57.8542 74.9991 58.8476 72.6428 60.5165C71.7544 61.1437 70.8126 61.6452 69.864 62.2704C69.8018 62.2704 69.8018 62.3344 69.7397 62.3344C69.6915 62.3274 69.647 62.3049 69.613 62.2704L64.3124 58.6985C64.195 58.6319 64.0887 58.5476 63.997 58.4489C63.9264 58.4023 63.8749 58.3323 63.8516 58.2512C63.8284 58.1703 63.835 58.0837 63.8704 58.0071C63.8704 57.9432 63.9348 57.9432 63.997 57.8812L64.1213 57.7553C65.6364 56.7547 67.0871 55.6215 68.6 54.5524C69.8957 53.6069 71.2418 52.7317 72.6323 51.9303C74.2533 51.0381 75.9962 50.3854 77.8058 49.9931C78.5284 49.7771 79.2815 49.6569 80.0344 49.622ZM77.2463 50.1301V39.1185C77.2569 38.704 77.4327 38.3109 77.7349 38.0248C78.0362 37.7388 78.4397 37.5833 78.8567 37.5922H82.0624C82.4794 37.5833 82.8829 37.7388 83.1849 38.0248C83.4863 38.3109 83.6621 38.704 83.6727 39.1185V49.9423C81.5278 49.6959 79.3573 49.7607 77.2307 50.1344L77.2463 50.1301ZM102.572 77.0791C102.694 77.3343 102.759 77.6123 102.763 77.8944V84.6004C102.705 87.5573 101.688 90.4156 99.8614 92.7493C99.0707 93.7356 98.159 94.6199 97.1491 95.382C94.4828 97.4498 91.7173 99.3934 88.9292 101.346L83.3756 105.17C82.8985 105.5 82.3623 105.734 81.7958 105.86C81.0392 106.049 80.24 105.983 79.5253 105.671C79.0112 105.484 78.5234 105.232 78.0745 104.918C71.8899 100.721 65.7053 96.4577 59.6473 92.0068C57.7545 90.6284 55.8706 89.2505 53.9667 87.8104C53.031 87.1333 52.4 86.1179 52.2094 84.9827C52.1542 84.6919 52.1335 84.3947 52.1473 84.0991V78.0243C52.1558 77.7939 52.1341 77.5627 52.0828 77.3379C52.0207 77.1478 52.1473 76.9599 52.2739 76.9599C52.2739 77.0854 52.3361 77.1478 52.3361 77.2733C52.4073 77.9647 52.7221 78.6086 53.2247 79.0915C53.5313 79.4183 53.8698 79.7147 54.2356 79.9751C60.7981 84.8635 67.5514 89.6256 74.2958 94.2646C75.5509 95.148 76.8194 95.9564 78.0192 96.772C78.5305 97.1641 79.107 97.4633 79.7231 97.655C80.1855 97.812 80.674 97.8763 81.1619 97.8441C81.6491 97.811 82.1248 97.6842 82.5623 97.4675C82.8715 97.3257 83.1686 97.1584 83.4508 96.9683C87.9939 93.7654 92.5393 90.5624 97.0824 87.3133C99.5933 85.5101 101.435 82.9326 102.32 79.9813C102.455 79.4856 102.56 78.9829 102.636 78.4752C102.508 78.022 102.48 77.5463 102.556 77.0812L102.572 77.0791ZM82.4893 119.13H78.7127C78.2639 119.127 77.8348 118.945 77.52 118.628C77.2045 118.311 77.0279 117.882 77.0287 117.435L77.2683 104.338C77.5973 103.879 78.0419 103.516 78.5567 103.284L83.8111 102.273C83.8599 102.272 83.9089 102.281 83.9543 102.301C83.9996 102.319 84.0408 102.348 84.0755 102.382C84.1103 102.417 84.1372 102.459 84.1563 102.505C84.1748 102.549 84.184 102.598 84.184 102.647V117.448C84.1826 117.892 84.0053 118.32 83.6905 118.635C83.3756 118.951 82.9481 119.131 82.4999 119.137L82.4893 119.13Z" fill="white"/>
</g>
</g>
</g>
<path d="M698.981 84.5242H678.769C678.645 83.0362 678.397 79.3162 672.321 79.3162C667.981 79.3162 666.493 82.0442 666.493 83.9042C666.493 87.6242 671.577 89.7322 677.033 91.3442C688.689 94.5682 701.089 98.0402 701.089 112.92C701.089 127.428 688.317 136.356 673.065 136.356C662.649 136.356 646.901 131.644 645.041 113.54H665.501C666.369 119.864 672.445 119.864 673.313 119.864C676.785 119.864 680.505 117.88 680.505 114.532C680.505 109.2 675.421 108.58 662.277 103.496C653.349 100.644 645.909 94.8162 645.909 85.5162C645.909 71.8762 658.309 62.8242 672.569 62.8242C681.621 62.8242 697.245 66.4202 698.981 84.5242Z" fill="white"/>
<path d="M633.189 42.2402V65.1802H643.109V80.8042H633.189V134H612.605V80.8042H602.437V65.1802H612.605V42.2402H633.189Z" fill="white"/>
<path d="M576.088 112.424H597.168C593.82 120.112 588.984 126.064 583.156 130.032C577.452 134.124 570.632 136.232 563.564 136.232C543.848 136.232 527.108 120.236 527.108 99.7762C527.108 80.5562 542.236 62.8242 563.192 62.8242C584.148 62.8242 599.524 79.4402 599.524 100.396C599.524 103.124 599.276 104.24 599.028 105.852H547.444C548.684 114.036 555.504 118.872 563.564 118.872C569.888 118.872 573.236 116.02 576.088 112.424ZM547.692 91.9642H578.94C578.072 87.8722 573.98 80.1842 563.316 80.1842C552.652 80.1842 548.56 87.8722 547.692 91.9642Z" fill="white"/>
<path d="M520.906 84.5242H500.694C500.57 83.0362 500.322 79.3162 494.246 79.3162C489.906 79.3162 488.418 82.0442 488.418 83.9042C488.418 87.6242 493.502 89.7322 498.958 91.3442C510.614 94.5682 523.014 98.0402 523.014 112.92C523.014 127.428 510.242 136.356 494.99 136.356C484.574 136.356 468.826 131.644 466.966 113.54H487.426C488.294 119.864 494.37 119.864 495.238 119.864C498.71 119.864 502.43 117.88 502.43 114.532C502.43 109.2 497.346 108.58 484.202 103.496C475.274 100.644 467.834 94.8162 467.834 85.5162C467.834 71.8762 480.234 62.8242 494.494 62.8242C503.546 62.8242 519.17 66.4202 520.906 84.5242Z" fill="white"/>
<path d="M461.506 84.5242H441.294C441.17 83.0362 440.922 79.3162 434.846 79.3162C430.506 79.3162 429.018 82.0442 429.018 83.9042C429.018 87.6242 434.102 89.7322 439.558 91.3442C451.214 94.5682 463.614 98.0402 463.614 112.92C463.614 127.428 450.842 136.356 435.59 136.356C425.174 136.356 409.426 131.644 407.566 113.54H428.026C428.894 119.864 434.97 119.864 435.838 119.864C439.31 119.864 443.03 117.88 443.03 114.532C443.03 109.2 437.946 108.58 424.802 103.496C415.874 100.644 408.434 94.8162 408.434 85.5162C408.434 71.8762 420.834 62.8242 435.094 62.8242C444.146 62.8242 459.77 66.4202 461.506 84.5242Z" fill="white"/>
<path d="M376.094 120.732H344.226L339.39 134H314.218L351.046 42.2402H369.522L405.978 134H380.558L376.094 120.732ZM360.098 70.7602L350.674 102.132H369.894L360.47 70.7602H360.346H360.098Z" fill="white"/>
<path d="M308.112 42.2402V134H288.52V126.56H288.272C286.536 129.412 281.576 136.232 267.688 136.232C246.856 136.232 233.216 120.112 233.216 99.4042C233.216 76.0922 249.832 62.8242 267.316 62.8242C279.468 62.8242 285.296 68.7762 287.528 71.0082V42.2402H308.112ZM253.8 99.2802C253.8 109.944 261.364 117.012 271.036 117.012C283.932 117.012 288.644 106.472 288.644 99.2802C288.644 90.9722 282.692 82.0442 271.284 82.0442C259.38 82.0442 253.8 91.3442 253.8 99.2802Z" fill="white"/>
<defs>
<radialGradient id="paint0_radial_1893_701" cx="0" cy="0" r="1" gradientUnits="userSpaceOnUse" gradientTransform="translate(128.75 92) rotate(90) scale(77 106.75)">
<stop stop-color="#636363" stop-opacity="0.82"/>
<stop offset="1" stop-color="#8B8B8B" stop-opacity="0"/>
</radialGradient>
<linearGradient id="paint1_linear_1893_701" x1="171.043" y1="101.575" x2="168.885" y2="73.7849" gradientUnits="userSpaceOnUse">
<stop stop-color="#3DDCA3"/>
<stop offset="1" stop-color="#15D484" stop-opacity="0"/>
</linearGradient>
<linearGradient id="paint2_linear_1893_701" x1="87.0439" y1="53.0174" x2="108.417" y2="76.9294" gradientUnits="userSpaceOnUse">
<stop stop-color="#3DDCA3"/>
<stop offset="1" stop-color="#3DDC99" stop-opacity="0"/>
</linearGradient>
<linearGradient id="paint3_linear_1893_701" x1="226.562" y1="56.8347" x2="209.707" y2="79.793" gradientUnits="userSpaceOnUse">
<stop stop-color="#3DDCA3"/>
<stop offset="1" stop-color="#3DDC99" stop-opacity="0"/>
</linearGradient>
<linearGradient id="paint4_linear_1893_701" x1="nan" y1="nan" x2="nan" y2="nan" gradientUnits="userSpaceOnUse">
<stop stop-color="#5E15D4"/>
<stop offset="1" stop-color="#5E15D4" stop-opacity="0"/>
</linearGradient>
<linearGradient id="paint5_linear_1893_701" x1="nan" y1="nan" x2="nan" y2="nan" gradientUnits="userSpaceOnUse">
<stop stop-color="#5E15D4"/>
<stop offset="1" stop-color="#5E15D4" stop-opacity="0"/>
</linearGradient>
<linearGradient id="paint6_linear_1893_701" x1="nan" y1="nan" x2="nan" y2="nan" gradientUnits="userSpaceOnUse">
<stop stop-color="#5E15D4"/>
<stop offset="1" stop-color="#5E15D4" stop-opacity="0"/>
</linearGradient>
<clipPath id="clip0_1893_701">
<rect width="156" height="156" fill="white"/>
</clipPath>
</defs>
</svg>
