<svg width="109" height="113" viewBox="0 0 109 113" fill="none" xmlns="http://www.w3.org/2000/svg">
<path d="M7 20.089C7.19976 20.2928 7.54995 20.4795 7.57552 20.7031C7.82432 22.8803 9.18536 24.342 10.8391 25.5115C26.0253 36.251 41.2148 46.986 56.4561 57.6476C60.1373 60.2228 63.0564 60.0738 66.6895 57.5202C74.9902 51.6853 83.2842 45.8408 91.5669 39.9807C96.2631 36.6577 99.6883 32.3382 101.48 26.868C102.105 24.9591 102.345 22.9258 102.608 21.6787C102.608 26.4442 102.961 31.9692 102.518 37.4301C101.971 44.1624 98.5778 49.714 93.1587 53.7117C84.132 60.3705 74.9273 66.7935 65.718 73.203C62.7234 75.2872 59.5509 74.7414 56.6174 72.8367C53.6089 70.8831 50.6242 68.8885 47.6981 66.8154C35.5739 58.2239 23.4796 49.5906 11.3647 40.986C9.28915 39.5116 7.64983 37.7691 7.28069 35.134C7.28942 30.8525 7.30476 26.5707 7.29363 22.2892C7.29273 21.964 7.10229 21.6395 7 21.3149C7 20.9063 7 20.4978 7 20.089Z" fill="#3ECF8E"/>
<path d="M7 20.5252C7.19976 20.729 7.54995 20.9157 7.57552 21.1393C7.82432 23.3164 9.18536 24.7782 10.8391 25.9477C26.0253 36.6872 41.2148 47.4222 56.4561 58.0837C60.1373 60.6589 63.0564 60.5099 66.6895 57.9564C74.9902 52.1214 83.2842 46.2769 91.5669 40.4169C96.2631 37.0939 99.6883 32.7743 101.48 27.3042C102.105 25.3953 102.345 23.362 102.608 22.1149C102.608 26.8804 102.962 32.4054 102.518 37.8663C101.971 44.5985 98.5778 50.1502 93.1587 54.1478C84.132 60.8067 74.9273 67.2296 65.718 73.6391C62.7234 75.7233 59.5509 75.1775 56.6174 73.2728C53.6089 71.3193 50.6242 69.3247 47.6981 67.2515C35.5739 58.6601 23.4796 50.0267 11.3647 41.4221C9.28915 39.9478 7.64983 38.2052 7.28069 35.5701C7.28942 31.2886 7.30476 27.0069 7.29363 22.7254C7.29273 22.4002 7.10229 22.0756 7 21.751C7 21.3425 7 20.934 7 20.5252Z" fill="#3ECF8E"/>
<path d="M7.0003 54.6861C7.19134 54.814 7.53461 54.9255 7.55055 55.0721C7.8156 57.4998 9.448 58.9654 11.2567 60.2809C18.2174 65.3431 25.1414 70.4569 32.1782 75.4128C39.969 80.8991 47.8608 86.2437 55.7226 91.6302C60.2272 94.7167 62.7263 94.7296 67.2243 91.5852C75.2028 86.0078 83.1316 80.3599 91.105 74.7747C95.8572 71.446 99.4586 67.2206 101.327 61.7126C102.02 59.6677 102.302 57.4848 103.05 55.3607C102.844 61.2891 103.022 67.2619 102.329 73.1337C101.587 79.4245 98.1184 84.5619 93.0262 88.3012C84.0685 94.8791 74.9444 101.236 65.8329 107.604C62.6394 109.837 59.3836 109.174 56.3381 107.147C52.3718 104.506 48.4138 101.849 44.5289 99.0929C33.3314 91.1473 22.1727 83.1479 10.998 75.1706C9.00064 73.7448 7.57251 71.9552 7.26324 69.4436C7.27708 65.1055 7.29634 60.7676 7.29122 56.4298C7.29092 56.1553 7.10139 55.8807 7 55.6062C7.0003 55.299 7.0003 54.9927 7.0003 54.6861Z" fill="#3ECF8E"/>
<path d="M7.0003 54.2145C7.19134 54.3425 7.53461 54.454 7.55055 54.6005C7.8156 57.0283 9.448 58.4939 11.2567 59.8093C18.2174 64.8716 25.1414 69.9854 32.1782 74.9412C39.969 80.4276 47.8608 85.7721 55.7226 91.1587C60.2272 94.2452 62.7263 94.258 67.2243 91.1137C75.2028 85.5362 83.1316 79.8884 91.105 74.3031C95.8572 70.9744 99.4586 66.749 101.327 61.2411C102.02 59.1961 102.302 57.0133 103.05 54.8892C102.844 60.8176 103.022 66.7904 102.329 72.6622C101.587 78.9529 98.1184 84.0904 93.0262 87.8297C84.0685 94.4076 74.9444 100.764 65.8329 107.133C62.6394 109.365 59.3836 108.702 56.3381 106.675C52.3717 104.035 48.4138 101.378 44.5289 98.6213C33.3314 90.6758 22.1727 82.6763 10.998 74.699C9.00064 73.2733 7.57251 71.4837 7.26324 68.972C7.27708 64.6339 7.29634 60.2961 7.29122 55.9583C7.29092 55.6837 7.10139 55.4092 7 55.1346C7.0003 54.8274 7.0003 54.5211 7.0003 54.2145Z" fill="#3ECF8E"/>
<path d="M29.2122 18.9262C29.4718 18.6315 29.6057 18.4037 29.8033 18.2659C34.6352 14.8961 39.382 11.3939 44.3376 8.21363C49.4658 4.92273 55.129 2.99044 61.3243 3.00004C67.0988 3.00903 72.3368 4.83701 77.086 7.99514C79.3818 9.5219 81.6041 11.2069 83.6412 13.058C86.9339 16.0501 87.2748 21.3787 84.6547 24.961C84.0693 25.7615 83.46 25.8134 82.6914 25.3021C81.6246 24.5926 80.5659 23.8697 79.4804 23.1896C68.5197 16.3216 57.5571 16.3956 46.5978 23.1986C44.8562 24.2797 43.1318 25.3902 41.3574 26.4152C41.0012 26.6211 40.3204 26.7023 40.0162 26.5015C36.5962 24.242 33.2189 21.9182 29.8373 19.6014C29.6346 19.4629 29.4938 19.2355 29.2122 18.9262Z" fill="#3ECF8E"/>
<path d="M7 20.089C7.19976 20.2928 7.54995 20.4795 7.57552 20.7031C7.82432 22.8803 9.18536 24.342 10.8391 25.5115C26.0253 36.251 41.2148 46.986 56.4561 57.6476C60.1373 60.2228 63.0564 60.0738 66.6895 57.5202C74.9901 51.6853 83.2842 45.8408 91.5669 39.9807C96.2631 36.6577 99.6883 32.3382 101.48 26.868C102.105 24.9591 102.345 22.9258 102.608 21.6787C102.608 26.4442 102.961 31.9692 102.518 37.4301C101.971 44.1624 98.5778 49.714 93.1587 53.7117C84.132 60.3705 74.9273 66.7935 65.718 73.203C62.7234 75.2872 59.5509 74.7414 56.6174 72.8367C53.6089 70.8831 50.6242 68.8885 47.6981 66.8154C35.5739 58.2239 23.4796 49.5906 11.3647 40.986C9.28915 39.5116 7.64983 37.7691 7.28069 35.134C7.28942 30.8525 7.30476 26.5707 7.29363 22.2892C7.29273 21.964 7.10229 21.6395 7 21.3149C7 20.9063 7 20.4978 7 20.089Z" fill="url(#paint0_linear_8232_564)" fill-opacity="0.5"/>
<path d="M7 20.5252C7.19976 20.729 7.54995 20.9157 7.57552 21.1393C7.82432 23.3164 9.18536 24.7782 10.8391 25.9477C26.0253 36.6872 41.2148 47.4222 56.4561 58.0837C60.1373 60.6589 63.0564 60.51 66.6895 57.9564C74.9902 52.1214 83.2842 46.2769 91.5669 40.4169C96.2631 37.0939 99.6883 32.7743 101.48 27.3042C102.105 25.3953 102.345 23.362 102.608 22.1149C102.608 26.8804 102.962 32.4054 102.518 37.8663C101.971 44.5985 98.5778 50.1502 93.1587 54.1478C84.132 60.8067 74.9273 67.2296 65.718 73.6391C62.7234 75.7233 59.5509 75.1775 56.6174 73.2728C53.6089 71.3193 50.6242 69.3247 47.6981 67.2515C35.5739 58.6601 23.4796 50.0267 11.3647 41.4221C9.28915 39.9478 7.64983 38.2052 7.28069 35.5701C7.28942 31.2886 7.30476 27.0069 7.29363 22.7254C7.29273 22.4002 7.10229 22.0756 7 21.751C7 21.3425 7 20.934 7 20.5252Z" fill="url(#paint1_linear_8232_564)" fill-opacity="0.5"/>
<path d="M7.0003 54.6861C7.19134 54.814 7.53461 54.9255 7.55055 55.0721C7.8156 57.4998 9.448 58.9654 11.2567 60.2809C18.2174 65.3431 25.1414 70.4569 32.1782 75.4128C39.969 80.8991 47.8608 86.2437 55.7226 91.6302C60.2272 94.7167 62.7263 94.7296 67.2243 91.5852C75.2028 86.0078 83.1316 80.3599 91.105 74.7747C95.8572 71.446 99.4586 67.2206 101.327 61.7126C102.02 59.6677 102.302 57.4848 103.05 55.3607C102.844 61.2891 103.022 67.2619 102.329 73.1337C101.587 79.4245 98.1184 84.5619 93.0262 88.3012C84.0685 94.8791 74.9444 101.236 65.8329 107.604C62.6394 109.837 59.3836 109.174 56.3381 107.147C52.3718 104.506 48.4138 101.849 44.5289 99.0929C33.3314 91.1473 22.1727 83.1479 10.998 75.1706C9.00064 73.7448 7.57251 71.9552 7.26324 69.4436C7.27708 65.1055 7.29634 60.7676 7.29122 56.4298C7.29092 56.1553 7.10139 55.8807 7 55.6062C7.0003 55.299 7.0003 54.9927 7.0003 54.6861Z" fill="url(#paint2_linear_8232_564)" fill-opacity="0.5"/>
<path d="M7.0003 54.2145C7.19134 54.3425 7.53461 54.454 7.55055 54.6005C7.8156 57.0283 9.448 58.4939 11.2567 59.8093C18.2174 64.8716 25.1414 69.9854 32.1782 74.9412C39.969 80.4276 47.8608 85.7721 55.7226 91.1587C60.2272 94.2452 62.7263 94.258 67.2243 91.1137C75.2028 85.5362 83.1316 79.8884 91.105 74.3031C95.8572 70.9744 99.4586 66.749 101.327 61.2411C102.02 59.1961 102.302 57.0133 103.05 54.8892C102.844 60.8176 103.022 66.7904 102.329 72.6622C101.587 78.9529 98.1184 84.0904 93.0262 87.8297C84.0685 94.4076 74.9444 100.764 65.8329 107.133C62.6394 109.365 59.3836 108.702 56.3381 106.675C52.3717 104.035 48.4138 101.378 44.5289 98.6213C33.3314 90.6758 22.1727 82.6763 10.998 74.699C9.00064 73.2733 7.57251 71.4837 7.26324 68.972C7.27708 64.6339 7.29634 60.2961 7.29122 55.9583C7.29092 55.6837 7.10139 55.4092 7 55.1346C7.0003 54.8274 7.0003 54.5211 7.0003 54.2145Z" fill="url(#paint3_linear_8232_564)" fill-opacity="0.5"/>
<path d="M29.2122 18.9262C29.4718 18.6315 29.6057 18.4037 29.8033 18.2659C34.6352 14.8961 39.382 11.3939 44.3376 8.21363C49.4658 4.92273 55.129 2.99044 61.3243 3.00004C67.0988 3.00903 72.3368 4.83701 77.086 7.99514C79.3818 9.5219 81.6041 11.2069 83.6412 13.058C86.9339 16.0501 87.2748 21.3787 84.6547 24.961C84.0693 25.7615 83.46 25.8134 82.6914 25.3021C81.6246 24.5926 80.5659 23.8697 79.4804 23.1896C68.5197 16.3216 57.5571 16.3956 46.5978 23.1986C44.8562 24.2797 43.1318 25.3902 41.3574 26.4152C41.0012 26.6211 40.3204 26.7023 40.0162 26.5015C36.5962 24.242 33.2189 21.9182 29.8373 19.6014C29.6346 19.4629 29.4938 19.2355 29.2122 18.9262Z" fill="url(#paint4_linear_8232_564)" fill-opacity="0.5"/>
<defs>
<linearGradient id="paint0_linear_8232_564" x1="7" y1="181.668" x2="124.387" y2="-64.0781" gradientUnits="userSpaceOnUse">
<stop stop-opacity="0.19"/>
<stop offset="1" stop-opacity="0"/>
</linearGradient>
<linearGradient id="paint1_linear_8232_564" x1="7" y1="181.668" x2="124.387" y2="-64.0781" gradientUnits="userSpaceOnUse">
<stop stop-opacity="0.19"/>
<stop offset="1" stop-opacity="0"/>
</linearGradient>
<linearGradient id="paint2_linear_8232_564" x1="7" y1="181.668" x2="124.387" y2="-64.0781" gradientUnits="userSpaceOnUse">
<stop stop-opacity="0.19"/>
<stop offset="1" stop-opacity="0"/>
</linearGradient>
<linearGradient id="paint3_linear_8232_564" x1="7" y1="181.668" x2="124.387" y2="-64.0781" gradientUnits="userSpaceOnUse">
<stop stop-opacity="0.19"/>
<stop offset="1" stop-opacity="0"/>
</linearGradient>
<linearGradient id="paint4_linear_8232_564" x1="7" y1="181.668" x2="124.387" y2="-64.0781" gradientUnits="userSpaceOnUse">
<stop stop-opacity="0.19"/>
<stop offset="1" stop-opacity="0"/>
</linearGradient>
</defs>
</svg>
