<svg width="24" height="24" viewBox="0 0 24 24" fill="none" xmlns="http://www.w3.org/2000/svg">
<path fill-rule="evenodd" clip-rule="evenodd" d="M4 5.87555C4.034 5.90955 4.09265 5.941 4.0969 5.97925C4.13855 6.3456 4.36635 6.59125 4.6443 6.78845C7.1909 8.59725 9.7392 10.4044 12.296 12.1996C12.9131 12.6331 13.4027 12.6076 14.0122 12.1783C15.4045 11.1957 16.7959 10.2114 18.1856 9.22455C18.9727 8.66525 19.5474 7.93765 19.8474 7.0171C19.9528 6.6958 19.9928 6.35325 20.037 6.1433C20.037 6.9457 20.0965 7.8756 20.0217 8.7953C19.9299 9.9292 19.3612 10.8634 18.4517 11.5366C16.9387 12.6586 15.3943 13.7389 13.849 14.8184C13.3475 15.1695 12.8145 15.0776 12.3224 14.7572C11.8169 14.4293 11.3181 14.0912 10.8264 13.7432C8.794 12.2965 6.7642 10.8429 4.73185 9.3937C4.38335 9.1455 4.1088 8.85225 4.04675 8.40855C4.04845 7.68775 4.051 6.96695 4.0493 6.247C4.0493 6.1926 4.017 6.13735 4 6.08295V5.87555Z" fill="black"/>
<path fill-rule="evenodd" clip-rule="evenodd" d="M4 11.7057C4.0323 11.727 4.08925 11.7457 4.09265 11.7703C4.13685 12.1792 4.41055 12.4257 4.714 12.6475C5.8819 13.5001 7.043 14.3611 8.22365 15.195C9.5301 16.1189 10.8536 17.0191 12.1728 17.926C12.9284 18.4454 13.3475 18.4479 14.1023 17.9175C15.4402 16.9791 16.7704 16.028 18.1075 15.087C18.9048 14.5269 19.5091 13.8163 19.8219 12.8881C19.9383 12.5438 19.986 12.1766 20.1109 11.8188C20.0769 12.8175 20.1067 13.8231 19.9902 14.8108C19.8661 15.8707 19.2847 16.736 18.4296 17.365C16.9276 18.4726 15.3968 19.5427 13.8685 20.6154C13.333 20.9911 12.7865 20.8789 12.2756 20.5389C11.6087 20.0965 10.9485 19.6443 10.2951 19.1823C8.4166 17.8444 6.5449 16.4972 4.67065 15.1542C4.33575 14.9145 4.09605 14.6127 4.0442 14.1903C4.04675 13.4593 4.0493 12.7291 4.04845 11.999C4.04845 11.9531 4.017 11.9063 4 11.8604V11.7057ZM7.7587 5.68176C7.80205 5.63161 7.825 5.59336 7.85815 5.57041C8.6682 5.00261 9.46465 4.41356 10.2959 3.87806C11.1561 3.32301 12.1065 2.99831 13.1452 3.00001C14.1142 3.00171 14.9922 3.30941 15.7887 3.84151C16.1746 4.09821 16.5468 4.38211 16.8885 4.69321C17.441 5.19726 17.498 6.09401 17.0585 6.69751C16.9608 6.83266 16.8579 6.84116 16.7296 6.75531C16.5511 6.63631 16.3726 6.51391 16.1907 6.39916C14.3522 5.24316 12.5136 5.25506 10.6751 6.40086C10.3827 6.58276 10.0937 6.76976 9.79615 6.94231C9.73665 6.97631 9.6219 6.99076 9.5709 6.95676C8.99715 6.57681 8.43105 6.18496 7.8641 5.79481C7.8301 5.77186 7.8063 5.73361 7.7587 5.68176Z" fill="black"/>
</svg>
