<svg width="830" height="540" viewBox="0 0 830 540" fill="none" xmlns="http://www.w3.org/2000/svg">
<g clip-path="url(#clip0_1908_848)">
<mask id="mask0_1908_848" style="mask-type:luminance" maskUnits="userSpaceOnUse" x="0" y="0" width="830" height="540">
<path d="M830 0H0V540H830V0Z" fill="white"/>
</mask>
<g mask="url(#mask0_1908_848)">
<path d="M373.688 42.002H415.09M373.688 42.002V83.4043M373.688 42.002V0.599609M373.688 42.002H332.285M415.09 42.002V83.4043M415.09 42.002L373.688 0.599609M415.09 42.002H456.492M415.09 42.002L456.492 83.4043M415.09 42.002L456.492 0.599609M373.688 83.4043H415.09M373.688 83.4043L332.285 42.002M373.688 83.4043V124.807M373.688 83.4043L332.285 124.807M373.688 83.4043L415.09 124.807M373.688 83.4043H332.285M373.688 0.599609H332.285M332.285 42.002V0.599609M332.285 42.002V83.4043M332.285 42.002H290.883M332.285 42.002L290.883 83.4043M415.09 83.4043V124.807M415.09 83.4043H456.492M456.492 42.002V83.4043M456.492 42.002V0.599609M456.492 42.002H497.895M456.492 83.4043V124.807M456.492 83.4043L497.895 124.807M456.492 83.4043L497.895 42.002M456.492 83.4043H497.895M456.492 0.599609H497.895M373.688 124.807H415.09M373.688 124.807V166.209M373.688 124.807H332.285M332.285 124.807V166.209M332.285 124.807H290.883M332.285 124.807V83.4043M332.285 124.807L290.883 166.209M415.09 124.807L456.492 166.209M415.09 124.807H456.492M415.09 124.807L373.688 166.209M415.09 124.807V166.209M332.285 83.4043H290.883M332.285 0.599609H290.883M290.883 42.002V0.599609M290.883 42.002H249.48M290.883 42.002V83.4043M290.883 83.4043H249.48M290.883 83.4043L249.48 124.807M290.883 83.4043V124.807M497.895 42.002V0.599609M497.895 42.002V83.4043M497.895 42.002H539.297M497.895 42.002L539.297 83.4043M456.492 124.807V166.209M456.492 124.807H497.895M497.895 124.807V166.209M497.895 124.807H539.297M497.895 124.807V83.4043M497.895 124.807L539.297 166.209M497.895 83.4043H539.297M497.895 0.599609H539.297M456.492 166.209H497.895M456.492 166.209H415.09M456.492 166.209L415.09 207.611M373.688 166.209H415.09M373.688 166.209L415.09 207.611M373.688 166.209H332.285M415.09 166.209V207.611M332.285 166.209H290.883M332.285 166.209V207.611M290.883 124.807H249.48M290.883 124.807V166.209M290.883 166.209H249.48M290.883 166.209V207.611M290.883 166.209L249.48 207.611M290.883 0.599609L249.48 42.002M290.883 0.599609H249.48M249.48 42.002V83.4043M249.48 42.002L208.078 83.4043M249.48 42.002V0.599609M249.48 42.002H208.078M249.48 0.599609H208.078M249.48 83.4043H208.078M249.48 83.4043V124.807M249.48 124.807H208.078M249.48 124.807L208.078 166.209M249.48 124.807V166.209M497.895 166.209H539.297M497.895 166.209V207.611M539.297 166.209V124.807M539.297 166.209H580.699M539.297 166.209V207.611M539.297 166.209L580.699 207.611M497.895 207.611V249.014M497.895 207.611L456.492 249.014M497.895 207.611H539.297M497.895 207.611L539.297 249.014M539.297 124.807H580.699M539.297 124.807V83.4043M539.297 42.002V0.599609M539.297 42.002H580.699M539.297 42.002V83.4043M539.297 83.4043H580.699M539.297 83.4043L580.699 124.807M332.285 207.611V249.014M332.285 207.611L373.688 249.014M332.285 207.611H290.883M332.285 207.611L290.883 249.014M415.09 373.221V331.818M415.09 373.221L373.688 331.818M415.09 373.221L456.492 331.818M415.09 373.221H373.688M415.09 373.221V414.623M415.09 373.221H456.492M415.09 373.221L456.492 414.623M415.09 331.818H373.688M415.09 331.818H456.492M415.09 331.818V290.416M373.688 331.818L415.09 290.416M373.688 331.818V373.221M373.688 331.818H332.285M456.492 331.818L415.09 290.416M456.492 331.818H497.895M456.492 331.818V373.221M373.688 373.221V414.623M373.688 373.221H332.285M415.09 414.623H373.688M415.09 414.623V456.025M415.09 414.623H456.492M456.492 373.221V414.623M456.492 373.221H497.895M456.492 414.623V456.025M456.492 414.623L497.895 456.025M456.492 414.623L497.895 373.221M456.492 414.623H497.895M332.285 331.818V290.416M332.285 331.818H290.883M332.285 331.818V373.221M497.895 331.818V290.416M497.895 331.818H539.297M497.895 331.818V373.221M373.688 414.623L332.285 373.221M373.688 414.623V456.025M373.688 414.623L332.285 456.025M373.688 414.623L415.09 456.025M373.688 414.623H332.285M332.285 373.221H290.883M332.285 373.221V414.623M332.285 373.221L290.883 414.623M415.09 456.025L373.688 497.428M415.09 456.025L456.492 497.428M415.09 456.025H456.492M415.09 456.025H373.688M415.09 456.025V497.428M497.895 373.221H539.297M497.895 373.221V414.623M497.895 373.221L539.297 414.623M456.492 456.025V497.428M456.492 456.025H497.895M497.895 456.025V497.428M497.895 456.025H539.297M497.895 456.025V414.623M497.895 456.025L539.297 497.428M497.895 414.623H539.297M332.285 290.416V249.014M332.285 290.416L373.688 249.014M332.285 290.416H290.883M332.285 290.416L290.883 331.818M290.883 331.818H249.48M290.883 331.818V290.416M290.883 331.818V373.221M290.883 331.818L249.48 373.221M580.699 124.807V83.4043M580.699 124.807H622.102M580.699 124.807L622.102 166.209M580.699 124.807V166.209M580.699 166.209H622.102M580.699 166.209V207.611M539.297 207.611H580.699M539.297 207.611V249.014M580.699 207.611H622.102M580.699 207.611V249.014M580.699 207.611L622.102 249.014M497.895 249.014H456.492M497.895 249.014H539.297M497.895 249.014V290.416M456.492 249.014L497.895 290.416M539.297 249.014H580.699M539.297 249.014L580.699 290.416M539.297 249.014V290.416M539.297 0.599609L580.699 42.002M539.297 0.599609H580.699M580.699 42.002V83.4043M580.699 42.002L622.102 83.4043M580.699 42.002V0.599609M580.699 42.002H622.102M580.699 0.599609H622.102M580.699 83.4043H622.102M497.895 290.416H539.297M497.895 290.416L539.297 331.818M539.297 331.818H580.699M539.297 331.818V290.416M539.297 331.818V373.221M539.297 331.818L580.699 373.221M249.48 166.209H208.078M249.48 166.209V207.611M290.883 207.611H249.48M290.883 207.611V249.014M249.48 207.611H208.078M249.48 207.611V249.014M249.48 207.611L208.078 249.014M332.285 249.014H373.688M332.285 249.014H290.883M290.883 249.014H249.48M290.883 249.014L249.48 290.416M290.883 249.014V290.416M208.078 83.4043V124.807M208.078 83.4043L166.676 124.807M208.078 83.4043H166.676M208.078 83.4043V42.002M208.078 124.807V166.209M208.078 124.807H166.676M166.676 124.807V166.209M166.676 124.807H125.273M166.676 124.807V83.4043M166.676 124.807L125.273 166.209M166.676 83.4043H125.273M166.676 83.4043V42.002M208.078 42.002H166.676M208.078 42.002V0.599609M208.078 166.209H166.676M208.078 166.209V207.611M208.078 166.209L166.676 207.611M166.676 166.209H125.273M166.676 166.209V207.611M125.273 124.807V83.4043M125.273 124.807V166.209M125.273 124.807H83.8711M125.273 166.209H83.8711M125.273 166.209V207.611M125.273 166.209L83.8711 207.611M125.273 83.4043L83.8711 124.807M125.273 83.4043L166.676 42.002M125.273 83.4043H83.8711M125.273 83.4043V42.002M166.676 42.002L208.078 0.599609M166.676 42.002V0.599609M166.676 42.002H125.273M208.078 0.599609H166.676M208.078 207.611V249.014M208.078 207.611H166.676M166.676 207.611V249.014M166.676 207.611L125.273 249.014M166.676 207.611H125.273M208.078 249.014H249.48M208.078 249.014V290.416M208.078 249.014L166.676 290.416M208.078 249.014H166.676M166.676 249.014V290.416M166.676 249.014H125.273M125.273 249.014V207.611M125.273 249.014V290.416M125.273 249.014L83.8711 290.416M125.273 249.014H83.8711M125.273 207.611H83.8711M83.8711 124.807V166.209M83.8711 124.807H42.4687M83.8711 124.807V83.4043M83.8711 124.807L42.4688 166.209M83.8711 166.209H42.4688M83.8711 166.209V207.611M83.8711 207.611V249.014M83.8711 207.611L42.4687 249.014M83.8711 207.611H42.4688M166.676 0.599609H125.273M249.48 249.014V290.416M622.102 83.4043V124.807M622.102 83.4043L663.504 124.807M622.102 83.4043H663.504M622.102 83.4043V42.002M622.102 124.807V166.209M622.102 124.807H663.504M663.504 124.807V166.209M663.504 124.807H704.906M663.504 124.807V83.4043M663.504 124.807L704.906 166.209M663.504 83.4043H704.906M663.504 83.4043V42.002M622.102 42.002H663.504M622.102 42.002V0.599609M622.102 166.209H663.504M622.102 166.209V207.611M622.102 166.209L663.504 207.611M663.504 166.209H704.906M663.504 166.209V207.611M704.906 124.807V83.4043M704.906 124.807V166.209M704.906 124.807H746.309M704.906 166.209H746.309M704.906 166.209V207.611M704.906 166.209L746.309 207.611M704.906 83.4043L746.309 124.807M704.906 83.4043L663.504 42.002M704.906 83.4043H746.309M704.906 83.4043V42.002M663.504 42.002L622.102 0.599609M663.504 42.002V0.599609M663.504 42.002H704.906M622.102 0.599609H663.504M622.102 207.611V249.014M622.102 207.611H663.504M663.504 207.611V249.014M663.504 207.611L704.906 249.014M663.504 207.611H704.906M622.102 249.014H580.699M622.102 249.014V290.416M622.102 249.014L663.504 290.416M622.102 249.014H663.504M663.504 249.014V290.416M663.504 249.014H704.906M704.906 249.014V207.611M704.906 249.014V290.416M704.906 249.014L746.309 290.416M704.906 249.014H746.309M704.906 207.611H746.309M746.309 124.807V166.209M746.309 124.807H787.711M746.309 124.807V83.4043M746.309 124.807L787.711 166.209M746.309 166.209H787.711M746.309 166.209V207.611M746.309 207.611V249.014M746.309 207.611L787.711 249.014M746.309 207.611H787.711M663.504 0.599609H704.906M580.699 249.014V290.416M83.8711 83.4043H42.4687M83.8711 83.4043V42.002M125.273 42.002H83.8711M125.273 42.002V0.599609M42.4687 124.807V83.4043M42.4687 124.807L42.4688 166.209M42.4687 124.807H1.06641M42.4688 166.209H1.06641M42.4688 166.209V207.611M42.4688 166.209L1.06641 207.611M42.4687 83.4043L1.06641 124.807M42.4687 83.4043L83.8711 42.002M42.4687 83.4043H1.06641M42.4687 83.4043L42.4688 42.002M83.8711 42.002L125.273 0.599609M83.8711 42.002V0.599609M83.8711 42.002H42.4688M125.273 0.599609H83.8711M83.8711 249.014V290.416M83.8711 249.014H42.4687M42.4687 249.014L42.4688 207.611M42.4687 249.014V290.416M42.4687 249.014L1.06641 290.416M42.4687 249.014H1.06641M42.4688 207.611H1.06641M1.06641 124.807V166.209M1.06641 124.807V83.4043M1.06641 166.209V207.611M1.06641 207.611V249.014M83.8711 0.599609H42.4688M746.309 83.4043H787.711M746.309 83.4043V42.002M704.906 42.002H746.309M704.906 42.002V0.599609M787.711 124.807V83.4043M787.711 124.807V166.209M787.711 124.807H829.113M787.711 166.209H829.113M787.711 166.209V207.611M787.711 166.209L829.113 207.611M787.711 83.4043L829.113 124.807M787.711 83.4043L746.309 42.002M787.711 83.4043H829.113M787.711 83.4043V42.002M746.309 42.002L704.906 0.599609M746.309 42.002V0.599609M746.309 42.002H787.711M704.906 0.599609H746.309M746.309 249.014V290.416M746.309 249.014H787.711M787.711 249.014V207.611M787.711 249.014V290.416M787.711 249.014L829.113 290.416M787.711 249.014H829.113M787.711 207.611H829.113M829.113 124.807V166.209M829.113 124.807V83.4043M829.113 166.209V207.611M829.113 207.611V249.014M746.309 0.599609H787.711M1.06641 83.4043V42.002M42.4688 42.002H1.06641M42.4688 42.002V0.599609M1.06641 42.002L42.4688 0.599609M1.06641 42.002V0.599609H42.4688M1.06641 249.014V290.416M829.113 83.4043V42.002M787.711 42.002H829.113M787.711 42.002V0.599609M829.113 42.002L787.711 0.599609M829.113 42.002V0.599609H787.711M829.113 249.014V290.416M249.48 290.416H208.078M249.48 290.416L208.078 331.818M249.48 290.416V331.818M249.48 290.416H290.883M580.699 290.416H622.102M580.699 290.416L622.102 331.818M580.699 290.416V331.818M580.699 290.416H539.297M208.078 290.416V331.818M208.078 290.416H166.676M166.676 290.416V331.818M166.676 290.416H125.273M166.676 290.416L125.273 331.818M208.078 331.818H166.676M208.078 331.818H249.48M208.078 331.818V373.221M208.078 331.818L166.676 373.221M249.48 331.818V373.221M166.676 331.818H125.273M166.676 331.818V373.221M125.273 290.416V331.818M125.273 290.416H83.8711M125.273 331.818H83.8711M125.273 331.818V373.221M125.273 331.818L83.8711 373.221M208.078 373.221V414.623M208.078 373.221H249.48M208.078 373.221H166.676M166.676 373.221V414.623M166.676 373.221L125.273 414.623M166.676 373.221H125.273M249.48 373.221V414.623M249.48 373.221L208.078 414.623M249.48 373.221H290.883M208.078 414.623H249.48M208.078 414.623V456.025M208.078 414.623L166.676 456.025M208.078 414.623H166.676M166.676 414.623V456.025M166.676 414.623H125.273M125.273 414.623V373.221M125.273 414.623V456.025M125.273 414.623L83.8711 456.025M125.273 414.623H83.8711M125.273 373.221H83.8711M83.8711 290.416V331.818M83.8711 290.416H42.4687M83.8711 290.416L42.4688 331.818M83.8711 331.818H42.4688M83.8711 331.818V373.221M83.8711 373.221V414.623M83.8711 373.221L42.4687 414.623M83.8711 373.221H42.4688M290.883 373.221V414.623M249.48 414.623H290.883M249.48 414.623V456.025M622.102 290.416V331.818M622.102 290.416H663.504M663.504 290.416V331.818M663.504 290.416H704.906M663.504 290.416L704.906 331.818M622.102 331.818H663.504M622.102 331.818H580.699M622.102 331.818V373.221M622.102 331.818L663.504 373.221M580.699 331.818V373.221M663.504 331.818H704.906M663.504 331.818V373.221M704.906 290.416V331.818M704.906 290.416H746.309M704.906 331.818H746.309M704.906 331.818V373.221M704.906 331.818L746.309 373.221M622.102 373.221V414.623M622.102 373.221H580.699M622.102 373.221H663.504M663.504 373.221V414.623M663.504 373.221L704.906 414.623M663.504 373.221H704.906M580.699 373.221V414.623M580.699 373.221L622.102 414.623M580.699 373.221H539.297M622.102 414.623H580.699M622.102 414.623V456.025M622.102 414.623L663.504 456.025M622.102 414.623H663.504M663.504 414.623V456.025M663.504 414.623H704.906M704.906 414.623V373.221M704.906 414.623V456.025M704.906 414.623L746.309 456.025M704.906 414.623H746.309M704.906 373.221H746.309M746.309 290.416V331.818M746.309 290.416H787.711M746.309 290.416L787.711 331.818M746.309 331.818H787.711M746.309 331.818V373.221M746.309 373.221V414.623M746.309 373.221L787.711 414.623M746.309 373.221H787.711M539.297 373.221V414.623M580.699 414.623H539.297M580.699 414.623V456.025M290.883 414.623H332.285M290.883 414.623L249.48 456.025M290.883 414.623V456.025M332.285 414.623V456.025M539.297 414.623V456.025M539.297 414.623L580.699 456.025M42.4687 290.416L42.4688 331.818M42.4687 290.416H1.06641M42.4688 331.818H1.06641M42.4688 331.818V373.221M42.4688 331.818L1.06641 373.221M83.8711 414.623V456.025M83.8711 414.623H42.4687M42.4687 414.623L42.4688 373.221M42.4687 414.623V456.025M42.4687 414.623L1.06641 456.025M42.4687 414.623H1.06641M42.4688 373.221H1.06641M1.06641 290.416V331.818M1.06641 331.818V373.221M1.06641 373.221V414.623M787.711 290.416V331.818M787.711 290.416H829.113M787.711 331.818H829.113M787.711 331.818V373.221M787.711 331.818L829.113 373.221M746.309 414.623V456.025M746.309 414.623H787.711M787.711 414.623V373.221M787.711 414.623V456.025M787.711 414.623L829.113 456.025M787.711 414.623H829.113M787.711 373.221H829.113M829.113 290.416V331.818M829.113 331.818V373.221M829.113 373.221V414.623M1.06641 414.623V456.025M829.113 414.623V456.025M373.688 456.025V497.428M373.688 456.025H332.285M332.285 456.025V497.428M332.285 456.025H290.883M332.285 456.025L290.883 497.428M373.688 497.428V538.83M373.688 497.428L415.09 538.83M373.688 497.428H415.09M373.688 497.428H332.285M456.492 497.428L415.09 538.83M456.492 497.428H415.09M456.492 497.428H497.895M456.492 497.428V538.83M415.09 497.428V538.83M332.285 497.428H290.883M332.285 497.428V538.83M290.883 456.025H249.48M290.883 456.025V497.428M290.883 497.428H249.48M290.883 497.428V538.83M290.883 497.428L249.48 538.83M373.688 538.83H415.09M373.688 538.83H332.285M415.09 538.83H456.492M332.285 538.83H290.883M456.492 538.83H497.895M497.895 497.428H539.297M497.895 497.428V538.83M497.895 538.83H539.297M290.883 538.83H249.48M249.48 456.025H208.078M249.48 456.025L208.078 497.428M249.48 456.025V497.428M539.297 497.428V456.025M539.297 497.428H580.699M539.297 497.428V538.83M539.297 497.428L580.699 538.83M539.297 456.025H580.699M580.699 456.025H622.102M580.699 456.025L622.102 497.428M580.699 456.025V497.428M580.699 497.428H622.102M580.699 497.428V538.83M539.297 538.83H580.699M580.699 538.83H622.102M249.48 497.428H208.078M249.48 497.428V538.83M249.48 538.83H208.078M208.078 456.025V497.428M208.078 456.025H166.676M166.676 456.025V497.428M166.676 456.025H125.273M166.676 456.025L125.273 497.428M208.078 497.428H166.676M208.078 497.428V538.83M208.078 497.428L166.676 538.83M166.676 497.428H125.273M166.676 497.428V538.83M125.273 456.025V497.428M125.273 456.025H83.8711M125.273 497.428H83.8711M125.273 497.428V538.83M125.273 497.428L83.8711 538.83M208.078 538.83H166.676M166.676 538.83H125.273M125.273 538.83H83.8711M83.8711 456.025V497.428M83.8711 456.025H42.4687M83.8711 456.025L42.4688 497.428M83.8711 497.428H42.4688M83.8711 497.428V538.83M83.8711 538.83H42.4688M622.102 456.025V497.428M622.102 456.025H663.504M663.504 456.025V497.428M663.504 456.025H704.906M663.504 456.025L704.906 497.428M622.102 497.428H663.504M622.102 497.428V538.83M622.102 497.428L663.504 538.83M663.504 497.428H704.906M663.504 497.428V538.83M704.906 456.025V497.428M704.906 456.025H746.309M704.906 497.428H746.309M704.906 497.428V538.83M704.906 497.428L746.309 538.83M622.102 538.83H663.504M663.504 538.83H704.906M704.906 538.83H746.309M746.309 456.025V497.428M746.309 456.025H787.711M746.309 456.025L787.711 497.428M746.309 497.428H787.711M746.309 497.428V538.83M746.309 538.83H787.711M42.4687 456.025L42.4688 497.428M42.4687 456.025H1.06641M42.4688 497.428H1.06641M42.4688 497.428V538.83M42.4688 497.428L1.06641 538.83M42.4688 538.83H1.06641M1.06641 456.025V497.428M1.06641 497.428V538.83M787.711 456.025V497.428M787.711 456.025H829.113M787.711 497.428H829.113M787.711 497.428V538.83M787.711 497.428L829.113 538.83M787.711 538.83H829.113M829.113 456.025V497.428M829.113 497.428V538.83" stroke="url(#paint0_radial_1908_848)" stroke-width="0.5"/>
</g>
<path d="M196.068 178.683C195.988 178.705 195.896 178.684 195.834 178.621C195.737 178.526 195.736 178.374 195.831 178.278L215.765 158.211C215.86 158.115 216.011 158.114 216.107 158.209C216.204 158.304 216.205 158.456 216.11 158.552L196.176 178.618C196.145 178.652 196.11 178.672 196.068 178.683Z" fill="url(#paint1_linear_1908_848)"/>
<path d="M90.8171 366.415C90.7199 366.442 90.6087 366.416 90.5325 366.339C90.4153 366.223 90.4147 366.039 90.5303 365.922L114.188 342.155C114.303 342.038 114.487 342.037 114.605 342.153C114.722 342.268 114.722 342.452 114.607 342.57L90.9492 366.337C90.9112 366.378 90.8628 366.403 90.8171 366.415Z" fill="url(#paint2_linear_1908_848)"/>
<path d="M581.212 207.851C581.236 207.943 581.212 208.047 581.139 208.119C581.03 208.228 580.857 208.229 580.747 208.119L559.145 186.479C559.035 186.37 559.035 186.197 559.144 186.088C559.253 185.978 559.426 185.978 559.536 186.087L581.138 207.727C581.176 207.763 581.199 207.803 581.212 207.851Z" fill="url(#paint3_linear_1908_848)"/>
<path d="M759.028 303.259C759.057 303.362 759.033 303.481 758.954 303.562C758.836 303.687 758.644 303.688 758.521 303.565L734.168 279.158C734.045 279.035 734.041 278.839 734.159 278.714C734.277 278.589 734.468 278.588 734.592 278.711L758.944 303.118C758.988 303.158 759.013 303.204 759.028 303.259Z" fill="url(#paint4_linear_1908_848)"/>
</g>
<defs>
<radialGradient id="paint0_radial_1908_848" cx="0" cy="0" r="1" gradientUnits="userSpaceOnUse" gradientTransform="translate(415.09 269.715) rotate(90) scale(269.115 414.023)">
<stop stop-color="#272727"/>
<stop offset="1" stop-color="#292929" stop-opacity="0"/>
</radialGradient>
<linearGradient id="paint1_linear_1908_848" x1="193.918" y1="171.688" x2="218.025" y2="165.143" gradientUnits="userSpaceOnUse">
<stop stop-color="#9489FE"/>
<stop offset="1" stop-color="#121B23"/>
</linearGradient>
<linearGradient id="paint2_linear_1908_848" x1="88.262" y1="358.114" x2="116.869" y2="350.377" gradientUnits="userSpaceOnUse">
<stop stop-color="#9489FE"/>
<stop offset="1" stop-color="#121B23"/>
</linearGradient>
<linearGradient id="paint3_linear_1908_848" x1="573.631" y1="210.163" x2="566.657" y2="184.041" gradientUnits="userSpaceOnUse">
<stop stop-color="#121B23"/>
<stop offset="1" stop-color="#40DCAF"/>
</linearGradient>
<linearGradient id="paint4_linear_1908_848" x1="750.696" y1="305.919" x2="742.422" y2="276.355" gradientUnits="userSpaceOnUse">
<stop stop-color="#121B23"/>
<stop offset="1" stop-color="#40DCAF"/>
</linearGradient>
<clipPath id="clip0_1908_848">
<rect width="830" height="540" fill="white"/>
</clipPath>
</defs>
</svg>
