<svg width="894" height="212" viewBox="0 0 894 212" fill="none" xmlns="http://www.w3.org/2000/svg">
<g opacity="0.7">
<path d="M843.202 80.937L843.201 125.989" stroke="#1F1F1F" stroke-width="0.5" stroke-dasharray="2 2"/>
<path d="M820.781 156.958L820.783 187.398" stroke="#1F1F1F" stroke-width="0.5" stroke-dasharray="2 2"/>
<path d="M851.44 134.514L851.439 154.604" stroke="#1F1F1F" stroke-width="0.5" stroke-dasharray="2 2"/>
<path d="M769.551 69.9722V115.025H785.99" stroke="#1C1C1C" stroke-linecap="round" stroke-linejoin="round"/>
<path d="M752.711 5V21.4378" stroke="#1C1C1C" stroke-linecap="round" stroke-linejoin="round"/>
<path d="M801.215 130.248V163.733" stroke="#1C1C1C" stroke-linecap="round" stroke-linejoin="round"/>
<path d="M765.289 170.428V178.951" stroke="#1C1C1C" stroke-linecap="round" stroke-linejoin="round"/>
<path d="M687.961 138.163V170.431H831.646" stroke="#1C1C1C" stroke-linecap="round" stroke-linejoin="round"/>
<path d="M852.496 189.166V203.917" stroke="#1C1C1C" stroke-linecap="round" stroke-linejoin="round"/>
<path d="M752.489 21.2666H661.164" stroke="#1C1C1C" stroke-linecap="round" stroke-linejoin="round"/>
<path d="M689.043 21.8721V45.8866" stroke="#1C1C1C" stroke-linecap="round" stroke-linejoin="round"/>
<path d="M787.215 204.525H873.67" stroke="#1C1C1C" stroke-linecap="round" stroke-linejoin="round"/>
<path d="M607 21.2666H656.315H661.304" stroke="#1C1C1C" stroke-linecap="round" stroke-linejoin="round"/>
<path d="M661.626 4.6551C661.626 3.1911 660.435 2 658.971 2C657.507 2 656.316 3.1911 656.316 4.6551C656.316 5.9552 657.256 7.0374 658.491 7.2644V21.4819H659.452V7.2644C660.687 7.0374 661.626 5.9552 661.626 4.6551ZM657.276 4.6551C657.276 3.7209 658.037 2.9607 658.971 2.9607C659.904 2.9607 660.665 3.7213 660.665 4.6551C660.665 5.589 659.904 6.3491 658.971 6.3491C658.037 6.3491 657.276 5.589 657.276 4.6551Z" fill="#1F1F1F"/>
<path d="M660.221 4.65372C660.221 3.97472 659.671 3.42432 658.992 3.42432C658.313 3.42432 657.762 3.97472 657.762 4.65372C657.762 5.33272 658.313 5.88312 658.992 5.88312C659.671 5.88312 660.221 5.33272 660.221 4.65372Z" fill="#1F1F1F"/>
<path d="M768.083 152.993C768.083 151.529 766.892 150.338 765.428 150.338C763.964 150.338 762.773 151.529 762.773 152.993C762.773 154.293 763.713 155.375 764.948 155.602V169.82H765.909V155.602C767.144 155.375 768.083 154.293 768.083 152.993ZM763.733 152.993C763.733 152.059 764.494 151.299 765.428 151.299C766.361 151.299 767.122 152.059 767.122 152.993C767.122 153.927 766.361 154.687 765.428 154.687C764.494 154.687 763.733 153.927 763.733 152.993Z" fill="#1F1F1F"/>
<path d="M766.686 152.99C766.686 152.311 766.135 151.761 765.456 151.761C764.777 151.761 764.227 152.311 764.227 152.99C764.227 153.669 764.777 154.22 765.456 154.22C766.135 154.22 766.686 153.669 766.686 152.99Z" fill="#1F1F1F"/>
<path d="M722.724 31.0378C722.724 30.4697 723.185 30.0088 723.753 30.0088C724.321 30.0088 724.782 30.4693 724.782 31.0378C724.782 31.4728 724.511 31.8423 724.13 31.9931V44.9657L713.53 53.9865H699.041V53.3159H713.072V36.8698C712.735 36.7006 712.501 36.356 712.501 35.9532C712.501 35.3851 712.962 34.9242 713.53 34.9242C714.099 34.9242 714.559 35.3847 714.559 35.9532C714.559 36.4487 714.208 36.8618 713.742 36.9597V52.9256L718.376 48.9821V34.5072C717.973 34.3678 717.683 33.9893 717.683 33.5391C717.683 32.971 718.143 32.5104 718.712 32.5104C719.28 32.5104 719.74 32.971 719.74 33.5391C719.74 33.9893 719.449 34.3678 719.047 34.5072V48.4116L723.459 44.656V32.0188C723.035 31.8918 722.724 31.5032 722.724 31.0378Z" fill="#151515"/>
<path d="M732.682 59.0705H708.676V58.3999H732.682C732.822 57.9972 733.2 57.7065 733.651 57.7065C734.219 57.7065 734.679 58.1671 734.679 58.7356C734.679 59.3041 734.219 59.7643 733.651 59.7643C733.2 59.7643 732.822 59.4729 732.682 59.0705Z" fill="#151515"/>
<path d="M732.038 117.543V81.4103L715.651 63.9313H707.84V63.2607H715.942L732.708 81.1452V117.474C733.162 117.581 733.501 117.986 733.501 118.473C733.501 119.041 733.04 119.501 732.472 119.501C731.904 119.501 731.443 119.041 731.443 118.473C731.443 118.06 731.687 117.707 732.038 117.543Z" fill="#1F1F1F"/>
<path d="M728.292 117.743V83.1794L715.66 69.2399H707.852V68.5693H715.957L728.963 82.9206V117.743C729.366 117.883 729.657 118.261 729.657 118.711C729.657 119.162 729.366 119.54 728.963 119.68V119.74H728.293V119.68C727.89 119.54 727.599 119.162 727.599 118.711C727.599 118.261 727.89 117.883 728.292 117.743Z" fill="#1F1F1F"/>
<path d="M707.262 137.865V114.691H711.083C711.191 114.238 711.596 113.9 712.082 113.9C712.568 113.9 712.972 114.238 713.08 114.691H718.998V86.5236H702.568V85.853H719.668V115.361H713.012C712.849 115.712 712.495 115.957 712.082 115.957C711.669 115.957 711.315 115.712 711.151 115.361H707.933V128.774H724.698V145.913C725.1 146.052 725.391 146.431 725.391 146.881C725.391 147.449 724.931 147.909 724.362 147.909C723.794 147.909 723.333 147.449 723.333 146.881C723.333 146.431 723.624 146.052 724.027 145.913V129.444H707.932V137.865C708.334 138.004 708.625 138.383 708.625 138.833C708.625 139.401 708.164 139.862 707.596 139.862C707.028 139.862 706.568 139.401 706.568 138.833C706.568 138.383 706.86 138.004 707.262 137.865Z" fill="#151515"/>
<path d="M790.562 113.958C790.562 118.376 794.144 121.958 798.562 121.958C802.981 121.958 806.562 118.376 806.562 113.958C806.562 109.54 802.981 105.958 798.562 105.958C794.144 105.958 790.562 109.54 790.562 113.958Z" fill="#1F1F1F" stroke="#313131" stroke-width="0.5"/>
<path fill-rule="evenodd" clip-rule="evenodd" d="M795.094 113.357V114.242C795.094 114.745 795.898 115.168 796.978 115.261V113.945C796.978 113.924 796.978 113.903 796.978 113.883C796.378 113.84 795.836 113.713 795.407 113.522C795.298 113.473 795.192 113.418 795.094 113.357ZM799.767 111.496V112.26C799.127 112.281 798.523 112.406 798.047 112.617C797.785 112.733 797.534 112.888 797.342 113.093C797.294 113.14 797.254 113.191 797.214 113.245C796.596 113.222 796.058 113.101 795.672 112.929C795.454 112.833 795.302 112.727 795.203 112.625C795.138 112.555 795.105 112.494 795.094 112.444V111.496C795.094 110.923 796.138 110.457 797.432 110.457C798.723 110.457 799.767 110.923 799.767 111.496ZM797.429 111.98C798.331 111.98 799.062 111.77 799.062 111.511C799.062 111.251 798.331 111.041 797.429 111.041C796.531 111.041 795.8 111.251 795.8 111.511C795.8 111.77 796.531 111.98 797.429 111.98ZM797.625 116.691V115.807C797.723 115.867 797.829 115.922 797.942 115.971C798.472 116.209 799.189 116.348 799.963 116.348C800.742 116.348 801.454 116.209 801.989 115.971C802.098 115.921 802.203 115.867 802.302 115.807V116.691C802.302 117.263 801.262 117.73 799.963 117.73C798.665 117.73 797.625 117.263 797.625 116.691ZM797.738 115.074C797.672 115.004 797.64 114.943 797.625 114.893V113.945C797.625 113.371 798.672 112.906 799.963 112.906C801.254 112.906 802.302 113.371 802.302 113.945V114.893C802.291 114.943 802.258 115.003 802.189 115.074C802.094 115.175 801.938 115.282 801.723 115.378C801.291 115.571 800.672 115.699 799.963 115.699C799.258 115.699 798.636 115.571 798.207 115.378C797.989 115.282 797.836 115.175 797.738 115.074ZM801.596 113.96C801.596 114.219 800.865 114.429 799.963 114.429C799.062 114.429 798.331 114.219 798.331 113.96C798.331 113.7 799.062 113.49 799.963 113.49C800.865 113.49 801.596 113.7 801.596 113.96Z" fill="#444444"/>
<path d="M746.459 109.623C746.459 109.256 746.161 108.958 745.794 108.958C745.427 108.958 745.129 109.256 745.129 109.623C745.129 109.904 745.304 110.143 745.551 110.241V118.625L752.402 124.455H761.767V124.022H752.698V113.392C752.916 113.283 753.067 113.06 753.067 112.8C753.067 112.433 752.769 112.135 752.402 112.135C752.034 112.135 751.737 112.433 751.737 112.8C751.737 113.12 751.963 113.387 752.264 113.451V123.77L749.27 121.221V111.865C749.53 111.775 749.718 111.531 749.718 111.24C749.718 110.873 749.42 110.575 749.053 110.575C748.685 110.575 748.388 110.873 748.388 111.24C748.388 111.531 748.576 111.775 748.836 111.865V120.852L745.984 118.425V110.257C746.258 110.175 746.459 109.924 746.459 109.623Z" fill="#151515"/>
<path d="M745.854 127.748H761.37V127.315H745.854C745.763 127.055 745.518 126.867 745.227 126.867C744.86 126.867 744.562 127.164 744.562 127.532C744.562 127.899 744.86 128.197 745.227 128.197C745.518 128.197 745.763 128.008 745.854 127.748Z" fill="#151515"/>
<path d="M746.3 165.538V142.185L756.891 130.888H761.94V130.454H756.704L745.867 142.013V165.493C745.574 165.563 745.355 165.824 745.355 166.139C745.355 166.506 745.653 166.804 746.02 166.804C746.387 166.804 746.685 166.506 746.685 166.139C746.685 165.872 746.527 165.644 746.301 165.538H746.3Z" fill="#151515"/>
<path d="M748.726 165.668V143.328L756.891 134.319H761.937V133.885H756.699L748.292 143.161V165.668C748.032 165.758 747.844 166.002 747.844 166.293C747.844 166.584 748.032 166.829 748.292 166.919V166.958H748.726V166.919C748.986 166.829 749.174 166.584 749.174 166.293C749.174 166.002 748.986 165.758 748.726 165.668Z" fill="#151515"/>
<path d="M765.824 123.477H758.792C757.878 123.477 757.137 124.218 757.137 125.132V132.164C757.137 133.078 757.878 133.818 758.792 133.818H765.824C766.738 133.818 767.478 133.078 767.478 132.164V125.132C767.478 124.218 766.738 123.477 765.824 123.477Z" fill="#202020"/>
<path opacity="0.8" d="M844.792 168.801L843.562 166.958V178.958L844.844 176.714C844.973 176.491 845.039 176.238 845.039 175.981V169.621C845.039 169.329 844.954 169.044 844.792 168.801Z" fill="#1A1A1A"/>
<path d="M857.003 163.958H846.122C844.708 163.958 843.562 165.104 843.562 166.518V177.398C843.562 178.812 844.708 179.958 846.122 179.958H857.003C858.417 179.958 859.562 178.812 859.562 177.398V166.518C859.562 165.104 858.417 163.958 857.003 163.958Z" fill="#202020" stroke="#313131" stroke-width="0.5"/>
<path d="M851.905 172.796C852.648 172.796 853.251 172.193 853.251 171.45C853.251 170.707 852.648 170.104 851.905 170.104C851.162 170.104 850.559 170.707 850.559 171.45C850.559 172.193 851.162 172.796 851.905 172.796Z" stroke="#444444" stroke-width="0.5" stroke-linecap="round" stroke-linejoin="round"/>
<path d="M853.694 174.277C853.201 173.843 852.568 173.603 851.912 173.603C851.255 173.603 850.622 173.843 850.129 174.277" stroke="#444444" stroke-width="0.5" stroke-linecap="round" stroke-linejoin="round"/>
<path d="M855.4 174.144V175.22C855.4 175.363 855.343 175.5 855.241 175.601C855.141 175.702 855.004 175.759 854.861 175.759H853.785" stroke="#444444" stroke-width="0.5" stroke-linecap="round" stroke-linejoin="round"/>
<path d="M853.785 168.759H854.861C855.004 168.759 855.141 168.816 855.241 168.917C855.343 169.018 855.4 169.155 855.4 169.297V170.374" stroke="#444444" stroke-width="0.5" stroke-linecap="round" stroke-linejoin="round"/>
<path d="M848.406 170.374V169.297C848.406 169.155 848.462 169.018 848.565 168.917C848.664 168.816 848.801 168.759 848.944 168.759H850.021" stroke="#444444" stroke-width="0.5" stroke-linecap="round" stroke-linejoin="round"/>
<path d="M850.021 175.759H848.944C848.801 175.759 848.664 175.702 848.565 175.601C848.462 175.5 848.406 175.363 848.406 175.22V174.144" stroke="#444444" stroke-width="0.5" stroke-linecap="round" stroke-linejoin="round"/>
<path d="M877.562 202.958C877.562 207.376 881.144 210.958 885.562 210.958C889.981 210.958 893.562 207.376 893.562 202.958C893.562 198.54 889.981 194.958 885.562 194.958C881.144 194.958 877.562 198.54 877.562 202.958Z" fill="#1F1F1F" stroke="#313131" stroke-width="0.5"/>
<path d="M888.78 200.56H882.355C882.035 200.56 881.773 200.822 881.773 201.144V205.817C881.773 206.14 882.035 206.402 882.355 206.402H888.78C889.104 206.402 889.366 206.14 889.366 205.817V201.144C889.366 200.822 889.104 200.56 888.78 200.56Z" stroke="#444444" stroke-width="0.5" stroke-linecap="round" stroke-linejoin="round"/>
<path d="M887.318 200.56V199.392C887.318 199.237 887.257 199.089 887.148 198.979C887.038 198.87 886.888 198.808 886.732 198.808H884.398C884.242 198.808 884.093 198.87 883.984 198.979C883.875 199.089 883.812 199.237 883.812 199.392V200.56" stroke="#444444" stroke-width="0.5" stroke-linecap="round" stroke-linejoin="round"/>
<path d="M886.312 202.702C886.287 202.63 886.247 202.564 886.196 202.508C886.09 202.388 885.934 202.313 885.759 202.313H885.309C885.021 202.313 884.789 202.546 884.789 202.834C884.789 203.08 884.956 203.292 885.196 203.344L885.887 203.494C886.152 203.553 886.345 203.791 886.345 204.065C886.345 204.388 886.083 204.65 885.759 204.65H885.37C885.116 204.65 884.901 204.487 884.821 204.26" stroke="#444444" stroke-width="0.5" stroke-linecap="round" stroke-linejoin="round"/>
<path d="M885.555 202.313V201.729" stroke="#444444" stroke-width="0.5" stroke-linecap="round" stroke-linejoin="round"/>
<path d="M885.555 205.234V204.65" stroke="#444444" stroke-width="0.5" stroke-linecap="round" stroke-linejoin="round"/>
<path d="M775.003 45.9585H764.122C762.708 45.9585 761.562 47.1047 761.562 48.5185V59.3985C761.562 60.8123 762.708 61.9585 764.122 61.9585H775.003C776.417 61.9585 777.562 60.8123 777.562 59.3985V48.5185C777.562 47.1047 776.417 45.9585 775.003 45.9585Z" fill="#202020" stroke="#313131" stroke-width="0.5"/>
<path opacity="0.8" d="M763.256 50.4378L762.191 48.8403V59.2403L763.301 57.2954C763.413 57.1021 763.471 56.8832 763.471 56.6605V51.1479C763.471 50.8951 763.397 50.648 763.256 50.4378Z" fill="#1A1A1A"/>
<path d="M773.791 58.0134C772.886 58.0205 773.82 58.0086 772.914 58.0096C770.946 58.0134 768.978 58.0144 767.014 58.0128H764.754L765.282 57.9238C765.282 57.9238 765.711 57.8781 766.306 57.8288C766.45 57.824 766.479 57.7942 766.486 57.6438C766.495 57.0499 766.569 56.4576 766.7 55.8784C766.751 55.6547 766.729 55.5616 766.534 55.4403C766.188 55.2288 765.983 54.887 765.9 54.4858C765.842 54.217 765.926 53.9738 766.086 53.7574C766.172 53.6442 766.262 53.5341 766.345 53.4198C766.377 53.376 766.422 53.3392 766.47 53.312C766.518 53.2845 766.572 53.2672 766.626 53.2605C766.646 53.2618 766.665 53.2669 766.681 53.2762C766.697 53.2851 766.713 53.2979 766.726 53.3133C766.735 53.3258 766.719 53.3821 766.697 53.3971C766.614 53.4605 766.53 53.543 766.431 53.569C766.284 53.6086 766.21 53.7155 766.15 53.8323C765.916 54.2915 766.134 54.7424 766.409 54.9891C766.524 55.0861 766.646 55.1702 766.774 55.241C766.921 55.3235 766.994 55.2995 767.119 55.1875C767.612 54.7427 768.102 54.2992 768.598 53.8566C768.633 53.8246 768.668 53.7901 768.703 53.7578C768.783 53.6842 768.857 53.7021 768.879 53.8112C768.924 54.0291 768.959 54.248 768.994 54.4669C769.01 54.5738 769.014 54.6822 769.026 54.7891H769.055C769.068 54.7078 769.078 54.6253 769.078 54.5427C769.062 54.2246 769.049 53.9043 769.004 53.5898C768.978 53.4083 768.886 53.2368 768.831 53.0598C768.809 53.0083 768.802 52.953 768.806 52.8979C768.818 52.8198 768.79 52.7946 768.726 52.7658C768.326 52.5856 767.906 52.4634 767.487 52.3507C767.439 52.3402 767.398 52.3149 767.366 52.2787C767.33 52.2422 767.311 52.1965 767.305 52.1482C767.286 52.064 767.26 51.9814 767.231 51.9011C767.193 51.7997 767.202 51.7206 767.305 51.6621C767.554 51.519 767.804 51.3734 768.054 51.2246C768.134 51.1808 768.21 51.1245 768.274 51.0582C768.402 50.9174 768.572 50.8637 768.732 50.7949C769.126 50.6298 769.519 50.4688 769.91 50.303C769.942 50.2819 769.974 50.2557 769.996 50.2256C769.977 50.1978 769.954 50.1725 769.929 50.1501C769.446 49.8294 769.023 49.4282 768.681 48.9635C768.658 48.935 768.668 48.8826 768.662 48.841C768.7 48.8387 768.738 48.8426 768.774 48.8525C769.097 48.999 769.417 49.1536 769.74 49.2966C769.983 49.4042 770.236 49.4922 770.479 49.6003C770.748 49.7213 771.036 49.8237 771.244 50.056C771.346 50.159 771.356 50.3222 771.263 50.4355L770.905 50.9376C770.95 50.9485 770.994 50.9542 771.039 50.9549C771.289 50.9248 771.535 50.888 771.785 50.8602C771.833 50.8611 771.884 50.8685 771.929 50.8829C771.919 50.9302 771.9 50.9757 771.878 51.0182C771.666 51.3123 771.41 51.5702 771.116 51.7824C771.052 51.8269 771.071 51.8765 771.103 51.9274C771.241 52.1418 771.388 52.3498 771.513 52.5706C771.714 52.928 771.919 53.2864 772.098 53.657C772.284 54.0525 772.457 54.4557 772.61 54.8653C772.729 55.1818 772.818 55.5062 772.911 55.831C772.994 56.1344 773.074 56.4406 773.135 56.7482C773.199 57.0461 773.238 57.3494 773.282 57.6506C773.308 57.8131 773.343 57.9123 773.503 57.9178L773.791 58.0134ZM770.921 57.7987V57.8144H772.284C772.463 57.8144 772.473 57.793 772.393 57.6275C772.348 57.5405 772.31 57.4509 772.271 57.3622C772.137 57.0368 771.938 56.7411 771.692 56.4909C771.58 56.3827 771.439 56.2995 771.286 56.3062C771.046 56.3171 770.812 56.4083 770.594 56.5056C770.258 56.6605 769.967 56.8976 769.75 57.1952C769.634 57.3514 769.529 57.5139 769.436 57.6822C769.394 57.753 769.42 57.8 769.516 57.7997C769.98 57.7971 770.45 57.7987 770.921 57.7987ZM767.772 57.8118V57.807H768.447C768.588 57.807 768.604 57.7875 768.623 57.6499C768.639 57.519 768.658 57.3894 768.681 57.2595C768.719 57.0189 768.761 56.7779 768.793 56.5363C768.812 56.401 768.774 56.3728 768.652 56.4211C768.466 56.4883 768.281 56.568 768.105 56.6598C767.657 56.9139 767.276 57.2448 767.01 57.6989C766.959 57.7898 766.969 57.8096 767.071 57.8102C767.305 57.8144 767.538 57.8118 767.772 57.8118Z" fill="#444444"/>
<path d="M768.5 50.9261C768.521 50.9428 768.865 51.2549 768.88 51.2756L769.463 51.0431C769.529 50.9595 769.548 50.9326 769.472 50.8566C769.315 50.6849 769.108 50.6094 768.906 50.5197C768.723 50.4397 768.54 50.3753 768.357 50.2953C768.119 50.1899 767.886 50.0759 767.643 49.9675C767.618 49.9604 767.592 49.9574 767.562 49.9589C767.567 49.9898 767.563 50.0283 767.578 50.0496C767.832 50.3926 768.146 50.6895 768.5 50.9261Z" fill="#505050"/>
<path d="M749.229 152.958H737.896C736.608 152.958 735.562 154.003 735.562 155.291V166.626C735.562 167.914 736.608 168.958 737.896 168.958H749.229C750.517 168.958 751.562 167.914 751.562 166.626V155.291C751.562 154.003 750.517 152.958 749.229 152.958Z" stroke="#2C2C2C" stroke-width="0.5"/>
<path fill-rule="evenodd" clip-rule="evenodd" d="M740.234 155.958H744.539C744.522 155.991 744.513 156.028 744.513 156.067V157.393V158.718V158.721C744.517 158.957 744.61 159.186 744.779 159.354C744.947 159.522 745.175 159.616 745.412 159.618H745.414H746.735H748.056C748.098 159.618 748.137 159.608 748.171 159.59L748.158 165.207C748.158 165.379 748.089 165.544 747.97 165.666C747.848 165.787 747.683 165.856 747.51 165.856H740.234C740.062 165.856 739.897 165.788 739.776 165.666C739.654 165.544 739.586 165.379 739.586 165.207V156.608C739.586 156.436 739.655 156.271 739.776 156.149C739.898 156.027 740.064 155.958 740.234 155.958ZM748.123 158.964C748.146 159.022 748.162 159.083 748.168 159.145C748.135 159.128 748.097 159.118 748.056 159.118H746.735H745.415C745.309 159.117 745.207 159.076 745.133 159.001C745.058 158.926 745.015 158.824 745.013 158.716V157.393V156.067C745.013 156.03 745.005 155.994 744.99 155.962C745.051 155.968 745.11 155.984 745.167 156.007C745.247 156.04 745.32 156.088 745.381 156.15L746.68 157.449L747.98 158.749C748.041 158.81 748.089 158.884 748.123 158.964ZM742.106 157.042C742.106 156.904 741.995 156.792 741.856 156.792C741.718 156.792 741.606 156.904 741.606 157.042V157.283C741.409 157.314 741.225 157.381 741.074 157.486C740.856 157.637 740.7 157.87 740.7 158.163C740.7 158.749 741.28 159.108 741.856 159.108C742.061 159.108 742.235 159.169 742.352 159.257C742.469 159.344 742.517 159.445 742.517 159.537C742.517 159.629 742.468 159.731 742.351 159.819C742.234 159.907 742.06 159.969 741.856 159.969C741.855 159.969 741.853 159.969 741.851 159.969C741.849 159.969 741.848 159.969 741.847 159.969C741.731 159.973 741.616 159.95 741.508 159.9C741.403 159.85 741.31 159.775 741.24 159.682C741.156 159.572 741 159.55 740.89 159.633C740.779 159.716 740.758 159.873 740.841 159.983C740.96 160.141 741.116 160.268 741.294 160.352L741.295 160.352C741.395 160.399 741.499 160.432 741.606 160.451V160.674C741.606 160.812 741.718 160.924 741.856 160.924C741.995 160.924 742.106 160.812 742.106 160.674V160.447C742.311 160.412 742.499 160.333 742.651 160.219C742.863 160.06 743.017 159.821 743.017 159.537C743.017 159.252 742.863 159.014 742.65 158.855C742.438 158.698 742.157 158.608 741.856 158.608C741.424 158.608 741.2 158.356 741.2 158.163C741.2 158.065 741.248 157.974 741.359 157.897C741.473 157.818 741.647 157.763 741.856 157.763C741.86 157.763 741.864 157.763 741.868 157.763C741.986 157.757 742.101 157.781 742.205 157.83L742.207 157.831C742.313 157.88 742.405 157.956 742.476 158.048C742.559 158.158 742.716 158.179 742.826 158.096C742.936 158.012 742.958 157.855 742.874 157.745C742.755 157.587 742.598 157.462 742.418 157.378C742.319 157.331 742.214 157.298 742.106 157.279V157.042ZM741.087 161.743C740.963 161.743 740.842 161.792 740.754 161.88C740.666 161.968 740.616 162.088 740.615 162.212V162.214V163.315V164.413C740.615 164.674 740.828 164.884 741.087 164.884H742.848H744.83H746.586C746.845 164.884 747.058 164.674 747.058 164.413V163.35C747.06 163.339 747.061 163.327 747.061 163.315C747.061 163.303 747.06 163.292 747.058 163.281V162.215V162.214H746.808L747.058 162.215C747.058 162.153 747.047 162.092 747.024 162.035C747.001 161.978 746.966 161.926 746.923 161.882L746.918 161.878C746.83 161.793 746.711 161.744 746.588 161.743H746.586H744.83H742.848H741.087ZM746.558 163.065H746.811C746.937 163.065 747.041 163.16 747.058 163.281V163.35C747.041 163.472 746.937 163.565 746.811 163.565H746.558V163.065ZM746.558 162.243V163.065H745.08V162.243H746.558ZM746.558 162.243V162.214C746.558 162.217 746.559 162.22 746.56 162.223C746.562 162.227 746.564 162.23 746.567 162.233L746.585 162.215V162.214V162.212L746.586 161.993V162.212V162.214L746.588 162.212L746.745 162.057L746.601 162.207L746.596 162.212L746.594 162.214L746.586 162.221V162.243H746.558ZM746.558 163.565V164.384H745.08V163.565H746.558ZM741.115 164.384V163.565H742.598V164.384H741.115ZM741.115 163.065H742.598V162.243H741.115V163.065ZM743.098 164.384V163.565H744.58V164.384H743.098ZM743.098 163.065H744.58V162.243H743.098V163.065ZM746.571 162.238L746.585 162.223V162.243C746.58 162.243 746.575 162.242 746.571 162.238Z" fill="#444444"/>
<path d="M680.562 56.9585C680.562 61.3766 684.144 64.9585 688.562 64.9585C692.981 64.9585 696.562 61.3766 696.562 56.9585C696.562 52.54 692.981 48.9585 688.562 48.9585C684.144 48.9585 680.562 52.54 680.562 56.9585Z" fill="#1F1F1F" stroke="#313131" stroke-width="0.5"/>
<path d="M688.282 53.092C688.324 52.9328 688.488 52.8382 688.647 52.8808L692.438 53.896C692.597 53.9386 692.692 54.1025 692.649 54.2618L691.195 59.6869C691.152 59.8465 690.988 59.9411 690.829 59.8984L687.038 58.8833C686.879 58.8407 686.784 58.6768 686.827 58.5171L688.282 53.092Z" stroke="#444444" stroke-width="0.5" stroke-linecap="round" stroke-linejoin="round"/>
<path d="M688.008 54.1489L684.698 55.036C684.539 55.0787 684.445 55.2426 684.487 55.4019L685.94 60.8277C685.983 60.987 686.147 61.0815 686.306 61.0389L688.201 60.5308" stroke="#444444" stroke-width="0.5" stroke-linecap="round" stroke-linejoin="round"/>
<path d="M694.562 113.708C690.283 113.708 686.812 110.238 686.812 105.958C686.812 101.679 690.283 98.2085 694.562 98.2085C698.842 98.2085 702.312 101.679 702.312 105.958C702.312 110.238 698.842 113.708 694.562 113.708Z" fill="#1F1F1F" stroke="#313131" stroke-width="0.5"/>
<path d="M692.176 104.982C691.826 105.132 691.518 105.366 691.28 105.663C691.041 105.96 690.878 106.311 690.806 106.685C690.734 107.059 690.755 107.446 690.867 107.81C690.978 108.174 691.178 108.505 691.448 108.775C691.716 109.044 692.047 109.243 692.411 109.355C692.777 109.467 693.162 109.488 693.536 109.416C693.91 109.344 694.262 109.182 694.56 108.943C694.856 108.704 695.09 108.396 695.241 108.046" stroke="#444444" stroke-width="0.5" stroke-linecap="round" stroke-linejoin="round"/>
<path d="M695.433 107.124C696.721 107.124 697.766 106.079 697.766 104.791C697.766 103.502 696.721 102.458 695.433 102.458C694.143 102.458 693.1 103.502 693.1 104.791C693.1 106.079 694.143 107.124 695.433 107.124Z" stroke="#444444" stroke-width="0.5" stroke-linecap="round" stroke-linejoin="round"/>
<path d="M695.434 106.226V105.759M695.434 103.893V103.426M695.901 103.893H695.268C695.171 103.893 695.077 103.927 695.003 103.988C694.928 104.05 694.877 104.136 694.858 104.231C694.839 104.326 694.855 104.424 694.902 104.51C694.949 104.595 695.021 104.661 695.112 104.698L695.754 104.954C695.845 104.991 695.917 105.057 695.964 105.142C696.01 105.227 696.024 105.326 696.008 105.421C695.989 105.516 695.938 105.601 695.863 105.663C695.788 105.725 695.694 105.759 695.597 105.759H694.967M692.518 106.643C692.518 106.727 692.544 106.808 692.59 106.877C692.637 106.946 692.702 106.999 692.779 107.031L693.421 107.287C693.512 107.323 693.586 107.39 693.633 107.475C693.677 107.56 693.694 107.659 693.675 107.754C693.657 107.848 693.607 107.934 693.533 107.996C693.458 108.058 693.362 108.092 693.267 108.092H692.635M693.101 108.558V108.092" stroke="#444444" stroke-width="0.5" stroke-linecap="round" stroke-linejoin="round"/>
<path d="M741.797 69.6328H807.894" stroke="#1C1C1C" stroke-linecap="round" stroke-linejoin="round"/>
<path d="M736.187 70.2002C735.78 70.2002 735.449 70.5313 735.449 70.9384C735.449 71.3455 735.78 71.6769 736.187 71.6769H737.068C737.208 72.4672 737.83 73.0897 738.62 73.2302V74.1099C738.62 74.5172 738.952 74.8484 739.359 74.8484C739.766 74.8484 740.097 74.5172 740.097 74.1099V73.2617H740.541V74.1099C740.541 74.5172 740.872 74.8484 741.28 74.8484C741.687 74.8484 742.018 74.5172 742.018 74.1099V73.2302C742.808 73.0897 743.43 72.4672 743.571 71.6769H744.451C744.859 71.6769 745.19 71.3457 745.19 70.9384C745.19 70.5311 744.859 70.2002 744.451 70.2002H743.602V69.7559H744.451C744.859 69.7559 745.19 69.4247 745.19 69.0176C745.19 68.6106 744.859 68.2792 744.451 68.2792H743.57C743.429 67.4898 742.808 66.8685 742.018 66.728V65.8459C742.018 65.4386 741.687 65.1074 741.28 65.1074C740.873 65.1074 740.541 65.4386 740.541 65.8459V66.6963H740.097V65.8459C740.097 65.4386 739.766 65.1074 739.359 65.1074C738.952 65.1074 738.62 65.4386 738.62 65.8459V66.728C737.831 66.8685 737.209 67.4898 737.068 68.2792H736.187C735.78 68.2792 735.449 68.6103 735.449 69.0176C735.449 69.4249 735.78 69.7559 736.187 69.7559H737.037V70.2002H736.187ZM743.877 70.7489H744.451C744.556 70.7489 744.641 70.8339 744.641 70.9384C744.641 71.0429 744.556 71.1281 744.451 71.1281H743.877V70.7489ZM743.877 68.8279H744.451C744.556 68.8279 744.641 68.9129 744.641 69.0176C744.641 69.1223 744.556 69.2071 744.451 69.2071H743.877V68.8279ZM739.548 74.1101C739.548 74.2148 739.463 74.2998 739.359 74.2998C739.254 74.2998 739.169 74.2148 739.169 74.1101V73.5364H739.548V74.1101ZM741.469 74.1101C741.469 74.2148 741.384 74.2998 741.28 74.2998C741.175 74.2998 741.09 74.2148 741.09 74.1101V73.5364H741.469V74.1101ZM741.09 65.8459C741.09 65.7412 741.175 65.6562 741.28 65.6562C741.384 65.6562 741.469 65.7412 741.469 65.8459V66.4196H741.09V65.8459ZM739.169 65.8459C739.169 65.7412 739.254 65.6562 739.359 65.6562C739.464 65.6562 739.548 65.7412 739.548 65.8459V66.4196H739.169V65.8459ZM736.761 71.1281H736.187C736.082 71.1281 735.997 71.0431 735.997 70.9384C735.997 70.8337 736.083 70.7489 736.187 70.7489H736.761V71.1281ZM736.761 69.2071H736.187C736.082 69.2071 735.997 69.1221 735.997 69.0176C735.997 68.9132 736.083 68.8279 736.187 68.8279H736.761V69.2071Z" fill="#1F1F1F"/>
<path d="M794.136 147.092H789.993C789.781 147.092 789.609 146.919 789.609 146.708C789.609 146.496 789.781 146.323 789.993 146.323H794.136C794.348 146.323 794.52 146.495 794.52 146.708C794.52 146.92 794.348 147.092 794.136 147.092Z" fill="#1F1F1F"/>
<path d="M789.08 147.986C788.375 147.986 787.801 147.412 787.801 146.707C787.801 146.001 788.375 145.428 789.08 145.428C789.786 145.428 790.36 146.001 790.36 146.707C790.36 147.412 789.786 147.986 789.08 147.986ZM789.08 146.196C788.799 146.196 788.57 146.426 788.57 146.707C788.57 146.989 788.799 147.218 789.08 147.218C789.362 147.218 789.591 146.989 789.591 146.707C789.591 146.426 789.362 146.196 789.08 146.196Z" fill="#1F1F1F"/>
<path d="M794.136 144.03H789.993C789.781 144.03 789.609 143.858 789.609 143.646C789.609 143.434 789.781 143.262 789.993 143.262H794.136C794.348 143.262 794.52 143.434 794.52 143.646C794.52 143.858 794.348 144.03 794.136 144.03Z" fill="#1F1F1F"/>
<path d="M789.08 144.923C788.375 144.923 787.801 144.349 787.801 143.644C787.801 142.938 788.375 142.365 789.08 142.365C789.786 142.365 790.36 142.938 790.36 143.644C790.36 144.349 789.786 144.923 789.08 144.923ZM789.08 143.133C788.799 143.133 788.57 143.363 788.57 143.644C788.57 143.926 788.799 144.155 789.08 144.155C789.362 144.155 789.591 143.926 789.591 143.644C789.591 143.362 789.362 143.133 789.08 143.133Z" fill="#1F1F1F"/>
<path d="M794.136 140.965H789.993C789.781 140.965 789.609 140.793 789.609 140.581C789.609 140.368 789.781 140.196 789.993 140.196H794.136C794.348 140.196 794.52 140.368 794.52 140.581C794.52 140.793 794.348 140.965 794.136 140.965Z" fill="#1F1F1F"/>
<path d="M789.08 141.857C788.375 141.857 787.801 141.284 787.801 140.578C787.801 139.873 788.375 139.299 789.08 139.299C789.786 139.299 790.36 139.873 790.36 140.578C790.36 141.284 789.786 141.857 789.08 141.857ZM789.08 140.068C788.799 140.068 788.57 140.297 788.57 140.578C788.57 140.86 788.799 141.089 789.08 141.089C789.362 141.089 789.591 140.86 789.591 140.578C789.591 140.297 789.362 140.068 789.08 140.068Z" fill="#1F1F1F"/>
<path d="M805.031 150.34H796.894C795.445 150.34 794.266 149.161 794.266 147.712V139.575C794.266 138.125 795.445 136.946 796.894 136.946H805.031C806.481 136.946 807.66 138.125 807.66 139.575V147.712C807.66 149.161 806.481 150.34 805.031 150.34ZM796.894 137.714C795.869 137.714 795.035 138.549 795.035 139.574V147.711C795.035 148.737 795.869 149.571 796.894 149.571H805.031C806.057 149.571 806.892 148.737 806.892 147.711V139.574C806.892 138.549 806.057 137.714 805.031 137.714H796.894Z" fill="#1F1F1F"/>
<path d="M805.524 145.539V141.746C805.524 140.266 804.324 139.066 802.844 139.066H799.051C797.571 139.066 796.371 140.266 796.371 141.746V145.539C796.371 147.019 797.571 148.219 799.051 148.219H802.844C804.324 148.219 805.524 147.019 805.524 145.539Z" fill="#1F1F1F"/>
<path d="M727.319 160.348C726.049 160.348 725.016 161.382 725.016 162.651C725.016 163.921 726.049 164.955 727.319 164.955C728.589 164.955 729.622 163.921 729.622 162.651C729.622 161.382 728.589 160.348 727.319 160.348ZM727.319 164.497C726.302 164.497 725.474 163.669 725.474 162.651C725.474 161.634 726.302 160.807 727.319 160.807C728.336 160.807 729.164 161.634 729.164 162.651C729.164 163.669 728.336 164.497 727.319 164.497Z" fill="#1F1F1F"/>
<path d="M726.137 162.648C726.137 163.295 726.662 163.82 727.31 163.82C727.957 163.82 728.482 163.295 728.482 162.648C728.482 162 727.957 161.475 727.31 161.475C726.662 161.475 726.137 162 726.137 162.648Z" fill="#1F1F1F"/>
<path d="M725.279 162.884H689.359V162.425H725.279V162.884Z" fill="#1F1F1F"/>
<path d="M720.912 153.324C719.642 153.324 718.609 154.357 718.609 155.627C718.609 156.897 719.642 157.93 720.912 157.93C722.181 157.93 723.215 156.897 723.215 155.627C723.215 154.357 722.181 153.324 720.912 153.324ZM720.912 157.472C719.894 157.472 719.067 156.644 719.067 155.627C719.067 154.61 719.894 153.782 720.912 153.782C721.929 153.782 722.757 154.61 722.757 155.627C722.757 156.644 721.929 157.472 720.912 157.472Z" fill="#1F1F1F"/>
<path d="M719.699 155.622C719.699 156.27 720.224 156.795 720.871 156.795C721.519 156.795 722.044 156.27 722.044 155.622C722.044 154.975 721.519 154.45 720.871 154.45C720.224 154.45 719.699 154.975 719.699 155.622Z" fill="#1F1F1F"/>
<path d="M718.862 155.858H689.359V155.4H718.862V155.858Z" fill="#1F1F1F"/>
<path d="M702.819 146.284C701.549 146.284 700.516 147.317 700.516 148.587C700.516 149.857 701.549 150.89 702.819 150.89C704.089 150.89 705.122 149.857 705.122 148.587C705.122 147.317 704.089 146.284 702.819 146.284ZM702.819 150.432C701.802 150.432 700.974 149.604 700.974 148.587C700.974 147.57 701.802 146.742 702.819 146.742C703.837 146.742 704.664 147.57 704.664 148.587C704.664 149.604 703.837 150.432 702.819 150.432Z" fill="#1F1F1F"/>
<path d="M701.652 148.585C701.652 147.938 702.177 147.413 702.824 147.413C703.472 147.413 703.997 147.938 703.997 148.585C703.997 149.233 703.472 149.758 702.824 149.758C702.177 149.758 701.652 149.233 701.652 148.585Z" fill="#1F1F1F"/>
<path d="M700.788 148.819H689.48V148.361H700.788V148.819Z" fill="#1F1F1F"/>
<path d="M692.141 147.717H689.15V149.457H692.141C692.621 149.457 693.011 149.067 693.011 148.587C693.011 148.107 692.621 147.717 692.141 147.717Z" fill="#1F1F1F"/>
<path d="M851.039 131.981C851.039 131.825 850.913 131.699 850.757 131.699H847.709C847.553 131.699 847.426 131.825 847.426 131.981C847.426 132.137 847.553 132.264 847.709 132.264H850.757C850.913 132.264 851.039 132.137 851.039 131.981Z" fill="#1F1F1F"/>
<path d="M852.355 131.956C852.355 131.437 851.933 131.015 851.414 131.015C850.895 131.015 850.473 131.437 850.473 131.956C850.473 132.475 850.895 132.896 851.414 132.896C851.933 132.896 852.355 132.475 852.355 131.956ZM851.039 131.956C851.039 131.749 851.207 131.58 851.414 131.58C851.621 131.58 851.79 131.749 851.79 131.956C851.79 132.162 851.621 132.331 851.414 132.331C851.207 132.331 851.039 132.163 851.039 131.956Z" fill="#1F1F1F"/>
<path d="M858.859 134.154C858.859 133.635 858.437 133.212 857.918 133.212C857.399 133.212 856.977 133.635 856.977 134.154C856.977 134.673 857.399 135.094 857.918 135.094C858.437 135.094 858.859 134.673 858.859 134.154ZM857.543 134.154C857.543 133.946 857.711 133.778 857.918 133.778C858.125 133.778 858.294 133.947 858.294 134.154C858.294 134.361 858.125 134.529 857.918 134.529C857.711 134.529 857.543 134.361 857.543 134.154Z" fill="#1F1F1F"/>
<path d="M857.743 133.735C857.743 133.662 857.716 133.59 857.66 133.534L854.238 130.111H847.709C847.553 130.111 847.426 130.238 847.426 130.394C847.426 130.55 847.553 130.677 847.709 130.677H854.003L857.261 133.934C857.371 134.045 857.55 134.045 857.66 133.934C857.716 133.879 857.743 133.808 857.743 133.735Z" fill="#1F1F1F"/>
<path d="M861.077 133.6C861.077 133.081 860.655 132.659 860.136 132.659C859.617 132.659 859.195 133.081 859.195 133.6C859.195 134.119 859.617 134.541 860.136 134.541C860.655 134.541 861.077 134.119 861.077 133.6ZM859.76 133.6C859.76 133.393 859.929 133.224 860.136 133.224C860.344 133.224 860.512 133.393 860.512 133.6C860.512 133.808 860.344 133.976 860.136 133.976C859.929 133.976 859.76 133.807 859.76 133.6Z" fill="#1F1F1F"/>
<path d="M859.976 133.16C859.976 133.088 859.948 133.015 859.893 132.96L855.445 128.513H847.709C847.553 128.513 847.426 128.639 847.426 128.795C847.426 128.952 847.553 129.078 847.709 129.078H855.211L859.493 133.36C859.603 133.471 859.782 133.471 859.893 133.36C859.948 133.305 859.976 133.233 859.976 133.16Z" fill="#1F1F1F"/>
<path d="M863.323 133.054C863.323 132.535 862.901 132.113 862.382 132.113C861.863 132.113 861.441 132.535 861.441 133.054C861.441 133.573 861.863 133.995 862.382 133.995C862.901 133.995 863.323 133.573 863.323 133.054ZM862.006 133.054C862.006 132.847 862.175 132.678 862.382 132.678C862.589 132.678 862.758 132.847 862.758 133.054C862.758 133.261 862.589 133.429 862.382 133.429C862.175 133.429 862.006 133.26 862.006 133.054Z" fill="#1F1F1F"/>
<path d="M862.208 132.59C862.208 132.517 862.18 132.445 862.125 132.39L856.652 126.917H847.709C847.553 126.917 847.426 127.044 847.426 127.2C847.426 127.356 847.553 127.483 847.709 127.483H856.418L861.725 132.79C861.835 132.9 862.014 132.9 862.125 132.79C862.18 132.734 862.207 132.662 862.207 132.59H862.208Z" fill="#1F1F1F"/>
<path d="M847.598 132.692V126.706C847.598 125.64 846.731 124.773 845.665 124.773H839.679C838.613 124.773 837.746 125.64 837.746 126.706V132.692C837.746 133.758 838.613 134.625 839.679 134.625H845.665C846.731 134.625 847.598 133.758 847.598 132.692ZM838.311 126.706C838.311 125.952 838.925 125.338 839.679 125.338H845.665C846.419 125.338 847.033 125.952 847.033 126.706V132.692C847.033 133.446 846.419 134.06 845.665 134.06H839.679C838.925 134.06 838.311 133.446 838.311 132.692V126.706Z" fill="#1F1F1F"/>
<path d="M839.297 131.079V128.289C839.297 127.2 840.18 126.317 841.269 126.317H844.059C845.147 126.317 846.03 127.2 846.03 128.289V131.079C846.03 132.167 845.147 133.05 844.059 133.05H841.269C840.18 133.05 839.297 132.167 839.297 131.079Z" fill="#1F1F1F"/>
<path d="M844.987 43.1737C845.387 43.1737 845.712 42.8492 845.712 42.4489C845.712 42.0486 845.387 41.7241 844.987 41.7241C844.587 41.7241 844.262 42.0486 844.262 42.4489C844.262 42.8492 844.587 43.1737 844.987 43.1737Z" fill="#1F1F1F"/>
<path d="M824.68 42.7327H843.438C843.572 43.461 844.211 44.0151 844.977 44.0151C845.84 44.0151 846.542 43.3128 846.542 42.4497C846.542 41.5865 845.84 40.8843 844.977 40.8843C844.211 40.8843 843.572 41.4383 843.438 42.1666H824.562C824.487 42.1666 824.415 42.1963 824.362 42.2494L823.204 43.4075C823.148 43.463 823.12 43.5359 823.121 43.6085V53.8843H823.687V43.7253L824.68 42.7327ZM844.977 41.4504C845.528 41.4504 845.976 41.8989 845.976 42.4494C845.976 43 845.528 43.4484 844.977 43.4484C844.426 43.4484 843.978 43 843.978 42.4494C843.978 41.8989 844.426 41.4504 844.977 41.4504Z" fill="#1F1F1F"/>
<path d="M682.075 156.962H678.063C677.786 156.962 677.562 156.737 677.562 156.46C677.562 156.183 677.786 155.958 678.063 155.958H682.075C682.352 155.958 682.576 156.183 682.576 156.46C682.576 156.737 682.352 156.962 682.075 156.962Z" fill="#1F1F1F"/>
<path d="M682.075 158.964H678.063C677.786 158.964 677.562 158.74 677.562 158.463C677.562 158.186 677.786 157.961 678.063 157.961H682.075C682.352 157.961 682.576 158.186 682.576 158.463C682.576 158.74 682.352 158.964 682.075 158.964Z" fill="#1F1F1F"/>
<path d="M682.075 160.971H678.063C677.786 160.971 677.562 160.747 677.562 160.47C677.562 160.193 677.786 159.969 678.063 159.969H682.075C682.352 159.969 682.576 160.193 682.576 160.47C682.576 160.747 682.352 160.971 682.075 160.971Z" fill="#1F1F1F"/>
<path d="M682.075 162.975H678.063C677.786 162.975 677.562 162.75 677.562 162.473C677.562 162.197 677.786 161.972 678.063 161.972H682.075C682.352 161.972 682.576 162.197 682.576 162.473C682.576 162.75 682.352 162.975 682.075 162.975Z" fill="#1F1F1F"/>
<path d="M682.075 164.984H678.063C677.786 164.984 677.562 164.759 677.562 164.482C677.562 164.205 677.786 163.981 678.063 163.981H682.075C682.352 163.981 682.576 164.205 682.576 164.482C682.576 164.759 682.352 164.984 682.075 164.984Z" fill="#1F1F1F"/>
<path d="M682.075 166.989H678.063C677.786 166.989 677.562 166.765 677.562 166.488C677.562 166.211 677.786 165.987 678.063 165.987H682.075C682.352 165.987 682.576 166.211 682.576 166.488C682.576 166.765 682.352 166.989 682.075 166.989Z" fill="#1F1F1F"/>
<path d="M682.075 168.996H678.063C677.786 168.996 677.562 168.771 677.562 168.494C677.562 168.218 677.786 167.993 678.063 167.993H682.075C682.352 167.993 682.576 168.218 682.576 168.494C682.576 168.771 682.352 168.996 682.075 168.996Z" fill="#1F1F1F"/>
<path d="M682.075 171.001H678.063C677.786 171.001 677.562 170.777 677.562 170.5C677.562 170.223 677.786 169.999 678.063 169.999H682.075C682.352 169.999 682.576 170.223 682.576 170.5C682.576 170.777 682.352 171.001 682.075 171.001Z" fill="#1F1F1F"/>
<path d="M682.075 173.01H678.063C677.786 173.01 677.562 172.785 677.562 172.508C677.562 172.231 677.786 172.007 678.063 172.007H682.075C682.352 172.007 682.576 172.231 682.576 172.508C682.576 172.785 682.352 173.01 682.075 173.01Z" fill="#1F1F1F"/>
<path d="M764.301 77.0696H760.29C760.013 77.0696 759.789 76.8452 759.789 76.5682C759.789 76.2913 760.013 76.0669 760.29 76.0669H764.301C764.578 76.0669 764.802 76.2913 764.802 76.5682C764.802 76.8452 764.578 77.0696 764.301 77.0696Z" fill="#1F1F1F"/>
<path d="M764.301 79.073H760.29C760.013 79.073 759.789 78.8486 759.789 78.5716C759.789 78.2947 760.013 78.0703 760.29 78.0703H764.301C764.578 78.0703 764.802 78.2947 764.802 78.5716C764.802 78.8486 764.578 79.073 764.301 79.073Z" fill="#1F1F1F"/>
<path d="M764.301 81.0803H760.29C760.013 81.0803 759.789 80.8559 759.789 80.579C759.789 80.302 760.013 80.0776 760.29 80.0776H764.301C764.578 80.0776 764.802 80.302 764.802 80.579C764.802 80.8559 764.578 81.0803 764.301 81.0803Z" fill="#1F1F1F"/>
<path d="M764.301 83.0837H760.29C760.013 83.0837 759.789 82.8594 759.789 82.5824C759.789 82.3054 760.013 82.0811 760.29 82.0811H764.301C764.578 82.0811 764.802 82.3054 764.802 82.5824C764.802 82.8594 764.578 83.0837 764.301 83.0837Z" fill="#1F1F1F"/>
<path d="M764.301 85.0925H760.29C760.013 85.0925 759.789 84.8681 759.789 84.5912C759.789 84.3142 760.013 84.0898 760.29 84.0898H764.301C764.578 84.0898 764.802 84.3142 764.802 84.5912C764.802 84.8681 764.578 85.0925 764.301 85.0925Z" fill="#1F1F1F"/>
<path d="M764.301 87.0974H760.29C760.013 87.0974 759.789 86.873 759.789 86.5961C759.789 86.3191 760.013 86.0947 760.29 86.0947H764.301C764.578 86.0947 764.802 86.3191 764.802 86.5961C764.802 86.873 764.578 87.0974 764.301 87.0974Z" fill="#1F1F1F"/>
<path d="M764.301 89.1042H760.29C760.013 89.1042 759.789 88.8799 759.789 88.6029C759.789 88.3259 760.013 88.1016 760.29 88.1016H764.301C764.578 88.1016 764.802 88.3259 764.802 88.6029C764.802 88.8799 764.578 89.1042 764.301 89.1042Z" fill="#1F1F1F"/>
<path d="M764.301 91.1075H760.29C760.013 91.1075 759.789 90.8833 759.789 90.6063C759.789 90.3294 760.013 90.105 760.29 90.105H764.301C764.578 90.105 764.802 90.3294 764.802 90.6063C764.802 90.8833 764.578 91.1075 764.301 91.1075Z" fill="#1F1F1F"/>
<path d="M764.301 93.1153H760.29C760.013 93.1153 759.789 92.8913 759.789 92.6143C759.789 92.3373 760.013 92.1133 760.29 92.1133H764.301C764.578 92.1133 764.802 92.3373 764.802 92.6143C764.802 92.8913 764.578 93.1153 764.301 93.1153Z" fill="#1F1F1F"/>
<path d="M626.565 27.4599V31.4709C626.565 31.7479 626.34 31.9723 626.063 31.9723C625.786 31.9723 625.562 31.7479 625.562 31.4709V27.4599C625.562 27.1829 625.786 26.9585 626.063 26.9585C626.34 26.9585 626.565 27.1829 626.565 27.4599Z" fill="#1F1F1F"/>
<path d="M628.565 27.4599V31.4709C628.565 31.7479 628.34 31.9723 628.063 31.9723C627.786 31.9723 627.562 31.7479 627.562 31.4709V27.4599C627.562 27.1829 627.786 26.9585 628.063 26.9585C628.34 26.9585 628.565 27.1829 628.565 27.4599Z" fill="#1F1F1F"/>
<path d="M630.576 27.4599V31.4709C630.576 31.7479 630.352 31.9723 630.075 31.9723C629.798 31.9723 629.574 31.7479 629.574 31.4709V27.4599C629.574 27.1829 629.798 26.9585 630.075 26.9585C630.352 26.9585 630.576 27.1829 630.576 27.4599Z" fill="#1F1F1F"/>
<path d="M632.589 27.4599V31.4709C632.589 31.7479 632.365 31.9723 632.088 31.9723C631.811 31.9723 631.586 31.7479 631.586 31.4709V27.4599C631.586 27.1829 631.811 26.9585 632.088 26.9585C632.365 26.9585 632.589 27.1829 632.589 27.4599Z" fill="#1F1F1F"/>
<path d="M634.597 27.4599V31.4709C634.597 31.7479 634.373 31.9723 634.096 31.9723C633.819 31.9723 633.594 31.7479 633.594 31.4709V27.4599C633.594 27.1829 633.819 26.9585 634.096 26.9585C634.373 26.9585 634.597 27.1829 634.597 27.4599Z" fill="#1F1F1F"/>
<path d="M636.605 27.4599V31.4709C636.605 31.7479 636.38 31.9723 636.103 31.9723C635.826 31.9723 635.602 31.7479 635.602 31.4709V27.4599C635.602 27.1829 635.826 26.9585 636.103 26.9585C636.38 26.9585 636.605 27.1829 636.605 27.4599Z" fill="#1F1F1F"/>
<path d="M638.58 27.4599V31.4709C638.58 31.7479 638.356 31.9723 638.079 31.9723C637.802 31.9723 637.578 31.7479 637.578 31.4709V27.4599C637.578 27.1829 637.802 26.9585 638.079 26.9585C638.356 26.9585 638.58 27.1829 638.58 27.4599Z" fill="#1F1F1F"/>
<path d="M640.608 27.4599V31.4709C640.608 31.7479 640.383 31.9723 640.106 31.9723C639.829 31.9723 639.605 31.7479 639.605 31.4709V27.4599C639.605 27.1829 639.829 26.9585 640.106 26.9585C640.383 26.9585 640.608 27.1829 640.608 27.4599Z" fill="#1F1F1F"/>
<path d="M642.597 27.4599V31.4709C642.597 31.7479 642.373 31.9723 642.096 31.9723C641.819 31.9723 641.594 31.7479 641.594 31.4709V27.4599C641.594 27.1829 641.819 26.9585 642.096 26.9585C642.373 26.9585 642.597 27.1829 642.597 27.4599Z" fill="#1F1F1F"/>
<path d="M813.062 66.9585C813.062 71.6527 816.866 75.4585 821.562 75.4585C826.259 75.4585 830.062 71.6527 830.062 66.9585C830.062 62.2639 826.259 58.4585 821.562 58.4585C816.866 58.4585 813.062 62.2639 813.062 66.9585Z" fill="#1F1F1F" stroke="#2C2C2C"/>
<path d="M822.274 65.4336C822.128 65.4336 821.847 65.4336 821.559 65.4336C821.168 65.4336 820.848 65.7532 820.848 66.1476C820.848 66.5419 821.168 66.8615 821.559 66.8615C821.954 66.8615 822.274 67.1808 822.274 67.5751C822.274 67.9694 821.954 68.2891 821.559 68.2891H820.848" stroke="#444444" stroke-width="0.5" stroke-linecap="round" stroke-linejoin="round"/>
<path d="M821.566 65.4343V64.7207" stroke="#444444" stroke-width="0.5" stroke-linecap="round" stroke-linejoin="round"/>
<path d="M821.566 69.004V68.29" stroke="#444444" stroke-width="0.5" stroke-linecap="round" stroke-linejoin="round"/>
<path d="M817.801 66.008C818.224 64.3 819.771 63.0342 821.609 63.0342C823.447 63.0342 824.991 64.3 825.414 66.008" stroke="#444444" stroke-width="0.5" stroke-linecap="round" stroke-linejoin="round"/>
<path d="M825.414 67.9033C824.991 69.6111 823.447 70.8772 821.609 70.8772C819.771 70.8772 818.224 69.6111 817.801 67.9033" stroke="#444444" stroke-width="0.5" stroke-linecap="round" stroke-linejoin="round"/>
<path d="M824.207 65.4448L825.451 66.0389L825.97 64.8286" stroke="#444444" stroke-width="0.5" stroke-linecap="round" stroke-linejoin="round"/>
<path d="M819.077 68.454L817.819 67.8911L817.332 69.1139" stroke="#444444" stroke-width="0.5" stroke-linecap="round" stroke-linejoin="round"/>
<path d="M790.801 62.2875V58.1445C790.801 57.9323 790.974 57.7603 791.185 57.7603C791.397 57.7603 791.57 57.9323 791.57 58.1445V62.2875C791.57 62.4997 791.398 62.6719 791.185 62.6719C790.973 62.6719 790.801 62.4997 790.801 62.2875Z" fill="#1F1F1F"/>
<path d="M789.91 57.2377C789.91 56.5322 790.484 55.9585 791.189 55.9585C791.895 55.9585 792.468 56.5322 792.468 57.2377C792.468 57.9432 791.895 58.5169 791.189 58.5169C790.484 58.5169 789.91 57.9432 789.91 57.2377ZM791.7 57.2377C791.7 56.9562 791.47 56.7269 791.189 56.7269C790.907 56.7269 790.678 56.9562 790.678 57.2377C790.678 57.5191 790.907 57.7485 791.189 57.7485C791.47 57.7485 791.7 57.5191 791.7 57.2377Z" fill="#1F1F1F"/>
<path d="M793.883 62.2875V58.1445C793.883 57.9323 794.055 57.7603 794.267 57.7603C794.48 57.7603 794.652 57.9323 794.652 58.1445V62.2875C794.652 62.4997 794.48 62.6719 794.267 62.6719C794.055 62.6719 793.883 62.4997 793.883 62.2875Z" fill="#1F1F1F"/>
<path d="M792.992 57.2377C792.992 56.5322 793.566 55.9585 794.271 55.9585C794.977 55.9585 795.55 56.5322 795.55 57.2377C795.55 57.9432 794.977 58.5169 794.271 58.5169C793.566 58.5169 792.992 57.9432 792.992 57.2377ZM794.782 57.2377C794.782 56.9562 794.552 56.7269 794.271 56.7269C793.989 56.7269 793.76 56.9562 793.76 57.2377C793.76 57.5191 793.989 57.7485 794.271 57.7485C794.553 57.7485 794.782 57.5191 794.782 57.2377Z" fill="#1F1F1F"/>
<path d="M796.953 62.2875V58.1445C796.953 57.9323 797.126 57.7603 797.338 57.7603C797.55 57.7603 797.722 57.9323 797.722 58.1445V62.2875C797.722 62.4997 797.55 62.6719 797.338 62.6719C797.126 62.6719 796.953 62.4997 796.953 62.2875Z" fill="#1F1F1F"/>
<path d="M796.062 57.2377C796.062 56.5322 796.636 55.9585 797.341 55.9585C798.047 55.9585 798.622 56.5322 798.622 57.2377C798.622 57.9432 798.047 58.5169 797.341 58.5169C796.636 58.5169 796.062 57.9432 796.062 57.2377ZM797.852 57.2377C797.852 56.9562 797.623 56.7269 797.341 56.7269C797.06 56.7269 796.831 56.9562 796.831 57.2377C796.831 57.5191 797.06 57.7485 797.341 57.7485C797.623 57.7485 797.852 57.5191 797.852 57.2377Z" fill="#1F1F1F"/>
<path d="M787.562 73.1826V65.0458C787.562 63.5964 788.742 62.4175 790.191 62.4175H798.328C799.778 62.4175 800.957 63.5964 800.957 65.0458V73.1826C800.957 74.6319 799.778 75.8113 798.328 75.8113H790.191C788.742 75.8113 787.562 74.6319 787.562 73.1826ZM800.188 65.0458C800.188 64.0201 799.354 63.1859 798.329 63.1859H790.191C789.166 63.1859 788.331 64.0201 788.331 65.0458V73.1826C788.331 74.2082 789.166 75.0429 790.191 75.0429H798.329C799.354 75.0429 800.188 74.2082 800.188 73.1826V65.0458Z" fill="#313131"/>
<path d="M792.359 73.6667H796.151C797.632 73.6667 798.832 72.4668 798.832 70.9866V67.1938C798.832 65.7136 797.632 64.5137 796.151 64.5137H792.359C790.878 64.5137 789.678 65.7136 789.678 67.1938V70.9866C789.678 72.4668 790.878 73.6667 792.359 73.6667Z" fill="#1F1F1F"/>
<path d="M671.955 41.8555C671.955 40.258 670.655 38.9585 669.057 38.9585C667.46 38.9585 666.16 40.258 666.16 41.8555C666.16 43.4531 667.46 44.753 669.057 44.753C670.655 44.753 671.955 43.4531 671.955 41.8555ZM666.736 41.8555C666.736 40.5758 667.777 39.5351 669.057 39.5351C670.337 39.5351 671.379 40.5758 671.379 41.8555C671.379 43.1353 670.337 44.1769 669.057 44.1769C667.777 44.1769 666.736 43.1358 666.736 41.8555Z" fill="#1F1F1F"/>
<path d="M669.061 40.3765C668.247 40.3765 667.586 41.0368 667.586 41.8515C667.586 42.6661 668.247 43.3264 669.061 43.3264C669.876 43.3264 670.536 42.6661 670.536 41.8515C670.536 41.0368 669.876 40.3765 669.061 40.3765Z" fill="#1F1F1F"/>
<path d="M669.562 38.9585V21.9585H668.562V38.9585H669.562Z" fill="#1F1F1F"/>
<path d="M121.906 201.176H208.36" stroke="#1C1C1C" stroke-linecap="round" stroke-linejoin="round"/>
<path d="M216.598 20.4136V43.6758" stroke="#1C1C1C" stroke-linecap="round" stroke-linejoin="round"/>
<path d="M219.081 3.4892C219.081 2.1167 217.964 1 216.591 1C215.219 1 214.102 2.1167 214.102 3.4892C214.102 4.708 214.983 5.7226 216.141 5.9354V19.2643H217.042V5.9354C218.2 5.7226 219.081 4.708 219.081 3.4892ZM215.003 3.4892C215.003 2.6134 215.716 1.9007 216.591 1.9007C217.467 1.9007 218.18 2.6138 218.18 3.4892C218.18 4.3647 217.467 5.0773 216.591 5.0773C215.716 5.0773 215.003 4.3647 215.003 3.4892Z" fill="#1F1F1F"/>
<path d="M217.779 3.44668C217.779 2.76768 217.228 2.21729 216.549 2.21729C215.87 2.21729 215.32 2.76768 215.32 3.44668C215.32 4.12568 215.87 4.67609 216.549 4.67609C217.228 4.67609 217.779 4.12568 217.779 3.44668Z" fill="#1F1F1F"/>
<path d="M222.254 155.434H218.243C217.966 155.434 217.742 155.209 217.742 154.932C217.742 154.655 217.966 154.431 218.243 154.431H222.254C222.531 154.431 222.756 154.655 222.756 154.932C222.756 155.209 222.531 155.434 222.254 155.434Z" fill="#1F1F1F"/>
<path d="M222.254 157.437H218.243C217.966 157.437 217.742 157.213 217.742 156.936C217.742 156.659 217.966 156.434 218.243 156.434H222.254C222.531 156.434 222.756 156.659 222.756 156.936C222.756 157.213 222.531 157.437 222.254 157.437Z" fill="#1F1F1F"/>
<path d="M222.254 159.444H218.243C217.966 159.444 217.742 159.22 217.742 158.943C217.742 158.666 217.966 158.442 218.243 158.442H222.254C222.531 158.442 222.756 158.666 222.756 158.943C222.756 159.22 222.531 159.444 222.254 159.444Z" fill="#1F1F1F"/>
<path d="M222.254 161.448H218.243C217.966 161.448 217.742 161.223 217.742 160.946C217.742 160.669 217.966 160.445 218.243 160.445H222.254C222.531 160.445 222.756 160.669 222.756 160.946C222.756 161.223 222.531 161.448 222.254 161.448Z" fill="#1F1F1F"/>
<path d="M222.254 163.456H218.243C217.966 163.456 217.742 163.232 217.742 162.955C217.742 162.678 217.966 162.454 218.243 162.454H222.254C222.531 162.454 222.756 162.678 222.756 162.955C222.756 163.232 222.531 163.456 222.254 163.456Z" fill="#1F1F1F"/>
<path d="M222.254 165.461H218.243C217.966 165.461 217.742 165.237 217.742 164.96C217.742 164.683 217.966 164.459 218.243 164.459H222.254C222.531 164.459 222.756 164.683 222.756 164.96C222.756 165.237 222.531 165.461 222.254 165.461Z" fill="#1F1F1F"/>
<path d="M222.254 167.469H218.243C217.966 167.469 217.742 167.244 217.742 166.967C217.742 166.69 217.966 166.466 218.243 166.466H222.254C222.531 166.466 222.756 166.69 222.756 166.967C222.756 167.244 222.531 167.469 222.254 167.469Z" fill="#1F1F1F"/>
<path d="M222.254 169.473H218.243C217.966 169.473 217.742 169.249 217.742 168.972C217.742 168.695 217.966 168.47 218.243 168.47H222.254C222.531 168.47 222.756 168.695 222.756 168.972C222.756 169.249 222.531 169.473 222.254 169.473Z" fill="#1F1F1F"/>
<path d="M222.254 171.481H218.243C217.966 171.481 217.742 171.257 217.742 170.98C217.742 170.703 217.966 170.479 218.243 170.479H222.254C222.531 170.479 222.756 170.703 222.756 170.98C222.756 171.257 222.531 171.481 222.254 171.481Z" fill="#1F1F1F"/>
<path d="M258.905 24.6463V28.6574C258.905 28.9343 258.68 29.1587 258.403 29.1587C258.126 29.1587 257.902 28.9343 257.902 28.6574V24.6463C257.902 24.3693 258.126 24.145 258.403 24.145C258.68 24.145 258.905 24.3693 258.905 24.6463Z" fill="#1F1F1F"/>
<path d="M260.905 24.6463V28.6574C260.905 28.9343 260.68 29.1587 260.403 29.1587C260.126 29.1587 259.902 28.9343 259.902 28.6574V24.6463C259.902 24.3693 260.126 24.145 260.403 24.145C260.68 24.145 260.905 24.3693 260.905 24.6463Z" fill="#1F1F1F"/>
<path d="M262.916 24.6463V28.6574C262.916 28.9343 262.692 29.1587 262.415 29.1587C262.138 29.1587 261.914 28.9343 261.914 28.6574V24.6463C261.914 24.3693 262.138 24.145 262.415 24.145C262.692 24.145 262.916 24.3693 262.916 24.6463Z" fill="#1F1F1F"/>
<path d="M264.928 24.6463V28.6574C264.928 28.9343 264.704 29.1587 264.427 29.1587C264.15 29.1587 263.926 28.9343 263.926 28.6574V24.6463C263.926 24.3693 264.15 24.145 264.427 24.145C264.704 24.145 264.928 24.3693 264.928 24.6463Z" fill="#1F1F1F"/>
<path d="M266.937 24.6463V28.6574C266.937 28.9343 266.713 29.1587 266.436 29.1587C266.159 29.1587 265.934 28.9343 265.934 28.6574V24.6463C265.934 24.3693 266.159 24.145 266.436 24.145C266.713 24.145 266.937 24.3693 266.937 24.6463Z" fill="#1F1F1F"/>
<path d="M268.944 24.6463V28.6574C268.944 28.9343 268.719 29.1587 268.442 29.1587C268.166 29.1587 267.941 28.9343 267.941 28.6574V24.6463C267.941 24.3693 268.166 24.145 268.442 24.145C268.719 24.145 268.944 24.3693 268.944 24.6463Z" fill="#1F1F1F"/>
<path d="M270.92 24.6463V28.6574C270.92 28.9343 270.696 29.1587 270.419 29.1587C270.142 29.1587 269.918 28.9343 269.918 28.6574V24.6463C269.918 24.3693 270.142 24.145 270.419 24.145C270.696 24.145 270.92 24.3693 270.92 24.6463Z" fill="#1F1F1F"/>
<path d="M272.948 24.6463V28.6574C272.948 28.9343 272.723 29.1587 272.446 29.1587C272.169 29.1587 271.945 28.9343 271.945 28.6574V24.6463C271.945 24.3693 272.169 24.145 272.446 24.145C272.723 24.145 272.948 24.3693 272.948 24.6463Z" fill="#1F1F1F"/>
<path d="M274.937 24.6463V28.6574C274.937 28.9343 274.713 29.1587 274.436 29.1587C274.159 29.1587 273.934 28.9343 273.934 28.6574V24.6463C273.934 24.3693 274.159 24.145 274.436 24.145C274.713 24.145 274.937 24.3693 274.937 24.6463Z" fill="#1F1F1F"/>
<path d="M72.9805 81.9741V145.848L211.057 146.511" stroke="#1C1C1C" stroke-linecap="round" stroke-linejoin="round"/>
<path d="M212.239 136.162V155.645M59.4219 177.777H97.1696" stroke="#1C1C1C" stroke-linecap="round" stroke-linejoin="round"/>
<path d="M97.207 147.12V176.952" stroke="#1C1C1C" stroke-linecap="round" stroke-linejoin="round"/>
<path d="M23.5234 202.524H95.9745" stroke="#1C1C1C" stroke-linecap="round" stroke-linejoin="round"/>
<path d="M95.9883 195.829V210.44" stroke="#1C1C1C" stroke-linecap="round" stroke-linejoin="round"/>
<path d="M97.207 127.638V144.685" stroke="#1C1C1C" stroke-linecap="round" stroke-linejoin="round"/>
<path d="M164.311 52.1411H149.559" stroke="#1C1C1C" stroke-linecap="round" stroke-linejoin="round"/>
<path d="M143.121 1V20.02" stroke="#1C1C1C" stroke-linecap="round" stroke-linejoin="round"/>
<path d="M295.906 20.3335H143.465" stroke="#1C1C1C" stroke-linecap="round" stroke-linejoin="round"/>
<path d="M31.0802 83.1726V89.1624H1.90625V94.2528H19.0389V93.5828H2.57681V89.8328H31.7507V83.1726C32.1531 83.0332 32.4441 82.6546 32.4441 82.2045C32.4441 81.6363 31.9836 81.1758 31.4154 81.1758C30.8473 81.1758 30.3869 81.6363 30.3869 82.2045C30.3869 82.6546 30.6778 83.0332 31.0802 83.1726Z" fill="#151515"/>
<path d="M93.1979 18.0745C93.1979 17.5063 92.7374 17.0454 92.1693 17.0454C91.6011 17.0454 91.1406 17.506 91.1406 18.0745C91.1406 18.5094 91.4112 18.8789 91.7925 19.0298V32.0023L102.392 41.0231H116.881V40.3525H102.85V23.9064C103.187 23.7372 103.421 23.3926 103.421 22.9898C103.421 22.4217 102.96 21.9608 102.392 21.9608C101.823 21.9608 101.363 22.4214 101.363 22.9898C101.363 23.4853 101.714 23.8985 102.18 23.9964V39.9622L97.5462 36.0188V21.5439C97.949 21.4044 98.2396 21.0259 98.2396 20.5757C98.2396 20.0076 97.7791 19.5471 97.2106 19.5471C96.6421 19.5471 96.1819 20.0076 96.1819 20.5757C96.1819 21.0259 96.4729 21.4044 96.8757 21.5439V35.4482L92.463 31.6926V19.0554C92.8872 18.9284 93.1979 18.5398 93.1979 18.0745Z" fill="#151515"/>
<path d="M92.2234 46.1076H116.229V45.437H92.2234C92.084 45.0342 91.7054 44.7437 91.2553 44.7437C90.6871 44.7437 90.2266 45.2042 90.2266 45.7727C90.2266 46.3412 90.6871 46.8013 91.2553 46.8013C91.7054 46.8013 92.084 46.51 92.2234 46.1076Z" fill="#151515"/>
<path d="M92.8728 104.579V68.4469L109.259 50.968H117.071V50.2974H108.968L92.2022 68.1818V104.51C91.7486 104.617 91.4102 105.023 91.4102 105.509C91.4102 106.077 91.8708 106.538 92.4389 106.538C93.0071 106.538 93.468 106.077 93.468 105.509C93.468 105.097 93.2234 104.743 92.8728 104.579Z" fill="#151515"/>
<path d="M96.6066 104.78V70.216L109.239 56.2766H117.047V55.606H108.941L95.9357 69.9572V104.78C95.5329 104.919 95.2422 105.298 95.2422 105.748C95.2422 106.198 95.5332 106.577 95.9357 106.716V106.777H96.6063V106.716C97.009 106.577 97.2997 106.198 97.2997 105.748C97.2997 105.298 97.009 104.919 96.6066 104.78Z" fill="#151515"/>
<path d="M117.664 124.902V101.728H113.843C113.735 101.275 113.33 100.937 112.844 100.937C112.358 100.937 111.954 101.275 111.846 101.728H105.928V73.5612H122.358V72.8906H105.258V102.399H111.914C112.078 102.75 112.431 102.995 112.844 102.995C113.257 102.995 113.611 102.75 113.775 102.399H116.993V115.811H100.228V132.95C99.8259 133.09 99.5352 133.468 99.5352 133.918C99.5352 134.486 99.9953 134.947 100.564 134.947C101.132 134.947 101.593 134.486 101.593 133.918C101.593 133.468 101.302 133.089 100.899 132.95V116.482H116.994V124.902C116.592 125.041 116.301 125.42 116.301 125.87C116.301 126.438 116.762 126.899 117.33 126.899C117.898 126.899 118.358 126.438 118.358 125.87C118.358 125.42 118.066 125.041 117.664 124.902Z" fill="#1F1F1F"/>
<path d="M138.311 78.5994H130.599V89.0316C130.197 89.1714 129.906 89.5498 129.906 89.9998C129.906 90.5678 130.367 91.0288 130.935 91.0288C131.503 91.0288 131.963 90.5678 131.963 89.9998C131.963 89.5498 131.672 89.171 131.27 89.0316V79.2703H138.982V63.1758H138.311V78.5994Z" fill="#151515"/>
<path d="M243.374 38.6787C242.08 38.6787 241.027 39.7316 241.027 41.0257C241.027 42.3198 242.08 43.3727 243.374 43.3727C244.668 43.3727 245.721 42.3198 245.721 41.0257C245.721 39.7316 244.668 38.6787 243.374 38.6787ZM243.374 42.7025C242.45 42.7025 241.698 41.9502 241.698 41.026C241.698 40.1019 242.45 39.3496 243.374 39.3496C244.298 39.3496 245.05 40.1019 245.05 41.026C245.05 41.9502 244.298 42.7025 243.374 42.7025Z" fill="#1F1F1F"/>
<path d="M105.965 65.8387C105.965 67.1328 107.017 68.1857 108.312 68.1857C109.606 68.1857 110.659 67.1328 110.659 65.8387C110.659 64.5446 109.606 63.4917 108.312 63.4917C107.017 63.4917 105.965 64.5446 105.965 65.8387ZM109.988 65.8387C109.988 66.7632 109.236 67.5151 108.312 67.5151C107.388 67.5151 106.636 66.7629 106.636 65.8387C106.636 64.9145 107.388 64.1623 108.312 64.1623C109.236 64.1623 109.988 64.9145 109.988 65.8387Z" fill="#1C1C1C"/>
<path d="M108.976 129.891C107.682 129.891 106.629 130.944 106.629 132.238C106.629 133.532 107.682 134.585 108.976 134.585C110.27 134.585 111.323 133.532 111.323 132.238C111.323 130.944 110.27 129.891 108.976 129.891ZM108.976 133.915C108.051 133.915 107.299 133.162 107.299 132.238C107.299 131.314 108.051 130.562 108.976 130.562C109.9 130.562 110.652 131.314 110.652 132.238C110.652 133.162 109.9 133.915 108.976 133.915Z" fill="#1C1C1C"/>
<path d="M124.007 101.387C122.713 101.387 121.66 102.44 121.66 103.734C121.66 105.028 122.713 106.081 124.007 106.081C125.301 106.081 126.354 105.028 126.354 103.734C126.354 102.44 125.301 101.387 124.007 101.387ZM124.007 105.411C123.083 105.411 122.33 104.658 122.33 103.734C122.33 102.81 123.083 102.058 124.007 102.058C124.931 102.058 125.683 102.81 125.683 103.734C125.683 104.658 124.931 105.411 124.007 105.411Z" fill="#1C1C1C"/>
<path d="M1 103.284H72.3651" stroke="#1C1C1C" stroke-linecap="round" stroke-linejoin="round"/>
<path d="M164.172 20.4839V76.0493H212.269V105.112" stroke="#1C1C1C" stroke-linecap="round" stroke-linejoin="round"/>
<path d="M2.90625 199.762C2.90625 204.732 6.9358 208.762 11.9062 208.762C16.8767 208.762 20.9062 204.732 20.9062 199.762C20.9062 194.791 16.8767 190.762 11.9062 190.762C6.9358 190.762 2.90625 194.791 2.90625 199.762Z" fill="#1F1F1F"/>
<path d="M2.90625 200.176C2.90625 205.146 6.9358 209.176 11.9062 209.176C16.8767 209.176 20.9062 205.146 20.9062 200.176C20.9062 195.206 16.8767 191.176 11.9062 191.176C6.9358 191.176 2.90625 195.206 2.90625 200.176Z" stroke="#313131" stroke-width="0.5" stroke-miterlimit="10"/>
<path d="M8.57422 203.721V198.858L10.1418 197.525V202.385L8.57422 203.721ZM15.3364 201.611L13.7766 202.937V198.077C14.2896 197.64 14.8177 197.201 15.3364 196.759V201.611Z" fill="#444444"/>
<path d="M15.3023 201.611L13.742 202.937V198.077C14.2554 197.64 14.7831 197.201 15.3023 196.759V201.611ZM12.7172 203.81C12.1928 204.257 11.6695 204.706 11.1406 205.156V200.669H12.7172V203.81Z" fill="#444444"/>
<path d="M11.1406 199.808V196.663L12.7164 195.306C12.7184 196.705 12.7209 199.79 12.7209 199.79L11.1406 199.808Z" fill="#444444"/>
<path d="M78.9062 119.176C78.9062 123.594 82.488 127.176 86.9062 127.176C91.3245 127.176 94.9062 123.594 94.9062 119.176C94.9062 114.758 91.3245 111.176 86.9062 111.176C82.488 111.176 78.9062 114.758 78.9062 119.176Z" stroke="#313131" stroke-miterlimit="10"/>
<path d="M78.9062 119.176C78.9062 123.594 82.488 127.176 86.9062 127.176C91.3245 127.176 94.9062 123.594 94.9062 119.176C94.9062 114.758 91.3245 111.176 86.9062 111.176C82.488 111.176 78.9062 114.758 78.9062 119.176Z" fill="#1F1F1F"/>
<path d="M83.7344 120.765H84.6422C84.6861 120.766 84.7277 120.789 84.7586 120.828C84.7895 120.869 84.8066 120.922 84.8066 120.979V122.687H83.5764V120.988C83.5753 120.96 83.5783 120.932 83.5856 120.906C83.5932 120.879 83.6047 120.855 83.6196 120.834C83.6493 120.793 83.6905 120.768 83.7344 120.765ZM86.2097 116.946H87.1175C87.1614 116.946 87.2033 116.968 87.2342 117.007C87.2651 117.047 87.2831 117.101 87.2835 117.157V122.687H86.0452V117.157C86.0456 117.101 86.0632 117.047 86.0937 117.007C86.1246 116.968 86.1662 116.946 86.2097 116.946ZM88.6842 118.856H89.592C89.6137 118.856 89.6355 118.861 89.6557 118.872C89.6756 118.883 89.6939 118.898 89.7095 118.918C89.7248 118.938 89.737 118.962 89.7454 118.988C89.7538 119.014 89.758 119.041 89.758 119.069V122.687H88.5198V119.069C88.5198 119.013 88.5373 118.959 88.5678 118.92C88.5987 118.879 88.6403 118.857 88.6842 118.856Z" fill="#444444"/>
<path opacity="0.8" d="M118.592 41.705L116.906 39.1758V55.6415L118.665 52.5622C118.84 52.2562 118.932 51.9097 118.932 51.557V42.8292C118.932 42.429 118.814 42.0378 118.592 41.705Z" fill="#151515"/>
<path opacity="0.1" d="M144.346 45.1758H133.466C132.052 45.1758 130.906 46.322 130.906 47.7358V58.6158C130.906 60.0296 132.052 61.1758 133.466 61.1758H144.346C145.76 61.1758 146.906 60.0296 146.906 58.6158V47.7358C146.906 46.322 145.76 45.1758 144.346 45.1758Z" fill="#1F1F1F"/>
<path d="M144.335 45.498H133.455C132.217 45.498 131.215 46.5008 131.215 47.738V58.618C131.215 59.8551 132.217 60.858 133.455 60.858H144.335C145.572 60.858 146.575 59.8551 146.575 58.618V47.738C146.575 46.5008 145.572 45.498 144.335 45.498Z" fill="#1F1F1F" stroke="#2C2C2C" stroke-width="0.5"/>
<path d="M140.126 51.363H141.32M141.32 51.363V52.7566M141.32 51.363C141.32 50.7294 141.068 50.1214 140.62 49.6734C140.172 49.2251 139.564 48.9733 138.93 48.9733M138.93 48.9733C138.296 48.9733 137.688 49.2251 137.24 49.6731C136.792 50.1214 136.54 50.7294 136.54 51.363M138.93 48.9733V48.3765M136.54 51.363V52.7566M136.54 51.363H137.736M134.75 57.3365H143.113M135.347 56.1429H142.516M137.137 53.7531H135.944V56.1429H137.137V53.7531ZM139.526 53.7531H138.332V56.1429H139.526V53.7531ZM141.916 53.7531H140.723V56.1429H141.916V53.7531ZM142.517 53.4533C142.517 53.531 142.486 53.6059 142.431 53.661C142.375 53.716 142.301 53.747 142.223 53.747H135.65C135.572 53.747 135.498 53.716 135.443 53.661C135.388 53.6059 135.356 53.531 135.356 53.4533C135.357 53.365 135.386 53.2792 135.439 53.2085C135.492 53.1378 135.566 53.0853 135.65 53.0594L138.857 51.9922C138.918 51.9717 138.984 51.9717 139.045 51.9922L142.252 53.0594C142.331 53.0901 142.399 53.1442 142.446 53.2149C142.494 53.2853 142.518 53.3685 142.517 53.4533Z" stroke="#444444" stroke-width="0.5" stroke-linecap="round" stroke-linejoin="round"/>
<path d="M208.906 54.1758C208.906 58.5939 212.488 62.1758 216.906 62.1758C221.324 62.1758 224.906 58.5939 224.906 54.1758C224.906 49.7573 221.324 46.1758 216.906 46.1758C212.488 46.1758 208.906 49.7573 208.906 54.1758Z" fill="#1F1F1F"/>
<path d="M208.906 54.1758C208.906 58.5939 212.488 62.1758 216.906 62.1758C221.324 62.1758 224.906 58.5939 224.906 54.1758C224.906 49.7573 221.324 46.1758 216.906 46.1758C212.488 46.1758 208.906 49.7573 208.906 54.1758Z" stroke="#313131" stroke-width="0.5" stroke-miterlimit="10"/>
<path d="M214.395 57.9398L213.285 56.8298L214.395 55.7197" stroke="#444444" stroke-width="0.5" stroke-linecap="round" stroke-linejoin="round"/>
<path d="M216.066 57.9398L217.176 56.8298L216.066 55.7197" stroke="#444444" stroke-width="0.5" stroke-linecap="round" stroke-linejoin="round"/>
<path d="M214.398 54.6106V51.2801C214.398 51.1329 214.457 50.9918 214.561 50.8876C214.665 50.7838 214.806 50.7251 214.953 50.7251H217.728L220.504 53.5006V57.3857C220.504 57.5329 220.445 57.6741 220.341 57.7783C220.237 57.8824 220.096 57.9408 219.949 57.9408H218.284" stroke="#444444" stroke-width="0.5" stroke-linecap="round" stroke-linejoin="round"/>
<path d="M217.738 50.7251V53.5006H220.513" stroke="#444444" stroke-width="0.5" stroke-linecap="round" stroke-linejoin="round"/>
<path d="M54.3462 168.176H43.4663C42.0525 168.176 40.9062 169.322 40.9062 170.736V181.616C40.9062 183.03 42.0525 184.176 43.4663 184.176H54.3462C55.7601 184.176 56.9062 183.03 56.9062 181.616V170.736C56.9062 169.322 55.7601 168.176 54.3462 168.176Z" fill="#202020"/>
<path opacity="0.8" d="M42.6197 172.654L41.5547 171.057V181.457L42.6661 179.512C42.7765 179.319 42.8347 179.1 42.8347 178.877V173.364C42.8347 173.112 42.7599 172.865 42.6197 172.654Z" fill="#1A1A1A"/>
<path d="M172.346 160.176H161.466C160.052 160.176 158.906 161.322 158.906 162.736V173.616C158.906 175.03 160.052 176.176 161.466 176.176H172.346C173.76 176.176 174.906 175.03 174.906 173.616V162.736C174.906 161.322 173.76 160.176 172.346 160.176Z" fill="#202020"/>
<path d="M172.358 160.498H161.478C160.241 160.498 159.238 161.501 159.238 162.738V173.618C159.238 174.855 160.241 175.858 161.478 175.858H172.358C173.595 175.858 174.598 174.855 174.598 173.618V162.738C174.598 161.501 173.595 160.498 172.358 160.498Z" stroke="#2C2C2C" stroke-width="0.5"/>
<path opacity="0.8" d="M160.612 164.656L159.547 163.059V173.459L160.658 171.514C160.768 171.321 160.827 171.102 160.827 170.879V165.366C160.827 165.114 160.752 164.866 160.612 164.656Z" fill="#1A1A1A"/>
<path fill-rule="evenodd" clip-rule="evenodd" d="M166.862 172.657C164.335 171.398 163.07 169.668 163.067 167.467C163.066 167.044 163.066 166.352 163.067 165.389L166.862 164.017V172.657Z" fill="#444444"/>
<path fill-rule="evenodd" clip-rule="evenodd" d="M166.875 170.003V168.29L169.995 165.155L170.636 165.389V166.223L166.875 170.003ZM166.875 171.53L170.628 167.759C170.518 169.822 169.267 171.454 166.875 172.657V171.53ZM166.875 166.763V164.017L168.88 164.748L166.875 166.763Z" fill="#444444" fill-opacity="0.6"/>
<path d="M54.608 168.442H43.2747C41.986 168.442 40.9414 169.487 40.9414 170.775V182.109C40.9414 183.397 41.986 184.442 43.2747 184.442H54.608C55.8967 184.442 56.9414 183.397 56.9414 182.109V170.775C56.9414 169.487 55.8967 168.442 54.608 168.442Z" stroke="#2C2C2C" stroke-width="0.5"/>
<path d="M49.1867 181.061C49.0323 181.121 48.861 181.121 48.7067 181.061C47.5003 180.588 46.4647 179.763 45.7347 178.692C45.0043 177.622 44.6137 176.357 44.6133 175.061V173.108C44.6133 172.931 44.6837 172.761 44.8087 172.636C44.9337 172.511 45.1033 172.441 45.28 172.441H52.6133C52.79 172.441 52.9597 172.511 53.0847 172.636C53.2097 172.761 53.28 172.931 53.28 173.108V175.054C53.281 176.351 52.891 177.618 52.1607 178.69C51.4303 179.761 50.394 180.588 49.1867 181.061Z" stroke="#444444" stroke-width="0.5" stroke-linecap="round" stroke-linejoin="round"/>
<path d="M49.9361 175.773H47.9361C47.5678 175.773 47.2695 176.072 47.2695 176.44V177.773C47.2695 178.142 47.5678 178.44 47.9361 178.44H49.9361C50.3045 178.44 50.6028 178.142 50.6028 177.773V176.44C50.6028 176.072 50.3045 175.773 49.9361 175.773Z" stroke="#444444" stroke-width="0.5" stroke-linecap="round" stroke-linejoin="round"/>
<path d="M49.957 175.774V175.108C49.957 174.976 49.931 174.846 49.881 174.725C49.8306 174.604 49.757 174.493 49.664 174.401C49.5713 174.308 49.461 174.234 49.3396 174.184C49.2183 174.134 49.0883 174.108 48.957 174.108C48.8256 174.108 48.6956 174.134 48.5743 174.184C48.453 174.234 48.3426 174.308 48.25 174.401C48.157 174.493 48.0833 174.604 48.033 174.725C47.983 174.846 47.957 174.976 47.957 175.108V175.774" stroke="#444444" stroke-width="0.5" stroke-linecap="round" stroke-linejoin="round"/>
<path d="M203.906 120.176C203.906 124.594 207.488 128.176 211.906 128.176C216.324 128.176 219.906 124.594 219.906 120.176C219.906 115.758 216.324 112.176 211.906 112.176C207.488 112.176 203.906 115.758 203.906 120.176Z" fill="#1F1F1F"/>
<path d="M203.906 120.176C203.906 124.594 207.488 128.176 211.906 128.176C216.324 128.176 219.906 124.594 219.906 120.176C219.906 115.758 216.324 112.176 211.906 112.176C207.488 112.176 203.906 115.758 203.906 120.176Z" stroke="#313131" stroke-width="0.5" stroke-miterlimit="10"/>
<path d="M208.998 118.777V121.817M210.378 118.777V121.817M211.76 118.777V121.817M213.14 118.777V121.817M214.523 118.777V121.817M215.026 118.777H208.494C208.185 118.777 208.053 118.44 208.296 118.28L211.561 116.142C211.622 116.106 211.691 116.087 211.761 116.087C211.83 116.087 211.899 116.106 211.959 116.142L215.225 118.28C215.468 118.44 215.336 118.777 215.026 118.777ZM215.075 121.817H208.444C208.291 121.817 208.168 121.94 208.168 122.093V122.922C208.168 123.075 208.291 123.198 208.444 123.198H215.075C215.228 123.198 215.352 123.075 215.352 122.922V122.093C215.352 122.057 215.345 122.021 215.331 121.987C215.317 121.953 215.297 121.923 215.271 121.897C215.245 121.872 215.215 121.851 215.181 121.838C215.148 121.824 215.112 121.817 215.075 121.817Z" stroke="#444444" stroke-width="0.5" stroke-linecap="round" stroke-linejoin="round"/>
<path d="M64.9062 70.2513C64.9062 74.6278 68.4543 78.176 72.8308 78.176C77.2077 78.176 80.7555 74.6278 80.7555 70.2513C80.7555 65.8745 77.2077 62.3267 72.8308 62.3267C68.4543 62.3267 64.9062 65.8745 64.9062 70.2513Z" fill="#1F1F1F"/>
<path d="M64.9062 70.1004C64.9062 74.477 68.4543 78.0251 72.8308 78.0251C77.2077 78.0251 80.7555 74.477 80.7555 70.1004C80.7555 65.7236 77.2077 62.1758 72.8308 62.1758C68.4543 62.1758 64.9062 65.7236 64.9062 70.1004Z" stroke="#313131" stroke-width="0.5" stroke-miterlimit="10"/>
<path d="M70.2662 66.0498H70.8987C71.2745 66.0484 71.6419 66.1594 71.9543 66.3679C72.267 66.5764 72.5101 66.8733 72.6531 67.2209C72.7485 67.4513 72.7971 67.6985 72.7968 67.9479V68.5804M70.3091 70.0861V71.5879M69.5572 70.837H71.0632M75.2858 68.5804H70.3088C69.933 68.5818 69.5632 68.6769 69.2331 68.8573C68.9031 69.0376 68.6235 69.2975 68.4192 69.6131C68.241 69.8892 68.1251 70.2009 68.08 70.5267C68.0349 70.8522 68.0614 71.1836 68.1575 71.4978C68.2537 71.8123 68.4174 72.1018 68.6369 72.3462C68.8566 72.5907 69.1271 72.784 69.4293 72.9133C69.8632 73.0982 70.344 73.1426 70.8043 73.0401C71.2647 72.9379 71.6813 72.6939 71.9958 72.3427H73.6322C74.0112 72.7629 74.5342 73.0249 75.0974 73.0767C75.6609 73.1285 76.223 72.9661 76.6721 72.622C76.969 72.3938 77.205 72.0958 77.3578 71.7542C77.5111 71.4125 77.5769 71.0378 77.5494 70.6644C77.5072 70.1006 77.2543 69.5733 76.8415 69.1873C76.4284 68.8013 75.8849 68.5847 75.3196 68.5804H75.2858Z" stroke="#444444" stroke-width="0.5" stroke-linecap="round" stroke-linejoin="round"/>
<path d="M74.6546 71.4998C74.6124 71.4998 74.5722 71.4832 74.5426 71.4533C74.5127 71.4237 74.4961 71.3835 74.4961 71.3413C74.4961 71.2993 74.5127 71.2592 74.5426 71.2296C74.5722 71.1997 74.6124 71.1831 74.6546 71.1831M74.6546 71.4998C74.6754 71.5001 74.6958 71.4962 74.7152 71.4881C74.7346 71.4804 74.7518 71.4684 74.7666 71.4536C74.7814 71.4388 74.7931 71.4216 74.8012 71.4022C74.811 71.3782 74.8149 71.3518 74.8121 71.3261C74.8096 71.3001 74.8008 71.275 74.7864 71.2536C74.7716 71.2317 74.7522 71.2141 74.7293 71.2018C74.7061 71.1895 74.6804 71.1831 74.6546 71.1831" stroke="#444444" stroke-width="0.8"/>
<path d="M75.6976 70.569C75.6557 70.569 75.6152 70.5524 75.5856 70.5229C75.556 70.4929 75.5391 70.4528 75.5391 70.4109C75.5391 70.3689 75.556 70.3284 75.5856 70.2988C75.6152 70.2693 75.6557 70.2524 75.6976 70.2524M75.6976 70.569C75.7184 70.5693 75.7392 70.5655 75.7582 70.5577C75.7775 70.5496 75.7952 70.5376 75.8096 70.5229C75.8244 70.5084 75.8364 70.4908 75.8441 70.4714C75.854 70.4475 75.8579 70.4214 75.8554 70.3954C75.8526 70.3693 75.8438 70.3446 75.8293 70.3228C75.8149 70.3013 75.7952 70.2833 75.7723 70.2714C75.7494 70.259 75.7237 70.2524 75.6976 70.2524" stroke="#444444" stroke-width="0.8"/>
<path d="M160.015 76.7231C159.608 76.7231 159.277 77.0543 159.277 77.4614C159.277 77.8684 159.608 78.1998 160.015 78.1998H160.896C161.036 78.9902 161.658 79.6127 162.449 79.7532V80.6329C162.449 81.0402 162.78 81.3713 163.187 81.3713C163.595 81.3713 163.926 81.0402 163.926 80.6329V79.7846H164.37V80.6329C164.37 81.0402 164.701 81.3713 165.108 81.3713C165.515 81.3713 165.846 81.0402 165.846 80.6329V79.7532C166.637 79.6127 167.259 78.9902 167.399 78.1998H168.28C168.687 78.1998 169.018 77.8687 169.018 77.4614C169.018 77.0541 168.687 76.7231 168.28 76.7231H167.43V76.2788H168.28C168.687 76.2788 169.018 75.9477 169.018 75.5406C169.018 75.1335 168.687 74.8021 168.28 74.8021H167.399C167.258 74.0127 166.636 73.3914 165.846 73.251V72.3689C165.846 71.9616 165.515 71.6304 165.108 71.6304C164.701 71.6304 164.37 71.9616 164.37 72.3689V73.2193H163.926V72.3689C163.926 71.9616 163.594 71.6304 163.187 71.6304C162.78 71.6304 162.449 71.9616 162.449 72.3689V73.251C161.659 73.3914 161.038 74.0127 160.897 74.8021H160.015C159.608 74.8021 159.277 75.1333 159.277 75.5406C159.277 75.9479 159.608 76.2788 160.015 76.2788H160.865V76.7231H160.015ZM167.706 77.2719H168.28C168.384 77.2719 168.47 77.3569 168.47 77.4614C168.47 77.5658 168.385 77.6511 168.28 77.6511H167.706V77.2719ZM167.706 75.3509H168.28C168.384 75.3509 168.47 75.4359 168.47 75.5406C168.47 75.6453 168.385 75.7301 168.28 75.7301H167.706V75.3509ZM163.377 80.6331C163.377 80.7378 163.292 80.8228 163.187 80.8228C163.083 80.8228 162.998 80.7378 162.998 80.6331V80.0594H163.377V80.6331ZM165.298 80.6331C165.298 80.7378 165.213 80.8228 165.108 80.8228C165.004 80.8228 164.918 80.7378 164.918 80.6331V80.0594H165.298V80.6331ZM164.918 72.3689C164.918 72.2642 165.004 72.1791 165.108 72.1791C165.213 72.1791 165.298 72.2642 165.298 72.3689V72.9426H164.918V72.3689ZM162.998 72.3689C162.998 72.2642 163.083 72.1791 163.187 72.1791C163.292 72.1791 163.377 72.2642 163.377 72.3689V72.9426H162.998V72.3689ZM160.589 77.6511H160.015C159.911 77.6511 159.826 77.5661 159.826 77.4614C159.826 77.3567 159.911 77.2719 160.015 77.2719H160.589V77.6511ZM160.589 75.7301H160.015C159.911 75.7301 159.826 75.6451 159.826 75.5406C159.826 75.4361 159.911 75.3509 160.015 75.3509H160.589V75.7301Z" fill="#1F1F1F"/>
<path d="M189.269 76.7231C188.862 76.7231 188.531 77.0543 188.531 77.4614C188.531 77.8684 188.862 78.1998 189.269 78.1998H190.15C190.29 78.9902 190.912 79.6127 191.703 79.7532V80.6329C191.703 81.0402 192.034 81.3713 192.441 81.3713C192.849 81.3713 193.179 81.0402 193.179 80.6329V79.7846H193.623V80.6329C193.623 81.0402 193.955 81.3713 194.362 81.3713C194.769 81.3713 195.1 81.0402 195.1 80.6329V79.7532C195.891 79.6127 196.513 78.9902 196.653 78.1998H197.534C197.941 78.1998 198.272 77.8687 198.272 77.4614C198.272 77.0541 197.941 76.7231 197.534 76.7231H196.684V76.2788H197.534C197.941 76.2788 198.272 75.9477 198.272 75.5406C198.272 75.1335 197.941 74.8021 197.534 74.8021H196.653C196.512 74.0127 195.89 73.3914 195.1 73.251V72.3689C195.1 71.9616 194.769 71.6304 194.362 71.6304C193.955 71.6304 193.623 71.9616 193.623 72.3689V73.2193H193.179V72.3689C193.179 71.9616 192.848 71.6304 192.441 71.6304C192.034 71.6304 191.703 71.9616 191.703 72.3689V73.251C190.913 73.3914 190.292 74.0127 190.151 74.8021H189.269C188.862 74.8021 188.531 75.1333 188.531 75.5406C188.531 75.9479 188.862 76.2788 189.269 76.2788H190.119V76.7231H189.269ZM196.96 77.2719H197.534C197.638 77.2719 197.723 77.3569 197.723 77.4614C197.723 77.5658 197.638 77.6511 197.534 77.6511H196.96V77.2719ZM196.96 75.3509H197.534C197.638 75.3509 197.723 75.4359 197.723 75.5406C197.723 75.6453 197.638 75.7301 197.534 75.7301H196.96V75.3509ZM192.631 80.6331C192.631 80.7378 192.546 80.8228 192.441 80.8228C192.337 80.8228 192.251 80.7378 192.251 80.6331V80.0594H192.631V80.6331ZM194.551 80.6331C194.551 80.7378 194.466 80.8228 194.362 80.8228C194.258 80.8228 194.172 80.7378 194.172 80.6331V80.0594H194.551V80.6331ZM194.172 72.3689C194.172 72.2642 194.258 72.1791 194.362 72.1791C194.466 72.1791 194.551 72.2642 194.551 72.3689V72.9426H194.172V72.3689ZM192.251 72.3689C192.251 72.2642 192.337 72.1791 192.441 72.1791C192.546 72.1791 192.631 72.2642 192.631 72.3689V72.9426H192.251V72.3689ZM189.843 77.6511H189.269C189.165 77.6511 189.08 77.5661 189.08 77.4614C189.08 77.3567 189.165 77.2719 189.269 77.2719H189.843V77.6511ZM189.843 75.7301H189.269C189.165 75.7301 189.08 75.6451 189.08 75.5406C189.08 75.4361 189.165 75.3509 189.269 75.3509H189.843V75.7301Z" fill="#1F1F1F"/>
<path d="M179.145 45.5047V41.3618C179.145 41.1496 179.318 40.9775 179.529 40.9775C179.741 40.9775 179.914 41.1496 179.914 41.3618V45.5047C179.914 45.7169 179.742 45.8891 179.529 45.8891C179.317 45.8891 179.145 45.7169 179.145 45.5047Z" fill="#1F1F1F"/>
<path d="M178.254 40.455C178.254 39.7495 178.828 39.1758 179.533 39.1758C180.239 39.1758 180.812 39.7495 180.812 40.455C180.812 41.1605 180.239 41.7342 179.533 41.7342C178.828 41.7342 178.254 41.1605 178.254 40.455ZM180.044 40.455C180.044 40.1735 179.814 39.9442 179.533 39.9442C179.251 39.9442 179.022 40.1735 179.022 40.455C179.022 40.7364 179.251 40.9658 179.533 40.9658C179.814 40.9658 180.044 40.7364 180.044 40.455Z" fill="#1F1F1F"/>
<path d="M182.227 45.5047V41.3618C182.227 41.1496 182.399 40.9775 182.611 40.9775C182.824 40.9775 182.996 41.1496 182.996 41.3618V45.5047C182.996 45.7169 182.824 45.8891 182.611 45.8891C182.399 45.8891 182.227 45.7169 182.227 45.5047Z" fill="#1F1F1F"/>
<path d="M181.336 40.455C181.336 39.7495 181.91 39.1758 182.615 39.1758C183.321 39.1758 183.894 39.7495 183.894 40.455C183.894 41.1605 183.321 41.7342 182.615 41.7342C181.91 41.7342 181.336 41.1605 181.336 40.455ZM183.126 40.455C183.126 40.1735 182.896 39.9442 182.615 39.9442C182.333 39.9442 182.104 40.1735 182.104 40.455C182.104 40.7364 182.333 40.9658 182.615 40.9658C182.897 40.9658 183.126 40.7364 183.126 40.455Z" fill="#1F1F1F"/>
<path d="M185.297 45.5047V41.3618C185.297 41.1496 185.47 40.9775 185.682 40.9775C185.894 40.9775 186.066 41.1496 186.066 41.3618V45.5047C186.066 45.7169 185.894 45.8891 185.682 45.8891C185.47 45.8891 185.297 45.7169 185.297 45.5047Z" fill="#1F1F1F"/>
<path d="M184.406 40.455C184.406 39.7495 184.98 39.1758 185.685 39.1758C186.391 39.1758 186.965 39.7495 186.965 40.455C186.965 41.1605 186.391 41.7342 185.685 41.7342C184.98 41.7342 184.406 41.1605 184.406 40.455ZM186.196 40.455C186.196 40.1735 185.967 39.9442 185.685 39.9442C185.404 39.9442 185.174 40.1735 185.174 40.455C185.174 40.7364 185.404 40.9658 185.685 40.9658C185.967 40.9658 186.196 40.7364 186.196 40.455Z" fill="#1F1F1F"/>
<path d="M175.908 56.3999V48.2631C175.908 46.8137 177.087 45.6348 178.536 45.6348H186.673C188.123 45.6348 189.302 46.8137 189.302 48.2631V56.3999C189.302 57.8492 188.123 59.0286 186.673 59.0286H178.536C177.087 59.0286 175.908 57.8492 175.908 56.3999ZM188.533 48.2631C188.533 47.2374 187.699 46.4032 186.674 46.4032H178.536C177.511 46.4032 176.676 47.2374 176.676 48.2631V56.3999C176.676 57.4255 177.511 58.2602 178.536 58.2602H186.674C187.699 58.2602 188.533 57.4255 188.533 56.3999V48.2631Z" fill="#313131"/>
<path d="M180.702 56.884H184.494C185.975 56.884 187.175 55.6841 187.175 54.2039V50.4111C187.175 48.9309 185.975 47.731 184.494 47.731H180.702C179.221 47.731 178.021 48.9309 178.021 50.4111V54.2039C178.021 55.6841 179.221 56.884 180.702 56.884Z" fill="#1F1F1F"/>
<path d="M23.3428 130.368C24.9404 130.368 26.2398 131.668 26.2398 133.266C26.2398 134.863 24.9404 136.163 23.3428 136.163C21.7453 136.163 20.4453 134.863 20.4453 133.266C20.4453 131.668 21.7453 130.368 23.3428 130.368ZM23.3428 135.587C24.6226 135.587 25.6637 134.546 25.6637 133.266C25.6637 131.986 24.6226 130.945 23.3428 130.945C22.0631 130.945 21.0214 131.986 21.0214 133.266C21.0214 134.546 22.0626 135.587 23.3428 135.587Z" fill="#1F1F1F"/>
<path d="M24.8132 133.262C24.8132 134.077 24.1529 134.737 23.3383 134.737C22.5236 134.737 21.8633 134.077 21.8633 133.262C21.8633 132.447 22.5236 131.787 23.3383 131.787C24.1529 131.787 24.8132 132.447 24.8132 133.262Z" fill="#1F1F1F"/>
<path d="M25.9023 133.551H71.0928V132.974H25.9023V133.551Z" fill="#1F1F1F"/>
<path d="M31.4287 121.529C33.0262 121.529 34.3257 122.829 34.3257 124.427C34.3257 126.024 33.0262 127.324 31.4287 127.324C29.8311 127.324 28.5312 126.024 28.5312 124.427C28.5312 122.829 29.8311 121.529 31.4287 121.529ZM31.4287 126.748C32.7084 126.748 33.7491 125.707 33.7491 124.427C33.7491 123.147 32.7084 122.106 31.4287 122.106C30.1489 122.106 29.1072 123.147 29.1072 124.427C29.1072 125.707 30.1484 126.748 31.4287 126.748Z" fill="#1F1F1F"/>
<path d="M32.907 124.425C32.907 125.24 32.2467 125.9 31.432 125.9C30.6173 125.9 29.957 125.24 29.957 124.425C29.957 123.61 30.6173 122.95 31.432 122.95C32.2467 122.95 32.907 123.61 32.907 124.425Z" fill="#1F1F1F"/>
<path d="M33.9766 124.714H71.0948V124.137H33.9766V124.714Z" fill="#1F1F1F"/>
<path d="M54.1255 112.674C55.723 112.674 57.023 113.974 57.023 115.571C57.023 117.169 55.723 118.469 54.1255 118.469C52.5279 118.469 51.2285 117.169 51.2285 115.571C51.2285 113.974 52.5279 112.674 54.1255 112.674ZM54.1255 117.892C55.4052 117.892 56.4464 116.851 56.4464 115.571C56.4464 114.292 55.4052 113.25 54.1255 113.25C52.8457 113.25 51.8045 114.292 51.8045 115.571C51.8045 116.851 52.8452 117.892 54.1255 117.892Z" fill="#1F1F1F"/>
<path d="M55.614 115.572C55.614 114.757 54.9537 114.097 54.139 114.097C53.3244 114.097 52.6641 114.757 52.6641 115.572C52.6641 116.387 53.3244 117.047 54.139 117.047C54.9537 117.047 55.614 116.387 55.614 115.572Z" fill="#1F1F1F"/>
<path d="M56.6914 115.862H70.9181V115.285H56.6914V115.862Z" fill="#1F1F1F"/>
<path d="M67.5791 114.476H71.3427V116.666H67.5791C66.9747 116.666 66.4844 116.175 66.4844 115.571C66.4844 114.967 66.9752 114.476 67.5791 114.476Z" fill="#1F1F1F"/>
<path d="M71.3484 108.062H67.5848C66.98 108.062 66.4902 107.572 66.4902 106.967C66.4902 106.362 66.9805 105.872 67.5848 105.872H71.3484V108.062Z" fill="#1F1F1F"/>
<path d="M71.3484 99.463H67.5848C66.98 99.463 66.4902 98.973 66.4902 98.368C66.4902 97.763 66.9805 97.2729 67.5848 97.2729H71.3484V99.463Z" fill="#1F1F1F"/>
<path d="M71.3484 90.8637H67.5848C66.98 90.8637 66.4902 90.3727 66.4902 89.7677C66.4902 89.1632 66.9805 88.6729 67.5848 88.6729H71.3484V90.8637Z" fill="#1F1F1F"/>
<path d="M179.895 170.481C179.295 170.481 178.809 170.967 178.809 171.567C178.809 172.167 179.295 172.654 179.895 172.654C180.495 172.654 180.981 172.167 180.981 171.567C180.981 170.967 180.495 170.481 179.895 170.481Z" fill="#1F1F1F"/>
<path d="M210.335 171.144H182.222C182.021 170.053 181.065 169.222 179.916 169.222C178.623 169.222 177.57 170.275 177.57 171.568C177.57 172.862 178.623 173.914 179.916 173.914C181.065 173.914 182.021 173.084 182.222 171.993H210.511C210.624 171.993 210.732 171.948 210.811 171.868L212.547 170.133C212.63 170.05 212.672 169.94 212.672 169.832V154.432H211.823V169.657L210.335 171.144ZM179.916 173.066C179.091 173.066 178.419 172.394 178.419 171.569C178.419 170.744 179.091 170.072 179.916 170.072C180.741 170.072 181.413 170.744 181.413 171.569C181.413 172.394 180.741 173.066 179.916 173.066Z" fill="#1F1F1F"/>
<path d="M139.26 131.016C139.26 129.827 138.292 128.859 137.102 128.859C135.913 128.859 134.945 129.827 134.945 131.016C134.945 132.073 135.709 132.952 136.712 133.136V144.688H137.493V133.136C138.496 132.952 139.26 132.073 139.26 131.016ZM135.725 131.016C135.725 130.257 136.343 129.64 137.102 129.64C137.861 129.64 138.479 130.258 138.479 131.016C138.479 131.775 137.861 132.393 137.102 132.393C136.343 132.393 135.725 131.775 135.725 131.016Z" fill="#1F1F1F"/>
<path d="M165.443 131.016C165.443 129.827 164.475 128.859 163.286 128.859C162.096 128.859 161.129 129.827 161.129 131.016C161.129 132.073 161.892 132.952 162.896 133.136V144.688H163.676V133.136C164.68 132.952 165.443 132.073 165.443 131.016ZM161.909 131.016C161.909 130.257 162.527 129.64 163.286 129.64C164.044 129.64 164.662 130.258 164.662 131.016C164.662 131.775 164.044 132.393 163.286 132.393C162.527 132.393 161.909 131.775 161.909 131.016Z" fill="#1F1F1F"/>
<path d="M138 129.468V102.679L161.135 78.9346" stroke="#1F1F1F" stroke-width="0.5" stroke-dasharray="2 2"/>
<path d="M163.543 130.688V106.943L193.376 78.3281" stroke="#1F1F1F" stroke-width="0.5" stroke-dasharray="2 2"/>
</g>
</svg>
