<svg width="544" height="159" viewBox="0 0 544 159" fill="none" xmlns="http://www.w3.org/2000/svg">
<rect x="38" y="29" width="12" height="109" fill="#40CF8F"/>
<rect x="76" y="123" width="13" height="15" fill="#40CF8F"/>
<rect x="174" y="128" width="13" height="10" fill="#40CF8F"/>
<rect x="124" y="114" width="13" height="24" fill="#40CF8F"/>
<rect x="225" y="133" width="13" height="5" fill="#40CF8F"/>
<rect x="277" y="133" width="12" height="5" fill="#40CF8F"/>
<rect x="328" y="133" width="13" height="5" fill="#40CF8F"/>
<rect x="379" y="133" width="13" height="5" fill="#40CF8F"/>
<rect x="431" y="133" width="12" height="5" fill="#40CF8F"/>
<rect x="482" y="136" width="13" height="2" fill="#40CF8F"/>
<path d="M37.3046 22.5237C37.3046 22.929 37.1979 23.2677 36.9846 23.5397C36.7713 23.8063 36.4326 23.9743 35.9686 24.0437V25.0517H35.3286V24.0597C35.1046 24.049 34.8699 24.0143 34.6246 23.9557C34.3846 23.8917 34.1393 23.801 33.8886 23.6837L34.1046 23.0917C34.3873 23.2197 34.6406 23.3103 34.8646 23.3637C35.0939 23.417 35.3233 23.4437 35.5526 23.4437C35.8886 23.4437 36.1473 23.3717 36.3286 23.2277C36.5099 23.0783 36.6006 22.8623 36.6006 22.5797C36.6006 22.345 36.5366 22.1477 36.4086 21.9877C36.2859 21.8277 36.0833 21.705 35.8006 21.6197L35.1526 21.4277C34.7473 21.305 34.4486 21.121 34.2566 20.8757C34.0646 20.625 33.9686 20.3183 33.9686 19.9557C33.9686 19.705 34.0139 19.4757 34.1046 19.2677C34.1953 19.0543 34.3393 18.8783 34.5366 18.7397C34.7393 18.601 35.0033 18.5157 35.3286 18.4837V17.4837H35.9686V18.4837C36.1553 18.505 36.3473 18.545 36.5446 18.6037C36.7419 18.657 36.9393 18.729 37.1366 18.8197L36.9126 19.4197C36.6566 19.3077 36.4246 19.2277 36.2166 19.1797C36.0139 19.1263 35.8193 19.0997 35.6326 19.0997C35.3286 19.0997 35.0913 19.1637 34.9206 19.2917C34.7553 19.4143 34.6726 19.6197 34.6726 19.9077C34.6726 20.1157 34.7286 20.2917 34.8406 20.4357C34.9526 20.5743 35.1526 20.689 35.4406 20.7797L36.0886 20.9717C36.8993 21.2117 37.3046 21.729 37.3046 22.5237ZM41.4875 22.6837H40.8875V23.9877H40.2315V22.6837H37.8955V22.1477C38.3061 21.5237 38.6768 20.9157 39.0075 20.3237C39.3435 19.7317 39.6208 19.1397 39.8395 18.5477H40.5755C40.3515 19.129 40.0795 19.7077 39.7595 20.2837C39.4448 20.8597 39.0821 21.4543 38.6715 22.0677H40.2315V21.0757H40.8875V22.0677H41.4875V22.6837ZM45.798 22.4437C45.798 22.7637 45.7286 23.0463 45.59 23.2917C45.4566 23.5317 45.262 23.721 45.006 23.8597C44.7553 23.9983 44.454 24.0677 44.102 24.0677C43.526 24.0677 43.0833 23.8757 42.774 23.4917C42.47 23.1023 42.318 22.5557 42.318 21.8517V20.6677C42.318 19.921 42.486 19.369 42.822 19.0117C43.1633 18.649 43.6273 18.4677 44.214 18.4677C44.422 18.4677 44.646 18.4943 44.886 18.5477C45.126 18.5957 45.3793 18.681 45.646 18.8037L45.398 19.3877C45.1686 19.281 44.9553 19.2063 44.758 19.1637C44.566 19.121 44.3926 19.0997 44.238 19.0997C43.854 19.0997 43.5473 19.217 43.318 19.4517C43.094 19.6863 42.982 20.0917 42.982 20.6677V21.1317C43.1686 20.961 43.3713 20.8277 43.59 20.7317C43.8086 20.6357 44.0406 20.5877 44.286 20.5877C44.7553 20.5877 45.1233 20.737 45.39 21.0357C45.662 21.329 45.798 21.7183 45.798 22.2037V22.4437ZM42.982 21.8517C42.982 22.385 43.078 22.785 43.27 23.0517C43.462 23.313 43.7393 23.4437 44.102 23.4437C44.4273 23.4437 44.678 23.3557 44.854 23.1797C45.0353 22.9983 45.126 22.753 45.126 22.4437V22.2037C45.126 21.8997 45.046 21.657 44.886 21.4757C44.726 21.2943 44.4993 21.2037 44.206 21.2037C43.982 21.2037 43.766 21.2517 43.558 21.3477C43.3553 21.4437 43.1633 21.577 42.982 21.7477V21.8517ZM47.3536 23.9877H46.6176V23.2597H47.3536V23.9877ZM51.2367 23.9877H48.1327V23.4597C48.1327 23.0597 48.1807 22.7237 48.2767 22.4517C48.378 22.1797 48.5113 21.9557 48.6767 21.7797C48.8473 21.5983 49.0367 21.4543 49.2447 21.3477L49.7647 21.0837C50.01 20.9557 50.2047 20.8223 50.3487 20.6837C50.498 20.545 50.5727 20.345 50.5727 20.0837V19.9477C50.5727 19.649 50.4873 19.433 50.3167 19.2997C50.1513 19.1663 49.906 19.0997 49.5807 19.0997C49.3993 19.0997 49.2073 19.1237 49.0047 19.1717C48.802 19.2143 48.578 19.289 48.3327 19.3957L48.1087 18.8117C48.3753 18.689 48.6313 18.601 48.8767 18.5477C49.1273 18.4943 49.3673 18.4677 49.5967 18.4677C50.1887 18.4677 50.6127 18.6063 50.8687 18.8837C51.1247 19.1557 51.2527 19.5103 51.2527 19.9477V20.0837C51.2527 20.3717 51.1967 20.6117 51.0847 20.8037C50.978 20.9957 50.834 21.1583 50.6527 21.2917C50.4767 21.4197 50.2873 21.5343 50.0847 21.6357L49.5647 21.9077C49.314 22.041 49.1273 22.225 49.0047 22.4597C48.8873 22.6943 48.8233 22.993 48.8127 23.3557H51.2367V23.9877ZM55.182 23.9877H52.078V23.4597C52.078 23.0597 52.126 22.7237 52.222 22.4517C52.3233 22.1797 52.4566 21.9557 52.622 21.7797C52.7926 21.5983 52.982 21.4543 53.19 21.3477L53.71 21.0837C53.9553 20.9557 54.15 20.8223 54.294 20.6837C54.4433 20.545 54.518 20.345 54.518 20.0837V19.9477C54.518 19.649 54.4326 19.433 54.262 19.2997C54.0966 19.1663 53.8513 19.0997 53.526 19.0997C53.3446 19.0997 53.1526 19.1237 52.95 19.1717C52.7473 19.2143 52.5233 19.289 52.278 19.3957L52.054 18.8117C52.3206 18.689 52.5766 18.601 52.822 18.5477C53.0726 18.4943 53.3126 18.4677 53.542 18.4677C54.134 18.4677 54.558 18.6063 54.814 18.8837C55.07 19.1557 55.198 19.5103 55.198 19.9477V20.0837C55.198 20.3717 55.142 20.6117 55.03 20.8037C54.9233 20.9957 54.7793 21.1583 54.598 21.2917C54.422 21.4197 54.2326 21.5343 54.03 21.6357L53.51 21.9077C53.2593 22.041 53.0726 22.225 52.95 22.4597C52.8326 22.6943 52.7686 22.993 52.758 23.3557H55.182V23.9877Z" fill="white"/>
<path d="M76.7984 114.116C76.7984 114.522 76.6918 114.86 76.4784 115.132C76.2651 115.399 75.9264 115.567 75.4624 115.636V116.644H74.8224V115.652C74.5984 115.642 74.3638 115.607 74.1184 115.548C73.8784 115.484 73.6331 115.394 73.3824 115.276L73.5984 114.684C73.8811 114.812 74.1344 114.903 74.3584 114.956C74.5878 115.01 74.8171 115.036 75.0464 115.036C75.3824 115.036 75.6411 114.964 75.8224 114.82C76.0038 114.671 76.0944 114.455 76.0944 114.172C76.0944 113.938 76.0304 113.74 75.9024 113.58C75.7798 113.42 75.5771 113.298 75.2944 113.212L74.6464 113.02C74.2411 112.898 73.9424 112.714 73.7504 112.468C73.5584 112.218 73.4624 111.911 73.4624 111.548C73.4624 111.298 73.5078 111.068 73.5984 110.86C73.6891 110.647 73.8331 110.471 74.0304 110.332C74.2331 110.194 74.4971 110.108 74.8224 110.076V109.076H75.4624V110.076C75.6491 110.098 75.8411 110.138 76.0384 110.196C76.2358 110.25 76.4331 110.322 76.6304 110.412L76.4064 111.012C76.1504 110.9 75.9184 110.82 75.7104 110.772C75.5078 110.719 75.3131 110.692 75.1264 110.692C74.8224 110.692 74.5851 110.756 74.4144 110.884C74.2491 111.007 74.1664 111.212 74.1664 111.5C74.1664 111.708 74.2224 111.884 74.3344 112.028C74.4464 112.167 74.6464 112.282 74.9344 112.372L75.5824 112.564C76.3931 112.804 76.7984 113.322 76.7984 114.116ZM80.6133 115.58H77.5093V115.052C77.5093 114.652 77.5573 114.316 77.6533 114.044C77.7546 113.772 77.888 113.548 78.0533 113.372C78.224 113.191 78.4133 113.047 78.6213 112.94L79.1413 112.676C79.3866 112.548 79.5813 112.415 79.7253 112.276C79.8746 112.138 79.9493 111.938 79.9493 111.676V111.54C79.9493 111.242 79.864 111.026 79.6933 110.892C79.528 110.759 79.2826 110.692 78.9573 110.692C78.776 110.692 78.584 110.716 78.3813 110.764C78.1786 110.807 77.9546 110.882 77.7093 110.988L77.4853 110.404C77.752 110.282 78.008 110.194 78.2533 110.14C78.504 110.087 78.744 110.06 78.9733 110.06C79.5653 110.06 79.9893 110.199 80.2453 110.476C80.5013 110.748 80.6293 111.103 80.6293 111.54V111.676C80.6293 111.964 80.5733 112.204 80.4613 112.396C80.3546 112.588 80.2106 112.751 80.0293 112.884C79.8533 113.012 79.664 113.127 79.4613 113.228L78.9413 113.5C78.6906 113.634 78.504 113.818 78.3813 114.052C78.264 114.287 78.2 114.586 78.1893 114.948H80.6133V115.58ZM82.2146 115.58H81.4786V114.852H82.2146V115.58ZM86.0737 114.164C86.0737 114.602 85.9377 114.962 85.6657 115.244C85.3937 115.522 84.9563 115.66 84.3537 115.66C84.1137 115.66 83.863 115.634 83.6017 115.58C83.3457 115.522 83.079 115.431 82.8017 115.308L83.0097 114.732C83.2763 114.839 83.5137 114.916 83.7217 114.964C83.935 115.012 84.1403 115.036 84.3377 115.036C84.6683 115.036 84.9243 114.967 85.1057 114.828C85.2923 114.69 85.3857 114.463 85.3857 114.148V114.02C85.3857 113.754 85.3083 113.54 85.1537 113.38C84.999 113.22 84.7617 113.14 84.4417 113.14H83.6417V112.532H84.4417C84.7457 112.532 84.9697 112.458 85.1137 112.308C85.2577 112.154 85.3297 111.946 85.3297 111.684V111.572C85.3297 111.258 85.2443 111.034 85.0737 110.9C84.903 110.762 84.6657 110.692 84.3617 110.692C84.175 110.692 83.983 110.716 83.7857 110.764C83.5883 110.807 83.3643 110.882 83.1137 110.988L82.8897 110.404C83.1563 110.282 83.4123 110.194 83.6577 110.14C83.9083 110.087 84.1483 110.06 84.3777 110.06C84.9537 110.06 85.3723 110.199 85.6337 110.476C85.895 110.754 86.0257 111.114 86.0257 111.556V111.668C86.0257 111.935 85.9617 112.17 85.8337 112.372C85.7057 112.57 85.5323 112.724 85.3137 112.836C85.5483 112.943 85.7323 113.1 85.8657 113.308C86.0043 113.511 86.0737 113.754 86.0737 114.036V114.164ZM90.4901 113.468C90.4901 114.21 90.3221 114.762 89.9861 115.124C89.6501 115.482 89.1861 115.66 88.5941 115.66C88.3861 115.66 88.1621 115.636 87.9221 115.588C87.6874 115.54 87.4367 115.455 87.1701 115.332L87.4101 114.748C87.6447 114.85 87.8581 114.924 88.0501 114.972C88.2474 115.015 88.4234 115.036 88.5781 115.036C88.9567 115.036 89.2607 114.919 89.4901 114.684C89.7194 114.45 89.8341 114.044 89.8341 113.468V112.996C89.6421 113.162 89.4367 113.295 89.2181 113.396C88.9994 113.498 88.7674 113.548 88.5221 113.548C88.0527 113.548 87.6847 113.402 87.4181 113.108C87.1514 112.81 87.0181 112.418 87.0181 111.932V111.692C87.0181 111.378 87.0847 111.098 87.2181 110.852C87.3567 110.607 87.5514 110.415 87.8021 110.276C88.0581 110.132 88.3621 110.06 88.7141 110.06C89.2847 110.06 89.7221 110.255 90.0261 110.644C90.3354 111.034 90.4901 111.58 90.4901 112.284V113.468ZM87.6821 111.932C87.6821 112.236 87.7621 112.479 87.9221 112.66C88.0874 112.842 88.3167 112.932 88.6101 112.932C88.8341 112.932 89.0474 112.884 89.2501 112.788C89.4581 112.687 89.6527 112.551 89.8341 112.38V112.284C89.8341 111.746 89.7354 111.346 89.5381 111.084C89.3461 110.823 89.0687 110.692 88.7061 110.692C88.3861 110.692 88.1354 110.786 87.9541 110.972C87.7727 111.159 87.6821 111.399 87.6821 111.692V111.932Z" fill="white"/>
<path d="M125.194 103.252C125.194 103.657 125.087 103.996 124.874 104.268C124.66 104.535 124.322 104.703 123.858 104.772V105.78H123.218V104.788C122.994 104.777 122.759 104.743 122.514 104.684C122.274 104.62 122.028 104.529 121.778 104.412L121.994 103.82C122.276 103.948 122.53 104.039 122.754 104.092C122.983 104.145 123.212 104.172 123.442 104.172C123.778 104.172 124.036 104.1 124.218 103.956C124.399 103.807 124.49 103.591 124.49 103.308C124.49 103.073 124.426 102.876 124.298 102.716C124.175 102.556 123.972 102.433 123.69 102.348L123.042 102.156C122.636 102.033 122.338 101.849 122.146 101.604C121.954 101.353 121.858 101.047 121.858 100.684C121.858 100.433 121.903 100.204 121.994 99.996C122.084 99.7827 122.228 99.6067 122.426 99.468C122.628 99.3294 122.892 99.244 123.218 99.212V98.212H123.858V99.212C124.044 99.2334 124.236 99.2734 124.434 99.332C124.631 99.3854 124.828 99.4574 125.026 99.548L124.802 100.148C124.546 100.036 124.314 99.956 124.106 99.908C123.903 99.8547 123.708 99.828 123.522 99.828C123.218 99.828 122.98 99.892 122.81 100.02C122.644 100.143 122.562 100.348 122.562 100.636C122.562 100.844 122.618 101.02 122.73 101.164C122.842 101.303 123.042 101.417 123.33 101.508L123.978 101.7C124.788 101.94 125.194 102.457 125.194 103.252ZM129.008 104.716H125.904V104.188C125.904 103.788 125.952 103.452 126.048 103.18C126.15 102.908 126.283 102.684 126.448 102.508C126.619 102.327 126.808 102.183 127.016 102.076L127.536 101.812C127.782 101.684 127.976 101.551 128.12 101.412C128.27 101.273 128.344 101.073 128.344 100.812V100.676C128.344 100.377 128.259 100.161 128.088 100.028C127.923 99.8947 127.678 99.828 127.352 99.828C127.171 99.828 126.979 99.852 126.776 99.9C126.574 99.9427 126.35 100.017 126.104 100.124L125.88 99.54C126.147 99.4174 126.403 99.3294 126.648 99.276C126.899 99.2227 127.139 99.196 127.368 99.196C127.96 99.196 128.384 99.3347 128.64 99.612C128.896 99.884 129.024 100.239 129.024 100.676V100.812C129.024 101.1 128.968 101.34 128.856 101.532C128.75 101.724 128.606 101.887 128.424 102.02C128.248 102.148 128.059 102.263 127.856 102.364L127.336 102.636C127.086 102.769 126.899 102.953 126.776 103.188C126.659 103.423 126.595 103.721 126.584 104.084H129.008V104.716ZM130.61 104.716H129.874V103.988H130.61V104.716ZM134.981 103.284C134.981 103.567 134.917 103.823 134.789 104.052C134.666 104.281 134.474 104.463 134.213 104.596C133.951 104.729 133.615 104.796 133.205 104.796C132.81 104.796 132.487 104.732 132.237 104.604C131.986 104.476 131.802 104.308 131.685 104.1C131.567 103.887 131.509 103.649 131.509 103.388C131.509 103.105 131.578 102.849 131.717 102.62C131.855 102.385 132.079 102.169 132.389 101.972C132.143 101.833 131.954 101.657 131.821 101.444C131.687 101.231 131.621 100.969 131.621 100.66C131.621 100.404 131.679 100.167 131.797 99.948C131.914 99.724 132.093 99.5427 132.333 99.404C132.573 99.2654 132.871 99.196 133.229 99.196C133.597 99.196 133.901 99.26 134.141 99.388C134.386 99.516 134.567 99.6867 134.685 99.9C134.802 100.113 134.861 100.353 134.861 100.62C134.861 100.881 134.799 101.119 134.677 101.332C134.559 101.545 134.362 101.745 134.085 101.932C134.378 102.076 134.599 102.255 134.749 102.468C134.903 102.681 134.981 102.953 134.981 103.284ZM133.117 101.572L133.557 101.724C133.797 101.537 133.959 101.361 134.045 101.196C134.135 101.031 134.181 100.86 134.181 100.684C134.181 100.417 134.103 100.204 133.949 100.044C133.794 99.884 133.559 99.804 133.245 99.804C132.967 99.804 132.741 99.876 132.565 100.02C132.389 100.164 132.301 100.377 132.301 100.66C132.301 100.884 132.362 101.068 132.485 101.212C132.613 101.351 132.823 101.471 133.117 101.572ZM132.189 103.3C132.189 103.572 132.274 103.791 132.445 103.956C132.621 104.116 132.882 104.196 133.229 104.196C133.565 104.196 133.826 104.121 134.013 103.972C134.205 103.817 134.301 103.599 134.301 103.316C134.301 103.071 134.231 102.881 134.093 102.748C133.959 102.609 133.722 102.481 133.381 102.364L132.917 102.204C132.645 102.401 132.455 102.588 132.349 102.764C132.242 102.935 132.189 103.113 132.189 103.3ZM138.938 99.836C138.538 100.652 138.199 101.468 137.922 102.284C137.645 103.095 137.434 103.905 137.29 104.716H136.578C136.722 103.916 136.93 103.116 137.202 102.316C137.474 101.516 137.805 100.716 138.194 99.916H135.682V99.276H138.938V99.836Z" fill="white"/>
<path d="M173.589 118.067C173.589 118.472 173.482 118.811 173.269 119.083C173.055 119.35 172.717 119.518 172.253 119.587V120.595H171.613V119.603C171.389 119.592 171.154 119.558 170.909 119.499C170.669 119.435 170.423 119.344 170.173 119.227L170.389 118.635C170.671 118.763 170.925 118.854 171.149 118.907C171.378 118.96 171.607 118.987 171.837 118.987C172.173 118.987 172.431 118.915 172.613 118.771C172.794 118.622 172.885 118.406 172.885 118.123C172.885 117.888 172.821 117.691 172.693 117.531C172.57 117.371 172.367 117.248 172.085 117.163L171.437 116.971C171.031 116.848 170.733 116.664 170.541 116.419C170.349 116.168 170.253 115.862 170.253 115.499C170.253 115.248 170.298 115.019 170.389 114.811C170.479 114.598 170.623 114.422 170.821 114.283C171.023 114.144 171.287 114.059 171.613 114.027V113.027H172.253V114.027C172.439 114.048 172.631 114.088 172.829 114.147C173.026 114.2 173.223 114.272 173.421 114.363L173.197 114.963C172.941 114.851 172.709 114.771 172.501 114.723C172.298 114.67 172.103 114.643 171.917 114.643C171.613 114.643 171.375 114.707 171.205 114.835C171.039 114.958 170.957 115.163 170.957 115.451C170.957 115.659 171.013 115.835 171.125 115.979C171.237 116.118 171.437 116.232 171.725 116.323L172.373 116.515C173.183 116.755 173.589 117.272 173.589 118.067ZM174.075 114.843L175.371 114.091H176.003V119.531H175.323V114.827L174.379 115.371L174.075 114.843ZM177.802 119.531H177.066V118.803H177.802V119.531ZM178.749 116.699L178.909 114.091H181.613V114.731H179.525L179.429 116.291C179.663 116.211 179.917 116.171 180.189 116.171C180.69 116.171 181.09 116.304 181.389 116.571C181.687 116.838 181.837 117.232 181.837 117.755V117.995C181.837 118.47 181.698 118.859 181.421 119.163C181.143 119.462 180.698 119.611 180.085 119.611C179.845 119.611 179.594 119.584 179.333 119.531C179.077 119.472 178.81 119.382 178.533 119.259L178.749 118.683C179.01 118.795 179.247 118.875 179.461 118.923C179.674 118.966 179.879 118.987 180.077 118.987C180.407 118.987 180.666 118.912 180.853 118.763C181.039 118.608 181.133 118.352 181.133 117.995V117.755C181.133 117.462 181.047 117.227 180.877 117.051C180.711 116.875 180.458 116.787 180.117 116.787C179.957 116.787 179.799 116.808 179.645 116.851C179.49 116.888 179.327 116.944 179.157 117.019L178.749 116.699ZM185.739 114.651C185.339 115.467 185.001 116.283 184.723 117.099C184.446 117.91 184.235 118.72 184.091 119.531H183.379C183.523 118.731 183.731 117.931 184.003 117.131C184.275 116.331 184.606 115.531 184.995 114.731H182.483V114.091H185.739V114.651Z" fill="white"/>
<path d="M225.934 124.98C225.934 125.386 225.828 125.724 225.614 125.996C225.401 126.263 225.062 126.431 224.598 126.5V127.508H223.958V126.516C223.734 126.506 223.5 126.471 223.254 126.412C223.014 126.348 222.769 126.258 222.518 126.14L222.734 125.548C223.017 125.676 223.27 125.767 223.494 125.82C223.724 125.874 223.953 125.9 224.182 125.9C224.518 125.9 224.777 125.828 224.958 125.684C225.14 125.535 225.23 125.319 225.23 125.036C225.23 124.802 225.166 124.604 225.038 124.444C224.916 124.284 224.713 124.162 224.43 124.076L223.782 123.884C223.377 123.762 223.078 123.578 222.886 123.332C222.694 123.082 222.598 122.775 222.598 122.412C222.598 122.162 222.644 121.932 222.734 121.724C222.825 121.511 222.969 121.335 223.166 121.196C223.369 121.058 223.633 120.972 223.958 120.94V119.94H224.598V120.94C224.785 120.962 224.977 121.002 225.174 121.06C225.372 121.114 225.569 121.186 225.766 121.276L225.542 121.876C225.286 121.764 225.054 121.684 224.846 121.636C224.644 121.583 224.449 121.556 224.262 121.556C223.958 121.556 223.721 121.62 223.55 121.748C223.385 121.871 223.302 122.076 223.302 122.364C223.302 122.572 223.358 122.748 223.47 122.892C223.582 123.031 223.782 123.146 224.07 123.236L224.718 123.428C225.529 123.668 225.934 124.186 225.934 124.98ZM230.565 123.124V124.316C230.565 125.042 230.402 125.591 230.077 125.964C229.752 126.338 229.298 126.524 228.717 126.524C228.136 126.524 227.682 126.338 227.357 125.964C227.037 125.591 226.877 125.042 226.877 124.316V123.124C226.877 122.404 227.04 121.858 227.365 121.484C227.69 121.111 228.141 120.924 228.717 120.924C229.298 120.924 229.752 121.111 230.077 121.484C230.402 121.858 230.565 122.404 230.565 123.124ZM229.861 123.124C229.861 122.57 229.76 122.17 229.557 121.924C229.36 121.679 229.08 121.556 228.717 121.556C228.36 121.556 228.08 121.679 227.877 121.924C227.68 122.17 227.581 122.57 227.581 123.124V124.316C227.581 124.866 227.68 125.268 227.877 125.524C228.08 125.775 228.36 125.9 228.717 125.9C229.08 125.9 229.36 125.775 229.557 125.524C229.76 125.268 229.861 124.866 229.861 124.316V123.124ZM232.163 126.444H231.427V125.716H232.163V126.444ZM236.022 125.028C236.022 125.466 235.886 125.826 235.614 126.108C235.342 126.386 234.905 126.524 234.302 126.524C234.062 126.524 233.811 126.498 233.55 126.444C233.294 126.386 233.027 126.295 232.75 126.172L232.958 125.596C233.225 125.703 233.462 125.78 233.67 125.828C233.883 125.876 234.089 125.9 234.286 125.9C234.617 125.9 234.873 125.831 235.054 125.692C235.241 125.554 235.334 125.327 235.334 125.012V124.884C235.334 124.618 235.257 124.404 235.102 124.244C234.947 124.084 234.71 124.004 234.39 124.004H233.59V123.396H234.39C234.694 123.396 234.918 123.322 235.062 123.172C235.206 123.018 235.278 122.81 235.278 122.548V122.436C235.278 122.122 235.193 121.898 235.022 121.764C234.851 121.626 234.614 121.556 234.31 121.556C234.123 121.556 233.931 121.58 233.734 121.628C233.537 121.671 233.313 121.746 233.062 121.852L232.838 121.268C233.105 121.146 233.361 121.058 233.606 121.004C233.857 120.951 234.097 120.924 234.326 120.924C234.902 120.924 235.321 121.063 235.582 121.34C235.843 121.618 235.974 121.978 235.974 122.42V122.532C235.974 122.799 235.91 123.034 235.782 123.236C235.654 123.434 235.481 123.588 235.262 123.7C235.497 123.807 235.681 123.964 235.814 124.172C235.953 124.375 236.022 124.618 236.022 124.9V125.028ZM237.094 123.612L237.254 121.004H239.958V121.644H237.87L237.774 123.204C238.009 123.124 238.262 123.084 238.534 123.084C239.036 123.084 239.436 123.218 239.734 123.484C240.033 123.751 240.182 124.146 240.182 124.668V124.908C240.182 125.383 240.044 125.772 239.766 126.076C239.489 126.375 239.044 126.524 238.43 126.524C238.19 126.524 237.94 126.498 237.678 126.444C237.422 126.386 237.156 126.295 236.878 126.172L237.094 125.596C237.356 125.708 237.593 125.788 237.806 125.836C238.02 125.879 238.225 125.9 238.422 125.9C238.753 125.9 239.012 125.826 239.198 125.676C239.385 125.522 239.478 125.266 239.478 124.908V124.668C239.478 124.375 239.393 124.14 239.222 123.964C239.057 123.788 238.804 123.7 238.462 123.7C238.302 123.7 238.145 123.722 237.99 123.764C237.836 123.802 237.673 123.858 237.502 123.932L237.094 123.612Z" fill="white"/>
<path d="M277.292 124.98C277.292 125.386 277.186 125.724 276.972 125.996C276.759 126.263 276.42 126.431 275.956 126.5V127.508H275.316V126.516C275.092 126.506 274.858 126.471 274.612 126.412C274.372 126.348 274.127 126.258 273.876 126.14L274.092 125.548C274.375 125.676 274.628 125.767 274.852 125.82C275.082 125.874 275.311 125.9 275.54 125.9C275.876 125.9 276.135 125.828 276.316 125.684C276.498 125.535 276.588 125.319 276.588 125.036C276.588 124.802 276.524 124.604 276.396 124.444C276.274 124.284 276.071 124.162 275.788 124.076L275.14 123.884C274.735 123.762 274.436 123.578 274.244 123.332C274.052 123.082 273.956 122.775 273.956 122.412C273.956 122.162 274.002 121.932 274.092 121.724C274.183 121.511 274.327 121.335 274.524 121.196C274.727 121.058 274.991 120.972 275.316 120.94V119.94H275.956V120.94C276.143 120.962 276.335 121.002 276.532 121.06C276.73 121.114 276.927 121.186 277.124 121.276L276.9 121.876C276.644 121.764 276.412 121.684 276.204 121.636C276.002 121.583 275.807 121.556 275.62 121.556C275.316 121.556 275.079 121.62 274.908 121.748C274.743 121.871 274.66 122.076 274.66 122.364C274.66 122.572 274.716 122.748 274.828 122.892C274.94 123.031 275.14 123.146 275.428 123.236L276.076 123.428C276.887 123.668 277.292 124.186 277.292 124.98ZM281.923 123.124V124.316C281.923 125.042 281.76 125.591 281.435 125.964C281.11 126.338 280.656 126.524 280.075 126.524C279.494 126.524 279.04 126.338 278.715 125.964C278.395 125.591 278.235 125.042 278.235 124.316V123.124C278.235 122.404 278.398 121.858 278.723 121.484C279.048 121.111 279.499 120.924 280.075 120.924C280.656 120.924 281.11 121.111 281.435 121.484C281.76 121.858 281.923 122.404 281.923 123.124ZM281.219 123.124C281.219 122.57 281.118 122.17 280.915 121.924C280.718 121.679 280.438 121.556 280.075 121.556C279.718 121.556 279.438 121.679 279.235 121.924C279.038 122.17 278.939 122.57 278.939 123.124V124.316C278.939 124.866 279.038 125.268 279.235 125.524C279.438 125.775 279.718 125.9 280.075 125.9C280.438 125.9 280.718 125.775 280.915 125.524C281.118 125.268 281.219 124.866 281.219 124.316V123.124ZM283.521 126.444H282.785V125.716H283.521V126.444ZM287.404 126.444H284.3V125.916C284.3 125.516 284.348 125.18 284.444 124.908C284.545 124.636 284.679 124.412 284.844 124.236C285.015 124.055 285.204 123.911 285.412 123.804L285.932 123.54C286.177 123.412 286.372 123.279 286.516 123.14C286.665 123.002 286.74 122.802 286.74 122.54V122.404C286.74 122.106 286.655 121.89 286.484 121.756C286.319 121.623 286.073 121.556 285.748 121.556C285.567 121.556 285.375 121.58 285.172 121.628C284.969 121.671 284.745 121.746 284.5 121.852L284.276 121.268C284.543 121.146 284.799 121.058 285.044 121.004C285.295 120.951 285.535 120.924 285.764 120.924C286.356 120.924 286.78 121.063 287.036 121.34C287.292 121.612 287.42 121.967 287.42 122.404V122.54C287.42 122.828 287.364 123.068 287.252 123.26C287.145 123.452 287.001 123.615 286.82 123.748C286.644 123.876 286.455 123.991 286.252 124.092L285.732 124.364C285.481 124.498 285.295 124.682 285.172 124.916C285.055 125.151 284.991 125.45 284.98 125.812H287.404V126.444ZM291.349 126.444H288.245V125.916C288.245 125.516 288.293 125.18 288.389 124.908C288.491 124.636 288.624 124.412 288.789 124.236C288.96 124.055 289.149 123.911 289.357 123.804L289.877 123.54C290.123 123.412 290.317 123.279 290.461 123.14C290.611 123.002 290.685 122.802 290.685 122.54V122.404C290.685 122.106 290.6 121.89 290.429 121.756C290.264 121.623 290.019 121.556 289.693 121.556C289.512 121.556 289.32 121.58 289.117 121.628C288.915 121.671 288.691 121.746 288.445 121.852L288.221 121.268C288.488 121.146 288.744 121.058 288.989 121.004C289.24 120.951 289.48 120.924 289.709 120.924C290.301 120.924 290.725 121.063 290.981 121.34C291.237 121.612 291.365 121.967 291.365 122.404V122.54C291.365 122.828 291.309 123.068 291.197 123.26C291.091 123.452 290.947 123.615 290.765 123.748C290.589 123.876 290.4 123.991 290.197 124.092L289.677 124.364C289.427 124.498 289.24 124.682 289.117 124.916C289 125.151 288.936 125.45 288.925 125.812H291.349V126.444Z" fill="white"/>
<path d="M328.65 124.98C328.65 125.386 328.544 125.724 328.33 125.996C328.117 126.263 327.778 126.431 327.314 126.5V127.508H326.674V126.516C326.45 126.506 326.216 126.471 325.97 126.412C325.73 126.348 325.485 126.258 325.234 126.14L325.45 125.548C325.733 125.676 325.986 125.767 326.21 125.82C326.44 125.874 326.669 125.9 326.898 125.9C327.234 125.9 327.493 125.828 327.674 125.684C327.856 125.535 327.946 125.319 327.946 125.036C327.946 124.802 327.882 124.604 327.754 124.444C327.632 124.284 327.429 124.162 327.146 124.076L326.498 123.884C326.093 123.762 325.794 123.578 325.602 123.332C325.41 123.082 325.314 122.775 325.314 122.412C325.314 122.162 325.36 121.932 325.45 121.724C325.541 121.511 325.685 121.335 325.882 121.196C326.085 121.058 326.349 120.972 326.674 120.94V119.94H327.314V120.94C327.501 120.962 327.693 121.002 327.89 121.06C328.088 121.114 328.285 121.186 328.482 121.276L328.258 121.876C328.002 121.764 327.77 121.684 327.562 121.636C327.36 121.583 327.165 121.556 326.978 121.556C326.674 121.556 326.437 121.62 326.266 121.748C326.101 121.871 326.018 122.076 326.018 122.364C326.018 122.572 326.074 122.748 326.186 122.892C326.298 123.031 326.498 123.146 326.786 123.236L327.434 123.428C328.245 123.668 328.65 124.186 328.65 124.98ZM333.281 123.124V124.316C333.281 125.042 333.119 125.591 332.793 125.964C332.468 126.338 332.015 126.524 331.433 126.524C330.852 126.524 330.399 126.338 330.073 125.964C329.753 125.591 329.593 125.042 329.593 124.316V123.124C329.593 122.404 329.756 121.858 330.081 121.484C330.407 121.111 330.857 120.924 331.433 120.924C332.015 120.924 332.468 121.111 332.793 121.484C333.119 121.858 333.281 122.404 333.281 123.124ZM332.577 123.124C332.577 122.57 332.476 122.17 332.273 121.924C332.076 121.679 331.796 121.556 331.433 121.556C331.076 121.556 330.796 121.679 330.593 121.924C330.396 122.17 330.297 122.57 330.297 123.124V124.316C330.297 124.866 330.396 125.268 330.593 125.524C330.796 125.775 331.076 125.9 331.433 125.9C331.796 125.9 332.076 125.775 332.273 125.524C332.476 125.268 332.577 124.866 332.577 124.316V123.124ZM334.879 126.444H334.143V125.716H334.879V126.444ZM339.43 123.124V124.316C339.43 125.042 339.267 125.591 338.942 125.964C338.616 126.338 338.163 126.524 337.582 126.524C337 126.524 336.547 126.338 336.222 125.964C335.902 125.591 335.742 125.042 335.742 124.316V123.124C335.742 122.404 335.904 121.858 336.23 121.484C336.555 121.111 337.006 120.924 337.582 120.924C338.163 120.924 338.616 121.111 338.942 121.484C339.267 121.858 339.43 122.404 339.43 123.124ZM338.726 123.124C338.726 122.57 338.624 122.17 338.422 121.924C338.224 121.679 337.944 121.556 337.582 121.556C337.224 121.556 336.944 121.679 336.742 121.924C336.544 122.17 336.446 122.57 336.446 123.124V124.316C336.446 124.866 336.544 125.268 336.742 125.524C336.944 125.775 337.224 125.9 337.582 125.9C337.944 125.9 338.224 125.775 338.422 125.524C338.624 125.268 338.726 124.866 338.726 124.316V123.124ZM340.192 121.756L341.488 121.004H342.12V126.444H341.44V121.74L340.496 122.284L340.192 121.756Z" fill="white"/>
<path d="M375.712 124.536C375.712 124.941 375.605 125.28 375.392 125.552C375.179 125.819 374.84 125.987 374.376 126.056V127.064H373.736V126.072C373.512 126.061 373.277 126.027 373.032 125.968C372.792 125.904 372.547 125.813 372.296 125.696L372.512 125.104C372.795 125.232 373.048 125.323 373.272 125.376C373.501 125.429 373.731 125.456 373.96 125.456C374.296 125.456 374.555 125.384 374.736 125.24C374.917 125.091 375.008 124.875 375.008 124.592C375.008 124.357 374.944 124.16 374.816 124C374.693 123.84 374.491 123.717 374.208 123.632L373.56 123.44C373.155 123.317 372.856 123.133 372.664 122.888C372.472 122.637 372.376 122.331 372.376 121.968C372.376 121.717 372.421 121.488 372.512 121.28C372.603 121.067 372.747 120.891 372.944 120.752C373.147 120.613 373.411 120.528 373.736 120.496V119.496H374.376V120.496C374.563 120.517 374.755 120.557 374.952 120.616C375.149 120.669 375.347 120.741 375.544 120.832L375.32 121.432C375.064 121.32 374.832 121.24 374.624 121.192C374.421 121.139 374.227 121.112 374.04 121.112C373.736 121.112 373.499 121.176 373.328 121.304C373.163 121.427 373.08 121.632 373.08 121.92C373.08 122.128 373.136 122.304 373.248 122.448C373.36 122.587 373.56 122.701 373.848 122.792L374.496 122.984C375.307 123.224 375.712 123.741 375.712 124.536ZM380.343 122.68V123.872C380.343 124.597 380.18 125.147 379.855 125.52C379.53 125.893 379.076 126.08 378.495 126.08C377.914 126.08 377.46 125.893 377.135 125.52C376.815 125.147 376.655 124.597 376.655 123.872V122.68C376.655 121.96 376.818 121.413 377.143 121.04C377.468 120.667 377.919 120.48 378.495 120.48C379.076 120.48 379.53 120.667 379.855 121.04C380.18 121.413 380.343 121.96 380.343 122.68ZM379.639 122.68C379.639 122.125 379.538 121.725 379.335 121.48C379.138 121.235 378.858 121.112 378.495 121.112C378.138 121.112 377.858 121.235 377.655 121.48C377.458 121.725 377.359 122.125 377.359 122.68V123.872C377.359 124.421 377.458 124.824 377.655 125.08C377.858 125.331 378.138 125.456 378.495 125.456C378.858 125.456 379.138 125.331 379.335 125.08C379.538 124.824 379.639 124.421 379.639 123.872V122.68ZM381.941 126H381.205V125.272H381.941V126ZM386.491 122.68V123.872C386.491 124.597 386.329 125.147 386.003 125.52C385.678 125.893 385.225 126.08 384.643 126.08C384.062 126.08 383.609 125.893 383.283 125.52C382.963 125.147 382.803 124.597 382.803 123.872V122.68C382.803 121.96 382.966 121.413 383.291 121.04C383.617 120.667 384.067 120.48 384.643 120.48C385.225 120.48 385.678 120.667 386.003 121.04C386.329 121.413 386.491 121.96 386.491 122.68ZM385.787 122.68C385.787 122.125 385.686 121.725 385.483 121.48C385.286 121.235 385.006 121.112 384.643 121.112C384.286 121.112 384.006 121.235 383.803 121.48C383.606 121.725 383.507 122.125 383.507 122.68V123.872C383.507 124.421 383.606 124.824 383.803 125.08C384.006 125.331 384.286 125.456 384.643 125.456C385.006 125.456 385.286 125.331 385.483 125.08C385.686 124.824 385.787 124.421 385.787 123.872V122.68ZM391.398 122.68V123.872C391.398 124.597 391.235 125.147 390.91 125.52C390.584 125.893 390.131 126.08 389.55 126.08C388.968 126.08 388.515 125.893 388.19 125.52C387.87 125.147 387.71 124.597 387.71 123.872V122.68C387.71 121.96 387.872 121.413 388.198 121.04C388.523 120.667 388.974 120.48 389.55 120.48C390.131 120.48 390.584 120.667 390.91 121.04C391.235 121.413 391.398 121.96 391.398 122.68ZM390.694 122.68C390.694 122.125 390.592 121.725 390.39 121.48C390.192 121.235 389.912 121.112 389.55 121.112C389.192 121.112 388.912 121.235 388.71 121.48C388.512 121.725 388.414 122.125 388.414 122.68V123.872C388.414 124.421 388.512 124.824 388.71 125.08C388.912 125.331 389.192 125.456 389.55 125.456C389.912 125.456 390.192 125.331 390.39 125.08C390.592 124.824 390.694 124.421 390.694 123.872V122.68ZM396.304 122.68V123.872C396.304 124.597 396.141 125.147 395.816 125.52C395.49 125.893 395.037 126.08 394.456 126.08C393.874 126.08 393.421 125.893 393.096 125.52C392.776 125.147 392.616 124.597 392.616 123.872V122.68C392.616 121.96 392.778 121.413 393.104 121.04C393.429 120.667 393.88 120.48 394.456 120.48C395.037 120.48 395.49 120.667 395.816 121.04C396.141 121.413 396.304 121.96 396.304 122.68ZM395.6 122.68C395.6 122.125 395.498 121.725 395.296 121.48C395.098 121.235 394.818 121.112 394.456 121.112C394.098 121.112 393.818 121.235 393.616 121.48C393.418 121.725 393.32 122.125 393.32 122.68V123.872C393.32 124.421 393.418 124.824 393.616 125.08C393.818 125.331 394.098 125.456 394.456 125.456C394.818 125.456 395.098 125.331 395.296 125.08C395.498 124.824 395.6 124.421 395.6 123.872V122.68ZM400.394 126H397.29V125.472C397.29 125.072 397.338 124.736 397.434 124.464C397.535 124.192 397.669 123.968 397.834 123.792C398.005 123.611 398.194 123.467 398.402 123.36L398.922 123.096C399.167 122.968 399.362 122.835 399.506 122.696C399.655 122.557 399.73 122.357 399.73 122.096V121.96C399.73 121.661 399.645 121.445 399.474 121.312C399.309 121.179 399.063 121.112 398.738 121.112C398.557 121.112 398.365 121.136 398.162 121.184C397.959 121.227 397.735 121.301 397.49 121.408L397.266 120.824C397.533 120.701 397.789 120.613 398.034 120.56C398.285 120.507 398.525 120.48 398.754 120.48C399.346 120.48 399.77 120.619 400.026 120.896C400.282 121.168 400.41 121.523 400.41 121.96V122.096C400.41 122.384 400.354 122.624 400.242 122.816C400.135 123.008 399.991 123.171 399.81 123.304C399.634 123.432 399.445 123.547 399.242 123.648L398.722 123.92C398.471 124.053 398.285 124.237 398.162 124.472C398.045 124.707 397.981 125.005 397.97 125.368H400.394V126ZM401.403 123.168L401.563 120.56H404.267V121.2H402.179L402.083 122.76C402.318 122.68 402.571 122.64 402.843 122.64C403.345 122.64 403.745 122.773 404.043 123.04C404.342 123.307 404.491 123.701 404.491 124.224V124.464C404.491 124.939 404.353 125.328 404.075 125.632C403.798 125.931 403.353 126.08 402.739 126.08C402.499 126.08 402.249 126.053 401.987 126C401.731 125.941 401.465 125.851 401.187 125.728L401.403 125.152C401.665 125.264 401.902 125.344 402.115 125.392C402.329 125.435 402.534 125.456 402.731 125.456C403.062 125.456 403.321 125.381 403.507 125.232C403.694 125.077 403.787 124.821 403.787 124.464V124.224C403.787 123.931 403.702 123.696 403.531 123.52C403.366 123.344 403.113 123.256 402.771 123.256C402.611 123.256 402.454 123.277 402.299 123.32C402.145 123.357 401.982 123.413 401.811 123.488L401.403 123.168Z" fill="white"/>
<path d="M427.416 124.98C427.416 125.386 427.309 125.724 427.096 125.996C426.882 126.263 426.544 126.431 426.08 126.5V127.508H425.44V126.516C425.216 126.506 424.981 126.471 424.736 126.412C424.496 126.348 424.25 126.258 424 126.14L424.216 125.548C424.498 125.676 424.752 125.767 424.976 125.82C425.205 125.874 425.434 125.9 425.664 125.9C426 125.9 426.258 125.828 426.44 125.684C426.621 125.535 426.712 125.319 426.712 125.036C426.712 124.802 426.648 124.604 426.52 124.444C426.397 124.284 426.194 124.162 425.912 124.076L425.264 123.884C424.858 123.762 424.56 123.578 424.368 123.332C424.176 123.082 424.08 122.775 424.08 122.412C424.08 122.162 424.125 121.932 424.216 121.724C424.306 121.511 424.45 121.335 424.648 121.196C424.85 121.058 425.114 120.972 425.44 120.94V119.94H426.08V120.94C426.266 120.962 426.458 121.002 426.656 121.06C426.853 121.114 427.05 121.186 427.248 121.276L427.024 121.876C426.768 121.764 426.536 121.684 426.328 121.636C426.125 121.583 425.93 121.556 425.744 121.556C425.44 121.556 425.202 121.62 425.032 121.748C424.866 121.871 424.784 122.076 424.784 122.364C424.784 122.572 424.84 122.748 424.952 122.892C425.064 123.031 425.264 123.146 425.552 123.236L426.2 123.428C427.01 123.668 427.416 124.186 427.416 124.98ZM432.047 123.124V124.316C432.047 125.042 431.884 125.591 431.559 125.964C431.233 126.338 430.78 126.524 430.199 126.524C429.617 126.524 429.164 126.338 428.839 125.964C428.519 125.591 428.359 125.042 428.359 124.316V123.124C428.359 122.404 428.521 121.858 428.847 121.484C429.172 121.111 429.623 120.924 430.199 120.924C430.78 120.924 431.233 121.111 431.559 121.484C431.884 121.858 432.047 122.404 432.047 123.124ZM431.343 123.124C431.343 122.57 431.241 122.17 431.039 121.924C430.841 121.679 430.561 121.556 430.199 121.556C429.841 121.556 429.561 121.679 429.359 121.924C429.161 122.17 429.063 122.57 429.063 123.124V124.316C429.063 124.866 429.161 125.268 429.359 125.524C429.561 125.775 429.841 125.9 430.199 125.9C430.561 125.9 430.841 125.775 431.039 125.524C431.241 125.268 431.343 124.866 431.343 124.316V123.124ZM433.644 126.444H432.908V125.716H433.644V126.444ZM438.195 123.124V124.316C438.195 125.042 438.032 125.591 437.707 125.964C437.382 126.338 436.928 126.524 436.347 126.524C435.766 126.524 435.312 126.338 434.987 125.964C434.667 125.591 434.507 125.042 434.507 124.316V123.124C434.507 122.404 434.67 121.858 434.995 121.484C435.32 121.111 435.771 120.924 436.347 120.924C436.928 120.924 437.382 121.111 437.707 121.484C438.032 121.858 438.195 122.404 438.195 123.124ZM437.491 123.124C437.491 122.57 437.39 122.17 437.187 121.924C436.99 121.679 436.71 121.556 436.347 121.556C435.99 121.556 435.71 121.679 435.507 121.924C435.31 122.17 435.211 122.57 435.211 123.124V124.316C435.211 124.866 435.31 125.268 435.507 125.524C435.71 125.775 435.99 125.9 436.347 125.9C436.71 125.9 436.99 125.775 437.187 125.524C437.39 125.268 437.491 124.866 437.491 124.316V123.124ZM443.101 123.124V124.316C443.101 125.042 442.939 125.591 442.613 125.964C442.288 126.338 441.835 126.524 441.253 126.524C440.672 126.524 440.219 126.338 439.893 125.964C439.573 125.591 439.413 125.042 439.413 124.316V123.124C439.413 122.404 439.576 121.858 439.901 121.484C440.227 121.111 440.677 120.924 441.253 120.924C441.835 120.924 442.288 121.111 442.613 121.484C442.939 121.858 443.101 122.404 443.101 123.124ZM442.397 123.124C442.397 122.57 442.296 122.17 442.093 121.924C441.896 121.679 441.616 121.556 441.253 121.556C440.896 121.556 440.616 121.679 440.413 121.924C440.216 122.17 440.117 122.57 440.117 123.124V124.316C440.117 124.866 440.216 125.268 440.413 125.524C440.616 125.775 440.896 125.9 441.253 125.9C441.616 125.9 441.896 125.775 442.093 125.524C442.296 125.268 442.397 124.866 442.397 124.316V123.124ZM448.008 123.124V124.316C448.008 125.042 447.845 125.591 447.52 125.964C447.194 126.338 446.741 126.524 446.16 126.524C445.578 126.524 445.125 126.338 444.8 125.964C444.48 125.591 444.32 125.042 444.32 124.316V123.124C444.32 122.404 444.482 121.858 444.808 121.484C445.133 121.111 445.584 120.924 446.16 120.924C446.741 120.924 447.194 121.111 447.52 121.484C447.845 121.858 448.008 122.404 448.008 123.124ZM447.304 123.124C447.304 122.57 447.202 122.17 447 121.924C446.802 121.679 446.522 121.556 446.16 121.556C445.802 121.556 445.522 121.679 445.32 121.924C445.122 122.17 445.024 122.57 445.024 123.124V124.316C445.024 124.866 445.122 125.268 445.32 125.524C445.522 125.775 445.802 125.9 446.16 125.9C446.522 125.9 446.802 125.775 447 125.524C447.202 125.268 447.304 124.866 447.304 124.316V123.124ZM452.466 125.14H451.866V126.444H451.21V125.14H448.874V124.604C449.284 123.98 449.655 123.372 449.986 122.78C450.322 122.188 450.599 121.596 450.818 121.004H451.554C451.33 121.586 451.058 122.164 450.738 122.74C450.423 123.316 450.06 123.911 449.65 124.524H451.21V123.532H451.866V124.524H452.466V125.14Z" fill="white"/>
<path d="M474.823 127.943C474.823 128.349 474.716 128.687 474.503 128.959C474.29 129.226 473.951 129.394 473.487 129.463V130.471H472.847V129.479C472.623 129.469 472.388 129.434 472.143 129.375C471.903 129.311 471.658 129.221 471.407 129.103L471.623 128.511C471.906 128.639 472.159 128.73 472.383 128.783C472.612 128.837 472.842 128.863 473.071 128.863C473.407 128.863 473.666 128.791 473.847 128.647C474.028 128.498 474.119 128.282 474.119 127.999C474.119 127.765 474.055 127.567 473.927 127.407C473.804 127.247 473.602 127.125 473.319 127.039L472.671 126.847C472.266 126.725 471.967 126.541 471.775 126.295C471.583 126.045 471.487 125.738 471.487 125.375C471.487 125.125 471.532 124.895 471.623 124.687C471.714 124.474 471.858 124.298 472.055 124.159C472.258 124.021 472.522 123.935 472.847 123.903V122.903H473.487V123.903C473.674 123.925 473.866 123.965 474.063 124.023C474.26 124.077 474.458 124.149 474.655 124.239L474.431 124.839C474.175 124.727 473.943 124.647 473.735 124.599C473.532 124.546 473.338 124.519 473.151 124.519C472.847 124.519 472.61 124.583 472.439 124.711C472.274 124.834 472.191 125.039 472.191 125.327C472.191 125.535 472.247 125.711 472.359 125.855C472.471 125.994 472.671 126.109 472.959 126.199L473.607 126.391C474.418 126.631 474.823 127.149 474.823 127.943ZM479.454 126.087V127.279C479.454 128.005 479.291 128.554 478.966 128.927C478.641 129.301 478.187 129.487 477.606 129.487C477.025 129.487 476.571 129.301 476.246 128.927C475.926 128.554 475.766 128.005 475.766 127.279V126.087C475.766 125.367 475.929 124.821 476.254 124.447C476.579 124.074 477.03 123.887 477.606 123.887C478.187 123.887 478.641 124.074 478.966 124.447C479.291 124.821 479.454 125.367 479.454 126.087ZM478.75 126.087C478.75 125.533 478.649 125.133 478.446 124.887C478.249 124.642 477.969 124.519 477.606 124.519C477.249 124.519 476.969 124.642 476.766 124.887C476.569 125.133 476.47 125.533 476.47 126.087V127.279C476.47 127.829 476.569 128.231 476.766 128.487C476.969 128.738 477.249 128.863 477.606 128.863C477.969 128.863 478.249 128.738 478.446 128.487C478.649 128.231 478.75 127.829 478.75 127.279V126.087ZM481.052 129.407H480.316V128.679H481.052V129.407ZM485.602 126.087V127.279C485.602 128.005 485.44 128.554 485.114 128.927C484.789 129.301 484.336 129.487 483.754 129.487C483.173 129.487 482.72 129.301 482.394 128.927C482.074 128.554 481.914 128.005 481.914 127.279V126.087C481.914 125.367 482.077 124.821 482.402 124.447C482.728 124.074 483.178 123.887 483.754 123.887C484.336 123.887 484.789 124.074 485.114 124.447C485.44 124.821 485.602 125.367 485.602 126.087ZM484.898 126.087C484.898 125.533 484.797 125.133 484.594 124.887C484.397 124.642 484.117 124.519 483.754 124.519C483.397 124.519 483.117 124.642 482.914 124.887C482.717 125.133 482.618 125.533 482.618 126.087V127.279C482.618 127.829 482.717 128.231 482.914 128.487C483.117 128.738 483.397 128.863 483.754 128.863C484.117 128.863 484.397 128.738 484.594 128.487C484.797 128.231 484.898 127.829 484.898 127.279V126.087ZM490.509 126.087V127.279C490.509 128.005 490.346 128.554 490.021 128.927C489.695 129.301 489.242 129.487 488.661 129.487C488.079 129.487 487.626 129.301 487.301 128.927C486.981 128.554 486.821 128.005 486.821 127.279V126.087C486.821 125.367 486.983 124.821 487.309 124.447C487.634 124.074 488.085 123.887 488.661 123.887C489.242 123.887 489.695 124.074 490.021 124.447C490.346 124.821 490.509 125.367 490.509 126.087ZM489.805 126.087C489.805 125.533 489.703 125.133 489.501 124.887C489.303 124.642 489.023 124.519 488.661 124.519C488.303 124.519 488.023 124.642 487.821 124.887C487.623 125.133 487.525 125.533 487.525 126.087V127.279C487.525 127.829 487.623 128.231 487.821 128.487C488.023 128.738 488.303 128.863 488.661 128.863C489.023 128.863 489.303 128.738 489.501 128.487C489.703 128.231 489.805 127.829 489.805 127.279V126.087ZM495.415 126.087V127.279C495.415 128.005 495.252 128.554 494.927 128.927C494.602 129.301 494.148 129.487 493.567 129.487C492.986 129.487 492.532 129.301 492.207 128.927C491.887 128.554 491.727 128.005 491.727 127.279V126.087C491.727 125.367 491.89 124.821 492.215 124.447C492.54 124.074 492.991 123.887 493.567 123.887C494.148 123.887 494.602 124.074 494.927 124.447C495.252 124.821 495.415 125.367 495.415 126.087ZM494.711 126.087C494.711 125.533 494.61 125.133 494.407 124.887C494.21 124.642 493.93 124.519 493.567 124.519C493.21 124.519 492.93 124.642 492.727 124.887C492.53 125.133 492.431 125.533 492.431 126.087V127.279C492.431 127.829 492.53 128.231 492.727 128.487C492.93 128.738 493.21 128.863 493.567 128.863C493.93 128.863 494.21 128.738 494.407 128.487C494.61 128.231 494.711 127.829 494.711 127.279V126.087ZM500.321 126.087V127.279C500.321 128.005 500.158 128.554 499.833 128.927C499.508 129.301 499.054 129.487 498.473 129.487C497.892 129.487 497.438 129.301 497.113 128.927C496.793 128.554 496.633 128.005 496.633 127.279V126.087C496.633 125.367 496.796 124.821 497.121 124.447C497.446 124.074 497.897 123.887 498.473 123.887C499.054 123.887 499.508 124.074 499.833 124.447C500.158 124.821 500.321 125.367 500.321 126.087ZM499.617 126.087C499.617 125.533 499.516 125.133 499.313 124.887C499.116 124.642 498.836 124.519 498.473 124.519C498.116 124.519 497.836 124.642 497.633 124.887C497.436 125.133 497.337 125.533 497.337 126.087V127.279C497.337 127.829 497.436 128.231 497.633 128.487C497.836 128.738 498.116 128.863 498.473 128.863C498.836 128.863 499.116 128.738 499.313 128.487C499.516 128.231 499.617 127.829 499.617 127.279V126.087ZM505.227 126.087V127.279C505.227 128.005 505.065 128.554 504.739 128.927C504.414 129.301 503.961 129.487 503.379 129.487C502.798 129.487 502.345 129.301 502.019 128.927C501.699 128.554 501.539 128.005 501.539 127.279V126.087C501.539 125.367 501.702 124.821 502.027 124.447C502.353 124.074 502.803 123.887 503.379 123.887C503.961 123.887 504.414 124.074 504.739 124.447C505.065 124.821 505.227 125.367 505.227 126.087ZM504.523 126.087C504.523 125.533 504.422 125.133 504.219 124.887C504.022 124.642 503.742 124.519 503.379 124.519C503.022 124.519 502.742 124.642 502.539 124.887C502.342 125.133 502.243 125.533 502.243 126.087V127.279C502.243 127.829 502.342 128.231 502.539 128.487C502.742 128.738 503.022 128.863 503.379 128.863C503.742 128.863 504.022 128.738 504.219 128.487C504.422 128.231 504.523 127.829 504.523 127.279V126.087ZM509.318 129.407H506.214V128.879C506.214 128.479 506.262 128.143 506.358 127.871C506.459 127.599 506.592 127.375 506.758 127.199C506.928 127.018 507.118 126.874 507.326 126.767L507.846 126.503C508.091 126.375 508.286 126.242 508.43 126.103C508.579 125.965 508.654 125.765 508.654 125.503V125.367C508.654 125.069 508.568 124.853 508.398 124.719C508.232 124.586 507.987 124.519 507.662 124.519C507.48 124.519 507.288 124.543 507.086 124.591C506.883 124.634 506.659 124.709 506.414 124.815L506.19 124.231C506.456 124.109 506.712 124.021 506.958 123.967C507.208 123.914 507.448 123.887 507.678 123.887C508.27 123.887 508.694 124.026 508.95 124.303C509.206 124.575 509.334 124.93 509.334 125.367V125.503C509.334 125.791 509.278 126.031 509.166 126.223C509.059 126.415 508.915 126.578 508.734 126.711C508.558 126.839 508.368 126.954 508.166 127.055L507.646 127.327C507.395 127.461 507.208 127.645 507.086 127.879C506.968 128.114 506.904 128.413 506.894 128.775H509.318V129.407Z" fill="white"/>
<path opacity="0.2" d="M30.5974 20.9137C30.5974 24.1693 27.9583 26.8084 24.7028 26.8084C21.4472 26.8084 18.8081 24.1693 18.8081 20.9137C18.8081 17.6582 21.4472 15.019 24.7028 15.019C27.9583 15.019 30.5974 17.6582 30.5974 20.9137" fill="#505050"/>
<g opacity="0.8">
<path d="M24.684 18.1785L24.6476 18.3023V21.8933L24.684 21.9297L26.3509 20.9443L24.684 18.1785Z" fill="white"/>
<path d="M24.684 18.1785L23.0171 20.9443L24.684 21.9297V20.1867V18.1785Z" fill="white"/>
<path d="M24.684 22.472L24.6635 22.497V23.7762L24.684 23.8361L26.3519 21.4872L24.684 22.472Z" fill="white"/>
<path d="M24.684 23.8361V22.472L23.0171 21.4872L24.684 23.8361Z" fill="white"/>
<path d="M24.684 21.9297L26.3508 20.9444L24.684 20.1867V21.9297Z" fill="white"/>
<path d="M23.0171 20.9443L24.684 21.9297V20.1867L23.0171 20.9443Z" fill="white"/>
</g>
<path d="M35.5243 146.775V147.099H34.0043V144.379H35.4843V144.707H34.3523V145.559H35.3643V145.887H34.3523V146.775H35.5243ZM35.7573 144.707V144.379H37.6893V144.707H36.8973V147.099H36.5493V144.707H35.7573ZM39.7004 147.099V145.887H38.5124V147.099H38.1644V144.379H38.5124V145.559H39.7004V144.379H40.0484V147.099H39.7004ZM42.4149 146.775V147.099H40.8949V144.379H42.3749V144.707H41.2429V145.559H42.2549V145.887H41.2429V146.775H42.4149ZM43.3679 146.035V147.099H43.0199V144.379H43.8719C44.1279 144.379 44.3252 144.447 44.4639 144.583C44.6052 144.716 44.6759 144.895 44.6759 145.119V145.291C44.6759 145.451 44.6386 145.589 44.5639 145.707C44.4919 145.824 44.3879 145.911 44.2519 145.967C44.3666 146.151 44.4732 146.337 44.5719 146.527C44.6706 146.716 44.7612 146.907 44.8439 147.099H44.4439C44.2919 146.736 44.1146 146.381 43.9119 146.035H43.3679ZM43.8719 144.699H43.3679V145.715H43.8719C44.0079 145.715 44.1159 145.677 44.1959 145.603C44.2759 145.525 44.3159 145.421 44.3159 145.291V145.119C44.3159 144.985 44.2759 144.883 44.1959 144.811C44.1159 144.736 44.0079 144.699 43.8719 144.699ZM46.9422 146.775V147.099H45.4222V144.379H46.9022V144.707H45.7702V145.559H46.7822V145.887H45.7702V146.775H46.9422ZM47.4912 144.379H47.8512V146.123C47.8512 146.341 47.8966 146.512 47.9872 146.635C48.0806 146.757 48.2246 146.819 48.4192 146.819C48.6166 146.819 48.7606 146.757 48.8512 146.635C48.9419 146.512 48.9872 146.341 48.9872 146.123V144.379H49.3472V146.123C49.3472 146.44 49.2699 146.689 49.1152 146.871C48.9606 147.049 48.7286 147.139 48.4192 147.139C48.1072 147.139 47.8739 147.049 47.7192 146.871C47.5672 146.689 47.4912 146.44 47.4912 146.123V144.379ZM50.549 144.379L51.377 146.395L52.209 144.379H52.605V147.099H52.265V145.935L52.309 144.887L51.529 146.779H51.201L50.437 144.879L50.481 145.935V147.099H50.141V144.379H50.549ZM72.3993 146.775V147.099H70.8793V144.379H72.3593V144.707H71.2273V145.559H72.2393V145.887H71.2273V146.775H72.3993ZM72.6323 144.707V144.379H74.5643V144.707H73.7723V147.099H73.4243V144.707H72.6323ZM76.5754 147.099V145.887H75.3874V147.099H75.0394V144.379H75.3874V145.559H76.5754V144.379H76.9234V147.099H76.5754ZM78.877 146.039C78.877 146.289 78.9263 146.483 79.025 146.619C79.1263 146.752 79.281 146.819 79.489 146.819C79.5796 146.819 79.669 146.808 79.757 146.787C79.845 146.765 79.9503 146.728 80.073 146.675L80.189 146.971C80.0583 147.029 79.9343 147.072 79.817 147.099C79.6996 147.125 79.5863 147.139 79.477 147.139C79.1623 147.139 78.9236 147.04 78.761 146.843C78.5983 146.645 78.517 146.377 78.517 146.039V145.439C78.517 145.1 78.5983 144.832 78.761 144.635C78.9236 144.437 79.1623 144.339 79.477 144.339C79.5863 144.339 79.6996 144.352 79.817 144.379C79.937 144.405 80.0583 144.448 80.181 144.507L80.069 144.807C79.853 144.711 79.6596 144.663 79.489 144.663C79.281 144.663 79.1263 144.729 79.025 144.863C78.9263 144.996 78.877 145.188 78.877 145.439V146.039ZM82.2462 146.775V147.099H80.7582V144.379H81.1062V146.775H82.2462ZM84.2216 147.099L84.0176 146.467H82.9856L82.7816 147.099H82.4416L83.3456 144.379H83.6736L84.5816 147.099H84.2216ZM83.2376 145.683L83.0856 146.151H83.9136L83.7616 145.683L83.5016 144.843L83.2376 145.683ZM85.6462 146.827C85.8142 146.827 85.9435 146.791 86.0342 146.719C86.1249 146.644 86.1702 146.536 86.1702 146.395C86.1702 146.277 86.1382 146.179 86.0742 146.099C86.0129 146.019 85.9115 145.957 85.7702 145.915L85.4462 145.819C85.2435 145.757 85.0942 145.665 84.9982 145.543C84.9022 145.417 84.8542 145.264 84.8542 145.083C84.8542 144.944 84.8809 144.819 84.9342 144.707C84.9902 144.595 85.0782 144.505 85.1982 144.439C85.3209 144.372 85.4809 144.339 85.6782 144.339C85.7982 144.339 85.9222 144.353 86.0502 144.383C86.1782 144.409 86.3075 144.453 86.4382 144.515L86.3262 144.815C86.1982 144.759 86.0822 144.719 85.9782 144.695C85.8769 144.668 85.7795 144.655 85.6862 144.655C85.5342 144.655 85.4155 144.687 85.3302 144.751C85.2475 144.812 85.2062 144.915 85.2062 145.059C85.2062 145.163 85.2342 145.251 85.2902 145.323C85.3462 145.392 85.4462 145.449 85.5902 145.495L85.9142 145.591C86.3195 145.711 86.5222 145.969 86.5222 146.367C86.5222 146.596 86.4529 146.783 86.3142 146.927C86.1755 147.068 85.9529 147.139 85.6462 147.139C85.5209 147.139 85.3875 147.124 85.2462 147.095C85.1075 147.063 84.9635 147.013 84.8142 146.947L84.9222 146.651C85.0635 146.715 85.1902 146.76 85.3022 146.787C85.4169 146.813 85.5315 146.827 85.6462 146.827ZM87.6696 146.827C87.8376 146.827 87.967 146.791 88.0576 146.719C88.1483 146.644 88.1936 146.536 88.1936 146.395C88.1936 146.277 88.1616 146.179 88.0976 146.099C88.0363 146.019 87.935 145.957 87.7936 145.915L87.4696 145.819C87.267 145.757 87.1176 145.665 87.0216 145.543C86.9256 145.417 86.8776 145.264 86.8776 145.083C86.8776 144.944 86.9043 144.819 86.9576 144.707C87.0136 144.595 87.1016 144.505 87.2216 144.439C87.3443 144.372 87.5043 144.339 87.7016 144.339C87.8216 144.339 87.9456 144.353 88.0736 144.383C88.2016 144.409 88.331 144.453 88.4616 144.515L88.3496 144.815C88.2216 144.759 88.1056 144.719 88.0016 144.695C87.9003 144.668 87.803 144.655 87.7096 144.655C87.5576 144.655 87.439 144.687 87.3536 144.751C87.271 144.812 87.2296 144.915 87.2296 145.059C87.2296 145.163 87.2576 145.251 87.3136 145.323C87.3696 145.392 87.4696 145.449 87.6136 145.495L87.9376 145.591C88.343 145.711 88.5456 145.969 88.5456 146.367C88.5456 146.596 88.4763 146.783 88.3376 146.927C88.199 147.068 87.9763 147.139 87.6696 147.139C87.5443 147.139 87.411 147.124 87.2696 147.095C87.131 147.063 86.987 147.013 86.8376 146.947L86.9456 146.651C87.087 146.715 87.2136 146.76 87.3256 146.787C87.4403 146.813 87.555 146.827 87.6696 146.827ZM89.4851 147.099H89.1371V144.379H89.4851V147.099ZM90.5723 146.039C90.5723 146.289 90.6216 146.483 90.7203 146.619C90.8216 146.752 90.9763 146.819 91.1843 146.819C91.275 146.819 91.3643 146.808 91.4523 146.787C91.5403 146.765 91.6456 146.728 91.7683 146.675L91.8843 146.971C91.7536 147.029 91.6296 147.072 91.5123 147.099C91.395 147.125 91.2816 147.139 91.1723 147.139C90.8576 147.139 90.619 147.04 90.4563 146.843C90.2936 146.645 90.2123 146.377 90.2123 146.039V145.439C90.2123 145.1 90.2936 144.832 90.4563 144.635C90.619 144.437 90.8576 144.339 91.1723 144.339C91.2816 144.339 91.395 144.352 91.5123 144.379C91.6323 144.405 91.7536 144.448 91.8763 144.507L91.7643 144.807C91.5483 144.711 91.355 144.663 91.1843 144.663C90.9763 144.663 90.8216 144.729 90.7203 144.863C90.6216 144.996 90.5723 145.188 90.5723 145.439V146.039ZM124.382 147.099L124.178 146.467H123.146L122.942 147.099H122.602L123.506 144.379H123.834L124.742 147.099H124.382ZM123.398 145.683L123.246 146.151H124.074L123.922 145.683L123.662 144.843L123.398 145.683ZM125.598 146.035V147.099H125.25V144.379H126.102C126.358 144.379 126.556 144.447 126.694 144.583C126.836 144.716 126.906 144.895 126.906 145.119V145.291C126.906 145.451 126.869 145.589 126.794 145.707C126.722 145.824 126.618 145.911 126.482 145.967C126.597 146.151 126.704 146.337 126.802 146.527C126.901 146.716 126.992 146.907 127.074 147.099H126.674C126.522 146.736 126.345 146.381 126.142 146.035H125.598ZM126.102 144.699H125.598V145.715H126.102C126.238 145.715 126.346 145.677 126.426 145.603C126.506 145.525 126.546 145.421 126.546 145.291V145.119C126.546 144.985 126.506 144.883 126.426 144.811C126.346 144.736 126.238 144.699 126.102 144.699ZM127.653 147.099V144.379H128.453C128.714 144.379 128.906 144.443 129.029 144.571C129.154 144.696 129.217 144.865 129.217 145.079V145.167C129.217 145.284 129.19 145.388 129.137 145.479C129.083 145.569 129.006 145.641 128.905 145.695C129.046 145.74 129.153 145.815 129.225 145.919C129.299 146.02 129.337 146.143 129.337 146.287V146.375C129.337 146.593 129.273 146.769 129.145 146.903C129.019 147.033 128.822 147.099 128.553 147.099H127.653ZM128.453 144.699H128.001V145.559H128.453C128.586 145.559 128.686 145.525 128.753 145.459C128.822 145.389 128.857 145.295 128.857 145.175V145.079C128.857 144.961 128.822 144.869 128.753 144.803C128.686 144.733 128.586 144.699 128.453 144.699ZM128.553 145.879H128.001V146.783H128.553C128.694 146.783 128.799 146.747 128.869 146.675C128.941 146.603 128.977 146.503 128.977 146.375V146.279C128.977 146.156 128.941 146.059 128.869 145.987C128.799 145.915 128.694 145.879 128.553 145.879ZM130.341 147.099H129.993V144.379H130.341V147.099ZM130.82 144.707V144.379H132.752V144.707H131.96V147.099H131.612V144.707H130.82ZM133.575 146.035V147.099H133.227V144.379H134.079C134.335 144.379 134.532 144.447 134.671 144.583C134.812 144.716 134.883 144.895 134.883 145.119V145.291C134.883 145.451 134.846 145.589 134.771 145.707C134.699 145.824 134.595 145.911 134.459 145.967C134.574 146.151 134.68 146.337 134.779 146.527C134.878 146.716 134.968 146.907 135.051 147.099H134.651C134.499 146.736 134.322 146.381 134.119 146.035H133.575ZM134.079 144.699H133.575V145.715H134.079C134.215 145.715 134.323 145.677 134.403 145.603C134.483 145.525 134.523 145.421 134.523 145.291V145.119C134.523 144.985 134.483 144.883 134.403 144.811C134.323 144.736 134.215 144.699 134.079 144.699ZM135.573 144.379H135.933V146.123C135.933 146.341 135.979 146.512 136.069 146.635C136.163 146.757 136.307 146.819 136.501 146.819C136.699 146.819 136.843 146.757 136.933 146.635C137.024 146.512 137.069 146.341 137.069 146.123V144.379H137.429V146.123C137.429 146.44 137.352 146.689 137.197 146.871C137.043 147.049 136.811 147.139 136.501 147.139C136.189 147.139 135.956 147.049 135.801 146.871C135.649 146.689 135.573 146.44 135.573 146.123V144.379ZM138.631 144.379L139.459 146.395L140.291 144.379H140.687V147.099H140.347V145.935L140.391 144.887L139.611 146.779H139.283L138.519 144.879L138.563 145.935V147.099H138.223V144.379H138.631ZM175.512 147.099V144.379H176.312C176.573 144.379 176.765 144.443 176.888 144.571C177.013 144.696 177.076 144.865 177.076 145.079V145.167C177.076 145.284 177.049 145.388 176.996 145.479C176.943 145.569 176.865 145.641 176.764 145.695C176.905 145.74 177.012 145.815 177.084 145.919C177.159 146.02 177.196 146.143 177.196 146.287V146.375C177.196 146.593 177.132 146.769 177.004 146.903C176.879 147.033 176.681 147.099 176.412 147.099H175.512ZM176.312 144.699H175.86V145.559H176.312C176.445 145.559 176.545 145.525 176.612 145.459C176.681 145.389 176.716 145.295 176.716 145.175V145.079C176.716 144.961 176.681 144.869 176.612 144.803C176.545 144.733 176.445 144.699 176.312 144.699ZM176.412 145.879H175.86V146.783H176.412C176.553 146.783 176.659 146.747 176.728 146.675C176.8 146.603 176.836 146.503 176.836 146.375V146.279C176.836 146.156 176.8 146.059 176.728 145.987C176.659 145.915 176.553 145.879 176.412 145.879ZM178.2 147.099H177.852V144.379H178.2V147.099ZM178.679 144.707V144.379H180.611V144.707H179.819V147.099H179.471V144.707H178.679ZM181.314 146.039C181.314 146.289 181.364 146.483 181.462 146.619C181.564 146.752 181.718 146.819 181.926 146.819C182.017 146.819 182.106 146.808 182.194 146.787C182.282 146.765 182.388 146.728 182.51 146.675L182.626 146.971C182.496 147.029 182.372 147.072 182.254 147.099C182.137 147.125 182.024 147.139 181.914 147.139C181.6 147.139 181.361 147.04 181.198 146.843C181.036 146.645 180.954 146.377 180.954 146.039V145.439C180.954 145.1 181.036 144.832 181.198 144.635C181.361 144.437 181.6 144.339 181.914 144.339C182.024 144.339 182.137 144.352 182.254 144.379C182.374 144.405 182.496 144.448 182.618 144.507L182.506 144.807C182.29 144.711 182.097 144.663 181.926 144.663C181.718 144.663 181.564 144.729 181.462 144.863C181.364 144.996 181.314 145.188 181.314 145.439V146.039ZM185.005 145.439V146.035C185.005 146.373 184.919 146.643 184.749 146.843C184.581 147.04 184.338 147.139 184.021 147.139C183.703 147.139 183.459 147.04 183.289 146.843C183.121 146.643 183.037 146.373 183.037 146.035V145.439C183.037 145.103 183.121 144.836 183.289 144.639C183.459 144.439 183.703 144.339 184.021 144.339C184.338 144.339 184.581 144.439 184.749 144.639C184.919 144.836 185.005 145.103 185.005 145.439ZM184.645 145.439C184.645 145.191 184.591 145 184.485 144.867C184.381 144.731 184.226 144.663 184.021 144.663C183.818 144.663 183.663 144.731 183.557 144.867C183.45 145 183.397 145.191 183.397 145.439V146.035C183.397 146.285 183.45 146.479 183.557 146.615C183.663 146.751 183.818 146.819 184.021 146.819C184.226 146.819 184.381 146.751 184.485 146.615C184.591 146.479 184.645 146.285 184.645 146.035V145.439ZM186.091 147.099H185.743V144.379H186.091V147.099ZM186.942 147.099V144.379H187.306C187.548 144.725 187.771 145.075 187.974 145.427C188.179 145.776 188.371 146.141 188.55 146.523L188.51 145.483V144.379H188.85V147.099H188.486C188.299 146.709 188.106 146.331 187.906 145.963C187.708 145.592 187.492 145.231 187.258 144.879L187.282 145.987V147.099H186.942ZM221.934 147.099V144.379H222.734C222.995 144.379 223.187 144.443 223.31 144.571C223.435 144.696 223.498 144.865 223.498 145.079V145.167C223.498 145.284 223.471 145.388 223.418 145.479C223.365 145.569 223.287 145.641 223.186 145.695C223.327 145.74 223.434 145.815 223.506 145.919C223.581 146.02 223.618 146.143 223.618 146.287V146.375C223.618 146.593 223.554 146.769 223.426 146.903C223.301 147.033 223.103 147.099 222.834 147.099H221.934ZM222.734 144.699H222.282V145.559H222.734C222.867 145.559 222.967 145.525 223.034 145.459C223.103 145.389 223.138 145.295 223.138 145.175V145.079C223.138 144.961 223.103 144.869 223.034 144.803C222.967 144.733 222.867 144.699 222.734 144.699ZM222.834 145.879H222.282V146.783H222.834C222.975 146.783 223.081 146.747 223.15 146.675C223.222 146.603 223.258 146.503 223.258 146.375V146.279C223.258 146.156 223.222 146.059 223.15 145.987C223.081 145.915 222.975 145.879 222.834 145.879ZM224.622 147.099H224.274V144.379H224.622V147.099ZM225.473 147.099V144.379H225.837C226.08 144.725 226.302 145.075 226.505 145.427C226.71 145.776 226.902 146.141 227.081 146.523L227.041 145.483V144.379H227.381V147.099H227.017C226.83 146.709 226.637 146.331 226.437 145.963C226.24 145.592 226.024 145.231 225.789 144.879L225.813 145.987V147.099H225.473ZM229.675 147.099L229.471 146.467H228.439L228.235 147.099H227.895L228.799 144.379H229.127L230.035 147.099H229.675ZM228.691 145.683L228.539 146.151H229.367L229.215 145.683L228.955 144.843L228.691 145.683ZM230.543 147.099V144.379H230.907C231.15 144.725 231.373 145.075 231.575 145.427C231.781 145.776 231.973 146.141 232.151 146.523L232.111 145.483V144.379H232.451V147.099H232.087C231.901 146.709 231.707 146.331 231.507 145.963C231.31 145.592 231.094 145.231 230.859 144.879L230.883 145.987V147.099H230.543ZM233.541 146.039C233.541 146.289 233.59 146.483 233.689 146.619C233.79 146.752 233.945 146.819 234.153 146.819C234.244 146.819 234.333 146.808 234.421 146.787C234.509 146.765 234.614 146.728 234.737 146.675L234.853 146.971C234.722 147.029 234.598 147.072 234.481 147.099C234.364 147.125 234.25 147.139 234.141 147.139C233.826 147.139 233.588 147.04 233.425 146.843C233.262 146.645 233.181 146.377 233.181 146.039V145.439C233.181 145.1 233.262 144.832 233.425 144.635C233.588 144.437 233.826 144.339 234.141 144.339C234.25 144.339 234.364 144.352 234.481 144.379C234.601 144.405 234.722 144.448 234.845 144.507L234.733 144.807C234.517 144.711 234.324 144.663 234.153 144.663C233.945 144.663 233.79 144.729 233.689 144.863C233.59 144.996 233.541 145.188 233.541 145.439V146.039ZM236.942 146.775V147.099H235.422V144.379H236.902V144.707H235.77V145.559H236.782V145.887H235.77V146.775H236.942ZM238.654 146.039C238.654 146.289 238.704 146.483 238.802 146.619C238.904 146.752 239.058 146.819 239.266 146.819C239.357 146.819 239.446 146.808 239.534 146.787C239.622 146.765 239.728 146.728 239.85 146.675L239.966 146.971C239.836 147.029 239.712 147.072 239.594 147.099C239.477 147.125 239.364 147.139 239.254 147.139C238.94 147.139 238.701 147.04 238.538 146.843C238.376 146.645 238.294 146.377 238.294 146.039V145.439C238.294 145.1 238.376 144.832 238.538 144.635C238.701 144.437 238.94 144.339 239.254 144.339C239.364 144.339 239.477 144.352 239.594 144.379C239.714 144.405 239.836 144.448 239.958 144.507L239.846 144.807C239.63 144.711 239.437 144.663 239.266 144.663C239.058 144.663 238.904 144.729 238.802 144.863C238.704 144.996 238.654 145.188 238.654 145.439V146.039ZM242.072 147.099V145.887H240.884V147.099H240.536V144.379H240.884V145.559H242.072V144.379H242.42V147.099H242.072ZM244.706 147.099L244.502 146.467H243.47L243.266 147.099H242.926L243.83 144.379H244.158L245.066 147.099H244.706ZM243.722 145.683L243.57 146.151H244.398L244.246 145.683L243.986 144.843L243.722 145.683ZM245.923 147.099H245.575V144.379H245.923V147.099ZM246.774 147.099V144.379H247.138C247.38 144.725 247.603 145.075 247.806 145.427C248.011 145.776 248.203 146.141 248.382 146.523L248.342 145.483V144.379H248.682V147.099H248.318C248.131 146.709 247.938 146.331 247.738 145.963C247.54 145.592 247.324 145.231 247.09 144.879L247.114 145.987V147.099H246.774ZM277.411 147.099V144.379H278.255C278.567 144.379 278.807 144.473 278.975 144.663C279.143 144.849 279.227 145.108 279.227 145.439V146.035C279.227 146.368 279.143 146.629 278.975 146.819C278.807 147.005 278.567 147.099 278.255 147.099H277.411ZM278.247 144.707H277.759V146.775H278.247C278.66 146.775 278.867 146.528 278.867 146.035V145.439C278.867 144.951 278.66 144.707 278.247 144.707ZM281.809 145.439V146.035C281.809 146.373 281.724 146.643 281.553 146.843C281.385 147.04 281.143 147.139 280.825 147.139C280.508 147.139 280.264 147.04 280.093 146.843C279.925 146.643 279.841 146.373 279.841 146.035V145.439C279.841 145.103 279.925 144.836 280.093 144.639C280.264 144.439 280.508 144.339 280.825 144.339C281.143 144.339 281.385 144.439 281.553 144.639C281.724 144.836 281.809 145.103 281.809 145.439ZM281.449 145.439C281.449 145.191 281.396 145 281.289 144.867C281.185 144.731 281.031 144.663 280.825 144.663C280.623 144.663 280.468 144.731 280.361 144.867C280.255 145 280.201 145.191 280.201 145.439V146.035C280.201 146.285 280.255 146.479 280.361 146.615C280.468 146.751 280.623 146.819 280.825 146.819C281.031 146.819 281.185 146.751 281.289 146.615C281.396 146.479 281.449 146.285 281.449 146.035V145.439ZM284.267 146.911C284.19 146.961 284.079 147.012 283.935 147.063C283.794 147.113 283.623 147.139 283.423 147.139C283.207 147.139 283.025 147.093 282.875 147.003C282.729 146.909 282.617 146.78 282.539 146.615C282.465 146.447 282.427 146.253 282.427 146.035V145.439C282.427 145.097 282.513 144.829 282.683 144.635C282.857 144.437 283.107 144.339 283.435 144.339C283.555 144.339 283.681 144.352 283.811 144.379C283.945 144.405 284.077 144.449 284.207 144.511L284.095 144.811C283.855 144.712 283.637 144.663 283.439 144.663C283.221 144.663 283.057 144.729 282.947 144.863C282.841 144.993 282.787 145.185 282.787 145.439V146.035C282.787 146.275 282.842 146.465 282.951 146.607C283.061 146.748 283.226 146.819 283.447 146.819C283.533 146.819 283.619 146.809 283.707 146.791C283.798 146.772 283.878 146.747 283.947 146.715V145.983H283.439V145.675H284.267V146.911ZM286.481 146.775V147.099H284.961V144.379H286.441V144.707H285.309V145.559H286.321V145.887H285.309V146.775H286.481ZM287.322 146.039C287.322 146.289 287.372 146.483 287.47 146.619C287.572 146.752 287.726 146.819 287.934 146.819C288.025 146.819 288.114 146.808 288.202 146.787C288.29 146.765 288.396 146.728 288.518 146.675L288.634 146.971C288.504 147.029 288.38 147.072 288.262 147.099C288.145 147.125 288.032 147.139 287.922 147.139C287.608 147.139 287.369 147.04 287.206 146.843C287.044 146.645 286.962 146.377 286.962 146.039V145.439C286.962 145.1 287.044 144.832 287.206 144.635C287.369 144.437 287.608 144.339 287.922 144.339C288.032 144.339 288.145 144.352 288.262 144.379C288.382 144.405 288.504 144.448 288.626 144.507L288.514 144.807C288.298 144.711 288.105 144.663 287.934 144.663C287.726 144.663 287.572 144.729 287.47 144.863C287.372 144.996 287.322 145.188 287.322 145.439V146.039ZM291.013 145.439V146.035C291.013 146.373 290.927 146.643 290.757 146.843C290.589 147.04 290.346 147.139 290.029 147.139C289.711 147.139 289.467 147.04 289.297 146.843C289.129 146.643 289.045 146.373 289.045 146.035V145.439C289.045 145.103 289.129 144.836 289.297 144.639C289.467 144.439 289.711 144.339 290.029 144.339C290.346 144.339 290.589 144.439 290.757 144.639C290.927 144.836 291.013 145.103 291.013 145.439ZM290.653 145.439C290.653 145.191 290.599 145 290.493 144.867C290.389 144.731 290.234 144.663 290.029 144.663C289.826 144.663 289.671 144.731 289.565 144.867C289.458 145 289.405 145.191 289.405 145.439V146.035C289.405 146.285 289.458 146.479 289.565 146.615C289.671 146.751 289.826 146.819 290.029 146.819C290.234 146.819 290.389 146.751 290.493 146.615C290.599 146.479 290.653 146.285 290.653 146.035V145.439ZM292.098 147.099H291.75V144.379H292.098V147.099ZM292.95 147.099V144.379H293.314C293.556 144.725 293.779 145.075 293.982 145.427C294.187 145.776 294.379 146.141 294.558 146.523L294.518 145.483V144.379H294.858V147.099H294.494C294.307 146.709 294.114 146.331 293.914 145.963C293.716 145.592 293.5 145.231 293.266 144.879L293.29 145.987V147.099H292.95ZM326.2 147.099V144.379H327C327.261 144.379 327.453 144.443 327.576 144.571C327.701 144.696 327.764 144.865 327.764 145.079V145.167C327.764 145.284 327.737 145.388 327.684 145.479C327.63 145.569 327.553 145.641 327.452 145.695C327.593 145.74 327.7 145.815 327.772 145.919C327.846 146.02 327.884 146.143 327.884 146.287V146.375C327.884 146.593 327.82 146.769 327.692 146.903C327.566 147.033 327.369 147.099 327.1 147.099H326.2ZM327 144.699H326.548V145.559H327C327.133 145.559 327.233 145.525 327.3 145.459C327.369 145.389 327.404 145.295 327.404 145.175V145.079C327.404 144.961 327.369 144.869 327.3 144.803C327.233 144.733 327.133 144.699 327 144.699ZM327.1 145.879H326.548V146.783H327.1C327.241 146.783 327.346 146.747 327.416 146.675C327.488 146.603 327.524 146.503 327.524 146.375V146.279C327.524 146.156 327.488 146.059 327.416 145.987C327.346 145.915 327.241 145.879 327.1 145.879ZM328.887 147.099H328.539V144.379H328.887V147.099ZM329.367 144.707V144.379H331.299V144.707H330.507V147.099H330.159V144.707H329.367ZM332.002 146.039C332.002 146.289 332.051 146.483 332.15 146.619C332.251 146.752 332.406 146.819 332.614 146.819C332.705 146.819 332.794 146.808 332.882 146.787C332.97 146.765 333.075 146.728 333.198 146.675L333.314 146.971C333.183 147.029 333.059 147.072 332.942 147.099C332.825 147.125 332.711 147.139 332.602 147.139C332.287 147.139 332.049 147.04 331.886 146.843C331.723 146.645 331.642 146.377 331.642 146.039V145.439C331.642 145.1 331.723 144.832 331.886 144.635C332.049 144.437 332.287 144.339 332.602 144.339C332.711 144.339 332.825 144.352 332.942 144.379C333.062 144.405 333.183 144.448 333.306 144.507L333.194 144.807C332.978 144.711 332.785 144.663 332.614 144.663C332.406 144.663 332.251 144.729 332.15 144.863C332.051 144.996 332.002 145.188 332.002 145.439V146.039ZM335.692 145.439V146.035C335.692 146.373 335.607 146.643 335.436 146.843C335.268 147.04 335.026 147.139 334.708 147.139C334.391 147.139 334.147 147.04 333.976 146.843C333.808 146.643 333.724 146.373 333.724 146.035V145.439C333.724 145.103 333.808 144.836 333.976 144.639C334.147 144.439 334.391 144.339 334.708 144.339C335.026 144.339 335.268 144.439 335.436 144.639C335.607 144.836 335.692 145.103 335.692 145.439ZM335.332 145.439C335.332 145.191 335.279 145 335.172 144.867C335.068 144.731 334.914 144.663 334.708 144.663C334.506 144.663 334.351 144.731 334.244 144.867C334.138 145 334.084 145.191 334.084 145.439V146.035C334.084 146.285 334.138 146.479 334.244 146.615C334.351 146.751 334.506 146.819 334.708 146.819C334.914 146.819 335.068 146.751 335.172 146.615C335.279 146.479 335.332 146.285 335.332 146.035V145.439ZM336.778 147.099H336.43V144.379H336.778V147.099ZM337.629 147.099V144.379H337.993C338.236 144.725 338.459 145.075 338.661 145.427C338.867 145.776 339.059 146.141 339.237 146.523L339.197 145.483V144.379H339.537V147.099H339.173C338.987 146.709 338.793 146.331 338.593 145.963C338.396 145.592 338.18 145.231 337.945 144.879L337.969 145.987V147.099H337.629ZM341.498 146.039C341.498 146.289 341.547 146.483 341.646 146.619C341.747 146.752 341.902 146.819 342.11 146.819C342.201 146.819 342.29 146.808 342.378 146.787C342.466 146.765 342.571 146.728 342.694 146.675L342.81 146.971C342.679 147.029 342.555 147.072 342.438 147.099C342.321 147.125 342.207 147.139 342.098 147.139C341.783 147.139 341.545 147.04 341.382 146.843C341.219 146.645 341.138 146.377 341.138 146.039V145.439C341.138 145.1 341.219 144.832 341.382 144.635C341.545 144.437 341.783 144.339 342.098 144.339C342.207 144.339 342.321 144.352 342.438 144.379C342.558 144.405 342.679 144.448 342.802 144.507L342.69 144.807C342.474 144.711 342.281 144.663 342.11 144.663C341.902 144.663 341.747 144.729 341.646 144.863C341.547 144.996 341.498 145.188 341.498 145.439V146.039ZM344.819 147.099L344.615 146.467H343.583L343.379 147.099H343.039L343.943 144.379H344.271L345.179 147.099H344.819ZM343.835 145.683L343.683 146.151H344.511L344.359 145.683L344.099 144.843L343.835 145.683ZM346.244 146.827C346.412 146.827 346.541 146.791 346.632 146.719C346.723 146.644 346.768 146.536 346.768 146.395C346.768 146.277 346.736 146.179 346.672 146.099C346.611 146.019 346.509 145.957 346.368 145.915L346.044 145.819C345.841 145.757 345.692 145.665 345.596 145.543C345.5 145.417 345.452 145.264 345.452 145.083C345.452 144.944 345.479 144.819 345.532 144.707C345.588 144.595 345.676 144.505 345.796 144.439C345.919 144.372 346.079 144.339 346.276 144.339C346.396 144.339 346.52 144.353 346.648 144.383C346.776 144.409 346.905 144.453 347.036 144.515L346.924 144.815C346.796 144.759 346.68 144.719 346.576 144.695C346.475 144.668 346.377 144.655 346.284 144.655C346.132 144.655 346.013 144.687 345.928 144.751C345.845 144.812 345.804 144.915 345.804 145.059C345.804 145.163 345.832 145.251 345.888 145.323C345.944 145.392 346.044 145.449 346.188 145.495L346.512 145.591C346.917 145.711 347.12 145.969 347.12 146.367C347.12 146.596 347.051 146.783 346.912 146.927C346.773 147.068 346.551 147.139 346.244 147.139C346.119 147.139 345.985 147.124 345.844 147.095C345.705 147.063 345.561 147.013 345.412 146.947L345.52 146.651C345.661 146.715 345.788 146.76 345.9 146.787C346.015 146.813 346.129 146.827 346.244 146.827ZM349.247 147.099V145.887H348.059V147.099H347.711V144.379H348.059V145.559H349.247V144.379H349.595V147.099H349.247ZM380.615 146.827C380.783 146.827 380.912 146.791 381.003 146.719C381.094 146.644 381.139 146.536 381.139 146.395C381.139 146.277 381.107 146.179 381.043 146.099C380.982 146.019 380.88 145.957 380.739 145.915L380.415 145.819C380.212 145.757 380.063 145.665 379.967 145.543C379.871 145.417 379.823 145.264 379.823 145.083C379.823 144.944 379.85 144.819 379.903 144.707C379.959 144.595 380.047 144.505 380.167 144.439C380.29 144.372 380.45 144.339 380.647 144.339C380.767 144.339 380.891 144.353 381.019 144.383C381.147 144.409 381.276 144.453 381.407 144.515L381.295 144.815C381.167 144.759 381.051 144.719 380.947 144.695C380.846 144.668 380.748 144.655 380.655 144.655C380.503 144.655 380.384 144.687 380.299 144.751C380.216 144.812 380.175 144.915 380.175 145.059C380.175 145.163 380.203 145.251 380.259 145.323C380.315 145.392 380.415 145.449 380.559 145.495L380.883 145.591C381.288 145.711 381.491 145.969 381.491 146.367C381.491 146.596 381.422 146.783 381.283 146.927C381.144 147.068 380.922 147.139 380.615 147.139C380.49 147.139 380.356 147.124 380.215 147.095C380.076 147.063 379.932 147.013 379.783 146.947L379.891 146.651C380.032 146.715 380.159 146.76 380.271 146.787C380.386 146.813 380.5 146.827 380.615 146.827ZM383.934 145.439V146.035C383.934 146.373 383.849 146.643 383.678 146.843C383.51 147.04 383.268 147.139 382.95 147.139C382.633 147.139 382.389 147.04 382.218 146.843C382.05 146.643 381.966 146.373 381.966 146.035V145.439C381.966 145.103 382.05 144.836 382.218 144.639C382.389 144.439 382.633 144.339 382.95 144.339C383.268 144.339 383.51 144.439 383.678 144.639C383.849 144.836 383.934 145.103 383.934 145.439ZM383.574 145.439C383.574 145.191 383.521 145 383.414 144.867C383.31 144.731 383.156 144.663 382.95 144.663C382.748 144.663 382.593 144.731 382.486 144.867C382.38 145 382.326 145.191 382.326 145.439V146.035C382.326 146.285 382.38 146.479 382.486 146.615C382.593 146.751 382.748 146.819 382.95 146.819C383.156 146.819 383.31 146.751 383.414 146.615C383.521 146.479 383.574 146.285 383.574 146.035V145.439ZM386.16 146.775V147.099H384.672V144.379H385.02V146.775H386.16ZM388.136 147.099L387.932 146.467H386.9L386.696 147.099H386.356L387.26 144.379H387.588L388.496 147.099H388.136ZM387.152 145.683L387 146.151H387.828L387.676 145.683L387.416 144.843L387.152 145.683ZM389.004 147.099V144.379H389.368C389.611 144.725 389.834 145.075 390.036 145.427C390.242 145.776 390.434 146.141 390.612 146.523L390.572 145.483V144.379H390.912V147.099H390.548C390.362 146.709 390.168 146.331 389.968 145.963C389.771 145.592 389.555 145.231 389.32 144.879L389.344 145.987V147.099H389.004ZM393.206 147.099L393.002 146.467H391.97L391.766 147.099H391.426L392.33 144.379H392.658L393.566 147.099H393.206ZM392.222 145.683L392.07 146.151H392.898L392.746 145.683L392.486 144.843L392.222 145.683ZM430.661 147.099V144.379H431.509C431.77 144.379 431.969 144.448 432.105 144.587C432.243 144.723 432.313 144.905 432.313 145.135V145.347C432.313 145.576 432.243 145.76 432.105 145.899C431.969 146.037 431.77 146.107 431.509 146.107H431.009V147.099H430.661ZM431.509 144.707H431.009V145.783H431.509C431.653 145.783 431.762 145.744 431.837 145.667C431.914 145.589 431.953 145.483 431.953 145.347V145.135C431.953 145.001 431.914 144.897 431.837 144.823C431.762 144.745 431.653 144.707 431.509 144.707ZM434.77 145.439V146.035C434.77 146.373 434.685 146.643 434.514 146.843C434.346 147.04 434.104 147.139 433.786 147.139C433.469 147.139 433.225 147.04 433.054 146.843C432.886 146.643 432.802 146.373 432.802 146.035V145.439C432.802 145.103 432.886 144.836 433.054 144.639C433.225 144.439 433.469 144.339 433.786 144.339C434.104 144.339 434.346 144.439 434.514 144.639C434.685 144.836 434.77 145.103 434.77 145.439ZM434.41 145.439C434.41 145.191 434.357 145 434.25 144.867C434.146 144.731 433.992 144.663 433.786 144.663C433.584 144.663 433.429 144.731 433.322 144.867C433.216 145 433.162 145.191 433.162 145.439V146.035C433.162 146.285 433.216 146.479 433.322 146.615C433.429 146.751 433.584 146.819 433.786 146.819C433.992 146.819 434.146 146.751 434.25 146.615C434.357 146.479 434.41 146.285 434.41 146.035V145.439ZM436.996 146.775V147.099H435.508V144.379H435.856V146.775H436.996ZM438.812 144.379L437.98 146.011V147.099H437.632V146.011L436.796 144.379H437.172L437.824 145.667L438.452 144.379H438.812ZM440.857 146.911C440.78 146.961 440.669 147.012 440.525 147.063C440.384 147.113 440.213 147.139 440.013 147.139C439.797 147.139 439.614 147.093 439.465 147.003C439.318 146.909 439.206 146.78 439.129 146.615C439.054 146.447 439.017 146.253 439.017 146.035V145.439C439.017 145.097 439.102 144.829 439.273 144.635C439.446 144.437 439.697 144.339 440.025 144.339C440.145 144.339 440.27 144.352 440.401 144.379C440.534 144.405 440.666 144.449 440.797 144.511L440.685 144.811C440.445 144.712 440.226 144.663 440.029 144.663C439.81 144.663 439.646 144.729 439.537 144.863C439.43 144.993 439.377 145.185 439.377 145.439V146.035C439.377 146.275 439.432 146.465 439.541 146.607C439.65 146.748 439.816 146.819 440.037 146.819C440.122 146.819 440.209 146.809 440.297 146.791C440.388 146.772 440.468 146.747 440.537 146.715V145.983H440.029V145.675H440.857V146.911ZM443.403 145.439V146.035C443.403 146.373 443.318 146.643 443.147 146.843C442.979 147.04 442.736 147.139 442.419 147.139C442.102 147.139 441.858 147.04 441.687 146.843C441.519 146.643 441.435 146.373 441.435 146.035V145.439C441.435 145.103 441.519 144.836 441.687 144.639C441.858 144.439 442.102 144.339 442.419 144.339C442.736 144.339 442.979 144.439 443.147 144.639C443.318 144.836 443.403 145.103 443.403 145.439ZM443.043 145.439C443.043 145.191 442.99 145 442.883 144.867C442.779 144.731 442.624 144.663 442.419 144.663C442.216 144.663 442.062 144.731 441.955 144.867C441.848 145 441.795 145.191 441.795 145.439V146.035C441.795 146.285 441.848 146.479 441.955 146.615C442.062 146.751 442.216 146.819 442.419 146.819C442.624 146.819 442.779 146.751 442.883 146.615C442.99 146.479 443.043 146.285 443.043 146.035V145.439ZM444.141 147.099V144.379H444.505C444.748 144.725 444.97 145.075 445.173 145.427C445.378 145.776 445.57 146.141 445.749 146.523L445.709 145.483V144.379H446.049V147.099H445.685C445.498 146.709 445.305 146.331 445.105 145.963C444.908 145.592 444.692 145.231 444.457 144.879L444.481 145.987V147.099H444.141ZM483.489 147.099V144.379H484.333C484.645 144.379 484.885 144.473 485.053 144.663C485.221 144.849 485.305 145.108 485.305 145.439V146.035C485.305 146.368 485.221 146.629 485.053 146.819C484.885 147.005 484.645 147.099 484.333 147.099H483.489ZM484.325 144.707H483.837V146.775H484.325C484.738 146.775 484.945 146.528 484.945 146.035V145.439C484.945 144.951 484.738 144.707 484.325 144.707ZM486.384 147.099H486.036V144.379H486.384V147.099ZM486.919 147.127V146.795C487.135 146.795 487.292 146.751 487.391 146.663C487.492 146.575 487.543 146.421 487.543 146.203V144.379H487.891V146.203C487.891 146.384 487.861 146.545 487.803 146.687C487.747 146.825 487.648 146.933 487.507 147.011C487.368 147.088 487.172 147.127 486.919 147.127ZM490.208 146.775V147.099H488.688V144.379H490.168V144.707H489.036V145.559H490.048V145.887H489.036V146.775H490.208ZM490.441 144.707V144.379H492.373V144.707H491.581V147.099H491.233V144.707H490.441ZM493.404 146.827C493.572 146.827 493.701 146.791 493.792 146.719C493.883 146.644 493.928 146.536 493.928 146.395C493.928 146.277 493.896 146.179 493.832 146.099C493.771 146.019 493.669 145.957 493.528 145.915L493.204 145.819C493.001 145.757 492.852 145.665 492.756 145.543C492.66 145.417 492.612 145.264 492.612 145.083C492.612 144.944 492.639 144.819 492.692 144.707C492.748 144.595 492.836 144.505 492.956 144.439C493.079 144.372 493.239 144.339 493.436 144.339C493.556 144.339 493.68 144.353 493.808 144.383C493.936 144.409 494.065 144.453 494.196 144.515L494.084 144.815C493.956 144.759 493.84 144.719 493.736 144.695C493.635 144.668 493.537 144.655 493.444 144.655C493.292 144.655 493.173 144.687 493.088 144.751C493.005 144.812 492.964 144.915 492.964 145.059C492.964 145.163 492.992 145.251 493.048 145.323C493.104 145.392 493.204 145.449 493.348 145.495L493.672 145.591C494.077 145.711 494.28 145.969 494.28 146.367C494.28 146.596 494.211 146.783 494.072 146.927C493.933 147.068 493.711 147.139 493.404 147.139C493.279 147.139 493.145 147.124 493.004 147.095C492.865 147.063 492.721 147.013 492.572 146.947L492.68 146.651C492.821 146.715 492.948 146.76 493.06 146.787C493.175 146.813 493.289 146.827 493.404 146.827Z" fill="white"/>
<path opacity="0.2" d="M87.7111 101.125C86.9196 104.3 83.7041 106.231 80.5291 105.44C77.3556 104.649 75.4235 101.433 76.2152 98.2585C77.0063 95.0835 80.2217 93.1513 83.3958 93.9428C86.5706 94.7342 88.5024 97.9502 87.7109 101.125H87.7111Z" fill="#F7931A"/>
<path fill-rule="evenodd" clip-rule="evenodd" d="M83.4454 98.6979C83.3848 98.1024 82.8694 97.9054 82.2197 97.852L82.2153 97.0256L81.7121 97.0283L81.7164 97.833C81.5843 97.8337 81.4492 97.8371 81.3149 97.8405L81.3106 97.0304L80.8078 97.0331L80.8121 97.8594C80.7032 97.8622 80.5962 97.8648 80.4919 97.8654L80.4918 97.8628L79.798 97.8663L79.801 98.4036C79.801 98.4036 80.1725 98.3945 80.1663 98.4014C80.3701 98.4004 80.4372 98.5183 80.4569 98.6203L80.462 99.5618C80.476 99.5618 80.4944 99.5623 80.5152 99.565L80.4622 99.5653L80.469 100.884C80.4604 100.948 80.4232 101.051 80.2809 101.052C80.2873 101.058 79.9152 101.054 79.9152 101.054L79.8185 101.655L80.4733 101.652C80.5472 101.651 80.6204 101.652 80.6928 101.652L80.6929 101.652L80.693 101.652C80.7398 101.652 80.7864 101.653 80.8325 101.653L80.8373 102.489L81.3398 102.486L81.3355 101.659C81.4733 101.661 81.6068 101.662 81.7372 101.661L81.7414 102.484L82.2445 102.481L82.2401 101.647C83.0856 101.594 83.6766 101.378 83.7456 100.583C83.8015 99.9433 83.4993 99.6595 83.0185 99.5467C83.3093 99.3963 83.4903 99.1337 83.4453 98.6979L83.4454 98.6979ZM82.7511 100.489C82.7543 101.062 81.8534 101.055 81.4415 101.051L81.4415 101.051C81.4046 101.051 81.3717 101.05 81.3437 101.051L81.3379 99.943C81.3721 99.9429 81.4138 99.9416 81.4609 99.9403C81.8829 99.9281 82.7477 99.903 82.7512 100.489L82.7511 100.489ZM81.4179 99.4366C81.7618 99.4404 82.5112 99.4487 82.5086 98.9278C82.5058 98.3949 81.7849 98.4179 81.4328 98.4292C81.3933 98.4304 81.3584 98.4315 81.3296 98.4317L81.335 99.4361C81.3587 99.436 81.3866 99.4363 81.4179 99.4366Z" fill="#F7931A"/>
</svg>
