<svg width="445" height="208" viewBox="0 0 445 208" fill="none" xmlns="http://www.w3.org/2000/svg">
<g clip-path="url(#clip0_1983_5877)">
<mask id="mask0_1983_5877" style="mask-type:luminance" maskUnits="userSpaceOnUse" x="0" y="0" width="445" height="208">
<path d="M0 0H445V208H0V0Z" fill="white"/>
</mask>
<g mask="url(#mask0_1983_5877)">
<mask id="mask1_1983_5877" style="mask-type:alpha" maskUnits="userSpaceOnUse" x="0" y="-62" width="445" height="332">
<path d="M0 -62H445V269.691H0V-62Z" fill="url(#paint0_linear_1983_5877)"/>
</mask>
<g mask="url(#mask1_1983_5877)">
<path d="M1.16797 332.217L446.748 332.216M1.16797 318.851H446.748M1.16797 305.486H446.748M1.16797 292.121H446.748M1.16797 278.756H446.748M1.16797 265.391H446.748M1.16797 252.025H446.748M1.16797 238.66H446.748M1.16797 225.295H446.748M1.16797 211.93H446.748M1.16797 198.565H446.748M1.16797 185.199H446.748M1.16797 171.834H446.748M1.16797 158.469H446.748M1.16797 145.104H446.748M1.16797 131.739H446.748M1.16797 118.374H446.748M1.16797 105.008H446.748M1.16797 91.6431H446.748M1.16797 78.2791H446.748M1.16797 64.9131H446.748M1.16797 51.5481H446.748M1.16797 38.1821H446.748M1.16797 24.8171H446.748M1.16797 11.4521H446.748M1.16797 -1.91294H446.748M1.16797 -15.2779H446.748M1.16797 -28.6429H446.748M1.16797 -42.0099H446.748M11.198 -104.211V332.499M24.834 -104.211V332.499M38.471 -104.211V332.499M52.108 -104.211V332.499M65.744 -104.211V332.499M79.381 -104.211V332.499M93.017 -104.211V332.499M106.654 -104.211V332.499M120.291 -104.211V332.499M133.927 -104.211V332.499M147.564 -104.211V332.499M161.201 -104.211V332.499M174.837 -104.211V332.499M188.474 -104.211V332.499M202.111 -104.211V332.499M215.747 -104.211V332.499M229.384 -104.211V332.499M243.021 -104.211V332.499M256.657 -104.211V332.499M270.294 -104.211V332.499M283.931 -104.211V332.499M297.567 -104.211V332.499M311.204 -104.211V332.499M324.841 -104.211V332.499M338.477 -104.211V332.499M352.114 -104.211V332.499M365.751 -104.211V332.499M379.387 -104.211V332.499M393.024 -104.211V332.499M406.661 -104.211V332.499M420.297 -104.211V332.499M433.934 -104.211V332.499" stroke="#2E2E2E" stroke-width="0.489"/>
</g>
</g>
</g>
<defs>
<linearGradient id="paint0_linear_1983_5877" x1="222.5" y1="-62" x2="222.5" y2="148.014" gradientUnits="userSpaceOnUse">
<stop stop-color="white"/>
<stop offset="1" stop-color="#232323" stop-opacity="0"/>
</linearGradient>
<clipPath id="clip0_1983_5877">
<rect width="445" height="208" fill="white"/>
</clipPath>
</defs>
</svg>
