<svg width="425" height="86" viewBox="0 0 425 86" fill="none" xmlns="http://www.w3.org/2000/svg">
<g clip-path="url(#clip0_983_4888)">
<path d="M3.6582 38.9025C3.6582 38.6497 3.86311 38.4448 4.11588 38.4448H4.202C4.45477 38.4448 4.65967 38.6497 4.65967 38.9025C4.65967 39.1553 4.45477 39.3602 4.202 39.3602H4.11588C3.86311 39.3602 3.6582 39.1553 3.6582 38.9025Z" fill="#929292"/>
<path d="M7.32422 38.9025C7.32422 38.6497 7.52913 38.4448 7.78189 38.4448H7.86802C8.12078 38.4448 8.32569 38.6497 8.32569 38.9025C8.32569 39.1553 8.12078 39.3602 7.86802 39.3602H7.78189C7.52913 39.3602 7.32422 39.1553 7.32422 38.9025Z" fill="#929292"/>
<path d="M0 38.9025C0 38.6497 0.204908 38.4448 0.457675 38.4448H0.543797C0.796564 38.4448 1.00147 38.6497 1.00147 38.9025C1.00147 39.1553 0.796564 39.3602 0.543797 39.3602H0.457675C0.204908 39.3602 0 39.1553 0 38.9025Z" fill="#929292"/>
<path d="M416.592 74.4664C416.561 74.4126 416.502 74.3604 416.415 74.31C416.322 74.2488 416.238 74.2399 416.163 74.2836C416.023 74.3646 415.956 74.4606 415.963 74.5717C415.953 74.6782 415.902 75.9653 415.902 75.9653C415.902 75.9653 415.958 76.5508 415.776 76.8573C415.715 76.9502 415.708 77.012 415.754 77.0426C415.801 77.0732 415.85 77.0591 415.902 77.0001C415.98 76.9118 416.08 76.7608 416.201 76.5472C416.276 76.4132 416.401 75.3104 416.491 75.043C416.52 74.7959 416.679 74.6172 416.592 74.4664Z" fill="#3F3F3F"/>
<path d="M110.156 81.0407L111.175 76.2405C111.214 76.0617 111.237 75.9205 111.244 75.8168C111.255 75.7131 111.259 75.6291 111.255 75.5647C111.252 75.4968 111.223 75.4485 111.169 75.4199C111.116 75.3913 111.064 75.3734 111.014 75.3662C110.967 75.3591 110.885 75.3519 110.767 75.3448C110.753 75.3448 110.74 75.3448 110.73 75.3448C110.722 75.3448 110.712 75.3448 110.697 75.3448C110.687 75.3412 110.676 75.3394 110.665 75.3394C110.647 75.318 110.637 75.2876 110.633 75.2483C110.629 75.2053 110.631 75.1624 110.638 75.1195C110.646 75.0766 110.656 75.0409 110.671 75.0123C110.817 75.0015 110.996 74.9801 111.207 74.9479C111.421 74.9121 111.629 74.8728 111.829 74.8299C112.029 74.787 112.176 74.7477 112.269 74.7119C112.319 74.7119 112.353 74.7209 112.371 74.7387C112.392 74.7566 112.399 74.7852 112.392 74.8245C112.299 75.1177 112.203 75.5021 112.103 75.9777L111.287 79.8071C111.53 79.7749 111.804 79.6623 112.108 79.4692C112.415 79.2726 112.771 78.9722 113.175 78.5682C113.222 78.5217 113.261 78.4752 113.293 78.4287C113.329 78.3823 113.359 78.3268 113.384 78.2625C113.409 78.1945 113.393 78.1391 113.336 78.0962C113.283 78.0497 113.184 78.0211 113.041 78.0104C113.016 77.9782 113.013 77.9192 113.03 77.8334C113.048 77.744 113.079 77.6814 113.122 77.6457C113.662 77.66 114.017 77.6671 114.189 77.6671C114.285 77.6671 114.606 77.66 115.149 77.6457C115.174 77.6779 115.178 77.7386 115.16 77.828C115.142 77.9174 115.113 77.9782 115.074 78.0104C114.548 78.0605 114.13 78.2214 113.819 78.4931L112.639 79.4907C112.603 79.5193 112.58 79.5568 112.569 79.6033C112.562 79.6426 112.578 79.6945 112.617 79.7589L113.679 81.577C113.776 81.7451 113.885 81.8577 114.007 81.9149C114.132 81.9721 114.305 82.0151 114.527 82.0437C114.552 82.0758 114.554 82.1366 114.532 82.226C114.514 82.3118 114.486 82.3708 114.446 82.403C114.01 82.3887 113.712 82.3815 113.551 82.3815C113.39 82.3815 113.161 82.3887 112.864 82.403C112.846 82.403 112.836 82.3851 112.832 82.3494C112.825 82.1956 112.727 81.9382 112.537 81.577L111.963 80.5044C111.877 80.347 111.786 80.2273 111.69 80.145C111.6 80.1128 111.446 80.0932 111.228 80.086L111.025 81.0407C110.985 81.2266 110.958 81.3768 110.944 81.4912C110.933 81.6056 110.93 81.7004 110.933 81.7755C110.941 81.847 110.967 81.9006 111.014 81.9364C111.06 81.9686 111.107 81.9918 111.153 82.0061C111.203 82.0204 111.28 82.0329 111.384 82.0437C111.409 82.0758 111.413 82.1366 111.395 82.226C111.377 82.3118 111.348 82.3708 111.309 82.403C110.683 82.3887 110.351 82.3815 110.311 82.3815C110.143 82.3815 109.75 82.3887 109.131 82.403C109.106 82.3708 109.103 82.3118 109.121 82.226C109.138 82.1366 109.167 82.0758 109.206 82.0437C109.385 82.0294 109.516 82.0133 109.598 81.9954C109.68 81.9775 109.761 81.9346 109.839 81.8667C109.918 81.7952 109.977 81.6986 110.016 81.577C110.059 81.4555 110.106 81.2767 110.156 81.0407Z" fill="#3F3F3F"/>
<path d="M319.705 17.689L319.706 71.9138" stroke="#3F3F3F" stroke-width="0.68" stroke-linejoin="round" stroke-dasharray="1 3"/>
<path d="M300.797 39.0066C300.602 39.2019 300.602 39.5185 300.797 39.7137L303.979 42.8957C304.174 43.091 304.491 43.091 304.686 42.8957C304.882 42.7004 304.882 42.3839 304.686 42.1886L301.858 39.3602L304.686 36.5317C304.882 36.3365 304.882 36.0199 304.686 35.8246C304.491 35.6294 304.174 35.6294 303.979 35.8246L300.797 39.0066ZM343.257 38.8602H301.151V39.8602H343.257V38.8602Z" fill="#929292"/>
<path d="M358.461 39.0066C358.266 39.2019 358.266 39.5185 358.461 39.7137L361.643 42.8957C361.838 43.091 362.155 43.091 362.35 42.8957C362.546 42.7004 362.546 42.3839 362.35 42.1886L359.522 39.3602L362.35 36.5317C362.546 36.3365 362.546 36.0199 362.35 35.8246C362.155 35.6294 361.838 35.6294 361.643 35.8246L358.461 39.0066ZM375.291 38.8602H358.815V39.8602H375.291V38.8602Z" fill="#929292"/>
<path d="M350.764 39.36C350.764 39.1073 350.969 38.9023 351.221 38.9023H351.307C351.56 38.9023 351.765 39.1073 351.765 39.36C351.765 39.6128 351.56 39.8177 351.307 39.8177H351.221C350.969 39.8177 350.764 39.6128 350.764 39.36Z" fill="#929292"/>
<path d="M354.428 39.36C354.428 39.1073 354.633 38.9023 354.885 38.9023H354.972C355.224 38.9023 355.429 39.1073 355.429 39.36C355.429 39.6128 355.224 39.8177 354.972 39.8177H354.885C354.633 39.8177 354.428 39.6128 354.428 39.36Z" fill="#929292"/>
<path d="M347.104 39.36C347.104 39.1073 347.308 38.9023 347.561 38.9023H347.647C347.9 38.9023 348.105 39.1073 348.105 39.36C348.105 39.6128 347.9 39.8177 347.647 39.8177H347.561C347.308 39.8177 347.104 39.6128 347.104 39.36Z" fill="#929292"/>
<path d="M168.145 24.2663C168.413 19.4942 165.571 16.3307 161.657 14.7222C158.923 13.5962 156.081 13.1136 153.132 13.0064C143.963 12.6846 135.33 14.6149 127.127 18.7436C125.732 19.4406 124.392 20.2985 123.052 21.4245C124.07 21.7462 125.196 21.639 125.84 22.6577C125.679 23.3548 125.303 23.6229 124.553 23.462C121.926 22.8186 119.405 22.8722 116.993 24.2663C116.564 24.5344 116.135 24.5344 115.706 24.2663C115.438 23.891 115.706 23.5693 115.867 23.3012C117.207 20.9419 117.475 18.4219 116.778 15.7945C116.617 15.1511 116.778 14.7758 117.422 14.4005C118.762 14.9903 118.333 16.438 118.816 17.5103C122.73 14.4541 127.18 12.3093 131.845 10.7008C135.598 9.36026 139.459 8.55598 143.427 7.91256C145.625 7.53722 149.914 7.32275 149.968 7.32275C152.059 7.32275 153.829 7.37637 155.759 7.59084C158.708 7.96617 161.657 8.55598 164.392 9.89645C170.504 12.7919 173.829 17.5103 173.882 24.3735C173.346 24.3735 172.81 24.4272 172.274 24.4272C172.595 18.4755 169.754 14.3468 164.713 11.6659C161.014 9.68198 156.939 9.03855 152.81 8.87769C148.52 8.66322 144.285 9.19941 140.102 10.0573C134.526 11.1833 129.218 13.0064 124.231 15.7409C122.569 16.6524 120.907 17.7248 119.513 19.0653C118.655 19.8696 117.743 20.9956 118.011 22.3361C119.191 22.1752 120.531 21.6926 121.389 20.9419C122.891 19.6015 124.606 18.5827 126.376 17.6712C134.204 13.6498 142.515 11.6659 151.309 11.6123C154.794 11.6123 158.172 12.0412 161.496 13.2208C166.215 14.9366 169.432 18.0465 169.807 24.4272C169.217 24.2663 168.681 24.2663 168.145 24.2663Z" fill="#3ECF8E"/>
<path d="M48.0137 12.7051V71.9139" stroke="#3F3F3F" stroke-width="0.68" stroke-linejoin="round" stroke-dasharray="1 3"/>
<path d="M139.516 17.2905V72.3127" stroke="#3F3F3F" stroke-width="0.68" stroke-linejoin="round" stroke-dasharray="1 3"/>
<path d="M17.9511 38.8665C17.7559 39.0618 17.7559 39.3784 17.9511 39.5736L21.1331 42.7556C21.3284 42.9509 21.6449 42.9509 21.8402 42.7556C22.0355 42.5603 22.0355 42.2438 21.8402 42.0485L19.0118 39.2201L21.8402 36.3916C22.0355 36.1964 22.0355 35.8798 21.8402 35.6845C21.6449 35.4893 21.3284 35.4893 21.1331 35.6845L17.9511 38.8665ZM70.9346 38.7201H18.3047V39.7201H70.9346V38.7201Z" fill="#929292"/>
<path d="M117.631 38.8665C117.436 39.0618 117.436 39.3784 117.631 39.5736L120.813 42.7556C121.008 42.9509 121.325 42.9509 121.52 42.7556C121.715 42.5603 121.715 42.2438 121.52 42.0485L118.692 39.2201L121.52 36.3916C121.715 36.1964 121.715 35.8798 121.52 35.6845C121.325 35.4893 121.008 35.4893 120.813 35.6845L117.631 38.8665ZM161.843 38.7201H117.984V39.7201H161.843V38.7201Z" fill="#929292"/>
<g filter="url(#filter0_d_983_4888)">
<path d="M111.191 24.4673H77.7383C74.4246 24.4673 71.7383 27.1536 71.7383 30.4673V47.5733C71.7383 50.887 74.4246 53.5733 77.7383 53.5733H111.191C114.505 53.5733 117.191 50.887 117.191 47.5733V30.4673C117.191 27.1536 114.505 24.4673 111.191 24.4673Z" fill="#FBFBFB"/>
<path d="M111.192 24.7671H77.7391C74.591 24.7671 72.0391 27.3191 72.0391 30.4671V47.5731C72.0391 50.7211 74.591 53.2731 77.7391 53.2731H111.192C114.34 53.2731 116.892 50.7211 116.892 47.5731V30.4671C116.892 27.3191 114.34 24.7671 111.192 24.7671Z" stroke="#BABABA" stroke-width="0.6"/>
</g>
<path d="M101.439 24.8662V53.1747" stroke="#C9C9C9" stroke-width="0.4"/>
<g filter="url(#filter1_d_983_4888)">
<path d="M201.705 24.8662H168.252C164.938 24.8662 162.252 27.5525 162.252 30.8662V47.9722C162.252 51.2859 164.938 53.9722 168.252 53.9722H201.705C205.019 53.9722 207.705 51.2859 207.705 47.9722V30.8662C207.705 27.5525 205.019 24.8662 201.705 24.8662Z" fill="#FBFBFB"/>
<path d="M201.706 25.166H168.253C165.105 25.166 162.553 27.718 162.553 30.866V47.972C162.553 51.12 165.105 53.672 168.253 53.672H201.706C204.854 53.672 207.406 51.12 207.406 47.972V30.866C207.406 27.718 204.854 25.166 201.706 25.166Z" stroke="#BABABA" stroke-width="0.6"/>
</g>
<path d="M191.947 25.2651V53.5736" stroke="#C9C9C9" stroke-width="0.4"/>
<path d="M92.9233 13.6577C92.7523 13.787 92.6418 13.9663 92.5917 14.1958L91.9097 17.3995C92.0223 17.5914 92.137 17.7395 92.2538 17.8438C92.3748 17.9481 92.525 18.0002 92.7043 18.0002C93.2925 18.0002 93.791 17.7645 94.1998 17.2931C94.6086 16.8176 94.8944 16.1981 95.0571 15.4347C95.1864 14.8173 95.1572 14.298 94.9695 13.8767C94.7859 13.4553 94.496 13.2447 94.0997 13.2447C93.6826 13.2447 93.2904 13.3823 92.9233 13.6577ZM92.9233 13.2572C93.4323 12.8734 93.9495 12.6815 94.4751 12.6815C95.0675 12.6815 95.5431 12.9172 95.9018 13.3886C96.2647 13.8558 96.3669 14.4607 96.2084 15.2032C96.0707 15.8498 95.8017 16.4275 95.4012 16.9365C95.0008 17.4412 94.5607 17.8167 94.0809 18.0628C93.6054 18.3089 93.1423 18.432 92.6918 18.432C92.1912 18.432 91.8367 18.3277 91.6281 18.1191C91.5697 18.0607 91.5155 18.0336 91.4654 18.0377C91.4195 18.0377 91.3548 18.0753 91.2714 18.1504C91.1963 18.2213 91.0733 18.3256 90.9022 18.4632C90.7771 18.4632 90.6957 18.4111 90.6582 18.3068C90.7249 18.1483 90.8063 17.8459 90.9022 17.3995L92.2288 11.1422C92.2747 10.9336 92.3018 10.7689 92.3101 10.6479C92.3226 10.5269 92.3247 10.4289 92.3164 10.3538C92.3122 10.2745 92.2788 10.2182 92.2163 10.1849C92.1537 10.1515 92.0953 10.1306 92.0411 10.1223C91.9868 10.1139 91.8909 10.1056 91.7532 10.0973C91.7365 10.0973 91.7219 10.0973 91.7094 10.0973C91.7011 10.0973 91.6886 10.0973 91.6719 10.0973C91.6594 10.0931 91.6469 10.091 91.6343 10.091C91.6135 10.066 91.601 10.0305 91.5968 9.98462C91.5926 9.93456 91.5947 9.8845 91.6031 9.83444C91.6114 9.78439 91.6218 9.74267 91.6343 9.7093C91.7637 9.70095 91.918 9.68427 92.0974 9.65924C92.2809 9.63004 92.4603 9.60084 92.6355 9.57164C92.8107 9.53827 92.9776 9.50281 93.1361 9.46526C93.2988 9.42772 93.4218 9.39226 93.5053 9.35889C93.5637 9.35889 93.6033 9.36932 93.6242 9.39018C93.6492 9.41103 93.6554 9.44441 93.6429 9.49029C93.5345 9.83236 93.4218 10.2808 93.305 10.8356L92.8044 13.1946C92.7919 13.253 92.7961 13.2885 92.817 13.301C92.8378 13.3093 92.8733 13.2947 92.9233 13.2572Z" fill="#A6A6A6"/>
<path d="M212.537 81.957C212.537 82.8687 212.724 82.9236 213.493 82.9566C213.559 83.0225 213.559 83.2532 213.493 83.3191C212.944 83.3081 212.68 83.2971 212.153 83.2971C211.56 83.2971 211.164 83.3081 210.626 83.3191C210.56 83.2532 210.56 83.0225 210.626 82.9566C211.395 82.9236 211.692 82.8687 211.692 81.957V78.3762C211.692 78.0027 211.659 77.7391 211.472 77.7391C211.263 77.7391 211.022 77.8049 210.516 78.0136C210.417 77.9477 210.374 77.8379 210.352 77.7171C211.318 77.2668 211.9 76.9922 212.504 76.6187C212.548 76.6187 212.57 76.6187 212.57 76.6736C212.548 76.8164 212.537 77.4865 212.537 78.1455V81.957Z" fill="#3F3F3F"/>
<path d="M203.341 78.5188C203.341 78.376 203.594 78.2222 203.703 78.2222C203.791 78.2222 203.89 78.2661 203.89 78.376V80.2653H205.823C205.933 80.2653 205.977 80.3641 205.977 80.452C205.977 80.5618 205.823 80.8145 205.681 80.8145H203.89V82.5719C203.89 82.7038 203.681 82.8465 203.517 82.8465C203.429 82.8465 203.341 82.7806 203.341 82.6818V80.8145H201.419C201.32 80.8145 201.254 80.7266 201.254 80.6387C201.254 80.474 201.397 80.2653 201.529 80.2653H203.341V78.5188Z" fill="#3F3F3F"/>
<path d="M193.453 81.9562L194.472 77.156C194.511 76.9772 194.534 76.8359 194.541 76.7322C194.552 76.6286 194.556 76.5445 194.552 76.4802C194.548 76.4122 194.52 76.364 194.466 76.3354C194.413 76.3068 194.361 76.2889 194.311 76.2817C194.264 76.2746 194.182 76.2674 194.064 76.2603C194.05 76.2603 194.037 76.2603 194.026 76.2603C194.019 76.2603 194.009 76.2603 193.994 76.2603C193.984 76.2567 193.973 76.2549 193.962 76.2549C193.944 76.2335 193.933 76.2031 193.93 76.1637C193.926 76.1208 193.928 76.0779 193.935 76.035C193.942 75.9921 193.953 75.9563 193.967 75.9277C194.114 75.917 194.293 75.8956 194.504 75.8634C194.718 75.8276 194.926 75.7883 195.126 75.7454C195.326 75.7025 195.473 75.6631 195.566 75.6274C195.616 75.6274 195.65 75.6363 195.668 75.6542C195.689 75.6721 195.696 75.7007 195.689 75.74C195.596 76.0332 195.5 76.4176 195.399 76.8931L194.584 80.7226C194.827 80.6904 195.101 80.5778 195.405 80.3847C195.712 80.1881 196.068 79.8877 196.472 79.4837C196.519 79.4372 196.558 79.3907 196.59 79.3442C196.626 79.2977 196.656 79.2423 196.681 79.1779C196.706 79.11 196.69 79.0546 196.633 79.0117C196.579 78.9652 196.481 78.9366 196.338 78.9259C196.313 78.8937 196.309 78.8347 196.327 78.7489C196.345 78.6595 196.376 78.5969 196.419 78.5612C196.958 78.5755 197.314 78.5826 197.486 78.5826C197.582 78.5826 197.902 78.5755 198.446 78.5612C198.471 78.5933 198.474 78.6541 198.457 78.7435C198.439 78.8329 198.41 78.8937 198.371 78.9259C197.845 78.9759 197.427 79.1368 197.116 79.4086L195.936 80.4062C195.9 80.4348 195.877 80.4723 195.866 80.5188C195.859 80.5581 195.875 80.61 195.914 80.6743L196.976 82.4925C197.073 82.6606 197.182 82.7732 197.303 82.8304C197.429 82.8876 197.602 82.9305 197.824 82.9591C197.849 82.9913 197.851 83.0521 197.829 83.1415C197.811 83.2273 197.783 83.2863 197.743 83.3185C197.307 83.3042 197.008 83.297 196.848 83.297C196.687 83.297 196.458 83.3042 196.161 83.3185C196.143 83.3185 196.132 83.3006 196.129 83.2648C196.122 83.1111 196.023 82.8537 195.834 82.4925L195.26 81.4198C195.174 81.2625 195.083 81.1427 194.986 81.0605C194.897 81.0283 194.743 81.0086 194.525 81.0015L194.321 81.9562C194.282 82.1421 194.255 82.2923 194.241 82.4067C194.23 82.5211 194.227 82.6159 194.23 82.691C194.237 82.7625 194.264 82.8161 194.311 82.8519C194.357 82.884 194.404 82.9073 194.45 82.9216C194.5 82.9359 194.577 82.9484 194.681 82.9591C194.706 82.9913 194.709 83.0521 194.691 83.1415C194.674 83.2273 194.645 83.2863 194.606 83.3185C193.98 83.3042 193.647 83.297 193.608 83.297C193.44 83.297 193.047 83.3042 192.428 83.3185C192.403 83.2863 192.4 83.2273 192.417 83.1415C192.435 83.0521 192.464 82.9913 192.503 82.9591C192.682 82.9448 192.813 82.9287 192.895 82.9109C192.977 82.893 193.057 82.8501 193.136 82.7821C193.215 82.7106 193.274 82.6141 193.313 82.4925C193.356 82.3709 193.402 82.1922 193.453 81.9562Z" fill="#3F3F3F"/>
<path d="M412.22 81.0407L413.239 76.2405C413.279 76.0617 413.302 75.9205 413.309 75.8168C413.32 75.7131 413.323 75.6291 413.32 75.5647C413.316 75.4968 413.287 75.4485 413.234 75.4199C413.18 75.3913 413.128 75.3734 413.078 75.3662C413.032 75.3591 412.95 75.3519 412.832 75.3448C412.817 75.3448 412.805 75.3448 412.794 75.3448C412.787 75.3448 412.776 75.3448 412.762 75.3448C412.751 75.3412 412.74 75.3394 412.73 75.3394C412.712 75.318 412.701 75.2876 412.697 75.2483C412.694 75.2053 412.696 75.1624 412.703 75.1195C412.71 75.0766 412.721 75.0409 412.735 75.0123C412.882 75.0015 413.06 74.9801 413.271 74.9479C413.486 74.9121 413.693 74.8728 413.894 74.8299C414.094 74.787 414.24 74.7477 414.333 74.7119C414.383 74.7119 414.417 74.7209 414.435 74.7387C414.457 74.7566 414.464 74.7852 414.457 74.8245C414.364 75.1177 414.267 75.5021 414.167 75.9777L413.352 79.8071C413.595 79.7749 413.868 79.6623 414.172 79.4692C414.48 79.2726 414.836 78.9722 415.24 78.5682C415.286 78.5217 415.326 78.4752 415.358 78.4287C415.393 78.3823 415.424 78.3268 415.449 78.2625C415.474 78.1945 415.458 78.1391 415.401 78.0962C415.347 78.0497 415.249 78.0211 415.106 78.0104C415.081 77.9782 415.077 77.9192 415.095 77.8334C415.113 77.744 415.143 77.6814 415.186 77.6457C415.726 77.66 416.082 77.6671 416.253 77.6671C416.35 77.6671 416.67 77.66 417.213 77.6457C417.238 77.6779 417.242 77.7386 417.224 77.828C417.206 77.9174 417.178 77.9782 417.138 78.0104C416.613 78.0605 416.194 78.2214 415.883 78.4931L414.703 79.4907C414.668 79.5193 414.644 79.5568 414.634 79.6033C414.627 79.6426 414.643 79.6945 414.682 79.7589L415.744 81.577C415.84 81.7451 415.949 81.8577 416.071 81.9149C416.196 81.9721 416.37 82.0151 416.591 82.0437C416.616 82.0758 416.618 82.1366 416.597 82.226C416.579 82.3118 416.55 82.3708 416.511 82.403C416.075 82.3887 415.776 82.3815 415.615 82.3815C415.454 82.3815 415.225 82.3887 414.929 82.403C414.911 82.403 414.9 82.3851 414.896 82.3494C414.889 82.1956 414.791 81.9382 414.601 81.577L414.028 80.5044C413.942 80.347 413.851 80.2273 413.754 80.145C413.665 80.1128 413.511 80.0932 413.293 80.086L413.089 81.0407C413.05 81.2266 413.023 81.3768 413.009 81.4912C412.998 81.6056 412.994 81.7004 412.998 81.7755C413.005 81.847 413.032 81.9006 413.078 81.9364C413.125 81.9686 413.171 81.9918 413.218 82.0061C413.268 82.0204 413.345 82.0329 413.448 82.0437C413.473 82.0758 413.477 82.1366 413.459 82.226C413.441 82.3118 413.413 82.3708 413.373 82.403C412.748 82.3887 412.415 82.3815 412.376 82.3815C412.208 82.3815 411.814 82.3887 411.196 82.403C411.171 82.3708 411.167 82.3118 411.185 82.226C411.203 82.1366 411.231 82.0758 411.271 82.0437C411.45 82.0294 411.58 82.0133 411.662 81.9954C411.745 81.9775 411.825 81.9346 411.904 81.8667C411.982 81.7952 412.041 81.6986 412.081 81.577C412.124 81.4555 412.17 81.2767 412.22 81.0407Z" fill="#3F3F3F"/>
<path d="M298.833 77.241C298.833 76.5819 299.591 75.6812 300.81 75.6812C301.7 75.6812 302.667 76.1645 302.667 77.3508C302.667 78.1856 302.194 78.6689 301.568 79.2731L300.459 80.3385C300.404 80.3934 299.646 81.1404 299.646 81.6676H301.601C301.997 81.6676 302.183 81.393 302.37 80.6131C302.48 80.5912 302.623 80.6131 302.689 80.6681C302.678 80.9976 302.568 81.8214 302.425 82.4036C302.425 82.4036 301.92 82.3816 301.568 82.3816H299.646C299.295 82.3816 298.734 82.4036 298.734 82.4036C298.734 81.7555 298.91 81.2282 299.987 80.1298L300.799 79.328C301.447 78.6689 301.7 78.0977 301.7 77.3948C301.7 76.3403 301.14 76.0657 300.744 76.0657C299.943 76.0657 299.657 76.4611 299.657 76.7357C299.657 76.8236 299.723 76.9224 299.745 76.9993C299.767 77.0762 299.789 77.142 299.789 77.2299C299.789 77.4715 299.459 77.6693 299.273 77.6693C299.042 77.6693 298.833 77.4716 298.833 77.241Z" fill="#3F3F3F"/>
<path d="M292.126 77.6032C292.126 77.4604 292.379 77.3066 292.489 77.3066C292.576 77.3066 292.675 77.3506 292.675 77.4604V79.3497H294.608C294.718 79.3497 294.762 79.4485 294.762 79.5364C294.762 79.6463 294.608 79.8989 294.466 79.8989H292.675V81.6564C292.675 81.7882 292.467 81.931 292.302 81.931C292.214 81.931 292.126 81.8651 292.126 81.7662V79.8989H290.204C290.105 79.8989 290.039 79.811 290.039 79.7231C290.039 79.5584 290.182 79.3497 290.314 79.3497H292.126V77.6032Z" fill="#3F3F3F"/>
<path d="M282.242 81.0407L283.261 76.2404C283.3 76.0617 283.323 75.9204 283.33 75.8167C283.341 75.713 283.345 75.629 283.341 75.5647C283.338 75.4967 283.309 75.4485 283.255 75.4198C283.202 75.3912 283.15 75.3734 283.1 75.3662C283.053 75.3591 282.971 75.3519 282.853 75.3448C282.839 75.3448 282.826 75.3448 282.816 75.3448C282.808 75.3448 282.798 75.3448 282.783 75.3448C282.773 75.3412 282.762 75.3394 282.751 75.3394C282.733 75.3179 282.723 75.2876 282.719 75.2482C282.715 75.2053 282.717 75.1624 282.724 75.1195C282.731 75.0766 282.742 75.0408 282.757 75.0122C282.903 75.0015 283.082 74.9801 283.293 74.9479C283.507 74.9121 283.715 74.8728 283.915 74.8299C284.115 74.787 284.262 74.7476 284.355 74.7119C284.405 74.7119 284.439 74.7208 284.457 74.7387C284.478 74.7566 284.485 74.7852 284.478 74.8245C284.385 75.1177 284.289 75.5021 284.189 75.9776L283.373 79.8071C283.616 79.7749 283.89 79.6623 284.194 79.4692C284.501 79.2725 284.857 78.9722 285.261 78.5682C285.308 78.5217 285.347 78.4752 285.379 78.4287C285.415 78.3822 285.445 78.3268 285.47 78.2624C285.495 78.1945 285.479 78.1391 285.422 78.0962C285.368 78.0497 285.27 78.0211 285.127 78.0104C285.102 77.9782 285.099 77.9192 285.116 77.8334C285.134 77.744 285.165 77.6814 285.208 77.6457C285.747 77.66 286.103 77.6671 286.275 77.6671C286.371 77.6671 286.691 77.66 287.235 77.6457C287.26 77.6778 287.264 77.7386 287.246 77.828C287.228 77.9174 287.199 77.9782 287.16 78.0104C286.634 78.0604 286.216 78.2213 285.905 78.4931L284.725 79.4907C284.689 79.5193 284.666 79.5568 284.655 79.6033C284.648 79.6426 284.664 79.6945 284.703 79.7588L285.765 81.577C285.862 81.7451 285.971 81.8577 286.093 81.9149C286.218 81.9721 286.391 82.015 286.613 82.0436C286.638 82.0758 286.64 82.1366 286.618 82.226C286.6 82.3118 286.572 82.3708 286.532 82.403C286.096 82.3887 285.798 82.3815 285.637 82.3815C285.476 82.3815 285.247 82.3887 284.95 82.403C284.932 82.403 284.922 82.3851 284.918 82.3493C284.911 82.1956 284.812 81.9381 284.623 81.577L284.049 80.5043C283.963 80.347 283.872 80.2272 283.776 80.145C283.686 80.1128 283.532 80.0931 283.314 80.086L283.11 81.0407C283.071 81.2266 283.044 81.3768 283.03 81.4912C283.019 81.6056 283.016 81.7004 283.019 81.7755C283.026 81.847 283.053 81.9006 283.1 81.9364C283.146 81.9685 283.193 81.9918 283.239 82.0061C283.289 82.0204 283.366 82.0329 283.47 82.0436C283.495 82.0758 283.498 82.1366 283.481 82.226C283.463 82.3118 283.434 82.3708 283.395 82.403C282.769 82.3887 282.436 82.3815 282.397 82.3815C282.229 82.3815 281.836 82.3887 281.217 82.403C281.192 82.3708 281.189 82.3118 281.206 82.226C281.224 82.1366 281.253 82.0758 281.292 82.0436C281.471 82.0293 281.602 82.0132 281.684 81.9954C281.766 81.9775 281.847 81.9346 281.925 81.8666C282.004 81.7951 282.063 81.6986 282.102 81.577C282.145 81.4554 282.192 81.2767 282.242 81.0407Z" fill="#3F3F3F"/>
<path d="M186.287 14.5732C186.116 14.7025 186.005 14.8819 185.955 15.1113L185.273 18.315C185.386 18.5069 185.5 18.655 185.617 18.7593C185.738 18.8636 185.888 18.9157 186.068 18.9157C186.656 18.9157 187.154 18.6801 187.563 18.2087C187.972 17.7331 188.258 17.1136 188.42 16.3503C188.55 15.7329 188.52 15.2135 188.333 14.7922C188.149 14.3709 187.859 14.1602 187.463 14.1602C187.046 14.1602 186.654 14.2979 186.287 14.5732ZM186.287 14.1727C186.796 13.7889 187.313 13.5971 187.838 13.5971C188.431 13.5971 188.906 13.8328 189.265 14.3041C189.628 14.7713 189.73 15.3762 189.572 16.1187C189.434 16.7653 189.165 17.3431 188.764 17.852C188.364 18.3568 187.924 18.7322 187.444 18.9783C186.969 19.2244 186.506 19.3475 186.055 19.3475C185.554 19.3475 185.2 19.2432 184.991 19.0346C184.933 18.9762 184.879 18.9491 184.829 18.9533C184.783 18.9533 184.718 18.9908 184.635 19.0659C184.56 19.1368 184.437 19.2411 184.265 19.3788C184.14 19.3788 184.059 19.3266 184.021 19.2224C184.088 19.0638 184.17 18.7614 184.265 18.315L185.592 12.0578C185.638 11.8492 185.665 11.6844 185.673 11.5634C185.686 11.4425 185.688 11.3444 185.68 11.2694C185.675 11.1901 185.642 11.1338 185.58 11.1004C185.517 11.067 185.459 11.0462 185.404 11.0378C185.35 11.0295 185.254 11.0211 185.116 11.0128C185.1 11.0128 185.085 11.0128 185.073 11.0128C185.064 11.0128 185.052 11.0128 185.035 11.0128C185.023 11.0086 185.01 11.0065 184.998 11.0065C184.977 10.9815 184.964 10.9461 184.96 10.9002C184.956 10.8501 184.958 10.8001 184.966 10.75C184.975 10.6999 184.985 10.6582 184.998 10.6249C185.127 10.6165 185.281 10.5998 185.461 10.5748C185.644 10.5456 185.824 10.5164 185.999 10.4872C186.174 10.4538 186.341 10.4184 186.499 10.3808C186.662 10.3433 186.785 10.3078 186.869 10.2744C186.927 10.2744 186.967 10.2849 186.987 10.3057C187.012 10.3266 187.019 10.36 187.006 10.4058C186.898 10.7479 186.785 11.1964 186.668 11.7512L186.168 14.1102C186.155 14.1686 186.159 14.204 186.18 14.2165C186.201 14.2249 186.237 14.2103 186.287 14.1727Z" fill="#A6A6A6"/>
<path d="M280.571 9.47669C280.54 9.42285 280.481 9.3707 280.394 9.32024C280.301 9.25901 280.217 9.25021 280.141 9.29382C280.001 9.37482 279.935 9.47085 279.942 9.58192C279.931 9.68845 279.881 10.9755 279.881 10.9755C279.881 10.9755 279.937 11.561 279.755 11.8676C279.694 11.9605 279.686 12.0222 279.733 12.0529C279.779 12.0835 279.828 12.0693 279.881 12.0104C279.959 11.922 280.058 11.771 280.179 11.5574C280.255 11.4234 280.38 10.3207 280.469 10.0532C280.499 9.80616 280.658 9.62745 280.571 9.47669Z" fill="#A6A6A6"/>
<path d="M190.501 10.3917C190.47 10.3379 190.411 10.2857 190.325 10.2353C190.232 10.174 190.148 10.1652 190.072 10.2088C189.932 10.2898 189.866 10.3859 189.872 10.4969C189.862 10.6035 189.811 11.8906 189.811 11.8906C189.811 11.8906 189.868 12.4761 189.686 12.7826C189.624 12.8755 189.617 12.9373 189.663 12.9679C189.71 12.9985 189.759 12.9843 189.811 12.9254C189.89 12.837 189.989 12.686 190.11 12.4724C190.186 12.3385 190.31 11.2357 190.4 10.9682C190.429 10.7212 190.589 10.5425 190.501 10.3917Z" fill="#A6A6A6"/>
<path d="M282.403 9.47669C282.372 9.42285 282.313 9.3707 282.226 9.32024C282.133 9.25901 282.049 9.25021 281.974 9.29382C281.834 9.37482 281.767 9.47085 281.774 9.58192C281.763 9.68845 281.713 10.9755 281.713 10.9755C281.713 10.9755 281.769 11.561 281.587 11.8676C281.526 11.9605 281.518 12.0222 281.565 12.0529C281.611 12.0835 281.661 12.0693 281.713 12.0104C281.791 11.922 281.89 11.771 282.011 11.5574C282.087 11.4234 282.212 10.3207 282.301 10.0532C282.331 9.80616 282.49 9.62745 282.403 9.47669Z" fill="#A6A6A6"/>
<path d="M259.848 24.2663C260.116 19.4943 257.274 16.3308 253.36 14.7222C250.626 13.5962 247.784 13.1136 244.835 13.0064C235.666 12.6847 227.033 14.615 218.83 18.7436C217.436 19.4406 216.095 20.2985 214.755 21.4245C215.773 21.7463 216.899 21.639 217.543 22.6578C217.382 23.3548 217.007 23.6229 216.256 23.4621C213.629 22.8186 211.109 22.8723 208.696 24.2663C208.267 24.5344 207.838 24.5344 207.409 24.2663C207.141 23.891 207.409 23.5693 207.57 23.3012C208.91 20.942 209.178 18.4219 208.481 15.7946C208.32 15.1511 208.481 14.7758 209.125 14.4005C210.465 14.9903 210.036 16.438 210.519 17.5104C214.433 14.4541 218.883 12.3093 223.548 10.7008C227.301 9.36026 231.162 8.55598 235.13 7.91256C237.328 7.53723 241.618 7.32275 241.671 7.32275C243.762 7.32275 245.532 7.37637 247.462 7.59084C250.411 7.96618 253.36 8.55598 256.095 9.89645C262.207 12.7919 265.532 17.5104 265.585 24.3736C265.049 24.3736 264.513 24.4272 263.977 24.4272C264.298 18.4755 261.457 14.3469 256.416 11.6659C252.717 9.68198 248.642 9.03855 244.513 8.87769C240.224 8.66322 235.988 9.19941 231.805 10.0574C226.229 11.1834 220.921 13.0064 215.934 15.741C214.272 16.6525 212.61 17.7248 211.216 19.0653C210.358 19.8696 209.446 20.9956 209.714 22.3361C210.894 22.1752 212.235 21.6926 213.092 20.942C214.594 19.6015 216.31 18.5827 218.079 17.6712C225.907 13.6498 234.218 11.6659 243.012 11.6123C246.497 11.6123 249.875 12.0413 253.199 13.2209C257.918 14.9367 261.135 18.0466 261.51 24.4272C260.92 24.2663 260.384 24.2663 259.848 24.2663Z" fill="#3ECF8E"/>
<g filter="url(#filter2_d_983_4888)">
<path d="M293 24.4673H259.547C256.233 24.4673 253.547 27.1536 253.547 30.4673V47.5733C253.547 50.887 256.233 53.5733 259.547 53.5733H293C296.314 53.5733 299 50.887 299 47.5733V30.4673C299 27.1536 296.314 24.4673 293 24.4673Z" fill="#FBFBFB"/>
<path d="M293.001 24.7671H259.548C256.4 24.7671 253.848 27.3191 253.848 30.4671V47.5731C253.848 50.7211 256.4 53.2731 259.548 53.2731H293.001C296.149 53.2731 298.701 50.7211 298.701 47.5731V30.4671C298.701 27.3191 296.149 24.7671 293.001 24.7671Z" stroke="#BABABA" stroke-width="0.6"/>
</g>
<path d="M230.428 17.689L230.429 71.9138" stroke="#3F3F3F" stroke-width="0.68" stroke-linejoin="round" stroke-dasharray="1 3"/>
<path d="M208.142 38.8665C207.947 39.0618 207.947 39.3784 208.142 39.5736L211.324 42.7556C211.519 42.9509 211.836 42.9509 212.031 42.7556C212.226 42.5603 212.226 42.2438 212.031 42.0485L209.203 39.2201L212.031 36.3916C212.226 36.1964 212.226 35.8798 212.031 35.6845C211.836 35.4893 211.519 35.4893 211.324 35.6845L208.142 38.8665ZM253.151 38.7201H208.496V39.7201H253.151V38.7201Z" fill="#929292"/>
<path d="M283.258 24.8662V53.1748" stroke="#C9C9C9" stroke-width="0.4"/>
<path d="M275.99 13.6576C275.819 13.7869 275.708 13.9663 275.658 14.1957L274.976 17.3995C275.089 17.5914 275.203 17.7395 275.32 17.8437C275.441 17.948 275.591 18.0002 275.771 18.0002C276.359 18.0002 276.857 17.7645 277.266 17.2931C277.675 16.8175 277.961 16.1981 278.123 15.4347C278.253 14.8173 278.224 14.2979 278.036 13.8766C277.852 13.4553 277.562 13.2446 277.166 13.2446C276.749 13.2446 276.357 13.3823 275.99 13.6576ZM275.99 13.2572C276.499 12.8734 277.016 12.6815 277.542 12.6815C278.134 12.6815 278.609 12.9172 278.968 13.3886C279.331 13.8558 279.433 14.4606 279.275 15.2032C279.137 15.8498 278.868 16.4275 278.468 16.9364C278.067 17.4412 277.627 17.8166 277.147 18.0627C276.672 18.3089 276.209 18.4319 275.758 18.4319C275.258 18.4319 274.903 18.3276 274.694 18.1191C274.636 18.0607 274.582 18.0335 274.532 18.0377C274.486 18.0377 274.421 18.0753 274.338 18.1503C274.263 18.2213 274.14 18.3255 273.969 18.4632C273.843 18.4632 273.762 18.4111 273.725 18.3068C273.791 18.1483 273.873 17.8458 273.969 17.3995L275.295 11.1422C275.341 10.9336 275.368 10.7688 275.377 10.6479C275.389 10.5269 275.391 10.4289 275.383 10.3538C275.379 10.2745 275.345 10.2182 275.283 10.1848C275.22 10.1515 275.162 10.1306 275.107 10.1223C275.053 10.1139 274.957 10.1056 274.82 10.0972C274.803 10.0972 274.788 10.0972 274.776 10.0972C274.767 10.0972 274.755 10.0972 274.738 10.0972C274.726 10.0931 274.713 10.091 274.701 10.091C274.68 10.0659 274.667 10.0305 274.663 9.98462C274.659 9.93456 274.661 9.8845 274.669 9.83444C274.678 9.78438 274.688 9.74267 274.701 9.7093C274.83 9.70095 274.984 9.68427 275.164 9.65924C275.347 9.63004 275.527 9.60084 275.702 9.57164C275.877 9.53827 276.044 9.50281 276.202 9.46526C276.365 9.42772 276.488 9.39226 276.572 9.35889C276.63 9.35889 276.67 9.36932 276.691 9.39018C276.716 9.41103 276.722 9.44441 276.709 9.49029C276.601 9.83236 276.488 10.2808 276.371 10.8356L275.871 13.1946C275.858 13.253 275.863 13.2884 275.883 13.301C275.904 13.3093 275.94 13.2947 275.99 13.2572Z" fill="#A6A6A6"/>
<g filter="url(#filter3_d_983_4888)">
<path d="M414.318 24.4673H380.865C377.552 24.4673 374.865 27.1536 374.865 30.4673V47.5733C374.865 50.887 377.552 53.5733 380.865 53.5733H414.318C417.632 53.5733 420.318 50.887 420.318 47.5733V30.4673C420.318 27.1536 417.632 24.4673 414.318 24.4673Z" fill="#FBFBFB"/>
<path d="M414.319 24.7671H380.866C377.718 24.7671 375.166 27.3191 375.166 30.4671V47.5731C375.166 50.7211 377.718 53.2731 380.866 53.2731H414.319C417.467 53.2731 420.019 50.7211 420.019 47.5731V30.4671C420.019 27.3191 417.467 24.7671 414.319 24.7671Z" stroke="#BABABA" stroke-width="0.6"/>
</g>
<path d="M404.572 24.8662V53.1747" stroke="#C9C9C9" stroke-width="0.4"/>
<path d="M397.304 13.6577C397.133 13.787 397.023 13.9663 396.973 14.1958L396.291 17.3995C396.403 17.5914 396.518 17.7395 396.635 17.8438C396.756 17.9481 396.906 18.0002 397.085 18.0002C397.673 18.0002 398.172 17.7645 398.581 17.2931C398.989 16.8176 399.275 16.1981 399.438 15.4347C399.567 14.8173 399.538 14.298 399.35 13.8767C399.167 13.4553 398.877 13.2447 398.481 13.2447C398.063 13.2447 397.671 13.3823 397.304 13.6577ZM397.304 13.2572C397.813 12.8734 398.33 12.6815 398.856 12.6815C399.448 12.6815 399.924 12.9172 400.283 13.3886C400.646 13.8558 400.748 14.4607 400.589 15.2032C400.452 15.8498 400.183 16.4275 399.782 16.9365C399.382 17.4412 398.942 17.8167 398.462 18.0628C397.986 18.3089 397.523 18.432 397.073 18.432C396.572 18.432 396.218 18.3277 396.009 18.1191C395.951 18.0607 395.896 18.0336 395.846 18.0377C395.8 18.0377 395.736 18.0753 395.652 18.1504C395.577 18.2213 395.454 18.3256 395.283 18.4632C395.158 18.4632 395.077 18.4111 395.039 18.3068C395.106 18.1483 395.187 17.8459 395.283 17.3995L396.61 11.1422C396.656 10.9336 396.683 10.7689 396.691 10.6479C396.703 10.5269 396.706 10.4289 396.697 10.3538C396.693 10.2745 396.66 10.2182 396.597 10.1849C396.535 10.1515 396.476 10.1306 396.422 10.1223C396.368 10.1139 396.272 10.1056 396.134 10.0973C396.117 10.0973 396.103 10.0973 396.09 10.0973C396.082 10.0973 396.069 10.0973 396.053 10.0973C396.04 10.0931 396.028 10.091 396.015 10.091C395.994 10.066 395.982 10.0305 395.978 9.98462C395.973 9.93456 395.976 9.8845 395.984 9.83444C395.992 9.78439 396.003 9.74267 396.015 9.7093C396.145 9.70095 396.299 9.68427 396.478 9.65924C396.662 9.63004 396.841 9.60084 397.016 9.57164C397.192 9.53827 397.358 9.50281 397.517 9.46526C397.68 9.42772 397.803 9.39226 397.886 9.35889C397.945 9.35889 397.984 9.36932 398.005 9.39018C398.03 9.41103 398.036 9.44441 398.024 9.49029C397.915 9.83236 397.803 10.2808 397.686 10.8356L397.185 13.1946C397.173 13.253 397.177 13.2885 397.198 13.301C397.219 13.3093 397.254 13.2947 397.304 13.2572Z" fill="#A6A6A6"/>
<path d="M403.107 11.5921C403.107 11.7024 403.051 11.7575 402.938 11.7575C402.848 11.7575 402.783 11.7247 402.741 11.6592C402.699 11.5906 402.662 11.5251 402.629 11.4625L402.196 10.6178L401.901 11.1094L401.758 11.3687C401.725 11.4312 401.694 11.4953 401.664 11.5608C401.61 11.683 401.548 11.7441 401.476 11.7441C401.336 11.7441 401.266 11.6845 401.266 11.5653C401.266 11.4878 401.332 11.3582 401.463 11.1765L401.945 10.4792C401.764 10.4882 401.601 10.4941 401.458 10.4971C401.315 10.5001 401.215 10.5046 401.159 10.5105C401.063 10.5165 400.981 10.5195 400.913 10.5195C400.844 10.5195 400.789 10.5016 400.748 10.4658C400.709 10.4271 400.689 10.3794 400.689 10.3228C400.689 10.2632 400.713 10.217 400.761 10.1842C400.812 10.1515 400.864 10.1351 400.917 10.1351C401.007 10.1351 401.087 10.1381 401.159 10.144C401.251 10.1559 401.361 10.1649 401.489 10.1708L401.959 10.1932L401.489 9.44679C401.397 9.31271 401.351 9.2114 401.351 9.14287C401.351 9.01772 401.415 8.95515 401.543 8.95515C401.618 8.95515 401.688 9.02368 401.753 9.16075L402.2 10.0412L402.602 9.25461C402.656 9.13542 402.704 9.05497 402.745 9.01325C402.787 8.97154 402.832 8.95068 402.88 8.95068C402.99 8.95068 403.045 9.00283 403.045 9.10711C403.045 9.1816 402.987 9.31569 402.871 9.50937L402.446 10.1887L403.224 10.153C403.325 10.144 403.402 10.1395 403.456 10.1395C403.62 10.1395 403.702 10.2036 403.702 10.3317C403.702 10.4599 403.62 10.5239 403.456 10.5239C403.402 10.5239 403.343 10.5209 403.277 10.515C403.11 10.5001 402.832 10.4867 402.441 10.4748C402.778 11.0171 402.954 11.2971 402.969 11.315C402.984 11.3299 403.003 11.3538 403.027 11.3865C403.081 11.461 403.107 11.5296 403.107 11.5921Z" fill="#A6A6A6"/>
<path d="M318.483 12.8853C313.829 14.9796 309.454 17.5394 305.452 21.123C306.429 21.4953 307.453 21.3557 307.965 22.24C307.918 22.7985 307.546 23.0777 307.034 22.9381C304.707 22.3331 302.473 22.4727 300.332 23.6828C300.1 23.8224 299.774 23.8224 299.495 23.6828C299.215 23.357 299.308 23.0777 299.495 22.7519C300.612 20.7041 300.705 18.5633 300.239 16.3759C300.1 15.7708 300.146 15.3985 300.751 15.1193C301.635 15.957 301.682 16.0035 301.915 17.7721C303.264 16.7482 304.521 15.7243 305.871 14.7469C309.687 11.9079 313.876 9.67398 318.204 7.76581C323.835 5.25261 329.7 3.39097 335.75 2.04129C339.147 1.29664 342.545 0.78469 345.989 0.365822C350.038 -0.0995854 354.133 -0.0530446 358.136 0.133118C363.628 0.412363 368.98 1.57588 373.913 4.18217C380.15 7.48656 384.152 12.4664 385.362 19.5872C385.595 20.9834 385.548 22.3331 385.688 23.7293C385.316 23.8224 384.943 23.8224 384.525 23.7293C384.106 22.1004 384.292 20.4249 383.92 18.7494C383.082 14.8865 381.267 11.5822 378.474 8.88279C375.682 6.18342 372.284 4.41487 368.608 3.29789C363.767 1.80859 358.788 1.29664 353.761 1.15702C350.922 1.06393 348.13 1.52934 345.291 1.76205C341.986 1.99475 338.775 2.59978 335.564 3.34443C327.233 5.25261 319.228 8.09159 311.735 12.3733C308.477 14.235 305.359 16.3759 302.613 18.9356C301.822 19.6803 301.496 20.5645 301.496 21.728C302.52 21.5884 303.357 21.3557 304.102 20.7041C305.452 19.5872 306.755 18.4702 308.151 17.4463C314.248 13.0715 321.043 10.0463 328.164 7.76581C332.725 6.32304 337.332 5.15952 342.079 4.50795C345.011 4.08909 347.897 3.71676 350.829 3.57714C354.552 3.39097 358.229 3.57714 361.906 4.18217C366.234 4.88028 370.33 6.09034 374.053 8.46392C377.311 10.5583 379.731 13.3972 380.987 17.1205C381.686 19.2614 382.058 21.4953 382.104 23.7293C381.639 23.7293 381.174 23.7293 380.708 23.7293C380.894 18.8891 379.312 14.7469 375.821 11.396C373.401 9.06895 370.423 7.67273 367.258 6.69537C361.161 4.74066 354.832 4.55449 348.549 5.0199C340.916 5.57839 333.423 7.20732 326.209 9.8136C323.463 10.6513 320.903 11.5356 318.483 12.8853Z" fill="#3ECF8E"/>
<path d="M273.784 44.9289C273.511 44.9289 273.276 44.8776 273.079 44.7751C272.883 44.6683 272.721 44.5167 272.592 44.3202C272.464 44.1237 272.37 43.8823 272.31 43.5961C272.251 43.3099 272.221 42.9831 272.221 42.6158C272.221 42.2527 272.251 41.928 272.31 41.6418C272.37 41.3514 272.464 41.1079 272.592 40.9114C272.721 40.7149 272.883 40.5654 273.079 40.4629C273.276 40.3561 273.511 40.3027 273.784 40.3027C274.058 40.3027 274.292 40.3561 274.489 40.4629C274.685 40.5654 274.848 40.7149 274.976 40.9114C275.104 41.1079 275.198 41.3514 275.258 41.6418C275.318 41.928 275.348 42.2527 275.348 42.6158C275.348 42.9831 275.318 43.3099 275.258 43.5961C275.198 43.8823 275.104 44.1237 274.976 44.3202C274.848 44.5167 274.685 44.6683 274.489 44.7751C274.292 44.8776 274.058 44.9289 273.784 44.9289ZM273.784 44.4611C273.964 44.4611 274.117 44.427 274.245 44.3586C274.374 44.286 274.476 44.1856 274.553 44.0575C274.634 43.9293 274.694 43.7755 274.732 43.5961C274.771 43.4124 274.79 43.2074 274.79 42.981V42.2506C274.79 42.0284 274.771 41.8255 274.732 41.6418C274.694 41.4582 274.634 41.3022 274.553 41.1741C274.476 41.046 274.374 40.9477 274.245 40.8794C274.117 40.8067 273.964 40.7704 273.784 40.7704C273.605 40.7704 273.451 40.8067 273.323 40.8794C273.195 40.9477 273.09 41.046 273.009 41.1741C272.932 41.3022 272.874 41.4582 272.836 41.6418C272.797 41.8255 272.778 42.0284 272.778 42.2506V42.981C272.778 43.2074 272.797 43.4124 272.836 43.5961C272.874 43.7755 272.932 43.9293 273.009 44.0575C273.09 44.1856 273.195 44.286 273.323 44.3586C273.451 44.427 273.605 44.4611 273.784 44.4611ZM273.784 42.9938C273.635 42.9938 273.53 42.9639 273.47 42.9041C273.415 42.8443 273.387 42.7717 273.387 42.6863V42.5453C273.387 42.4599 273.415 42.3872 273.47 42.3274C273.53 42.2676 273.635 42.2377 273.784 42.2377C273.934 42.2377 274.036 42.2676 274.092 42.3274C274.152 42.3872 274.181 42.4599 274.181 42.5453V42.6863C274.181 42.7717 274.152 42.8443 274.092 42.9041C274.036 42.9639 273.934 42.9938 273.784 42.9938Z" fill="#3ECF8E" stroke="#3ECF8E" stroke-width="0.2"/>
<path d="M83.9567 34.1624L83.9569 34.1622C84.4743 33.49 85.0423 33.1688 85.661 33.1688C86.4988 33.1688 87.2053 33.5294 87.7851 34.2632C88.3639 34.996 88.6583 35.9773 88.6583 37.2174C88.6583 38.3293 88.4133 39.2208 87.9321 39.9002L87.9319 39.9005C87.4551 40.5794 86.8662 40.9093 86.1615 40.9093C85.3751 40.9093 84.6822 40.5538 84.08 39.8256C83.4846 39.1005 83.183 38.161 83.183 36.9983C83.183 35.7637 83.4453 34.8228 83.9567 34.1624ZM83.6623 40.8002C84.1276 41.0879 84.6382 41.275 85.1932 41.3621C84.8205 41.5528 84.4635 41.7824 84.1224 42.0506L84.1216 42.0513C83.6909 42.3976 83.3539 42.7444 83.1134 43.0924L83.0485 43.1862L83.15 43.2383L83.6506 43.4948L83.7449 43.543L83.7877 43.4462C83.8944 43.205 84.0336 43.0319 84.2022 42.9196L84.2022 42.9195C84.383 42.799 84.5258 42.7487 84.6348 42.7487C84.8812 42.7487 85.1491 42.8092 85.44 42.9344C85.7363 43.0621 86.0006 43.1994 86.2333 43.3464C86.4795 43.5019 86.7872 43.6424 87.1548 43.7693C87.5321 43.9021 87.9145 43.9688 88.3015 43.9688C89.0781 43.9688 89.7199 43.5975 90.2233 42.8747L90.2801 42.7932L90.1989 42.7359L89.9861 42.5857L89.9093 42.5314L89.8504 42.6048C89.5814 42.9402 89.2386 43.1056 88.8146 43.1056C88.4882 43.1056 87.945 42.9395 87.173 42.589C86.4125 42.2417 85.7734 42.06 85.2601 42.0544C85.7585 41.7219 86.2397 41.488 86.7039 41.3508C87.2349 41.2566 87.7147 41.0752 88.1421 40.806L88.1428 40.8056C88.571 40.5314 88.9329 40.1824 89.2282 39.7589C89.7556 39.0126 90.0159 38.082 90.0159 36.9733C90.0159 35.6629 89.6208 34.6112 88.8223 33.8297C88.03 33.0462 87.0279 32.6559 85.8236 32.6559C85.1868 32.6559 84.5971 32.7971 84.0565 33.0803L84.0562 33.0804C83.5209 33.3631 83.0693 33.7572 82.7018 34.2613L82.7018 34.2613C82.1198 35.0616 81.8316 36.049 81.8316 37.2174C81.8316 38.0074 81.9953 38.7162 82.325 39.3414L82.3252 39.3419C82.6582 39.9651 83.1037 40.4521 83.6621 40.8L83.6623 40.8002ZM82.4134 39.2948C82.0922 38.6857 81.9316 37.9933 81.9316 37.2174C81.9316 36.066 82.2153 35.1003 82.7826 34.3202C83.1414 33.828 83.5815 33.4442 84.1029 33.1689L82.4134 39.2948Z" fill="#3ECF8E" stroke="#3ECF8E" stroke-width="0.2"/>
<path d="M172.75 35.0776L172.75 35.0779C172.238 35.7383 171.976 36.6793 171.976 37.9139C171.976 39.0765 172.278 40.016 172.873 40.7412C173.475 41.4693 174.168 41.8248 174.955 41.8248C175.659 41.8248 176.247 41.495 176.725 40.8161L176.725 40.8158C177.206 40.1364 177.451 39.2449 177.451 38.1329C177.451 36.8928 177.156 35.9115 176.578 35.1789L172.75 35.0776ZM172.75 35.0776C173.266 34.4055 173.835 34.0843 174.454 34.0843M172.75 35.0776L174.454 34.0843M173.986 42.2776C173.431 42.1905 172.92 42.0034 172.455 41.7157L172.455 41.7155C171.897 41.3676 171.451 40.8806 171.117 40.2575L171.117 40.2569C170.788 39.6317 170.625 38.9229 170.625 38.1329C170.625 36.9646 170.912 35.9772 171.495 35.1769C171.861 34.6727 172.313 34.2786 172.849 33.9959L172.849 33.9958C173.39 33.7127 173.979 33.5714 174.617 33.5714C175.82 33.5714 176.822 33.9617 177.615 34.7452C178.413 35.5267 178.809 36.5784 178.809 37.8888C178.809 38.9976 178.548 39.9283 178.02 40.6745C177.725 41.0979 177.364 41.447 176.936 41.7211L176.935 41.7215C176.508 41.9908 176.027 42.1721 175.497 42.2663C175.033 42.4036 174.551 42.6375 174.052 42.97C174.566 42.9757 175.205 43.1573 175.965 43.5044C176.737 43.855 177.281 44.0211 177.608 44.0211C178.031 44.0211 178.374 43.8557 178.643 43.5205L178.701 43.4471L178.778 43.5012L178.991 43.6513L179.072 43.7086L179.016 43.7902C178.512 44.513 177.871 44.8844 177.095 44.8844C176.707 44.8844 176.325 44.8177 175.948 44.6848C175.58 44.558 175.272 44.4174 175.026 44.2619M173.986 42.2776L175.08 44.1774M173.986 42.2776C173.613 42.4684 173.256 42.6979 172.915 42.9662L172.914 42.9669C172.484 43.3131 172.146 43.66 171.906 44.008L171.842 44.1018L171.943 44.1538L172.443 44.4103L172.537 44.4585L172.58 44.3619C172.687 44.1206 172.826 43.9474 172.995 43.8351L172.995 43.835C173.175 43.7147 173.318 43.6642 173.428 43.6642C173.674 43.6642 173.942 43.7247 174.233 43.8501M173.986 42.2776L174.273 43.7582M175.026 44.2619L175.08 44.1774M175.026 44.2619C175.026 44.2619 175.026 44.2619 175.026 44.262L175.08 44.1774M175.026 44.2619C174.793 44.1149 174.529 43.9776 174.233 43.8501M175.08 44.1774C174.842 44.0272 174.573 43.8875 174.273 43.7582M174.233 43.8501L174.273 43.7582M174.233 43.8501C174.233 43.85 174.233 43.85 174.233 43.85L174.273 43.7582M174.454 34.0843C175.292 34.0843 175.998 34.4449 176.578 35.1788L174.454 34.0843ZM178.91 43.7659C178.899 43.7823 178.887 43.7984 178.875 43.8143L178.876 43.8148L178.91 43.7659Z" fill="#3ECF8E" stroke="#3ECF8E" stroke-width="0.2"/>
<path d="M264.283 35.993L264.283 35.9927C264.801 35.3205 265.368 34.9993 265.987 34.9993C266.825 34.9993 267.531 35.36 268.111 36.0938C268.69 36.8265 268.985 37.8079 268.985 39.0478C268.985 40.1599 268.739 41.0514 268.258 41.7308L268.258 41.7311C267.781 42.41 267.192 42.7398 266.488 42.7398C265.701 42.7398 265.008 42.3843 264.406 41.6562C263.811 40.9311 263.509 39.9915 263.509 38.8288C263.509 37.5943 263.771 36.6534 264.283 35.993ZM263.988 42.6308C264.454 42.9185 264.964 43.1056 265.52 43.1926C265.147 43.3834 264.789 43.613 264.448 43.8812L264.447 43.8819C264.017 44.2281 263.679 44.575 263.44 44.9229L263.375 45.0167L263.476 45.0687L263.976 45.3253L264.07 45.3736L264.113 45.2769C264.22 45.0356 264.359 44.8625 264.528 44.7502L264.528 44.7502C264.709 44.6295 264.852 44.5792 264.961 44.5792C265.207 44.5792 265.475 44.6398 265.766 44.765C266.062 44.8927 266.327 45.03 266.559 45.177C266.806 45.3324 267.113 45.473 267.481 45.5999C267.858 45.7327 268.24 45.7993 268.628 45.7993C269.404 45.7993 270.046 45.4281 270.549 44.7053L270.606 44.6239L270.525 44.5665L270.313 44.4163L270.236 44.3619L270.177 44.4353C269.908 44.7708 269.565 44.9361 269.141 44.9361C268.814 44.9361 268.271 44.7701 267.499 44.4196C266.738 44.0723 266.099 43.8906 265.587 43.885C266.085 43.5525 266.566 43.3186 267.03 43.1813C267.561 43.0872 268.041 42.9058 268.468 42.6365L268.469 42.6361C268.897 42.3621 269.259 42.013 269.554 41.5895C270.082 40.8431 270.342 39.9125 270.342 38.8038C270.342 37.4935 269.947 36.4417 269.148 35.6603C268.357 34.8767 267.353 34.4864 266.15 34.4864C265.512 34.4864 264.923 34.6277 264.382 34.9108L264.382 34.911C263.847 35.1937 263.396 35.5877 263.028 36.0918L263.028 36.0919C262.445 36.8922 262.158 37.8796 262.158 39.0478C262.158 39.8379 262.321 40.5467 262.651 41.1721L262.652 41.1724C262.984 41.7956 263.43 42.2827 263.988 42.6306L263.988 42.6308Z" fill="#3ECF8E" stroke="#3ECF8E" stroke-width="0.2"/>
<path d="M386.021 35.993L386.021 35.9927C386.539 35.3205 387.106 34.9993 387.725 34.9993C388.563 34.9993 389.269 35.36 389.85 36.0938C390.429 36.8265 390.723 37.8078 390.723 39.0478C390.723 40.1599 390.478 41.0514 389.997 41.7307L389.996 41.7311C389.52 42.41 388.931 42.7398 388.226 42.7398C387.439 42.7398 386.747 42.3844 386.144 41.6561C385.549 40.931 385.247 39.9915 385.247 38.8288C385.247 37.5943 385.51 36.6534 386.021 35.993ZM385.727 42.6308C386.192 42.9185 386.703 43.1056 387.258 43.1926C386.885 43.3834 386.528 43.613 386.187 43.8813L386.186 43.8819C385.755 44.2282 385.419 44.575 385.178 44.9228L385.113 45.0167L385.215 45.0687L385.715 45.3253L385.81 45.3737L385.853 45.2766C385.959 45.0355 386.098 44.8625 386.266 44.7502L386.267 44.7502C386.448 44.6296 386.591 44.5792 386.699 44.5792C386.946 44.5792 387.214 44.6398 387.504 44.7649C387.8 44.8926 388.065 45.03 388.298 45.177C388.544 45.3324 388.851 45.473 389.219 45.5999C389.596 45.7327 389.979 45.7993 390.366 45.7993C391.142 45.7993 391.785 45.4281 392.288 44.7053L392.345 44.6237L392.264 44.5664L392.051 44.4162L391.974 44.362L391.915 44.4353C391.646 44.7708 391.303 44.9361 390.879 44.9361C390.553 44.9361 390.01 44.7701 389.237 44.4195C388.477 44.0723 387.838 43.8906 387.325 43.885C387.823 43.5525 388.304 43.3186 388.768 43.1813C389.3 43.0872 389.779 42.9058 390.206 42.6365L390.207 42.6361C390.635 42.362 390.998 42.013 391.293 41.5895C391.82 40.8432 392.08 39.9125 392.08 38.8038C392.08 37.4935 391.685 36.4417 390.887 35.6603C390.095 34.8767 389.093 34.4864 387.888 34.4864C387.252 34.4864 386.662 34.6277 386.121 34.9108L386.12 34.911C385.585 35.1937 385.134 35.5877 384.766 36.0918L384.766 36.0919C384.185 36.8922 383.896 37.8796 383.896 39.0478C383.896 39.838 384.06 40.5468 384.39 41.1719L384.39 41.1724C384.722 41.7956 385.168 42.2827 385.726 42.6306L385.727 42.6308Z" fill="#3ECF8E" stroke="#3ECF8E" stroke-width="0.2"/>
<path d="M93.458 43.0984C93.1846 43.0984 92.9496 43.0472 92.7531 42.9446C92.5566 42.8378 92.3943 42.6862 92.2662 42.4897C92.138 42.2932 92.044 42.0519 91.9842 41.7657C91.9244 41.4795 91.8945 41.1527 91.8945 40.7853C91.8945 40.4222 91.9244 40.0976 91.9842 39.8114C92.044 39.5209 92.138 39.2774 92.2662 39.0809C92.3943 38.8844 92.5566 38.7349 92.7531 38.6324C92.9496 38.5256 93.1846 38.4722 93.458 38.4722C93.7313 38.4722 93.9663 38.5256 94.1628 38.6324C94.3593 38.7349 94.5216 38.8844 94.6497 39.0809C94.7779 39.2774 94.8719 39.5209 94.9317 39.8114C94.9915 40.0976 95.0214 40.4222 95.0214 40.7853C95.0214 41.1527 94.9915 41.4795 94.9317 41.7657C94.8719 42.0519 94.7779 42.2932 94.6497 42.4897C94.5216 42.6862 94.3593 42.8378 94.1628 42.9446C93.9663 43.0472 93.7313 43.0984 93.458 43.0984ZM93.458 42.6307C93.6374 42.6307 93.7911 42.5965 93.9193 42.5281C94.0474 42.4555 94.15 42.3551 94.2268 42.227C94.308 42.0988 94.3678 41.9451 94.4063 41.7657C94.4447 41.582 94.4639 41.3769 94.4639 41.1505V40.4201C94.4639 40.198 94.4447 39.9951 94.4063 39.8114C94.3678 39.6277 94.308 39.4718 94.2268 39.3436C94.15 39.2155 94.0474 39.1172 93.9193 39.0489C93.7911 38.9763 93.6374 38.94 93.458 38.94C93.2785 38.94 93.1248 38.9763 92.9966 39.0489C92.8685 39.1172 92.7638 39.2155 92.6826 39.3436C92.6058 39.4718 92.5481 39.6277 92.5096 39.8114C92.4712 39.9951 92.452 40.198 92.452 40.4201V41.1505C92.452 41.3769 92.4712 41.582 92.5096 41.7657C92.5481 41.9451 92.6058 42.0988 92.6826 42.227C92.7638 42.3551 92.8685 42.4555 92.9966 42.5281C93.1248 42.5965 93.2785 42.6307 93.458 42.6307ZM93.458 41.1634C93.3084 41.1634 93.2038 41.1335 93.144 41.0737C93.0885 41.0139 93.0607 40.9412 93.0607 40.8558V40.7148C93.0607 40.6294 93.0885 40.5568 93.144 40.497C93.2038 40.4372 93.3084 40.4073 93.458 40.4073C93.6075 40.4073 93.71 40.4372 93.7655 40.497C93.8253 40.5568 93.8552 40.6294 93.8552 40.7148V40.8558C93.8552 40.9412 93.8253 41.0139 93.7655 41.0737C93.71 41.1335 93.6075 41.1634 93.458 41.1634Z" fill="#3ECF8E" stroke="#3ECF8E" stroke-width="0.2"/>
<path d="M182.249 44.0139C181.976 44.0139 181.741 43.9627 181.544 43.8601C181.348 43.7534 181.185 43.6017 181.057 43.4052C180.929 43.2087 180.835 42.9674 180.775 42.6812C180.715 42.395 180.686 42.0682 180.686 41.7008C180.686 41.3377 180.715 41.0131 180.775 40.7269C180.835 40.4364 180.929 40.1929 181.057 39.9965C181.185 39.8 181.348 39.6504 181.544 39.5479C181.741 39.4411 181.976 39.3877 182.249 39.3877C182.522 39.3877 182.757 39.4411 182.954 39.5479C183.15 39.6504 183.313 39.8 183.441 39.9965C183.569 40.1929 183.663 40.4364 183.723 40.7269C183.783 41.0131 183.812 41.3377 183.812 41.7008C183.812 42.0682 183.783 42.395 183.723 42.6812C183.663 42.9674 183.569 43.2087 183.441 43.4052C183.313 43.6017 183.15 43.7534 182.954 43.8601C182.757 43.9627 182.522 44.0139 182.249 44.0139ZM182.249 43.5462C182.428 43.5462 182.582 43.512 182.71 43.4437C182.838 43.371 182.941 43.2707 183.018 43.1425C183.099 43.0144 183.159 42.8606 183.197 42.6812C183.236 42.4975 183.255 42.2925 183.255 42.0661V41.3356C183.255 41.1135 183.236 40.9106 183.197 40.7269C183.159 40.5432 183.099 40.3873 183.018 40.2592C182.941 40.131 182.838 40.0328 182.71 39.9644C182.582 39.8918 182.428 39.8555 182.249 39.8555C182.07 39.8555 181.916 39.8918 181.788 39.9644C181.66 40.0328 181.555 40.131 181.474 40.2592C181.397 40.3873 181.339 40.5432 181.301 40.7269C181.262 40.9106 181.243 41.1135 181.243 41.3356V42.0661C181.243 42.2925 181.262 42.4975 181.301 42.6812C181.339 42.8606 181.397 43.0144 181.474 43.1425C181.555 43.2707 181.66 43.371 181.788 43.4437C181.916 43.512 182.07 43.5462 182.249 43.5462ZM182.249 42.0789C182.099 42.0789 181.995 42.049 181.935 41.9892C181.879 41.9294 181.852 41.8567 181.852 41.7713V41.6304C181.852 41.5449 181.879 41.4723 181.935 41.4125C181.995 41.3527 182.099 41.3228 182.249 41.3228C182.398 41.3228 182.501 41.3527 182.557 41.4125C182.616 41.4723 182.646 41.5449 182.646 41.6304V41.7713C182.646 41.8567 182.616 41.9294 182.557 41.9892C182.501 42.049 182.398 42.0789 182.249 42.0789Z" fill="#3ECF8E" stroke="#3ECF8E" stroke-width="0.2"/>
<path d="M395.528 44.9289C395.255 44.9289 395.02 44.8776 394.823 44.7751C394.627 44.6683 394.465 44.5167 394.336 44.3202C394.208 44.1237 394.114 43.8823 394.055 43.5961C393.995 43.3099 393.965 42.9831 393.965 42.6158C393.965 42.2527 393.995 41.928 394.055 41.6418C394.114 41.3514 394.208 41.1079 394.336 40.9114C394.465 40.7149 394.627 40.5654 394.823 40.4629C395.02 40.3561 395.255 40.3027 395.528 40.3027C395.802 40.3027 396.037 40.3561 396.233 40.4629C396.43 40.5654 396.592 40.7149 396.72 40.9114C396.848 41.1079 396.942 41.3514 397.002 41.6418C397.062 41.928 397.092 42.2527 397.092 42.6158C397.092 42.9831 397.062 43.3099 397.002 43.5961C396.942 43.8823 396.848 44.1237 396.72 44.3202C396.592 44.5167 396.43 44.6683 396.233 44.7751C396.037 44.8776 395.802 44.9289 395.528 44.9289ZM395.528 44.4611C395.708 44.4611 395.861 44.427 395.99 44.3586C396.118 44.286 396.22 44.1856 396.297 44.0575C396.378 43.9293 396.438 43.7755 396.477 43.5961C396.515 43.4124 396.534 43.2074 396.534 42.981V42.2506C396.534 42.0284 396.515 41.8255 396.477 41.6418C396.438 41.4582 396.378 41.3022 396.297 41.1741C396.22 41.046 396.118 40.9477 395.99 40.8794C395.861 40.8067 395.708 40.7704 395.528 40.7704C395.349 40.7704 395.195 40.8067 395.067 40.8794C394.939 40.9477 394.834 41.046 394.753 41.1741C394.676 41.3022 394.618 41.4582 394.58 41.6418C394.542 41.8255 394.522 42.0284 394.522 42.2506V42.981C394.522 43.2074 394.542 43.4124 394.58 43.5961C394.618 43.7755 394.676 43.9293 394.753 44.0575C394.834 44.1856 394.939 44.286 395.067 44.3586C395.195 44.427 395.349 44.4611 395.528 44.4611ZM395.528 42.9938C395.379 42.9938 395.274 42.9639 395.214 42.9041C395.159 42.8443 395.131 42.7717 395.131 42.6863V42.5453C395.131 42.4599 395.159 42.3872 395.214 42.3274C395.274 42.2676 395.379 42.2377 395.528 42.2377C395.678 42.2377 395.78 42.2676 395.836 42.3274C395.896 42.3872 395.926 42.4599 395.926 42.5453V42.6863C395.926 42.7717 395.896 42.8443 395.836 42.9041C395.78 42.9639 395.678 42.9938 395.528 42.9938Z" fill="#3ECF8E" stroke="#3ECF8E" stroke-width="0.2"/>
<path d="M102.555 77.8871H103.038C103.038 77.5438 103.036 77.2649 103.032 77.0504C103.029 76.8323 103.023 76.6821 103.016 76.5999C103.009 76.5141 103.005 76.464 103.005 76.4497C103.005 76.414 103.02 76.3871 103.048 76.3693C103.08 76.3514 103.132 76.3317 103.204 76.3103C103.279 76.2852 103.334 76.2656 103.37 76.2513C103.413 76.237 103.463 76.2137 103.52 76.1815C103.581 76.1494 103.633 76.1225 103.676 76.1011C103.719 76.0761 103.753 76.0635 103.778 76.0635C103.828 76.0635 103.853 76.0975 103.853 76.1655C103.831 76.4443 103.817 76.8108 103.81 77.2649L103.799 77.8871H105.06C105.11 77.8871 105.136 77.9103 105.14 77.9568V78.0748C105.14 78.1642 105.054 78.2089 104.883 78.2089H103.799C103.742 79.5354 103.722 80.483 103.74 81.0515C103.754 81.409 103.783 81.6593 103.826 81.8024C103.872 81.9454 103.962 82.0169 104.094 82.0169C104.387 82.0169 104.698 81.8935 105.027 81.6468C105.085 81.6611 105.122 81.7112 105.14 81.797C104.729 82.2583 104.255 82.4889 103.719 82.4889C103.229 82.4889 102.984 82.142 102.984 81.4484C102.984 81.2589 102.993 80.7672 103.011 79.9735C103.029 79.1761 103.038 78.5879 103.038 78.2089H102.426C102.39 78.2089 102.371 78.1857 102.367 78.1392V78.0426C102.367 77.9389 102.43 77.8871 102.555 77.8871Z" fill="#3F3F3F"/>
<path d="M98.1576 79.3834C98.1576 80.2558 98.1648 80.8744 98.1791 81.2391C98.1934 81.6646 98.2327 81.9238 98.2971 82.0168C98.365 82.1062 98.5331 82.1616 98.8012 82.183C98.8298 82.2116 98.8441 82.2528 98.8441 82.3064C98.8477 82.3565 98.8334 82.3994 98.8012 82.4351C98.6689 82.4351 98.5062 82.4262 98.3132 82.4083C98.1201 82.3904 97.9502 82.3815 97.8036 82.3815C97.6427 82.3815 97.4443 82.3904 97.2083 82.4083C96.9759 82.4262 96.8007 82.4351 96.6827 82.4351C96.6005 82.3529 96.6005 82.2689 96.6827 82.183C96.9973 82.1616 97.194 82.1044 97.2727 82.0114C97.3549 81.9149 97.4032 81.6574 97.4175 81.2391C97.4318 80.9101 97.4389 80.0466 97.4389 78.6486C97.4389 77.2505 97.4318 76.3852 97.4175 76.0527C97.4032 75.6415 97.3621 75.4002 97.2941 75.3286C97.2298 75.2571 97.0474 75.2142 96.7471 75.1999C96.6827 75.1356 96.6612 75.0658 96.6827 74.9907C97.2977 74.9407 97.7661 74.8477 98.0879 74.7119C98.1773 74.7119 98.222 74.7458 98.222 74.8138C98.2005 75.3322 98.1862 75.6612 98.1791 75.8006L98.1415 78.6378C98.1415 78.7344 98.1791 78.7344 98.2542 78.6378C98.7655 78.0658 99.3662 77.7797 100.056 77.7797C100.453 77.7797 100.743 77.8995 100.925 78.1391C101.122 78.3965 101.206 78.8667 101.177 79.5496C101.156 80.1146 101.156 80.6777 101.177 81.2391C101.192 81.6574 101.236 81.9131 101.311 82.0061C101.39 82.0954 101.58 82.1544 101.88 82.183C101.951 82.2724 101.951 82.3565 101.88 82.4351C101.74 82.4351 101.563 82.4262 101.349 82.4083C101.138 82.3904 100.956 82.3815 100.802 82.3815C100.655 82.3815 100.476 82.3904 100.266 82.4083C100.058 82.4262 99.89 82.4351 99.7613 82.4351C99.6898 82.3529 99.6898 82.2689 99.7613 82.183C100.04 82.1544 100.214 82.0954 100.282 82.0061C100.35 81.9131 100.391 81.6574 100.405 81.2391C100.426 80.6598 100.426 80.0842 100.405 79.5121C100.384 78.9757 100.333 78.6325 100.255 78.4823C100.13 78.232 99.9418 78.1069 99.6916 78.1069C99.3411 78.1069 98.887 78.3858 98.3293 78.9436C98.2148 79.0616 98.1576 79.2082 98.1576 79.3834Z" fill="#3F3F3F"/>
<path d="M94.2138 80.4294C94.3997 80.2221 94.4927 79.8985 94.4927 79.4587C94.4927 79.0189 94.3997 78.672 94.2138 78.4182C94.0314 78.1607 93.7757 78.032 93.4468 78.032C93.1607 78.032 92.9426 78.1375 92.7925 78.3484C92.6423 78.5558 92.5672 78.8455 92.5672 79.2173C92.5672 80.2292 92.9051 80.7352 93.5809 80.7352C93.8169 80.7352 94.0278 80.6332 94.2138 80.4294ZM92.5028 82.489C92.2597 82.775 92.1381 83.1379 92.1381 83.5777C92.1381 83.9282 92.2651 84.2213 92.5189 84.4573C92.7728 84.6933 93.0785 84.8113 93.4361 84.8113C93.9259 84.8113 94.3782 84.6754 94.793 84.4037C95.2078 84.132 95.4152 83.8137 95.4152 83.449C95.4152 83.1487 95.2346 82.8948 94.8735 82.6874C94.6375 82.5623 94.2424 82.5015 93.6881 82.5051C93.6595 82.5051 93.5558 82.5104 93.3771 82.5212C93.1983 82.5319 93.0463 82.5372 92.9212 82.5372C92.7388 82.5337 92.5994 82.5176 92.5028 82.489ZM95.7638 78.327C95.6386 78.327 95.5439 78.2644 95.4795 78.1393C95.4223 78.0499 95.3526 78.007 95.2703 78.0106C95.206 78.0106 95.1273 78.0392 95.0344 78.0964C94.945 78.15 94.8806 78.2054 94.8413 78.2626C95.1345 78.563 95.2811 78.9259 95.2811 79.3514C95.2811 79.8413 95.1094 80.2364 94.7662 80.5367C94.4229 80.8371 94.0099 80.9872 93.5272 80.9872C93.1983 80.9872 92.8818 80.9032 92.5779 80.7352C92.4242 80.9604 92.3473 81.166 92.3473 81.3519C92.3473 81.5343 92.4224 81.6898 92.5726 81.8186C92.7227 81.9437 92.8818 82.0063 93.0499 82.0063C93.0571 82.0063 93.1643 81.9991 93.3717 81.9848C93.6506 81.9491 93.8848 81.9312 94.0743 81.9312C94.8145 81.9312 95.324 82.0492 95.6029 82.2852C95.9104 82.539 96.0641 82.834 96.0641 83.1701C96.0641 83.7136 95.7602 84.1677 95.1523 84.5324C94.5445 84.9007 93.8669 85.0849 93.1196 85.0849C92.6727 85.0849 92.2794 84.974 91.9397 84.7523C91.6036 84.5342 91.4355 84.2124 91.4355 83.7869C91.4355 83.5509 91.5142 83.3024 91.6715 83.0414C91.8288 82.784 92.0434 82.5748 92.3151 82.4139C91.9182 82.2744 91.7216 82.0045 91.7251 81.604C91.7251 81.225 91.9147 80.8728 92.2937 80.5474C91.9504 80.2185 91.7788 79.827 91.7788 79.3729C91.7788 78.9045 91.9504 78.5219 92.2937 78.2251C92.6369 77.9283 93.0517 77.7799 93.538 77.7799C93.9921 77.7799 94.3532 77.8783 94.6214 78.0749C94.7465 77.914 94.9146 77.7871 95.1255 77.6941C95.3401 77.5976 95.5242 77.5493 95.678 77.5493C95.8174 77.5493 95.9318 77.5868 96.0212 77.6619C96.1142 77.7334 96.1607 77.8246 96.1607 77.9355C96.1607 78.0392 96.1195 78.1303 96.0373 78.209C95.9586 78.2877 95.8675 78.327 95.7638 78.327Z" fill="#3F3F3F"/>
<path d="M89.1774 75.8005C89.1774 75.6682 89.24 75.5485 89.3652 75.4412C89.4903 75.3304 89.619 75.2749 89.7513 75.2749C89.8908 75.2749 90.0123 75.3357 90.116 75.4573C90.2233 75.5789 90.2769 75.7076 90.2769 75.8435C90.2769 75.9686 90.2179 76.0884 90.0999 76.2028C89.9855 76.3172 89.855 76.3744 89.7084 76.3744C89.5761 76.3744 89.4546 76.3136 89.3437 76.1921C89.2329 76.0705 89.1774 75.94 89.1774 75.8005ZM90.1214 81.1854C90.1286 81.6323 90.1768 81.9059 90.2662 82.006C90.3556 82.1025 90.5719 82.1615 90.9152 82.183C90.9438 82.2116 90.9581 82.2527 90.9581 82.3063C90.9581 82.3564 90.9438 82.3993 90.9152 82.435C90.7757 82.435 90.5844 82.4261 90.3413 82.4082C90.1017 82.3904 89.8979 82.3814 89.7299 82.3814C89.5618 82.3814 89.3526 82.3904 89.1024 82.4082C88.8521 82.4261 88.6608 82.435 88.5285 82.435C88.4462 82.3528 88.4462 82.2688 88.5285 82.183C88.8717 82.1544 89.0863 82.0918 89.1721 81.9952C89.2579 81.8951 89.308 81.6252 89.3223 81.1854C89.3366 80.6955 89.3437 80.2861 89.3437 79.9572C89.3437 79.7641 89.3366 79.4476 89.3223 79.0078C89.3151 78.6932 89.2704 78.4983 89.1882 78.4232C89.1095 78.3446 88.9164 78.2909 88.6089 78.2623C88.5803 78.1729 88.5732 78.1068 88.5875 78.0639C89.2239 77.9817 89.7102 77.8762 90.0463 77.7475C90.1429 77.7475 90.1911 77.7725 90.1911 77.8225C90.1875 77.8654 90.1822 77.9262 90.175 78.0049C90.1715 78.08 90.1643 78.2176 90.1536 78.4179C90.1429 78.6181 90.1321 78.7987 90.1214 78.9596C90.1142 79.1169 90.1089 79.2814 90.1053 79.453C90.1017 79.6211 90.0999 79.7927 90.0999 79.9679C90.0999 80.1502 90.1071 80.5561 90.1214 81.1854Z" fill="#3F3F3F"/>
<path d="M84.6701 79.539L86.794 79.48C86.8977 79.48 86.9477 79.4335 86.9441 79.3405C86.9441 78.9222 86.8476 78.6004 86.6545 78.3751C86.4614 78.1463 86.229 78.0319 85.9573 78.0319C85.6998 78.0319 85.4424 78.1517 85.185 78.3912C84.9311 78.6308 84.7595 79.0134 84.6701 79.539ZM87.5717 81.4054C87.6897 81.4126 87.763 81.4698 87.7916 81.5771C87.3303 82.1849 86.7189 82.4888 85.9573 82.4888C85.2243 82.4888 84.6719 82.2672 84.3 81.8238C83.971 81.4448 83.8066 80.9245 83.8066 80.263C83.8066 79.5157 84.03 78.915 84.477 78.4609C84.9239 78.0068 85.4174 77.7798 85.9573 77.7798C86.6223 77.7798 87.0925 77.9586 87.3678 78.3161C87.6432 78.6701 87.7808 79.1063 87.7808 79.6248C87.7808 79.7499 87.7147 79.8125 87.5824 79.8125L84.6379 79.8554C84.6379 80.4776 84.7487 80.9674 84.9704 81.325C85.1242 81.5753 85.3172 81.7648 85.5497 81.8935C85.7857 82.0222 86.0091 82.0866 86.2201 82.0866C86.499 82.0866 86.7385 82.0294 86.9388 81.915C87.1426 81.8005 87.3535 81.6307 87.5717 81.4054Z" fill="#3F3F3F"/>
<path d="M79.5365 79.3834C79.5365 80.2558 79.5437 80.8744 79.558 81.2391C79.5723 81.6646 79.6117 81.9238 79.6761 82.0168C79.744 82.1062 79.912 82.1616 80.1801 82.183C80.2087 82.2116 80.223 82.2528 80.223 82.3064C80.2266 82.3565 80.2123 82.3994 80.1801 82.4351C80.0478 82.4351 79.8853 82.4262 79.6922 82.4083C79.4991 82.3904 79.3292 82.3815 79.1826 82.3815C79.0217 82.3815 78.8233 82.3904 78.5873 82.4083C78.3549 82.4262 78.1797 82.4351 78.0617 82.4351C77.9795 82.3529 77.9795 82.2689 78.0617 82.183C78.3764 82.1616 78.573 82.1044 78.6517 82.0114C78.7339 81.9149 78.7822 81.6574 78.7965 81.2391C78.8108 80.9101 78.8179 80.0466 78.8179 78.6486C78.8179 77.2505 78.8108 76.3852 78.7965 76.0527C78.7822 75.6415 78.741 75.4002 78.673 75.3286C78.6087 75.2571 78.4263 75.2142 78.126 75.1999C78.0616 75.1356 78.0401 75.0658 78.0617 74.9907C78.6767 74.9407 79.145 74.8477 79.4668 74.7119C79.5562 74.7119 79.6009 74.7458 79.6009 74.8138C79.5794 75.3322 79.5651 75.6612 79.558 75.8006L79.5205 78.6378C79.5205 78.7344 79.5581 78.7344 79.6332 78.6378C80.1445 78.0658 80.7452 77.7797 81.4353 77.7797C81.8322 77.7797 82.1218 77.8995 82.3041 78.1391C82.5008 78.3965 82.5847 78.8667 82.5561 79.5496C82.5347 80.1146 82.5347 80.6777 82.5561 81.2391C82.5704 81.6574 82.6152 81.9131 82.6903 82.0061C82.769 82.0954 82.9584 82.1544 83.2587 82.183C83.3302 82.2724 83.3302 82.3565 83.2587 82.4351C83.1193 82.4351 82.9423 82.4262 82.7277 82.4083C82.5168 82.3904 82.3345 82.3815 82.1808 82.3815C82.0342 82.3815 81.8554 82.3904 81.6444 82.4083C81.4371 82.4262 81.2689 82.4351 81.1402 82.4351C81.0687 82.3529 81.0687 82.2689 81.1402 82.183C81.4191 82.1544 81.5926 82.0954 81.6605 82.0061C81.7285 81.9131 81.7695 81.6574 81.7838 81.2391C81.8052 80.6598 81.8052 80.0842 81.7838 79.5121C81.7623 78.9757 81.7123 78.6325 81.6336 78.4823C81.5085 78.232 81.3209 78.1069 81.0706 78.1069C80.7202 78.1069 80.266 78.3858 79.7082 78.9436C79.5937 79.0616 79.5365 79.2082 79.5365 79.3834Z" fill="#3F3F3F"/>
<path d="M185.846 78.8025H186.329C186.329 78.4593 186.327 78.1804 186.323 77.9658C186.32 77.7477 186.314 77.5975 186.307 77.5153C186.3 77.4295 186.296 77.3794 186.296 77.3651C186.296 77.3294 186.311 77.3026 186.339 77.2847C186.372 77.2668 186.423 77.2471 186.495 77.2257C186.57 77.2006 186.625 77.181 186.661 77.1667C186.704 77.1524 186.754 77.1291 186.811 77.097C186.872 77.0648 186.924 77.038 186.967 77.0165C187.01 76.9915 187.044 76.979 187.069 76.979C187.119 76.979 187.144 77.0129 187.144 77.0809C187.122 77.3598 187.108 77.7263 187.101 78.1804L187.09 78.8025H188.351C188.401 78.8025 188.427 78.8258 188.431 78.8722V78.9902C188.431 79.0796 188.345 79.1243 188.174 79.1243H187.09C187.033 80.4509 187.013 81.3984 187.031 81.9669C187.046 82.3245 187.074 82.5748 187.117 82.7178C187.164 82.8608 187.253 82.9323 187.385 82.9323C187.678 82.9323 187.989 82.809 188.318 82.5622C188.376 82.5765 188.413 82.6266 188.431 82.7124C188.02 83.1737 187.546 83.4043 187.01 83.4043C186.52 83.4043 186.275 83.0575 186.275 82.3638C186.275 82.1743 186.284 81.6826 186.302 80.8889C186.32 80.0915 186.329 79.5033 186.329 79.1243H185.717C185.681 79.1243 185.662 79.1011 185.658 79.0546V78.958C185.658 78.8544 185.721 78.8025 185.846 78.8025Z" fill="#3F3F3F"/>
<path d="M181.447 80.2985C181.447 81.1709 181.454 81.7895 181.468 82.1542C181.483 82.5797 181.522 82.839 181.586 82.9319C181.654 83.0213 181.822 83.0767 182.09 83.0982C182.119 83.1268 182.133 83.1679 182.133 83.2215C182.137 83.2716 182.123 83.3145 182.09 83.3503C181.958 83.3503 181.795 83.3413 181.602 83.3234C181.409 83.3056 181.239 83.2966 181.093 83.2966C180.932 83.2966 180.733 83.3056 180.497 83.3234C180.265 83.3413 180.09 83.3503 179.972 83.3503C179.89 83.268 179.89 83.184 179.972 83.0982C180.286 83.0767 180.483 83.0195 180.562 82.9266C180.644 82.83 180.692 82.5726 180.707 82.1542C180.721 81.8253 180.728 80.9618 180.728 79.5637C180.728 78.1657 180.721 77.3004 180.707 76.9678C180.692 76.5566 180.651 76.3153 180.583 76.2438C180.519 76.1723 180.337 76.1294 180.036 76.1151C179.972 76.0507 179.95 75.981 179.972 75.9059C180.587 75.8558 181.055 75.7629 181.377 75.627C181.466 75.627 181.511 75.661 181.511 75.7289C181.49 76.2474 181.475 76.5763 181.468 76.7158L181.431 79.553C181.431 79.6495 181.468 79.6495 181.543 79.553C182.055 78.9809 182.655 78.6949 183.345 78.6949C183.742 78.6949 184.032 78.8146 184.214 79.0542C184.411 79.3116 184.495 79.7818 184.466 80.4648C184.445 81.0297 184.445 81.5929 184.466 82.1542C184.481 82.5726 184.525 82.8282 184.6 82.9212C184.679 83.0106 184.869 83.0696 185.169 83.0982C185.24 83.1876 185.24 83.2716 185.169 83.3503C185.03 83.3503 184.853 83.3413 184.638 83.3234C184.427 83.3056 184.245 83.2966 184.091 83.2966C183.944 83.2966 183.766 83.3056 183.555 83.3234C183.347 83.3413 183.179 83.3503 183.05 83.3503C182.979 83.268 182.979 83.184 183.05 83.0982C183.329 83.0696 183.503 83.0106 183.571 82.9212C183.639 82.8282 183.68 82.5726 183.694 82.1542C183.715 81.575 183.715 80.9993 183.694 80.4272C183.673 79.8909 183.623 79.5476 183.544 79.3975C183.419 79.1472 183.231 79.022 182.981 79.022C182.63 79.022 182.176 79.3009 181.618 79.8587C181.504 79.9767 181.447 80.1233 181.447 80.2985Z" fill="#3F3F3F"/>
<path d="M177.507 81.3446C177.693 81.1372 177.786 80.8136 177.786 80.3738C177.786 79.934 177.693 79.5872 177.507 79.3333C177.324 79.0759 177.069 78.9472 176.74 78.9472C176.454 78.9472 176.236 79.0526 176.085 79.2636C175.935 79.471 175.86 79.7606 175.86 80.1325C175.86 81.1443 176.198 81.6503 176.874 81.6503C177.11 81.6503 177.321 81.5484 177.507 81.3446ZM175.796 83.4041C175.553 83.6902 175.431 84.0531 175.431 84.4929C175.431 84.8433 175.558 85.1365 175.812 85.3725C176.066 85.6085 176.372 85.7265 176.729 85.7265C177.219 85.7265 177.671 85.5906 178.086 85.3188C178.501 85.0471 178.708 84.7289 178.708 84.3642C178.708 84.0638 178.528 83.81 178.166 83.6026C177.93 83.4774 177.535 83.4166 176.981 83.4202C176.953 83.4202 176.849 83.4256 176.67 83.4363C176.491 83.447 176.339 83.4524 176.214 83.4524C176.032 83.4488 175.892 83.4327 175.796 83.4041ZM179.057 79.2421C178.932 79.2421 178.837 79.1796 178.773 79.0544C178.715 78.965 178.646 78.9221 178.563 78.9257C178.499 78.9257 178.42 78.9543 178.327 79.0115C178.238 79.0651 178.174 79.1206 178.134 79.1778C178.427 79.4781 178.574 79.841 178.574 80.2665C178.574 80.7564 178.402 81.1515 178.059 81.4519C177.716 81.7522 177.303 81.9024 176.82 81.9024C176.491 81.9024 176.175 81.8183 175.871 81.6503C175.717 81.8756 175.64 82.0812 175.64 82.2671C175.64 82.4494 175.715 82.605 175.866 82.7337C176.016 82.8588 176.175 82.9214 176.343 82.9214C176.35 82.9214 176.457 82.9143 176.665 82.9C176.944 82.8642 177.178 82.8463 177.367 82.8463C178.107 82.8463 178.617 82.9643 178.896 83.2003C179.203 83.4542 179.357 83.7492 179.357 84.0853C179.357 84.6288 179.053 85.0829 178.445 85.4476C177.838 85.8159 177.16 86 176.413 86C175.966 86 175.572 85.8892 175.233 85.6675C174.897 85.4494 174.729 85.1276 174.729 84.7021C174.729 84.4661 174.807 84.2176 174.965 83.9565C175.122 83.6991 175.336 83.4899 175.608 83.329C175.211 83.1896 175.015 82.9196 175.018 82.5192C175.018 82.1402 175.208 81.788 175.587 81.4626C175.243 81.1336 175.072 80.7421 175.072 80.288C175.072 79.8196 175.243 79.437 175.587 79.1402C175.93 78.8435 176.345 78.6951 176.831 78.6951C177.285 78.6951 177.646 78.7934 177.914 78.9901C178.04 78.8292 178.208 78.7022 178.419 78.6093C178.633 78.5127 178.817 78.4644 178.971 78.4644C179.11 78.4644 179.225 78.502 179.314 78.5771C179.407 78.6486 179.454 78.7398 179.454 78.8506C179.454 78.9543 179.413 79.0455 179.33 79.1241C179.252 79.2028 179.16 79.2421 179.057 79.2421Z" fill="#3F3F3F"/>
<path d="M172.466 76.7161C172.466 76.5838 172.529 76.464 172.654 76.3567C172.779 76.2459 172.908 76.1904 173.04 76.1904C173.18 76.1904 173.301 76.2512 173.405 76.3728C173.512 76.4944 173.566 76.6231 173.566 76.759C173.566 76.8841 173.507 77.0039 173.389 77.1183C173.275 77.2327 173.144 77.2899 172.997 77.2899C172.865 77.2899 172.744 77.2292 172.633 77.1076C172.522 76.986 172.466 76.8555 172.466 76.7161ZM173.41 82.1009C173.418 82.5478 173.466 82.8214 173.555 82.9215C173.645 83.018 173.861 83.077 174.204 83.0985C174.233 83.1271 174.247 83.1682 174.247 83.2218C174.247 83.2719 174.233 83.3148 174.204 83.3506C174.065 83.3506 173.873 83.3416 173.63 83.3237C173.391 83.3059 173.187 83.2969 173.019 83.2969C172.851 83.2969 172.642 83.3059 172.391 83.3237C172.141 83.3416 171.95 83.3506 171.818 83.3506C171.735 83.2683 171.735 83.1843 171.818 83.0985C172.161 83.0699 172.375 83.0073 172.461 82.9108C172.547 82.8106 172.597 82.5407 172.611 82.1009C172.626 81.611 172.633 81.2016 172.633 80.8727C172.633 80.6796 172.626 80.3632 172.611 79.9234C172.604 79.6087 172.559 79.4138 172.477 79.3388C172.399 79.2601 172.205 79.2065 171.898 79.1778C171.869 79.0885 171.862 79.0223 171.877 78.9794C172.513 78.8972 172.999 78.7917 173.335 78.663C173.432 78.663 173.48 78.688 173.48 78.7381C173.477 78.781 173.471 78.8417 173.464 78.9204C173.46 78.9955 173.453 79.1332 173.443 79.3334C173.432 79.5336 173.421 79.7142 173.41 79.8751C173.403 80.0324 173.398 80.1969 173.394 80.3685C173.391 80.5366 173.389 80.7082 173.389 80.8834C173.389 81.0658 173.396 81.4716 173.41 82.1009Z" fill="#3F3F3F"/>
<path d="M167.961 80.454L170.085 80.395C170.189 80.395 170.239 80.3485 170.235 80.2556C170.235 79.8372 170.139 79.5154 169.946 79.2902C169.753 79.0613 169.52 78.9469 169.248 78.9469C168.991 78.9469 168.734 79.0667 168.476 79.3063C168.222 79.5458 168.051 79.9284 167.961 80.454ZM170.863 82.3205C170.981 82.3276 171.054 82.3848 171.083 82.4921C170.621 83.1 170.01 83.4039 169.248 83.4039C168.515 83.4039 167.963 83.1822 167.591 82.7388C167.262 82.3598 167.098 81.8396 167.098 81.1781C167.098 80.4308 167.321 79.8301 167.768 79.376C168.215 78.9219 168.708 78.6948 169.248 78.6948C169.913 78.6948 170.384 78.8736 170.659 79.2312C170.934 79.5852 171.072 80.0214 171.072 80.5398C171.072 80.665 171.006 80.7276 170.874 80.7276L167.929 80.7705C167.929 81.3926 168.04 81.8825 168.262 82.24C168.415 82.4903 168.608 82.6798 168.841 82.8086C169.077 82.9373 169.3 83.0016 169.511 83.0016C169.79 83.0016 170.03 82.9444 170.23 82.83C170.434 82.7156 170.645 82.5457 170.863 82.3205Z" fill="#3F3F3F"/>
<path d="M162.826 80.2985C162.826 81.1709 162.833 81.7895 162.847 82.1542C162.861 82.5797 162.901 82.839 162.965 82.9319C163.033 83.0213 163.201 83.0767 163.469 83.0982C163.498 83.1268 163.512 83.1679 163.512 83.2215C163.516 83.2716 163.501 83.3145 163.469 83.3503C163.337 83.3503 163.174 83.3413 162.981 83.3234C162.788 83.3056 162.618 83.2966 162.472 83.2966C162.311 83.2966 162.112 83.3056 161.876 83.3234C161.644 83.3413 161.469 83.3503 161.351 83.3503C161.268 83.268 161.268 83.184 161.351 83.0982C161.665 83.0767 161.862 83.0195 161.941 82.9266C162.023 82.83 162.071 82.5726 162.086 82.1542C162.1 81.8253 162.107 80.9618 162.107 79.5637C162.107 78.1657 162.1 77.3004 162.086 76.9678C162.071 76.5566 162.03 76.3153 161.962 76.2438C161.898 76.1723 161.715 76.1294 161.415 76.1151C161.351 76.0507 161.329 75.981 161.351 75.9059C161.966 75.8558 162.434 75.7629 162.756 75.627C162.845 75.627 162.89 75.661 162.89 75.7289C162.869 76.2474 162.854 76.5763 162.847 76.7158L162.81 79.553C162.81 79.6495 162.847 79.6495 162.922 79.553C163.433 78.9809 164.034 78.6949 164.724 78.6949C165.121 78.6949 165.411 78.8146 165.593 79.0542C165.79 79.3116 165.874 79.7818 165.845 80.4648C165.824 81.0297 165.824 81.5929 165.845 82.1542C165.86 82.5726 165.904 82.8282 165.979 82.9212C166.058 83.0106 166.247 83.0696 166.548 83.0982C166.619 83.1876 166.619 83.2716 166.548 83.3503C166.408 83.3503 166.231 83.3413 166.017 83.3234C165.806 83.3056 165.624 83.2966 165.47 83.2966C165.323 83.2966 165.144 83.3056 164.933 83.3234C164.726 83.3413 164.558 83.3503 164.429 83.3503C164.358 83.268 164.358 83.184 164.429 83.0982C164.708 83.0696 164.882 83.0106 164.95 82.9212C165.017 82.8282 165.059 82.5726 165.073 82.1542C165.094 81.575 165.094 80.9993 165.073 80.4272C165.051 79.8909 165.001 79.5476 164.923 79.3975C164.798 79.1472 164.61 79.022 164.36 79.022C164.009 79.022 163.555 79.3009 162.997 79.8587C162.883 79.9767 162.826 80.1233 162.826 80.2985Z" fill="#3F3F3F"/>
<path d="M273.723 77.8871H274.206C274.206 77.5438 274.204 77.2649 274.2 77.0504C274.197 76.8323 274.191 76.6821 274.184 76.5999C274.177 76.5141 274.173 76.464 274.173 76.4497C274.173 76.414 274.188 76.3871 274.216 76.3693C274.248 76.3514 274.3 76.3317 274.372 76.3103C274.447 76.2852 274.502 76.2656 274.538 76.2513C274.581 76.237 274.631 76.2137 274.688 76.1815C274.749 76.1494 274.801 76.1225 274.844 76.1011C274.887 76.0761 274.921 76.0635 274.946 76.0635C274.996 76.0635 275.021 76.0975 275.021 76.1655C274.999 76.4443 274.985 76.8108 274.978 77.2649L274.967 77.8871H276.228C276.278 77.8871 276.304 77.9103 276.308 77.9568V78.0748C276.308 78.1642 276.222 78.2089 276.051 78.2089H274.967C274.91 79.5354 274.89 80.483 274.908 81.0515C274.922 81.409 274.951 81.6593 274.994 81.8024C275.04 81.9454 275.13 82.0169 275.262 82.0169C275.555 82.0169 275.866 81.8935 276.195 81.6468C276.253 81.6611 276.29 81.7112 276.308 81.797C275.897 82.2583 275.423 82.4889 274.887 82.4889C274.397 82.4889 274.152 82.142 274.152 81.4484C274.152 81.2589 274.161 80.7672 274.179 79.9735C274.197 79.1761 274.206 78.5879 274.206 78.2089H273.594C273.558 78.2089 273.539 78.1857 273.535 78.1392V78.0426C273.535 77.9389 273.598 77.8871 273.723 77.8871Z" fill="#3F3F3F"/>
<path d="M269.326 79.3834C269.326 80.2558 269.333 80.8744 269.347 81.2391C269.361 81.6646 269.401 81.9238 269.465 82.0168C269.533 82.1062 269.701 82.1616 269.969 82.183C269.998 82.2116 270.012 82.2528 270.012 82.3064C270.016 82.3565 270.001 82.3994 269.969 82.4351C269.837 82.4351 269.674 82.4262 269.481 82.4083C269.288 82.3904 269.118 82.3815 268.972 82.3815C268.811 82.3815 268.612 82.3904 268.376 82.4083C268.144 82.4262 267.969 82.4351 267.851 82.4351C267.769 82.3529 267.769 82.2689 267.851 82.183C268.165 82.1616 268.362 82.1044 268.441 82.0114C268.523 81.9149 268.571 81.6574 268.586 81.2391C268.6 80.9101 268.607 80.0466 268.607 78.6486C268.607 77.2505 268.6 76.3852 268.586 76.0527C268.571 75.6415 268.53 75.4002 268.462 75.3286C268.398 75.2571 268.215 75.2142 267.915 75.1999C267.851 75.1356 267.829 75.0658 267.851 74.9907C268.466 74.9407 268.934 74.8477 269.256 74.7119C269.345 74.7119 269.39 74.7458 269.39 74.8138C269.369 75.3322 269.354 75.6612 269.347 75.8006L269.31 78.6378C269.31 78.7344 269.347 78.7344 269.422 78.6378C269.934 78.0658 270.534 77.7797 271.224 77.7797C271.621 77.7797 271.911 77.8995 272.093 78.1391C272.29 78.3965 272.374 78.8667 272.345 79.5496C272.324 80.1146 272.324 80.6777 272.345 81.2391C272.36 81.6574 272.404 81.9131 272.479 82.0061C272.558 82.0954 272.748 82.1544 273.048 82.183C273.119 82.2724 273.119 82.3565 273.048 82.4351C272.908 82.4351 272.731 82.4262 272.517 82.4083C272.306 82.3904 272.124 82.3815 271.97 82.3815C271.823 82.3815 271.644 82.3904 271.434 82.4083C271.226 82.4262 271.058 82.4351 270.929 82.4351C270.858 82.3529 270.858 82.2689 270.929 82.183C271.208 82.1544 271.382 82.0954 271.45 82.0061C271.518 81.9131 271.559 81.6574 271.573 81.2391C271.594 80.6598 271.594 80.0842 271.573 79.5121C271.551 78.9757 271.501 78.6325 271.423 78.4823C271.298 78.232 271.11 78.1069 270.86 78.1069C270.509 78.1069 270.055 78.3858 269.497 78.9436C269.383 79.0616 269.326 79.2082 269.326 79.3834Z" fill="#3F3F3F"/>
<path d="M265.383 80.4294C265.569 80.2221 265.661 79.8985 265.661 79.4587C265.661 79.0189 265.569 78.672 265.383 78.4182C265.2 78.1607 264.945 78.032 264.616 78.032C264.33 78.032 264.112 78.1375 263.961 78.3484C263.811 78.5558 263.736 78.8455 263.736 79.2173C263.736 80.2292 264.074 80.7352 264.75 80.7352C264.986 80.7352 265.197 80.6332 265.383 80.4294ZM263.672 82.489C263.429 82.775 263.307 83.1379 263.307 83.5777C263.307 83.9282 263.433 84.2213 263.688 84.4573C263.942 84.6933 264.247 84.8113 264.605 84.8113C265.095 84.8113 265.547 84.6754 265.962 84.4037C266.377 84.132 266.584 83.8137 266.584 83.449C266.584 83.1487 266.404 82.8948 266.042 82.6874C265.806 82.5623 265.411 82.5015 264.857 82.5051C264.829 82.5051 264.725 82.5104 264.546 82.5212C264.367 82.5319 264.215 82.5372 264.09 82.5372C263.908 82.5337 263.768 82.5176 263.672 82.489ZM266.933 78.327C266.808 78.327 266.713 78.2644 266.648 78.1393C266.591 78.0499 266.522 78.007 266.439 78.0106C266.375 78.0106 266.296 78.0392 266.203 78.0964C266.114 78.15 266.05 78.2054 266.01 78.2626C266.303 78.563 266.45 78.9259 266.45 79.3514C266.45 79.8413 266.278 80.2364 265.935 80.5367C265.592 80.8371 265.179 80.9872 264.696 80.9872C264.367 80.9872 264.051 80.9032 263.747 80.7352C263.593 80.9604 263.516 81.166 263.516 81.3519C263.516 81.5343 263.591 81.6898 263.742 81.8186C263.892 81.9437 264.051 82.0063 264.219 82.0063C264.226 82.0063 264.332 81.9991 264.54 81.9848C264.819 81.9491 265.054 81.9312 265.243 81.9312C265.983 81.9312 266.493 82.0492 266.772 82.2852C267.079 82.539 267.233 82.834 267.233 83.1701C267.233 83.7136 266.929 84.1677 266.321 84.5324C265.713 84.9007 265.036 85.0849 264.289 85.0849C263.842 85.0849 263.448 84.974 263.109 84.7523C262.773 84.5342 262.604 84.2124 262.604 83.7869C262.604 83.5509 262.683 83.3024 262.84 83.0414C262.998 82.784 263.212 82.5748 263.484 82.4139C263.087 82.2744 262.891 82.0045 262.894 81.604C262.894 81.225 263.084 80.8728 263.463 80.5474C263.119 80.2185 262.948 79.827 262.948 79.3729C262.948 78.9045 263.119 78.5219 263.463 78.2251C263.806 77.9283 264.221 77.7799 264.707 77.7799C265.161 77.7799 265.522 77.8783 265.79 78.0749C265.915 77.914 266.084 77.7871 266.294 77.6941C266.509 77.5976 266.692 77.5493 266.846 77.5493C266.985 77.5493 267.101 77.5868 267.19 77.6619C267.283 77.7334 267.329 77.8246 267.329 77.9355C267.329 78.0392 267.289 78.1303 267.206 78.209C267.128 78.2877 267.036 78.327 266.933 78.327Z" fill="#3F3F3F"/>
<path d="M260.347 75.8005C260.347 75.6682 260.41 75.5484 260.535 75.4412C260.66 75.3303 260.789 75.2749 260.921 75.2749C261.061 75.2749 261.182 75.3357 261.286 75.4572C261.393 75.5788 261.447 75.7075 261.447 75.8434C261.447 75.9686 261.388 76.0883 261.27 76.2028C261.155 76.3172 261.025 76.3744 260.878 76.3744C260.746 76.3744 260.624 76.3136 260.514 76.192C260.403 76.0705 260.347 75.94 260.347 75.8005ZM261.291 81.1853C261.298 81.6323 261.347 81.9058 261.436 82.0059C261.526 82.1025 261.742 82.1615 262.085 82.1829C262.114 82.2115 262.128 82.2527 262.128 82.3063C262.128 82.3563 262.114 82.3993 262.085 82.435C261.946 82.435 261.754 82.4261 261.511 82.4082C261.272 82.3903 261.068 82.3814 260.9 82.3814C260.732 82.3814 260.523 82.3903 260.272 82.4082C260.022 82.4261 259.831 82.435 259.698 82.435C259.616 82.3528 259.616 82.2687 259.698 82.1829C260.042 82.1543 260.256 82.0918 260.342 81.9952C260.428 81.8951 260.478 81.6251 260.492 81.1853C260.506 80.6955 260.514 80.2861 260.514 79.9571C260.514 79.764 260.506 79.4476 260.492 79.0078C260.485 78.6932 260.44 78.4983 260.358 78.4232C260.279 78.3445 260.086 78.2909 259.779 78.2623C259.75 78.1729 259.743 78.1068 259.757 78.0639C260.394 77.9816 260.88 77.8761 261.216 77.7474C261.313 77.7474 261.361 77.7724 261.361 77.8225C261.357 77.8654 261.352 77.9262 261.345 78.0049C261.341 78.0799 261.334 78.2176 261.324 78.4178C261.313 78.6181 261.302 78.7986 261.291 78.9595C261.284 79.1169 261.279 79.2813 261.275 79.453C261.272 79.621 261.27 79.7926 261.27 79.9679C261.27 80.1502 261.277 80.556 261.291 81.1853Z" fill="#3F3F3F"/>
<path d="M255.838 79.5389L257.962 79.4799C258.066 79.4799 258.116 79.4335 258.112 79.3405C258.112 78.9222 258.016 78.6004 257.823 78.3751C257.63 78.1463 257.397 78.0318 257.125 78.0318C256.868 78.0318 256.61 78.1516 256.353 78.3912C256.099 78.6307 255.928 79.0133 255.838 79.5389ZM258.74 81.4054C258.858 81.4126 258.931 81.4698 258.96 81.577C258.498 82.1849 257.887 82.4888 257.125 82.4888C256.392 82.4888 255.84 82.2671 255.468 81.8237C255.139 81.4447 254.975 80.9245 254.975 80.263C254.975 79.5157 255.198 78.915 255.645 78.4609C256.092 78.0068 256.585 77.7798 257.125 77.7798C257.79 77.7798 258.261 77.9585 258.536 78.3161C258.811 78.6701 258.949 79.1063 258.949 79.6248C258.949 79.7499 258.883 79.8125 258.75 79.8125L255.806 79.8554C255.806 80.4775 255.917 80.9674 256.138 81.3249C256.292 81.5752 256.485 81.7647 256.718 81.8935C256.954 82.0222 257.177 82.0865 257.388 82.0865C257.667 82.0865 257.907 82.0293 258.107 81.9149C258.311 81.8005 258.522 81.6307 258.74 81.4054Z" fill="#3F3F3F"/>
<path d="M250.703 79.3834C250.703 80.2558 250.71 80.8744 250.724 81.2391C250.738 81.6646 250.778 81.9238 250.842 82.0168C250.91 82.1062 251.078 82.1616 251.346 82.1831C251.375 82.2117 251.389 82.2528 251.389 82.3064C251.393 82.3565 251.378 82.3994 251.346 82.4352C251.214 82.4352 251.051 82.4262 250.858 82.4083C250.665 82.3905 250.495 82.3815 250.349 82.3815C250.188 82.3815 249.989 82.3905 249.753 82.4083C249.521 82.4262 249.346 82.4352 249.228 82.4352C249.145 82.3529 249.145 82.2689 249.228 82.1831C249.542 82.1616 249.739 82.1044 249.818 82.0114C249.9 81.9149 249.948 81.6575 249.962 81.2391C249.977 80.9102 249.984 80.0467 249.984 78.6486C249.984 77.2506 249.977 76.3853 249.962 76.0527C249.948 75.6415 249.907 75.4002 249.839 75.3287C249.775 75.2572 249.592 75.2143 249.292 75.2C249.228 75.1356 249.206 75.0659 249.228 74.9908C249.843 74.9407 250.311 74.8478 250.633 74.7119C250.722 74.7119 250.767 74.7459 250.767 74.8138C250.746 75.3322 250.731 75.6612 250.724 75.8006L250.687 78.6379C250.687 78.7344 250.724 78.7344 250.799 78.6379C251.31 78.0658 251.911 77.7797 252.601 77.7797C252.998 77.7797 253.288 77.8995 253.47 78.1391C253.667 78.3965 253.751 78.8667 253.722 79.5497C253.701 80.1146 253.701 80.6778 253.722 81.2391C253.736 81.6575 253.781 81.9131 253.856 82.0061C253.935 82.0955 254.124 82.1545 254.425 82.1831C254.496 82.2725 254.496 82.3565 254.425 82.4352C254.285 82.4352 254.108 82.4262 253.894 82.4083C253.683 82.3905 253.5 82.3815 253.347 82.3815C253.2 82.3815 253.021 82.3905 252.81 82.4083C252.603 82.4262 252.435 82.4352 252.306 82.4352C252.235 82.3529 252.235 82.2689 252.306 82.1831C252.585 82.1545 252.759 82.0955 252.827 82.0061C252.894 81.9131 252.936 81.6575 252.95 81.2391C252.971 80.6599 252.971 80.0842 252.95 79.5121C252.928 78.9758 252.878 78.6325 252.8 78.4823C252.675 78.232 252.487 78.1069 252.237 78.1069C251.886 78.1069 251.432 78.3858 250.874 78.9436C250.76 79.0616 250.703 79.2082 250.703 79.3834Z" fill="#3F3F3F"/>
<path d="M403.701 77.887H404.184C404.184 77.5438 404.182 77.2649 404.179 77.0503C404.175 76.8322 404.17 76.6821 404.163 76.5998C404.155 76.514 404.152 76.4639 404.152 76.4496C404.152 76.4139 404.166 76.3871 404.195 76.3692C404.227 76.3513 404.279 76.3316 404.35 76.3102C404.425 76.2852 404.481 76.2655 404.517 76.2512C404.56 76.2369 404.61 76.2137 404.667 76.1815C404.728 76.1493 404.779 76.1225 404.822 76.101C404.865 76.076 404.899 76.0635 404.924 76.0635C404.974 76.0635 404.999 76.0974 404.999 76.1654C404.978 76.4443 404.964 76.8108 404.956 77.2649L404.946 77.887H406.206C406.256 77.887 406.283 77.9103 406.287 77.9568V78.0747C406.287 78.1641 406.201 78.2088 406.029 78.2088H404.946C404.888 79.5354 404.869 80.4829 404.887 81.0514C404.901 81.409 404.93 81.6593 404.973 81.8023C405.019 81.9453 405.108 82.0168 405.241 82.0168C405.534 82.0168 405.845 81.8935 406.174 81.6468C406.231 81.6611 406.269 81.7111 406.287 81.7969C405.875 82.2582 405.402 82.4888 404.865 82.4888C404.375 82.4888 404.13 82.142 404.13 81.4483C404.13 81.2588 404.139 80.7672 404.157 79.9734C404.175 79.176 404.184 78.5878 404.184 78.2088H403.573C403.537 78.2088 403.517 78.1856 403.514 78.1391V78.0426C403.514 77.9389 403.576 77.887 403.701 77.887Z" fill="#3F3F3F"/>
<path d="M399.3 79.3834C399.3 80.2558 399.307 80.8744 399.322 81.2391C399.336 81.6646 399.375 81.9238 399.44 82.0168C399.508 82.1062 399.676 82.1616 399.944 82.183C399.972 82.2116 399.987 82.2528 399.987 82.3064C399.99 82.3565 399.976 82.3994 399.944 82.4351C399.812 82.4351 399.649 82.4262 399.456 82.4083C399.263 82.3904 399.093 82.3815 398.946 82.3815C398.785 82.3815 398.587 82.3904 398.351 82.4083C398.119 82.4262 397.943 82.4351 397.825 82.4351C397.743 82.3529 397.743 82.2689 397.825 82.183C398.14 82.1616 398.337 82.1044 398.415 82.0114C398.498 81.9149 398.546 81.6574 398.56 81.2391C398.574 80.9101 398.582 80.0466 398.582 78.6486C398.582 77.2505 398.574 76.3852 398.56 76.0527C398.546 75.6415 398.505 75.4002 398.437 75.3286C398.372 75.2571 398.19 75.2142 397.89 75.1999C397.825 75.1356 397.804 75.0658 397.825 74.9907C398.44 74.9407 398.909 74.8477 399.231 74.7119C399.32 74.7119 399.365 74.7458 399.365 74.8138C399.343 75.3322 399.329 75.6612 399.322 75.8006L399.284 78.6378C399.284 78.7344 399.322 78.7344 399.397 78.6378C399.908 78.0658 400.509 77.7797 401.199 77.7797C401.596 77.7797 401.885 77.8995 402.068 78.1391C402.264 78.3965 402.348 78.8667 402.32 79.5496C402.298 80.1146 402.298 80.6777 402.32 81.2391C402.334 81.6574 402.379 81.9131 402.454 82.0061C402.533 82.0954 402.722 82.1544 403.022 82.183C403.094 82.2724 403.094 82.3565 403.022 82.4351C402.883 82.4351 402.706 82.4262 402.491 82.4083C402.281 82.3904 402.098 82.3815 401.944 82.3815C401.798 82.3815 401.619 82.3904 401.408 82.4083C401.201 82.4262 401.033 82.4351 400.904 82.4351C400.832 82.3529 400.832 82.2689 400.904 82.183C401.183 82.1544 401.356 82.0954 401.424 82.0061C401.492 81.9131 401.533 81.6574 401.548 81.2391C401.569 80.6598 401.569 80.0842 401.548 79.5121C401.526 78.9757 401.476 78.6325 401.397 78.4823C401.272 78.232 401.084 78.1069 400.834 78.1069C400.484 78.1069 400.03 78.3858 399.472 78.9436C399.357 79.0616 399.3 79.2082 399.3 79.3834Z" fill="#3F3F3F"/>
<path d="M395.36 80.4294C395.546 80.2221 395.639 79.8985 395.639 79.4587C395.639 79.0189 395.546 78.672 395.36 78.4182C395.178 78.1607 394.922 78.032 394.593 78.032C394.307 78.032 394.089 78.1375 393.939 78.3484C393.789 78.5558 393.714 78.8455 393.714 79.2173C393.714 80.2292 394.052 80.7352 394.727 80.7352C394.963 80.7352 395.174 80.6332 395.36 80.4294ZM393.649 82.489C393.406 82.775 393.285 83.1379 393.285 83.5777C393.285 83.9282 393.412 84.2213 393.665 84.4573C393.919 84.6933 394.225 84.8113 394.583 84.8113C395.072 84.8113 395.525 84.6754 395.94 84.4037C396.354 84.132 396.562 83.8137 396.562 83.449C396.562 83.1487 396.381 82.8948 396.02 82.6874C395.784 82.5623 395.389 82.5015 394.835 82.5051C394.806 82.5051 394.702 82.5104 394.524 82.5212C394.345 82.5319 394.193 82.5372 394.068 82.5372C393.885 82.5337 393.746 82.5176 393.649 82.489ZM396.91 78.327C396.785 78.327 396.69 78.2644 396.626 78.1393C396.569 78.0499 396.499 78.007 396.417 78.0106C396.352 78.0106 396.274 78.0392 396.181 78.0964C396.091 78.15 396.027 78.2054 395.988 78.2626C396.281 78.563 396.428 78.9259 396.428 79.3514C396.428 79.8413 396.256 80.2364 395.913 80.5367C395.569 80.8371 395.156 80.9872 394.674 80.9872C394.345 80.9872 394.028 80.9032 393.724 80.7352C393.571 80.9604 393.494 81.166 393.494 81.3519C393.494 81.5343 393.569 81.6898 393.719 81.8186C393.869 81.9437 394.028 82.0063 394.196 82.0063C394.204 82.0063 394.311 81.9991 394.518 81.9848C394.797 81.9491 395.031 81.9312 395.221 81.9312C395.961 81.9312 396.47 82.0492 396.749 82.2852C397.057 82.539 397.211 82.834 397.211 83.1701C397.211 83.7136 396.907 84.1677 396.299 84.5324C395.691 84.9007 395.013 85.0849 394.266 85.0849C393.819 85.0849 393.426 84.974 393.086 84.7523C392.75 84.5342 392.582 84.2124 392.582 83.7869C392.582 83.5509 392.661 83.3024 392.818 83.0414C392.975 82.784 393.19 82.5748 393.462 82.4139C393.065 82.2744 392.868 82.0045 392.872 81.604C392.872 81.225 393.061 80.8728 393.44 80.5474C393.097 80.2185 392.925 79.827 392.925 79.3729C392.925 78.9045 393.097 78.5219 393.44 78.2251C393.783 77.9283 394.198 77.7799 394.684 77.7799C395.139 77.7799 395.5 77.8783 395.768 78.0749C395.893 77.914 396.061 77.7871 396.272 77.6941C396.487 77.5976 396.671 77.5493 396.824 77.5493C396.964 77.5493 397.078 77.5868 397.168 77.6619C397.261 77.7334 397.307 77.8246 397.307 77.9355C397.307 78.0392 397.266 78.1303 397.184 78.209C397.105 78.2877 397.014 78.327 396.91 78.327Z" fill="#3F3F3F"/>
<path d="M390.322 75.8005C390.322 75.6682 390.385 75.5485 390.51 75.4412C390.635 75.3304 390.764 75.2749 390.896 75.2749C391.035 75.2749 391.157 75.3357 391.261 75.4573C391.368 75.5789 391.421 75.7076 391.421 75.8435C391.421 75.9686 391.362 76.0884 391.245 76.2028C391.13 76.3172 391 76.3744 390.853 76.3744C390.721 76.3744 390.599 76.3136 390.488 76.1921C390.377 76.0705 390.322 75.94 390.322 75.8005ZM391.266 81.1854C391.273 81.6323 391.321 81.9059 391.411 82.006C391.5 82.1025 391.716 82.1615 392.06 82.183C392.088 82.2116 392.103 82.2527 392.103 82.3063C392.103 82.3564 392.088 82.3993 392.06 82.435C391.92 82.435 391.729 82.4261 391.486 82.4082C391.246 82.3904 391.042 82.3814 390.874 82.3814C390.706 82.3814 390.497 82.3904 390.247 82.4082C389.997 82.4261 389.805 82.435 389.673 82.435C389.591 82.3528 389.591 82.2688 389.673 82.183C390.016 82.1544 390.231 82.0918 390.317 81.9952C390.402 81.8951 390.453 81.6252 390.467 81.1854C390.481 80.6955 390.488 80.2861 390.488 79.9572C390.488 79.7641 390.481 79.4476 390.467 79.0078C390.46 78.6932 390.415 78.4983 390.333 78.4232C390.254 78.3446 390.061 78.2909 389.753 78.2623C389.725 78.1729 389.718 78.1068 389.732 78.0639C390.368 77.9817 390.855 77.8762 391.191 77.7475C391.287 77.7475 391.336 77.7725 391.336 77.8225C391.332 77.8654 391.327 77.9262 391.32 78.0049C391.316 78.08 391.309 78.2176 391.298 78.4179C391.287 78.6181 391.277 78.7987 391.266 78.9596C391.259 79.1169 391.253 79.2814 391.25 79.453C391.246 79.6211 391.245 79.7927 391.245 79.9679C391.245 80.1502 391.252 80.5561 391.266 81.1854Z" fill="#3F3F3F"/>
<path d="M385.813 79.539L387.937 79.48C388.04 79.48 388.09 79.4335 388.087 79.3405C388.087 78.9222 387.99 78.6004 387.797 78.3751C387.604 78.1463 387.372 78.0319 387.1 78.0319C386.842 78.0319 386.585 78.1517 386.328 78.3912C386.074 78.6308 385.902 79.0134 385.813 79.539ZM388.714 81.4054C388.832 81.4126 388.906 81.4698 388.934 81.5771C388.473 82.1849 387.862 82.4888 387.1 82.4888C386.367 82.4888 385.814 82.2672 385.443 81.8238C385.114 81.4448 384.949 80.9245 384.949 80.263C384.949 79.5157 385.173 78.915 385.62 78.4609C386.067 78.0068 386.56 77.7798 387.1 77.7798C387.765 77.7798 388.235 77.9586 388.51 78.3161C388.786 78.6701 388.923 79.1063 388.923 79.6248C388.923 79.7499 388.857 79.8125 388.725 79.8125L385.781 79.8554C385.781 80.4776 385.891 80.9674 386.113 81.325C386.267 81.5753 386.46 81.7648 386.692 81.8935C386.928 82.0222 387.152 82.0866 387.363 82.0866C387.642 82.0866 387.881 82.0294 388.081 81.915C388.285 81.8005 388.496 81.6307 388.714 81.4054Z" fill="#3F3F3F"/>
<path d="M380.679 79.3834C380.679 80.2558 380.686 80.8744 380.701 81.2391C380.715 81.6646 380.754 81.9238 380.819 82.0168C380.887 82.1062 381.055 82.1616 381.323 82.1831C381.351 82.2117 381.366 82.2528 381.366 82.3064C381.369 82.3565 381.355 82.3994 381.323 82.4352C381.19 82.4352 381.028 82.4262 380.835 82.4083C380.642 82.3905 380.472 82.3815 380.325 82.3815C380.164 82.3815 379.966 82.3905 379.73 82.4083C379.497 82.4262 379.322 82.4352 379.204 82.4352C379.122 82.3529 379.122 82.2689 379.204 82.1831C379.519 82.1616 379.716 82.1044 379.794 82.0114C379.876 81.9149 379.925 81.6575 379.939 81.2391C379.953 80.9102 379.96 80.0467 379.96 78.6486C379.96 77.2506 379.953 76.3853 379.939 76.0527C379.925 75.6415 379.884 75.4002 379.816 75.3287C379.751 75.2572 379.569 75.2143 379.269 75.2C379.204 75.1356 379.183 75.0659 379.204 74.9908C379.819 74.9407 380.288 74.8478 380.609 74.7119C380.699 74.7119 380.744 74.7459 380.744 74.8138C380.722 75.3322 380.708 75.6612 380.701 75.8006L380.663 78.6379C380.663 78.7344 380.701 78.7344 380.776 78.6379C381.287 78.0658 381.888 77.7797 382.578 77.7797C382.975 77.7797 383.264 77.8995 383.447 78.1391C383.643 78.3965 383.727 78.8667 383.699 79.5497C383.677 80.1146 383.677 80.6778 383.699 81.2391C383.713 81.6575 383.758 81.9131 383.833 82.0061C383.911 82.0955 384.101 82.1545 384.401 82.1831C384.473 82.2725 384.473 82.3565 384.401 82.4352C384.262 82.4352 384.085 82.4262 383.87 82.4083C383.659 82.3905 383.477 82.3815 383.323 82.3815C383.177 82.3815 382.998 82.3905 382.787 82.4083C382.58 82.4262 382.412 82.4352 382.283 82.4352C382.211 82.3529 382.211 82.2689 382.283 82.1831C382.562 82.1545 382.735 82.0955 382.803 82.0061C382.871 81.9131 382.912 81.6575 382.926 81.2391C382.948 80.6599 382.948 80.0842 382.926 79.5121C382.905 78.9758 382.855 78.6325 382.776 78.4823C382.651 78.232 382.463 78.1069 382.213 78.1069C381.863 78.1069 381.409 78.3858 380.851 78.9436C380.736 79.0616 380.679 79.2082 380.679 79.3834Z" fill="#3F3F3F"/>
</g>
<defs>
<filter id="filter0_d_983_4888" x="71.7383" y="24.4673" width="49.4531" height="33.106" filterUnits="userSpaceOnUse" color-interpolation-filters="sRGB">
<feFlood flood-opacity="0" result="BackgroundImageFix"/>
<feColorMatrix in="SourceAlpha" type="matrix" values="0 0 0 0 0 0 0 0 0 0 0 0 0 0 0 0 0 0 127 0" result="hardAlpha"/>
<feOffset dx="3" dy="3"/>
<feGaussianBlur stdDeviation="0.5"/>
<feComposite in2="hardAlpha" operator="out"/>
<feColorMatrix type="matrix" values="0 0 0 0 0 0 0 0 0 0 0 0 0 0 0 0 0 0 0.2 0"/>
<feBlend mode="normal" in2="BackgroundImageFix" result="effect1_dropShadow_983_4888"/>
<feBlend mode="normal" in="SourceGraphic" in2="effect1_dropShadow_983_4888" result="shape"/>
</filter>
<filter id="filter1_d_983_4888" x="162.252" y="24.8662" width="49.4531" height="33.106" filterUnits="userSpaceOnUse" color-interpolation-filters="sRGB">
<feFlood flood-opacity="0" result="BackgroundImageFix"/>
<feColorMatrix in="SourceAlpha" type="matrix" values="0 0 0 0 0 0 0 0 0 0 0 0 0 0 0 0 0 0 127 0" result="hardAlpha"/>
<feOffset dx="3" dy="3"/>
<feGaussianBlur stdDeviation="0.5"/>
<feComposite in2="hardAlpha" operator="out"/>
<feColorMatrix type="matrix" values="0 0 0 0 0 0 0 0 0 0 0 0 0 0 0 0 0 0 0.2 0"/>
<feBlend mode="normal" in2="BackgroundImageFix" result="effect1_dropShadow_983_4888"/>
<feBlend mode="normal" in="SourceGraphic" in2="effect1_dropShadow_983_4888" result="shape"/>
</filter>
<filter id="filter2_d_983_4888" x="253.547" y="24.4673" width="49.4531" height="33.106" filterUnits="userSpaceOnUse" color-interpolation-filters="sRGB">
<feFlood flood-opacity="0" result="BackgroundImageFix"/>
<feColorMatrix in="SourceAlpha" type="matrix" values="0 0 0 0 0 0 0 0 0 0 0 0 0 0 0 0 0 0 127 0" result="hardAlpha"/>
<feOffset dx="3" dy="3"/>
<feGaussianBlur stdDeviation="0.5"/>
<feComposite in2="hardAlpha" operator="out"/>
<feColorMatrix type="matrix" values="0 0 0 0 0 0 0 0 0 0 0 0 0 0 0 0 0 0 0.2 0"/>
<feBlend mode="normal" in2="BackgroundImageFix" result="effect1_dropShadow_983_4888"/>
<feBlend mode="normal" in="SourceGraphic" in2="effect1_dropShadow_983_4888" result="shape"/>
</filter>
<filter id="filter3_d_983_4888" x="374.865" y="24.4673" width="49.4531" height="33.106" filterUnits="userSpaceOnUse" color-interpolation-filters="sRGB">
<feFlood flood-opacity="0" result="BackgroundImageFix"/>
<feColorMatrix in="SourceAlpha" type="matrix" values="0 0 0 0 0 0 0 0 0 0 0 0 0 0 0 0 0 0 127 0" result="hardAlpha"/>
<feOffset dx="3" dy="3"/>
<feGaussianBlur stdDeviation="0.5"/>
<feComposite in2="hardAlpha" operator="out"/>
<feColorMatrix type="matrix" values="0 0 0 0 0 0 0 0 0 0 0 0 0 0 0 0 0 0 0.2 0"/>
<feBlend mode="normal" in2="BackgroundImageFix" result="effect1_dropShadow_983_4888"/>
<feBlend mode="normal" in="SourceGraphic" in2="effect1_dropShadow_983_4888" result="shape"/>
</filter>
<clipPath id="clip0_983_4888">
<rect width="425" height="86" fill="white"/>
</clipPath>
</defs>
</svg>
