<svg width="425" height="86" viewBox="0 0 425 86" fill="none" xmlns="http://www.w3.org/2000/svg">
<path d="M3.6582 38.9024C3.6582 38.6496 3.86311 38.4447 4.11588 38.4447H4.202C4.45477 38.4447 4.65967 38.6496 4.65967 38.9024C4.65967 39.1552 4.45477 39.3601 4.202 39.3601H4.11588C3.86311 39.3601 3.6582 39.1552 3.6582 38.9024Z" fill="#929292"/>
<path d="M7.32422 38.9024C7.32422 38.6496 7.52913 38.4447 7.78189 38.4447H7.86802C8.12078 38.4447 8.32569 38.6496 8.32569 38.9024C8.32569 39.1552 8.12078 39.3601 7.86802 39.3601H7.78189C7.52913 39.3601 7.32422 39.1552 7.32422 38.9024Z" fill="#929292"/>
<path d="M0 38.9024C0 38.6496 0.204908 38.4447 0.457675 38.4447H0.543797C0.796564 38.4447 1.00147 38.6496 1.00147 38.9024C1.00147 39.1552 0.796564 39.3601 0.543797 39.3601H0.457675C0.204908 39.3601 0 39.1552 0 38.9024Z" fill="#929292"/>
<path d="M416.593 74.4664C416.562 74.4126 416.503 74.3604 416.416 74.31C416.323 74.2488 416.239 74.2399 416.164 74.2836C416.024 74.3646 415.957 74.4606 415.964 74.5717C415.954 74.6782 415.903 75.9653 415.903 75.9653C415.903 75.9653 415.959 76.5508 415.777 76.8573C415.716 76.9502 415.709 77.012 415.755 77.0426C415.802 77.0732 415.851 77.0591 415.903 77.0001C415.981 76.9118 416.081 76.7608 416.202 76.5472C416.277 76.4132 416.402 75.3104 416.492 75.043C416.521 74.7959 416.68 74.6172 416.593 74.4664Z" fill="#A6A6A6"/>
<path d="M110.156 81.0407L111.175 76.2405C111.214 76.0617 111.237 75.9205 111.244 75.8168C111.255 75.7131 111.259 75.6291 111.255 75.5647C111.252 75.4968 111.223 75.4485 111.169 75.4199C111.116 75.3913 111.064 75.3734 111.014 75.3662C110.967 75.3591 110.885 75.3519 110.767 75.3448C110.753 75.3448 110.74 75.3448 110.73 75.3448C110.722 75.3448 110.712 75.3448 110.697 75.3448C110.687 75.3412 110.676 75.3394 110.665 75.3394C110.647 75.318 110.637 75.2876 110.633 75.2483C110.629 75.2053 110.631 75.1624 110.638 75.1195C110.646 75.0766 110.656 75.0409 110.671 75.0123C110.817 75.0015 110.996 74.9801 111.207 74.9479C111.421 74.9121 111.629 74.8728 111.829 74.8299C112.029 74.787 112.176 74.7477 112.269 74.7119C112.319 74.7119 112.353 74.7209 112.371 74.7387C112.392 74.7566 112.399 74.7852 112.392 74.8245C112.299 75.1177 112.203 75.5021 112.103 75.9777L111.287 79.8071C111.53 79.7749 111.804 79.6623 112.108 79.4692C112.415 79.2726 112.771 78.9722 113.175 78.5682C113.222 78.5217 113.261 78.4752 113.293 78.4287C113.329 78.3823 113.359 78.3268 113.384 78.2625C113.409 78.1945 113.393 78.1391 113.336 78.0962C113.283 78.0497 113.184 78.0211 113.041 78.0104C113.016 77.9782 113.013 77.9192 113.03 77.8334C113.048 77.744 113.079 77.6814 113.122 77.6457C113.662 77.66 114.017 77.6671 114.189 77.6671C114.285 77.6671 114.606 77.66 115.149 77.6457C115.174 77.6779 115.178 77.7386 115.16 77.828C115.142 77.9174 115.113 77.9782 115.074 78.0104C114.548 78.0605 114.13 78.2214 113.819 78.4931L112.639 79.4907C112.603 79.5193 112.58 79.5568 112.569 79.6033C112.562 79.6426 112.578 79.6945 112.617 79.7589L113.679 81.577C113.776 81.7451 113.885 81.8577 114.007 81.9149C114.132 81.9721 114.305 82.0151 114.527 82.0437C114.552 82.0758 114.554 82.1366 114.532 82.226C114.514 82.3118 114.486 82.3708 114.446 82.403C114.01 82.3887 113.712 82.3815 113.551 82.3815C113.39 82.3815 113.161 82.3887 112.864 82.403C112.846 82.403 112.836 82.3851 112.832 82.3494C112.825 82.1956 112.727 81.9382 112.537 81.577L111.963 80.5044C111.877 80.347 111.786 80.2273 111.69 80.145C111.6 80.1128 111.446 80.0932 111.228 80.086L111.025 81.0407C110.985 81.2266 110.958 81.3768 110.944 81.4912C110.933 81.6056 110.93 81.7004 110.933 81.7755C110.941 81.847 110.967 81.9006 111.014 81.9364C111.06 81.9686 111.107 81.9918 111.153 82.0061C111.203 82.0204 111.28 82.0329 111.384 82.0437C111.409 82.0758 111.413 82.1366 111.395 82.226C111.377 82.3118 111.348 82.3708 111.309 82.403C110.683 82.3887 110.351 82.3815 110.311 82.3815C110.143 82.3815 109.75 82.3887 109.131 82.403C109.106 82.3708 109.103 82.3118 109.121 82.226C109.138 82.1366 109.167 82.0758 109.206 82.0437C109.385 82.0294 109.516 82.0133 109.598 81.9954C109.68 81.9775 109.761 81.9346 109.839 81.8667C109.918 81.7952 109.977 81.6986 110.016 81.577C110.059 81.4555 110.106 81.2767 110.156 81.0407Z" fill="#A6A6A6"/>
<path d="M319.705 17.6891L319.706 71.9139" stroke="#3F3F3F" stroke-width="0.68" stroke-linejoin="round" stroke-dasharray="1 3"/>
<path d="M300.797 39.0065C300.602 39.2018 300.602 39.5184 300.797 39.7136L303.979 42.8956C304.174 43.0909 304.491 43.0909 304.686 42.8956C304.882 42.7003 304.882 42.3838 304.686 42.1885L301.858 39.3601L304.686 36.5316C304.882 36.3364 304.882 36.0198 304.686 35.8245C304.491 35.6293 304.174 35.6293 303.979 35.8245L300.797 39.0065ZM343.257 38.8601L301.151 38.8601V39.8601L343.257 39.8601V38.8601Z" fill="#929292"/>
<path d="M358.461 39.0065C358.266 39.2018 358.266 39.5184 358.461 39.7136L361.643 42.8956C361.838 43.0909 362.155 43.0909 362.35 42.8956C362.546 42.7003 362.546 42.3838 362.35 42.1885L359.522 39.3601L362.35 36.5316C362.546 36.3364 362.546 36.0198 362.35 35.8245C362.155 35.6293 361.838 35.6293 361.643 35.8245L358.461 39.0065ZM375.291 38.8601H358.815V39.8601H375.291V38.8601Z" fill="#929292"/>
<path d="M350.764 39.36C350.764 39.1073 350.969 38.9023 351.221 38.9023H351.307C351.56 38.9023 351.765 39.1073 351.765 39.36C351.765 39.6128 351.56 39.8177 351.307 39.8177H351.221C350.969 39.8177 350.764 39.6128 350.764 39.36Z" fill="#929292"/>
<path d="M354.427 39.36C354.427 39.1073 354.632 38.9023 354.884 38.9023H354.971C355.223 38.9023 355.428 39.1073 355.428 39.36C355.428 39.6128 355.223 39.8177 354.971 39.8177H354.884C354.632 39.8177 354.427 39.6128 354.427 39.36Z" fill="#929292"/>
<path d="M347.103 39.36C347.103 39.1073 347.307 38.9023 347.56 38.9023H347.646C347.899 38.9023 348.104 39.1073 348.104 39.36C348.104 39.6128 347.899 39.8177 347.646 39.8177H347.56C347.307 39.8177 347.103 39.6128 347.103 39.36Z" fill="#929292"/>
<path d="M168.145 24.2663C168.413 19.4942 165.571 16.3307 161.657 14.7222C158.923 13.5962 156.081 13.1136 153.132 13.0064C143.963 12.6846 135.33 14.6149 127.127 18.7436C125.732 19.4406 124.392 20.2985 123.052 21.4245C124.07 21.7462 125.196 21.639 125.84 22.6577C125.679 23.3548 125.303 23.6229 124.553 23.462C121.926 22.8186 119.405 22.8722 116.993 24.2663C116.564 24.5344 116.135 24.5344 115.706 24.2663C115.438 23.891 115.706 23.5693 115.867 23.3012C117.207 20.9419 117.475 18.4219 116.778 15.7945C116.617 15.1511 116.778 14.7758 117.422 14.4005C118.762 14.9903 118.333 16.438 118.816 17.5103C122.73 14.4541 127.18 12.3093 131.845 10.7008C135.598 9.36028 139.459 8.556 143.427 7.91258C145.625 7.53724 149.914 7.32277 149.968 7.32277C152.059 7.32277 153.829 7.37639 155.759 7.59086C158.708 7.96619 161.657 8.556 164.392 9.89647C170.504 12.7919 173.829 17.5103 173.882 24.3735C173.346 24.3735 172.81 24.4272 172.274 24.4272C172.595 18.4755 169.754 14.3468 164.713 11.6659C161.014 9.682 156.939 9.03857 152.81 8.87771C148.52 8.66324 144.285 9.19943 140.102 10.0573C134.526 11.1833 129.218 13.0064 124.231 15.7409C122.569 16.6524 120.907 17.7248 119.513 19.0653C118.655 19.8696 117.743 20.9956 118.011 22.3361C119.191 22.1752 120.531 21.6926 121.389 20.9419C122.891 19.6015 124.606 18.5827 126.376 17.6712C134.204 13.6498 142.515 11.6659 151.309 11.6123C154.794 11.6123 158.172 12.0412 161.496 13.2208C166.215 14.9366 169.432 18.0465 169.807 24.4272C169.217 24.2663 168.681 24.2663 168.145 24.2663Z" fill="#3ECF8E"/>
<path d="M48.0137 12.705L48.0137 71.9138" stroke="#3F3F3F" stroke-width="0.68" stroke-linejoin="round" stroke-dasharray="1 3"/>
<path d="M139.516 17.2904L139.516 72.3126" stroke="#3F3F3F" stroke-width="0.68" stroke-linejoin="round" stroke-dasharray="1 3"/>
<path d="M17.952 38.8664C17.7568 39.0617 17.7568 39.3783 17.952 39.5735L21.134 42.7555C21.3293 42.9508 21.6458 42.9508 21.8411 42.7555C22.0364 42.5602 22.0364 42.2437 21.8411 42.0484L19.0127 39.22L21.8411 36.3915C22.0364 36.1963 22.0364 35.8797 21.8411 35.6844C21.6458 35.4892 21.3293 35.4892 21.134 35.6844L17.952 38.8664ZM70.9355 38.72L18.3056 38.72V39.72L70.9355 39.72V38.72Z" fill="#929292"/>
<path d="M117.63 38.8664C117.435 39.0617 117.435 39.3783 117.63 39.5735L120.812 42.7555C121.007 42.9508 121.324 42.9508 121.519 42.7555C121.714 42.5602 121.714 42.2437 121.519 42.0484L118.691 39.22L121.519 36.3915C121.714 36.1963 121.714 35.8797 121.519 35.6844C121.324 35.4892 121.007 35.4892 120.812 35.6844L117.63 38.8664ZM161.842 38.72L117.983 38.72V39.72L161.842 39.72V38.72Z" fill="#929292"/>
<g filter="url(#filter0_d_644_4331)">
<rect x="71.7383" y="24.4675" width="45.4532" height="29.106" rx="6" fill="#161616"/>
<rect x="72.0383" y="24.7675" width="44.8532" height="28.506" rx="5.7" stroke="#333333" stroke-width="0.6"/>
</g>
<line x1="101.439" y1="24.8662" x2="101.439" y2="53.1747" stroke="#454545" stroke-width="0.4"/>
<g filter="url(#filter1_d_644_4331)">
<rect x="162.251" y="24.8662" width="45.4532" height="29.106" rx="6" fill="#161616"/>
<rect x="162.551" y="25.1662" width="44.8532" height="28.506" rx="5.7" stroke="#333333" stroke-width="0.6"/>
</g>
<line x1="191.948" y1="25.265" x2="191.948" y2="53.5735" stroke="#454545" stroke-width="0.4"/>
<path d="M92.9233 13.6579C92.7523 13.7872 92.6418 13.9665 92.5917 14.196L91.9097 17.3997C92.0223 17.5916 92.137 17.7397 92.2538 17.844C92.3748 17.9483 92.525 18.0004 92.7043 18.0004C93.2925 18.0004 93.791 17.7647 94.1998 17.2933C94.6086 16.8178 94.8944 16.1983 95.0571 15.4349C95.1864 14.8175 95.1572 14.2982 94.9695 13.8769C94.7859 13.4555 94.496 13.2449 94.0997 13.2449C93.6826 13.2449 93.2904 13.3825 92.9233 13.6579ZM92.9233 13.2574C93.4323 12.8736 93.9495 12.6817 94.4751 12.6817C95.0675 12.6817 95.5431 12.9174 95.9018 13.3888C96.2647 13.856 96.3669 14.4609 96.2084 15.2034C96.0707 15.85 95.8017 16.4277 95.4012 16.9367C95.0008 17.4414 94.5607 17.8169 94.0809 18.063C93.6054 18.3091 93.1423 18.4322 92.6918 18.4322C92.1912 18.4322 91.8367 18.3279 91.6281 18.1193C91.5697 18.0609 91.5155 18.0338 91.4654 18.0379C91.4195 18.0379 91.3548 18.0755 91.2714 18.1506C91.1963 18.2215 91.0733 18.3258 90.9022 18.4634C90.7771 18.4634 90.6957 18.4113 90.6582 18.307C90.7249 18.1485 90.8063 17.8461 90.9022 17.3997L92.2288 11.1424C92.2747 10.9338 92.3018 10.7691 92.3101 10.6481C92.3226 10.5271 92.3247 10.4291 92.3164 10.354C92.3122 10.2747 92.2788 10.2184 92.2163 10.1851C92.1537 10.1517 92.0953 10.1308 92.0411 10.1225C91.9868 10.1141 91.8909 10.1058 91.7532 10.0975C91.7365 10.0975 91.7219 10.0975 91.7094 10.0975C91.7011 10.0975 91.6886 10.0975 91.6719 10.0975C91.6594 10.0933 91.6469 10.0912 91.6343 10.0912C91.6135 10.0662 91.601 10.0307 91.5968 9.98483C91.5926 9.93477 91.5947 9.88471 91.6031 9.83465C91.6114 9.7846 91.6218 9.74288 91.6343 9.70951C91.7637 9.70116 91.918 9.68448 92.0974 9.65945C92.2809 9.63025 92.4603 9.60105 92.6355 9.57185C92.8107 9.53848 92.9776 9.50302 93.1361 9.46547C93.2988 9.42793 93.4218 9.39247 93.5053 9.3591C93.5637 9.3591 93.6033 9.36953 93.6242 9.39039C93.6492 9.41124 93.6554 9.44462 93.6429 9.4905C93.5345 9.83257 93.4218 10.281 93.305 10.8358L92.8044 13.1948C92.7919 13.2532 92.7961 13.2887 92.817 13.3012C92.8378 13.3095 92.8733 13.2949 92.9233 13.2574Z" fill="#A6A6A6"/>
<path d="M212.537 81.9568C212.537 82.8685 212.724 82.9234 213.493 82.9564C213.559 83.0223 213.559 83.253 213.493 83.3189C212.944 83.3079 212.68 83.2969 212.153 83.2969C211.56 83.2969 211.164 83.3079 210.626 83.3189C210.56 83.253 210.56 83.0223 210.626 82.9564C211.395 82.9234 211.692 82.8685 211.692 81.9568V78.376C211.692 78.0025 211.659 77.7389 211.472 77.7389C211.263 77.7389 211.022 77.8048 210.516 78.0135C210.417 77.9476 210.374 77.8377 210.352 77.7169C211.318 77.2666 211.9 76.992 212.504 76.6185C212.548 76.6185 212.57 76.6185 212.57 76.6734C212.548 76.8162 212.537 77.4863 212.537 78.1453V81.9568Z" fill="#A6A6A6"/>
<path d="M203.34 78.5188C203.34 78.376 203.593 78.2222 203.702 78.2222C203.79 78.2222 203.889 78.2661 203.889 78.376V80.2653H205.822C205.932 80.2653 205.976 80.3641 205.976 80.452C205.976 80.5618 205.822 80.8145 205.68 80.8145H203.889V82.5719C203.889 82.7038 203.68 82.8465 203.516 82.8465C203.428 82.8465 203.34 82.7806 203.34 82.6818V80.8145H201.418C201.319 80.8145 201.253 80.7266 201.253 80.6387C201.253 80.474 201.396 80.2653 201.528 80.2653H203.34V78.5188Z" fill="#A6A6A6"/>
<path d="M193.453 81.9561L194.472 77.1559C194.511 76.9771 194.534 76.8358 194.541 76.7321C194.552 76.6285 194.556 76.5444 194.552 76.4801C194.548 76.4121 194.52 76.3639 194.466 76.3353C194.413 76.3067 194.361 76.2888 194.311 76.2816C194.264 76.2745 194.182 76.2673 194.064 76.2602C194.05 76.2602 194.037 76.2602 194.026 76.2602C194.019 76.2602 194.009 76.2602 193.994 76.2602C193.984 76.2566 193.973 76.2548 193.962 76.2548C193.944 76.2334 193.933 76.203 193.93 76.1636C193.926 76.1207 193.928 76.0778 193.935 76.0349C193.942 75.992 193.953 75.9562 193.967 75.9276C194.114 75.9169 194.293 75.8955 194.504 75.8633C194.718 75.8275 194.926 75.7882 195.126 75.7453C195.326 75.7024 195.473 75.663 195.566 75.6273C195.616 75.6273 195.65 75.6362 195.668 75.6541C195.689 75.672 195.696 75.7006 195.689 75.7399C195.596 76.0331 195.5 76.4175 195.399 76.893L194.584 80.7225C194.827 80.6903 195.101 80.5777 195.405 80.3846C195.712 80.188 196.068 79.8876 196.472 79.4836C196.519 79.4371 196.558 79.3906 196.59 79.3441C196.626 79.2976 196.656 79.2422 196.681 79.1778C196.706 79.1099 196.69 79.0545 196.633 79.0116C196.579 78.9651 196.481 78.9365 196.338 78.9258C196.313 78.8936 196.309 78.8346 196.327 78.7488C196.345 78.6594 196.376 78.5968 196.419 78.5611C196.958 78.5754 197.314 78.5825 197.486 78.5825C197.582 78.5825 197.902 78.5754 198.446 78.5611C198.471 78.5932 198.474 78.654 198.457 78.7434C198.439 78.8328 198.41 78.8936 198.371 78.9258C197.845 78.9758 197.427 79.1367 197.116 79.4085L195.936 80.4061C195.9 80.4347 195.877 80.4722 195.866 80.5187C195.859 80.558 195.875 80.6099 195.914 80.6742L196.976 82.4924C197.073 82.6605 197.182 82.7731 197.303 82.8303C197.429 82.8875 197.602 82.9304 197.824 82.959C197.849 82.9912 197.851 83.052 197.829 83.1414C197.811 83.2272 197.783 83.2862 197.743 83.3184C197.307 83.3041 197.008 83.2969 196.848 83.2969C196.687 83.2969 196.458 83.3041 196.161 83.3184C196.143 83.3184 196.132 83.3005 196.129 83.2647C196.122 83.111 196.023 82.8536 195.834 82.4924L195.26 81.4197C195.174 81.2624 195.083 81.1426 194.986 81.0604C194.897 81.0282 194.743 81.0085 194.525 81.0014L194.321 81.9561C194.282 82.142 194.255 82.2922 194.241 82.4066C194.23 82.521 194.227 82.6158 194.23 82.6909C194.237 82.7624 194.264 82.816 194.311 82.8518C194.357 82.8839 194.404 82.9072 194.45 82.9215C194.5 82.9358 194.577 82.9483 194.681 82.959C194.706 82.9912 194.709 83.052 194.691 83.1414C194.674 83.2272 194.645 83.2862 194.606 83.3184C193.98 83.3041 193.647 83.2969 193.608 83.2969C193.44 83.2969 193.047 83.3041 192.428 83.3184C192.403 83.2862 192.4 83.2272 192.417 83.1414C192.435 83.052 192.464 82.9912 192.503 82.959C192.682 82.9447 192.813 82.9286 192.895 82.9108C192.977 82.8929 193.057 82.85 193.136 82.782C193.215 82.7105 193.274 82.614 193.313 82.4924C193.356 82.3708 193.402 82.1921 193.453 81.9561Z" fill="#A6A6A6"/>
<path d="M412.22 81.0407L413.239 76.2405C413.279 76.0617 413.302 75.9205 413.309 75.8168C413.32 75.7131 413.323 75.6291 413.32 75.5647C413.316 75.4968 413.287 75.4485 413.234 75.4199C413.18 75.3913 413.128 75.3734 413.078 75.3662C413.032 75.3591 412.95 75.3519 412.832 75.3448C412.817 75.3448 412.805 75.3448 412.794 75.3448C412.787 75.3448 412.776 75.3448 412.762 75.3448C412.751 75.3412 412.74 75.3394 412.73 75.3394C412.712 75.318 412.701 75.2876 412.697 75.2483C412.694 75.2053 412.696 75.1624 412.703 75.1195C412.71 75.0766 412.721 75.0409 412.735 75.0123C412.882 75.0015 413.06 74.9801 413.271 74.9479C413.486 74.9121 413.693 74.8728 413.894 74.8299C414.094 74.787 414.24 74.7477 414.333 74.7119C414.383 74.7119 414.417 74.7209 414.435 74.7387C414.457 74.7566 414.464 74.7852 414.457 74.8245C414.364 75.1177 414.267 75.5021 414.167 75.9777L413.352 79.8071C413.595 79.7749 413.868 79.6623 414.172 79.4692C414.48 79.2726 414.836 78.9722 415.24 78.5682C415.286 78.5217 415.326 78.4752 415.358 78.4287C415.393 78.3823 415.424 78.3268 415.449 78.2625C415.474 78.1945 415.458 78.1391 415.401 78.0962C415.347 78.0497 415.249 78.0211 415.106 78.0104C415.081 77.9782 415.077 77.9192 415.095 77.8334C415.113 77.744 415.143 77.6814 415.186 77.6457C415.726 77.66 416.082 77.6671 416.253 77.6671C416.35 77.6671 416.67 77.66 417.213 77.6457C417.238 77.6779 417.242 77.7386 417.224 77.828C417.206 77.9174 417.178 77.9782 417.138 78.0104C416.613 78.0605 416.194 78.2214 415.883 78.4931L414.703 79.4907C414.668 79.5193 414.644 79.5568 414.634 79.6033C414.627 79.6426 414.643 79.6945 414.682 79.7589L415.744 81.577C415.84 81.7451 415.949 81.8577 416.071 81.9149C416.196 81.9721 416.37 82.0151 416.591 82.0437C416.616 82.0758 416.618 82.1366 416.597 82.226C416.579 82.3118 416.55 82.3708 416.511 82.403C416.075 82.3887 415.776 82.3815 415.615 82.3815C415.454 82.3815 415.225 82.3887 414.929 82.403C414.911 82.403 414.9 82.3851 414.896 82.3494C414.889 82.1956 414.791 81.9382 414.601 81.577L414.028 80.5044C413.942 80.347 413.851 80.2273 413.754 80.145C413.665 80.1128 413.511 80.0932 413.293 80.086L413.089 81.0407C413.05 81.2266 413.023 81.3768 413.009 81.4912C412.998 81.6056 412.994 81.7004 412.998 81.7755C413.005 81.847 413.032 81.9006 413.078 81.9364C413.125 81.9686 413.171 81.9918 413.218 82.0061C413.268 82.0204 413.345 82.0329 413.448 82.0437C413.473 82.0758 413.477 82.1366 413.459 82.226C413.441 82.3118 413.413 82.3708 413.373 82.403C412.748 82.3887 412.415 82.3815 412.376 82.3815C412.208 82.3815 411.814 82.3887 411.196 82.403C411.171 82.3708 411.167 82.3118 411.185 82.226C411.203 82.1366 411.231 82.0758 411.271 82.0437C411.45 82.0294 411.58 82.0133 411.662 81.9954C411.745 81.9775 411.825 81.9346 411.904 81.8667C411.982 81.7952 412.041 81.6986 412.081 81.577C412.124 81.4555 412.17 81.2767 412.22 81.0407Z" fill="#A6A6A6"/>
<path d="M298.834 77.2409C298.834 76.5818 299.592 75.6811 300.811 75.6811C301.701 75.6811 302.668 76.1644 302.668 77.3507C302.668 78.1855 302.195 78.6688 301.569 79.273L300.46 80.3384C300.405 80.3933 299.647 81.1403 299.647 81.6675H301.602C301.998 81.6675 302.184 81.3929 302.371 80.613C302.481 80.5911 302.624 80.613 302.69 80.668C302.679 80.9975 302.569 81.8213 302.426 82.4035C302.426 82.4035 301.921 82.3815 301.569 82.3815H299.647C299.296 82.3815 298.735 82.4035 298.735 82.4035C298.735 81.7554 298.911 81.2281 299.988 80.1297L300.8 79.3279C301.448 78.6688 301.701 78.0976 301.701 77.3947C301.701 76.3402 301.141 76.0656 300.745 76.0656C299.944 76.0656 299.658 76.461 299.658 76.7356C299.658 76.8235 299.724 76.9223 299.746 76.9992C299.768 77.0761 299.79 77.142 299.79 77.2299C299.79 77.4715 299.46 77.6693 299.274 77.6693C299.043 77.6693 298.834 77.4715 298.834 77.2409Z" fill="#A6A6A6"/>
<path d="M292.127 77.6034C292.127 77.4606 292.38 77.3068 292.49 77.3068C292.577 77.3068 292.676 77.3508 292.676 77.4606V79.3499H294.609C294.719 79.3499 294.763 79.4487 294.763 79.5366C294.763 79.6465 294.609 79.8991 294.467 79.8991H292.676V81.6566C292.676 81.7884 292.468 81.9312 292.303 81.9312C292.215 81.9312 292.127 81.8653 292.127 81.7664V79.8991H290.205C290.106 79.8991 290.04 79.8112 290.04 79.7233C290.04 79.5586 290.183 79.3499 290.315 79.3499H292.127V77.6034Z" fill="#A6A6A6"/>
<path d="M282.242 81.0407L283.261 76.2404C283.3 76.0617 283.323 75.9204 283.33 75.8167C283.341 75.713 283.345 75.629 283.341 75.5647C283.338 75.4967 283.309 75.4485 283.255 75.4198C283.202 75.3912 283.15 75.3734 283.1 75.3662C283.053 75.3591 282.971 75.3519 282.853 75.3448C282.839 75.3448 282.826 75.3448 282.816 75.3448C282.808 75.3448 282.798 75.3448 282.783 75.3448C282.773 75.3412 282.762 75.3394 282.751 75.3394C282.733 75.3179 282.723 75.2876 282.719 75.2482C282.715 75.2053 282.717 75.1624 282.724 75.1195C282.731 75.0766 282.742 75.0408 282.757 75.0122C282.903 75.0015 283.082 74.9801 283.293 74.9479C283.507 74.9121 283.715 74.8728 283.915 74.8299C284.115 74.787 284.262 74.7476 284.355 74.7119C284.405 74.7119 284.439 74.7208 284.457 74.7387C284.478 74.7566 284.485 74.7852 284.478 74.8245C284.385 75.1177 284.289 75.5021 284.189 75.9776L283.373 79.8071C283.616 79.7749 283.89 79.6623 284.194 79.4692C284.501 79.2725 284.857 78.9722 285.261 78.5682C285.308 78.5217 285.347 78.4752 285.379 78.4287C285.415 78.3822 285.445 78.3268 285.47 78.2624C285.495 78.1945 285.479 78.1391 285.422 78.0962C285.368 78.0497 285.27 78.0211 285.127 78.0104C285.102 77.9782 285.099 77.9192 285.116 77.8334C285.134 77.744 285.165 77.6814 285.208 77.6457C285.747 77.66 286.103 77.6671 286.275 77.6671C286.371 77.6671 286.691 77.66 287.235 77.6457C287.26 77.6778 287.264 77.7386 287.246 77.828C287.228 77.9174 287.199 77.9782 287.16 78.0104C286.634 78.0604 286.216 78.2213 285.905 78.4931L284.725 79.4907C284.689 79.5193 284.666 79.5568 284.655 79.6033C284.648 79.6426 284.664 79.6945 284.703 79.7588L285.765 81.577C285.862 81.7451 285.971 81.8577 286.093 81.9149C286.218 81.9721 286.391 82.015 286.613 82.0436C286.638 82.0758 286.64 82.1366 286.618 82.226C286.6 82.3118 286.572 82.3708 286.532 82.403C286.096 82.3887 285.798 82.3815 285.637 82.3815C285.476 82.3815 285.247 82.3887 284.95 82.403C284.932 82.403 284.922 82.3851 284.918 82.3493C284.911 82.1956 284.812 81.9381 284.623 81.577L284.049 80.5043C283.963 80.347 283.872 80.2272 283.776 80.145C283.686 80.1128 283.532 80.0931 283.314 80.086L283.11 81.0407C283.071 81.2266 283.044 81.3768 283.03 81.4912C283.019 81.6056 283.016 81.7004 283.019 81.7755C283.026 81.847 283.053 81.9006 283.1 81.9364C283.146 81.9685 283.193 81.9918 283.239 82.0061C283.289 82.0204 283.366 82.0329 283.47 82.0436C283.495 82.0758 283.498 82.1366 283.481 82.226C283.463 82.3118 283.434 82.3708 283.395 82.403C282.769 82.3887 282.436 82.3815 282.397 82.3815C282.229 82.3815 281.836 82.3887 281.217 82.403C281.192 82.3708 281.189 82.3118 281.206 82.226C281.224 82.1366 281.253 82.0758 281.292 82.0436C281.471 82.0293 281.602 82.0132 281.684 81.9954C281.766 81.9775 281.847 81.9346 281.925 81.8666C282.004 81.7951 282.063 81.6986 282.102 81.577C282.145 81.4554 282.192 81.2767 282.242 81.0407Z" fill="#A6A6A6"/>
<path d="M186.288 14.5732C186.117 14.7025 186.006 14.8819 185.956 15.1113L185.274 18.315C185.387 18.5069 185.501 18.655 185.618 18.7593C185.739 18.8636 185.889 18.9157 186.069 18.9157C186.657 18.9157 187.155 18.6801 187.564 18.2087C187.973 17.7331 188.259 17.1136 188.421 16.3503C188.551 15.7329 188.521 15.2135 188.334 14.7922C188.15 14.3709 187.86 14.1602 187.464 14.1602C187.047 14.1602 186.655 14.2979 186.288 14.5732ZM186.288 14.1727C186.797 13.7889 187.314 13.5971 187.839 13.5971C188.432 13.5971 188.907 13.8328 189.266 14.3041C189.629 14.7713 189.731 15.3762 189.573 16.1187C189.435 16.7653 189.166 17.3431 188.765 17.852C188.365 18.3568 187.925 18.7322 187.445 18.9783C186.97 19.2244 186.507 19.3475 186.056 19.3475C185.555 19.3475 185.201 19.2432 184.992 19.0346C184.934 18.9762 184.88 18.9491 184.83 18.9533C184.784 18.9533 184.719 18.9908 184.636 19.0659C184.561 19.1368 184.438 19.2411 184.266 19.3788C184.141 19.3788 184.06 19.3266 184.022 19.2224C184.089 19.0638 184.171 18.7614 184.266 18.315L185.593 12.0578C185.639 11.8492 185.666 11.6844 185.674 11.5634C185.687 11.4425 185.689 11.3444 185.681 11.2694C185.676 11.1901 185.643 11.1338 185.581 11.1004C185.518 11.067 185.46 11.0462 185.405 11.0378C185.351 11.0295 185.255 11.0211 185.117 11.0128C185.101 11.0128 185.086 11.0128 185.074 11.0128C185.065 11.0128 185.053 11.0128 185.036 11.0128C185.024 11.0086 185.011 11.0065 184.999 11.0065C184.978 10.9815 184.965 10.9461 184.961 10.9002C184.957 10.8501 184.959 10.8001 184.967 10.75C184.976 10.6999 184.986 10.6582 184.999 10.6249C185.128 10.6165 185.282 10.5998 185.462 10.5748C185.645 10.5456 185.825 10.5164 186 10.4872C186.175 10.4538 186.342 10.4184 186.5 10.3808C186.663 10.3433 186.786 10.3078 186.87 10.2744C186.928 10.2744 186.968 10.2849 186.988 10.3057C187.013 10.3266 187.02 10.36 187.007 10.4058C186.899 10.7479 186.786 11.1964 186.669 11.7512L186.169 14.1102C186.156 14.1686 186.16 14.204 186.181 14.2165C186.202 14.2249 186.238 14.2103 186.288 14.1727Z" fill="#A6A6A6"/>
<path d="M280.572 9.47659C280.541 9.42275 280.482 9.3706 280.395 9.32014C280.302 9.25891 280.218 9.25011 280.142 9.29372C280.002 9.37472 279.936 9.47075 279.943 9.58182C279.932 9.68835 279.882 10.9754 279.882 10.9754C279.882 10.9754 279.938 11.5609 279.756 11.8675C279.695 11.9604 279.687 12.0221 279.734 12.0528C279.78 12.0834 279.829 12.0692 279.882 12.0103C279.96 11.9219 280.059 11.7709 280.18 11.5573C280.256 11.4233 280.381 10.3206 280.47 10.0531C280.5 9.80606 280.659 9.62735 280.572 9.47659Z" fill="#A6A6A6"/>
<path d="M190.5 10.3919C190.469 10.3381 190.41 10.2859 190.324 10.2355C190.231 10.1742 190.147 10.1654 190.071 10.209C189.931 10.29 189.865 10.3861 189.871 10.4971C189.861 10.6037 189.81 11.8908 189.81 11.8908C189.81 11.8908 189.867 12.4763 189.685 12.7828C189.623 12.8757 189.616 12.9375 189.662 12.9681C189.709 12.9987 189.758 12.9845 189.81 12.9256C189.889 12.8372 189.988 12.6862 190.109 12.4726C190.185 12.3387 190.309 11.2359 190.399 10.9684C190.428 10.7214 190.588 10.5427 190.5 10.3919Z" fill="#A6A6A6"/>
<path d="M282.404 9.47659C282.373 9.42275 282.314 9.3706 282.227 9.32014C282.134 9.25891 282.05 9.25011 281.975 9.29372C281.835 9.37472 281.768 9.47075 281.775 9.58182C281.764 9.68835 281.714 10.9754 281.714 10.9754C281.714 10.9754 281.77 11.5609 281.588 11.8675C281.527 11.9604 281.519 12.0221 281.566 12.0528C281.612 12.0834 281.662 12.0692 281.714 12.0103C281.792 11.9219 281.891 11.7709 282.012 11.5573C282.088 11.4233 282.213 10.3206 282.302 10.0531C282.332 9.80606 282.491 9.62735 282.404 9.47659Z" fill="#A6A6A6"/>
<path d="M259.848 24.2663C260.116 19.4943 257.274 16.3308 253.36 14.7222C250.626 13.5962 247.784 13.1136 244.835 13.0064C235.666 12.6847 227.033 14.615 218.83 18.7436C217.436 19.4406 216.095 20.2985 214.755 21.4245C215.773 21.7463 216.899 21.639 217.543 22.6578C217.382 23.3548 217.007 23.6229 216.256 23.4621C213.629 22.8186 211.109 22.8723 208.696 24.2663C208.267 24.5344 207.838 24.5344 207.409 24.2663C207.141 23.891 207.409 23.5693 207.57 23.3012C208.91 20.942 209.178 18.4219 208.481 15.7946C208.32 15.1511 208.481 14.7758 209.125 14.4005C210.465 14.9903 210.036 16.438 210.519 17.5104C214.433 14.4541 218.883 12.3093 223.548 10.7008C227.301 9.36031 231.162 8.55603 235.13 7.91261C237.328 7.53728 241.618 7.3228 241.671 7.3228C243.762 7.3228 245.532 7.37642 247.462 7.59089C250.411 7.96623 253.36 8.55603 256.095 9.8965C262.207 12.7919 265.532 17.5104 265.585 24.3736C265.049 24.3736 264.513 24.4272 263.977 24.4272C264.298 18.4755 261.457 14.3469 256.416 11.6659C252.717 9.68203 248.642 9.0386 244.513 8.87774C240.224 8.66327 235.988 9.19946 231.805 10.0574C226.229 11.1834 220.921 13.0064 215.934 15.741C214.272 16.6525 212.61 17.7248 211.216 19.0653C210.358 19.8696 209.446 20.9956 209.714 22.3361C210.894 22.1752 212.235 21.6926 213.092 20.942C214.594 19.6015 216.31 18.5827 218.079 17.6712C225.907 13.6498 234.218 11.6659 243.012 11.6123C246.497 11.6123 249.875 12.0413 253.199 13.2209C257.918 14.9367 261.135 18.0466 261.51 24.4272C260.92 24.2663 260.384 24.2663 259.848 24.2663Z" fill="#3ECF8E"/>
<g filter="url(#filter2_d_644_4331)">
<rect x="253.546" y="24.4675" width="45.4532" height="29.106" rx="6" fill="#161616"/>
<rect x="253.846" y="24.7675" width="44.8532" height="28.506" rx="5.7" stroke="#333333" stroke-width="0.6"/>
</g>
<path d="M230.427 17.689L230.428 71.9138" stroke="#3F3F3F" stroke-width="0.68" stroke-linejoin="round" stroke-dasharray="1 3"/>
<path d="M208.142 38.8664C207.947 39.0617 207.947 39.3783 208.142 39.5735L211.324 42.7555C211.519 42.9508 211.836 42.9508 212.031 42.7555C212.226 42.5602 212.226 42.2437 212.031 42.0484L209.203 39.22L212.031 36.3915C212.226 36.1963 212.226 35.8797 212.031 35.6844C211.836 35.4892 211.519 35.4892 211.324 35.6844L208.142 38.8664ZM253.151 38.72L208.496 38.72V39.72L253.151 39.72V38.72Z" fill="#929292"/>
<line x1="283.258" y1="24.8662" x2="283.258" y2="53.1748" stroke="#454545" stroke-width="0.4"/>
<path d="M275.99 13.6578C275.819 13.7871 275.708 13.9665 275.658 14.1959L274.976 17.3997C275.089 17.5916 275.203 17.7397 275.32 17.8439C275.441 17.9482 275.591 18.0004 275.771 18.0004C276.359 18.0004 276.857 17.7647 277.266 17.2933C277.675 16.8177 277.961 16.1983 278.123 15.4349C278.253 14.8175 278.224 14.2981 278.036 13.8768C277.852 13.4555 277.562 13.2448 277.166 13.2448C276.749 13.2448 276.357 13.3825 275.99 13.6578ZM275.99 13.2574C276.499 12.8736 277.016 12.6817 277.542 12.6817C278.134 12.6817 278.609 12.9174 278.968 13.3888C279.331 13.856 279.433 14.4608 279.275 15.2034C279.137 15.85 278.868 16.4277 278.468 16.9366C278.067 17.4414 277.627 17.8168 277.147 18.0629C276.672 18.3091 276.209 18.4321 275.758 18.4321C275.258 18.4321 274.903 18.3278 274.694 18.1193C274.636 18.0609 274.582 18.0337 274.532 18.0379C274.486 18.0379 274.421 18.0755 274.338 18.1505C274.263 18.2215 274.14 18.3257 273.969 18.4634C273.843 18.4634 273.762 18.4113 273.725 18.307C273.791 18.1485 273.873 17.846 273.969 17.3997L275.295 11.1424C275.341 10.9338 275.368 10.769 275.377 10.6481C275.389 10.5271 275.391 10.4291 275.383 10.354C275.379 10.2747 275.345 10.2184 275.283 10.185C275.22 10.1517 275.162 10.1308 275.107 10.1225C275.053 10.1141 274.957 10.1058 274.82 10.0974C274.803 10.0974 274.788 10.0974 274.776 10.0974C274.767 10.0974 274.755 10.0974 274.738 10.0974C274.726 10.0933 274.713 10.0912 274.701 10.0912C274.68 10.0661 274.667 10.0307 274.663 9.9848C274.659 9.93474 274.661 9.88468 274.669 9.83462C274.678 9.78456 274.688 9.74285 274.701 9.70948C274.83 9.70113 274.984 9.68445 275.164 9.65942C275.347 9.63022 275.527 9.60102 275.702 9.57182C275.877 9.53845 276.044 9.50299 276.202 9.46544C276.365 9.4279 276.488 9.39244 276.572 9.35907C276.63 9.35907 276.67 9.3695 276.691 9.39036C276.716 9.41121 276.722 9.44459 276.709 9.49047C276.601 9.83254 276.488 10.281 276.371 10.8358L275.871 13.1948C275.858 13.2532 275.863 13.2886 275.883 13.3012C275.904 13.3095 275.94 13.2949 275.99 13.2574Z" fill="#A6A6A6"/>
<g filter="url(#filter3_d_644_4331)">
<rect x="374.865" y="24.4675" width="45.4532" height="29.106" rx="6" fill="#161616"/>
<rect x="375.165" y="24.7675" width="44.8532" height="28.506" rx="5.7" stroke="#333333" stroke-width="0.6"/>
</g>
<line x1="404.572" y1="24.8663" x2="404.572" y2="53.1748" stroke="#454545" stroke-width="0.4"/>
<path d="M397.304 13.6579C397.133 13.7872 397.023 13.9665 396.973 14.196L396.291 17.3997C396.403 17.5916 396.518 17.7397 396.635 17.844C396.756 17.9483 396.906 18.0004 397.085 18.0004C397.673 18.0004 398.172 17.7647 398.581 17.2933C398.989 16.8178 399.275 16.1983 399.438 15.4349C399.567 14.8175 399.538 14.2982 399.35 13.8769C399.167 13.4555 398.877 13.2449 398.481 13.2449C398.063 13.2449 397.671 13.3825 397.304 13.6579ZM397.304 13.2574C397.813 12.8736 398.33 12.6817 398.856 12.6817C399.448 12.6817 399.924 12.9174 400.283 13.3888C400.646 13.856 400.748 14.4609 400.589 15.2034C400.452 15.85 400.183 16.4277 399.782 16.9367C399.382 17.4414 398.942 17.8169 398.462 18.063C397.986 18.3091 397.523 18.4322 397.073 18.4322C396.572 18.4322 396.218 18.3279 396.009 18.1193C395.951 18.0609 395.896 18.0338 395.846 18.0379C395.8 18.0379 395.736 18.0755 395.652 18.1506C395.577 18.2215 395.454 18.3258 395.283 18.4634C395.158 18.4634 395.077 18.4113 395.039 18.307C395.106 18.1485 395.187 17.8461 395.283 17.3997L396.61 11.1424C396.656 10.9338 396.683 10.7691 396.691 10.6481C396.703 10.5271 396.706 10.4291 396.697 10.354C396.693 10.2747 396.66 10.2184 396.597 10.1851C396.535 10.1517 396.476 10.1308 396.422 10.1225C396.368 10.1141 396.272 10.1058 396.134 10.0975C396.117 10.0975 396.103 10.0975 396.09 10.0975C396.082 10.0975 396.069 10.0975 396.053 10.0975C396.04 10.0933 396.028 10.0912 396.015 10.0912C395.994 10.0662 395.982 10.0307 395.978 9.98483C395.973 9.93477 395.976 9.88471 395.984 9.83465C395.992 9.7846 396.003 9.74288 396.015 9.70951C396.145 9.70116 396.299 9.68448 396.478 9.65945C396.662 9.63025 396.841 9.60105 397.016 9.57185C397.192 9.53848 397.358 9.50302 397.517 9.46547C397.68 9.42793 397.803 9.39247 397.886 9.3591C397.945 9.3591 397.984 9.36953 398.005 9.39039C398.03 9.41124 398.036 9.44462 398.024 9.4905C397.915 9.83257 397.803 10.281 397.686 10.8358L397.185 13.1948C397.173 13.2532 397.177 13.2887 397.198 13.3012C397.219 13.3095 397.254 13.2949 397.304 13.2574Z" fill="#A6A6A6"/>
<path d="M403.107 11.592C403.107 11.7023 403.051 11.7574 402.938 11.7574C402.848 11.7574 402.783 11.7246 402.741 11.6591C402.699 11.5905 402.662 11.525 402.629 11.4624L402.196 10.6177L401.901 11.1093L401.758 11.3686C401.725 11.4311 401.694 11.4952 401.664 11.5607C401.61 11.6829 401.548 11.744 401.476 11.744C401.336 11.744 401.266 11.6844 401.266 11.5652C401.266 11.4877 401.332 11.3581 401.463 11.1764L401.945 10.4791C401.764 10.4881 401.601 10.494 401.458 10.497C401.315 10.5 401.215 10.5045 401.159 10.5104C401.063 10.5164 400.981 10.5194 400.913 10.5194C400.844 10.5194 400.789 10.5015 400.748 10.4657C400.709 10.427 400.689 10.3793 400.689 10.3227C400.689 10.2631 400.713 10.2169 400.761 10.1841C400.812 10.1514 400.864 10.135 400.917 10.135C401.007 10.135 401.087 10.138 401.159 10.1439C401.251 10.1558 401.361 10.1648 401.489 10.1707L401.959 10.1931L401.489 9.44667C401.397 9.31259 401.351 9.21128 401.351 9.14275C401.351 9.0176 401.415 8.95503 401.543 8.95503C401.618 8.95503 401.688 9.02356 401.753 9.16063L402.2 10.0411L402.602 9.25449C402.656 9.1353 402.704 9.05485 402.745 9.01313C402.787 8.97142 402.832 8.95056 402.88 8.95056C402.99 8.95056 403.045 9.00271 403.045 9.10699C403.045 9.18148 402.987 9.31557 402.871 9.50925L402.446 10.1886L403.224 10.1529C403.325 10.1439 403.402 10.1394 403.456 10.1394C403.62 10.1394 403.702 10.2035 403.702 10.3316C403.702 10.4598 403.62 10.5238 403.456 10.5238C403.402 10.5238 403.343 10.5208 403.277 10.5149C403.11 10.5 402.832 10.4866 402.441 10.4747C402.778 11.017 402.954 11.297 402.969 11.3149C402.984 11.3298 403.003 11.3537 403.027 11.3864C403.081 11.4609 403.107 11.5295 403.107 11.592Z" fill="#A6A6A6"/>
<path d="M318.484 12.8853C313.83 14.9796 309.455 17.5394 305.453 21.123C306.43 21.4953 307.454 21.3557 307.966 22.24C307.919 22.7985 307.547 23.0777 307.035 22.9381C304.708 22.3331 302.474 22.4727 300.333 23.6828C300.101 23.8224 299.775 23.8224 299.496 23.6828C299.216 23.357 299.309 23.0777 299.496 22.7519C300.613 20.7041 300.706 18.5633 300.24 16.3759C300.101 15.7708 300.147 15.3985 300.752 15.1193C301.636 15.957 301.683 16.0035 301.916 17.7721C303.265 16.7482 304.522 15.7243 305.872 14.7469C309.688 11.9079 313.877 9.67398 318.205 7.76581C323.836 5.25261 329.701 3.39097 335.751 2.04129C339.148 1.29664 342.546 0.78469 345.99 0.365822C350.039 -0.0995855 354.134 -0.0530447 358.137 0.133118C363.629 0.412363 368.981 1.57588 373.914 4.18217C380.151 7.48656 384.153 12.4664 385.363 19.5872C385.596 20.9834 385.549 22.3331 385.689 23.7293C385.317 23.8224 384.944 23.8224 384.526 23.7293C384.107 22.1004 384.293 20.4249 383.921 18.7494C383.083 14.8865 381.268 11.5822 378.475 8.88279C375.683 6.18342 372.285 4.41487 368.609 3.29789C363.768 1.80859 358.789 1.29664 353.762 1.15702C350.923 1.06393 348.131 1.52934 345.292 1.76205C341.987 1.99475 338.776 2.59978 335.565 3.34443C327.234 5.25261 319.229 8.09159 311.736 12.3733C308.478 14.235 305.36 16.3759 302.614 18.9356C301.823 19.6803 301.497 20.5645 301.497 21.728C302.521 21.5884 303.358 21.3557 304.103 20.7041C305.453 19.5872 306.756 18.4702 308.152 17.4463C314.249 13.0715 321.044 10.0463 328.165 7.76581C332.726 6.32304 337.333 5.15952 342.08 4.50795C345.012 4.08909 347.898 3.71676 350.83 3.57714C354.553 3.39097 358.23 3.57714 361.907 4.18217C366.235 4.88028 370.331 6.09034 374.054 8.46392C377.312 10.5583 379.732 13.3972 380.988 17.1205C381.687 19.2614 382.059 21.4953 382.105 23.7293C381.64 23.7293 381.175 23.7293 380.709 23.7293C380.895 18.8891 379.313 14.7469 375.822 11.396C373.402 9.06895 370.424 7.67273 367.259 6.69537C361.162 4.74066 354.833 4.55449 348.55 5.0199C340.917 5.57839 333.424 7.20732 326.21 9.8136C323.464 10.6513 320.904 11.5356 318.484 12.8853Z" fill="#3ECF8E"/>
<path d="M273.783 44.9291C273.51 44.9291 273.275 44.8778 273.078 44.7753C272.882 44.6685 272.72 44.5169 272.591 44.3204C272.463 44.1239 272.369 43.8825 272.309 43.5963C272.25 43.3101 272.22 42.9833 272.22 42.616C272.22 42.2529 272.25 41.9282 272.309 41.642C272.369 41.3516 272.463 41.1081 272.591 40.9116C272.72 40.7151 272.882 40.5656 273.078 40.4631C273.275 40.3563 273.51 40.3029 273.783 40.3029C274.057 40.3029 274.291 40.3563 274.488 40.4631C274.684 40.5656 274.847 40.7151 274.975 40.9116C275.103 41.1081 275.197 41.3516 275.257 41.642C275.317 41.9282 275.347 42.2529 275.347 42.616C275.347 42.9833 275.317 43.3101 275.257 43.5963C275.197 43.8825 275.103 44.1239 274.975 44.3204C274.847 44.5169 274.684 44.6685 274.488 44.7753C274.291 44.8778 274.057 44.9291 273.783 44.9291ZM273.783 44.4613C273.963 44.4613 274.116 44.4272 274.244 44.3588C274.373 44.2862 274.475 44.1858 274.552 44.0577C274.633 43.9295 274.693 43.7757 274.731 43.5963C274.77 43.4126 274.789 43.2076 274.789 42.9812V42.2508C274.789 42.0286 274.77 41.8257 274.731 41.642C274.693 41.4584 274.633 41.3024 274.552 41.1743C274.475 41.0462 274.373 40.9479 274.244 40.8796C274.116 40.8069 273.963 40.7706 273.783 40.7706C273.604 40.7706 273.45 40.8069 273.322 40.8796C273.194 40.9479 273.089 41.0462 273.008 41.1743C272.931 41.3024 272.873 41.4584 272.835 41.642C272.796 41.8257 272.777 42.0286 272.777 42.2508V42.9812C272.777 43.2076 272.796 43.4126 272.835 43.5963C272.873 43.7757 272.931 43.9295 273.008 44.0577C273.089 44.1858 273.194 44.2862 273.322 44.3588C273.45 44.4272 273.604 44.4613 273.783 44.4613ZM273.783 42.994C273.634 42.994 273.529 42.9641 273.469 42.9043C273.414 42.8445 273.386 42.7719 273.386 42.6865V42.5455C273.386 42.4601 273.414 42.3874 273.469 42.3276C273.529 42.2678 273.634 42.2379 273.783 42.2379C273.933 42.2379 274.035 42.2678 274.091 42.3276C274.151 42.3874 274.18 42.4601 274.18 42.5455V42.6865C274.18 42.7719 274.151 42.8445 274.091 42.9043C274.035 42.9641 273.933 42.994 273.783 42.994Z" fill="#3ECF8E"/>
<path d="M85.662 33.0689C85.0029 33.0689 84.4084 33.413 83.8786 34.1013C83.3488 34.7855 83.084 35.7512 83.084 36.9984C83.084 38.179 83.3906 39.1426 84.0038 39.8893C84.6212 40.636 85.3407 41.0094 86.1625 41.0094C86.9051 41.0094 87.5225 40.659 88.0147 39.9581C88.5111 39.2573 88.7593 38.3438 88.7593 37.2175C88.7593 35.9618 88.461 34.9565 87.8645 34.2014C87.268 33.4464 86.5338 33.0689 85.662 33.0689ZM89.9169 36.9734C89.9169 38.0664 89.6604 38.9757 89.1473 39.7016C88.8594 40.1146 88.5069 40.4545 88.0898 40.7215C87.6726 40.9843 87.2033 41.1616 86.6819 41.2534C86.1146 41.4203 85.5264 41.7269 84.9173 42.1732C85.0091 42.1607 85.1155 42.1544 85.2365 42.1544C85.7329 42.1544 86.3649 42.3296 87.1324 42.6801C87.9041 43.0305 88.4652 43.2057 88.8156 43.2057C89.2703 43.2057 89.6416 43.0263 89.9294 42.6675L90.1422 42.8177C89.6541 43.5185 89.0409 43.8689 88.3025 43.8689C87.9271 43.8689 87.5558 43.8043 87.1887 43.675C86.8258 43.5498 86.5255 43.4122 86.2877 43.262C86.0499 43.1118 85.7808 42.9721 85.4805 42.8427C85.1801 42.7134 84.8986 42.6488 84.6358 42.6488C84.4981 42.6488 84.3354 42.7113 84.1477 42.8365C83.96 42.9616 83.8098 43.1514 83.6972 43.4059L83.1966 43.1494C83.4302 42.8115 83.7597 42.4715 84.1852 42.1294C84.6149 41.7915 85.0696 41.5162 85.5493 41.3035C84.8735 41.2492 84.2624 41.0532 83.7159 40.7153C83.1736 40.3774 82.7398 39.9039 82.4144 39.2949C82.0932 38.6858 81.9326 37.9934 81.9326 37.2175C81.9326 36.0661 82.2163 35.1004 82.7836 34.3203C83.1424 33.8281 83.5825 33.4443 84.1039 33.169C84.6295 32.8937 85.2031 32.756 85.8246 32.756C87.0052 32.756 87.9813 33.1377 88.7531 33.9011C89.529 34.6603 89.9169 35.6844 89.9169 36.9734Z" fill="#3ECF8E"/>
<path d="M174.453 33.9842C173.794 33.9842 173.199 34.3283 172.67 35.0166C172.14 35.7008 171.875 36.6665 171.875 37.9138C171.875 39.0943 172.182 40.0579 172.795 40.8046C173.412 41.5513 174.132 41.9247 174.954 41.9247C175.696 41.9247 176.313 41.5743 176.806 40.8735C177.302 40.1726 177.55 39.2591 177.55 38.1328C177.55 36.8771 177.252 35.8718 176.656 35.1168C176.059 34.3617 175.325 33.9842 174.453 33.9842ZM178.708 37.8887C178.708 38.9817 178.451 39.8911 177.938 40.6169C177.65 41.0299 177.298 41.3699 176.881 41.6368C176.464 41.8996 175.994 42.0769 175.473 42.1687C174.906 42.3356 174.317 42.6422 173.708 43.0885C173.8 43.076 173.907 43.0698 174.027 43.0698C174.524 43.0698 175.156 43.245 175.923 43.5954C176.695 43.9458 177.256 44.121 177.607 44.121C178.061 44.121 178.433 43.9416 178.72 43.5829L178.933 43.733C178.445 44.4338 177.832 44.7843 177.094 44.7843C176.718 44.7843 176.347 44.7196 175.98 44.5903C175.617 44.4651 175.316 44.3275 175.079 44.1773C174.841 44.0271 174.572 43.8874 174.272 43.7581C173.971 43.6287 173.69 43.5641 173.427 43.5641C173.289 43.5641 173.126 43.6267 172.939 43.7518C172.751 43.8769 172.601 44.0668 172.488 44.3212L171.988 44.0647C172.221 43.7268 172.551 43.3868 172.976 43.0447C173.406 42.7068 173.861 42.4315 174.34 42.2188C173.665 42.1645 173.053 41.9685 172.507 41.6306C171.965 41.2927 171.531 40.8192 171.205 40.2102C170.884 39.6011 170.724 38.9087 170.724 38.1328C170.724 36.9814 171.007 36.0157 171.575 35.2356C171.933 34.7434 172.373 34.3596 172.895 34.0843C173.421 33.809 173.994 33.6713 174.616 33.6713C175.796 33.6713 176.772 34.053 177.544 34.8164C178.32 35.5756 178.708 36.5997 178.708 37.8887Z" fill="#3ECF8E"/>
<path d="M265.987 34.8995C265.328 34.8995 264.734 35.2436 264.204 35.9319C263.674 36.6161 263.409 37.5818 263.409 38.829C263.409 40.0096 263.716 40.9732 264.329 41.7199C264.946 42.4666 265.666 42.84 266.488 42.84C267.23 42.84 267.848 42.4896 268.34 41.7887C268.836 41.0879 269.085 40.1744 269.085 39.048C269.085 37.7924 268.786 36.7871 268.19 36.032C267.593 35.277 266.859 34.8995 265.987 34.8995ZM270.242 38.804C270.242 39.897 269.986 40.8063 269.472 41.5322C269.185 41.9452 268.832 42.2851 268.415 42.5521C267.998 42.8149 267.529 42.9922 267.007 43.084C266.44 43.2509 265.852 43.5575 265.243 44.0038C265.334 43.9913 265.441 43.985 265.562 43.985C266.058 43.985 266.69 44.1602 267.458 44.5107C268.229 44.8611 268.79 45.0363 269.141 45.0363C269.596 45.0363 269.967 44.8569 270.255 44.4981L270.467 44.6483C269.979 45.3491 269.366 45.6995 268.628 45.6995C268.252 45.6995 267.881 45.6349 267.514 45.5056C267.151 45.3804 266.851 45.2428 266.613 45.0926C266.375 44.9424 266.106 44.8027 265.806 44.6733C265.505 44.544 265.224 44.4794 264.961 44.4794C264.823 44.4794 264.661 44.5419 264.473 44.6671C264.285 44.7922 264.135 44.982 264.022 45.2365L263.522 44.9799C263.755 44.6421 264.085 44.3021 264.51 43.96C264.94 43.6221 265.395 43.3468 265.875 43.1341C265.199 43.0798 264.588 42.8838 264.041 42.5459C263.499 42.208 263.065 41.7345 262.74 41.1255C262.418 40.5164 262.258 39.824 262.258 39.048C262.258 37.8967 262.541 36.931 263.109 36.1509C263.468 35.6587 263.908 35.2749 264.429 34.9996C264.955 34.7243 265.528 34.5866 266.15 34.5866C267.33 34.5866 268.307 34.9683 269.078 35.7317C269.854 36.4909 270.242 37.515 270.242 38.804Z" fill="#3ECF8E"/>
<path d="M387.725 34.8995C387.066 34.8995 386.472 35.2436 385.942 35.9319C385.412 36.6161 385.147 37.5818 385.147 38.829C385.147 40.0096 385.454 40.9732 386.067 41.7199C386.685 42.4666 387.404 42.84 388.226 42.84C388.969 42.84 389.586 42.4896 390.078 41.7887C390.575 41.0879 390.823 40.1744 390.823 39.048C390.823 37.7924 390.525 36.7871 389.928 36.032C389.331 35.277 388.597 34.8995 387.725 34.8995ZM391.98 38.804C391.98 39.897 391.724 40.8063 391.211 41.5322C390.923 41.9452 390.57 42.2851 390.153 42.5521C389.736 42.8149 389.267 42.9922 388.745 43.084C388.178 43.2509 387.59 43.5575 386.981 44.0038C387.073 43.9913 387.179 43.985 387.3 43.985C387.796 43.985 388.428 44.1602 389.196 44.5107C389.968 44.8611 390.529 45.0363 390.879 45.0363C391.334 45.0363 391.705 44.8569 391.993 44.4981L392.206 44.6483C391.718 45.3491 391.104 45.6995 390.366 45.6995C389.991 45.6995 389.619 45.6349 389.252 45.5056C388.889 45.3804 388.589 45.2428 388.351 45.0926C388.113 44.9424 387.844 44.8027 387.544 44.6733C387.244 44.544 386.962 44.4794 386.699 44.4794C386.562 44.4794 386.399 44.5419 386.211 44.6671C386.023 44.7922 385.873 44.982 385.761 45.2365L385.26 44.9799C385.494 44.6421 385.823 44.3021 386.249 43.96C386.678 43.6221 387.133 43.3468 387.613 43.1341C386.937 43.0798 386.326 42.8838 385.779 42.5459C385.237 42.208 384.803 41.7345 384.478 41.1255C384.157 40.5164 383.996 39.824 383.996 39.048C383.996 37.8967 384.28 36.931 384.847 36.1509C385.206 35.6587 385.646 35.2749 386.167 34.9996C386.693 34.7243 387.267 34.5866 387.888 34.5866C389.069 34.5866 390.045 34.9683 390.817 35.7317C391.592 36.4909 391.98 37.515 391.98 38.804Z" fill="#3ECF8E"/>
<path d="M93.458 43.0984C93.1846 43.0984 92.9496 43.0472 92.7531 42.9446C92.5566 42.8378 92.3943 42.6862 92.2662 42.4897C92.138 42.2932 92.044 42.0519 91.9842 41.7657C91.9244 41.4795 91.8945 41.1527 91.8945 40.7853C91.8945 40.4222 91.9244 40.0976 91.9842 39.8114C92.044 39.5209 92.138 39.2774 92.2662 39.0809C92.3943 38.8844 92.5566 38.7349 92.7531 38.6324C92.9496 38.5256 93.1846 38.4722 93.458 38.4722C93.7313 38.4722 93.9663 38.5256 94.1628 38.6324C94.3593 38.7349 94.5216 38.8844 94.6497 39.0809C94.7779 39.2774 94.8719 39.5209 94.9317 39.8114C94.9915 40.0976 95.0214 40.4222 95.0214 40.7853C95.0214 41.1527 94.9915 41.4795 94.9317 41.7657C94.8719 42.0519 94.7779 42.2932 94.6497 42.4897C94.5216 42.6862 94.3593 42.8378 94.1628 42.9446C93.9663 43.0472 93.7313 43.0984 93.458 43.0984ZM93.458 42.6307C93.6374 42.6307 93.7911 42.5965 93.9193 42.5281C94.0474 42.4555 94.15 42.3551 94.2268 42.227C94.308 42.0988 94.3678 41.9451 94.4063 41.7657C94.4447 41.582 94.4639 41.3769 94.4639 41.1505V40.4201C94.4639 40.198 94.4447 39.9951 94.4063 39.8114C94.3678 39.6277 94.308 39.4718 94.2268 39.3436C94.15 39.2155 94.0474 39.1172 93.9193 39.0489C93.7911 38.9763 93.6374 38.94 93.458 38.94C93.2785 38.94 93.1248 38.9763 92.9966 39.0489C92.8685 39.1172 92.7638 39.2155 92.6826 39.3436C92.6058 39.4718 92.5481 39.6277 92.5096 39.8114C92.4712 39.9951 92.452 40.198 92.452 40.4201V41.1505C92.452 41.3769 92.4712 41.582 92.5096 41.7657C92.5481 41.9451 92.6058 42.0988 92.6826 42.227C92.7638 42.3551 92.8685 42.4555 92.9966 42.5281C93.1248 42.5965 93.2785 42.6307 93.458 42.6307ZM93.458 41.1634C93.3084 41.1634 93.2038 41.1335 93.144 41.0737C93.0885 41.0139 93.0607 40.9412 93.0607 40.8558V40.7148C93.0607 40.6294 93.0885 40.5568 93.144 40.497C93.2038 40.4372 93.3084 40.4073 93.458 40.4073C93.6075 40.4073 93.71 40.4372 93.7655 40.497C93.8253 40.5568 93.8552 40.6294 93.8552 40.7148V40.8558C93.8552 40.9412 93.8253 41.0139 93.7655 41.0737C93.71 41.1335 93.6075 41.1634 93.458 41.1634Z" fill="#3ECF8E"/>
<path d="M182.248 44.0137C181.975 44.0137 181.74 43.9625 181.543 43.8599C181.347 43.7532 181.184 43.6015 181.056 43.405C180.928 43.2085 180.834 42.9672 180.774 42.681C180.714 42.3948 180.685 42.068 180.685 41.7006C180.685 41.3375 180.714 41.0129 180.774 40.7267C180.834 40.4362 180.928 40.1927 181.056 39.9963C181.184 39.7998 181.347 39.6502 181.543 39.5477C181.74 39.4409 181.975 39.3875 182.248 39.3875C182.521 39.3875 182.756 39.4409 182.953 39.5477C183.149 39.6502 183.312 39.7998 183.44 39.9963C183.568 40.1927 183.662 40.4362 183.722 40.7267C183.782 41.0129 183.811 41.3375 183.811 41.7006C183.811 42.068 183.782 42.3948 183.722 42.681C183.662 42.9672 183.568 43.2085 183.44 43.405C183.312 43.6015 183.149 43.7532 182.953 43.8599C182.756 43.9625 182.521 44.0137 182.248 44.0137ZM182.248 43.546C182.427 43.546 182.581 43.5118 182.709 43.4435C182.837 43.3708 182.94 43.2705 183.017 43.1423C183.098 43.0142 183.158 42.8604 183.196 42.681C183.235 42.4973 183.254 42.2923 183.254 42.0659V41.3354C183.254 41.1133 183.235 40.9104 183.196 40.7267C183.158 40.543 183.098 40.3871 183.017 40.259C182.94 40.1308 182.837 40.0326 182.709 39.9642C182.581 39.8916 182.427 39.8553 182.248 39.8553C182.069 39.8553 181.915 39.8916 181.787 39.9642C181.659 40.0326 181.554 40.1308 181.473 40.259C181.396 40.3871 181.338 40.543 181.3 40.7267C181.261 40.9104 181.242 41.1133 181.242 41.3354V42.0659C181.242 42.2923 181.261 42.4973 181.3 42.681C181.338 42.8604 181.396 43.0142 181.473 43.1423C181.554 43.2705 181.659 43.3708 181.787 43.4435C181.915 43.5118 182.069 43.546 182.248 43.546ZM182.248 42.0787C182.098 42.0787 181.994 42.0488 181.934 41.989C181.878 41.9292 181.851 41.8565 181.851 41.7711V41.6302C181.851 41.5447 181.878 41.4721 181.934 41.4123C181.994 41.3525 182.098 41.3226 182.248 41.3226C182.397 41.3226 182.5 41.3525 182.556 41.4123C182.615 41.4721 182.645 41.5447 182.645 41.6302V41.7711C182.645 41.8565 182.615 41.9292 182.556 41.989C182.5 42.0488 182.397 42.0787 182.248 42.0787Z" fill="#3ECF8E"/>
<path d="M395.528 44.9291C395.255 44.9291 395.02 44.8778 394.823 44.7753C394.627 44.6685 394.465 44.5169 394.336 44.3204C394.208 44.1239 394.114 43.8825 394.055 43.5963C393.995 43.3101 393.965 42.9833 393.965 42.616C393.965 42.2529 393.995 41.9282 394.055 41.642C394.114 41.3516 394.208 41.1081 394.336 40.9116C394.465 40.7151 394.627 40.5656 394.823 40.4631C395.02 40.3563 395.255 40.3029 395.528 40.3029C395.802 40.3029 396.037 40.3563 396.233 40.4631C396.43 40.5656 396.592 40.7151 396.72 40.9116C396.848 41.1081 396.942 41.3516 397.002 41.642C397.062 41.9282 397.092 42.2529 397.092 42.616C397.092 42.9833 397.062 43.3101 397.002 43.5963C396.942 43.8825 396.848 44.1239 396.72 44.3204C396.592 44.5169 396.43 44.6685 396.233 44.7753C396.037 44.8778 395.802 44.9291 395.528 44.9291ZM395.528 44.4613C395.708 44.4613 395.861 44.4272 395.99 44.3588C396.118 44.2862 396.22 44.1858 396.297 44.0577C396.378 43.9295 396.438 43.7757 396.477 43.5963C396.515 43.4126 396.534 43.2076 396.534 42.9812V42.2508C396.534 42.0286 396.515 41.8257 396.477 41.642C396.438 41.4584 396.378 41.3024 396.297 41.1743C396.22 41.0462 396.118 40.9479 395.99 40.8796C395.861 40.8069 395.708 40.7706 395.528 40.7706C395.349 40.7706 395.195 40.8069 395.067 40.8796C394.939 40.9479 394.834 41.0462 394.753 41.1743C394.676 41.3024 394.618 41.4584 394.58 41.642C394.542 41.8257 394.522 42.0286 394.522 42.2508V42.9812C394.522 43.2076 394.542 43.4126 394.58 43.5963C394.618 43.7757 394.676 43.9295 394.753 44.0577C394.834 44.1858 394.939 44.2862 395.067 44.3588C395.195 44.4272 395.349 44.4613 395.528 44.4613ZM395.528 42.994C395.379 42.994 395.274 42.9641 395.214 42.9043C395.159 42.8445 395.131 42.7719 395.131 42.6865V42.5455C395.131 42.4601 395.159 42.3874 395.214 42.3276C395.274 42.2678 395.379 42.2379 395.528 42.2379C395.678 42.2379 395.78 42.2678 395.836 42.3276C395.896 42.3874 395.926 42.4601 395.926 42.5455V42.6865C395.926 42.7719 395.896 42.8445 395.836 42.9043C395.78 42.9641 395.678 42.994 395.528 42.994Z" fill="#3ECF8E"/>
<path d="M102.556 77.887H103.039C103.039 77.5437 103.037 77.2648 103.033 77.0503C103.03 76.8322 103.024 76.682 103.017 76.5998C103.01 76.514 103.006 76.4639 103.006 76.4496C103.006 76.4139 103.021 76.387 103.049 76.3692C103.081 76.3513 103.133 76.3316 103.205 76.3102C103.28 76.2851 103.335 76.2655 103.371 76.2512C103.414 76.2369 103.464 76.2136 103.521 76.1814C103.582 76.1493 103.634 76.1224 103.677 76.101C103.72 76.076 103.754 76.0634 103.779 76.0634C103.829 76.0634 103.854 76.0974 103.854 76.1654C103.832 76.4442 103.818 76.8107 103.811 77.2648L103.8 77.887H105.061C105.111 77.887 105.137 77.9102 105.141 77.9567V78.0747C105.141 78.1641 105.055 78.2088 104.884 78.2088H103.8C103.743 79.5353 103.723 80.4829 103.741 81.0514C103.755 81.4089 103.784 81.6592 103.827 81.8023C103.873 81.9453 103.963 82.0168 104.095 82.0168C104.388 82.0168 104.699 81.8934 105.028 81.6467C105.086 81.661 105.123 81.7111 105.141 81.7969C104.73 82.2582 104.256 82.4888 103.72 82.4888C103.23 82.4888 102.985 82.1419 102.985 81.4483C102.985 81.2588 102.994 80.7671 103.012 79.9734C103.03 79.176 103.039 78.5878 103.039 78.2088H102.427C102.391 78.2088 102.372 78.1856 102.368 78.1391V78.0425C102.368 77.9388 102.431 77.887 102.556 77.887Z" fill="#A6A6A6"/>
<path d="M98.1567 79.3834C98.1567 80.2558 98.1639 80.8744 98.1782 81.2391C98.1925 81.6646 98.2318 81.9238 98.2962 82.0168C98.3641 82.1062 98.5322 82.1616 98.8003 82.183C98.8289 82.2116 98.8432 82.2528 98.8432 82.3064C98.8468 82.3565 98.8325 82.3994 98.8003 82.4351C98.668 82.4351 98.5053 82.4262 98.3123 82.4083C98.1192 82.3904 97.9493 82.3815 97.8027 82.3815C97.6418 82.3815 97.4434 82.3904 97.2074 82.4083C96.975 82.4262 96.7998 82.4351 96.6818 82.4351C96.5996 82.3529 96.5996 82.2689 96.6818 82.183C96.9964 82.1616 97.1931 82.1044 97.2718 82.0114C97.354 81.9149 97.4023 81.6574 97.4166 81.2391C97.4309 80.9101 97.438 80.0466 97.438 78.6486C97.438 77.2505 97.4309 76.3852 97.4166 76.0527C97.4023 75.6415 97.3612 75.4002 97.2932 75.3286C97.2289 75.2571 97.0465 75.2142 96.7462 75.1999C96.6818 75.1356 96.6603 75.0658 96.6818 74.9907C97.2968 74.9407 97.7652 74.8477 98.087 74.7119C98.1764 74.7119 98.2211 74.7458 98.2211 74.8138C98.1996 75.3322 98.1853 75.6612 98.1782 75.8006L98.1406 78.6378C98.1406 78.7344 98.1782 78.7344 98.2533 78.6378C98.7646 78.0658 99.3653 77.7797 100.055 77.7797C100.452 77.7797 100.742 77.8995 100.924 78.1391C101.121 78.3965 101.205 78.8667 101.176 79.5496C101.155 80.1146 101.155 80.6777 101.176 81.2391C101.191 81.6574 101.235 81.9131 101.31 82.0061C101.389 82.0954 101.579 82.1544 101.879 82.183C101.95 82.2724 101.95 82.3565 101.879 82.4351C101.739 82.4351 101.562 82.4262 101.348 82.4083C101.137 82.3904 100.955 82.3815 100.801 82.3815C100.654 82.3815 100.475 82.3904 100.265 82.4083C100.057 82.4262 99.8891 82.4351 99.7604 82.4351C99.6889 82.3529 99.6889 82.2689 99.7604 82.183C100.039 82.1544 100.213 82.0954 100.281 82.0061C100.349 81.9131 100.39 81.6574 100.404 81.2391C100.425 80.6598 100.425 80.0842 100.404 79.5121C100.383 78.9757 100.332 78.6325 100.254 78.4823C100.129 78.232 99.9409 78.1069 99.6907 78.1069C99.3402 78.1069 98.8861 78.3858 98.3284 78.9436C98.2139 79.0616 98.1567 79.2082 98.1567 79.3834Z" fill="#A6A6A6"/>
<path d="M94.2148 80.4292C94.4007 80.2219 94.4937 79.8983 94.4937 79.4585C94.4937 79.0187 94.4007 78.6718 94.2148 78.418C94.0324 78.1605 93.7767 78.0318 93.4478 78.0318C93.1617 78.0318 92.9436 78.1373 92.7935 78.3482C92.6433 78.5556 92.5682 78.8453 92.5682 79.2171C92.5682 80.229 92.9061 80.735 93.5819 80.735C93.8179 80.735 94.0288 80.633 94.2148 80.4292ZM92.5038 82.4888C92.2607 82.7748 92.1391 83.1377 92.1391 83.5775C92.1391 83.928 92.2661 84.2211 92.5199 84.4571C92.7738 84.6931 93.0795 84.8111 93.4371 84.8111C93.9269 84.8111 94.3792 84.6752 94.794 84.4035C95.2088 84.1318 95.4162 83.8135 95.4162 83.4488C95.4162 83.1485 95.2356 82.8946 94.8745 82.6872C94.6385 82.5621 94.2434 82.5013 93.6891 82.5049C93.6605 82.5049 93.5568 82.5102 93.3781 82.521C93.1993 82.5317 93.0473 82.537 92.9222 82.537C92.7398 82.5335 92.6004 82.5174 92.5038 82.4888ZM95.7648 78.3268C95.6396 78.3268 95.5449 78.2642 95.4805 78.1391C95.4233 78.0497 95.3536 78.0068 95.2713 78.0104C95.207 78.0104 95.1283 78.039 95.0354 78.0962C94.946 78.1498 94.8816 78.2052 94.8423 78.2624C95.1355 78.5628 95.2821 78.9257 95.2821 79.3512C95.2821 79.8411 95.1104 80.2362 94.7672 80.5365C94.4239 80.8369 94.0109 80.987 93.5282 80.987C93.1993 80.987 92.8828 80.903 92.5789 80.735C92.4252 80.9602 92.3483 81.1658 92.3483 81.3517C92.3483 81.5341 92.4234 81.6896 92.5736 81.8184C92.7237 81.9435 92.8828 82.0061 93.0509 82.0061C93.0581 82.0061 93.1653 81.9989 93.3727 81.9846C93.6516 81.9489 93.8858 81.931 94.0753 81.931C94.8155 81.931 95.325 82.049 95.6039 82.285C95.9114 82.5388 96.0651 82.8338 96.0651 83.1699C96.0651 83.7134 95.7612 84.1675 95.1533 84.5322C94.5455 84.9005 93.8679 85.0847 93.1206 85.0847C92.6737 85.0847 92.2804 84.9738 91.9407 84.7521C91.6046 84.534 91.4365 84.2122 91.4365 83.7867C91.4365 83.5507 91.5152 83.3022 91.6725 83.0412C91.8298 82.7838 92.0444 82.5746 92.3161 82.4137C91.9192 82.2742 91.7226 82.0043 91.7261 81.6038C91.7261 81.2248 91.9157 80.8726 92.2947 80.5472C91.9514 80.2183 91.7798 79.8268 91.7798 79.3727C91.7798 78.9043 91.9514 78.5217 92.2947 78.2249C92.6379 77.9281 93.0527 77.7797 93.539 77.7797C93.9931 77.7797 94.3542 77.8781 94.6224 78.0747C94.7475 77.9138 94.9156 77.7869 95.1265 77.6939C95.3411 77.5974 95.5252 77.5491 95.679 77.5491C95.8184 77.5491 95.9328 77.5866 96.0222 77.6617C96.1152 77.7332 96.1617 77.8244 96.1617 77.9353C96.1617 78.039 96.1205 78.1301 96.0383 78.2088C95.9596 78.2875 95.8685 78.3268 95.7648 78.3268Z" fill="#A6A6A6"/>
<path d="M89.1774 75.8005C89.1774 75.6682 89.24 75.5485 89.3652 75.4412C89.4903 75.3304 89.619 75.2749 89.7513 75.2749C89.8908 75.2749 90.0123 75.3357 90.116 75.4573C90.2233 75.5789 90.2769 75.7076 90.2769 75.8435C90.2769 75.9686 90.2179 76.0884 90.0999 76.2028C89.9855 76.3172 89.855 76.3744 89.7084 76.3744C89.5761 76.3744 89.4546 76.3136 89.3437 76.1921C89.2329 76.0705 89.1774 75.94 89.1774 75.8005ZM90.1214 81.1854C90.1286 81.6323 90.1768 81.9059 90.2662 82.006C90.3556 82.1025 90.5719 82.1615 90.9152 82.183C90.9438 82.2116 90.9581 82.2527 90.9581 82.3063C90.9581 82.3564 90.9438 82.3993 90.9152 82.435C90.7757 82.435 90.5844 82.4261 90.3413 82.4082C90.1017 82.3904 89.8979 82.3814 89.7299 82.3814C89.5618 82.3814 89.3526 82.3904 89.1024 82.4082C88.8521 82.4261 88.6608 82.435 88.5285 82.435C88.4462 82.3528 88.4462 82.2688 88.5285 82.183C88.8717 82.1544 89.0863 82.0918 89.1721 81.9952C89.2579 81.8951 89.308 81.6252 89.3223 81.1854C89.3366 80.6955 89.3437 80.2861 89.3437 79.9572C89.3437 79.7641 89.3366 79.4476 89.3223 79.0078C89.3151 78.6932 89.2704 78.4983 89.1882 78.4232C89.1095 78.3446 88.9164 78.2909 88.6089 78.2623C88.5803 78.1729 88.5732 78.1068 88.5875 78.0639C89.2239 77.9817 89.7102 77.8762 90.0463 77.7475C90.1429 77.7475 90.1911 77.7725 90.1911 77.8225C90.1875 77.8654 90.1822 77.9262 90.175 78.0049C90.1715 78.08 90.1643 78.2176 90.1536 78.4179C90.1429 78.6181 90.1321 78.7987 90.1214 78.9596C90.1142 79.1169 90.1089 79.2814 90.1053 79.453C90.1017 79.6211 90.0999 79.7927 90.0999 79.9679C90.0999 80.1502 90.1071 80.5561 90.1214 81.1854Z" fill="#A6A6A6"/>
<path d="M84.6692 79.5389L86.7931 79.4799C86.8968 79.4799 86.9468 79.4334 86.9432 79.3404C86.9432 78.9221 86.8467 78.6003 86.6536 78.375C86.4605 78.1462 86.2281 78.0318 85.9564 78.0318C85.6989 78.0318 85.4415 78.1516 85.1841 78.3911C84.9302 78.6307 84.7586 79.0133 84.6692 79.5389ZM87.5708 81.4053C87.6888 81.4125 87.7621 81.4697 87.7907 81.577C87.3294 82.1848 86.718 82.4887 85.9564 82.4887C85.2234 82.4887 84.671 82.2671 84.2991 81.8237C83.9701 81.4447 83.8057 80.9244 83.8057 80.2629C83.8057 79.5156 84.0291 78.9149 84.4761 78.4608C84.923 78.0067 85.4165 77.7797 85.9564 77.7797C86.6214 77.7797 87.0916 77.9585 87.3669 78.316C87.6423 78.67 87.7799 79.1062 87.7799 79.6247C87.7799 79.7498 87.7138 79.8124 87.5815 79.8124L84.637 79.8553C84.637 80.4775 84.7478 80.9673 84.9695 81.3249C85.1233 81.5752 85.3163 81.7647 85.5488 81.8934C85.7848 82.0221 86.0082 82.0865 86.2192 82.0865C86.4981 82.0865 86.7376 82.0293 86.9379 81.9149C87.1417 81.8004 87.3526 81.6306 87.5708 81.4053Z" fill="#A6A6A6"/>
<path d="M79.5356 79.3834C79.5356 80.2558 79.5428 80.8744 79.5571 81.2391C79.5714 81.6646 79.6107 81.9238 79.6751 82.0168C79.743 82.1062 79.9111 82.1616 80.1792 82.183C80.2078 82.2116 80.2221 82.2528 80.2221 82.3064C80.2257 82.3565 80.2114 82.3994 80.1792 82.4351C80.0469 82.4351 79.8843 82.4262 79.6912 82.4083C79.4981 82.3904 79.3282 82.3815 79.1816 82.3815C79.0207 82.3815 78.8223 82.3904 78.5863 82.4083C78.3539 82.4262 78.1787 82.4351 78.0607 82.4351C77.9785 82.3529 77.9785 82.2689 78.0607 82.183C78.3754 82.1616 78.572 82.1044 78.6507 82.0114C78.7329 81.9149 78.7812 81.6574 78.7955 81.2391C78.8098 80.9101 78.8169 80.0466 78.8169 78.6486C78.8169 77.2505 78.8098 76.3852 78.7955 76.0527C78.7812 75.6415 78.7401 75.4002 78.6721 75.3286C78.6078 75.2571 78.4254 75.2142 78.1251 75.1999C78.0607 75.1356 78.0392 75.0658 78.0607 74.9907C78.6757 74.9407 79.1441 74.8477 79.4659 74.7119C79.5553 74.7119 79.6 74.7458 79.6 74.8138C79.5785 75.3322 79.5642 75.6612 79.5571 75.8006L79.5195 78.6378C79.5195 78.7344 79.5571 78.7344 79.6322 78.6378C80.1435 78.0658 80.7442 77.7797 81.4343 77.7797C81.8312 77.7797 82.1208 77.8995 82.3031 78.1391C82.4998 78.3965 82.5838 78.8667 82.5552 79.5496C82.5338 80.1146 82.5338 80.6777 82.5552 81.2391C82.5695 81.6574 82.6142 81.9131 82.6893 82.0061C82.768 82.0954 82.9575 82.1544 83.2578 82.183C83.3293 82.2724 83.3293 82.3565 83.2578 82.4351C83.1184 82.4351 82.9414 82.4262 82.7268 82.4083C82.5159 82.3904 82.3335 82.3815 82.1798 82.3815C82.0332 82.3815 81.8544 82.3904 81.6434 82.4083C81.4361 82.4262 81.268 82.4351 81.1393 82.4351C81.0678 82.3529 81.0678 82.2689 81.1393 82.183C81.4182 82.1544 81.5916 82.0954 81.6595 82.0061C81.7275 81.9131 81.7686 81.6574 81.7829 81.2391C81.8043 80.6598 81.8043 80.0842 81.7829 79.5121C81.7614 78.9757 81.7114 78.6325 81.6327 78.4823C81.5076 78.232 81.3199 78.1069 81.0696 78.1069C80.7192 78.1069 80.2651 78.3858 79.7073 78.9436C79.5928 79.0616 79.5356 79.2082 79.5356 79.3834Z" fill="#A6A6A6"/>
<path d="M185.847 78.8023H186.33C186.33 78.4591 186.328 78.1802 186.324 77.9656C186.321 77.7475 186.315 77.5973 186.308 77.5151C186.301 77.4293 186.297 77.3792 186.297 77.3649C186.297 77.3292 186.312 77.3024 186.34 77.2845C186.373 77.2666 186.424 77.2469 186.496 77.2255C186.571 77.2004 186.626 77.1808 186.662 77.1665C186.705 77.1522 186.755 77.1289 186.812 77.0968C186.873 77.0646 186.925 77.0378 186.968 77.0163C187.011 76.9913 187.045 76.9788 187.07 76.9788C187.12 76.9788 187.145 77.0127 187.145 77.0807C187.123 77.3596 187.109 77.7261 187.102 78.1802L187.091 78.8023H188.352C188.402 78.8023 188.428 78.8256 188.432 78.872V78.99C188.432 79.0794 188.346 79.1241 188.175 79.1241H187.091C187.034 80.4507 187.014 81.3982 187.032 81.9667C187.047 82.3243 187.075 82.5746 187.118 82.7176C187.165 82.8606 187.254 82.9321 187.386 82.9321C187.679 82.9321 187.99 82.8088 188.319 82.562C188.377 82.5763 188.414 82.6264 188.432 82.7122C188.021 83.1735 187.547 83.4041 187.011 83.4041C186.521 83.4041 186.276 83.0573 186.276 82.3636C186.276 82.1741 186.285 81.6824 186.303 80.8887C186.321 80.0913 186.33 79.5031 186.33 79.1241H185.718C185.682 79.1241 185.663 79.1009 185.659 79.0544V78.9578C185.659 78.8542 185.722 78.8023 185.847 78.8023Z" fill="#A6A6A6"/>
<path d="M181.447 80.2987C181.447 81.1711 181.454 81.7897 181.468 82.1544C181.483 82.5799 181.522 82.8392 181.586 82.9321C181.654 83.0215 181.822 83.0769 182.09 83.0984C182.119 83.127 182.133 83.1681 182.133 83.2217C182.137 83.2718 182.123 83.3147 182.09 83.3505C181.958 83.3505 181.795 83.3415 181.602 83.3236C181.409 83.3058 181.239 83.2968 181.093 83.2968C180.932 83.2968 180.733 83.3058 180.497 83.3236C180.265 83.3415 180.09 83.3505 179.972 83.3505C179.89 83.2682 179.89 83.1842 179.972 83.0984C180.286 83.0769 180.483 83.0197 180.562 82.9268C180.644 82.8302 180.692 82.5728 180.707 82.1544C180.721 81.8255 180.728 80.962 180.728 79.5639C180.728 78.1659 180.721 77.3006 180.707 76.968C180.692 76.5568 180.651 76.3155 180.583 76.244C180.519 76.1725 180.337 76.1296 180.036 76.1153C179.972 76.0509 179.95 75.9812 179.972 75.9061C180.587 75.856 181.055 75.7631 181.377 75.6272C181.466 75.6272 181.511 75.6612 181.511 75.7291C181.49 76.2476 181.475 76.5765 181.468 76.716L181.431 79.5532C181.431 79.6497 181.468 79.6497 181.543 79.5532C182.055 78.9811 182.655 78.6951 183.345 78.6951C183.742 78.6951 184.032 78.8148 184.214 79.0544C184.411 79.3118 184.495 79.782 184.466 80.465C184.445 81.0299 184.445 81.5931 184.466 82.1544C184.481 82.5728 184.525 82.8284 184.6 82.9214C184.679 83.0108 184.869 83.0698 185.169 83.0984C185.24 83.1878 185.24 83.2718 185.169 83.3505C185.03 83.3505 184.853 83.3415 184.638 83.3236C184.427 83.3058 184.245 83.2968 184.091 83.2968C183.944 83.2968 183.766 83.3058 183.555 83.3236C183.347 83.3415 183.179 83.3505 183.05 83.3505C182.979 83.2682 182.979 83.1842 183.05 83.0984C183.329 83.0698 183.503 83.0108 183.571 82.9214C183.639 82.8284 183.68 82.5728 183.694 82.1544C183.715 81.5752 183.715 80.9995 183.694 80.4274C183.673 79.8911 183.623 79.5478 183.544 79.3977C183.419 79.1474 183.231 79.0222 182.981 79.0222C182.63 79.0222 182.176 79.3011 181.618 79.8589C181.504 79.9769 181.447 80.1235 181.447 80.2987Z" fill="#A6A6A6"/>
<path d="M177.506 81.3446C177.692 81.1372 177.785 80.8136 177.785 80.3738C177.785 79.934 177.692 79.5872 177.506 79.3333C177.323 79.0759 177.068 78.9472 176.739 78.9472C176.453 78.9472 176.235 79.0526 176.084 79.2636C175.934 79.471 175.859 79.7606 175.859 80.1325C175.859 81.1443 176.197 81.6503 176.873 81.6503C177.109 81.6503 177.32 81.5484 177.506 81.3446ZM175.795 83.4041C175.552 83.6902 175.43 84.0531 175.43 84.4929C175.43 84.8433 175.557 85.1365 175.811 85.3725C176.065 85.6085 176.371 85.7265 176.728 85.7265C177.218 85.7265 177.67 85.5906 178.085 85.3188C178.5 85.0471 178.707 84.7289 178.707 84.3642C178.707 84.0638 178.527 83.81 178.165 83.6026C177.929 83.4774 177.534 83.4166 176.98 83.4202C176.952 83.4202 176.848 83.4256 176.669 83.4363C176.49 83.447 176.338 83.4524 176.213 83.4524C176.031 83.4488 175.891 83.4327 175.795 83.4041ZM179.056 79.2421C178.931 79.2421 178.836 79.1796 178.772 79.0544C178.714 78.965 178.645 78.9221 178.562 78.9257C178.498 78.9257 178.419 78.9543 178.326 79.0115C178.237 79.0651 178.173 79.1206 178.133 79.1778C178.426 79.4781 178.573 79.841 178.573 80.2665C178.573 80.7564 178.401 81.1515 178.058 81.4519C177.715 81.7522 177.302 81.9024 176.819 81.9024C176.49 81.9024 176.174 81.8183 175.87 81.6503C175.716 81.8756 175.639 82.0812 175.639 82.2671C175.639 82.4494 175.714 82.605 175.865 82.7337C176.015 82.8588 176.174 82.9214 176.342 82.9214C176.349 82.9214 176.456 82.9143 176.664 82.9C176.943 82.8642 177.177 82.8463 177.366 82.8463C178.106 82.8463 178.616 82.9643 178.895 83.2003C179.202 83.4542 179.356 83.7492 179.356 84.0853C179.356 84.6288 179.052 85.0829 178.444 85.4476C177.837 85.8159 177.159 86 176.412 86C175.965 86 175.571 85.8892 175.232 85.6675C174.896 85.4494 174.728 85.1276 174.728 84.7021C174.728 84.4661 174.806 84.2176 174.964 83.9565C175.121 83.6991 175.335 83.4899 175.607 83.329C175.21 83.1896 175.014 82.9196 175.017 82.5192C175.017 82.1402 175.207 81.788 175.586 81.4626C175.242 81.1336 175.071 80.7421 175.071 80.288C175.071 79.8196 175.242 79.437 175.586 79.1402C175.929 78.8435 176.344 78.6951 176.83 78.6951C177.284 78.6951 177.645 78.7934 177.913 78.9901C178.039 78.8292 178.207 78.7022 178.418 78.6093C178.632 78.5127 178.816 78.4644 178.97 78.4644C179.109 78.4644 179.224 78.502 179.313 78.5771C179.406 78.6486 179.453 78.7398 179.453 78.8506C179.453 78.9543 179.412 79.0455 179.329 79.1241C179.251 79.2028 179.159 79.2421 179.056 79.2421Z" fill="#A6A6A6"/>
<path d="M172.467 76.7159C172.467 76.5836 172.53 76.4638 172.655 76.3565C172.78 76.2457 172.909 76.1902 173.041 76.1902C173.181 76.1902 173.302 76.251 173.406 76.3726C173.513 76.4942 173.567 76.6229 173.567 76.7588C173.567 76.8839 173.508 77.0037 173.39 77.1181C173.276 77.2325 173.145 77.2897 172.998 77.2897C172.866 77.2897 172.745 77.229 172.634 77.1074C172.523 76.9858 172.467 76.8553 172.467 76.7159ZM173.411 82.1007C173.419 82.5476 173.467 82.8212 173.556 82.9213C173.646 83.0178 173.862 83.0768 174.205 83.0983C174.234 83.1269 174.248 83.168 174.248 83.2216C174.248 83.2717 174.234 83.3146 174.205 83.3504C174.066 83.3504 173.874 83.3414 173.631 83.3235C173.392 83.3057 173.188 83.2967 173.02 83.2967C172.852 83.2967 172.643 83.3057 172.392 83.3235C172.142 83.3414 171.951 83.3504 171.819 83.3504C171.736 83.2681 171.736 83.1841 171.819 83.0983C172.162 83.0697 172.376 83.0071 172.462 82.9106C172.548 82.8104 172.598 82.5405 172.612 82.1007C172.627 81.6108 172.634 81.2014 172.634 80.8725C172.634 80.6794 172.627 80.363 172.612 79.9232C172.605 79.6085 172.56 79.4136 172.478 79.3386C172.4 79.2599 172.206 79.2063 171.899 79.1776C171.87 79.0883 171.863 79.0221 171.878 78.9792C172.514 78.897 173 78.7915 173.336 78.6628C173.433 78.6628 173.481 78.6878 173.481 78.7379C173.478 78.7808 173.472 78.8415 173.465 78.9202C173.461 78.9953 173.454 79.133 173.444 79.3332C173.433 79.5334 173.422 79.714 173.411 79.8749C173.404 80.0322 173.399 80.1967 173.395 80.3683C173.392 80.5364 173.39 80.708 173.39 80.8832C173.39 81.0656 173.397 81.4714 173.411 82.1007Z" fill="#A6A6A6"/>
<path d="M167.96 80.4542L170.084 80.3952C170.188 80.3952 170.238 80.3487 170.234 80.2558C170.234 79.8374 170.138 79.5156 169.945 79.2904C169.752 79.0615 169.519 78.9471 169.247 78.9471C168.99 78.9471 168.733 79.0669 168.475 79.3065C168.221 79.546 168.05 79.9286 167.96 80.4542ZM170.862 82.3207C170.98 82.3278 171.053 82.385 171.082 82.4923C170.62 83.1002 170.009 83.4041 169.247 83.4041C168.514 83.4041 167.962 83.1824 167.59 82.739C167.261 82.36 167.097 81.8398 167.097 81.1783C167.097 80.431 167.32 79.8303 167.767 79.3762C168.214 78.9221 168.707 78.695 169.247 78.695C169.912 78.695 170.383 78.8738 170.658 79.2314C170.933 79.5854 171.071 80.0216 171.071 80.54C171.071 80.6652 171.005 80.7278 170.873 80.7278L167.928 80.7707C167.928 81.3928 168.039 81.8827 168.261 82.2402C168.414 82.4905 168.607 82.68 168.84 82.8088C169.076 82.9375 169.299 83.0018 169.51 83.0018C169.789 83.0018 170.029 82.9446 170.229 82.8302C170.433 82.7158 170.644 82.5459 170.862 82.3207Z" fill="#A6A6A6"/>
<path d="M162.827 80.2987C162.827 81.1711 162.834 81.7897 162.848 82.1544C162.862 82.5799 162.902 82.8392 162.966 82.9321C163.034 83.0215 163.202 83.0769 163.47 83.0984C163.499 83.127 163.513 83.1681 163.513 83.2217C163.517 83.2718 163.502 83.3147 163.47 83.3505C163.338 83.3505 163.175 83.3415 162.982 83.3236C162.789 83.3058 162.619 83.2968 162.473 83.2968C162.312 83.2968 162.113 83.3058 161.877 83.3236C161.645 83.3415 161.47 83.3505 161.352 83.3505C161.269 83.2682 161.269 83.1842 161.352 83.0984C161.666 83.0769 161.863 83.0197 161.942 82.9268C162.024 82.8302 162.072 82.5728 162.087 82.1544C162.101 81.8255 162.108 80.962 162.108 79.5639C162.108 78.1659 162.101 77.3006 162.087 76.968C162.072 76.5568 162.031 76.3155 161.963 76.244C161.899 76.1725 161.716 76.1296 161.416 76.1153C161.352 76.0509 161.33 75.9812 161.352 75.9061C161.967 75.856 162.435 75.7631 162.757 75.6272C162.846 75.6272 162.891 75.6612 162.891 75.7291C162.87 76.2476 162.855 76.5765 162.848 76.716L162.811 79.5532C162.811 79.6497 162.848 79.6497 162.923 79.5532C163.434 78.9811 164.035 78.6951 164.725 78.6951C165.122 78.6951 165.412 78.8148 165.594 79.0544C165.791 79.3118 165.875 79.782 165.846 80.465C165.825 81.0299 165.825 81.5931 165.846 82.1544C165.861 82.5728 165.905 82.8284 165.98 82.9214C166.059 83.0108 166.248 83.0698 166.549 83.0984C166.62 83.1878 166.62 83.2718 166.549 83.3505C166.409 83.3505 166.232 83.3415 166.018 83.3236C165.807 83.3058 165.625 83.2968 165.471 83.2968C165.324 83.2968 165.145 83.3058 164.934 83.3236C164.727 83.3415 164.559 83.3505 164.43 83.3505C164.359 83.2682 164.359 83.1842 164.43 83.0984C164.709 83.0698 164.883 83.0108 164.951 82.9214C165.018 82.8284 165.06 82.5728 165.074 82.1544C165.095 81.5752 165.095 80.9995 165.074 80.4274C165.052 79.8911 165.002 79.5478 164.924 79.3977C164.799 79.1474 164.611 79.0222 164.361 79.0222C164.01 79.0222 163.556 79.3011 162.998 79.8589C162.884 79.9769 162.827 80.1235 162.827 80.2987Z" fill="#A6A6A6"/>
<path d="M273.724 77.887H274.207C274.207 77.5437 274.205 77.2648 274.201 77.0503C274.198 76.8322 274.192 76.682 274.185 76.5998C274.178 76.514 274.174 76.4639 274.174 76.4496C274.174 76.4139 274.189 76.387 274.217 76.3692C274.249 76.3513 274.301 76.3316 274.373 76.3102C274.448 76.2851 274.503 76.2655 274.539 76.2512C274.582 76.2369 274.632 76.2136 274.689 76.1814C274.75 76.1493 274.802 76.1224 274.845 76.101C274.888 76.076 274.922 76.0634 274.947 76.0634C274.997 76.0634 275.022 76.0974 275.022 76.1654C275 76.4442 274.986 76.8107 274.979 77.2648L274.968 77.887H276.229C276.279 77.887 276.305 77.9102 276.309 77.9567V78.0747C276.309 78.1641 276.223 78.2088 276.052 78.2088H274.968C274.911 79.5353 274.891 80.4829 274.909 81.0514C274.923 81.4089 274.952 81.6592 274.995 81.8023C275.041 81.9453 275.131 82.0168 275.263 82.0168C275.556 82.0168 275.867 81.8934 276.196 81.6467C276.254 81.661 276.291 81.7111 276.309 81.7969C275.898 82.2582 275.424 82.4888 274.888 82.4888C274.398 82.4888 274.153 82.1419 274.153 81.4483C274.153 81.2588 274.162 80.7671 274.18 79.9734C274.198 79.176 274.207 78.5878 274.207 78.2088H273.595C273.559 78.2088 273.54 78.1856 273.536 78.1391V78.0425C273.536 77.9388 273.599 77.887 273.724 77.887Z" fill="#A6A6A6"/>
<path d="M269.325 79.3834C269.325 80.2558 269.332 80.8744 269.346 81.2391C269.36 81.6646 269.4 81.9238 269.464 82.0168C269.532 82.1062 269.7 82.1616 269.968 82.183C269.997 82.2116 270.011 82.2528 270.011 82.3064C270.015 82.3565 270 82.3994 269.968 82.4351C269.836 82.4351 269.673 82.4262 269.48 82.4083C269.287 82.3904 269.117 82.3815 268.971 82.3815C268.81 82.3815 268.611 82.3904 268.375 82.4083C268.143 82.4262 267.968 82.4351 267.85 82.4351C267.768 82.3529 267.768 82.2689 267.85 82.183C268.164 82.1616 268.361 82.1044 268.44 82.0114C268.522 81.9149 268.57 81.6574 268.585 81.2391C268.599 80.9101 268.606 80.0466 268.606 78.6486C268.606 77.2505 268.599 76.3852 268.585 76.0527C268.57 75.6415 268.529 75.4002 268.461 75.3286C268.397 75.2571 268.214 75.2142 267.914 75.1999C267.85 75.1356 267.828 75.0658 267.85 74.9907C268.465 74.9407 268.933 74.8477 269.255 74.7119C269.344 74.7119 269.389 74.7458 269.389 74.8138C269.368 75.3322 269.353 75.6612 269.346 75.8006L269.309 78.6378C269.309 78.7344 269.346 78.7344 269.421 78.6378C269.933 78.0658 270.533 77.7797 271.223 77.7797C271.62 77.7797 271.91 77.8995 272.092 78.1391C272.289 78.3965 272.373 78.8667 272.344 79.5496C272.323 80.1146 272.323 80.6777 272.344 81.2391C272.359 81.6574 272.403 81.9131 272.478 82.0061C272.557 82.0954 272.747 82.1544 273.047 82.183C273.118 82.2724 273.118 82.3565 273.047 82.4351C272.907 82.4351 272.73 82.4262 272.516 82.4083C272.305 82.3904 272.123 82.3815 271.969 82.3815C271.822 82.3815 271.643 82.3904 271.433 82.4083C271.225 82.4262 271.057 82.4351 270.928 82.4351C270.857 82.3529 270.857 82.2689 270.928 82.183C271.207 82.1544 271.381 82.0954 271.449 82.0061C271.517 81.9131 271.558 81.6574 271.572 81.2391C271.593 80.6598 271.593 80.0842 271.572 79.5121C271.55 78.9757 271.5 78.6325 271.422 78.4823C271.297 78.232 271.109 78.1069 270.859 78.1069C270.508 78.1069 270.054 78.3858 269.496 78.9436C269.382 79.0616 269.325 79.2082 269.325 79.3834Z" fill="#A6A6A6"/>
<path d="M265.383 80.4292C265.569 80.2219 265.662 79.8983 265.662 79.4585C265.662 79.0187 265.569 78.6718 265.383 78.418C265.2 78.1605 264.945 78.0318 264.616 78.0318C264.33 78.0318 264.112 78.1373 263.961 78.3482C263.811 78.5556 263.736 78.8453 263.736 79.2171C263.736 80.229 264.074 80.735 264.75 80.735C264.986 80.735 265.197 80.633 265.383 80.4292ZM263.672 82.4888C263.429 82.7748 263.307 83.1377 263.307 83.5775C263.307 83.928 263.434 84.2211 263.688 84.4571C263.942 84.6931 264.247 84.8111 264.605 84.8111C265.095 84.8111 265.547 84.6752 265.962 84.4035C266.377 84.1318 266.584 83.8135 266.584 83.4488C266.584 83.1485 266.404 82.8946 266.042 82.6872C265.806 82.5621 265.411 82.5013 264.857 82.5049C264.829 82.5049 264.725 82.5102 264.546 82.521C264.367 82.5317 264.215 82.537 264.09 82.537C263.908 82.5335 263.768 82.5174 263.672 82.4888ZM266.933 78.3268C266.808 78.3268 266.713 78.2642 266.648 78.1391C266.591 78.0497 266.522 78.0068 266.439 78.0104C266.375 78.0104 266.296 78.039 266.203 78.0962C266.114 78.1498 266.05 78.2052 266.01 78.2624C266.303 78.5628 266.45 78.9257 266.45 79.3512C266.45 79.8411 266.278 80.2362 265.935 80.5365C265.592 80.8369 265.179 80.987 264.696 80.987C264.367 80.987 264.051 80.903 263.747 80.735C263.593 80.9602 263.516 81.1658 263.516 81.3517C263.516 81.5341 263.591 81.6896 263.742 81.8184C263.892 81.9435 264.051 82.0061 264.219 82.0061C264.226 82.0061 264.333 81.9989 264.541 81.9846C264.82 81.9489 265.054 81.931 265.243 81.931C265.983 81.931 266.493 82.049 266.772 82.285C267.079 82.5388 267.233 82.8338 267.233 83.1699C267.233 83.7134 266.929 84.1675 266.321 84.5322C265.713 84.9005 265.036 85.0847 264.289 85.0847C263.842 85.0847 263.448 84.9738 263.109 84.7521C262.773 84.534 262.604 84.2122 262.604 83.7867C262.604 83.5507 262.683 83.3022 262.84 83.0412C262.998 82.7838 263.212 82.5746 263.484 82.4137C263.087 82.2742 262.891 82.0043 262.894 81.6038C262.894 81.2248 263.084 80.8726 263.463 80.5472C263.119 80.2183 262.948 79.8268 262.948 79.3727C262.948 78.9043 263.119 78.5217 263.463 78.2249C263.806 77.9281 264.221 77.7797 264.707 77.7797C265.161 77.7797 265.522 77.8781 265.79 78.0747C265.915 77.9138 266.084 77.7869 266.294 77.6939C266.509 77.5974 266.693 77.5491 266.847 77.5491C266.986 77.5491 267.101 77.5866 267.19 77.6617C267.283 77.7332 267.33 77.8244 267.33 77.9353C267.33 78.039 267.289 78.1301 267.206 78.2088C267.128 78.2875 267.036 78.3268 266.933 78.3268Z" fill="#A6A6A6"/>
<path d="M260.347 75.8006C260.347 75.6683 260.41 75.5485 260.535 75.4413C260.66 75.3304 260.789 75.275 260.921 75.275C261.061 75.275 261.182 75.3358 261.286 75.4573C261.393 75.5789 261.447 75.7076 261.447 75.8435C261.447 75.9687 261.388 76.0884 261.27 76.2029C261.155 76.3173 261.025 76.3745 260.878 76.3745C260.746 76.3745 260.624 76.3137 260.514 76.1921C260.403 76.0706 260.347 75.9401 260.347 75.8006ZM261.291 81.1854C261.298 81.6324 261.347 81.9059 261.436 82.006C261.526 82.1026 261.742 82.1616 262.085 82.183C262.114 82.2116 262.128 82.2528 262.128 82.3064C262.128 82.3564 262.114 82.3994 262.085 82.4351C261.946 82.4351 261.754 82.4262 261.511 82.4083C261.272 82.3904 261.068 82.3815 260.9 82.3815C260.732 82.3815 260.523 82.3904 260.272 82.4083C260.022 82.4262 259.831 82.4351 259.698 82.4351C259.616 82.3529 259.616 82.2688 259.698 82.183C260.042 82.1544 260.256 82.0919 260.342 81.9953C260.428 81.8952 260.478 81.6252 260.492 81.1854C260.506 80.6956 260.514 80.2862 260.514 79.9572C260.514 79.7641 260.506 79.4477 260.492 79.0079C260.485 78.6933 260.44 78.4984 260.358 78.4233C260.279 78.3446 260.086 78.291 259.779 78.2624C259.75 78.173 259.743 78.1069 259.757 78.064C260.394 77.9817 260.88 77.8762 261.216 77.7475C261.313 77.7475 261.361 77.7725 261.361 77.8226C261.357 77.8655 261.352 77.9263 261.345 78.005C261.341 78.08 261.334 78.2177 261.324 78.4179C261.313 78.6182 261.302 78.7987 261.291 78.9596C261.284 79.117 261.279 79.2814 261.275 79.4531C261.272 79.6211 261.27 79.7927 261.27 79.968C261.27 80.1503 261.277 80.5561 261.291 81.1854Z" fill="#A6A6A6"/>
<path d="M255.837 79.5389L257.961 79.4799C258.065 79.4799 258.115 79.4335 258.111 79.3405C258.111 78.9222 258.015 78.6004 257.822 78.3751C257.629 78.1463 257.396 78.0318 257.124 78.0318C256.867 78.0318 256.609 78.1516 256.352 78.3912C256.098 78.6307 255.927 79.0133 255.837 79.5389ZM258.739 81.4054C258.857 81.4126 258.93 81.4698 258.959 81.577C258.497 82.1849 257.886 82.4888 257.124 82.4888C256.391 82.4888 255.839 82.2671 255.467 81.8237C255.138 81.4447 254.974 80.9245 254.974 80.263C254.974 79.5157 255.197 78.915 255.644 78.4609C256.091 78.0068 256.584 77.7798 257.124 77.7798C257.789 77.7798 258.26 77.9585 258.535 78.3161C258.81 78.6701 258.948 79.1063 258.948 79.6248C258.948 79.7499 258.882 79.8125 258.749 79.8125L255.805 79.8554C255.805 80.4775 255.916 80.9674 256.137 81.3249C256.291 81.5752 256.484 81.7647 256.717 81.8935C256.953 82.0222 257.176 82.0865 257.387 82.0865C257.666 82.0865 257.906 82.0293 258.106 81.9149C258.31 81.8005 258.521 81.6307 258.739 81.4054Z" fill="#A6A6A6"/>
<path d="M250.704 79.3834C250.704 80.2558 250.711 80.8744 250.725 81.2391C250.739 81.6646 250.779 81.9238 250.843 82.0168C250.911 82.1062 251.079 82.1616 251.347 82.1831C251.376 82.2117 251.39 82.2528 251.39 82.3064C251.394 82.3565 251.379 82.3994 251.347 82.4352C251.215 82.4352 251.052 82.4262 250.859 82.4083C250.666 82.3905 250.496 82.3815 250.35 82.3815C250.189 82.3815 249.99 82.3905 249.754 82.4083C249.522 82.4262 249.347 82.4352 249.229 82.4352C249.146 82.3529 249.146 82.2689 249.229 82.1831C249.543 82.1616 249.74 82.1044 249.819 82.0114C249.901 81.9149 249.949 81.6575 249.963 81.2391C249.978 80.9102 249.985 80.0467 249.985 78.6486C249.985 77.2506 249.978 76.3853 249.963 76.0527C249.949 75.6415 249.908 75.4002 249.84 75.3287C249.776 75.2572 249.593 75.2143 249.293 75.2C249.229 75.1356 249.207 75.0659 249.229 74.9908C249.844 74.9407 250.312 74.8478 250.634 74.7119C250.723 74.7119 250.768 74.7459 250.768 74.8138C250.747 75.3322 250.732 75.6612 250.725 75.8006L250.688 78.6379C250.688 78.7344 250.725 78.7344 250.8 78.6379C251.311 78.0658 251.912 77.7797 252.602 77.7797C252.999 77.7797 253.289 77.8995 253.471 78.1391C253.668 78.3965 253.752 78.8667 253.723 79.5497C253.702 80.1146 253.702 80.6778 253.723 81.2391C253.737 81.6575 253.782 81.9131 253.857 82.0061C253.936 82.0955 254.125 82.1545 254.426 82.1831C254.497 82.2725 254.497 82.3565 254.426 82.4352C254.286 82.4352 254.109 82.4262 253.895 82.4083C253.684 82.3905 253.501 82.3815 253.348 82.3815C253.201 82.3815 253.022 82.3905 252.811 82.4083C252.604 82.4262 252.436 82.4352 252.307 82.4352C252.236 82.3529 252.236 82.2689 252.307 82.1831C252.586 82.1545 252.76 82.0955 252.828 82.0061C252.895 81.9131 252.937 81.6575 252.951 81.2391C252.972 80.6599 252.972 80.0842 252.951 79.5121C252.929 78.9758 252.879 78.6325 252.801 78.4823C252.676 78.232 252.488 78.1069 252.238 78.1069C251.887 78.1069 251.433 78.3858 250.875 78.9436C250.761 79.0616 250.704 79.2082 250.704 79.3834Z" fill="#A6A6A6"/>
<path d="M403.701 77.887H404.184C404.184 77.5438 404.182 77.2649 404.179 77.0503C404.175 76.8322 404.17 76.6821 404.163 76.5998C404.155 76.514 404.152 76.4639 404.152 76.4496C404.152 76.4139 404.166 76.3871 404.195 76.3692C404.227 76.3513 404.279 76.3316 404.35 76.3102C404.425 76.2852 404.481 76.2655 404.517 76.2512C404.56 76.2369 404.61 76.2137 404.667 76.1815C404.728 76.1493 404.779 76.1225 404.822 76.101C404.865 76.076 404.899 76.0635 404.924 76.0635C404.974 76.0635 404.999 76.0974 404.999 76.1654C404.978 76.4443 404.964 76.8108 404.956 77.2649L404.946 77.887H406.206C406.256 77.887 406.283 77.9103 406.287 77.9568V78.0747C406.287 78.1641 406.201 78.2088 406.029 78.2088H404.946C404.888 79.5354 404.869 80.4829 404.887 81.0514C404.901 81.409 404.93 81.6593 404.973 81.8023C405.019 81.9453 405.108 82.0168 405.241 82.0168C405.534 82.0168 405.845 81.8935 406.174 81.6468C406.231 81.6611 406.269 81.7111 406.287 81.7969C405.875 82.2582 405.402 82.4888 404.865 82.4888C404.375 82.4888 404.13 82.142 404.13 81.4483C404.13 81.2588 404.139 80.7672 404.157 79.9734C404.175 79.176 404.184 78.5878 404.184 78.2088H403.573C403.537 78.2088 403.517 78.1856 403.514 78.1391V78.0426C403.514 77.9389 403.576 77.887 403.701 77.887Z" fill="#A6A6A6"/>
<path d="M399.3 79.3834C399.3 80.2558 399.307 80.8744 399.322 81.2391C399.336 81.6646 399.375 81.9238 399.44 82.0168C399.508 82.1062 399.676 82.1616 399.944 82.183C399.972 82.2116 399.987 82.2528 399.987 82.3064C399.99 82.3565 399.976 82.3994 399.944 82.4351C399.812 82.4351 399.649 82.4262 399.456 82.4083C399.263 82.3904 399.093 82.3815 398.946 82.3815C398.785 82.3815 398.587 82.3904 398.351 82.4083C398.119 82.4262 397.943 82.4351 397.825 82.4351C397.743 82.3529 397.743 82.2689 397.825 82.183C398.14 82.1616 398.337 82.1044 398.415 82.0114C398.498 81.9149 398.546 81.6574 398.56 81.2391C398.574 80.9101 398.582 80.0466 398.582 78.6486C398.582 77.2505 398.574 76.3852 398.56 76.0527C398.546 75.6415 398.505 75.4002 398.437 75.3286C398.372 75.2571 398.19 75.2142 397.89 75.1999C397.825 75.1356 397.804 75.0658 397.825 74.9907C398.44 74.9407 398.909 74.8477 399.231 74.7119C399.32 74.7119 399.365 74.7458 399.365 74.8138C399.343 75.3322 399.329 75.6612 399.322 75.8006L399.284 78.6378C399.284 78.7344 399.322 78.7344 399.397 78.6378C399.908 78.0658 400.509 77.7797 401.199 77.7797C401.596 77.7797 401.885 77.8995 402.068 78.1391C402.264 78.3965 402.348 78.8667 402.32 79.5496C402.298 80.1146 402.298 80.6777 402.32 81.2391C402.334 81.6574 402.379 81.9131 402.454 82.0061C402.533 82.0954 402.722 82.1544 403.022 82.183C403.094 82.2724 403.094 82.3565 403.022 82.4351C402.883 82.4351 402.706 82.4262 402.491 82.4083C402.281 82.3904 402.098 82.3815 401.944 82.3815C401.798 82.3815 401.619 82.3904 401.408 82.4083C401.201 82.4262 401.033 82.4351 400.904 82.4351C400.832 82.3529 400.832 82.2689 400.904 82.183C401.183 82.1544 401.356 82.0954 401.424 82.0061C401.492 81.9131 401.533 81.6574 401.548 81.2391C401.569 80.6598 401.569 80.0842 401.548 79.5121C401.526 78.9757 401.476 78.6325 401.397 78.4823C401.272 78.232 401.084 78.1069 400.834 78.1069C400.484 78.1069 400.03 78.3858 399.472 78.9436C399.357 79.0616 399.3 79.2082 399.3 79.3834Z" fill="#A6A6A6"/>
<path d="M395.36 80.4292C395.546 80.2219 395.639 79.8983 395.639 79.4585C395.639 79.0187 395.546 78.6718 395.36 78.418C395.178 78.1605 394.922 78.0318 394.593 78.0318C394.307 78.0318 394.089 78.1373 393.939 78.3482C393.789 78.5556 393.714 78.8453 393.714 79.2171C393.714 80.229 394.052 80.735 394.727 80.735C394.963 80.735 395.174 80.633 395.36 80.4292ZM393.649 82.4888C393.406 82.7748 393.285 83.1377 393.285 83.5775C393.285 83.928 393.412 84.2211 393.665 84.4571C393.919 84.6931 394.225 84.8111 394.583 84.8111C395.072 84.8111 395.525 84.6752 395.94 84.4035C396.354 84.1318 396.562 83.8135 396.562 83.4488C396.562 83.1485 396.381 82.8946 396.02 82.6872C395.784 82.5621 395.389 82.5013 394.835 82.5049C394.806 82.5049 394.702 82.5102 394.524 82.521C394.345 82.5317 394.193 82.537 394.068 82.537C393.885 82.5335 393.746 82.5174 393.649 82.4888ZM396.91 78.3268C396.785 78.3268 396.69 78.2642 396.626 78.1391C396.569 78.0497 396.499 78.0068 396.417 78.0104C396.352 78.0104 396.274 78.039 396.181 78.0962C396.091 78.1498 396.027 78.2052 395.988 78.2624C396.281 78.5628 396.428 78.9257 396.428 79.3512C396.428 79.8411 396.256 80.2362 395.913 80.5365C395.569 80.8369 395.156 80.987 394.674 80.987C394.345 80.987 394.028 80.903 393.724 80.735C393.571 80.9602 393.494 81.1658 393.494 81.3517C393.494 81.5341 393.569 81.6896 393.719 81.8184C393.869 81.9435 394.028 82.0061 394.196 82.0061C394.204 82.0061 394.311 81.9989 394.518 81.9846C394.797 81.9489 395.031 81.931 395.221 81.931C395.961 81.931 396.47 82.049 396.749 82.285C397.057 82.5388 397.211 82.8338 397.211 83.1699C397.211 83.7134 396.907 84.1675 396.299 84.5322C395.691 84.9005 395.013 85.0847 394.266 85.0847C393.819 85.0847 393.426 84.9738 393.086 84.7521C392.75 84.534 392.582 84.2122 392.582 83.7867C392.582 83.5507 392.661 83.3022 392.818 83.0412C392.975 82.7838 393.19 82.5746 393.462 82.4137C393.065 82.2742 392.868 82.0043 392.872 81.6038C392.872 81.2248 393.061 80.8726 393.44 80.5472C393.097 80.2183 392.925 79.8268 392.925 79.3727C392.925 78.9043 393.097 78.5217 393.44 78.2249C393.783 77.9281 394.198 77.7797 394.684 77.7797C395.139 77.7797 395.5 77.8781 395.768 78.0747C395.893 77.9138 396.061 77.7869 396.272 77.6939C396.487 77.5974 396.671 77.5491 396.824 77.5491C396.964 77.5491 397.078 77.5866 397.168 77.6617C397.261 77.7332 397.307 77.8244 397.307 77.9353C397.307 78.039 397.266 78.1301 397.184 78.2088C397.105 78.2875 397.014 78.3268 396.91 78.3268Z" fill="#A6A6A6"/>
<path d="M390.321 75.8005C390.321 75.6682 390.384 75.5485 390.509 75.4412C390.634 75.3304 390.763 75.2749 390.895 75.2749C391.034 75.2749 391.156 75.3357 391.26 75.4573C391.367 75.5789 391.42 75.7076 391.42 75.8435C391.42 75.9686 391.361 76.0884 391.244 76.2028C391.129 76.3172 390.999 76.3744 390.852 76.3744C390.72 76.3744 390.598 76.3136 390.487 76.1921C390.376 76.0705 390.321 75.94 390.321 75.8005ZM391.265 81.1854C391.272 81.6323 391.32 81.9059 391.41 82.006C391.499 82.1025 391.715 82.1615 392.059 82.183C392.087 82.2116 392.102 82.2527 392.102 82.3063C392.102 82.3564 392.087 82.3993 392.059 82.435C391.919 82.435 391.728 82.4261 391.485 82.4082C391.245 82.3904 391.041 82.3814 390.873 82.3814C390.705 82.3814 390.496 82.3904 390.246 82.4082C389.996 82.4261 389.804 82.435 389.672 82.435C389.59 82.3528 389.59 82.2688 389.672 82.183C390.015 82.1544 390.23 82.0918 390.316 81.9952C390.401 81.8951 390.452 81.6252 390.466 81.1854C390.48 80.6955 390.487 80.2861 390.487 79.9572C390.487 79.7641 390.48 79.4476 390.466 79.0078C390.459 78.6932 390.414 78.4983 390.332 78.4232C390.253 78.3446 390.06 78.2909 389.752 78.2623C389.724 78.1729 389.717 78.1068 389.731 78.0639C390.367 77.9817 390.854 77.8762 391.19 77.7475C391.286 77.7475 391.335 77.7725 391.335 77.8225C391.331 77.8654 391.326 77.9262 391.319 78.0049C391.315 78.08 391.308 78.2176 391.297 78.4179C391.286 78.6181 391.276 78.7987 391.265 78.9596C391.258 79.1169 391.252 79.2814 391.249 79.453C391.245 79.6211 391.244 79.7927 391.244 79.9679C391.244 80.1502 391.251 80.5561 391.265 81.1854Z" fill="#A6A6A6"/>
<path d="M385.814 79.5389L387.938 79.4799C388.041 79.4799 388.091 79.4334 388.088 79.3404C388.088 78.9221 387.991 78.6003 387.798 78.375C387.605 78.1462 387.373 78.0318 387.101 78.0318C386.843 78.0318 386.586 78.1516 386.329 78.3911C386.075 78.6307 385.903 79.0133 385.814 79.5389ZM388.715 81.4053C388.833 81.4125 388.907 81.4697 388.935 81.577C388.474 82.1848 387.863 82.4887 387.101 82.4887C386.368 82.4887 385.815 82.2671 385.444 81.8237C385.115 81.4447 384.95 80.9244 384.95 80.2629C384.95 79.5156 385.174 78.9149 385.621 78.4608C386.068 78.0067 386.561 77.7797 387.101 77.7797C387.766 77.7797 388.236 77.9585 388.511 78.316C388.787 78.67 388.924 79.1062 388.924 79.6247C388.924 79.7498 388.858 79.8124 388.726 79.8124L385.782 79.8553C385.782 80.4775 385.892 80.9673 386.114 81.3249C386.268 81.5752 386.461 81.7647 386.693 81.8934C386.929 82.0221 387.153 82.0865 387.364 82.0865C387.643 82.0865 387.882 82.0293 388.082 81.9149C388.286 81.8004 388.497 81.6306 388.715 81.4053Z" fill="#A6A6A6"/>
<path d="M380.68 79.3834C380.68 80.2558 380.687 80.8744 380.702 81.2391C380.716 81.6646 380.755 81.9238 380.82 82.0168C380.888 82.1062 381.056 82.1616 381.324 82.1831C381.352 82.2117 381.367 82.2528 381.367 82.3064C381.37 82.3565 381.356 82.3994 381.324 82.4352C381.191 82.4352 381.029 82.4262 380.836 82.4083C380.643 82.3905 380.473 82.3815 380.326 82.3815C380.165 82.3815 379.967 82.3905 379.731 82.4083C379.498 82.4262 379.323 82.4352 379.205 82.4352C379.123 82.3529 379.123 82.2689 379.205 82.1831C379.52 82.1616 379.717 82.1044 379.795 82.0114C379.877 81.9149 379.926 81.6575 379.94 81.2391C379.954 80.9102 379.961 80.0467 379.961 78.6486C379.961 77.2506 379.954 76.3853 379.94 76.0527C379.926 75.6415 379.885 75.4002 379.817 75.3287C379.752 75.2572 379.57 75.2143 379.27 75.2C379.205 75.1356 379.184 75.0659 379.205 74.9908C379.82 74.9407 380.289 74.8478 380.61 74.7119C380.7 74.7119 380.745 74.7459 380.745 74.8138C380.723 75.3322 380.709 75.6612 380.702 75.8006L380.664 78.6379C380.664 78.7344 380.702 78.7344 380.777 78.6379C381.288 78.0658 381.889 77.7797 382.579 77.7797C382.976 77.7797 383.265 77.8995 383.448 78.1391C383.644 78.3965 383.728 78.8667 383.7 79.5497C383.678 80.1146 383.678 80.6778 383.7 81.2391C383.714 81.6575 383.759 81.9131 383.834 82.0061C383.912 82.0955 384.102 82.1545 384.402 82.1831C384.474 82.2725 384.474 82.3565 384.402 82.4352C384.263 82.4352 384.086 82.4262 383.871 82.4083C383.66 82.3905 383.478 82.3815 383.324 82.3815C383.178 82.3815 382.999 82.3905 382.788 82.4083C382.581 82.4262 382.413 82.4352 382.284 82.4352C382.212 82.3529 382.212 82.2689 382.284 82.1831C382.563 82.1545 382.736 82.0955 382.804 82.0061C382.872 81.9131 382.913 81.6575 382.927 81.2391C382.949 80.6599 382.949 80.0842 382.927 79.5121C382.906 78.9758 382.856 78.6325 382.777 78.4823C382.652 78.232 382.464 78.1069 382.214 78.1069C381.864 78.1069 381.41 78.3858 380.852 78.9436C380.737 79.0616 380.68 79.2082 380.68 79.3834Z" fill="#A6A6A6"/>
<defs>
<filter id="filter0_d_644_4331" x="71.7383" y="24.4675" width="49.4531" height="33.106" filterUnits="userSpaceOnUse" color-interpolation-filters="sRGB">
<feFlood flood-opacity="0" result="BackgroundImageFix"/>
<feColorMatrix in="SourceAlpha" type="matrix" values="0 0 0 0 0 0 0 0 0 0 0 0 0 0 0 0 0 0 127 0" result="hardAlpha"/>
<feOffset dx="3" dy="3"/>
<feGaussianBlur stdDeviation="0.5"/>
<feComposite in2="hardAlpha" operator="out"/>
<feColorMatrix type="matrix" values="0 0 0 0 0 0 0 0 0 0 0 0 0 0 0 0 0 0 0.2 0"/>
<feBlend mode="normal" in2="BackgroundImageFix" result="effect1_dropShadow_644_4331"/>
<feBlend mode="normal" in="SourceGraphic" in2="effect1_dropShadow_644_4331" result="shape"/>
</filter>
<filter id="filter1_d_644_4331" x="162.251" y="24.8662" width="49.4531" height="33.106" filterUnits="userSpaceOnUse" color-interpolation-filters="sRGB">
<feFlood flood-opacity="0" result="BackgroundImageFix"/>
<feColorMatrix in="SourceAlpha" type="matrix" values="0 0 0 0 0 0 0 0 0 0 0 0 0 0 0 0 0 0 127 0" result="hardAlpha"/>
<feOffset dx="3" dy="3"/>
<feGaussianBlur stdDeviation="0.5"/>
<feComposite in2="hardAlpha" operator="out"/>
<feColorMatrix type="matrix" values="0 0 0 0 0 0 0 0 0 0 0 0 0 0 0 0 0 0 0.2 0"/>
<feBlend mode="normal" in2="BackgroundImageFix" result="effect1_dropShadow_644_4331"/>
<feBlend mode="normal" in="SourceGraphic" in2="effect1_dropShadow_644_4331" result="shape"/>
</filter>
<filter id="filter2_d_644_4331" x="253.546" y="24.4675" width="49.4531" height="33.106" filterUnits="userSpaceOnUse" color-interpolation-filters="sRGB">
<feFlood flood-opacity="0" result="BackgroundImageFix"/>
<feColorMatrix in="SourceAlpha" type="matrix" values="0 0 0 0 0 0 0 0 0 0 0 0 0 0 0 0 0 0 127 0" result="hardAlpha"/>
<feOffset dx="3" dy="3"/>
<feGaussianBlur stdDeviation="0.5"/>
<feComposite in2="hardAlpha" operator="out"/>
<feColorMatrix type="matrix" values="0 0 0 0 0 0 0 0 0 0 0 0 0 0 0 0 0 0 0.2 0"/>
<feBlend mode="normal" in2="BackgroundImageFix" result="effect1_dropShadow_644_4331"/>
<feBlend mode="normal" in="SourceGraphic" in2="effect1_dropShadow_644_4331" result="shape"/>
</filter>
<filter id="filter3_d_644_4331" x="374.865" y="24.4675" width="49.4531" height="33.106" filterUnits="userSpaceOnUse" color-interpolation-filters="sRGB">
<feFlood flood-opacity="0" result="BackgroundImageFix"/>
<feColorMatrix in="SourceAlpha" type="matrix" values="0 0 0 0 0 0 0 0 0 0 0 0 0 0 0 0 0 0 127 0" result="hardAlpha"/>
<feOffset dx="3" dy="3"/>
<feGaussianBlur stdDeviation="0.5"/>
<feComposite in2="hardAlpha" operator="out"/>
<feColorMatrix type="matrix" values="0 0 0 0 0 0 0 0 0 0 0 0 0 0 0 0 0 0 0.2 0"/>
<feBlend mode="normal" in2="BackgroundImageFix" result="effect1_dropShadow_644_4331"/>
<feBlend mode="normal" in="SourceGraphic" in2="effect1_dropShadow_644_4331" result="shape"/>
</filter>
</defs>
</svg>
