<svg width="57" height="57" viewBox="0 0 57 57" fill="none" xmlns="http://www.w3.org/2000/svg">
<g clip-path="url(#clip0_653_6385)">
<path d="M48.4048 0H8.59524C3.84822 0 0 3.84822 0 8.59524V48.4048C0 53.1518 3.84822 57 8.59524 57H48.4048C53.1518 57 57 53.1518 57 48.4048V8.59524C57 3.84822 53.1518 0 48.4048 0Z" fill="#111111"/>
<mask id="mask0_653_6385" style="mask-type:luminance" maskUnits="userSpaceOnUse" x="15" y="16" width="28" height="26">
<path d="M42.0431 16H15V42H42.0431V16Z" fill="white"/>
</mask>
<g mask="url(#mask0_653_6385)">
<path d="M15.5892 34.5959V18.9419L28.5988 31.9496L30.4976 30.0277L18.5388 18.0707C18.4326 18.1074 18.3185 18.1248 18.2008 18.1248C17.6136 18.1248 17.1383 17.6496 17.1383 17.0624C17.1383 16.4752 17.6136 16 18.2008 16C18.7879 16 19.2632 16.4752 19.2632 17.0624C19.2632 17.1802 19.2439 17.2942 19.2072 17.4005L31.1621 29.3535L33.0609 27.4315L23.7002 18.0707C23.5939 18.1074 23.4799 18.1248 23.3621 18.1248C22.7749 18.1248 22.2997 17.6496 22.2997 17.0624C22.2997 16.4752 22.7749 16 23.3621 16C23.9493 16 24.4245 16.4752 24.4245 17.0624C24.4245 17.1802 24.4052 17.2942 24.3704 17.4005L28.5234 21.5535L32.6746 17.4005C32.6398 17.2942 32.6185 17.1802 32.6185 17.0624C32.6185 16.4752 33.0957 16 33.681 16C34.2663 16 34.7453 16.4752 34.7453 17.0624C34.7453 17.6496 34.2682 18.1248 33.681 18.1248C33.5632 18.1248 33.4492 18.1055 33.3429 18.0707L29.1899 22.2237L31.1003 24.1342L37.834 17.4005C37.7974 17.2942 37.7799 17.1802 37.7799 17.0624C37.7799 16.4752 38.2551 16 38.8424 16C39.4296 16 39.9048 16.4752 39.9048 17.0624C39.9048 17.6496 39.4277 18.1248 38.8424 18.1248C38.7245 18.1248 38.6105 18.1055 38.5043 18.0707L31.7706 24.8025L33.7254 26.7573L41.454 18.9342V34.5959C41.8036 34.7699 42.0431 35.1311 42.0431 35.5483C42.0431 36.1355 41.566 36.6107 40.9787 36.6107C40.3915 36.6107 39.9164 36.1336 39.9164 35.5483C39.9164 35.1311 40.1578 34.7699 40.5055 34.5959V21.2367L37.8031 23.9738V36.9545C38.1527 37.1283 38.3923 37.4896 38.3923 37.9069C38.3923 38.4941 37.9152 38.9692 37.3298 38.9692C36.7445 38.9692 36.2655 38.4941 36.2655 37.9069C36.2655 37.4896 36.5051 37.1283 36.8547 36.9545V24.9319L34.1523 27.6671V40.1031C34.3976 40.2982 34.554 40.5995 34.554 40.9357C34.554 41.5229 34.0789 41.998 33.4917 41.998C32.9044 41.998 32.4293 41.521 32.4293 40.9357C32.4293 40.447 32.7576 40.0355 33.2077 39.9119V28.6272L28.6008 33.2921L23.8334 28.5248V39.3942C24.183 39.5681 24.4226 39.9293 24.4226 40.3465C24.4226 40.9337 23.9455 41.4089 23.3602 41.4089C22.7749 41.4089 22.2977 40.9337 22.2977 40.3465C22.2977 39.9293 22.5373 39.5681 22.8869 39.3942V27.5783L20.1846 24.8759V36.9507C20.5342 37.1245 20.7737 37.4857 20.7737 37.903C20.7737 38.4902 20.2985 38.9653 19.7093 38.9653C19.1202 38.9653 18.647 38.4902 18.647 37.903C18.647 37.4857 18.8864 37.1245 19.2361 36.9507V23.9294L16.5357 21.229V34.5959C16.8853 34.7699 17.1248 35.1311 17.1248 35.5483C17.1248 36.1355 16.6477 36.6107 16.0624 36.6107C15.4771 36.6107 15 36.1336 15 35.5483C15 35.1311 15.2395 34.7699 15.5892 34.5959Z" fill="white"/>
</g>
</g>
<defs>
<clipPath id="clip0_653_6385">
<rect width="57" height="57" fill="white"/>
</clipPath>
</defs>
</svg>
