<svg width="445" height="208" viewBox="0 0 445 208" fill="none" xmlns="http://www.w3.org/2000/svg">
<g clip-path="url(#clip0_2503_27)">
<mask id="mask0_2503_27" style="mask-type:luminance" maskUnits="userSpaceOnUse" x="0" y="0" width="445" height="208">
<path d="M445 0H0V208H445V0Z" fill="white"/>
</mask>
<g mask="url(#mask0_2503_27)">
<mask id="mask1_2503_27" style="mask-type:luminance" maskUnits="userSpaceOnUse" x="-9" y="0" width="445" height="208">
<path d="M436 0H-9V208H436V0Z" fill="white"/>
</mask>
<g mask="url(#mask1_2503_27)">
<mask id="mask2_2503_27" style="mask-type:luminance" maskUnits="userSpaceOnUse" x="-9" y="0" width="445" height="208">
<path d="M-9 0H436V208H-9V0Z" fill="white"/>
</mask>
<g mask="url(#mask2_2503_27)">
<mask id="mask3_2503_27" style="mask-type:alpha" maskUnits="userSpaceOnUse" x="-9" y="-62" width="445" height="332">
<path d="M-9 -62H436V269.691H-9V-62Z" fill="url(#paint0_linear_2503_27)"/>
</mask>
<g mask="url(#mask3_2503_27)">
<path d="M-7.83203 332.217L437.748 332.216M-7.83203 318.851H437.748M-7.83203 305.486H437.748M-7.83203 292.121H437.748M-7.83203 278.756H437.748M-7.83203 265.391H437.748M-7.83203 252.025H437.748M-7.83203 238.66H437.748M-7.83203 225.295H437.748M-7.83203 211.93H437.748M-7.83203 198.565H437.748M-7.83203 185.199H437.748M-7.83203 171.834H437.748M-7.83203 158.469H437.748M-7.83203 145.104H437.748M-7.83203 131.739H437.748M-7.83203 118.374H437.748M-7.83203 105.008H437.748M-7.83203 91.6432H437.748M-7.83203 78.2792H437.748M-7.83203 64.9132H437.748M-7.83203 51.5482H437.748M-7.83203 38.1822H437.748M-7.83203 24.8172H437.748M-7.83203 11.4522H437.748M-7.83203 -1.91288H437.748M-7.83203 -15.2778H437.748M-7.83203 -28.6428H437.748M-7.83203 -42.0098H437.748M2.198 -104.211V332.499M15.834 -104.211V332.499M29.471 -104.211V332.499M43.108 -104.211V332.499M56.744 -104.211V332.499M70.381 -104.211V332.499M84.017 -104.211V332.499M97.654 -104.211V332.499M111.291 -104.211V332.499M124.927 -104.211V332.499M138.564 -104.211V332.499M152.201 -104.211V332.499M165.837 -104.211V332.499M179.474 -104.211V332.499M193.111 -104.211V332.499M206.747 -104.211V332.499M220.384 -104.211V332.499M234.021 -104.211V332.499M247.657 -104.211V332.499M261.294 -104.211V332.499M274.931 -104.211V332.499M288.567 -104.211V332.499M302.204 -104.211V332.499M315.841 -104.211V332.499M329.477 -104.211V332.499M343.114 -104.211V332.499M356.751 -104.211V332.499M370.387 -104.211V332.499M384.024 -104.211V332.499M397.661 -104.211V332.499M411.297 -104.211V332.499M424.934 -104.211V332.499" stroke="url(#paint1_linear_2503_27)" stroke-width="0.489"/>
</g>
</g>
</g>
</g>
</g>
<defs>
<linearGradient id="paint0_linear_2503_27" x1="213.5" y1="-62" x2="213.5" y2="148.014" gradientUnits="userSpaceOnUse">
<stop stop-color="white"/>
<stop offset="1" stop-color="#232323" stop-opacity="0"/>
</linearGradient>
<linearGradient id="paint1_linear_2503_27" x1="491" y1="-148" x2="144.5" y2="197" gradientUnits="userSpaceOnUse">
<stop stop-color="#323232"/>
<stop offset="1" stop-color="#232324" stop-opacity="0"/>
</linearGradient>
<clipPath id="clip0_2503_27">
<rect width="445" height="208" fill="white"/>
</clipPath>
</defs>
</svg>
