<svg width="445" height="208" viewBox="0 0 445 208" fill="none" xmlns="http://www.w3.org/2000/svg">
<g clip-path="url(#clip0_726_440)">
<mask id="mask0_726_440" style="mask-type:luminance" maskUnits="userSpaceOnUse" x="-9" y="0" width="445" height="208">
<path d="M436 0H-9V208H436V0Z" fill="white"/>
</mask>
<g mask="url(#mask0_726_440)">
<mask id="mask1_726_440" style="mask-type:luminance" maskUnits="userSpaceOnUse" x="-9" y="0" width="445" height="208">
<path d="M-9 0H436V208H-9V0Z" fill="white"/>
</mask>
<g mask="url(#mask1_726_440)">
<mask id="mask2_726_440" style="mask-type:alpha" maskUnits="userSpaceOnUse" x="-9" y="-62" width="445" height="332">
<path d="M-9 -62H436V269.691H-9V-62Z" fill="url(#paint0_linear_726_440)"/>
</mask>
<g mask="url(#mask2_726_440)">
<path d="M-7.83203 332.217L437.748 332.216M-7.83203 318.851H437.748M-7.83203 305.486H437.748M-7.83203 292.121H437.748M-7.83203 278.756H437.748M-7.83203 265.391H437.748M-7.83203 252.025H437.748M-7.83203 238.66H437.748M-7.83203 225.295H437.748M-7.83203 211.93H437.748M-7.83203 198.565H437.748M-7.83203 185.199H437.748M-7.83203 171.834H437.748M-7.83203 158.469H437.748M-7.83203 145.104H437.748M-7.83203 131.739H437.748M-7.83203 118.374H437.748M-7.83203 105.008H437.748M-7.83203 91.6432H437.748M-7.83203 78.2792H437.748M-7.83203 64.9132H437.748M-7.83203 51.5482H437.748M-7.83203 38.1822H437.748M-7.83203 24.8172H437.748M-7.83203 11.4522H437.748M-7.83203 -1.91288H437.748M-7.83203 -15.2778H437.748M-7.83203 -28.6428H437.748M-7.83203 -42.0098H437.748M2.198 -104.211V332.499M15.834 -104.211V332.499M29.471 -104.211V332.499M43.108 -104.211V332.499M56.744 -104.211V332.499M70.381 -104.211V332.499M84.017 -104.211V332.499M97.654 -104.211V332.499M111.291 -104.211V332.499M124.927 -104.211V332.499M138.564 -104.211V332.499M152.201 -104.211V332.499M165.837 -104.211V332.499M179.474 -104.211V332.499M193.111 -104.211V332.499M206.747 -104.211V332.499M220.384 -104.211V332.499M234.021 -104.211V332.499M247.657 -104.211V332.499M261.294 -104.211V332.499M274.931 -104.211V332.499M288.567 -104.211V332.499M302.204 -104.211V332.499M315.841 -104.211V332.499M329.477 -104.211V332.499M343.114 -104.211V332.499M356.751 -104.211V332.499M370.387 -104.211V332.499M384.024 -104.211V332.499M397.661 -104.211V332.499M411.297 -104.211V332.499M424.934 -104.211V332.499" stroke="url(#paint1_linear_726_440)" stroke-width="0.489"/>
</g>
</g>
</g>
<path opacity="0.5" d="M292.841 53.6818C293.858 53.6818 294.682 52.8576 294.682 51.8409C294.682 50.8242 293.858 50 292.841 50C291.824 50 291 50.8242 291 51.8409C291 52.8576 291.824 53.6818 292.841 53.6818Z" fill="#3DDCA3"/>
<path opacity="0.5" d="M332.001 52H295.801" stroke="url(#paint2_linear_726_440)" stroke-linecap="round"/>
<path opacity="0.8" d="M403.841 26.6818C404.858 26.6818 405.682 25.8576 405.682 24.8409C405.682 23.8242 404.858 23 403.841 23C402.824 23 402 23.8242 402 24.8409C402 25.8576 402.824 26.6818 403.841 26.6818Z" fill="#3DDCA3"/>
<path opacity="0.8" d="M433.501 25H406.801" stroke="url(#paint3_linear_726_440)" stroke-linecap="round"/>
<path opacity="0.4" d="M232.841 12.6818C233.858 12.6818 234.682 11.8576 234.682 10.8409C234.682 9.8242 233.858 9 232.841 9C231.824 9 231 9.8242 231 10.8409C231 11.8576 231.824 12.6818 232.841 12.6818Z" fill="#3DDCA3"/>
<path opacity="0.4" d="M269.001 11H235.801" stroke="url(#paint4_linear_726_440)" stroke-linecap="round"/>
<path opacity="0.3" d="M233.841 80.6818C234.858 80.6818 235.682 79.8576 235.682 78.8409C235.682 77.8242 234.858 77 233.841 77C232.824 77 232 77.8242 232 78.8409C232 79.8576 232.824 80.6818 233.841 80.6818Z" fill="#3DDCA3"/>
<path opacity="0.1" d="M151.841 39.6818C152.858 39.6818 153.682 38.8576 153.682 37.8409C153.682 36.8242 152.858 36 151.841 36C150.824 36 150 36.8242 150 37.8409C150 38.8576 150.824 39.6818 151.841 39.6818Z" fill="#3DDCA3"/>
<path opacity="0.3" d="M270.001 79H236.801" stroke="url(#paint5_linear_726_440)" stroke-linecap="round"/>
<path opacity="0.4" d="M232.264 20V17.08H232.796L233.088 18.016C233.117 18.104 233.143 18.1893 233.164 18.272C233.185 18.352 233.2 18.412 233.208 18.452C233.219 18.412 233.233 18.352 233.252 18.272C233.273 18.1893 233.297 18.104 233.324 18.016L233.604 17.08H234.136V20H233.728V19.016C233.728 18.8907 233.731 18.752 233.736 18.6C233.744 18.4453 233.755 18.2907 233.768 18.136C233.781 17.9787 233.795 17.8293 233.808 17.688C233.821 17.544 233.833 17.4187 233.844 17.312L233.412 18.732H232.996L232.556 17.312C232.569 17.416 232.583 17.5373 232.596 17.676C232.609 17.812 232.621 17.9573 232.632 18.112C232.643 18.2667 232.652 18.4227 232.66 18.58C232.668 18.7347 232.672 18.88 232.672 19.016V20H232.264ZM234.774 20V17.08H236.49V17.464H235.198V18.292H236.35V18.672H235.198V19.616H236.49V20H234.774ZM237.781 20V17.476H237.001V17.076H238.993V17.476H238.213V20H237.781ZM239.535 20V17.08H239.967V18.288H240.823V17.08H241.255V20H240.823V18.688H239.967V20H239.535ZM242.794 20.04C242.612 20.04 242.455 20.0067 242.322 19.94C242.191 19.8707 242.09 19.772 242.018 19.644C241.948 19.5133 241.914 19.3613 241.914 19.188V17.892C241.914 17.716 241.948 17.564 242.018 17.436C242.09 17.308 242.191 17.2107 242.322 17.144C242.455 17.0747 242.612 17.04 242.794 17.04C242.975 17.04 243.131 17.0747 243.262 17.144C243.395 17.2107 243.496 17.308 243.566 17.436C243.638 17.564 243.674 17.7147 243.674 17.888V19.188C243.674 19.3613 243.638 19.5133 243.566 19.644C243.496 19.772 243.395 19.8707 243.262 19.94C243.131 20.0067 242.975 20.04 242.794 20.04ZM242.794 19.656C242.94 19.656 243.051 19.616 243.126 19.536C243.203 19.4533 243.242 19.3373 243.242 19.188V17.892C243.242 17.74 243.203 17.624 243.126 17.544C243.051 17.464 242.94 17.424 242.794 17.424C242.65 17.424 242.539 17.464 242.462 17.544C242.384 17.624 242.346 17.74 242.346 17.892V19.188C242.346 19.3373 242.384 19.4533 242.462 19.536C242.539 19.616 242.65 19.656 242.794 19.656ZM244.324 20V17.08H245.14C245.332 17.08 245.499 17.1173 245.64 17.192C245.782 17.264 245.891 17.3667 245.968 17.5C246.048 17.6333 246.088 17.7907 246.088 17.972V19.104C246.088 19.2827 246.048 19.44 245.968 19.576C245.891 19.712 245.782 19.8173 245.64 19.892C245.499 19.964 245.332 20 245.14 20H244.324ZM244.756 19.608H245.14C245.3 19.608 245.426 19.564 245.516 19.476C245.61 19.3853 245.656 19.2613 245.656 19.104V17.972C245.656 17.8173 245.61 17.696 245.516 17.608C245.426 17.5173 245.3 17.472 245.14 17.472H244.756V19.608ZM249.989 20.04C249.805 20.04 249.645 20.004 249.509 19.932C249.376 19.86 249.272 19.76 249.197 19.632C249.122 19.5013 249.085 19.3493 249.085 19.176V17.904C249.085 17.728 249.121 17.576 249.193 17.448C249.268 17.32 249.373 17.22 249.509 17.148C249.645 17.076 249.805 17.04 249.989 17.04C250.176 17.04 250.336 17.076 250.469 17.148C250.605 17.22 250.709 17.32 250.781 17.448C250.856 17.576 250.893 17.728 250.893 17.904V19.176C250.893 19.3493 250.856 19.5013 250.781 19.632C250.706 19.76 250.601 19.86 250.465 19.932C250.332 20.004 250.173 20.04 249.989 20.04ZM249.989 19.668C250.138 19.668 250.257 19.6227 250.345 19.532C250.436 19.4413 250.481 19.3227 250.481 19.176V17.904C250.481 17.7573 250.436 17.6387 250.345 17.548C250.257 17.4573 250.138 17.412 249.989 17.412C249.84 17.412 249.72 17.4573 249.629 17.548C249.541 17.6387 249.497 17.7573 249.497 17.904V19.176C249.497 19.3227 249.541 19.4413 249.629 19.532C249.72 19.6227 249.84 19.668 249.989 19.668ZM249.989 18.788C249.914 18.788 249.853 18.764 249.805 18.716C249.76 18.668 249.737 18.6053 249.737 18.528C249.737 18.4533 249.76 18.3933 249.805 18.348C249.853 18.3 249.914 18.276 249.989 18.276C250.064 18.276 250.124 18.3 250.169 18.348C250.217 18.3933 250.241 18.4533 250.241 18.528C250.241 18.6053 250.217 18.668 250.169 18.716C250.124 18.764 250.064 18.788 249.989 18.788ZM251.36 20L252.132 18.864L251.408 17.8H251.904L252.292 18.408C252.31 18.44 252.329 18.4747 252.348 18.512C252.366 18.5467 252.381 18.576 252.392 18.6C252.4 18.576 252.413 18.5467 252.432 18.512C252.45 18.4747 252.469 18.44 252.488 18.408L252.876 17.8H253.372L252.648 18.868L253.416 20H252.92L252.492 19.34C252.473 19.308 252.454 19.272 252.436 19.232C252.417 19.192 252.402 19.16 252.392 19.136C252.381 19.16 252.365 19.192 252.344 19.232C252.325 19.272 252.305 19.308 252.284 19.34L251.852 20H251.36ZM254.438 20V18.424H253.814V18.032H254.438V17.676C254.438 17.492 254.497 17.3467 254.614 17.24C254.731 17.1333 254.891 17.08 255.094 17.08H255.738V17.464H255.102C255.027 17.464 254.969 17.4827 254.926 17.52C254.886 17.5573 254.866 17.6107 254.866 17.68V18.032H255.738V18.424H254.866V20H254.438ZM256.332 20V19.616H257.108V17.456L256.328 18.036V17.568L256.996 17.08H257.54V19.616H258.168V20H256.332ZM259.599 20.04C259.417 20.04 259.257 20.0067 259.119 19.94C258.983 19.8707 258.877 19.772 258.803 19.644C258.731 19.5133 258.695 19.3613 258.695 19.188V18.612C258.695 18.436 258.731 18.284 258.803 18.156C258.877 18.028 258.983 17.9307 259.119 17.864C259.257 17.7947 259.417 17.76 259.599 17.76C259.863 17.76 260.075 17.8293 260.235 17.968C260.395 18.1067 260.479 18.296 260.487 18.536H260.055C260.047 18.4107 260.003 18.3133 259.923 18.244C259.843 18.1747 259.735 18.14 259.599 18.14C259.452 18.14 259.336 18.1813 259.251 18.264C259.165 18.344 259.123 18.4587 259.123 18.608V19.188C259.123 19.3373 259.165 19.4533 259.251 19.536C259.336 19.6187 259.452 19.66 259.599 19.66C259.735 19.66 259.843 19.6253 259.923 19.556C260.003 19.4867 260.047 19.3893 260.055 19.264H260.487C260.479 19.504 260.395 19.6933 260.235 19.832C260.075 19.9707 259.863 20.04 259.599 20.04ZM261.765 20V17.476H260.985V17.076H262.977V17.476H262.197V20H261.765ZM264.096 20L263.368 17.8H263.808L264.26 19.208C264.289 19.2907 264.314 19.3747 264.336 19.46C264.36 19.5427 264.377 19.608 264.388 19.656C264.401 19.608 264.418 19.5427 264.44 19.46C264.464 19.3747 264.488 19.2907 264.512 19.208L264.956 17.8H265.392L264.664 20H264.096Z" fill="#3DDCA3"/>
<path opacity="0.3" d="M232.264 88V85.08H232.796L233.088 86.016C233.117 86.104 233.143 86.1893 233.164 86.272C233.185 86.352 233.2 86.412 233.208 86.452C233.219 86.412 233.233 86.352 233.252 86.272C233.273 86.1893 233.297 86.104 233.324 86.016L233.604 85.08H234.136V88H233.728V87.016C233.728 86.8907 233.731 86.752 233.736 86.6C233.744 86.4453 233.755 86.2907 233.768 86.136C233.781 85.9787 233.795 85.8293 233.808 85.688C233.821 85.544 233.833 85.4187 233.844 85.312L233.412 86.732H232.996L232.556 85.312C232.569 85.416 232.583 85.5373 232.596 85.676C232.609 85.812 232.621 85.9573 232.632 86.112C232.643 86.2667 232.652 86.4227 232.66 86.58C232.668 86.7347 232.672 86.88 232.672 87.016V88H232.264ZM234.774 88V85.08H236.49V85.464H235.198V86.292H236.35V86.672H235.198V87.616H236.49V88H234.774ZM237.781 88V85.476H237.001V85.076H238.993V85.476H238.213V88H237.781ZM239.535 88V85.08H239.967V86.288H240.823V85.08H241.255V88H240.823V86.688H239.967V88H239.535ZM242.794 88.04C242.612 88.04 242.455 88.0067 242.322 87.94C242.191 87.8707 242.09 87.772 242.018 87.644C241.948 87.5133 241.914 87.3613 241.914 87.188V85.892C241.914 85.716 241.948 85.564 242.018 85.436C242.09 85.308 242.191 85.2107 242.322 85.144C242.455 85.0747 242.612 85.04 242.794 85.04C242.975 85.04 243.131 85.0747 243.262 85.144C243.395 85.2107 243.496 85.308 243.566 85.436C243.638 85.564 243.674 85.7147 243.674 85.888V87.188C243.674 87.3613 243.638 87.5133 243.566 87.644C243.496 87.772 243.395 87.8707 243.262 87.94C243.131 88.0067 242.975 88.04 242.794 88.04ZM242.794 87.656C242.94 87.656 243.051 87.616 243.126 87.536C243.203 87.4533 243.242 87.3373 243.242 87.188V85.892C243.242 85.74 243.203 85.624 243.126 85.544C243.051 85.464 242.94 85.424 242.794 85.424C242.65 85.424 242.539 85.464 242.462 85.544C242.384 85.624 242.346 85.74 242.346 85.892V87.188C242.346 87.3373 242.384 87.4533 242.462 87.536C242.539 87.616 242.65 87.656 242.794 87.656ZM244.324 88V85.08H245.14C245.332 85.08 245.499 85.1173 245.64 85.192C245.782 85.264 245.891 85.3667 245.968 85.5C246.048 85.6333 246.088 85.7907 246.088 85.972V87.104C246.088 87.2827 246.048 87.44 245.968 87.576C245.891 87.712 245.782 87.8173 245.64 87.892C245.499 87.964 245.332 88 245.14 88H244.324ZM244.756 87.608H245.14C245.3 87.608 245.426 87.564 245.516 87.476C245.61 87.3853 245.656 87.2613 245.656 87.104V85.972C245.656 85.8173 245.61 85.696 245.516 85.608C245.426 85.5173 245.3 85.472 245.14 85.472H244.756V87.608ZM249.989 88.04C249.805 88.04 249.645 88.004 249.509 87.932C249.376 87.86 249.272 87.76 249.197 87.632C249.122 87.5013 249.085 87.3493 249.085 87.176V85.904C249.085 85.728 249.121 85.576 249.193 85.448C249.268 85.32 249.373 85.22 249.509 85.148C249.645 85.076 249.805 85.04 249.989 85.04C250.176 85.04 250.336 85.076 250.469 85.148C250.605 85.22 250.709 85.32 250.781 85.448C250.856 85.576 250.893 85.728 250.893 85.904V87.176C250.893 87.3493 250.856 87.5013 250.781 87.632C250.706 87.76 250.601 87.86 250.465 87.932C250.332 88.004 250.173 88.04 249.989 88.04ZM249.989 87.668C250.138 87.668 250.257 87.6227 250.345 87.532C250.436 87.4413 250.481 87.3227 250.481 87.176V85.904C250.481 85.7573 250.436 85.6387 250.345 85.548C250.257 85.4573 250.138 85.412 249.989 85.412C249.84 85.412 249.72 85.4573 249.629 85.548C249.541 85.6387 249.497 85.7573 249.497 85.904V87.176C249.497 87.3227 249.541 87.4413 249.629 87.532C249.72 87.6227 249.84 87.668 249.989 87.668ZM249.989 86.788C249.914 86.788 249.853 86.764 249.805 86.716C249.76 86.668 249.737 86.6053 249.737 86.528C249.737 86.4533 249.76 86.3933 249.805 86.348C249.853 86.3 249.914 86.276 249.989 86.276C250.064 86.276 250.124 86.3 250.169 86.348C250.217 86.3933 250.241 86.4533 250.241 86.528C250.241 86.6053 250.217 86.668 250.169 86.716C250.124 86.764 250.064 86.788 249.989 86.788ZM251.36 88L252.132 86.864L251.408 85.8H251.904L252.292 86.408C252.31 86.44 252.329 86.4747 252.348 86.512C252.366 86.5467 252.381 86.576 252.392 86.6C252.4 86.576 252.413 86.5467 252.432 86.512C252.45 86.4747 252.469 86.44 252.488 86.408L252.876 85.8H253.372L252.648 86.868L253.416 88H252.92L252.492 87.34C252.473 87.308 252.454 87.272 252.436 87.232C252.417 87.192 252.402 87.16 252.392 87.136C252.381 87.16 252.365 87.192 252.344 87.232C252.325 87.272 252.305 87.308 252.284 87.34L251.852 88H251.36ZM253.926 88V87.572L254.83 86.64C254.969 86.496 255.07 86.3667 255.134 86.252C255.201 86.1347 255.234 86.0187 255.234 85.904C255.234 85.7547 255.193 85.6373 255.11 85.552C255.03 85.4667 254.919 85.424 254.778 85.424C254.623 85.424 254.501 85.4693 254.41 85.56C254.322 85.648 254.278 85.7693 254.278 85.924H253.846C253.851 85.7427 253.893 85.5867 253.97 85.456C254.047 85.3227 254.155 85.22 254.294 85.148C254.433 85.076 254.595 85.04 254.782 85.04C254.961 85.04 255.117 85.0747 255.25 85.144C255.383 85.2133 255.486 85.3107 255.558 85.436C255.63 85.5613 255.666 85.7093 255.666 85.88C255.666 86.0533 255.621 86.2227 255.53 86.388C255.442 86.5533 255.297 86.7373 255.094 86.94L254.434 87.608H255.71V88H253.926ZM256.9 88L256.172 85.8H256.612L257.064 87.208C257.094 87.2907 257.119 87.3747 257.14 87.46C257.164 87.5427 257.182 87.608 257.192 87.656C257.206 87.608 257.223 87.5427 257.244 87.46C257.268 87.3747 257.292 87.2907 257.316 87.208L257.76 85.8H258.196L257.468 88H256.9ZM259.823 88C259.623 88 259.467 87.9453 259.355 87.836C259.243 87.7267 259.187 87.5747 259.187 87.38V86.192H258.579V85.8H259.187V85.18H259.619V85.8H260.479V86.192H259.619V87.38C259.619 87.532 259.692 87.608 259.839 87.608H260.439V88H259.823ZM261.217 88V85.08H261.649V87.604H262.925V88H261.217ZM263.516 88V85.8H263.944V86.22H264.048L263.944 86.32C263.944 86.144 263.996 86.0067 264.1 85.908C264.204 85.8093 264.348 85.76 264.532 85.76C264.75 85.76 264.925 85.8307 265.056 85.972C265.186 86.1107 265.252 86.2987 265.252 86.536V88H264.82V86.584C264.82 86.44 264.781 86.3293 264.704 86.252C264.626 86.1747 264.521 86.136 264.388 86.136C264.252 86.136 264.144 86.1773 264.064 86.26C263.986 86.34 263.948 86.4573 263.948 86.612V88H263.516Z" fill="#3DDCA3"/>
<path opacity="0.5" d="M291.264 62V59.08H291.796L292.088 60.016C292.117 60.104 292.143 60.1893 292.164 60.272C292.185 60.352 292.2 60.412 292.208 60.452C292.219 60.412 292.233 60.352 292.252 60.272C292.273 60.1893 292.297 60.104 292.324 60.016L292.604 59.08H293.136V62H292.728V61.016C292.728 60.8907 292.731 60.752 292.736 60.6C292.744 60.4453 292.755 60.2907 292.768 60.136C292.781 59.9787 292.795 59.8293 292.808 59.688C292.821 59.544 292.833 59.4187 292.844 59.312L292.412 60.732H291.996L291.556 59.312C291.569 59.416 291.583 59.5373 291.596 59.676C291.609 59.812 291.621 59.9573 291.632 60.112C291.643 60.2667 291.652 60.4227 291.66 60.58C291.668 60.7347 291.672 60.88 291.672 61.016V62H291.264ZM293.774 62V59.08H295.49V59.464H294.198V60.292H295.35V60.672H294.198V61.616H295.49V62H293.774ZM296.781 62V59.476H296.001V59.076H297.993V59.476H297.213V62H296.781ZM298.535 62V59.08H298.967V60.288H299.823V59.08H300.255V62H299.823V60.688H298.967V62H298.535ZM301.794 62.04C301.612 62.04 301.455 62.0067 301.322 61.94C301.191 61.8707 301.09 61.772 301.018 61.644C300.948 61.5133 300.914 61.3613 300.914 61.188V59.892C300.914 59.716 300.948 59.564 301.018 59.436C301.09 59.308 301.191 59.2107 301.322 59.144C301.455 59.0747 301.612 59.04 301.794 59.04C301.975 59.04 302.131 59.0747 302.262 59.144C302.395 59.2107 302.496 59.308 302.566 59.436C302.638 59.564 302.674 59.7147 302.674 59.888V61.188C302.674 61.3613 302.638 61.5133 302.566 61.644C302.496 61.772 302.395 61.8707 302.262 61.94C302.131 62.0067 301.975 62.04 301.794 62.04ZM301.794 61.656C301.94 61.656 302.051 61.616 302.126 61.536C302.203 61.4533 302.242 61.3373 302.242 61.188V59.892C302.242 59.74 302.203 59.624 302.126 59.544C302.051 59.464 301.94 59.424 301.794 59.424C301.65 59.424 301.539 59.464 301.462 59.544C301.384 59.624 301.346 59.74 301.346 59.892V61.188C301.346 61.3373 301.384 61.4533 301.462 61.536C301.539 61.616 301.65 61.656 301.794 61.656ZM303.324 62V59.08H304.14C304.332 59.08 304.499 59.1173 304.64 59.192C304.782 59.264 304.891 59.3667 304.968 59.5C305.048 59.6333 305.088 59.7907 305.088 59.972V61.104C305.088 61.2827 305.048 61.44 304.968 61.576C304.891 61.712 304.782 61.8173 304.64 61.892C304.499 61.964 304.332 62 304.14 62H303.324ZM303.756 61.608H304.14C304.3 61.608 304.426 61.564 304.516 61.476C304.61 61.3853 304.656 61.2613 304.656 61.104V59.972C304.656 59.8173 304.61 59.696 304.516 59.608C304.426 59.5173 304.3 59.472 304.14 59.472H303.756V61.608ZM308.989 62.04C308.805 62.04 308.645 62.004 308.509 61.932C308.376 61.86 308.272 61.76 308.197 61.632C308.122 61.5013 308.085 61.3493 308.085 61.176V59.904C308.085 59.728 308.121 59.576 308.193 59.448C308.268 59.32 308.373 59.22 308.509 59.148C308.645 59.076 308.805 59.04 308.989 59.04C309.176 59.04 309.336 59.076 309.469 59.148C309.605 59.22 309.709 59.32 309.781 59.448C309.856 59.576 309.893 59.728 309.893 59.904V61.176C309.893 61.3493 309.856 61.5013 309.781 61.632C309.706 61.76 309.601 61.86 309.465 61.932C309.332 62.004 309.173 62.04 308.989 62.04ZM308.989 61.668C309.138 61.668 309.257 61.6227 309.345 61.532C309.436 61.4413 309.481 61.3227 309.481 61.176V59.904C309.481 59.7573 309.436 59.6387 309.345 59.548C309.257 59.4573 309.138 59.412 308.989 59.412C308.84 59.412 308.72 59.4573 308.629 59.548C308.541 59.6387 308.497 59.7573 308.497 59.904V61.176C308.497 61.3227 308.541 61.4413 308.629 61.532C308.72 61.6227 308.84 61.668 308.989 61.668ZM308.989 60.788C308.914 60.788 308.853 60.764 308.805 60.716C308.76 60.668 308.737 60.6053 308.737 60.528C308.737 60.4533 308.76 60.3933 308.805 60.348C308.853 60.3 308.914 60.276 308.989 60.276C309.064 60.276 309.124 60.3 309.169 60.348C309.217 60.3933 309.241 60.4533 309.241 60.528C309.241 60.6053 309.217 60.668 309.169 60.716C309.124 60.764 309.064 60.788 308.989 60.788ZM310.36 62L311.132 60.864L310.408 59.8H310.904L311.292 60.408C311.31 60.44 311.329 60.4747 311.348 60.512C311.366 60.5467 311.381 60.576 311.392 60.6C311.4 60.576 311.413 60.5467 311.432 60.512C311.45 60.4747 311.469 60.44 311.488 60.408L311.876 59.8H312.372L311.648 60.868L312.416 62H311.92L311.492 61.34C311.473 61.308 311.454 61.272 311.436 61.232C311.417 61.192 311.402 61.16 311.392 61.136C311.381 61.16 311.365 61.192 311.344 61.232C311.325 61.272 311.305 61.308 311.284 61.34L310.852 62H310.36ZM313.786 62.04C313.602 62.04 313.442 62.004 313.306 61.932C313.173 61.86 313.069 61.76 312.994 61.632C312.919 61.5013 312.882 61.3493 312.882 61.176V59.904C312.882 59.728 312.918 59.576 312.99 59.448C313.065 59.32 313.17 59.22 313.306 59.148C313.442 59.076 313.602 59.04 313.786 59.04C313.973 59.04 314.133 59.076 314.266 59.148C314.402 59.22 314.506 59.32 314.578 59.448C314.653 59.576 314.69 59.728 314.69 59.904V61.176C314.69 61.3493 314.653 61.5013 314.578 61.632C314.503 61.76 314.398 61.86 314.262 61.932C314.129 62.004 313.97 62.04 313.786 62.04ZM313.786 61.668C313.935 61.668 314.054 61.6227 314.142 61.532C314.233 61.4413 314.278 61.3227 314.278 61.176V59.904C314.278 59.7573 314.233 59.6387 314.142 59.548C314.054 59.4573 313.935 59.412 313.786 59.412C313.637 59.412 313.517 59.4573 313.426 59.548C313.338 59.6387 313.294 59.7573 313.294 59.904V61.176C313.294 61.3227 313.338 61.4413 313.426 61.532C313.517 61.6227 313.637 61.668 313.786 61.668ZM313.786 60.788C313.711 60.788 313.65 60.764 313.602 60.716C313.557 60.668 313.534 60.6053 313.534 60.528C313.534 60.4533 313.557 60.3933 313.602 60.348C313.65 60.3 313.711 60.276 313.786 60.276C313.861 60.276 313.921 60.3 313.966 60.348C314.014 60.3933 314.038 60.4533 314.038 60.528C314.038 60.6053 314.014 60.668 313.966 60.716C313.921 60.764 313.861 60.788 313.786 60.788ZM316.176 62.04C315.923 62.04 315.718 61.976 315.56 61.848C315.403 61.7173 315.315 61.5427 315.296 61.324H315.724C315.738 61.4307 315.783 61.5133 315.86 61.572C315.938 61.6307 316.044 61.66 316.18 61.66C316.332 61.66 316.447 61.62 316.524 61.54C316.604 61.4573 316.644 61.3427 316.644 61.196V60.912C316.644 60.7627 316.606 60.648 316.528 60.568C316.451 60.4853 316.336 60.444 316.184 60.444C316.088 60.444 316.006 60.4667 315.936 60.512C315.867 60.5547 315.816 60.6147 315.784 60.692H315.356L315.376 59.08H316.968V59.472H315.788L315.78 60.38H315.892L315.776 60.484C315.776 60.3587 315.826 60.26 315.924 60.188C316.023 60.116 316.155 60.08 316.32 60.08C316.558 60.08 316.742 60.1533 316.872 60.3C317.006 60.444 317.072 60.648 317.072 60.912V61.196C317.072 61.4547 316.994 61.66 316.836 61.812C316.679 61.964 316.459 62.04 316.176 62.04ZM318.583 62.04C318.396 62.04 318.235 62.008 318.099 61.944C317.963 61.88 317.857 61.7893 317.783 61.672C317.708 61.552 317.671 61.4133 317.671 61.256C317.671 61.08 317.719 60.9293 317.815 60.804C317.911 60.6787 318.059 60.5693 318.259 60.476L318.679 60.28C318.785 60.2293 318.868 60.1627 318.927 60.08C318.985 59.9947 319.015 59.9013 319.015 59.8C319.015 59.68 318.976 59.5853 318.899 59.516C318.821 59.4467 318.716 59.412 318.583 59.412C318.449 59.412 318.343 59.448 318.263 59.52C318.185 59.5893 318.147 59.684 318.147 59.804C318.147 59.9027 318.176 59.9947 318.235 60.08C318.293 60.1627 318.373 60.228 318.475 60.276L318.895 60.468C319.105 60.5667 319.257 60.68 319.351 60.808C319.447 60.9333 319.495 61.0827 319.495 61.256C319.495 61.496 319.412 61.6867 319.247 61.828C319.084 61.9693 318.863 62.04 318.583 62.04ZM318.583 61.664C318.732 61.664 318.851 61.6253 318.939 61.548C319.027 61.468 319.071 61.364 319.071 61.236C319.071 61.132 319.041 61.036 318.983 60.948C318.924 60.8573 318.843 60.7867 318.739 60.736L318.307 60.532C318.109 60.4387 317.963 60.332 317.867 60.212C317.771 60.092 317.723 59.948 317.723 59.78C317.723 59.6333 317.757 59.504 317.827 59.392C317.899 59.28 317.999 59.1933 318.127 59.132C318.255 59.068 318.407 59.036 318.583 59.036C318.759 59.036 318.911 59.068 319.039 59.132C319.167 59.1933 319.265 59.28 319.335 59.392C319.404 59.504 319.439 59.6333 319.439 59.78C319.439 59.9507 319.391 60.0947 319.295 60.212C319.201 60.3293 319.055 60.4373 318.855 60.536L318.419 60.74C318.317 60.788 318.237 60.856 318.179 60.944C318.123 61.032 318.095 61.1267 318.095 61.228C318.095 61.3587 318.139 61.464 318.227 61.544C318.315 61.624 318.433 61.664 318.583 61.664ZM320.825 62.04C320.604 62.04 320.427 61.9653 320.293 61.816C320.16 61.6667 320.093 61.4653 320.093 61.212V60.592C320.093 60.336 320.16 60.1333 320.293 59.984C320.427 59.8347 320.604 59.76 320.825 59.76C321.007 59.76 321.151 59.8107 321.257 59.912C321.364 60.0107 321.417 60.1467 321.417 60.32L321.325 60.22H321.425L321.413 59.708V59.08H321.845V62H321.417V61.58H321.325L321.417 61.48C321.417 61.6533 321.364 61.7907 321.257 61.892C321.151 61.9907 321.007 62.04 320.825 62.04ZM320.973 61.664C321.109 61.664 321.216 61.6227 321.293 61.54C321.373 61.4547 321.413 61.3373 321.413 61.188V60.612C321.413 60.4627 321.373 60.3467 321.293 60.264C321.216 60.1787 321.109 60.136 320.973 60.136C320.832 60.136 320.721 60.1773 320.641 60.26C320.561 60.34 320.521 60.4573 320.521 60.612V61.188C320.521 61.3427 320.561 61.4613 320.641 61.544C320.721 61.624 320.832 61.664 320.973 61.664ZM322.528 62V61.616H323.304V59.456L322.524 60.036V59.568L323.192 59.08H323.736V61.616H324.364V62H322.528Z" fill="#3DDCA3"/>
<path opacity="0.8" d="M402.231 35V32.445H402.697L402.952 33.264C402.978 33.341 403 33.4157 403.019 33.488C403.037 33.558 403.05 33.6105 403.057 33.6455C403.066 33.6105 403.079 33.558 403.096 33.488C403.114 33.4157 403.135 33.341 403.159 33.264L403.404 32.445H403.869V35H403.512V34.139C403.512 34.0293 403.514 33.908 403.519 33.775C403.526 33.6397 403.535 33.5043 403.547 33.369C403.559 33.2313 403.57 33.1007 403.582 32.977C403.594 32.851 403.604 32.7413 403.614 32.648L403.236 33.8905H402.872L402.487 32.648C402.498 32.739 402.51 32.8452 402.522 32.9665C402.533 33.0855 402.544 33.2127 402.553 33.348C402.562 33.4833 402.571 33.6198 402.578 33.7575C402.585 33.8928 402.588 34.02 402.588 34.139V35H402.231ZM404.428 35V32.445H405.929V32.781H404.799V33.5055H405.807V33.838H404.799V34.664H405.929V35H404.428ZM407.058 35V32.7915H406.376V32.4415H408.119V32.7915H407.436V35H407.058ZM408.593 35V32.445H408.971V33.502H409.72V32.445H410.098V35H409.72V33.852H408.971V35H408.593ZM411.445 35.035C411.286 35.035 411.148 35.0058 411.032 34.9475C410.917 34.8868 410.829 34.8005 410.766 34.6885C410.705 34.5742 410.675 34.4412 410.675 34.2895V33.1555C410.675 33.0015 410.705 32.8685 410.766 32.7565C410.829 32.6445 410.917 32.5593 411.032 32.501C411.148 32.4403 411.286 32.41 411.445 32.41C411.603 32.41 411.74 32.4403 411.854 32.501C411.971 32.5593 412.059 32.6445 412.12 32.7565C412.183 32.8685 412.215 33.0003 412.215 33.152V34.2895C412.215 34.4412 412.183 34.5742 412.12 34.6885C412.059 34.8005 411.971 34.8868 411.854 34.9475C411.74 35.0058 411.603 35.035 411.445 35.035ZM411.445 34.699C411.573 34.699 411.67 34.664 411.735 34.594C411.803 34.5217 411.837 34.4202 411.837 34.2895V33.1555C411.837 33.0225 411.803 32.921 411.735 32.851C411.67 32.781 411.573 32.746 411.445 32.746C411.319 32.746 411.222 32.781 411.154 32.851C411.086 32.921 411.053 33.0225 411.053 33.1555V34.2895C411.053 34.4202 411.086 34.5217 411.154 34.594C411.222 34.664 411.319 34.699 411.445 34.699ZM412.784 35V32.445H413.498C413.666 32.445 413.811 32.4777 413.935 32.543C414.059 32.606 414.154 32.6958 414.222 32.8125C414.292 32.9292 414.327 33.0668 414.327 33.2255V34.216C414.327 34.3723 414.292 34.51 414.222 34.629C414.154 34.748 414.059 34.8402 413.935 34.9055C413.811 34.9685 413.666 35 413.498 35H412.784ZM413.162 34.657H413.498C413.638 34.657 413.747 34.6185 413.827 34.5415C413.908 34.4622 413.949 34.3537 413.949 34.216V33.2255C413.949 33.0902 413.908 32.984 413.827 32.907C413.747 32.8277 413.638 32.788 413.498 32.788H413.162V34.657ZM417.74 35.035C417.579 35.035 417.439 35.0035 417.32 34.9405C417.204 34.8775 417.113 34.79 417.047 34.678C416.982 34.5637 416.949 34.4307 416.949 34.279V33.166C416.949 33.012 416.981 32.879 417.044 32.767C417.109 32.655 417.201 32.5675 417.32 32.5045C417.439 32.4415 417.579 32.41 417.74 32.41C417.904 32.41 418.044 32.4415 418.16 32.5045C418.279 32.5675 418.37 32.655 418.433 32.767C418.499 32.879 418.531 33.012 418.531 33.166V34.279C418.531 34.4307 418.499 34.5637 418.433 34.678C418.368 34.79 418.276 34.8775 418.157 34.9405C418.04 35.0035 417.901 35.035 417.74 35.035ZM417.74 34.7095C417.871 34.7095 417.975 34.6698 418.052 34.5905C418.131 34.5112 418.171 34.4073 418.171 34.279V33.166C418.171 33.0377 418.131 32.9338 418.052 32.8545C417.975 32.7752 417.871 32.7355 417.74 32.7355C417.61 32.7355 417.505 32.7752 417.425 32.8545C417.348 32.9338 417.31 33.0377 417.31 33.166V34.279C417.31 34.4073 417.348 34.5112 417.425 34.5905C417.505 34.6698 417.61 34.7095 417.74 34.7095ZM417.74 33.9395C417.675 33.9395 417.621 33.9185 417.579 33.8765C417.54 33.8345 417.52 33.7797 417.52 33.712C417.52 33.6467 417.54 33.5942 417.579 33.5545C417.621 33.5125 417.675 33.4915 417.74 33.4915C417.806 33.4915 417.858 33.5125 417.898 33.5545C417.94 33.5942 417.961 33.6467 417.961 33.712C417.961 33.7797 417.94 33.8345 417.898 33.8765C417.858 33.9185 417.806 33.9395 417.74 33.9395ZM418.94 35L419.615 34.006L418.982 33.075H419.416L419.755 33.607C419.771 33.635 419.788 33.6653 419.804 33.698C419.82 33.7283 419.833 33.754 419.843 33.775C419.85 33.754 419.861 33.7283 419.878 33.698C419.894 33.6653 419.91 33.635 419.927 33.607L420.266 33.075H420.7L420.067 34.0095L420.739 35H420.305L419.93 34.4225C419.914 34.3945 419.897 34.363 419.881 34.328C419.865 34.293 419.852 34.265 419.843 34.244C419.833 34.265 419.819 34.293 419.801 34.328C419.784 34.363 419.767 34.3945 419.748 34.4225L419.37 35H418.94ZM421.801 35.035C421.608 35.035 421.452 34.9697 421.336 34.839C421.219 34.7083 421.161 34.5322 421.161 34.3105V33.768C421.161 33.544 421.219 33.3667 421.336 33.236C421.452 33.1053 421.608 33.04 421.801 33.04C421.96 33.04 422.086 33.0843 422.179 33.173C422.273 33.2593 422.319 33.3783 422.319 33.53L422.239 33.4425H422.326L422.316 32.9945V32.445H422.694V35H422.319V34.6325H422.239L422.319 34.545C422.319 34.6967 422.273 34.8168 422.179 34.9055C422.086 34.9918 421.96 35.035 421.801 35.035ZM421.931 34.706C422.05 34.706 422.143 34.6698 422.211 34.5975C422.281 34.5228 422.316 34.4202 422.316 34.2895V33.7855C422.316 33.6548 422.281 33.5533 422.211 33.481C422.143 33.4063 422.05 33.369 421.931 33.369C421.807 33.369 421.71 33.4052 421.64 33.4775C421.57 33.5475 421.535 33.6502 421.535 33.7855V34.2895C421.535 34.4248 421.57 34.5287 421.64 34.601C421.71 34.671 421.807 34.706 421.931 34.706ZM424.414 35.63V35.0805L424.425 34.6325H424.337L424.418 34.545C424.418 34.6967 424.371 34.8168 424.278 34.9055C424.184 34.9918 424.058 35.035 423.9 35.035C423.706 35.035 423.552 34.9697 423.438 34.839C423.323 34.7083 423.266 34.531 423.266 34.307V33.7645C423.266 33.5405 423.323 33.3643 423.438 33.236C423.552 33.1053 423.706 33.04 423.9 33.04C424.058 33.04 424.184 33.0843 424.278 33.173C424.371 33.2593 424.418 33.3783 424.418 33.53L424.337 33.4425H424.418V33.075H424.792V35.63H424.414ZM424.029 34.706C424.148 34.706 424.242 34.6698 424.309 34.5975C424.379 34.5228 424.414 34.4202 424.414 34.2895V33.7855C424.414 33.6548 424.379 33.5533 424.309 33.481C424.242 33.4063 424.148 33.369 424.029 33.369C423.906 33.369 423.81 33.4052 423.742 33.4775C423.677 33.5475 423.644 33.6502 423.644 33.7855V34.2895C423.644 34.4248 423.677 34.5287 423.742 34.601C423.81 34.671 423.906 34.706 424.029 34.706ZM426.485 35V34.468H425.34V33.901L426.334 32.445H426.754L425.704 33.992V34.1285H426.485V33.53H426.859V35H426.485ZM427.478 35.63V35.28H427.961C428.089 35.28 428.189 35.245 428.262 35.175C428.334 35.105 428.37 35.0058 428.37 34.8775V33.4215H427.583V33.075H428.748V34.881C428.748 35.112 428.678 35.294 428.538 35.427C428.398 35.5623 428.209 35.63 427.971 35.63H427.478ZM428.542 32.7425C428.46 32.7425 428.395 32.7215 428.346 32.6795C428.297 32.6352 428.272 32.5768 428.272 32.5045C428.272 32.4298 428.297 32.3715 428.346 32.3295C428.395 32.2852 428.46 32.263 428.542 32.263C428.623 32.263 428.689 32.2852 428.738 32.3295C428.787 32.3715 428.811 32.4298 428.811 32.5045C428.811 32.5768 428.787 32.6352 428.738 32.6795C428.689 32.7215 428.623 32.7425 428.542 32.7425ZM430.084 35L429.447 33.075H429.832L430.227 34.307C430.253 34.3793 430.275 34.4528 430.294 34.5275C430.315 34.5998 430.33 34.657 430.339 34.699C430.351 34.657 430.366 34.5998 430.385 34.5275C430.406 34.4528 430.427 34.3793 430.448 34.307L430.836 33.075H431.218L430.581 35H430.084Z" fill="#3DDCA3"/>
<path opacity="0.1" d="M188.001 38H154.801" stroke="url(#paint6_linear_726_440)" stroke-linecap="round"/>
<path opacity="0.1" d="M150.264 47V44.08H150.796L151.088 45.016C151.117 45.104 151.143 45.1893 151.164 45.272C151.185 45.352 151.2 45.412 151.208 45.452C151.219 45.412 151.233 45.352 151.252 45.272C151.273 45.1893 151.297 45.104 151.324 45.016L151.604 44.08H152.136V47H151.728V46.016C151.728 45.8907 151.731 45.752 151.736 45.6C151.744 45.4453 151.755 45.2907 151.768 45.136C151.781 44.9787 151.795 44.8293 151.808 44.688C151.821 44.544 151.833 44.4187 151.844 44.312L151.412 45.732H150.996L150.556 44.312C150.569 44.416 150.583 44.5373 150.596 44.676C150.609 44.812 150.621 44.9573 150.632 45.112C150.643 45.2667 150.652 45.4227 150.66 45.58C150.668 45.7347 150.672 45.88 150.672 46.016V47H150.264ZM152.774 47V44.08H154.49V44.464H153.198V45.292H154.35V45.672H153.198V46.616H154.49V47H152.774ZM155.781 47V44.476H155.001V44.076H156.993V44.476H156.213V47H155.781ZM157.535 47V44.08H157.967V45.288H158.823V44.08H159.255V47H158.823V45.688H157.967V47H157.535ZM160.794 47.04C160.612 47.04 160.455 47.0067 160.322 46.94C160.191 46.8707 160.09 46.772 160.018 46.644C159.948 46.5133 159.914 46.3613 159.914 46.188V44.892C159.914 44.716 159.948 44.564 160.018 44.436C160.09 44.308 160.191 44.2107 160.322 44.144C160.455 44.0747 160.612 44.04 160.794 44.04C160.975 44.04 161.131 44.0747 161.262 44.144C161.395 44.2107 161.496 44.308 161.566 44.436C161.638 44.564 161.674 44.7147 161.674 44.888V46.188C161.674 46.3613 161.638 46.5133 161.566 46.644C161.496 46.772 161.395 46.8707 161.262 46.94C161.131 47.0067 160.975 47.04 160.794 47.04ZM160.794 46.656C160.94 46.656 161.051 46.616 161.126 46.536C161.203 46.4533 161.242 46.3373 161.242 46.188V44.892C161.242 44.74 161.203 44.624 161.126 44.544C161.051 44.464 160.94 44.424 160.794 44.424C160.65 44.424 160.539 44.464 160.462 44.544C160.384 44.624 160.346 44.74 160.346 44.892V46.188C160.346 46.3373 160.384 46.4533 160.462 46.536C160.539 46.616 160.65 46.656 160.794 46.656ZM162.324 47V44.08H163.14C163.332 44.08 163.499 44.1173 163.64 44.192C163.782 44.264 163.891 44.3667 163.968 44.5C164.048 44.6333 164.088 44.7907 164.088 44.972V46.104C164.088 46.2827 164.048 46.44 163.968 46.576C163.891 46.712 163.782 46.8173 163.64 46.892C163.499 46.964 163.332 47 163.14 47H162.324ZM162.756 46.608H163.14C163.3 46.608 163.426 46.564 163.516 46.476C163.61 46.3853 163.656 46.2613 163.656 46.104V44.972C163.656 44.8173 163.61 44.696 163.516 44.608C163.426 44.5173 163.3 44.472 163.14 44.472H162.756V46.608ZM167.989 47.04C167.805 47.04 167.645 47.004 167.509 46.932C167.376 46.86 167.272 46.76 167.197 46.632C167.122 46.5013 167.085 46.3493 167.085 46.176V44.904C167.085 44.728 167.121 44.576 167.193 44.448C167.268 44.32 167.373 44.22 167.509 44.148C167.645 44.076 167.805 44.04 167.989 44.04C168.176 44.04 168.336 44.076 168.469 44.148C168.605 44.22 168.709 44.32 168.781 44.448C168.856 44.576 168.893 44.728 168.893 44.904V46.176C168.893 46.3493 168.856 46.5013 168.781 46.632C168.706 46.76 168.601 46.86 168.465 46.932C168.332 47.004 168.173 47.04 167.989 47.04ZM167.989 46.668C168.138 46.668 168.257 46.6227 168.345 46.532C168.436 46.4413 168.481 46.3227 168.481 46.176V44.904C168.481 44.7573 168.436 44.6387 168.345 44.548C168.257 44.4573 168.138 44.412 167.989 44.412C167.84 44.412 167.72 44.4573 167.629 44.548C167.541 44.6387 167.497 44.7573 167.497 44.904V46.176C167.497 46.3227 167.541 46.4413 167.629 46.532C167.72 46.6227 167.84 46.668 167.989 46.668ZM167.989 45.788C167.914 45.788 167.853 45.764 167.805 45.716C167.76 45.668 167.737 45.6053 167.737 45.528C167.737 45.4533 167.76 45.3933 167.805 45.348C167.853 45.3 167.914 45.276 167.989 45.276C168.064 45.276 168.124 45.3 168.169 45.348C168.217 45.3933 168.241 45.4533 168.241 45.528C168.241 45.6053 168.217 45.668 168.169 45.716C168.124 45.764 168.064 45.788 167.989 45.788ZM169.36 47L170.132 45.864L169.408 44.8H169.904L170.292 45.408C170.31 45.44 170.329 45.4747 170.348 45.512C170.366 45.5467 170.381 45.576 170.392 45.6C170.4 45.576 170.413 45.5467 170.432 45.512C170.45 45.4747 170.469 45.44 170.488 45.408L170.876 44.8H171.372L170.648 45.868L171.416 47H170.92L170.492 46.34C170.473 46.308 170.454 46.272 170.436 46.232C170.417 46.192 170.402 46.16 170.392 46.136C170.381 46.16 170.365 46.192 170.344 46.232C170.325 46.272 170.305 46.308 170.284 46.34L169.852 47H169.36ZM171.926 47V46.572L172.83 45.64C172.969 45.496 173.07 45.3667 173.134 45.252C173.201 45.1347 173.234 45.0187 173.234 44.904C173.234 44.7547 173.193 44.6373 173.11 44.552C173.03 44.4667 172.919 44.424 172.778 44.424C172.623 44.424 172.501 44.4693 172.41 44.56C172.322 44.648 172.278 44.7693 172.278 44.924H171.846C171.851 44.7427 171.893 44.5867 171.97 44.456C172.047 44.3227 172.155 44.22 172.294 44.148C172.433 44.076 172.595 44.04 172.782 44.04C172.961 44.04 173.117 44.0747 173.25 44.144C173.383 44.2133 173.486 44.3107 173.558 44.436C173.63 44.5613 173.666 44.7093 173.666 44.88C173.666 45.0533 173.621 45.2227 173.53 45.388C173.442 45.5533 173.297 45.7373 173.094 45.94L172.434 46.608H173.71V47H171.926ZM174.9 47L174.172 44.8H174.612L175.064 46.208C175.094 46.2907 175.119 46.3747 175.14 46.46C175.164 46.5427 175.182 46.608 175.192 46.656C175.206 46.608 175.223 46.5427 175.244 46.46C175.268 46.3747 175.292 46.2907 175.316 46.208L175.76 44.8H176.196L175.468 47H174.9ZM177.823 47C177.623 47 177.467 46.9453 177.355 46.836C177.243 46.7267 177.187 46.5747 177.187 46.38V45.192H176.579V44.8H177.187V44.18H177.619V44.8H178.479V45.192H177.619V46.38C177.619 46.532 177.692 46.608 177.839 46.608H178.439V47H177.823ZM179.217 47V44.08H179.649V46.604H180.925V47H179.217ZM181.516 47V44.8H181.944V45.22H182.048L181.944 45.32C181.944 45.144 181.996 45.0067 182.1 44.908C182.204 44.8093 182.348 44.76 182.532 44.76C182.75 44.76 182.925 44.8307 183.056 44.972C183.186 45.1107 183.252 45.2987 183.252 45.536V47H182.82V45.584C182.82 45.44 182.781 45.3293 182.704 45.252C182.626 45.1747 182.521 45.136 182.388 45.136C182.252 45.136 182.144 45.1773 182.064 45.26C181.986 45.34 181.948 45.4573 181.948 45.612V47H181.516Z" fill="#3DDCA3"/>
<path opacity="0.08" d="M84.8409 13.6818C85.8576 13.6818 86.6818 12.8576 86.6818 11.8409C86.6818 10.8242 85.8576 10 84.8409 10C83.8242 10 83 10.8242 83 11.8409C83 12.8576 83.8242 13.6818 84.8409 13.6818Z" fill="#3DDCA3"/>
<path opacity="0.08" d="M121.001 12H87.8008" stroke="url(#paint7_linear_726_440)" stroke-linecap="round"/>
<path opacity="0.08" d="M83.264 21V18.08H83.796L84.088 19.016C84.1173 19.104 84.1427 19.1893 84.164 19.272C84.1853 19.352 84.2 19.412 84.208 19.452C84.2187 19.412 84.2333 19.352 84.252 19.272C84.2733 19.1893 84.2973 19.104 84.324 19.016L84.604 18.08H85.136V21H84.728V20.016C84.728 19.8907 84.7307 19.752 84.736 19.6C84.744 19.4453 84.7547 19.2907 84.768 19.136C84.7813 18.9787 84.7947 18.8293 84.808 18.688C84.8213 18.544 84.8333 18.4187 84.844 18.312L84.412 19.732H83.996L83.556 18.312C83.5693 18.416 83.5827 18.5373 83.596 18.676C83.6093 18.812 83.6213 18.9573 83.632 19.112C83.6427 19.2667 83.652 19.4227 83.66 19.58C83.668 19.7347 83.672 19.88 83.672 20.016V21H83.264ZM85.7744 21V18.08H87.4904V18.464H86.1984V19.292H87.3504V19.672H86.1984V20.616H87.4904V21H85.7744ZM88.7809 21V18.476H88.0009V18.076H89.9929V18.476H89.2129V21H88.7809ZM90.5353 21V18.08H90.9673V19.288H91.8233V18.08H92.2553V21H91.8233V19.688H90.9673V21H90.5353ZM93.7938 21.04C93.6124 21.04 93.4551 21.0067 93.3218 20.94C93.1911 20.8707 93.0898 20.772 93.0178 20.644C92.9484 20.5133 92.9138 20.3613 92.9138 20.188V18.892C92.9138 18.716 92.9484 18.564 93.0178 18.436C93.0898 18.308 93.1911 18.2107 93.3218 18.144C93.4551 18.0747 93.6124 18.04 93.7938 18.04C93.9751 18.04 94.1311 18.0747 94.2618 18.144C94.3951 18.2107 94.4964 18.308 94.5658 18.436C94.6378 18.564 94.6738 18.7147 94.6738 18.888V20.188C94.6738 20.3613 94.6378 20.5133 94.5658 20.644C94.4964 20.772 94.3951 20.8707 94.2618 20.94C94.1311 21.0067 93.9751 21.04 93.7938 21.04ZM93.7938 20.656C93.9404 20.656 94.0511 20.616 94.1258 20.536C94.2031 20.4533 94.2418 20.3373 94.2418 20.188V18.892C94.2418 18.74 94.2031 18.624 94.1258 18.544C94.0511 18.464 93.9404 18.424 93.7938 18.424C93.6498 18.424 93.5391 18.464 93.4618 18.544C93.3844 18.624 93.3458 18.74 93.3458 18.892V20.188C93.3458 20.3373 93.3844 20.4533 93.4618 20.536C93.5391 20.616 93.6498 20.656 93.7938 20.656ZM95.3242 21V18.08H96.1402C96.3322 18.08 96.4989 18.1173 96.6402 18.192C96.7815 18.264 96.8909 18.3667 96.9682 18.5C97.0482 18.6333 97.0882 18.7907 97.0882 18.972V20.104C97.0882 20.2827 97.0482 20.44 96.9682 20.576C96.8909 20.712 96.7815 20.8173 96.6402 20.892C96.4989 20.964 96.3322 21 96.1402 21H95.3242ZM95.7562 20.608H96.1402C96.3002 20.608 96.4255 20.564 96.5162 20.476C96.6095 20.3853 96.6562 20.2613 96.6562 20.104V18.972C96.6562 18.8173 96.6095 18.696 96.5162 18.608C96.4255 18.5173 96.3002 18.472 96.1402 18.472H95.7562V20.608ZM100.989 21.04C100.805 21.04 100.645 21.004 100.509 20.932C100.376 20.86 100.272 20.76 100.197 20.632C100.122 20.5013 100.085 20.3493 100.085 20.176V18.904C100.085 18.728 100.121 18.576 100.193 18.448C100.268 18.32 100.373 18.22 100.509 18.148C100.645 18.076 100.805 18.04 100.989 18.04C101.176 18.04 101.336 18.076 101.469 18.148C101.605 18.22 101.709 18.32 101.781 18.448C101.856 18.576 101.893 18.728 101.893 18.904V20.176C101.893 20.3493 101.856 20.5013 101.781 20.632C101.706 20.76 101.601 20.86 101.465 20.932C101.332 21.004 101.173 21.04 100.989 21.04ZM100.989 20.668C101.138 20.668 101.257 20.6227 101.345 20.532C101.436 20.4413 101.481 20.3227 101.481 20.176V18.904C101.481 18.7573 101.436 18.6387 101.345 18.548C101.257 18.4573 101.138 18.412 100.989 18.412C100.84 18.412 100.72 18.4573 100.629 18.548C100.541 18.6387 100.497 18.7573 100.497 18.904V20.176C100.497 20.3227 100.541 20.4413 100.629 20.532C100.72 20.6227 100.84 20.668 100.989 20.668ZM100.989 19.788C100.914 19.788 100.853 19.764 100.805 19.716C100.76 19.668 100.737 19.6053 100.737 19.528C100.737 19.4533 100.76 19.3933 100.805 19.348C100.853 19.3 100.914 19.276 100.989 19.276C101.064 19.276 101.124 19.3 101.169 19.348C101.217 19.3933 101.241 19.4533 101.241 19.528C101.241 19.6053 101.217 19.668 101.169 19.716C101.124 19.764 101.064 19.788 100.989 19.788ZM102.36 21L103.132 19.864L102.408 18.8H102.904L103.292 19.408C103.31 19.44 103.329 19.4747 103.348 19.512C103.366 19.5467 103.381 19.576 103.392 19.6C103.4 19.576 103.413 19.5467 103.432 19.512C103.45 19.4747 103.469 19.44 103.488 19.408L103.876 18.8H104.372L103.648 19.868L104.416 21H103.92L103.492 20.34C103.473 20.308 103.454 20.272 103.436 20.232C103.417 20.192 103.402 20.16 103.392 20.136C103.381 20.16 103.365 20.192 103.344 20.232C103.325 20.272 103.305 20.308 103.284 20.34L102.852 21H102.36ZM104.926 21V20.572L105.83 19.64C105.969 19.496 106.07 19.3667 106.134 19.252C106.201 19.1347 106.234 19.0187 106.234 18.904C106.234 18.7547 106.193 18.6373 106.11 18.552C106.03 18.4667 105.919 18.424 105.778 18.424C105.623 18.424 105.501 18.4693 105.41 18.56C105.322 18.648 105.278 18.7693 105.278 18.924H104.846C104.851 18.7427 104.893 18.5867 104.97 18.456C105.047 18.3227 105.155 18.22 105.294 18.148C105.433 18.076 105.595 18.04 105.782 18.04C105.961 18.04 106.117 18.0747 106.25 18.144C106.383 18.2133 106.486 18.3107 106.558 18.436C106.63 18.5613 106.666 18.7093 106.666 18.88C106.666 19.0533 106.621 19.2227 106.53 19.388C106.442 19.5533 106.297 19.7373 106.094 19.94L105.434 20.608H106.71V21H104.926ZM107.9 21L107.172 18.8H107.612L108.064 20.208C108.094 20.2907 108.119 20.3747 108.14 20.46C108.164 20.5427 108.182 20.608 108.192 20.656C108.206 20.608 108.223 20.5427 108.244 20.46C108.268 20.3747 108.292 20.2907 108.316 20.208L108.76 18.8H109.196L108.468 21H107.9ZM110.823 21C110.623 21 110.467 20.9453 110.355 20.836C110.243 20.7267 110.187 20.5747 110.187 20.38V19.192H109.579V18.8H110.187V18.18H110.619V18.8H111.479V19.192H110.619V20.38C110.619 20.532 110.692 20.608 110.839 20.608H111.439V21H110.823ZM112.217 21V18.08H112.649V20.604H113.925V21H112.217ZM114.516 21V18.8H114.944V19.22H115.048L114.944 19.32C114.944 19.144 114.996 19.0067 115.1 18.908C115.204 18.8093 115.348 18.76 115.532 18.76C115.75 18.76 115.925 18.8307 116.056 18.972C116.186 19.1107 116.252 19.2987 116.252 19.536V21H115.82V19.584C115.82 19.44 115.781 19.3293 115.704 19.252C115.626 19.1747 115.521 19.136 115.388 19.136C115.252 19.136 115.144 19.1773 115.064 19.26C114.986 19.34 114.948 19.4573 114.948 19.612V21H114.516Z" fill="#3DDCA3"/>
</g>
<defs>
<linearGradient id="paint0_linear_726_440" x1="213.5" y1="-62" x2="213.5" y2="148.014" gradientUnits="userSpaceOnUse">
<stop stop-color="white"/>
<stop offset="1" stop-color="#232323" stop-opacity="0"/>
</linearGradient>
<linearGradient id="paint1_linear_726_440" x1="145.5" y1="-92" x2="-7.99998" y2="135.5" gradientUnits="userSpaceOnUse">
<stop stop-color="#323232"/>
<stop offset="1" stop-color="#232324" stop-opacity="0"/>
</linearGradient>
<linearGradient id="paint2_linear_726_440" x1="296.031" y1="64.9124" x2="328.001" y2="56.5001" gradientUnits="userSpaceOnUse">
<stop stop-color="#3DDCA3"/>
<stop offset="1" stop-color="#3DDC99" stop-opacity="0"/>
</linearGradient>
<linearGradient id="paint3_linear_726_440" x1="407.031" y1="37.9124" x2="429.501" y2="27.0001" gradientUnits="userSpaceOnUse">
<stop stop-color="#3DDCA3"/>
<stop offset="1" stop-color="#3DDC99" stop-opacity="0"/>
</linearGradient>
<linearGradient id="paint4_linear_726_440" x1="236.031" y1="23.9124" x2="265.001" y2="14.5001" gradientUnits="userSpaceOnUse">
<stop stop-color="#3DDCA3"/>
<stop offset="1" stop-color="#3DDC99" stop-opacity="0"/>
</linearGradient>
<linearGradient id="paint5_linear_726_440" x1="237.031" y1="91.9124" x2="266.001" y2="82.5001" gradientUnits="userSpaceOnUse">
<stop stop-color="#3DDCA3"/>
<stop offset="1" stop-color="#3DDC99" stop-opacity="0"/>
</linearGradient>
<linearGradient id="paint6_linear_726_440" x1="155.031" y1="50.9124" x2="184.001" y2="41.5001" gradientUnits="userSpaceOnUse">
<stop stop-color="#3DDCA3"/>
<stop offset="1" stop-color="#3DDC99" stop-opacity="0"/>
</linearGradient>
<linearGradient id="paint7_linear_726_440" x1="88.0309" y1="24.9124" x2="117.001" y2="15.5001" gradientUnits="userSpaceOnUse">
<stop stop-color="#3DDCA3"/>
<stop offset="1" stop-color="#3DDC99" stop-opacity="0"/>
</linearGradient>
<clipPath id="clip0_726_440">
<rect width="445" height="208" fill="white"/>
</clipPath>
</defs>
</svg>
