<svg width="57" height="57" viewBox="0 0 57 57" fill="none" xmlns="http://www.w3.org/2000/svg">
<g clip-path="url(#clip0_653_6392)">
<path d="M48.4048 0H8.59524C3.84822 0 0 3.84822 0 8.59524V48.4048C0 53.1518 3.84822 57 8.59524 57H48.4048C53.1518 57 57 53.1518 57 48.4048V8.59524C57 3.84822 53.1518 0 48.4048 0Z" fill="#111111"/>
<mask id="mask0_653_6392" style="mask-type:luminance" maskUnits="userSpaceOnUse" x="13" y="14" width="30" height="30">
<path d="M42.1667 14H13V44H42.1667V14Z" fill="white"/>
</mask>
<g mask="url(#mask0_653_6392)">
<path d="M27.6251 36.9311C27.0438 36.9311 26.5709 36.4604 26.5709 35.8771C26.5709 35.2937 27.0418 34.8228 27.6251 34.8228C30.8376 34.8228 33.4501 32.2104 33.4501 28.9979C33.4501 25.7854 30.8376 23.1728 27.6251 23.1728C24.4126 23.1728 21.8001 25.7854 21.8001 28.9979C21.8001 29.5854 21.8876 30.1625 22.0584 30.7166C22.2293 31.2729 21.9188 31.8624 21.3626 32.0332C20.8063 32.204 20.2168 31.8937 20.0459 31.3375C19.8126 30.5812 19.6938 29.7937 19.6938 28.9979C19.6938 24.625 23.2522 21.0667 27.6251 21.0667C31.998 21.0667 35.5563 24.625 35.5563 28.9979C35.5563 33.3708 31.998 36.9311 27.6251 36.9311Z" fill="white"/>
<path d="M36.0019 40.7334C35.6894 40.7334 35.381 40.5959 35.1727 40.3313C34.8144 39.873 34.8935 39.2126 35.3498 38.8522C37.3998 37.2417 38.8769 35.0792 39.6185 32.5959C39.7852 32.0397 40.3727 31.723 40.9289 31.8897C41.4852 32.0563 41.8019 32.6438 41.6352 33.2001C40.7664 36.1001 39.0414 38.6272 36.6477 40.5084C36.4539 40.6605 36.2248 40.7334 35.9977 40.7334H36.0019Z" fill="white"/>
<path d="M27.625 43.625C19.5604 43.625 13 37.0646 13 29C13 20.9354 19.5604 14.375 27.625 14.375C32.9521 14.375 37.8625 17.275 40.4396 21.9458C40.7208 22.4542 40.5354 23.0958 40.0271 23.3771C39.5187 23.6583 38.8771 23.4729 38.5958 22.9646C36.3896 18.9667 32.1875 16.4833 27.625 16.4833C20.7229 16.4812 15.1062 22.0979 15.1062 29C15.1062 35.9021 20.7229 41.5187 27.625 41.5187C28.2062 41.5187 28.6792 41.9896 28.6792 42.5729C28.6792 43.1562 28.2083 43.6271 27.625 43.6271V43.625Z" fill="white"/>
<path d="M23.5585 35.9749C24.4076 35.9749 25.096 35.2865 25.096 34.4374C25.096 33.5883 24.4076 32.8999 23.5585 32.8999C22.7094 32.8999 22.021 33.5883 22.021 34.4374C22.021 35.2865 22.7094 35.9749 23.5585 35.9749Z" fill="white"/>
<path d="M32.1311 43.4229C32.9803 43.4229 33.6687 42.7345 33.6687 41.8854C33.6687 41.0363 32.9803 40.3479 32.1311 40.3479C31.282 40.3479 30.5938 41.0363 30.5938 41.8854C30.5938 42.7345 31.282 43.4229 32.1311 43.4229Z" fill="white"/>
<path d="M40.6293 29.2647C41.4784 29.2647 42.1668 28.5763 42.1668 27.7272C42.1668 26.8781 41.4784 26.1897 40.6293 26.1897C39.7802 26.1897 39.0918 26.8781 39.0918 27.7272C39.0918 28.5763 39.7802 29.2647 40.6293 29.2647Z" fill="white"/>
</g>
</g>
<defs>
<clipPath id="clip0_653_6392">
<rect width="57" height="57" fill="white"/>
</clipPath>
</defs>
</svg>
