<svg width="433" height="162" viewBox="0 0 433 162" fill="none" xmlns="http://www.w3.org/2000/svg">
<path d="M203.708 9.7301H433" stroke="#3B3B3B" stroke-width="0.5"/>
<path d="M213.854 26.0403C215.787 26.0403 217.354 24.4733 217.354 22.5403C217.354 20.6073 215.787 19.0403 213.854 19.0403C211.921 19.0403 210.354 20.6073 210.354 22.5403C210.354 24.4733 211.921 26.0403 213.854 26.0403Z" fill="#14B8A6"/>
<path d="M213.854 52.6249C215.787 52.6249 217.354 51.0579 217.354 49.1249C217.354 47.1919 215.787 45.6249 213.854 45.6249C211.921 45.6249 210.354 47.1919 210.354 49.1249C210.354 51.0579 211.921 52.6249 213.854 52.6249Z" fill="#3B82F6"/>
<path d="M213.854 79.2095C215.787 79.2095 217.354 77.6425 217.354 75.7095C217.354 73.7765 215.787 72.2095 213.854 72.2095C211.921 72.2095 210.354 73.7765 210.354 75.7095C210.354 77.6425 211.921 79.2095 213.854 79.2095Z" fill="#6366F1"/>
<path d="M213.854 104.794C215.787 104.794 217.354 103.227 217.354 101.294C217.354 99.3611 215.787 97.7941 213.854 97.7941C211.921 97.7941 210.354 99.3611 210.354 101.294C210.354 103.227 211.921 104.794 213.854 104.794Z" fill="#EC4899"/>
<path d="M213.854 131.379C215.787 131.379 217.354 129.812 217.354 127.879C217.354 125.946 215.787 124.379 213.854 124.379C211.921 124.379 210.354 125.946 210.354 127.879C210.354 129.812 211.921 131.379 213.854 131.379Z" fill="#F59E0B"/>
<path d="M213.854 158.963C215.787 158.963 217.354 157.396 217.354 155.463C217.354 153.53 215.787 151.963 213.854 151.963C211.921 151.963 210.354 153.53 210.354 155.463C210.354 157.396 211.921 158.963 213.854 158.963Z" fill="#FACC15"/>
<path d="M79.0923 2.0863C94.5371 2.0863 109.636 6.66633 122.478 15.2473C135.32 23.8281 145.33 36.0245 151.24 50.294C157.151 64.5635 158.697 80.265 155.684 95.4132C152.671 110.562 145.233 124.477 134.312 135.398L118.85 119.937C126.714 112.073 132.069 102.054 134.239 91.1481C136.408 80.2409 135.295 68.9358 131.039 58.6617C126.783 48.3876 119.576 39.6062 110.33 33.428C101.084 27.2498 90.213 23.9521 79.0923 23.9521V2.0863Z" fill="#14B8A6" stroke="#F7F7F7" stroke-width="2"/>
<path d="M79.0923 158.271C65.3846 158.271 51.9178 154.663 40.0461 147.808L50.9791 128.873C59.5269 133.807 69.2228 136.405 79.0923 136.405V158.271Z" fill="#6366F1" stroke="#F7F7F7" stroke-width="2"/>
<path d="M40.0462 147.808C28.1746 140.954 18.3164 131.097 11.4624 119.225C4.60836 107.353 1 93.8864 1 80.1787H22.8658C22.8658 90.0483 25.4638 99.7442 30.3988 108.292C35.3337 116.84 42.4313 123.937 50.9791 128.873L40.0462 147.808Z" fill="#EC4899" stroke="#F7F7F7" stroke-width="2"/>
<path d="M1 80.1787C1 69.9237 3.01993 59.7687 6.9444 50.294C10.869 40.8194 16.6212 32.2106 23.8727 24.9591L39.3342 40.4205C34.1131 45.6417 29.9715 51.8401 27.1458 58.6618C24.3202 65.4832 22.8658 72.7948 22.8658 80.1787H1Z" fill="#F59E0B" stroke="#F7F7F7" stroke-width="2"/>
<path d="M23.8727 24.959C31.1242 17.7075 39.7329 11.9553 49.2079 8.03071C58.6819 4.10624 68.8373 2.0863 79.0923 2.0863V23.9522C71.7084 23.9522 64.3968 25.4065 57.5754 28.2321C50.7539 31.0578 44.5555 35.1994 39.3342 40.4205L23.8727 24.959Z" fill="#FACC15" stroke="#F7F7F7" stroke-width="2"/>
<path d="M134.312 135.398C119.667 150.043 99.8034 158.271 79.0923 158.271V136.405C94.0046 136.405 108.306 130.481 118.85 119.937L134.312 135.398Z" fill="#3B82F6" stroke="#F7F7F7" stroke-width="2"/>
<path d="M91.6138 71.2329C91.6138 71.0435 91.6736 70.884 91.8132 70.7444C91.9428 70.6048 92.1023 70.535 92.3017 70.535C92.4911 70.535 92.6506 70.6048 92.7902 70.7444C92.9297 70.884 92.9995 71.0435 92.9995 71.2329C92.9995 71.4323 92.9297 71.5918 92.7902 71.7214C92.6506 71.861 92.4911 71.9208 92.3017 71.9208C92.1023 71.9208 91.9428 71.861 91.8132 71.7214C91.6736 71.5918 91.6138 71.4323 91.6138 71.2329ZM91.6038 67.7237C91.6038 67.5343 91.6636 67.3748 91.8032 67.2352C91.9328 67.0957 92.0923 67.0259 92.2917 67.0259C92.4811 67.0259 92.6406 67.0957 92.7802 67.2352C92.9198 67.3748 92.9895 67.5343 92.9895 67.7237C92.9895 67.9231 92.9198 68.0826 92.7802 68.2122C92.6406 68.3518 92.4811 68.4116 92.2917 68.4116C92.0923 68.4116 91.9328 68.3518 91.8032 68.2122C91.6636 68.0826 91.6038 67.9231 91.6038 67.7237Z" fill="#929292"/>
<path d="M87.6317 73.8748H86.6049L87.8012 71.3426L85.7375 67.0758H86.8142L88.3096 70.3856L89.7452 67.0758H90.7521L87.6317 73.8748Z" fill="#929292"/>
<path d="M84.8413 71.871H83.9041V64.6533H84.8413V71.871Z" fill="#929292"/>
<path d="M78.9218 73.7652H77.9947V67.0758H78.9019V67.8235C79.0414 67.5743 79.2508 67.365 79.5299 67.2054C79.8091 67.0459 80.1281 66.9662 80.5069 66.9662C81.1948 66.9662 81.7331 67.2054 82.1219 67.674C82.5107 68.1525 82.7101 68.7507 82.7101 69.4685C82.7101 70.2062 82.5008 70.8043 82.102 71.2829C81.7032 71.7614 81.1549 72.0006 80.477 72.0006C80.1181 72.0006 79.8091 71.9309 79.5399 71.7813C79.2608 71.6418 79.0614 71.4523 78.9218 71.223V73.7652ZM81.7531 69.4685C81.7531 68.9899 81.6235 68.5912 81.3643 68.2722C81.1051 67.9531 80.7661 67.7936 80.3374 67.7936C79.9088 67.7936 79.5598 67.9531 79.3006 68.2722C79.0414 68.5912 78.9118 68.9899 78.9118 69.4685C78.9118 69.9669 79.0414 70.3757 79.3006 70.6947C79.5598 71.0137 79.9088 71.1632 80.3374 71.1632C80.7561 71.1632 81.1051 71.0137 81.3643 70.6947C81.6235 70.3757 81.7531 69.9669 81.7531 69.4685Z" fill="#929292"/>
<path d="M73.0123 73.7652H72.0851V67.0758H72.9923V67.8235C73.1319 67.5743 73.3413 67.365 73.6204 67.2054C73.8995 67.0459 74.2186 66.9662 74.5974 66.9662C75.2853 66.9662 75.8236 67.2054 76.2124 67.674C76.6012 68.1525 76.8006 68.7507 76.8006 69.4685C76.8006 70.2062 76.5912 70.8043 76.1925 71.2829C75.7937 71.7614 75.2454 72.0006 74.5675 72.0006C74.2086 72.0006 73.8995 71.9309 73.6304 71.7813C73.3512 71.6418 73.1519 71.4523 73.0123 71.223V73.7652ZM75.8435 69.4685C75.8435 68.9899 75.7139 68.5912 75.4547 68.2722C75.1955 67.9531 74.8566 67.7936 74.4279 67.7936C73.9992 67.7936 73.6503 67.9531 73.3911 68.2722C73.1319 68.5912 73.0023 68.9899 73.0023 69.4685C73.0023 69.9669 73.1319 70.3757 73.3911 70.6947C73.6503 71.0137 73.9992 71.1632 74.4279 71.1632C74.8466 71.1632 75.1955 71.0137 75.4547 70.6947C75.7139 70.3757 75.8435 69.9669 75.8435 69.4685Z" fill="#929292"/>
<path d="M69.5988 71.2928C69.4692 71.5321 69.2797 71.7215 69.0205 71.8411C68.7613 71.9607 68.4822 72.0205 68.1831 72.0205C67.6348 72.0205 67.1962 71.8411 66.8772 71.4822C66.5482 71.1233 66.3887 70.6548 66.3887 70.0965V67.0758H67.3258V69.9569C67.3258 70.3158 67.4055 70.6149 67.585 70.8442C67.7644 71.0834 68.0336 71.1931 68.4124 71.1931C68.7813 71.1931 69.0604 71.0834 69.2598 70.8641C69.4492 70.6448 69.5489 70.3457 69.5489 69.9669V67.0758H70.486V70.9837C70.486 71.3028 70.496 71.5919 70.5359 71.871H69.6386C69.6087 71.7314 69.5988 71.5321 69.5988 71.2928Z" fill="#929292"/>
<path d="M65.3879 66.4079L64.5106 66.717C64.4608 66.4179 64.3112 66.1387 64.062 65.8895C63.8028 65.6403 63.4539 65.5107 63.0152 65.5107C62.6165 65.5107 62.2975 65.6303 62.0383 65.8496C61.7791 66.0789 61.6495 66.3581 61.6495 66.687C61.6495 66.9462 61.7192 67.1656 61.8788 67.345C62.0383 67.5245 62.2576 67.6541 62.5567 67.7139L63.6134 67.9432C64.1916 68.0728 64.6502 68.312 64.9692 68.661C65.2882 69.0099 65.4477 69.4286 65.4477 69.927C65.4477 70.5053 65.2184 70.9938 64.7698 71.4025C64.3112 71.8212 63.7231 72.0206 63.0053 72.0206C62.2077 72.0206 61.5896 71.8212 61.141 71.4025C60.6924 70.9838 60.4332 70.4953 60.3634 69.9171L61.3005 69.618C61.3404 70.0467 61.4999 70.4056 61.799 70.6947C62.0881 70.9938 62.4869 71.1333 62.9953 71.1333C63.4539 71.1333 63.8128 71.0336 64.072 70.8143C64.3212 70.605 64.4508 70.3358 64.4508 70.0068C64.4508 69.7476 64.3611 69.5183 64.1816 69.3189C64.0022 69.1195 63.733 68.9899 63.3941 68.9102L62.3872 68.6909C61.8588 68.5812 61.4401 68.3619 61.1311 68.0229C60.812 67.6939 60.6625 67.2752 60.6625 66.7568C60.6625 66.1986 60.8818 65.7101 61.3404 65.2914C61.799 64.8726 62.3473 64.6533 62.9953 64.6533C63.7131 64.6533 64.2714 64.8328 64.6602 65.1817C65.039 65.5406 65.2882 65.9493 65.3879 66.4079Z" fill="#929292"/>
<path d="M122.293 84.5418H119.798V90.9786H118.502V84.5418H116.018V83.3214H122.293V84.5418Z" fill="#929292"/>
<path d="M110.166 88.6674V88.1706L111.43 87.9114V88.6242C111.43 89.0562 111.538 89.3802 111.754 89.5962C111.97 89.8122 112.25 89.9202 112.607 89.9202C112.952 89.9202 113.222 89.8122 113.428 89.5962C113.622 89.3802 113.73 89.067 113.73 88.6782V83.3214H115.026V88.6458C115.026 89.3478 114.799 89.9418 114.356 90.417C113.903 90.903 113.33 91.1406 112.618 91.1406C111.862 91.1406 111.268 90.9246 110.825 90.471C110.382 90.0174 110.166 89.4234 110.166 88.6674Z" fill="#929292"/>
<path d="M104.37 89.7906H105.731C106.433 89.7906 107.016 89.5746 107.47 89.121C107.923 88.6674 108.161 88.0194 108.161 87.1662C108.161 86.313 107.934 85.6542 107.48 85.2006C107.027 84.747 106.444 84.5094 105.742 84.5094H104.37V89.7906ZM105.774 90.9786H103.074V83.3214H105.785C106.865 83.3214 107.75 83.667 108.452 84.3474C109.154 85.0386 109.511 85.9782 109.511 87.1662C109.511 88.3542 109.154 89.2938 108.452 89.9634C107.74 90.6438 106.854 90.9786 105.774 90.9786Z" fill="#929292"/>
<path d="M94.5614 87.4796C94.5614 88.3868 94.7234 89.0564 95.0582 89.4776C95.3174 89.8232 95.6738 89.996 96.1382 89.996C96.581 89.996 96.9374 89.8232 97.2182 89.4776C97.5422 89.0672 97.7042 88.3976 97.7042 87.4796C97.7042 86.5724 97.5422 85.9028 97.2182 85.4816C96.9374 85.136 96.581 84.9632 96.1382 84.9632C95.6738 84.9632 95.3174 85.136 95.0582 85.4816C94.7234 85.892 94.5614 86.5616 94.5614 87.4796ZM93.2762 87.4796C93.2762 86.432 93.4814 85.5896 93.9026 84.9632C94.4102 84.2072 95.1554 83.8184 96.1382 83.8184C97.1102 83.8184 97.8446 84.2072 98.363 84.9632C98.7734 85.5896 98.9894 86.432 98.9894 87.4796C98.9894 88.538 98.7734 89.3696 98.363 89.996C97.8446 90.7628 97.1102 91.1408 96.1382 91.1408C95.1554 91.1408 94.4102 90.7628 93.9026 89.996C93.4814 89.3696 93.2762 88.538 93.2762 87.4796Z" fill="#929292"/>
<path d="M87.9064 87.4796C87.9064 88.3868 88.0684 89.0564 88.4032 89.4776C88.6624 89.8232 89.0188 89.996 89.4832 89.996C89.926 89.996 90.2824 89.8232 90.5632 89.4776C90.8872 89.0672 91.0492 88.3976 91.0492 87.4796C91.0492 86.5724 90.8872 85.9028 90.5632 85.4816C90.2824 85.136 89.926 84.9632 89.4832 84.9632C89.0188 84.9632 88.6624 85.136 88.4032 85.4816C88.0684 85.892 87.9064 86.5616 87.9064 87.4796ZM86.6212 87.4796C86.6212 86.432 86.8264 85.5896 87.2476 84.9632C87.7552 84.2072 88.5004 83.8184 89.4832 83.8184C90.4552 83.8184 91.1896 84.2072 91.708 84.9632C92.1184 85.5896 92.3344 86.432 92.3344 87.4796C92.3344 88.538 92.1184 89.3696 91.708 89.996C91.1896 90.7628 90.4552 91.1408 89.4832 91.1408C88.5004 91.1408 87.7552 90.7628 87.2476 89.996C86.8264 89.3696 86.6212 88.538 86.6212 87.4796Z" fill="#929292"/>
<path d="M81.2513 87.4796C81.2513 88.3868 81.4133 89.0564 81.7481 89.4776C82.0073 89.8232 82.3637 89.996 82.8281 89.996C83.2709 89.996 83.6273 89.8232 83.9081 89.4776C84.2321 89.0672 84.3941 88.3976 84.3941 87.4796C84.3941 86.5724 84.2321 85.9028 83.9081 85.4816C83.6273 85.136 83.2709 84.9632 82.8281 84.9632C82.3637 84.9632 82.0073 85.136 81.7481 85.4816C81.4133 85.892 81.2513 86.5616 81.2513 87.4796ZM79.9661 87.4796C79.9661 86.432 80.1713 85.5896 80.5925 84.9632C81.1001 84.2072 81.8453 83.8184 82.8281 83.8184C83.8001 83.8184 84.5345 84.2072 85.0529 84.9632C85.4633 85.5896 85.6793 86.432 85.6793 87.4796C85.6793 88.538 85.4633 89.3696 85.0529 89.996C84.5345 90.7628 83.8001 91.1408 82.8281 91.1408C81.8453 91.1408 81.1001 90.7628 80.5925 89.996C80.1713 89.3696 79.9661 88.538 79.9661 87.4796Z" fill="#929292"/>
<path d="M77.113 90.1902C77.113 89.9634 77.1994 89.769 77.3722 89.607C77.545 89.4558 77.7502 89.3694 78.0094 89.3694C78.2902 89.3694 78.5278 89.4774 78.7114 89.6826C78.895 89.8986 78.9922 90.1686 78.9922 90.5142C78.9922 91.2054 78.8086 91.7346 78.4414 92.1126C78.0742 92.4906 77.6746 92.7066 77.2318 92.7606V92.1234C77.4802 92.0694 77.6962 91.929 77.8906 91.7022C78.085 91.4862 78.1822 91.2378 78.193 90.957C78.1174 91.0002 78.031 91.011 77.9338 91.011C77.6962 91.011 77.491 90.9354 77.3398 90.7842C77.1886 90.633 77.113 90.4386 77.113 90.1902Z" fill="#929292"/>
<path d="M71.9279 87.4796C71.9279 88.3868 72.0899 89.0564 72.4247 89.4776C72.6839 89.8232 73.0403 89.996 73.5047 89.996C73.9475 89.996 74.3039 89.8232 74.5847 89.4776C74.9087 89.0672 75.0707 88.3976 75.0707 87.4796C75.0707 86.5724 74.9087 85.9028 74.5847 85.4816C74.3039 85.136 73.9475 84.9632 73.5047 84.9632C73.0403 84.9632 72.6839 85.136 72.4247 85.4816C72.0899 85.892 71.9279 86.5616 71.9279 87.4796ZM70.6427 87.4796C70.6427 86.432 70.8479 85.5896 71.2691 84.9632C71.7767 84.2072 72.5219 83.8184 73.5047 83.8184C74.4767 83.8184 75.2111 84.2072 75.7295 84.9632C76.1399 85.5896 76.3559 86.432 76.3559 87.4796C76.3559 88.538 76.1399 89.3696 75.7295 89.996C75.2111 90.7628 74.4767 91.1408 73.5047 91.1408C72.5219 91.1408 71.7767 90.7628 71.2691 89.996C70.8479 89.3696 70.6427 88.538 70.6427 87.4796Z" fill="#929292"/>
<path d="M65.2728 87.4796C65.2728 88.3868 65.4348 89.0564 65.7696 89.4776C66.0288 89.8232 66.3852 89.996 66.8496 89.996C67.2924 89.996 67.6488 89.8232 67.9296 89.4776C68.2536 89.0672 68.4156 88.3976 68.4156 87.4796C68.4156 86.5724 68.2536 85.9028 67.9296 85.4816C67.6488 85.136 67.2924 84.9632 66.8496 84.9632C66.3852 84.9632 66.0288 85.136 65.7696 85.4816C65.4348 85.892 65.2728 86.5616 65.2728 87.4796ZM63.9876 87.4796C63.9876 86.432 64.1928 85.5896 64.614 84.9632C65.1216 84.2072 65.8668 83.8184 66.8496 83.8184C67.8216 83.8184 68.556 84.2072 69.0744 84.9632C69.4848 85.5896 69.7008 86.432 69.7008 87.4796C69.7008 88.538 69.4848 89.3696 69.0744 89.996C68.556 90.7628 67.8216 91.1408 66.8496 91.1408C65.8668 91.1408 65.1216 90.7628 64.614 89.996C64.1928 89.3696 63.9876 88.538 63.9876 87.4796Z" fill="#929292"/>
<path d="M58.6177 87.4796C58.6177 88.3868 58.7797 89.0564 59.1145 89.4776C59.3737 89.8232 59.7301 89.996 60.1945 89.996C60.6373 89.996 60.9937 89.8232 61.2745 89.4776C61.5985 89.0672 61.7605 88.3976 61.7605 87.4796C61.7605 86.5724 61.5985 85.9028 61.2745 85.4816C60.9937 85.136 60.6373 84.9632 60.1945 84.9632C59.7301 84.9632 59.3737 85.136 59.1145 85.4816C58.7797 85.892 58.6177 86.5616 58.6177 87.4796ZM57.3325 87.4796C57.3325 86.432 57.5377 85.5896 57.9589 84.9632C58.4665 84.2072 59.2117 83.8184 60.1945 83.8184C61.1665 83.8184 61.9009 84.2072 62.4193 84.9632C62.8297 85.5896 63.0457 86.432 63.0457 87.4796C63.0457 88.538 62.8297 89.3696 62.4193 89.996C61.9009 90.7628 61.1665 91.1408 60.1945 91.1408C59.2117 91.1408 58.4665 90.7628 57.9589 89.996C57.5377 89.3696 57.3325 88.538 57.3325 87.4796Z" fill="#929292"/>
<path d="M54.4794 90.1902C54.4794 89.9634 54.5658 89.769 54.7386 89.607C54.9114 89.4558 55.1166 89.3694 55.3758 89.3694C55.6566 89.3694 55.8942 89.4774 56.0778 89.6826C56.2614 89.8986 56.3586 90.1686 56.3586 90.5142C56.3586 91.2054 56.175 91.7346 55.8078 92.1126C55.4406 92.4906 55.041 92.7066 54.5982 92.7606V92.1234C54.8466 92.0694 55.0626 91.929 55.257 91.7022C55.4514 91.4862 55.5486 91.2378 55.5594 90.957C55.4838 91.0002 55.3974 91.011 55.3002 91.011C55.0626 91.011 54.8574 90.9354 54.7062 90.7842C54.555 90.633 54.4794 90.4386 54.4794 90.1902Z" fill="#929292"/>
<path d="M49.2943 87.4796C49.2943 88.3868 49.4563 89.0564 49.7911 89.4776C50.0503 89.8232 50.4067 89.996 50.8711 89.996C51.3139 89.996 51.6703 89.8232 51.9511 89.4776C52.2751 89.0672 52.4371 88.3976 52.4371 87.4796C52.4371 86.5724 52.2751 85.9028 51.9511 85.4816C51.6703 85.136 51.3139 84.9632 50.8711 84.9632C50.4067 84.9632 50.0503 85.136 49.7911 85.4816C49.4563 85.892 49.2943 86.5616 49.2943 87.4796ZM48.0091 87.4796C48.0091 86.432 48.2143 85.5896 48.6355 84.9632C49.1431 84.2072 49.8883 83.8184 50.8711 83.8184C51.8431 83.8184 52.5775 84.2072 53.0959 84.9632C53.5063 85.5896 53.7223 86.432 53.7223 87.4796C53.7223 88.538 53.5063 89.3696 53.0959 89.996C52.5775 90.7628 51.8431 91.1408 50.8711 91.1408C49.8883 91.1408 49.1431 90.7628 48.6355 89.996C48.2143 89.3696 48.0091 88.538 48.0091 87.4796Z" fill="#929292"/>
<path d="M42.6392 87.4796C42.6392 88.3868 42.8012 89.0564 43.136 89.4776C43.3952 89.8232 43.7516 89.996 44.216 89.996C44.6588 89.996 45.0152 89.8232 45.296 89.4776C45.62 89.0672 45.782 88.3976 45.782 87.4796C45.782 86.5724 45.62 85.9028 45.296 85.4816C45.0152 85.136 44.6588 84.9632 44.216 84.9632C43.7516 84.9632 43.3952 85.136 43.136 85.4816C42.8012 85.892 42.6392 86.5616 42.6392 87.4796ZM41.354 87.4796C41.354 86.432 41.5592 85.5896 41.9804 84.9632C42.488 84.2072 43.2332 83.8184 44.216 83.8184C45.188 83.8184 45.9224 84.2072 46.4408 84.9632C46.8512 85.5896 47.0672 86.432 47.0672 87.4796C47.0672 88.538 46.8512 89.3696 46.4408 89.996C45.9224 90.7628 45.188 91.1408 44.216 91.1408C43.2332 91.1408 42.488 90.7628 41.9804 89.996C41.5592 89.3696 41.354 88.538 41.354 87.4796Z" fill="#929292"/>
<path d="M39.9955 90.9786H38.7211V86.1834H37.0255V85.2978C37.5115 85.2978 37.9219 85.1682 38.2567 84.9198C38.5807 84.6714 38.7859 84.3582 38.8723 83.9802H39.9955V90.9786Z" fill="#929292"/>
<path d="M414.13 20.3865C414.13 20.654 414.211 20.8749 414.385 21.0494C414.548 21.2239 414.769 21.3053 415.025 21.3053C415.281 21.3053 415.49 21.2239 415.665 21.0494C415.828 20.8749 415.921 20.654 415.921 20.3865C415.921 20.1306 415.828 19.9096 415.665 19.7351C415.49 19.5723 415.281 19.4793 415.025 19.4793C414.769 19.4793 414.548 19.5723 414.385 19.7351C414.211 19.9096 414.13 20.1306 414.13 20.3865ZM413.164 20.3865C413.164 19.8863 413.339 19.456 413.711 19.0954C414.083 18.7465 414.513 18.5604 415.025 18.5604C415.525 18.5604 415.967 18.7465 416.339 19.0954C416.712 19.456 416.898 19.8863 416.898 20.3865C416.898 20.8982 416.712 21.3402 416.339 21.6891C415.967 22.0497 415.525 22.2241 415.025 22.2241C414.513 22.2241 414.083 22.0497 413.711 21.6891C413.339 21.3402 413.164 20.8982 413.164 20.3865ZM418.735 24.434C418.735 24.7015 418.817 24.9225 418.991 25.0969C419.154 25.2714 419.375 25.3528 419.631 25.3528C419.887 25.3528 420.096 25.2714 420.271 25.0969C420.433 24.9225 420.526 24.7015 420.526 24.434C420.526 24.1781 420.433 23.9571 420.271 23.7826C420.096 23.6198 419.887 23.5268 419.631 23.5268C419.375 23.5268 419.154 23.6198 418.991 23.7826C418.817 23.9571 418.735 24.1781 418.735 24.434ZM417.77 24.434C417.77 23.9338 417.944 23.5035 418.317 23.1429C418.689 22.794 419.119 22.6079 419.631 22.6079C420.131 22.6079 420.573 22.794 420.945 23.1429C421.317 23.5035 421.503 23.9338 421.503 24.434C421.503 24.9457 421.317 25.3877 420.945 25.7366C420.573 26.0972 420.131 26.2716 419.631 26.2716C419.119 26.2716 418.689 26.0972 418.317 25.7366C417.944 25.3877 417.77 24.9457 417.77 24.434ZM415.165 26.1786H414.095L419.515 18.6418H420.561L415.165 26.1786Z" fill="#929292"/>
<path d="M409.33 21.8521C409.725 21.8521 410.062 21.7358 410.33 21.5032C410.586 21.2822 410.725 20.9914 410.725 20.6192C410.725 20.2819 410.597 19.9912 410.342 19.7585C410.086 19.5259 409.748 19.4096 409.33 19.4096C408.911 19.4096 408.574 19.5259 408.318 19.7585C408.062 19.9912 407.934 20.2819 407.934 20.6192C407.934 20.9914 408.062 21.2822 408.329 21.5032C408.585 21.7358 408.923 21.8521 409.33 21.8521ZM409.33 25.3646C409.818 25.3646 410.202 25.2483 410.481 25.004C410.76 24.7714 410.911 24.469 410.911 24.0968C410.911 23.7246 410.76 23.4222 410.481 23.178C410.202 22.9337 409.818 22.8058 409.33 22.8058C408.841 22.8058 408.446 22.9337 408.167 23.178C407.887 23.4222 407.748 23.7246 407.748 24.0968C407.748 24.469 407.887 24.7714 408.167 25.004C408.446 25.2483 408.841 25.3646 409.33 25.3646ZM409.33 26.3532C408.481 26.3532 407.818 26.1555 407.329 25.7484C406.841 25.3413 406.596 24.8179 406.596 24.1899C406.596 23.7479 406.724 23.3641 406.992 23.0384C407.259 22.7128 407.608 22.4685 408.027 22.3289C407.666 22.201 407.376 21.98 407.143 21.6544C406.91 21.3287 406.794 20.9681 406.794 20.5611C406.794 19.9563 407.027 19.4561 407.515 19.0607C407.992 18.6653 408.597 18.4675 409.33 18.4675C410.051 18.4675 410.656 18.6653 411.144 19.0607C411.621 19.4561 411.865 19.9563 411.865 20.5611C411.865 20.9565 411.749 21.3171 411.516 21.6427C411.284 21.9684 410.981 22.201 410.632 22.3289C411.051 22.4685 411.388 22.7011 411.656 23.0268C411.923 23.3641 412.063 23.7479 412.063 24.1899C412.063 24.8179 411.819 25.3413 411.33 25.7484C410.842 26.1555 410.167 26.3532 409.33 26.3532Z" fill="#929292"/>
<path d="M402.261 22.6777L401.703 21.7356L403.924 19.6886H400.319V18.6418H405.436V19.6654L403.285 21.6542C403.89 21.6542 404.436 21.8636 404.901 22.259C405.367 22.6661 405.611 23.2244 405.611 23.9455C405.611 24.6201 405.367 25.19 404.878 25.6552C404.39 26.1321 403.715 26.3647 402.878 26.3647C402.04 26.3647 401.377 26.1437 400.877 25.6785C400.377 25.2132 400.11 24.655 400.075 23.992L401.191 23.7361C401.214 24.2246 401.377 24.6201 401.691 24.9225C402.005 25.2249 402.401 25.3644 402.866 25.3644C403.355 25.3644 403.75 25.2365 404.029 24.969C404.308 24.7015 404.459 24.3642 404.459 23.9687C404.459 23.5151 404.308 23.1662 404.006 22.922C403.703 22.6894 403.343 22.5614 402.924 22.5614C402.692 22.5614 402.471 22.6079 402.261 22.6777Z" fill="#929292"/>
<path d="M378.702 26.1787H377.574V19.7585L374.759 26.1787H373.712L370.921 19.7585V26.1787H369.793V17.9325H371.34L374.247 24.6435L377.178 17.9325H378.702V26.1787Z" fill="#929292"/>
<path d="M365.494 21.8521C365.89 21.8521 366.227 21.7358 366.495 21.5032C366.75 21.2822 366.89 20.9914 366.89 20.6192C366.89 20.2819 366.762 19.9912 366.506 19.7585C366.25 19.5259 365.913 19.4096 365.494 19.4096C365.076 19.4096 364.738 19.5259 364.482 19.7585C364.227 19.9912 364.099 20.2819 364.099 20.6192C364.099 20.9914 364.227 21.2822 364.494 21.5032C364.75 21.7358 365.087 21.8521 365.494 21.8521ZM365.494 25.3646C365.983 25.3646 366.367 25.2483 366.646 25.004C366.925 24.7714 367.076 24.469 367.076 24.0968C367.076 23.7246 366.925 23.4222 366.646 23.178C366.367 22.9337 365.983 22.8058 365.494 22.8058C365.006 22.8058 364.61 22.9337 364.331 23.178C364.052 23.4222 363.913 23.7246 363.913 24.0968C363.913 24.469 364.052 24.7714 364.331 25.004C364.61 25.2483 365.006 25.3646 365.494 25.3646ZM365.494 26.3532C364.645 26.3532 363.982 26.1555 363.494 25.7484C363.005 25.3413 362.761 24.8179 362.761 24.1899C362.761 23.7479 362.889 23.3641 363.157 23.0384C363.424 22.7128 363.773 22.4685 364.192 22.3289C363.831 22.201 363.54 21.98 363.308 21.6544C363.075 21.3287 362.959 20.9681 362.959 20.5611C362.959 19.9563 363.191 19.4561 363.68 19.0607C364.157 18.6653 364.762 18.4675 365.494 18.4675C366.215 18.4675 366.82 18.6653 367.309 19.0607C367.786 19.4561 368.03 19.9563 368.03 20.5611C368.03 20.9565 367.914 21.3171 367.681 21.6427C367.448 21.9684 367.146 22.201 366.797 22.3289C367.216 22.4685 367.553 22.7011 367.82 23.0268C368.088 23.3641 368.228 23.7479 368.228 24.1899C368.228 24.8179 367.983 25.3413 367.495 25.7484C367.006 26.1555 366.332 26.3532 365.494 26.3532Z" fill="#929292"/>
<path d="M358.426 22.6777L357.868 21.7356L360.089 19.6886H356.483V18.6418H361.601V19.6654L359.449 21.6542C360.054 21.6542 360.601 21.8636 361.066 22.259C361.531 22.6661 361.776 23.2244 361.776 23.9455C361.776 24.6201 361.531 25.19 361.043 25.6552C360.554 26.1321 359.88 26.3647 359.042 26.3647C358.205 26.3647 357.542 26.1437 357.042 25.6785C356.542 25.2132 356.274 24.655 356.239 23.992L357.356 23.7361C357.379 24.2246 357.542 24.6201 357.856 24.9225C358.17 25.2249 358.565 25.3644 359.031 25.3644C359.519 25.3644 359.915 25.2365 360.194 24.969C360.473 24.7015 360.624 24.3642 360.624 23.9687C360.624 23.5151 360.473 23.1662 360.17 22.922C359.868 22.6894 359.507 22.5614 359.089 22.5614C358.856 22.5614 358.635 22.6079 358.426 22.6777Z" fill="#929292"/>
<path d="M283.807 22.8057H286.866C286.842 22.387 286.703 22.0497 286.447 21.7822C286.179 21.5147 285.807 21.3751 285.33 21.3751C284.888 21.3751 284.539 21.5263 284.26 21.8055C283.981 22.0846 283.83 22.4219 283.807 22.8057ZM287.028 24.2596L287.97 24.5852C287.808 25.1086 287.505 25.539 287.063 25.8646C286.621 26.1903 286.086 26.3531 285.458 26.3531C284.667 26.3531 284.004 26.0856 283.458 25.5506C282.911 25.0156 282.644 24.2828 282.644 23.364C282.644 22.515 282.899 21.8055 283.434 21.2472C283.958 20.6889 284.586 20.4098 285.319 20.4098C286.156 20.4098 286.819 20.6773 287.296 21.2123C287.761 21.7473 288.005 22.4568 288.005 23.3407C288.005 23.4803 287.994 23.5966 287.982 23.6897H283.772C283.772 24.1898 283.935 24.5969 284.26 24.9109C284.586 25.2366 284.981 25.3878 285.458 25.3878C286.249 25.3878 286.772 25.0156 287.028 24.2596Z" fill="#929292"/>
<path d="M281.237 26.1786H280.144V17.7579H281.237V26.1786Z" fill="#929292"/>
<path d="M273.707 24.6783C273.707 24.2014 273.858 23.8176 274.172 23.5268C274.475 23.2361 274.893 23.05 275.405 22.9802L276.917 22.7592C277.196 22.7243 277.348 22.5847 277.348 22.3405C277.348 22.0497 277.243 21.8055 277.045 21.6194C276.836 21.4333 276.533 21.3403 276.138 21.3403C275.766 21.3403 275.463 21.4449 275.254 21.6543C275.033 21.8636 274.905 22.1311 274.87 22.4684L273.823 22.2242C273.87 21.6892 274.114 21.2588 274.556 20.9215C274.987 20.5843 275.51 20.4098 276.115 20.4098C276.906 20.4098 277.487 20.6075 277.871 20.9913C278.243 21.3751 278.441 21.8636 278.441 22.4568V25.2598C278.441 25.5971 278.464 25.8995 278.511 26.1787H277.441C277.394 25.946 277.382 25.7018 277.382 25.4227C277.22 25.6785 276.999 25.8879 276.696 26.074C276.394 26.2601 276.022 26.3531 275.58 26.3531C275.021 26.3531 274.579 26.1903 274.231 25.8646C273.882 25.539 273.707 25.1435 273.707 24.6783ZM275.731 25.4343C276.219 25.4343 276.603 25.3063 276.906 25.0388C277.196 24.783 277.348 24.3643 277.348 23.7827V23.5268L275.638 23.7827C275.382 23.8292 275.184 23.9107 275.045 24.0502C274.893 24.1898 274.824 24.3875 274.824 24.6201C274.824 24.8411 274.905 25.0272 275.068 25.19C275.231 25.3529 275.452 25.4343 275.731 25.4343Z" fill="#929292"/>
<path d="M272.592 19.805L271.568 20.1655C271.51 19.8166 271.336 19.4909 271.045 19.2002C270.743 18.9094 270.335 18.7582 269.824 18.7582C269.358 18.7582 268.986 18.8978 268.684 19.1536C268.381 19.4211 268.23 19.7468 268.23 20.1306C268.23 20.433 268.312 20.6889 268.498 20.8982C268.684 21.1076 268.94 21.2588 269.289 21.3286L270.522 21.5961C271.196 21.7473 271.731 22.0264 272.103 22.4335C272.476 22.8406 272.662 23.3291 272.662 23.9106C272.662 24.5852 272.394 25.1551 271.871 25.632C271.336 26.1205 270.649 26.3531 269.812 26.3531C268.882 26.3531 268.161 26.1205 267.637 25.632C267.114 25.1435 266.811 24.5736 266.73 23.899L267.823 23.5501C267.87 24.0502 268.056 24.4689 268.405 24.8062C268.742 25.1551 269.207 25.3179 269.8 25.3179C270.335 25.3179 270.754 25.2016 271.057 24.9458C271.347 24.7015 271.499 24.3875 271.499 24.0037C271.499 23.7013 271.394 23.4338 271.185 23.2011C270.975 22.9685 270.661 22.8173 270.266 22.7243L269.091 22.4684C268.475 22.3405 267.986 22.0846 267.625 21.6891C267.253 21.3053 267.079 20.8168 267.079 20.212C267.079 19.5607 267.335 18.9908 267.87 18.5023C268.405 18.0138 269.044 17.7579 269.8 17.7579C270.638 17.7579 271.289 17.9673 271.743 18.3744C272.185 18.7931 272.476 19.2699 272.592 19.805Z" fill="#929292"/>
<path d="M260.493 21.4217C260.016 21.4217 259.609 21.5961 259.283 21.9334C258.957 22.2823 258.795 22.7592 258.795 23.3756C258.795 23.9921 258.957 24.4689 259.283 24.8179C259.609 25.1668 260.016 25.3412 260.504 25.3412C260.97 25.3412 261.318 25.2249 261.563 24.9923C261.807 24.7597 261.97 24.4922 262.063 24.1898L263.028 24.6085C262.865 25.0737 262.575 25.4808 262.144 25.8297C261.714 26.1787 261.167 26.3531 260.504 26.3531C259.69 26.3531 259.016 26.074 258.481 25.5041C257.946 24.9458 257.678 24.2363 257.678 23.3756C257.678 22.515 257.946 21.8055 258.481 21.2472C259.016 20.6889 259.679 20.4098 260.493 20.4098C261.167 20.4098 261.726 20.5843 262.144 20.9332C262.563 21.2821 262.842 21.7008 262.982 22.1893L261.993 22.608C261.9 22.2823 261.737 22.0032 261.505 21.7706C261.26 21.538 260.923 21.4217 260.493 21.4217Z" fill="#929292"/>
<path d="M256.283 26.1787H255.201V20.5843H256.283V26.1787ZM254.957 18.4675C254.957 18.2582 255.027 18.0721 255.178 17.9093C255.329 17.7581 255.515 17.6766 255.736 17.6766C255.946 17.6766 256.132 17.7581 256.295 17.9093C256.446 18.0605 256.527 18.2465 256.527 18.4675C256.527 18.6885 256.446 18.8746 256.295 19.0258C256.132 19.177 255.946 19.2468 255.736 19.2468C255.515 19.2468 255.329 19.177 255.178 19.0258C255.027 18.8746 254.957 18.6885 254.957 18.4675Z" fill="#929292"/>
<path d="M253.342 26.1786H252.248V17.7579H253.342V26.1786Z" fill="#929292"/>
<path d="M246.436 26.1786H245.354V17.7579H246.436V21.3751C246.575 21.1076 246.808 20.8866 247.134 20.7005C247.459 20.5144 247.843 20.4214 248.285 20.4214C249.099 20.4214 249.727 20.7005 250.181 21.2472C250.623 21.8054 250.855 22.5033 250.855 23.3523C250.855 24.213 250.623 24.9341 250.158 25.4924C249.692 26.0507 249.053 26.3298 248.25 26.3298C247.413 26.3298 246.808 26.0158 246.436 25.3645V26.1786ZM249.739 23.3523C249.739 22.7475 249.588 22.2707 249.285 21.9218C248.983 21.5728 248.587 21.3867 248.087 21.3867C247.599 21.3867 247.192 21.5728 246.889 21.9218C246.575 22.2823 246.424 22.7592 246.424 23.3523C246.424 23.9571 246.575 24.434 246.889 24.8062C247.192 25.1784 247.599 25.3528 248.087 25.3528C248.576 25.3528 248.983 25.1784 249.285 24.8062C249.588 24.4456 249.739 23.9571 249.739 23.3523Z" fill="#929292"/>
<path d="M242.453 25.5042C242.302 25.7833 242.081 26.0043 241.779 26.1439C241.476 26.2834 241.151 26.3532 240.802 26.3532C240.162 26.3532 239.65 26.1439 239.278 25.7252C238.894 25.3064 238.708 24.7598 238.708 24.1085V20.5844H239.801V23.9456C239.801 24.3644 239.894 24.7133 240.104 24.9808C240.313 25.2599 240.627 25.3879 241.069 25.3879C241.499 25.3879 241.825 25.2599 242.058 25.004C242.279 24.7482 242.395 24.3992 242.395 23.9573V20.5844H243.488V25.1436C243.488 25.5158 243.5 25.8531 243.546 26.1788H242.5C242.465 26.0159 242.453 25.7833 242.453 25.5042Z" fill="#929292"/>
<path d="M233.31 21.7823H234.961C235.45 21.7823 235.834 21.666 236.124 21.4101C236.403 21.1542 236.555 20.8169 236.555 20.3866C236.555 19.9562 236.403 19.6073 236.124 19.3514C235.834 19.0956 235.45 18.956 234.961 18.956H233.31V21.7823ZM235.171 22.8058H233.31V26.1787H232.17V17.9325H235.171C235.915 17.9325 236.531 18.1651 237.008 18.6303C237.473 19.0956 237.718 19.6771 237.718 20.375C237.718 21.0844 237.473 21.666 237.008 22.1196C236.531 22.5848 235.915 22.8058 235.171 22.8058Z" fill="#929292"/>
<path d="M417.469 46.9712C417.469 47.2387 417.55 47.4597 417.725 47.6341C417.888 47.8086 418.109 47.89 418.364 47.89C418.62 47.89 418.83 47.8086 419.004 47.6341C419.167 47.4597 419.26 47.2387 419.26 46.9712C419.26 46.7153 419.167 46.4943 419.004 46.3198C418.83 46.157 418.62 46.064 418.364 46.064C418.109 46.064 417.888 46.157 417.725 46.3198C417.55 46.4943 417.469 46.7153 417.469 46.9712ZM416.503 46.9712C416.503 46.471 416.678 46.0407 417.05 45.6802C417.422 45.3312 417.853 45.1451 418.364 45.1451C418.865 45.1451 419.306 45.3312 419.679 45.6802C420.051 46.0407 420.237 46.471 420.237 46.9712C420.237 47.4829 420.051 47.9249 419.679 48.2738C419.306 48.6344 418.865 48.8088 418.364 48.8088C417.853 48.8088 417.422 48.6344 417.05 48.2738C416.678 47.9249 416.503 47.4829 416.503 46.9712ZM422.075 51.0187C422.075 51.2862 422.156 51.5072 422.33 51.6816C422.493 51.8561 422.714 51.9375 422.97 51.9375C423.226 51.9375 423.435 51.8561 423.61 51.6816C423.773 51.5072 423.866 51.2862 423.866 51.0187C423.866 50.7628 423.773 50.5418 423.61 50.3674C423.435 50.2045 423.226 50.1115 422.97 50.1115C422.714 50.1115 422.493 50.2045 422.33 50.3674C422.156 50.5418 422.075 50.7628 422.075 51.0187ZM421.109 51.0187C421.109 50.5186 421.284 50.0882 421.656 49.7277C422.028 49.3787 422.458 49.1926 422.97 49.1926C423.47 49.1926 423.912 49.3787 424.284 49.7277C424.657 50.0882 424.843 50.5186 424.843 51.0187C424.843 51.5304 424.657 51.9724 424.284 52.3213C423.912 52.6819 423.47 52.8563 422.97 52.8563C422.458 52.8563 422.028 52.6819 421.656 52.3213C421.284 51.9724 421.109 51.5304 421.109 51.0187ZM418.504 52.7633H417.434L422.854 45.2266H423.901L418.504 52.7633Z" fill="#929292"/>
<path d="M410.656 48.995C410.656 50.158 410.877 50.9722 411.319 51.4374C411.622 51.7631 412.029 51.9259 412.517 51.9259C413.006 51.9259 413.401 51.7631 413.715 51.4374C414.157 50.9722 414.378 50.158 414.378 48.995C414.378 47.8319 414.157 47.0177 413.715 46.5525C413.401 46.2268 413.006 46.064 412.517 46.064C412.029 46.064 411.622 46.2268 411.319 46.5525C410.877 47.0177 410.656 47.8319 410.656 48.995ZM409.528 48.995C409.528 47.8435 409.749 46.9363 410.203 46.2617C410.738 45.4592 411.505 45.0521 412.517 45.0521C413.518 45.0521 414.297 45.4592 414.832 46.2617C415.274 46.9363 415.506 47.8435 415.506 48.995C415.506 50.158 415.274 51.0652 414.832 51.7282C414.297 52.5423 413.518 52.9378 412.517 52.9378C411.505 52.9378 410.738 52.5423 410.203 51.7282C409.749 51.0652 409.528 50.158 409.528 48.995Z" fill="#929292"/>
<path d="M404.43 47.9366L403.291 47.797C403.279 47.7272 403.279 47.6342 403.279 47.4946C403.279 46.82 403.512 46.2501 403.988 45.7732C404.454 45.2964 405.093 45.0521 405.884 45.0521C406.664 45.0521 407.28 45.2847 407.745 45.7267C408.199 46.1687 408.431 46.7153 408.431 47.3666C408.431 48.3204 407.955 49.0996 407.012 49.6928L405.524 50.6465C404.989 50.9954 404.675 51.3444 404.605 51.7049H408.478V52.7633H403.198C403.209 52.1353 403.349 51.577 403.628 51.0885C403.907 50.6116 404.361 50.1697 404.989 49.7626L406.245 48.9484C406.931 48.5065 407.28 47.9831 407.28 47.3783C407.28 47.0061 407.152 46.6921 406.908 46.4362C406.652 46.1803 406.303 46.0524 405.861 46.0524C405.384 46.0524 405.024 46.2036 404.779 46.4827C404.523 46.7735 404.407 47.1457 404.407 47.5993C404.407 47.669 404.407 47.7854 404.43 47.9366Z" fill="#929292"/>
<path d="M378.94 52.7633H377.812V46.3431L374.998 52.7633H373.951L371.159 46.3431V52.7633H370.031V44.5171H371.578L374.486 51.228L377.417 44.5171H378.94V52.7633Z" fill="#929292"/>
<path d="M363.55 48.995C363.55 50.158 363.771 50.9722 364.213 51.4374C364.515 51.7631 364.922 51.9259 365.411 51.9259C365.899 51.9259 366.295 51.7631 366.609 51.4374C367.051 50.9722 367.272 50.158 367.272 48.995C367.272 47.8319 367.051 47.0177 366.609 46.5525C366.295 46.2268 365.899 46.064 365.411 46.064C364.922 46.064 364.515 46.2268 364.213 46.5525C363.771 47.0177 363.55 47.8319 363.55 48.995ZM362.422 48.995C362.422 47.8435 362.643 46.9363 363.096 46.2617C363.631 45.4592 364.399 45.0521 365.411 45.0521C366.411 45.0521 367.19 45.4592 367.725 46.2617C368.167 46.9363 368.4 47.8435 368.4 48.995C368.4 50.158 368.167 51.0652 367.725 51.7282C367.19 52.5423 366.411 52.9378 365.411 52.9378C364.399 52.9378 363.631 52.5423 363.096 51.7282C362.643 51.0652 362.422 50.158 362.422 48.995Z" fill="#929292"/>
<path d="M357.324 47.9366L356.184 47.797C356.173 47.7272 356.173 47.6342 356.173 47.4946C356.173 46.82 356.405 46.2501 356.882 45.7732C357.347 45.2964 357.987 45.0521 358.778 45.0521C359.557 45.0521 360.174 45.2847 360.639 45.7267C361.092 46.1687 361.325 46.7153 361.325 47.3666C361.325 48.3204 360.848 49.0996 359.906 49.6928L358.417 50.6465C357.882 50.9954 357.568 51.3444 357.498 51.7049H361.371V52.7633H356.091C356.103 52.1353 356.242 51.577 356.521 51.0885C356.801 50.6116 357.254 50.1697 357.882 49.7626L359.138 48.9484C359.825 48.5065 360.174 47.9831 360.174 47.3783C360.174 47.0061 360.046 46.6921 359.801 46.4362C359.545 46.1803 359.197 46.0524 358.755 46.0524C358.278 46.0524 357.917 46.2036 357.673 46.4827C357.417 46.7735 357.301 47.1457 357.301 47.5993C357.301 47.669 357.301 47.7854 357.324 47.9366Z" fill="#929292"/>
<path d="M251.308 52.7633H250.227V47.1689H251.273V47.9133C251.436 47.6225 251.68 47.4015 251.994 47.2387C252.297 47.0875 252.623 47.0061 252.971 47.0061C253.332 47.0061 253.669 47.0991 253.972 47.2736C254.274 47.4597 254.495 47.7156 254.646 48.0645C255.03 47.3667 255.658 47.0061 256.519 47.0061C257.054 47.0061 257.507 47.1922 257.88 47.5527C258.252 47.9249 258.45 48.4483 258.45 49.1345V52.7633H257.368V49.2508C257.368 48.867 257.263 48.553 257.066 48.3204C256.868 48.0878 256.577 47.9715 256.182 47.9715C255.798 47.9715 255.484 48.111 255.251 48.3785C255.007 48.646 254.891 48.9833 254.891 49.3788V52.7633H253.797V49.2508C253.797 48.867 253.693 48.553 253.495 48.3204C253.297 48.0878 253.006 47.9715 252.611 47.9715C252.215 47.9715 251.901 48.111 251.669 48.3669C251.425 48.6344 251.308 48.9717 251.308 49.3904V52.7633Z" fill="#929292"/>
<path d="M243.79 51.263C243.79 50.7861 243.941 50.4023 244.255 50.1116C244.557 49.8208 244.976 49.6347 245.488 49.5649L247 49.3439C247.279 49.309 247.43 49.1695 247.43 48.9252C247.43 48.6344 247.325 48.3902 247.128 48.2041C246.918 48.018 246.616 47.925 246.221 47.925C245.848 47.925 245.546 48.0296 245.337 48.239C245.116 48.4484 244.988 48.7159 244.953 49.0532L243.906 48.8089C243.953 48.2739 244.197 47.8436 244.639 47.5063C245.069 47.169 245.593 46.9945 246.197 46.9945C246.988 46.9945 247.57 47.1922 247.954 47.576C248.326 47.9599 248.523 48.4484 248.523 49.0415V51.8445C248.523 52.1818 248.547 52.4842 248.593 52.7634H247.523C247.477 52.5308 247.465 52.2865 247.465 52.0074C247.302 52.2632 247.081 52.4726 246.779 52.6587C246.476 52.8448 246.104 52.9378 245.662 52.9378C245.104 52.9378 244.662 52.775 244.313 52.4493C243.964 52.1237 243.79 51.7282 243.79 51.263ZM245.813 52.019C246.302 52.019 246.686 51.8911 246.988 51.6236C247.279 51.3677 247.43 50.949 247.43 50.3674V50.1116L245.72 50.3674C245.465 50.414 245.267 50.4954 245.127 50.6349C244.976 50.7745 244.906 50.9722 244.906 51.2048C244.906 51.4258 244.988 51.6119 245.151 51.7748C245.313 51.9376 245.534 52.019 245.813 52.019Z" fill="#929292"/>
<path d="M238.544 49.3904H241.603C241.58 48.9717 241.44 48.6344 241.184 48.3669C240.917 48.0994 240.545 47.9599 240.068 47.9599C239.626 47.9599 239.277 48.1111 238.998 48.3902C238.719 48.6693 238.568 49.0066 238.544 49.3904ZM241.766 50.8443L242.708 51.17C242.545 51.6933 242.243 52.1237 241.801 52.4493C241.359 52.775 240.824 52.9378 240.196 52.9378C239.405 52.9378 238.742 52.6703 238.195 52.1353C237.649 51.6003 237.381 50.8676 237.381 49.9487C237.381 49.0997 237.637 48.3902 238.172 47.8319C238.696 47.2736 239.324 46.9945 240.056 46.9945C240.894 46.9945 241.557 47.262 242.034 47.797C242.499 48.332 242.743 49.0415 242.743 49.9255C242.743 50.065 242.731 50.1813 242.72 50.2744H238.509C238.509 50.7745 238.672 51.1816 238.998 51.4956C239.324 51.8213 239.719 51.9725 240.196 51.9725C240.987 51.9725 241.51 51.6003 241.766 50.8443Z" fill="#929292"/>
<path d="M237.892 45.5755H235.136V52.7633H233.996V45.5755H231.239V44.5171H237.892V45.5755Z" fill="#929292"/>
<path d="M415.346 99.3097C415.346 99.5772 415.428 99.7982 415.602 99.9726C415.765 100.147 415.986 100.229 416.242 100.229C416.498 100.229 416.707 100.147 416.882 99.9726C417.045 99.7982 417.138 99.5772 417.138 99.3097C417.138 99.0538 417.045 98.8328 416.882 98.6584C416.707 98.4955 416.498 98.4025 416.242 98.4025C415.986 98.4025 415.765 98.4955 415.602 98.6584C415.428 98.8328 415.346 99.0538 415.346 99.3097ZM414.381 99.3097C414.381 98.8096 414.556 98.3792 414.928 98.0187C415.3 97.6697 415.73 97.4836 416.242 97.4836C416.742 97.4836 417.184 97.6697 417.556 98.0187C417.928 98.3792 418.115 98.8096 418.115 99.3097C418.115 99.8214 417.928 100.263 417.556 100.612C417.184 100.973 416.742 101.147 416.242 101.147C415.73 101.147 415.3 100.973 414.928 100.612C414.556 100.263 414.381 99.8214 414.381 99.3097ZM419.952 103.357C419.952 103.625 420.034 103.846 420.208 104.02C420.371 104.195 420.592 104.276 420.848 104.276C421.104 104.276 421.313 104.195 421.488 104.02C421.65 103.846 421.743 103.625 421.743 103.357C421.743 103.101 421.65 102.88 421.488 102.706C421.313 102.543 421.104 102.45 420.848 102.45C420.592 102.45 420.371 102.543 420.208 102.706C420.034 102.88 419.952 103.101 419.952 103.357ZM418.987 103.357C418.987 102.857 419.161 102.427 419.534 102.066C419.906 101.717 420.336 101.531 420.848 101.531C421.348 101.531 421.79 101.717 422.162 102.066C422.534 102.427 422.72 102.857 422.72 103.357C422.72 103.869 422.534 104.311 422.162 104.66C421.79 105.02 421.348 105.195 420.848 105.195C420.336 105.195 419.906 105.02 419.534 104.66C419.161 104.311 418.987 103.869 418.987 103.357ZM416.382 105.102H415.312L420.732 97.5651H421.778L416.382 105.102Z" fill="#929292"/>
<path d="M409.225 100.275L408.085 100.135C408.074 100.066 408.074 99.9725 408.074 99.833C408.074 99.1584 408.306 98.5885 408.783 98.1116C409.248 97.6347 409.888 97.3905 410.679 97.3905C411.458 97.3905 412.075 97.6231 412.54 98.0651C412.994 98.5071 413.226 99.0537 413.226 99.705C413.226 100.659 412.749 101.438 411.807 102.031L410.318 102.985C409.783 103.334 409.469 103.683 409.4 104.043H413.273V105.102H407.992C408.004 104.474 408.144 103.915 408.423 103.427C408.702 102.95 409.155 102.508 409.783 102.101L411.04 101.287C411.726 100.845 412.075 100.321 412.075 99.7167C412.075 99.3445 411.947 99.0304 411.703 98.7746C411.447 98.5187 411.098 98.3907 410.656 98.3907C410.179 98.3907 409.818 98.5419 409.574 98.8211C409.318 99.1119 409.202 99.484 409.202 99.9376C409.202 100.007 409.202 100.124 409.225 100.275Z" fill="#929292"/>
<path d="M406.661 105.102H405.545V99.7865H403.719V98.984C404.231 98.984 404.661 98.8444 405.01 98.5886C405.359 98.3327 405.568 97.9838 405.661 97.5651H406.661V105.102Z" fill="#929292"/>
<path d="M376.67 105.102H375.542V98.6815L372.728 105.102H371.681L368.889 98.6815V105.102H367.761V96.8555H369.308L372.216 103.566L375.147 96.8555H376.67V105.102Z" fill="#929292"/>
<path d="M362.198 100.275L361.058 100.135C361.047 100.066 361.047 99.9725 361.047 99.833C361.047 99.1584 361.279 98.5885 361.756 98.1116C362.222 97.6347 362.861 97.3905 363.652 97.3905C364.431 97.3905 365.048 97.6231 365.513 98.0651C365.967 98.5071 366.199 99.0537 366.199 99.705C366.199 100.659 365.722 101.438 364.78 102.031L363.292 102.985C362.757 103.334 362.443 103.683 362.373 104.043H366.246V105.102H360.965C360.977 104.474 361.117 103.915 361.396 103.427C361.675 102.95 362.128 102.508 362.757 102.101L364.013 101.287C364.699 100.845 365.048 100.321 365.048 99.7167C365.048 99.3445 364.92 99.0304 364.676 98.7746C364.42 98.5187 364.071 98.3907 363.629 98.3907C363.152 98.3907 362.791 98.5419 362.547 98.8211C362.291 99.1119 362.175 99.484 362.175 99.9376C362.175 100.007 362.175 100.124 362.198 100.275Z" fill="#929292"/>
<path d="M359.635 105.102H358.518V99.7865H356.692V98.984C357.204 98.984 357.634 98.8444 357.983 98.5886C358.332 98.3327 358.541 97.9838 358.634 97.5651H359.635V105.102Z" fill="#929292"/>
<path d="M275.488 103.648L276.477 103.299C276.511 103.601 276.639 103.857 276.872 104.055C277.093 104.253 277.395 104.346 277.779 104.346C278.07 104.346 278.303 104.276 278.477 104.136C278.64 103.997 278.733 103.811 278.733 103.601C278.733 103.229 278.489 102.997 278.012 102.88L277.058 102.671C276.616 102.578 276.279 102.392 276.035 102.113C275.779 101.834 275.662 101.496 275.662 101.101C275.662 100.624 275.848 100.205 276.244 99.8563C276.639 99.5073 277.105 99.3329 277.651 99.3329C278 99.3329 278.326 99.391 278.605 99.4957C278.884 99.6004 279.093 99.74 279.256 99.9028C279.407 100.077 279.524 100.24 279.605 100.38C279.675 100.531 279.733 100.682 279.78 100.833L278.814 101.194C278.791 101.101 278.768 101.019 278.733 100.926C278.686 100.833 278.628 100.74 278.547 100.624C278.465 100.519 278.349 100.438 278.198 100.368C278.035 100.298 277.861 100.263 277.651 100.263C277.372 100.263 277.151 100.345 276.977 100.484C276.802 100.636 276.721 100.81 276.721 101.008C276.721 101.368 276.93 101.589 277.36 101.682L278.268 101.88C278.756 101.996 279.14 102.194 279.407 102.485C279.675 102.776 279.815 103.125 279.815 103.543C279.815 103.985 279.628 104.392 279.268 104.741C278.907 105.102 278.407 105.276 277.768 105.276C277.07 105.276 276.535 105.113 276.151 104.764C275.755 104.416 275.534 104.043 275.488 103.648Z" fill="#929292"/>
<path d="M274.846 99.4493V100.612C274.683 100.589 274.52 100.578 274.369 100.578C273.346 100.578 272.834 101.159 272.834 102.299V105.102H271.741V99.5075H272.811V100.484C273.148 99.775 273.706 99.4144 274.485 99.4144C274.602 99.4144 274.73 99.4261 274.846 99.4493Z" fill="#929292"/>
<path d="M266.146 101.729H269.205C269.182 101.31 269.042 100.973 268.786 100.705C268.519 100.438 268.147 100.298 267.67 100.298C267.228 100.298 266.879 100.449 266.6 100.729C266.321 101.008 266.17 101.345 266.146 101.729ZM269.368 103.183L270.31 103.508C270.147 104.032 269.845 104.462 269.403 104.788C268.961 105.113 268.426 105.276 267.798 105.276C267.007 105.276 266.344 105.009 265.797 104.474C265.251 103.939 264.983 103.206 264.983 102.287C264.983 101.438 265.239 100.729 265.774 100.17C266.297 99.612 266.926 99.3329 267.658 99.3329C268.496 99.3329 269.159 99.6004 269.636 100.135C270.101 100.67 270.345 101.38 270.345 102.264C270.345 102.403 270.333 102.52 270.322 102.613H266.111C266.111 103.113 266.274 103.52 266.6 103.834C266.926 104.16 267.321 104.311 267.798 104.311C268.589 104.311 269.112 103.939 269.368 103.183Z" fill="#929292"/>
<path d="M259.251 102.287C259.251 102.88 259.39 103.357 259.681 103.729C259.972 104.102 260.379 104.288 260.89 104.288C261.379 104.288 261.763 104.102 262.065 103.718C262.356 103.346 262.507 102.857 262.507 102.264C262.507 101.682 262.356 101.217 262.077 100.857C261.786 100.508 261.391 100.322 260.902 100.322C260.402 100.322 260.007 100.508 259.704 100.868C259.402 101.24 259.251 101.706 259.251 102.287ZM262.519 104.346V104.253C262.368 104.544 262.147 104.788 261.844 104.974C261.542 105.16 261.193 105.253 260.786 105.253C259.983 105.253 259.344 104.974 258.855 104.416C258.367 103.857 258.134 103.148 258.134 102.287C258.134 101.473 258.378 100.787 258.878 100.217C259.367 99.647 260.007 99.3562 260.786 99.3562C261.239 99.3562 261.612 99.4493 261.902 99.6354C262.181 99.8215 262.379 100.042 262.496 100.298V96.6812H263.577V104.067C263.577 104.451 263.589 104.799 263.635 105.102H262.577C262.53 104.892 262.519 104.637 262.519 104.346Z" fill="#929292"/>
<path d="M253.162 101.868V105.102H252.068V99.5074H253.138V100.31C253.51 99.6703 254.08 99.3446 254.86 99.3446C255.499 99.3446 255.988 99.554 256.337 99.961C256.686 100.38 256.86 100.903 256.86 101.554V105.102H255.767V101.741C255.767 100.81 255.325 100.333 254.464 100.333C254.045 100.333 253.731 100.484 253.499 100.775C253.266 101.066 253.162 101.427 253.162 101.868Z" fill="#929292"/>
<path d="M249.167 104.427C249.016 104.706 248.795 104.927 248.493 105.067C248.19 105.206 247.865 105.276 247.516 105.276C246.876 105.276 246.364 105.067 245.992 104.648C245.608 104.229 245.422 103.683 245.422 103.031V99.5073H246.516V102.869C246.516 103.287 246.609 103.636 246.818 103.904C247.027 104.183 247.341 104.311 247.783 104.311C248.214 104.311 248.539 104.183 248.772 103.927C248.993 103.671 249.109 103.322 249.109 102.88V99.5073H250.203V104.067C250.203 104.439 250.214 104.776 250.261 105.102H249.214C249.179 104.939 249.167 104.706 249.167 104.427Z" fill="#929292"/>
<path d="M241.277 104.299C241.766 104.299 242.173 104.125 242.51 103.776C242.848 103.427 243.022 102.927 243.022 102.299C243.022 101.682 242.848 101.194 242.51 100.845C242.173 100.496 241.766 100.31 241.277 100.31C240.789 100.31 240.37 100.496 240.033 100.845C239.696 101.194 239.533 101.682 239.533 102.299C239.533 102.927 239.696 103.427 240.033 103.776C240.37 104.125 240.789 104.299 241.277 104.299ZM241.277 99.3329C242.103 99.3329 242.789 99.6237 243.324 100.182C243.859 100.74 244.139 101.45 244.139 102.299C244.139 103.159 243.871 103.881 243.336 104.439C242.801 104.997 242.115 105.276 241.277 105.276C240.44 105.276 239.754 104.997 239.219 104.439C238.684 103.881 238.416 103.159 238.416 102.299C238.416 101.45 238.684 100.74 239.219 100.182C239.754 99.6237 240.44 99.3329 241.277 99.3329Z" fill="#929292"/>
<path d="M234.14 105.102H233.001V96.8555H238.013V97.9139H234.14V100.566H237.653V101.636H234.14V105.102Z" fill="#929292"/>
<path d="M413.961 125.894C413.961 126.162 414.042 126.383 414.217 126.557C414.379 126.732 414.6 126.813 414.856 126.813C415.112 126.813 415.322 126.732 415.496 126.557C415.659 126.383 415.752 126.162 415.752 125.894C415.752 125.638 415.659 125.417 415.496 125.243C415.322 125.08 415.112 124.987 414.856 124.987C414.6 124.987 414.379 125.08 414.217 125.243C414.042 125.417 413.961 125.638 413.961 125.894ZM412.995 125.894C412.995 125.394 413.17 124.964 413.542 124.603C413.914 124.254 414.345 124.068 414.856 124.068C415.356 124.068 415.798 124.254 416.171 124.603C416.543 124.964 416.729 125.394 416.729 125.894C416.729 126.406 416.543 126.848 416.171 127.197C415.798 127.557 415.356 127.732 414.856 127.732C414.345 127.732 413.914 127.557 413.542 127.197C413.17 126.848 412.995 126.406 412.995 125.894ZM418.567 129.942C418.567 130.209 418.648 130.43 418.822 130.605C418.985 130.779 419.206 130.86 419.462 130.86C419.718 130.86 419.927 130.779 420.102 130.605C420.265 130.43 420.358 130.209 420.358 129.942C420.358 129.686 420.265 129.465 420.102 129.29C419.927 129.128 419.718 129.034 419.462 129.034C419.206 129.034 418.985 129.128 418.822 129.29C418.648 129.465 418.567 129.686 418.567 129.942ZM417.601 129.942C417.601 129.442 417.776 129.011 418.148 128.651C418.52 128.302 418.95 128.116 419.462 128.116C419.962 128.116 420.404 128.302 420.776 128.651C421.149 129.011 421.335 129.442 421.335 129.942C421.335 130.453 421.149 130.895 420.776 131.244C420.404 131.605 419.962 131.779 419.462 131.779C418.95 131.779 418.52 131.605 418.148 131.244C417.776 130.895 417.601 130.453 417.601 129.942ZM414.996 131.686H413.926L419.346 124.15H420.393L414.996 131.686Z" fill="#929292"/>
<path d="M411.715 124.394L411.366 125.324C410.994 125.115 410.54 124.999 410.017 124.999C409.249 124.999 408.621 125.255 408.144 125.755C407.668 126.266 407.412 126.906 407.365 127.697C407.528 127.418 407.784 127.185 408.133 126.999C408.482 126.813 408.889 126.72 409.354 126.72C410.122 126.72 410.738 126.953 411.215 127.406C411.692 127.872 411.936 128.5 411.936 129.29C411.936 130.081 411.657 130.698 411.122 131.163C410.575 131.628 409.912 131.861 409.145 131.861C408.331 131.861 407.644 131.57 407.063 130.989C406.481 130.407 406.202 129.535 406.202 128.372C406.202 127.011 406.563 125.941 407.295 125.15C408.016 124.371 408.947 123.975 410.087 123.975C410.773 123.975 411.32 124.115 411.715 124.394ZM407.528 129.29C407.528 129.767 407.691 130.151 408.016 130.442C408.342 130.733 408.714 130.872 409.156 130.872C409.61 130.872 409.994 130.733 410.308 130.442C410.622 130.163 410.785 129.779 410.785 129.29C410.785 128.802 410.622 128.418 410.308 128.127C409.994 127.848 409.61 127.697 409.156 127.697C408.691 127.697 408.307 127.848 407.993 128.127C407.679 128.418 407.528 128.802 407.528 129.29Z" fill="#929292"/>
<path d="M373.036 131.686H371.908V125.266L369.093 131.686H368.046L365.255 125.266V131.686H364.127V123.44H365.673L368.581 130.151L371.512 123.44H373.036V131.686Z" fill="#929292"/>
<path d="M362.439 124.394L362.09 125.324C361.718 125.115 361.264 124.999 360.741 124.999C359.973 124.999 359.345 125.255 358.869 125.755C358.392 126.266 358.136 126.906 358.089 127.697C358.252 127.418 358.508 127.185 358.857 126.999C359.206 126.813 359.613 126.72 360.078 126.72C360.846 126.72 361.462 126.953 361.939 127.406C362.416 127.872 362.66 128.5 362.66 129.29C362.66 130.081 362.381 130.698 361.846 131.163C361.299 131.628 360.636 131.861 359.869 131.861C359.055 131.861 358.368 131.57 357.787 130.989C357.205 130.407 356.926 129.535 356.926 128.372C356.926 127.011 357.287 125.941 358.019 125.15C358.741 124.371 359.671 123.975 360.811 123.975C361.497 123.975 362.044 124.115 362.439 124.394ZM358.252 129.29C358.252 129.767 358.415 130.151 358.741 130.442C359.066 130.733 359.438 130.872 359.88 130.872C360.334 130.872 360.718 130.733 361.032 130.442C361.346 130.163 361.509 129.779 361.509 129.29C361.509 128.802 361.346 128.418 361.032 128.127C360.718 127.848 360.334 127.697 359.88 127.697C359.415 127.697 359.031 127.848 358.717 128.127C358.403 128.418 358.252 128.802 358.252 129.29Z" fill="#929292"/>
<path d="M272.512 130.232L273.501 129.884C273.536 130.186 273.664 130.442 273.896 130.64C274.117 130.837 274.42 130.93 274.803 130.93C275.094 130.93 275.327 130.861 275.501 130.721C275.664 130.581 275.757 130.395 275.757 130.186C275.757 129.814 275.513 129.581 275.036 129.465L274.082 129.256C273.64 129.162 273.303 128.976 273.059 128.697C272.803 128.418 272.687 128.081 272.687 127.685C272.687 127.208 272.873 126.79 273.268 126.441C273.664 126.092 274.129 125.917 274.675 125.917C275.024 125.917 275.35 125.976 275.629 126.08C275.908 126.185 276.118 126.325 276.28 126.487C276.432 126.662 276.548 126.825 276.629 126.964C276.699 127.115 276.757 127.267 276.804 127.418L275.838 127.778C275.815 127.685 275.792 127.604 275.757 127.511C275.711 127.418 275.652 127.325 275.571 127.208C275.49 127.104 275.373 127.022 275.222 126.953C275.059 126.883 274.885 126.848 274.675 126.848C274.396 126.848 274.175 126.929 274.001 127.069C273.826 127.22 273.745 127.395 273.745 127.592C273.745 127.953 273.954 128.174 274.385 128.267L275.292 128.465C275.78 128.581 276.164 128.779 276.432 129.069C276.699 129.36 276.839 129.709 276.839 130.128C276.839 130.57 276.653 130.977 276.292 131.326C275.932 131.686 275.431 131.861 274.792 131.861C274.094 131.861 273.559 131.698 273.175 131.349C272.78 131 272.559 130.628 272.512 130.232Z" fill="#929292"/>
<path d="M267.441 128.313H270.5C270.477 127.895 270.337 127.557 270.081 127.29C269.814 127.022 269.442 126.883 268.965 126.883C268.523 126.883 268.174 127.034 267.895 127.313C267.616 127.592 267.464 127.93 267.441 128.313ZM270.663 129.767L271.605 130.093C271.442 130.616 271.14 131.047 270.698 131.372C270.256 131.698 269.721 131.861 269.093 131.861C268.302 131.861 267.639 131.593 267.092 131.058C266.546 130.523 266.278 129.791 266.278 128.872C266.278 128.023 266.534 127.313 267.069 126.755C267.592 126.197 268.22 125.917 268.953 125.917C269.791 125.917 270.453 126.185 270.93 126.72C271.396 127.255 271.64 127.964 271.64 128.848C271.64 128.988 271.628 129.104 271.617 129.197H267.406C267.406 129.697 267.569 130.105 267.895 130.419C268.22 130.744 268.616 130.895 269.093 130.895C269.884 130.895 270.407 130.523 270.663 129.767Z" fill="#929292"/>
<path d="M264.872 131.686H263.79V126.092H264.872V131.686ZM263.546 123.975C263.546 123.766 263.615 123.58 263.767 123.417C263.918 123.266 264.104 123.184 264.325 123.184C264.534 123.184 264.72 123.266 264.883 123.417C265.034 123.568 265.116 123.754 265.116 123.975C265.116 124.196 265.034 124.382 264.883 124.533C264.72 124.685 264.534 124.754 264.325 124.754C264.104 124.754 263.918 124.685 263.767 124.533C263.615 124.382 263.546 124.196 263.546 123.975Z" fill="#929292"/>
<path d="M261.121 124.324V126.092H262.331V127.08H261.121V129.988C261.121 130.256 261.179 130.453 261.295 130.57C261.412 130.698 261.621 130.756 261.9 130.756C262.063 130.756 262.203 130.744 262.331 130.709V131.64C262.145 131.71 261.889 131.744 261.586 131.744C261.098 131.744 260.726 131.605 260.446 131.326C260.167 131.047 260.028 130.663 260.028 130.151V127.08H258.958V126.092H259.26C259.539 126.092 259.76 126.022 259.9 125.859C260.039 125.696 260.121 125.487 260.121 125.231V124.324H261.121Z" fill="#929292"/>
<path d="M254.218 128.453V131.686H253.125V126.092H254.195V126.894C254.567 126.255 255.137 125.929 255.916 125.929C256.556 125.929 257.044 126.138 257.393 126.546C257.742 126.964 257.916 127.488 257.916 128.139V131.686H256.823V128.325C256.823 127.395 256.381 126.918 255.521 126.918C255.102 126.918 254.788 127.069 254.555 127.36C254.323 127.65 254.218 128.011 254.218 128.453Z" fill="#929292"/>
<path d="M250.224 131.012C250.073 131.291 249.852 131.512 249.549 131.651C249.247 131.791 248.921 131.861 248.572 131.861C247.932 131.861 247.421 131.651 247.049 131.233C246.665 130.814 246.479 130.267 246.479 129.616V126.092H247.572V129.453C247.572 129.872 247.665 130.221 247.874 130.488C248.084 130.767 248.398 130.895 248.84 130.895C249.27 130.895 249.596 130.767 249.828 130.512C250.049 130.256 250.166 129.907 250.166 129.465V126.092H251.259V130.651C251.259 131.023 251.271 131.361 251.317 131.686H250.27C250.235 131.523 250.224 131.291 250.224 131.012Z" fill="#929292"/>
<path d="M242.334 130.884C242.822 130.884 243.229 130.709 243.567 130.36C243.904 130.012 244.078 129.511 244.078 128.883C244.078 128.267 243.904 127.778 243.567 127.429C243.229 127.081 242.822 126.894 242.334 126.894C241.845 126.894 241.427 127.081 241.089 127.429C240.752 127.778 240.589 128.267 240.589 128.883C240.589 129.511 240.752 130.012 241.089 130.36C241.427 130.709 241.845 130.884 242.334 130.884ZM242.334 125.917C243.159 125.917 243.846 126.208 244.381 126.767C244.916 127.325 245.195 128.034 245.195 128.883C245.195 129.744 244.927 130.465 244.392 131.023C243.857 131.582 243.171 131.861 242.334 131.861C241.496 131.861 240.81 131.582 240.275 131.023C239.74 130.465 239.473 129.744 239.473 128.883C239.473 128.034 239.74 127.325 240.275 126.767C240.81 126.208 241.496 125.917 242.334 125.917Z" fill="#929292"/>
<path d="M233.001 123.44H235.687C236.455 123.44 237.06 123.649 237.502 124.056C237.944 124.475 238.176 125.01 238.176 125.673C238.176 126.104 238.06 126.476 237.839 126.778C237.606 127.092 237.316 127.313 236.943 127.453C237.397 127.569 237.758 127.813 238.025 128.185C238.293 128.558 238.432 128.976 238.432 129.442C238.432 130.093 238.188 130.64 237.723 131.058C237.246 131.477 236.629 131.686 235.885 131.686H233.001V123.44ZM234.14 127.046H235.559C236.001 127.046 236.362 126.929 236.629 126.685C236.885 126.441 237.025 126.127 237.025 125.731C237.025 125.336 236.885 125.022 236.618 124.789C236.339 124.557 235.978 124.44 235.513 124.44H234.14V127.046ZM234.14 130.686H235.722C236.187 130.686 236.56 130.57 236.839 130.325C237.118 130.093 237.269 129.767 237.269 129.372C237.269 128.965 237.141 128.639 236.885 128.395C236.629 128.151 236.257 128.023 235.769 128.023H234.14V130.686Z" fill="#929292"/>
<path d="M414.902 153.648C414.902 153.916 414.983 154.137 415.158 154.311C415.321 154.485 415.542 154.567 415.797 154.567C416.053 154.567 416.263 154.485 416.437 154.311C416.6 154.137 416.693 153.916 416.693 153.648C416.693 153.392 416.6 153.171 416.437 152.997C416.263 152.834 416.053 152.741 415.797 152.741C415.542 152.741 415.321 152.834 415.158 152.997C414.983 153.171 414.902 153.392 414.902 153.648ZM413.937 153.648C413.937 153.148 414.111 152.718 414.483 152.357C414.855 152.008 415.286 151.822 415.797 151.822C416.298 151.822 416.74 152.008 417.112 152.357C417.484 152.718 417.67 153.148 417.67 153.648C417.67 154.16 417.484 154.602 417.112 154.951C416.74 155.311 416.298 155.486 415.797 155.486C415.286 155.486 414.855 155.311 414.483 154.951C414.111 154.602 413.937 154.16 413.937 153.648ZM419.508 157.696C419.508 157.963 419.589 158.184 419.764 158.359C419.926 158.533 420.147 158.614 420.403 158.614C420.659 158.614 420.868 158.533 421.043 158.359C421.206 158.184 421.299 157.963 421.299 157.696C421.299 157.44 421.206 157.219 421.043 157.044C420.868 156.881 420.659 156.788 420.403 156.788C420.147 156.788 419.926 156.881 419.764 157.044C419.589 157.219 419.508 157.44 419.508 157.696ZM418.542 157.696C418.542 157.195 418.717 156.765 419.089 156.405C419.461 156.056 419.891 155.87 420.403 155.87C420.903 155.87 421.345 156.056 421.718 156.405C422.09 156.765 422.276 157.195 422.276 157.696C422.276 158.207 422.09 158.649 421.718 158.998C421.345 159.359 420.903 159.533 420.403 159.533C419.891 159.533 419.461 159.359 419.089 158.998C418.717 158.649 418.542 158.207 418.542 157.696ZM415.937 159.44H414.867L420.287 151.903H421.334L415.937 159.44Z" fill="#929292"/>
<path d="M407.429 159.173L407.801 158.231C408.196 158.475 408.65 158.591 409.173 158.591C410.034 158.591 410.674 158.347 411.104 157.859C411.534 157.37 411.767 156.719 411.79 155.916C411.639 156.195 411.395 156.416 411.058 156.602C410.72 156.789 410.313 156.882 409.836 156.882C409.138 156.882 408.522 156.661 408.01 156.207C407.487 155.753 407.231 155.125 407.231 154.334C407.231 153.578 407.499 152.95 408.045 152.462C408.592 151.973 409.243 151.729 410.011 151.729C410.813 151.729 411.5 152.032 412.081 152.613C412.651 153.206 412.942 154.067 412.942 155.195C412.942 156.614 412.616 157.696 411.988 158.463C411.36 159.231 410.418 159.615 409.173 159.615C408.871 159.615 408.557 159.58 408.22 159.487C407.871 159.405 407.615 159.301 407.429 159.173ZM411.639 154.311C411.639 153.846 411.476 153.474 411.151 153.171C410.825 152.881 410.441 152.729 410.011 152.729C409.569 152.729 409.185 152.881 408.859 153.171C408.534 153.462 408.382 153.846 408.382 154.311C408.382 154.8 408.534 155.195 408.859 155.474C409.173 155.765 409.557 155.905 410.011 155.905C410.453 155.905 410.825 155.765 411.151 155.474C411.476 155.183 411.639 154.8 411.639 154.311Z" fill="#929292"/>
<path d="M374.193 159.44H373.065V153.02L370.25 159.44H369.203L366.412 153.02V159.44H365.284V151.194H366.83L369.738 157.905L372.669 151.194H374.193V159.44Z" fill="#929292"/>
<path d="M358.142 159.173L358.514 158.231C358.909 158.475 359.363 158.591 359.886 158.591C360.747 158.591 361.387 158.347 361.817 157.859C362.247 157.37 362.48 156.719 362.503 155.916C362.352 156.195 362.108 156.416 361.77 156.602C361.433 156.789 361.026 156.882 360.549 156.882C359.851 156.882 359.235 156.661 358.723 156.207C358.2 155.753 357.944 155.125 357.944 154.334C357.944 153.578 358.211 152.95 358.758 152.462C359.305 151.973 359.956 151.729 360.724 151.729C361.526 151.729 362.212 152.032 362.794 152.613C363.364 153.206 363.655 154.067 363.655 155.195C363.655 156.614 363.329 157.696 362.701 158.463C362.073 159.231 361.131 159.615 359.886 159.615C359.584 159.615 359.27 159.58 358.932 159.487C358.584 159.405 358.328 159.301 358.142 159.173ZM362.352 154.311C362.352 153.846 362.189 153.474 361.863 153.171C361.538 152.881 361.154 152.729 360.724 152.729C360.282 152.729 359.898 152.881 359.572 153.171C359.246 153.462 359.095 153.846 359.095 154.311C359.095 154.8 359.246 155.195 359.572 155.474C359.886 155.765 360.27 155.905 360.724 155.905C361.166 155.905 361.538 155.765 361.863 155.474C362.189 155.183 362.352 154.8 362.352 154.311Z" fill="#929292"/>
<path d="M320.181 157.986L321.169 157.637C321.204 157.94 321.332 158.196 321.565 158.393C321.786 158.591 322.088 158.684 322.472 158.684C322.763 158.684 322.995 158.614 323.17 158.475C323.333 158.335 323.426 158.149 323.426 157.94C323.426 157.568 323.181 157.335 322.705 157.219L321.751 157.009C321.309 156.916 320.972 156.73 320.727 156.451C320.471 156.172 320.355 155.835 320.355 155.439C320.355 154.962 320.541 154.544 320.937 154.195C321.332 153.846 321.797 153.671 322.344 153.671C322.693 153.671 323.019 153.73 323.298 153.834C323.577 153.939 323.786 154.078 323.949 154.241C324.1 154.416 324.217 154.579 324.298 154.718C324.368 154.869 324.426 155.021 324.472 155.172L323.507 155.532C323.484 155.439 323.461 155.358 323.426 155.265C323.379 155.172 323.321 155.079 323.24 154.962C323.158 154.858 323.042 154.776 322.891 154.707C322.728 154.637 322.553 154.602 322.344 154.602C322.065 154.602 321.844 154.683 321.669 154.823C321.495 154.974 321.414 155.148 321.414 155.346C321.414 155.707 321.623 155.928 322.053 156.021L322.96 156.219C323.449 156.335 323.833 156.533 324.1 156.823C324.368 157.114 324.507 157.463 324.507 157.882C324.507 158.324 324.321 158.731 323.961 159.08C323.6 159.44 323.1 159.615 322.46 159.615C321.763 159.615 321.227 159.452 320.844 159.103C320.448 158.754 320.227 158.382 320.181 157.986Z" fill="#929292"/>
<path d="M319.539 153.788V154.951C319.376 154.928 319.213 154.916 319.062 154.916C318.038 154.916 317.527 155.497 317.527 156.637V159.44H316.433V153.846H317.503V154.823C317.841 154.113 318.399 153.753 319.178 153.753C319.295 153.753 319.423 153.764 319.539 153.788Z" fill="#929292"/>
<path d="M310.839 156.067H313.898C313.875 155.649 313.735 155.311 313.479 155.044C313.212 154.776 312.84 154.637 312.363 154.637C311.921 154.637 311.572 154.788 311.293 155.067C311.014 155.346 310.862 155.684 310.839 156.067ZM314.061 157.521L315.003 157.847C314.84 158.37 314.538 158.801 314.096 159.126C313.654 159.452 313.119 159.615 312.491 159.615C311.7 159.615 311.037 159.347 310.49 158.812C309.943 158.277 309.676 157.544 309.676 156.626C309.676 155.777 309.932 155.067 310.467 154.509C310.99 153.951 311.618 153.671 312.351 153.671C313.188 153.671 313.851 153.939 314.328 154.474C314.794 155.009 315.038 155.718 315.038 156.602C315.038 156.742 315.026 156.858 315.014 156.951H310.804C310.804 157.451 310.967 157.858 311.293 158.172C311.618 158.498 312.014 158.649 312.491 158.649C313.282 158.649 313.805 158.277 314.061 157.521Z" fill="#929292"/>
<path d="M304.692 156.207V159.44H303.599V153.846H304.669V154.648C305.041 154.009 305.611 153.683 306.39 153.683C307.03 153.683 307.518 153.892 307.867 154.299C308.216 154.718 308.391 155.242 308.391 155.893V159.44H307.297V156.079C307.297 155.148 306.855 154.672 305.995 154.672C305.576 154.672 305.262 154.823 305.029 155.114C304.797 155.404 304.692 155.765 304.692 156.207Z" fill="#929292"/>
<path d="M301.043 152.078V153.846H302.253V154.834H301.043V157.742C301.043 158.01 301.101 158.207 301.218 158.324C301.334 158.452 301.543 158.51 301.823 158.51C301.985 158.51 302.125 158.498 302.253 158.463V159.394C302.067 159.463 301.811 159.498 301.509 159.498C301.02 159.498 300.648 159.359 300.369 159.08C300.09 158.8 299.95 158.417 299.95 157.905V154.834H298.88V153.846H299.182C299.462 153.846 299.683 153.776 299.822 153.613C299.962 153.45 300.043 153.241 300.043 152.985V152.078H301.043Z" fill="#929292"/>
<path d="M298.117 153.788V154.951C297.954 154.928 297.792 154.916 297.64 154.916C296.617 154.916 296.105 155.497 296.105 156.637V159.44H295.012V153.846H296.082V154.823C296.419 154.113 296.977 153.753 297.757 153.753C297.873 153.753 298.001 153.764 298.117 153.788Z" fill="#929292"/>
<path d="M288.575 157.94C288.575 157.463 288.726 157.079 289.04 156.788C289.343 156.498 289.761 156.312 290.273 156.242L291.785 156.021C292.064 155.986 292.215 155.846 292.215 155.602C292.215 155.311 292.111 155.067 291.913 154.881C291.704 154.695 291.401 154.602 291.006 154.602C290.634 154.602 290.331 154.707 290.122 154.916C289.901 155.125 289.773 155.393 289.738 155.73L288.691 155.486C288.738 154.951 288.982 154.52 289.424 154.183C289.854 153.846 290.378 153.671 290.982 153.671C291.773 153.671 292.355 153.869 292.739 154.253C293.111 154.637 293.309 155.125 293.309 155.718V158.521C293.309 158.859 293.332 159.161 293.378 159.44H292.308C292.262 159.208 292.25 158.963 292.25 158.684C292.087 158.94 291.866 159.149 291.564 159.336C291.262 159.522 290.889 159.615 290.447 159.615C289.889 159.615 289.447 159.452 289.098 159.126C288.749 158.801 288.575 158.405 288.575 157.94ZM290.599 158.696C291.087 158.696 291.471 158.568 291.773 158.3C292.064 158.045 292.215 157.626 292.215 157.044V156.788L290.506 157.044C290.25 157.091 290.052 157.172 289.912 157.312C289.761 157.451 289.691 157.649 289.691 157.882C289.691 158.103 289.773 158.289 289.936 158.452C290.099 158.614 290.32 158.696 290.599 158.696Z" fill="#929292"/>
<path d="M283.592 155.044H285.244C285.732 155.044 286.116 154.927 286.407 154.672C286.686 154.416 286.837 154.078 286.837 153.648C286.837 153.218 286.686 152.869 286.407 152.613C286.116 152.357 285.732 152.217 285.244 152.217H283.592V155.044ZM285.453 156.067H283.592V159.44H282.453V151.194H285.453C286.198 151.194 286.814 151.427 287.291 151.892C287.756 152.357 288 152.939 288 153.636C288 154.346 287.756 154.927 287.291 155.381C286.814 155.846 286.198 156.067 285.453 156.067Z" fill="#929292"/>
<path d="M275.61 154.683C275.134 154.683 274.726 154.858 274.401 155.195C274.075 155.544 273.912 156.021 273.912 156.637C273.912 157.254 274.075 157.731 274.401 158.079C274.726 158.428 275.134 158.603 275.622 158.603C276.087 158.603 276.436 158.487 276.68 158.254C276.925 158.021 277.087 157.754 277.181 157.451L278.146 157.87C277.983 158.335 277.692 158.742 277.262 159.091C276.832 159.44 276.285 159.615 275.622 159.615C274.808 159.615 274.133 159.336 273.598 158.766C273.063 158.207 272.796 157.498 272.796 156.637C272.796 155.777 273.063 155.067 273.598 154.509C274.133 153.951 274.796 153.671 275.61 153.671C276.285 153.671 276.843 153.846 277.262 154.195C277.681 154.544 277.96 154.962 278.099 155.451L277.111 155.87C277.018 155.544 276.855 155.265 276.622 155.032C276.378 154.8 276.041 154.683 275.61 154.683Z" fill="#929292"/>
<path d="M271.401 159.44H270.319V153.846H271.401V159.44ZM270.075 151.729C270.075 151.52 270.145 151.334 270.296 151.171C270.447 151.02 270.633 150.938 270.854 150.938C271.064 150.938 271.25 151.02 271.412 151.171C271.564 151.322 271.645 151.508 271.645 151.729C271.645 151.95 271.564 152.136 271.412 152.287C271.25 152.438 271.064 152.508 270.854 152.508C270.633 152.508 270.447 152.438 270.296 152.287C270.145 152.136 270.075 151.95 270.075 151.729Z" fill="#929292"/>
<path d="M263.188 159.743L264.247 159.498C264.281 159.894 264.444 160.231 264.723 160.487C265.003 160.743 265.351 160.871 265.77 160.871C266.91 160.871 267.48 160.266 267.48 159.056V158.254C267.34 158.533 267.119 158.754 266.817 158.917C266.515 159.091 266.166 159.173 265.77 159.173C265.026 159.173 264.409 158.929 263.921 158.417C263.432 157.905 263.2 157.254 263.2 156.463C263.2 155.695 263.432 155.055 263.921 154.532C264.398 154.009 265.014 153.741 265.77 153.741C266.619 153.741 267.189 154.044 267.491 154.625V153.846H268.573V159.022C268.573 159.394 268.515 159.743 268.422 160.068C268.329 160.394 268.178 160.685 267.968 160.952C267.759 161.231 267.457 161.441 267.084 161.592C266.712 161.755 266.27 161.825 265.77 161.825C265.072 161.825 264.491 161.639 264.014 161.243C263.525 160.848 263.258 160.347 263.188 159.743ZM265.933 158.254C266.398 158.254 266.782 158.091 267.084 157.765C267.375 157.44 267.526 156.998 267.526 156.463C267.526 155.928 267.375 155.497 267.084 155.172C266.782 154.846 266.398 154.672 265.933 154.672C265.444 154.672 265.061 154.835 264.758 155.16C264.456 155.486 264.316 155.928 264.316 156.463C264.316 157.021 264.456 157.451 264.747 157.777C265.037 158.103 265.433 158.254 265.933 158.254Z" fill="#929292"/>
<path d="M258.001 156.067H261.06C261.036 155.649 260.897 155.311 260.641 155.044C260.374 154.776 260.001 154.637 259.524 154.637C259.083 154.637 258.734 154.788 258.454 155.067C258.175 155.346 258.024 155.684 258.001 156.067ZM261.223 157.521L262.165 157.847C262.002 158.37 261.699 158.801 261.257 159.126C260.815 159.452 260.28 159.615 259.652 159.615C258.862 159.615 258.199 159.347 257.652 158.812C257.105 158.277 256.838 157.544 256.838 156.626C256.838 155.777 257.094 155.067 257.629 154.509C258.152 153.951 258.78 153.671 259.513 153.671C260.35 153.671 261.013 153.939 261.49 154.474C261.955 155.009 262.2 155.718 262.2 156.602C262.2 156.742 262.188 156.858 262.176 156.951H257.966C257.966 157.451 258.129 157.858 258.454 158.172C258.78 158.498 259.176 158.649 259.652 158.649C260.443 158.649 260.967 158.277 261.223 157.521Z" fill="#929292"/>
<path d="M254.679 152.078V153.846H255.889V154.834H254.679V157.742C254.679 158.01 254.737 158.207 254.854 158.324C254.97 158.452 255.179 158.51 255.459 158.51C255.621 158.51 255.761 158.498 255.889 158.463V159.394C255.703 159.463 255.447 159.498 255.144 159.498C254.656 159.498 254.284 159.359 254.005 159.08C253.726 158.8 253.586 158.417 253.586 157.905V154.834H252.516V153.846H252.818C253.097 153.846 253.318 153.776 253.458 153.613C253.598 153.45 253.679 153.241 253.679 152.985V152.078H254.679Z" fill="#929292"/>
<path d="M246.777 157.94C246.777 157.463 246.928 157.079 247.242 156.788C247.545 156.498 247.963 156.312 248.475 156.242L249.987 156.021C250.266 155.986 250.417 155.846 250.417 155.602C250.417 155.311 250.313 155.067 250.115 154.881C249.906 154.695 249.603 154.602 249.208 154.602C248.836 154.602 248.533 154.707 248.324 154.916C248.103 155.125 247.975 155.393 247.94 155.73L246.893 155.486C246.94 154.951 247.184 154.52 247.626 154.183C248.056 153.846 248.58 153.671 249.184 153.671C249.975 153.671 250.557 153.869 250.941 154.253C251.313 154.637 251.511 155.125 251.511 155.718V158.521C251.511 158.859 251.534 159.161 251.58 159.44H250.51C250.464 159.208 250.452 158.963 250.452 158.684C250.289 158.94 250.068 159.149 249.766 159.336C249.464 159.522 249.091 159.615 248.649 159.615C248.091 159.615 247.649 159.452 247.3 159.126C246.951 158.801 246.777 158.405 246.777 157.94ZM248.801 158.696C249.289 158.696 249.673 158.568 249.975 158.3C250.266 158.045 250.417 157.626 250.417 157.044V156.788L248.708 157.044C248.452 157.091 248.254 157.172 248.114 157.312C247.963 157.451 247.893 157.649 247.893 157.882C247.893 158.103 247.975 158.289 248.138 158.452C248.301 158.614 248.522 158.696 248.801 158.696Z" fill="#929292"/>
<path d="M245.961 153.788V154.951C245.798 154.928 245.635 154.916 245.484 154.916C244.46 154.916 243.948 155.497 243.948 156.637V159.44H242.855V153.846H243.925V154.823C244.262 154.113 244.821 153.753 245.6 153.753C245.716 153.753 245.844 153.764 245.961 153.788Z" fill="#929292"/>
<path d="M240.3 152.078V153.846H241.509V154.834H240.3V157.742C240.3 158.01 240.358 158.207 240.474 158.324C240.591 158.452 240.8 158.51 241.079 158.51C241.242 158.51 241.381 158.498 241.509 158.463V159.394C241.323 159.463 241.067 159.498 240.765 159.498C240.277 159.498 239.904 159.359 239.625 159.08C239.346 158.8 239.207 158.417 239.207 157.905V154.834H238.136V153.846H238.439C238.718 153.846 238.939 153.776 239.079 153.613C239.218 153.45 239.3 153.241 239.3 152.985V152.078H240.3Z" fill="#929292"/>
<path d="M237.427 153.067L236.403 153.427C236.345 153.078 236.171 152.753 235.88 152.462C235.578 152.171 235.171 152.02 234.659 152.02C234.194 152.02 233.821 152.16 233.519 152.415C233.217 152.683 233.065 153.009 233.065 153.392C233.065 153.695 233.147 153.951 233.333 154.16C233.519 154.369 233.775 154.521 234.124 154.59L235.357 154.858C236.031 155.009 236.566 155.288 236.938 155.695C237.311 156.102 237.497 156.591 237.497 157.172C237.497 157.847 237.229 158.417 236.706 158.894C236.171 159.382 235.485 159.615 234.647 159.615C233.717 159.615 232.996 159.382 232.472 158.894C231.949 158.405 231.646 157.835 231.565 157.161L232.658 156.812C232.705 157.312 232.891 157.731 233.24 158.068C233.577 158.417 234.042 158.58 234.636 158.58C235.171 158.58 235.589 158.463 235.892 158.208C236.182 157.963 236.334 157.649 236.334 157.265C236.334 156.963 236.229 156.696 236.02 156.463C235.81 156.23 235.496 156.079 235.101 155.986L233.926 155.73C233.31 155.602 232.821 155.346 232.461 154.951C232.088 154.567 231.914 154.079 231.914 153.474C231.914 152.823 232.17 152.253 232.705 151.764C233.24 151.276 233.88 151.02 234.636 151.02C235.473 151.02 236.124 151.229 236.578 151.636C237.02 152.055 237.311 152.532 237.427 153.067Z" fill="#929292"/>
<path d="M414.527 72.7251C414.527 72.9926 414.608 73.2136 414.783 73.388C414.946 73.5625 415.167 73.6439 415.423 73.6439C415.678 73.6439 415.888 73.5625 416.062 73.388C416.225 73.2136 416.318 72.9926 416.318 72.7251C416.318 72.4692 416.225 72.2482 416.062 72.0738C415.888 71.9109 415.678 71.8179 415.423 71.8179C415.167 71.8179 414.946 71.9109 414.783 72.0738C414.608 72.2482 414.527 72.4692 414.527 72.7251ZM413.562 72.7251C413.562 72.225 413.736 71.7946 414.108 71.4341C414.481 71.0851 414.911 70.899 415.423 70.899C415.923 70.899 416.365 71.0851 416.737 71.4341C417.109 71.7946 417.295 72.225 417.295 72.7251C417.295 73.2368 417.109 73.6788 416.737 74.0277C416.365 74.3883 415.923 74.5627 415.423 74.5627C414.911 74.5627 414.481 74.3883 414.108 74.0277C413.736 73.6788 413.562 73.2368 413.562 72.7251ZM419.133 76.7726C419.133 77.0401 419.214 77.2611 419.389 77.4355C419.552 77.61 419.773 77.6914 420.028 77.6914C420.284 77.6914 420.494 77.61 420.668 77.4355C420.831 77.2611 420.924 77.0401 420.924 76.7726C420.924 76.5167 420.831 76.2957 420.668 76.1213C420.494 75.9584 420.284 75.8654 420.028 75.8654C419.773 75.8654 419.552 75.9584 419.389 76.1213C419.214 76.2957 419.133 76.5167 419.133 76.7726ZM418.167 76.7726C418.167 76.2725 418.342 75.8421 418.714 75.4816C419.086 75.1326 419.517 74.9466 420.028 74.9466C420.529 74.9466 420.971 75.1326 421.343 75.4816C421.715 75.8421 421.901 76.2725 421.901 76.7726C421.901 77.2843 421.715 77.7263 421.343 78.0752C420.971 78.4358 420.529 78.6102 420.028 78.6102C419.517 78.6102 419.086 78.4358 418.714 78.0752C418.342 77.7263 418.167 77.2843 418.167 76.7726ZM415.562 78.5172H414.492L419.912 70.9805H420.959L415.562 78.5172Z" fill="#929292"/>
<path d="M407.071 76.4701L408.164 76.1444C408.187 76.6096 408.362 76.9935 408.676 77.2726C408.99 77.5634 409.385 77.7029 409.862 77.7029C410.316 77.7029 410.699 77.5634 411.014 77.2842C411.316 77.0051 411.479 76.6445 411.479 76.1793C411.479 75.6908 411.316 75.307 411.014 75.0279C410.699 74.7603 410.316 74.6208 409.85 74.6208C409.281 74.6208 408.827 74.8069 408.478 75.1674C408.362 75.1325 408.187 75.0627 407.943 74.9581C407.687 74.865 407.501 74.7836 407.361 74.7255L408.338 70.9803H412.316V72.0271H409.094L408.536 74.1904C408.862 73.8183 409.374 73.6322 410.071 73.6322C410.816 73.6322 411.432 73.8648 411.909 74.3067C412.386 74.7603 412.63 75.3651 412.63 76.1328C412.63 76.8655 412.374 77.4819 411.863 77.9704C411.351 78.4589 410.676 78.7032 409.862 78.7032C409.083 78.7032 408.431 78.4938 407.92 78.0519C407.408 77.6215 407.117 77.0981 407.071 76.4701Z" fill="#929292"/>
<path d="M405.797 78.5171H404.68V73.2018H402.854V72.3993C403.366 72.3993 403.796 72.2597 404.145 72.0039C404.494 71.748 404.703 71.3991 404.796 70.9803H405.797V78.5171Z" fill="#929292"/>
<path d="M375.806 78.5171H374.677V72.0969L371.863 78.5171H370.816L368.025 72.0969V78.5171H366.896V70.2709H368.443L371.351 76.9818L374.282 70.2709H375.806V78.5171Z" fill="#929292"/>
<path d="M359.885 76.4701L360.978 76.1444C361.001 76.6096 361.176 76.9935 361.49 77.2726C361.804 77.5634 362.199 77.7029 362.676 77.7029C363.13 77.7029 363.514 77.5634 363.828 77.2842C364.13 77.0051 364.293 76.6445 364.293 76.1793C364.293 75.6908 364.13 75.307 363.828 75.0279C363.514 74.7603 363.13 74.6208 362.664 74.6208C362.095 74.6208 361.641 74.8069 361.292 75.1674C361.176 75.1325 361.001 75.0627 360.757 74.9581C360.501 74.865 360.315 74.7836 360.175 74.7255L361.152 70.9803H365.13V72.0271H361.908L361.35 74.1904C361.676 73.8183 362.188 73.6322 362.885 73.6322C363.63 73.6322 364.246 73.8648 364.723 74.3067C365.2 74.7603 365.444 75.3651 365.444 76.1328C365.444 76.8655 365.188 77.4819 364.677 77.9704C364.165 78.4589 363.49 78.7032 362.676 78.7032C361.897 78.7032 361.245 78.4938 360.734 78.0519C360.222 77.6215 359.931 77.0981 359.885 76.4701Z" fill="#929292"/>
<path d="M358.611 78.5171H357.494V73.2018H355.668V72.3993C356.18 72.3993 356.61 72.2597 356.959 72.0039C357.308 71.748 357.517 71.3991 357.61 70.9803H358.611V78.5171Z" fill="#929292"/>
<path d="M325.723 72.9227L323.49 78.5171H322.385L320.117 72.9227H321.35L322.943 77.2377L324.548 72.9227H325.723Z" fill="#929292"/>
<path d="M315.45 75.1442H318.509C318.486 74.7255 318.347 74.3882 318.091 74.1207C317.823 73.8532 317.451 73.7136 316.974 73.7136C316.532 73.7136 316.183 73.8648 315.904 74.144C315.625 74.4231 315.474 74.7604 315.45 75.1442ZM318.672 76.5981L319.614 76.9237C319.451 77.4471 319.149 77.8775 318.707 78.2031C318.265 78.5288 317.73 78.6916 317.102 78.6916C316.311 78.6916 315.648 78.4241 315.102 77.8891C314.555 77.3541 314.287 76.6213 314.287 75.7025C314.287 74.8535 314.543 74.144 315.078 73.5857C315.602 73.0274 316.23 72.7483 316.962 72.7483C317.8 72.7483 318.463 73.0158 318.94 73.5508C319.405 74.0858 319.649 74.7953 319.649 75.6792C319.649 75.8188 319.638 75.9351 319.626 76.0282H315.416C315.416 76.5283 315.578 76.9354 315.904 77.2494C316.23 77.5751 316.625 77.7263 317.102 77.7263C317.893 77.7263 318.416 77.3541 318.672 76.5981Z" fill="#929292"/>
<path d="M307.626 77.5052H309.313C310.115 77.5052 310.778 77.2377 311.313 76.7027C311.848 76.1677 312.116 75.4117 312.116 74.4114C312.116 73.4112 311.848 72.6436 311.325 72.0969C310.801 71.5619 310.138 71.2828 309.336 71.2828H307.626V77.5052ZM309.348 78.5171H306.486V70.2709H309.371C310.476 70.2709 311.406 70.6431 312.162 71.3758C312.907 72.1085 313.29 73.1204 313.29 74.4114C313.29 75.7024 312.907 76.7143 312.151 77.4354C311.383 78.1565 310.452 78.5171 309.348 78.5171Z" fill="#929292"/>
<path d="M301.448 78.5172L300.401 77.4239C299.656 78.2497 298.889 78.6568 298.086 78.6568C297.342 78.6568 296.76 78.4474 296.342 78.0287C295.911 77.61 295.702 77.1215 295.702 76.5516C295.702 76.0631 295.818 75.6444 296.051 75.3071C296.284 74.9815 296.656 74.6209 297.156 74.2487L297.272 74.1557L297.121 73.9929C296.923 73.7951 296.772 73.6323 296.667 73.5044C296.563 73.3764 296.446 73.1787 296.318 72.9228C296.19 72.667 296.132 72.4111 296.132 72.1552C296.132 71.5271 296.342 71.027 296.772 70.6548C297.202 70.2827 297.702 70.0966 298.261 70.0966C298.889 70.0966 299.412 70.2827 299.831 70.6548C300.238 71.027 300.447 71.5039 300.447 72.1087C300.447 72.76 300.052 73.3648 299.284 73.9347L298.866 74.2487L300.401 75.8422L302.238 73.7951V75.2955L301.122 76.5865L302.994 78.5172H301.448ZM298.098 77.61C298.377 77.61 298.645 77.5403 298.877 77.3774C299.11 77.2262 299.366 77.0052 299.633 76.7028L299.668 76.6563L297.993 74.9001L297.575 75.2141C297.109 75.5747 296.877 75.9934 296.877 76.4586C296.877 76.761 296.981 77.0285 297.214 77.2611C297.447 77.4937 297.737 77.61 298.098 77.61ZM297.26 72.0854C297.26 72.4227 297.47 72.8065 297.889 73.2369L298.144 73.516L298.703 73.0973C299.11 72.7949 299.319 72.4576 299.319 72.0738C299.319 71.7947 299.214 71.562 299.017 71.3643C298.819 71.1782 298.575 71.0735 298.272 71.0735C298.005 71.0735 297.772 71.1666 297.563 71.3527C297.354 71.5388 297.26 71.783 297.26 72.0854Z" fill="#929292"/>
<path d="M288.684 80.8549H287.486L288.882 77.9007L286.474 72.9227H287.73L289.475 76.7841L291.15 72.9227H292.324L288.684 80.8549Z" fill="#929292"/>
<path d="M284.563 71.1549V72.9228H285.772V73.9114H284.563V76.8191C284.563 77.0866 284.621 77.2843 284.737 77.4006C284.853 77.5286 285.063 77.5867 285.342 77.5867C285.505 77.5867 285.644 77.5751 285.772 77.5402V78.4707C285.586 78.5404 285.33 78.5753 285.028 78.5753C284.539 78.5753 284.167 78.4358 283.888 78.1566C283.609 77.8775 283.469 77.4937 283.469 76.9819V73.9114H282.399V72.9228H282.702C282.981 72.9228 283.202 72.853 283.341 72.6902C283.481 72.5273 283.562 72.318 283.562 72.0621V71.1549H284.563Z" fill="#929292"/>
<path d="M281.237 78.5171H280.155V72.9227H281.237V78.5171ZM279.911 70.8059C279.911 70.5966 279.981 70.4105 280.132 70.2476C280.283 70.0964 280.469 70.015 280.69 70.015C280.9 70.015 281.086 70.0964 281.249 70.2476C281.4 70.3988 281.481 70.5849 281.481 70.8059C281.481 71.0269 281.4 71.213 281.249 71.3642C281.086 71.5154 280.9 71.5852 280.69 71.5852C280.469 71.5852 280.283 71.5154 280.132 71.3642C279.981 71.213 279.911 71.0269 279.911 70.8059Z" fill="#929292"/>
<path d="M274.718 75.2838V78.5171H273.624V72.9227H274.694V73.7252C275.067 73.0855 275.637 72.7599 276.416 72.7599C277.055 72.7599 277.544 72.9692 277.893 73.3763C278.242 73.795 278.416 74.3184 278.416 74.9697V78.5171H277.323V75.1558C277.323 74.2254 276.881 73.7485 276.02 73.7485C275.602 73.7485 275.288 73.8997 275.055 74.1905C274.822 74.4812 274.718 74.8418 274.718 75.2838Z" fill="#929292"/>
<path d="M270.724 77.8425C270.572 78.1217 270.351 78.3427 270.049 78.4822C269.747 78.6218 269.421 78.6916 269.072 78.6916C268.432 78.6916 267.921 78.4822 267.548 78.0635C267.165 77.6448 266.979 77.0982 266.979 76.4469V72.9227H268.072V76.284C268.072 76.7027 268.165 77.0517 268.374 77.3192C268.584 77.5983 268.898 77.7262 269.34 77.7262C269.77 77.7262 270.096 77.5983 270.328 77.3424C270.549 77.0865 270.665 76.7376 270.665 76.2957V72.9227H271.759V77.482C271.759 77.8542 271.77 78.1915 271.817 78.5171H270.77C270.735 78.3543 270.724 78.1217 270.724 77.8425Z" fill="#929292"/>
<path d="M258.259 78.5171H257.178V72.9227H258.225V73.6671C258.387 73.3763 258.632 73.1553 258.946 72.9925C259.248 72.8413 259.574 72.7599 259.923 72.7599C260.283 72.7599 260.621 72.8529 260.923 73.0274C261.225 73.2135 261.446 73.4694 261.597 73.8183C261.981 73.1204 262.609 72.7599 263.47 72.7599C264.005 72.7599 264.459 72.946 264.831 73.3065C265.203 73.6787 265.401 74.2021 265.401 74.8883V78.5171H264.319V75.0046C264.319 74.6208 264.214 74.3068 264.017 74.0742C263.819 73.8415 263.528 73.7252 263.133 73.7252C262.749 73.7252 262.435 73.8648 262.202 74.1323C261.958 74.3998 261.842 74.7371 261.842 75.1326V78.5171H260.748V75.0046C260.748 74.6208 260.644 74.3068 260.446 74.0742C260.248 73.8415 259.958 73.7252 259.562 73.7252C259.167 73.7252 258.853 73.8648 258.62 74.1207C258.376 74.3882 258.259 74.7255 258.259 75.1442V78.5171Z" fill="#929292"/>
<path d="M248.287 78.5171H247.205V72.9227H248.252V73.6671C248.415 73.3763 248.659 73.1553 248.973 72.9925C249.276 72.8413 249.601 72.7599 249.95 72.7599C250.311 72.7599 250.648 72.8529 250.95 73.0274C251.253 73.2135 251.474 73.4694 251.625 73.8183C252.009 73.1204 252.637 72.7599 253.498 72.7599C254.033 72.7599 254.486 72.946 254.858 73.3065C255.231 73.6787 255.428 74.2021 255.428 74.8883V78.5171H254.347V75.0046C254.347 74.6208 254.242 74.3068 254.044 74.0742C253.846 73.8415 253.556 73.7252 253.16 73.7252C252.776 73.7252 252.462 73.8648 252.23 74.1323C251.986 74.3998 251.869 74.7371 251.869 75.1326V78.5171H250.776V75.0046C250.776 74.6208 250.671 74.3068 250.474 74.0742C250.276 73.8415 249.985 73.7252 249.59 73.7252C249.194 73.7252 248.88 73.8648 248.648 74.1207C248.403 74.3882 248.287 74.7255 248.287 75.1442V78.5171Z" fill="#929292"/>
<path d="M242.945 77.7146C243.434 77.7146 243.841 77.5402 244.178 77.1912C244.516 76.8423 244.69 76.3422 244.69 75.7141C244.69 75.0977 244.516 74.6092 244.178 74.2603C243.841 73.9114 243.434 73.7253 242.945 73.7253C242.457 73.7253 242.038 73.9114 241.701 74.2603C241.364 74.6092 241.201 75.0977 241.201 75.7141C241.201 76.3422 241.364 76.8423 241.701 77.1912C242.038 77.5402 242.457 77.7146 242.945 77.7146ZM242.945 72.7483C243.771 72.7483 244.457 73.0391 244.992 73.5973C245.527 74.1556 245.807 74.8651 245.807 75.7141C245.807 76.5748 245.539 77.2959 245.004 77.8542C244.469 78.4125 243.783 78.6916 242.945 78.6916C242.108 78.6916 241.422 78.4125 240.887 77.8542C240.352 77.2959 240.084 76.5748 240.084 75.7141C240.084 74.8651 240.352 74.1556 240.887 73.5973C241.422 73.0391 242.108 72.7483 242.945 72.7483Z" fill="#929292"/>
<path d="M235.741 78.6918C234.612 78.6918 233.647 78.308 232.844 77.5287C232.042 76.7611 231.646 75.7143 231.646 74.3884C231.646 73.5045 231.844 72.7369 232.251 72.0623C232.647 71.3993 233.158 70.9108 233.775 70.5852C234.38 70.2595 235.043 70.0967 235.741 70.0967C236.671 70.0967 237.45 70.3409 238.09 70.8062C238.73 71.2714 239.16 71.9111 239.369 72.7136L238.311 73.0858C238.148 72.4694 237.857 71.9925 237.415 71.6552C236.973 71.3179 236.415 71.1434 235.741 71.1434C234.926 71.1434 234.24 71.4342 233.67 72.0041C233.089 72.574 232.81 73.3649 232.81 74.3884C232.81 75.4119 233.089 76.2145 233.67 76.7844C234.24 77.3659 234.926 77.645 235.741 77.645C236.415 77.645 236.973 77.4706 237.427 77.11C237.869 76.7495 238.183 76.2726 238.369 75.6678L239.381 76.04C239.148 76.8425 238.718 77.4822 238.078 77.9707C237.439 78.4592 236.659 78.6918 235.741 78.6918Z" fill="#929292"/>
<path d="M408.134 1.52549C408.134 1.68075 408.181 1.809 408.282 1.91026C408.377 2.01151 408.505 2.05876 408.654 2.05876C408.802 2.05876 408.924 2.01151 409.025 1.91026C409.119 1.809 409.173 1.68075 409.173 1.52549C409.173 1.37698 409.119 1.24873 409.025 1.14748C408.924 1.05297 408.802 0.99897 408.654 0.99897C408.505 0.99897 408.377 1.05297 408.282 1.14748C408.181 1.24873 408.134 1.37698 408.134 1.52549ZM407.573 1.52549C407.573 1.23523 407.675 0.985469 407.891 0.776211C408.107 0.573702 408.357 0.465698 408.654 0.465698C408.944 0.465698 409.2 0.573702 409.416 0.776211C409.632 0.985469 409.74 1.23523 409.74 1.52549C409.74 1.8225 409.632 2.07901 409.416 2.28152C409.2 2.49078 408.944 2.59203 408.654 2.59203C408.357 2.59203 408.107 2.49078 407.891 2.28152C407.675 2.07901 407.573 1.8225 407.573 1.52549ZM410.807 3.87459C410.807 4.02984 410.854 4.1581 410.955 4.25935C411.05 4.36061 411.178 4.40786 411.327 4.40786C411.475 4.40786 411.597 4.36061 411.698 4.25935C411.792 4.1581 411.846 4.02984 411.846 3.87459C411.846 3.72608 411.792 3.59783 411.698 3.49657C411.597 3.40207 411.475 3.34807 411.327 3.34807C411.178 3.34807 411.05 3.40207 410.955 3.49657C410.854 3.59783 410.807 3.72608 410.807 3.87459ZM410.247 3.87459C410.247 3.58432 410.348 3.33456 410.564 3.12531C410.78 2.9228 411.03 2.81479 411.327 2.81479C411.617 2.81479 411.873 2.9228 412.089 3.12531C412.305 3.33456 412.413 3.58432 412.413 3.87459C412.413 4.1716 412.305 4.42811 412.089 4.63062C411.873 4.83988 411.617 4.94113 411.327 4.94113C411.03 4.94113 410.78 4.83988 410.564 4.63062C410.348 4.42811 410.247 4.1716 410.247 3.87459ZM408.735 4.88713H408.114L411.259 0.51295H411.867L408.735 4.88713Z" fill="#5F5F5F"/>
<path d="M381.403 0.715593H379.803V4.88726H379.142V0.715593H377.542V0.101318H381.403V0.715593Z" fill="#5F5F5F"/>
<path d="M376.869 4.88726H376.18L373.595 0.985604V4.88726H372.934V0.101318H373.818L376.207 3.77347V0.101318H376.869V4.88726Z" fill="#5F5F5F"/>
<path d="M370.065 4.98852C369.559 4.98852 369.147 4.84001 368.823 4.5295C368.499 4.22574 368.344 3.80047 368.344 3.2537V0.101318H368.999V3.23345C368.999 3.59796 369.086 3.88147 369.275 4.07723C369.464 4.27974 369.728 4.37424 370.065 4.37424C370.403 4.37424 370.659 4.27974 370.848 4.07723C371.031 3.88147 371.125 3.59796 371.125 3.23345V0.101318H371.787V3.2537C371.787 3.80047 371.625 4.22574 371.301 4.5295C370.977 4.84001 370.565 4.98852 370.065 4.98852Z" fill="#5F5F5F"/>
<path d="M363.371 2.49085C363.371 3.08488 363.539 3.55064 363.877 3.88141C364.214 4.21892 364.619 4.38093 365.099 4.38093C365.571 4.38093 365.983 4.21892 366.321 3.88141C366.658 3.55064 366.827 3.08488 366.827 2.49085C366.827 1.89683 366.658 1.43781 366.321 1.10705C365.983 0.776282 365.571 0.607525 365.099 0.607525C364.619 0.607525 364.214 0.776282 363.877 1.10705C363.539 1.43781 363.371 1.89683 363.371 2.49085ZM362.696 2.49085C362.696 2.10609 362.763 1.75507 362.898 1.43106C363.033 1.1138 363.215 0.850534 363.445 0.648026C363.674 0.445518 363.931 0.283511 364.214 0.168757C364.498 0.0607524 364.788 0 365.099 0C365.402 0 365.699 0.0607524 365.983 0.168757C366.267 0.283511 366.516 0.445518 366.746 0.648026C366.975 0.850534 367.158 1.1138 367.293 1.43106C367.428 1.75507 367.502 2.10609 367.502 2.49085C367.502 3.00387 367.38 3.45614 367.144 3.84091C366.908 4.23242 366.611 4.51593 366.253 4.70494C365.888 4.89395 365.504 4.98845 365.099 4.98845C364.687 4.98845 364.302 4.89395 363.944 4.70494C363.58 4.51593 363.283 4.23242 363.047 3.84091C362.81 3.45614 362.696 3.00387 362.696 2.49085Z" fill="#5F5F5F"/>
<path d="M361.782 4.88726H361.128V1.16111L359.494 4.88726H358.887L357.266 1.16111V4.88726H356.612V0.101318H357.509L359.197 3.99623L360.898 0.101318H361.782V4.88726Z" fill="#5F5F5F"/>
<path d="M355.219 4.88726L354.7 3.55071H352.58L352.074 4.88726H351.365L353.268 0.101318H354.031L355.935 4.88726H355.219ZM353.633 0.789846L352.816 2.93643H354.463L353.633 0.789846Z" fill="#5F5F5F"/>
<path d="M258.284 4.88726H257.596L255.01 0.985604V4.88726H254.349V0.101318H255.233L257.623 3.77347V0.101318H258.284V4.88726Z" fill="#5F5F5F"/>
<path d="M249.308 2.49085C249.308 3.08488 249.477 3.55064 249.814 3.88141C250.152 4.21892 250.557 4.38093 251.036 4.38093C251.509 4.38093 251.92 4.21892 252.258 3.88141C252.595 3.55064 252.764 3.08488 252.764 2.49085C252.764 1.89683 252.595 1.43781 252.258 1.10705C251.92 0.776282 251.509 0.607525 251.036 0.607525C250.557 0.607525 250.152 0.776282 249.814 1.10705C249.477 1.43781 249.308 1.89683 249.308 2.49085ZM248.633 2.49085C248.633 2.10609 248.7 1.75507 248.835 1.43106C248.97 1.1138 249.153 0.850534 249.382 0.648026C249.612 0.445518 249.868 0.283511 250.152 0.168757C250.435 0.0607524 250.726 0 251.036 0C251.34 0 251.637 0.0607524 251.92 0.168757C252.204 0.283511 252.454 0.445518 252.683 0.648026C252.913 0.850534 253.095 1.1138 253.23 1.43106C253.365 1.75507 253.439 2.10609 253.439 2.49085C253.439 3.00387 253.318 3.45614 253.081 3.84091C252.845 4.23242 252.548 4.51593 252.19 4.70494C251.826 4.89395 251.441 4.98845 251.036 4.98845C250.624 4.98845 250.24 4.89395 249.882 4.70494C249.517 4.51593 249.22 4.23242 248.984 3.84091C248.748 3.45614 248.633 3.00387 248.633 2.49085Z" fill="#5F5F5F"/>
<path d="M247.72 4.88726H247.045V0.101318H247.72V4.88726Z" fill="#5F5F5F"/>
<path d="M246.371 0.715593H244.771V4.88726H244.11V0.715593H242.51V0.101318H246.371V0.715593Z" fill="#5F5F5F"/>
<path d="M242.099 4.88726L241.58 3.55071H239.46L238.954 4.88726H238.245L240.149 0.101318H240.911L242.815 4.88726H242.099ZM240.513 0.789846L239.696 2.93643H241.343L240.513 0.789846Z" fill="#5F5F5F"/>
<path d="M235.926 4.98845C235.272 4.98845 234.711 4.76569 234.246 4.31343C233.78 3.86791 233.55 3.26038 233.55 2.49085C233.55 1.97783 233.665 1.53231 233.901 1.1408C234.131 0.756031 234.428 0.472519 234.786 0.283511C235.137 0.0945037 235.521 0 235.926 0C236.466 0 236.919 0.141756 237.29 0.411767C237.661 0.681778 237.911 1.05304 238.032 1.51881L237.418 1.73482C237.324 1.37706 237.155 1.10029 236.898 0.904537C236.642 0.708779 236.318 0.607525 235.926 0.607525C235.454 0.607525 235.056 0.776282 234.725 1.10705C234.387 1.43781 234.225 1.89683 234.225 2.49085C234.225 3.08488 234.387 3.55064 234.725 3.88141C235.056 4.21892 235.454 4.38093 235.926 4.38093C236.318 4.38093 236.642 4.27967 236.905 4.07042C237.162 3.86116 237.344 3.5844 237.452 3.23338L238.039 3.44939C237.904 3.91516 237.654 4.28642 237.283 4.56994C236.912 4.85345 236.46 4.98845 235.926 4.98845Z" fill="#5F5F5F"/>
<path d="M228.813 2.49085C228.813 3.08488 228.982 3.55064 229.32 3.88141C229.657 4.21892 230.062 4.38093 230.541 4.38093C231.014 4.38093 231.426 4.21892 231.763 3.88141C232.101 3.55064 232.269 3.08488 232.269 2.49085C232.269 1.89683 232.101 1.43781 231.763 1.10705C231.426 0.776282 231.014 0.607525 230.541 0.607525C230.062 0.607525 229.657 0.776282 229.32 1.10705C228.982 1.43781 228.813 1.89683 228.813 2.49085ZM228.138 2.49085C228.138 2.10609 228.206 1.75507 228.341 1.43106C228.476 1.1138 228.658 0.850534 228.888 0.648026C229.117 0.445518 229.374 0.283511 229.657 0.168757C229.941 0.0607524 230.231 0 230.541 0C230.845 0 231.142 0.0607524 231.426 0.168757C231.709 0.283511 231.959 0.445518 232.188 0.648026C232.418 0.850534 232.6 1.1138 232.735 1.43106C232.87 1.75507 232.945 2.10609 232.945 2.49085C232.945 3.00387 232.823 3.45614 232.587 3.84091C232.35 4.23242 232.053 4.51593 231.696 4.70494C231.331 4.89395 230.946 4.98845 230.541 4.98845C230.13 4.98845 229.745 4.89395 229.387 4.70494C229.023 4.51593 228.726 4.23242 228.489 3.84091C228.253 3.45614 228.138 3.00387 228.138 2.49085Z" fill="#5F5F5F"/>
<path d="M227.904 4.88726H224.981V0.101318H225.643V4.26624H227.904V4.88726Z" fill="#5F5F5F"/>
<path d="M224.206 4.88726H221.283V0.101318H221.945V4.26624H224.206V4.88726Z" fill="#5F5F5F"/>
<path d="M219.891 4.88751L219.371 3.55095H217.251L216.745 4.88751H216.036L217.94 0.101562H218.703L220.606 4.88751H219.891ZM218.304 0.79009L217.488 2.93668H219.135L218.304 0.79009Z" fill="#5F5F5F"/>
<path d="M329.146 148.516V150.206L330.693 149.686L331.07 150.804L329.497 151.324L330.511 152.65L329.562 153.352L328.522 151.987L327.547 153.339L326.585 152.637L327.573 151.324L326 150.804L326.377 149.686L327.924 150.219V148.516H329.146Z" fill="#929292"/>
<path d="M330.146 67.516V69.206L331.693 68.686L332.07 69.804L330.497 70.324L331.511 71.65L330.562 72.352L329.522 70.987L328.547 72.339L327.585 71.637L328.573 70.324L327 69.804L327.377 68.686L328.924 69.219V67.516H330.146Z" fill="#929292"/>
<path d="M294.523 16.299V17.989L296.07 17.469L296.447 18.587L294.874 19.107L295.888 20.433L294.939 21.135L293.899 19.77L292.924 21.122L291.962 20.42L292.95 19.107L291.377 18.587L291.754 17.469L293.301 18.002V16.299H294.523Z" fill="#929292"/>
</svg>
