<svg width="3829" height="1920" viewBox="0 0 3829 1920" fill="none" xmlns="http://www.w3.org/2000/svg">
<path fill-rule="evenodd" clip-rule="evenodd" d="M3829 0H0V1909.07L3829 1920V1752.92H3672.85L3585.72 1602.42L3672.85 1451.93H3829V1440.61H3672.85L3585.72 1290.12L3672.85 1139.62H3829V1128.31H3672.85L3585.72 977.81L3672.85 827.315H3829V0ZM3574.4 983.468L3661.53 1133.96L3574.4 1284.46H3400.15L3313.02 1133.96L3400.15 983.468H3574.4ZM3574.4 1295.77L3661.53 1446.27L3574.4 1596.76H3400.15L3313.02 1446.27L3400.15 1295.77H3574.4ZM3301.7 1451.93L3388.83 1602.42L3301.7 1752.92H3127.44L3040.32 1602.42L3127.44 1451.93H3301.7ZM3574.4 1608.08L3661.53 1758.57L3574.4 1909.07H3400.15L3313.02 1758.57L3400.15 1608.08H3574.4Z" fill="#1C1C1C"/>
</svg>
