<svg width="3579" height="1521" viewBox="0 0 3579 1521" fill="none" xmlns="http://www.w3.org/2000/svg">
<path fill-rule="evenodd" clip-rule="evenodd" d="M3579 0H0V1510.07L3579 1521V1353.92H3422.85L3335.72 1203.42L3422.85 1052.93H3579V1041.61H3422.85L3335.72 891.12L3422.85 740.62H3579V729.31H3422.85L3335.72 578.81L3422.85 428.315H3579V0ZM3324.4 584.468L3411.53 734.96L3324.4 885.46H3150.15L3063.02 734.96L3150.15 584.468H3324.4ZM3324.4 896.77L3411.53 1047.27L3324.4 1197.76H3150.15L3063.02 1047.27L3150.15 896.77H3324.4ZM3051.7 1052.93L3138.83 1203.42L3051.7 1353.92H2877.44L2790.32 1203.42L2877.44 1052.93H3051.7ZM3324.4 1209.08L3411.53 1359.57L3324.4 1510.07H3150.15L3063.02 1359.57L3150.15 1209.08H3324.4Z" fill="#1C1C1C"/>
</svg>
