<svg width="44" height="28" viewBox="0 0 44 28" fill="none" xmlns="http://www.w3.org/2000/svg">
<g opacity="0.3" filter="url(#filter0_d_8234_1054)">
<path d="M13.3203 2H27.7457C34.3061 2 39.6252 7.31872 39.6252 13.8795C39.6252 20.4404 34.3061 25.7591 27.7457 25.7591H13.3203V2Z" fill="url(#paint0_linear_8234_1054)"/>
</g>
<g opacity="0.3" filter="url(#filter1_d_8234_1054)">
<path d="M13.3203 2H21.8057C28.3663 2 33.6854 7.31872 33.6854 13.8795C33.6854 20.4404 28.3663 25.7591 21.8057 25.7591H13.3203V2Z" fill="url(#paint1_linear_8234_1054)"/>
</g>
<g opacity="0.3" filter="url(#filter2_d_8234_1054)">
<path d="M13.3203 2H16.7145C23.2753 2 28.5939 7.31872 28.5939 13.8795C28.5939 20.4404 23.2753 25.7591 16.7145 25.7591H13.3203V2Z" fill="url(#paint2_linear_8234_1054)"/>
</g>
<path d="M12.1842 25.761C18.7451 25.761 24.0638 20.4424 24.0638 13.8815C24.0638 7.32058 18.7451 2.00195 12.1842 2.00195C5.62332 2.00195 0.304688 7.32058 0.304688 13.8815C0.304688 20.4424 5.62332 25.761 12.1842 25.761Z" fill="url(#paint3_linear_8234_1054)"/>
<path d="M13.0729 25.9399C19.6125 25.292 24.3886 19.4654 23.7407 12.9258C23.0927 6.38627 17.2661 1.61015 10.7266 2.25807C4.18705 2.90599 -0.589066 8.73263 0.0588512 15.2722C0.706768 21.8117 6.53336 26.5878 13.0729 25.9399Z" fill="#B5FFE4"/>
<path opacity="0.6" d="M11.8975 24.5685C17.6787 24.5685 22.3653 19.8819 22.3653 14.1006C22.3653 8.3194 17.6787 3.63281 11.8975 3.63281C6.11627 3.63281 1.42969 8.3194 1.42969 14.1006C1.42969 19.8819 6.11627 24.5685 11.8975 24.5685Z" fill="url(#paint4_linear_8234_1054)"/>
<path d="M6.96094 10.8145C6.98061 10.8346 7.01516 10.8529 7.01768 10.875C7.04225 11.0897 7.17645 11.2339 7.33955 11.3493C8.83735 12.4084 10.3354 13.4672 11.8386 14.5187C12.2017 14.7727 12.4896 14.758 12.8479 14.5062C13.6665 13.9307 14.4846 13.3543 15.3015 12.7763C15.7647 12.4485 16.1024 12.0226 16.2791 11.483C16.3408 11.2948 16.3645 11.0942 16.3904 10.9712C16.3904 11.4412 16.4253 11.9862 16.3815 12.5247C16.3276 13.1887 15.9929 13.7363 15.4585 14.1305C14.5682 14.7873 13.6604 15.4207 12.7521 16.0529C12.4567 16.2584 12.1438 16.2046 11.8545 16.0168C11.5578 15.8241 11.2634 15.6274 10.9748 15.4229C9.7791 14.5755 8.58624 13.7241 7.39139 12.8754C7.18672 12.73 7.025 12.5582 6.98859 12.2983C6.98945 11.876 6.99097 11.4537 6.98988 11.0314C6.98978 10.9994 6.97101 10.9674 6.96094 10.9354C6.96094 10.8951 6.96094 10.8548 6.96094 10.8145Z" fill="url(#paint5_linear_8234_1054)" fill-opacity="0.8"/>
<path d="M6.96094 10.8574C6.98061 10.8775 7.01516 10.896 7.01768 10.918C7.04225 11.1327 7.17645 11.2769 7.33955 11.3922C8.83735 12.4515 10.3354 13.5102 11.8386 14.5617C12.2017 14.8157 12.4896 14.801 12.8479 14.5491C13.6665 13.9737 14.4846 13.3972 15.3015 12.8193C15.7647 12.4916 16.1024 12.0655 16.2791 11.526C16.3408 11.3378 16.3645 11.1372 16.3904 11.0142C16.3904 11.4842 16.4253 12.0291 16.3815 12.5677C16.3276 13.2317 15.9929 13.7792 15.4585 14.1735C14.5682 14.8303 13.6604 15.4637 12.7521 16.0959C12.4567 16.3015 12.1438 16.2476 11.8545 16.0598C11.5578 15.8671 11.2634 15.6704 10.9748 15.4659C9.7791 14.6186 8.58624 13.7671 7.39139 12.9184C7.18672 12.773 7.025 12.6012 6.98859 12.3413C6.98945 11.919 6.99097 11.4967 6.98988 11.0745C6.98978 11.0424 6.97101 11.0103 6.96094 10.9783C6.96094 10.9381 6.96094 10.8978 6.96094 10.8574Z" fill="url(#paint6_linear_8234_1054)" fill-opacity="0.8"/>
<path d="M6.96094 14.2266C6.9798 14.2392 7.01364 14.2502 7.01521 14.2647C7.04134 14.5041 7.20235 14.6487 7.38075 14.7784C8.06725 15.2777 8.75015 15.782 9.44416 16.2708C10.2125 16.8119 10.9909 17.339 11.7663 17.8703C12.2105 18.1747 12.457 18.1759 12.9006 17.8658C13.6876 17.3157 14.4695 16.7587 15.2559 16.2079C15.7246 15.8796 16.0798 15.4628 16.264 14.9196C16.3324 14.7179 16.3602 14.5026 16.434 14.2931C16.4137 14.8778 16.4312 15.4669 16.3629 16.046C16.2897 16.6664 15.9476 17.1731 15.4454 17.5419C14.5619 18.1907 13.662 18.8176 12.7634 19.4457C12.4485 19.6659 12.1274 19.6006 11.827 19.4006C11.4358 19.1402 11.0454 18.8781 10.6623 18.6063C9.55788 17.8227 8.45736 17.0337 7.35523 16.2469C7.15825 16.1063 7.01739 15.9298 6.98688 15.6821C6.98826 15.2542 6.99016 14.8264 6.98964 14.3985C6.98964 14.3715 6.97092 14.3444 6.96094 14.3173C6.96094 14.287 6.96094 14.2568 6.96094 14.2266Z" fill="url(#paint7_linear_8234_1054)" fill-opacity="0.8"/>
<path d="M6.96094 14.1797C6.9798 14.1923 7.01364 14.2033 7.01521 14.2177C7.04134 14.4572 7.20235 14.6017 7.38075 14.7315C8.06725 15.2308 8.75015 15.7351 9.44416 16.2239C10.2125 16.765 10.9909 17.2921 11.7663 17.8234C12.2105 18.1278 12.457 18.1291 12.9006 17.8189C13.6876 17.2689 14.4695 16.7118 15.2559 16.161C15.7246 15.8326 16.0798 15.4159 16.264 14.8727C16.3324 14.671 16.3602 14.4557 16.434 14.2462C16.4137 14.8309 16.4312 15.42 16.3629 15.9991C16.2897 16.6196 15.9476 17.1262 15.4454 17.495C14.5619 18.1438 13.662 18.7707 12.7634 19.3989C12.4485 19.619 12.1274 19.5536 11.827 19.3537C11.4358 19.0933 11.0454 18.8312 10.6623 18.5594C9.55788 17.7757 8.45736 16.9868 7.35523 16.2C7.15825 16.0594 7.01739 15.8829 6.98688 15.6352C6.98826 15.2073 6.99016 14.7795 6.98964 14.3517C6.98964 14.3246 6.97092 14.2975 6.96094 14.2705C6.96094 14.2401 6.96094 14.2099 6.96094 14.1797Z" fill="url(#paint8_linear_8234_1054)" fill-opacity="0.8"/>
<path d="M9.14844 10.6997C9.174 10.6706 9.18721 10.6481 9.2067 10.6346C9.68325 10.3022 10.1514 9.95679 10.6402 9.6431C11.146 9.31852 11.7045 9.12796 12.3155 9.12891C12.8851 9.12981 13.4017 9.31011 13.87 9.62157C14.0965 9.77212 14.3157 9.93835 14.5165 10.1209C14.8413 10.416 14.8749 10.9415 14.6165 11.2948C14.5588 11.3738 14.4987 11.3789 14.4229 11.3285C14.3177 11.2585 14.2132 11.1872 14.1062 11.1201C13.0252 10.4428 11.944 10.4501 10.8631 11.121C10.6913 11.2277 10.5213 11.3372 10.3462 11.4383C10.3111 11.4586 10.244 11.4666 10.214 11.4468C9.87666 11.2239 9.54358 10.9948 9.21007 10.7662C9.19007 10.7526 9.17619 10.7302 9.14844 10.6997Z" fill="url(#paint9_linear_8234_1054)" fill-opacity="0.8"/>
<path d="M9.14844 10.6997C9.174 10.6706 9.18721 10.6481 9.2067 10.6346C9.68325 10.3022 10.1514 9.95679 10.6402 9.6431C11.146 9.31852 11.7045 9.12796 12.3155 9.12891C12.8851 9.12981 13.4017 9.31011 13.87 9.62157C14.0965 9.77212 14.3157 9.93835 14.5165 10.1209C14.8413 10.416 14.8749 10.9415 14.6165 11.2948C14.5588 11.3738 14.4987 11.3789 14.4229 11.3285C14.3177 11.2585 14.2132 11.1872 14.1062 11.1201C13.0252 10.4428 11.944 10.4501 10.8631 11.121C10.6913 11.2277 10.5213 11.3372 10.3462 11.4383C10.3111 11.4586 10.244 11.4666 10.214 11.4468C9.87666 11.2239 9.54358 10.9948 9.21007 10.7662C9.19007 10.7526 9.17619 10.7302 9.14844 10.6997Z" fill="url(#paint10_linear_8234_1054)" fill-opacity="0.8"/>
<defs>
<filter id="filter0_d_8234_1054" x="13.3203" y="0" width="30.3047" height="27.7598" filterUnits="userSpaceOnUse" color-interpolation-filters="sRGB">
<feFlood flood-opacity="0" result="BackgroundImageFix"/>
<feColorMatrix in="SourceAlpha" type="matrix" values="0 0 0 0 0 0 0 0 0 0 0 0 0 0 0 0 0 0 127 0" result="hardAlpha"/>
<feOffset dx="2"/>
<feGaussianBlur stdDeviation="1"/>
<feComposite in2="hardAlpha" operator="out"/>
<feColorMatrix type="matrix" values="0 0 0 0 0 0 0 0 0 0 0 0 0 0 0 0 0 0 0.02 0"/>
<feBlend mode="normal" in2="BackgroundImageFix" result="effect1_dropShadow_8234_1054"/>
<feBlend mode="normal" in="SourceGraphic" in2="effect1_dropShadow_8234_1054" result="shape"/>
</filter>
<filter id="filter1_d_8234_1054" x="13.3203" y="0" width="24.3672" height="27.7598" filterUnits="userSpaceOnUse" color-interpolation-filters="sRGB">
<feFlood flood-opacity="0" result="BackgroundImageFix"/>
<feColorMatrix in="SourceAlpha" type="matrix" values="0 0 0 0 0 0 0 0 0 0 0 0 0 0 0 0 0 0 127 0" result="hardAlpha"/>
<feOffset dx="2"/>
<feGaussianBlur stdDeviation="1"/>
<feComposite in2="hardAlpha" operator="out"/>
<feColorMatrix type="matrix" values="0 0 0 0 0 0 0 0 0 0 0 0 0 0 0 0 0 0 0.02 0"/>
<feBlend mode="normal" in2="BackgroundImageFix" result="effect1_dropShadow_8234_1054"/>
<feBlend mode="normal" in="SourceGraphic" in2="effect1_dropShadow_8234_1054" result="shape"/>
</filter>
<filter id="filter2_d_8234_1054" x="13.3203" y="0" width="19.2734" height="27.7598" filterUnits="userSpaceOnUse" color-interpolation-filters="sRGB">
<feFlood flood-opacity="0" result="BackgroundImageFix"/>
<feColorMatrix in="SourceAlpha" type="matrix" values="0 0 0 0 0 0 0 0 0 0 0 0 0 0 0 0 0 0 127 0" result="hardAlpha"/>
<feOffset dx="2"/>
<feGaussianBlur stdDeviation="1"/>
<feComposite in2="hardAlpha" operator="out"/>
<feColorMatrix type="matrix" values="0 0 0 0 0 0 0 0 0 0 0 0 0 0 0 0 0 0 0.02 0"/>
<feBlend mode="normal" in2="BackgroundImageFix" result="effect1_dropShadow_8234_1054"/>
<feBlend mode="normal" in="SourceGraphic" in2="effect1_dropShadow_8234_1054" result="shape"/>
</filter>
<linearGradient id="paint0_linear_8234_1054" x1="26.4725" y1="-1.3658" x2="26.4725" y2="28.2538" gradientUnits="userSpaceOnUse">
<stop stop-color="#96FFE6"/>
<stop offset="1" stop-color="#A2FFE9"/>
</linearGradient>
<linearGradient id="paint1_linear_8234_1054" x1="23.5028" y1="-1.3658" x2="23.5028" y2="28.2538" gradientUnits="userSpaceOnUse">
<stop stop-color="#A0FFDD"/>
<stop offset="1" stop-color="#B1FFF1"/>
</linearGradient>
<linearGradient id="paint2_linear_8234_1054" x1="20.9572" y1="-1.3658" x2="21" y2="29" gradientUnits="userSpaceOnUse">
<stop stop-color="#A4FFC8"/>
<stop offset="1" stop-color="#C5FFE3"/>
</linearGradient>
<linearGradient id="paint3_linear_8234_1054" x1="12.1842" y1="-1.36456" x2="12.1842" y2="28.255" gradientUnits="userSpaceOnUse">
<stop stop-color="#8EFFBB"/>
<stop offset="1" stop-color="#88FFCA"/>
</linearGradient>
<linearGradient id="paint4_linear_8234_1054" x1="11.8975" y1="0.667003" x2="11.8975" y2="26.7667" gradientUnits="userSpaceOnUse">
<stop stop-color="#06F93B"/>
<stop offset="1" stop-color="#1ABB78"/>
</linearGradient>
<linearGradient id="paint5_linear_8234_1054" x1="12.9994" y1="11.6623" x2="13.3027" y2="17.7526" gradientUnits="userSpaceOnUse">
<stop stop-color="white"/>
<stop offset="1" stop-color="white"/>
</linearGradient>
<linearGradient id="paint6_linear_8234_1054" x1="12.9994" y1="11.7053" x2="13.3027" y2="17.7956" gradientUnits="userSpaceOnUse">
<stop stop-color="white"/>
<stop offset="1" stop-color="white"/>
</linearGradient>
<linearGradient id="paint7_linear_8234_1054" x1="13.0189" y1="15.0724" x2="13.3197" y2="21.1481" gradientUnits="userSpaceOnUse">
<stop stop-color="white"/>
<stop offset="1" stop-color="white"/>
</linearGradient>
<linearGradient id="paint8_linear_8234_1054" x1="13.0189" y1="15.0255" x2="13.3197" y2="21.1012" gradientUnits="userSpaceOnUse">
<stop stop-color="white"/>
<stop offset="1" stop-color="white"/>
</linearGradient>
<linearGradient id="paint9_linear_8234_1054" x1="12.7549" y1="9.49668" x2="12.8506" y2="12.1416" gradientUnits="userSpaceOnUse">
<stop stop-color="white"/>
<stop offset="1" stop-color="white"/>
</linearGradient>
<linearGradient id="paint10_linear_8234_1054" x1="12.7549" y1="9.49668" x2="12.8506" y2="12.1416" gradientUnits="userSpaceOnUse">
<stop stop-color="white"/>
<stop offset="1" stop-color="white"/>
</linearGradient>
</defs>
</svg>
