<svg width="967" height="401" viewBox="0 0 967 401" fill="none" xmlns="http://www.w3.org/2000/svg">
<path d="M100.457 400.031L479.794 199.08L848.005 400.031H100.457Z" fill="url(#paint0_linear_109_9120)"/>
<path d="M880.762 99.8115H730.939C726.191 99.8115 722.343 103.66 722.343 108.408V140.774C722.343 145.521 726.191 149.37 730.939 149.37H880.762C885.509 149.37 889.358 145.521 889.358 140.774V108.408C889.358 103.66 885.509 99.8115 880.762 99.8115Z" fill="#171717"/>
<path d="M867 136.965C864.498 136.98 867.078 136.951 864.576 136.951C859.15 136.96 853.724 136.965 848.298 136.96C845.649 136.96 842.995 136.955 840.34 136.951C839.668 136.951 838.991 136.916 838.324 136.902C838.206 136.902 838.088 136.857 838 136.784C838.113 136.759 838.226 136.745 838.339 136.735C839.58 136.686 840.826 136.637 842.067 136.592C843.495 136.543 844.923 136.504 846.355 136.46C846.743 136.445 846.826 136.367 846.841 135.96C846.875 134.341 847.076 132.731 847.439 131.152C847.582 130.543 847.518 130.293 846.973 129.959C846.022 129.385 845.457 128.453 845.227 127.364C845.07 126.633 845.295 125.971 845.742 125.382C845.977 125.073 846.223 124.774 846.453 124.465C846.645 124.219 846.924 124.062 847.233 124.028C847.341 124.033 847.439 124.087 847.503 124.17C847.533 124.205 847.488 124.362 847.43 124.401C847.194 124.573 846.963 124.798 846.699 124.867C846.286 124.975 846.085 125.269 845.919 125.583C845.271 126.834 845.874 128.061 846.635 128.733C846.944 128.998 847.282 129.223 847.64 129.42C848.043 129.64 848.249 129.577 848.597 129.273C849.951 128.061 851.305 126.854 852.669 125.652C852.767 125.564 852.861 125.47 852.964 125.382C853.184 125.181 853.385 125.23 853.454 125.529C853.572 126.123 853.67 126.716 853.763 127.31C853.808 127.605 853.822 127.899 853.852 128.188H853.935C853.974 127.968 853.994 127.742 853.999 127.516C853.95 126.653 853.92 125.779 853.793 124.926C853.719 124.43 853.469 123.964 853.312 123.483C853.258 123.341 853.233 123.189 853.248 123.042C853.283 122.831 853.199 122.762 853.023 122.684C851.924 122.193 850.771 121.859 849.608 121.555C849.475 121.526 849.358 121.457 849.269 121.359C849.181 121.256 849.122 121.133 849.103 121.001C849.053 120.77 848.98 120.55 848.896 120.329C848.798 120.054 848.823 119.838 849.103 119.676C849.799 119.289 850.486 118.896 851.168 118.489C851.394 118.366 851.6 118.214 851.781 118.038C852.13 117.65 852.596 117.508 853.047 117.316C854.126 116.87 855.211 116.433 856.29 115.982C856.383 115.923 856.462 115.849 856.535 115.771C856.476 115.692 856.413 115.624 856.344 115.565C855.014 114.692 853.847 113.598 852.895 112.337C852.841 112.258 852.866 112.116 852.851 112.003C852.954 111.993 853.057 112.008 853.155 112.033C854.048 112.43 854.926 112.852 855.819 113.239C856.491 113.534 857.188 113.774 857.86 114.069C858.611 114.397 859.396 114.677 859.974 115.31C860.254 115.589 860.279 116.031 860.028 116.34L859.042 117.709C859.16 117.738 859.283 117.753 859.405 117.753C860.092 117.675 860.779 117.572 861.466 117.498C861.603 117.498 861.736 117.518 861.863 117.557C861.834 117.689 861.785 117.812 861.721 117.925C861.137 118.729 860.426 119.431 859.621 120.005C859.445 120.128 859.498 120.26 859.587 120.402C859.965 120.986 860.367 121.55 860.715 122.149C861.275 123.125 861.839 124.097 862.329 125.107C862.849 126.182 863.316 127.281 863.742 128.394C864.071 129.258 864.321 130.141 864.572 131.024C864.807 131.848 865.018 132.682 865.194 133.521C865.361 134.331 865.469 135.155 865.602 135.974C865.67 136.416 865.769 136.686 866.21 136.705L867 136.965ZM859.081 136.381V136.421H862.844C863.33 136.421 863.36 136.362 863.139 135.91C863.016 135.675 862.913 135.435 862.805 135.189C862.432 134.306 861.893 133.502 861.206 132.82C860.902 132.525 860.509 132.3 860.082 132.319C859.425 132.349 858.782 132.594 858.184 132.859C857.257 133.281 856.452 133.928 855.848 134.738C855.529 135.16 855.245 135.606 854.985 136.063C854.867 136.254 854.946 136.381 855.201 136.381C856.491 136.377 857.786 136.381 859.081 136.381ZM850.393 136.416V136.401H852.257C852.65 136.401 852.689 136.347 852.738 135.974C852.782 135.616 852.841 135.268 852.9 134.91C853.008 134.257 853.126 133.6 853.214 132.942C853.263 132.574 853.16 132.501 852.821 132.628C852.306 132.815 851.801 133.031 851.31 133.281C850.074 133.973 849.024 134.87 848.293 136.107C848.151 136.352 848.18 136.411 848.465 136.411C849.102 136.421 849.745 136.416 850.393 136.416Z" fill="#F69E1B"/>
<path d="M880.762 99.8115H730.939C726.191 99.8115 722.343 103.66 722.343 108.408V140.774C722.343 145.521 726.191 149.37 730.939 149.37H880.762C885.509 149.37 889.358 145.521 889.358 140.774V108.408C889.358 103.66 885.509 99.8115 880.762 99.8115Z" stroke="url(#paint1_linear_109_9120)" stroke-width="1.19202"/>
<path d="M233.419 100H83.596C78.848 100 75 103.848 75 108.596V140.963C75 145.71 78.848 149.558 83.596 149.558H233.419C238.166 149.558 242.015 145.71 242.015 140.963V108.596C242.015 103.848 238.166 100 233.419 100Z" fill="#171717"/>
<path d="M233.419 100H83.596C78.848 100 75 103.848 75 108.596V140.963C75 145.71 78.848 149.558 83.596 149.558H233.419C238.166 149.558 242.015 145.71 242.015 140.963V108.596C242.015 103.848 238.166 100 233.419 100Z" stroke="url(#paint2_linear_109_9120)" stroke-width="1.19202"/>
<path d="M234.419 187H84.596C79.848 187 76 190.848 76 195.596V227.963C76 232.71 79.848 236.558 84.596 236.558H234.419C239.166 236.558 243.015 232.71 243.015 227.963V195.596C243.015 190.848 239.166 187 234.419 187Z" fill="#171717"/>
<path d="M234.419 187H84.596C79.848 187 76 190.848 76 195.596V227.963C76 232.71 79.848 236.558 84.596 236.558H234.419C239.166 236.558 243.015 232.71 243.015 227.963V195.596C243.015 190.848 239.166 187 234.419 187Z" stroke="url(#paint3_linear_109_9120)" stroke-width="1.19202"/>
<path d="M234.419 276H84.596C79.848 276 76 279.848 76 284.596V316.963C76 321.71 79.848 325.558 84.596 325.558H234.419C239.166 325.558 243.015 321.71 243.015 316.963V284.596C243.015 279.848 239.166 276 234.419 276Z" fill="#171717"/>
<path d="M234.419 276H84.596C79.848 276 76 279.848 76 284.596V316.963C76 321.71 79.848 325.558 84.596 325.558H234.419C239.166 325.558 243.015 321.71 243.015 316.963V284.596C243.015 279.848 239.166 276 234.419 276Z" stroke="url(#paint4_linear_109_9120)" stroke-width="1.19202"/>
<path d="M110.829 307.948C110.529 308.248 110.032 307.948 110.132 307.5C110.331 306.951 110.53 306.254 110.78 305.455C108.287 307.399 105.444 309.045 102.603 310.391C102.204 310.59 101.806 310.092 102.104 309.743C103.75 307.699 105.344 305.605 106.841 303.461L103.75 305.007C103.35 305.206 103.002 304.757 103.25 304.409C104.746 302.364 107.687 298.375 109.932 295.634L110.78 296.631L110.232 298.576C110.137 298.888 110.119 299.22 110.179 299.541C110.24 299.862 110.378 300.164 110.58 300.42C110.979 300.969 111.627 301.268 112.276 301.268C112.575 301.268 112.824 301.218 113.073 301.119L114.968 300.37L116.664 301.467C116.714 301.517 116.764 301.517 116.813 301.567C114.868 304.06 112.325 306.602 110.829 307.948ZM120.651 295.334L118.906 296.731C118.792 296.818 118.701 296.932 118.64 297.062C118.579 297.192 118.551 297.335 118.557 297.479L118.706 299.672C118.756 300.221 118.308 300.62 117.81 300.62C117.633 300.617 117.46 300.565 117.31 300.471L115.465 299.274C115.319 299.172 115.144 299.12 114.966 299.124C114.867 299.124 114.717 299.124 114.618 299.174L112.574 300.022C112.474 300.072 112.324 300.072 112.225 300.072C111.677 300.072 111.177 299.523 111.377 298.925L111.976 296.782C112.02 296.643 112.025 296.495 111.99 296.355C111.955 296.214 111.881 296.085 111.776 295.984L110.38 294.289C109.882 293.74 110.28 292.842 111.028 292.793L113.222 292.693C113.363 292.695 113.502 292.659 113.625 292.589C113.748 292.519 113.85 292.417 113.921 292.295L115.067 290.4C115.144 290.272 115.254 290.167 115.386 290.097C115.518 290.027 115.666 289.994 115.816 290.001C116.164 290.001 116.513 290.2 116.663 290.599L117.46 292.643C117.507 292.786 117.593 292.912 117.707 293.009C117.822 293.106 117.961 293.169 118.109 293.192L120.254 293.741C121.051 293.94 121.249 294.886 120.651 295.334ZM118.956 294.487C118.607 294.238 118.009 294.288 117.659 294.487C117.31 294.736 117.31 295.085 117.659 295.334C118.008 295.584 118.606 295.534 118.956 295.334C119.304 295.135 119.304 294.736 118.956 294.487Z" fill="#FF5D97"/>
<path d="M458.487 76.4255C459.469 76.4255 460.265 75.6294 460.265 74.6473C460.265 73.6653 459.469 72.8691 458.487 72.8691C457.505 72.8691 456.709 73.6653 456.709 74.6473C456.709 75.6294 457.505 76.4255 458.487 76.4255Z" fill="#707070"/>
<path d="M591.896 199.09C592.988 199.09 593.872 198.21 593.872 197.124C593.872 196.038 592.988 195.157 591.896 195.157C590.805 195.157 589.92 196.038 589.92 197.124C589.92 198.21 590.805 199.09 591.896 199.09Z" fill="#3E3E3E"/>
<path d="M490.402 208.559C491.494 208.559 492.378 207.678 492.378 206.592C492.378 205.506 491.494 204.626 490.402 204.626C489.311 204.626 488.426 205.506 488.426 206.592C488.426 207.678 489.311 208.559 490.402 208.559Z" fill="#3DCB8C"/>
<path d="M409.517 205.39C411.266 205.39 412.683 203.98 412.683 202.241C412.683 200.501 411.266 199.091 409.517 199.091C407.769 199.091 406.352 200.501 406.352 202.241C406.352 203.98 407.769 205.39 409.517 205.39Z" fill="#707070"/>
<path d="M580.004 279.565C581.096 279.565 581.98 278.684 581.98 277.598C581.98 276.512 581.096 275.632 580.004 275.632C578.913 275.632 578.028 276.512 578.028 277.598C578.028 278.684 578.913 279.565 580.004 279.565Z" fill="#3E3E3E"/>
<path d="M590.112 260.254C591.094 260.254 591.89 259.457 591.89 258.475C591.89 257.493 591.094 256.697 590.112 256.697C589.13 256.697 588.334 257.493 588.334 258.475C588.334 259.457 589.13 260.254 590.112 260.254Z" fill="#707070"/>
<path d="M383.754 218.025C385.065 218.025 386.127 216.968 386.127 215.665C386.127 214.361 385.065 213.304 383.754 213.304C382.444 213.304 381.381 214.361 381.381 215.665C381.381 216.968 382.444 218.025 383.754 218.025Z" fill="#3E3E3E"/>
<path d="M569.373 128.721C570.684 128.721 571.746 127.664 571.746 126.361C571.746 125.057 570.684 124 569.373 124C568.063 124 567 125.057 567 126.361C567 127.664 568.063 128.721 569.373 128.721Z" fill="#3E3E3E"/>
<path d="M391.882 188.458C392.864 188.458 393.66 187.662 393.66 186.68C393.66 185.697 392.864 184.901 391.882 184.901C390.9 184.901 390.104 185.697 390.104 186.68C390.104 187.662 390.9 188.458 391.882 188.458Z" fill="#3E3E3E"/>
<path d="M542.334 300.866C544.082 300.866 545.5 299.456 545.5 297.716C545.5 295.977 544.082 294.566 542.334 294.566C540.586 294.566 539.168 295.977 539.168 297.716C539.168 299.456 540.586 300.866 542.334 300.866Z" fill="#3DCB8C"/>
<path d="M426.77 218.438C427.752 218.438 428.548 217.642 428.548 216.66C428.548 215.678 427.752 214.882 426.77 214.882C425.788 214.882 424.992 215.678 424.992 216.66C424.992 217.642 425.788 218.438 426.77 218.438Z" fill="#3DCB8C"/>
<path d="M443.619 135.975C444.71 135.975 445.595 135.094 445.595 134.008C445.595 132.922 444.71 132.042 443.619 132.042C442.527 132.042 441.643 132.922 441.643 134.008C441.643 135.094 442.527 135.975 443.619 135.975Z" fill="#3E3E3E"/>
<path d="M503.486 83.9024C504.796 83.9024 505.859 82.8454 505.859 81.5415C505.859 80.2377 504.796 79.1807 503.486 79.1807C502.176 79.1807 501.113 80.2377 501.113 81.5415C501.113 82.8454 502.176 83.9024 503.486 83.9024Z" fill="#3E3E3E"/>
<path d="M510.621 137.552C511.493 137.552 512.201 136.848 512.201 135.98C512.201 135.112 511.493 134.408 510.621 134.408C509.748 134.408 509.041 135.112 509.041 135.98C509.041 136.848 509.748 137.552 510.621 137.552Z" fill="#707070"/>
<path d="M345.166 153.3C346.914 153.3 348.332 151.89 348.332 150.15C348.332 148.411 346.914 147 345.166 147C343.418 147 342 148.411 342 150.15C342 151.89 343.418 153.3 345.166 153.3Z" fill="#3E3E3E"/>
<path d="M367.116 269.72C368.098 269.72 368.894 268.924 368.894 267.942C368.894 266.96 368.098 266.164 367.116 266.164C366.134 266.164 365.338 266.96 365.338 267.942C365.338 268.924 366.134 269.72 367.116 269.72Z" fill="#707070"/>
<path d="M500.713 197.809C502.68 197.809 504.275 196.222 504.275 194.265C504.275 192.308 502.68 190.721 500.713 190.721C498.746 190.721 497.151 192.308 497.151 194.265C497.151 196.222 498.746 197.809 500.713 197.809Z" fill="#3DCB8C"/>
<path d="M401.599 308.75C403.785 308.75 405.558 306.986 405.558 304.811C405.558 302.636 403.785 300.872 401.599 300.872C399.413 300.872 397.641 302.636 397.641 304.811C397.641 306.986 399.413 308.75 401.599 308.75Z" fill="#3E3E3E"/>
<path d="M476.527 172.266C477.837 172.266 478.9 171.209 478.9 169.905C478.9 168.601 477.837 167.544 476.527 167.544C475.217 167.544 474.154 168.601 474.154 169.905C474.154 171.209 475.217 172.266 476.527 172.266Z" fill="#3DCB8C"/>
<path d="M457.894 163.329C459.861 163.329 461.456 161.742 461.456 159.785C461.456 157.827 459.861 156.24 457.894 156.24C455.927 156.24 454.332 157.827 454.332 159.785C454.332 161.742 455.927 163.329 457.894 163.329Z" fill="#3DCB8C"/>
<path d="M466.961 240.123C467.834 240.123 468.541 239.42 468.541 238.551C468.541 237.683 467.834 236.979 466.961 236.979C466.089 236.979 465.381 237.683 465.381 238.551C465.381 239.42 466.089 240.123 466.961 240.123Z" fill="#3DCB8C"/>
<path d="M382.962 113.094C385.148 113.094 386.921 111.331 386.921 109.156C386.921 106.98 385.148 105.217 382.962 105.217C380.776 105.217 379.003 106.98 379.003 109.156C379.003 111.331 380.776 113.094 382.962 113.094Z" fill="#3E3E3E"/>
<path d="M450.379 190.354C452.346 190.354 453.941 188.767 453.941 186.81C453.941 184.852 452.346 183.266 450.379 183.266C448.412 183.266 446.817 184.852 446.817 186.81C446.817 188.767 448.412 190.354 450.379 190.354Z" fill="#3DCB8C"/>
<path d="M724.606 125.041C724.606 126.514 723.412 127.708 721.939 127.708C720.467 127.708 719.273 126.514 719.273 125.041C719.273 123.568 720.467 122.374 721.939 122.374C723.412 122.374 724.606 123.568 724.606 125.041ZM721.939 125.541H618.266V124.541H721.939V125.541Z" fill="url(#paint5_linear_109_9120)"/>
<path d="M415 193.221L477.738 164.704V230.293" fill="#161616"/>
<path d="M883.823 278H729.596C724.849 278 721 281.849 721 286.596V315.754C721 320.501 724.849 324.35 729.596 324.35H883.823C888.57 324.35 892.419 320.501 892.419 315.754V286.596C892.419 281.849 888.57 278 883.823 278Z" fill="#171717"/>
<path fill-rule="evenodd" clip-rule="evenodd" d="M864.257 307.011C864.161 303.572 862.872 300.705 860.279 298.472C858.329 296.793 856.04 295.898 853.47 295.808C850.304 295.698 847.544 296.732 845.251 298.928C842.959 301.122 841.852 303.847 841.769 307.02H838.009C837.96 305.888 838.111 304.79 838.36 303.71C839.092 300.537 840.69 297.867 843.136 295.718C848.238 291.236 855.505 290.888 860.885 294.231C866.342 297.624 868.164 303.336 867.989 307.012L864.257 307.011ZM849.685 303.753C850.57 302.864 851.642 302.395 852.903 302.363C853.91 302.337 854.832 302.605 855.654 303.177C856.979 304.1 857.611 305.41 857.701 307.011H861.42C861.593 304.876 860.399 301.675 857.544 299.88C854.327 297.855 850.332 298.151 847.46 300.655C845.549 302.322 844.6 304.456 844.553 307.023H848.327C848.392 305.751 848.798 304.645 849.685 303.753Z" fill="#27E489"/>
<path d="M883.823 278H729.596C724.849 278 721 281.849 721 286.596V315.754C721 320.501 724.849 324.35 729.596 324.35H883.823C888.57 324.35 892.419 320.501 892.419 315.754V286.596C892.419 281.849 888.57 278 883.823 278Z" stroke="url(#paint6_linear_109_9120)" stroke-width="1.19202"/>
<path d="M722.606 301.091C722.606 302.563 721.412 303.757 719.939 303.757C718.467 303.757 717.273 302.563 717.273 301.091C717.273 299.618 718.467 298.424 719.939 298.424C721.412 298.424 722.606 299.618 722.606 301.091ZM719.939 301.591H616.266V300.591H719.939V301.591Z" fill="url(#paint7_linear_109_9120)"/>
<path d="M883.823 189H729.596C724.849 189 721 192.849 721 197.596V226.754C721 231.501 724.849 235.35 729.596 235.35H883.823C888.57 235.35 892.419 231.501 892.419 226.754V197.596C892.419 192.849 888.57 189 883.823 189Z" fill="#171717"/>
<path d="M851.363 220.107L851.154 220.194C849.902 220.617 848.024 221.254 846.396 222.06C846.309 222.101 846.234 222.228 846.234 222.228C846.187 222.309 846.141 222.396 846.106 222.483C845.932 222.906 845.648 223.544 845.561 223.834L845.48 224.054C845.48 224.094 845.48 224.135 845.48 224.135L845.521 224.181H845.561L845.764 224.094C846.234 223.88 846.813 223.544 847.399 223.248H847.439C848.604 222.692 849.902 222.06 850.65 221.677C850.65 221.677 850.778 221.596 850.859 221.469L851.444 220.281C851.444 220.234 851.444 220.194 851.444 220.194C851.444 220.107 851.398 220.066 851.363 220.107Z" fill="#7592F9"/>
<path d="M846.509 218.285C846.591 218.117 846.962 217.398 847.054 217.23V217.19C849.593 212.344 852.688 207.788 856.224 203.609L856.311 203.488C856.357 203.441 856.357 203.401 856.311 203.36C856.27 203.32 856.224 203.273 856.189 203.32H856.021C853.679 203.656 851.303 204.079 848.967 204.67C848.718 204.751 848.59 204.879 848.55 204.919C846.793 207.029 845.165 209.261 843.617 211.544C843.669 211.666 843.669 211.921 843.669 211.921C843.669 211.921 844.04 214.871 844.585 217.062C843.252 221.067 842 226.382 842 226.382C842 226.423 842 226.469 842 226.469C842 226.51 842.041 226.51 842.075 226.51H842.869C842.916 226.51 842.956 226.469 843.003 226.429L843.038 226.255C843.826 224.064 844.753 221.873 845.75 219.763C846.005 219.294 846.509 218.285 846.509 218.285Z" fill="#7592F9"/>
<path d="M857.475 204.553V204.385C857.475 204.344 857.434 204.298 857.394 204.263C857.353 204.263 857.307 204.263 857.266 204.298L857.185 204.425C852.965 209.242 849.476 214.603 846.706 220.336L846.619 220.463C846.619 220.504 846.619 220.544 846.619 220.591C846.653 220.631 846.653 220.631 846.706 220.631H846.74L846.868 220.591C849.221 219.629 851.627 218.788 854.02 218.075C854.148 218.035 854.281 217.953 854.362 217.832C855.417 215.821 857.852 211.879 857.852 211.879C857.944 211.752 857.904 211.63 857.904 211.63C857.904 211.63 857.475 206.935 857.475 204.553Z" fill="#7592F9"/>
<path d="M862.877 197.799C862.292 197.295 861.399 197.045 860.066 197.005C858.901 196.958 857.469 197.254 855.835 197.758C855.586 197.845 855.417 197.967 855.203 198.135C853.534 199.688 851.946 201.369 850.433 203.05L850.305 203.172C850.265 203.218 850.265 203.253 850.305 203.299C850.346 203.34 850.392 203.38 850.433 203.34L850.601 203.299C853.076 202.755 855.539 202.378 857.974 202.123C858.136 202.123 858.31 202.163 858.431 202.244C858.565 202.378 858.6 202.505 858.6 202.668C858.565 205.102 858.646 207.536 858.849 209.884V210.052C858.849 210.092 858.901 210.139 858.936 210.139C858.936 210.139 858.936 210.139 858.982 210.139C859.023 210.139 859.057 210.139 859.057 210.092L859.144 209.971C860.53 208 861.99 206.11 863.584 204.308C863.752 204.093 863.799 203.966 863.839 203.798C864.338 200.732 863.584 198.39 862.877 197.799Z" fill="#7592F9"/>
<path d="M883.823 189H729.596C724.849 189 721 192.849 721 197.596V226.754C721 231.501 724.849 235.35 729.596 235.35H883.823C888.57 235.35 892.419 231.501 892.419 226.754V197.596C892.419 192.849 888.57 189 883.823 189Z" stroke="url(#paint8_linear_109_9120)" stroke-width="1.19202"/>
<path d="M722.606 212.091C722.606 213.563 721.412 214.757 719.939 214.757C718.467 214.757 717.273 213.563 717.273 212.091C717.273 210.618 718.467 209.424 719.939 209.424C721.412 209.424 722.606 210.618 722.606 212.091ZM719.939 212.591H616.266V211.591H719.939V212.591Z" fill="url(#paint9_linear_109_9120)"/>
<path d="M240 124.667C240 126.14 241.194 127.334 242.667 127.334C244.139 127.334 245.333 126.14 245.333 124.667C245.333 123.194 244.139 122 242.667 122C241.194 122 240 123.194 240 124.667ZM242.667 125.167H346.34V124.167H242.667V125.167Z" fill="url(#paint10_linear_109_9120)"/>
<path d="M242 300.717C242 302.189 243.194 303.383 244.667 303.383C246.139 303.383 247.333 302.189 247.333 300.717C247.333 299.244 246.139 298.05 244.667 298.05C243.194 298.05 242 299.244 242 300.717ZM244.667 301.217H348.34V300.217H244.667V301.217Z" fill="url(#paint11_linear_109_9120)"/>
<path d="M242 211.717C242 213.189 243.194 214.383 244.667 214.383C246.139 214.383 247.333 213.189 247.333 211.717C247.333 210.244 246.139 209.05 244.667 209.05C243.194 209.05 242 210.244 242 211.717ZM244.667 212.217H348.34V211.217H244.667V212.217Z" fill="url(#paint12_linear_109_9120)"/>
<path d="M561 178.929C561.018 198.677 554.236 217.828 541.794 233.169C529.361 248.508 512.019 259.097 492.696 263.16C473.368 267.221 453.235 264.51 435.671 255.481C418.109 246.449 404.194 231.646 396.255 213.567C388.314 195.482 386.84 175.217 392.089 156.177C397.324 137.138 408.962 120.481 425.034 109.007C441.107 97.5324 460.638 91.9384 480.341 93.1665C500.054 94.3941 518.746 102.367 533.269 115.748C542.005 123.794 548.98 133.561 553.748 144.437C558.526 155.309 560.992 167.054 561 178.929Z" fill="#141414"/>
<path d="M560.942 178.923C560.34 195.138 554.978 210.823 545.529 224.018C536.077 237.207 522.951 247.332 507.794 253.122C492.63 258.909 476.098 260.11 460.257 256.572C444.422 253.037 429.973 244.922 418.708 233.232C407.451 221.544 399.874 206.802 396.941 190.84C393.997 174.881 395.813 158.407 402.168 143.472C408.512 128.537 419.12 115.8 432.661 106.849C446.199 97.8969 462.071 93.125 478.297 93.1279C500.495 93.9582 521.507 103.361 536.92 119.36C552.332 135.358 560.942 156.707 560.942 178.923Z" fill="#141414"/>
<path d="M533.185 115.731L411.887 237.027C407.758 232.536 404.107 227.621 401.013 222.362L518.538 104.846C523.791 107.944 528.704 111.593 533.185 115.731Z" fill="#1D1D1D" fill-opacity="0.17"/>
<path d="M555.079 147.537L443.759 258.86C435.942 255.785 428.613 251.579 422.021 246.37L542.603 125.797C547.801 132.392 552.014 139.718 555.079 147.537Z" fill="#1D1D1D" fill-opacity="0.17"/>
<path d="M541.809 178.944C541.864 196.604 534.918 213.569 522.486 226.115C510.065 238.66 493.161 245.767 475.501 245.875C457.844 245.984 440.861 239.085 428.278 226.693C415.704 214.3 408.544 197.425 408.383 179.766V178.944C408.383 161.253 415.419 144.283 427.925 131.773C440.433 119.262 457.403 112.234 475.1 112.234H475.921C493.477 112.444 510.236 119.565 522.571 132.052C534.9 144.539 541.817 161.388 541.817 178.942L541.809 178.944Z" fill="#1B1B1B"/>
<path d="M522.354 131.75L428.022 226.094C415.68 213.796 408.665 197.146 408.483 179.726V178.908C408.483 161.214 415.516 144.247 428.022 131.737C440.533 119.227 457.501 112.197 475.189 112.196H476.01C493.422 112.401 510.057 119.421 522.354 131.75Z" fill="#1B1B1B"/>
<path d="M438.071 157.459C438.205 157.602 438.454 157.734 438.469 157.89C438.644 159.41 439.599 160.432 440.745 161.248C451.35 168.748 461.966 176.243 472.6 183.688C475.182 185.489 477.218 185.386 479.749 183.601C485.547 179.525 491.339 175.446 497.129 171.354C500.405 169.033 502.795 166.016 504.046 162.195C504.484 160.862 504.648 159.445 504.841 158.571C504.841 161.9 505.078 165.757 504.772 169.572C504.389 174.274 502.021 178.149 498.238 180.943C491.931 185.592 485.51 190.077 479.068 194.552C476.988 196.009 474.77 195.627 472.716 194.299C470.615 192.931 468.532 191.54 466.486 190.093C458.022 184.092 449.574 178.062 441.12 172.053C439.665 171.024 438.52 169.807 438.261 167.967C438.271 164.978 438.279 161.987 438.271 158.996C438.271 158.771 438.137 158.544 438.071 158.317C438.071 158.032 438.071 157.747 438.071 157.459Z" fill="#0D0D0D"/>
<path d="M438.071 180.976C438.205 181.063 438.443 181.142 438.454 181.245C438.636 182.94 439.782 183.964 441.041 184.883C445.904 188.418 450.74 191.987 455.651 195.448C461.087 199.279 466.602 203.012 472.096 206.774C475.24 208.929 476.985 208.939 480.122 206.743C485.7 202.848 491.234 198.904 496.804 195.002C500.12 192.679 502.631 189.727 503.94 185.881C504.429 184.453 504.619 182.929 505.144 181.446C505.002 185.585 505.126 189.756 504.637 193.856C504.122 198.252 501.696 201.837 498.143 204.448C491.891 209.042 485.518 213.483 479.155 217.931C476.919 219.489 474.646 219.024 472.526 217.612C469.754 215.766 466.993 213.91 464.279 211.986C456.454 206.436 448.665 200.853 440.859 195.279C439.465 194.284 438.472 193.033 438.253 191.28C438.261 188.252 438.271 185.221 438.271 182.193C438.271 182 438.137 181.81 438.071 181.617C438.071 181.401 438.071 181.189 438.071 180.976Z" fill="#0D0D0D"/>
<path d="M453.58 156.322C453.762 156.116 453.849 155.955 453.991 155.86C457.365 153.507 460.681 151.06 464.14 148.84C467.722 146.54 471.677 145.191 476.004 145.199C480.038 145.204 483.7 146.482 487.013 148.687C488.608 149.753 490.166 150.931 491.589 152.224C493.883 154.313 494.123 158.035 492.299 160.535C491.887 161.092 491.464 161.129 490.921 160.773C490.176 160.279 489.44 159.772 488.684 159.297C481.031 154.503 473.369 154.553 465.716 159.305C464.502 160.06 463.298 160.836 462.054 161.552C461.809 161.694 461.341 161.75 461.12 161.61C458.73 160.031 456.381 158.413 454.01 156.792C453.878 156.694 453.772 156.538 453.58 156.322Z" fill="#0D0D0D"/>
<path d="M455.278 152.384C455.46 152.178 455.545 152.017 455.688 151.922C459.062 149.57 462.377 147.122 465.836 144.902C469.419 142.603 473.376 141.254 477.703 141.262C481.734 141.267 485.394 142.545 488.712 144.749C490.304 145.816 491.864 146.993 493.287 148.287C495.582 150.375 495.819 154.095 493.992 156.598C493.583 157.157 493.163 157.194 492.619 156.835C491.872 156.342 491.138 155.835 490.383 155.359C482.73 150.565 475.066 150.615 467.412 155.367C466.2 156.122 464.996 156.899 463.753 157.614C463.505 157.757 463.037 157.812 462.818 157.672C460.429 156.096 458.077 154.472 455.709 152.854C455.574 152.759 455.468 152.601 455.278 152.384Z" fill="#343434"/>
<path d="M441.242 154.355C441.384 154.498 441.624 154.627 441.643 154.783C441.815 156.304 442.77 157.325 443.927 158.141C454.532 165.641 465.139 173.139 475.782 180.584C478.353 182.382 480.388 182.277 482.928 180.495C488.721 176.421 494.518 172.337 500.3 168.245C503.579 165.924 505.968 162.909 507.219 159.089C507.658 157.756 507.829 156.335 508.011 155.464C508.011 158.793 508.26 162.65 507.945 166.465C507.56 171.167 505.192 175.04 501.409 177.833C495.112 182.485 488.681 186.968 482.252 191.445C480.159 192.903 477.941 192.523 475.898 191.192C473.794 189.827 471.711 188.433 469.667 186.986C461.203 180.988 452.755 174.956 444.291 168.947C442.839 167.917 441.698 166.703 441.442 164.86C441.442 161.871 441.45 158.883 441.45 155.892C441.45 155.665 441.318 155.435 441.242 155.208C441.242 154.925 441.242 154.64 441.242 154.355Z" fill="#343434"/>
<path d="M441.242 177.908C441.376 177.998 441.614 178.074 441.624 178.177C441.815 179.872 442.952 180.894 444.212 181.813C449.077 185.35 453.911 188.92 458.822 192.383C464.268 196.212 469.783 199.945 475.267 203.709C478.411 205.861 480.159 205.872 483.3 203.675C488.874 199.781 494.405 195.837 499.975 191.935C503.299 189.611 505.815 186.66 507.111 182.816C507.602 181.385 507.8 179.862 508.315 178.378C508.175 182.518 508.299 186.689 507.821 190.789C507.293 195.185 504.878 198.77 501.322 201.381C495.065 205.974 488.691 210.415 482.326 214.864C480.103 216.421 477.828 215.957 475.697 214.544C472.925 212.699 470.164 210.843 467.45 208.918C459.635 203.369 451.836 197.785 444.03 192.212C442.636 191.217 441.643 189.965 441.424 188.212C441.434 185.184 441.453 182.156 441.442 179.125C441.442 178.932 441.318 178.74 441.242 178.549C441.242 178.333 441.242 178.122 441.242 177.908Z" fill="#343434"/>
<path d="M544.186 178.998C544.186 187.782 542.501 196.484 539.238 204.596C535.985 212.712 531.194 220.086 525.172 226.298C519.147 232.507 511.987 237.436 504.115 240.797C496.239 244.158 487.796 245.89 479.272 245.89C478.044 245.89 476.816 245.855 475.61 245.784C492.168 244.823 507.732 237.365 519.129 224.946C530.518 212.53 536.857 196.09 536.857 179.001C536.857 161.915 530.518 145.472 519.129 133.053C507.732 120.635 492.168 113.179 475.61 112.217C476.816 112.147 478.044 112.112 479.272 112.112C496.49 112.112 513.001 119.159 525.172 131.702C537.343 144.247 544.186 161.26 544.186 178.998Z" fill="#0E0E0E"/>
<mask id="mask0_109_9120" style="mask-type:luminance" maskUnits="userSpaceOnUse" x="102" y="111" width="18" height="26">
<path d="M119.908 111H102V137H119.908V111Z" fill="white"/>
</mask>
<g mask="url(#mask0_109_9120)">
<path d="M101.999 133.211V120.332L106.15 116.802V129.673L101.999 133.211Z" fill="#6166DC"/>
<path d="M101.999 133.211V120.332L106.15 116.802V129.673L101.999 133.211Z" fill="url(#paint13_linear_109_9120)" fill-opacity="0.2"/>
<path d="M119.99 127.605C118.636 128.755 117.271 129.912 115.859 131.113V118.247C117.217 117.089 118.616 115.927 119.99 114.756V127.605Z" fill="#6166DC"/>
<path d="M119.99 127.605C118.636 128.755 117.271 129.912 115.859 131.113V118.247C117.217 117.089 118.616 115.927 119.99 114.756V127.605Z" fill="url(#paint14_linear_109_9120)" fill-opacity="0.2"/>
<path d="M113.193 133.445C111.806 134.629 110.418 135.817 109.02 137.009V125.126H113.193V133.445Z" fill="#6166DC"/>
<path d="M113.193 133.445C111.806 134.629 110.418 135.817 109.02 137.009V125.126H113.193V133.445Z" fill="url(#paint15_linear_109_9120)" fill-opacity="0.2"/>
<path d="M108.985 122.825V114.493L113.158 110.9C113.165 114.608 113.169 122.778 113.169 122.778L108.985 122.825Z" fill="#6166DC"/>
<path d="M108.985 122.825V114.493L113.158 110.9C113.165 114.608 113.169 122.778 113.169 122.778L108.985 122.825Z" fill="url(#paint16_linear_109_9120)" fill-opacity="0.2"/>
</g>
<path d="M153.331 124.92H147.011V131H144.751V117.04H147.011V122.92H153.331V117.04H155.591V131H153.331V124.92ZM162.949 131.24C162.229 131.24 161.569 131.113 160.969 130.86C160.382 130.607 159.882 130.247 159.469 129.78C159.055 129.3 158.735 128.727 158.509 128.06C158.282 127.38 158.169 126.627 158.169 125.8C158.169 124.973 158.282 124.227 158.509 123.56C158.735 122.88 159.055 122.307 159.469 121.84C159.882 121.36 160.382 120.993 160.969 120.74C161.569 120.487 162.229 120.36 162.949 120.36C163.669 120.36 164.322 120.487 164.909 120.74C165.509 120.993 166.015 121.36 166.429 121.84C166.842 122.307 167.162 122.88 167.389 123.56C167.615 124.227 167.729 124.973 167.729 125.8C167.729 126.627 167.615 127.38 167.389 128.06C167.162 128.727 166.842 129.3 166.429 129.78C166.015 130.247 165.509 130.607 164.909 130.86C164.322 131.113 163.669 131.24 162.949 131.24ZM162.949 129.44C163.695 129.44 164.295 129.213 164.749 128.76C165.202 128.293 165.429 127.6 165.429 126.68V124.92C165.429 124 165.202 123.313 164.749 122.86C164.295 122.393 163.695 122.16 162.949 122.16C162.202 122.16 161.602 122.393 161.149 122.86C160.695 123.313 160.469 124 160.469 124.92V126.68C160.469 127.6 160.695 128.293 161.149 128.76C161.602 129.213 162.202 129.44 162.949 129.44ZM170.158 131V120.6H172.338V122.6H172.438C172.584 122.067 172.891 121.6 173.358 121.2C173.824 120.8 174.471 120.6 175.298 120.6H175.878V122.7H175.018C174.151 122.7 173.484 122.84 173.018 123.12C172.564 123.4 172.338 123.813 172.338 124.36V131H170.158ZM178.914 118.74C178.461 118.74 178.127 118.633 177.914 118.42C177.714 118.207 177.614 117.933 177.614 117.6V117.26C177.614 116.927 177.714 116.653 177.914 116.44C178.127 116.227 178.461 116.12 178.914 116.12C179.367 116.12 179.694 116.227 179.894 116.44C180.094 116.653 180.194 116.927 180.194 117.26V117.6C180.194 117.933 180.094 118.207 179.894 118.42C179.694 118.633 179.367 118.74 178.914 118.74ZM177.814 120.6H179.994V131H177.814V120.6ZM182.267 131V129.24L187.847 122.38H182.447V120.6H190.427V122.28L184.767 129.22H190.567V131H182.267ZM196.718 131.24C195.998 131.24 195.338 131.113 194.738 130.86C194.151 130.607 193.651 130.247 193.238 129.78C192.825 129.3 192.505 128.727 192.278 128.06C192.051 127.38 191.938 126.627 191.938 125.8C191.938 124.973 192.051 124.227 192.278 123.56C192.505 122.88 192.825 122.307 193.238 121.84C193.651 121.36 194.151 120.993 194.738 120.74C195.338 120.487 195.998 120.36 196.718 120.36C197.438 120.36 198.091 120.487 198.678 120.74C199.278 120.993 199.785 121.36 200.198 121.84C200.611 122.307 200.931 122.88 201.158 123.56C201.385 124.227 201.498 124.973 201.498 125.8C201.498 126.627 201.385 127.38 201.158 128.06C200.931 128.727 200.611 129.3 200.198 129.78C199.785 130.247 199.278 130.607 198.678 130.86C198.091 131.113 197.438 131.24 196.718 131.24ZM196.718 129.44C197.465 129.44 198.065 129.213 198.518 128.76C198.971 128.293 199.198 127.6 199.198 126.68V124.92C199.198 124 198.971 123.313 198.518 122.86C198.065 122.393 197.465 122.16 196.718 122.16C195.971 122.16 195.371 122.393 194.918 122.86C194.465 123.313 194.238 124 194.238 124.92V126.68C194.238 127.6 194.465 128.293 194.918 128.76C195.371 129.213 195.971 129.44 196.718 129.44ZM203.927 131V120.6H206.107V122.32H206.207C206.434 121.76 206.774 121.293 207.227 120.92C207.694 120.547 208.327 120.36 209.127 120.36C210.194 120.36 211.021 120.713 211.607 121.42C212.207 122.113 212.507 123.107 212.507 124.4V131H210.327V124.68C210.327 123.053 209.674 122.24 208.367 122.24C208.087 122.24 207.807 122.28 207.527 122.36C207.261 122.427 207.021 122.533 206.807 122.68C206.594 122.827 206.421 123.013 206.287 123.24C206.167 123.467 206.107 123.733 206.107 124.04V131H203.927Z" fill="white"/>
<path d="M151.499 220.46H149.519C148.732 220.46 148.152 220.26 147.779 219.86C147.419 219.46 147.239 218.92 147.239 218.24V217.18C146.452 217.087 145.746 216.86 145.119 216.5C144.492 216.14 143.959 215.66 143.519 215.06C143.079 214.46 142.739 213.74 142.499 212.9C142.259 212.047 142.139 211.087 142.139 210.02C142.139 208.847 142.279 207.813 142.559 206.92C142.852 206.013 143.259 205.26 143.779 204.66C144.312 204.047 144.946 203.587 145.679 203.28C146.426 202.96 147.252 202.8 148.159 202.8C149.066 202.8 149.886 202.96 150.619 203.28C151.366 203.587 151.999 204.047 152.519 204.66C153.052 205.26 153.459 206.013 153.739 206.92C154.032 207.813 154.179 208.847 154.179 210.02C154.179 212.1 153.746 213.747 152.879 214.96C152.012 216.16 150.839 216.887 149.359 217.14V218.58H151.499V220.46ZM148.159 215.22C148.692 215.22 149.179 215.127 149.619 214.94C150.072 214.753 150.452 214.487 150.759 214.14C151.079 213.78 151.326 213.347 151.499 212.84C151.672 212.333 151.759 211.76 151.759 211.12V208.92C151.759 208.28 151.672 207.707 151.499 207.2C151.326 206.693 151.079 206.267 150.759 205.92C150.452 205.56 150.072 205.287 149.619 205.1C149.179 204.913 148.692 204.82 148.159 204.82C147.612 204.82 147.119 204.913 146.679 205.1C146.239 205.287 145.859 205.56 145.539 205.92C145.232 206.267 144.992 206.693 144.819 207.2C144.646 207.707 144.559 208.28 144.559 208.92V211.12C144.559 211.76 144.646 212.333 144.819 212.84C144.992 213.347 145.232 213.78 145.539 214.14C145.859 214.487 146.239 214.753 146.679 214.94C147.119 215.127 147.612 215.22 148.159 215.22ZM160.917 217.24C160.197 217.24 159.537 217.113 158.937 216.86C158.351 216.607 157.851 216.247 157.437 215.78C157.024 215.3 156.704 214.727 156.477 214.06C156.251 213.38 156.137 212.627 156.137 211.8C156.137 210.973 156.251 210.227 156.477 209.56C156.704 208.88 157.024 208.307 157.437 207.84C157.851 207.36 158.351 206.993 158.937 206.74C159.537 206.487 160.197 206.36 160.917 206.36C161.637 206.36 162.291 206.487 162.877 206.74C163.477 206.993 163.984 207.36 164.397 207.84C164.811 208.307 165.131 208.88 165.357 209.56C165.584 210.227 165.697 210.973 165.697 211.8C165.697 212.627 165.584 213.38 165.357 214.06C165.131 214.727 164.811 215.3 164.397 215.78C163.984 216.247 163.477 216.607 162.877 216.86C162.291 217.113 161.637 217.24 160.917 217.24ZM160.917 215.44C161.664 215.44 162.264 215.213 162.717 214.76C163.171 214.293 163.397 213.6 163.397 212.68V210.92C163.397 210 163.171 209.313 162.717 208.86C162.264 208.393 161.664 208.16 160.917 208.16C160.171 208.16 159.571 208.393 159.117 208.86C158.664 209.313 158.437 210 158.437 210.92V212.68C158.437 213.6 158.664 214.293 159.117 214.76C159.571 215.213 160.171 215.44 160.917 215.44ZM166.95 206.6H169.07L170.13 210.96L171.07 214.9H171.13L172.21 210.96L173.47 206.6H175.43L176.71 210.96L177.81 214.9H177.87L178.79 210.96L179.87 206.6H181.89L179.09 217H176.63L175.27 212.26L174.43 209.34H174.39L173.57 212.26L172.19 217H169.79L166.95 206.6ZM191.371 217C190.798 217 190.358 216.84 190.051 216.52C189.745 216.187 189.558 215.767 189.491 215.26H189.391C189.191 215.913 188.825 216.407 188.291 216.74C187.758 217.073 187.111 217.24 186.351 217.24C185.271 217.24 184.438 216.96 183.851 216.4C183.278 215.84 182.991 215.087 182.991 214.14C182.991 213.1 183.365 212.32 184.111 211.8C184.871 211.28 185.978 211.02 187.431 211.02H189.311V210.14C189.311 209.5 189.138 209.007 188.791 208.66C188.445 208.313 187.905 208.14 187.171 208.14C186.558 208.14 186.058 208.273 185.671 208.54C185.285 208.807 184.958 209.147 184.691 209.56L183.391 208.38C183.738 207.793 184.225 207.313 184.851 206.94C185.478 206.553 186.298 206.36 187.311 206.36C188.658 206.36 189.691 206.673 190.411 207.3C191.131 207.927 191.491 208.827 191.491 210V215.22H192.591V217H191.371ZM186.971 215.58C187.651 215.58 188.211 215.433 188.651 215.14C189.091 214.833 189.311 214.427 189.311 213.92V212.42H187.471C185.965 212.42 185.211 212.887 185.211 213.82V214.18C185.211 214.647 185.365 215 185.671 215.24C185.991 215.467 186.425 215.58 186.971 215.58ZM196.948 217C196.201 217 195.641 216.813 195.268 216.44C194.908 216.053 194.728 215.52 194.728 214.84V202.2H196.908V215.22H198.348V217H196.948ZM203.213 217C202.453 217 201.88 216.807 201.493 216.42C201.107 216.02 200.913 215.46 200.913 214.74V208.38H199.293V206.6H200.173C200.533 206.6 200.78 206.52 200.913 206.36C201.06 206.2 201.133 205.94 201.133 205.58V203.76H203.093V206.6H205.273V208.38H203.093V215.22H205.113V217H203.213ZM210.938 217.24C209.951 217.24 209.125 217.067 208.458 216.72C207.791 216.373 207.211 215.893 206.718 215.28L208.118 214C208.505 214.467 208.931 214.833 209.398 215.1C209.878 215.353 210.431 215.48 211.058 215.48C211.698 215.48 212.171 215.36 212.478 215.12C212.798 214.867 212.958 214.52 212.958 214.08C212.958 213.747 212.845 213.467 212.618 213.24C212.405 213 212.025 212.847 211.478 212.78L210.518 212.66C209.451 212.527 208.611 212.22 207.998 211.74C207.398 211.247 207.098 210.52 207.098 209.56C207.098 209.053 207.191 208.607 207.378 208.22C207.565 207.82 207.825 207.487 208.158 207.22C208.505 206.94 208.911 206.727 209.378 206.58C209.858 206.433 210.385 206.36 210.958 206.36C211.891 206.36 212.651 206.507 213.238 206.8C213.838 207.093 214.371 207.5 214.838 208.02L213.498 209.3C213.231 208.98 212.878 208.707 212.438 208.48C212.011 208.24 211.518 208.12 210.958 208.12C210.358 208.12 209.911 208.24 209.618 208.48C209.338 208.72 209.198 209.033 209.198 209.42C209.198 209.82 209.325 210.12 209.578 210.32C209.831 210.52 210.238 210.667 210.798 210.76L211.758 210.88C212.905 211.053 213.738 211.393 214.258 211.9C214.791 212.393 215.058 213.06 215.058 213.9C215.058 214.407 214.958 214.867 214.758 215.28C214.571 215.68 214.298 216.027 213.938 216.32C213.578 216.613 213.145 216.84 212.638 217C212.131 217.16 211.565 217.24 210.938 217.24Z" fill="white"/>
<path d="M153.302 308V294.04H162.242V296.04H155.562V299.92H161.622V301.92H155.562V306H162.242V308H153.302ZM170.398 308.24C168.571 308.24 167.138 307.627 166.098 306.4C165.058 305.16 164.538 303.367 164.538 301.02C164.538 299.847 164.671 298.813 164.938 297.92C165.204 297.027 165.591 296.273 166.098 295.66C166.604 295.047 167.218 294.587 167.938 294.28C168.671 293.96 169.491 293.8 170.398 293.8C171.611 293.8 172.624 294.067 173.438 294.6C174.264 295.133 174.911 295.92 175.378 296.96L173.478 298C173.238 297.333 172.864 296.807 172.358 296.42C171.864 296.02 171.211 295.82 170.398 295.82C169.318 295.82 168.471 296.187 167.858 296.92C167.244 297.653 166.938 298.667 166.938 299.96V302.08C166.938 303.373 167.244 304.387 167.858 305.12C168.471 305.853 169.318 306.22 170.398 306.22C171.238 306.22 171.918 306.007 172.438 305.58C172.971 305.14 173.364 304.58 173.618 303.9L175.438 305C174.971 306.013 174.318 306.807 173.478 307.38C172.638 307.953 171.611 308.24 170.398 308.24ZM182.819 308.24C180.993 308.24 179.559 307.627 178.519 306.4C177.479 305.16 176.959 303.367 176.959 301.02C176.959 299.847 177.093 298.813 177.359 297.92C177.626 297.027 178.013 296.273 178.519 295.66C179.026 295.047 179.639 294.587 180.359 294.28C181.093 293.96 181.913 293.8 182.819 293.8C184.033 293.8 185.046 294.067 185.859 294.6C186.686 295.133 187.333 295.92 187.799 296.96L185.899 298C185.659 297.333 185.286 296.807 184.779 296.42C184.286 296.02 183.633 295.82 182.819 295.82C181.739 295.82 180.893 296.187 180.279 296.92C179.666 297.653 179.359 298.667 179.359 299.96V302.08C179.359 303.373 179.666 304.387 180.279 305.12C180.893 305.853 181.739 306.22 182.819 306.22C183.659 306.22 184.339 306.007 184.859 305.58C185.393 305.14 185.786 304.58 186.039 303.9L187.859 305C187.393 306.013 186.739 306.807 185.899 307.38C185.059 307.953 184.033 308.24 182.819 308.24ZM193.395 308.24C192.408 308.24 191.582 308.067 190.915 307.72C190.248 307.373 189.668 306.893 189.175 306.28L190.575 305C190.962 305.467 191.388 305.833 191.855 306.1C192.335 306.353 192.888 306.48 193.515 306.48C194.155 306.48 194.628 306.36 194.935 306.12C195.255 305.867 195.415 305.52 195.415 305.08C195.415 304.747 195.302 304.467 195.075 304.24C194.862 304 194.482 303.847 193.935 303.78L192.975 303.66C191.908 303.527 191.068 303.22 190.455 302.74C189.855 302.247 189.555 301.52 189.555 300.56C189.555 300.053 189.648 299.607 189.835 299.22C190.022 298.82 190.282 298.487 190.615 298.22C190.962 297.94 191.368 297.727 191.835 297.58C192.315 297.433 192.842 297.36 193.415 297.36C194.348 297.36 195.108 297.507 195.695 297.8C196.295 298.093 196.828 298.5 197.295 299.02L195.955 300.3C195.688 299.98 195.335 299.707 194.895 299.48C194.468 299.24 193.975 299.12 193.415 299.12C192.815 299.12 192.368 299.24 192.075 299.48C191.795 299.72 191.655 300.033 191.655 300.42C191.655 300.82 191.782 301.12 192.035 301.32C192.288 301.52 192.695 301.667 193.255 301.76L194.215 301.88C195.362 302.053 196.195 302.393 196.715 302.9C197.248 303.393 197.515 304.06 197.515 304.9C197.515 305.407 197.415 305.867 197.215 306.28C197.028 306.68 196.755 307.027 196.395 307.32C196.035 307.613 195.602 307.84 195.095 308C194.588 308.16 194.022 308.24 193.395 308.24Z" fill="white"/>
<path d="M752.208 118.04H757.148C758.042 118.04 758.848 118.187 759.568 118.48C760.302 118.773 760.922 119.213 761.428 119.8C761.948 120.373 762.348 121.1 762.628 121.98C762.908 122.847 763.048 123.86 763.048 125.02C763.048 126.18 762.908 127.2 762.628 128.08C762.348 128.947 761.948 129.673 761.428 130.26C760.922 130.833 760.302 131.267 759.568 131.56C758.848 131.853 758.042 132 757.148 132H752.208V118.04ZM757.148 130C758.188 130 759.028 129.673 759.668 129.02C760.308 128.367 760.628 127.407 760.628 126.14V123.9C760.628 122.633 760.308 121.673 759.668 121.02C759.028 120.367 758.188 120.04 757.148 120.04H754.468V130H757.148ZM766.801 119.74C766.347 119.74 766.014 119.633 765.801 119.42C765.601 119.207 765.501 118.933 765.501 118.6V118.26C765.501 117.927 765.601 117.653 765.801 117.44C766.014 117.227 766.347 117.12 766.801 117.12C767.254 117.12 767.581 117.227 767.781 117.44C767.981 117.653 768.081 117.927 768.081 118.26V118.6C768.081 118.933 767.981 119.207 767.781 119.42C767.581 119.633 767.254 119.74 766.801 119.74ZM765.701 121.6H767.881V132H765.701V121.6ZM770.994 121.6H773.174V133.4C773.174 134.2 772.967 134.833 772.554 135.3C772.154 135.767 771.514 136 770.634 136H769.374V134.22H770.994V121.6ZM772.094 119.74C771.64 119.74 771.307 119.633 771.094 119.42C770.894 119.207 770.794 118.933 770.794 118.6V118.26C770.794 117.927 770.894 117.653 771.094 117.44C771.307 117.227 771.64 117.12 772.094 117.12C772.547 117.12 772.874 117.227 773.074 117.44C773.274 117.653 773.374 117.927 773.374 118.26V118.6C773.374 118.933 773.274 119.207 773.074 119.42C772.874 119.633 772.547 119.74 772.094 119.74ZM780.367 132.24C779.62 132.24 778.953 132.113 778.367 131.86C777.78 131.607 777.28 131.247 776.867 130.78C776.453 130.3 776.133 129.727 775.907 129.06C775.693 128.38 775.587 127.627 775.587 126.8C775.587 125.973 775.693 125.227 775.907 124.56C776.133 123.88 776.453 123.307 776.867 122.84C777.28 122.36 777.78 121.993 778.367 121.74C778.953 121.487 779.62 121.36 780.367 121.36C781.127 121.36 781.793 121.493 782.367 121.76C782.953 122.027 783.44 122.4 783.827 122.88C784.213 123.347 784.5 123.893 784.687 124.52C784.887 125.147 784.987 125.82 784.987 126.54V127.36H777.847V127.7C777.847 128.5 778.08 129.16 778.547 129.68C779.027 130.187 779.707 130.44 780.587 130.44C781.227 130.44 781.767 130.3 782.207 130.02C782.647 129.74 783.02 129.36 783.327 128.88L784.607 130.14C784.22 130.78 783.66 131.293 782.927 131.68C782.193 132.053 781.34 132.24 780.367 132.24ZM780.367 123.06C779.993 123.06 779.647 123.127 779.327 123.26C779.02 123.393 778.753 123.58 778.527 123.82C778.313 124.06 778.147 124.347 778.027 124.68C777.907 125.013 777.847 125.38 777.847 125.78V125.92H782.687V125.72C782.687 124.92 782.48 124.28 782.067 123.8C781.653 123.307 781.087 123.06 780.367 123.06ZM790.28 132C789.52 132 788.947 131.807 788.56 131.42C788.173 131.02 787.98 130.46 787.98 129.74V123.38H786.36V121.6H787.24C787.6 121.6 787.847 121.52 787.98 121.36C788.127 121.2 788.2 120.94 788.2 120.58V118.76H790.16V121.6H792.34V123.38H790.16V130.22H792.18V132H790.28ZM798.706 132.24C797.96 132.24 797.293 132.113 796.706 131.86C796.12 131.607 795.62 131.247 795.206 130.78C794.793 130.3 794.473 129.727 794.246 129.06C794.033 128.38 793.926 127.627 793.926 126.8C793.926 125.973 794.033 125.227 794.246 124.56C794.473 123.88 794.793 123.307 795.206 122.84C795.62 122.36 796.12 121.993 796.706 121.74C797.293 121.487 797.96 121.36 798.706 121.36C799.466 121.36 800.133 121.493 800.706 121.76C801.293 122.027 801.78 122.4 802.166 122.88C802.553 123.347 802.84 123.893 803.026 124.52C803.226 125.147 803.326 125.82 803.326 126.54V127.36H796.186V127.7C796.186 128.5 796.42 129.16 796.886 129.68C797.366 130.187 798.046 130.44 798.926 130.44C799.566 130.44 800.106 130.3 800.546 130.02C800.986 129.74 801.36 129.36 801.666 128.88L802.946 130.14C802.56 130.78 802 131.293 801.266 131.68C800.533 132.053 799.68 132.24 798.706 132.24ZM798.706 123.06C798.333 123.06 797.986 123.127 797.666 123.26C797.36 123.393 797.093 123.58 796.866 123.82C796.653 124.06 796.486 124.347 796.366 124.68C796.246 125.013 796.186 125.38 796.186 125.78V125.92H801.026V125.72C801.026 124.92 800.82 124.28 800.406 123.8C799.993 123.307 799.426 123.06 798.706 123.06ZM804.306 132L807.966 126.74L804.406 121.6H806.926L809.266 125.22H809.326L811.726 121.6H814.046L810.486 126.72L814.106 132H811.586L809.186 128.22H809.126L806.626 132H804.306Z" fill="white"/>
<path d="M764.312 220.24C762.485 220.24 761.052 219.627 760.012 218.4C758.972 217.16 758.452 215.367 758.452 213.02C758.452 211.847 758.585 210.813 758.852 209.92C759.118 209.027 759.505 208.273 760.012 207.66C760.518 207.047 761.132 206.587 761.852 206.28C762.585 205.96 763.405 205.8 764.312 205.8C765.525 205.8 766.538 206.067 767.352 206.6C768.178 207.133 768.825 207.92 769.292 208.96L767.392 210C767.152 209.333 766.778 208.807 766.272 208.42C765.778 208.02 765.125 207.82 764.312 207.82C763.232 207.82 762.385 208.187 761.772 208.92C761.158 209.653 760.852 210.667 760.852 211.96V214.08C760.852 215.373 761.158 216.387 761.772 217.12C762.385 217.853 763.232 218.22 764.312 218.22C765.152 218.22 765.832 218.007 766.352 217.58C766.885 217.14 767.278 216.58 767.532 215.9L769.352 217C768.885 218.013 768.232 218.807 767.392 219.38C766.552 219.953 765.525 220.24 764.312 220.24ZM771.587 220V209.6H773.767V211.6H773.867C774.014 211.067 774.321 210.6 774.787 210.2C775.254 209.8 775.901 209.6 776.727 209.6H777.307V211.7H776.447C775.581 211.7 774.914 211.84 774.447 212.12C773.994 212.4 773.767 212.813 773.767 213.36V220H771.587ZM783.226 220.24C782.479 220.24 781.813 220.113 781.226 219.86C780.639 219.607 780.139 219.247 779.726 218.78C779.313 218.3 778.993 217.727 778.766 217.06C778.553 216.38 778.446 215.627 778.446 214.8C778.446 213.973 778.553 213.227 778.766 212.56C778.993 211.88 779.313 211.307 779.726 210.84C780.139 210.36 780.639 209.993 781.226 209.74C781.813 209.487 782.479 209.36 783.226 209.36C783.986 209.36 784.653 209.493 785.226 209.76C785.813 210.027 786.299 210.4 786.686 210.88C787.073 211.347 787.359 211.893 787.546 212.52C787.746 213.147 787.846 213.82 787.846 214.54V215.36H780.706V215.7C780.706 216.5 780.939 217.16 781.406 217.68C781.886 218.187 782.566 218.44 783.446 218.44C784.086 218.44 784.626 218.3 785.066 218.02C785.506 217.74 785.879 217.36 786.186 216.88L787.466 218.14C787.079 218.78 786.519 219.293 785.786 219.68C785.053 220.053 784.199 220.24 783.226 220.24ZM783.226 211.06C782.853 211.06 782.506 211.127 782.186 211.26C781.879 211.393 781.613 211.58 781.386 211.82C781.173 212.06 781.006 212.347 780.886 212.68C780.766 213.013 780.706 213.38 780.706 213.78V213.92H785.546V213.72C785.546 212.92 785.339 212.28 784.926 211.8C784.513 211.307 783.946 211.06 783.226 211.06ZM794.339 220.24C793.593 220.24 792.926 220.113 792.339 219.86C791.753 219.607 791.253 219.247 790.839 218.78C790.426 218.3 790.106 217.727 789.879 217.06C789.666 216.38 789.559 215.627 789.559 214.8C789.559 213.973 789.666 213.227 789.879 212.56C790.106 211.88 790.426 211.307 790.839 210.84C791.253 210.36 791.753 209.993 792.339 209.74C792.926 209.487 793.593 209.36 794.339 209.36C795.099 209.36 795.766 209.493 796.339 209.76C796.926 210.027 797.413 210.4 797.799 210.88C798.186 211.347 798.473 211.893 798.659 212.52C798.859 213.147 798.959 213.82 798.959 214.54V215.36H791.819V215.7C791.819 216.5 792.053 217.16 792.519 217.68C792.999 218.187 793.679 218.44 794.559 218.44C795.199 218.44 795.739 218.3 796.179 218.02C796.619 217.74 796.993 217.36 797.299 216.88L798.579 218.14C798.193 218.78 797.633 219.293 796.899 219.68C796.166 220.053 795.313 220.24 794.339 220.24ZM794.339 211.06C793.966 211.06 793.619 211.127 793.299 211.26C792.993 211.393 792.726 211.58 792.499 211.82C792.286 212.06 792.119 212.347 791.999 212.68C791.879 213.013 791.819 213.38 791.819 213.78V213.92H796.659V213.72C796.659 212.92 796.453 212.28 796.039 211.8C795.626 211.307 795.059 211.06 794.339 211.06ZM807.913 218.28H807.813C807.586 218.893 807.213 219.373 806.693 219.72C806.186 220.067 805.586 220.24 804.893 220.24C803.573 220.24 802.553 219.767 801.833 218.82C801.113 217.86 800.753 216.52 800.753 214.8C800.753 213.08 801.113 211.747 801.833 210.8C802.553 209.84 803.573 209.36 804.893 209.36C805.586 209.36 806.186 209.533 806.693 209.88C807.213 210.213 807.586 210.693 807.813 211.32H807.913V205.2H810.092V220H807.913V218.28ZM805.553 218.36C806.219 218.36 806.779 218.2 807.233 217.88C807.686 217.547 807.913 217.113 807.913 216.58V213.02C807.913 212.487 807.686 212.06 807.233 211.74C806.779 211.407 806.219 211.24 805.553 211.24C804.793 211.24 804.186 211.487 803.733 211.98C803.279 212.46 803.053 213.1 803.053 213.9V215.7C803.053 216.5 803.279 217.147 803.733 217.64C804.186 218.12 804.793 218.36 805.553 218.36Z" fill="white"/>
<path d="M780.501 308L779.241 304.22H774.021L772.801 308H770.501L775.261 294.04H778.101L782.861 308H780.501ZM776.681 296.12H776.581L774.561 302.28H778.681L776.681 296.12ZM784.863 308V297.6H787.043V299.6H787.143C787.289 299.067 787.596 298.6 788.063 298.2C788.529 297.8 789.176 297.6 790.003 297.6H790.583V299.7H789.723C788.856 299.7 788.189 299.84 787.723 300.12C787.269 300.4 787.043 300.813 787.043 301.36V308H784.863ZM796.441 308.24C795.695 308.24 795.028 308.113 794.441 307.86C793.855 307.607 793.361 307.247 792.961 306.78C792.561 306.3 792.255 305.727 792.041 305.06C791.828 304.38 791.721 303.627 791.721 302.8C791.721 301.973 791.828 301.227 792.041 300.56C792.255 299.88 792.561 299.307 792.961 298.84C793.361 298.36 793.855 297.993 794.441 297.74C795.028 297.487 795.695 297.36 796.441 297.36C797.481 297.36 798.335 297.593 799.001 298.06C799.668 298.527 800.155 299.147 800.461 299.92L798.661 300.76C798.515 300.28 798.255 299.9 797.881 299.62C797.521 299.327 797.041 299.18 796.441 299.18C795.641 299.18 795.035 299.433 794.621 299.94C794.221 300.433 794.021 301.08 794.021 301.88V303.74C794.021 304.54 794.221 305.193 794.621 305.7C795.035 306.193 795.641 306.44 796.441 306.44C797.081 306.44 797.588 306.287 797.961 305.98C798.348 305.66 798.655 305.24 798.881 304.72L800.541 305.6C800.195 306.453 799.675 307.107 798.981 307.56C798.288 308.013 797.441 308.24 796.441 308.24ZM805.917 308.24C804.93 308.24 804.103 308.067 803.437 307.72C802.77 307.373 802.19 306.893 801.697 306.28L803.097 305C803.483 305.467 803.91 305.833 804.377 306.1C804.857 306.353 805.41 306.48 806.037 306.48C806.677 306.48 807.15 306.36 807.457 306.12C807.777 305.867 807.937 305.52 807.937 305.08C807.937 304.747 807.823 304.467 807.597 304.24C807.383 304 807.003 303.847 806.457 303.78L805.497 303.66C804.43 303.527 803.59 303.22 802.977 302.74C802.377 302.247 802.077 301.52 802.077 300.56C802.077 300.053 802.17 299.607 802.357 299.22C802.543 298.82 802.803 298.487 803.137 298.22C803.483 297.94 803.89 297.727 804.357 297.58C804.837 297.433 805.363 297.36 805.937 297.36C806.87 297.36 807.63 297.507 808.217 297.8C808.817 298.093 809.35 298.5 809.817 299.02L808.477 300.3C808.21 299.98 807.857 299.707 807.417 299.48C806.99 299.24 806.497 299.12 805.937 299.12C805.337 299.12 804.89 299.24 804.597 299.48C804.317 299.72 804.177 300.033 804.177 300.42C804.177 300.82 804.303 301.12 804.557 301.32C804.81 301.52 805.217 301.667 805.777 301.76L806.737 301.88C807.883 302.053 808.717 302.393 809.237 302.9C809.77 303.393 810.037 304.06 810.037 304.9C810.037 305.407 809.937 305.867 809.737 306.28C809.55 306.68 809.277 307.027 808.917 307.32C808.557 307.613 808.123 307.84 807.617 308C807.11 308.16 806.543 308.24 805.917 308.24Z" fill="white"/>
<path fill-rule="evenodd" clip-rule="evenodd" d="M122 211.001C122 217.629 116.627 223 110.001 223C103.373 223 98 217.629 98 211.001C98 204.373 103.373 199 110.001 199C116.627 199 122 204.373 122 211.001ZM106.565 205.282C106.273 205.282 105.981 205.281 105.689 205.281H103.081C102.992 205.281 102.948 205.327 102.946 205.419V210.625C102.946 210.714 102.992 210.76 103.081 210.76H105.058C105.142 210.758 105.176 210.781 105.171 210.868C105.164 210.972 105.161 211.075 105.159 211.178C105.158 211.229 105.157 211.281 105.155 211.333C105.122 212.142 104.711 212.737 104.072 213.189C103.763 213.409 103.398 213.491 103.033 213.562C102.969 213.575 102.946 213.596 102.946 213.662C102.948 214.306 102.948 214.947 102.946 215.588C102.946 215.665 102.971 215.688 103.043 215.677C103.114 215.669 103.186 215.662 103.257 215.654C103.363 215.643 103.469 215.632 103.574 215.619C104.417 215.506 105.232 215.292 105.983 214.88C106.892 214.385 107.554 213.662 107.96 212.704C108.307 211.887 108.435 211.023 108.437 210.14C108.44 209.236 108.44 208.334 108.44 207.431C108.439 206.754 108.439 206.077 108.44 205.399C108.44 205.302 108.409 205.279 108.317 205.281C107.733 205.283 107.149 205.283 106.565 205.282Z" fill="#E0F2ED"/>
<mask id="mask1_109_9120" style="mask-type:luminance" maskUnits="userSpaceOnUse" x="364" y="70" width="219" height="219">
<path d="M583 70H364V288.478H583V70Z" fill="white"/>
</mask>
<g mask="url(#mask1_109_9120)">
<mask id="mask2_109_9120" style="mask-type:luminance" maskUnits="userSpaceOnUse" x="364" y="70" width="219" height="219">
<path d="M583 70H364V288.478H583V70Z" fill="white"/>
</mask>
<g mask="url(#mask2_109_9120)">
<path d="M380.256 125.246C350.451 176.871 368.139 242.883 419.764 272.689C471.388 302.495 537.401 284.806 567.207 233.182C597.012 181.557 579.324 115.544 527.7 85.7387C476.075 55.933 410.062 73.621 380.256 125.246Z" stroke="url(#paint17_linear_109_9120)" stroke-width="0.5"/>
<path d="M384.189 127.818C355.608 177.322 372.569 240.624 422.074 269.206C471.579 297.787 534.881 280.826 563.463 231.321C592.045 181.816 575.083 118.514 525.578 89.9325C476.073 61.3508 412.771 78.3124 384.189 127.818Z" stroke="url(#paint18_linear_109_9120)" stroke-width="0.5"/>
<path d="M387.484 129.417C359.982 177.051 376.303 237.961 423.938 265.463C471.572 292.965 532.482 276.644 559.984 229.01C587.486 181.375 571.165 120.465 523.531 92.9633C475.896 65.4615 414.986 81.7823 387.484 129.417Z" stroke="url(#paint19_linear_109_9120)" stroke-width="0.5"/>
<path d="M390.966 131.729C364.544 177.493 380.224 236.011 425.988 262.433C471.752 288.855 530.271 273.175 556.692 227.411C583.114 181.647 567.434 123.129 521.67 96.707C475.907 70.2852 417.388 85.965 390.966 131.729Z" stroke="url(#paint20_linear_109_9120)" stroke-width="0.5"/>
<path fill-rule="evenodd" clip-rule="evenodd" d="M565.764 178.952C565.764 229.482 524.895 270.723 473.993 270.723C423.092 270.723 382.222 229.854 382.222 178.952C382.222 128.051 423.092 87.1807 473.993 87.1807C524.895 87.1807 565.764 128.051 565.764 178.952Z" fill="black" fill-opacity="0.1" stroke="url(#paint21_linear_109_9120)" stroke-width="0.5"/>
</g>
</g>
<defs>
<linearGradient id="paint0_linear_109_9120" x1="482.231" y1="199.08" x2="482.231" y2="343.758" gradientUnits="userSpaceOnUse">
<stop/>
<stop offset="1" stop-color="#161616" stop-opacity="0"/>
</linearGradient>
<linearGradient id="paint1_linear_109_9120" x1="805.851" y1="100.408" x2="805.851" y2="148.774" gradientUnits="userSpaceOnUse">
<stop stop-color="#282828"/>
<stop offset="1" stop-color="#212121" stop-opacity="0.49"/>
</linearGradient>
<linearGradient id="paint2_linear_109_9120" x1="158.508" y1="100.596" x2="158.508" y2="148.962" gradientUnits="userSpaceOnUse">
<stop stop-color="#282828"/>
<stop offset="1" stop-color="#212121" stop-opacity="0.49"/>
</linearGradient>
<linearGradient id="paint3_linear_109_9120" x1="159.508" y1="187.596" x2="159.508" y2="235.962" gradientUnits="userSpaceOnUse">
<stop stop-color="#282828"/>
<stop offset="1" stop-color="#212121" stop-opacity="0.49"/>
</linearGradient>
<linearGradient id="paint4_linear_109_9120" x1="159.508" y1="276.596" x2="159.508" y2="324.962" gradientUnits="userSpaceOnUse">
<stop stop-color="#282828"/>
<stop offset="1" stop-color="#212121" stop-opacity="0.49"/>
</linearGradient>
<linearGradient id="paint5_linear_109_9120" x1="670.103" y1="125.041" x2="640.793" y2="125.041" gradientUnits="userSpaceOnUse">
<stop stop-color="#282828"/>
<stop offset="1" stop-color="#282828" stop-opacity="0"/>
</linearGradient>
<linearGradient id="paint6_linear_109_9120" x1="806.709" y1="278.596" x2="806.709" y2="323.754" gradientUnits="userSpaceOnUse">
<stop stop-color="#282828"/>
<stop offset="1" stop-color="#212121" stop-opacity="0.49"/>
</linearGradient>
<linearGradient id="paint7_linear_109_9120" x1="668.103" y1="301.091" x2="638.793" y2="301.091" gradientUnits="userSpaceOnUse">
<stop stop-color="#282828"/>
<stop offset="1" stop-color="#282828" stop-opacity="0"/>
</linearGradient>
<linearGradient id="paint8_linear_109_9120" x1="806.709" y1="189.596" x2="806.709" y2="234.754" gradientUnits="userSpaceOnUse">
<stop stop-color="#282828"/>
<stop offset="1" stop-color="#212121" stop-opacity="0.49"/>
</linearGradient>
<linearGradient id="paint9_linear_109_9120" x1="668.103" y1="212.091" x2="638.793" y2="212.091" gradientUnits="userSpaceOnUse">
<stop stop-color="#282828"/>
<stop offset="1" stop-color="#282828" stop-opacity="0"/>
</linearGradient>
<linearGradient id="paint10_linear_109_9120" x1="294.503" y1="124.667" x2="323.813" y2="124.667" gradientUnits="userSpaceOnUse">
<stop stop-color="#282828"/>
<stop offset="1" stop-color="#282828" stop-opacity="0"/>
</linearGradient>
<linearGradient id="paint11_linear_109_9120" x1="296.503" y1="300.717" x2="325.813" y2="300.717" gradientUnits="userSpaceOnUse">
<stop stop-color="#282828"/>
<stop offset="1" stop-color="#282828" stop-opacity="0"/>
</linearGradient>
<linearGradient id="paint12_linear_109_9120" x1="296.503" y1="211.717" x2="325.813" y2="211.717" gradientUnits="userSpaceOnUse">
<stop stop-color="#282828"/>
<stop offset="1" stop-color="#282828" stop-opacity="0"/>
</linearGradient>
<linearGradient id="paint13_linear_109_9120" x1="106.81" y1="132.593" x2="103.2" y2="129.932" gradientUnits="userSpaceOnUse">
<stop stop-color="white"/>
<stop offset="1" stop-opacity="0"/>
</linearGradient>
<linearGradient id="paint14_linear_109_9120" x1="120.648" y1="130.496" x2="117.051" y2="127.852" gradientUnits="userSpaceOnUse">
<stop stop-color="white"/>
<stop offset="1" stop-opacity="0"/>
</linearGradient>
<linearGradient id="paint15_linear_109_9120" x1="112.835" y1="116.164" x2="120.526" y2="126.008" gradientUnits="userSpaceOnUse">
<stop stop-color="white"/>
<stop offset="1" stop-color="white" stop-opacity="0"/>
</linearGradient>
<linearGradient id="paint16_linear_109_9120" x1="113.836" y1="122.373" x2="111.091" y2="119.568" gradientUnits="userSpaceOnUse">
<stop stop-color="white"/>
<stop offset="1" stop-color="white" stop-opacity="0"/>
</linearGradient>
<linearGradient id="paint17_linear_109_9120" x1="567.433" y1="233.312" x2="380.031" y2="125.116" gradientUnits="userSpaceOnUse">
<stop stop-color="#222222" stop-opacity="0.65"/>
<stop offset="0.484921" stop-color="#1F1F1F"/>
<stop offset="1" stop-color="#131313" stop-opacity="0.5"/>
</linearGradient>
<linearGradient id="paint18_linear_109_9120" x1="563.688" y1="231.451" x2="383.964" y2="127.687" gradientUnits="userSpaceOnUse">
<stop stop-color="#292929" stop-opacity="0.53"/>
<stop offset="0.484921" stop-color="#1E1E1E" stop-opacity="0.72"/>
<stop offset="1" stop-color="#252424" stop-opacity="0.53"/>
</linearGradient>
<linearGradient id="paint19_linear_109_9120" x1="560.21" y1="229.14" x2="387.258" y2="129.286" gradientUnits="userSpaceOnUse">
<stop stop-color="#242424" stop-opacity="0.3"/>
<stop offset="0.484921" stop-color="#1B1B1B"/>
<stop offset="1" stop-color="#232323" stop-opacity="0.55"/>
</linearGradient>
<linearGradient id="paint20_linear_109_9120" x1="556.918" y1="227.541" x2="390.741" y2="131.598" gradientUnits="userSpaceOnUse">
<stop stop-color="#1F1F1F" stop-opacity="0.8"/>
<stop offset="0.484921" stop-color="#1A1A1A"/>
<stop offset="1" stop-color="#1F1F1F" stop-opacity="0.8"/>
</linearGradient>
<linearGradient id="paint21_linear_109_9120" x1="473.993" y1="87.1807" x2="473.993" y2="270.723" gradientUnits="userSpaceOnUse">
<stop stop-color="#1C1C1C"/>
<stop offset="0.489583" stop-color="#1B1B1B" stop-opacity="0.64"/>
<stop offset="1" stop-color="#1C1C1C"/>
</linearGradient>
</defs>
</svg>
