<svg width="748" height="421" viewBox="0 0 748 421" fill="none" xmlns="http://www.w3.org/2000/svg">
<path d="M0.457031 362.031L379.794 161.08L748.005 362.031H0.457031Z" fill="url(#paint0_linear_1891_586)"/>
<path d="M563.856 315.23V105.743L381.523 1M563.856 315.23L381.523 419.974L199.191 315.23M563.856 315.23L382.03 215.066M199.191 315.23L193 99.126M199.191 315.23L382.766 215.264M382.445 215.567V6.0949M425.838 240.79V37.3271M467.543 262.173V60.3892M514.566 288.077V88.269M337.737 239.786V37.327M297.589 261.648V60.4583M249.008 288.102V88.269M199.897 271.189L382.048 166.025M199.897 221.703L382.048 116.538M199.897 172.216L382.048 67.052M565 271.398L382.85 166.234M565 221.912L382.85 116.747M565 172.425L382.85 67.261" stroke="url(#paint1_radial_1891_586)" stroke-width="0.5"/>
<path d="M262.778 101.556C263.76 101.556 264.556 100.76 264.556 99.778C264.556 98.796 263.76 98 262.778 98C261.796 98 261 98.796 261 99.778C261 100.76 261.796 101.556 262.778 101.556Z" fill="#959595"/>
<path d="M523.778 117.556C524.76 117.556 525.556 116.76 525.556 115.778C525.556 114.796 524.76 114 523.778 114C522.796 114 522 114.796 522 115.778C522 116.76 522.796 117.556 523.778 117.556Z" fill="#959595"/>
<path d="M436.778 87.556C437.76 87.556 438.556 86.76 438.556 85.778C438.556 84.796 437.76 84 436.778 84C435.796 84 435 84.796 435 85.778C435 86.76 435.796 87.556 436.778 87.556Z" fill="#959595"/>
<path d="M491.896 161.091C492.988 161.091 493.872 160.211 493.872 159.125C493.872 158.039 492.988 157.158 491.896 157.158C490.805 157.158 489.92 158.039 489.92 159.125C489.92 160.211 490.805 161.091 491.896 161.091Z" fill="#8B8B8B"/>
<path d="M390.402 170.558C391.494 170.558 392.378 169.677 392.378 168.591C392.378 167.505 391.494 166.625 390.402 166.625C389.311 166.625 388.426 167.505 388.426 168.591C388.426 169.677 389.311 170.558 390.402 170.558Z" fill="#3DCB8C"/>
<path d="M309.517 167.391C311.266 167.391 312.683 165.981 312.683 164.242C312.683 162.502 311.266 161.092 309.517 161.092C307.769 161.092 306.352 162.502 306.352 164.242C306.352 165.981 307.769 167.391 309.517 167.391Z" fill="#959595"/>
<path d="M480.004 241.564C481.095 241.564 481.98 240.683 481.98 239.597C481.98 238.511 481.095 237.631 480.004 237.631C478.912 237.631 478.027 238.511 478.027 239.597C478.027 240.683 478.912 241.564 480.004 241.564Z" fill="#8B8B8B"/>
<path d="M490.112 222.254C491.094 222.254 491.89 221.457 491.89 220.475C491.89 219.493 491.094 218.697 490.112 218.697C489.13 218.697 488.334 219.493 488.334 220.475C488.334 221.457 489.13 222.254 490.112 222.254Z" fill="#959595"/>
<path d="M283.754 180.026C285.064 180.026 286.126 178.969 286.126 177.666C286.126 176.362 285.064 175.305 283.754 175.305C282.443 175.305 281.381 176.362 281.381 177.666C281.381 178.969 282.443 180.026 283.754 180.026Z" fill="#8B8B8B"/>
<path d="M291.882 150.459C292.864 150.459 293.66 149.663 293.66 148.68C293.66 147.698 292.864 146.902 291.882 146.902C290.9 146.902 290.104 147.698 290.104 148.68C290.104 149.663 290.9 150.459 291.882 150.459Z" fill="#8B8B8B"/>
<path d="M442.334 262.866C444.082 262.866 445.499 261.456 445.499 259.716C445.499 257.977 444.082 256.566 442.334 256.566C440.585 256.566 439.168 257.977 439.168 259.716C439.168 261.456 440.585 262.866 442.334 262.866Z" fill="#3DCB8C"/>
<path d="M303.166 114.3C304.914 114.3 306.331 112.89 306.331 111.15C306.331 109.411 304.914 108 303.166 108C301.417 108 300 109.411 300 111.15C300 112.89 301.417 114.3 303.166 114.3Z" fill="#3DCB8C"/>
<path d="M326.77 180.439C327.752 180.439 328.548 179.643 328.548 178.661C328.548 177.679 327.752 176.883 326.77 176.883C325.788 176.883 324.992 177.679 324.992 178.661C324.992 179.643 325.788 180.439 326.77 180.439Z" fill="#3DCB8C"/>
<path d="M410.621 99.5522C411.493 99.5522 412.201 98.8482 412.201 97.9802C412.201 97.1122 411.493 96.4082 410.621 96.4082C409.748 96.4082 409.041 97.1122 409.041 97.9802C409.041 98.8482 409.748 99.5522 410.621 99.5522Z" fill="#959595"/>
<path d="M255.209 189.493C256.957 189.493 258.374 188.083 258.374 186.343C258.374 184.604 256.957 183.193 255.209 183.193C253.46 183.193 252.043 184.604 252.043 186.343C252.043 188.083 253.46 189.493 255.209 189.493Z" fill="#8B8B8B"/>
<path d="M267.116 231.72C268.098 231.72 268.894 230.924 268.894 229.942C268.894 228.96 268.098 228.164 267.116 228.164C266.134 228.164 265.338 228.96 265.338 229.942C265.338 230.924 266.134 231.72 267.116 231.72Z" fill="#959595"/>
<path d="M400.713 159.809C402.68 159.809 404.275 158.222 404.275 156.265C404.275 154.308 402.68 152.721 400.713 152.721C398.745 152.721 397.15 154.308 397.15 156.265C397.15 158.222 398.745 159.809 400.713 159.809Z" fill="#3DCB8C"/>
<path d="M301.599 270.751C303.785 270.751 305.558 268.987 305.558 266.812C305.558 264.636 303.785 262.873 301.599 262.873C299.413 262.873 297.641 264.636 297.641 266.812C297.641 268.987 299.413 270.751 301.599 270.751Z" fill="#8B8B8B"/>
<path d="M376.527 134.267C377.837 134.267 378.9 133.21 378.9 131.906C378.9 130.602 377.837 129.545 376.527 129.545C375.217 129.545 374.154 130.602 374.154 131.906C374.154 133.21 375.217 134.267 376.527 134.267Z" fill="#3DCB8C"/>
<path d="M357.894 125.329C359.861 125.329 361.456 123.742 361.456 121.785C361.456 119.827 359.861 118.24 357.894 118.24C355.927 118.24 354.332 119.827 354.332 121.785C354.332 123.742 355.927 125.329 357.894 125.329Z" fill="#3DCB8C"/>
<path d="M366.961 202.122C367.833 202.122 368.54 201.419 368.54 200.55C368.54 199.682 367.833 198.979 366.961 198.979C366.088 198.979 365.381 199.682 365.381 200.55C365.381 201.419 366.088 202.122 366.961 202.122Z" fill="#3DCB8C"/>
<path d="M471.958 104.877C474.145 104.877 475.917 103.114 475.917 100.939C475.917 98.763 474.145 97 471.958 97C469.772 97 468 98.763 468 100.939C468 103.114 469.772 104.877 471.958 104.877Z" fill="#8B8B8B"/>
<path d="M350.379 152.354C352.346 152.354 353.941 150.767 353.941 148.81C353.941 146.852 352.346 145.266 350.379 145.266C348.411 145.266 346.816 146.852 346.816 148.81C346.816 150.767 348.411 152.354 350.379 152.354Z" fill="#3DCB8C"/>
<g filter="url(#filter0_d_1891_586)">
<path d="M475.996 177.422C476.013 198.431 468.797 218.808 455.561 235.128C442.334 251.449 423.882 262.713 403.325 267.037C382.76 271.359 361.34 268.473 342.653 258.866C323.968 249.259 309.167 233.51 300.717 214.274C292.269 195.032 290.704 173.473 296.285 153.215C301.857 132.959 314.237 115.239 331.336 103.03C348.438 90.822 369.218 84.871 390.181 86.177C411.154 87.483 431.039 95.966 446.49 110.202C455.785 118.762 463.205 129.154 468.281 140.724C473.362 152.292 475.985 164.788 475.996 177.422Z" fill="white"/>
<path d="M476 177.413C475.36 194.667 469.654 211.352 459.6 225.391C449.545 239.425 435.58 250.195 419.456 256.353C403.321 262.514 385.733 263.793 368.88 260.029C352.032 256.268 336.659 247.63 324.674 235.195C312.697 222.757 304.636 207.075 301.516 190.094C298.384 173.111 300.317 155.584 307.078 139.697C313.827 123.807 325.113 110.257 339.519 100.733C353.921 91.2088 370.81 86.1318 388.072 86.1348C411.688 87.0178 434.042 97.0218 450.44 114.043C466.838 131.065 476 153.778 476 177.413Z" fill="white"/>
<path d="M446.478 110.185L317.426 239.234C313.035 234.456 309.15 229.227 305.858 223.63L430.895 98.6035C436.484 101.901 441.712 105.781 446.478 110.185Z" fill="#E9E9E9" fill-opacity="0.18"/>
<path d="M469.688 144.025L351.251 262.462C342.934 259.193 335.135 254.716 328.121 249.177L456.411 120.895C461.942 127.912 466.424 135.705 469.688 144.025Z" fill="#E9E9E9" fill-opacity="0.18"/>
<path d="M455.579 177.437C455.639 196.226 448.25 214.275 435.025 227.621C421.806 240.97 403.823 248.528 385.034 248.644C366.247 248.76 348.182 241.42 334.794 228.237C321.415 215.051 313.798 197.098 313.625 178.309V177.437C313.625 158.612 321.111 140.56 334.418 127.249C347.726 113.939 365.778 106.461 384.608 106.461H385.481C404.16 106.685 421.991 114.262 435.113 127.545C448.23 140.833 455.59 158.758 455.59 177.431L455.579 177.437Z" fill="#8C8C8C"/>
<path d="M434.886 127.225L334.522 227.599C321.389 214.518 313.927 196.8 313.734 178.268V177.395C313.734 158.573 321.215 140.521 334.522 127.211C347.833 113.901 365.884 106.42 384.704 106.42H385.579C404.103 106.638 421.802 114.108 434.886 127.225Z" fill="#8C8C8C"/>
<path d="M345.274 154.576C345.418 154.728 345.683 154.866 345.699 155.032C345.884 156.65 346.9 157.738 348.121 158.608C359.404 166.586 370.699 174.564 382.015 182.483C384.76 184.4 386.928 184.289 389.621 182.39C395.79 178.054 401.951 173.713 408.114 169.358C411.599 166.889 414.143 163.678 415.471 159.613C415.94 158.196 416.111 156.686 416.319 155.758C416.319 159.298 416.57 163.404 416.244 167.464C415.838 172.465 413.317 176.59 409.291 179.562C402.583 184.508 395.751 189.279 388.897 194.043C386.682 195.592 384.324 195.186 382.137 193.772C379.9 192.317 377.685 190.837 375.509 189.296C366.501 182.914 357.516 176.497 348.519 170.104C346.972 169.007 345.752 167.715 345.478 165.754C345.487 162.576 345.498 159.395 345.487 156.211C345.487 155.97 345.346 155.73 345.274 155.487C345.274 155.183 345.274 154.882 345.274 154.576Z" fill="#717171"/>
<path d="M345.274 179.598C345.418 179.692 345.672 179.775 345.683 179.882C345.876 181.688 347.094 182.776 348.436 183.754C353.611 187.515 358.755 191.315 363.98 194.999C369.763 199.072 375.631 203.043 381.477 207.047C384.821 209.339 386.682 209.35 390.018 207.014C395.953 202.869 401.84 198.674 407.766 194.524C411.296 192.049 413.966 188.91 415.36 184.817C415.88 183.296 416.081 181.677 416.642 180.098C416.49 184.502 416.622 188.94 416.103 193.303C415.554 197.978 412.972 201.795 409.191 204.573C402.539 209.461 395.759 214.185 388.988 218.916C386.611 220.576 384.192 220.081 381.935 218.576C378.986 216.613 376.048 214.641 373.162 212.592C364.834 206.688 356.549 200.745 348.243 194.816C346.76 193.756 345.702 192.428 345.47 190.561C345.478 187.338 345.487 184.113 345.487 180.89C345.487 180.689 345.346 180.484 345.274 180.28C345.274 180.051 345.274 179.824 345.274 179.598Z" fill="#717171"/>
<path d="M361.712 153.369C361.908 153.148 362 152.979 362.151 152.877C365.741 150.372 369.268 147.771 372.949 145.407C376.76 142.961 380.971 141.527 385.574 141.533C389.866 141.541 393.759 142.897 397.286 145.244C398.984 146.379 400.641 147.633 402.157 149.008C404.595 151.229 404.852 155.191 402.911 157.851C402.472 158.444 402.025 158.483 401.445 158.105C400.652 157.577 399.871 157.039 399.067 156.533C390.923 151.433 382.769 151.488 374.628 156.542C373.335 157.348 372.054 158.171 370.731 158.933C370.469 159.085 369.969 159.146 369.737 158.997C367.194 157.318 364.692 155.592 362.171 153.869C362.03 153.766 361.92 153.598 361.712 153.369Z" fill="#717171"/>
<g filter="url(#filter1_f_1891_586)">
<path d="M363.504 149.182C363.697 148.961 363.788 148.792 363.94 148.69C367.53 146.185 371.059 143.584 374.738 141.22C378.551 138.774 382.76 137.34 387.363 137.346C391.654 137.354 395.548 138.713 399.077 141.057C400.773 142.192 402.433 143.446 403.946 144.821C406.387 147.044 406.638 151.004 404.697 153.664C404.261 154.26 403.813 154.299 403.236 153.918C402.441 153.393 401.659 152.854 400.856 152.346C392.712 147.246 384.557 147.301 376.414 152.355C375.124 153.161 373.843 153.984 372.52 154.746C372.258 154.898 371.761 154.959 371.526 154.81C368.985 153.131 366.484 151.405 363.962 149.682C363.821 149.579 363.708 149.411 363.504 149.182Z" fill="#767676" fill-opacity="0.31"/>
<path d="M348.577 151.277C348.726 151.429 348.983 151.567 349.005 151.733C349.184 153.351 350.2 154.439 351.432 155.304C362.718 163.284 374.002 171.262 385.327 179.185C388.06 181.099 390.228 180.988 392.932 179.091C399.092 174.755 405.262 170.409 411.414 166.057C414.902 163.588 417.443 160.379 418.776 156.314C419.24 154.895 419.425 153.384 419.619 152.459C419.619 155.999 419.884 160.103 419.547 164.162C419.138 169.166 416.62 173.286 412.593 176.26C405.894 181.209 399.051 185.978 392.211 190.742C389.982 192.291 387.624 191.888 385.448 190.471C383.211 189.019 380.996 187.538 378.82 185.997C369.815 179.613 360.824 173.198 351.819 166.802C350.275 165.709 349.063 164.414 348.789 162.456C348.789 159.275 348.798 156.093 348.798 152.912C348.798 152.672 348.657 152.426 348.577 152.186C348.577 151.885 348.577 151.581 348.577 151.277Z" fill="#767676" fill-opacity="0.31"/>
<path d="M348.577 176.332C348.717 176.426 348.972 176.509 348.983 176.62C349.184 178.423 350.394 179.511 351.736 180.489C356.914 184.252 362.055 188.049 367.28 191.733C373.077 195.809 378.942 199.78 384.777 203.784C388.124 206.076 389.982 206.085 393.327 203.748C399.255 199.606 405.143 195.409 411.066 191.258C414.607 188.784 417.28 185.647 418.663 181.554C419.182 180.033 419.395 178.412 419.942 176.835C419.79 181.237 419.922 185.677 419.414 190.04C418.856 194.716 416.283 198.529 412.5 201.307C405.844 206.195 399.062 210.92 392.291 215.653C389.922 217.313 387.503 216.819 385.235 215.314C382.289 213.35 379.348 211.376 376.462 209.329C368.147 203.423 359.849 197.483 351.543 191.551C350.06 190.493 349.005 189.162 348.77 187.298C348.778 184.076 348.8 180.853 348.789 177.628C348.789 177.423 348.657 177.219 348.577 177.015C348.577 176.785 348.577 176.559 348.577 176.332Z" fill="#767676" fill-opacity="0.31"/>
</g>
<path d="M363.504 149.182C363.697 148.961 363.788 148.792 363.94 148.69C367.53 146.185 371.059 143.584 374.738 141.22C378.551 138.774 382.76 137.34 387.363 137.346C391.654 137.354 395.548 138.713 399.077 141.057C400.773 142.192 402.433 143.446 403.946 144.821C406.387 147.044 406.638 151.004 404.697 153.664C404.261 154.26 403.813 154.299 403.236 153.918C402.441 153.393 401.659 152.854 400.856 152.346C392.712 147.246 384.557 147.301 376.414 152.355C375.124 153.161 373.843 153.984 372.52 154.746C372.258 154.898 371.761 154.959 371.526 154.81C368.985 153.131 366.484 151.405 363.962 149.682C363.821 149.579 363.708 149.411 363.504 149.182Z" fill="#EFEFEF"/>
<path d="M348.577 151.277C348.726 151.429 348.983 151.567 349.005 151.733C349.184 153.351 350.2 154.439 351.432 155.304C362.718 163.284 374.002 171.262 385.327 179.185C388.06 181.099 390.228 180.988 392.932 179.091C399.092 174.755 405.262 170.409 411.414 166.057C414.902 163.588 417.443 160.379 418.776 156.314C419.24 154.895 419.425 153.384 419.619 152.459C419.619 155.999 419.884 160.103 419.547 164.162C419.138 169.166 416.62 173.286 412.593 176.26C405.894 181.209 399.051 185.978 392.211 190.742C389.982 192.291 387.624 191.888 385.448 190.471C383.211 189.019 380.996 187.538 378.82 185.997C369.815 179.613 360.824 173.198 351.819 166.802C350.275 165.709 349.063 164.414 348.789 162.456C348.789 159.275 348.798 156.093 348.798 152.912C348.798 152.672 348.657 152.426 348.577 152.186C348.577 151.885 348.577 151.581 348.577 151.277Z" fill="#EFEFEF"/>
<path d="M348.577 176.332C348.717 176.426 348.972 176.509 348.983 176.62C349.184 178.423 350.394 179.511 351.736 180.489C356.914 184.252 362.055 188.049 367.28 191.733C373.077 195.809 378.942 199.78 384.777 203.784C388.124 206.076 389.982 206.085 393.327 203.748C399.255 199.606 405.143 195.409 411.066 191.258C414.607 188.784 417.28 185.647 418.663 181.554C419.182 180.033 419.395 178.412 419.942 176.835C419.79 181.237 419.922 185.677 419.414 190.04C418.856 194.716 416.283 198.529 412.5 201.307C405.844 206.195 399.062 210.92 392.291 215.653C389.922 217.313 387.503 216.819 385.235 215.314C382.289 213.35 379.348 211.376 376.462 209.329C368.147 203.423 359.849 197.483 351.543 191.551C350.06 190.493 349.005 189.162 348.77 187.298C348.778 184.076 348.8 180.853 348.789 177.628C348.789 177.423 348.657 177.219 348.577 177.015C348.577 176.785 348.577 176.559 348.577 176.332Z" fill="#EFEFEF"/>
<path d="M458.06 177.493C458.06 186.84 456.271 196.094 452.797 204.726C449.336 213.362 444.242 221.207 437.832 227.815C431.423 234.423 423.807 239.665 415.428 243.241C407.053 246.82 398.069 248.662 388.998 248.662C387.695 248.662 386.388 248.623 385.102 248.548C402.72 247.524 419.278 239.593 431.403 226.379C443.521 213.168 450.264 195.677 450.264 177.495C450.264 159.317 443.521 141.825 431.403 128.612C419.278 115.401 402.72 107.467 385.102 106.442C386.388 106.368 387.695 106.332 388.998 106.332C407.318 106.332 424.884 113.829 437.832 127.176C450.781 140.519 458.06 158.621 458.06 177.493Z" fill="white" fill-opacity="0.41"/>
</g>
<path d="M28.6573 59H178.48C183.228 59 187.076 62.848 187.076 67.596V99.962C187.076 104.709 183.228 108.559 178.48 108.559H28.6573C23.9103 108.559 20.0615 104.709 20.0615 99.962V67.596C20.0615 62.848 23.9103 59 28.6573 59Z" fill="white"/>
<path d="M28.6573 59H178.48C183.228 59 187.076 62.848 187.076 67.596V99.962C187.076 104.709 183.228 108.559 178.48 108.559H28.6573C23.9103 108.559 20.0615 104.709 20.0615 99.962V67.596C20.0615 62.848 23.9103 59 28.6573 59Z" stroke="url(#paint2_linear_1891_586)" stroke-width="1.19202"/>
<path d="M184.813 84.2295C184.813 85.7025 186.007 86.8965 187.48 86.8965C188.952 86.8965 190.146 85.7025 190.146 84.2295C190.146 82.7565 188.952 81.5625 187.48 81.5625C186.007 81.5625 184.813 82.7565 184.813 84.2295ZM187.48 84.7295H291.153V83.7295H187.48V84.7295Z" fill="url(#paint3_linear_1891_586)"/>
<path d="M25.5961 237.188H179.823C184.57 237.188 188.419 241.037 188.419 245.784V274.941C188.419 279.688 184.57 283.538 179.823 283.538H25.5961C20.849 283.538 17 279.688 17 274.941V245.784C17 241.037 20.849 237.188 25.5961 237.188Z" fill="white"/>
<path d="M25.5961 237.188H179.823C184.57 237.188 188.419 241.037 188.419 245.784V274.941C188.419 279.688 184.57 283.538 179.823 283.538H25.5961C20.849 283.538 17 279.688 17 274.941V245.784C17 241.037 20.849 237.188 25.5961 237.188Z" stroke="url(#paint4_linear_1891_586)" stroke-width="1.19202"/>
<path d="M186.813 260.278C186.813 261.75 188.007 262.944 189.48 262.944C190.952 262.944 192.146 261.75 192.146 260.278C192.146 258.805 190.952 257.611 189.48 257.611C188.007 257.611 186.813 258.805 186.813 260.278ZM189.48 260.778H293.153V259.778H189.48V260.778Z" fill="url(#paint5_linear_1891_586)"/>
<path d="M25.5961 148.188H179.823C184.57 148.188 188.419 152.036 188.419 156.783V185.94C188.419 190.687 184.57 194.537 179.823 194.537H25.5961C20.849 194.537 17 190.687 17 185.94V156.783C17 152.036 20.849 148.188 25.5961 148.188Z" fill="white"/>
<path d="M25.5961 148.188H179.823C184.57 148.188 188.419 152.036 188.419 156.783V185.94C188.419 190.687 184.57 194.537 179.823 194.537H25.5961C20.849 194.537 17 190.687 17 185.94V156.783C17 152.036 20.849 148.188 25.5961 148.188Z" stroke="url(#paint6_linear_1891_586)" stroke-width="1.19202"/>
<path d="M186.813 171.278C186.813 172.75 188.007 173.944 189.48 173.944C190.952 173.944 192.146 172.75 192.146 171.278C192.146 169.805 190.952 168.611 189.48 168.611C188.007 168.611 186.813 169.805 186.813 171.278ZM189.48 171.778H293.153V170.778H189.48V171.778Z" fill="url(#paint7_linear_1891_586)"/>
<path d="M730.496 64H580.673C575.925 64 572.077 67.848 572.077 72.596V104.962C572.077 109.709 575.925 113.559 580.673 113.559H730.496C735.243 113.559 739.092 109.709 739.092 104.962V72.596C739.092 67.848 735.243 64 730.496 64Z" fill="white"/>
<path d="M730.496 64H580.673C575.925 64 572.077 67.848 572.077 72.596V104.962C572.077 109.709 575.925 113.559 580.673 113.559H730.496C735.243 113.559 739.092 109.709 739.092 104.962V72.596C739.092 67.848 735.243 64 730.496 64Z" stroke="url(#paint8_linear_1891_586)" stroke-width="1.19202"/>
<path d="M574.34 89.2295C574.34 90.7025 573.146 91.8965 571.673 91.8965C570.201 91.8965 569.007 90.7025 569.007 89.2295C569.007 87.7565 570.201 86.5625 571.673 86.5625C573.146 86.5625 574.34 87.7565 574.34 89.2295ZM571.673 89.7295H468V88.7295H571.673V89.7295Z" fill="url(#paint9_linear_1891_586)"/>
<path d="M733.557 242.188H579.33C574.583 242.188 570.734 246.037 570.734 250.784V279.941C570.734 284.688 574.583 288.538 579.33 288.538H733.557C738.304 288.538 742.153 284.688 742.153 279.941V250.784C742.153 246.037 738.304 242.188 733.557 242.188Z" fill="white"/>
<path d="M733.557 242.188H579.33C574.583 242.188 570.734 246.037 570.734 250.784V279.941C570.734 284.688 574.583 288.538 579.33 288.538H733.557C738.304 288.538 742.153 284.688 742.153 279.941V250.784C742.153 246.037 738.304 242.188 733.557 242.188Z" stroke="url(#paint10_linear_1891_586)" stroke-width="1.19202"/>
<path d="M572.34 265.278C572.34 266.75 571.146 267.944 569.673 267.944C568.201 267.944 567.007 266.75 567.007 265.278C567.007 263.805 568.201 262.611 569.673 262.611C571.146 262.611 572.34 263.805 572.34 265.278ZM569.673 265.778H466V264.778H569.673V265.778Z" fill="url(#paint11_linear_1891_586)"/>
<path d="M733.557 153.188H579.33C574.583 153.188 570.734 157.036 570.734 161.783V190.94C570.734 195.687 574.583 199.537 579.33 199.537H733.557C738.304 199.537 742.153 195.687 742.153 190.94V161.783C742.153 157.036 738.304 153.188 733.557 153.188Z" fill="white"/>
<path d="M733.557 153.188H579.33C574.583 153.188 570.734 157.036 570.734 161.783V190.94C570.734 195.687 574.583 199.537 579.33 199.537H733.557C738.304 199.537 742.153 195.687 742.153 190.94V161.783C742.153 157.036 738.304 153.188 733.557 153.188Z" stroke="url(#paint12_linear_1891_586)" stroke-width="1.19202"/>
<path d="M572.34 176.278C572.34 177.75 571.146 178.944 569.673 178.944C568.201 178.944 567.007 177.75 567.007 176.278C567.007 174.805 568.201 173.611 569.673 173.611C571.146 173.611 572.34 174.805 572.34 176.278ZM569.673 176.778H466V175.778H569.673V176.778Z" fill="url(#paint13_linear_1891_586)"/>
<path d="M707 97.9651C704.498 97.9801 707.078 97.9511 704.576 97.9511C699.15 97.9601 693.724 97.9651 688.298 97.9601C685.649 97.9601 682.995 97.9551 680.34 97.9511C679.668 97.9511 678.991 97.9161 678.324 97.9021C678.206 97.9021 678.088 97.8571 678 97.7841C678.113 97.7591 678.226 97.7451 678.339 97.7351C679.58 97.6861 680.826 97.6371 682.067 97.5921C683.495 97.5431 684.923 97.5041 686.355 97.4601C686.743 97.4451 686.826 97.3671 686.841 96.9601C686.875 95.3411 687.076 93.7311 687.439 92.1521C687.582 91.5431 687.518 91.2931 686.973 90.9591C686.022 90.3851 685.457 89.4531 685.227 88.3641C685.07 87.6331 685.295 86.9711 685.742 86.3821C685.977 86.0731 686.223 85.7741 686.453 85.4651C686.645 85.2191 686.924 85.0621 687.233 85.0281C687.341 85.0331 687.439 85.0871 687.503 85.1701C687.533 85.2051 687.488 85.3621 687.43 85.4011C687.194 85.5731 686.963 85.7981 686.699 85.8671C686.286 85.9751 686.085 86.2691 685.919 86.5831C685.271 87.8341 685.874 89.0611 686.635 89.7331C686.944 89.9981 687.282 90.2231 687.64 90.4201C688.043 90.6401 688.249 90.5771 688.597 90.2731C689.951 89.0611 691.305 87.8541 692.669 86.6521C692.767 86.5641 692.861 86.4701 692.964 86.3821C693.184 86.1811 693.385 86.2301 693.454 86.5291C693.572 87.1231 693.67 87.7161 693.763 88.3101C693.808 88.6051 693.822 88.8991 693.852 89.1881H693.935C693.974 88.9681 693.994 88.7421 693.999 88.5161C693.95 87.6531 693.92 86.7791 693.793 85.9261C693.719 85.4301 693.469 84.9641 693.312 84.4831C693.258 84.3411 693.233 84.1891 693.248 84.0421C693.283 83.8311 693.199 83.7621 693.023 83.6841C691.924 83.1931 690.771 82.8591 689.608 82.5551C689.475 82.5261 689.358 82.4571 689.269 82.3591C689.181 82.2561 689.122 82.1331 689.103 82.0011C689.053 81.7701 688.98 81.5501 688.896 81.3291C688.798 81.0541 688.823 80.8381 689.103 80.6761C689.799 80.2891 690.486 79.8961 691.168 79.4891C691.394 79.3661 691.6 79.2141 691.781 79.0381C692.13 78.6501 692.596 78.5081 693.047 78.3161C694.126 77.8701 695.211 77.4331 696.29 76.9821C696.383 76.9231 696.462 76.8491 696.535 76.7711C696.476 76.6921 696.413 76.6241 696.344 76.5651C695.014 75.6921 693.847 74.5981 692.895 73.3371C692.841 73.2581 692.866 73.1161 692.851 73.0031C692.954 72.9931 693.057 73.0081 693.155 73.0331C694.048 73.4301 694.926 73.8521 695.819 74.2391C696.491 74.5341 697.188 74.7741 697.86 75.0691C698.611 75.3971 699.396 75.6771 699.974 76.3101C700.254 76.5891 700.279 77.0311 700.028 77.3401L699.042 78.7091C699.16 78.7381 699.283 78.7531 699.405 78.7531C700.092 78.6751 700.779 78.5721 701.466 78.4981C701.603 78.4981 701.736 78.5181 701.863 78.5571C701.834 78.6891 701.785 78.8121 701.721 78.9251C701.137 79.7291 700.426 80.4311 699.621 81.0051C699.445 81.1281 699.498 81.2601 699.587 81.4021C699.965 81.9861 700.367 82.5501 700.715 83.1491C701.275 84.1251 701.839 85.0971 702.329 86.1071C702.849 87.1821 703.316 88.2811 703.742 89.3941C704.071 90.2581 704.321 91.1411 704.572 92.0241C704.807 92.8481 705.018 93.6821 705.194 94.5211C705.361 95.3311 705.469 96.1551 705.602 96.9741C705.67 97.4161 705.769 97.6861 706.21 97.7051L707 97.9651ZM699.081 97.3811V97.4211H702.844C703.33 97.4211 703.36 97.3621 703.139 96.9101C703.016 96.6751 702.913 96.4351 702.805 96.1891C702.432 95.3061 701.893 94.5021 701.206 93.8201C700.902 93.5251 700.509 93.3001 700.082 93.3191C699.425 93.3491 698.782 93.5941 698.184 93.8591C697.257 94.2811 696.452 94.9281 695.848 95.7381C695.529 96.1601 695.245 96.6061 694.985 97.0631C694.867 97.2541 694.946 97.3811 695.201 97.3811C696.491 97.3771 697.786 97.3811 699.081 97.3811ZM690.393 97.4161V97.4011H692.257C692.65 97.4011 692.689 97.3471 692.738 96.9741C692.782 96.6161 692.841 96.2681 692.9 95.9101C693.008 95.2571 693.126 94.6001 693.214 93.9421C693.263 93.5741 693.16 93.5011 692.821 93.6281C692.306 93.8151 691.801 94.0311 691.31 94.2811C690.074 94.9731 689.024 95.8701 688.293 97.1071C688.151 97.3521 688.18 97.4111 688.465 97.4111C689.102 97.4211 689.745 97.4161 690.393 97.4161Z" fill="#F69E1B"/>
<path d="M59.6171 270.616C59.2231 271.01 58.5681 270.616 58.7001 270.026C58.9621 269.304 59.2241 268.386 59.5521 267.336C56.2721 269.894 52.5321 272.059 48.7931 273.83C48.2691 274.093 47.7441 273.436 48.1371 272.978C50.3021 270.288 52.4001 267.532 54.3691 264.712L50.3021 266.746C49.7761 267.008 49.3181 266.417 49.6451 265.959C51.6131 263.269 55.4831 258.02 58.4371 254.413L59.5521 255.726L58.8311 258.284C58.7061 258.695 58.6831 259.131 58.7621 259.554C58.8421 259.976 59.0231 260.374 59.2901 260.711C59.8151 261.433 60.6671 261.826 61.5211 261.826C61.9141 261.826 62.2421 261.76 62.5701 261.63L65.0641 260.645L67.2951 262.088C67.3611 262.154 67.4271 262.154 67.4911 262.22C64.9321 265.5 61.5861 268.845 59.6171 270.616ZM72.5411 254.019L70.2441 255.856C70.0941 255.971 69.9751 256.121 69.8951 256.292C69.8151 256.464 69.7781 256.652 69.7861 256.841L69.9821 259.727C70.0481 260.449 69.4571 260.973 68.8021 260.973C68.5691 260.969 68.3421 260.901 68.1451 260.777L65.7171 259.202C65.5251 259.069 65.2951 259 65.0611 259.006C64.9311 259.006 64.7331 259.006 64.6021 259.072L61.9131 260.187C61.7821 260.252 61.5841 260.252 61.4541 260.252C60.7331 260.252 60.0751 259.53 60.3381 258.744L61.1261 255.923C61.1851 255.741 61.1911 255.547 61.1451 255.361C61.0991 255.176 61.0011 255.007 60.8641 254.874L59.0261 252.643C58.3721 251.921 58.8951 250.74 59.8791 250.676L62.7651 250.544C62.9511 250.546 63.1351 250.498 63.2961 250.406C63.4581 250.314 63.5921 250.18 63.6851 250.019L65.1931 247.526C65.2941 247.358 65.4401 247.22 65.6131 247.127C65.7871 247.035 65.9821 246.992 66.1791 247.001C66.6371 247.001 67.0961 247.264 67.2931 247.788L68.3421 250.478C68.4041 250.665 68.5171 250.832 68.6681 250.96C68.8181 251.087 69.0011 251.17 69.1961 251.2L72.0181 251.922C73.0671 252.185 73.3281 253.429 72.5411 254.019ZM70.3101 252.904C69.8511 252.576 69.0651 252.642 68.6031 252.904C68.1451 253.232 68.1451 253.691 68.6031 254.019C69.0631 254.347 69.8501 254.281 70.3101 254.019C70.7691 253.757 70.7691 253.232 70.3101 252.904Z" fill="#F94686"/>
<path fill-rule="evenodd" clip-rule="evenodd" d="M703.257 272.011C703.161 268.572 701.872 265.705 699.279 263.472C697.329 261.793 695.04 260.898 692.47 260.808C689.304 260.698 686.544 261.732 684.251 263.928C681.959 266.122 680.852 268.847 680.769 272.02H677.009C676.96 270.888 677.111 269.79 677.36 268.71C678.092 265.537 679.69 262.867 682.136 260.718C687.238 256.236 694.505 255.888 699.885 259.231C705.342 262.624 707.164 268.336 706.989 272.012L703.257 272.011ZM688.685 268.753C689.57 267.864 690.642 267.395 691.903 267.363C692.91 267.337 693.832 267.605 694.654 268.177C695.979 269.1 696.611 270.41 696.701 272.011H700.42C700.593 269.876 699.399 266.675 696.544 264.88C693.327 262.855 689.332 263.151 686.46 265.655C684.549 267.322 683.6 269.456 683.553 272.023H687.327C687.392 270.751 687.798 269.645 688.685 268.753Z" fill="#27E489"/>
<path d="M691.363 185.108L691.154 185.195C689.902 185.618 688.024 186.255 686.396 187.061C686.309 187.102 686.234 187.229 686.234 187.229C686.187 187.31 686.141 187.397 686.106 187.484C685.932 187.907 685.648 188.545 685.561 188.835L685.48 189.055C685.48 189.095 685.48 189.136 685.48 189.136L685.521 189.182H685.561L685.764 189.095C686.234 188.881 686.813 188.545 687.399 188.249H687.439C688.604 187.693 689.902 187.061 690.65 186.678C690.65 186.678 690.778 186.597 690.859 186.47L691.444 185.282C691.444 185.235 691.444 185.195 691.444 185.195C691.444 185.108 691.398 185.067 691.363 185.108Z" fill="#7592F9"/>
<path d="M686.509 183.285C686.591 183.117 686.962 182.398 687.054 182.23V182.19C689.593 177.344 692.688 172.788 696.224 168.609L696.311 168.488C696.357 168.441 696.357 168.401 696.311 168.36C696.27 168.32 696.224 168.273 696.189 168.32H696.021C693.679 168.656 691.303 169.079 688.967 169.67C688.718 169.751 688.59 169.879 688.55 169.919C686.793 172.029 685.165 174.261 683.617 176.544C683.669 176.666 683.669 176.921 683.669 176.921C683.669 176.921 684.04 179.871 684.585 182.062C683.252 186.067 682 191.382 682 191.382C682 191.423 682 191.469 682 191.469C682 191.51 682.041 191.51 682.075 191.51H682.869C682.916 191.51 682.956 191.469 683.003 191.429L683.038 191.255C683.826 189.064 684.753 186.873 685.75 184.763C686.005 184.294 686.509 183.285 686.509 183.285Z" fill="#7592F9"/>
<path d="M697.475 169.554V169.386C697.475 169.345 697.434 169.299 697.394 169.264C697.353 169.264 697.307 169.264 697.266 169.299L697.185 169.426C692.965 174.243 689.476 179.604 686.706 185.337L686.619 185.464C686.619 185.505 686.619 185.545 686.619 185.592C686.653 185.632 686.653 185.632 686.706 185.632H686.74L686.868 185.592C689.221 184.63 691.627 183.789 694.02 183.076C694.148 183.036 694.281 182.954 694.362 182.833C695.417 180.822 697.852 176.88 697.852 176.88C697.944 176.753 697.904 176.631 697.904 176.631C697.904 176.631 697.475 171.936 697.475 169.554Z" fill="#7592F9"/>
<path d="M702.877 162.799C702.292 162.295 701.399 162.045 700.066 162.005C698.901 161.958 697.469 162.254 695.835 162.758C695.586 162.845 695.417 162.967 695.203 163.135C693.534 164.688 691.946 166.369 690.433 168.05L690.305 168.172C690.265 168.218 690.265 168.253 690.305 168.299C690.346 168.34 690.392 168.38 690.433 168.34L690.601 168.299C693.076 167.755 695.539 167.378 697.974 167.123C698.136 167.123 698.31 167.163 698.431 167.244C698.565 167.378 698.6 167.505 698.6 167.668C698.565 170.102 698.646 172.536 698.849 174.884V175.052C698.849 175.092 698.901 175.139 698.936 175.139C698.936 175.139 698.936 175.139 698.982 175.139C699.023 175.139 699.057 175.139 699.057 175.092L699.144 174.971C700.53 173 701.99 171.11 703.584 169.308C703.752 169.093 703.799 168.966 703.839 168.798C704.338 165.732 703.584 163.39 702.877 162.799Z" fill="#7592F9"/>
<mask id="mask0_1891_586" style="mask-type:luminance" maskUnits="userSpaceOnUse" x="44" y="72" width="18" height="26">
<path d="M61.908 72H44V98H61.908V72Z" fill="white"/>
</mask>
<g mask="url(#mask0_1891_586)">
<path d="M43.999 94.2117V81.3327L48.15 77.8027V90.6737L43.999 94.2117Z" fill="#6166DC"/>
<path d="M43.999 94.2117V81.3327L48.15 77.8027V90.6737L43.999 94.2117Z" fill="url(#paint14_linear_1891_586)" fill-opacity="0.2"/>
<path d="M61.9899 88.6049C60.6359 89.7549 59.2709 90.9119 57.8589 92.1129V79.2469C59.2169 78.0889 60.6159 76.9269 61.9899 75.7559V88.6049Z" fill="#6166DC"/>
<path d="M61.9899 88.6049C60.6359 89.7549 59.2709 90.9119 57.8589 92.1129V79.2469C59.2169 78.0889 60.6159 76.9269 61.9899 75.7559V88.6049Z" fill="url(#paint15_linear_1891_586)" fill-opacity="0.2"/>
<path d="M55.193 94.446C53.806 95.63 52.418 96.818 51.02 98.01V86.127H55.193V94.446Z" fill="#6166DC"/>
<path d="M55.193 94.446C53.806 95.63 52.418 96.818 51.02 98.01V86.127H55.193V94.446Z" fill="url(#paint16_linear_1891_586)" fill-opacity="0.2"/>
<path d="M50.9849 83.8254V75.4934L55.1579 71.9004C55.1649 75.6084 55.1689 83.7784 55.1689 83.7784L50.9849 83.8254Z" fill="#6166DC"/>
<path d="M50.9849 83.8254V75.4934L55.1579 71.9004C55.1649 75.6084 55.1689 83.7784 55.1689 83.7784L50.9849 83.8254Z" fill="url(#paint17_linear_1891_586)" fill-opacity="0.2"/>
</g>
<path d="M90.331 85.9191H84.011V91.9991H81.751V78.0391H84.011V83.9191H90.331V78.0391H92.591V91.9991H90.331V85.9191ZM99.949 92.2391C99.229 92.2391 98.569 92.1121 97.969 91.8591C97.382 91.6061 96.882 91.2461 96.469 90.7791C96.055 90.2991 95.735 89.7261 95.509 89.0591C95.282 88.3791 95.169 87.6261 95.169 86.7991C95.169 85.9721 95.282 85.2261 95.509 84.5591C95.735 83.8791 96.055 83.3061 96.469 82.8391C96.882 82.3591 97.382 81.9921 97.969 81.7391C98.569 81.4861 99.229 81.3591 99.949 81.3591C100.669 81.3591 101.322 81.4861 101.909 81.7391C102.509 81.9921 103.015 82.3591 103.429 82.8391C103.842 83.3061 104.162 83.8791 104.389 84.5591C104.615 85.2261 104.729 85.9721 104.729 86.7991C104.729 87.6261 104.615 88.3791 104.389 89.0591C104.162 89.7261 103.842 90.2991 103.429 90.7791C103.015 91.2461 102.509 91.6061 101.909 91.8591C101.322 92.1121 100.669 92.2391 99.949 92.2391ZM99.949 90.4391C100.695 90.4391 101.295 90.2121 101.749 89.7591C102.202 89.2921 102.429 88.5991 102.429 87.6791V85.9191C102.429 84.9991 102.202 84.3121 101.749 83.8591C101.295 83.3921 100.695 83.1591 99.949 83.1591C99.202 83.1591 98.602 83.3921 98.149 83.8591C97.695 84.3121 97.469 84.9991 97.469 85.9191V87.6791C97.469 88.5991 97.695 89.2921 98.149 89.7591C98.602 90.2121 99.202 90.4391 99.949 90.4391ZM107.158 91.9991V81.5991H109.338V83.5991H109.438C109.584 83.0661 109.891 82.5991 110.358 82.1991C110.824 81.7991 111.471 81.5991 112.298 81.5991H112.878V83.6991H112.018C111.151 83.6991 110.484 83.8391 110.018 84.1191C109.564 84.3991 109.338 84.8121 109.338 85.3591V91.9991H107.158ZM115.914 79.7391C115.461 79.7391 115.127 79.6321 114.914 79.4191C114.714 79.2061 114.614 78.9321 114.614 78.5991V78.2591C114.614 77.9261 114.714 77.6521 114.914 77.4391C115.127 77.2261 115.461 77.1191 115.914 77.1191C116.367 77.1191 116.694 77.2261 116.894 77.4391C117.094 77.6521 117.194 77.9261 117.194 78.2591V78.5991C117.194 78.9321 117.094 79.2061 116.894 79.4191C116.694 79.6321 116.367 79.7391 115.914 79.7391ZM114.814 81.5991H116.994V91.9991H114.814V81.5991ZM119.267 91.9991V90.2391L124.847 83.3791H119.447V81.5991H127.427V83.2791L121.767 90.2191H127.567V91.9991H119.267ZM133.718 92.2391C132.998 92.2391 132.338 92.1121 131.738 91.8591C131.151 91.6061 130.651 91.2461 130.238 90.7791C129.825 90.2991 129.505 89.7261 129.278 89.0591C129.051 88.3791 128.938 87.6261 128.938 86.7991C128.938 85.9721 129.051 85.2261 129.278 84.5591C129.505 83.8791 129.825 83.3061 130.238 82.8391C130.651 82.3591 131.151 81.9921 131.738 81.7391C132.338 81.4861 132.998 81.3591 133.718 81.3591C134.438 81.3591 135.091 81.4861 135.678 81.7391C136.278 81.9921 136.785 82.3591 137.198 82.8391C137.611 83.3061 137.931 83.8791 138.158 84.5591C138.385 85.2261 138.498 85.9721 138.498 86.7991C138.498 87.6261 138.385 88.3791 138.158 89.0591C137.931 89.7261 137.611 90.2991 137.198 90.7791C136.785 91.2461 136.278 91.6061 135.678 91.8591C135.091 92.1121 134.438 92.2391 133.718 92.2391ZM133.718 90.4391C134.465 90.4391 135.065 90.2121 135.518 89.7591C135.971 89.2921 136.198 88.5991 136.198 87.6791V85.9191C136.198 84.9991 135.971 84.3121 135.518 83.8591C135.065 83.3921 134.465 83.1591 133.718 83.1591C132.971 83.1591 132.371 83.3921 131.918 83.8591C131.465 84.3121 131.238 84.9991 131.238 85.9191V87.6791C131.238 88.5991 131.465 89.2921 131.918 89.7591C132.371 90.2121 132.971 90.4391 133.718 90.4391ZM140.927 91.9991V81.5991H143.107V83.3191H143.207C143.434 82.7591 143.774 82.2921 144.227 81.9191C144.694 81.5461 145.327 81.3591 146.127 81.3591C147.194 81.3591 148.021 81.7121 148.607 82.4191C149.207 83.1121 149.507 84.1061 149.507 85.3991V91.9991H147.327V85.6791C147.327 84.0521 146.674 83.2391 145.367 83.2391C145.087 83.2391 144.807 83.2791 144.527 83.3591C144.261 83.4261 144.021 83.5321 143.807 83.6791C143.594 83.8261 143.421 84.0121 143.287 84.2391C143.167 84.4661 143.107 84.7321 143.107 85.0391V91.9991H140.927Z" fill="#3C3C3C"/>
<path d="M88.4991 181.459H86.5191C85.7321 181.459 85.1522 181.259 84.7792 180.859C84.4192 180.459 84.2392 179.919 84.2392 179.239V178.179C83.4522 178.086 82.7462 177.859 82.1192 177.499C81.4922 177.139 80.9591 176.659 80.5191 176.059C80.0791 175.459 79.7391 174.739 79.4991 173.899C79.2591 173.046 79.1392 172.086 79.1392 171.019C79.1392 169.846 79.2792 168.812 79.5592 167.919C79.8522 167.012 80.2592 166.259 80.7792 165.659C81.3122 165.046 81.9462 164.586 82.6792 164.279C83.4262 163.959 84.2521 163.799 85.1591 163.799C86.0661 163.799 86.8862 163.959 87.6192 164.279C88.3662 164.586 88.9991 165.046 89.5191 165.659C90.0521 166.259 90.4592 167.012 90.7392 167.919C91.0322 168.812 91.1792 169.846 91.1792 171.019C91.1792 173.099 90.7462 174.746 89.8792 175.959C89.0122 177.159 87.8391 177.886 86.3591 178.139V179.579H88.4991V181.459ZM85.1591 176.219C85.6921 176.219 86.1792 176.126 86.6192 175.939C87.0722 175.752 87.4522 175.486 87.7592 175.139C88.0792 174.779 88.3261 174.346 88.4991 173.839C88.6721 173.332 88.7592 172.759 88.7592 172.119V169.919C88.7592 169.279 88.6721 168.706 88.4991 168.199C88.3261 167.692 88.0792 167.266 87.7592 166.919C87.4522 166.559 87.0722 166.286 86.6192 166.099C86.1792 165.912 85.6921 165.819 85.1591 165.819C84.6121 165.819 84.1192 165.912 83.6792 166.099C83.2392 166.286 82.8592 166.559 82.5392 166.919C82.2322 167.266 81.9922 167.692 81.8192 168.199C81.6462 168.706 81.5592 169.279 81.5592 169.919V172.119C81.5592 172.759 81.6462 173.332 81.8192 173.839C81.9922 174.346 82.2322 174.779 82.5392 175.139C82.8592 175.486 83.2392 175.752 83.6792 175.939C84.1192 176.126 84.6121 176.219 85.1591 176.219ZM97.9172 178.239C97.1972 178.239 96.5371 178.112 95.9371 177.859C95.3511 177.606 94.8511 177.246 94.4371 176.779C94.0241 176.299 93.7042 175.726 93.4772 175.059C93.2512 174.379 93.1371 173.626 93.1371 172.799C93.1371 171.972 93.2512 171.226 93.4772 170.559C93.7042 169.879 94.0241 169.306 94.4371 168.839C94.8511 168.359 95.3511 167.992 95.9371 167.739C96.5371 167.486 97.1972 167.359 97.9172 167.359C98.6372 167.359 99.2912 167.486 99.8772 167.739C100.477 167.992 100.984 168.359 101.397 168.839C101.811 169.306 102.131 169.879 102.357 170.559C102.584 171.226 102.697 171.972 102.697 172.799C102.697 173.626 102.584 174.379 102.357 175.059C102.131 175.726 101.811 176.299 101.397 176.779C100.984 177.246 100.477 177.606 99.8772 177.859C99.2912 178.112 98.6372 178.239 97.9172 178.239ZM97.9172 176.439C98.6642 176.439 99.2641 176.212 99.7171 175.759C100.171 175.292 100.397 174.599 100.397 173.679V171.919C100.397 170.999 100.171 170.312 99.7171 169.859C99.2641 169.392 98.6642 169.159 97.9172 169.159C97.1712 169.159 96.5712 169.392 96.1172 169.859C95.6642 170.312 95.4371 170.999 95.4371 171.919V173.679C95.4371 174.599 95.6642 175.292 96.1172 175.759C96.5712 176.212 97.1712 176.439 97.9172 176.439ZM103.95 167.599H106.07L107.13 171.959L108.07 175.899H108.13L109.21 171.959L110.47 167.599H112.43L113.71 171.959L114.81 175.899H114.87L115.79 171.959L116.87 167.599H118.89L116.09 177.999H113.63L112.27 173.259L111.43 170.339H111.39L110.57 173.259L109.19 177.999H106.79L103.95 167.599ZM128.371 177.999C127.798 177.999 127.358 177.839 127.051 177.519C126.745 177.186 126.558 176.766 126.491 176.259H126.391C126.191 176.912 125.825 177.406 125.291 177.739C124.758 178.072 124.111 178.239 123.351 178.239C122.271 178.239 121.438 177.959 120.851 177.399C120.278 176.839 119.991 176.086 119.991 175.139C119.991 174.099 120.365 173.319 121.111 172.799C121.871 172.279 122.978 172.019 124.431 172.019H126.311V171.139C126.311 170.499 126.138 170.006 125.791 169.659C125.445 169.312 124.905 169.139 124.171 169.139C123.558 169.139 123.058 169.272 122.671 169.539C122.285 169.806 121.958 170.146 121.691 170.559L120.391 169.379C120.738 168.792 121.225 168.312 121.851 167.939C122.478 167.552 123.298 167.359 124.311 167.359C125.658 167.359 126.691 167.672 127.411 168.299C128.131 168.926 128.491 169.826 128.491 170.999V176.219H129.591V177.999H128.371ZM123.971 176.579C124.651 176.579 125.211 176.432 125.651 176.139C126.091 175.832 126.311 175.426 126.311 174.919V173.419H124.471C122.965 173.419 122.211 173.886 122.211 174.819V175.179C122.211 175.646 122.365 175.999 122.671 176.239C122.991 176.466 123.425 176.579 123.971 176.579ZM133.948 177.999C133.201 177.999 132.641 177.812 132.268 177.439C131.908 177.052 131.728 176.519 131.728 175.839V163.199H133.908V176.219H135.348V177.999H133.948ZM140.213 177.999C139.453 177.999 138.88 177.806 138.493 177.419C138.107 177.019 137.913 176.459 137.913 175.739V169.379H136.293V167.599H137.173C137.533 167.599 137.78 167.519 137.913 167.359C138.06 167.199 138.133 166.939 138.133 166.579V164.759H140.093V167.599H142.273V169.379H140.093V176.219H142.113V177.999H140.213ZM147.938 178.239C146.951 178.239 146.125 178.066 145.458 177.719C144.791 177.372 144.211 176.892 143.718 176.279L145.118 174.999C145.505 175.466 145.931 175.832 146.398 176.099C146.878 176.352 147.431 176.479 148.058 176.479C148.698 176.479 149.171 176.359 149.478 176.119C149.798 175.866 149.958 175.519 149.958 175.079C149.958 174.746 149.845 174.466 149.618 174.239C149.405 173.999 149.025 173.846 148.478 173.779L147.518 173.659C146.451 173.526 145.611 173.219 144.998 172.739C144.398 172.246 144.098 171.519 144.098 170.559C144.098 170.052 144.191 169.606 144.378 169.219C144.565 168.819 144.825 168.486 145.158 168.219C145.505 167.939 145.911 167.726 146.378 167.579C146.858 167.432 147.385 167.359 147.958 167.359C148.891 167.359 149.651 167.506 150.238 167.799C150.838 168.092 151.371 168.499 151.838 169.019L150.498 170.299C150.231 169.979 149.878 169.706 149.438 169.479C149.011 169.239 148.518 169.119 147.958 169.119C147.358 169.119 146.911 169.239 146.618 169.479C146.338 169.719 146.198 170.032 146.198 170.419C146.198 170.819 146.325 171.119 146.578 171.319C146.831 171.519 147.238 171.666 147.798 171.759L148.758 171.879C149.905 172.052 150.738 172.392 151.258 172.899C151.791 173.392 152.058 174.059 152.058 174.899C152.058 175.406 151.958 175.866 151.758 176.279C151.571 176.679 151.298 177.026 150.938 177.319C150.578 177.612 150.145 177.839 149.638 177.999C149.131 178.159 148.565 178.239 147.938 178.239Z" fill="#3C3C3C"/>
<path d="M90.3022 269.001V255.041H99.2422V257.041H92.5622V260.921H98.6222V262.921H92.5622V267.001H99.2422V269.001H90.3022ZM107.398 269.241C105.571 269.241 104.138 268.628 103.098 267.401C102.058 266.161 101.538 264.368 101.538 262.021C101.538 260.848 101.671 259.814 101.938 258.921C102.204 258.028 102.591 257.274 103.098 256.661C103.604 256.048 104.218 255.588 104.938 255.281C105.671 254.961 106.491 254.801 107.398 254.801C108.611 254.801 109.624 255.068 110.438 255.601C111.264 256.134 111.911 256.921 112.378 257.961L110.478 259.001C110.238 258.334 109.864 257.808 109.358 257.421C108.864 257.021 108.211 256.821 107.398 256.821C106.318 256.821 105.471 257.188 104.858 257.921C104.244 258.654 103.938 259.668 103.938 260.961V263.081C103.938 264.374 104.244 265.388 104.858 266.121C105.471 266.854 106.318 267.221 107.398 267.221C108.238 267.221 108.918 267.008 109.438 266.581C109.971 266.141 110.364 265.581 110.618 264.901L112.438 266.001C111.971 267.014 111.318 267.808 110.478 268.381C109.638 268.954 108.611 269.241 107.398 269.241ZM119.819 269.241C117.993 269.241 116.559 268.628 115.519 267.401C114.479 266.161 113.959 264.368 113.959 262.021C113.959 260.848 114.093 259.814 114.359 258.921C114.626 258.028 115.013 257.274 115.519 256.661C116.026 256.048 116.639 255.588 117.359 255.281C118.093 254.961 118.913 254.801 119.819 254.801C121.033 254.801 122.046 255.068 122.859 255.601C123.686 256.134 124.333 256.921 124.799 257.961L122.899 259.001C122.659 258.334 122.286 257.808 121.779 257.421C121.286 257.021 120.633 256.821 119.819 256.821C118.739 256.821 117.893 257.188 117.279 257.921C116.666 258.654 116.359 259.668 116.359 260.961V263.081C116.359 264.374 116.666 265.388 117.279 266.121C117.893 266.854 118.739 267.221 119.819 267.221C120.659 267.221 121.339 267.008 121.859 266.581C122.393 266.141 122.786 265.581 123.039 264.901L124.859 266.001C124.393 267.014 123.739 267.808 122.899 268.381C122.059 268.954 121.033 269.241 119.819 269.241ZM130.395 269.241C129.408 269.241 128.582 269.068 127.915 268.721C127.248 268.374 126.668 267.894 126.175 267.281L127.575 266.001C127.962 266.468 128.388 266.834 128.855 267.101C129.335 267.354 129.888 267.481 130.515 267.481C131.155 267.481 131.628 267.361 131.935 267.121C132.255 266.868 132.415 266.521 132.415 266.081C132.415 265.748 132.302 265.468 132.075 265.241C131.862 265.001 131.482 264.848 130.935 264.781L129.975 264.661C128.908 264.528 128.068 264.221 127.455 263.741C126.855 263.248 126.555 262.521 126.555 261.561C126.555 261.054 126.648 260.608 126.835 260.221C127.022 259.821 127.282 259.488 127.615 259.221C127.962 258.941 128.368 258.728 128.835 258.581C129.315 258.434 129.842 258.361 130.415 258.361C131.348 258.361 132.108 258.508 132.695 258.801C133.295 259.094 133.828 259.501 134.295 260.021L132.955 261.301C132.688 260.981 132.335 260.708 131.895 260.481C131.468 260.241 130.975 260.121 130.415 260.121C129.815 260.121 129.368 260.241 129.075 260.481C128.795 260.721 128.655 261.034 128.655 261.421C128.655 261.821 128.782 262.121 129.035 262.321C129.288 262.521 129.695 262.668 130.255 262.761L131.215 262.881C132.362 263.054 133.195 263.394 133.715 263.901C134.248 264.394 134.515 265.061 134.515 265.901C134.515 266.408 134.415 266.868 134.215 267.281C134.028 267.681 133.755 268.028 133.395 268.321C133.035 268.614 132.602 268.841 132.095 269.001C131.588 269.161 131.022 269.241 130.395 269.241Z" fill="#3C3C3C"/>
<path d="M600.208 82.0391H605.148C606.042 82.0391 606.848 82.1861 607.568 82.4791C608.302 82.7721 608.922 83.2121 609.428 83.7991C609.948 84.3721 610.348 85.0991 610.628 85.9791C610.908 86.8461 611.048 87.8591 611.048 89.0191C611.048 90.1791 610.908 91.1991 610.628 92.0791C610.348 92.9461 609.948 93.6721 609.428 94.2591C608.922 94.8321 608.302 95.2661 607.568 95.5591C606.848 95.8521 606.042 95.9991 605.148 95.9991H600.208V82.0391ZM605.148 93.9991C606.188 93.9991 607.028 93.6721 607.668 93.0191C608.308 92.3661 608.628 91.4061 608.628 90.1391V87.8991C608.628 86.6321 608.308 85.6721 607.668 85.0191C607.028 84.3661 606.188 84.0391 605.148 84.0391H602.468V93.9991H605.148ZM614.801 83.7391C614.347 83.7391 614.014 83.6321 613.801 83.4191C613.601 83.2061 613.501 82.9321 613.501 82.5991V82.2591C613.501 81.9261 613.601 81.6521 613.801 81.4391C614.014 81.2261 614.347 81.1191 614.801 81.1191C615.254 81.1191 615.581 81.2261 615.781 81.4391C615.981 81.6521 616.081 81.9261 616.081 82.2591V82.5991C616.081 82.9321 615.981 83.2061 615.781 83.4191C615.581 83.6321 615.254 83.7391 614.801 83.7391ZM613.701 85.5991H615.881V95.9991H613.701V85.5991ZM618.994 85.5991H621.174V97.3991C621.174 98.1991 620.967 98.8321 620.554 99.2991C620.154 99.7661 619.514 99.9991 618.634 99.9991H617.374V98.2191H618.994V85.5991ZM620.094 83.7391C619.64 83.7391 619.307 83.6321 619.094 83.4191C618.894 83.2061 618.794 82.9321 618.794 82.5991V82.2591C618.794 81.9261 618.894 81.6521 619.094 81.4391C619.307 81.2261 619.64 81.1191 620.094 81.1191C620.547 81.1191 620.874 81.2261 621.074 81.4391C621.274 81.6521 621.374 81.9261 621.374 82.2591V82.5991C621.374 82.9321 621.274 83.2061 621.074 83.4191C620.874 83.6321 620.547 83.7391 620.094 83.7391ZM628.367 96.2391C627.62 96.2391 626.953 96.1121 626.367 95.8591C625.78 95.6061 625.28 95.2461 624.867 94.7791C624.453 94.2991 624.133 93.7261 623.907 93.0591C623.693 92.3791 623.587 91.6261 623.587 90.7991C623.587 89.9721 623.693 89.2261 623.907 88.5591C624.133 87.8791 624.453 87.3061 624.867 86.8391C625.28 86.3591 625.78 85.9921 626.367 85.7391C626.953 85.4861 627.62 85.3591 628.367 85.3591C629.127 85.3591 629.793 85.4921 630.367 85.7591C630.953 86.0261 631.44 86.3991 631.827 86.8791C632.213 87.3461 632.5 87.8921 632.687 88.5191C632.887 89.1461 632.987 89.8191 632.987 90.5391V91.3591H625.847V91.6991C625.847 92.4991 626.08 93.1591 626.547 93.6791C627.027 94.1861 627.707 94.4391 628.587 94.4391C629.227 94.4391 629.767 94.2991 630.207 94.0191C630.647 93.7391 631.02 93.3591 631.327 92.8791L632.607 94.1391C632.22 94.7791 631.66 95.2921 630.927 95.6791C630.193 96.0521 629.34 96.2391 628.367 96.2391ZM628.367 87.0591C627.993 87.0591 627.647 87.1261 627.327 87.2591C627.02 87.3921 626.753 87.5791 626.527 87.8191C626.313 88.0591 626.147 88.3461 626.027 88.6791C625.907 89.0121 625.847 89.3791 625.847 89.7791V89.9191H630.687V89.7191C630.687 88.9191 630.48 88.2791 630.067 87.7991C629.653 87.3061 629.087 87.0591 628.367 87.0591ZM638.28 95.9991C637.52 95.9991 636.947 95.8061 636.56 95.4191C636.173 95.0191 635.98 94.4591 635.98 93.7391V87.3791H634.36V85.5991H635.24C635.6 85.5991 635.847 85.5191 635.98 85.3591C636.127 85.1991 636.2 84.9391 636.2 84.5791V82.7591H638.16V85.5991H640.34V87.3791H638.16V94.2191H640.18V95.9991H638.28ZM646.706 96.2391C645.96 96.2391 645.293 96.1121 644.706 95.8591C644.12 95.6061 643.62 95.2461 643.206 94.7791C642.793 94.2991 642.473 93.7261 642.246 93.0591C642.033 92.3791 641.926 91.6261 641.926 90.7991C641.926 89.9721 642.033 89.2261 642.246 88.5591C642.473 87.8791 642.793 87.3061 643.206 86.8391C643.62 86.3591 644.12 85.9921 644.706 85.7391C645.293 85.4861 645.96 85.3591 646.706 85.3591C647.466 85.3591 648.133 85.4921 648.706 85.7591C649.293 86.0261 649.78 86.3991 650.166 86.8791C650.553 87.3461 650.84 87.8921 651.026 88.5191C651.226 89.1461 651.326 89.8191 651.326 90.5391V91.3591H644.186V91.6991C644.186 92.4991 644.42 93.1591 644.886 93.6791C645.366 94.1861 646.046 94.4391 646.926 94.4391C647.566 94.4391 648.106 94.2991 648.546 94.0191C648.986 93.7391 649.36 93.3591 649.666 92.8791L650.946 94.1391C650.56 94.7791 650 95.2921 649.266 95.6791C648.533 96.0521 647.68 96.2391 646.706 96.2391ZM646.706 87.0591C646.333 87.0591 645.986 87.1261 645.666 87.2591C645.36 87.3921 645.093 87.5791 644.866 87.8191C644.653 88.0591 644.486 88.3461 644.366 88.6791C644.246 89.0121 644.186 89.3791 644.186 89.7791V89.9191H649.026V89.7191C649.026 88.9191 648.82 88.2791 648.406 87.7991C647.993 87.3061 647.426 87.0591 646.706 87.0591ZM652.306 95.9991L655.966 90.7391L652.406 85.5991H654.926L657.266 89.2191H657.326L659.726 85.5991H662.046L658.486 90.7191L662.106 95.9991H659.586L657.186 92.2191H657.126L654.626 95.9991H652.306Z" fill="#3C3C3C"/>
<path d="M612.312 183.239C610.485 183.239 609.052 182.626 608.012 181.399C606.972 180.159 606.452 178.366 606.452 176.019C606.452 174.846 606.585 173.812 606.852 172.919C607.118 172.026 607.505 171.272 608.012 170.659C608.518 170.046 609.132 169.586 609.852 169.279C610.585 168.959 611.405 168.799 612.312 168.799C613.525 168.799 614.538 169.066 615.352 169.599C616.178 170.132 616.825 170.919 617.292 171.959L615.392 172.999C615.152 172.332 614.778 171.806 614.272 171.419C613.778 171.019 613.125 170.819 612.312 170.819C611.232 170.819 610.385 171.186 609.772 171.919C609.158 172.652 608.852 173.666 608.852 174.959V177.079C608.852 178.372 609.158 179.386 609.772 180.119C610.385 180.852 611.232 181.219 612.312 181.219C613.152 181.219 613.832 181.006 614.352 180.579C614.885 180.139 615.278 179.579 615.532 178.899L617.352 179.999C616.885 181.012 616.232 181.806 615.392 182.379C614.552 182.952 613.525 183.239 612.312 183.239ZM619.587 182.999V172.599H621.767V174.599H621.867C622.014 174.066 622.321 173.599 622.787 173.199C623.254 172.799 623.901 172.599 624.727 172.599H625.307V174.699H624.447C623.581 174.699 622.914 174.839 622.447 175.119C621.994 175.399 621.767 175.812 621.767 176.359V182.999H619.587ZM631.226 183.239C630.479 183.239 629.813 183.112 629.226 182.859C628.639 182.606 628.139 182.246 627.726 181.779C627.313 181.299 626.993 180.726 626.766 180.059C626.553 179.379 626.446 178.626 626.446 177.799C626.446 176.972 626.553 176.226 626.766 175.559C626.993 174.879 627.313 174.306 627.726 173.839C628.139 173.359 628.639 172.992 629.226 172.739C629.813 172.486 630.479 172.359 631.226 172.359C631.986 172.359 632.653 172.492 633.226 172.759C633.813 173.026 634.299 173.399 634.686 173.879C635.073 174.346 635.359 174.892 635.546 175.519C635.746 176.146 635.846 176.819 635.846 177.539V178.359H628.706V178.699C628.706 179.499 628.939 180.159 629.406 180.679C629.886 181.186 630.566 181.439 631.446 181.439C632.086 181.439 632.626 181.299 633.066 181.019C633.506 180.739 633.879 180.359 634.186 179.879L635.466 181.139C635.079 181.779 634.519 182.292 633.786 182.679C633.053 183.052 632.199 183.239 631.226 183.239ZM631.226 174.059C630.853 174.059 630.506 174.126 630.186 174.259C629.879 174.392 629.613 174.579 629.386 174.819C629.173 175.059 629.006 175.346 628.886 175.679C628.766 176.012 628.706 176.379 628.706 176.779V176.919H633.546V176.719C633.546 175.919 633.339 175.279 632.926 174.799C632.513 174.306 631.946 174.059 631.226 174.059ZM642.339 183.239C641.593 183.239 640.926 183.112 640.339 182.859C639.753 182.606 639.253 182.246 638.839 181.779C638.426 181.299 638.106 180.726 637.879 180.059C637.666 179.379 637.559 178.626 637.559 177.799C637.559 176.972 637.666 176.226 637.879 175.559C638.106 174.879 638.426 174.306 638.839 173.839C639.253 173.359 639.753 172.992 640.339 172.739C640.926 172.486 641.593 172.359 642.339 172.359C643.099 172.359 643.766 172.492 644.339 172.759C644.926 173.026 645.413 173.399 645.799 173.879C646.186 174.346 646.473 174.892 646.659 175.519C646.859 176.146 646.959 176.819 646.959 177.539V178.359H639.819V178.699C639.819 179.499 640.053 180.159 640.519 180.679C640.999 181.186 641.679 181.439 642.559 181.439C643.199 181.439 643.739 181.299 644.179 181.019C644.619 180.739 644.993 180.359 645.299 179.879L646.579 181.139C646.193 181.779 645.633 182.292 644.899 182.679C644.166 183.052 643.313 183.239 642.339 183.239ZM642.339 174.059C641.966 174.059 641.619 174.126 641.299 174.259C640.993 174.392 640.726 174.579 640.499 174.819C640.286 175.059 640.119 175.346 639.999 175.679C639.879 176.012 639.819 176.379 639.819 176.779V176.919H644.659V176.719C644.659 175.919 644.453 175.279 644.039 174.799C643.626 174.306 643.059 174.059 642.339 174.059ZM655.913 181.279H655.813C655.586 181.892 655.213 182.372 654.693 182.719C654.186 183.066 653.586 183.239 652.893 183.239C651.573 183.239 650.553 182.766 649.833 181.819C649.113 180.859 648.753 179.519 648.753 177.799C648.753 176.079 649.113 174.746 649.833 173.799C650.553 172.839 651.573 172.359 652.893 172.359C653.586 172.359 654.186 172.532 654.693 172.879C655.213 173.212 655.586 173.692 655.813 174.319H655.913V168.199H658.092V182.999H655.913V181.279ZM653.553 181.359C654.219 181.359 654.779 181.199 655.233 180.879C655.686 180.546 655.913 180.112 655.913 179.579V176.019C655.913 175.486 655.686 175.059 655.233 174.739C654.779 174.406 654.219 174.239 653.553 174.239C652.793 174.239 652.186 174.486 651.733 174.979C651.279 175.459 651.053 176.099 651.053 176.899V178.699C651.053 179.499 651.279 180.146 651.733 180.639C652.186 181.119 652.793 181.359 653.553 181.359Z" fill="#3C3C3C"/>
<path d="M628.501 271.999L627.241 268.219H622.021L620.801 271.999H618.501L623.261 258.039H626.101L630.861 271.999H628.501ZM624.681 260.119H624.581L622.561 266.279H626.681L624.681 260.119ZM632.863 271.999V261.599H635.043V263.599H635.143C635.289 263.066 635.596 262.599 636.063 262.199C636.529 261.799 637.176 261.599 638.003 261.599H638.583V263.699H637.723C636.856 263.699 636.189 263.839 635.723 264.119C635.269 264.399 635.043 264.812 635.043 265.359V271.999H632.863ZM644.441 272.239C643.695 272.239 643.028 272.112 642.441 271.859C641.855 271.606 641.361 271.246 640.961 270.779C640.561 270.299 640.255 269.726 640.041 269.059C639.828 268.379 639.721 267.626 639.721 266.799C639.721 265.972 639.828 265.226 640.041 264.559C640.255 263.879 640.561 263.306 640.961 262.839C641.361 262.359 641.855 261.992 642.441 261.739C643.028 261.486 643.695 261.359 644.441 261.359C645.481 261.359 646.335 261.592 647.001 262.059C647.668 262.526 648.155 263.146 648.461 263.919L646.661 264.759C646.515 264.279 646.255 263.899 645.881 263.619C645.521 263.326 645.041 263.179 644.441 263.179C643.641 263.179 643.035 263.432 642.621 263.939C642.221 264.432 642.021 265.079 642.021 265.879V267.739C642.021 268.539 642.221 269.192 642.621 269.699C643.035 270.192 643.641 270.439 644.441 270.439C645.081 270.439 645.588 270.286 645.961 269.979C646.348 269.659 646.655 269.239 646.881 268.719L648.541 269.599C648.195 270.452 647.675 271.106 646.981 271.559C646.288 272.012 645.441 272.239 644.441 272.239ZM653.917 272.239C652.93 272.239 652.103 272.066 651.437 271.719C650.77 271.372 650.19 270.892 649.697 270.279L651.097 268.999C651.483 269.466 651.91 269.832 652.377 270.099C652.857 270.352 653.41 270.479 654.037 270.479C654.677 270.479 655.15 270.359 655.457 270.119C655.777 269.866 655.937 269.519 655.937 269.079C655.937 268.746 655.823 268.466 655.597 268.239C655.383 267.999 655.003 267.846 654.457 267.779L653.497 267.659C652.43 267.526 651.59 267.219 650.977 266.739C650.377 266.246 650.077 265.519 650.077 264.559C650.077 264.052 650.17 263.606 650.357 263.219C650.543 262.819 650.803 262.486 651.137 262.219C651.483 261.939 651.89 261.726 652.357 261.579C652.837 261.432 653.363 261.359 653.937 261.359C654.87 261.359 655.63 261.506 656.217 261.799C656.817 262.092 657.35 262.499 657.817 263.019L656.477 264.299C656.21 263.979 655.857 263.706 655.417 263.479C654.99 263.239 654.497 263.119 653.937 263.119C653.337 263.119 652.89 263.239 652.597 263.479C652.317 263.719 652.177 264.032 652.177 264.419C652.177 264.819 652.303 265.119 652.557 265.319C652.81 265.519 653.217 265.666 653.777 265.759L654.737 265.879C655.883 266.052 656.717 266.392 657.237 266.899C657.77 267.392 658.037 268.059 658.037 268.899C658.037 269.406 657.937 269.866 657.737 270.279C657.55 270.679 657.277 271.026 656.917 271.319C656.557 271.612 656.123 271.839 655.617 271.999C655.11 272.159 654.543 272.239 653.917 272.239Z" fill="#3C3C3C"/>
<path fill-rule="evenodd" clip-rule="evenodd" d="M68 172.001C68 178.629 62.627 184 56.001 184C49.373 184 44 178.629 44 172.001C44 165.373 49.373 160 56.001 160C62.627 160 68 165.373 68 172.001ZM52.565 166.282C52.273 166.282 51.981 166.281 51.689 166.281H49.081C48.992 166.281 48.948 166.327 48.946 166.419V171.625C48.946 171.714 48.992 171.76 49.081 171.76H51.058C51.142 171.758 51.176 171.781 51.171 171.868C51.164 171.972 51.161 172.075 51.159 172.178C51.158 172.229 51.157 172.281 51.155 172.333C51.122 173.142 50.711 173.737 50.072 174.189C49.763 174.409 49.398 174.491 49.033 174.562C48.969 174.575 48.946 174.596 48.946 174.662C48.948 175.306 48.948 175.947 48.946 176.588C48.946 176.665 48.971 176.688 49.043 176.677C49.114 176.669 49.186 176.662 49.257 176.654C49.363 176.643 49.469 176.632 49.574 176.619C50.417 176.506 51.232 176.292 51.983 175.88C52.892 175.385 53.554 174.662 53.96 173.704C54.307 172.887 54.435 172.023 54.437 171.14C54.44 170.236 54.44 169.334 54.44 168.431C54.439 167.754 54.439 167.077 54.44 166.399C54.44 166.302 54.409 166.279 54.317 166.281C53.733 166.283 53.149 166.283 52.565 166.282Z" fill="#2F2F2F"/>
<defs>
<filter id="filter0_d_1891_586" x="286" y="80" width="191" height="190.994" filterUnits="userSpaceOnUse" color-interpolation-filters="sRGB">
<feFlood flood-opacity="0" result="BackgroundImageFix"/>
<feColorMatrix in="SourceAlpha" type="matrix" values="0 0 0 0 0 0 0 0 0 0 0 0 0 0 0 0 0 0 127 0" result="hardAlpha"/>
<feOffset dx="-3" dy="-2"/>
<feGaussianBlur stdDeviation="2"/>
<feComposite in2="hardAlpha" operator="out"/>
<feColorMatrix type="matrix" values="0 0 0 0 0.0796983 0 0 0 0 0.0812874 0 0 0 0 0.0824381 0 0 0 0.11 0"/>
<feBlend mode="normal" in2="BackgroundImageFix" result="effect1_dropShadow_1891_586"/>
<feBlend mode="normal" in="SourceGraphic" in2="effect1_dropShadow_1891_586" result="shape"/>
</filter>
<filter id="filter1_f_1891_586" x="331.177" y="119.946" width="106.165" height="114.146" filterUnits="userSpaceOnUse" color-interpolation-filters="sRGB">
<feFlood flood-opacity="0" result="BackgroundImageFix"/>
<feBlend mode="normal" in="SourceGraphic" in2="BackgroundImageFix" result="shape"/>
<feGaussianBlur stdDeviation="8.7" result="effect1_foregroundBlur_1891_586"/>
</filter>
<linearGradient id="paint0_linear_1891_586" x1="382.231" y1="162.384" x2="382.231" y2="306.123" gradientUnits="userSpaceOnUse">
<stop stop-color="#DFDFDF"/>
<stop offset="1" stop-color="#F1F3F5" stop-opacity="0"/>
</linearGradient>
<radialGradient id="paint1_radial_1891_586" cx="0" cy="0" r="1" gradientUnits="userSpaceOnUse" gradientTransform="translate(379.301 255.89) rotate(-0.330002) scale(165.087 211.693)">
<stop offset="0.583333" stop-color="#C7C7C7"/>
<stop offset="0.90625" stop-color="#AAA7A7" stop-opacity="0.14"/>
<stop offset="1" stop-color="#979797" stop-opacity="0.07"/>
</radialGradient>
<linearGradient id="paint2_linear_1891_586" x1="103.568" y1="59.5965" x2="103.568" y2="107.963" gradientUnits="userSpaceOnUse">
<stop stop-color="#EBEBEB"/>
<stop offset="1" stop-color="#E4E4E4" stop-opacity="0.49"/>
</linearGradient>
<linearGradient id="paint3_linear_1891_586" x1="239.316" y1="84.2285" x2="268.626" y2="84.2285" gradientUnits="userSpaceOnUse">
<stop stop-color="#B6B6B6"/>
<stop offset="1" stop-color="#FAFAFA" stop-opacity="0"/>
</linearGradient>
<linearGradient id="paint4_linear_1891_586" x1="102.709" y1="237.745" x2="102.709" y2="282.98" gradientUnits="userSpaceOnUse">
<stop stop-color="#EBEBEB"/>
<stop offset="1" stop-color="#E4E4E4" stop-opacity="0.49"/>
</linearGradient>
<linearGradient id="paint5_linear_1891_586" x1="241.316" y1="260.277" x2="270.626" y2="260.277" gradientUnits="userSpaceOnUse">
<stop stop-color="#B6B6B6"/>
<stop offset="1" stop-color="#FAFAFA" stop-opacity="0"/>
</linearGradient>
<linearGradient id="paint6_linear_1891_586" x1="102.709" y1="148.744" x2="102.709" y2="193.979" gradientUnits="userSpaceOnUse">
<stop stop-color="#EBEBEB"/>
<stop offset="1" stop-color="#E4E4E4" stop-opacity="0.49"/>
</linearGradient>
<linearGradient id="paint7_linear_1891_586" x1="241.316" y1="171.277" x2="270.626" y2="171.277" gradientUnits="userSpaceOnUse">
<stop stop-color="#B6B6B6"/>
<stop offset="1" stop-color="#FAFAFA" stop-opacity="0"/>
</linearGradient>
<linearGradient id="paint8_linear_1891_586" x1="655.585" y1="64.597" x2="655.585" y2="112.963" gradientUnits="userSpaceOnUse">
<stop stop-color="#EBEBEB"/>
<stop offset="1" stop-color="#E4E4E4" stop-opacity="0.49"/>
</linearGradient>
<linearGradient id="paint9_linear_1891_586" x1="519.837" y1="89.2285" x2="490.527" y2="89.2285" gradientUnits="userSpaceOnUse">
<stop stop-color="#B6B6B6"/>
<stop offset="1" stop-color="#FAFAFA" stop-opacity="0"/>
</linearGradient>
<linearGradient id="paint10_linear_1891_586" x1="656.444" y1="242.745" x2="656.444" y2="287.98" gradientUnits="userSpaceOnUse">
<stop stop-color="#EBEBEB"/>
<stop offset="1" stop-color="#E4E4E4" stop-opacity="0.49"/>
</linearGradient>
<linearGradient id="paint11_linear_1891_586" x1="517.837" y1="265.277" x2="488.527" y2="265.277" gradientUnits="userSpaceOnUse">
<stop stop-color="#B6B6B6"/>
<stop offset="1" stop-color="#FAFAFA" stop-opacity="0"/>
</linearGradient>
<linearGradient id="paint12_linear_1891_586" x1="656.444" y1="153.744" x2="656.444" y2="198.979" gradientUnits="userSpaceOnUse">
<stop stop-color="#EBEBEB"/>
<stop offset="1" stop-color="#E4E4E4" stop-opacity="0.49"/>
</linearGradient>
<linearGradient id="paint13_linear_1891_586" x1="517.837" y1="176.277" x2="488.527" y2="176.277" gradientUnits="userSpaceOnUse">
<stop stop-color="#B6B6B6"/>
<stop offset="1" stop-color="#FAFAFA" stop-opacity="0"/>
</linearGradient>
<linearGradient id="paint14_linear_1891_586" x1="48.81" y1="93.5937" x2="45.2" y2="90.9327" gradientUnits="userSpaceOnUse">
<stop stop-color="white"/>
<stop offset="1" stop-opacity="0"/>
</linearGradient>
<linearGradient id="paint15_linear_1891_586" x1="62.6479" y1="91.4959" x2="59.0509" y2="88.8519" gradientUnits="userSpaceOnUse">
<stop stop-color="white"/>
<stop offset="1" stop-opacity="0"/>
</linearGradient>
<linearGradient id="paint16_linear_1891_586" x1="54.835" y1="77.165" x2="62.526" y2="87.0089" gradientUnits="userSpaceOnUse">
<stop stop-color="white"/>
<stop offset="1" stop-color="white" stop-opacity="0"/>
</linearGradient>
<linearGradient id="paint17_linear_1891_586" x1="55.8359" y1="83.3734" x2="53.0909" y2="80.5684" gradientUnits="userSpaceOnUse">
<stop stop-color="white"/>
<stop offset="1" stop-color="white" stop-opacity="0"/>
</linearGradient>
</defs>
</svg>
