<svg width="967" height="401" viewBox="0 0 967 401" fill="none" xmlns="http://www.w3.org/2000/svg">
<g clip-path="url(#clip0_110_9481)">
<path d="M100.457 400.031L479.794 199.08L848.005 400.031H100.457Z" fill="url(#paint0_linear_110_9481)"/>
<path d="M663.856 353.23V143.743L481.523 39M663.856 353.23L481.523 457.974L299.191 353.23M663.856 353.23L482.03 253.066M299.191 353.23L293 137.126M299.191 353.23L482.766 253.264M482.445 253.567V44.0949M525.838 278.79V75.3271M567.543 300.173V98.3892M614.566 326.077V126.269M437.737 277.786V75.327M397.589 299.648V98.4583M349.008 326.102V126.269M299.897 309.189L482.048 204.025M299.897 259.703L482.048 154.538M299.897 210.216L482.048 105.052M665 309.398L482.85 204.234M665 259.912L482.85 154.747M665 210.425L482.85 105.261" stroke="url(#paint1_radial_110_9481)" stroke-width="0.5"/>
<path d="M362.778 139.556C363.76 139.556 364.556 138.76 364.556 137.778C364.556 136.796 363.76 136 362.778 136C361.796 136 361 136.796 361 137.778C361 138.76 361.796 139.556 362.778 139.556Z" fill="#959595"/>
<path d="M623.778 155.556C624.76 155.556 625.556 154.76 625.556 153.778C625.556 152.796 624.76 152 623.778 152C622.796 152 622 152.796 622 153.778C622 154.76 622.796 155.556 623.778 155.556Z" fill="#959595"/>
<path d="M536.778 125.556C537.76 125.556 538.556 124.76 538.556 123.778C538.556 122.796 537.76 122 536.778 122C535.796 122 535 122.796 535 123.778C535 124.76 535.796 125.556 536.778 125.556Z" fill="#959595"/>
<path d="M591.896 199.091C592.988 199.091 593.872 198.211 593.872 197.125C593.872 196.039 592.988 195.158 591.896 195.158C590.805 195.158 589.92 196.039 589.92 197.125C589.92 198.211 590.805 199.091 591.896 199.091Z" fill="#8B8B8B"/>
<path d="M490.402 208.558C491.494 208.558 492.378 207.677 492.378 206.591C492.378 205.505 491.494 204.625 490.402 204.625C489.311 204.625 488.426 205.505 488.426 206.591C488.426 207.677 489.311 208.558 490.402 208.558Z" fill="#3DCB8C"/>
<path d="M409.517 205.391C411.266 205.391 412.683 203.981 412.683 202.242C412.683 200.502 411.266 199.092 409.517 199.092C407.769 199.092 406.352 200.502 406.352 202.242C406.352 203.981 407.769 205.391 409.517 205.391Z" fill="#959595"/>
<path d="M580.004 279.564C581.095 279.564 581.98 278.683 581.98 277.597C581.98 276.511 581.095 275.631 580.004 275.631C578.912 275.631 578.027 276.511 578.027 277.597C578.027 278.683 578.912 279.564 580.004 279.564Z" fill="#8B8B8B"/>
<path d="M590.112 260.254C591.094 260.254 591.89 259.457 591.89 258.475C591.89 257.493 591.094 256.697 590.112 256.697C589.13 256.697 588.334 257.493 588.334 258.475C588.334 259.457 589.13 260.254 590.112 260.254Z" fill="#959595"/>
<path d="M383.754 218.026C385.064 218.026 386.126 216.969 386.126 215.666C386.126 214.362 385.064 213.305 383.754 213.305C382.443 213.305 381.381 214.362 381.381 215.666C381.381 216.969 382.443 218.026 383.754 218.026Z" fill="#8B8B8B"/>
<path d="M391.882 188.459C392.864 188.459 393.66 187.663 393.66 186.68C393.66 185.698 392.864 184.902 391.882 184.902C390.9 184.902 390.104 185.698 390.104 186.68C390.104 187.663 390.9 188.459 391.882 188.459Z" fill="#8B8B8B"/>
<path d="M542.334 300.866C544.082 300.866 545.499 299.456 545.499 297.716C545.499 295.977 544.082 294.566 542.334 294.566C540.585 294.566 539.168 295.977 539.168 297.716C539.168 299.456 540.585 300.866 542.334 300.866Z" fill="#3DCB8C"/>
<path d="M403.166 152.3C404.914 152.3 406.331 150.89 406.331 149.15C406.331 147.411 404.914 146 403.166 146C401.417 146 400 147.411 400 149.15C400 150.89 401.417 152.3 403.166 152.3Z" fill="#3DCB8C"/>
<path d="M426.77 218.439C427.752 218.439 428.548 217.643 428.548 216.661C428.548 215.679 427.752 214.883 426.77 214.883C425.788 214.883 424.992 215.679 424.992 216.661C424.992 217.643 425.788 218.439 426.77 218.439Z" fill="#3DCB8C"/>
<path d="M510.621 137.552C511.493 137.552 512.201 136.848 512.201 135.98C512.201 135.112 511.493 134.408 510.621 134.408C509.748 134.408 509.041 135.112 509.041 135.98C509.041 136.848 509.748 137.552 510.621 137.552Z" fill="#959595"/>
<path d="M355.209 227.493C356.957 227.493 358.374 226.083 358.374 224.343C358.374 222.604 356.957 221.193 355.209 221.193C353.46 221.193 352.043 222.604 352.043 224.343C352.043 226.083 353.46 227.493 355.209 227.493Z" fill="#8B8B8B"/>
<path d="M367.116 269.72C368.098 269.72 368.894 268.924 368.894 267.942C368.894 266.96 368.098 266.164 367.116 266.164C366.134 266.164 365.338 266.96 365.338 267.942C365.338 268.924 366.134 269.72 367.116 269.72Z" fill="#959595"/>
<path d="M500.713 197.809C502.68 197.809 504.275 196.222 504.275 194.265C504.275 192.308 502.68 190.721 500.713 190.721C498.745 190.721 497.15 192.308 497.15 194.265C497.15 196.222 498.745 197.809 500.713 197.809Z" fill="#3DCB8C"/>
<path d="M401.599 308.751C403.785 308.751 405.558 306.987 405.558 304.812C405.558 302.636 403.785 300.873 401.599 300.873C399.413 300.873 397.641 302.636 397.641 304.812C397.641 306.987 399.413 308.751 401.599 308.751Z" fill="#8B8B8B"/>
<path d="M476.527 172.267C477.837 172.267 478.9 171.21 478.9 169.906C478.9 168.602 477.837 167.545 476.527 167.545C475.217 167.545 474.154 168.602 474.154 169.906C474.154 171.21 475.217 172.267 476.527 172.267Z" fill="#3DCB8C"/>
<path d="M457.894 163.329C459.861 163.329 461.456 161.742 461.456 159.785C461.456 157.827 459.861 156.24 457.894 156.24C455.927 156.24 454.332 157.827 454.332 159.785C454.332 161.742 455.927 163.329 457.894 163.329Z" fill="#3DCB8C"/>
<path d="M466.961 240.122C467.833 240.122 468.54 239.419 468.54 238.55C468.54 237.682 467.833 236.979 466.961 236.979C466.088 236.979 465.381 237.682 465.381 238.55C465.381 239.419 466.088 240.122 466.961 240.122Z" fill="#3DCB8C"/>
<path d="M571.958 142.877C574.145 142.877 575.917 141.114 575.917 138.939C575.917 136.763 574.145 135 571.958 135C569.772 135 568 136.763 568 138.939C568 141.114 569.772 142.877 571.958 142.877Z" fill="#8B8B8B"/>
<path d="M450.379 190.354C452.346 190.354 453.941 188.767 453.941 186.81C453.941 184.852 452.346 183.266 450.379 183.266C448.411 183.266 446.816 184.852 446.816 186.81C446.816 188.767 448.411 190.354 450.379 190.354Z" fill="#3DCB8C"/>
<g filter="url(#filter0_d_110_9481)">
<path d="M575.996 215.422C576.013 236.431 568.797 256.808 555.561 273.128C542.334 289.449 523.882 300.713 503.325 305.037C482.76 309.359 461.34 306.473 442.653 296.866C423.968 287.259 409.167 271.51 400.717 252.274C392.269 233.032 390.704 211.473 396.285 191.215C401.857 170.959 414.237 153.239 431.336 141.03C448.438 128.822 469.218 122.871 490.181 124.177C511.154 125.483 531.039 133.966 546.49 148.202C555.785 156.762 563.205 167.154 568.281 178.724C573.362 190.292 575.985 202.788 575.996 215.422Z" fill="white"/>
<path d="M576 215.413C575.36 232.667 569.654 249.352 559.6 263.391C549.545 277.425 535.58 288.195 519.456 294.353C503.321 300.514 485.733 301.793 468.88 298.029C452.032 294.268 436.659 285.63 424.674 273.195C412.697 260.757 404.636 245.075 401.516 228.094C398.384 211.111 400.317 193.584 407.078 177.697C413.827 161.807 425.113 148.257 439.519 138.733C453.921 129.209 470.81 124.132 488.072 124.135C511.688 125.018 534.042 135.022 550.44 152.043C566.838 169.065 576 191.778 576 215.413Z" fill="white"/>
<path d="M546.478 148.185L417.426 277.235C413.035 272.457 409.15 267.227 405.858 261.63L530.895 136.604C536.484 139.901 541.712 143.781 546.478 148.185Z" fill="#E9E9E9" fill-opacity="0.18"/>
<path d="M569.688 182.024L451.251 300.461C442.934 297.192 435.135 292.715 428.121 287.176L556.411 158.894C561.942 165.911 566.424 173.704 569.688 182.024Z" fill="#E9E9E9" fill-opacity="0.18"/>
<path d="M555.579 215.436C555.639 234.225 548.25 252.274 535.025 265.62C521.806 278.969 503.823 286.527 485.034 286.643C466.247 286.759 448.182 279.419 434.794 266.236C421.415 253.05 413.798 235.097 413.625 216.308V215.436C413.625 196.611 421.111 178.559 434.418 165.248C447.726 151.938 465.778 144.46 484.608 144.46H485.481C504.16 144.684 521.991 152.261 535.113 165.544C548.23 178.832 555.59 196.757 555.59 215.43L555.579 215.436Z" fill="#8C8C8C"/>
<path d="M534.886 165.224L434.522 265.598C421.389 252.517 413.927 234.799 413.734 216.267V215.394C413.734 196.572 421.215 178.52 434.522 165.21C447.833 151.9 465.884 144.419 484.704 144.419H485.579C504.103 144.637 521.802 152.107 534.886 165.224Z" fill="#8C8C8C"/>
<path d="M445.274 192.576C445.418 192.728 445.683 192.866 445.699 193.032C445.884 194.65 446.9 195.738 448.121 196.608C459.404 204.586 470.699 212.564 482.015 220.483C484.76 222.4 486.928 222.289 489.621 220.39C495.79 216.054 501.951 211.713 508.114 207.358C511.599 204.889 514.143 201.678 515.471 197.613C515.94 196.196 516.111 194.686 516.319 193.758C516.319 197.298 516.57 201.404 516.244 205.464C515.838 210.465 513.317 214.59 509.291 217.562C502.583 222.508 495.751 227.279 488.897 232.043C486.682 233.592 484.324 233.186 482.137 231.772C479.9 230.317 477.685 228.837 475.509 227.296C466.501 220.914 457.516 214.497 448.519 208.104C446.972 207.007 445.752 205.715 445.478 203.754C445.487 200.576 445.498 197.395 445.487 194.211C445.487 193.97 445.346 193.73 445.274 193.487C445.274 193.183 445.274 192.882 445.274 192.576Z" fill="#717171"/>
<path d="M445.274 217.598C445.418 217.692 445.672 217.775 445.683 217.882C445.876 219.688 447.094 220.776 448.436 221.754C453.611 225.515 458.755 229.315 463.98 232.999C469.763 237.072 475.631 241.043 481.477 245.047C484.821 247.339 486.682 247.35 490.018 245.014C495.953 240.869 501.84 236.674 507.766 232.524C511.296 230.049 513.966 226.91 515.36 222.817C515.88 221.296 516.081 219.677 516.642 218.098C516.49 222.502 516.622 226.94 516.103 231.303C515.554 235.978 512.972 239.795 509.191 242.573C502.539 247.461 495.759 252.185 488.988 256.916C486.611 258.576 484.192 258.081 481.935 256.576C478.986 254.613 476.048 252.641 473.162 250.592C464.834 244.688 456.549 238.745 448.243 232.816C446.76 231.756 445.702 230.428 445.47 228.561C445.478 225.338 445.487 222.113 445.487 218.89C445.487 218.689 445.346 218.484 445.274 218.28C445.274 218.051 445.274 217.824 445.274 217.598Z" fill="#717171"/>
<path d="M461.712 191.37C461.908 191.149 462 190.98 462.151 190.878C465.741 188.373 469.268 185.772 472.949 183.408C476.76 180.962 480.971 179.528 485.574 179.534C489.866 179.542 493.759 180.898 497.286 183.245C498.984 184.38 500.641 185.634 502.157 187.009C504.595 189.23 504.852 193.192 502.911 195.852C502.472 196.445 502.025 196.484 501.445 196.106C500.652 195.578 499.871 195.04 499.067 194.534C490.923 189.434 482.769 189.489 474.628 194.543C473.335 195.349 472.054 196.172 470.731 196.934C470.469 197.086 469.969 197.147 469.737 196.998C467.194 195.319 464.692 193.593 462.171 191.87C462.03 191.767 461.92 191.599 461.712 191.37Z" fill="#717171"/>
<g filter="url(#filter1_f_110_9481)">
<path d="M463.504 187.182C463.697 186.961 463.788 186.792 463.94 186.69C467.53 184.185 471.059 181.584 474.738 179.22C478.551 176.774 482.76 175.34 487.363 175.346C491.654 175.354 495.548 176.713 499.077 179.057C500.773 180.192 502.433 181.446 503.946 182.821C506.387 185.044 506.638 189.004 504.697 191.664C504.261 192.26 503.813 192.299 503.236 191.918C502.441 191.393 501.659 190.854 500.856 190.346C492.712 185.246 484.557 185.301 476.414 190.355C475.124 191.161 473.843 191.984 472.52 192.746C472.258 192.898 471.761 192.959 471.526 192.81C468.985 191.131 466.484 189.405 463.962 187.682C463.821 187.579 463.708 187.411 463.504 187.182Z" fill="#767676" fill-opacity="0.31"/>
<path d="M448.577 189.278C448.726 189.43 448.983 189.568 449.005 189.734C449.184 191.352 450.2 192.44 451.432 193.305C462.718 201.285 474.002 209.263 485.327 217.186C488.06 219.1 490.228 218.989 492.932 217.092C499.092 212.756 505.262 208.41 511.414 204.058C514.902 201.589 517.443 198.38 518.776 194.315C519.24 192.896 519.425 191.385 519.619 190.46C519.619 194 519.884 198.104 519.547 202.163C519.138 207.167 516.62 211.287 512.593 214.261C505.894 219.21 499.051 223.979 492.211 228.743C489.982 230.292 487.624 229.889 485.448 228.472C483.211 227.02 480.996 225.539 478.82 223.998C469.815 217.614 460.824 211.199 451.819 204.803C450.275 203.71 449.063 202.415 448.789 200.457C448.789 197.276 448.798 194.094 448.798 190.913C448.798 190.673 448.657 190.427 448.577 190.187C448.577 189.886 448.577 189.582 448.577 189.278Z" fill="#767676" fill-opacity="0.31"/>
<path d="M448.577 214.333C448.717 214.427 448.972 214.51 448.983 214.621C449.184 216.424 450.394 217.512 451.736 218.49C456.914 222.253 462.055 226.05 467.28 229.734C473.077 233.81 478.942 237.781 484.777 241.785C488.124 244.077 489.982 244.086 493.327 241.749C499.255 237.607 505.143 233.41 511.066 229.259C514.607 226.785 517.28 223.648 518.663 219.555C519.182 218.034 519.395 216.413 519.942 214.836C519.79 219.238 519.922 223.678 519.414 228.041C518.856 232.717 516.283 236.53 512.5 239.308C505.844 244.196 499.062 248.921 492.291 253.654C489.922 255.314 487.503 254.82 485.235 253.315C482.289 251.351 479.348 249.377 476.462 247.33C468.147 241.424 459.849 235.484 451.543 229.552C450.06 228.494 449.005 227.163 448.77 225.299C448.778 222.077 448.8 218.854 448.789 215.629C448.789 215.424 448.657 215.22 448.577 215.016C448.577 214.786 448.577 214.56 448.577 214.333Z" fill="#767676" fill-opacity="0.31"/>
</g>
<path d="M463.504 187.182C463.697 186.961 463.788 186.792 463.94 186.69C467.53 184.185 471.059 181.584 474.738 179.22C478.551 176.774 482.76 175.34 487.363 175.346C491.654 175.354 495.548 176.713 499.077 179.057C500.773 180.192 502.433 181.446 503.946 182.821C506.387 185.044 506.638 189.004 504.697 191.664C504.261 192.26 503.813 192.299 503.236 191.918C502.441 191.393 501.659 190.854 500.856 190.346C492.712 185.246 484.557 185.301 476.414 190.355C475.124 191.161 473.843 191.984 472.52 192.746C472.258 192.898 471.761 192.959 471.526 192.81C468.985 191.131 466.484 189.405 463.962 187.682C463.821 187.579 463.708 187.411 463.504 187.182Z" fill="#EFEFEF"/>
<path d="M448.577 189.278C448.726 189.43 448.983 189.568 449.005 189.734C449.184 191.352 450.2 192.44 451.432 193.305C462.718 201.285 474.002 209.263 485.327 217.186C488.06 219.1 490.228 218.989 492.932 217.092C499.092 212.756 505.262 208.41 511.414 204.058C514.902 201.589 517.443 198.38 518.776 194.315C519.24 192.896 519.425 191.385 519.619 190.46C519.619 194 519.884 198.104 519.547 202.163C519.138 207.167 516.62 211.287 512.593 214.261C505.894 219.21 499.051 223.979 492.211 228.743C489.982 230.292 487.624 229.889 485.448 228.472C483.211 227.02 480.996 225.539 478.82 223.998C469.815 217.614 460.824 211.199 451.819 204.803C450.275 203.71 449.063 202.415 448.789 200.457C448.789 197.276 448.798 194.094 448.798 190.913C448.798 190.673 448.657 190.427 448.577 190.187C448.577 189.886 448.577 189.582 448.577 189.278Z" fill="#EFEFEF"/>
<path d="M448.577 214.333C448.717 214.427 448.972 214.51 448.983 214.621C449.184 216.424 450.394 217.512 451.736 218.49C456.914 222.253 462.055 226.05 467.28 229.734C473.077 233.81 478.942 237.781 484.777 241.785C488.124 244.077 489.982 244.086 493.327 241.749C499.255 237.607 505.143 233.41 511.066 229.259C514.607 226.785 517.28 223.648 518.663 219.555C519.182 218.034 519.395 216.413 519.942 214.836C519.79 219.238 519.922 223.678 519.414 228.041C518.856 232.717 516.283 236.53 512.5 239.308C505.844 244.196 499.062 248.921 492.291 253.654C489.922 255.314 487.503 254.82 485.235 253.315C482.289 251.351 479.348 249.377 476.462 247.33C468.147 241.424 459.849 235.484 451.543 229.552C450.06 228.494 449.005 227.163 448.77 225.299C448.778 222.077 448.8 218.854 448.789 215.629C448.789 215.424 448.657 215.22 448.577 215.016C448.577 214.786 448.577 214.56 448.577 214.333Z" fill="#EFEFEF"/>
<path d="M558.06 215.494C558.06 224.841 556.271 234.095 552.797 242.727C549.336 251.363 544.242 259.208 537.832 265.816C531.423 272.424 523.807 277.666 515.428 281.242C507.053 284.821 498.069 286.663 488.998 286.663C487.695 286.663 486.388 286.624 485.102 286.549C502.72 285.525 519.278 277.594 531.403 264.38C543.521 251.169 550.264 233.678 550.264 215.496C550.264 197.318 543.521 179.826 531.403 166.613C519.278 153.402 502.72 145.468 485.102 144.443C486.388 144.369 487.695 144.333 488.998 144.333C507.318 144.333 524.884 151.83 537.832 165.177C550.781 178.52 558.06 196.622 558.06 215.494Z" fill="white" fill-opacity="0.41"/>
</g>
<path d="M106.657 97H256.48C261.228 97 265.076 100.848 265.076 105.596V137.962C265.076 142.709 261.228 146.559 256.48 146.559H106.657C101.91 146.559 98.0612 142.709 98.0612 137.962V105.596C98.0612 100.848 101.91 97 106.657 97Z" fill="white"/>
<path d="M106.657 97H256.48C261.228 97 265.076 100.848 265.076 105.596V137.962C265.076 142.709 261.228 146.559 256.48 146.559H106.657C101.91 146.559 98.0612 142.709 98.0612 137.962V105.596C98.0612 100.848 101.91 97 106.657 97Z" stroke="url(#paint2_linear_110_9481)" stroke-width="1.19202"/>
<path d="M262.813 122.229C262.813 123.702 264.007 124.896 265.48 124.896C266.952 124.896 268.146 123.702 268.146 122.229C268.146 120.756 266.952 119.562 265.48 119.562C264.007 119.562 262.813 120.756 262.813 122.229ZM265.48 122.729H369.153V121.729H265.48V122.729Z" fill="url(#paint3_linear_110_9481)"/>
<path d="M103.596 275.188H257.823C262.57 275.188 266.419 279.037 266.419 283.784V312.941C266.419 317.688 262.57 321.538 257.823 321.538H103.596C98.8489 321.538 94.9999 317.688 94.9999 312.941V283.784C94.9999 279.037 98.8489 275.188 103.596 275.188Z" fill="white"/>
<path d="M103.596 275.188H257.823C262.57 275.188 266.419 279.037 266.419 283.784V312.941C266.419 317.688 262.57 321.538 257.823 321.538H103.596C98.8489 321.538 94.9999 317.688 94.9999 312.941V283.784C94.9999 279.037 98.8489 275.188 103.596 275.188Z" stroke="url(#paint4_linear_110_9481)" stroke-width="1.19202"/>
<path d="M264.813 298.278C264.813 299.75 266.007 300.944 267.48 300.944C268.952 300.944 270.146 299.75 270.146 298.278C270.146 296.805 268.952 295.611 267.48 295.611C266.007 295.611 264.813 296.805 264.813 298.278ZM267.48 298.778H371.153V297.778H267.48V298.778Z" fill="url(#paint5_linear_110_9481)"/>
<path d="M103.596 186.188H257.823C262.57 186.188 266.419 190.036 266.419 194.783V223.941C266.419 228.688 262.57 232.538 257.823 232.538H103.596C98.8489 232.538 94.9999 228.688 94.9999 223.941V194.783C94.9999 190.036 98.8489 186.188 103.596 186.188Z" fill="white"/>
<path d="M103.596 186.188H257.823C262.57 186.188 266.419 190.036 266.419 194.783V223.941C266.419 228.688 262.57 232.538 257.823 232.538H103.596C98.8489 232.538 94.9999 228.688 94.9999 223.941V194.783C94.9999 190.036 98.8489 186.188 103.596 186.188Z" stroke="url(#paint6_linear_110_9481)" stroke-width="1.19202"/>
<path d="M264.813 209.278C264.813 210.75 266.007 211.944 267.48 211.944C268.952 211.944 270.146 210.75 270.146 209.278C270.146 207.805 268.952 206.611 267.48 206.611C266.007 206.611 264.813 207.805 264.813 209.278ZM267.48 209.778H371.153V208.778H267.48V209.778Z" fill="url(#paint7_linear_110_9481)"/>
<path d="M847.496 102H697.673C692.925 102 689.077 105.848 689.077 110.596V142.962C689.077 147.709 692.925 151.559 697.673 151.559H847.496C852.243 151.559 856.092 147.709 856.092 142.962V110.596C856.092 105.848 852.243 102 847.496 102Z" fill="white"/>
<path d="M847.496 102H697.673C692.925 102 689.077 105.848 689.077 110.596V142.962C689.077 147.709 692.925 151.559 697.673 151.559H847.496C852.243 151.559 856.092 147.709 856.092 142.962V110.596C856.092 105.848 852.243 102 847.496 102Z" stroke="url(#paint8_linear_110_9481)" stroke-width="1.19202"/>
<path d="M691.34 127.229C691.34 128.702 690.146 129.896 688.673 129.896C687.201 129.896 686.007 128.702 686.007 127.229C686.007 125.756 687.201 124.562 688.673 124.562C690.146 124.562 691.34 125.756 691.34 127.229ZM688.673 127.729H585V126.729H688.673V127.729Z" fill="url(#paint9_linear_110_9481)"/>
<path d="M850.557 280.188H696.33C691.583 280.188 687.734 284.037 687.734 288.784V317.941C687.734 322.688 691.583 326.538 696.33 326.538H850.557C855.304 326.538 859.153 322.688 859.153 317.941V288.784C859.153 284.037 855.304 280.188 850.557 280.188Z" fill="white"/>
<path d="M850.557 280.188H696.33C691.583 280.188 687.734 284.037 687.734 288.784V317.941C687.734 322.688 691.583 326.538 696.33 326.538H850.557C855.304 326.538 859.153 322.688 859.153 317.941V288.784C859.153 284.037 855.304 280.188 850.557 280.188Z" stroke="url(#paint10_linear_110_9481)" stroke-width="1.19202"/>
<path d="M689.34 303.278C689.34 304.75 688.146 305.944 686.673 305.944C685.201 305.944 684.007 304.75 684.007 303.278C684.007 301.805 685.201 300.611 686.673 300.611C688.146 300.611 689.34 301.805 689.34 303.278ZM686.673 303.778H583V302.778H686.673V303.778Z" fill="url(#paint11_linear_110_9481)"/>
<path d="M850.557 191.188H696.33C691.583 191.188 687.734 195.036 687.734 199.783V228.941C687.734 233.688 691.583 237.538 696.33 237.538H850.557C855.304 237.538 859.153 233.688 859.153 228.941V199.783C859.153 195.036 855.304 191.188 850.557 191.188Z" fill="white"/>
<path d="M850.557 191.188H696.33C691.583 191.188 687.734 195.036 687.734 199.783V228.941C687.734 233.688 691.583 237.538 696.33 237.538H850.557C855.304 237.538 859.153 233.688 859.153 228.941V199.783C859.153 195.036 855.304 191.188 850.557 191.188Z" stroke="url(#paint12_linear_110_9481)" stroke-width="1.19202"/>
<path d="M689.34 214.278C689.34 215.75 688.146 216.944 686.673 216.944C685.201 216.944 684.007 215.75 684.007 214.278C684.007 212.805 685.201 211.611 686.673 211.611C688.146 211.611 689.34 212.805 689.34 214.278ZM686.673 214.778H583V213.778H686.673V214.778Z" fill="url(#paint13_linear_110_9481)"/>
<path d="M824 135.965C821.498 135.98 824.078 135.951 821.576 135.951C816.15 135.96 810.724 135.965 805.298 135.96C802.649 135.96 799.995 135.955 797.34 135.951C796.668 135.951 795.991 135.916 795.324 135.902C795.206 135.902 795.088 135.857 795 135.784C795.113 135.759 795.226 135.745 795.339 135.735C796.58 135.686 797.826 135.637 799.067 135.592C800.495 135.543 801.923 135.504 803.355 135.46C803.743 135.445 803.826 135.367 803.841 134.96C803.875 133.341 804.076 131.731 804.439 130.152C804.582 129.543 804.518 129.293 803.973 128.959C803.022 128.385 802.457 127.453 802.227 126.364C802.07 125.633 802.295 124.971 802.742 124.382C802.977 124.073 803.223 123.774 803.453 123.465C803.645 123.219 803.924 123.062 804.233 123.028C804.341 123.033 804.439 123.087 804.503 123.17C804.533 123.205 804.488 123.362 804.43 123.401C804.194 123.573 803.963 123.798 803.699 123.867C803.286 123.975 803.085 124.269 802.919 124.583C802.271 125.834 802.874 127.061 803.635 127.733C803.944 127.998 804.282 128.223 804.64 128.42C805.043 128.64 805.249 128.577 805.597 128.273C806.951 127.061 808.305 125.854 809.669 124.652C809.767 124.564 809.861 124.47 809.964 124.382C810.184 124.181 810.385 124.23 810.454 124.529C810.572 125.123 810.67 125.716 810.763 126.31C810.808 126.605 810.822 126.899 810.852 127.188H810.935C810.974 126.968 810.994 126.742 810.999 126.516C810.95 125.653 810.92 124.779 810.793 123.926C810.719 123.43 810.469 122.964 810.312 122.483C810.258 122.341 810.233 122.189 810.248 122.042C810.283 121.831 810.199 121.762 810.023 121.684C808.924 121.193 807.771 120.859 806.608 120.555C806.475 120.526 806.358 120.457 806.269 120.359C806.181 120.256 806.122 120.133 806.103 120.001C806.053 119.77 805.98 119.55 805.896 119.329C805.798 119.054 805.823 118.838 806.103 118.676C806.799 118.289 807.486 117.896 808.168 117.489C808.394 117.366 808.6 117.214 808.781 117.038C809.13 116.65 809.596 116.508 810.047 116.316C811.126 115.87 812.211 115.433 813.29 114.982C813.383 114.923 813.462 114.849 813.535 114.771C813.476 114.692 813.413 114.624 813.344 114.565C812.014 113.692 810.847 112.598 809.895 111.337C809.841 111.258 809.866 111.116 809.851 111.003C809.954 110.993 810.057 111.008 810.155 111.033C811.048 111.43 811.926 111.852 812.819 112.239C813.491 112.534 814.188 112.774 814.86 113.069C815.611 113.397 816.396 113.677 816.974 114.31C817.254 114.589 817.279 115.031 817.028 115.34L816.042 116.709C816.16 116.738 816.283 116.753 816.405 116.753C817.092 116.675 817.779 116.572 818.466 116.498C818.603 116.498 818.736 116.518 818.863 116.557C818.834 116.689 818.785 116.812 818.721 116.925C818.137 117.729 817.426 118.431 816.621 119.005C816.445 119.128 816.498 119.26 816.587 119.402C816.965 119.986 817.367 120.55 817.715 121.149C818.275 122.125 818.839 123.097 819.329 124.107C819.849 125.182 820.316 126.281 820.742 127.394C821.071 128.258 821.321 129.141 821.572 130.024C821.807 130.848 822.018 131.682 822.194 132.521C822.361 133.331 822.469 134.155 822.602 134.974C822.67 135.416 822.769 135.686 823.21 135.705L824 135.965ZM816.081 135.381V135.421H819.844C820.33 135.421 820.36 135.362 820.139 134.91C820.016 134.675 819.913 134.435 819.805 134.189C819.432 133.306 818.893 132.502 818.206 131.82C817.902 131.525 817.509 131.3 817.082 131.319C816.425 131.349 815.782 131.594 815.184 131.859C814.257 132.281 813.452 132.928 812.848 133.738C812.529 134.16 812.245 134.606 811.985 135.063C811.867 135.254 811.946 135.381 812.201 135.381C813.491 135.377 814.786 135.381 816.081 135.381ZM807.393 135.416V135.401H809.257C809.65 135.401 809.689 135.347 809.738 134.974C809.782 134.616 809.841 134.268 809.9 133.91C810.008 133.257 810.126 132.6 810.214 131.942C810.263 131.574 810.16 131.501 809.821 131.628C809.306 131.815 808.801 132.031 808.31 132.281C807.074 132.973 806.024 133.87 805.293 135.107C805.151 135.352 805.18 135.411 805.465 135.411C806.102 135.421 806.745 135.416 807.393 135.416Z" fill="#F69E1B"/>
<path d="M137.617 308.616C137.223 309.01 136.568 308.616 136.7 308.026C136.962 307.304 137.224 306.386 137.552 305.336C134.272 307.894 130.532 310.059 126.793 311.83C126.269 312.093 125.744 311.436 126.137 310.978C128.302 308.288 130.4 305.532 132.369 302.712L128.302 304.746C127.776 305.008 127.318 304.417 127.645 303.959C129.613 301.269 133.483 296.02 136.437 292.413L137.552 293.726L136.831 296.284C136.706 296.695 136.683 297.131 136.762 297.554C136.842 297.976 137.023 298.374 137.29 298.711C137.815 299.433 138.667 299.826 139.521 299.826C139.914 299.826 140.242 299.76 140.57 299.63L143.064 298.645L145.295 300.088C145.361 300.154 145.427 300.154 145.491 300.22C142.932 303.5 139.586 306.845 137.617 308.616ZM150.541 292.019L148.244 293.856C148.094 293.971 147.975 294.121 147.895 294.292C147.815 294.464 147.778 294.652 147.786 294.841L147.982 297.727C148.048 298.449 147.457 298.973 146.802 298.973C146.569 298.969 146.342 298.901 146.145 298.777L143.717 297.202C143.525 297.069 143.295 297 143.061 297.006C142.931 297.006 142.733 297.006 142.602 297.072L139.913 298.187C139.782 298.252 139.584 298.252 139.454 298.252C138.733 298.252 138.075 297.53 138.338 296.744L139.126 293.923C139.185 293.741 139.191 293.547 139.145 293.361C139.099 293.176 139.001 293.007 138.864 292.874L137.026 290.643C136.372 289.921 136.895 288.74 137.879 288.676L140.765 288.544C140.951 288.546 141.135 288.498 141.296 288.406C141.458 288.314 141.592 288.18 141.685 288.019L143.193 285.526C143.294 285.358 143.44 285.22 143.613 285.127C143.787 285.035 143.982 284.992 144.179 285.001C144.637 285.001 145.096 285.264 145.293 285.788L146.342 288.478C146.404 288.665 146.517 288.832 146.668 288.96C146.818 289.087 147.001 289.17 147.196 289.2L150.018 289.922C151.067 290.185 151.328 291.429 150.541 292.019ZM148.31 290.904C147.851 290.576 147.065 290.642 146.603 290.904C146.145 291.232 146.145 291.691 146.603 292.019C147.063 292.347 147.85 292.281 148.31 292.019C148.769 291.757 148.769 291.232 148.31 290.904Z" fill="#F94686"/>
<path fill-rule="evenodd" clip-rule="evenodd" d="M820.257 310.011C820.161 306.572 818.872 303.705 816.279 301.472C814.329 299.793 812.04 298.898 809.47 298.808C806.304 298.698 803.544 299.732 801.251 301.928C798.959 304.122 797.852 306.847 797.769 310.02H794.009C793.96 308.888 794.111 307.79 794.36 306.71C795.092 303.537 796.69 300.867 799.136 298.718C804.238 294.236 811.505 293.888 816.885 297.231C822.342 300.624 824.164 306.336 823.989 310.012L820.257 310.011ZM805.685 306.753C806.57 305.864 807.642 305.395 808.903 305.363C809.91 305.337 810.832 305.605 811.654 306.177C812.979 307.1 813.611 308.41 813.701 310.011H817.42C817.593 307.876 816.399 304.675 813.544 302.88C810.327 300.855 806.332 301.151 803.46 303.655C801.549 305.322 800.6 307.456 800.553 310.023H804.327C804.392 308.751 804.798 307.645 805.685 306.753Z" fill="#27E489"/>
<path d="M808.363 223.107L808.154 223.194C806.902 223.617 805.024 224.254 803.396 225.06C803.309 225.101 803.234 225.228 803.234 225.228C803.187 225.309 803.141 225.396 803.106 225.483C802.932 225.906 802.648 226.544 802.561 226.834L802.48 227.054C802.48 227.094 802.48 227.135 802.48 227.135L802.521 227.181H802.561L802.764 227.094C803.234 226.88 803.813 226.544 804.399 226.248H804.439C805.604 225.692 806.902 225.06 807.65 224.677C807.65 224.677 807.778 224.596 807.859 224.469L808.444 223.281C808.444 223.234 808.444 223.194 808.444 223.194C808.444 223.107 808.398 223.066 808.363 223.107Z" fill="#7592F9"/>
<path d="M803.509 221.285C803.591 221.117 803.962 220.398 804.054 220.23V220.19C806.593 215.344 809.688 210.788 813.224 206.609L813.311 206.488C813.357 206.441 813.357 206.401 813.311 206.36C813.27 206.32 813.224 206.273 813.189 206.32H813.021C810.679 206.656 808.303 207.079 805.967 207.67C805.718 207.751 805.59 207.879 805.55 207.919C803.793 210.029 802.165 212.261 800.617 214.544C800.669 214.666 800.669 214.921 800.669 214.921C800.669 214.921 801.04 217.871 801.585 220.062C800.252 224.067 799 229.382 799 229.382C799 229.423 799 229.469 799 229.469C799 229.51 799.041 229.51 799.075 229.51H799.869C799.916 229.51 799.956 229.469 800.003 229.429L800.038 229.255C800.826 227.064 801.753 224.873 802.75 222.763C803.005 222.294 803.509 221.285 803.509 221.285Z" fill="#7592F9"/>
<path d="M814.475 207.553V207.385C814.475 207.344 814.434 207.298 814.394 207.263C814.353 207.263 814.307 207.263 814.266 207.298L814.185 207.425C809.965 212.242 806.476 217.603 803.706 223.336L803.619 223.463C803.619 223.504 803.619 223.544 803.619 223.591C803.653 223.631 803.653 223.631 803.706 223.631H803.74L803.868 223.591C806.221 222.629 808.627 221.788 811.02 221.075C811.148 221.035 811.281 220.953 811.362 220.832C812.417 218.821 814.852 214.879 814.852 214.879C814.944 214.752 814.904 214.63 814.904 214.63C814.904 214.63 814.475 209.935 814.475 207.553Z" fill="#7592F9"/>
<path d="M819.877 200.799C819.292 200.295 818.399 200.045 817.066 200.005C815.901 199.958 814.469 200.254 812.835 200.758C812.586 200.845 812.417 200.967 812.203 201.135C810.534 202.688 808.946 204.369 807.433 206.05L807.305 206.172C807.265 206.218 807.265 206.253 807.305 206.299C807.346 206.34 807.392 206.38 807.433 206.34L807.601 206.299C810.076 205.755 812.539 205.378 814.974 205.123C815.136 205.123 815.31 205.163 815.431 205.244C815.565 205.378 815.6 205.505 815.6 205.668C815.565 208.102 815.646 210.536 815.849 212.884V213.052C815.849 213.092 815.901 213.139 815.936 213.139C815.936 213.139 815.936 213.139 815.982 213.139C816.023 213.139 816.057 213.139 816.057 213.092L816.144 212.971C817.53 211 818.99 209.11 820.584 207.308C820.752 207.093 820.799 206.966 820.839 206.798C821.338 203.732 820.584 201.39 819.877 200.799Z" fill="#7592F9"/>
<mask id="mask0_110_9481" style="mask-type:luminance" maskUnits="userSpaceOnUse" x="122" y="110" width="18" height="26">
<path d="M139.908 110H122V136H139.908V110Z" fill="white"/>
</mask>
<g mask="url(#mask0_110_9481)">
<path d="M121.999 132.211V119.332L126.15 115.802V128.673L121.999 132.211Z" fill="#6166DC"/>
<path d="M121.999 132.211V119.332L126.15 115.802V128.673L121.999 132.211Z" fill="url(#paint14_linear_110_9481)" fill-opacity="0.2"/>
<path d="M139.99 126.605C138.636 127.755 137.271 128.912 135.859 130.113V117.247C137.217 116.089 138.616 114.927 139.99 113.756V126.605Z" fill="#6166DC"/>
<path d="M139.99 126.605C138.636 127.755 137.271 128.912 135.859 130.113V117.247C137.217 116.089 138.616 114.927 139.99 113.756V126.605Z" fill="url(#paint15_linear_110_9481)" fill-opacity="0.2"/>
<path d="M133.193 132.445C131.806 133.629 130.418 134.817 129.02 136.009V124.126H133.193V132.445Z" fill="#6166DC"/>
<path d="M133.193 132.445C131.806 133.629 130.418 134.817 129.02 136.009V124.126H133.193V132.445Z" fill="url(#paint16_linear_110_9481)" fill-opacity="0.2"/>
<path d="M128.985 121.825V113.493L133.158 109.9C133.165 113.608 133.169 121.778 133.169 121.778L128.985 121.825Z" fill="#6166DC"/>
<path d="M128.985 121.825V113.493L133.158 109.9C133.165 113.608 133.169 121.778 133.169 121.778L128.985 121.825Z" fill="url(#paint17_linear_110_9481)" fill-opacity="0.2"/>
</g>
<path d="M168.331 123.92H162.011V130H159.751V116.04H162.011V121.92H168.331V116.04H170.591V130H168.331V123.92ZM177.949 130.24C177.229 130.24 176.569 130.113 175.969 129.86C175.382 129.607 174.882 129.247 174.469 128.78C174.055 128.3 173.735 127.727 173.509 127.06C173.282 126.38 173.169 125.627 173.169 124.8C173.169 123.973 173.282 123.227 173.509 122.56C173.735 121.88 174.055 121.307 174.469 120.84C174.882 120.36 175.382 119.993 175.969 119.74C176.569 119.487 177.229 119.36 177.949 119.36C178.669 119.36 179.322 119.487 179.909 119.74C180.509 119.993 181.015 120.36 181.429 120.84C181.842 121.307 182.162 121.88 182.389 122.56C182.615 123.227 182.729 123.973 182.729 124.8C182.729 125.627 182.615 126.38 182.389 127.06C182.162 127.727 181.842 128.3 181.429 128.78C181.015 129.247 180.509 129.607 179.909 129.86C179.322 130.113 178.669 130.24 177.949 130.24ZM177.949 128.44C178.695 128.44 179.295 128.213 179.749 127.76C180.202 127.293 180.429 126.6 180.429 125.68V123.92C180.429 123 180.202 122.313 179.749 121.86C179.295 121.393 178.695 121.16 177.949 121.16C177.202 121.16 176.602 121.393 176.149 121.86C175.695 122.313 175.469 123 175.469 123.92V125.68C175.469 126.6 175.695 127.293 176.149 127.76C176.602 128.213 177.202 128.44 177.949 128.44ZM185.158 130V119.6H187.338V121.6H187.438C187.584 121.067 187.891 120.6 188.358 120.2C188.824 119.8 189.471 119.6 190.298 119.6H190.878V121.7H190.018C189.151 121.7 188.484 121.84 188.018 122.12C187.564 122.4 187.338 122.813 187.338 123.36V130H185.158ZM193.914 117.74C193.461 117.74 193.127 117.633 192.914 117.42C192.714 117.207 192.614 116.933 192.614 116.6V116.26C192.614 115.927 192.714 115.653 192.914 115.44C193.127 115.227 193.461 115.12 193.914 115.12C194.367 115.12 194.694 115.227 194.894 115.44C195.094 115.653 195.194 115.927 195.194 116.26V116.6C195.194 116.933 195.094 117.207 194.894 117.42C194.694 117.633 194.367 117.74 193.914 117.74ZM192.814 119.6H194.994V130H192.814V119.6ZM197.267 130V128.24L202.847 121.38H197.447V119.6H205.427V121.28L199.767 128.22H205.567V130H197.267ZM211.718 130.24C210.998 130.24 210.338 130.113 209.738 129.86C209.151 129.607 208.651 129.247 208.238 128.78C207.825 128.3 207.505 127.727 207.278 127.06C207.051 126.38 206.938 125.627 206.938 124.8C206.938 123.973 207.051 123.227 207.278 122.56C207.505 121.88 207.825 121.307 208.238 120.84C208.651 120.36 209.151 119.993 209.738 119.74C210.338 119.487 210.998 119.36 211.718 119.36C212.438 119.36 213.091 119.487 213.678 119.74C214.278 119.993 214.785 120.36 215.198 120.84C215.611 121.307 215.931 121.88 216.158 122.56C216.385 123.227 216.498 123.973 216.498 124.8C216.498 125.627 216.385 126.38 216.158 127.06C215.931 127.727 215.611 128.3 215.198 128.78C214.785 129.247 214.278 129.607 213.678 129.86C213.091 130.113 212.438 130.24 211.718 130.24ZM211.718 128.44C212.465 128.44 213.065 128.213 213.518 127.76C213.971 127.293 214.198 126.6 214.198 125.68V123.92C214.198 123 213.971 122.313 213.518 121.86C213.065 121.393 212.465 121.16 211.718 121.16C210.971 121.16 210.371 121.393 209.918 121.86C209.465 122.313 209.238 123 209.238 123.92V125.68C209.238 126.6 209.465 127.293 209.918 127.76C210.371 128.213 210.971 128.44 211.718 128.44ZM218.927 130V119.6H221.107V121.32H221.207C221.434 120.76 221.774 120.293 222.227 119.92C222.694 119.547 223.327 119.36 224.127 119.36C225.194 119.36 226.021 119.713 226.607 120.42C227.207 121.113 227.507 122.107 227.507 123.4V130H225.327V123.68C225.327 122.053 224.674 121.24 223.367 121.24C223.087 121.24 222.807 121.28 222.527 121.36C222.261 121.427 222.021 121.533 221.807 121.68C221.594 121.827 221.421 122.013 221.287 122.24C221.167 122.467 221.107 122.733 221.107 123.04V130H218.927Z" fill="#3C3C3C"/>
<path d="M166.499 219.46H164.519C163.732 219.46 163.152 219.26 162.779 218.86C162.419 218.46 162.239 217.92 162.239 217.24V216.18C161.452 216.087 160.746 215.86 160.119 215.5C159.492 215.14 158.959 214.66 158.519 214.06C158.079 213.46 157.739 212.74 157.499 211.9C157.259 211.047 157.139 210.087 157.139 209.02C157.139 207.847 157.279 206.813 157.559 205.92C157.852 205.013 158.259 204.26 158.779 203.66C159.312 203.047 159.946 202.587 160.679 202.28C161.426 201.96 162.252 201.8 163.159 201.8C164.066 201.8 164.886 201.96 165.619 202.28C166.366 202.587 166.999 203.047 167.519 203.66C168.052 204.26 168.459 205.013 168.739 205.92C169.032 206.813 169.179 207.847 169.179 209.02C169.179 211.1 168.746 212.747 167.879 213.96C167.012 215.16 165.839 215.887 164.359 216.14V217.58H166.499V219.46ZM163.159 214.22C163.692 214.22 164.179 214.127 164.619 213.94C165.072 213.753 165.452 213.487 165.759 213.14C166.079 212.78 166.326 212.347 166.499 211.84C166.672 211.333 166.759 210.76 166.759 210.12V207.92C166.759 207.28 166.672 206.707 166.499 206.2C166.326 205.693 166.079 205.267 165.759 204.92C165.452 204.56 165.072 204.287 164.619 204.1C164.179 203.913 163.692 203.82 163.159 203.82C162.612 203.82 162.119 203.913 161.679 204.1C161.239 204.287 160.859 204.56 160.539 204.92C160.232 205.267 159.992 205.693 159.819 206.2C159.646 206.707 159.559 207.28 159.559 207.92V210.12C159.559 210.76 159.646 211.333 159.819 211.84C159.992 212.347 160.232 212.78 160.539 213.14C160.859 213.487 161.239 213.753 161.679 213.94C162.119 214.127 162.612 214.22 163.159 214.22ZM175.917 216.24C175.197 216.24 174.537 216.113 173.937 215.86C173.351 215.607 172.851 215.247 172.437 214.78C172.024 214.3 171.704 213.727 171.477 213.06C171.251 212.38 171.137 211.627 171.137 210.8C171.137 209.973 171.251 209.227 171.477 208.56C171.704 207.88 172.024 207.307 172.437 206.84C172.851 206.36 173.351 205.993 173.937 205.74C174.537 205.487 175.197 205.36 175.917 205.36C176.637 205.36 177.291 205.487 177.877 205.74C178.477 205.993 178.984 206.36 179.397 206.84C179.811 207.307 180.131 207.88 180.357 208.56C180.584 209.227 180.697 209.973 180.697 210.8C180.697 211.627 180.584 212.38 180.357 213.06C180.131 213.727 179.811 214.3 179.397 214.78C178.984 215.247 178.477 215.607 177.877 215.86C177.291 216.113 176.637 216.24 175.917 216.24ZM175.917 214.44C176.664 214.44 177.264 214.213 177.717 213.76C178.171 213.293 178.397 212.6 178.397 211.68V209.92C178.397 209 178.171 208.313 177.717 207.86C177.264 207.393 176.664 207.16 175.917 207.16C175.171 207.16 174.571 207.393 174.117 207.86C173.664 208.313 173.437 209 173.437 209.92V211.68C173.437 212.6 173.664 213.293 174.117 213.76C174.571 214.213 175.171 214.44 175.917 214.44ZM181.95 205.6H184.07L185.13 209.96L186.07 213.9H186.13L187.21 209.96L188.47 205.6H190.43L191.71 209.96L192.81 213.9H192.87L193.79 209.96L194.87 205.6H196.89L194.09 216H191.63L190.27 211.26L189.43 208.34H189.39L188.57 211.26L187.19 216H184.79L181.95 205.6ZM206.371 216C205.798 216 205.358 215.84 205.051 215.52C204.745 215.187 204.558 214.767 204.491 214.26H204.391C204.191 214.913 203.825 215.407 203.291 215.74C202.758 216.073 202.111 216.24 201.351 216.24C200.271 216.24 199.438 215.96 198.851 215.4C198.278 214.84 197.991 214.087 197.991 213.14C197.991 212.1 198.365 211.32 199.111 210.8C199.871 210.28 200.978 210.02 202.431 210.02H204.311V209.14C204.311 208.5 204.138 208.007 203.791 207.66C203.445 207.313 202.905 207.14 202.171 207.14C201.558 207.14 201.058 207.273 200.671 207.54C200.285 207.807 199.958 208.147 199.691 208.56L198.391 207.38C198.738 206.793 199.225 206.313 199.851 205.94C200.478 205.553 201.298 205.36 202.311 205.36C203.658 205.36 204.691 205.673 205.411 206.3C206.131 206.927 206.491 207.827 206.491 209V214.22H207.591V216H206.371ZM201.971 214.58C202.651 214.58 203.211 214.433 203.651 214.14C204.091 213.833 204.311 213.427 204.311 212.92V211.42H202.471C200.965 211.42 200.211 211.887 200.211 212.82V213.18C200.211 213.647 200.365 214 200.671 214.24C200.991 214.467 201.425 214.58 201.971 214.58ZM211.948 216C211.201 216 210.641 215.813 210.268 215.44C209.908 215.053 209.728 214.52 209.728 213.84V201.2H211.908V214.22H213.348V216H211.948ZM218.213 216C217.453 216 216.88 215.807 216.493 215.42C216.107 215.02 215.913 214.46 215.913 213.74V207.38H214.293V205.6H215.173C215.533 205.6 215.78 205.52 215.913 205.36C216.06 205.2 216.133 204.94 216.133 204.58V202.76H218.093V205.6H220.273V207.38H218.093V214.22H220.113V216H218.213ZM225.938 216.24C224.951 216.24 224.125 216.067 223.458 215.72C222.791 215.373 222.211 214.893 221.718 214.28L223.118 213C223.505 213.467 223.931 213.833 224.398 214.1C224.878 214.353 225.431 214.48 226.058 214.48C226.698 214.48 227.171 214.36 227.478 214.12C227.798 213.867 227.958 213.52 227.958 213.08C227.958 212.747 227.845 212.467 227.618 212.24C227.405 212 227.025 211.847 226.478 211.78L225.518 211.66C224.451 211.527 223.611 211.22 222.998 210.74C222.398 210.247 222.098 209.52 222.098 208.56C222.098 208.053 222.191 207.607 222.378 207.22C222.565 206.82 222.825 206.487 223.158 206.22C223.505 205.94 223.911 205.727 224.378 205.58C224.858 205.433 225.385 205.36 225.958 205.36C226.891 205.36 227.651 205.507 228.238 205.8C228.838 206.093 229.371 206.5 229.838 207.02L228.498 208.3C228.231 207.98 227.878 207.707 227.438 207.48C227.011 207.24 226.518 207.12 225.958 207.12C225.358 207.12 224.911 207.24 224.618 207.48C224.338 207.72 224.198 208.033 224.198 208.42C224.198 208.82 224.325 209.12 224.578 209.32C224.831 209.52 225.238 209.667 225.798 209.76L226.758 209.88C227.905 210.053 228.738 210.393 229.258 210.9C229.791 211.393 230.058 212.06 230.058 212.9C230.058 213.407 229.958 213.867 229.758 214.28C229.571 214.68 229.298 215.027 228.938 215.32C228.578 215.613 228.145 215.84 227.638 216C227.131 216.16 226.565 216.24 225.938 216.24Z" fill="#3C3C3C"/>
<path d="M168.302 307V293.04H177.242V295.04H170.562V298.92H176.622V300.92H170.562V305H177.242V307H168.302ZM185.398 307.24C183.571 307.24 182.138 306.627 181.098 305.4C180.058 304.16 179.538 302.367 179.538 300.02C179.538 298.847 179.671 297.813 179.938 296.92C180.204 296.027 180.591 295.273 181.098 294.66C181.604 294.047 182.218 293.587 182.938 293.28C183.671 292.96 184.491 292.8 185.398 292.8C186.611 292.8 187.624 293.067 188.438 293.6C189.264 294.133 189.911 294.92 190.378 295.96L188.478 297C188.238 296.333 187.864 295.807 187.358 295.42C186.864 295.02 186.211 294.82 185.398 294.82C184.318 294.82 183.471 295.187 182.858 295.92C182.244 296.653 181.938 297.667 181.938 298.96V301.08C181.938 302.373 182.244 303.387 182.858 304.12C183.471 304.853 184.318 305.22 185.398 305.22C186.238 305.22 186.918 305.007 187.438 304.58C187.971 304.14 188.364 303.58 188.618 302.9L190.438 304C189.971 305.013 189.318 305.807 188.478 306.38C187.638 306.953 186.611 307.24 185.398 307.24ZM197.819 307.24C195.993 307.24 194.559 306.627 193.519 305.4C192.479 304.16 191.959 302.367 191.959 300.02C191.959 298.847 192.093 297.813 192.359 296.92C192.626 296.027 193.013 295.273 193.519 294.66C194.026 294.047 194.639 293.587 195.359 293.28C196.093 292.96 196.913 292.8 197.819 292.8C199.033 292.8 200.046 293.067 200.859 293.6C201.686 294.133 202.333 294.92 202.799 295.96L200.899 297C200.659 296.333 200.286 295.807 199.779 295.42C199.286 295.02 198.633 294.82 197.819 294.82C196.739 294.82 195.893 295.187 195.279 295.92C194.666 296.653 194.359 297.667 194.359 298.96V301.08C194.359 302.373 194.666 303.387 195.279 304.12C195.893 304.853 196.739 305.22 197.819 305.22C198.659 305.22 199.339 305.007 199.859 304.58C200.393 304.14 200.786 303.58 201.039 302.9L202.859 304C202.393 305.013 201.739 305.807 200.899 306.38C200.059 306.953 199.033 307.24 197.819 307.24ZM208.395 307.24C207.408 307.24 206.582 307.067 205.915 306.72C205.248 306.373 204.668 305.893 204.175 305.28L205.575 304C205.962 304.467 206.388 304.833 206.855 305.1C207.335 305.353 207.888 305.48 208.515 305.48C209.155 305.48 209.628 305.36 209.935 305.12C210.255 304.867 210.415 304.52 210.415 304.08C210.415 303.747 210.302 303.467 210.075 303.24C209.862 303 209.482 302.847 208.935 302.78L207.975 302.66C206.908 302.527 206.068 302.22 205.455 301.74C204.855 301.247 204.555 300.52 204.555 299.56C204.555 299.053 204.648 298.607 204.835 298.22C205.022 297.82 205.282 297.487 205.615 297.22C205.962 296.94 206.368 296.727 206.835 296.58C207.315 296.433 207.842 296.36 208.415 296.36C209.348 296.36 210.108 296.507 210.695 296.8C211.295 297.093 211.828 297.5 212.295 298.02L210.955 299.3C210.688 298.98 210.335 298.707 209.895 298.48C209.468 298.24 208.975 298.12 208.415 298.12C207.815 298.12 207.368 298.24 207.075 298.48C206.795 298.72 206.655 299.033 206.655 299.42C206.655 299.82 206.782 300.12 207.035 300.32C207.288 300.52 207.695 300.667 208.255 300.76L209.215 300.88C210.362 301.053 211.195 301.393 211.715 301.9C212.248 302.393 212.515 303.06 212.515 303.9C212.515 304.407 212.415 304.867 212.215 305.28C212.028 305.68 211.755 306.027 211.395 306.32C211.035 306.613 210.602 306.84 210.095 307C209.588 307.16 209.022 307.24 208.395 307.24Z" fill="#3C3C3C"/>
<path d="M717.208 120.04H722.148C723.042 120.04 723.848 120.187 724.568 120.48C725.302 120.773 725.922 121.213 726.428 121.8C726.948 122.373 727.348 123.1 727.628 123.98C727.908 124.847 728.048 125.86 728.048 127.02C728.048 128.18 727.908 129.2 727.628 130.08C727.348 130.947 726.948 131.673 726.428 132.26C725.922 132.833 725.302 133.267 724.568 133.56C723.848 133.853 723.042 134 722.148 134H717.208V120.04ZM722.148 132C723.188 132 724.028 131.673 724.668 131.02C725.308 130.367 725.628 129.407 725.628 128.14V125.9C725.628 124.633 725.308 123.673 724.668 123.02C724.028 122.367 723.188 122.04 722.148 122.04H719.468V132H722.148ZM731.801 121.74C731.347 121.74 731.014 121.633 730.801 121.42C730.601 121.207 730.501 120.933 730.501 120.6V120.26C730.501 119.927 730.601 119.653 730.801 119.44C731.014 119.227 731.347 119.12 731.801 119.12C732.254 119.12 732.581 119.227 732.781 119.44C732.981 119.653 733.081 119.927 733.081 120.26V120.6C733.081 120.933 732.981 121.207 732.781 121.42C732.581 121.633 732.254 121.74 731.801 121.74ZM730.701 123.6H732.881V134H730.701V123.6ZM735.994 123.6H738.174V135.4C738.174 136.2 737.967 136.833 737.554 137.3C737.154 137.767 736.514 138 735.634 138H734.374V136.22H735.994V123.6ZM737.094 121.74C736.64 121.74 736.307 121.633 736.094 121.42C735.894 121.207 735.794 120.933 735.794 120.6V120.26C735.794 119.927 735.894 119.653 736.094 119.44C736.307 119.227 736.64 119.12 737.094 119.12C737.547 119.12 737.874 119.227 738.074 119.44C738.274 119.653 738.374 119.927 738.374 120.26V120.6C738.374 120.933 738.274 121.207 738.074 121.42C737.874 121.633 737.547 121.74 737.094 121.74ZM745.367 134.24C744.62 134.24 743.953 134.113 743.367 133.86C742.78 133.607 742.28 133.247 741.867 132.78C741.453 132.3 741.133 131.727 740.907 131.06C740.693 130.38 740.587 129.627 740.587 128.8C740.587 127.973 740.693 127.227 740.907 126.56C741.133 125.88 741.453 125.307 741.867 124.84C742.28 124.36 742.78 123.993 743.367 123.74C743.953 123.487 744.62 123.36 745.367 123.36C746.127 123.36 746.793 123.493 747.367 123.76C747.953 124.027 748.44 124.4 748.827 124.88C749.213 125.347 749.5 125.893 749.687 126.52C749.887 127.147 749.987 127.82 749.987 128.54V129.36H742.847V129.7C742.847 130.5 743.08 131.16 743.547 131.68C744.027 132.187 744.707 132.44 745.587 132.44C746.227 132.44 746.767 132.3 747.207 132.02C747.647 131.74 748.02 131.36 748.327 130.88L749.607 132.14C749.22 132.78 748.66 133.293 747.927 133.68C747.193 134.053 746.34 134.24 745.367 134.24ZM745.367 125.06C744.993 125.06 744.647 125.127 744.327 125.26C744.02 125.393 743.753 125.58 743.527 125.82C743.313 126.06 743.147 126.347 743.027 126.68C742.907 127.013 742.847 127.38 742.847 127.78V127.92H747.687V127.72C747.687 126.92 747.48 126.28 747.067 125.8C746.653 125.307 746.087 125.06 745.367 125.06ZM755.28 134C754.52 134 753.947 133.807 753.56 133.42C753.173 133.02 752.98 132.46 752.98 131.74V125.38H751.36V123.6H752.24C752.6 123.6 752.847 123.52 752.98 123.36C753.127 123.2 753.2 122.94 753.2 122.58V120.76H755.16V123.6H757.34V125.38H755.16V132.22H757.18V134H755.28ZM763.706 134.24C762.96 134.24 762.293 134.113 761.706 133.86C761.12 133.607 760.62 133.247 760.206 132.78C759.793 132.3 759.473 131.727 759.246 131.06C759.033 130.38 758.926 129.627 758.926 128.8C758.926 127.973 759.033 127.227 759.246 126.56C759.473 125.88 759.793 125.307 760.206 124.84C760.62 124.36 761.12 123.993 761.706 123.74C762.293 123.487 762.96 123.36 763.706 123.36C764.466 123.36 765.133 123.493 765.706 123.76C766.293 124.027 766.78 124.4 767.166 124.88C767.553 125.347 767.84 125.893 768.026 126.52C768.226 127.147 768.326 127.82 768.326 128.54V129.36H761.186V129.7C761.186 130.5 761.42 131.16 761.886 131.68C762.366 132.187 763.046 132.44 763.926 132.44C764.566 132.44 765.106 132.3 765.546 132.02C765.986 131.74 766.36 131.36 766.666 130.88L767.946 132.14C767.56 132.78 767 133.293 766.266 133.68C765.533 134.053 764.68 134.24 763.706 134.24ZM763.706 125.06C763.333 125.06 762.986 125.127 762.666 125.26C762.36 125.393 762.093 125.58 761.866 125.82C761.653 126.06 761.486 126.347 761.366 126.68C761.246 127.013 761.186 127.38 761.186 127.78V127.92H766.026V127.72C766.026 126.92 765.82 126.28 765.406 125.8C764.993 125.307 764.426 125.06 763.706 125.06ZM769.306 134L772.966 128.74L769.406 123.6H771.926L774.266 127.22H774.326L776.726 123.6H779.046L775.486 128.72L779.106 134H776.586L774.186 130.22H774.126L771.626 134H769.306Z" fill="#3C3C3C"/>
<path d="M729.312 221.24C727.485 221.24 726.052 220.627 725.012 219.4C723.972 218.16 723.452 216.367 723.452 214.02C723.452 212.847 723.585 211.813 723.852 210.92C724.118 210.027 724.505 209.273 725.012 208.66C725.518 208.047 726.132 207.587 726.852 207.28C727.585 206.96 728.405 206.8 729.312 206.8C730.525 206.8 731.538 207.067 732.352 207.6C733.178 208.133 733.825 208.92 734.292 209.96L732.392 211C732.152 210.333 731.778 209.807 731.272 209.42C730.778 209.02 730.125 208.82 729.312 208.82C728.232 208.82 727.385 209.187 726.772 209.92C726.158 210.653 725.852 211.667 725.852 212.96V215.08C725.852 216.373 726.158 217.387 726.772 218.12C727.385 218.853 728.232 219.22 729.312 219.22C730.152 219.22 730.832 219.007 731.352 218.58C731.885 218.14 732.278 217.58 732.532 216.9L734.352 218C733.885 219.013 733.232 219.807 732.392 220.38C731.552 220.953 730.525 221.24 729.312 221.24ZM736.587 221V210.6H738.767V212.6H738.867C739.014 212.067 739.321 211.6 739.787 211.2C740.254 210.8 740.901 210.6 741.727 210.6H742.307V212.7H741.447C740.581 212.7 739.914 212.84 739.447 213.12C738.994 213.4 738.767 213.813 738.767 214.36V221H736.587ZM748.226 221.24C747.479 221.24 746.813 221.113 746.226 220.86C745.639 220.607 745.139 220.247 744.726 219.78C744.313 219.3 743.993 218.727 743.766 218.06C743.553 217.38 743.446 216.627 743.446 215.8C743.446 214.973 743.553 214.227 743.766 213.56C743.993 212.88 744.313 212.307 744.726 211.84C745.139 211.36 745.639 210.993 746.226 210.74C746.813 210.487 747.479 210.36 748.226 210.36C748.986 210.36 749.653 210.493 750.226 210.76C750.813 211.027 751.299 211.4 751.686 211.88C752.073 212.347 752.359 212.893 752.546 213.52C752.746 214.147 752.846 214.82 752.846 215.54V216.36H745.706V216.7C745.706 217.5 745.939 218.16 746.406 218.68C746.886 219.187 747.566 219.44 748.446 219.44C749.086 219.44 749.626 219.3 750.066 219.02C750.506 218.74 750.879 218.36 751.186 217.88L752.466 219.14C752.079 219.78 751.519 220.293 750.786 220.68C750.053 221.053 749.199 221.24 748.226 221.24ZM748.226 212.06C747.853 212.06 747.506 212.127 747.186 212.26C746.879 212.393 746.613 212.58 746.386 212.82C746.173 213.06 746.006 213.347 745.886 213.68C745.766 214.013 745.706 214.38 745.706 214.78V214.92H750.546V214.72C750.546 213.92 750.339 213.28 749.926 212.8C749.513 212.307 748.946 212.06 748.226 212.06ZM759.339 221.24C758.593 221.24 757.926 221.113 757.339 220.86C756.753 220.607 756.253 220.247 755.839 219.78C755.426 219.3 755.106 218.727 754.879 218.06C754.666 217.38 754.559 216.627 754.559 215.8C754.559 214.973 754.666 214.227 754.879 213.56C755.106 212.88 755.426 212.307 755.839 211.84C756.253 211.36 756.753 210.993 757.339 210.74C757.926 210.487 758.593 210.36 759.339 210.36C760.099 210.36 760.766 210.493 761.339 210.76C761.926 211.027 762.413 211.4 762.799 211.88C763.186 212.347 763.473 212.893 763.659 213.52C763.859 214.147 763.959 214.82 763.959 215.54V216.36H756.819V216.7C756.819 217.5 757.053 218.16 757.519 218.68C757.999 219.187 758.679 219.44 759.559 219.44C760.199 219.44 760.739 219.3 761.179 219.02C761.619 218.74 761.993 218.36 762.299 217.88L763.579 219.14C763.193 219.78 762.633 220.293 761.899 220.68C761.166 221.053 760.313 221.24 759.339 221.24ZM759.339 212.06C758.966 212.06 758.619 212.127 758.299 212.26C757.993 212.393 757.726 212.58 757.499 212.82C757.286 213.06 757.119 213.347 756.999 213.68C756.879 214.013 756.819 214.38 756.819 214.78V214.92H761.659V214.72C761.659 213.92 761.453 213.28 761.039 212.8C760.626 212.307 760.059 212.06 759.339 212.06ZM772.913 219.28H772.813C772.586 219.893 772.213 220.373 771.693 220.72C771.186 221.067 770.586 221.24 769.893 221.24C768.573 221.24 767.553 220.767 766.833 219.82C766.113 218.86 765.753 217.52 765.753 215.8C765.753 214.08 766.113 212.747 766.833 211.8C767.553 210.84 768.573 210.36 769.893 210.36C770.586 210.36 771.186 210.533 771.693 210.88C772.213 211.213 772.586 211.693 772.813 212.32H772.913V206.2H775.092V221H772.913V219.28ZM770.553 219.36C771.219 219.36 771.779 219.2 772.233 218.88C772.686 218.547 772.913 218.113 772.913 217.58V214.02C772.913 213.487 772.686 213.06 772.233 212.74C771.779 212.407 771.219 212.24 770.553 212.24C769.793 212.24 769.186 212.487 768.733 212.98C768.279 213.46 768.053 214.1 768.053 214.9V216.7C768.053 217.5 768.279 218.147 768.733 218.64C769.186 219.12 769.793 219.36 770.553 219.36Z" fill="#3C3C3C"/>
<path d="M745.501 310L744.241 306.22H739.021L737.801 310H735.501L740.261 296.04H743.101L747.861 310H745.501ZM741.681 298.12H741.581L739.561 304.28H743.681L741.681 298.12ZM749.863 310V299.6H752.043V301.6H752.143C752.289 301.067 752.596 300.6 753.063 300.2C753.529 299.8 754.176 299.6 755.003 299.6H755.583V301.7H754.723C753.856 301.7 753.189 301.84 752.723 302.12C752.269 302.4 752.043 302.813 752.043 303.36V310H749.863ZM761.441 310.24C760.695 310.24 760.028 310.113 759.441 309.86C758.855 309.607 758.361 309.247 757.961 308.78C757.561 308.3 757.255 307.727 757.041 307.06C756.828 306.38 756.721 305.627 756.721 304.8C756.721 303.973 756.828 303.227 757.041 302.56C757.255 301.88 757.561 301.307 757.961 300.84C758.361 300.36 758.855 299.993 759.441 299.74C760.028 299.487 760.695 299.36 761.441 299.36C762.481 299.36 763.335 299.593 764.001 300.06C764.668 300.527 765.155 301.147 765.461 301.92L763.661 302.76C763.515 302.28 763.255 301.9 762.881 301.62C762.521 301.327 762.041 301.18 761.441 301.18C760.641 301.18 760.035 301.433 759.621 301.94C759.221 302.433 759.021 303.08 759.021 303.88V305.74C759.021 306.54 759.221 307.193 759.621 307.7C760.035 308.193 760.641 308.44 761.441 308.44C762.081 308.44 762.588 308.287 762.961 307.98C763.348 307.66 763.655 307.24 763.881 306.72L765.541 307.6C765.195 308.453 764.675 309.107 763.981 309.56C763.288 310.013 762.441 310.24 761.441 310.24ZM770.917 310.24C769.93 310.24 769.103 310.067 768.437 309.72C767.77 309.373 767.19 308.893 766.697 308.28L768.097 307C768.483 307.467 768.91 307.833 769.377 308.1C769.857 308.353 770.41 308.48 771.037 308.48C771.677 308.48 772.15 308.36 772.457 308.12C772.777 307.867 772.937 307.52 772.937 307.08C772.937 306.747 772.823 306.467 772.597 306.24C772.383 306 772.003 305.847 771.457 305.78L770.497 305.66C769.43 305.527 768.59 305.22 767.977 304.74C767.377 304.247 767.077 303.52 767.077 302.56C767.077 302.053 767.17 301.607 767.357 301.22C767.543 300.82 767.803 300.487 768.137 300.22C768.483 299.94 768.89 299.727 769.357 299.58C769.837 299.433 770.363 299.36 770.937 299.36C771.87 299.36 772.63 299.507 773.217 299.8C773.817 300.093 774.35 300.5 774.817 301.02L773.477 302.3C773.21 301.98 772.857 301.707 772.417 301.48C771.99 301.24 771.497 301.12 770.937 301.12C770.337 301.12 769.89 301.24 769.597 301.48C769.317 301.72 769.177 302.033 769.177 302.42C769.177 302.82 769.303 303.12 769.557 303.32C769.81 303.52 770.217 303.667 770.777 303.76L771.737 303.88C772.883 304.053 773.717 304.393 774.237 304.9C774.77 305.393 775.037 306.06 775.037 306.9C775.037 307.407 774.937 307.867 774.737 308.28C774.55 308.68 774.277 309.027 773.917 309.32C773.557 309.613 773.123 309.84 772.617 310C772.11 310.16 771.543 310.24 770.917 310.24Z" fill="#3C3C3C"/>
<path fill-rule="evenodd" clip-rule="evenodd" d="M146 210.001C146 216.629 140.627 222 134.001 222C127.373 222 122 216.629 122 210.001C122 203.373 127.373 198 134.001 198C140.627 198 146 203.373 146 210.001ZM130.565 204.282C130.273 204.282 129.981 204.281 129.689 204.281H127.081C126.992 204.281 126.948 204.327 126.946 204.419V209.625C126.946 209.714 126.992 209.76 127.081 209.76H129.058C129.142 209.758 129.176 209.781 129.171 209.868C129.164 209.972 129.161 210.075 129.159 210.178C129.158 210.229 129.157 210.281 129.155 210.333C129.122 211.142 128.711 211.737 128.072 212.189C127.763 212.409 127.398 212.491 127.033 212.562C126.969 212.575 126.946 212.596 126.946 212.662C126.948 213.306 126.948 213.947 126.946 214.588C126.946 214.665 126.971 214.688 127.043 214.677C127.114 214.669 127.186 214.662 127.257 214.654C127.363 214.643 127.469 214.632 127.574 214.619C128.417 214.506 129.232 214.292 129.983 213.88C130.892 213.385 131.554 212.662 131.96 211.704C132.307 210.887 132.435 210.023 132.437 209.14C132.44 208.236 132.44 207.334 132.44 206.431C132.439 205.754 132.439 205.077 132.44 204.399C132.44 204.302 132.409 204.279 132.317 204.281C131.733 204.283 131.149 204.283 130.565 204.282Z" fill="#2F2F2F"/>
</g>
<defs>
<filter id="filter0_d_110_9481" x="386" y="118" width="191" height="190.994" filterUnits="userSpaceOnUse" color-interpolation-filters="sRGB">
<feFlood flood-opacity="0" result="BackgroundImageFix"/>
<feColorMatrix in="SourceAlpha" type="matrix" values="0 0 0 0 0 0 0 0 0 0 0 0 0 0 0 0 0 0 127 0" result="hardAlpha"/>
<feOffset dx="-3" dy="-2"/>
<feGaussianBlur stdDeviation="2"/>
<feComposite in2="hardAlpha" operator="out"/>
<feColorMatrix type="matrix" values="0 0 0 0 0.0796983 0 0 0 0 0.0812874 0 0 0 0 0.0824381 0 0 0 0.11 0"/>
<feBlend mode="normal" in2="BackgroundImageFix" result="effect1_dropShadow_110_9481"/>
<feBlend mode="normal" in="SourceGraphic" in2="effect1_dropShadow_110_9481" result="shape"/>
</filter>
<filter id="filter1_f_110_9481" x="431.177" y="157.946" width="106.165" height="114.145" filterUnits="userSpaceOnUse" color-interpolation-filters="sRGB">
<feFlood flood-opacity="0" result="BackgroundImageFix"/>
<feBlend mode="normal" in="SourceGraphic" in2="BackgroundImageFix" result="shape"/>
<feGaussianBlur stdDeviation="8.7" result="effect1_foregroundBlur_110_9481"/>
</filter>
<linearGradient id="paint0_linear_110_9481" x1="482.231" y1="200.384" x2="482.231" y2="344.123" gradientUnits="userSpaceOnUse">
<stop stop-color="#DFDFDF"/>
<stop offset="1" stop-color="#F1F3F5" stop-opacity="0"/>
</linearGradient>
<radialGradient id="paint1_radial_110_9481" cx="0" cy="0" r="1" gradientUnits="userSpaceOnUse" gradientTransform="translate(479.301 293.89) rotate(-0.330002) scale(165.087 211.693)">
<stop offset="0.583333" stop-color="#C7C7C7"/>
<stop offset="0.90625" stop-color="#AAA7A7" stop-opacity="0.14"/>
<stop offset="1" stop-color="#979797" stop-opacity="0.07"/>
</radialGradient>
<linearGradient id="paint2_linear_110_9481" x1="181.568" y1="97.5965" x2="181.568" y2="145.963" gradientUnits="userSpaceOnUse">
<stop stop-color="#EBEBEB"/>
<stop offset="1" stop-color="#E4E4E4" stop-opacity="0.49"/>
</linearGradient>
<linearGradient id="paint3_linear_110_9481" x1="317.316" y1="122.228" x2="346.626" y2="122.228" gradientUnits="userSpaceOnUse">
<stop stop-color="#B6B6B6"/>
<stop offset="1" stop-color="#FAFAFA" stop-opacity="0"/>
</linearGradient>
<linearGradient id="paint4_linear_110_9481" x1="180.709" y1="275.745" x2="180.709" y2="320.98" gradientUnits="userSpaceOnUse">
<stop stop-color="#EBEBEB"/>
<stop offset="1" stop-color="#E4E4E4" stop-opacity="0.49"/>
</linearGradient>
<linearGradient id="paint5_linear_110_9481" x1="319.316" y1="298.277" x2="348.626" y2="298.277" gradientUnits="userSpaceOnUse">
<stop stop-color="#B6B6B6"/>
<stop offset="1" stop-color="#FAFAFA" stop-opacity="0"/>
</linearGradient>
<linearGradient id="paint6_linear_110_9481" x1="180.709" y1="186.745" x2="180.709" y2="231.98" gradientUnits="userSpaceOnUse">
<stop stop-color="#EBEBEB"/>
<stop offset="1" stop-color="#E4E4E4" stop-opacity="0.49"/>
</linearGradient>
<linearGradient id="paint7_linear_110_9481" x1="319.316" y1="209.277" x2="348.626" y2="209.277" gradientUnits="userSpaceOnUse">
<stop stop-color="#B6B6B6"/>
<stop offset="1" stop-color="#FAFAFA" stop-opacity="0"/>
</linearGradient>
<linearGradient id="paint8_linear_110_9481" x1="772.585" y1="102.597" x2="772.585" y2="150.963" gradientUnits="userSpaceOnUse">
<stop stop-color="#EBEBEB"/>
<stop offset="1" stop-color="#E4E4E4" stop-opacity="0.49"/>
</linearGradient>
<linearGradient id="paint9_linear_110_9481" x1="636.837" y1="127.228" x2="607.527" y2="127.228" gradientUnits="userSpaceOnUse">
<stop stop-color="#B6B6B6"/>
<stop offset="1" stop-color="#FAFAFA" stop-opacity="0"/>
</linearGradient>
<linearGradient id="paint10_linear_110_9481" x1="773.444" y1="280.745" x2="773.444" y2="325.98" gradientUnits="userSpaceOnUse">
<stop stop-color="#EBEBEB"/>
<stop offset="1" stop-color="#E4E4E4" stop-opacity="0.49"/>
</linearGradient>
<linearGradient id="paint11_linear_110_9481" x1="634.837" y1="303.277" x2="605.527" y2="303.277" gradientUnits="userSpaceOnUse">
<stop stop-color="#B6B6B6"/>
<stop offset="1" stop-color="#FAFAFA" stop-opacity="0"/>
</linearGradient>
<linearGradient id="paint12_linear_110_9481" x1="773.444" y1="191.745" x2="773.444" y2="236.98" gradientUnits="userSpaceOnUse">
<stop stop-color="#EBEBEB"/>
<stop offset="1" stop-color="#E4E4E4" stop-opacity="0.49"/>
</linearGradient>
<linearGradient id="paint13_linear_110_9481" x1="634.837" y1="214.277" x2="605.527" y2="214.277" gradientUnits="userSpaceOnUse">
<stop stop-color="#B6B6B6"/>
<stop offset="1" stop-color="#FAFAFA" stop-opacity="0"/>
</linearGradient>
<linearGradient id="paint14_linear_110_9481" x1="126.81" y1="131.593" x2="123.2" y2="128.932" gradientUnits="userSpaceOnUse">
<stop stop-color="white"/>
<stop offset="1" stop-opacity="0"/>
</linearGradient>
<linearGradient id="paint15_linear_110_9481" x1="140.648" y1="129.496" x2="137.051" y2="126.852" gradientUnits="userSpaceOnUse">
<stop stop-color="white"/>
<stop offset="1" stop-opacity="0"/>
</linearGradient>
<linearGradient id="paint16_linear_110_9481" x1="132.835" y1="115.164" x2="140.526" y2="125.008" gradientUnits="userSpaceOnUse">
<stop stop-color="white"/>
<stop offset="1" stop-color="white" stop-opacity="0"/>
</linearGradient>
<linearGradient id="paint17_linear_110_9481" x1="133.836" y1="121.373" x2="131.091" y2="118.568" gradientUnits="userSpaceOnUse">
<stop stop-color="white"/>
<stop offset="1" stop-color="white" stop-opacity="0"/>
</linearGradient>
<clipPath id="clip0_110_9481">
<rect width="967" height="401" fill="white"/>
</clipPath>
</defs>
</svg>
