<svg width="967" height="401" viewBox="0 0 967 401" fill="none" xmlns="http://www.w3.org/2000/svg">
<path d="M100.457 400.031L479.794 199.08L848.005 400.031H100.457Z" fill="url(#paint0_linear_1854_12295)"/>
<path d="M880.762 99.8115H730.939C726.191 99.8115 722.343 103.66 722.343 108.408V140.774C722.343 145.521 726.191 149.37 730.939 149.37H880.762C885.509 149.37 889.358 145.521 889.358 140.774V108.408C889.358 103.66 885.509 99.8115 880.762 99.8115Z" fill="#171717"/>
<path d="M880.762 99.8115H730.939C726.191 99.8115 722.343 103.66 722.343 108.408V140.774C722.343 145.521 726.191 149.37 730.939 149.37H880.762C885.509 149.37 889.358 145.521 889.358 140.774V108.408C889.358 103.66 885.509 99.8115 880.762 99.8115Z" stroke="url(#paint1_linear_1854_12295)" stroke-width="1.19202"/>
<path d="M209.932 262.378H55.7051C50.9577 262.378 47.1091 266.226 47.1091 270.974V300.131C47.1091 304.879 50.9577 308.727 55.7051 308.727H209.932C214.68 308.727 218.528 304.879 218.528 300.131V270.974C218.528 266.226 214.68 262.378 209.932 262.378Z" fill="#171717"/>
<path d="M209.932 262.378H55.7051C50.9577 262.378 47.1091 266.226 47.1091 270.974V300.131C47.1091 304.879 50.9577 308.727 55.7051 308.727H209.932C214.68 308.727 218.528 304.879 218.528 300.131V270.974C218.528 266.226 214.68 262.378 209.932 262.378Z" stroke="url(#paint2_linear_1854_12295)" stroke-width="1.19202"/>
<path opacity="0.5" d="M611.919 271.991V116.414L476.508 38.626M611.919 271.991L476.508 349.78L341.098 271.991M611.919 271.991L476.885 197.604M336.5 111.5L341.098 271.991M341.098 271.991L477.431 197.751M477.193 197.976V42.4098M509.419 216.708V65.6046M540.392 232.588V82.7318M575.314 251.826V103.437M443.99 215.962V65.6045M414.174 232.198V82.7831M378.095 251.844V103.437M341.622 239.284L476.898 161.183M341.622 202.533L476.898 124.431M341.622 165.781L476.898 87.6803M612.769 239.439L477.494 161.338M612.769 202.688L477.494 124.586M612.769 165.936L477.494 87.8353" stroke="url(#paint3_radial_1854_12295)" stroke-width="0.5"/>
<path d="M458.487 76.4255C459.469 76.4255 460.265 75.6294 460.265 74.6473C460.265 73.6653 459.469 72.8691 458.487 72.8691C457.505 72.8691 456.709 73.6653 456.709 74.6473C456.709 75.6294 457.505 76.4255 458.487 76.4255Z" fill="#707070"/>
<path d="M591.896 199.09C592.988 199.09 593.872 198.21 593.872 197.124C593.872 196.038 592.988 195.157 591.896 195.157C590.805 195.157 589.92 196.038 589.92 197.124C589.92 198.21 590.805 199.09 591.896 199.09Z" fill="#3E3E3E"/>
<path d="M490.402 208.559C491.494 208.559 492.378 207.678 492.378 206.592C492.378 205.506 491.494 204.626 490.402 204.626C489.311 204.626 488.426 205.506 488.426 206.592C488.426 207.678 489.311 208.559 490.402 208.559Z" fill="#3DCB8C"/>
<path d="M409.517 205.39C411.266 205.39 412.683 203.98 412.683 202.241C412.683 200.501 411.266 199.091 409.517 199.091C407.769 199.091 406.352 200.501 406.352 202.241C406.352 203.98 407.769 205.39 409.517 205.39Z" fill="#707070"/>
<path d="M580.004 279.565C581.096 279.565 581.98 278.684 581.98 277.598C581.98 276.512 581.096 275.632 580.004 275.632C578.913 275.632 578.028 276.512 578.028 277.598C578.028 278.684 578.913 279.565 580.004 279.565Z" fill="#3E3E3E"/>
<path d="M590.112 260.254C591.094 260.254 591.89 259.457 591.89 258.475C591.89 257.493 591.094 256.697 590.112 256.697C589.13 256.697 588.334 257.493 588.334 258.475C588.334 259.457 589.13 260.254 590.112 260.254Z" fill="#707070"/>
<path d="M383.754 218.025C385.065 218.025 386.127 216.968 386.127 215.665C386.127 214.361 385.065 213.304 383.754 213.304C382.444 213.304 381.381 214.361 381.381 215.665C381.381 216.968 382.444 218.025 383.754 218.025Z" fill="#3E3E3E"/>
<path d="M391.882 188.458C392.864 188.458 393.66 187.662 393.66 186.68C393.66 185.697 392.864 184.901 391.882 184.901C390.9 184.901 390.104 185.697 390.104 186.68C390.104 187.662 390.9 188.458 391.882 188.458Z" fill="#3E3E3E"/>
<path d="M542.334 300.866C544.082 300.866 545.5 299.456 545.5 297.716C545.5 295.977 544.082 294.566 542.334 294.566C540.586 294.566 539.168 295.977 539.168 297.716C539.168 299.456 540.586 300.866 542.334 300.866Z" fill="#3DCB8C"/>
<path d="M426.77 218.438C427.752 218.438 428.548 217.642 428.548 216.66C428.548 215.678 427.752 214.882 426.77 214.882C425.788 214.882 424.992 215.678 424.992 216.66C424.992 217.642 425.788 218.438 426.77 218.438Z" fill="#3DCB8C"/>
<path d="M443.619 135.975C444.71 135.975 445.595 135.094 445.595 134.008C445.595 132.922 444.71 132.042 443.619 132.042C442.527 132.042 441.643 132.922 441.643 134.008C441.643 135.094 442.527 135.975 443.619 135.975Z" fill="#3E3E3E"/>
<path d="M503.486 83.9024C504.796 83.9024 505.859 82.8454 505.859 81.5415C505.859 80.2377 504.796 79.1807 503.486 79.1807C502.176 79.1807 501.113 80.2377 501.113 81.5415C501.113 82.8454 502.176 83.9024 503.486 83.9024Z" fill="#3E3E3E"/>
<path d="M510.621 137.552C511.493 137.552 512.201 136.848 512.201 135.98C512.201 135.112 511.493 134.408 510.621 134.408C509.748 134.408 509.041 135.112 509.041 135.98C509.041 136.848 509.748 137.552 510.621 137.552Z" fill="#707070"/>
<path d="M355.209 227.493C356.957 227.493 358.375 226.083 358.375 224.343C358.375 222.604 356.957 221.193 355.209 221.193C353.461 221.193 352.043 222.604 352.043 224.343C352.043 226.083 353.461 227.493 355.209 227.493Z" fill="#3E3E3E"/>
<path d="M367.116 269.72C368.098 269.72 368.894 268.924 368.894 267.942C368.894 266.96 368.098 266.164 367.116 266.164C366.134 266.164 365.338 266.96 365.338 267.942C365.338 268.924 366.134 269.72 367.116 269.72Z" fill="#707070"/>
<path d="M500.713 197.809C502.68 197.809 504.275 196.222 504.275 194.265C504.275 192.308 502.68 190.721 500.713 190.721C498.746 190.721 497.151 192.308 497.151 194.265C497.151 196.222 498.746 197.809 500.713 197.809Z" fill="#3DCB8C"/>
<path d="M401.599 308.75C403.785 308.75 405.558 306.986 405.558 304.811C405.558 302.636 403.785 300.872 401.599 300.872C399.413 300.872 397.641 302.636 397.641 304.811C397.641 306.986 399.413 308.75 401.599 308.75Z" fill="#3E3E3E"/>
<path d="M476.527 172.266C477.837 172.266 478.9 171.209 478.9 169.905C478.9 168.601 477.837 167.544 476.527 167.544C475.217 167.544 474.154 168.601 474.154 169.905C474.154 171.209 475.217 172.266 476.527 172.266Z" fill="#3DCB8C"/>
<path d="M457.894 163.329C459.861 163.329 461.456 161.742 461.456 159.785C461.456 157.827 459.861 156.24 457.894 156.24C455.927 156.24 454.332 157.827 454.332 159.785C454.332 161.742 455.927 163.329 457.894 163.329Z" fill="#3DCB8C"/>
<path d="M466.961 240.123C467.834 240.123 468.541 239.42 468.541 238.551C468.541 237.683 467.834 236.979 466.961 236.979C466.089 236.979 465.381 237.683 465.381 238.551C465.381 239.42 466.089 240.123 466.961 240.123Z" fill="#3DCB8C"/>
<path d="M382.962 113.094C385.148 113.094 386.921 111.331 386.921 109.156C386.921 106.98 385.148 105.217 382.962 105.217C380.776 105.217 379.003 106.98 379.003 109.156C379.003 111.331 380.776 113.094 382.962 113.094Z" fill="#3E3E3E"/>
<path d="M450.379 190.354C452.346 190.354 453.941 188.767 453.941 186.81C453.941 184.852 452.346 183.266 450.379 183.266C448.412 183.266 446.817 184.852 446.817 186.81C446.817 188.767 448.412 190.354 450.379 190.354Z" fill="#3DCB8C"/>
<path d="M216.548 286.514C216.548 287.987 217.742 289.181 219.215 289.181C220.688 289.181 221.882 287.987 221.882 286.514C221.882 285.041 220.688 283.847 219.215 283.847C217.742 283.847 216.548 285.041 216.548 286.514ZM219.215 287.014H322.889V286.014H219.215V287.014Z" fill="url(#paint4_linear_1854_12295)"/>
<path d="M724.606 125.041C724.606 126.514 723.412 127.708 721.939 127.708C720.467 127.708 719.273 126.514 719.273 125.041C719.273 123.568 720.467 122.374 721.939 122.374C723.412 122.374 724.606 123.568 724.606 125.041ZM721.939 125.541H618.266V124.541H721.939V125.541Z" fill="url(#paint5_linear_1854_12295)"/>
<path d="M477.738 242.174V293.029L540 205.102L477.738 242.174Z" fill="#282828"/>
<path d="M477.738 89.6084L540 193.221L477.738 230.293L415 193.221" fill="#343434"/>
<path d="M477.738 89.6084V164.703L415 193.221M415 205.103L477.738 242.175V293.03" fill="#1B1B1B"/>
<path d="M477.738 164.704V230.293L540 193.221" fill="#141414"/>
<path d="M415 193.221L477.738 164.704V230.293" fill="#161616"/>
<path fill-rule="evenodd" clip-rule="evenodd" d="M570.604 84.1402C570.798 84.3298 570.801 84.6404 570.611 84.8339L570.266 85.1866C570.076 85.3802 569.765 85.3833 569.572 85.1937C569.378 85.0041 569.375 84.6935 569.565 84.5L569.911 84.1472C570.1 83.9537 570.411 83.9505 570.604 84.1402ZM568.876 85.9039C569.07 86.0935 569.073 86.4041 568.883 86.5977L568.192 87.3032C568.002 87.4967 567.692 87.4999 567.498 87.3103C567.305 87.1206 567.302 86.8101 567.491 86.6165L568.183 85.911C568.372 85.7175 568.683 85.7143 568.876 85.9039ZM566.802 88.0205C566.996 88.2101 566.999 88.5207 566.81 88.7142L566.118 89.4197C565.929 89.6133 565.618 89.6164 565.425 89.4268C565.231 89.2372 565.228 88.9266 565.417 88.7331L566.109 88.0276C566.298 87.834 566.609 87.8309 566.802 88.0205ZM564.729 90.137C564.922 90.3266 564.925 90.6372 564.736 90.8307L564.044 91.5363C563.855 91.7298 563.544 91.7329 563.351 91.5433C563.157 91.3537 563.154 91.0432 563.344 90.8496L564.035 90.1441C564.225 89.9506 564.535 89.9474 564.729 90.137ZM562.655 92.2536C562.848 92.4432 562.852 92.7538 562.662 92.9473L561.971 93.6528C561.781 93.8463 561.471 93.8495 561.277 93.6599C561.083 93.4703 561.08 93.1597 561.27 92.9661L561.961 92.2606C562.151 92.0671 562.461 92.0639 562.655 92.2536ZM560.581 94.3701C560.775 94.5597 560.778 94.8703 560.588 95.0638L559.897 95.7693C559.707 95.9628 559.397 95.966 559.203 95.7764C559.01 95.5868 559.007 95.2762 559.196 95.0827L559.887 94.3772C560.077 94.1837 560.388 94.1805 560.581 94.3701ZM531.548 124.002C531.742 124.191 531.745 124.502 531.555 124.695L530.864 125.401C530.675 125.594 530.364 125.598 530.17 125.408C529.977 125.218 529.974 124.908 530.163 124.714L530.855 124.009C531.044 123.815 531.355 123.812 531.548 124.002ZM529.475 126.118C529.668 126.308 529.671 126.618 529.482 126.812L528.79 127.517C528.601 127.711 528.29 127.714 528.097 127.524C527.903 127.335 527.9 127.024 528.09 126.831L528.781 126.125C528.97 125.932 529.281 125.929 529.475 126.118ZM527.401 128.235C527.594 128.424 527.598 128.735 527.408 128.928L526.717 129.634C526.527 129.828 526.216 129.831 526.023 129.641C525.829 129.451 525.826 129.141 526.016 128.947L526.707 128.242C526.897 128.048 527.207 128.045 527.401 128.235ZM525.327 130.351C525.521 130.541 525.524 130.851 525.334 131.045L524.643 131.751C524.453 131.944 524.143 131.947 523.949 131.758C523.756 131.568 523.752 131.257 523.942 131.064L524.633 130.358C524.823 130.165 525.134 130.162 525.327 130.351ZM523.253 132.468C523.447 132.657 523.45 132.968 523.26 133.162L522.569 133.867C522.38 134.061 522.069 134.064 521.875 133.874C521.682 133.685 521.679 133.374 521.868 133.18L522.56 132.475C522.749 132.281 523.06 132.278 523.253 132.468ZM521.18 134.584C521.373 134.774 521.376 135.085 521.187 135.278L520.841 135.631C520.651 135.824 520.341 135.827 520.147 135.638C519.954 135.448 519.951 135.138 520.14 134.944L520.486 134.592C520.675 134.398 520.986 134.395 521.18 134.584Z" fill="url(#paint6_linear_1854_12295)"/>
<path fill-rule="evenodd" clip-rule="evenodd" d="M552.313 94.3018H538.705C533.371 94.3018 529.812 98.1205 529.812 103.589V116.411C529.812 121.884 533.362 125.698 538.705 125.698H552.312C557.656 125.698 561.208 121.884 561.208 116.411V103.589C561.208 98.1156 557.657 94.3018 552.313 94.3018ZM538.705 96.6565H552.313C556.317 96.6565 558.853 99.38 558.853 103.589V116.411C558.853 120.62 556.317 123.343 552.312 123.343H538.705C534.701 123.343 532.166 120.62 532.166 116.411V103.589C532.166 99.3854 534.71 96.6565 538.705 96.6565Z" fill="url(#paint7_linear_1854_12295)"/>
<path d="M548.476 103.721H551.372V112.618C551.372 113.617 551.134 114.491 550.657 115.24C550.184 115.989 549.522 116.574 548.67 116.993C547.818 117.408 546.826 117.615 545.693 117.615C544.556 117.615 543.561 117.408 542.709 116.993C541.858 116.574 541.195 115.989 540.723 115.24C540.25 114.491 540.014 113.617 540.014 112.618V103.721H542.91V112.37C542.91 112.892 543.024 113.356 543.251 113.762C543.483 114.168 543.809 114.486 544.228 114.718C544.647 114.95 545.136 115.066 545.693 115.066C546.255 115.066 546.743 114.95 547.158 114.718C547.577 114.486 547.901 114.168 548.128 113.762C548.36 113.356 548.476 112.892 548.476 112.37V103.721Z" fill="url(#paint8_linear_1854_12295)"/>
<path d="M598.242 339.049V329.082H599.664L604.176 336.164H604.203V329.082H605.714V339.049H604.285L599.78 331.967H599.753V339.049H598.242Z" fill="#A4A4A4"/>
<path d="M594.493 339.049V329.082H596.003V339.049H594.493Z" fill="#A4A4A4"/>
<path d="M587.571 335.48H590.483L589.041 331.126H589.014L587.571 335.48ZM591.687 339.049L590.914 336.82H587.134L586.368 339.049H584.769L588.392 329.082H589.656L593.279 339.049H591.687Z" fill="#A4A4A4"/>
<path d="M582.045 339.049V334.694H578.101V339.049H576.59V329.082H578.101V333.354H582.045V329.082H583.556V339.049H582.045Z" fill="#A4A4A4"/>
<path d="M573.777 336.26H575.376C575.158 337.185 574.741 337.896 574.125 338.393C573.492 338.885 572.742 339.131 571.876 339.131C571.093 339.113 570.439 338.921 569.915 338.557C569.381 338.206 568.994 337.8 568.752 337.34C568.68 337.189 568.613 337.046 568.554 336.909C568.5 336.768 568.454 336.59 568.417 336.376C568.349 335.975 568.315 335.205 568.315 334.065C568.315 332.908 568.349 332.133 568.417 331.741C568.49 331.349 568.602 331.033 568.752 330.791C568.994 330.331 569.381 329.921 569.915 329.561C570.439 329.196 571.093 329.009 571.876 329C572.838 329.009 573.622 329.294 574.228 329.854C574.834 330.42 575.217 331.119 575.376 331.953H573.777C573.654 331.552 573.431 331.21 573.107 330.928C572.77 330.659 572.36 330.52 571.876 330.511C571.521 330.52 571.216 330.59 570.96 330.723C570.701 330.859 570.491 331.03 570.332 331.235C570.136 331.45 570.006 331.725 569.942 332.062C569.869 332.418 569.833 333.086 569.833 334.065C569.833 335.045 569.869 335.708 569.942 336.055C570.006 336.401 570.136 336.681 570.332 336.896C570.491 337.101 570.701 337.267 570.96 337.395C571.216 337.545 571.521 337.62 571.876 337.62C572.724 337.62 573.358 337.167 573.777 336.26Z" fill="#A4A4A4"/>
<path d="M559.75 339.049V334.947L556.749 329.082H558.348L560.46 333.505L562.573 329.082H564.172L561.171 334.947V339.049H559.75Z" fill="#A4A4A4"/>
<path d="M552.562 339.049V330.429H549.834V329.082H556.807V330.429H554.08V339.049H552.562Z" fill="#A4A4A4"/>
<path d="M547.124 339.049V329.082H548.635V339.049H547.124Z" fill="#A4A4A4"/>
<path d="M539.191 339.049V329.082H540.702V337.62H545.555V339.049H539.191Z" fill="#A4A4A4"/>
<path d="M535.441 339.049V329.082H536.952V339.049H535.441Z" fill="#A4A4A4"/>
<path d="M529.99 339.049V330.429H527.263V329.082H534.235V330.429H531.508V339.049H529.99Z" fill="#A4A4A4"/>
<path d="M519.159 335.672V329.082H520.669V335.508C520.679 336.187 520.875 336.704 521.257 337.06C521.631 337.433 522.112 337.62 522.7 337.62C523.288 337.62 523.773 337.433 524.156 337.06C524.529 336.704 524.721 336.187 524.73 335.508V329.082H526.241V335.672C526.222 336.72 525.883 337.552 525.222 338.167C524.557 338.8 523.716 339.122 522.7 339.131C521.702 339.122 520.868 338.8 520.198 338.167C519.514 337.552 519.168 336.72 519.159 335.672Z" fill="#A4A4A4"/>
<path d="M507.784 336.629C508.577 337.281 509.521 337.611 510.614 337.62C511.909 337.602 512.565 337.139 512.583 336.232C512.592 335.49 512.159 335.043 511.284 334.893C510.883 334.838 510.443 334.776 509.965 334.708C509.108 334.567 508.456 334.25 508.01 333.758C507.549 333.252 507.319 332.637 507.319 331.912C507.319 331.042 507.609 330.34 508.188 329.807C508.748 329.278 509.543 329.009 510.573 329C511.813 329.027 512.891 329.371 513.807 330.032L512.966 331.276C512.218 330.784 511.396 330.529 510.498 330.511C510.033 330.511 509.646 330.627 509.336 330.859C509.012 331.101 508.846 331.461 508.837 331.939C508.837 332.227 508.949 332.486 509.172 332.719C509.395 332.956 509.753 333.12 510.245 333.211C510.519 333.257 510.892 333.309 511.366 333.368C512.3 333.496 512.991 333.831 513.438 334.373C513.88 334.906 514.101 335.526 514.101 336.232C514.05 338.137 512.884 339.104 510.601 339.131C509.124 339.131 507.855 338.675 506.793 337.764L507.784 336.629Z" fill="#A4A4A4"/>
<path d="M502.209 339.049V330.429H499.482V329.082H506.455V330.429H503.727V339.049H502.209Z" fill="#A4A4A4"/>
<path d="M492.588 339.049V329.082H498.952V330.511H494.099V333.354H498.241V334.694H494.099V337.62H498.952V339.049H492.588Z" fill="#A4A4A4"/>
<path d="M485.885 336.95C486.027 337.137 486.209 337.29 486.432 337.408C486.655 337.549 486.917 337.62 487.218 337.62C487.619 337.629 488.002 337.49 488.367 337.203C488.544 337.062 488.683 336.875 488.784 336.643C488.889 336.419 488.941 336.139 488.941 335.802V329.082H490.452V335.952C490.433 336.955 490.105 337.729 489.467 338.276C488.834 338.837 488.098 339.122 487.259 339.131C486.102 339.104 485.238 338.671 484.668 337.832L485.885 336.95Z" fill="#A4A4A4"/>
<path d="M481.958 339.049V329.082H483.469V339.049H481.958Z" fill="#A4A4A4"/>
<path d="M473 339.049V329.082H476.486C477.835 329.091 478.847 329.652 479.521 330.764C479.763 331.137 479.916 331.529 479.979 331.939C480.03 332.35 480.055 333.058 480.055 334.065C480.055 335.136 480.016 335.884 479.938 336.308C479.902 336.522 479.847 336.713 479.774 336.882C479.697 337.046 479.604 337.217 479.494 337.395C479.202 337.864 478.797 338.251 478.277 338.557C477.762 338.885 477.131 339.049 476.384 339.049H473ZM474.511 330.511V337.62H476.315C477.163 337.62 477.778 337.331 478.161 336.752C478.33 336.538 478.437 336.267 478.482 335.938C478.523 335.615 478.544 335.009 478.544 334.12C478.544 333.254 478.523 332.634 478.482 332.261C478.428 331.887 478.298 331.584 478.093 331.352C477.674 330.773 477.081 330.493 476.315 330.511H474.511Z" fill="#A4A4A4"/>
<path d="M458.039 339.049V329.082H464.403V330.511H459.549V333.354H463.692V334.694H459.549V337.62H464.403V339.049H458.039Z" fill="#A4A4A4"/>
<path d="M450.106 339.049V329.082H451.617V337.62H456.47V339.049H450.106Z" fill="#A4A4A4"/>
<path d="M441.421 339.049V329.082H445.283C446.263 329.091 446.999 329.337 447.491 329.82C447.988 330.308 448.236 330.953 448.236 331.755C448.245 332.165 448.147 332.557 447.942 332.931C447.838 333.108 447.687 333.277 447.491 333.437C447.295 333.605 447.054 333.758 446.767 333.895V333.922C447.309 334.063 447.719 334.348 447.997 334.776C448.257 335.218 448.387 335.699 448.387 336.219C448.378 337.08 448.109 337.761 447.58 338.263C447.056 338.787 446.402 339.049 445.618 339.049H441.421ZM445.256 334.626H442.932V337.62H445.256C445.816 337.611 446.227 337.458 446.486 337.162C446.746 336.87 446.876 336.524 446.876 336.123C446.876 335.713 446.746 335.362 446.486 335.07C446.227 334.783 445.816 334.635 445.256 334.626ZM445.112 330.429H442.932V333.279H445.112C445.664 333.279 446.069 333.136 446.329 332.849C446.593 332.584 446.726 332.252 446.726 331.851C446.726 331.45 446.593 331.11 446.329 330.832C446.069 330.572 445.664 330.438 445.112 330.429Z" fill="#A4A4A4"/>
<path d="M437.671 339.049V329.082H439.182V339.049H437.671Z" fill="#A4A4A4"/>
<path d="M432.22 339.049V330.429H429.492V329.082H436.465V330.429H433.737V339.049H432.22Z" fill="#A4A4A4"/>
<path d="M424.649 335.48H427.562L426.119 331.126H426.092L424.649 335.48ZM428.765 339.049L427.992 336.82H424.212L423.446 339.049H421.847L425.47 329.082H426.734L430.357 339.049H428.765Z" fill="#A4A4A4"/>
<path d="M416.997 330.511V333.73H419.232C419.792 333.721 420.214 333.548 420.497 333.211C420.765 332.883 420.9 332.518 420.9 332.117C420.9 331.785 420.845 331.504 420.736 331.276C420.622 331.071 420.462 330.91 420.257 330.791C419.947 330.595 419.587 330.502 419.177 330.511H416.997ZM415.486 339.049V329.082H419.095C419.487 329.082 419.865 329.118 420.23 329.191C420.595 329.287 420.964 329.483 421.337 329.779C421.652 330.003 421.907 330.322 422.103 330.736C422.308 331.137 422.411 331.611 422.411 332.158C422.411 332.896 422.151 333.569 421.631 334.175C421.098 334.813 420.319 335.141 419.293 335.159H416.997V339.049H415.486Z" fill="#A4A4A4"/>
<path d="M404.736 339.049V329.082H406.158L409.016 335.576L411.818 329.082H413.247V339.049H411.736V332.835H411.702L409.617 337.62H408.359L406.274 332.835H406.247V339.049H404.736Z" fill="#A4A4A4"/>
<path d="M395.71 334.065C395.71 332.908 395.744 332.133 395.812 331.741C395.885 331.349 395.997 331.033 396.147 330.791C396.389 330.331 396.776 329.921 397.31 329.561C397.834 329.196 398.488 329.009 399.271 329C400.064 329.009 400.725 329.196 401.254 329.561C401.778 329.921 402.156 330.331 402.389 330.791C402.557 331.033 402.674 331.349 402.737 331.741C402.797 332.133 402.826 332.908 402.826 334.065C402.826 335.205 402.797 335.975 402.737 336.376C402.674 336.777 402.557 337.098 402.389 337.34C402.156 337.8 401.778 338.206 401.254 338.557C400.725 338.921 400.064 339.113 399.271 339.131C398.488 339.113 397.834 338.921 397.31 338.557C396.776 338.206 396.389 337.8 396.147 337.34C396.075 337.189 396.008 337.046 395.949 336.909C395.895 336.768 395.849 336.59 395.812 336.376C395.744 335.975 395.71 335.205 395.71 334.065ZM397.228 334.065C397.228 335.045 397.264 335.708 397.337 336.055C397.401 336.401 397.531 336.681 397.727 336.896C397.886 337.101 398.096 337.267 398.355 337.395C398.611 337.545 398.916 337.62 399.271 337.62C399.632 337.62 399.944 337.545 400.208 337.395C400.459 337.267 400.659 337.101 400.81 336.896C401.006 336.681 401.14 336.401 401.213 336.055C401.281 335.708 401.315 335.045 401.315 334.065C401.315 333.086 401.281 332.418 401.213 332.062C401.14 331.725 401.006 331.45 400.81 331.235C400.659 331.03 400.459 330.859 400.208 330.723C399.944 330.59 399.632 330.52 399.271 330.511C398.916 330.52 398.611 330.59 398.355 330.723C398.096 330.859 397.886 331.03 397.727 331.235C397.531 331.45 397.401 331.725 397.337 332.062C397.264 332.418 397.228 333.086 397.228 334.065Z" fill="#A4A4A4"/>
<path d="M393.239 336.26H394.838C394.62 337.185 394.203 337.896 393.587 338.393C392.954 338.885 392.204 339.131 391.338 339.131C390.555 339.113 389.901 338.921 389.376 338.557C388.843 338.206 388.456 337.8 388.214 337.34C388.141 337.189 388.075 337.046 388.016 336.909C387.961 336.768 387.916 336.59 387.879 336.376C387.811 335.975 387.777 335.205 387.777 334.065C387.777 332.908 387.811 332.133 387.879 331.741C387.952 331.349 388.064 331.033 388.214 330.791C388.456 330.331 388.843 329.921 389.376 329.561C389.901 329.196 390.555 329.009 391.338 329C392.3 329.009 393.084 329.294 393.69 329.854C394.296 330.42 394.679 331.119 394.838 331.953H393.239C393.116 331.552 392.892 331.21 392.569 330.928C392.232 330.659 391.821 330.52 391.338 330.511C390.983 330.52 390.678 330.59 390.422 330.723C390.163 330.859 389.953 331.03 389.793 331.235C389.597 331.45 389.468 331.725 389.404 332.062C389.331 332.418 389.294 333.086 389.294 334.065C389.294 335.045 389.331 335.708 389.404 336.055C389.468 336.401 389.597 336.681 389.793 336.896C389.953 337.101 390.163 337.267 390.422 337.395C390.678 337.545 390.983 337.62 391.338 337.62C392.186 337.62 392.819 337.167 393.239 336.26Z" fill="#A4A4A4"/>
<path d="M373.866 339.049V329.082H375.288L378.145 335.576L380.948 329.082H382.377V339.049H380.866V332.835H380.832L378.747 337.62H377.489L375.404 332.835H375.377V339.049H373.866Z" fill="#A4A4A4"/>
<path d="M368.182 339.049L364.894 329.082H366.494L368.756 336.67H368.784L371.053 329.082H372.653L369.358 339.049H368.182Z" fill="#A4A4A4"/>
<path d="M358 339.049V329.082H364.364V330.511H359.511V333.354H363.653V334.694H359.511V337.62H364.364V339.049H358Z" fill="#A4A4A4"/>
<path d="M208.932 165.56H68.8946C64.1471 165.56 60.2986 169.408 60.2986 174.156V209.833C60.2986 214.58 64.1471 218.429 68.8946 218.429H208.932C213.679 218.429 217.528 214.58 217.528 209.833V174.156C217.528 169.408 213.679 165.56 208.932 165.56Z" fill="#171717"/>
<path d="M208.932 165.56H68.8946C64.1471 165.56 60.2986 169.408 60.2986 174.156V209.833C60.2986 214.58 64.1471 218.429 68.8946 218.429H208.932C213.679 218.429 217.528 214.58 217.528 209.833V174.156C217.528 169.408 213.679 165.56 208.932 165.56Z" stroke="url(#paint9_linear_1854_12295)" stroke-width="1.19202"/>
<path d="M215.548 193.514C215.548 194.987 216.742 196.181 218.215 196.181C219.688 196.181 220.882 194.987 220.882 193.514C220.882 192.041 219.688 190.847 218.215 190.847C216.742 190.847 215.548 192.041 215.548 193.514ZM218.215 194.014H321.889V193.014H218.215V194.014Z" fill="url(#paint10_linear_1854_12295)"/>
<mask id="mask0_1854_12295" style="mask-type:luminance" maskUnits="userSpaceOnUse" x="70" y="176" width="31" height="32">
<path d="M100.025 176.22H70.0022V207.707H100.025V176.22Z" fill="white"/>
</mask>
<g mask="url(#mask0_1854_12295)">
<path d="M100.025 199.704C100.025 199.967 100.025 200.229 99.8886 200.491C99.6157 200.885 99.2063 201.147 98.7968 201.147C98.7968 201.147 98.7969 201.147 98.6604 201.147L85.696 207.576C85.423 207.707 85.2866 207.707 85.0136 207.707C84.8771 207.707 84.8771 207.707 84.7407 207.707C84.7407 207.707 84.7407 207.707 84.6042 207.707C84.4677 207.707 84.3313 207.707 84.1948 207.576L71.3669 201.147H71.2304C70.821 201.147 70.4116 200.885 70.1387 200.491C70.0022 200.229 70.0022 199.967 70.0022 199.835V199.704V184.354V184.223V184.092C70.0022 183.829 70.0022 183.698 70.1387 183.436C70.2751 183.304 70.4116 183.042 70.6845 183.042C70.821 183.042 70.821 182.911 70.9575 182.911H71.0939H71.3669L84.3313 176.482C84.4677 176.22 84.7407 176.22 84.8771 176.22H85.0136C85.0136 176.22 85.0136 176.22 85.1501 176.22C85.423 176.22 85.5595 176.22 85.8325 176.351L98.7968 182.78C99.0698 182.78 99.2063 182.911 99.4792 183.042H99.6157L99.7522 183.173L99.8886 183.304C100.025 183.436 100.025 183.567 100.025 183.698V184.092V199.442V199.704ZM72.7315 197.474L74.915 196.162C75.4609 195.768 76.2797 196.031 76.6891 196.687C77.0985 197.343 76.8256 198.13 76.2797 198.523L74.0962 199.835L83.649 204.558V193.275L81.4654 194.587C80.9196 194.981 80.1008 194.719 79.6914 194.063C79.282 193.407 79.555 192.619 80.1008 192.226L82.2843 190.914L72.7315 186.191V197.474ZM86.3783 179.5V181.468C86.3783 182.255 85.8325 182.78 85.0136 182.78C84.1948 182.78 83.649 182.255 83.649 181.468V179.5L74.3691 184.092L83.649 188.683V186.716C83.649 185.928 84.1948 185.404 85.0136 185.404C85.8325 185.404 86.3783 185.928 86.3783 186.716V188.683L95.6581 184.092L86.3783 179.5ZM97.2957 186.06L87.743 190.783L89.9265 192.095C90.4723 192.488 90.7453 193.275 90.3359 193.931C89.9265 194.587 89.2442 194.719 88.5618 194.456L86.3783 193.144V204.558L95.9311 199.835L93.7476 198.523C93.2017 197.999 92.9288 197.211 93.3382 196.555C93.7476 195.899 94.4299 195.768 95.1122 196.031L97.2957 197.343V186.06Z" fill="#6166DC"/>
</g>
<path d="M117.1 200H114.7V185.82H123.52V188.08H117.1V192.06H122.86V194.28H117.1V200ZM129.449 198.22C130.209 198.22 130.849 197.96 131.369 197.4C131.889 196.86 132.169 196.1 132.169 195.12C132.169 194.16 131.889 193.42 131.369 192.88C130.849 192.34 130.209 192.06 129.449 192.06C128.689 192.06 128.029 192.34 127.509 192.88C126.989 193.42 126.729 194.16 126.729 195.12C126.729 196.08 126.989 196.84 127.509 197.4C128.029 197.96 128.689 198.22 129.449 198.22ZM129.449 189.96C130.909 189.96 132.109 190.46 133.069 191.42C134.029 192.4 134.509 193.64 134.509 195.12C134.509 196.62 134.029 197.86 133.069 198.84C132.109 199.82 130.909 200.3 129.449 200.3C127.989 200.3 126.789 199.82 125.829 198.84C124.869 197.86 124.409 196.62 124.409 195.12C124.409 193.64 124.869 192.4 125.829 191.42C126.789 190.46 127.989 189.96 129.449 189.96ZM143.232 198.92C142.992 199.36 142.632 199.68 142.112 199.92C141.592 200.16 141.052 200.28 140.472 200.28C139.332 200.28 138.432 199.92 137.772 199.18C137.112 198.46 136.792 197.52 136.792 196.4V190.26H139.112V195.98C139.112 196.64 139.272 197.18 139.592 197.58C139.912 198 140.392 198.2 141.072 198.2C141.712 198.2 142.212 198 142.572 197.6C142.932 197.2 143.112 196.68 143.112 196.02V190.26H145.432V198.22C145.432 198.82 145.452 199.4 145.532 200H143.312C143.252 199.72 143.232 199.36 143.232 198.92ZM150.955 194.38V200H148.635V190.26H150.895V191.56C151.195 191.04 151.595 190.64 152.115 190.38C152.635 190.12 153.175 189.98 153.775 189.98C154.915 189.98 155.795 190.34 156.395 191.06C156.995 191.78 157.295 192.72 157.295 193.84V200H154.975V194.24C154.975 193.6 154.815 193.08 154.495 192.68C154.175 192.28 153.655 192.08 152.975 192.08C152.335 192.08 151.835 192.3 151.475 192.74C151.115 193.18 150.955 193.72 150.955 194.38ZM161.88 195.1C161.88 196.04 162.12 196.8 162.6 197.36C163.08 197.92 163.7 198.2 164.5 198.2C165.26 198.2 165.88 197.92 166.36 197.34C166.84 196.78 167.08 196.02 167.08 195.08C167.08 194.16 166.84 193.44 166.38 192.88C165.9 192.34 165.28 192.06 164.52 192.06C163.74 192.06 163.1 192.34 162.62 192.9C162.12 193.46 161.88 194.18 161.88 195.1ZM169.32 185.52V198.22C169.32 198.88 169.34 199.48 169.42 200H167.2C167.12 199.64 167.1 199.22 167.1 198.74C166.86 199.18 166.48 199.54 165.98 199.82C165.46 200.1 164.88 200.24 164.24 200.24C162.84 200.24 161.72 199.76 160.86 198.78C159.98 197.82 159.56 196.58 159.56 195.1C159.56 193.68 159.98 192.48 160.86 191.48C161.74 190.5 162.84 190 164.2 190C164.96 190 165.58 190.14 166.06 190.42C166.54 190.7 166.86 191.04 167.06 191.4V185.52H169.32ZM178.251 190.2V192.56C177.971 192.52 177.731 192.5 177.491 192.5C175.731 192.5 174.871 193.46 174.871 195.36V200H172.551V190.26H174.811V191.82C175.031 191.3 175.391 190.9 175.911 190.6C176.411 190.3 176.991 190.14 177.631 190.14C177.831 190.14 178.051 190.16 178.251 190.2ZM183.699 203.94H181.219L183.559 198.84L179.399 190.26H182.019L184.819 196.42L187.439 190.26H189.899L183.699 203.94Z" fill="white"/>
<path d="M792.3 133H789.92V122.56L785.5 133H783.42L779.04 122.6V133H776.7V118.82H779.9L784.5 129.64L789.04 118.82H792.3V133ZM797.285 127.06H802.065C802.025 126.46 801.805 125.94 801.405 125.52C801.005 125.12 800.425 124.9 799.665 124.9C798.965 124.9 798.405 125.12 797.985 125.56C797.545 126 797.325 126.5 797.285 127.06ZM802.325 129.6L804.285 130.22C804.005 131.12 803.465 131.86 802.705 132.44C801.945 133.02 801.005 133.3 799.885 133.3C798.485 133.3 797.305 132.84 796.345 131.88C795.385 130.94 794.905 129.68 794.905 128.08C794.905 126.6 795.365 125.36 796.305 124.4C797.245 123.44 798.365 122.96 799.645 122.96C801.125 122.96 802.305 123.42 803.145 124.34C803.985 125.26 804.405 126.48 804.405 128.02C804.405 128.44 804.385 128.68 804.345 128.76H797.225C797.245 129.5 797.505 130.1 798.025 130.58C798.545 131.06 799.165 131.3 799.885 131.3C801.125 131.3 801.945 130.74 802.325 129.6ZM809.762 120.28V123.26H811.782V125.32H809.762V129.84C809.762 130.28 809.862 130.58 810.062 130.78C810.262 130.98 810.562 131.06 811.002 131.06C811.262 131.06 811.522 131.04 811.802 130.98V132.9C811.442 133.06 810.982 133.12 810.382 133.12C809.462 133.12 808.762 132.88 808.242 132.36C807.722 131.84 807.462 131.14 807.462 130.22V125.32H805.662V123.26H806.162C806.642 123.26 807.022 123.12 807.282 122.84C807.522 122.56 807.662 122.2 807.662 121.74V120.28H809.762ZM813.785 130.36C813.785 129.54 814.045 128.88 814.585 128.38C815.125 127.88 815.845 127.56 816.725 127.42L819.225 127.04C819.705 126.98 819.945 126.74 819.945 126.34C819.945 125.9 819.785 125.56 819.485 125.28C819.165 125 818.705 124.86 818.105 124.86C817.505 124.86 817.045 125.04 816.705 125.36C816.345 125.68 816.145 126.1 816.105 126.62L813.985 126.14C814.065 125.26 814.485 124.52 815.245 123.9C815.985 123.28 816.925 122.96 818.085 122.96C819.485 122.96 820.525 123.3 821.205 123.98C821.885 124.66 822.225 125.54 822.225 126.6V131.44C822.225 132.08 822.265 132.6 822.345 133H820.185C820.105 132.8 820.085 132.4 820.085 131.76C819.445 132.8 818.445 133.3 817.085 133.3C816.085 133.3 815.285 133.02 814.685 132.44C814.085 131.86 813.785 131.16 813.785 130.36ZM817.525 131.48C818.245 131.48 818.825 131.3 819.265 130.9C819.705 130.5 819.945 129.86 819.945 128.96V128.52L817.405 128.9C816.525 129.06 816.105 129.5 816.105 130.22C816.105 130.58 816.225 130.88 816.485 131.12C816.725 131.36 817.085 131.48 817.525 131.48ZM827.53 133H825.23V123.26H827.45V124.5C827.71 124.02 828.11 123.66 828.65 123.38C829.19 123.12 829.75 122.98 830.33 122.98C830.97 122.98 831.57 123.14 832.09 123.42C832.61 123.72 832.99 124.14 833.25 124.7C833.93 123.56 834.97 122.98 836.41 122.98C837.37 122.98 838.17 123.3 838.85 123.92C839.51 124.56 839.85 125.48 839.85 126.68V133H837.61V127.06C837.61 126.46 837.45 125.98 837.13 125.62C836.81 125.26 836.35 125.06 835.73 125.06C835.13 125.06 834.63 125.28 834.27 125.68C833.89 126.1 833.71 126.62 833.71 127.22V133H831.43V127.06C831.43 126.46 831.27 125.98 830.95 125.62C830.63 125.26 830.17 125.06 829.55 125.06C828.93 125.06 828.43 125.28 828.07 125.68C827.71 126.08 827.53 126.6 827.53 127.22V133ZM842.291 130.36C842.291 129.54 842.551 128.88 843.091 128.38C843.631 127.88 844.351 127.56 845.231 127.42L847.731 127.04C848.211 126.98 848.451 126.74 848.451 126.34C848.451 125.9 848.291 125.56 847.991 125.28C847.671 125 847.211 124.86 846.611 124.86C846.011 124.86 845.551 125.04 845.211 125.36C844.851 125.68 844.651 126.1 844.611 126.62L842.491 126.14C842.571 125.26 842.991 124.52 843.751 123.9C844.491 123.28 845.431 122.96 846.591 122.96C847.991 122.96 849.031 123.3 849.711 123.98C850.391 124.66 850.731 125.54 850.731 126.6V131.44C850.731 132.08 850.771 132.6 850.851 133H848.691C848.611 132.8 848.591 132.4 848.591 131.76C847.951 132.8 846.951 133.3 845.591 133.3C844.591 133.3 843.791 133.02 843.191 132.44C842.591 131.86 842.291 131.16 842.291 130.36ZM846.031 131.48C846.751 131.48 847.331 131.3 847.771 130.9C848.211 130.5 848.451 129.86 848.451 128.96V128.52L845.911 128.9C845.031 129.06 844.611 129.5 844.611 130.22C844.611 130.58 844.731 130.88 844.991 131.12C845.231 131.36 845.591 131.48 846.031 131.48ZM852.875 130.36L854.895 129.8C854.935 130.28 855.115 130.66 855.475 130.98C855.815 131.3 856.275 131.46 856.875 131.46C857.315 131.46 857.675 131.36 857.935 131.14C858.195 130.94 858.335 130.66 858.335 130.34C858.335 129.78 857.955 129.42 857.195 129.26L855.755 128.94C854.915 128.76 854.255 128.42 853.815 127.9C853.355 127.4 853.135 126.8 853.135 126.1C853.135 125.26 853.475 124.52 854.175 123.9C854.855 123.28 855.715 122.96 856.715 122.96C857.355 122.96 857.915 123.06 858.415 123.24C858.895 123.44 859.275 123.68 859.555 123.98C859.835 124.28 860.035 124.56 860.195 124.84C860.335 125.12 860.435 125.4 860.475 125.68L858.515 126.24C858.455 125.88 858.275 125.54 857.995 125.24C857.715 124.94 857.275 124.78 856.715 124.78C856.315 124.78 855.975 124.9 855.715 125.12C855.435 125.34 855.315 125.6 855.315 125.9C855.315 126.46 855.635 126.8 856.295 126.92L857.775 127.22C858.675 127.42 859.375 127.78 859.855 128.3C860.335 128.82 860.575 129.46 860.575 130.18C860.575 131 860.235 131.72 859.595 132.36C858.955 133 858.055 133.3 856.895 133.3C856.215 133.3 855.615 133.2 855.095 133C854.575 132.8 854.155 132.56 853.855 132.24C853.555 131.92 853.315 131.62 853.155 131.3C852.995 130.98 852.895 130.68 852.875 130.36ZM872.196 123.26L868.196 127.38L872.276 133H869.436L866.576 129.02L865.376 130.28V133H863.076V118.52H865.376V127.2L869.116 123.26H872.196Z" fill="white"/>
<path d="M118.02 283.14L115.86 283.82C115.76 283.28 115.48 282.78 115.04 282.32C114.58 281.88 113.92 281.64 113.08 281.64C112.36 281.64 111.78 281.84 111.32 282.24C110.86 282.64 110.64 283.12 110.64 283.68C110.64 284.66 111.18 285.26 112.3 285.5L114.34 285.92C115.56 286.16 116.5 286.66 117.18 287.38C117.84 288.12 118.18 289 118.18 290C118.18 291.18 117.72 292.2 116.82 293.04C115.92 293.88 114.7 294.3 113.16 294.3C111.48 294.3 110.18 293.88 109.26 293C108.32 292.12 107.8 291.1 107.68 289.94L109.92 289.3C110 290.1 110.32 290.78 110.88 291.32C111.44 291.88 112.2 292.14 113.16 292.14C113.98 292.14 114.62 291.96 115.06 291.6C115.5 291.24 115.74 290.76 115.74 290.18C115.74 289.72 115.56 289.32 115.24 288.98C114.9 288.64 114.44 288.4 113.84 288.26L111.84 287.84C110.72 287.62 109.84 287.16 109.2 286.46C108.56 285.78 108.24 284.9 108.24 283.86C108.24 282.68 108.7 281.66 109.66 280.8C110.6 279.96 111.74 279.52 113.06 279.52C114.56 279.52 115.72 279.9 116.52 280.62C117.32 281.34 117.82 282.18 118.02 283.14ZM124.816 292.22C125.576 292.22 126.216 291.96 126.736 291.4C127.256 290.86 127.536 290.1 127.536 289.12C127.536 288.16 127.256 287.42 126.736 286.88C126.216 286.34 125.576 286.06 124.816 286.06C124.056 286.06 123.396 286.34 122.876 286.88C122.356 287.42 122.096 288.16 122.096 289.12C122.096 290.08 122.356 290.84 122.876 291.4C123.396 291.96 124.056 292.22 124.816 292.22ZM124.816 283.96C126.276 283.96 127.476 284.46 128.436 285.42C129.396 286.4 129.876 287.64 129.876 289.12C129.876 290.62 129.396 291.86 128.436 292.84C127.476 293.82 126.276 294.3 124.816 294.3C123.356 294.3 122.156 293.82 121.196 292.84C120.236 291.86 119.776 290.62 119.776 289.12C119.776 287.64 120.236 286.4 121.196 285.42C122.156 284.46 123.356 283.96 124.816 283.96ZM138.599 292.92C138.359 293.36 137.999 293.68 137.479 293.92C136.959 294.16 136.419 294.28 135.839 294.28C134.699 294.28 133.799 293.92 133.139 293.18C132.479 292.46 132.159 291.52 132.159 290.4V284.26H134.479V289.98C134.479 290.64 134.639 291.18 134.959 291.58C135.279 292 135.759 292.2 136.439 292.2C137.079 292.2 137.579 292 137.939 291.6C138.299 291.2 138.479 290.68 138.479 290.02V284.26H140.799V292.22C140.799 292.82 140.819 293.4 140.899 294H138.679C138.619 293.72 138.599 293.36 138.599 292.92ZM149.702 284.2V286.56C149.422 286.52 149.182 286.5 148.942 286.5C147.182 286.5 146.322 287.46 146.322 289.36V294H144.002V284.26H146.262V285.82C146.482 285.3 146.842 284.9 147.362 284.6C147.862 284.3 148.442 284.14 149.082 284.14C149.282 284.14 149.502 284.16 149.702 284.2ZM155.981 286.1C155.221 286.1 154.601 286.38 154.081 286.92C153.561 287.46 153.301 288.2 153.301 289.12C153.301 290.08 153.561 290.82 154.081 291.36C154.601 291.92 155.261 292.18 156.021 292.18C156.701 292.18 157.241 292 157.641 291.64C158.041 291.28 158.321 290.86 158.461 290.38L160.501 291.12C160.221 292 159.701 292.74 158.941 293.36C158.181 294 157.201 294.3 156.021 294.3C154.581 294.3 153.381 293.82 152.421 292.82C151.461 291.84 150.981 290.6 150.981 289.12C150.981 287.64 151.441 286.4 152.401 285.42C153.361 284.46 154.541 283.96 155.961 283.96C157.161 283.96 158.161 284.28 158.921 284.9C159.681 285.54 160.181 286.28 160.421 287.16L158.341 287.92C158.201 287.42 157.941 287 157.561 286.64C157.181 286.28 156.661 286.1 155.981 286.1ZM165.062 294H162.762V284.26H165.062V294ZM162.402 280.84C162.402 280.44 162.542 280.08 162.842 279.78C163.122 279.48 163.482 279.32 163.902 279.32C164.322 279.32 164.682 279.48 164.982 279.76C165.262 280.06 165.422 280.42 165.422 280.84C165.422 281.26 165.262 281.62 164.982 281.9C164.682 282.2 164.322 282.34 163.902 282.34C163.482 282.34 163.122 282.2 162.842 281.9C162.542 281.62 162.402 281.26 162.402 280.84ZM172.575 281.5C172.175 281.5 171.835 281.62 171.555 281.84C171.275 282.06 171.135 282.44 171.135 282.98V284.26H173.395V286.28H171.135V294H168.795V286.28H167.095V284.26H168.795V282.92C168.795 281.84 169.095 281 169.735 280.36C170.355 279.74 171.175 279.42 172.195 279.42C172.735 279.42 173.135 279.5 173.415 279.62V281.6C173.175 281.54 172.895 281.5 172.575 281.5ZM178.798 297.94H176.318L178.658 292.84L174.498 284.26H177.118L179.918 290.42L182.538 284.26H184.998L178.798 297.94Z" fill="white"/>
<mask id="mask1_1854_12295" style="mask-type:luminance" maskUnits="userSpaceOnUse" x="52" y="262" width="48" height="48">
<path d="M100 262H52V310H100V262Z" fill="white"/>
</mask>
<g mask="url(#mask1_1854_12295)">
<path d="M69.5464 295.725C69.6491 295.819 69.7775 295.87 69.8973 295.87C70.0171 295.87 70.154 295.819 70.2483 295.725L71.4295 294.595C71.5322 294.501 71.5921 294.364 71.5921 294.227C71.5921 294.09 71.5322 293.953 71.4295 293.859L63.2296 286.027L71.4295 278.195C71.5322 278.101 71.5921 277.964 71.5921 277.827C71.5921 277.69 71.5322 277.553 71.4295 277.459L70.2483 276.329C70.1456 276.235 70.0258 276.184 69.8973 276.184C69.7689 276.184 69.6405 276.235 69.5464 276.329L59.7715 285.659C59.6688 285.753 59.6089 285.89 59.6089 286.027C59.6089 286.164 59.6688 286.301 59.7715 286.395L69.5464 295.725ZM88.865 286.027L80.665 293.859C80.5624 293.953 80.5025 294.09 80.5025 294.227C80.5025 294.364 80.5624 294.501 80.665 294.595L81.8463 295.725C81.949 295.819 82.0775 295.87 82.1972 295.87C82.317 295.87 82.454 295.819 82.5481 295.725L92.3231 286.395C92.4257 286.301 92.4856 286.164 92.4856 286.027C92.4856 285.89 92.4257 285.753 92.3231 285.659L82.5481 276.329C82.4455 276.235 82.317 276.184 82.1972 276.184C82.0688 276.184 81.9404 276.235 81.8463 276.329L80.665 277.459C80.5624 277.553 80.5025 277.69 80.5025 277.827C80.5025 277.964 80.5624 278.101 80.665 278.195L88.865 286.027Z" fill="#C5D5EA"/>
<path d="M69.4775 285.069C69.4689 285.403 69.5973 285.719 69.837 285.959L69.8456 285.968C70.0765 286.199 70.3762 286.327 70.7015 286.327C71.0011 286.327 71.2835 286.216 71.506 286.019L74.8356 283.057V292.139C74.8356 292.806 75.3835 293.354 76.0512 293.354C76.7187 293.354 77.2666 292.806 77.2666 292.139V283.049L80.5961 286.01C80.8187 286.207 81.1097 286.318 81.4008 286.318C81.726 286.318 82.0341 286.19 82.2652 285.959L82.2738 285.95C82.5135 285.711 82.6333 285.403 82.6333 285.06C82.6247 284.726 82.4877 284.418 82.2396 284.187L76.8642 279.248C76.6417 279.043 76.3507 278.932 76.0512 278.932C75.7515 278.932 75.4605 279.043 75.2379 279.248L69.8626 284.187C69.6229 284.427 69.4775 284.735 69.4775 285.069Z" fill="#C5D5EA"/>
</g>
<path d="M762.972 112.012L751.729 120.362L753.808 115.435L762.972 112.012Z" fill="#E2761B" stroke="#E2761B" stroke-linecap="round" stroke-linejoin="round"/>
<path d="M737.017 112.012L748.17 120.441L746.192 115.435L737.017 112.012ZM758.927 131.368L755.932 135.955L762.339 137.718L764.181 131.469L758.927 131.368ZM735.831 131.469L737.661 137.718L744.068 135.955L741.074 131.368L735.831 131.469Z" fill="#E4761B" stroke="#E4761B" stroke-linecap="round" stroke-linejoin="round"/>
<path d="M743.706 123.616L741.921 126.316L748.282 126.599L748.056 119.763L743.706 123.616ZM756.282 123.616L751.876 119.684L751.729 126.599L758.079 126.316L756.282 123.616ZM744.068 135.955L747.887 134.09L744.588 131.514L744.068 135.955ZM752.102 134.09L755.932 135.955L755.401 131.514L752.102 134.09Z" fill="#E4761B" stroke="#E4761B" stroke-linecap="round" stroke-linejoin="round"/>
<path d="M755.932 135.955L752.102 134.091L752.407 136.588L752.373 137.639L755.932 135.955ZM744.068 135.955L747.627 137.639L747.605 136.588L747.887 134.091L744.068 135.955Z" fill="#D7C1B3" stroke="#D7C1B3" stroke-linecap="round" stroke-linejoin="round"/>
<path d="M744.068 135.955L744.61 131.367L741.073 131.469L744.068 135.955ZM755.39 131.367L755.932 135.955L758.926 131.469L755.39 131.367ZM758.079 126.316L751.729 126.599L752.316 129.864L753.254 127.898L755.514 128.927L758.079 126.316ZM744.497 128.927L746.757 127.898L747.683 129.864L748.282 126.599L741.921 126.316L744.497 128.927Z" fill="#CD6116" stroke="#CD6116" stroke-linecap="round" stroke-linejoin="round"/>
<path d="M747.684 130.865L744.497 129.927L746.746 128.898L747.684 130.865ZM752.305 130.865L753.243 128.898L755.503 129.927L752.305 130.865Z" fill="#233447" stroke="#233447" stroke-width="2" stroke-linecap="round" stroke-linejoin="round"/>
<path d="M741.921 126.316L744.588 131.514L744.497 128.927L741.921 126.316ZM755.514 128.927L755.401 131.514L758.079 126.316L755.514 128.927ZM748.282 126.599L747.684 129.864L748.429 133.718L748.599 128.644L748.282 126.599ZM751.729 126.599L751.424 128.633L751.559 133.718L752.316 129.864L751.729 126.599Z" fill="#E4751F" stroke="#E4751F" stroke-linecap="round" stroke-linejoin="round"/>
<path d="M752.316 129.865L751.559 133.718L752.102 134.091L755.401 131.514L755.514 128.927L752.316 129.865ZM744.497 128.927L744.587 131.514L747.887 134.091L748.429 133.718L747.684 129.865L744.497 128.927Z" fill="#F6851B" stroke="#F6851B" stroke-linecap="round" stroke-linejoin="round"/>
<path d="M752.373 137.639L752.407 136.588L752.124 136.339H747.864L747.605 136.588L747.627 137.639L744.068 135.955L745.311 136.972L747.831 138.723H752.158L754.689 136.972L755.932 135.955L752.373 137.639Z" fill="#C0AD9E" stroke="#C0AD9E" stroke-linecap="round" stroke-linejoin="round"/>
<path d="M752.102 134.091L751.559 133.718H748.429L747.887 134.091L747.604 136.588L747.864 136.339H752.124L752.407 136.588L752.102 134.091Z" fill="#161616" stroke="#161616" stroke-linecap="round" stroke-linejoin="round"/>
<path d="M763.446 120.904L764.407 116.294L762.972 112.012L752.102 120.08L756.283 123.616L762.192 125.345L763.503 123.82L762.938 123.413L763.842 122.588L763.141 122.046L764.045 121.356L763.446 120.904ZM735.593 116.294L736.554 120.904L735.944 121.356L736.847 122.046L736.158 122.588L737.062 123.413L736.497 123.82L737.797 125.345L743.706 123.616L747.887 120.08L737.017 112.012L735.593 116.294Z" fill="#763D16" stroke="#763D16" stroke-linecap="round" stroke-linejoin="round"/>
<path d="M762.192 125.344L756.283 123.615L758.079 126.316L755.401 131.514L758.927 131.468H764.181L762.192 125.344ZM743.706 123.615L737.797 125.344L735.831 131.468H741.074L744.588 131.514L741.921 126.316L743.706 123.615ZM751.729 126.598L752.102 120.079L753.819 115.435H746.192L747.887 120.079L748.283 126.598L748.418 128.655L748.429 133.717H751.559L751.582 128.655L751.729 126.598Z" fill="#F6851B" stroke="#F6851B" stroke-linecap="round" stroke-linejoin="round"/>
<path d="M210.823 79H56.596C51.8486 79 48 82.8486 48 87.596V116.754C48 121.501 51.8486 125.35 56.596 125.35H210.823C215.57 125.35 219.419 121.501 219.419 116.754V87.596C219.419 82.8486 215.57 79 210.823 79Z" fill="#171717"/>
<path d="M210.823 79H56.596C51.8486 79 48 82.8486 48 87.596V116.754C48 121.501 51.8486 125.35 56.596 125.35H210.823C215.57 125.35 219.419 121.501 219.419 116.754V87.596C219.419 82.8486 215.57 79 210.823 79Z" stroke="url(#paint11_linear_1854_12295)" stroke-width="1.19202"/>
<path d="M123.18 110H120.76V103.94H114.1V110H111.7V95.82H114.1V101.68H120.76V95.82H123.18V110ZM125.924 107.36C125.924 106.54 126.184 105.88 126.724 105.38C127.264 104.88 127.984 104.56 128.864 104.42L131.364 104.04C131.844 103.98 132.084 103.74 132.084 103.34C132.084 102.9 131.924 102.56 131.624 102.28C131.304 102 130.844 101.86 130.244 101.86C129.644 101.86 129.184 102.04 128.844 102.36C128.484 102.68 128.284 103.1 128.244 103.62L126.124 103.14C126.204 102.26 126.624 101.52 127.384 100.9C128.124 100.28 129.064 99.96 130.224 99.96C131.624 99.96 132.664 100.3 133.344 100.98C134.024 101.66 134.364 102.54 134.364 103.6V108.44C134.364 109.08 134.404 109.6 134.484 110H132.324C132.244 109.8 132.224 109.4 132.224 108.76C131.584 109.8 130.584 110.3 129.224 110.3C128.224 110.3 127.424 110.02 126.824 109.44C126.224 108.86 125.924 108.16 125.924 107.36ZM129.664 108.48C130.384 108.48 130.964 108.3 131.404 107.9C131.844 107.5 132.084 106.86 132.084 105.96V105.52L129.544 105.9C128.664 106.06 128.244 106.5 128.244 107.22C128.244 107.58 128.364 107.88 128.624 108.12C128.864 108.36 129.224 108.48 129.664 108.48ZM143.069 100.2V102.56C142.789 102.52 142.549 102.5 142.309 102.5C140.549 102.5 139.689 103.46 139.689 105.36V110H137.369V100.26H139.629V101.82C139.849 101.3 140.209 100.9 140.729 100.6C141.229 100.3 141.809 100.14 142.449 100.14C142.649 100.14 142.869 100.16 143.069 100.2ZM146.668 105.1C146.668 106.04 146.908 106.8 147.388 107.36C147.868 107.92 148.488 108.2 149.288 108.2C150.048 108.2 150.668 107.92 151.148 107.34C151.628 106.78 151.868 106.02 151.868 105.08C151.868 104.16 151.628 103.44 151.168 102.88C150.688 102.34 150.068 102.06 149.308 102.06C148.528 102.06 147.888 102.34 147.408 102.9C146.908 103.46 146.668 104.18 146.668 105.1ZM154.108 95.52V108.22C154.108 108.88 154.128 109.48 154.208 110H151.988C151.908 109.64 151.888 109.22 151.888 108.74C151.648 109.18 151.268 109.54 150.768 109.82C150.248 110.1 149.668 110.24 149.028 110.24C147.628 110.24 146.508 109.76 145.648 108.78C144.768 107.82 144.348 106.58 144.348 105.1C144.348 103.68 144.768 102.48 145.648 101.48C146.528 100.5 147.628 100 148.988 100C149.748 100 150.368 100.14 150.848 100.42C151.328 100.7 151.648 101.04 151.848 101.4V95.52H154.108ZM159.659 104.28V110H157.339V95.52H159.659V101.2C160.279 100.4 161.199 99.98 162.439 99.98C163.579 99.98 164.459 100.34 165.079 101.06C165.679 101.78 165.999 102.72 165.999 103.84V110H163.679V104.24C163.679 103.6 163.519 103.08 163.199 102.68C162.879 102.28 162.359 102.08 161.679 102.08C161.059 102.08 160.579 102.3 160.219 102.7C159.859 103.12 159.679 103.64 159.659 104.28ZM168.423 107.36C168.423 106.54 168.683 105.88 169.223 105.38C169.763 104.88 170.483 104.56 171.363 104.42L173.863 104.04C174.343 103.98 174.583 103.74 174.583 103.34C174.583 102.9 174.423 102.56 174.123 102.28C173.803 102 173.343 101.86 172.743 101.86C172.143 101.86 171.683 102.04 171.343 102.36C170.983 102.68 170.783 103.1 170.743 103.62L168.623 103.14C168.703 102.26 169.123 101.52 169.883 100.9C170.623 100.28 171.563 99.96 172.723 99.96C174.123 99.96 175.163 100.3 175.843 100.98C176.523 101.66 176.863 102.54 176.863 103.6V108.44C176.863 109.08 176.903 109.6 176.983 110H174.823C174.743 109.8 174.723 109.4 174.723 108.76C174.083 109.8 173.083 110.3 171.723 110.3C170.723 110.3 169.923 110.02 169.323 109.44C168.723 108.86 168.423 108.16 168.423 107.36ZM172.163 108.48C172.883 108.48 173.463 108.3 173.903 107.9C174.343 107.5 174.583 106.86 174.583 105.96V105.52L172.043 105.9C171.163 106.06 170.743 106.5 170.743 107.22C170.743 107.58 170.863 107.88 171.123 108.12C171.363 108.36 171.723 108.48 172.163 108.48ZM182.769 97.28V100.26H184.789V102.32H182.769V106.84C182.769 107.28 182.869 107.58 183.069 107.78C183.269 107.98 183.569 108.06 184.009 108.06C184.269 108.06 184.529 108.04 184.809 107.98V109.9C184.449 110.06 183.989 110.12 183.389 110.12C182.469 110.12 181.769 109.88 181.249 109.36C180.729 108.84 180.469 108.14 180.469 107.22V102.32H178.669V100.26H179.169C179.649 100.26 180.029 100.12 180.289 99.84C180.529 99.56 180.669 99.2 180.669 98.74V97.28H182.769Z" fill="white"/>
<path d="M95.0754 109.601C95.0754 109.601 89.8555 108.828 87.0971 108.606C84.4482 108.393 81.3093 108.271 77.9417 108.271C74.5742 108.271 71.4352 108.393 68.787 108.606C66.028 108.831 60.8088 109.904 60.8088 109.904V111.253C60.8088 112.452 68.4798 113.426 77.9417 113.426C87.4036 113.426 95.0746 112.452 95.0746 111.253L95.0754 109.601Z" fill="#F0D50C"/>
<path d="M72.6747 91.7109C66.4185 93.9401 62.2406 99.8635 62.2402 106.505V108.729C64.4728 108.196 66.7491 107.866 69.0412 107.743C69.0257 107.316 69.0177 106.887 69.0172 106.453C69.0195 100.618 70.4282 95.3662 72.6747 91.7109Z" fill="#F0D50C"/>
<path d="M93.6444 106.505C93.6497 102.861 92.382 99.3295 90.0603 96.5205C91.0668 99.7352 91.5683 103.087 91.5469 106.455C91.5469 107.068 91.5312 107.674 91.4998 108.273C92.2143 108.383 92.922 108.533 93.6196 108.723L93.6444 106.505Z" fill="#FFF04D"/>
<path d="M93.6444 106.505C93.6497 102.861 92.382 99.3295 90.0603 96.5205C91.0668 99.7352 91.5683 103.087 91.5469 106.455C91.5469 107.068 91.5312 107.674 91.4998 108.273C92.2143 108.383 92.922 108.533 93.6196 108.723L93.6444 106.505Z" fill="#FFEA00"/>
<path d="M90.06 96.5197C85.8531 91.4202 78.9048 89.4983 72.6753 91.7112C70.4273 95.3665 69.0193 100.618 69.0193 106.454C69.0193 106.888 69.0273 107.317 69.0432 107.744C71.3812 107.563 74.0878 107.452 76.9863 107.432C76.9863 107.432 77.6449 107.432 77.9439 107.432C82.4776 107.377 87.0091 107.659 91.5009 108.276C91.5314 107.677 91.5471 107.071 91.5482 106.458C91.5694 103.088 91.0674 99.7355 90.06 96.5197Z" fill="#FFF04D"/>
<path d="M84.2583 97.558L83.2632 91.3384C83.1925 90.8808 82.8646 90.5049 82.4209 90.3725C79.5215 89.5217 76.4385 89.5217 73.539 90.3725C73.0956 90.5051 72.7681 90.881 72.6975 91.3384L71.7017 97.558" fill="#FFF04D"/>
<path d="M77.9436 107.3C77.6439 107.3 77.3463 107.3 77.0511 107.3H77.0181H76.9852C67.9684 107.363 60.8099 108.31 60.8099 109.469V111.149C60.7953 111.248 60.8163 111.348 60.8691 111.432C61.3271 111.088 61.8535 110.847 62.4128 110.724C63.8372 110.377 65.285 110.134 66.7447 109.998C67.5737 109.907 68.4017 110.178 69.0175 110.74C70.1448 111.772 71.6179 112.344 73.1463 112.344H82.7379C84.2663 112.344 85.7393 111.772 86.8667 110.74C87.4824 110.177 88.3108 109.906 89.1402 109.997C90.5996 110.134 92.0472 110.376 93.4713 110.723C94.0011 110.825 94.5013 111.044 94.9356 111.363C94.9603 111.388 94.9888 111.41 95.0105 111.432C95.0637 111.348 95.085 111.247 95.0705 111.148V109.468C95.0757 108.272 87.4047 107.3 77.9436 107.3Z" fill="#FFF04D"/>
<path d="M81.5528 102.31L77.9395 104.534V107.422L81.5528 102.31Z" fill="#6E6F70"/>
<path d="M77.9419 107.422V104.534L74.3286 102.31L77.9419 107.422Z" fill="#0A0A0A"/>
<path d="M74.3286 100.991L77.9419 103.08V95.1465L74.3286 100.991Z" fill="#0A0A0A"/>
<path d="M81.5528 100.99L77.9395 95.1455V98.9005V103.079L81.5528 100.99V100.99Z" fill="#6E6F70"/>
<path d="M216.548 103.514C216.548 104.987 217.742 106.181 219.215 106.181C220.688 106.181 221.882 104.987 221.882 103.514C221.882 102.041 220.688 100.847 219.215 100.847C217.742 100.847 216.548 102.041 216.548 103.514ZM219.215 104.014H322.889V103.014H219.215V104.014Z" fill="url(#paint12_linear_1854_12295)"/>
<path d="M883.823 278H729.596C724.849 278 721 281.849 721 286.596V315.754C721 320.501 724.849 324.35 729.596 324.35H883.823C888.57 324.35 892.419 320.501 892.419 315.754V286.596C892.419 281.849 888.57 278 883.823 278Z" fill="#171717"/>
<path d="M883.823 278H729.596C724.849 278 721 281.849 721 286.596V315.754C721 320.501 724.849 324.35 729.596 324.35H883.823C888.57 324.35 892.419 320.501 892.419 315.754V286.596C892.419 281.849 888.57 278 883.823 278Z" stroke="url(#paint13_linear_1854_12295)" stroke-width="1.19202"/>
<path d="M756.95 317.488C765.425 317.488 772.295 310.537 772.295 301.963C772.295 293.39 765.425 286.439 756.95 286.439C748.476 286.439 741.605 293.39 741.605 301.963C741.605 310.537 748.476 317.488 756.95 317.488Z" fill="#5E464D"/>
<path d="M752.125 315.729C752.752 315.944 754.861 316.629 754.95 315.959C754.999 315.591 753.886 315.214 752.38 314.416C750.238 313.284 748.278 311.836 746.566 310.121C744.068 307.671 742.632 304.339 742.566 300.841C742.439 296.144 744.275 292.347 747.295 289.897C745.471 291.305 743.984 293.102 742.943 295.156C741.902 297.211 741.332 299.472 741.276 301.775C741.186 305.172 742.136 308.034 743.92 310.639C744.475 311.355 745.122 311.993 745.846 312.536C747.556 313.829 750.056 315.026 752.125 315.728" fill="white"/>
<path d="M772.506 298.405C771.554 293.931 768.597 290.798 764.64 288.585C767.66 290.739 771.924 295.318 769.413 299.358C767.285 302.594 762.11 301.96 759.283 300.422C755.921 298.598 751.709 294.495 755.863 290.482C758.552 287.886 767.11 290.797 765.604 294.677C764.726 296.934 761.306 296.432 759.768 295.329C758.634 294.514 757.679 293.115 758.184 291.669C758.347 291.206 758.324 290.487 757.669 291.016C757.181 291.411 756.935 292.061 756.85 292.666C756.134 297.726 765.148 301.649 767.822 296.753C769.211 294.212 766.961 290.522 764.13 289.011C762.002 287.871 759.786 287.07 757.073 287.265C752.732 287.568 749.089 290.289 748.633 294.724C748.177 299.132 751.124 303.099 754.594 305.471C758.242 307.964 763.145 309.607 767.632 308.12C771.653 306.787 773.314 302.171 772.506 298.404" fill="white"/>
<path d="M766.846 294.979C767.278 292.079 764.656 290.088 762.235 289.183C759.381 288.119 755.61 288.585 753.531 290.948C752.011 292.684 752.109 295.204 752.894 297.243C754.079 300.324 756.756 302.551 759.871 303.513C762.084 304.197 764.762 304.495 767.006 303.773C770.278 302.719 771.343 299.307 770.667 296.181C770.522 295.505 770.3 294.848 770.004 294.223C769.591 293.355 768.333 291.598 770.07 293.738C770.253 293.977 770.421 294.226 770.574 294.485C770.934 295.076 771.22 295.709 771.424 296.371C772.375 299.289 771.629 302.694 768.992 304.455C766.969 305.803 764.398 305.964 762.051 305.627C758.905 305.171 755.94 303.651 753.879 301.206C751.997 298.976 750.713 295.774 751.486 292.846C752.053 290.705 753.792 289.106 755.874 288.439C758.508 287.586 761.406 287.983 763.777 289.367C764.966 290.059 766.057 291.016 766.658 292.272C766.933 292.837 767.081 293.456 767.091 294.085C767.097 294.34 767.077 294.594 767.032 294.845C767.015 294.936 766.822 295.193 766.849 294.982" fill="#3FE0C5"/>
<path d="M798.88 297.08H794.26V309H791.86V297.08H787.26V294.82H798.88V297.08ZM805.201 299.2V301.56C804.921 301.52 804.681 301.5 804.441 301.5C802.681 301.5 801.821 302.46 801.821 304.36V309H799.501V299.26H801.761V300.82C801.981 300.3 802.341 299.9 802.861 299.6C803.361 299.3 803.941 299.14 804.581 299.14C804.781 299.14 805.001 299.16 805.201 299.2ZM813.697 307.92C813.457 308.36 813.097 308.68 812.577 308.92C812.057 309.16 811.517 309.28 810.937 309.28C809.797 309.28 808.897 308.92 808.237 308.18C807.577 307.46 807.257 306.52 807.257 305.4V299.26H809.577V304.98C809.577 305.64 809.737 306.18 810.057 306.58C810.377 307 810.857 307.2 811.537 307.2C812.177 307.2 812.677 307 813.037 306.6C813.397 306.2 813.577 305.68 813.577 305.02V299.26H815.897V307.22C815.897 307.82 815.917 308.4 815.997 309H813.777C813.717 308.72 813.697 308.36 813.697 307.92ZM829.82 296.5C829.44 296.5 829.1 296.62 828.82 296.84C828.52 297.08 828.38 297.46 828.38 297.98V299.26H832.6V294.52H834.9V309H832.6V301.28H828.38V309H826.04V301.28H821.98V309H819.64V301.28H817.94V299.26H819.64V297.92C819.64 296.84 819.94 296 820.58 295.36C821.2 294.74 822.02 294.42 823.04 294.42C823.58 294.42 823.98 294.5 824.26 294.62V296.6C824.02 296.54 823.74 296.5 823.42 296.5C823.04 296.5 822.7 296.62 822.42 296.84C822.12 297.08 821.98 297.46 821.98 297.98V299.26H826.04V297.92C826.04 296.84 826.34 296 826.98 295.36C827.6 294.74 828.42 294.42 829.44 294.42C829.98 294.42 830.38 294.5 830.66 294.62V296.6C830.42 296.54 830.14 296.5 829.82 296.5ZM839.729 303.06H844.509C844.469 302.46 844.249 301.94 843.849 301.52C843.449 301.12 842.869 300.9 842.109 300.9C841.409 300.9 840.849 301.12 840.429 301.56C839.989 302 839.769 302.5 839.729 303.06ZM844.769 305.6L846.729 306.22C846.449 307.12 845.909 307.86 845.149 308.44C844.389 309.02 843.449 309.3 842.329 309.3C840.929 309.3 839.749 308.84 838.789 307.88C837.829 306.94 837.349 305.68 837.349 304.08C837.349 302.6 837.809 301.36 838.749 300.4C839.689 299.44 840.809 298.96 842.089 298.96C843.569 298.96 844.749 299.42 845.589 300.34C846.429 301.26 846.849 302.48 846.849 304.02C846.849 304.44 846.829 304.68 846.789 304.76H839.669C839.689 305.5 839.949 306.1 840.469 306.58C840.989 307.06 841.609 307.3 842.329 307.3C843.569 307.3 844.389 306.74 844.769 305.6Z" fill="white"/>
<path d="M722.606 301.091C722.606 302.563 721.412 303.757 719.939 303.757C718.467 303.757 717.273 302.563 717.273 301.091C717.273 299.618 718.467 298.424 719.939 298.424C721.412 298.424 722.606 299.618 722.606 301.091ZM719.939 301.591H616.266V300.591H719.939V301.591Z" fill="url(#paint14_linear_1854_12295)"/>
<path d="M883.823 189H729.596C724.849 189 721 192.849 721 197.596V226.754C721 231.501 724.849 235.35 729.596 235.35H883.823C888.57 235.35 892.419 231.501 892.419 226.754V197.596C892.419 192.849 888.57 189 883.823 189Z" fill="#171717"/>
<path d="M883.823 189H729.596C724.849 189 721 192.849 721 197.596V226.754C721 231.501 724.849 235.35 729.596 235.35H883.823C888.57 235.35 892.419 231.501 892.419 226.754V197.596C892.419 192.849 888.57 189 883.823 189Z" stroke="url(#paint15_linear_1854_12295)" stroke-width="1.19202"/>
<path d="M795.02 209.14L792.86 209.82C792.76 209.28 792.48 208.78 792.04 208.32C791.58 207.88 790.92 207.64 790.08 207.64C789.36 207.64 788.78 207.84 788.32 208.24C787.86 208.64 787.64 209.12 787.64 209.68C787.64 210.66 788.18 211.26 789.3 211.5L791.34 211.92C792.56 212.16 793.5 212.66 794.18 213.38C794.84 214.12 795.18 215 795.18 216C795.18 217.18 794.72 218.2 793.82 219.04C792.92 219.88 791.7 220.3 790.16 220.3C788.48 220.3 787.18 219.88 786.26 219C785.32 218.12 784.8 217.1 784.68 215.94L786.92 215.3C787 216.1 787.32 216.78 787.88 217.32C788.44 217.88 789.2 218.14 790.16 218.14C790.98 218.14 791.62 217.96 792.06 217.6C792.5 217.24 792.74 216.76 792.74 216.18C792.74 215.72 792.56 215.32 792.24 214.98C791.9 214.64 791.44 214.4 790.84 214.26L788.84 213.84C787.72 213.62 786.84 213.16 786.2 212.46C785.56 211.78 785.24 210.9 785.24 209.86C785.24 208.68 785.7 207.66 786.66 206.8C787.6 205.96 788.74 205.52 790.06 205.52C791.56 205.52 792.72 205.9 793.52 206.62C794.32 207.34 794.82 208.18 795.02 209.14ZM801.816 218.22C802.576 218.22 803.216 217.96 803.736 217.4C804.256 216.86 804.536 216.1 804.536 215.12C804.536 214.16 804.256 213.42 803.736 212.88C803.216 212.34 802.576 212.06 801.816 212.06C801.056 212.06 800.396 212.34 799.876 212.88C799.356 213.42 799.096 214.16 799.096 215.12C799.096 216.08 799.356 216.84 799.876 217.4C800.396 217.96 801.056 218.22 801.816 218.22ZM801.816 209.96C803.276 209.96 804.476 210.46 805.436 211.42C806.396 212.4 806.876 213.64 806.876 215.12C806.876 216.62 806.396 217.86 805.436 218.84C804.476 219.82 803.276 220.3 801.816 220.3C800.356 220.3 799.156 219.82 798.196 218.84C797.236 217.86 796.776 216.62 796.776 215.12C796.776 213.64 797.236 212.4 798.196 211.42C799.156 210.46 800.356 209.96 801.816 209.96ZM811.638 220H809.318V205.52H811.638V220ZM817.13 220H814.83V210.26H817.13V220ZM814.47 206.84C814.47 206.44 814.61 206.08 814.91 205.78C815.19 205.48 815.55 205.32 815.97 205.32C816.39 205.32 816.75 205.48 817.05 205.76C817.33 206.06 817.49 206.42 817.49 206.84C817.49 207.26 817.33 207.62 817.05 207.9C816.75 208.2 816.39 208.34 815.97 208.34C815.55 208.34 815.19 208.2 814.91 207.9C814.61 207.62 814.47 207.26 814.47 206.84ZM821.883 215.1C821.883 216.04 822.123 216.8 822.603 217.36C823.083 217.92 823.703 218.2 824.503 218.2C825.263 218.2 825.883 217.92 826.363 217.34C826.843 216.78 827.083 216.02 827.083 215.08C827.083 214.16 826.843 213.44 826.383 212.88C825.903 212.34 825.283 212.06 824.523 212.06C823.743 212.06 823.103 212.34 822.623 212.9C822.123 213.46 821.883 214.18 821.883 215.1ZM829.323 205.52V218.22C829.323 218.88 829.343 219.48 829.423 220H827.203C827.123 219.64 827.103 219.22 827.103 218.74C826.863 219.18 826.483 219.54 825.983 219.82C825.463 220.1 824.883 220.24 824.243 220.24C822.843 220.24 821.723 219.76 820.863 218.78C819.983 217.82 819.563 216.58 819.563 215.1C819.563 213.68 819.983 212.48 820.863 211.48C821.743 210.5 822.843 210 824.203 210C824.963 210 825.583 210.14 826.063 210.42C826.543 210.7 826.863 211.04 827.063 211.4V205.52H829.323ZM834.855 220H832.555V210.26H834.855V220ZM832.195 206.84C832.195 206.44 832.335 206.08 832.635 205.78C832.915 205.48 833.275 205.32 833.695 205.32C834.115 205.32 834.475 205.48 834.775 205.76C835.055 206.06 835.215 206.42 835.215 206.84C835.215 207.26 835.055 207.62 834.775 207.9C834.475 208.2 834.115 208.34 833.695 208.34C833.275 208.34 832.915 208.2 832.635 207.9C832.335 207.62 832.195 207.26 832.195 206.84ZM840.988 207.28V210.26H843.008V212.32H840.988V216.84C840.988 217.28 841.088 217.58 841.288 217.78C841.488 217.98 841.788 218.06 842.228 218.06C842.488 218.06 842.748 218.04 843.028 217.98V219.9C842.668 220.06 842.208 220.12 841.608 220.12C840.688 220.12 839.988 219.88 839.468 219.36C838.948 218.84 838.688 218.14 838.688 217.22V212.32H836.888V210.26H837.388C837.868 210.26 838.248 210.12 838.508 209.84C838.748 209.56 838.888 209.2 838.888 208.74V207.28H840.988ZM848.708 223.94H846.228L848.568 218.84L844.408 210.26H847.028L849.828 216.42L852.448 210.26H854.908L848.708 223.94Z" fill="white"/>
<g clip-path="url(#clip0_1854_12295)">
<path opacity="0.45" d="M758.979 198L754.317 206.286H745L749.659 198H758.979Z" fill="#FDFDFD"/>
<path opacity="0.6" d="M754.317 206.286H763.638L758.979 198H749.659L754.317 206.286Z" fill="#FDFDFD"/>
<path opacity="0.8" d="M749.659 214.569L754.317 206.286L749.659 198L745 206.286L749.659 214.569Z" fill="#FDFDFD"/>
<path opacity="0.45" d="M749.705 227L754.367 218.714H763.688L759.026 227H749.705Z" fill="#FDFDFD"/>
<path opacity="0.6" d="M754.367 218.714H745.046L749.705 227H759.026L754.367 218.714Z" fill="#FDFDFD"/>
<path opacity="0.8" d="M759.026 210.431L754.367 218.713L759.026 227L763.688 218.713L759.026 210.431Z" fill="#FDFDFD"/>
</g>
<path d="M722.606 212.091C722.606 213.563 721.412 214.757 719.939 214.757C718.467 214.757 717.273 213.563 717.273 212.091C717.273 210.618 718.467 209.424 719.939 209.424C721.412 209.424 722.606 210.618 722.606 212.091ZM719.939 212.591H616.266V211.591H719.939V212.591Z" fill="url(#paint16_linear_1854_12295)"/>
<defs>
<linearGradient id="paint0_linear_1854_12295" x1="482.231" y1="199.08" x2="482.231" y2="343.758" gradientUnits="userSpaceOnUse">
<stop/>
<stop offset="1" stop-color="#161616" stop-opacity="0"/>
</linearGradient>
<linearGradient id="paint1_linear_1854_12295" x1="805.851" y1="100.408" x2="805.851" y2="148.774" gradientUnits="userSpaceOnUse">
<stop stop-color="#282828"/>
<stop offset="1" stop-color="#212121" stop-opacity="0.49"/>
</linearGradient>
<linearGradient id="paint2_linear_1854_12295" x1="132.818" y1="262.974" x2="132.818" y2="308.132" gradientUnits="userSpaceOnUse">
<stop stop-color="#282828"/>
<stop offset="1" stop-color="#212121" stop-opacity="0.49"/>
</linearGradient>
<radialGradient id="paint3_radial_1854_12295" cx="0" cy="0" r="1" gradientUnits="userSpaceOnUse" gradientTransform="translate(477.153 182.08) rotate(-0.247609) scale(120.562 116)">
<stop offset="0.418913" stop-color="#212121"/>
<stop offset="0.689387" stop-color="white" stop-opacity="0.24"/>
<stop offset="1" stop-color="white" stop-opacity="0"/>
</radialGradient>
<linearGradient id="paint4_linear_1854_12295" x1="271.052" y1="286.514" x2="300.362" y2="286.514" gradientUnits="userSpaceOnUse">
<stop stop-color="#282828"/>
<stop offset="1" stop-color="#282828" stop-opacity="0"/>
</linearGradient>
<linearGradient id="paint5_linear_1854_12295" x1="670.103" y1="125.041" x2="640.793" y2="125.041" gradientUnits="userSpaceOnUse">
<stop stop-color="#282828"/>
<stop offset="1" stop-color="#282828" stop-opacity="0"/>
</linearGradient>
<linearGradient id="paint6_linear_1854_12295" x1="545.376" y1="84" x2="545.376" y2="135.778" gradientUnits="userSpaceOnUse">
<stop stop-color="#46CE92"/>
<stop offset="1" stop-color="#8EFACB" stop-opacity="0.76"/>
</linearGradient>
<linearGradient id="paint7_linear_1854_12295" x1="545.51" y1="94.3018" x2="545.51" y2="125.698" gradientUnits="userSpaceOnUse">
<stop stop-color="#46CE92"/>
<stop offset="1" stop-color="#8EFACB" stop-opacity="0.76"/>
</linearGradient>
<linearGradient id="paint8_linear_1854_12295" x1="545.693" y1="103.721" x2="545.693" y2="117.615" gradientUnits="userSpaceOnUse">
<stop stop-color="#46CE92"/>
<stop offset="1" stop-color="#8EFACB" stop-opacity="0.76"/>
</linearGradient>
<linearGradient id="paint9_linear_1854_12295" x1="138.913" y1="166.156" x2="138.913" y2="217.834" gradientUnits="userSpaceOnUse">
<stop stop-color="#282828"/>
<stop offset="1" stop-color="#212121" stop-opacity="0.49"/>
</linearGradient>
<linearGradient id="paint10_linear_1854_12295" x1="270.052" y1="193.514" x2="299.362" y2="193.514" gradientUnits="userSpaceOnUse">
<stop stop-color="#282828"/>
<stop offset="1" stop-color="#282828" stop-opacity="0"/>
</linearGradient>
<linearGradient id="paint11_linear_1854_12295" x1="133.709" y1="79.596" x2="133.709" y2="124.754" gradientUnits="userSpaceOnUse">
<stop stop-color="#282828"/>
<stop offset="1" stop-color="#212121" stop-opacity="0.49"/>
</linearGradient>
<linearGradient id="paint12_linear_1854_12295" x1="271.052" y1="103.514" x2="300.362" y2="103.514" gradientUnits="userSpaceOnUse">
<stop stop-color="#282828"/>
<stop offset="1" stop-color="#282828" stop-opacity="0"/>
</linearGradient>
<linearGradient id="paint13_linear_1854_12295" x1="806.709" y1="278.596" x2="806.709" y2="323.754" gradientUnits="userSpaceOnUse">
<stop stop-color="#282828"/>
<stop offset="1" stop-color="#212121" stop-opacity="0.49"/>
</linearGradient>
<linearGradient id="paint14_linear_1854_12295" x1="668.103" y1="301.091" x2="638.793" y2="301.091" gradientUnits="userSpaceOnUse">
<stop stop-color="#282828"/>
<stop offset="1" stop-color="#282828" stop-opacity="0"/>
</linearGradient>
<linearGradient id="paint15_linear_1854_12295" x1="806.709" y1="189.596" x2="806.709" y2="234.754" gradientUnits="userSpaceOnUse">
<stop stop-color="#282828"/>
<stop offset="1" stop-color="#212121" stop-opacity="0.49"/>
</linearGradient>
<linearGradient id="paint16_linear_1854_12295" x1="668.103" y1="212.091" x2="638.793" y2="212.091" gradientUnits="userSpaceOnUse">
<stop stop-color="#282828"/>
<stop offset="1" stop-color="#282828" stop-opacity="0"/>
</linearGradient>
<clipPath id="clip0_1854_12295">
<rect width="18.6877" height="29" fill="white" transform="translate(745 198)"/>
</clipPath>
</defs>
</svg>
