<svg width="967" height="401" viewBox="0 0 967 401" fill="none" xmlns="http://www.w3.org/2000/svg">
<path d="M100.457 400.031L479.794 199.08L848.005 400.031H100.457Z" fill="url(#paint0_linear_1854_12295)"/>
<path d="M880.762 99.8125H730.939C726.191 99.8125 722.343 103.661 722.343 108.409V140.775C722.343 145.522 726.191 149.371 730.939 149.371H880.762C885.509 149.371 889.358 145.522 889.358 140.775V108.409C889.358 103.661 885.509 99.8125 880.762 99.8125Z" fill="white"/>
<path d="M880.762 99.8125H730.939C726.191 99.8125 722.343 103.661 722.343 108.409V140.775C722.343 145.522 726.191 149.371 730.939 149.371H880.762C885.509 149.371 889.358 145.522 889.358 140.775V108.409C889.358 103.661 885.509 99.8125 880.762 99.8125Z" stroke="url(#paint1_linear_1854_12295)" stroke-width="1.19202"/>
<path d="M209.932 262.379H55.7054C50.9579 262.379 47.1094 266.227 47.1094 270.975V300.132C47.1094 304.88 50.9579 308.728 55.7054 308.728H209.932C214.68 308.728 218.528 304.88 218.528 300.132V270.975C218.528 266.227 214.68 262.379 209.932 262.379Z" fill="white"/>
<path d="M209.932 262.379H55.7054C50.9579 262.379 47.1094 266.227 47.1094 270.975V300.132C47.1094 304.88 50.9579 308.728 55.7054 308.728H209.932C214.68 308.728 218.528 304.88 218.528 300.132V270.975C218.528 266.227 214.68 262.379 209.932 262.379Z" stroke="url(#paint2_linear_1854_12295)" stroke-width="1.19202"/>
<path d="M611.919 271.99V116.413L476.508 38.625M611.919 271.99L476.508 349.779L341.098 271.99M611.919 271.99L476.885 197.603M336.5 111.499L341.098 271.99M341.098 271.99L477.431 197.75M477.193 197.975V42.4088M509.419 216.707V65.6036M540.392 232.587V82.7308M575.314 251.825V103.436M443.99 215.961V65.6035M414.174 232.197V82.7821M378.095 251.843V103.436M341.622 239.283L476.898 161.182M341.622 202.532L476.898 124.43M341.622 165.78L476.898 87.6793M612.769 239.438L477.494 161.337M612.769 202.687L477.494 124.585M612.769 165.935L477.494 87.8343" stroke="url(#paint3_radial_1854_12295)" stroke-width="0.5"/>
<path d="M458.487 76.4255C459.469 76.4255 460.265 75.6294 460.265 74.6473C460.265 73.6653 459.469 72.8691 458.487 72.8691C457.505 72.8691 456.709 73.6653 456.709 74.6473C456.709 75.6294 457.505 76.4255 458.487 76.4255Z" fill="#959595"/>
<path d="M591.896 199.091C592.988 199.091 593.872 198.211 593.872 197.125C593.872 196.039 592.988 195.158 591.896 195.158C590.805 195.158 589.92 196.039 589.92 197.125C589.92 198.211 590.805 199.091 591.896 199.091Z" fill="#8B8B8B"/>
<path d="M490.402 208.558C491.494 208.558 492.378 207.677 492.378 206.591C492.378 205.505 491.494 204.625 490.402 204.625C489.311 204.625 488.426 205.505 488.426 206.591C488.426 207.677 489.311 208.558 490.402 208.558Z" fill="#3DCB8C"/>
<path d="M409.517 205.391C411.266 205.391 412.683 203.981 412.683 202.242C412.683 200.502 411.266 199.092 409.517 199.092C407.769 199.092 406.352 200.502 406.352 202.242C406.352 203.981 407.769 205.391 409.517 205.391Z" fill="#959595"/>
<path d="M580.004 279.564C581.095 279.564 581.98 278.683 581.98 277.597C581.98 276.511 581.095 275.631 580.004 275.631C578.912 275.631 578.027 276.511 578.027 277.597C578.027 278.683 578.912 279.564 580.004 279.564Z" fill="#8B8B8B"/>
<path d="M590.112 260.254C591.094 260.254 591.89 259.457 591.89 258.475C591.89 257.493 591.094 256.697 590.112 256.697C589.13 256.697 588.334 257.493 588.334 258.475C588.334 259.457 589.13 260.254 590.112 260.254Z" fill="#959595"/>
<path d="M383.754 218.026C385.064 218.026 386.126 216.969 386.126 215.666C386.126 214.362 385.064 213.305 383.754 213.305C382.443 213.305 381.381 214.362 381.381 215.666C381.381 216.969 382.443 218.026 383.754 218.026Z" fill="#8B8B8B"/>
<path d="M391.882 188.459C392.864 188.459 393.66 187.663 393.66 186.68C393.66 185.698 392.864 184.902 391.882 184.902C390.9 184.902 390.104 185.698 390.104 186.68C390.104 187.663 390.9 188.459 391.882 188.459Z" fill="#8B8B8B"/>
<path d="M542.334 300.866C544.082 300.866 545.499 299.456 545.499 297.716C545.499 295.977 544.082 294.566 542.334 294.566C540.585 294.566 539.168 295.977 539.168 297.716C539.168 299.456 540.585 300.866 542.334 300.866Z" fill="#3DCB8C"/>
<path d="M426.77 218.439C427.752 218.439 428.548 217.643 428.548 216.661C428.548 215.679 427.752 214.883 426.77 214.883C425.788 214.883 424.992 215.679 424.992 216.661C424.992 217.643 425.788 218.439 426.77 218.439Z" fill="#3DCB8C"/>
<path d="M443.619 135.974C444.71 135.974 445.595 135.093 445.595 134.007C445.595 132.921 444.71 132.041 443.619 132.041C442.527 132.041 441.643 132.921 441.643 134.007C441.643 135.093 442.527 135.974 443.619 135.974Z" fill="#8B8B8B"/>
<path d="M503.486 83.9014C504.796 83.9014 505.859 82.8444 505.859 81.5406C505.859 80.2367 504.796 79.1797 503.486 79.1797C502.176 79.1797 501.113 80.2367 501.113 81.5406C501.113 82.8444 502.176 83.9014 503.486 83.9014Z" fill="#8B8B8B"/>
<path d="M510.621 137.552C511.493 137.552 512.201 136.848 512.201 135.98C512.201 135.112 511.493 134.408 510.621 134.408C509.748 134.408 509.041 135.112 509.041 135.98C509.041 136.848 509.748 137.552 510.621 137.552Z" fill="#959595"/>
<path d="M355.209 227.493C356.957 227.493 358.374 226.083 358.374 224.343C358.374 222.604 356.957 221.193 355.209 221.193C353.46 221.193 352.043 222.604 352.043 224.343C352.043 226.083 353.46 227.493 355.209 227.493Z" fill="#8B8B8B"/>
<path d="M367.116 269.72C368.098 269.72 368.894 268.924 368.894 267.942C368.894 266.96 368.098 266.164 367.116 266.164C366.134 266.164 365.338 266.96 365.338 267.942C365.338 268.924 366.134 269.72 367.116 269.72Z" fill="#959595"/>
<path d="M500.713 197.809C502.68 197.809 504.275 196.222 504.275 194.265C504.275 192.308 502.68 190.721 500.713 190.721C498.745 190.721 497.15 192.308 497.15 194.265C497.15 196.222 498.745 197.809 500.713 197.809Z" fill="#3DCB8C"/>
<path d="M401.599 308.751C403.785 308.751 405.558 306.987 405.558 304.812C405.558 302.636 403.785 300.873 401.599 300.873C399.413 300.873 397.641 302.636 397.641 304.812C397.641 306.987 399.413 308.751 401.599 308.751Z" fill="#8B8B8B"/>
<path d="M476.527 172.267C477.837 172.267 478.9 171.21 478.9 169.906C478.9 168.602 477.837 167.545 476.527 167.545C475.217 167.545 474.154 168.602 474.154 169.906C474.154 171.21 475.217 172.267 476.527 172.267Z" fill="#3DCB8C"/>
<path d="M457.894 163.329C459.861 163.329 461.456 161.742 461.456 159.785C461.456 157.827 459.861 156.24 457.894 156.24C455.927 156.24 454.332 157.827 454.332 159.785C454.332 161.742 455.927 163.329 457.894 163.329Z" fill="#3DCB8C"/>
<path d="M466.961 240.122C467.833 240.122 468.54 239.419 468.54 238.55C468.54 237.682 467.833 236.979 466.961 236.979C466.088 236.979 465.381 237.682 465.381 238.55C465.381 239.419 466.088 240.122 466.961 240.122Z" fill="#3DCB8C"/>
<path d="M382.962 113.094C385.149 113.094 386.921 111.331 386.921 109.156C386.921 106.98 385.149 105.217 382.962 105.217C380.776 105.217 379.004 106.98 379.004 109.156C379.004 111.331 380.776 113.094 382.962 113.094Z" fill="#8B8B8B"/>
<path d="M450.379 190.354C452.346 190.354 453.941 188.767 453.941 186.81C453.941 184.852 452.346 183.266 450.379 183.266C448.411 183.266 446.816 184.852 446.816 186.81C446.816 188.767 448.411 190.354 450.379 190.354Z" fill="#3DCB8C"/>
<path d="M216.548 286.515C216.548 287.988 217.742 289.182 219.215 289.182C220.688 289.182 221.882 287.988 221.882 286.515C221.882 285.042 220.688 283.848 219.215 283.848C217.742 283.848 216.548 285.042 216.548 286.515ZM219.215 287.015H322.889V286.015H219.215V287.015Z" fill="url(#paint4_linear_1854_12295)"/>
<path d="M724.606 125.042C724.606 126.515 723.412 127.709 721.939 127.709C720.467 127.709 719.273 126.515 719.273 125.042C719.273 123.569 720.467 122.375 721.939 122.375C723.412 122.375 724.606 123.569 724.606 125.042ZM721.939 125.542H618.266V124.542H721.939V125.542Z" fill="url(#paint5_linear_1854_12295)"/>
<path fill-rule="evenodd" clip-rule="evenodd" d="M570.604 84.1402C570.798 84.3298 570.801 84.6404 570.611 84.8339L570.266 85.1866C570.076 85.3802 569.765 85.3833 569.572 85.1937C569.378 85.0041 569.375 84.6935 569.565 84.5L569.911 84.1472C570.1 83.9537 570.411 83.9505 570.604 84.1402ZM568.876 85.9039C569.07 86.0935 569.073 86.4041 568.883 86.5977L568.192 87.3032C568.002 87.4967 567.692 87.4999 567.498 87.3103C567.305 87.1206 567.302 86.8101 567.491 86.6165L568.183 85.911C568.372 85.7175 568.683 85.7143 568.876 85.9039ZM566.802 88.0205C566.996 88.2101 566.999 88.5207 566.81 88.7142L566.118 89.4197C565.929 89.6133 565.618 89.6164 565.425 89.4268C565.231 89.2372 565.228 88.9266 565.417 88.7331L566.109 88.0276C566.298 87.834 566.609 87.8309 566.802 88.0205ZM564.729 90.137C564.922 90.3266 564.925 90.6372 564.736 90.8307L564.044 91.5363C563.855 91.7298 563.544 91.7329 563.351 91.5433C563.157 91.3537 563.154 91.0432 563.344 90.8496L564.035 90.1441C564.225 89.9506 564.535 89.9474 564.729 90.137ZM562.655 92.2536C562.848 92.4432 562.852 92.7538 562.662 92.9473L561.971 93.6528C561.781 93.8463 561.471 93.8495 561.277 93.6599C561.083 93.4703 561.08 93.1597 561.27 92.9661L561.961 92.2606C562.151 92.0671 562.461 92.0639 562.655 92.2536ZM560.581 94.3701C560.775 94.5597 560.778 94.8703 560.588 95.0638L559.897 95.7693C559.707 95.9628 559.397 95.966 559.203 95.7764C559.01 95.5868 559.007 95.2762 559.196 95.0827L559.887 94.3772C560.077 94.1837 560.388 94.1805 560.581 94.3701ZM531.548 124.002C531.742 124.191 531.745 124.502 531.555 124.695L530.864 125.401C530.675 125.594 530.364 125.598 530.17 125.408C529.977 125.218 529.974 124.908 530.163 124.714L530.855 124.009C531.044 123.815 531.355 123.812 531.548 124.002ZM529.475 126.118C529.668 126.308 529.671 126.618 529.482 126.812L528.79 127.517C528.601 127.711 528.29 127.714 528.097 127.524C527.903 127.335 527.9 127.024 528.09 126.831L528.781 126.125C528.97 125.932 529.281 125.929 529.475 126.118ZM527.401 128.235C527.594 128.424 527.598 128.735 527.408 128.928L526.717 129.634C526.527 129.828 526.216 129.831 526.023 129.641C525.829 129.451 525.826 129.141 526.016 128.947L526.707 128.242C526.897 128.048 527.207 128.045 527.401 128.235ZM525.327 130.351C525.521 130.541 525.524 130.851 525.334 131.045L524.643 131.751C524.453 131.944 524.143 131.947 523.949 131.758C523.756 131.568 523.752 131.257 523.942 131.064L524.633 130.358C524.823 130.165 525.134 130.162 525.327 130.351ZM523.253 132.468C523.447 132.657 523.45 132.968 523.26 133.162L522.569 133.867C522.38 134.061 522.069 134.064 521.875 133.874C521.682 133.685 521.679 133.374 521.868 133.18L522.56 132.475C522.749 132.281 523.06 132.278 523.253 132.468ZM521.18 134.584C521.373 134.774 521.376 135.085 521.187 135.278L520.841 135.631C520.651 135.824 520.341 135.827 520.147 135.638C519.954 135.448 519.951 135.138 520.14 134.944L520.486 134.592C520.675 134.398 520.986 134.395 521.18 134.584Z" fill="url(#paint6_linear_1854_12295)"/>
<path fill-rule="evenodd" clip-rule="evenodd" d="M552.313 94.3027H538.705C533.371 94.3027 529.812 98.1214 529.812 103.59V116.412C529.812 121.885 533.362 125.699 538.705 125.699H552.312C557.656 125.699 561.208 121.885 561.208 116.412V103.59C561.208 98.1166 557.657 94.3027 552.313 94.3027ZM538.705 96.6575H552.313C556.317 96.6575 558.853 99.381 558.853 103.59V116.412C558.853 120.621 556.317 123.344 552.312 123.344H538.705C534.701 123.344 532.166 120.621 532.166 116.412V103.59C532.166 99.3864 534.71 96.6575 538.705 96.6575Z" fill="url(#paint7_linear_1854_12295)"/>
<path d="M548.476 103.721H551.372V112.618C551.372 113.617 551.134 114.491 550.657 115.24C550.184 115.989 549.522 116.574 548.67 116.993C547.818 117.408 546.826 117.615 545.693 117.615C544.556 117.615 543.561 117.408 542.709 116.993C541.858 116.574 541.195 115.989 540.723 115.24C540.25 114.491 540.014 113.617 540.014 112.618V103.721H542.91V112.37C542.91 112.892 543.024 113.356 543.251 113.762C543.483 114.168 543.809 114.486 544.228 114.718C544.647 114.95 545.136 115.066 545.693 115.066C546.255 115.066 546.743 114.95 547.158 114.718C547.577 114.486 547.901 114.168 548.128 113.762C548.36 113.356 548.476 112.892 548.476 112.37V103.721Z" fill="url(#paint8_linear_1854_12295)"/>
<path d="M598.242 339.049V329.082H599.664L604.176 336.164H604.203V329.082H605.714V339.049H604.285L599.78 331.967H599.753V339.049H598.242Z" fill="#6D6D6D"/>
<path d="M594.492 339.049V329.082H596.003V339.049H594.492Z" fill="#6D6D6D"/>
<path d="M587.571 335.48H590.483L589.041 331.126H589.014L587.571 335.48ZM591.687 339.049L590.914 336.82H587.134L586.368 339.049H584.769L588.392 329.082H589.656L593.279 339.049H591.687Z" fill="#6D6D6D"/>
<path d="M582.045 339.049V334.694H578.101V339.049H576.59V329.082H578.101V333.354H582.045V329.082H583.556V339.049H582.045Z" fill="#6D6D6D"/>
<path d="M573.776 336.26H575.376C575.157 337.185 574.74 337.896 574.125 338.393C573.492 338.885 572.742 339.131 571.876 339.131C571.092 339.113 570.438 338.921 569.914 338.557C569.381 338.206 568.993 337.8 568.752 337.34C568.679 337.189 568.613 337.046 568.554 336.909C568.499 336.768 568.453 336.59 568.417 336.376C568.349 335.975 568.314 335.205 568.314 334.065C568.314 332.908 568.349 332.133 568.417 331.741C568.49 331.349 568.602 331.033 568.752 330.791C568.993 330.331 569.381 329.921 569.914 329.561C570.438 329.196 571.092 329.009 571.876 329C572.838 329.009 573.621 329.294 574.228 329.854C574.834 330.42 575.216 331.119 575.376 331.953H573.776C573.653 331.552 573.43 331.21 573.106 330.928C572.769 330.659 572.359 330.52 571.876 330.511C571.521 330.52 571.215 330.59 570.96 330.723C570.7 330.859 570.491 331.03 570.331 331.235C570.135 331.45 570.005 331.725 569.941 332.062C569.868 332.418 569.832 333.086 569.832 334.065C569.832 335.045 569.868 335.708 569.941 336.055C570.005 336.401 570.135 336.681 570.331 336.896C570.491 337.101 570.7 337.267 570.96 337.395C571.215 337.545 571.521 337.62 571.876 337.62C572.724 337.62 573.357 337.167 573.776 336.26Z" fill="#6D6D6D"/>
<path d="M559.75 339.049V334.947L556.749 329.082H558.349L560.461 333.505L562.573 329.082H564.173L561.172 334.947V339.049H559.75Z" fill="#6D6D6D"/>
<path d="M552.562 339.049V330.429H549.834V329.082H556.807V330.429H554.079V339.049H552.562Z" fill="#6D6D6D"/>
<path d="M547.124 339.049V329.082H548.635V339.049H547.124Z" fill="#6D6D6D"/>
<path d="M539.191 339.049V329.082H540.702V337.62H545.556V339.049H539.191Z" fill="#6D6D6D"/>
<path d="M535.441 339.049V329.082H536.952V339.049H535.441Z" fill="#6D6D6D"/>
<path d="M529.99 339.049V330.429H527.263V329.082H534.235V330.429H531.508V339.049H529.99Z" fill="#6D6D6D"/>
<path d="M519.159 335.672V329.082H520.67V335.508C520.679 336.187 520.875 336.704 521.258 337.06C521.632 337.433 522.112 337.62 522.7 337.62C523.288 337.62 523.773 337.433 524.156 337.06C524.53 336.704 524.721 336.187 524.73 335.508V329.082H526.241V335.672C526.223 336.72 525.883 337.552 525.223 338.167C524.557 338.8 523.716 339.122 522.7 339.131C521.702 339.122 520.868 338.8 520.198 338.167C519.515 337.552 519.168 336.72 519.159 335.672Z" fill="#6D6D6D"/>
<path d="M507.784 336.629C508.577 337.281 509.521 337.611 510.614 337.62C511.909 337.602 512.565 337.139 512.583 336.232C512.592 335.49 512.159 335.043 511.284 334.893C510.883 334.838 510.443 334.776 509.965 334.708C509.108 334.567 508.456 334.25 508.01 333.758C507.549 333.252 507.319 332.637 507.319 331.912C507.319 331.042 507.609 330.34 508.188 329.807C508.748 329.278 509.543 329.009 510.573 329C511.813 329.027 512.891 329.371 513.807 330.032L512.966 331.276C512.218 330.784 511.396 330.529 510.498 330.511C510.033 330.511 509.646 330.627 509.336 330.859C509.012 331.101 508.846 331.461 508.837 331.939C508.837 332.227 508.949 332.486 509.172 332.719C509.395 332.956 509.753 333.12 510.245 333.211C510.519 333.257 510.892 333.309 511.366 333.368C512.3 333.496 512.991 333.831 513.438 334.373C513.88 334.906 514.101 335.526 514.101 336.232C514.05 338.137 512.884 339.104 510.601 339.131C509.124 339.131 507.855 338.675 506.793 337.764L507.784 336.629Z" fill="#6D6D6D"/>
<path d="M502.209 339.049V330.429H499.481V329.082H506.454V330.429H503.727V339.049H502.209Z" fill="#6D6D6D"/>
<path d="M492.588 339.049V329.082H498.952V330.511H494.099V333.354H498.241V334.694H494.099V337.62H498.952V339.049H492.588Z" fill="#6D6D6D"/>
<path d="M485.886 336.95C486.027 337.137 486.209 337.29 486.433 337.408C486.656 337.549 486.918 337.62 487.219 337.62C487.62 337.629 488.003 337.49 488.367 337.203C488.545 337.062 488.684 336.875 488.784 336.643C488.889 336.419 488.941 336.139 488.941 335.802V329.082H490.452V335.952C490.434 336.955 490.106 337.729 489.468 338.276C488.834 338.837 488.098 339.122 487.26 339.131C486.102 339.104 485.239 338.671 484.669 337.832L485.886 336.95Z" fill="#6D6D6D"/>
<path d="M481.958 339.049V329.082H483.469V339.049H481.958Z" fill="#6D6D6D"/>
<path d="M473 339.049V329.082H476.486C477.835 329.091 478.847 329.652 479.521 330.764C479.763 331.137 479.916 331.529 479.979 331.939C480.03 332.35 480.055 333.058 480.055 334.065C480.055 335.136 480.016 335.884 479.938 336.308C479.902 336.522 479.847 336.713 479.774 336.882C479.697 337.046 479.604 337.217 479.494 337.395C479.202 337.864 478.797 338.251 478.277 338.557C477.762 338.885 477.131 339.049 476.384 339.049H473ZM474.511 330.511V337.62H476.315C477.163 337.62 477.778 337.331 478.161 336.752C478.33 336.538 478.437 336.267 478.482 335.938C478.523 335.615 478.544 335.009 478.544 334.12C478.544 333.254 478.523 332.634 478.482 332.261C478.428 331.887 478.298 331.584 478.093 331.352C477.674 330.773 477.081 330.493 476.315 330.511H474.511Z" fill="#6D6D6D"/>
<path d="M458.039 339.049V329.082H464.403V330.511H459.55V333.354H463.692V334.694H459.55V337.62H464.403V339.049H458.039Z" fill="#6D6D6D"/>
<path d="M450.105 339.049V329.082H451.616V337.62H456.47V339.049H450.105Z" fill="#6D6D6D"/>
<path d="M441.421 339.049V329.082H445.283C446.263 329.091 446.999 329.337 447.491 329.82C447.988 330.308 448.236 330.953 448.236 331.755C448.245 332.165 448.147 332.557 447.942 332.931C447.838 333.108 447.687 333.277 447.491 333.437C447.295 333.605 447.054 333.758 446.767 333.895V333.922C447.309 334.063 447.719 334.348 447.997 334.776C448.257 335.218 448.387 335.699 448.387 336.219C448.378 337.08 448.109 337.761 447.58 338.263C447.056 338.787 446.402 339.049 445.618 339.049H441.421ZM445.256 334.626H442.932V337.62H445.256C445.816 337.611 446.227 337.458 446.486 337.162C446.746 336.87 446.876 336.524 446.876 336.123C446.876 335.713 446.746 335.362 446.486 335.07C446.227 334.783 445.816 334.635 445.256 334.626ZM445.112 330.429H442.932V333.279H445.112C445.664 333.279 446.069 333.136 446.329 332.849C446.593 332.584 446.726 332.252 446.726 331.851C446.726 331.45 446.593 331.11 446.329 330.832C446.069 330.572 445.664 330.438 445.112 330.429Z" fill="#6D6D6D"/>
<path d="M437.672 339.049V329.082H439.183V339.049H437.672Z" fill="#6D6D6D"/>
<path d="M432.22 339.049V330.429H429.492V329.082H436.465V330.429H433.737V339.049H432.22Z" fill="#6D6D6D"/>
<path d="M424.649 335.48H427.562L426.119 331.126H426.092L424.649 335.48ZM428.765 339.049L427.992 336.82H424.212L423.446 339.049H421.847L425.47 329.082H426.734L430.357 339.049H428.765Z" fill="#6D6D6D"/>
<path d="M416.997 330.511V333.73H419.232C419.793 333.721 420.215 333.548 420.497 333.211C420.766 332.883 420.9 332.518 420.9 332.117C420.9 331.785 420.846 331.504 420.736 331.276C420.622 331.071 420.463 330.91 420.258 330.791C419.948 330.595 419.588 330.502 419.178 330.511H416.997ZM415.486 339.049V329.082H419.096C419.488 329.082 419.866 329.118 420.23 329.191C420.595 329.287 420.964 329.483 421.338 329.779C421.652 330.003 421.908 330.322 422.104 330.736C422.309 331.137 422.411 331.611 422.411 332.158C422.411 332.896 422.151 333.569 421.632 334.175C421.099 334.813 420.319 335.141 419.294 335.159H416.997V339.049H415.486Z" fill="#6D6D6D"/>
<path d="M404.736 339.049V329.082H406.158L409.016 335.576L411.818 329.082H413.247V339.049H411.736V332.835H411.702L409.617 337.62H408.359L406.274 332.835H406.247V339.049H404.736Z" fill="#6D6D6D"/>
<path d="M395.71 334.065C395.71 332.908 395.744 332.133 395.812 331.741C395.885 331.349 395.997 331.033 396.147 330.791C396.389 330.331 396.776 329.921 397.31 329.561C397.834 329.196 398.488 329.009 399.271 329C400.064 329.009 400.725 329.196 401.254 329.561C401.778 329.921 402.156 330.331 402.389 330.791C402.557 331.033 402.674 331.349 402.737 331.741C402.797 332.133 402.826 332.908 402.826 334.065C402.826 335.205 402.797 335.975 402.737 336.376C402.674 336.777 402.557 337.098 402.389 337.34C402.156 337.8 401.778 338.206 401.254 338.557C400.725 338.921 400.064 339.113 399.271 339.131C398.488 339.113 397.834 338.921 397.31 338.557C396.776 338.206 396.389 337.8 396.147 337.34C396.075 337.189 396.008 337.046 395.949 336.909C395.895 336.768 395.849 336.59 395.812 336.376C395.744 335.975 395.71 335.205 395.71 334.065ZM397.228 334.065C397.228 335.045 397.264 335.708 397.337 336.055C397.401 336.401 397.531 336.681 397.727 336.896C397.886 337.101 398.096 337.267 398.355 337.395C398.611 337.545 398.916 337.62 399.271 337.62C399.632 337.62 399.944 337.545 400.208 337.395C400.459 337.267 400.659 337.101 400.81 336.896C401.006 336.681 401.14 336.401 401.213 336.055C401.281 335.708 401.315 335.045 401.315 334.065C401.315 333.086 401.281 332.418 401.213 332.062C401.14 331.725 401.006 331.45 400.81 331.235C400.659 331.03 400.459 330.859 400.208 330.723C399.944 330.59 399.632 330.52 399.271 330.511C398.916 330.52 398.611 330.59 398.355 330.723C398.096 330.859 397.886 331.03 397.727 331.235C397.531 331.45 397.401 331.725 397.337 332.062C397.264 332.418 397.228 333.086 397.228 334.065Z" fill="#6D6D6D"/>
<path d="M393.238 336.26H394.838C394.619 337.185 394.202 337.896 393.587 338.393C392.953 338.885 392.204 339.131 391.338 339.131C390.554 339.113 389.9 338.921 389.376 338.557C388.843 338.206 388.455 337.8 388.214 337.34C388.141 337.189 388.075 337.046 388.016 336.909C387.961 336.768 387.915 336.59 387.879 336.376C387.811 335.975 387.776 335.205 387.776 334.065C387.776 332.908 387.811 332.133 387.879 331.741C387.952 331.349 388.063 331.033 388.214 330.791C388.455 330.331 388.843 329.921 389.376 329.561C389.9 329.196 390.554 329.009 391.338 329C392.299 329.009 393.083 329.294 393.689 329.854C394.296 330.42 394.678 331.119 394.838 331.953H393.238C393.115 331.552 392.892 331.21 392.568 330.928C392.231 330.659 391.821 330.52 391.338 330.511C390.982 330.52 390.677 330.59 390.422 330.723C390.162 330.859 389.952 331.03 389.793 331.235C389.597 331.45 389.467 331.725 389.403 332.062C389.33 332.418 389.294 333.086 389.294 334.065C389.294 335.045 389.33 335.708 389.403 336.055C389.467 336.401 389.597 336.681 389.793 336.896C389.952 337.101 390.162 337.267 390.422 337.395C390.677 337.545 390.982 337.62 391.338 337.62C392.186 337.62 392.819 337.167 393.238 336.26Z" fill="#6D6D6D"/>
<path d="M373.866 339.049V329.082H375.288L378.146 335.576L380.948 329.082H382.377V339.049H380.866V332.835H380.832L378.747 337.62H377.489L375.404 332.835H375.377V339.049H373.866Z" fill="#6D6D6D"/>
<path d="M368.182 339.049L364.894 329.082H366.493L368.756 336.67H368.783L371.053 329.082H372.652L369.357 339.049H368.182Z" fill="#6D6D6D"/>
<path d="M358 339.049V329.082H364.364V330.511H359.511V333.354H363.653V334.694H359.511V337.62H364.364V339.049H358Z" fill="#6D6D6D"/>
<path d="M208.932 165.559H68.8948C64.1474 165.559 60.2988 169.407 60.2988 174.155V209.832C60.2988 214.579 64.1474 218.428 68.8948 218.428H208.932C213.679 218.428 217.528 214.579 217.528 209.832V174.155C217.528 169.407 213.679 165.559 208.932 165.559Z" fill="white"/>
<path d="M208.932 165.559H68.8948C64.1474 165.559 60.2988 169.407 60.2988 174.155V209.832C60.2988 214.579 64.1474 218.428 68.8948 218.428H208.932C213.679 218.428 217.528 214.579 217.528 209.832V174.155C217.528 169.407 213.679 165.559 208.932 165.559Z" stroke="url(#paint9_linear_1854_12295)" stroke-width="1.19202"/>
<path d="M215.549 193.513C215.549 194.986 216.743 196.18 218.216 196.18C219.689 196.18 220.883 194.986 220.883 193.513C220.883 192.04 219.689 190.846 218.216 190.846C216.743 190.846 215.549 192.04 215.549 193.513ZM218.216 194.013H321.89V193.013H218.216V194.013Z" fill="url(#paint10_linear_1854_12295)"/>
<mask id="mask0_1854_12295" style="mask-type:luminance" maskUnits="userSpaceOnUse" x="70" y="176" width="31" height="32">
<path d="M100.025 176.219H70.002V207.706H100.025V176.219Z" fill="white"/>
</mask>
<g mask="url(#mask0_1854_12295)">
<path d="M100.025 199.703C100.025 199.966 100.025 200.228 99.8883 200.49C99.6154 200.884 99.206 201.146 98.7966 201.146C98.7966 201.146 98.7966 201.146 98.6602 201.146L85.6957 207.575C85.4228 207.706 85.2863 207.706 85.0134 207.706C84.8769 207.706 84.8769 207.706 84.7405 207.706C84.7405 207.706 84.7405 207.706 84.604 207.706C84.4675 207.706 84.3311 207.706 84.1946 207.575L71.3666 201.146H71.2302C70.8208 201.146 70.4114 200.884 70.1384 200.49C70.002 200.228 70.002 199.966 70.002 199.834V199.703V184.353V184.222V184.091C70.002 183.828 70.002 183.697 70.1384 183.435C70.2749 183.303 70.4114 183.041 70.6843 183.041C70.8208 183.041 70.8208 182.91 70.9572 182.91H71.0937H71.3666L84.3311 176.481C84.4675 176.219 84.7405 176.219 84.8769 176.219H85.0134C85.0134 176.219 85.0134 176.219 85.1499 176.219C85.4228 176.219 85.5593 176.219 85.8322 176.35L98.7966 182.779C99.0696 182.779 99.206 182.91 99.4789 183.041H99.6154L99.7519 183.172L99.8883 183.303C100.025 183.435 100.025 183.566 100.025 183.697V184.091V199.441V199.703ZM72.7313 197.473L74.9148 196.161C75.4606 195.767 76.2794 196.03 76.6889 196.686C77.0983 197.342 76.8253 198.129 76.2794 198.522L74.096 199.834L83.6487 204.557V193.274L81.4652 194.586C80.9194 194.98 80.1006 194.718 79.6911 194.062C79.2817 193.406 79.5547 192.618 80.1006 192.225L82.284 190.913L72.7313 186.19V197.473ZM86.378 179.499V181.467C86.378 182.254 85.8322 182.779 85.0134 182.779C84.1946 182.779 83.6487 182.254 83.6487 181.467V179.499L74.3689 184.091L83.6487 188.682V186.715C83.6487 185.927 84.1946 185.403 85.0134 185.403C85.8322 185.403 86.378 185.927 86.378 186.715V188.682L95.6579 184.091L86.378 179.499ZM97.2955 186.059L87.7428 190.782L89.9262 192.094C90.4721 192.487 90.7451 193.274 90.3356 193.93C89.9262 194.586 89.2439 194.718 88.5616 194.455L86.378 193.143V204.557L95.9308 199.834L93.7473 198.522C93.2014 197.998 92.9285 197.21 93.3379 196.554C93.7473 195.898 94.4297 195.767 95.112 196.03L97.2955 197.342V186.059Z" fill="#6166DC"/>
</g>
<path d="M117.1 200H114.7V185.82H123.52V188.08H117.1V192.06H122.86V194.28H117.1V200ZM129.449 198.22C130.209 198.22 130.849 197.96 131.369 197.4C131.889 196.86 132.169 196.1 132.169 195.12C132.169 194.16 131.889 193.42 131.369 192.88C130.849 192.34 130.209 192.06 129.449 192.06C128.689 192.06 128.029 192.34 127.509 192.88C126.989 193.42 126.729 194.16 126.729 195.12C126.729 196.08 126.989 196.84 127.509 197.4C128.029 197.96 128.689 198.22 129.449 198.22ZM129.449 189.96C130.909 189.96 132.109 190.46 133.069 191.42C134.029 192.4 134.509 193.64 134.509 195.12C134.509 196.62 134.029 197.86 133.069 198.84C132.109 199.82 130.909 200.3 129.449 200.3C127.989 200.3 126.789 199.82 125.829 198.84C124.869 197.86 124.409 196.62 124.409 195.12C124.409 193.64 124.869 192.4 125.829 191.42C126.789 190.46 127.989 189.96 129.449 189.96ZM143.232 198.92C142.992 199.36 142.632 199.68 142.112 199.92C141.592 200.16 141.052 200.28 140.472 200.28C139.332 200.28 138.432 199.92 137.772 199.18C137.112 198.46 136.792 197.52 136.792 196.4V190.26H139.112V195.98C139.112 196.64 139.272 197.18 139.592 197.58C139.912 198 140.392 198.2 141.072 198.2C141.712 198.2 142.212 198 142.572 197.6C142.932 197.2 143.112 196.68 143.112 196.02V190.26H145.432V198.22C145.432 198.82 145.452 199.4 145.532 200H143.312C143.252 199.72 143.232 199.36 143.232 198.92ZM150.955 194.38V200H148.635V190.26H150.895V191.56C151.195 191.04 151.595 190.64 152.115 190.38C152.635 190.12 153.175 189.98 153.775 189.98C154.915 189.98 155.795 190.34 156.395 191.06C156.995 191.78 157.295 192.72 157.295 193.84V200H154.975V194.24C154.975 193.6 154.815 193.08 154.495 192.68C154.175 192.28 153.655 192.08 152.975 192.08C152.335 192.08 151.835 192.3 151.475 192.74C151.115 193.18 150.955 193.72 150.955 194.38ZM161.88 195.1C161.88 196.04 162.12 196.8 162.6 197.36C163.08 197.92 163.7 198.2 164.5 198.2C165.26 198.2 165.88 197.92 166.36 197.34C166.84 196.78 167.08 196.02 167.08 195.08C167.08 194.16 166.84 193.44 166.38 192.88C165.9 192.34 165.28 192.06 164.52 192.06C163.74 192.06 163.1 192.34 162.62 192.9C162.12 193.46 161.88 194.18 161.88 195.1ZM169.32 185.52V198.22C169.32 198.88 169.34 199.48 169.42 200H167.2C167.12 199.64 167.1 199.22 167.1 198.74C166.86 199.18 166.48 199.54 165.98 199.82C165.46 200.1 164.88 200.24 164.24 200.24C162.84 200.24 161.72 199.76 160.86 198.78C159.98 197.82 159.56 196.58 159.56 195.1C159.56 193.68 159.98 192.48 160.86 191.48C161.74 190.5 162.84 190 164.2 190C164.96 190 165.58 190.14 166.06 190.42C166.54 190.7 166.86 191.04 167.06 191.4V185.52H169.32ZM178.251 190.2V192.56C177.971 192.52 177.731 192.5 177.491 192.5C175.731 192.5 174.871 193.46 174.871 195.36V200H172.551V190.26H174.811V191.82C175.031 191.3 175.391 190.9 175.911 190.6C176.411 190.3 176.991 190.14 177.631 190.14C177.831 190.14 178.051 190.16 178.251 190.2ZM183.699 203.94H181.219L183.559 198.84L179.399 190.26H182.019L184.819 196.42L187.439 190.26H189.899L183.699 203.94Z" fill="#A0A0A0"/>
<path d="M792.3 133H789.92V122.56L785.5 133H783.42L779.04 122.6V133H776.7V118.82H779.9L784.5 129.64L789.04 118.82H792.3V133ZM797.285 127.06H802.065C802.025 126.46 801.805 125.94 801.405 125.52C801.005 125.12 800.425 124.9 799.665 124.9C798.965 124.9 798.405 125.12 797.985 125.56C797.545 126 797.325 126.5 797.285 127.06ZM802.325 129.6L804.285 130.22C804.005 131.12 803.465 131.86 802.705 132.44C801.945 133.02 801.005 133.3 799.885 133.3C798.485 133.3 797.305 132.84 796.345 131.88C795.385 130.94 794.905 129.68 794.905 128.08C794.905 126.6 795.365 125.36 796.305 124.4C797.245 123.44 798.365 122.96 799.645 122.96C801.125 122.96 802.305 123.42 803.145 124.34C803.985 125.26 804.405 126.48 804.405 128.02C804.405 128.44 804.385 128.68 804.345 128.76H797.225C797.245 129.5 797.505 130.1 798.025 130.58C798.545 131.06 799.165 131.3 799.885 131.3C801.125 131.3 801.945 130.74 802.325 129.6ZM809.762 120.28V123.26H811.782V125.32H809.762V129.84C809.762 130.28 809.862 130.58 810.062 130.78C810.262 130.98 810.562 131.06 811.002 131.06C811.262 131.06 811.522 131.04 811.802 130.98V132.9C811.442 133.06 810.982 133.12 810.382 133.12C809.462 133.12 808.762 132.88 808.242 132.36C807.722 131.84 807.462 131.14 807.462 130.22V125.32H805.662V123.26H806.162C806.642 123.26 807.022 123.12 807.282 122.84C807.522 122.56 807.662 122.2 807.662 121.74V120.28H809.762ZM813.785 130.36C813.785 129.54 814.045 128.88 814.585 128.38C815.125 127.88 815.845 127.56 816.725 127.42L819.225 127.04C819.705 126.98 819.945 126.74 819.945 126.34C819.945 125.9 819.785 125.56 819.485 125.28C819.165 125 818.705 124.86 818.105 124.86C817.505 124.86 817.045 125.04 816.705 125.36C816.345 125.68 816.145 126.1 816.105 126.62L813.985 126.14C814.065 125.26 814.485 124.52 815.245 123.9C815.985 123.28 816.925 122.96 818.085 122.96C819.485 122.96 820.525 123.3 821.205 123.98C821.885 124.66 822.225 125.54 822.225 126.6V131.44C822.225 132.08 822.265 132.6 822.345 133H820.185C820.105 132.8 820.085 132.4 820.085 131.76C819.445 132.8 818.445 133.3 817.085 133.3C816.085 133.3 815.285 133.02 814.685 132.44C814.085 131.86 813.785 131.16 813.785 130.36ZM817.525 131.48C818.245 131.48 818.825 131.3 819.265 130.9C819.705 130.5 819.945 129.86 819.945 128.96V128.52L817.405 128.9C816.525 129.06 816.105 129.5 816.105 130.22C816.105 130.58 816.225 130.88 816.485 131.12C816.725 131.36 817.085 131.48 817.525 131.48ZM827.53 133H825.23V123.26H827.45V124.5C827.71 124.02 828.11 123.66 828.65 123.38C829.19 123.12 829.75 122.98 830.33 122.98C830.97 122.98 831.57 123.14 832.09 123.42C832.61 123.72 832.99 124.14 833.25 124.7C833.93 123.56 834.97 122.98 836.41 122.98C837.37 122.98 838.17 123.3 838.85 123.92C839.51 124.56 839.85 125.48 839.85 126.68V133H837.61V127.06C837.61 126.46 837.45 125.98 837.13 125.62C836.81 125.26 836.35 125.06 835.73 125.06C835.13 125.06 834.63 125.28 834.27 125.68C833.89 126.1 833.71 126.62 833.71 127.22V133H831.43V127.06C831.43 126.46 831.27 125.98 830.95 125.62C830.63 125.26 830.17 125.06 829.55 125.06C828.93 125.06 828.43 125.28 828.07 125.68C827.71 126.08 827.53 126.6 827.53 127.22V133ZM842.291 130.36C842.291 129.54 842.551 128.88 843.091 128.38C843.631 127.88 844.351 127.56 845.231 127.42L847.731 127.04C848.211 126.98 848.451 126.74 848.451 126.34C848.451 125.9 848.291 125.56 847.991 125.28C847.671 125 847.211 124.86 846.611 124.86C846.011 124.86 845.551 125.04 845.211 125.36C844.851 125.68 844.651 126.1 844.611 126.62L842.491 126.14C842.571 125.26 842.991 124.52 843.751 123.9C844.491 123.28 845.431 122.96 846.591 122.96C847.991 122.96 849.031 123.3 849.711 123.98C850.391 124.66 850.731 125.54 850.731 126.6V131.44C850.731 132.08 850.771 132.6 850.851 133H848.691C848.611 132.8 848.591 132.4 848.591 131.76C847.951 132.8 846.951 133.3 845.591 133.3C844.591 133.3 843.791 133.02 843.191 132.44C842.591 131.86 842.291 131.16 842.291 130.36ZM846.031 131.48C846.751 131.48 847.331 131.3 847.771 130.9C848.211 130.5 848.451 129.86 848.451 128.96V128.52L845.911 128.9C845.031 129.06 844.611 129.5 844.611 130.22C844.611 130.58 844.731 130.88 844.991 131.12C845.231 131.36 845.591 131.48 846.031 131.48ZM852.875 130.36L854.895 129.8C854.935 130.28 855.115 130.66 855.475 130.98C855.815 131.3 856.275 131.46 856.875 131.46C857.315 131.46 857.675 131.36 857.935 131.14C858.195 130.94 858.335 130.66 858.335 130.34C858.335 129.78 857.955 129.42 857.195 129.26L855.755 128.94C854.915 128.76 854.255 128.42 853.815 127.9C853.355 127.4 853.135 126.8 853.135 126.1C853.135 125.26 853.475 124.52 854.175 123.9C854.855 123.28 855.715 122.96 856.715 122.96C857.355 122.96 857.915 123.06 858.415 123.24C858.895 123.44 859.275 123.68 859.555 123.98C859.835 124.28 860.035 124.56 860.195 124.84C860.335 125.12 860.435 125.4 860.475 125.68L858.515 126.24C858.455 125.88 858.275 125.54 857.995 125.24C857.715 124.94 857.275 124.78 856.715 124.78C856.315 124.78 855.975 124.9 855.715 125.12C855.435 125.34 855.315 125.6 855.315 125.9C855.315 126.46 855.635 126.8 856.295 126.92L857.775 127.22C858.675 127.42 859.375 127.78 859.855 128.3C860.335 128.82 860.575 129.46 860.575 130.18C860.575 131 860.235 131.72 859.595 132.36C858.955 133 858.055 133.3 856.895 133.3C856.215 133.3 855.615 133.2 855.095 133C854.575 132.8 854.155 132.56 853.855 132.24C853.555 131.92 853.315 131.62 853.155 131.3C852.995 130.98 852.895 130.68 852.875 130.36ZM872.196 123.26L868.196 127.38L872.276 133H869.436L866.576 129.02L865.376 130.28V133H863.076V118.52H865.376V127.2L869.116 123.26H872.196Z" fill="#A0A0A0"/>
<path d="M118.02 283.14L115.86 283.82C115.76 283.28 115.48 282.78 115.04 282.32C114.58 281.88 113.92 281.64 113.08 281.64C112.36 281.64 111.78 281.84 111.32 282.24C110.86 282.64 110.64 283.12 110.64 283.68C110.64 284.66 111.18 285.26 112.3 285.5L114.34 285.92C115.56 286.16 116.5 286.66 117.18 287.38C117.84 288.12 118.18 289 118.18 290C118.18 291.18 117.72 292.2 116.82 293.04C115.92 293.88 114.7 294.3 113.16 294.3C111.48 294.3 110.18 293.88 109.26 293C108.32 292.12 107.8 291.1 107.68 289.94L109.92 289.3C110 290.1 110.32 290.78 110.88 291.32C111.44 291.88 112.2 292.14 113.16 292.14C113.98 292.14 114.62 291.96 115.06 291.6C115.5 291.24 115.74 290.76 115.74 290.18C115.74 289.72 115.56 289.32 115.24 288.98C114.9 288.64 114.44 288.4 113.84 288.26L111.84 287.84C110.72 287.62 109.84 287.16 109.2 286.46C108.56 285.78 108.24 284.9 108.24 283.86C108.24 282.68 108.7 281.66 109.66 280.8C110.6 279.96 111.74 279.52 113.06 279.52C114.56 279.52 115.72 279.9 116.52 280.62C117.32 281.34 117.82 282.18 118.02 283.14ZM124.816 292.22C125.576 292.22 126.216 291.96 126.736 291.4C127.256 290.86 127.536 290.1 127.536 289.12C127.536 288.16 127.256 287.42 126.736 286.88C126.216 286.34 125.576 286.06 124.816 286.06C124.056 286.06 123.396 286.34 122.876 286.88C122.356 287.42 122.096 288.16 122.096 289.12C122.096 290.08 122.356 290.84 122.876 291.4C123.396 291.96 124.056 292.22 124.816 292.22ZM124.816 283.96C126.276 283.96 127.476 284.46 128.436 285.42C129.396 286.4 129.876 287.64 129.876 289.12C129.876 290.62 129.396 291.86 128.436 292.84C127.476 293.82 126.276 294.3 124.816 294.3C123.356 294.3 122.156 293.82 121.196 292.84C120.236 291.86 119.776 290.62 119.776 289.12C119.776 287.64 120.236 286.4 121.196 285.42C122.156 284.46 123.356 283.96 124.816 283.96ZM138.599 292.92C138.359 293.36 137.999 293.68 137.479 293.92C136.959 294.16 136.419 294.28 135.839 294.28C134.699 294.28 133.799 293.92 133.139 293.18C132.479 292.46 132.159 291.52 132.159 290.4V284.26H134.479V289.98C134.479 290.64 134.639 291.18 134.959 291.58C135.279 292 135.759 292.2 136.439 292.2C137.079 292.2 137.579 292 137.939 291.6C138.299 291.2 138.479 290.68 138.479 290.02V284.26H140.799V292.22C140.799 292.82 140.819 293.4 140.899 294H138.679C138.619 293.72 138.599 293.36 138.599 292.92ZM149.702 284.2V286.56C149.422 286.52 149.182 286.5 148.942 286.5C147.182 286.5 146.322 287.46 146.322 289.36V294H144.002V284.26H146.262V285.82C146.482 285.3 146.842 284.9 147.362 284.6C147.862 284.3 148.442 284.14 149.082 284.14C149.282 284.14 149.502 284.16 149.702 284.2ZM155.981 286.1C155.221 286.1 154.601 286.38 154.081 286.92C153.561 287.46 153.301 288.2 153.301 289.12C153.301 290.08 153.561 290.82 154.081 291.36C154.601 291.92 155.261 292.18 156.021 292.18C156.701 292.18 157.241 292 157.641 291.64C158.041 291.28 158.321 290.86 158.461 290.38L160.501 291.12C160.221 292 159.701 292.74 158.941 293.36C158.181 294 157.201 294.3 156.021 294.3C154.581 294.3 153.381 293.82 152.421 292.82C151.461 291.84 150.981 290.6 150.981 289.12C150.981 287.64 151.441 286.4 152.401 285.42C153.361 284.46 154.541 283.96 155.961 283.96C157.161 283.96 158.161 284.28 158.921 284.9C159.681 285.54 160.181 286.28 160.421 287.16L158.341 287.92C158.201 287.42 157.941 287 157.561 286.64C157.181 286.28 156.661 286.1 155.981 286.1ZM165.062 294H162.762V284.26H165.062V294ZM162.402 280.84C162.402 280.44 162.542 280.08 162.842 279.78C163.122 279.48 163.482 279.32 163.902 279.32C164.322 279.32 164.682 279.48 164.982 279.76C165.262 280.06 165.422 280.42 165.422 280.84C165.422 281.26 165.262 281.62 164.982 281.9C164.682 282.2 164.322 282.34 163.902 282.34C163.482 282.34 163.122 282.2 162.842 281.9C162.542 281.62 162.402 281.26 162.402 280.84ZM172.575 281.5C172.175 281.5 171.835 281.62 171.555 281.84C171.275 282.06 171.135 282.44 171.135 282.98V284.26H173.395V286.28H171.135V294H168.795V286.28H167.095V284.26H168.795V282.92C168.795 281.84 169.095 281 169.735 280.36C170.355 279.74 171.175 279.42 172.195 279.42C172.735 279.42 173.135 279.5 173.415 279.62V281.6C173.175 281.54 172.895 281.5 172.575 281.5ZM178.798 297.94H176.318L178.658 292.84L174.498 284.26H177.118L179.918 290.42L182.538 284.26H184.998L178.798 297.94Z" fill="#A0A0A0"/>
<mask id="mask1_1854_12295" style="mask-type:luminance" maskUnits="userSpaceOnUse" x="52" y="262" width="48" height="48">
<path d="M100 262H52V310H100V262Z" fill="white"/>
</mask>
<g mask="url(#mask1_1854_12295)">
<path d="M69.5459 295.725C69.6486 295.819 69.777 295.87 69.8969 295.87C70.0166 295.87 70.1535 295.819 70.2478 295.725L71.429 294.595C71.5317 294.501 71.5916 294.364 71.5916 294.227C71.5916 294.09 71.5317 293.953 71.429 293.859L63.2291 286.027L71.429 278.195C71.5317 278.101 71.5916 277.964 71.5916 277.827C71.5916 277.69 71.5317 277.553 71.429 277.459L70.2478 276.329C70.1451 276.235 70.0253 276.184 69.8969 276.184C69.7684 276.184 69.6401 276.235 69.5459 276.329L59.771 285.659C59.6683 285.753 59.6084 285.89 59.6084 286.027C59.6084 286.164 59.6683 286.301 59.771 286.395L69.5459 295.725ZM88.8645 286.027L80.6645 293.859C80.5619 293.953 80.502 294.09 80.502 294.227C80.502 294.364 80.5619 294.501 80.6645 294.595L81.8458 295.725C81.9485 295.819 82.077 295.87 82.1967 295.87C82.3165 295.87 82.4535 295.819 82.5476 295.725L92.3226 286.395C92.4252 286.301 92.4851 286.164 92.4851 286.027C92.4851 285.89 92.4252 285.753 92.3226 285.659L82.5476 276.329C82.445 276.235 82.3165 276.184 82.1967 276.184C82.0683 276.184 81.9399 276.235 81.8458 276.329L80.6645 277.459C80.5619 277.553 80.502 277.69 80.502 277.827C80.502 277.964 80.5619 278.101 80.6645 278.195L88.8645 286.027Z" fill="#C5D5EA"/>
<path d="M69.477 285.069C69.4684 285.403 69.5969 285.719 69.8365 285.959L69.8451 285.968C70.0761 286.199 70.3757 286.327 70.701 286.327C71.0006 286.327 71.283 286.216 71.5055 286.019L74.8351 283.057V292.139C74.8351 292.806 75.383 293.354 76.0507 293.354C76.7182 293.354 77.2661 292.806 77.2661 292.139V283.049L80.5956 286.01C80.8182 286.207 81.1092 286.318 81.4003 286.318C81.7255 286.318 82.0336 286.19 82.2647 285.959L82.2733 285.95C82.513 285.711 82.6329 285.403 82.6329 285.06C82.6242 284.726 82.4873 284.418 82.2391 284.187L76.8637 279.248C76.6412 279.043 76.3502 278.932 76.0507 278.932C75.751 278.932 75.4601 279.043 75.2374 279.248L69.8621 284.187C69.6225 284.427 69.477 284.735 69.477 285.069Z" fill="#C5D5EA"/>
</g>
<path d="M762.971 112.012L751.729 120.362L753.808 115.435L762.971 112.012Z" fill="#E2761B" stroke="#E2761B" stroke-linecap="round" stroke-linejoin="round"/>
<path d="M737.017 112.012L748.169 120.441L746.192 115.435L737.017 112.012ZM758.926 131.368L755.932 135.955L762.339 137.718L764.18 131.469L758.926 131.368ZM735.83 131.469L737.661 137.718L744.067 135.955L741.073 131.368L735.83 131.469Z" fill="#E4761B" stroke="#E4761B" stroke-linecap="round" stroke-linejoin="round"/>
<path d="M743.706 123.616L741.921 126.316L748.282 126.599L748.056 119.763L743.706 123.616ZM756.282 123.616L751.876 119.684L751.729 126.599L758.079 126.316L756.282 123.616ZM744.068 135.955L747.887 134.09L744.588 131.514L744.068 135.955ZM752.102 134.09L755.932 135.955L755.401 131.514L752.102 134.09Z" fill="#E4761B" stroke="#E4761B" stroke-linecap="round" stroke-linejoin="round"/>
<path d="M755.932 135.954L752.101 134.09L752.406 136.587L752.372 137.638L755.932 135.954ZM744.067 135.954L747.627 137.638L747.604 136.587L747.887 134.09L744.067 135.954Z" fill="#D7C1B3" stroke="#D7C1B3" stroke-linecap="round" stroke-linejoin="round"/>
<path d="M744.068 135.955L744.61 131.367L741.073 131.469L744.068 135.955ZM755.39 131.367L755.932 135.955L758.926 131.469L755.39 131.367ZM758.079 126.316L751.729 126.599L752.316 129.864L753.254 127.898L755.514 128.927L758.079 126.316ZM744.497 128.927L746.757 127.898L747.683 129.864L748.282 126.599L741.921 126.316L744.497 128.927Z" fill="#CD6116" stroke="#CD6116" stroke-linecap="round" stroke-linejoin="round"/>
<path d="M747.684 130.865L744.497 129.927L746.746 128.898L747.684 130.865ZM752.305 130.865L753.243 128.898L755.503 129.927L752.305 130.865Z" fill="#233447" stroke="#233447" stroke-width="2" stroke-linecap="round" stroke-linejoin="round"/>
<path d="M741.921 126.316L744.588 131.514L744.497 128.927L741.921 126.316ZM755.514 128.927L755.401 131.514L758.079 126.316L755.514 128.927ZM748.282 126.599L747.684 129.864L748.429 133.718L748.599 128.644L748.282 126.599ZM751.729 126.599L751.424 128.633L751.559 133.718L752.316 129.864L751.729 126.599Z" fill="#E4751F" stroke="#E4751F" stroke-linecap="round" stroke-linejoin="round"/>
<path d="M752.316 129.864L751.559 133.717L752.102 134.09L755.401 131.513L755.514 128.926L752.316 129.864ZM744.497 128.926L744.587 131.513L747.887 134.09L748.429 133.717L747.684 129.864L744.497 128.926Z" fill="#F6851B" stroke="#F6851B" stroke-linecap="round" stroke-linejoin="round"/>
<path d="M752.372 137.639L752.406 136.588L752.124 136.339H747.864L747.604 136.588L747.627 137.639L744.067 135.955L745.31 136.972L747.83 138.723H752.158L754.689 136.972L755.932 135.955L752.372 137.639Z" fill="#C0AD9E" stroke="#C0AD9E" stroke-linecap="round" stroke-linejoin="round"/>
<path d="M752.102 134.09L751.559 133.717H748.429L747.887 134.09L747.604 136.587L747.864 136.338H752.124L752.407 136.587L752.102 134.09Z" fill="#161616" stroke="#161616" stroke-linecap="round" stroke-linejoin="round"/>
<path d="M763.446 120.904L764.406 116.294L762.971 112.012L752.101 120.08L756.282 123.616L762.192 125.345L763.502 123.82L762.937 123.413L763.841 122.588L763.141 122.046L764.045 121.356L763.446 120.904ZM735.593 116.294L736.553 120.904L735.943 121.356L736.847 122.046L736.158 122.588L737.062 123.413L736.497 123.82L737.796 125.345L743.706 123.616L747.887 120.08L737.017 112.012L735.593 116.294Z" fill="#763D16" stroke="#763D16" stroke-linecap="round" stroke-linejoin="round"/>
<path d="M762.192 125.345L756.282 123.616L758.079 126.317L755.401 131.515L758.926 131.469H764.18L762.192 125.345ZM743.706 123.616L737.796 125.345L735.83 131.469H741.073L744.587 131.515L741.92 126.317L743.706 123.616ZM751.728 126.599L752.101 120.08L753.819 115.436H746.192L747.887 120.08L748.282 126.599L748.418 128.656L748.429 133.718H751.559L751.581 128.656L751.728 126.599Z" fill="#F6851B" stroke="#F6851B" stroke-linecap="round" stroke-linejoin="round"/>
<path d="M210.823 79H56.596C51.8486 79 48 82.8486 48 87.596V116.754C48 121.501 51.8486 125.35 56.596 125.35H210.823C215.57 125.35 219.419 121.501 219.419 116.754V87.596C219.419 82.8486 215.57 79 210.823 79Z" fill="white"/>
<path d="M210.823 79H56.596C51.8486 79 48 82.8486 48 87.596V116.754C48 121.501 51.8486 125.35 56.596 125.35H210.823C215.57 125.35 219.419 121.501 219.419 116.754V87.596C219.419 82.8486 215.57 79 210.823 79Z" stroke="url(#paint11_linear_1854_12295)" stroke-width="1.19202"/>
<path d="M123.18 110H120.76V103.94H114.1V110H111.7V95.82H114.1V101.68H120.76V95.82H123.18V110ZM125.924 107.36C125.924 106.54 126.184 105.88 126.724 105.38C127.264 104.88 127.984 104.56 128.864 104.42L131.364 104.04C131.844 103.98 132.084 103.74 132.084 103.34C132.084 102.9 131.924 102.56 131.624 102.28C131.304 102 130.844 101.86 130.244 101.86C129.644 101.86 129.184 102.04 128.844 102.36C128.484 102.68 128.284 103.1 128.244 103.62L126.124 103.14C126.204 102.26 126.624 101.52 127.384 100.9C128.124 100.28 129.064 99.96 130.224 99.96C131.624 99.96 132.664 100.3 133.344 100.98C134.024 101.66 134.364 102.54 134.364 103.6V108.44C134.364 109.08 134.404 109.6 134.484 110H132.324C132.244 109.8 132.224 109.4 132.224 108.76C131.584 109.8 130.584 110.3 129.224 110.3C128.224 110.3 127.424 110.02 126.824 109.44C126.224 108.86 125.924 108.16 125.924 107.36ZM129.664 108.48C130.384 108.48 130.964 108.3 131.404 107.9C131.844 107.5 132.084 106.86 132.084 105.96V105.52L129.544 105.9C128.664 106.06 128.244 106.5 128.244 107.22C128.244 107.58 128.364 107.88 128.624 108.12C128.864 108.36 129.224 108.48 129.664 108.48ZM143.069 100.2V102.56C142.789 102.52 142.549 102.5 142.309 102.5C140.549 102.5 139.689 103.46 139.689 105.36V110H137.369V100.26H139.629V101.82C139.849 101.3 140.209 100.9 140.729 100.6C141.229 100.3 141.809 100.14 142.449 100.14C142.649 100.14 142.869 100.16 143.069 100.2ZM146.668 105.1C146.668 106.04 146.908 106.8 147.388 107.36C147.868 107.92 148.488 108.2 149.288 108.2C150.048 108.2 150.668 107.92 151.148 107.34C151.628 106.78 151.868 106.02 151.868 105.08C151.868 104.16 151.628 103.44 151.168 102.88C150.688 102.34 150.068 102.06 149.308 102.06C148.528 102.06 147.888 102.34 147.408 102.9C146.908 103.46 146.668 104.18 146.668 105.1ZM154.108 95.52V108.22C154.108 108.88 154.128 109.48 154.208 110H151.988C151.908 109.64 151.888 109.22 151.888 108.74C151.648 109.18 151.268 109.54 150.768 109.82C150.248 110.1 149.668 110.24 149.028 110.24C147.628 110.24 146.508 109.76 145.648 108.78C144.768 107.82 144.348 106.58 144.348 105.1C144.348 103.68 144.768 102.48 145.648 101.48C146.528 100.5 147.628 100 148.988 100C149.748 100 150.368 100.14 150.848 100.42C151.328 100.7 151.648 101.04 151.848 101.4V95.52H154.108ZM159.659 104.28V110H157.339V95.52H159.659V101.2C160.279 100.4 161.199 99.98 162.439 99.98C163.579 99.98 164.459 100.34 165.079 101.06C165.679 101.78 165.999 102.72 165.999 103.84V110H163.679V104.24C163.679 103.6 163.519 103.08 163.199 102.68C162.879 102.28 162.359 102.08 161.679 102.08C161.059 102.08 160.579 102.3 160.219 102.7C159.859 103.12 159.679 103.64 159.659 104.28ZM168.423 107.36C168.423 106.54 168.683 105.88 169.223 105.38C169.763 104.88 170.483 104.56 171.363 104.42L173.863 104.04C174.343 103.98 174.583 103.74 174.583 103.34C174.583 102.9 174.423 102.56 174.123 102.28C173.803 102 173.343 101.86 172.743 101.86C172.143 101.86 171.683 102.04 171.343 102.36C170.983 102.68 170.783 103.1 170.743 103.62L168.623 103.14C168.703 102.26 169.123 101.52 169.883 100.9C170.623 100.28 171.563 99.96 172.723 99.96C174.123 99.96 175.163 100.3 175.843 100.98C176.523 101.66 176.863 102.54 176.863 103.6V108.44C176.863 109.08 176.903 109.6 176.983 110H174.823C174.743 109.8 174.723 109.4 174.723 108.76C174.083 109.8 173.083 110.3 171.723 110.3C170.723 110.3 169.923 110.02 169.323 109.44C168.723 108.86 168.423 108.16 168.423 107.36ZM172.163 108.48C172.883 108.48 173.463 108.3 173.903 107.9C174.343 107.5 174.583 106.86 174.583 105.96V105.52L172.043 105.9C171.163 106.06 170.743 106.5 170.743 107.22C170.743 107.58 170.863 107.88 171.123 108.12C171.363 108.36 171.723 108.48 172.163 108.48ZM182.769 97.28V100.26H184.789V102.32H182.769V106.84C182.769 107.28 182.869 107.58 183.069 107.78C183.269 107.98 183.569 108.06 184.009 108.06C184.269 108.06 184.529 108.04 184.809 107.98V109.9C184.449 110.06 183.989 110.12 183.389 110.12C182.469 110.12 181.769 109.88 181.249 109.36C180.729 108.84 180.469 108.14 180.469 107.22V102.32H178.669V100.26H179.169C179.649 100.26 180.029 100.12 180.289 99.84C180.529 99.56 180.669 99.2 180.669 98.74V97.28H182.769Z" fill="#A0A0A0"/>
<path d="M95.0751 109.6C95.0751 109.6 89.8552 108.827 87.0969 108.605C84.448 108.392 81.309 108.27 77.9415 108.27C74.5739 108.27 71.4349 108.392 68.7868 108.605C66.0277 108.83 60.8086 109.903 60.8086 109.903V111.252C60.8086 112.451 68.4796 113.425 77.9415 113.425C87.4034 113.425 95.0744 112.451 95.0744 111.252L95.0751 109.6Z" fill="#F0D50C"/>
<path d="M72.6747 91.7109C66.4185 93.9401 62.2406 99.8635 62.2402 106.505V108.729C64.4728 108.196 66.7491 107.866 69.0412 107.743C69.0257 107.316 69.0177 106.887 69.0172 106.453C69.0195 100.618 70.4282 95.3662 72.6747 91.7109Z" fill="#F0D50C"/>
<path d="M93.6446 106.504C93.65 102.86 92.3823 99.3285 90.0605 96.5195C91.067 99.7343 91.5686 103.086 91.5472 106.454C91.5472 107.067 91.5315 107.673 91.5 108.272C92.2145 108.382 92.9222 108.532 93.6199 108.722L93.6446 106.504Z" fill="#FFF04D"/>
<path d="M93.6446 106.504C93.65 102.86 92.3823 99.3285 90.0605 96.5195C91.067 99.7343 91.5686 103.086 91.5472 106.454C91.5472 107.067 91.5315 107.673 91.5 108.272C92.2145 108.382 92.9222 108.532 93.6199 108.722L93.6446 106.504Z" fill="#FFEA00"/>
<path d="M90.0602 96.5207C85.8534 91.4211 78.905 89.4993 72.6756 91.7122C70.4275 95.3675 69.0195 100.619 69.0195 106.455C69.0195 106.889 69.0275 107.318 69.0435 107.745C71.3815 107.564 74.0881 107.453 76.9865 107.433C76.9865 107.433 77.6452 107.433 77.9442 107.433C82.4778 107.378 87.0093 107.66 91.5012 108.277C91.5316 107.678 91.5474 107.072 91.5484 106.459C91.5696 103.089 91.0676 99.7365 90.0602 96.5207Z" fill="#FFF04D"/>
<path d="M84.2578 97.558L83.2627 91.3384C83.192 90.8808 82.8641 90.5049 82.4204 90.3725C79.521 89.5217 76.4381 89.5217 73.5385 90.3725C73.0951 90.5051 72.7676 90.881 72.6971 91.3384L71.7012 97.558" fill="#FFF04D"/>
<path d="M77.9438 107.301C77.6441 107.301 77.3466 107.301 77.0513 107.301H77.0184H76.9854C67.9686 107.364 60.8102 108.311 60.8102 109.47V111.15C60.7956 111.249 60.8166 111.349 60.8694 111.433C61.3273 111.089 61.8537 110.848 62.413 110.724C63.8375 110.378 65.2853 110.135 66.7449 109.999C67.5739 109.908 68.402 110.179 69.0177 110.741C70.145 111.773 71.6181 112.345 73.1465 112.345H82.7381C84.2665 112.345 85.7395 111.773 86.8669 110.741C87.4826 110.178 88.311 109.907 89.1405 109.998C90.5999 110.135 92.0474 110.377 93.4716 110.724C94.0013 110.826 94.5015 111.044 94.9358 111.364C94.9606 111.389 94.9891 111.411 95.0107 111.433C95.064 111.349 95.0852 111.248 95.0707 111.149V109.469C95.076 108.273 87.405 107.301 77.9438 107.301Z" fill="#FFF04D"/>
<path d="M81.5528 102.309L77.9395 104.533V107.421L81.5528 102.309Z" fill="#6E6F70"/>
<path d="M77.9414 107.421V104.533L74.3281 102.309L77.9414 107.421Z" fill="#0A0A0A"/>
<path d="M74.3281 100.991L77.9414 103.08V95.1465L74.3281 100.991Z" fill="#0A0A0A"/>
<path d="M81.5528 100.989L77.9395 95.1445V98.8995V103.078L81.5528 100.989V100.989Z" fill="#6E6F70"/>
<path d="M216.548 103.515C216.548 104.988 217.742 106.182 219.215 106.182C220.688 106.182 221.882 104.988 221.882 103.515C221.882 102.042 220.688 100.848 219.215 100.848C217.742 100.848 216.548 102.042 216.548 103.515ZM219.215 104.015H322.889V103.015H219.215V104.015Z" fill="url(#paint12_linear_1854_12295)"/>
<path d="M883.823 278H729.596C724.849 278 721 281.849 721 286.596V315.754C721 320.501 724.849 324.35 729.596 324.35H883.823C888.57 324.35 892.419 320.501 892.419 315.754V286.596C892.419 281.849 888.57 278 883.823 278Z" fill="white"/>
<path d="M883.823 278H729.596C724.849 278 721 281.849 721 286.596V315.754C721 320.501 724.849 324.35 729.596 324.35H883.823C888.57 324.35 892.419 320.501 892.419 315.754V286.596C892.419 281.849 888.57 278 883.823 278Z" stroke="url(#paint13_linear_1854_12295)" stroke-width="1.19202"/>
<path d="M756.95 317.488C765.425 317.488 772.295 310.537 772.295 301.963C772.295 293.39 765.425 286.439 756.95 286.439C748.476 286.439 741.605 293.39 741.605 301.963C741.605 310.537 748.476 317.488 756.95 317.488Z" fill="#5E464D"/>
<path d="M752.125 315.728C752.753 315.943 754.861 316.628 754.951 315.958C754.999 315.59 753.887 315.213 752.381 314.415C750.238 313.283 748.279 311.835 746.567 310.12C744.069 307.67 742.632 304.338 742.567 300.84C742.439 296.143 744.275 292.347 747.295 289.896C745.471 291.304 743.985 293.101 742.944 295.155C741.903 297.21 741.333 299.471 741.276 301.774C741.187 305.171 742.137 308.033 743.921 310.638C744.475 311.354 745.123 311.992 745.847 312.535C747.556 313.828 750.057 315.025 752.125 315.727" fill="white"/>
<path d="M772.506 298.406C771.555 293.932 768.597 290.799 764.641 288.586C767.661 290.74 771.924 295.319 769.413 299.359C767.286 302.595 762.11 301.961 759.283 300.423C755.921 298.599 751.71 294.496 755.864 290.483C758.552 287.887 767.111 290.798 765.605 294.678C764.726 296.935 761.306 296.433 759.768 295.33C758.634 294.515 757.68 293.115 758.185 291.67C758.347 291.207 758.324 290.488 757.669 291.017C757.181 291.412 756.935 292.062 756.85 292.667C756.134 297.727 765.149 301.65 767.822 296.754C769.211 294.213 766.962 290.523 764.13 289.012C762.002 287.872 759.786 287.071 757.074 287.265C752.733 287.569 749.09 290.29 748.634 294.725C748.178 299.133 751.125 303.1 754.595 305.472C758.242 307.965 763.145 309.608 767.632 308.121C771.654 306.788 773.315 302.172 772.506 298.405" fill="white"/>
<path d="M766.847 294.978C767.278 292.078 764.656 290.087 762.235 289.182C759.381 288.118 755.61 288.584 753.531 290.947C752.011 292.683 752.11 295.203 752.894 297.242C754.08 300.323 756.756 302.55 759.872 303.512C762.085 304.196 764.763 304.494 767.006 303.772C770.279 302.718 771.344 299.306 770.668 296.18C770.523 295.504 770.3 294.847 770.005 294.222C769.592 293.354 768.333 291.597 770.07 293.737C770.253 293.976 770.422 294.225 770.575 294.484C770.935 295.075 771.22 295.709 771.425 296.37C772.376 299.288 771.63 302.693 768.993 304.454C766.97 305.802 764.398 305.963 762.051 305.626C758.905 305.17 755.94 303.65 753.879 301.205C751.997 298.975 750.713 295.773 751.487 292.845C752.054 290.704 753.792 289.105 755.875 288.438C758.509 287.585 761.407 287.982 763.778 289.366C764.967 290.058 766.058 291.015 766.658 292.271C766.933 292.836 767.081 293.455 767.091 294.084C767.097 294.339 767.077 294.593 767.032 294.844C767.015 294.935 766.822 295.192 766.85 294.981" fill="#3FE0C5"/>
<path d="M798.88 297.08H794.26V309H791.86V297.08H787.26V294.82H798.88V297.08ZM805.201 299.2V301.56C804.921 301.52 804.681 301.5 804.441 301.5C802.681 301.5 801.821 302.46 801.821 304.36V309H799.501V299.26H801.761V300.82C801.981 300.3 802.341 299.9 802.861 299.6C803.361 299.3 803.941 299.14 804.581 299.14C804.781 299.14 805.001 299.16 805.201 299.2ZM813.697 307.92C813.457 308.36 813.097 308.68 812.577 308.92C812.057 309.16 811.517 309.28 810.937 309.28C809.797 309.28 808.897 308.92 808.237 308.18C807.577 307.46 807.257 306.52 807.257 305.4V299.26H809.577V304.98C809.577 305.64 809.737 306.18 810.057 306.58C810.377 307 810.857 307.2 811.537 307.2C812.177 307.2 812.677 307 813.037 306.6C813.397 306.2 813.577 305.68 813.577 305.02V299.26H815.897V307.22C815.897 307.82 815.917 308.4 815.997 309H813.777C813.717 308.72 813.697 308.36 813.697 307.92ZM829.82 296.5C829.44 296.5 829.1 296.62 828.82 296.84C828.52 297.08 828.38 297.46 828.38 297.98V299.26H832.6V294.52H834.9V309H832.6V301.28H828.38V309H826.04V301.28H821.98V309H819.64V301.28H817.94V299.26H819.64V297.92C819.64 296.84 819.94 296 820.58 295.36C821.2 294.74 822.02 294.42 823.04 294.42C823.58 294.42 823.98 294.5 824.26 294.62V296.6C824.02 296.54 823.74 296.5 823.42 296.5C823.04 296.5 822.7 296.62 822.42 296.84C822.12 297.08 821.98 297.46 821.98 297.98V299.26H826.04V297.92C826.04 296.84 826.34 296 826.98 295.36C827.6 294.74 828.42 294.42 829.44 294.42C829.98 294.42 830.38 294.5 830.66 294.62V296.6C830.42 296.54 830.14 296.5 829.82 296.5ZM839.729 303.06H844.509C844.469 302.46 844.249 301.94 843.849 301.52C843.449 301.12 842.869 300.9 842.109 300.9C841.409 300.9 840.849 301.12 840.429 301.56C839.989 302 839.769 302.5 839.729 303.06ZM844.769 305.6L846.729 306.22C846.449 307.12 845.909 307.86 845.149 308.44C844.389 309.02 843.449 309.3 842.329 309.3C840.929 309.3 839.749 308.84 838.789 307.88C837.829 306.94 837.349 305.68 837.349 304.08C837.349 302.6 837.809 301.36 838.749 300.4C839.689 299.44 840.809 298.96 842.089 298.96C843.569 298.96 844.749 299.42 845.589 300.34C846.429 301.26 846.849 302.48 846.849 304.02C846.849 304.44 846.829 304.68 846.789 304.76H839.669C839.689 305.5 839.949 306.1 840.469 306.58C840.989 307.06 841.609 307.3 842.329 307.3C843.569 307.3 844.389 306.74 844.769 305.6Z" fill="#A0A0A0"/>
<path d="M722.606 301.091C722.606 302.563 721.412 303.757 719.939 303.757C718.467 303.757 717.273 302.563 717.273 301.091C717.273 299.618 718.467 298.424 719.939 298.424C721.412 298.424 722.606 299.618 722.606 301.091ZM719.939 301.591H616.266V300.591H719.939V301.591Z" fill="url(#paint14_linear_1854_12295)"/>
<path d="M883.823 189H729.596C724.849 189 721 192.849 721 197.596V226.754C721 231.501 724.849 235.35 729.596 235.35H883.823C888.57 235.35 892.419 231.501 892.419 226.754V197.596C892.419 192.849 888.57 189 883.823 189Z" fill="white"/>
<path d="M883.823 189H729.596C724.849 189 721 192.849 721 197.596V226.754C721 231.501 724.849 235.35 729.596 235.35H883.823C888.57 235.35 892.419 231.501 892.419 226.754V197.596C892.419 192.849 888.57 189 883.823 189Z" stroke="url(#paint15_linear_1854_12295)" stroke-width="1.19202"/>
<path d="M795.02 209.14L792.86 209.82C792.76 209.28 792.48 208.78 792.04 208.32C791.58 207.88 790.92 207.64 790.08 207.64C789.36 207.64 788.78 207.84 788.32 208.24C787.86 208.64 787.64 209.12 787.64 209.68C787.64 210.66 788.18 211.26 789.3 211.5L791.34 211.92C792.56 212.16 793.5 212.66 794.18 213.38C794.84 214.12 795.18 215 795.18 216C795.18 217.18 794.72 218.2 793.82 219.04C792.92 219.88 791.7 220.3 790.16 220.3C788.48 220.3 787.18 219.88 786.26 219C785.32 218.12 784.8 217.1 784.68 215.94L786.92 215.3C787 216.1 787.32 216.78 787.88 217.32C788.44 217.88 789.2 218.14 790.16 218.14C790.98 218.14 791.62 217.96 792.06 217.6C792.5 217.24 792.74 216.76 792.74 216.18C792.74 215.72 792.56 215.32 792.24 214.98C791.9 214.64 791.44 214.4 790.84 214.26L788.84 213.84C787.72 213.62 786.84 213.16 786.2 212.46C785.56 211.78 785.24 210.9 785.24 209.86C785.24 208.68 785.7 207.66 786.66 206.8C787.6 205.96 788.74 205.52 790.06 205.52C791.56 205.52 792.72 205.9 793.52 206.62C794.32 207.34 794.82 208.18 795.02 209.14ZM801.816 218.22C802.576 218.22 803.216 217.96 803.736 217.4C804.256 216.86 804.536 216.1 804.536 215.12C804.536 214.16 804.256 213.42 803.736 212.88C803.216 212.34 802.576 212.06 801.816 212.06C801.056 212.06 800.396 212.34 799.876 212.88C799.356 213.42 799.096 214.16 799.096 215.12C799.096 216.08 799.356 216.84 799.876 217.4C800.396 217.96 801.056 218.22 801.816 218.22ZM801.816 209.96C803.276 209.96 804.476 210.46 805.436 211.42C806.396 212.4 806.876 213.64 806.876 215.12C806.876 216.62 806.396 217.86 805.436 218.84C804.476 219.82 803.276 220.3 801.816 220.3C800.356 220.3 799.156 219.82 798.196 218.84C797.236 217.86 796.776 216.62 796.776 215.12C796.776 213.64 797.236 212.4 798.196 211.42C799.156 210.46 800.356 209.96 801.816 209.96ZM811.638 220H809.318V205.52H811.638V220ZM817.13 220H814.83V210.26H817.13V220ZM814.47 206.84C814.47 206.44 814.61 206.08 814.91 205.78C815.19 205.48 815.55 205.32 815.97 205.32C816.39 205.32 816.75 205.48 817.05 205.76C817.33 206.06 817.49 206.42 817.49 206.84C817.49 207.26 817.33 207.62 817.05 207.9C816.75 208.2 816.39 208.34 815.97 208.34C815.55 208.34 815.19 208.2 814.91 207.9C814.61 207.62 814.47 207.26 814.47 206.84ZM821.883 215.1C821.883 216.04 822.123 216.8 822.603 217.36C823.083 217.92 823.703 218.2 824.503 218.2C825.263 218.2 825.883 217.92 826.363 217.34C826.843 216.78 827.083 216.02 827.083 215.08C827.083 214.16 826.843 213.44 826.383 212.88C825.903 212.34 825.283 212.06 824.523 212.06C823.743 212.06 823.103 212.34 822.623 212.9C822.123 213.46 821.883 214.18 821.883 215.1ZM829.323 205.52V218.22C829.323 218.88 829.343 219.48 829.423 220H827.203C827.123 219.64 827.103 219.22 827.103 218.74C826.863 219.18 826.483 219.54 825.983 219.82C825.463 220.1 824.883 220.24 824.243 220.24C822.843 220.24 821.723 219.76 820.863 218.78C819.983 217.82 819.563 216.58 819.563 215.1C819.563 213.68 819.983 212.48 820.863 211.48C821.743 210.5 822.843 210 824.203 210C824.963 210 825.583 210.14 826.063 210.42C826.543 210.7 826.863 211.04 827.063 211.4V205.52H829.323ZM834.855 220H832.555V210.26H834.855V220ZM832.195 206.84C832.195 206.44 832.335 206.08 832.635 205.78C832.915 205.48 833.275 205.32 833.695 205.32C834.115 205.32 834.475 205.48 834.775 205.76C835.055 206.06 835.215 206.42 835.215 206.84C835.215 207.26 835.055 207.62 834.775 207.9C834.475 208.2 834.115 208.34 833.695 208.34C833.275 208.34 832.915 208.2 832.635 207.9C832.335 207.62 832.195 207.26 832.195 206.84ZM840.988 207.28V210.26H843.008V212.32H840.988V216.84C840.988 217.28 841.088 217.58 841.288 217.78C841.488 217.98 841.788 218.06 842.228 218.06C842.488 218.06 842.748 218.04 843.028 217.98V219.9C842.668 220.06 842.208 220.12 841.608 220.12C840.688 220.12 839.988 219.88 839.468 219.36C838.948 218.84 838.688 218.14 838.688 217.22V212.32H836.888V210.26H837.388C837.868 210.26 838.248 210.12 838.508 209.84C838.748 209.56 838.888 209.2 838.888 208.74V207.28H840.988ZM848.708 223.94H846.228L848.568 218.84L844.408 210.26H847.028L849.828 216.42L852.448 210.26H854.908L848.708 223.94Z" fill="#A0A0A0"/>
<g clip-path="url(#clip0_1854_12295)">
<path opacity="0.45" d="M758.979 198L754.317 206.286H745L749.659 198H758.979Z" fill="#606060"/>
<path opacity="0.6" d="M754.317 206.286H763.637L758.979 198H749.658L754.317 206.286Z" fill="#606060"/>
<path opacity="0.8" d="M749.659 214.569L754.317 206.286L749.659 198L745 206.286L749.659 214.569Z" fill="#606060"/>
<path opacity="0.45" d="M749.705 226.999L754.367 218.713H763.688L759.026 226.999H749.705Z" fill="#606060"/>
<path opacity="0.6" d="M754.367 218.713H745.046L749.704 226.999H759.025L754.367 218.713Z" fill="#606060"/>
<path opacity="0.8" d="M759.026 210.432L754.367 218.714L759.026 227.001L763.688 218.714L759.026 210.432Z" fill="#606060"/>
</g>
<path d="M722.606 212.091C722.606 213.563 721.412 214.757 719.939 214.757C718.467 214.757 717.273 213.563 717.273 212.091C717.273 210.618 718.467 209.424 719.939 209.424C721.412 209.424 722.606 210.618 722.606 212.091ZM719.939 212.591H616.266V211.591H719.939V212.591Z" fill="url(#paint16_linear_1854_12295)"/>
<path d="M477.737 242.564V293.419L539.999 205.492L477.737 242.564Z" fill="#6A6A6A"/>
<path d="M477.737 90L539.999 193.611L477.737 230.683L415 193.611" fill="#727272"/>
<path d="M477.737 90V165.094L415 193.611M415 205.493L477.737 242.565V293.42" fill="#8C8C8C"/>
<path d="M477.737 165.094V230.682L539.999 193.611" fill="#797979"/>
<path d="M415 193.611L477.737 165.094V230.682" fill="#6A6A6A"/>
<defs>
<linearGradient id="paint0_linear_1854_12295" x1="482.231" y1="200.384" x2="482.231" y2="344.123" gradientUnits="userSpaceOnUse">
<stop stop-color="#DFDFDF"/>
<stop offset="1" stop-color="#F1F3F5" stop-opacity="0"/>
</linearGradient>
<linearGradient id="paint1_linear_1854_12295" x1="805.851" y1="100.409" x2="805.851" y2="148.775" gradientUnits="userSpaceOnUse">
<stop stop-color="#EBEBEB"/>
<stop offset="1" stop-color="#E4E4E4" stop-opacity="0.49"/>
</linearGradient>
<linearGradient id="paint2_linear_1854_12295" x1="132.819" y1="262.936" x2="132.819" y2="308.171" gradientUnits="userSpaceOnUse">
<stop stop-color="#EBEBEB"/>
<stop offset="1" stop-color="#E4E4E4" stop-opacity="0.49"/>
</linearGradient>
<radialGradient id="paint3_radial_1854_12295" cx="0" cy="0" r="1" gradientUnits="userSpaceOnUse" gradientTransform="translate(474.858 227.921) rotate(-0.330001) scale(122.603 157.215)">
<stop offset="0.583333" stop-color="#C7C7C7"/>
<stop offset="0.90625" stop-color="white" stop-opacity="0.24"/>
<stop offset="1" stop-color="white" stop-opacity="0"/>
</radialGradient>
<linearGradient id="paint4_linear_1854_12295" x1="271.052" y1="286.514" x2="300.362" y2="286.514" gradientUnits="userSpaceOnUse">
<stop stop-color="#B6B6B6"/>
<stop offset="1" stop-color="#FAFAFA" stop-opacity="0"/>
</linearGradient>
<linearGradient id="paint5_linear_1854_12295" x1="670.103" y1="125.041" x2="640.793" y2="125.041" gradientUnits="userSpaceOnUse">
<stop stop-color="#B6B6B6"/>
<stop offset="1" stop-color="#FAFAFA" stop-opacity="0"/>
</linearGradient>
<linearGradient id="paint6_linear_1854_12295" x1="545.376" y1="84" x2="545.376" y2="135.778" gradientUnits="userSpaceOnUse">
<stop stop-color="#2AEA95"/>
<stop offset="1" stop-color="#8EFACB"/>
</linearGradient>
<linearGradient id="paint7_linear_1854_12295" x1="545.51" y1="94.3027" x2="545.51" y2="125.699" gradientUnits="userSpaceOnUse">
<stop stop-color="#2AEA95"/>
<stop offset="1" stop-color="#8EFACB"/>
</linearGradient>
<linearGradient id="paint8_linear_1854_12295" x1="545.693" y1="103.721" x2="545.693" y2="117.615" gradientUnits="userSpaceOnUse">
<stop stop-color="#2AEA95"/>
<stop offset="1" stop-color="#8EFACB"/>
</linearGradient>
<linearGradient id="paint9_linear_1854_12295" x1="138.914" y1="166.194" x2="138.914" y2="217.792" gradientUnits="userSpaceOnUse">
<stop stop-color="#EBEBEB"/>
<stop offset="1" stop-color="#E4E4E4" stop-opacity="0.49"/>
</linearGradient>
<linearGradient id="paint10_linear_1854_12295" x1="270.053" y1="193.512" x2="299.363" y2="193.512" gradientUnits="userSpaceOnUse">
<stop stop-color="#B6B6B6"/>
<stop offset="1" stop-color="#FAFAFA" stop-opacity="0"/>
</linearGradient>
<linearGradient id="paint11_linear_1854_12295" x1="133.71" y1="79.5574" x2="133.71" y2="124.792" gradientUnits="userSpaceOnUse">
<stop stop-color="#EBEBEB"/>
<stop offset="1" stop-color="#E4E4E4" stop-opacity="0.49"/>
</linearGradient>
<linearGradient id="paint12_linear_1854_12295" x1="271.052" y1="103.514" x2="300.362" y2="103.514" gradientUnits="userSpaceOnUse">
<stop stop-color="#B6B6B6"/>
<stop offset="1" stop-color="#FAFAFA" stop-opacity="0"/>
</linearGradient>
<linearGradient id="paint13_linear_1854_12295" x1="806.71" y1="278.557" x2="806.71" y2="323.792" gradientUnits="userSpaceOnUse">
<stop stop-color="#EBEBEB"/>
<stop offset="1" stop-color="#E4E4E4" stop-opacity="0.49"/>
</linearGradient>
<linearGradient id="paint14_linear_1854_12295" x1="668.103" y1="301.09" x2="638.793" y2="301.09" gradientUnits="userSpaceOnUse">
<stop stop-color="#B6B6B6"/>
<stop offset="1" stop-color="#FAFAFA" stop-opacity="0"/>
</linearGradient>
<linearGradient id="paint15_linear_1854_12295" x1="806.71" y1="189.557" x2="806.71" y2="234.792" gradientUnits="userSpaceOnUse">
<stop stop-color="#EBEBEB"/>
<stop offset="1" stop-color="#E4E4E4" stop-opacity="0.49"/>
</linearGradient>
<linearGradient id="paint16_linear_1854_12295" x1="668.103" y1="212.09" x2="638.793" y2="212.09" gradientUnits="userSpaceOnUse">
<stop stop-color="#B6B6B6"/>
<stop offset="1" stop-color="#FAFAFA" stop-opacity="0"/>
</linearGradient>
<clipPath id="clip0_1854_12295">
<rect width="18.6877" height="29" fill="white" transform="translate(745 198)"/>
</clipPath>
</defs>
</svg>
