<svg width="749" height="400" viewBox="0 0 749 400" fill="none" xmlns="http://www.w3.org/2000/svg">
<g clip-path="url(#clip0_1861_15812)">
<path d="M0.457031 403.031L379.794 202.08L748.005 403.031H0.457031Z" fill="url(#paint0_linear_1861_15812)"/>
<path d="M725.762 96.8105H575.939C571.191 96.8105 567.343 100.659 567.343 105.407V137.773C567.343 142.52 571.191 146.369 575.939 146.369H725.762C730.509 146.369 734.358 142.52 734.358 137.773V105.407C734.358 100.659 730.509 96.8105 725.762 96.8105Z" fill="#171717"/>
<path d="M725.762 96.8105H575.939C571.191 96.8105 567.343 100.659 567.343 105.407V137.773C567.343 142.52 571.191 146.369 575.939 146.369H725.762C730.509 146.369 734.358 142.52 734.358 137.773V105.407C734.358 100.659 730.509 96.8105 725.762 96.8105Z" stroke="url(#paint1_linear_1861_15812)" stroke-width="1.19202"/>
<path d="M181.932 269.379H27.7049C22.9575 269.379 19.1089 273.227 19.1089 277.975V307.132C19.1089 311.88 22.9575 315.728 27.7049 315.728H181.932C186.68 315.728 190.528 311.88 190.528 307.132V277.975C190.528 273.227 186.68 269.379 181.932 269.379Z" fill="#171717"/>
<path d="M181.932 269.379H27.7049C22.9575 269.379 19.1089 273.227 19.1089 277.975V307.132C19.1089 311.88 22.9575 315.728 27.7049 315.728H181.932C186.68 315.728 190.528 311.88 190.528 307.132V277.975C190.528 273.227 186.68 269.379 181.932 269.379Z" stroke="url(#paint2_linear_1861_15812)" stroke-width="1.19202"/>
<path opacity="0.5" d="M511.919 278.992V123.415L376.508 45.627M511.919 278.992L376.508 356.781L241.098 278.992M511.919 278.992L376.885 204.605M241.098 278.992L236.5 118.501M241.098 278.992L377.431 204.752M377.193 204.977V49.4108M409.419 223.709V72.6056M440.392 239.589V89.7327M475.314 258.827V110.438M343.99 222.963V72.6055M314.174 239.199V89.784M278.095 258.845V110.438M241.622 246.285L376.898 168.184M241.622 209.534L376.898 131.432M241.622 172.782L376.898 94.6813M512.769 246.44L377.494 168.339M512.769 209.689L377.494 131.587M512.769 172.937L377.494 94.8363" stroke="url(#paint3_radial_1861_15812)" stroke-width="0.5"/>
<path d="M358.487 83.4255C359.469 83.4255 360.265 82.6294 360.265 81.6473C360.265 80.6653 359.469 79.8691 358.487 79.8691C357.505 79.8691 356.709 80.6653 356.709 81.6473C356.709 82.6294 357.505 83.4255 358.487 83.4255Z" fill="#707070"/>
<path d="M491.896 206.089C492.988 206.089 493.872 205.209 493.872 204.123C493.872 203.037 492.988 202.156 491.896 202.156C490.805 202.156 489.92 203.037 489.92 204.123C489.92 205.209 490.805 206.089 491.896 206.089Z" fill="#3E3E3E"/>
<path d="M390.402 215.56C391.494 215.56 392.378 214.679 392.378 213.593C392.378 212.507 391.494 211.627 390.402 211.627C389.311 211.627 388.426 212.507 388.426 213.593C388.426 214.679 389.311 215.56 390.402 215.56Z" fill="#3DCB8C"/>
<path d="M309.517 212.391C311.266 212.391 312.683 210.981 312.683 209.242C312.683 207.502 311.266 206.092 309.517 206.092C307.769 206.092 306.352 207.502 306.352 209.242C306.352 210.981 307.769 212.391 309.517 212.391Z" fill="#707070"/>
<path d="M480.003 286.566C481.095 286.566 481.979 285.685 481.979 284.599C481.979 283.513 481.095 282.633 480.003 282.633C478.912 282.633 478.027 283.513 478.027 284.599C478.027 285.685 478.912 286.566 480.003 286.566Z" fill="#3E3E3E"/>
<path d="M490.112 267.254C491.094 267.254 491.89 266.457 491.89 265.475C491.89 264.493 491.094 263.697 490.112 263.697C489.13 263.697 488.334 264.493 488.334 265.475C488.334 266.457 489.13 267.254 490.112 267.254Z" fill="#707070"/>
<path d="M283.754 225.026C285.065 225.026 286.127 223.969 286.127 222.666C286.127 221.362 285.065 220.305 283.754 220.305C282.444 220.305 281.381 221.362 281.381 222.666C281.381 223.969 282.444 225.026 283.754 225.026Z" fill="#3E3E3E"/>
<path d="M291.882 195.457C292.864 195.457 293.66 194.661 293.66 193.679C293.66 192.696 292.864 191.9 291.882 191.9C290.9 191.9 290.104 192.696 290.104 193.679C290.104 194.661 290.9 195.457 291.882 195.457Z" fill="#3E3E3E"/>
<path d="M442.334 307.866C444.082 307.866 445.5 306.456 445.5 304.716C445.5 302.977 444.082 301.566 442.334 301.566C440.586 301.566 439.168 302.977 439.168 304.716C439.168 306.456 440.586 307.866 442.334 307.866Z" fill="#3DCB8C"/>
<path d="M326.77 225.439C327.752 225.439 328.548 224.643 328.548 223.661C328.548 222.679 327.752 221.883 326.77 221.883C325.788 221.883 324.992 222.679 324.992 223.661C324.992 224.643 325.788 225.439 326.77 225.439Z" fill="#3DCB8C"/>
<path d="M343.619 142.976C344.71 142.976 345.595 142.095 345.595 141.009C345.595 139.923 344.71 139.043 343.619 139.043C342.527 139.043 341.643 139.923 341.643 141.009C341.643 142.095 342.527 142.976 343.619 142.976Z" fill="#3E3E3E"/>
<path d="M403.486 90.9033C404.796 90.9033 405.859 89.8463 405.859 88.5424C405.859 87.2386 404.796 86.1816 403.486 86.1816C402.176 86.1816 401.113 87.2386 401.113 88.5424C401.113 89.8463 402.176 90.9033 403.486 90.9033Z" fill="#3E3E3E"/>
<path d="M410.621 144.552C411.493 144.552 412.201 143.848 412.201 142.98C412.201 142.112 411.493 141.408 410.621 141.408C409.748 141.408 409.041 142.112 409.041 142.98C409.041 143.848 409.748 144.552 410.621 144.552Z" fill="#707070"/>
<path d="M255.209 234.493C256.957 234.493 258.375 233.083 258.375 231.343C258.375 229.604 256.957 228.193 255.209 228.193C253.461 228.193 252.043 229.604 252.043 231.343C252.043 233.083 253.461 234.493 255.209 234.493Z" fill="#3E3E3E"/>
<path d="M267.116 276.72C268.098 276.72 268.894 275.924 268.894 274.942C268.894 273.96 268.098 273.164 267.116 273.164C266.134 273.164 265.338 273.96 265.338 274.942C265.338 275.924 266.134 276.72 267.116 276.72Z" fill="#707070"/>
<path d="M400.712 204.809C402.679 204.809 404.274 203.222 404.274 201.265C404.274 199.308 402.679 197.721 400.712 197.721C398.745 197.721 397.15 199.308 397.15 201.265C397.15 203.222 398.745 204.809 400.712 204.809Z" fill="#3DCB8C"/>
<path d="M301.599 315.749C303.785 315.749 305.558 313.985 305.558 311.81C305.558 309.635 303.785 307.871 301.599 307.871C299.413 307.871 297.641 309.635 297.641 311.81C297.641 313.985 299.413 315.749 301.599 315.749Z" fill="#3E3E3E"/>
<path d="M376.527 179.267C377.837 179.267 378.9 178.21 378.9 176.906C378.9 175.602 377.837 174.545 376.527 174.545C375.217 174.545 374.154 175.602 374.154 176.906C374.154 178.21 375.217 179.267 376.527 179.267Z" fill="#3DCB8C"/>
<path d="M357.894 170.329C359.861 170.329 361.456 168.742 361.456 166.785C361.456 164.827 359.861 163.24 357.894 163.24C355.927 163.24 354.332 164.827 354.332 166.785C354.332 168.742 355.927 170.329 357.894 170.329Z" fill="#3DCB8C"/>
<path d="M366.961 247.123C367.834 247.123 368.541 246.42 368.541 245.551C368.541 244.683 367.834 243.979 366.961 243.979C366.089 243.979 365.381 244.683 365.381 245.551C365.381 246.42 366.089 247.123 366.961 247.123Z" fill="#3DCB8C"/>
<path d="M282.962 120.094C285.148 120.094 286.921 118.331 286.921 116.156C286.921 113.98 285.148 112.217 282.962 112.217C280.776 112.217 279.003 113.98 279.003 116.156C279.003 118.331 280.776 120.094 282.962 120.094Z" fill="#3E3E3E"/>
<path d="M350.378 197.354C352.345 197.354 353.94 195.767 353.94 193.81C353.94 191.852 352.345 190.266 350.378 190.266C348.411 190.266 346.816 191.852 346.816 193.81C346.816 195.767 348.411 197.354 350.378 197.354Z" fill="#3DCB8C"/>
<path d="M188.548 293.515C188.548 294.988 189.742 296.182 191.215 296.182C192.688 296.182 193.882 294.988 193.882 293.515C193.882 292.042 192.688 290.848 191.215 290.848C189.742 290.848 188.548 292.042 188.548 293.515ZM191.215 294.015H294.889V293.015H191.215V294.015Z" fill="url(#paint4_linear_1861_15812)"/>
<path d="M569.606 122.04C569.606 123.513 568.412 124.707 566.939 124.707C565.467 124.707 564.273 123.513 564.273 122.04C564.273 120.567 565.467 119.373 566.939 119.373C568.412 119.373 569.606 120.567 569.606 122.04ZM566.939 122.54H463.266V121.54H566.939V122.54Z" fill="url(#paint5_linear_1861_15812)"/>
<path d="M377.738 249.174V300.029L440 212.102L377.738 249.174Z" fill="#282828"/>
<path d="M377.738 96.6094L440 200.222L377.738 237.294L315 200.222" fill="#343434"/>
<path d="M377.738 96.6094V171.704L315 200.222M315 212.104L377.738 249.176V300.031" fill="#1B1B1B"/>
<path d="M377.738 171.703V237.292L440 200.22" fill="#141414"/>
<path d="M315 200.22L377.738 171.703V237.292" fill="#161616"/>
<path fill-rule="evenodd" clip-rule="evenodd" d="M470.604 91.1402C470.798 91.3298 470.801 91.6404 470.611 91.8339L470.266 92.1866C470.076 92.3802 469.765 92.3833 469.572 92.1937C469.378 92.0041 469.375 91.6935 469.565 91.5L469.911 91.1472C470.1 90.9537 470.411 90.9505 470.604 91.1402ZM468.876 92.9039C469.07 93.0935 469.073 93.4041 468.883 93.5977L468.192 94.3032C468.002 94.4967 467.692 94.4999 467.498 94.3103C467.305 94.1206 467.302 93.8101 467.491 93.6165L468.183 92.911C468.372 92.7175 468.683 92.7143 468.876 92.9039ZM466.802 95.0205C466.996 95.2101 466.999 95.5207 466.81 95.7142L466.118 96.4197C465.929 96.6133 465.618 96.6164 465.425 96.4268C465.231 96.2372 465.228 95.9266 465.417 95.7331L466.109 95.0276C466.298 94.834 466.609 94.8309 466.802 95.0205ZM464.729 97.137C464.922 97.3266 464.925 97.6372 464.736 97.8307L464.044 98.5363C463.855 98.7298 463.544 98.7329 463.351 98.5433C463.157 98.3537 463.154 98.0432 463.344 97.8496L464.035 97.1441C464.225 96.9506 464.535 96.9474 464.729 97.137ZM462.655 99.2536C462.848 99.4432 462.852 99.7538 462.662 99.9473L461.971 100.653C461.781 100.846 461.471 100.85 461.277 100.66C461.083 100.47 461.08 100.16 461.27 99.9661L461.961 99.2606C462.151 99.0671 462.461 99.0639 462.655 99.2536ZM460.581 101.37C460.775 101.56 460.778 101.87 460.588 102.064L459.897 102.769C459.707 102.963 459.397 102.966 459.203 102.776C459.01 102.587 459.007 102.276 459.196 102.083L459.887 101.377C460.077 101.184 460.388 101.181 460.581 101.37ZM431.548 131.002C431.742 131.191 431.745 131.502 431.555 131.695L430.864 132.401C430.675 132.594 430.364 132.598 430.17 132.408C429.977 132.218 429.974 131.908 430.163 131.714L430.855 131.009C431.044 130.815 431.355 130.812 431.548 131.002ZM429.475 133.118C429.668 133.308 429.671 133.618 429.482 133.812L428.79 134.517C428.601 134.711 428.29 134.714 428.097 134.524C427.903 134.335 427.9 134.024 428.09 133.831L428.781 133.125C428.97 132.932 429.281 132.929 429.475 133.118ZM427.401 135.235C427.594 135.424 427.598 135.735 427.408 135.928L426.717 136.634C426.527 136.828 426.216 136.831 426.023 136.641C425.829 136.451 425.826 136.141 426.016 135.947L426.707 135.242C426.897 135.048 427.207 135.045 427.401 135.235ZM425.327 137.351C425.521 137.541 425.524 137.851 425.334 138.045L424.643 138.751C424.453 138.944 424.143 138.947 423.949 138.758C423.756 138.568 423.752 138.257 423.942 138.064L424.633 137.358C424.823 137.165 425.134 137.162 425.327 137.351ZM423.253 139.468C423.447 139.657 423.45 139.968 423.26 140.162L422.569 140.867C422.38 141.061 422.069 141.064 421.875 140.874C421.682 140.685 421.679 140.374 421.868 140.18L422.56 139.475C422.749 139.281 423.06 139.278 423.253 139.468ZM421.18 141.584C421.373 141.774 421.376 142.085 421.187 142.278L420.841 142.631C420.651 142.824 420.341 142.827 420.147 142.638C419.954 142.448 419.951 142.138 420.14 141.944L420.486 141.592C420.675 141.398 420.986 141.395 421.18 141.584Z" fill="url(#paint6_linear_1861_15812)"/>
<path fill-rule="evenodd" clip-rule="evenodd" d="M452.313 101.303H438.706C433.372 101.303 429.812 105.121 429.812 110.59V123.412C429.812 128.885 433.363 132.699 438.706 132.699H452.312C457.656 132.699 461.208 128.885 461.208 123.412V110.59C461.208 105.117 457.657 101.303 452.313 101.303ZM438.706 103.657H452.313C456.317 103.657 458.854 106.381 458.854 110.59V123.412C458.854 127.621 456.318 130.344 452.312 130.344H438.706C434.702 130.344 432.167 127.621 432.167 123.412V110.59C432.167 106.386 434.711 103.657 438.706 103.657Z" fill="url(#paint7_linear_1861_15812)"/>
<path d="M448.476 110.721H451.372V119.618C451.372 120.617 451.134 121.491 450.657 122.24C450.184 122.989 449.522 123.574 448.67 123.993C447.818 124.408 446.826 124.615 445.693 124.615C444.556 124.615 443.561 124.408 442.709 123.993C441.858 123.574 441.195 122.989 440.723 122.24C440.25 121.491 440.014 120.617 440.014 119.618V110.721H442.91V119.37C442.91 119.892 443.024 120.356 443.251 120.762C443.483 121.168 443.809 121.486 444.228 121.718C444.647 121.95 445.136 122.066 445.693 122.066C446.255 122.066 446.743 121.95 447.158 121.718C447.577 121.486 447.901 121.168 448.128 120.762C448.36 120.356 448.476 119.892 448.476 119.37V110.721Z" fill="url(#paint8_linear_1861_15812)"/>
<path d="M498.242 346.049V336.082H499.664L504.176 343.164H504.203V336.082H505.714V346.049H504.285L499.78 338.967H499.753V346.049H498.242Z" fill="#A4A4A4"/>
<path d="M494.493 346.049V336.082H496.003V346.049H494.493Z" fill="#A4A4A4"/>
<path d="M487.572 342.48H490.484L489.042 338.126H489.015L487.572 342.48ZM491.688 346.049L490.915 343.82H487.135L486.369 346.049H484.77L488.393 336.082H489.657L493.28 346.049H491.688Z" fill="#A4A4A4"/>
<path d="M482.045 346.049V341.694H478.101V346.049H476.59V336.082H478.101V340.354H482.045V336.082H483.556V346.049H482.045Z" fill="#A4A4A4"/>
<path d="M473.776 343.26H475.375C475.157 344.185 474.74 344.896 474.124 345.393C473.491 345.885 472.741 346.131 471.875 346.131C471.092 346.113 470.438 345.921 469.914 345.557C469.38 345.206 468.993 344.8 468.751 344.34C468.679 344.189 468.612 344.046 468.553 343.909C468.499 343.768 468.453 343.59 468.416 343.376C468.348 342.975 468.314 342.205 468.314 341.065C468.314 339.908 468.348 339.133 468.416 338.741C468.489 338.349 468.601 338.033 468.751 337.791C468.993 337.331 469.38 336.921 469.914 336.561C470.438 336.196 471.092 336.009 471.875 336C472.837 336.009 473.621 336.294 474.227 336.854C474.833 337.42 475.216 338.119 475.375 338.953H473.776C473.653 338.552 473.43 338.21 473.106 337.928C472.769 337.659 472.359 337.52 471.875 337.511C471.52 337.52 471.215 337.59 470.959 337.723C470.7 337.859 470.49 338.03 470.331 338.235C470.135 338.45 470.005 338.725 469.941 339.062C469.868 339.418 469.832 340.086 469.832 341.065C469.832 342.045 469.868 342.708 469.941 343.055C470.005 343.401 470.135 343.681 470.331 343.896C470.49 344.101 470.7 344.267 470.959 344.395C471.215 344.545 471.52 344.62 471.875 344.62C472.723 344.62 473.357 344.167 473.776 343.26Z" fill="#A4A4A4"/>
<path d="M459.75 346.049V341.947L456.749 336.082H458.348L460.46 340.505L462.573 336.082H464.172L461.171 341.947V346.049H459.75Z" fill="#A4A4A4"/>
<path d="M452.562 346.049V337.429H449.834V336.082H456.807V337.429H454.08V346.049H452.562Z" fill="#A4A4A4"/>
<path d="M447.124 346.049V336.082H448.635V346.049H447.124Z" fill="#A4A4A4"/>
<path d="M439.191 346.049V336.082H440.702V344.62H445.555V346.049H439.191Z" fill="#A4A4A4"/>
<path d="M435.441 346.049V336.082H436.952V346.049H435.441Z" fill="#A4A4A4"/>
<path d="M429.991 346.049V337.429H427.264V336.082H434.236V337.429H431.509V346.049H429.991Z" fill="#A4A4A4"/>
<path d="M419.159 342.672V336.082H420.669V342.508C420.679 343.187 420.875 343.704 421.257 344.06C421.631 344.433 422.112 344.62 422.7 344.62C423.288 344.62 423.773 344.433 424.156 344.06C424.529 343.704 424.721 343.187 424.73 342.508V336.082H426.241V342.672C426.222 343.72 425.883 344.552 425.222 345.167C424.557 345.8 423.716 346.122 422.7 346.131C421.702 346.122 420.868 345.8 420.198 345.167C419.514 344.552 419.168 343.72 419.159 342.672Z" fill="#A4A4A4"/>
<path d="M407.784 343.629C408.577 344.281 409.521 344.611 410.614 344.62C411.909 344.602 412.565 344.139 412.583 343.232C412.592 342.49 412.159 342.043 411.284 341.893C410.883 341.838 410.443 341.776 409.965 341.708C409.108 341.567 408.456 341.25 408.01 340.758C407.549 340.252 407.319 339.637 407.319 338.912C407.319 338.042 407.609 337.34 408.188 336.807C408.748 336.278 409.543 336.009 410.573 336C411.813 336.027 412.891 336.371 413.807 337.032L412.966 338.276C412.218 337.784 411.396 337.529 410.498 337.511C410.033 337.511 409.646 337.627 409.336 337.859C409.012 338.101 408.846 338.461 408.837 338.939C408.837 339.227 408.949 339.486 409.172 339.719C409.395 339.956 409.753 340.12 410.245 340.211C410.519 340.257 410.892 340.309 411.366 340.368C412.3 340.496 412.991 340.831 413.438 341.373C413.88 341.906 414.101 342.526 414.101 343.232C414.05 345.137 412.884 346.104 410.601 346.131C409.124 346.131 407.855 345.675 406.793 344.764L407.784 343.629Z" fill="#A4A4A4"/>
<path d="M402.209 346.049V337.429H399.482V336.082H406.455V337.429H403.727V346.049H402.209Z" fill="#A4A4A4"/>
<path d="M392.588 346.049V336.082H398.952V337.511H394.099V340.354H398.241V341.694H394.099V344.62H398.952V346.049H392.588Z" fill="#A4A4A4"/>
<path d="M385.885 343.95C386.027 344.137 386.209 344.29 386.432 344.408C386.655 344.549 386.917 344.62 387.218 344.62C387.619 344.629 388.002 344.49 388.367 344.203C388.544 344.062 388.683 343.875 388.784 343.643C388.889 343.419 388.941 343.139 388.941 342.802V336.082H390.452V342.952C390.433 343.955 390.105 344.729 389.467 345.276C388.834 345.837 388.098 346.122 387.259 346.131C386.102 346.104 385.238 345.671 384.668 344.832L385.885 343.95Z" fill="#A4A4A4"/>
<path d="M381.958 346.049V336.082H383.469V346.049H381.958Z" fill="#A4A4A4"/>
<path d="M373 346.049V336.082H376.486C377.835 336.091 378.847 336.652 379.521 337.764C379.763 338.137 379.916 338.529 379.979 338.939C380.03 339.35 380.055 340.058 380.055 341.065C380.055 342.136 380.016 342.884 379.938 343.308C379.902 343.522 379.847 343.713 379.774 343.882C379.697 344.046 379.604 344.217 379.494 344.395C379.202 344.864 378.797 345.251 378.277 345.557C377.762 345.885 377.131 346.049 376.384 346.049H373ZM374.511 337.511V344.62H376.315C377.163 344.62 377.778 344.331 378.161 343.752C378.33 343.538 378.437 343.267 378.482 342.938C378.523 342.615 378.544 342.009 378.544 341.12C378.544 340.254 378.523 339.634 378.482 339.261C378.428 338.887 378.298 338.584 378.093 338.352C377.674 337.773 377.081 337.493 376.315 337.511H374.511Z" fill="#A4A4A4"/>
<path d="M358.039 346.049V336.082H364.403V337.511H359.549V340.354H363.692V341.694H359.549V344.62H364.403V346.049H358.039Z" fill="#A4A4A4"/>
<path d="M350.105 346.049V336.082H351.616V344.62H356.469V346.049H350.105Z" fill="#A4A4A4"/>
<path d="M341.421 346.049V336.082H345.283C346.263 336.091 346.999 336.337 347.491 336.82C347.988 337.308 348.236 337.953 348.236 338.755C348.245 339.165 348.147 339.557 347.942 339.931C347.838 340.108 347.687 340.277 347.491 340.437C347.295 340.605 347.054 340.758 346.767 340.895V340.922C347.309 341.063 347.719 341.348 347.997 341.776C348.257 342.218 348.387 342.699 348.387 343.219C348.378 344.08 348.109 344.761 347.58 345.263C347.056 345.787 346.402 346.049 345.618 346.049H341.421ZM345.256 341.626H342.932V344.62H345.256C345.816 344.611 346.227 344.458 346.486 344.162C346.746 343.87 346.876 343.524 346.876 343.123C346.876 342.713 346.746 342.362 346.486 342.07C346.227 341.783 345.816 341.635 345.256 341.626ZM345.112 337.429H342.932V340.279H345.112C345.664 340.279 346.069 340.136 346.329 339.849C346.593 339.584 346.726 339.252 346.726 338.851C346.726 338.45 346.593 338.11 346.329 337.832C346.069 337.572 345.664 337.438 345.112 337.429Z" fill="#A4A4A4"/>
<path d="M337.671 346.049V336.082H339.182V346.049H337.671Z" fill="#A4A4A4"/>
<path d="M332.22 346.049V337.429H329.492V336.082H336.465V337.429H333.737V346.049H332.22Z" fill="#A4A4A4"/>
<path d="M324.65 342.48H327.563L326.12 338.126H326.093L324.65 342.48ZM328.766 346.049L327.993 343.82H324.213L323.447 346.049H321.848L325.471 336.082H326.735L330.358 346.049H328.766Z" fill="#A4A4A4"/>
<path d="M316.997 337.511V340.73H319.232C319.792 340.721 320.214 340.548 320.497 340.211C320.765 339.883 320.9 339.518 320.9 339.117C320.9 338.785 320.845 338.504 320.736 338.276C320.622 338.071 320.462 337.91 320.257 337.791C319.947 337.595 319.587 337.502 319.177 337.511H316.997ZM315.486 346.049V336.082H319.095C319.487 336.082 319.865 336.118 320.23 336.191C320.595 336.287 320.964 336.483 321.337 336.779C321.652 337.003 321.907 337.322 322.103 337.736C322.308 338.137 322.411 338.611 322.411 339.158C322.411 339.896 322.151 340.569 321.631 341.175C321.098 341.813 320.319 342.141 319.293 342.159H316.997V346.049H315.486Z" fill="#A4A4A4"/>
<path d="M304.736 346.049V336.082H306.158L309.016 342.576L311.818 336.082H313.247V346.049H311.736V339.835H311.702L309.617 344.62H308.359L306.274 339.835H306.247V346.049H304.736Z" fill="#A4A4A4"/>
<path d="M295.71 341.065C295.71 339.908 295.744 339.133 295.812 338.741C295.885 338.349 295.997 338.033 296.147 337.791C296.389 337.331 296.776 336.921 297.31 336.561C297.834 336.196 298.488 336.009 299.271 336C300.064 336.009 300.725 336.196 301.254 336.561C301.778 336.921 302.156 337.331 302.389 337.791C302.557 338.033 302.674 338.349 302.737 338.741C302.797 339.133 302.826 339.908 302.826 341.065C302.826 342.205 302.797 342.975 302.737 343.376C302.674 343.777 302.557 344.098 302.389 344.34C302.156 344.8 301.778 345.206 301.254 345.557C300.725 345.921 300.064 346.113 299.271 346.131C298.488 346.113 297.834 345.921 297.31 345.557C296.776 345.206 296.389 344.8 296.147 344.34C296.075 344.189 296.008 344.046 295.949 343.909C295.895 343.768 295.849 343.59 295.812 343.376C295.744 342.975 295.71 342.205 295.71 341.065ZM297.228 341.065C297.228 342.045 297.264 342.708 297.337 343.055C297.401 343.401 297.531 343.681 297.727 343.896C297.886 344.101 298.096 344.267 298.355 344.395C298.611 344.545 298.916 344.62 299.271 344.62C299.632 344.62 299.944 344.545 300.208 344.395C300.459 344.267 300.659 344.101 300.81 343.896C301.006 343.681 301.14 343.401 301.213 343.055C301.281 342.708 301.315 342.045 301.315 341.065C301.315 340.086 301.281 339.418 301.213 339.062C301.14 338.725 301.006 338.45 300.81 338.235C300.659 338.03 300.459 337.859 300.208 337.723C299.944 337.59 299.632 337.52 299.271 337.511C298.916 337.52 298.611 337.59 298.355 337.723C298.096 337.859 297.886 338.03 297.727 338.235C297.531 338.45 297.401 338.725 297.337 339.062C297.264 339.418 297.228 340.086 297.228 341.065Z" fill="#A4A4A4"/>
<path d="M293.239 343.26H294.838C294.62 344.185 294.203 344.896 293.587 345.393C292.954 345.885 292.204 346.131 291.338 346.131C290.555 346.113 289.901 345.921 289.376 345.557C288.843 345.206 288.456 344.8 288.214 344.34C288.141 344.189 288.075 344.046 288.016 343.909C287.961 343.768 287.916 343.59 287.879 343.376C287.811 342.975 287.777 342.205 287.777 341.065C287.777 339.908 287.811 339.133 287.879 338.741C287.952 338.349 288.064 338.033 288.214 337.791C288.456 337.331 288.843 336.921 289.376 336.561C289.901 336.196 290.555 336.009 291.338 336C292.3 336.009 293.084 336.294 293.69 336.854C294.296 337.42 294.679 338.119 294.838 338.953H293.239C293.116 338.552 292.892 338.21 292.569 337.928C292.232 337.659 291.821 337.52 291.338 337.511C290.983 337.52 290.678 337.59 290.422 337.723C290.163 337.859 289.953 338.03 289.793 338.235C289.597 338.45 289.468 338.725 289.404 339.062C289.331 339.418 289.294 340.086 289.294 341.065C289.294 342.045 289.331 342.708 289.404 343.055C289.468 343.401 289.597 343.681 289.793 343.896C289.953 344.101 290.163 344.267 290.422 344.395C290.678 344.545 290.983 344.62 291.338 344.62C292.186 344.62 292.819 344.167 293.239 343.26Z" fill="#A4A4A4"/>
<path d="M273.866 346.049V336.082H275.288L278.145 342.576L280.948 336.082H282.377V346.049H280.866V339.835H280.832L278.747 344.62H277.489L275.404 339.835H275.377V346.049H273.866Z" fill="#A4A4A4"/>
<path d="M268.183 346.049L264.895 336.082H266.495L268.757 343.67H268.785L271.054 336.082H272.654L269.359 346.049H268.183Z" fill="#A4A4A4"/>
<path d="M258 346.049V336.082H264.364V337.511H259.511V340.354H263.653V341.694H259.511V344.62H264.364V346.049H258Z" fill="#A4A4A4"/>
<path d="M180.932 172.561H40.8948C36.1473 172.561 32.2988 176.409 32.2988 181.157V216.834C32.2988 221.581 36.1473 225.43 40.8948 225.43H180.932C185.679 225.43 189.528 221.581 189.528 216.834V181.157C189.528 176.409 185.679 172.561 180.932 172.561Z" fill="#171717"/>
<path d="M180.932 172.561H40.8948C36.1473 172.561 32.2988 176.409 32.2988 181.157V216.834C32.2988 221.581 36.1473 225.43 40.8948 225.43H180.932C185.679 225.43 189.528 221.581 189.528 216.834V181.157C189.528 176.409 185.679 172.561 180.932 172.561Z" stroke="url(#paint9_linear_1861_15812)" stroke-width="1.19202"/>
<path d="M187.548 200.515C187.548 201.988 188.742 203.182 190.215 203.182C191.688 203.182 192.882 201.988 192.882 200.515C192.882 199.042 191.688 197.848 190.215 197.848C188.742 197.848 187.548 199.042 187.548 200.515ZM190.215 201.015H293.889V200.015H190.215V201.015Z" fill="url(#paint10_linear_1861_15812)"/>
<mask id="mask0_1861_15812" style="mask-type:luminance" maskUnits="userSpaceOnUse" x="42" y="183" width="31" height="32">
<path d="M72.0248 183.221H42.002V214.708H72.0248V183.221Z" fill="white"/>
</mask>
<g mask="url(#mask0_1861_15812)">
<path d="M72.0248 206.705C72.0248 206.968 72.0248 207.23 71.8884 207.492C71.6155 207.886 71.2061 208.148 70.7966 208.148C70.7966 208.148 70.7967 208.148 70.6602 208.148L57.6958 214.577C57.4228 214.708 57.2864 214.708 57.0134 214.708C56.8769 214.708 56.8769 214.708 56.7405 214.708C56.7405 214.708 56.7405 214.708 56.604 214.708C56.4675 214.708 56.3311 214.708 56.1946 214.577L43.3667 208.148H43.2302C42.8208 208.148 42.4114 207.886 42.1385 207.492C42.002 207.23 42.002 206.968 42.002 206.836V206.705V191.355V191.224V191.093C42.002 190.83 42.002 190.699 42.1385 190.437C42.2749 190.305 42.4114 190.043 42.6843 190.043C42.8208 190.043 42.8208 189.912 42.9573 189.912H43.0937H43.3667L56.3311 183.483C56.4675 183.221 56.7405 183.221 56.8769 183.221H57.0134C57.0134 183.221 57.0134 183.221 57.1499 183.221C57.4228 183.221 57.5593 183.221 57.8323 183.352L70.7966 189.781C71.0696 189.781 71.2061 189.912 71.479 190.043H71.6155L71.752 190.174L71.8884 190.305C72.0248 190.437 72.0248 190.568 72.0248 190.699V191.093V206.443V206.705ZM44.7313 204.475L46.9148 203.163C47.4607 202.769 48.2795 203.032 48.6889 203.688C49.0983 204.344 48.8254 205.131 48.2795 205.524L46.096 206.836L55.6488 211.559V200.276L53.4652 201.588C52.9194 201.982 52.1006 201.72 51.6912 201.064C51.2818 200.408 51.5548 199.62 52.1006 199.227L54.2841 197.915L44.7313 193.192V204.475ZM58.3781 186.501V188.469C58.3781 189.256 57.8323 189.781 57.0134 189.781C56.1946 189.781 55.6488 189.256 55.6488 188.469V186.501L46.3689 191.093L55.6488 195.684V193.717C55.6488 192.929 56.1946 192.405 57.0134 192.405C57.8323 192.405 58.3781 192.929 58.3781 193.717V195.684L67.6579 191.093L58.3781 186.501ZM69.2955 193.061L59.7428 197.784L61.9263 199.096C62.4721 199.489 62.7451 200.276 62.3357 200.932C61.9263 201.588 61.244 201.72 60.5616 201.457L58.3781 200.145V211.559L67.9309 206.836L65.7474 205.524C65.2015 205 64.9286 204.212 65.338 203.556C65.7474 202.9 66.4297 202.769 67.112 203.032L69.2955 204.344V193.061Z" fill="#6166DC"/>
</g>
<path d="M89.1002 207H86.7002V192.82H95.5202V195.08H89.1002V199.06H94.8602V201.28H89.1002V207ZM101.449 205.22C102.209 205.22 102.849 204.96 103.369 204.4C103.889 203.86 104.169 203.1 104.169 202.12C104.169 201.16 103.889 200.42 103.369 199.88C102.849 199.34 102.209 199.06 101.449 199.06C100.689 199.06 100.029 199.34 99.5092 199.88C98.9892 200.42 98.7292 201.16 98.7292 202.12C98.7292 203.08 98.9892 203.84 99.5092 204.4C100.029 204.96 100.689 205.22 101.449 205.22ZM101.449 196.96C102.909 196.96 104.109 197.46 105.069 198.42C106.029 199.4 106.509 200.64 106.509 202.12C106.509 203.62 106.029 204.86 105.069 205.84C104.109 206.82 102.909 207.3 101.449 207.3C99.9892 207.3 98.7892 206.82 97.8292 205.84C96.8692 204.86 96.4092 203.62 96.4092 202.12C96.4092 200.64 96.8692 199.4 97.8292 198.42C98.7892 197.46 99.9892 196.96 101.449 196.96ZM115.232 205.92C114.992 206.36 114.632 206.68 114.112 206.92C113.592 207.16 113.052 207.28 112.472 207.28C111.332 207.28 110.432 206.92 109.772 206.18C109.112 205.46 108.792 204.52 108.792 203.4V197.26H111.112V202.98C111.112 203.64 111.272 204.18 111.592 204.58C111.912 205 112.392 205.2 113.072 205.2C113.712 205.2 114.212 205 114.572 204.6C114.932 204.2 115.112 203.68 115.112 203.02V197.26H117.432V205.22C117.432 205.82 117.452 206.4 117.532 207H115.312C115.252 206.72 115.232 206.36 115.232 205.92ZM122.955 201.38V207H120.635V197.26H122.895V198.56C123.195 198.04 123.595 197.64 124.115 197.38C124.635 197.12 125.175 196.98 125.775 196.98C126.915 196.98 127.795 197.34 128.395 198.06C128.995 198.78 129.295 199.72 129.295 200.84V207H126.975V201.24C126.975 200.6 126.815 200.08 126.495 199.68C126.175 199.28 125.655 199.08 124.975 199.08C124.335 199.08 123.835 199.3 123.475 199.74C123.115 200.18 122.955 200.72 122.955 201.38ZM133.88 202.1C133.88 203.04 134.12 203.8 134.6 204.36C135.08 204.92 135.7 205.2 136.5 205.2C137.26 205.2 137.88 204.92 138.36 204.34C138.84 203.78 139.08 203.02 139.08 202.08C139.08 201.16 138.84 200.44 138.38 199.88C137.9 199.34 137.28 199.06 136.52 199.06C135.74 199.06 135.1 199.34 134.62 199.9C134.12 200.46 133.88 201.18 133.88 202.1ZM141.32 192.52V205.22C141.32 205.88 141.34 206.48 141.42 207H139.2C139.12 206.64 139.1 206.22 139.1 205.74C138.86 206.18 138.48 206.54 137.98 206.82C137.46 207.1 136.88 207.24 136.24 207.24C134.84 207.24 133.72 206.76 132.86 205.78C131.98 204.82 131.56 203.58 131.56 202.1C131.56 200.68 131.98 199.48 132.86 198.48C133.74 197.5 134.84 197 136.2 197C136.96 197 137.58 197.14 138.06 197.42C138.54 197.7 138.86 198.04 139.06 198.4V192.52H141.32ZM150.251 197.2V199.56C149.971 199.52 149.731 199.5 149.491 199.5C147.731 199.5 146.871 200.46 146.871 202.36V207H144.551V197.26H146.811V198.82C147.031 198.3 147.391 197.9 147.911 197.6C148.411 197.3 148.991 197.14 149.631 197.14C149.831 197.14 150.051 197.16 150.251 197.2ZM155.699 210.94H153.219L155.559 205.84L151.399 197.26H154.019L156.819 203.42L159.439 197.26H161.899L155.699 210.94Z" fill="white"/>
<path d="M637.3 130H634.92V119.56L630.5 130H628.42L624.04 119.6V130H621.7V115.82H624.9L629.5 126.64L634.04 115.82H637.3V130ZM642.285 124.06H647.065C647.025 123.46 646.805 122.94 646.405 122.52C646.005 122.12 645.425 121.9 644.665 121.9C643.965 121.9 643.405 122.12 642.985 122.56C642.545 123 642.325 123.5 642.285 124.06ZM647.325 126.6L649.285 127.22C649.005 128.12 648.465 128.86 647.705 129.44C646.945 130.02 646.005 130.3 644.885 130.3C643.485 130.3 642.305 129.84 641.345 128.88C640.385 127.94 639.905 126.68 639.905 125.08C639.905 123.6 640.365 122.36 641.305 121.4C642.245 120.44 643.365 119.96 644.645 119.96C646.125 119.96 647.305 120.42 648.145 121.34C648.985 122.26 649.405 123.48 649.405 125.02C649.405 125.44 649.385 125.68 649.345 125.76H642.225C642.245 126.5 642.505 127.1 643.025 127.58C643.545 128.06 644.165 128.3 644.885 128.3C646.125 128.3 646.945 127.74 647.325 126.6ZM654.762 117.28V120.26H656.782V122.32H654.762V126.84C654.762 127.28 654.862 127.58 655.062 127.78C655.262 127.98 655.562 128.06 656.002 128.06C656.262 128.06 656.522 128.04 656.802 127.98V129.9C656.442 130.06 655.982 130.12 655.382 130.12C654.462 130.12 653.762 129.88 653.242 129.36C652.722 128.84 652.462 128.14 652.462 127.22V122.32H650.662V120.26H651.162C651.642 120.26 652.022 120.12 652.282 119.84C652.522 119.56 652.662 119.2 652.662 118.74V117.28H654.762ZM658.785 127.36C658.785 126.54 659.045 125.88 659.585 125.38C660.125 124.88 660.845 124.56 661.725 124.42L664.225 124.04C664.705 123.98 664.945 123.74 664.945 123.34C664.945 122.9 664.785 122.56 664.485 122.28C664.165 122 663.705 121.86 663.105 121.86C662.505 121.86 662.045 122.04 661.705 122.36C661.345 122.68 661.145 123.1 661.105 123.62L658.985 123.14C659.065 122.26 659.485 121.52 660.245 120.9C660.985 120.28 661.925 119.96 663.085 119.96C664.485 119.96 665.525 120.3 666.205 120.98C666.885 121.66 667.225 122.54 667.225 123.6V128.44C667.225 129.08 667.265 129.6 667.345 130H665.185C665.105 129.8 665.085 129.4 665.085 128.76C664.445 129.8 663.445 130.3 662.085 130.3C661.085 130.3 660.285 130.02 659.685 129.44C659.085 128.86 658.785 128.16 658.785 127.36ZM662.525 128.48C663.245 128.48 663.825 128.3 664.265 127.9C664.705 127.5 664.945 126.86 664.945 125.96V125.52L662.405 125.9C661.525 126.06 661.105 126.5 661.105 127.22C661.105 127.58 661.225 127.88 661.485 128.12C661.725 128.36 662.085 128.48 662.525 128.48ZM672.53 130H670.23V120.26H672.45V121.5C672.71 121.02 673.11 120.66 673.65 120.38C674.19 120.12 674.75 119.98 675.33 119.98C675.97 119.98 676.57 120.14 677.09 120.42C677.61 120.72 677.99 121.14 678.25 121.7C678.93 120.56 679.97 119.98 681.41 119.98C682.37 119.98 683.17 120.3 683.85 120.92C684.51 121.56 684.85 122.48 684.85 123.68V130H682.61V124.06C682.61 123.46 682.45 122.98 682.13 122.62C681.81 122.26 681.35 122.06 680.73 122.06C680.13 122.06 679.63 122.28 679.27 122.68C678.89 123.1 678.71 123.62 678.71 124.22V130H676.43V124.06C676.43 123.46 676.27 122.98 675.95 122.62C675.63 122.26 675.17 122.06 674.55 122.06C673.93 122.06 673.43 122.28 673.07 122.68C672.71 123.08 672.53 123.6 672.53 124.22V130ZM687.291 127.36C687.291 126.54 687.551 125.88 688.091 125.38C688.631 124.88 689.351 124.56 690.231 124.42L692.731 124.04C693.211 123.98 693.451 123.74 693.451 123.34C693.451 122.9 693.291 122.56 692.991 122.28C692.671 122 692.211 121.86 691.611 121.86C691.011 121.86 690.551 122.04 690.211 122.36C689.851 122.68 689.651 123.1 689.611 123.62L687.491 123.14C687.571 122.26 687.991 121.52 688.751 120.9C689.491 120.28 690.431 119.96 691.591 119.96C692.991 119.96 694.031 120.3 694.711 120.98C695.391 121.66 695.731 122.54 695.731 123.6V128.44C695.731 129.08 695.771 129.6 695.851 130H693.691C693.611 129.8 693.591 129.4 693.591 128.76C692.951 129.8 691.951 130.3 690.591 130.3C689.591 130.3 688.791 130.02 688.191 129.44C687.591 128.86 687.291 128.16 687.291 127.36ZM691.031 128.48C691.751 128.48 692.331 128.3 692.771 127.9C693.211 127.5 693.451 126.86 693.451 125.96V125.52L690.911 125.9C690.031 126.06 689.611 126.5 689.611 127.22C689.611 127.58 689.731 127.88 689.991 128.12C690.231 128.36 690.591 128.48 691.031 128.48ZM697.875 127.36L699.895 126.8C699.935 127.28 700.115 127.66 700.475 127.98C700.815 128.3 701.275 128.46 701.875 128.46C702.315 128.46 702.675 128.36 702.935 128.14C703.195 127.94 703.335 127.66 703.335 127.34C703.335 126.78 702.955 126.42 702.195 126.26L700.755 125.94C699.915 125.76 699.255 125.42 698.815 124.9C698.355 124.4 698.135 123.8 698.135 123.1C698.135 122.26 698.475 121.52 699.175 120.9C699.855 120.28 700.715 119.96 701.715 119.96C702.355 119.96 702.915 120.06 703.415 120.24C703.895 120.44 704.275 120.68 704.555 120.98C704.835 121.28 705.035 121.56 705.195 121.84C705.335 122.12 705.435 122.4 705.475 122.68L703.515 123.24C703.455 122.88 703.275 122.54 702.995 122.24C702.715 121.94 702.275 121.78 701.715 121.78C701.315 121.78 700.975 121.9 700.715 122.12C700.435 122.34 700.315 122.6 700.315 122.9C700.315 123.46 700.635 123.8 701.295 123.92L702.775 124.22C703.675 124.42 704.375 124.78 704.855 125.3C705.335 125.82 705.575 126.46 705.575 127.18C705.575 128 705.235 128.72 704.595 129.36C703.955 130 703.055 130.3 701.895 130.3C701.215 130.3 700.615 130.2 700.095 130C699.575 129.8 699.155 129.56 698.855 129.24C698.555 128.92 698.315 128.62 698.155 128.3C697.995 127.98 697.895 127.68 697.875 127.36ZM717.196 120.26L713.196 124.38L717.276 130H714.436L711.576 126.02L710.376 127.28V130H708.076V115.52H710.376V124.2L714.116 120.26H717.196Z" fill="white"/>
<path d="M90.0202 290.14L87.8602 290.82C87.7602 290.28 87.4802 289.78 87.0402 289.32C86.5802 288.88 85.9202 288.64 85.0802 288.64C84.3602 288.64 83.7802 288.84 83.3202 289.24C82.8602 289.64 82.6402 290.12 82.6402 290.68C82.6402 291.66 83.1802 292.26 84.3002 292.5L86.3402 292.92C87.5602 293.16 88.5002 293.66 89.1802 294.38C89.8402 295.12 90.1802 296 90.1802 297C90.1802 298.18 89.7202 299.2 88.8202 300.04C87.9202 300.88 86.7002 301.3 85.1602 301.3C83.4802 301.3 82.1802 300.88 81.2602 300C80.3202 299.12 79.8002 298.1 79.6802 296.94L81.9202 296.3C82.0002 297.1 82.3202 297.78 82.8802 298.32C83.4402 298.88 84.2002 299.14 85.1602 299.14C85.9802 299.14 86.6202 298.96 87.0602 298.6C87.5002 298.24 87.7402 297.76 87.7402 297.18C87.7402 296.72 87.5602 296.32 87.2402 295.98C86.9002 295.64 86.4402 295.4 85.8402 295.26L83.8402 294.84C82.7202 294.62 81.8402 294.16 81.2002 293.46C80.5602 292.78 80.2402 291.9 80.2402 290.86C80.2402 289.68 80.7002 288.66 81.6602 287.8C82.6002 286.96 83.7402 286.52 85.0602 286.52C86.5602 286.52 87.7202 286.9 88.5202 287.62C89.3202 288.34 89.8202 289.18 90.0202 290.14ZM96.8162 299.22C97.5762 299.22 98.2162 298.96 98.7362 298.4C99.2562 297.86 99.5362 297.1 99.5362 296.12C99.5362 295.16 99.2562 294.42 98.7362 293.88C98.2162 293.34 97.5762 293.06 96.8162 293.06C96.0562 293.06 95.3962 293.34 94.8762 293.88C94.3562 294.42 94.0962 295.16 94.0962 296.12C94.0962 297.08 94.3562 297.84 94.8762 298.4C95.3962 298.96 96.0562 299.22 96.8162 299.22ZM96.8162 290.96C98.2762 290.96 99.4762 291.46 100.436 292.42C101.396 293.4 101.876 294.64 101.876 296.12C101.876 297.62 101.396 298.86 100.436 299.84C99.4762 300.82 98.2762 301.3 96.8162 301.3C95.3562 301.3 94.1562 300.82 93.1962 299.84C92.2362 298.86 91.7762 297.62 91.7762 296.12C91.7762 294.64 92.2362 293.4 93.1962 292.42C94.1562 291.46 95.3562 290.96 96.8162 290.96ZM110.599 299.92C110.359 300.36 109.999 300.68 109.479 300.92C108.959 301.16 108.419 301.28 107.839 301.28C106.699 301.28 105.799 300.92 105.139 300.18C104.479 299.46 104.159 298.52 104.159 297.4V291.26H106.479V296.98C106.479 297.64 106.639 298.18 106.959 298.58C107.279 299 107.759 299.2 108.439 299.2C109.079 299.2 109.579 299 109.939 298.6C110.299 298.2 110.479 297.68 110.479 297.02V291.26H112.799V299.22C112.799 299.82 112.819 300.4 112.899 301H110.679C110.619 300.72 110.599 300.36 110.599 299.92ZM121.702 291.2V293.56C121.422 293.52 121.182 293.5 120.942 293.5C119.182 293.5 118.322 294.46 118.322 296.36V301H116.002V291.26H118.262V292.82C118.482 292.3 118.842 291.9 119.362 291.6C119.862 291.3 120.442 291.14 121.082 291.14C121.282 291.14 121.502 291.16 121.702 291.2ZM127.981 293.1C127.221 293.1 126.601 293.38 126.081 293.92C125.561 294.46 125.301 295.2 125.301 296.12C125.301 297.08 125.561 297.82 126.081 298.36C126.601 298.92 127.261 299.18 128.021 299.18C128.701 299.18 129.241 299 129.641 298.64C130.041 298.28 130.321 297.86 130.461 297.38L132.501 298.12C132.221 299 131.701 299.74 130.941 300.36C130.181 301 129.201 301.3 128.021 301.3C126.581 301.3 125.381 300.82 124.421 299.82C123.461 298.84 122.981 297.6 122.981 296.12C122.981 294.64 123.441 293.4 124.401 292.42C125.361 291.46 126.541 290.96 127.961 290.96C129.161 290.96 130.161 291.28 130.921 291.9C131.681 292.54 132.181 293.28 132.421 294.16L130.341 294.92C130.201 294.42 129.941 294 129.561 293.64C129.181 293.28 128.661 293.1 127.981 293.1ZM137.062 301H134.762V291.26H137.062V301ZM134.402 287.84C134.402 287.44 134.542 287.08 134.842 286.78C135.122 286.48 135.482 286.32 135.902 286.32C136.322 286.32 136.682 286.48 136.982 286.76C137.262 287.06 137.422 287.42 137.422 287.84C137.422 288.26 137.262 288.62 136.982 288.9C136.682 289.2 136.322 289.34 135.902 289.34C135.482 289.34 135.122 289.2 134.842 288.9C134.542 288.62 134.402 288.26 134.402 287.84ZM144.575 288.5C144.175 288.5 143.835 288.62 143.555 288.84C143.275 289.06 143.135 289.44 143.135 289.98V291.26H145.395V293.28H143.135V301H140.795V293.28H139.095V291.26H140.795V289.92C140.795 288.84 141.095 288 141.735 287.36C142.355 286.74 143.175 286.42 144.195 286.42C144.735 286.42 145.135 286.5 145.415 286.62V288.6C145.175 288.54 144.895 288.5 144.575 288.5ZM150.798 304.94H148.318L150.658 299.84L146.498 291.26H149.118L151.918 297.42L154.538 291.26H156.998L150.798 304.94Z" fill="white"/>
<mask id="mask1_1861_15812" style="mask-type:luminance" maskUnits="userSpaceOnUse" x="24" y="269" width="48" height="48">
<path d="M72 269H24V317H72V269Z" fill="white"/>
</mask>
<g mask="url(#mask1_1861_15812)">
<path d="M41.5464 302.725C41.6491 302.819 41.7775 302.87 41.8973 302.87C42.0171 302.87 42.154 302.819 42.2483 302.725L43.4295 301.595C43.5322 301.501 43.5921 301.364 43.5921 301.227C43.5921 301.09 43.5322 300.953 43.4295 300.859L35.2296 293.027L43.4295 285.195C43.5322 285.101 43.5921 284.964 43.5921 284.827C43.5921 284.69 43.5322 284.553 43.4295 284.459L42.2483 283.329C42.1456 283.235 42.0258 283.184 41.8973 283.184C41.7689 283.184 41.6405 283.235 41.5464 283.329L31.7715 292.659C31.6688 292.753 31.6089 292.89 31.6089 293.027C31.6089 293.164 31.6688 293.301 31.7715 293.395L41.5464 302.725ZM60.865 293.027L52.665 300.859C52.5624 300.953 52.5025 301.09 52.5025 301.227C52.5025 301.364 52.5624 301.501 52.665 301.595L53.8463 302.725C53.949 302.819 54.0775 302.87 54.1972 302.87C54.317 302.87 54.454 302.819 54.5481 302.725L64.3231 293.395C64.4257 293.301 64.4856 293.164 64.4856 293.027C64.4856 292.89 64.4257 292.753 64.3231 292.659L54.5481 283.329C54.4455 283.235 54.317 283.184 54.1972 283.184C54.0688 283.184 53.9404 283.235 53.8463 283.329L52.665 284.459C52.5624 284.553 52.5025 284.69 52.5025 284.827C52.5025 284.964 52.5624 285.101 52.665 285.195L60.865 293.027Z" fill="#C5D5EA"/>
<path d="M41.4775 292.069C41.4689 292.403 41.5973 292.719 41.837 292.959L41.8456 292.968C42.0765 293.199 42.3762 293.327 42.7015 293.327C43.0011 293.327 43.2835 293.216 43.506 293.019L46.8356 290.057V299.139C46.8356 299.806 47.3835 300.354 48.0512 300.354C48.7187 300.354 49.2666 299.806 49.2666 299.139V290.049L52.5961 293.01C52.8187 293.207 53.1097 293.318 53.4008 293.318C53.726 293.318 54.0341 293.19 54.2652 292.959L54.2738 292.95C54.5135 292.711 54.6333 292.403 54.6333 292.06C54.6247 291.726 54.4877 291.418 54.2396 291.187L48.8642 286.248C48.6417 286.043 48.3507 285.932 48.0512 285.932C47.7515 285.932 47.4605 286.043 47.2379 286.248L41.8626 291.187C41.6229 291.427 41.4775 291.735 41.4775 292.069Z" fill="#C5D5EA"/>
</g>
<path d="M607.971 109.012L596.729 117.362L598.807 112.435L607.971 109.012Z" fill="#E2761B" stroke="#E2761B" stroke-linecap="round" stroke-linejoin="round"/>
<path d="M582.017 109.012L593.17 117.441L591.192 112.435L582.017 109.012ZM603.927 128.368L600.932 132.955L607.339 134.718L609.181 128.469L603.927 128.368ZM580.831 128.469L582.661 134.718L589.068 132.955L586.074 128.368L580.831 128.469Z" fill="#E4761B" stroke="#E4761B" stroke-linecap="round" stroke-linejoin="round"/>
<path d="M588.706 120.616L586.921 123.316L593.282 123.599L593.056 116.763L588.706 120.616ZM601.282 120.616L596.876 116.684L596.729 123.599L603.079 123.316L601.282 120.616ZM589.068 132.955L592.887 131.09L589.588 128.514L589.068 132.955ZM597.102 131.09L600.932 132.955L600.401 128.514L597.102 131.09Z" fill="#E4761B" stroke="#E4761B" stroke-linecap="round" stroke-linejoin="round"/>
<path d="M600.932 132.956L597.102 131.092L597.407 133.589L597.373 134.64L600.932 132.956ZM589.068 132.956L592.627 134.64L592.605 133.589L592.887 131.092L589.068 132.956Z" fill="#D7C1B3" stroke="#D7C1B3" stroke-linecap="round" stroke-linejoin="round"/>
<path d="M589.068 132.955L589.61 128.367L586.073 128.469L589.068 132.955ZM600.39 128.367L600.932 132.955L603.926 128.469L600.39 128.367ZM603.079 123.316L596.729 123.599L597.316 126.864L598.254 124.898L600.514 125.927L603.079 123.316ZM589.497 125.927L591.757 124.898L592.683 126.864L593.282 123.599L586.921 123.316L589.497 125.927Z" fill="#CD6116" stroke="#CD6116" stroke-linecap="round" stroke-linejoin="round"/>
<path d="M592.684 127.865L589.497 126.927L591.746 125.898L592.684 127.865ZM597.305 127.865L598.243 125.898L600.503 126.927L597.305 127.865Z" fill="#233447" stroke="#233447" stroke-width="2" stroke-linecap="round" stroke-linejoin="round"/>
<path d="M586.921 123.316L589.588 128.514L589.497 125.927L586.921 123.316ZM600.514 125.927L600.401 128.514L603.079 123.316L600.514 125.927ZM593.282 123.599L592.684 126.864L593.429 130.718L593.599 125.644L593.282 123.599ZM596.729 123.599L596.424 125.633L596.559 130.718L597.316 126.864L596.729 123.599Z" fill="#E4751F" stroke="#E4751F" stroke-linecap="round" stroke-linejoin="round"/>
<path d="M597.316 126.866L596.559 130.719L597.102 131.092L600.401 128.515L600.514 125.928L597.316 126.866ZM589.497 125.928L589.587 128.515L592.887 131.092L593.429 130.719L592.684 126.866L589.497 125.928Z" fill="#F6851B" stroke="#F6851B" stroke-linecap="round" stroke-linejoin="round"/>
<path d="M597.373 134.639L597.407 133.588L597.124 133.339H592.864L592.605 133.588L592.627 134.639L589.068 132.955L590.311 133.972L592.831 135.723H597.158L599.689 133.972L600.932 132.955L597.373 134.639Z" fill="#C0AD9E" stroke="#C0AD9E" stroke-linecap="round" stroke-linejoin="round"/>
<path d="M597.102 131.092L596.559 130.719H593.429L592.887 131.092L592.604 133.589L592.864 133.34H597.124L597.406 133.589L597.102 131.092Z" fill="#161616" stroke="#161616" stroke-linecap="round" stroke-linejoin="round"/>
<path d="M608.446 117.904L609.407 113.294L607.972 109.012L597.102 117.08L601.283 120.616L607.192 122.345L608.503 120.82L607.938 120.413L608.842 119.588L608.141 119.046L609.045 118.356L608.446 117.904ZM580.593 113.294L581.554 117.904L580.944 118.356L581.847 119.046L581.158 119.588L582.062 120.413L581.497 120.82L582.797 122.345L588.706 120.616L592.887 117.08L582.017 109.012L580.593 113.294Z" fill="#763D16" stroke="#763D16" stroke-linecap="round" stroke-linejoin="round"/>
<path d="M607.192 122.345L601.283 120.616L603.079 123.317L600.401 128.515L603.927 128.469H609.181L607.192 122.345ZM588.706 120.616L582.797 122.345L580.831 128.469H586.074L589.588 128.515L586.921 123.317L588.706 120.616ZM596.729 123.599L597.102 117.08L598.819 112.436H591.192L592.887 117.08L593.283 123.599L593.418 125.656L593.429 130.718H596.559L596.582 125.656L596.729 123.599Z" fill="#F6851B" stroke="#F6851B" stroke-linecap="round" stroke-linejoin="round"/>
<path d="M182.823 86H28.596C23.8486 86 20 89.8486 20 94.596V123.754C20 128.501 23.8486 132.35 28.596 132.35H182.823C187.57 132.35 191.419 128.501 191.419 123.754V94.596C191.419 89.8486 187.57 86 182.823 86Z" fill="#171717"/>
<path d="M182.823 86H28.596C23.8486 86 20 89.8486 20 94.596V123.754C20 128.501 23.8486 132.35 28.596 132.35H182.823C187.57 132.35 191.419 128.501 191.419 123.754V94.596C191.419 89.8486 187.57 86 182.823 86Z" stroke="url(#paint11_linear_1861_15812)" stroke-width="1.19202"/>
<path d="M95.1802 117H92.7602V110.94H86.1002V117H83.7002V102.82H86.1002V108.68H92.7602V102.82H95.1802V117ZM97.9242 114.36C97.9242 113.54 98.1842 112.88 98.7242 112.38C99.2642 111.88 99.9842 111.56 100.864 111.42L103.364 111.04C103.844 110.98 104.084 110.74 104.084 110.34C104.084 109.9 103.924 109.56 103.624 109.28C103.304 109 102.844 108.86 102.244 108.86C101.644 108.86 101.184 109.04 100.844 109.36C100.484 109.68 100.284 110.1 100.244 110.62L98.1242 110.14C98.2042 109.26 98.6242 108.52 99.3842 107.9C100.124 107.28 101.064 106.96 102.224 106.96C103.624 106.96 104.664 107.3 105.344 107.98C106.024 108.66 106.364 109.54 106.364 110.6V115.44C106.364 116.08 106.404 116.6 106.484 117H104.324C104.244 116.8 104.224 116.4 104.224 115.76C103.584 116.8 102.584 117.3 101.224 117.3C100.224 117.3 99.4242 117.02 98.8242 116.44C98.2242 115.86 97.9242 115.16 97.9242 114.36ZM101.664 115.48C102.384 115.48 102.964 115.3 103.404 114.9C103.844 114.5 104.084 113.86 104.084 112.96V112.52L101.544 112.9C100.664 113.06 100.244 113.5 100.244 114.22C100.244 114.58 100.364 114.88 100.624 115.12C100.864 115.36 101.224 115.48 101.664 115.48ZM115.069 107.2V109.56C114.789 109.52 114.549 109.5 114.309 109.5C112.549 109.5 111.689 110.46 111.689 112.36V117H109.369V107.26H111.629V108.82C111.849 108.3 112.209 107.9 112.729 107.6C113.229 107.3 113.809 107.14 114.449 107.14C114.649 107.14 114.869 107.16 115.069 107.2ZM118.668 112.1C118.668 113.04 118.908 113.8 119.388 114.36C119.868 114.92 120.488 115.2 121.288 115.2C122.048 115.2 122.668 114.92 123.148 114.34C123.628 113.78 123.868 113.02 123.868 112.08C123.868 111.16 123.628 110.44 123.168 109.88C122.688 109.34 122.068 109.06 121.308 109.06C120.528 109.06 119.888 109.34 119.408 109.9C118.908 110.46 118.668 111.18 118.668 112.1ZM126.108 102.52V115.22C126.108 115.88 126.128 116.48 126.208 117H123.988C123.908 116.64 123.888 116.22 123.888 115.74C123.648 116.18 123.268 116.54 122.768 116.82C122.248 117.1 121.668 117.24 121.028 117.24C119.628 117.24 118.508 116.76 117.648 115.78C116.768 114.82 116.348 113.58 116.348 112.1C116.348 110.68 116.768 109.48 117.648 108.48C118.528 107.5 119.628 107 120.988 107C121.748 107 122.368 107.14 122.848 107.42C123.328 107.7 123.648 108.04 123.848 108.4V102.52H126.108ZM131.659 111.28V117H129.339V102.52H131.659V108.2C132.279 107.4 133.199 106.98 134.439 106.98C135.579 106.98 136.459 107.34 137.079 108.06C137.679 108.78 137.999 109.72 137.999 110.84V117H135.679V111.24C135.679 110.6 135.519 110.08 135.199 109.68C134.879 109.28 134.359 109.08 133.679 109.08C133.059 109.08 132.579 109.3 132.219 109.7C131.859 110.12 131.679 110.64 131.659 111.28ZM140.423 114.36C140.423 113.54 140.683 112.88 141.223 112.38C141.763 111.88 142.483 111.56 143.363 111.42L145.863 111.04C146.343 110.98 146.583 110.74 146.583 110.34C146.583 109.9 146.423 109.56 146.123 109.28C145.803 109 145.343 108.86 144.743 108.86C144.143 108.86 143.683 109.04 143.343 109.36C142.983 109.68 142.783 110.1 142.743 110.62L140.623 110.14C140.703 109.26 141.123 108.52 141.883 107.9C142.623 107.28 143.563 106.96 144.723 106.96C146.123 106.96 147.163 107.3 147.843 107.98C148.523 108.66 148.863 109.54 148.863 110.6V115.44C148.863 116.08 148.903 116.6 148.983 117H146.823C146.743 116.8 146.723 116.4 146.723 115.76C146.083 116.8 145.083 117.3 143.723 117.3C142.723 117.3 141.923 117.02 141.323 116.44C140.723 115.86 140.423 115.16 140.423 114.36ZM144.163 115.48C144.883 115.48 145.463 115.3 145.903 114.9C146.343 114.5 146.583 113.86 146.583 112.96V112.52L144.043 112.9C143.163 113.06 142.743 113.5 142.743 114.22C142.743 114.58 142.863 114.88 143.123 115.12C143.363 115.36 143.723 115.48 144.163 115.48ZM154.769 104.28V107.26H156.789V109.32H154.769V113.84C154.769 114.28 154.869 114.58 155.069 114.78C155.269 114.98 155.569 115.06 156.009 115.06C156.269 115.06 156.529 115.04 156.809 114.98V116.9C156.449 117.06 155.989 117.12 155.389 117.12C154.469 117.12 153.769 116.88 153.249 116.36C152.729 115.84 152.469 115.14 152.469 114.22V109.32H150.669V107.26H151.169C151.649 107.26 152.029 107.12 152.289 106.84C152.529 106.56 152.669 106.2 152.669 105.74V104.28H154.769Z" fill="white"/>
<path d="M67.0752 116.601C67.0752 116.601 61.8553 115.828 59.0969 115.606C56.448 115.393 53.3091 115.271 49.9415 115.271C46.574 115.271 43.435 115.393 40.7868 115.606C38.0278 115.831 32.8086 116.904 32.8086 116.904V118.253C32.8086 119.452 40.4796 120.426 49.9415 120.426C59.4034 120.426 67.0744 119.452 67.0744 118.253L67.0752 116.601Z" fill="#F0D50C"/>
<path d="M44.6747 98.7109C38.4185 100.94 34.2406 106.864 34.2402 113.505V115.729C36.4728 115.196 38.7491 114.866 41.0412 114.743C41.0257 114.316 41.0177 113.887 41.0172 113.453C41.0195 107.618 42.4282 102.366 44.6747 98.7109Z" fill="#F0D50C"/>
<path d="M65.6446 113.504C65.6499 109.86 64.3822 106.329 62.0605 103.52C63.067 106.734 63.5685 110.086 63.5471 113.454C63.5471 114.067 63.5314 114.673 63.5 115.272C64.2145 115.382 64.9222 115.532 65.6198 115.722L65.6446 113.504Z" fill="#FFF04D"/>
<path d="M65.6446 113.504C65.6499 109.86 64.3822 106.329 62.0605 103.52C63.067 106.734 63.5685 110.086 63.5471 113.454C63.5471 114.067 63.5314 114.673 63.5 115.272C64.2145 115.382 64.9222 115.532 65.6198 115.722L65.6446 113.504Z" fill="#FFEA00"/>
<path d="M62.0602 103.519C57.8533 98.4192 50.905 96.4973 44.6755 98.7102C42.4275 102.366 41.0195 107.617 41.0195 113.453C41.0195 113.887 41.0275 114.316 41.0434 114.743C43.3814 114.562 46.088 114.451 48.9865 114.431C48.9865 114.431 49.6451 114.431 49.9441 114.431C54.4778 114.376 59.0093 114.658 63.5011 115.275C63.5316 114.676 63.5473 114.07 63.5484 113.457C63.5696 110.087 63.0676 106.735 62.0602 103.519Z" fill="#FFF04D"/>
<path d="M56.2583 104.558L55.2632 98.3384C55.1925 97.8808 54.8646 97.5049 54.4209 97.3725C51.5215 96.5217 48.4385 96.5217 45.539 97.3725C45.0956 97.5051 44.7681 97.881 44.6975 98.3384L43.7017 104.558" fill="#FFF04D"/>
<path d="M49.9434 114.301C49.6437 114.301 49.3461 114.301 49.0509 114.301H49.0179H48.985C39.9682 114.364 32.8097 115.311 32.8097 116.47V118.15C32.7951 118.249 32.8161 118.349 32.8689 118.433C33.3269 118.089 33.8533 117.848 34.4126 117.725C35.837 117.378 37.2848 117.135 38.7445 116.999C39.5735 116.908 40.4015 117.179 41.0173 117.741C42.1446 118.773 43.6177 119.345 45.1461 119.345H54.7377C56.2661 119.345 57.7391 118.773 58.8665 117.741C59.4822 117.178 60.3106 116.907 61.14 116.998C62.5994 117.135 64.047 117.377 65.4711 117.724C66.0009 117.826 66.5011 118.045 66.9354 118.364C66.9601 118.389 66.9886 118.411 67.0103 118.433C67.0635 118.349 67.0848 118.248 67.0703 118.149V116.469C67.0755 115.273 59.4045 114.301 49.9434 114.301Z" fill="#FFF04D"/>
<path d="M53.5528 109.311L49.9395 111.535V114.423L53.5528 109.311Z" fill="#6E6F70"/>
<path d="M49.9419 114.423V111.535L46.3286 109.311L49.9419 114.423Z" fill="#0A0A0A"/>
<path d="M46.3286 107.991L49.9419 110.08V102.146L46.3286 107.991Z" fill="#0A0A0A"/>
<path d="M53.5528 107.989L49.9395 102.145V105.9V110.078L53.5528 107.989Z" fill="#6E6F70"/>
<path d="M188.548 110.515C188.548 111.988 189.742 113.182 191.215 113.182C192.688 113.182 193.882 111.988 193.882 110.515C193.882 109.042 192.688 107.848 191.215 107.848C189.742 107.848 188.548 109.042 188.548 110.515ZM191.215 111.015H294.889V110.015H191.215V111.015Z" fill="url(#paint12_linear_1861_15812)"/>
<path d="M728.823 285H574.596C569.849 285 566 288.849 566 293.596V322.754C566 327.501 569.849 331.35 574.596 331.35H728.823C733.57 331.35 737.419 327.501 737.419 322.754V293.596C737.419 288.849 733.57 285 728.823 285Z" fill="#171717"/>
<path d="M728.823 285H574.596C569.849 285 566 288.849 566 293.596V322.754C566 327.501 569.849 331.35 574.596 331.35H728.823C733.57 331.35 737.419 327.501 737.419 322.754V293.596C737.419 288.849 733.57 285 728.823 285Z" stroke="url(#paint13_linear_1861_15812)" stroke-width="1.19202"/>
<path d="M601.951 324.488C610.426 324.488 617.295 317.537 617.295 308.963C617.295 300.39 610.426 293.439 601.951 293.439C593.477 293.439 586.605 300.39 586.605 308.963C586.605 317.537 593.477 324.488 601.951 324.488Z" fill="#5E464D"/>
<path d="M597.124 322.728C597.751 322.943 599.86 323.628 599.949 322.958C599.998 322.59 598.885 322.213 597.379 321.415C595.237 320.283 593.277 318.835 591.565 317.12C589.067 314.67 587.631 311.338 587.565 307.84C587.438 303.143 589.274 299.346 592.294 296.896C590.47 298.304 588.983 300.101 587.942 302.155C586.901 304.21 586.331 306.471 586.275 308.774C586.185 312.171 587.135 315.033 588.919 317.638C589.474 318.354 590.121 318.992 590.845 319.535C592.555 320.828 595.055 322.025 597.124 322.727" fill="white"/>
<path d="M617.506 305.406C616.554 300.932 613.597 297.799 609.64 295.586C612.66 297.74 616.924 302.319 614.413 306.359C612.285 309.595 607.11 308.961 604.283 307.423C600.921 305.599 596.709 301.496 600.863 297.483C603.552 294.887 612.11 297.798 610.604 301.678C609.726 303.935 606.306 303.433 604.768 302.33C603.634 301.515 602.679 300.116 603.184 298.67C603.347 298.207 603.324 297.488 602.669 298.017C602.181 298.412 601.935 299.062 601.85 299.667C601.134 304.727 610.148 308.65 612.822 303.754C614.211 301.213 611.961 297.523 609.13 296.012C607.002 294.872 604.786 294.071 602.073 294.266C597.732 294.569 594.089 297.29 593.633 301.725C593.177 306.133 596.124 310.1 599.594 312.472C603.242 314.965 608.145 316.608 612.632 315.121C616.653 313.788 618.314 309.172 617.506 305.405" fill="white"/>
<path d="M611.846 301.98C612.278 299.08 609.656 297.089 607.235 296.184C604.381 295.12 600.61 295.586 598.531 297.949C597.011 299.685 597.109 302.205 597.894 304.244C599.079 307.325 601.756 309.552 604.871 310.514C607.084 311.198 609.762 311.496 612.006 310.774C615.278 309.72 616.343 306.308 615.667 303.182C615.522 302.506 615.3 301.849 615.004 301.224C614.591 300.356 613.333 298.599 615.07 300.739C615.253 300.978 615.421 301.227 615.574 301.486C615.934 302.077 616.22 302.71 616.424 303.372C617.375 306.29 616.629 309.695 613.992 311.456C611.969 312.804 609.398 312.965 607.051 312.628C603.905 312.172 600.94 310.652 598.879 308.207C596.997 305.977 595.713 302.775 596.486 299.847C597.053 297.706 598.792 296.107 600.874 295.44C603.508 294.587 606.406 294.984 608.777 296.368C609.966 297.06 611.057 298.017 611.658 299.273C611.933 299.838 612.081 300.457 612.091 301.086C612.097 301.341 612.077 301.595 612.032 301.846C612.015 301.937 611.822 302.194 611.849 301.983" fill="#3FE0C5"/>
<path d="M643.88 304.08H639.26V316H636.86V304.08H632.26V301.82H643.88V304.08ZM650.201 306.2V308.56C649.921 308.52 649.681 308.5 649.441 308.5C647.681 308.5 646.821 309.46 646.821 311.36V316H644.501V306.26H646.761V307.82C646.981 307.3 647.341 306.9 647.861 306.6C648.361 306.3 648.941 306.14 649.581 306.14C649.781 306.14 650.001 306.16 650.201 306.2ZM658.697 314.92C658.457 315.36 658.097 315.68 657.577 315.92C657.057 316.16 656.517 316.28 655.937 316.28C654.797 316.28 653.897 315.92 653.237 315.18C652.577 314.46 652.257 313.52 652.257 312.4V306.26H654.577V311.98C654.577 312.64 654.737 313.18 655.057 313.58C655.377 314 655.857 314.2 656.537 314.2C657.177 314.2 657.677 314 658.037 313.6C658.397 313.2 658.577 312.68 658.577 312.02V306.26H660.897V314.22C660.897 314.82 660.917 315.4 660.997 316H658.777C658.717 315.72 658.697 315.36 658.697 314.92ZM674.82 303.5C674.44 303.5 674.1 303.62 673.82 303.84C673.52 304.08 673.38 304.46 673.38 304.98V306.26H677.6V301.52H679.9V316H677.6V308.28H673.38V316H671.04V308.28H666.98V316H664.64V308.28H662.94V306.26H664.64V304.92C664.64 303.84 664.94 303 665.58 302.36C666.2 301.74 667.02 301.42 668.04 301.42C668.58 301.42 668.98 301.5 669.26 301.62V303.6C669.02 303.54 668.74 303.5 668.42 303.5C668.04 303.5 667.7 303.62 667.42 303.84C667.12 304.08 666.98 304.46 666.98 304.98V306.26H671.04V304.92C671.04 303.84 671.34 303 671.98 302.36C672.6 301.74 673.42 301.42 674.44 301.42C674.98 301.42 675.38 301.5 675.66 301.62V303.6C675.42 303.54 675.14 303.5 674.82 303.5ZM684.729 310.06H689.509C689.469 309.46 689.249 308.94 688.849 308.52C688.449 308.12 687.869 307.9 687.109 307.9C686.409 307.9 685.849 308.12 685.429 308.56C684.989 309 684.769 309.5 684.729 310.06ZM689.769 312.6L691.729 313.22C691.449 314.12 690.909 314.86 690.149 315.44C689.389 316.02 688.449 316.3 687.329 316.3C685.929 316.3 684.749 315.84 683.789 314.88C682.829 313.94 682.349 312.68 682.349 311.08C682.349 309.6 682.809 308.36 683.749 307.4C684.689 306.44 685.809 305.96 687.089 305.96C688.569 305.96 689.749 306.42 690.589 307.34C691.429 308.26 691.849 309.48 691.849 311.02C691.849 311.44 691.829 311.68 691.789 311.76H684.669C684.689 312.5 684.949 313.1 685.469 313.58C685.989 314.06 686.609 314.3 687.329 314.3C688.569 314.3 689.389 313.74 689.769 312.6Z" fill="white"/>
<path d="M567.606 308.091C567.606 309.563 566.412 310.757 564.939 310.757C563.467 310.757 562.273 309.563 562.273 308.091C562.273 306.618 563.467 305.424 564.939 305.424C566.412 305.424 567.606 306.618 567.606 308.091ZM564.939 308.591H461.266V307.591H564.939V308.591Z" fill="url(#paint14_linear_1861_15812)"/>
<path d="M728.823 192H574.596C569.849 192 566 195.849 566 200.596V229.754C566 234.501 569.849 238.35 574.596 238.35H728.823C733.57 238.35 737.419 234.501 737.419 229.754V200.596C737.419 195.849 733.57 192 728.823 192Z" fill="#171717"/>
<path d="M728.823 192H574.596C569.849 192 566 195.849 566 200.596V229.754C566 234.501 569.849 238.35 574.596 238.35H728.823C733.57 238.35 737.419 234.501 737.419 229.754V200.596C737.419 195.849 733.57 192 728.823 192Z" stroke="url(#paint15_linear_1861_15812)" stroke-width="1.19202"/>
<path d="M640.02 212.14L637.86 212.82C637.76 212.28 637.48 211.78 637.04 211.32C636.58 210.88 635.92 210.64 635.08 210.64C634.36 210.64 633.78 210.84 633.32 211.24C632.86 211.64 632.64 212.12 632.64 212.68C632.64 213.66 633.18 214.26 634.3 214.5L636.34 214.92C637.56 215.16 638.5 215.66 639.18 216.38C639.84 217.12 640.18 218 640.18 219C640.18 220.18 639.72 221.2 638.82 222.04C637.92 222.88 636.7 223.3 635.16 223.3C633.48 223.3 632.18 222.88 631.26 222C630.32 221.12 629.8 220.1 629.68 218.94L631.92 218.3C632 219.1 632.32 219.78 632.88 220.32C633.44 220.88 634.2 221.14 635.16 221.14C635.98 221.14 636.62 220.96 637.06 220.6C637.5 220.24 637.74 219.76 637.74 219.18C637.74 218.72 637.56 218.32 637.24 217.98C636.9 217.64 636.44 217.4 635.84 217.26L633.84 216.84C632.72 216.62 631.84 216.16 631.2 215.46C630.56 214.78 630.24 213.9 630.24 212.86C630.24 211.68 630.7 210.66 631.66 209.8C632.6 208.96 633.74 208.52 635.06 208.52C636.56 208.52 637.72 208.9 638.52 209.62C639.32 210.34 639.82 211.18 640.02 212.14ZM646.816 221.22C647.576 221.22 648.216 220.96 648.736 220.4C649.256 219.86 649.536 219.1 649.536 218.12C649.536 217.16 649.256 216.42 648.736 215.88C648.216 215.34 647.576 215.06 646.816 215.06C646.056 215.06 645.396 215.34 644.876 215.88C644.356 216.42 644.096 217.16 644.096 218.12C644.096 219.08 644.356 219.84 644.876 220.4C645.396 220.96 646.056 221.22 646.816 221.22ZM646.816 212.96C648.276 212.96 649.476 213.46 650.436 214.42C651.396 215.4 651.876 216.64 651.876 218.12C651.876 219.62 651.396 220.86 650.436 221.84C649.476 222.82 648.276 223.3 646.816 223.3C645.356 223.3 644.156 222.82 643.196 221.84C642.236 220.86 641.776 219.62 641.776 218.12C641.776 216.64 642.236 215.4 643.196 214.42C644.156 213.46 645.356 212.96 646.816 212.96ZM656.638 223H654.318V208.52H656.638V223ZM662.13 223H659.83V213.26H662.13V223ZM659.47 209.84C659.47 209.44 659.61 209.08 659.91 208.78C660.19 208.48 660.55 208.32 660.97 208.32C661.39 208.32 661.75 208.48 662.05 208.76C662.33 209.06 662.49 209.42 662.49 209.84C662.49 210.26 662.33 210.62 662.05 210.9C661.75 211.2 661.39 211.34 660.97 211.34C660.55 211.34 660.19 211.2 659.91 210.9C659.61 210.62 659.47 210.26 659.47 209.84ZM666.883 218.1C666.883 219.04 667.123 219.8 667.603 220.36C668.083 220.92 668.703 221.2 669.503 221.2C670.263 221.2 670.883 220.92 671.363 220.34C671.843 219.78 672.083 219.02 672.083 218.08C672.083 217.16 671.843 216.44 671.383 215.88C670.903 215.34 670.283 215.06 669.523 215.06C668.743 215.06 668.103 215.34 667.623 215.9C667.123 216.46 666.883 217.18 666.883 218.1ZM674.323 208.52V221.22C674.323 221.88 674.343 222.48 674.423 223H672.203C672.123 222.64 672.103 222.22 672.103 221.74C671.863 222.18 671.483 222.54 670.983 222.82C670.463 223.1 669.883 223.24 669.243 223.24C667.843 223.24 666.723 222.76 665.863 221.78C664.983 220.82 664.563 219.58 664.563 218.1C664.563 216.68 664.983 215.48 665.863 214.48C666.743 213.5 667.843 213 669.203 213C669.963 213 670.583 213.14 671.063 213.42C671.543 213.7 671.863 214.04 672.063 214.4V208.52H674.323ZM679.855 223H677.555V213.26H679.855V223ZM677.195 209.84C677.195 209.44 677.335 209.08 677.635 208.78C677.915 208.48 678.275 208.32 678.695 208.32C679.115 208.32 679.475 208.48 679.775 208.76C680.055 209.06 680.215 209.42 680.215 209.84C680.215 210.26 680.055 210.62 679.775 210.9C679.475 211.2 679.115 211.34 678.695 211.34C678.275 211.34 677.915 211.2 677.635 210.9C677.335 210.62 677.195 210.26 677.195 209.84ZM685.988 210.28V213.26H688.008V215.32H685.988V219.84C685.988 220.28 686.088 220.58 686.288 220.78C686.488 220.98 686.788 221.06 687.228 221.06C687.488 221.06 687.748 221.04 688.028 220.98V222.9C687.668 223.06 687.208 223.12 686.608 223.12C685.688 223.12 684.988 222.88 684.468 222.36C683.948 221.84 683.688 221.14 683.688 220.22V215.32H681.888V213.26H682.388C682.868 213.26 683.248 213.12 683.508 212.84C683.748 212.56 683.888 212.2 683.888 211.74V210.28H685.988ZM693.708 226.94H691.228L693.568 221.84L689.408 213.26H692.028L694.828 219.42L697.448 213.26H699.908L693.708 226.94Z" fill="white"/>
<mask id="mask2_1861_15812" style="mask-type:luminance" maskUnits="userSpaceOnUse" x="590" y="201" width="19" height="29">
<path d="M608.688 201H590V230H608.688V201Z" fill="white"/>
</mask>
<g mask="url(#mask2_1861_15812)">
<path opacity="0.45" d="M603.979 201L599.317 209.286H590L594.659 201H603.979Z" fill="#FDFDFD"/>
<path opacity="0.6" d="M599.317 209.286H608.638L603.979 201H594.659L599.317 209.286Z" fill="#FDFDFD"/>
<path opacity="0.8" d="M594.659 217.569L599.317 209.286L594.659 201L590 209.286L594.659 217.569Z" fill="#FDFDFD"/>
<path opacity="0.45" d="M594.705 230.001L599.367 221.715H608.688L604.026 230.001H594.705Z" fill="#FDFDFD"/>
<path opacity="0.6" d="M599.367 221.715H590.046L594.705 230.001H604.026L599.367 221.715Z" fill="#FDFDFD"/>
<path opacity="0.8" d="M604.026 213.432L599.367 221.714L604.026 230.001L608.688 221.714L604.026 213.432Z" fill="#FDFDFD"/>
</g>
<path d="M567.606 215.091C567.606 216.563 566.412 217.757 564.939 217.757C563.467 217.757 562.273 216.563 562.273 215.091C562.273 213.618 563.467 212.424 564.939 212.424C566.412 212.424 567.606 213.618 567.606 215.091ZM564.939 215.591H461.266V214.591H564.939V215.591Z" fill="url(#paint16_linear_1861_15812)"/>
</g>
<defs>
<linearGradient id="paint0_linear_1861_15812" x1="382.231" y1="202.08" x2="382.231" y2="346.758" gradientUnits="userSpaceOnUse">
<stop/>
<stop offset="1" stop-color="#161616" stop-opacity="0"/>
</linearGradient>
<linearGradient id="paint1_linear_1861_15812" x1="650.851" y1="97.407" x2="650.851" y2="145.773" gradientUnits="userSpaceOnUse">
<stop stop-color="#282828"/>
<stop offset="1" stop-color="#212121" stop-opacity="0.49"/>
</linearGradient>
<linearGradient id="paint2_linear_1861_15812" x1="104.818" y1="269.975" x2="104.818" y2="315.133" gradientUnits="userSpaceOnUse">
<stop stop-color="#282828"/>
<stop offset="1" stop-color="#212121" stop-opacity="0.49"/>
</linearGradient>
<radialGradient id="paint3_radial_1861_15812" cx="0" cy="0" r="1" gradientUnits="userSpaceOnUse" gradientTransform="translate(377.153 189.081) rotate(-0.247609) scale(120.562 116)">
<stop offset="0.418913" stop-color="#212121"/>
<stop offset="0.689387" stop-color="white" stop-opacity="0.24"/>
<stop offset="1" stop-color="white" stop-opacity="0"/>
</radialGradient>
<linearGradient id="paint4_linear_1861_15812" x1="243.052" y1="293.515" x2="272.362" y2="293.515" gradientUnits="userSpaceOnUse">
<stop stop-color="#282828"/>
<stop offset="1" stop-color="#282828" stop-opacity="0"/>
</linearGradient>
<linearGradient id="paint5_linear_1861_15812" x1="515.103" y1="122.04" x2="485.793" y2="122.04" gradientUnits="userSpaceOnUse">
<stop stop-color="#282828"/>
<stop offset="1" stop-color="#282828" stop-opacity="0"/>
</linearGradient>
<linearGradient id="paint6_linear_1861_15812" x1="445.376" y1="91" x2="445.376" y2="142.778" gradientUnits="userSpaceOnUse">
<stop stop-color="#46CE92"/>
<stop offset="1" stop-color="#8EFACB" stop-opacity="0.76"/>
</linearGradient>
<linearGradient id="paint7_linear_1861_15812" x1="445.51" y1="101.303" x2="445.51" y2="132.699" gradientUnits="userSpaceOnUse">
<stop stop-color="#46CE92"/>
<stop offset="1" stop-color="#8EFACB" stop-opacity="0.76"/>
</linearGradient>
<linearGradient id="paint8_linear_1861_15812" x1="445.693" y1="110.721" x2="445.693" y2="124.615" gradientUnits="userSpaceOnUse">
<stop stop-color="#46CE92"/>
<stop offset="1" stop-color="#8EFACB" stop-opacity="0.76"/>
</linearGradient>
<linearGradient id="paint9_linear_1861_15812" x1="110.913" y1="173.157" x2="110.913" y2="224.835" gradientUnits="userSpaceOnUse">
<stop stop-color="#282828"/>
<stop offset="1" stop-color="#212121" stop-opacity="0.49"/>
</linearGradient>
<linearGradient id="paint10_linear_1861_15812" x1="242.052" y1="200.515" x2="271.362" y2="200.515" gradientUnits="userSpaceOnUse">
<stop stop-color="#282828"/>
<stop offset="1" stop-color="#282828" stop-opacity="0"/>
</linearGradient>
<linearGradient id="paint11_linear_1861_15812" x1="105.709" y1="86.596" x2="105.709" y2="131.754" gradientUnits="userSpaceOnUse">
<stop stop-color="#282828"/>
<stop offset="1" stop-color="#212121" stop-opacity="0.49"/>
</linearGradient>
<linearGradient id="paint12_linear_1861_15812" x1="243.052" y1="110.515" x2="272.362" y2="110.515" gradientUnits="userSpaceOnUse">
<stop stop-color="#282828"/>
<stop offset="1" stop-color="#282828" stop-opacity="0"/>
</linearGradient>
<linearGradient id="paint13_linear_1861_15812" x1="651.709" y1="285.596" x2="651.709" y2="330.754" gradientUnits="userSpaceOnUse">
<stop stop-color="#282828"/>
<stop offset="1" stop-color="#212121" stop-opacity="0.49"/>
</linearGradient>
<linearGradient id="paint14_linear_1861_15812" x1="513.103" y1="308.091" x2="483.793" y2="308.091" gradientUnits="userSpaceOnUse">
<stop stop-color="#282828"/>
<stop offset="1" stop-color="#282828" stop-opacity="0"/>
</linearGradient>
<linearGradient id="paint15_linear_1861_15812" x1="651.709" y1="192.596" x2="651.709" y2="237.754" gradientUnits="userSpaceOnUse">
<stop stop-color="#282828"/>
<stop offset="1" stop-color="#212121" stop-opacity="0.49"/>
</linearGradient>
<linearGradient id="paint16_linear_1861_15812" x1="513.103" y1="215.091" x2="483.793" y2="215.091" gradientUnits="userSpaceOnUse">
<stop stop-color="#282828"/>
<stop offset="1" stop-color="#282828" stop-opacity="0"/>
</linearGradient>
<clipPath id="clip0_1861_15812">
<rect width="749" height="400" fill="white"/>
</clipPath>
</defs>
</svg>
