<svg width="854" height="360" viewBox="0 0 854 360" fill="none" xmlns="http://www.w3.org/2000/svg">
<g clip-path="url(#clip0_636_775)">
<mask id="mask0_636_775" style="mask-type:luminance" maskUnits="userSpaceOnUse" x="0" y="0" width="854" height="360">
<path d="M854 0H0V360H854V0Z" fill="white"/>
</mask>
<g mask="url(#mask0_636_775)">
<mask id="mask1_636_775" style="mask-type:luminance" maskUnits="userSpaceOnUse" x="0" y="0" width="854" height="360">
<path d="M854 0H0V360H854V0Z" fill="white"/>
</mask>
<g mask="url(#mask1_636_775)">
<path d="M652.334 236.205H202M652.334 179.5H202M652.334 123.568H202M258.292 63V296M314.583 63V296M370.876 63V296M427.167 63V296M483.459 63V296M539.75 63V296M596.042 63V296M652.334 296H202V63.0002H652.334V296Z" stroke="url(#paint0_radial_636_775)" stroke-width="0.53"/>
</g>
<path d="M456.435 129H397.564C385.655 129 376 138.655 376 150.564V209.435C376 221.345 385.655 231 397.564 231H456.435C468.345 231 478 221.345 478 209.435V150.564C478 138.655 468.345 129 456.435 129Z" fill="url(#paint1_linear_636_775)"/>
<path d="M456.449 129.834H397.579C386.131 129.834 376.852 139.114 376.852 150.561V209.432C376.852 220.879 386.131 230.159 397.579 230.159H456.449C467.897 230.159 477.177 220.879 477.177 209.432V150.561C477.177 139.114 467.897 129.834 456.449 129.834Z" stroke="url(#paint2_linear_636_775)" stroke-opacity="0.2"/>
<g filter="url(#filter0_d_636_775)">
<path d="M403.939 163.554C404.035 163.65 404.202 163.74 404.214 163.846C404.333 164.885 404.982 165.583 405.771 166.141C413.019 171.266 420.268 176.389 427.541 181.477C429.297 182.705 430.691 182.635 432.424 181.416C436.385 178.632 440.344 175.842 444.296 173.046C446.537 171.46 448.172 169.399 449.027 166.788C449.325 165.878 449.439 164.907 449.565 164.312C449.565 166.586 449.734 169.223 449.522 171.829C449.261 175.041 447.642 177.691 445.056 179.599C440.748 182.776 436.356 185.841 431.961 188.9C430.531 189.895 429.017 189.634 427.618 188.725C426.182 187.793 424.757 186.842 423.361 185.852C417.576 181.752 411.804 177.632 406.022 173.526C405.032 172.822 404.249 171.991 404.073 170.733C404.078 168.69 404.085 166.647 404.08 164.604C404.079 164.448 403.988 164.294 403.939 164.139C403.939 163.944 403.939 163.749 403.939 163.554Z" fill="#3ECF8E"/>
<path d="M403.939 163.745C404.035 163.842 404.202 163.932 404.214 164.038C404.333 165.077 404.982 165.775 405.771 166.333C413.019 171.458 420.268 176.581 427.541 181.669C429.297 182.898 430.691 182.827 432.424 181.608C436.385 178.824 440.344 176.034 444.296 173.237C446.537 171.652 448.172 169.591 449.027 166.98C449.325 166.069 449.439 165.099 449.565 164.504C449.565 166.778 449.734 169.415 449.522 172.021C449.261 175.233 447.642 177.883 445.056 179.791C440.748 182.969 436.356 186.033 431.961 189.092C430.531 190.086 429.017 189.826 427.618 188.917C426.182 187.985 424.757 187.033 423.361 186.043C417.576 181.944 411.804 177.824 406.022 173.718C405.032 173.014 404.249 172.182 404.073 170.925C404.078 168.882 404.085 166.838 404.08 164.795C404.079 164.64 403.988 164.485 403.939 164.33C403.939 164.136 403.939 163.941 403.939 163.745Z" fill="#3ECF8E"/>
<path d="M403.939 180.056C404.03 180.117 404.195 180.17 404.202 180.24C404.329 181.399 405.108 182.098 405.971 182.726C409.293 185.142 412.597 187.582 415.955 189.947C419.673 192.566 423.439 195.116 427.191 197.687C429.34 199.159 430.533 199.166 432.679 197.665C436.487 195.003 440.271 192.308 444.076 189.643C446.344 188.054 448.062 186.038 448.954 183.41C449.284 182.434 449.419 181.392 449.776 180.378C449.678 183.207 449.763 186.058 449.432 188.86C449.078 191.862 447.423 194.314 444.993 196.098C440.718 199.237 436.364 202.27 432.016 205.31C430.491 206.375 428.938 206.059 427.484 205.092C425.592 203.832 423.703 202.563 421.849 201.248C416.505 197.456 411.18 193.639 405.847 189.832C404.894 189.151 404.213 188.297 404.065 187.099C404.072 185.028 404.081 182.958 404.078 180.888C404.078 180.758 403.988 180.627 403.939 180.496C403.939 180.349 403.939 180.202 403.939 180.056Z" fill="#3ECF8E"/>
<path d="M403.939 179.832C404.03 179.892 404.195 179.946 404.202 180.016C404.329 181.174 405.108 181.874 405.971 182.501C409.293 184.917 412.597 187.358 415.955 189.722C419.673 192.341 423.439 194.892 427.191 197.462C429.34 198.935 430.533 198.941 432.679 197.44C436.487 194.779 440.271 192.084 444.076 189.418C446.344 187.83 448.062 185.813 448.954 183.184C449.284 182.209 449.419 181.167 449.776 180.153C449.678 182.983 449.763 185.833 449.432 188.635C449.078 191.637 447.423 194.089 444.993 195.873C440.718 199.013 436.364 202.046 432.016 205.085C430.491 206.15 428.938 205.834 427.484 204.867C425.592 203.607 423.703 202.338 421.849 201.023C416.505 197.232 411.18 193.414 405.847 189.607C404.894 188.927 404.213 188.073 404.065 186.874C404.072 184.804 404.081 182.733 404.078 180.663C404.078 180.532 403.988 180.401 403.939 180.271C403.939 180.124 403.939 179.978 403.939 179.832Z" fill="#3ECF8E"/>
<path d="M414.557 162.99C414.68 162.85 414.744 162.741 414.839 162.675C417.145 161.067 419.41 159.396 421.775 157.878C424.222 156.308 426.925 155.386 429.881 155.39C432.637 155.395 435.137 156.267 437.403 157.774C438.499 158.503 439.559 159.307 440.531 160.19C442.102 161.618 442.265 164.161 441.015 165.87C440.735 166.252 440.444 166.277 440.078 166.033C439.569 165.695 439.063 165.35 438.545 165.025C433.315 161.748 428.084 161.783 422.853 165.03C422.022 165.546 421.199 166.075 420.352 166.564C420.182 166.662 419.858 166.701 419.712 166.606C418.08 165.527 416.469 164.419 414.855 163.313C414.758 163.246 414.691 163.138 414.557 162.99Z" fill="#3ECF8E"/>
<path d="M403.939 163.554C404.035 163.65 404.202 163.74 404.214 163.846C404.333 164.885 404.982 165.583 405.771 166.141C413.019 171.266 420.268 176.389 427.541 181.477C429.297 182.705 430.691 182.635 432.424 181.416C436.385 178.632 440.344 175.842 444.296 173.046C446.537 171.46 448.172 169.399 449.027 166.788C449.325 165.878 449.439 164.907 449.565 164.312C449.565 166.586 449.734 169.223 449.522 171.829C449.261 175.041 447.642 177.691 445.056 179.599C440.748 182.776 436.356 185.841 431.961 188.9C430.531 189.895 429.017 189.634 427.618 188.725C426.182 187.793 424.757 186.842 423.361 185.852C417.576 181.752 411.804 177.632 406.022 173.526C405.032 172.822 404.249 171.991 404.073 170.733C404.078 168.69 404.085 166.647 404.08 164.604C404.079 164.448 403.988 164.294 403.939 164.139C403.939 163.944 403.939 163.749 403.939 163.554Z" fill="url(#paint3_linear_636_775)" fill-opacity="0.5"/>
<path d="M403.939 163.745C404.035 163.842 404.202 163.932 404.214 164.038C404.333 165.077 404.982 165.775 405.771 166.333C413.019 171.458 420.268 176.581 427.541 181.669C429.297 182.898 430.691 182.827 432.424 181.608C436.385 178.824 440.344 176.034 444.296 173.237C446.537 171.652 448.172 169.591 449.027 166.98C449.325 166.069 449.439 165.099 449.565 164.504C449.565 166.778 449.734 169.415 449.522 172.021C449.261 175.233 447.642 177.883 445.056 179.791C440.748 182.969 436.356 186.033 431.961 189.092C430.531 190.086 429.017 189.826 427.618 188.917C426.182 187.985 424.757 187.033 423.361 186.043C417.576 181.944 411.804 177.824 406.022 173.718C405.032 173.014 404.249 172.182 404.073 170.925C404.078 168.882 404.085 166.838 404.08 164.795C404.079 164.64 403.988 164.485 403.939 164.33C403.939 164.136 403.939 163.941 403.939 163.745Z" fill="url(#paint4_linear_636_775)" fill-opacity="0.5"/>
<path d="M403.939 180.056C404.03 180.117 404.195 180.17 404.202 180.24C404.329 181.399 405.108 182.098 405.971 182.726C409.293 185.142 412.597 187.582 415.955 189.947C419.673 192.566 423.439 195.116 427.191 197.687C429.34 199.159 430.533 199.166 432.679 197.665C436.487 195.003 440.271 192.308 444.076 189.643C446.344 188.054 448.062 186.038 448.954 183.41C449.284 182.434 449.419 181.392 449.776 180.378C449.678 183.207 449.763 186.058 449.432 188.86C449.078 191.862 447.423 194.314 444.993 196.098C440.718 199.237 436.364 202.27 432.016 205.31C430.491 206.375 428.938 206.059 427.484 205.092C425.592 203.832 423.703 202.563 421.849 201.248C416.505 197.456 411.18 193.639 405.847 189.832C404.894 189.151 404.213 188.297 404.065 187.099C404.072 185.028 404.081 182.958 404.078 180.888C404.078 180.758 403.988 180.627 403.939 180.496C403.939 180.349 403.939 180.202 403.939 180.056Z" fill="url(#paint5_linear_636_775)" fill-opacity="0.5"/>
<path d="M403.939 179.832C404.03 179.892 404.195 179.946 404.202 180.016C404.329 181.174 405.108 181.874 405.971 182.501C409.293 184.917 412.597 187.358 415.955 189.722C419.673 192.341 423.439 194.892 427.191 197.462C429.34 198.935 430.533 198.941 432.679 197.44C436.487 194.779 440.271 192.084 444.076 189.418C446.344 187.83 448.062 185.813 448.954 183.184C449.284 182.209 449.419 181.167 449.776 180.153C449.678 182.983 449.763 185.833 449.432 188.635C449.078 191.637 447.423 194.089 444.993 195.873C440.718 199.013 436.364 202.046 432.016 205.085C430.491 206.15 428.938 205.834 427.484 204.867C425.592 203.607 423.703 202.338 421.849 201.023C416.505 197.232 411.18 193.414 405.847 189.607C404.894 188.927 404.213 188.073 404.065 186.874C404.072 184.804 404.081 182.733 404.078 180.663C404.078 180.532 403.988 180.401 403.939 180.271C403.939 180.124 403.939 179.978 403.939 179.832Z" fill="url(#paint6_linear_636_775)" fill-opacity="0.5"/>
<path d="M414.557 162.99C414.68 162.85 414.744 162.741 414.839 162.675C417.145 161.067 419.41 159.396 421.775 157.878C424.222 156.308 426.925 155.386 429.881 155.39C432.637 155.395 435.137 156.267 437.403 157.774C438.499 158.503 439.559 159.307 440.531 160.19C442.102 161.618 442.265 164.161 441.015 165.87C440.735 166.252 440.444 166.277 440.078 166.033C439.569 165.695 439.063 165.35 438.545 165.025C433.315 161.748 428.084 161.783 422.853 165.03C422.022 165.546 421.199 166.075 420.352 166.564C420.182 166.662 419.858 166.701 419.712 166.606C418.08 165.527 416.469 164.419 414.855 163.313C414.758 163.246 414.691 163.138 414.557 162.99Z" fill="url(#paint7_linear_636_775)" fill-opacity="0.5"/>
</g>
</g>
</g>
<defs>
<filter id="filter0_d_636_775" x="401.939" y="154.39" width="49.8359" height="54.5857" filterUnits="userSpaceOnUse" color-interpolation-filters="sRGB">
<feFlood flood-opacity="0" result="BackgroundImageFix"/>
<feColorMatrix in="SourceAlpha" type="matrix" values="0 0 0 0 0 0 0 0 0 0 0 0 0 0 0 0 0 0 127 0" result="hardAlpha"/>
<feOffset dy="1"/>
<feGaussianBlur stdDeviation="1"/>
<feComposite in2="hardAlpha" operator="out"/>
<feColorMatrix type="matrix" values="0 0 0 0 0 0 0 0 0 0 0 0 0 0 0 0 0 0 0.41 0"/>
<feBlend mode="normal" in2="BackgroundImageFix" result="effect1_dropShadow_636_775"/>
<feBlend mode="normal" in="SourceGraphic" in2="effect1_dropShadow_636_775" result="shape"/>
</filter>
<radialGradient id="paint0_radial_636_775" cx="0" cy="0" r="1" gradientUnits="userSpaceOnUse" gradientTransform="translate(427.167 179.5) rotate(90) scale(116.5 225.167)">
<stop stop-color="#0CFD9A"/>
<stop offset="1" stop-color="#161B19" stop-opacity="0"/>
</radialGradient>
<linearGradient id="paint1_linear_636_775" x1="427" y1="129" x2="427" y2="231" gradientUnits="userSpaceOnUse">
<stop stop-color="#202020"/>
<stop offset="1" stop-color="#1D1D1D"/>
</linearGradient>
<linearGradient id="paint2_linear_636_775" x1="427.014" y1="128.997" x2="427.014" y2="230.997" gradientUnits="userSpaceOnUse">
<stop stop-color="#757877"/>
<stop offset="1"/>
</linearGradient>
<linearGradient id="paint3_linear_636_775" x1="403.939" y1="240.661" x2="459.959" y2="123.387" gradientUnits="userSpaceOnUse">
<stop stop-opacity="0.19"/>
<stop offset="1" stop-opacity="0"/>
</linearGradient>
<linearGradient id="paint4_linear_636_775" x1="403.939" y1="240.645" x2="459.959" y2="123.371" gradientUnits="userSpaceOnUse">
<stop stop-opacity="0.19"/>
<stop offset="1" stop-opacity="0"/>
</linearGradient>
<linearGradient id="paint5_linear_636_775" x1="403.939" y1="240.655" x2="459.959" y2="123.38" gradientUnits="userSpaceOnUse">
<stop stop-opacity="0.19"/>
<stop offset="1" stop-opacity="0"/>
</linearGradient>
<linearGradient id="paint6_linear_636_775" x1="403.939" y1="240.654" x2="459.959" y2="123.38" gradientUnits="userSpaceOnUse">
<stop stop-opacity="0.19"/>
<stop offset="1" stop-opacity="0"/>
</linearGradient>
<linearGradient id="paint7_linear_636_775" x1="403.957" y1="240.654" x2="459.976" y2="123.379" gradientUnits="userSpaceOnUse">
<stop stop-opacity="0.19"/>
<stop offset="1" stop-opacity="0"/>
</linearGradient>
<clipPath id="clip0_636_775">
<rect width="854" height="360" fill="white"/>
</clipPath>
</defs>
</svg>
