<svg width="749" height="401" viewBox="0 0 749 401" fill="none" xmlns="http://www.w3.org/2000/svg">
<g clip-path="url(#clip0_1861_15542)">
<path d="M0.457031 403.031L379.794 202.08L748.005 403.031H0.457031Z" fill="url(#paint0_linear_1861_15542)"/>
<path d="M732.762 96.8125H582.939C578.191 96.8125 574.343 100.661 574.343 105.409V137.775C574.343 142.522 578.191 146.371 582.939 146.371H732.762C737.509 146.371 741.358 142.522 741.358 137.775V105.409C741.358 100.661 737.509 96.8125 732.762 96.8125Z" fill="white"/>
<path d="M732.762 96.8125H582.939C578.191 96.8125 574.343 100.661 574.343 105.409V137.775C574.343 142.522 578.191 146.371 582.939 146.371H732.762C737.509 146.371 741.358 142.522 741.358 137.775V105.409C741.358 100.661 737.509 96.8125 732.762 96.8125Z" stroke="url(#paint1_linear_1861_15542)" stroke-width="1.19202"/>
<path d="M167.932 265.379H13.7054C8.95794 265.379 5.10938 269.227 5.10938 273.975V303.132C5.10938 307.88 8.95794 311.728 13.7054 311.728H167.932C172.68 311.728 176.528 307.88 176.528 303.132V273.975C176.528 269.227 172.68 265.379 167.932 265.379Z" fill="white"/>
<path d="M167.932 265.379H13.7054C8.95794 265.379 5.10938 269.227 5.10938 273.975V303.132C5.10938 307.88 8.95794 311.728 13.7054 311.728H167.932C172.68 311.728 176.528 307.88 176.528 303.132V273.975C176.528 269.227 172.68 265.379 167.932 265.379Z" stroke="url(#paint2_linear_1861_15542)" stroke-width="1.19202"/>
<path d="M511.919 274.99V119.413L376.508 41.625M511.919 274.99L376.508 352.779L241.098 274.99M511.919 274.99L376.885 200.603M236.5 114.499L241.098 274.99M241.098 274.99L377.431 200.75M377.193 200.975V45.4088M409.419 219.707V68.6036M440.392 235.587V85.7308M475.314 254.825V106.436M343.99 218.961V68.6035M314.174 235.197V85.7821M278.095 254.843V106.436M241.622 242.283L376.898 164.182M241.622 205.532L376.898 127.43M241.622 168.78L376.898 90.6793M512.769 242.438L377.494 164.337M512.769 205.687L377.494 127.585M512.769 168.935L377.494 90.8343" stroke="url(#paint3_radial_1861_15542)" stroke-width="0.5"/>
<path d="M358.487 79.4255C359.469 79.4255 360.265 78.6294 360.265 77.6473C360.265 76.6653 359.469 75.8691 358.487 75.8691C357.505 75.8691 356.709 76.6653 356.709 77.6473C356.709 78.6294 357.505 79.4255 358.487 79.4255Z" fill="#959595"/>
<path d="M491.896 202.091C492.988 202.091 493.872 201.211 493.872 200.125C493.872 199.039 492.988 198.158 491.896 198.158C490.805 198.158 489.92 199.039 489.92 200.125C489.92 201.211 490.805 202.091 491.896 202.091Z" fill="#8B8B8B"/>
<path d="M390.402 211.558C391.494 211.558 392.378 210.677 392.378 209.591C392.378 208.505 391.494 207.625 390.402 207.625C389.311 207.625 388.426 208.505 388.426 209.591C388.426 210.677 389.311 211.558 390.402 211.558Z" fill="#3DCB8C"/>
<path d="M309.517 208.391C311.266 208.391 312.683 206.981 312.683 205.242C312.683 203.502 311.266 202.092 309.517 202.092C307.769 202.092 306.352 203.502 306.352 205.242C306.352 206.981 307.769 208.391 309.517 208.391Z" fill="#959595"/>
<path d="M480.004 282.564C481.095 282.564 481.98 281.683 481.98 280.597C481.98 279.511 481.095 278.631 480.004 278.631C478.912 278.631 478.027 279.511 478.027 280.597C478.027 281.683 478.912 282.564 480.004 282.564Z" fill="#8B8B8B"/>
<path d="M490.112 263.254C491.094 263.254 491.89 262.457 491.89 261.475C491.89 260.493 491.094 259.697 490.112 259.697C489.13 259.697 488.334 260.493 488.334 261.475C488.334 262.457 489.13 263.254 490.112 263.254Z" fill="#959595"/>
<path d="M283.754 221.026C285.064 221.026 286.126 219.969 286.126 218.666C286.126 217.362 285.064 216.305 283.754 216.305C282.443 216.305 281.381 217.362 281.381 218.666C281.381 219.969 282.443 221.026 283.754 221.026Z" fill="#8B8B8B"/>
<path d="M291.882 191.459C292.864 191.459 293.66 190.663 293.66 189.68C293.66 188.698 292.864 187.902 291.882 187.902C290.9 187.902 290.104 188.698 290.104 189.68C290.104 190.663 290.9 191.459 291.882 191.459Z" fill="#8B8B8B"/>
<path d="M442.334 303.866C444.082 303.866 445.499 302.456 445.499 300.716C445.499 298.977 444.082 297.566 442.334 297.566C440.585 297.566 439.168 298.977 439.168 300.716C439.168 302.456 440.585 303.866 442.334 303.866Z" fill="#3DCB8C"/>
<path d="M326.77 221.439C327.752 221.439 328.548 220.643 328.548 219.661C328.548 218.679 327.752 217.883 326.77 217.883C325.788 217.883 324.992 218.679 324.992 219.661C324.992 220.643 325.788 221.439 326.77 221.439Z" fill="#3DCB8C"/>
<path d="M343.619 138.974C344.71 138.974 345.595 138.093 345.595 137.007C345.595 135.921 344.71 135.041 343.619 135.041C342.527 135.041 341.643 135.921 341.643 137.007C341.643 138.093 342.527 138.974 343.619 138.974Z" fill="#8B8B8B"/>
<path d="M403.486 86.9014C404.796 86.9014 405.859 85.8444 405.859 84.5406C405.859 83.2367 404.796 82.1797 403.486 82.1797C402.176 82.1797 401.113 83.2367 401.113 84.5406C401.113 85.8444 402.176 86.9014 403.486 86.9014Z" fill="#8B8B8B"/>
<path d="M410.621 140.552C411.493 140.552 412.201 139.848 412.201 138.98C412.201 138.112 411.493 137.408 410.621 137.408C409.748 137.408 409.041 138.112 409.041 138.98C409.041 139.848 409.748 140.552 410.621 140.552Z" fill="#959595"/>
<path d="M255.209 230.493C256.957 230.493 258.374 229.083 258.374 227.343C258.374 225.604 256.957 224.193 255.209 224.193C253.46 224.193 252.043 225.604 252.043 227.343C252.043 229.083 253.46 230.493 255.209 230.493Z" fill="#8B8B8B"/>
<path d="M267.116 272.72C268.098 272.72 268.894 271.924 268.894 270.942C268.894 269.96 268.098 269.164 267.116 269.164C266.134 269.164 265.338 269.96 265.338 270.942C265.338 271.924 266.134 272.72 267.116 272.72Z" fill="#959595"/>
<path d="M400.713 200.809C402.68 200.809 404.275 199.222 404.275 197.265C404.275 195.308 402.68 193.721 400.713 193.721C398.745 193.721 397.15 195.308 397.15 197.265C397.15 199.222 398.745 200.809 400.713 200.809Z" fill="#3DCB8C"/>
<path d="M301.599 311.751C303.785 311.751 305.558 309.987 305.558 307.812C305.558 305.636 303.785 303.873 301.599 303.873C299.413 303.873 297.641 305.636 297.641 307.812C297.641 309.987 299.413 311.751 301.599 311.751Z" fill="#8B8B8B"/>
<path d="M376.527 175.267C377.837 175.267 378.9 174.21 378.9 172.906C378.9 171.602 377.837 170.545 376.527 170.545C375.217 170.545 374.154 171.602 374.154 172.906C374.154 174.21 375.217 175.267 376.527 175.267Z" fill="#3DCB8C"/>
<path d="M357.894 166.329C359.861 166.329 361.456 164.742 361.456 162.785C361.456 160.827 359.861 159.24 357.894 159.24C355.927 159.24 354.332 160.827 354.332 162.785C354.332 164.742 355.927 166.329 357.894 166.329Z" fill="#3DCB8C"/>
<path d="M366.961 243.122C367.833 243.122 368.54 242.419 368.54 241.55C368.54 240.682 367.833 239.979 366.961 239.979C366.088 239.979 365.381 240.682 365.381 241.55C365.381 242.419 366.088 243.122 366.961 243.122Z" fill="#3DCB8C"/>
<path d="M282.962 116.094C285.149 116.094 286.921 114.331 286.921 112.156C286.921 109.98 285.149 108.217 282.962 108.217C280.776 108.217 279.004 109.98 279.004 112.156C279.004 114.331 280.776 116.094 282.962 116.094Z" fill="#8B8B8B"/>
<path d="M350.379 193.354C352.346 193.354 353.941 191.767 353.941 189.81C353.941 187.852 352.346 186.266 350.379 186.266C348.411 186.266 346.816 187.852 346.816 189.81C346.816 191.767 348.411 193.354 350.379 193.354Z" fill="#3DCB8C"/>
<path d="M174.548 289.515C174.548 290.988 175.742 292.182 177.215 292.182C178.688 292.182 179.882 290.988 179.882 289.515C179.882 288.042 178.688 286.848 177.215 286.848C175.742 286.848 174.548 288.042 174.548 289.515ZM177.215 290.015H280.889V289.015H177.215V290.015Z" fill="url(#paint4_linear_1861_15542)"/>
<path d="M576.606 122.042C576.606 123.515 575.412 124.709 573.939 124.709C572.467 124.709 571.273 123.515 571.273 122.042C571.273 120.569 572.467 119.375 573.939 119.375C575.412 119.375 576.606 120.569 576.606 122.042ZM573.939 122.542H470.266V121.542H573.939V122.542Z" fill="url(#paint5_linear_1861_15542)"/>
<path fill-rule="evenodd" clip-rule="evenodd" d="M470.604 87.1402C470.798 87.3298 470.801 87.6404 470.611 87.8339L470.266 88.1866C470.076 88.3802 469.765 88.3833 469.572 88.1937C469.378 88.0041 469.375 87.6935 469.565 87.5L469.911 87.1472C470.1 86.9537 470.411 86.9505 470.604 87.1402ZM468.876 88.9039C469.07 89.0935 469.073 89.4041 468.883 89.5977L468.192 90.3032C468.002 90.4967 467.692 90.4999 467.498 90.3103C467.305 90.1206 467.302 89.8101 467.491 89.6165L468.183 88.911C468.372 88.7175 468.683 88.7143 468.876 88.9039ZM466.802 91.0205C466.996 91.2101 466.999 91.5207 466.81 91.7142L466.118 92.4197C465.929 92.6133 465.618 92.6164 465.425 92.4268C465.231 92.2372 465.228 91.9266 465.417 91.7331L466.109 91.0276C466.298 90.834 466.609 90.8309 466.802 91.0205ZM464.729 93.137C464.922 93.3266 464.925 93.6372 464.736 93.8307L464.044 94.5363C463.855 94.7298 463.544 94.7329 463.351 94.5433C463.157 94.3537 463.154 94.0432 463.344 93.8496L464.035 93.1441C464.225 92.9506 464.535 92.9474 464.729 93.137ZM462.655 95.2536C462.848 95.4432 462.852 95.7538 462.662 95.9473L461.971 96.6528C461.781 96.8463 461.471 96.8495 461.277 96.6599C461.083 96.4703 461.08 96.1597 461.27 95.9661L461.961 95.2606C462.151 95.0671 462.461 95.0639 462.655 95.2536ZM460.581 97.3701C460.775 97.5597 460.778 97.8703 460.588 98.0638L459.897 98.7693C459.707 98.9628 459.397 98.966 459.203 98.7764C459.01 98.5868 459.007 98.2762 459.196 98.0827L459.887 97.3772C460.077 97.1837 460.388 97.1805 460.581 97.3701ZM431.548 127.002C431.742 127.191 431.745 127.502 431.555 127.695L430.864 128.401C430.675 128.594 430.364 128.598 430.17 128.408C429.977 128.218 429.974 127.908 430.163 127.714L430.855 127.009C431.044 126.815 431.355 126.812 431.548 127.002ZM429.475 129.118C429.668 129.308 429.671 129.618 429.482 129.812L428.79 130.517C428.601 130.711 428.29 130.714 428.097 130.524C427.903 130.335 427.9 130.024 428.09 129.831L428.781 129.125C428.97 128.932 429.281 128.929 429.475 129.118ZM427.401 131.235C427.594 131.424 427.598 131.735 427.408 131.928L426.717 132.634C426.527 132.828 426.216 132.831 426.023 132.641C425.829 132.451 425.826 132.141 426.016 131.947L426.707 131.242C426.897 131.048 427.207 131.045 427.401 131.235ZM425.327 133.351C425.521 133.541 425.524 133.851 425.334 134.045L424.643 134.751C424.453 134.944 424.143 134.947 423.949 134.758C423.756 134.568 423.752 134.257 423.942 134.064L424.633 133.358C424.823 133.165 425.134 133.162 425.327 133.351ZM423.253 135.468C423.447 135.657 423.45 135.968 423.26 136.162L422.569 136.867C422.38 137.061 422.069 137.064 421.875 136.874C421.682 136.685 421.679 136.374 421.868 136.18L422.56 135.475C422.749 135.281 423.06 135.278 423.253 135.468ZM421.18 137.584C421.373 137.774 421.376 138.085 421.187 138.278L420.841 138.631C420.651 138.824 420.341 138.827 420.147 138.638C419.954 138.448 419.951 138.138 420.14 137.944L420.486 137.592C420.675 137.398 420.986 137.395 421.18 137.584Z" fill="url(#paint6_linear_1861_15542)"/>
<path fill-rule="evenodd" clip-rule="evenodd" d="M452.313 97.3027H438.705C433.371 97.3027 429.812 101.121 429.812 106.59V119.412C429.812 124.885 433.362 128.699 438.705 128.699H452.312C457.656 128.699 461.208 124.885 461.208 119.412V106.59C461.208 101.117 457.657 97.3027 452.313 97.3027ZM438.705 99.6575H452.313C456.317 99.6575 458.853 102.381 458.853 106.59V119.412C458.853 123.621 456.317 126.344 452.312 126.344H438.705C434.701 126.344 432.166 123.621 432.166 119.412V106.59C432.166 102.386 434.71 99.6575 438.705 99.6575Z" fill="url(#paint7_linear_1861_15542)"/>
<path d="M448.476 106.721H451.372V115.618C451.372 116.617 451.134 117.491 450.657 118.24C450.184 118.989 449.522 119.574 448.67 119.993C447.818 120.408 446.826 120.615 445.693 120.615C444.556 120.615 443.561 120.408 442.709 119.993C441.858 119.574 441.195 118.989 440.723 118.24C440.25 117.491 440.014 116.617 440.014 115.618V106.721H442.91V115.37C442.91 115.892 443.024 116.356 443.251 116.762C443.483 117.168 443.809 117.486 444.228 117.718C444.647 117.95 445.136 118.066 445.693 118.066C446.255 118.066 446.743 117.95 447.158 117.718C447.577 117.486 447.901 117.168 448.128 116.762C448.36 116.356 448.476 115.892 448.476 115.37V106.721Z" fill="url(#paint8_linear_1861_15542)"/>
<path d="M498.242 342.049V332.082H499.664L504.176 339.164H504.203V332.082H505.714V342.049H504.285L499.78 334.967H499.753V342.049H498.242Z" fill="#6D6D6D"/>
<path d="M494.492 342.049V332.082H496.003V342.049H494.492Z" fill="#6D6D6D"/>
<path d="M487.571 338.48H490.483L489.041 334.126H489.014L487.571 338.48ZM491.687 342.049L490.914 339.82H487.134L486.368 342.049H484.769L488.392 332.082H489.656L493.279 342.049H491.687Z" fill="#6D6D6D"/>
<path d="M482.045 342.049V337.694H478.101V342.049H476.59V332.082H478.101V336.354H482.045V332.082H483.556V342.049H482.045Z" fill="#6D6D6D"/>
<path d="M473.776 339.26H475.376C475.157 340.185 474.74 340.896 474.125 341.393C473.492 341.885 472.742 342.131 471.876 342.131C471.092 342.113 470.438 341.921 469.914 341.557C469.381 341.206 468.993 340.8 468.752 340.34C468.679 340.189 468.613 340.046 468.554 339.909C468.499 339.768 468.453 339.59 468.417 339.376C468.349 338.975 468.314 338.205 468.314 337.065C468.314 335.908 468.349 335.133 468.417 334.741C468.49 334.349 468.602 334.033 468.752 333.791C468.993 333.331 469.381 332.921 469.914 332.561C470.438 332.196 471.092 332.009 471.876 332C472.838 332.009 473.621 332.294 474.228 332.854C474.834 333.42 475.216 334.119 475.376 334.953H473.776C473.653 334.552 473.43 334.21 473.106 333.928C472.769 333.659 472.359 333.52 471.876 333.511C471.521 333.52 471.215 333.59 470.96 333.723C470.7 333.859 470.491 334.03 470.331 334.235C470.135 334.45 470.005 334.725 469.941 335.062C469.868 335.418 469.832 336.086 469.832 337.065C469.832 338.045 469.868 338.708 469.941 339.055C470.005 339.401 470.135 339.681 470.331 339.896C470.491 340.101 470.7 340.267 470.96 340.395C471.215 340.545 471.521 340.62 471.876 340.62C472.724 340.62 473.357 340.167 473.776 339.26Z" fill="#6D6D6D"/>
<path d="M459.75 342.049V337.947L456.749 332.082H458.349L460.461 336.505L462.573 332.082H464.173L461.172 337.947V342.049H459.75Z" fill="#6D6D6D"/>
<path d="M452.562 342.049V333.429H449.834V332.082H456.807V333.429H454.079V342.049H452.562Z" fill="#6D6D6D"/>
<path d="M447.124 342.049V332.082H448.635V342.049H447.124Z" fill="#6D6D6D"/>
<path d="M439.191 342.049V332.082H440.702V340.62H445.556V342.049H439.191Z" fill="#6D6D6D"/>
<path d="M435.441 342.049V332.082H436.952V342.049H435.441Z" fill="#6D6D6D"/>
<path d="M429.99 342.049V333.429H427.263V332.082H434.235V333.429H431.508V342.049H429.99Z" fill="#6D6D6D"/>
<path d="M419.159 338.672V332.082H420.67V338.508C420.679 339.187 420.875 339.704 421.258 340.06C421.632 340.433 422.112 340.62 422.7 340.62C423.288 340.62 423.773 340.433 424.156 340.06C424.53 339.704 424.721 339.187 424.73 338.508V332.082H426.241V338.672C426.223 339.72 425.883 340.552 425.223 341.167C424.557 341.8 423.716 342.122 422.7 342.131C421.702 342.122 420.868 341.8 420.198 341.167C419.515 340.552 419.168 339.72 419.159 338.672Z" fill="#6D6D6D"/>
<path d="M407.784 339.629C408.577 340.281 409.521 340.611 410.614 340.62C411.909 340.602 412.565 340.139 412.583 339.232C412.592 338.49 412.159 338.043 411.284 337.893C410.883 337.838 410.443 337.776 409.965 337.708C409.108 337.567 408.456 337.25 408.01 336.758C407.549 336.252 407.319 335.637 407.319 334.912C407.319 334.042 407.609 333.34 408.188 332.807C408.748 332.278 409.543 332.009 410.573 332C411.813 332.027 412.891 332.371 413.807 333.032L412.966 334.276C412.218 333.784 411.396 333.529 410.498 333.511C410.033 333.511 409.646 333.627 409.336 333.859C409.012 334.101 408.846 334.461 408.837 334.939C408.837 335.227 408.949 335.486 409.172 335.719C409.395 335.956 409.753 336.12 410.245 336.211C410.519 336.257 410.892 336.309 411.366 336.368C412.3 336.496 412.991 336.831 413.438 337.373C413.88 337.906 414.101 338.526 414.101 339.232C414.05 341.137 412.884 342.104 410.601 342.131C409.124 342.131 407.855 341.675 406.793 340.764L407.784 339.629Z" fill="#6D6D6D"/>
<path d="M402.209 342.049V333.429H399.481V332.082H406.454V333.429H403.727V342.049H402.209Z" fill="#6D6D6D"/>
<path d="M392.588 342.049V332.082H398.952V333.511H394.099V336.354H398.241V337.694H394.099V340.62H398.952V342.049H392.588Z" fill="#6D6D6D"/>
<path d="M385.886 339.95C386.027 340.137 386.209 340.29 386.433 340.408C386.656 340.549 386.918 340.62 387.219 340.62C387.62 340.629 388.003 340.49 388.367 340.203C388.545 340.062 388.684 339.875 388.784 339.643C388.889 339.419 388.941 339.139 388.941 338.802V332.082H390.452V338.952C390.434 339.955 390.106 340.729 389.468 341.276C388.834 341.837 388.098 342.122 387.26 342.131C386.102 342.104 385.239 341.671 384.669 340.832L385.886 339.95Z" fill="#6D6D6D"/>
<path d="M381.958 342.049V332.082H383.469V342.049H381.958Z" fill="#6D6D6D"/>
<path d="M373 342.049V332.082H376.486C377.835 332.091 378.847 332.652 379.521 333.764C379.763 334.137 379.916 334.529 379.979 334.939C380.03 335.35 380.055 336.058 380.055 337.065C380.055 338.136 380.016 338.884 379.938 339.308C379.902 339.522 379.847 339.713 379.774 339.882C379.697 340.046 379.604 340.217 379.494 340.395C379.202 340.864 378.797 341.251 378.277 341.557C377.762 341.885 377.131 342.049 376.384 342.049H373ZM374.511 333.511V340.62H376.315C377.163 340.62 377.778 340.331 378.161 339.752C378.33 339.538 378.437 339.267 378.482 338.938C378.523 338.615 378.544 338.009 378.544 337.12C378.544 336.254 378.523 335.634 378.482 335.261C378.428 334.887 378.298 334.584 378.093 334.352C377.674 333.773 377.081 333.493 376.315 333.511H374.511Z" fill="#6D6D6D"/>
<path d="M358.039 342.049V332.082H364.403V333.511H359.55V336.354H363.692V337.694H359.55V340.62H364.403V342.049H358.039Z" fill="#6D6D6D"/>
<path d="M350.105 342.049V332.082H351.616V340.62H356.47V342.049H350.105Z" fill="#6D6D6D"/>
<path d="M341.421 342.049V332.082H345.283C346.263 332.091 346.999 332.337 347.491 332.82C347.988 333.308 348.236 333.953 348.236 334.755C348.245 335.165 348.147 335.557 347.942 335.931C347.838 336.108 347.687 336.277 347.491 336.437C347.295 336.605 347.054 336.758 346.767 336.895V336.922C347.309 337.063 347.719 337.348 347.997 337.776C348.257 338.218 348.387 338.699 348.387 339.219C348.378 340.08 348.109 340.761 347.58 341.263C347.056 341.787 346.402 342.049 345.618 342.049H341.421ZM345.256 337.626H342.932V340.62H345.256C345.816 340.611 346.227 340.458 346.486 340.162C346.746 339.87 346.876 339.524 346.876 339.123C346.876 338.713 346.746 338.362 346.486 338.07C346.227 337.783 345.816 337.635 345.256 337.626ZM345.112 333.429H342.932V336.279H345.112C345.664 336.279 346.069 336.136 346.329 335.849C346.593 335.584 346.726 335.252 346.726 334.851C346.726 334.45 346.593 334.11 346.329 333.832C346.069 333.572 345.664 333.438 345.112 333.429Z" fill="#6D6D6D"/>
<path d="M337.672 342.049V332.082H339.183V342.049H337.672Z" fill="#6D6D6D"/>
<path d="M332.22 342.049V333.429H329.492V332.082H336.465V333.429H333.737V342.049H332.22Z" fill="#6D6D6D"/>
<path d="M324.649 338.48H327.562L326.119 334.126H326.092L324.649 338.48ZM328.765 342.049L327.992 339.82H324.212L323.446 342.049H321.847L325.47 332.082H326.734L330.357 342.049H328.765Z" fill="#6D6D6D"/>
<path d="M316.997 333.511V336.73H319.232C319.793 336.721 320.215 336.548 320.497 336.211C320.766 335.883 320.9 335.518 320.9 335.117C320.9 334.785 320.846 334.504 320.736 334.276C320.622 334.071 320.463 333.91 320.258 333.791C319.948 333.595 319.588 333.502 319.178 333.511H316.997ZM315.486 342.049V332.082H319.096C319.488 332.082 319.866 332.118 320.23 332.191C320.595 332.287 320.964 332.483 321.338 332.779C321.652 333.003 321.908 333.322 322.104 333.736C322.309 334.137 322.411 334.611 322.411 335.158C322.411 335.896 322.151 336.569 321.632 337.175C321.099 337.813 320.319 338.141 319.294 338.159H316.997V342.049H315.486Z" fill="#6D6D6D"/>
<path d="M304.736 342.049V332.082H306.158L309.016 338.576L311.818 332.082H313.247V342.049H311.736V335.835H311.702L309.617 340.62H308.359L306.274 335.835H306.247V342.049H304.736Z" fill="#6D6D6D"/>
<path d="M295.71 337.065C295.71 335.908 295.744 335.133 295.812 334.741C295.885 334.349 295.997 334.033 296.147 333.791C296.389 333.331 296.776 332.921 297.31 332.561C297.834 332.196 298.488 332.009 299.271 332C300.064 332.009 300.725 332.196 301.254 332.561C301.778 332.921 302.156 333.331 302.389 333.791C302.557 334.033 302.674 334.349 302.737 334.741C302.797 335.133 302.826 335.908 302.826 337.065C302.826 338.205 302.797 338.975 302.737 339.376C302.674 339.777 302.557 340.098 302.389 340.34C302.156 340.8 301.778 341.206 301.254 341.557C300.725 341.921 300.064 342.113 299.271 342.131C298.488 342.113 297.834 341.921 297.31 341.557C296.776 341.206 296.389 340.8 296.147 340.34C296.075 340.189 296.008 340.046 295.949 339.909C295.895 339.768 295.849 339.59 295.812 339.376C295.744 338.975 295.71 338.205 295.71 337.065ZM297.228 337.065C297.228 338.045 297.264 338.708 297.337 339.055C297.401 339.401 297.531 339.681 297.727 339.896C297.886 340.101 298.096 340.267 298.355 340.395C298.611 340.545 298.916 340.62 299.271 340.62C299.632 340.62 299.944 340.545 300.208 340.395C300.459 340.267 300.659 340.101 300.81 339.896C301.006 339.681 301.14 339.401 301.213 339.055C301.281 338.708 301.315 338.045 301.315 337.065C301.315 336.086 301.281 335.418 301.213 335.062C301.14 334.725 301.006 334.45 300.81 334.235C300.659 334.03 300.459 333.859 300.208 333.723C299.944 333.59 299.632 333.52 299.271 333.511C298.916 333.52 298.611 333.59 298.355 333.723C298.096 333.859 297.886 334.03 297.727 334.235C297.531 334.45 297.401 334.725 297.337 335.062C297.264 335.418 297.228 336.086 297.228 337.065Z" fill="#6D6D6D"/>
<path d="M293.238 339.26H294.838C294.619 340.185 294.202 340.896 293.587 341.393C292.953 341.885 292.204 342.131 291.338 342.131C290.554 342.113 289.9 341.921 289.376 341.557C288.843 341.206 288.455 340.8 288.214 340.34C288.141 340.189 288.075 340.046 288.016 339.909C287.961 339.768 287.915 339.59 287.879 339.376C287.811 338.975 287.776 338.205 287.776 337.065C287.776 335.908 287.811 335.133 287.879 334.741C287.952 334.349 288.063 334.033 288.214 333.791C288.455 333.331 288.843 332.921 289.376 332.561C289.9 332.196 290.554 332.009 291.338 332C292.299 332.009 293.083 332.294 293.689 332.854C294.296 333.42 294.678 334.119 294.838 334.953H293.238C293.115 334.552 292.892 334.21 292.568 333.928C292.231 333.659 291.821 333.52 291.338 333.511C290.982 333.52 290.677 333.59 290.422 333.723C290.162 333.859 289.952 334.03 289.793 334.235C289.597 334.45 289.467 334.725 289.403 335.062C289.33 335.418 289.294 336.086 289.294 337.065C289.294 338.045 289.33 338.708 289.403 339.055C289.467 339.401 289.597 339.681 289.793 339.896C289.952 340.101 290.162 340.267 290.422 340.395C290.677 340.545 290.982 340.62 291.338 340.62C292.186 340.62 292.819 340.167 293.238 339.26Z" fill="#6D6D6D"/>
<path d="M273.866 342.049V332.082H275.288L278.146 338.576L280.948 332.082H282.377V342.049H280.866V335.835H280.832L278.747 340.62H277.489L275.404 335.835H275.377V342.049H273.866Z" fill="#6D6D6D"/>
<path d="M268.182 342.049L264.894 332.082H266.493L268.756 339.67H268.783L271.053 332.082H272.652L269.357 342.049H268.182Z" fill="#6D6D6D"/>
<path d="M258 342.049V332.082H264.364V333.511H259.511V336.354H263.653V337.694H259.511V340.62H264.364V342.049H258Z" fill="#6D6D6D"/>
<path d="M166.932 168.559H26.8948C22.1474 168.559 18.2988 172.407 18.2988 177.155V212.832C18.2988 217.579 22.1474 221.428 26.8948 221.428H166.932C171.679 221.428 175.528 217.579 175.528 212.832V177.155C175.528 172.407 171.679 168.559 166.932 168.559Z" fill="white"/>
<path d="M166.932 168.559H26.8948C22.1474 168.559 18.2988 172.407 18.2988 177.155V212.832C18.2988 217.579 22.1474 221.428 26.8948 221.428H166.932C171.679 221.428 175.528 217.579 175.528 212.832V177.155C175.528 172.407 171.679 168.559 166.932 168.559Z" stroke="url(#paint9_linear_1861_15542)" stroke-width="1.19202"/>
<path d="M173.549 196.513C173.549 197.986 174.743 199.18 176.216 199.18C177.689 199.18 178.883 197.986 178.883 196.513C178.883 195.04 177.689 193.846 176.216 193.846C174.743 193.846 173.549 195.04 173.549 196.513ZM176.216 197.013H279.89V196.013H176.216V197.013Z" fill="url(#paint10_linear_1861_15542)"/>
<mask id="mask0_1861_15542" style="mask-type:luminance" maskUnits="userSpaceOnUse" x="28" y="179" width="31" height="32">
<path d="M58.0248 179.219H28.002V210.706H58.0248V179.219Z" fill="white"/>
</mask>
<g mask="url(#mask0_1861_15542)">
<path d="M58.0248 202.703C58.0248 202.966 58.0248 203.228 57.8883 203.49C57.6154 203.884 57.206 204.146 56.7966 204.146C56.7966 204.146 56.7966 204.146 56.6602 204.146L43.6957 210.575C43.4228 210.706 43.2863 210.706 43.0134 210.706C42.8769 210.706 42.8769 210.706 42.7405 210.706C42.7405 210.706 42.7405 210.706 42.604 210.706C42.4675 210.706 42.3311 210.706 42.1946 210.575L29.3666 204.146H29.2302C28.8208 204.146 28.4114 203.884 28.1384 203.49C28.002 203.228 28.002 202.966 28.002 202.834V202.703V187.353V187.222V187.091C28.002 186.828 28.002 186.697 28.1384 186.435C28.2749 186.303 28.4114 186.041 28.6843 186.041C28.8208 186.041 28.8208 185.91 28.9572 185.91H29.0937H29.3666L42.3311 179.481C42.4675 179.219 42.7405 179.219 42.8769 179.219H43.0134C43.0134 179.219 43.0134 179.219 43.1499 179.219C43.4228 179.219 43.5593 179.219 43.8322 179.35L56.7966 185.779C57.0696 185.779 57.206 185.91 57.4789 186.041H57.6154L57.7519 186.172L57.8883 186.303C58.0248 186.435 58.0248 186.566 58.0248 186.697V187.091V202.441V202.703ZM30.7313 200.473L32.9148 199.161C33.4606 198.767 34.2794 199.03 34.6889 199.686C35.0983 200.342 34.8253 201.129 34.2794 201.522L32.096 202.834L41.6487 207.557V196.274L39.4652 197.586C38.9194 197.98 38.1006 197.718 37.6911 197.062C37.2817 196.406 37.5547 195.618 38.1006 195.225L40.284 193.913L30.7313 189.19V200.473ZM44.378 182.499V184.467C44.378 185.254 43.8322 185.779 43.0134 185.779C42.1946 185.779 41.6487 185.254 41.6487 184.467V182.499L32.3689 187.091L41.6487 191.682V189.715C41.6487 188.927 42.1946 188.403 43.0134 188.403C43.8322 188.403 44.378 188.927 44.378 189.715V191.682L53.6579 187.091L44.378 182.499ZM55.2955 189.059L45.7428 193.782L47.9262 195.094C48.4721 195.487 48.7451 196.274 48.3356 196.93C47.9262 197.586 47.2439 197.718 46.5616 197.455L44.378 196.143V207.557L53.9308 202.834L51.7473 201.522C51.2014 200.998 50.9285 200.21 51.3379 199.554C51.7473 198.898 52.4297 198.767 53.112 199.03L55.2955 200.342V189.059Z" fill="#6166DC"/>
</g>
<path d="M75.1 203H72.7V188.82H81.52V191.08H75.1V195.06H80.86V197.28H75.1V203ZM87.4487 201.22C88.2088 201.22 88.8488 200.96 89.3688 200.4C89.8888 199.86 90.1688 199.1 90.1688 198.12C90.1688 197.16 89.8888 196.42 89.3688 195.88C88.8488 195.34 88.2088 195.06 87.4487 195.06C86.6888 195.06 86.0288 195.34 85.5087 195.88C84.9887 196.42 84.7288 197.16 84.7288 198.12C84.7288 199.08 84.9887 199.84 85.5087 200.4C86.0288 200.96 86.6888 201.22 87.4487 201.22ZM87.4487 192.96C88.9088 192.96 90.1088 193.46 91.0688 194.42C92.0287 195.4 92.5088 196.64 92.5088 198.12C92.5088 199.62 92.0287 200.86 91.0688 201.84C90.1088 202.82 88.9088 203.3 87.4487 203.3C85.9887 203.3 84.7887 202.82 83.8287 201.84C82.8687 200.86 82.4087 199.62 82.4087 198.12C82.4087 196.64 82.8687 195.4 83.8287 194.42C84.7887 193.46 85.9887 192.96 87.4487 192.96ZM101.232 201.92C100.992 202.36 100.632 202.68 100.112 202.92C99.5922 203.16 99.0522 203.28 98.4722 203.28C97.3322 203.28 96.4322 202.92 95.7722 202.18C95.1122 201.46 94.7922 200.52 94.7922 199.4V193.26H97.1122V198.98C97.1122 199.64 97.2722 200.18 97.5922 200.58C97.9122 201 98.3922 201.2 99.0722 201.2C99.7122 201.2 100.212 201 100.572 200.6C100.932 200.2 101.112 199.68 101.112 199.02V193.26H103.432V201.22C103.432 201.82 103.452 202.4 103.532 203H101.312C101.252 202.72 101.232 202.36 101.232 201.92ZM108.955 197.38V203H106.635V193.26H108.895V194.56C109.195 194.04 109.595 193.64 110.115 193.38C110.635 193.12 111.175 192.98 111.775 192.98C112.915 192.98 113.795 193.34 114.395 194.06C114.995 194.78 115.295 195.72 115.295 196.84V203H112.975V197.24C112.975 196.6 112.815 196.08 112.495 195.68C112.175 195.28 111.655 195.08 110.975 195.08C110.335 195.08 109.835 195.3 109.475 195.74C109.115 196.18 108.955 196.72 108.955 197.38ZM119.88 198.1C119.88 199.04 120.12 199.8 120.6 200.36C121.08 200.92 121.7 201.2 122.5 201.2C123.26 201.2 123.88 200.92 124.36 200.34C124.84 199.78 125.08 199.02 125.08 198.08C125.08 197.16 124.84 196.44 124.38 195.88C123.9 195.34 123.28 195.06 122.52 195.06C121.74 195.06 121.1 195.34 120.62 195.9C120.12 196.46 119.88 197.18 119.88 198.1ZM127.32 188.52V201.22C127.32 201.88 127.34 202.48 127.42 203H125.2C125.12 202.64 125.1 202.22 125.1 201.74C124.86 202.18 124.48 202.54 123.98 202.82C123.46 203.1 122.88 203.24 122.24 203.24C120.84 203.24 119.72 202.76 118.86 201.78C117.98 200.82 117.56 199.58 117.56 198.1C117.56 196.68 117.98 195.48 118.86 194.48C119.74 193.5 120.84 193 122.2 193C122.96 193 123.58 193.14 124.06 193.42C124.54 193.7 124.86 194.04 125.06 194.4V188.52H127.32ZM136.251 193.2V195.56C135.971 195.52 135.731 195.5 135.491 195.5C133.731 195.5 132.871 196.46 132.871 198.36V203H130.551V193.26H132.811V194.82C133.031 194.3 133.391 193.9 133.911 193.6C134.411 193.3 134.991 193.14 135.631 193.14C135.831 193.14 136.051 193.16 136.251 193.2ZM141.699 206.94H139.219L141.559 201.84L137.399 193.26H140.019L142.819 199.42L145.439 193.26H147.899L141.699 206.94Z" fill="#A0A0A0"/>
<path d="M644.3 130H641.92V119.56L637.5 130H635.42L631.04 119.6V130H628.7V115.82H631.9L636.5 126.64L641.04 115.82H644.3V130ZM649.285 124.06H654.065C654.025 123.46 653.805 122.94 653.405 122.52C653.005 122.12 652.425 121.9 651.665 121.9C650.965 121.9 650.405 122.12 649.985 122.56C649.545 123 649.325 123.5 649.285 124.06ZM654.325 126.6L656.285 127.22C656.005 128.12 655.465 128.86 654.705 129.44C653.945 130.02 653.005 130.3 651.885 130.3C650.485 130.3 649.305 129.84 648.345 128.88C647.385 127.94 646.905 126.68 646.905 125.08C646.905 123.6 647.365 122.36 648.305 121.4C649.245 120.44 650.365 119.96 651.645 119.96C653.125 119.96 654.305 120.42 655.145 121.34C655.985 122.26 656.405 123.48 656.405 125.02C656.405 125.44 656.385 125.68 656.345 125.76H649.225C649.245 126.5 649.505 127.1 650.025 127.58C650.545 128.06 651.165 128.3 651.885 128.3C653.125 128.3 653.945 127.74 654.325 126.6ZM661.762 117.28V120.26H663.782V122.32H661.762V126.84C661.762 127.28 661.862 127.58 662.062 127.78C662.262 127.98 662.562 128.06 663.002 128.06C663.262 128.06 663.522 128.04 663.802 127.98V129.9C663.442 130.06 662.982 130.12 662.382 130.12C661.462 130.12 660.762 129.88 660.242 129.36C659.722 128.84 659.462 128.14 659.462 127.22V122.32H657.662V120.26H658.162C658.642 120.26 659.022 120.12 659.282 119.84C659.522 119.56 659.662 119.2 659.662 118.74V117.28H661.762ZM665.785 127.36C665.785 126.54 666.045 125.88 666.585 125.38C667.125 124.88 667.845 124.56 668.725 124.42L671.225 124.04C671.705 123.98 671.945 123.74 671.945 123.34C671.945 122.9 671.785 122.56 671.485 122.28C671.165 122 670.705 121.86 670.105 121.86C669.505 121.86 669.045 122.04 668.705 122.36C668.345 122.68 668.145 123.1 668.105 123.62L665.985 123.14C666.065 122.26 666.485 121.52 667.245 120.9C667.985 120.28 668.925 119.96 670.085 119.96C671.485 119.96 672.525 120.3 673.205 120.98C673.885 121.66 674.225 122.54 674.225 123.6V128.44C674.225 129.08 674.265 129.6 674.345 130H672.185C672.105 129.8 672.085 129.4 672.085 128.76C671.445 129.8 670.445 130.3 669.085 130.3C668.085 130.3 667.285 130.02 666.685 129.44C666.085 128.86 665.785 128.16 665.785 127.36ZM669.525 128.48C670.245 128.48 670.825 128.3 671.265 127.9C671.705 127.5 671.945 126.86 671.945 125.96V125.52L669.405 125.9C668.525 126.06 668.105 126.5 668.105 127.22C668.105 127.58 668.225 127.88 668.485 128.12C668.725 128.36 669.085 128.48 669.525 128.48ZM679.53 130H677.23V120.26H679.45V121.5C679.71 121.02 680.11 120.66 680.65 120.38C681.19 120.12 681.75 119.98 682.33 119.98C682.97 119.98 683.57 120.14 684.09 120.42C684.61 120.72 684.99 121.14 685.25 121.7C685.93 120.56 686.97 119.98 688.41 119.98C689.37 119.98 690.17 120.3 690.85 120.92C691.51 121.56 691.85 122.48 691.85 123.68V130H689.61V124.06C689.61 123.46 689.45 122.98 689.13 122.62C688.81 122.26 688.35 122.06 687.73 122.06C687.13 122.06 686.63 122.28 686.27 122.68C685.89 123.1 685.71 123.62 685.71 124.22V130H683.43V124.06C683.43 123.46 683.27 122.98 682.95 122.62C682.63 122.26 682.17 122.06 681.55 122.06C680.93 122.06 680.43 122.28 680.07 122.68C679.71 123.08 679.53 123.6 679.53 124.22V130ZM694.291 127.36C694.291 126.54 694.551 125.88 695.091 125.38C695.631 124.88 696.351 124.56 697.231 124.42L699.731 124.04C700.211 123.98 700.451 123.74 700.451 123.34C700.451 122.9 700.291 122.56 699.991 122.28C699.671 122 699.211 121.86 698.611 121.86C698.011 121.86 697.551 122.04 697.211 122.36C696.851 122.68 696.651 123.1 696.611 123.62L694.491 123.14C694.571 122.26 694.991 121.52 695.751 120.9C696.491 120.28 697.431 119.96 698.591 119.96C699.991 119.96 701.031 120.3 701.711 120.98C702.391 121.66 702.731 122.54 702.731 123.6V128.44C702.731 129.08 702.771 129.6 702.851 130H700.691C700.611 129.8 700.591 129.4 700.591 128.76C699.951 129.8 698.951 130.3 697.591 130.3C696.591 130.3 695.791 130.02 695.191 129.44C694.591 128.86 694.291 128.16 694.291 127.36ZM698.031 128.48C698.751 128.48 699.331 128.3 699.771 127.9C700.211 127.5 700.451 126.86 700.451 125.96V125.52L697.911 125.9C697.031 126.06 696.611 126.5 696.611 127.22C696.611 127.58 696.731 127.88 696.991 128.12C697.231 128.36 697.591 128.48 698.031 128.48ZM704.875 127.36L706.895 126.8C706.935 127.28 707.115 127.66 707.475 127.98C707.815 128.3 708.275 128.46 708.875 128.46C709.315 128.46 709.675 128.36 709.935 128.14C710.195 127.94 710.335 127.66 710.335 127.34C710.335 126.78 709.955 126.42 709.195 126.26L707.755 125.94C706.915 125.76 706.255 125.42 705.815 124.9C705.355 124.4 705.135 123.8 705.135 123.1C705.135 122.26 705.475 121.52 706.175 120.9C706.855 120.28 707.715 119.96 708.715 119.96C709.355 119.96 709.915 120.06 710.415 120.24C710.895 120.44 711.275 120.68 711.555 120.98C711.835 121.28 712.035 121.56 712.195 121.84C712.335 122.12 712.435 122.4 712.475 122.68L710.515 123.24C710.455 122.88 710.275 122.54 709.995 122.24C709.715 121.94 709.275 121.78 708.715 121.78C708.315 121.78 707.975 121.9 707.715 122.12C707.435 122.34 707.315 122.6 707.315 122.9C707.315 123.46 707.635 123.8 708.295 123.92L709.775 124.22C710.675 124.42 711.375 124.78 711.855 125.3C712.335 125.82 712.575 126.46 712.575 127.18C712.575 128 712.235 128.72 711.595 129.36C710.955 130 710.055 130.3 708.895 130.3C708.215 130.3 707.615 130.2 707.095 130C706.575 129.8 706.155 129.56 705.855 129.24C705.555 128.92 705.315 128.62 705.155 128.3C704.995 127.98 704.895 127.68 704.875 127.36ZM724.196 120.26L720.196 124.38L724.276 130H721.436L718.576 126.02L717.376 127.28V130H715.076V115.52H717.376V124.2L721.116 120.26H724.196Z" fill="#A0A0A0"/>
<path d="M76.02 286.14L73.86 286.82C73.76 286.28 73.48 285.78 73.04 285.32C72.58 284.88 71.92 284.64 71.08 284.64C70.36 284.64 69.78 284.84 69.32 285.24C68.86 285.64 68.64 286.12 68.64 286.68C68.64 287.66 69.18 288.26 70.3 288.5L72.34 288.92C73.56 289.16 74.5 289.66 75.18 290.38C75.84 291.12 76.18 292 76.18 293C76.18 294.18 75.72 295.2 74.82 296.04C73.92 296.88 72.7 297.3 71.16 297.3C69.48 297.3 68.18 296.88 67.26 296C66.32 295.12 65.8 294.1 65.68 292.94L67.92 292.3C68 293.1 68.32 293.78 68.88 294.32C69.44 294.88 70.2 295.14 71.16 295.14C71.98 295.14 72.62 294.96 73.06 294.6C73.5 294.24 73.74 293.76 73.74 293.18C73.74 292.72 73.56 292.32 73.24 291.98C72.9 291.64 72.44 291.4 71.84 291.26L69.84 290.84C68.72 290.62 67.84 290.16 67.2 289.46C66.56 288.78 66.24 287.9 66.24 286.86C66.24 285.68 66.7 284.66 67.66 283.8C68.6 282.96 69.74 282.52 71.06 282.52C72.56 282.52 73.72 282.9 74.52 283.62C75.32 284.34 75.82 285.18 76.02 286.14ZM82.8159 295.22C83.5759 295.22 84.2159 294.96 84.7359 294.4C85.2559 293.86 85.5359 293.1 85.5359 292.12C85.5359 291.16 85.2559 290.42 84.7359 289.88C84.2159 289.34 83.5759 289.06 82.8159 289.06C82.0559 289.06 81.3959 289.34 80.8759 289.88C80.3559 290.42 80.0959 291.16 80.0959 292.12C80.0959 293.08 80.3559 293.84 80.8759 294.4C81.3959 294.96 82.0559 295.22 82.8159 295.22ZM82.8159 286.96C84.2759 286.96 85.4759 287.46 86.4359 288.42C87.3959 289.4 87.8759 290.64 87.8759 292.12C87.8759 293.62 87.3959 294.86 86.4359 295.84C85.4759 296.82 84.2759 297.3 82.8159 297.3C81.3559 297.3 80.1559 296.82 79.1959 295.84C78.2359 294.86 77.7759 293.62 77.7759 292.12C77.7759 290.64 78.2359 289.4 79.1959 288.42C80.1559 287.46 81.3559 286.96 82.8159 286.96ZM96.5994 295.92C96.3594 296.36 95.9994 296.68 95.4794 296.92C94.9594 297.16 94.4194 297.28 93.8394 297.28C92.6994 297.28 91.7994 296.92 91.1394 296.18C90.4794 295.46 90.1594 294.52 90.1594 293.4V287.26H92.4794V292.98C92.4794 293.64 92.6394 294.18 92.9594 294.58C93.2794 295 93.7594 295.2 94.4394 295.2C95.0794 295.2 95.5794 295 95.9394 294.6C96.2994 294.2 96.4794 293.68 96.4794 293.02V287.26H98.7994V295.22C98.7994 295.82 98.8194 296.4 98.8994 297H96.6794C96.6194 296.72 96.5994 296.36 96.5994 295.92ZM107.702 287.2V289.56C107.422 289.52 107.182 289.5 106.942 289.5C105.182 289.5 104.322 290.46 104.322 292.36V297H102.002V287.26H104.262V288.82C104.482 288.3 104.842 287.9 105.362 287.6C105.862 287.3 106.442 287.14 107.082 287.14C107.282 287.14 107.502 287.16 107.702 287.2ZM113.981 289.1C113.221 289.1 112.601 289.38 112.081 289.92C111.561 290.46 111.301 291.2 111.301 292.12C111.301 293.08 111.561 293.82 112.081 294.36C112.601 294.92 113.261 295.18 114.021 295.18C114.701 295.18 115.241 295 115.641 294.64C116.041 294.28 116.321 293.86 116.461 293.38L118.501 294.12C118.221 295 117.701 295.74 116.941 296.36C116.181 297 115.201 297.3 114.021 297.3C112.581 297.3 111.381 296.82 110.421 295.82C109.461 294.84 108.981 293.6 108.981 292.12C108.981 290.64 109.441 289.4 110.401 288.42C111.361 287.46 112.541 286.96 113.961 286.96C115.161 286.96 116.161 287.28 116.921 287.9C117.681 288.54 118.181 289.28 118.421 290.16L116.341 290.92C116.201 290.42 115.941 290 115.561 289.64C115.181 289.28 114.661 289.1 113.981 289.1ZM123.062 297H120.762V287.26H123.062V297ZM120.402 283.84C120.402 283.44 120.542 283.08 120.842 282.78C121.122 282.48 121.482 282.32 121.902 282.32C122.322 282.32 122.682 282.48 122.982 282.76C123.262 283.06 123.422 283.42 123.422 283.84C123.422 284.26 123.262 284.62 122.982 284.9C122.682 285.2 122.322 285.34 121.902 285.34C121.482 285.34 121.122 285.2 120.842 284.9C120.542 284.62 120.402 284.26 120.402 283.84ZM130.575 284.5C130.175 284.5 129.835 284.62 129.555 284.84C129.275 285.06 129.135 285.44 129.135 285.98V287.26H131.395V289.28H129.135V297H126.795V289.28H125.095V287.26H126.795V285.92C126.795 284.84 127.095 284 127.735 283.36C128.355 282.74 129.175 282.42 130.195 282.42C130.735 282.42 131.135 282.5 131.415 282.62V284.6C131.175 284.54 130.895 284.5 130.575 284.5ZM136.798 300.94H134.318L136.658 295.84L132.498 287.26H135.118L137.918 293.42L140.538 287.26H142.998L136.798 300.94Z" fill="#A0A0A0"/>
<mask id="mask1_1861_15542" style="mask-type:luminance" maskUnits="userSpaceOnUse" x="10" y="265" width="48" height="48">
<path d="M58 265H10V313H58V265Z" fill="white"/>
</mask>
<g mask="url(#mask1_1861_15542)">
<path d="M27.5459 298.725C27.6486 298.819 27.777 298.87 27.8969 298.87C28.0166 298.87 28.1535 298.819 28.2478 298.725L29.429 297.595C29.5317 297.501 29.5916 297.364 29.5916 297.227C29.5916 297.09 29.5317 296.953 29.429 296.859L21.2291 289.027L29.429 281.195C29.5317 281.101 29.5916 280.964 29.5916 280.827C29.5916 280.69 29.5317 280.553 29.429 280.459L28.2478 279.329C28.1451 279.235 28.0253 279.184 27.8969 279.184C27.7684 279.184 27.6401 279.235 27.5459 279.329L17.771 288.659C17.6683 288.753 17.6084 288.89 17.6084 289.027C17.6084 289.164 17.6683 289.301 17.771 289.395L27.5459 298.725ZM46.8645 289.027L38.6645 296.859C38.5619 296.953 38.502 297.09 38.502 297.227C38.502 297.364 38.5619 297.501 38.6645 297.595L39.8458 298.725C39.9485 298.819 40.077 298.87 40.1967 298.87C40.3165 298.87 40.4535 298.819 40.5476 298.725L50.3226 289.395C50.4252 289.301 50.4851 289.164 50.4851 289.027C50.4851 288.89 50.4252 288.753 50.3226 288.659L40.5476 279.329C40.445 279.235 40.3165 279.184 40.1967 279.184C40.0683 279.184 39.9399 279.235 39.8458 279.329L38.6645 280.459C38.5619 280.553 38.502 280.69 38.502 280.827C38.502 280.964 38.5619 281.101 38.6645 281.195L46.8645 289.027Z" fill="#C5D5EA"/>
<path d="M27.477 288.069C27.4684 288.403 27.5969 288.719 27.8365 288.959L27.8451 288.968C28.0761 289.199 28.3757 289.327 28.701 289.327C29.0006 289.327 29.283 289.216 29.5055 289.019L32.8351 286.057V295.139C32.8351 295.806 33.383 296.354 34.0507 296.354C34.7182 296.354 35.2661 295.806 35.2661 295.139V286.049L38.5956 289.01C38.8182 289.207 39.1092 289.318 39.4003 289.318C39.7255 289.318 40.0336 289.19 40.2647 288.959L40.2733 288.95C40.513 288.711 40.6329 288.403 40.6329 288.06C40.6242 287.726 40.4873 287.418 40.2391 287.187L34.8637 282.248C34.6412 282.043 34.3502 281.932 34.0507 281.932C33.751 281.932 33.4601 282.043 33.2374 282.248L27.8621 287.187C27.6225 287.427 27.477 287.735 27.477 288.069Z" fill="#C5D5EA"/>
</g>
<path d="M614.971 109.012L603.729 117.362L605.808 112.435L614.971 109.012Z" fill="#E2761B" stroke="#E2761B" stroke-linecap="round" stroke-linejoin="round"/>
<path d="M589.017 109.012L600.169 117.441L598.192 112.435L589.017 109.012ZM610.926 128.368L607.932 132.955L614.339 134.718L616.18 128.469L610.926 128.368ZM587.83 128.469L589.661 134.718L596.067 132.955L593.073 128.368L587.83 128.469Z" fill="#E4761B" stroke="#E4761B" stroke-linecap="round" stroke-linejoin="round"/>
<path d="M595.706 120.616L593.921 123.316L600.282 123.599L600.056 116.763L595.706 120.616ZM608.282 120.616L603.876 116.684L603.729 123.599L610.079 123.316L608.282 120.616ZM596.068 132.955L599.887 131.09L596.588 128.514L596.068 132.955ZM604.102 131.09L607.932 132.955L607.401 128.514L604.102 131.09Z" fill="#E4761B" stroke="#E4761B" stroke-linecap="round" stroke-linejoin="round"/>
<path d="M607.932 132.954L604.101 131.09L604.406 133.587L604.372 134.638L607.932 132.954ZM596.067 132.954L599.627 134.638L599.604 133.587L599.887 131.09L596.067 132.954Z" fill="#D7C1B3" stroke="#D7C1B3" stroke-linecap="round" stroke-linejoin="round"/>
<path d="M596.068 132.955L596.61 128.367L593.073 128.469L596.068 132.955ZM607.39 128.367L607.932 132.955L610.926 128.469L607.39 128.367ZM610.079 123.316L603.729 123.599L604.316 126.864L605.254 124.898L607.514 125.927L610.079 123.316ZM596.497 125.927L598.757 124.898L599.683 126.864L600.282 123.599L593.921 123.316L596.497 125.927Z" fill="#CD6116" stroke="#CD6116" stroke-linecap="round" stroke-linejoin="round"/>
<path d="M599.684 127.865L596.497 126.927L598.746 125.898L599.684 127.865ZM604.305 127.865L605.243 125.898L607.503 126.927L604.305 127.865Z" fill="#233447" stroke="#233447" stroke-width="2" stroke-linecap="round" stroke-linejoin="round"/>
<path d="M593.921 123.316L596.588 128.514L596.497 125.927L593.921 123.316ZM607.514 125.927L607.401 128.514L610.079 123.316L607.514 125.927ZM600.282 123.599L599.684 126.864L600.429 130.718L600.599 125.644L600.282 123.599ZM603.729 123.599L603.424 125.633L603.559 130.718L604.316 126.864L603.729 123.599Z" fill="#E4751F" stroke="#E4751F" stroke-linecap="round" stroke-linejoin="round"/>
<path d="M604.316 126.864L603.559 130.717L604.102 131.09L607.401 128.513L607.514 125.926L604.316 126.864ZM596.497 125.926L596.587 128.513L599.887 131.09L600.429 130.717L599.684 126.864L596.497 125.926Z" fill="#F6851B" stroke="#F6851B" stroke-linecap="round" stroke-linejoin="round"/>
<path d="M604.372 134.639L604.406 133.588L604.124 133.339H599.864L599.604 133.588L599.627 134.639L596.067 132.955L597.31 133.972L599.83 135.723H604.158L606.689 133.972L607.932 132.955L604.372 134.639Z" fill="#C0AD9E" stroke="#C0AD9E" stroke-linecap="round" stroke-linejoin="round"/>
<path d="M604.102 131.09L603.559 130.717H600.429L599.887 131.09L599.604 133.587L599.864 133.338H604.124L604.407 133.587L604.102 131.09Z" fill="#161616" stroke="#161616" stroke-linecap="round" stroke-linejoin="round"/>
<path d="M615.446 117.904L616.406 113.294L614.971 109.012L604.101 117.08L608.282 120.616L614.192 122.345L615.502 120.82L614.937 120.413L615.841 119.588L615.141 119.046L616.045 118.356L615.446 117.904ZM587.593 113.294L588.553 117.904L587.943 118.356L588.847 119.046L588.158 119.588L589.062 120.413L588.497 120.82L589.796 122.345L595.706 120.616L599.887 117.08L589.017 109.012L587.593 113.294Z" fill="#763D16" stroke="#763D16" stroke-linecap="round" stroke-linejoin="round"/>
<path d="M614.192 122.345L608.282 120.616L610.079 123.317L607.401 128.515L610.926 128.469H616.18L614.192 122.345ZM595.706 120.616L589.796 122.345L587.83 128.469H593.073L596.587 128.515L593.92 123.317L595.706 120.616ZM603.728 123.599L604.101 117.08L605.819 112.436H598.192L599.887 117.08L600.282 123.599L600.418 125.656L600.429 130.718H603.559L603.581 125.656L603.728 123.599Z" fill="#F6851B" stroke="#F6851B" stroke-linecap="round" stroke-linejoin="round"/>
<path d="M168.823 85H14.596C9.84856 85 6 88.8486 6 93.596V122.754C6 127.501 9.84856 131.35 14.596 131.35H168.823C173.57 131.35 177.419 127.501 177.419 122.754V93.596C177.419 88.8486 173.57 85 168.823 85Z" fill="white"/>
<path d="M168.823 85H14.596C9.84856 85 6 88.8486 6 93.596V122.754C6 127.501 9.84856 131.35 14.596 131.35H168.823C173.57 131.35 177.419 127.501 177.419 122.754V93.596C177.419 88.8486 173.57 85 168.823 85Z" stroke="url(#paint11_linear_1861_15542)" stroke-width="1.19202"/>
<path d="M81.18 116H78.76V109.94H72.1V116H69.7V101.82H72.1V107.68H78.76V101.82H81.18V116ZM83.9242 113.36C83.9242 112.54 84.1842 111.88 84.7242 111.38C85.2642 110.88 85.9842 110.56 86.8642 110.42L89.3642 110.04C89.8442 109.98 90.0842 109.74 90.0842 109.34C90.0842 108.9 89.9242 108.56 89.6242 108.28C89.3042 108 88.8442 107.86 88.2442 107.86C87.6442 107.86 87.1842 108.04 86.8442 108.36C86.4842 108.68 86.2842 109.1 86.2442 109.62L84.1242 109.14C84.2042 108.26 84.6242 107.52 85.3842 106.9C86.1242 106.28 87.0642 105.96 88.2242 105.96C89.6242 105.96 90.6642 106.3 91.3442 106.98C92.0242 107.66 92.3642 108.54 92.3642 109.6V114.44C92.3642 115.08 92.4042 115.6 92.4842 116H90.3242C90.2442 115.8 90.2242 115.4 90.2242 114.76C89.5842 115.8 88.5842 116.3 87.2242 116.3C86.2242 116.3 85.4242 116.02 84.8242 115.44C84.2242 114.86 83.9242 114.16 83.9242 113.36ZM87.6642 114.48C88.3842 114.48 88.9642 114.3 89.4042 113.9C89.8442 113.5 90.0842 112.86 90.0842 111.96V111.52L87.5442 111.9C86.6642 112.06 86.2442 112.5 86.2442 113.22C86.2442 113.58 86.3642 113.88 86.6242 114.12C86.8642 114.36 87.2242 114.48 87.6642 114.48ZM101.069 106.2V108.56C100.789 108.52 100.549 108.5 100.309 108.5C98.5487 108.5 97.6887 109.46 97.6887 111.36V116H95.3687V106.26H97.6287V107.82C97.8487 107.3 98.2087 106.9 98.7287 106.6C99.2287 106.3 99.8088 106.14 100.449 106.14C100.649 106.14 100.869 106.16 101.069 106.2ZM104.668 111.1C104.668 112.04 104.908 112.8 105.388 113.36C105.868 113.92 106.488 114.2 107.288 114.2C108.048 114.2 108.668 113.92 109.148 113.34C109.628 112.78 109.868 112.02 109.868 111.08C109.868 110.16 109.628 109.44 109.168 108.88C108.688 108.34 108.068 108.06 107.308 108.06C106.528 108.06 105.888 108.34 105.408 108.9C104.908 109.46 104.668 110.18 104.668 111.1ZM112.108 101.52V114.22C112.108 114.88 112.128 115.48 112.208 116H109.988C109.908 115.64 109.888 115.22 109.888 114.74C109.648 115.18 109.268 115.54 108.768 115.82C108.248 116.1 107.668 116.24 107.028 116.24C105.628 116.24 104.508 115.76 103.648 114.78C102.768 113.82 102.348 112.58 102.348 111.1C102.348 109.68 102.768 108.48 103.648 107.48C104.528 106.5 105.628 106 106.988 106C107.748 106 108.368 106.14 108.848 106.42C109.328 106.7 109.648 107.04 109.848 107.4V101.52H112.108ZM117.659 110.28V116H115.339V101.52H117.659V107.2C118.279 106.4 119.199 105.98 120.439 105.98C121.579 105.98 122.459 106.34 123.079 107.06C123.679 107.78 123.999 108.72 123.999 109.84V116H121.679V110.24C121.679 109.6 121.519 109.08 121.199 108.68C120.879 108.28 120.359 108.08 119.679 108.08C119.059 108.08 118.579 108.3 118.219 108.7C117.859 109.12 117.679 109.64 117.659 110.28ZM126.423 113.36C126.423 112.54 126.683 111.88 127.223 111.38C127.763 110.88 128.483 110.56 129.363 110.42L131.863 110.04C132.343 109.98 132.583 109.74 132.583 109.34C132.583 108.9 132.423 108.56 132.123 108.28C131.803 108 131.343 107.86 130.743 107.86C130.143 107.86 129.683 108.04 129.343 108.36C128.983 108.68 128.783 109.1 128.743 109.62L126.623 109.14C126.703 108.26 127.123 107.52 127.883 106.9C128.623 106.28 129.563 105.96 130.723 105.96C132.123 105.96 133.163 106.3 133.843 106.98C134.523 107.66 134.863 108.54 134.863 109.6V114.44C134.863 115.08 134.903 115.6 134.983 116H132.823C132.743 115.8 132.723 115.4 132.723 114.76C132.083 115.8 131.083 116.3 129.723 116.3C128.723 116.3 127.923 116.02 127.323 115.44C126.723 114.86 126.423 114.16 126.423 113.36ZM130.163 114.48C130.883 114.48 131.463 114.3 131.903 113.9C132.343 113.5 132.583 112.86 132.583 111.96V111.52L130.043 111.9C129.163 112.06 128.743 112.5 128.743 113.22C128.743 113.58 128.863 113.88 129.123 114.12C129.363 114.36 129.723 114.48 130.163 114.48ZM140.769 103.28V106.26H142.789V108.32H140.769V112.84C140.769 113.28 140.869 113.58 141.069 113.78C141.269 113.98 141.569 114.06 142.009 114.06C142.269 114.06 142.529 114.04 142.809 113.98V115.9C142.449 116.06 141.989 116.12 141.389 116.12C140.469 116.12 139.769 115.88 139.249 115.36C138.729 114.84 138.469 114.14 138.469 113.22V108.32H136.669V106.26H137.169C137.649 106.26 138.029 106.12 138.289 105.84C138.529 105.56 138.669 105.2 138.669 104.74V103.28H140.769Z" fill="#A0A0A0"/>
<path d="M53.0751 115.6C53.0751 115.6 47.8552 114.827 45.0969 114.605C42.448 114.392 39.309 114.27 35.9415 114.27C32.5739 114.27 29.4349 114.392 26.7868 114.605C24.0277 114.83 18.8086 115.903 18.8086 115.903V117.252C18.8086 118.451 26.4796 119.425 35.9415 119.425C45.4034 119.425 53.0744 118.451 53.0744 117.252L53.0751 115.6Z" fill="#F0D50C"/>
<path d="M30.6747 97.7109C24.4185 99.9401 20.2406 105.864 20.2402 112.505V114.729C22.4728 114.196 24.7491 113.866 27.0412 113.743C27.0257 113.316 27.0177 112.887 27.0172 112.453C27.0195 106.618 28.4282 101.366 30.6747 97.7109Z" fill="#F0D50C"/>
<path d="M51.6446 112.504C51.65 108.86 50.3823 105.329 48.0605 102.52C49.067 105.734 49.5686 109.086 49.5472 112.454C49.5472 113.067 49.5315 113.673 49.5 114.272C50.2145 114.382 50.9222 114.532 51.6199 114.722L51.6446 112.504Z" fill="#FFF04D"/>
<path d="M51.6446 112.504C51.65 108.86 50.3823 105.329 48.0605 102.52C49.067 105.734 49.5686 109.086 49.5472 112.454C49.5472 113.067 49.5315 113.673 49.5 114.272C50.2145 114.382 50.9222 114.532 51.6199 114.722L51.6446 112.504Z" fill="#FFEA00"/>
<path d="M48.0602 102.521C43.8534 97.4211 36.905 95.4993 30.6756 97.7122C28.4275 101.367 27.0195 106.619 27.0195 112.455C27.0195 112.889 27.0275 113.318 27.0435 113.745C29.3815 113.564 32.0881 113.453 34.9865 113.433C34.9865 113.433 35.6452 113.433 35.9442 113.433C40.4778 113.378 45.0093 113.66 49.5012 114.277C49.5316 113.678 49.5474 113.072 49.5484 112.459C49.5696 109.089 49.0676 105.737 48.0602 102.521Z" fill="#FFF04D"/>
<path d="M42.2578 103.558L41.2627 97.3384C41.192 96.8808 40.8641 96.5049 40.4204 96.3725C37.521 95.5217 34.4381 95.5217 31.5385 96.3725C31.0951 96.5051 30.7676 96.881 30.6971 97.3384L29.7012 103.558" fill="#FFF04D"/>
<path d="M35.9438 113.301C35.6441 113.301 35.3466 113.301 35.0513 113.301H35.0184H34.9854C25.9686 113.364 18.8102 114.311 18.8102 115.47V117.15C18.7956 117.249 18.8166 117.349 18.8694 117.433C19.3273 117.089 19.8537 116.848 20.413 116.724C21.8375 116.378 23.2853 116.135 24.7449 115.999C25.5739 115.908 26.402 116.179 27.0177 116.741C28.145 117.773 29.6181 118.345 31.1465 118.345H40.7381C42.2665 118.345 43.7395 117.773 44.8669 116.741C45.4826 116.178 46.311 115.907 47.1405 115.998C48.5999 116.135 50.0474 116.377 51.4716 116.724C52.0013 116.826 52.5015 117.044 52.9358 117.364C52.9606 117.389 52.9891 117.411 53.0107 117.433C53.064 117.349 53.0852 117.248 53.0707 117.149V115.469C53.076 114.273 45.405 113.301 35.9438 113.301Z" fill="#FFF04D"/>
<path d="M39.5528 108.309L35.9395 110.533V113.421L39.5528 108.309Z" fill="#6E6F70"/>
<path d="M35.9414 113.421V110.533L32.3281 108.309L35.9414 113.421Z" fill="#0A0A0A"/>
<path d="M32.3281 106.991L35.9414 109.08V101.146L32.3281 106.991Z" fill="#0A0A0A"/>
<path d="M39.5528 106.989L35.9395 101.145V104.9V109.078L39.5528 106.989V106.989Z" fill="#6E6F70"/>
<path d="M174.548 109.515C174.548 110.988 175.742 112.182 177.215 112.182C178.688 112.182 179.882 110.988 179.882 109.515C179.882 108.042 178.688 106.848 177.215 106.848C175.742 106.848 174.548 108.042 174.548 109.515ZM177.215 110.015H280.889V109.015H177.215V110.015Z" fill="url(#paint12_linear_1861_15542)"/>
<path d="M735.823 281H581.596C576.849 281 573 284.849 573 289.596V318.754C573 323.501 576.849 327.35 581.596 327.35H735.823C740.57 327.35 744.419 323.501 744.419 318.754V289.596C744.419 284.849 740.57 281 735.823 281Z" fill="white"/>
<path d="M735.823 281H581.596C576.849 281 573 284.849 573 289.596V318.754C573 323.501 576.849 327.35 581.596 327.35H735.823C740.57 327.35 744.419 323.501 744.419 318.754V289.596C744.419 284.849 740.57 281 735.823 281Z" stroke="url(#paint13_linear_1861_15542)" stroke-width="1.19202"/>
<path d="M608.95 320.488C617.425 320.488 624.295 313.537 624.295 304.963C624.295 296.39 617.425 289.439 608.95 289.439C600.476 289.439 593.605 296.39 593.605 304.963C593.605 313.537 600.476 320.488 608.95 320.488Z" fill="#5E464D"/>
<path d="M604.125 318.728C604.753 318.943 606.861 319.628 606.951 318.958C606.999 318.59 605.887 318.213 604.381 317.415C602.238 316.283 600.279 314.835 598.567 313.12C596.069 310.67 594.632 307.338 594.567 303.84C594.439 299.143 596.275 295.347 599.295 292.896C597.471 294.304 595.985 296.101 594.944 298.155C593.903 300.21 593.333 302.471 593.276 304.774C593.187 308.171 594.137 311.033 595.921 313.638C596.475 314.354 597.123 314.992 597.847 315.535C599.556 316.828 602.057 318.025 604.125 318.727" fill="white"/>
<path d="M624.506 301.406C623.555 296.932 620.597 293.799 616.641 291.586C619.661 293.74 623.924 298.319 621.413 302.359C619.286 305.595 614.11 304.961 611.283 303.423C607.921 301.599 603.71 297.496 607.864 293.483C610.552 290.887 619.111 293.798 617.605 297.678C616.726 299.935 613.306 299.433 611.768 298.33C610.634 297.515 609.68 296.115 610.185 294.67C610.347 294.207 610.324 293.488 609.669 294.017C609.181 294.412 608.935 295.062 608.85 295.667C608.134 300.727 617.149 304.65 619.822 299.754C621.211 297.213 618.962 293.523 616.13 292.012C614.002 290.872 611.786 290.071 609.074 290.265C604.733 290.569 601.09 293.29 600.634 297.725C600.178 302.133 603.125 306.1 606.595 308.472C610.242 310.965 615.145 312.608 619.632 311.121C623.654 309.788 625.315 305.172 624.506 301.405" fill="white"/>
<path d="M618.847 297.978C619.278 295.078 616.656 293.087 614.235 292.182C611.381 291.118 607.61 291.584 605.531 293.947C604.011 295.683 604.11 298.203 604.894 300.242C606.08 303.323 608.756 305.55 611.872 306.512C614.085 307.196 616.763 307.494 619.006 306.772C622.279 305.718 623.344 302.306 622.668 299.18C622.523 298.504 622.3 297.847 622.005 297.222C621.592 296.354 620.333 294.597 622.07 296.737C622.253 296.976 622.422 297.225 622.575 297.484C622.935 298.075 623.22 298.709 623.425 299.37C624.376 302.288 623.63 305.693 620.993 307.454C618.97 308.802 616.398 308.963 614.051 308.626C610.905 308.17 607.94 306.65 605.879 304.205C603.997 301.975 602.713 298.773 603.487 295.845C604.054 293.704 605.792 292.105 607.875 291.438C610.509 290.585 613.407 290.982 615.778 292.366C616.967 293.058 618.058 294.015 618.658 295.271C618.933 295.836 619.081 296.455 619.091 297.084C619.097 297.339 619.077 297.593 619.032 297.844C619.015 297.935 618.822 298.192 618.85 297.981" fill="#3FE0C5"/>
<path d="M650.88 300.08H646.26V312H643.86V300.08H639.26V297.82H650.88V300.08ZM657.201 302.2V304.56C656.921 304.52 656.681 304.5 656.441 304.5C654.681 304.5 653.821 305.46 653.821 307.36V312H651.501V302.26H653.761V303.82C653.981 303.3 654.341 302.9 654.861 302.6C655.361 302.3 655.941 302.14 656.581 302.14C656.781 302.14 657.001 302.16 657.201 302.2ZM665.697 310.92C665.457 311.36 665.097 311.68 664.577 311.92C664.057 312.16 663.517 312.28 662.937 312.28C661.797 312.28 660.897 311.92 660.237 311.18C659.577 310.46 659.257 309.52 659.257 308.4V302.26H661.577V307.98C661.577 308.64 661.737 309.18 662.057 309.58C662.377 310 662.857 310.2 663.537 310.2C664.177 310.2 664.677 310 665.037 309.6C665.397 309.2 665.577 308.68 665.577 308.02V302.26H667.897V310.22C667.897 310.82 667.917 311.4 667.997 312H665.777C665.717 311.72 665.697 311.36 665.697 310.92ZM681.82 299.5C681.44 299.5 681.1 299.62 680.82 299.84C680.52 300.08 680.38 300.46 680.38 300.98V302.26H684.6V297.52H686.9V312H684.6V304.28H680.38V312H678.04V304.28H673.98V312H671.64V304.28H669.94V302.26H671.64V300.92C671.64 299.84 671.94 299 672.58 298.36C673.2 297.74 674.02 297.42 675.04 297.42C675.58 297.42 675.98 297.5 676.26 297.62V299.6C676.02 299.54 675.74 299.5 675.42 299.5C675.04 299.5 674.7 299.62 674.42 299.84C674.12 300.08 673.98 300.46 673.98 300.98V302.26H678.04V300.92C678.04 299.84 678.34 299 678.98 298.36C679.6 297.74 680.42 297.42 681.44 297.42C681.98 297.42 682.38 297.5 682.66 297.62V299.6C682.42 299.54 682.14 299.5 681.82 299.5ZM691.729 306.06H696.509C696.469 305.46 696.249 304.94 695.849 304.52C695.449 304.12 694.869 303.9 694.109 303.9C693.409 303.9 692.849 304.12 692.429 304.56C691.989 305 691.769 305.5 691.729 306.06ZM696.769 308.6L698.729 309.22C698.449 310.12 697.909 310.86 697.149 311.44C696.389 312.02 695.449 312.3 694.329 312.3C692.929 312.3 691.749 311.84 690.789 310.88C689.829 309.94 689.349 308.68 689.349 307.08C689.349 305.6 689.809 304.36 690.749 303.4C691.689 302.44 692.809 301.96 694.089 301.96C695.569 301.96 696.749 302.42 697.589 303.34C698.429 304.26 698.849 305.48 698.849 307.02C698.849 307.44 698.829 307.68 698.789 307.76H691.669C691.689 308.5 691.949 309.1 692.469 309.58C692.989 310.06 693.609 310.3 694.329 310.3C695.569 310.3 696.389 309.74 696.769 308.6Z" fill="#A0A0A0"/>
<path d="M574.606 304.091C574.606 305.563 573.412 306.757 571.939 306.757C570.467 306.757 569.273 305.563 569.273 304.091C569.273 302.618 570.467 301.424 571.939 301.424C573.412 301.424 574.606 302.618 574.606 304.091ZM571.939 304.591H468.266V303.591H571.939V304.591Z" fill="url(#paint14_linear_1861_15542)"/>
<path d="M735.823 188H581.596C576.849 188 573 191.849 573 196.596V225.754C573 230.501 576.849 234.35 581.596 234.35H735.823C740.57 234.35 744.419 230.501 744.419 225.754V196.596C744.419 191.849 740.57 188 735.823 188Z" fill="white"/>
<path d="M735.823 188H581.596C576.849 188 573 191.849 573 196.596V225.754C573 230.501 576.849 234.35 581.596 234.35H735.823C740.57 234.35 744.419 230.501 744.419 225.754V196.596C744.419 191.849 740.57 188 735.823 188Z" stroke="url(#paint15_linear_1861_15542)" stroke-width="1.19202"/>
<path d="M647.02 208.14L644.86 208.82C644.76 208.28 644.48 207.78 644.04 207.32C643.58 206.88 642.92 206.64 642.08 206.64C641.36 206.64 640.78 206.84 640.32 207.24C639.86 207.64 639.64 208.12 639.64 208.68C639.64 209.66 640.18 210.26 641.3 210.5L643.34 210.92C644.56 211.16 645.5 211.66 646.18 212.38C646.84 213.12 647.18 214 647.18 215C647.18 216.18 646.72 217.2 645.82 218.04C644.92 218.88 643.7 219.3 642.16 219.3C640.48 219.3 639.18 218.88 638.26 218C637.32 217.12 636.8 216.1 636.68 214.94L638.92 214.3C639 215.1 639.32 215.78 639.88 216.32C640.44 216.88 641.2 217.14 642.16 217.14C642.98 217.14 643.62 216.96 644.06 216.6C644.5 216.24 644.74 215.76 644.74 215.18C644.74 214.72 644.56 214.32 644.24 213.98C643.9 213.64 643.44 213.4 642.84 213.26L640.84 212.84C639.72 212.62 638.84 212.16 638.2 211.46C637.56 210.78 637.24 209.9 637.24 208.86C637.24 207.68 637.7 206.66 638.66 205.8C639.6 204.96 640.74 204.52 642.06 204.52C643.56 204.52 644.72 204.9 645.52 205.62C646.32 206.34 646.82 207.18 647.02 208.14ZM653.816 217.22C654.576 217.22 655.216 216.96 655.736 216.4C656.256 215.86 656.536 215.1 656.536 214.12C656.536 213.16 656.256 212.42 655.736 211.88C655.216 211.34 654.576 211.06 653.816 211.06C653.056 211.06 652.396 211.34 651.876 211.88C651.356 212.42 651.096 213.16 651.096 214.12C651.096 215.08 651.356 215.84 651.876 216.4C652.396 216.96 653.056 217.22 653.816 217.22ZM653.816 208.96C655.276 208.96 656.476 209.46 657.436 210.42C658.396 211.4 658.876 212.64 658.876 214.12C658.876 215.62 658.396 216.86 657.436 217.84C656.476 218.82 655.276 219.3 653.816 219.3C652.356 219.3 651.156 218.82 650.196 217.84C649.236 216.86 648.776 215.62 648.776 214.12C648.776 212.64 649.236 211.4 650.196 210.42C651.156 209.46 652.356 208.96 653.816 208.96ZM663.638 219H661.318V204.52H663.638V219ZM669.13 219H666.83V209.26H669.13V219ZM666.47 205.84C666.47 205.44 666.61 205.08 666.91 204.78C667.19 204.48 667.55 204.32 667.97 204.32C668.39 204.32 668.75 204.48 669.05 204.76C669.33 205.06 669.49 205.42 669.49 205.84C669.49 206.26 669.33 206.62 669.05 206.9C668.75 207.2 668.39 207.34 667.97 207.34C667.55 207.34 667.19 207.2 666.91 206.9C666.61 206.62 666.47 206.26 666.47 205.84ZM673.883 214.1C673.883 215.04 674.123 215.8 674.603 216.36C675.083 216.92 675.703 217.2 676.503 217.2C677.263 217.2 677.883 216.92 678.363 216.34C678.843 215.78 679.083 215.02 679.083 214.08C679.083 213.16 678.843 212.44 678.383 211.88C677.903 211.34 677.283 211.06 676.523 211.06C675.743 211.06 675.103 211.34 674.623 211.9C674.123 212.46 673.883 213.18 673.883 214.1ZM681.323 204.52V217.22C681.323 217.88 681.343 218.48 681.423 219H679.203C679.123 218.64 679.103 218.22 679.103 217.74C678.863 218.18 678.483 218.54 677.983 218.82C677.463 219.1 676.883 219.24 676.243 219.24C674.843 219.24 673.723 218.76 672.863 217.78C671.983 216.82 671.563 215.58 671.563 214.1C671.563 212.68 671.983 211.48 672.863 210.48C673.743 209.5 674.843 209 676.203 209C676.963 209 677.583 209.14 678.063 209.42C678.543 209.7 678.863 210.04 679.063 210.4V204.52H681.323ZM686.855 219H684.555V209.26H686.855V219ZM684.195 205.84C684.195 205.44 684.335 205.08 684.635 204.78C684.915 204.48 685.275 204.32 685.695 204.32C686.115 204.32 686.475 204.48 686.775 204.76C687.055 205.06 687.215 205.42 687.215 205.84C687.215 206.26 687.055 206.62 686.775 206.9C686.475 207.2 686.115 207.34 685.695 207.34C685.275 207.34 684.915 207.2 684.635 206.9C684.335 206.62 684.195 206.26 684.195 205.84ZM692.988 206.28V209.26H695.008V211.32H692.988V215.84C692.988 216.28 693.088 216.58 693.288 216.78C693.488 216.98 693.788 217.06 694.228 217.06C694.488 217.06 694.748 217.04 695.028 216.98V218.9C694.668 219.06 694.208 219.12 693.608 219.12C692.688 219.12 691.988 218.88 691.468 218.36C690.948 217.84 690.688 217.14 690.688 216.22V211.32H688.888V209.26H689.388C689.868 209.26 690.248 209.12 690.508 208.84C690.748 208.56 690.888 208.2 690.888 207.74V206.28H692.988ZM700.708 222.94H698.228L700.568 217.84L696.408 209.26H699.028L701.828 215.42L704.448 209.26H706.908L700.708 222.94Z" fill="#A0A0A0"/>
<g clip-path="url(#clip1_1861_15542)">
<path opacity="0.45" d="M610.979 197L606.317 205.286H597L601.659 197H610.979Z" fill="#606060"/>
<path opacity="0.6" d="M606.317 205.286H615.637L610.979 197H601.658L606.317 205.286Z" fill="#606060"/>
<path opacity="0.8" d="M601.659 213.569L606.317 205.286L601.659 197L597 205.286L601.659 213.569Z" fill="#606060"/>
<path opacity="0.45" d="M601.705 225.999L606.367 217.713H615.688L611.026 225.999H601.705Z" fill="#606060"/>
<path opacity="0.6" d="M606.367 217.713H597.046L601.704 225.999H611.025L606.367 217.713Z" fill="#606060"/>
<path opacity="0.8" d="M611.026 209.432L606.367 217.714L611.026 226.001L615.688 217.714L611.026 209.432Z" fill="#606060"/>
</g>
<path d="M574.606 211.091C574.606 212.563 573.412 213.757 571.939 213.757C570.467 213.757 569.273 212.563 569.273 211.091C569.273 209.618 570.467 208.424 571.939 208.424C573.412 208.424 574.606 209.618 574.606 211.091ZM571.939 211.591H468.266V210.591H571.939V211.591Z" fill="url(#paint16_linear_1861_15542)"/>
<path d="M377.737 245.564V296.419L439.999 208.492L377.737 245.564Z" fill="#6A6A6A"/>
<path d="M377.737 93L439.999 196.611L377.737 233.683L315 196.611" fill="#727272"/>
<path d="M377.737 93V168.094L315 196.611M315 208.493L377.737 245.565V296.42" fill="#8C8C8C"/>
<path d="M377.737 168.094V233.682L439.999 196.611" fill="#797979"/>
<path d="M315 196.611L377.737 168.094V233.682" fill="#6A6A6A"/>
</g>
<defs>
<linearGradient id="paint0_linear_1861_15542" x1="382.231" y1="203.384" x2="382.231" y2="347.123" gradientUnits="userSpaceOnUse">
<stop stop-color="#DFDFDF"/>
<stop offset="1" stop-color="#F1F3F5" stop-opacity="0"/>
</linearGradient>
<linearGradient id="paint1_linear_1861_15542" x1="657.851" y1="97.4085" x2="657.851" y2="145.775" gradientUnits="userSpaceOnUse">
<stop stop-color="#EBEBEB"/>
<stop offset="1" stop-color="#E4E4E4" stop-opacity="0.49"/>
</linearGradient>
<linearGradient id="paint2_linear_1861_15542" x1="90.8194" y1="265.936" x2="90.8194" y2="311.171" gradientUnits="userSpaceOnUse">
<stop stop-color="#EBEBEB"/>
<stop offset="1" stop-color="#E4E4E4" stop-opacity="0.49"/>
</linearGradient>
<radialGradient id="paint3_radial_1861_15542" cx="0" cy="0" r="1" gradientUnits="userSpaceOnUse" gradientTransform="translate(374.858 230.921) rotate(-0.330001) scale(122.603 157.215)">
<stop offset="0.583333" stop-color="#C7C7C7"/>
<stop offset="0.90625" stop-color="white" stop-opacity="0.24"/>
<stop offset="1" stop-color="white" stop-opacity="0"/>
</radialGradient>
<linearGradient id="paint4_linear_1861_15542" x1="229.052" y1="289.514" x2="258.362" y2="289.514" gradientUnits="userSpaceOnUse">
<stop stop-color="#B6B6B6"/>
<stop offset="1" stop-color="#FAFAFA" stop-opacity="0"/>
</linearGradient>
<linearGradient id="paint5_linear_1861_15542" x1="522.103" y1="122.041" x2="492.793" y2="122.041" gradientUnits="userSpaceOnUse">
<stop stop-color="#B6B6B6"/>
<stop offset="1" stop-color="#FAFAFA" stop-opacity="0"/>
</linearGradient>
<linearGradient id="paint6_linear_1861_15542" x1="445.376" y1="87" x2="445.376" y2="138.778" gradientUnits="userSpaceOnUse">
<stop stop-color="#2AEA95"/>
<stop offset="1" stop-color="#8EFACB"/>
</linearGradient>
<linearGradient id="paint7_linear_1861_15542" x1="445.51" y1="97.3027" x2="445.51" y2="128.699" gradientUnits="userSpaceOnUse">
<stop stop-color="#2AEA95"/>
<stop offset="1" stop-color="#8EFACB"/>
</linearGradient>
<linearGradient id="paint8_linear_1861_15542" x1="445.693" y1="106.721" x2="445.693" y2="120.615" gradientUnits="userSpaceOnUse">
<stop stop-color="#2AEA95"/>
<stop offset="1" stop-color="#8EFACB"/>
</linearGradient>
<linearGradient id="paint9_linear_1861_15542" x1="96.9138" y1="169.194" x2="96.9138" y2="220.792" gradientUnits="userSpaceOnUse">
<stop stop-color="#EBEBEB"/>
<stop offset="1" stop-color="#E4E4E4" stop-opacity="0.49"/>
</linearGradient>
<linearGradient id="paint10_linear_1861_15542" x1="228.053" y1="196.512" x2="257.363" y2="196.512" gradientUnits="userSpaceOnUse">
<stop stop-color="#B6B6B6"/>
<stop offset="1" stop-color="#FAFAFA" stop-opacity="0"/>
</linearGradient>
<linearGradient id="paint11_linear_1861_15542" x1="91.71" y1="85.5574" x2="91.71" y2="130.792" gradientUnits="userSpaceOnUse">
<stop stop-color="#EBEBEB"/>
<stop offset="1" stop-color="#E4E4E4" stop-opacity="0.49"/>
</linearGradient>
<linearGradient id="paint12_linear_1861_15542" x1="229.052" y1="109.514" x2="258.362" y2="109.514" gradientUnits="userSpaceOnUse">
<stop stop-color="#B6B6B6"/>
<stop offset="1" stop-color="#FAFAFA" stop-opacity="0"/>
</linearGradient>
<linearGradient id="paint13_linear_1861_15542" x1="658.71" y1="281.557" x2="658.71" y2="326.792" gradientUnits="userSpaceOnUse">
<stop stop-color="#EBEBEB"/>
<stop offset="1" stop-color="#E4E4E4" stop-opacity="0.49"/>
</linearGradient>
<linearGradient id="paint14_linear_1861_15542" x1="520.103" y1="304.09" x2="490.793" y2="304.09" gradientUnits="userSpaceOnUse">
<stop stop-color="#B6B6B6"/>
<stop offset="1" stop-color="#FAFAFA" stop-opacity="0"/>
</linearGradient>
<linearGradient id="paint15_linear_1861_15542" x1="658.71" y1="188.557" x2="658.71" y2="233.792" gradientUnits="userSpaceOnUse">
<stop stop-color="#EBEBEB"/>
<stop offset="1" stop-color="#E4E4E4" stop-opacity="0.49"/>
</linearGradient>
<linearGradient id="paint16_linear_1861_15542" x1="520.103" y1="211.09" x2="490.793" y2="211.09" gradientUnits="userSpaceOnUse">
<stop stop-color="#B6B6B6"/>
<stop offset="1" stop-color="#FAFAFA" stop-opacity="0"/>
</linearGradient>
<clipPath id="clip0_1861_15542">
<rect width="749" height="401" fill="white"/>
</clipPath>
<clipPath id="clip1_1861_15542">
<rect width="18.6877" height="29" fill="white" transform="translate(597 197)"/>
</clipPath>
</defs>
</svg>
