<svg width="854" height="360" viewBox="0 0 854 360" fill="none" xmlns="http://www.w3.org/2000/svg">
<g clip-path="url(#clip0_1851_12110)">
<mask id="mask0_1851_12110" style="mask-type:luminance" maskUnits="userSpaceOnUse" x="0" y="0" width="854" height="360">
<path d="M854 0H0V360H854V0Z" fill="white"/>
</mask>
<g mask="url(#mask0_1851_12110)">
<path d="M758.238 254.695H95.7373M758.238 171.274H95.7373M758.238 88.9901H95.7373M178.55 -0.113281V342.661M261.362 -0.113281V342.661M344.176 -0.113281V342.661M426.988 -0.113281V342.661M509.801 -0.113281V342.661M592.613 -0.113281V342.661M675.426 -0.113281V342.661M758.238 342.661H95.7373V-0.112952H758.238V342.661Z" stroke="url(#paint0_radial_1851_12110)" stroke-width="0.629106"/>
<mask id="mask1_1851_12110" style="mask-type:luminance" maskUnits="userSpaceOnUse" x="356" y="103" width="141" height="141">
<path d="M467.139 103.727H386.225C369.856 103.727 356.586 116.997 356.586 133.366V214.28C356.586 230.65 369.856 243.92 386.225 243.92H467.139C483.509 243.92 496.779 230.65 496.779 214.28V133.366C496.779 116.997 483.509 103.727 467.139 103.727Z" fill="white"/>
</mask>
<g mask="url(#mask1_1851_12110)">
<path d="M467.139 103.727H386.225C369.856 103.727 356.586 116.997 356.586 133.366V214.28C356.586 230.65 369.856 243.92 386.225 243.92H467.139C483.509 243.92 496.779 230.65 496.779 214.28V133.366C496.779 116.997 483.509 103.727 467.139 103.727Z" fill="url(#paint1_linear_1851_12110)"/>
</g>
<path fill-rule="evenodd" clip-rule="evenodd" d="M280.014 93.7711C280.014 94.7493 279.219 95.5422 278.241 95.5422C277.262 95.5422 276.468 94.7493 276.468 93.7711C276.468 92.7929 277.262 92 278.241 92C279.219 92 280.014 92.7929 280.014 93.7711ZM173.936 107.338C174.915 107.338 175.707 106.545 175.707 105.567C175.707 104.589 174.915 103.796 173.936 103.796C172.955 103.796 172.163 104.589 172.163 105.567C172.163 106.545 172.955 107.338 173.936 107.338ZM63.2991 142.385C64.2778 142.385 65.0723 141.593 65.0723 140.616C65.0723 139.636 64.2778 138.844 63.2991 138.844C62.3205 138.844 61.526 139.636 61.526 140.616C61.526 141.593 62.3205 142.385 63.2991 142.385ZM759.57 174.041C758.637 173.748 758.116 172.753 758.409 171.82C758.702 170.888 759.698 170.368 760.631 170.66C761.565 170.953 762.085 171.946 761.792 172.881C761.499 173.813 760.506 174.333 759.57 174.041ZM187.838 224.36C188.816 224.36 189.611 223.566 189.611 222.588C189.611 221.611 188.816 220.819 187.838 220.819C186.859 220.819 186.064 221.611 186.064 222.588C186.064 223.566 186.859 224.36 187.838 224.36ZM546.943 294.19C545.966 294.134 545.128 294.879 545.072 295.857C545.015 296.833 545.763 297.67 546.74 297.726C547.718 297.782 548.556 297.035 548.611 296.059C548.667 295.082 547.919 294.245 546.943 294.19ZM555.277 378.323C555.331 377.347 556.169 376.6 557.148 376.656C558.125 376.713 558.872 377.55 558.816 378.526C558.759 379.502 557.922 380.249 556.945 380.192C555.966 380.138 555.221 379.301 555.277 378.323ZM840.942 182.077C840.649 183.01 841.17 184.004 842.103 184.295C843.037 184.588 844.032 184.07 844.325 183.135C844.618 182.202 844.098 181.21 843.164 180.917C842.229 180.624 841.235 181.142 840.942 182.077ZM874.696 146.357C873.763 146.064 873.242 145.069 873.535 144.136C873.828 143.204 874.822 142.684 875.758 142.977C876.691 143.269 877.211 144.264 876.918 145.197C876.625 146.129 875.63 146.649 874.696 146.357ZM347.216 402.128C347.272 401.152 348.11 400.405 349.087 400.461C350.063 400.516 350.811 401.353 350.755 402.33C350.698 403.306 349.862 404.053 348.884 403.997C347.907 403.941 347.159 403.104 347.216 402.128ZM861.292 259.388C860.999 260.32 861.518 261.315 862.453 261.608C863.387 261.901 864.382 261.381 864.673 260.448C864.966 259.515 864.448 258.521 863.512 258.228C862.579 257.935 861.585 258.455 861.292 259.388ZM249.47 118.583C249.47 119.561 248.676 120.354 247.697 120.354C246.718 120.354 245.926 119.561 245.926 118.583C245.926 117.605 246.718 116.812 247.697 116.812C248.676 116.812 249.47 117.605 249.47 118.583ZM481.236 394.611C480.259 394.555 479.422 395.3 479.365 396.278C479.311 397.254 480.056 398.091 481.035 398.147C482.012 398.203 482.85 397.457 482.906 396.481C482.96 395.503 482.215 394.666 481.236 394.611ZM821.323 295.376C820.389 295.083 819.869 294.091 820.162 293.156C820.455 292.223 821.451 291.703 822.384 291.996C823.318 292.289 823.838 293.284 823.545 294.216C823.252 295.149 822.256 295.669 821.323 295.376ZM194.853 166.706C195.832 166.706 196.626 165.914 196.626 164.936C196.626 163.957 195.832 163.165 194.853 163.165C193.875 163.165 193.082 163.957 193.082 164.936C193.082 165.914 193.875 166.706 194.853 166.706ZM534.773 353.015C534.827 352.039 535.665 351.292 536.644 351.348C537.62 351.405 538.368 352.24 538.312 353.218C538.255 354.194 537.418 354.941 536.441 354.884C535.462 354.828 534.716 353.991 534.773 353.015ZM811.368 195.76C811.076 196.693 811.595 197.688 812.53 197.98C813.464 198.273 814.458 197.753 814.751 196.821C815.044 195.886 814.525 194.893 813.59 194.6C812.656 194.308 811.661 194.827 811.368 195.76ZM131.842 286.574C131.842 287.552 131.048 288.346 130.069 288.346C129.09 288.346 128.298 287.552 128.298 286.574C128.298 285.597 129.09 284.803 130.069 284.803C131.048 284.803 131.842 285.597 131.842 286.574ZM593.714 303.882C592.737 303.825 591.899 304.572 591.843 305.548C591.786 306.526 592.534 307.361 593.511 307.418C594.489 307.474 595.327 306.727 595.382 305.751C595.438 304.775 594.692 303.938 593.714 303.882ZM780.403 131.091C779.469 130.798 778.949 129.805 779.242 128.871C779.535 127.938 780.529 127.419 781.464 127.711C782.398 128.004 782.918 128.998 782.625 129.931C782.332 130.864 781.337 131.384 780.403 131.091ZM137.079 166.706C138.059 166.706 138.852 165.914 138.852 164.936C138.852 163.957 138.059 163.165 137.079 163.165C136.1 163.165 135.308 163.957 135.308 164.936C135.308 165.914 136.1 166.706 137.079 166.706ZM592.451 356.312C592.506 355.335 593.344 354.59 594.322 354.646C595.299 354.7 596.047 355.537 595.99 356.515C595.934 357.491 595.096 358.238 594.119 358.182C593.141 358.125 592.395 357.288 592.451 356.312ZM828.656 140.681C828.363 141.616 828.883 142.609 829.817 142.901C830.75 143.194 831.746 142.674 832.039 141.742C832.332 140.809 831.812 139.814 830.878 139.521C829.943 139.229 828.949 139.749 828.656 140.681ZM235.439 186.35C235.439 187.328 234.646 188.12 233.666 188.12C232.687 188.12 231.894 187.328 231.894 186.35C231.894 185.372 232.687 184.578 233.666 184.578C234.646 184.578 235.439 185.372 235.439 186.35ZM264.794 156.485C265.772 156.485 266.565 155.692 266.565 154.714C266.565 153.736 265.772 152.944 264.794 152.944C263.815 152.944 263.021 153.736 263.021 154.714C263.021 155.692 263.815 156.485 264.794 156.485ZM285.548 123.858C286.528 123.858 287.321 123.065 287.321 122.087C287.321 121.109 286.528 120.316 285.548 120.316C284.569 120.316 283.776 121.109 283.776 122.087C283.776 123.065 284.569 123.858 285.548 123.858ZM288.739 228.19C288.699 229.168 287.875 229.928 286.896 229.891C285.918 229.851 285.157 229.026 285.196 228.05C285.236 227.072 286.06 226.312 287.039 226.351C288.016 226.391 288.778 227.215 288.739 228.19ZM257.923 196.909C258.901 196.948 259.726 196.188 259.765 195.21C259.805 194.232 259.044 193.409 258.065 193.369C257.087 193.33 256.262 194.092 256.223 195.068C256.183 196.045 256.944 196.869 257.923 196.909ZM233.014 237.214C232.974 238.192 232.15 238.952 231.171 238.912C230.193 238.873 229.432 238.049 229.471 237.071C229.511 236.093 230.335 235.333 231.314 235.373C232.291 235.412 233.053 236.236 233.014 237.214ZM281.902 270.374C282.88 270.414 283.705 269.652 283.744 268.676C283.782 267.698 283.021 266.874 282.043 266.835C281.066 266.795 280.241 267.555 280.202 268.533C280.162 269.511 280.923 270.335 281.902 270.374ZM283.459 335.768C283.419 336.744 282.595 337.506 281.616 337.466C280.639 337.427 279.877 336.603 279.916 335.625C279.956 334.647 280.78 333.887 281.759 333.927C282.738 333.966 283.498 334.79 283.459 335.768ZM327.861 289.007C328.838 289.046 329.663 288.286 329.702 287.308C329.741 286.332 328.981 285.508 328.002 285.469C327.025 285.429 326.199 286.19 326.161 287.167C326.122 288.143 326.883 288.969 327.861 289.007ZM497.249 329.422C497.305 328.445 498.143 327.7 499.12 327.754C500.097 327.81 500.844 328.647 500.788 329.623C500.731 330.601 499.896 331.346 498.917 331.292C497.94 331.235 497.193 330.398 497.249 329.422ZM779.306 226.357C779.013 227.29 779.533 228.282 780.467 228.575C781.402 228.868 782.396 228.35 782.689 227.415C782.982 226.483 782.462 225.488 781.528 225.195C780.595 224.904 779.599 225.422 779.306 226.357ZM282.247 179.395C281.708 178.578 281.934 177.481 282.753 176.942C283.57 176.403 284.669 176.629 285.208 177.445C285.747 178.263 285.519 179.361 284.702 179.9C283.885 180.438 282.786 180.211 282.247 179.395ZM449.475 336.115C450.322 335.625 450.611 334.54 450.119 333.694C449.627 332.847 448.543 332.56 447.696 333.052C446.849 333.542 446.562 334.625 447.052 335.471C447.544 336.318 448.628 336.607 449.475 336.115ZM458.694 305.451C459.186 306.297 458.897 307.382 458.052 307.872C457.204 308.363 456.119 308.074 455.628 307.228C455.136 306.383 455.426 305.299 456.273 304.809C457.12 304.317 458.204 304.606 458.694 305.451ZM775.298 276.498C775.027 275.558 774.047 275.014 773.106 275.282C772.165 275.552 771.62 276.532 771.888 277.472C772.159 278.412 773.139 278.957 774.08 278.688C775.021 278.418 775.566 277.438 775.298 276.498ZM167.856 283.51C167.317 282.693 167.542 281.593 168.359 281.055C169.176 280.518 170.277 280.743 170.814 281.56C171.353 282.376 171.128 283.474 170.311 284.013C169.494 284.551 168.393 284.326 167.856 283.51ZM569.633 238.698C570.48 238.207 570.768 237.124 570.277 236.277C569.785 235.431 568.702 235.144 567.854 235.634C567.007 236.125 566.72 237.208 567.21 238.055C567.702 238.901 568.786 239.188 569.633 238.698ZM707.904 135.072C708.845 134.803 709.826 135.347 710.096 136.287C710.365 137.227 709.82 138.208 708.879 138.478C707.938 138.746 706.958 138.202 706.687 137.262C706.419 136.322 706.963 135.341 707.904 135.072ZM651.999 309.08C651.728 308.14 650.748 307.596 649.807 307.864C648.866 308.134 648.321 309.114 648.592 310.054C648.86 310.996 649.841 311.539 650.782 311.27C651.725 311 652.268 310.021 651.999 309.08ZM225.322 343.569C224.783 342.753 225.01 341.653 225.827 341.116C226.644 340.578 227.743 340.803 228.282 341.619C228.821 342.436 228.596 343.536 227.779 344.072C226.96 344.611 225.861 344.386 225.322 343.569ZM633.351 171.89C634.292 171.621 635.274 172.166 635.543 173.106C635.813 174.046 635.268 175.026 634.327 175.296C633.386 175.564 632.404 175.02 632.135 174.08C631.865 173.14 632.41 172.16 633.351 171.89ZM307.087 309.769C306.268 310.308 306.042 311.406 306.581 312.224C307.12 313.04 308.219 313.265 309.036 312.727C309.853 312.188 310.081 311.09 309.542 310.274C309.003 309.458 307.904 309.23 307.087 309.769ZM641.163 259.956C640.894 259.016 639.912 258.472 638.971 258.742C638.03 259.01 637.485 259.992 637.755 260.932C638.024 261.873 639.006 262.417 639.947 262.146C640.888 261.878 641.433 260.897 641.163 259.956ZM180.097 386.615C179.558 385.798 179.785 384.7 180.602 384.162C181.419 383.623 182.518 383.848 183.057 384.666C183.596 385.483 183.371 386.581 182.552 387.119C181.735 387.658 180.636 387.431 180.097 386.615ZM552.927 104.699C553.774 104.208 554.064 103.125 553.571 102.278C553.081 101.432 551.995 101.144 551.148 101.635C550.303 102.126 550.014 103.21 550.506 104.056C550.996 104.902 552.082 105.19 552.927 104.699ZM573.771 118.528C574.712 118.258 575.695 118.802 575.963 119.743C576.234 120.683 575.689 121.664 574.748 121.933C573.807 122.202 572.825 121.658 572.556 120.718C572.287 119.777 572.83 118.797 573.771 118.528ZM290.059 296.694C289.242 297.232 289.017 298.332 289.556 299.149C290.093 299.965 291.194 300.19 292.011 299.652C292.828 299.113 293.053 298.015 292.514 297.199C291.977 296.382 290.876 296.157 290.059 296.694ZM658.746 247.635C658.475 246.695 657.495 246.151 656.554 246.419C655.613 246.69 655.068 247.669 655.337 248.609C655.607 249.55 656.588 250.094 657.529 249.826C658.47 249.555 659.015 248.576 658.746 247.635ZM90.8771 393.316C90.338 392.5 90.5653 391.402 91.3824 390.863C92.1994 390.325 93.2983 390.552 93.8374 391.368C94.3765 392.185 94.1492 393.283 93.3321 393.821C92.5151 394.36 91.4162 394.135 90.8771 393.316ZM569.179 118.726C570.026 118.235 570.313 117.151 569.823 116.305C569.331 115.459 568.247 115.171 567.4 115.662C566.553 116.152 566.265 117.236 566.756 118.082C567.248 118.928 568.331 119.216 569.179 118.726ZM591.352 106.206C592.294 105.937 593.274 106.481 593.545 107.421C593.813 108.361 593.269 109.342 592.327 109.611C591.386 109.881 590.406 109.337 590.135 108.396C589.867 107.456 590.411 106.475 591.352 106.206ZM717.893 285.63C717.623 284.69 716.642 284.146 715.701 284.414C714.76 284.684 714.215 285.664 714.486 286.604C714.755 287.545 715.737 288.089 716.678 287.82C717.619 287.55 718.162 286.571 717.893 285.63ZM193.753 335.501C193.213 334.685 193.439 333.585 194.256 333.048C195.073 332.51 196.174 332.735 196.711 333.551C197.25 334.368 197.025 335.467 196.208 336.004C195.39 336.543 194.29 336.318 193.753 335.501ZM546.747 185.312C547.595 184.821 547.884 183.738 547.392 182.891C546.901 182.045 545.816 181.758 544.969 182.248C544.123 182.739 543.834 183.822 544.326 184.669C544.816 185.515 545.902 185.802 546.747 185.312ZM650.502 144.204C651.443 143.936 652.425 144.48 652.694 145.42C652.963 146.36 652.42 147.34 651.479 147.61C650.538 147.879 649.555 147.334 649.286 146.394C649.016 145.454 649.561 144.474 650.502 144.204ZM702.267 114.158C701.997 113.218 701.016 112.674 700.075 112.943C699.134 113.212 698.589 114.193 698.858 115.133C699.129 116.074 700.109 116.618 701.05 116.348C701.991 116.079 702.536 115.098 702.267 114.158ZM405.086 353.741C405.933 353.25 406.222 352.167 405.73 351.32C405.24 350.474 404.154 350.187 403.307 350.677C402.462 351.168 402.173 352.251 402.665 353.098C403.155 353.944 404.241 354.231 405.086 353.741ZM407.007 311.513C407.498 312.359 407.21 313.442 406.363 313.934C405.516 314.423 404.432 314.136 403.94 313.29C403.45 312.443 403.737 311.361 404.584 310.869C405.431 310.379 406.515 310.666 407.007 311.513ZM735.05 323.809C734.78 322.869 733.799 322.325 732.858 322.593C731.917 322.863 731.372 323.843 731.641 324.783C731.911 325.723 732.892 326.268 733.833 325.999C734.774 325.729 735.319 324.749 735.05 323.809ZM211.159 263.378C210.62 262.561 210.847 261.463 211.664 260.925C212.482 260.386 213.58 260.611 214.12 261.428C214.659 262.246 214.433 263.344 213.614 263.882C212.797 264.421 211.698 264.194 211.159 263.378ZM525.24 256.325C526.087 255.835 526.375 254.75 525.885 253.906C525.392 253.059 524.309 252.77 523.461 253.262C522.614 253.752 522.327 254.837 522.817 255.683C523.309 256.527 524.393 256.817 525.24 256.325ZM714.172 182.383C715.113 182.114 716.094 182.659 716.364 183.599C716.633 184.539 716.088 185.519 715.147 185.789C714.206 186.057 713.226 185.513 712.955 184.573C712.687 183.633 713.231 182.653 714.172 182.383ZM635.543 217.414C635.274 216.474 634.292 215.93 633.351 216.2C632.41 216.468 631.865 217.45 632.135 218.39C632.404 219.33 633.386 219.873 634.327 219.604C635.268 219.334 635.813 218.354 635.543 217.414ZM376.618 311.691C377.465 311.201 377.752 310.116 377.262 309.272C376.77 308.425 375.686 308.136 374.839 308.628C373.992 309.118 373.704 310.203 374.194 311.049C374.687 311.894 375.77 312.183 376.618 311.691ZM739.602 392.81C740.543 392.541 741.523 393.086 741.794 394.026C742.062 394.966 741.517 395.946 740.576 396.216C739.635 396.484 738.655 395.94 738.384 395C738.116 394.06 738.66 393.08 739.602 392.81ZM242.494 301.281C241.677 301.819 241.451 302.917 241.989 303.733C242.528 304.55 243.627 304.775 244.445 304.238C245.263 303.7 245.488 302.6 244.949 301.783C244.41 300.967 243.311 300.742 242.494 301.281ZM668.598 200.91C668.327 199.97 667.347 199.425 666.406 199.696C665.465 199.964 664.92 200.946 665.189 201.886C665.459 202.826 666.44 203.37 667.381 203.1C668.322 202.832 668.866 201.85 668.598 200.91ZM667.159 161.22C668.1 160.95 669.082 161.494 669.351 162.435C669.622 163.375 669.077 164.356 668.136 164.625C667.195 164.895 666.212 164.351 665.944 163.411C665.673 162.47 666.218 161.489 667.159 161.22ZM264.446 232.4C263.629 232.939 263.404 234.037 263.943 234.853C264.482 235.669 265.581 235.894 266.398 235.358C267.215 234.819 267.44 233.721 266.903 232.903C266.364 232.087 265.263 231.861 264.446 232.4ZM727.811 242.456C727.542 241.515 726.56 240.971 725.619 241.239C724.678 241.51 724.133 242.489 724.404 243.43C724.672 244.372 725.655 244.914 726.596 244.646C727.537 244.376 728.081 243.396 727.811 242.456ZM-56.7068 307.8C-57.2459 306.984 -57.0205 305.886 -56.2034 305.347C-55.3845 304.809 -54.2856 305.034 -53.7466 305.85C-53.2094 306.669 -53.4347 307.767 -54.2518 308.305C-55.0689 308.842 -56.1677 308.617 -56.7068 307.8ZM591.076 184.376C591.924 183.886 592.211 182.803 591.721 181.957C591.229 181.11 590.145 180.821 589.298 181.313C588.45 181.803 588.163 182.888 588.653 183.734C589.146 184.58 590.229 184.867 591.076 184.376ZM660.421 101.027C661.362 100.757 662.345 101.301 662.613 102.242C662.884 103.182 662.339 104.162 661.398 104.432C660.457 104.701 659.475 104.157 659.206 103.217C658.936 102.276 659.48 101.296 660.421 101.027ZM647.904 113.29C647.636 112.349 646.653 111.805 645.712 112.074C644.771 112.344 644.226 113.324 644.497 114.265C644.765 115.205 645.748 115.749 646.689 115.48C647.63 115.21 648.175 114.23 647.904 113.29Z" fill="url(#paint2_radial_1851_12110)"/>
<path d="M467.139 104.877H386.225C370.491 104.877 357.737 117.632 357.737 133.365V214.28C357.737 230.013 370.491 242.768 386.225 242.768H467.139C482.873 242.768 495.628 230.013 495.628 214.28V133.365C495.628 117.632 482.873 104.877 467.139 104.877Z" stroke="url(#paint3_linear_1851_12110)" stroke-opacity="0.2"/>
</g>
<g filter="url(#filter0_d_1851_12110)">
<path d="M395 151.222C395.131 151.355 395.361 151.478 395.378 151.624C395.541 153.052 396.433 154.011 397.518 154.778C407.479 161.822 417.442 168.863 427.439 175.856C429.853 177.545 431.768 177.448 434.151 175.773C439.595 171.946 445.036 168.112 450.468 164.269C453.548 162.089 455.795 159.256 456.97 155.668C457.38 154.416 457.537 153.082 457.71 152.264C457.71 155.39 457.942 159.014 457.651 162.596C457.292 167.011 455.067 170.653 451.512 173.275C445.591 177.642 439.554 181.855 433.514 186.059C431.549 187.426 429.468 187.068 427.545 185.819C425.571 184.538 423.613 183.23 421.694 181.87C413.742 176.235 405.809 170.572 397.863 164.928C396.502 163.961 395.426 162.818 395.184 161.09C395.19 158.281 395.2 155.473 395.193 152.665C395.192 152.451 395.067 152.239 395 152.026C395 151.758 395 151.49 395 151.222Z" fill="#3ECF8E"/>
<path d="M395 151.481C395.131 151.615 395.361 151.738 395.378 151.884C395.541 153.312 396.433 154.271 397.518 155.038C407.479 162.082 417.442 169.123 427.439 176.116C429.853 177.806 431.768 177.708 434.151 176.033C439.595 172.206 445.036 168.372 450.468 164.528C453.548 162.349 455.795 159.516 456.97 155.928C457.38 154.676 457.537 153.342 457.71 152.524C457.71 155.65 457.942 159.274 457.651 162.856C457.292 167.271 455.067 170.913 451.512 173.535C445.591 177.903 439.554 182.115 433.514 186.319C431.549 187.686 429.468 187.328 427.545 186.079C425.571 184.798 423.613 183.489 421.694 182.129C413.742 176.494 405.809 170.832 397.863 165.188C396.502 164.221 395.426 163.078 395.184 161.35C395.19 158.541 395.2 155.733 395.193 152.925C395.192 152.711 395.067 152.498 395 152.285C395 152.018 395 151.75 395 151.481Z" fill="#3ECF8E"/>
<path d="M395 173.905C395.125 173.989 395.351 174.062 395.361 174.158C395.535 175.751 396.606 176.712 397.792 177.575C402.358 180.895 406.899 184.249 411.515 187.5C416.625 191.099 421.801 194.604 426.958 198.137C429.912 200.161 431.551 200.17 434.501 198.108C439.735 194.449 444.935 190.745 450.165 187.082C453.282 184.898 455.644 182.127 456.87 178.514C457.324 177.173 457.509 175.741 458 174.348C457.865 178.236 457.982 182.154 457.527 186.005C457.04 190.131 454.765 193.501 451.425 195.954C445.55 200.268 439.565 204.437 433.589 208.615C431.494 210.079 429.359 209.644 427.361 208.315C424.76 206.583 422.164 204.84 419.616 203.032C412.271 197.82 404.952 192.574 397.622 187.341C396.312 186.406 395.376 185.232 395.173 183.585C395.182 180.739 395.194 177.894 395.191 175.049C395.191 174.869 395.067 174.689 395 174.509C395 174.307 395 174.106 395 173.905Z" fill="#3ECF8E"/>
<path d="M395 173.592C395.125 173.675 395.351 173.749 395.361 173.845C395.535 175.437 396.606 176.399 397.792 177.261C402.358 180.582 406.899 183.936 411.515 187.186C416.625 190.785 421.801 194.291 426.958 197.824C429.912 199.848 431.551 199.857 434.501 197.794C439.735 194.136 444.935 190.432 450.165 186.768C453.282 184.585 455.644 181.813 456.87 178.2C457.324 176.859 457.509 175.427 458 174.034C457.865 177.923 457.982 181.84 457.527 185.692C457.04 189.818 454.765 193.188 451.425 195.64C445.55 199.955 439.565 204.124 433.589 208.301C431.494 209.765 429.359 209.33 427.361 208.001C424.76 206.269 422.164 204.526 419.616 202.718C412.271 197.507 404.952 192.26 397.622 187.028C396.312 186.093 395.376 184.919 395.173 183.271C395.182 180.426 395.194 177.58 395.191 174.735C395.191 174.555 395.067 174.375 395 174.195C395 173.994 395 173.793 395 173.592Z" fill="#3ECF8E"/>
<path d="M409.572 150.446C409.742 150.253 409.83 150.103 409.96 150.013C413.129 147.803 416.242 145.506 419.493 143.42C422.856 141.261 426.571 139.994 430.634 140C434.422 140.006 437.858 141.205 440.973 143.276C442.479 144.278 443.936 145.383 445.272 146.597C447.432 148.56 447.656 152.055 445.937 154.404C445.553 154.929 445.153 154.963 444.649 154.628C443.95 154.163 443.255 153.689 442.543 153.243C435.354 148.738 428.164 148.786 420.975 153.249C419.833 153.958 418.702 154.686 417.538 155.358C417.304 155.493 416.858 155.546 416.658 155.415C414.415 153.933 412.2 152.409 409.982 150.889C409.849 150.798 409.757 150.649 409.572 150.446Z" fill="#3ECF8E"/>
<path d="M395 151.222C395.131 151.355 395.361 151.478 395.378 151.624C395.541 153.052 396.433 154.011 397.518 154.778C407.479 161.822 417.442 168.863 427.439 175.856C429.853 177.545 431.768 177.448 434.151 175.773C439.595 171.946 445.036 168.112 450.468 164.269C453.548 162.089 455.795 159.256 456.97 155.668C457.38 154.416 457.537 153.082 457.71 152.264C457.71 155.39 457.942 159.014 457.651 162.596C457.292 167.011 455.067 170.653 451.512 173.275C445.591 177.642 439.554 181.855 433.514 186.059C431.549 187.426 429.468 187.068 427.545 185.819C425.571 184.538 423.613 183.23 421.694 181.87C413.742 176.235 405.809 170.572 397.863 164.928C396.502 163.961 395.426 162.818 395.184 161.09C395.19 158.281 395.2 155.473 395.193 152.665C395.192 152.451 395.067 152.239 395 152.026C395 151.758 395 151.49 395 151.222Z" fill="url(#paint4_linear_1851_12110)" fill-opacity="0.5"/>
<path d="M395 151.481C395.131 151.615 395.361 151.738 395.378 151.884C395.541 153.312 396.433 154.271 397.518 155.038C407.479 162.082 417.442 169.123 427.439 176.116C429.853 177.806 431.768 177.708 434.151 176.033C439.595 172.206 445.036 168.372 450.468 164.528C453.548 162.349 455.795 159.516 456.97 155.928C457.38 154.676 457.537 153.342 457.71 152.524C457.71 155.65 457.942 159.274 457.651 162.856C457.292 167.271 455.067 170.913 451.512 173.535C445.591 177.903 439.554 182.115 433.514 186.319C431.549 187.686 429.468 187.328 427.545 186.079C425.571 184.798 423.613 183.489 421.694 182.129C413.742 176.494 405.809 170.832 397.863 165.188C396.502 164.221 395.426 163.078 395.184 161.35C395.19 158.541 395.2 155.733 395.193 152.925C395.192 152.711 395.067 152.498 395 152.285C395 152.018 395 151.75 395 151.481Z" fill="url(#paint5_linear_1851_12110)" fill-opacity="0.5"/>
<path d="M395 173.905C395.125 173.989 395.351 174.062 395.361 174.158C395.535 175.751 396.606 176.712 397.792 177.575C402.358 180.895 406.899 184.249 411.515 187.5C416.625 191.099 421.801 194.604 426.958 198.137C429.912 200.161 431.551 200.17 434.501 198.108C439.735 194.449 444.935 190.745 450.165 187.082C453.282 184.898 455.644 182.127 456.87 178.514C457.324 177.173 457.509 175.741 458 174.348C457.865 178.236 457.982 182.154 457.527 186.005C457.04 190.131 454.765 193.501 451.425 195.954C445.55 200.268 439.565 204.437 433.589 208.615C431.494 210.079 429.359 209.644 427.361 208.315C424.76 206.583 422.164 204.84 419.616 203.032C412.271 197.82 404.952 192.574 397.622 187.341C396.312 186.406 395.376 185.232 395.173 183.585C395.182 180.739 395.194 177.894 395.191 175.049C395.191 174.869 395.067 174.689 395 174.509C395 174.307 395 174.106 395 173.905Z" fill="url(#paint6_linear_1851_12110)" fill-opacity="0.5"/>
<path d="M395 173.592C395.125 173.675 395.351 173.749 395.361 173.845C395.535 175.437 396.606 176.399 397.792 177.261C402.358 180.582 406.899 183.936 411.515 187.186C416.625 190.785 421.801 194.291 426.958 197.824C429.912 199.848 431.551 199.857 434.501 197.794C439.735 194.136 444.935 190.432 450.165 186.768C453.282 184.585 455.644 181.813 456.87 178.2C457.324 176.859 457.509 175.427 458 174.034C457.865 177.923 457.982 181.84 457.527 185.692C457.04 189.818 454.765 193.188 451.425 195.64C445.55 199.955 439.565 204.124 433.589 208.301C431.494 209.765 429.359 209.33 427.361 208.001C424.76 206.269 422.164 204.526 419.616 202.718C412.271 197.507 404.952 192.26 397.622 187.028C396.312 186.093 395.376 184.919 395.173 183.271C395.182 180.426 395.194 177.58 395.191 174.735C395.191 174.555 395.067 174.375 395 174.195C395 173.994 395 173.793 395 173.592Z" fill="url(#paint7_linear_1851_12110)" fill-opacity="0.5"/>
<path d="M409.572 150.446C409.742 150.253 409.83 150.103 409.96 150.013C413.129 147.803 416.242 145.506 419.493 143.42C422.856 141.261 426.571 139.994 430.634 140C434.422 140.006 437.858 141.205 440.973 143.276C442.479 144.278 443.936 145.383 445.272 146.597C447.432 148.56 447.656 152.055 445.937 154.404C445.553 154.929 445.153 154.963 444.649 154.628C443.95 154.163 443.255 153.689 442.543 153.243C435.354 148.738 428.164 148.786 420.975 153.249C419.833 153.958 418.702 154.686 417.538 155.358C417.304 155.493 416.858 155.546 416.658 155.415C414.415 153.933 412.2 152.409 409.982 150.889C409.849 150.798 409.757 150.649 409.572 150.446Z" fill="url(#paint8_linear_1851_12110)" fill-opacity="0.5"/>
</g>
</g>
<defs>
<filter id="filter0_d_1851_12110" x="393" y="139" width="67" height="73.5303" filterUnits="userSpaceOnUse" color-interpolation-filters="sRGB">
<feFlood flood-opacity="0" result="BackgroundImageFix"/>
<feColorMatrix in="SourceAlpha" type="matrix" values="0 0 0 0 0 0 0 0 0 0 0 0 0 0 0 0 0 0 127 0" result="hardAlpha"/>
<feOffset dy="1"/>
<feGaussianBlur stdDeviation="1"/>
<feComposite in2="hardAlpha" operator="out"/>
<feColorMatrix type="matrix" values="0 0 0 0 0 0 0 0 0 0 0 0 0 0 0 0 0 0 0.41 0"/>
<feBlend mode="normal" in2="BackgroundImageFix" result="effect1_dropShadow_1851_12110"/>
<feBlend mode="normal" in="SourceGraphic" in2="effect1_dropShadow_1851_12110" result="shape"/>
</filter>
<radialGradient id="paint0_radial_1851_12110" cx="0" cy="0" r="1" gradientUnits="userSpaceOnUse" gradientTransform="translate(426.988 171.274) rotate(90) scale(171.387 331.25)">
<stop stop-color="#0CFD9A"/>
<stop offset="1" stop-color="#161B19" stop-opacity="0"/>
</radialGradient>
<linearGradient id="paint1_linear_1851_12110" x1="426.683" y1="103.727" x2="426.683" y2="243.92" gradientUnits="userSpaceOnUse">
<stop stop-color="#202020"/>
<stop offset="1" stop-color="#1D1D1D"/>
</linearGradient>
<radialGradient id="paint2_radial_1851_12110" cx="0" cy="0" r="1" gradientUnits="userSpaceOnUse" gradientTransform="translate(407.714 156.833) rotate(90) scale(210.587 441.944)">
<stop stop-color="#A3FFE9"/>
<stop offset="1" stop-color="#66FFDB" stop-opacity="0"/>
</radialGradient>
<linearGradient id="paint3_linear_1851_12110" x1="426.683" y1="103.726" x2="426.683" y2="243.919" gradientUnits="userSpaceOnUse">
<stop stop-color="#757877"/>
<stop offset="1"/>
</linearGradient>
<linearGradient id="paint4_linear_1851_12110" x1="395" y1="257.202" x2="471.995" y2="96.0158" gradientUnits="userSpaceOnUse">
<stop stop-opacity="0.19"/>
<stop offset="1" stop-opacity="0"/>
</linearGradient>
<linearGradient id="paint5_linear_1851_12110" x1="395" y1="257.176" x2="471.995" y2="95.9895" gradientUnits="userSpaceOnUse">
<stop stop-opacity="0.19"/>
<stop offset="1" stop-opacity="0"/>
</linearGradient>
<linearGradient id="paint6_linear_1851_12110" x1="395" y1="257.194" x2="471.995" y2="96.0069" gradientUnits="userSpaceOnUse">
<stop stop-opacity="0.19"/>
<stop offset="1" stop-opacity="0"/>
</linearGradient>
<linearGradient id="paint7_linear_1851_12110" x1="395" y1="257.189" x2="471.995" y2="96.0026" gradientUnits="userSpaceOnUse">
<stop stop-opacity="0.19"/>
<stop offset="1" stop-opacity="0"/>
</linearGradient>
<linearGradient id="paint8_linear_1851_12110" x1="395.003" y1="257.19" x2="471.998" y2="96.0029" gradientUnits="userSpaceOnUse">
<stop stop-opacity="0.19"/>
<stop offset="1" stop-opacity="0"/>
</linearGradient>
<clipPath id="clip0_1851_12110">
<rect width="854" height="360" fill="white"/>
</clipPath>
</defs>
</svg>
