<svg width="18" height="18" viewBox="0 0 18 18" fill="none" xmlns="http://www.w3.org/2000/svg">
<path fill-rule="evenodd" clip-rule="evenodd" d="M17.592 0.0487247C17.6592 0.114642 17.6604 0.222615 17.5944 0.289891L17.4743 0.412522C17.4084 0.479798 17.3004 0.4809 17.2331 0.414982C17.1658 0.349067 17.1647 0.241092 17.2307 0.173817L17.3508 0.051187C17.4167 -0.0160893 17.5247 -0.0171908 17.592 0.0487247ZM16.9912 0.661881C17.0585 0.727796 17.0596 0.835771 16.9937 0.903045L16.7534 1.14831C16.6874 1.21559 16.5795 1.21669 16.5122 1.15077C16.4449 1.08485 16.4438 0.976882 16.5097 0.909606L16.75 0.664341C16.816 0.597065 16.9239 0.595963 16.9912 0.661881ZM16.2703 1.39767C16.3376 1.46358 16.3387 1.57156 16.2727 1.63884L16.0324 1.8841C15.9665 1.95137 15.8586 1.95248 15.7913 1.88656C15.724 1.82064 15.7229 1.71267 15.7888 1.64539L16.0291 1.40013C16.095 1.33285 16.203 1.33175 16.2703 1.39767ZM15.5494 2.13346C15.6166 2.19937 15.6177 2.30735 15.5518 2.37462L15.3115 2.61989C15.2456 2.68716 15.1376 2.68826 15.0704 2.62235C15.0031 2.55643 15.002 2.44846 15.0679 2.38118L15.3082 2.13592C15.3741 2.06864 15.4821 2.06754 15.5494 2.13346ZM14.8284 2.86925C14.8957 2.93516 14.8968 3.04314 14.8309 3.11041L14.5906 3.35567C14.5247 3.42295 14.4167 3.42405 14.3494 3.35814C14.2822 3.29222 14.2811 3.18425 14.347 3.11697L14.5873 2.87171C14.6532 2.80443 14.7612 2.80333 14.8284 2.86925ZM14.1075 3.60503C14.1748 3.67095 14.1759 3.77892 14.11 3.8462L13.8697 4.09146C13.8038 4.15874 13.6958 4.15984 13.6285 4.09392C13.5612 4.02801 13.5601 3.92003 13.6261 3.85276L13.8664 3.6075C13.9323 3.54022 14.0403 3.53912 14.1075 3.60503ZM4.01465 13.9061C4.08192 13.972 4.08302 14.08 4.01711 14.1472L3.7768 14.3925C3.71088 14.4598 3.60291 14.4609 3.53563 14.395C3.46836 14.329 3.46726 14.2211 3.53317 14.1538L3.77348 13.9085C3.8394 13.8413 3.94737 13.8402 4.01465 13.9061ZM3.29373 14.6419C3.361 14.7078 3.3621 14.8158 3.29619 14.883L3.05588 15.1283C2.98996 15.1956 2.88199 15.1967 2.81471 15.1308C2.74744 15.0648 2.74634 14.9569 2.81225 14.8896L3.05256 14.6443C3.11848 14.577 3.22645 14.5759 3.29373 14.6419ZM2.57281 15.3777C2.64008 15.4436 2.64118 15.5515 2.57527 15.6188L2.33496 15.8641C2.26904 15.9314 2.16107 15.9325 2.09379 15.8665C2.02652 15.8006 2.02542 15.6927 2.09133 15.6254L2.33164 15.3801C2.39756 15.3128 2.50553 15.3117 2.57281 15.3777ZM1.85189 16.1134C1.91916 16.1794 1.92026 16.2873 1.85435 16.3546L1.61404 16.5999C1.54812 16.6671 1.44015 16.6682 1.37287 16.6023C1.3056 16.5364 1.3045 16.4284 1.37041 16.3612L1.61072 16.1159C1.67664 16.0486 1.78461 16.0475 1.85189 16.1134ZM1.13097 16.8492C1.19824 16.9151 1.19934 17.0231 1.13343 17.0904L0.89312 17.3357C0.827203 17.4029 0.71923 17.404 0.651954 17.3381C0.584678 17.2722 0.583576 17.1642 0.649492 17.097L0.889799 16.8517C0.955715 16.7844 1.06369 16.7833 1.13097 16.8492ZM0.410045 17.585C0.477321 17.6509 0.478423 17.7589 0.412506 17.8262L0.292353 17.9488C0.226437 18.0161 0.118463 18.0172 0.0511869 17.9513C-0.0160891 17.8854 -0.0171912 17.7774 0.0487253 17.7101L0.168879 17.5875C0.234795 17.5202 0.342769 17.5191 0.410045 17.585Z" fill="#B5B5B5"/>
<path fill-rule="evenodd" clip-rule="evenodd" d="M11.2209 3.58008H6.48997C4.63582 3.58008 3.39844 4.90761 3.39844 6.80859V11.2661C3.39844 13.1689 4.63254 14.4946 6.48997 14.4946H11.2203C13.0783 14.4946 14.3129 13.1689 14.3129 11.2661V6.80859C14.3129 4.90592 13.0784 3.58008 11.2209 3.58008ZM6.48997 4.39867H11.2209C12.6127 4.39867 13.4944 5.34548 13.4944 6.80859V11.2661C13.4944 12.7292 12.6127 13.676 11.2203 13.676H6.48997C5.09826 13.676 4.21703 12.7293 4.21703 11.2661V6.80859C4.21703 5.34734 5.10127 4.39867 6.48997 4.39867Z" fill="#B5B5B5"/>
<path d="M10.9513 7.08389L10.9633 7.09588L10.9513 7.08389ZM10.9513 7.08389L7.72407 10.3072L6.49081 9.07561C6.43659 9.0214 6.36354 8.99116 6.28707 8.99116C6.21117 8.99116 6.13811 9.0214 6.08389 9.07561L6.09588 9.08759L6.08389 9.07561C6.05764 9.10186 6.03595 9.13382 6.02168 9.16863C6.00742 9.20344 6 9.24055 6 9.27822C6 9.31588 6.00742 9.35354 6.02168 9.38836C6.03595 9.42317 6.05764 9.45455 6.08389 9.48138L7.52091 10.9161C7.57455 10.9698 7.64759 11 7.72407 11C7.79997 11 7.87303 10.9698 7.92724 10.9161L11.3583 7.48966C11.3845 7.46341 11.4056 7.43145 11.4205 7.39664C11.4347 7.36182 11.4421 7.32472 11.4421 7.28705C11.4421 7.24939 11.4347 7.21173 11.4205 7.17691C11.4056 7.1421 11.3845 7.11072 11.3583 7.08389C11.304 7.03025 11.231 7 11.1545 7C11.0786 7 11.0056 7.03025 10.9513 7.08389Z" fill="#B5B5B5" stroke="#B5B5B5" stroke-width="0.4"/>
</svg>
