<svg width="556" height="556" viewBox="0 0 556 556" fill="none" xmlns="http://www.w3.org/2000/svg">
<g clip-path="url(#clip0_5378_2397)">
<path d="M474.582 474.582C583.148 366.016 583.148 189.996 474.582 81.4302C366.016 -27.1356 189.996 -27.1356 81.4298 81.4302C-27.1363 189.996 -27.1363 366.016 81.4298 474.582C189.996 583.147 366.016 583.147 474.582 474.582Z" fill="#FEE475"/>
<path d="M469.558 469.555C575.349 363.764 575.349 192.244 469.558 86.4531C363.767 -19.3374 192.246 -19.3374 86.4556 86.4531C-19.3353 192.244 -19.3353 363.764 86.4556 469.555C192.246 575.345 363.767 575.345 469.558 469.555Z" fill="#FFCF0A"/>
<g style="mix-blend-mode:soft-light">
<path d="M283.335 479.317C391.741 479.317 479.622 391.436 479.622 283.029C479.622 174.623 391.741 86.7422 283.335 86.7422C174.928 86.7422 87.0469 174.623 87.0469 283.029C87.0469 391.436 174.928 479.317 283.335 479.317Z" fill="white"/>
</g>
<path d="M416.803 416.8C493.459 340.145 493.459 215.863 416.803 139.208C340.148 62.5529 215.866 62.5529 139.211 139.208C62.5554 215.863 62.5554 340.145 139.211 416.8C215.866 493.455 340.148 493.455 416.803 416.8Z" fill="#FEB724"/>
<path d="M466.541 287.554C466.709 340.024 446.552 390.421 410.49 427.698C374.428 464.974 325.404 486.088 274.164 486.41C222.924 486.732 173.649 466.237 137.143 429.418C100.636 392.598 79.8763 342.458 79.4141 289.99V287.554C79.4141 234.985 99.8078 184.569 136.109 147.397C172.41 110.225 221.645 89.3418 272.982 89.3418H275.37C326.296 89.9661 374.929 111.124 410.72 148.226C446.511 185.329 466.575 235.384 466.559 287.536L466.541 287.554Z" fill="#ED9B02"/>
<path d="M92.3753 288.663C92.3677 250.482 103.498 213.128 124.402 181.178C145.306 149.228 175.076 124.069 210.064 108.785C245.052 93.5009 283.739 88.7547 321.384 95.1282C359.03 101.502 393.998 118.718 422.005 144.668C404.066 125.283 382.399 109.72 358.301 98.909C334.203 88.0981 308.172 82.2624 281.765 81.7516C255.359 81.2407 229.121 86.0651 204.623 95.9359C180.125 105.807 157.872 120.521 139.196 139.196C120.521 157.872 105.807 180.125 95.9359 204.623C86.0651 229.12 81.2407 255.358 81.7516 281.765C82.2624 308.171 88.0981 334.203 98.909 358.3C109.72 382.398 125.284 404.065 144.668 422.005C111.001 385.77 92.3156 338.124 92.3753 288.663Z" fill="#FB9D12"/>
<g style="mix-blend-mode:soft-light">
<path d="M278.006 10.6622C429.753 10.6622 553.019 132.266 555.871 283.334C555.904 281.554 556.005 279.792 556.005 278.004C556.092 241.441 548.966 205.219 535.035 171.414C521.103 137.608 500.64 106.883 474.816 80.998C448.993 55.1127 418.317 34.5757 384.545 20.5632C350.773 6.55067 314.568 -0.662109 278.005 -0.662109C241.441 -0.662109 205.237 6.55067 171.465 20.5632C137.693 34.5757 107.016 55.1127 81.193 80.998C55.3696 106.883 34.9062 137.608 20.9746 171.414C7.04305 205.219 -0.0829477 241.441 0.00470514 278.004C0.00470514 279.792 0.105357 281.554 0.138907 283.334C2.9907 132.266 126.257 10.6622 278.006 10.6622Z" fill="#FFCF00"/>
</g>
<path d="M413.095 137.619L132.221 418.445C95.4873 381.84 74.6025 332.276 74.0645 280.427V277.986C74.0645 225.325 94.9885 174.82 132.234 137.581C169.48 100.342 219.996 79.4189 272.672 79.4141H275.122C326.959 80.0256 376.491 100.921 413.095 137.619Z" fill="#F7B409" fill-opacity="0.61"/>
<path d="M476.488 282.909C476.489 309.633 471.386 336.095 461.471 360.786C451.555 385.476 437.021 407.91 418.698 426.807C400.375 445.705 378.623 460.695 354.682 470.922C330.742 481.149 305.083 486.413 279.17 486.413C275.428 486.413 271.713 486.307 268.025 486.094C318.356 483.166 365.69 460.483 400.317 422.701C434.944 384.918 454.237 334.902 454.237 282.913C454.237 230.925 434.944 180.909 400.317 143.126C365.69 105.344 318.356 82.6612 268.025 79.7325C271.713 79.5202 275.428 79.4141 279.17 79.4141C331.502 79.4141 381.691 100.854 418.695 139.016C455.699 177.179 476.488 228.939 476.488 282.909Z" fill="#D77C00"/>
<path d="M372.466 196.434C372.965 197.492 373.221 198.645 373.216 199.81V227.154C373.198 235.71 371.145 244.145 367.219 251.79C363.293 259.434 357.603 266.079 350.599 271.197C339.407 279.785 327.963 287.86 316.247 295.971L291.015 313.148C287.705 315.503 283.638 316.611 279.561 316.268C277.457 316.029 275.397 315.504 273.441 314.708C271.695 313.856 270.005 312.9 268.379 311.845C245.481 296.476 222.583 281.116 200.219 264.976C190.096 257.947 180.245 250.653 170.132 243.367C168.801 242.587 167.733 241.532 166.383 240.761C162.647 237.926 160.095 233.855 159.203 229.31C158.967 228.101 158.876 226.869 158.931 225.64V200.866C158.972 199.816 158.88 198.765 158.66 197.737C158.584 197.585 158.545 197.419 158.547 197.25C158.544 197.08 158.583 196.912 158.662 196.76C158.74 196.608 158.855 196.477 158.997 196.379C159.137 196.28 159.297 196.211 159.466 196.177H159.728C159.791 196.616 159.879 197.051 159.99 197.48C160.214 200.034 161.345 202.43 163.187 204.251C164.525 205.901 166.15 207.308 167.986 208.408C194.605 227.943 221.768 246.946 249.193 265.701C255.585 270.133 262.231 274.28 268.623 278.712C271.206 280.479 274.083 281.795 277.124 282.602C280.695 283.437 284.448 283.071 287.781 281.565C289.023 281.023 290.185 280.323 291.24 279.483C308.805 267.242 326.117 255.259 343.728 243.028C347.187 240.679 350.383 238.339 353.551 235.742C361.888 228.422 367.977 218.972 371.135 208.454C371.622 206.661 371.979 204.837 372.203 202.994C372.43 201.967 372.521 200.916 372.475 199.865L372.466 196.434ZM277.677 158.676H284.06C294.416 159.437 304.446 162.557 313.351 167.787C319.377 171.363 325.001 175.552 330.128 180.285C333.546 183.156 335.808 187.124 336.511 191.479C337.228 195.737 336.573 200.108 334.637 203.985C334.102 205.279 333.296 206.325 332.762 207.362C332.503 207.871 332.054 208.263 331.507 208.456C330.961 208.649 330.36 208.628 329.828 208.399C329.566 208.399 329.566 208.142 329.303 208.142C327.429 206.839 325.554 205.802 323.445 204.472C315.821 199.186 307.229 195.386 298.138 193.277C292.308 191.937 286.299 191.498 280.33 191.974C268.147 192.855 256.448 197.001 246.512 203.958C242.763 206.555 238.789 208.637 234.796 211.243C234.534 211.243 234.534 211.5 234.262 211.5C234.063 211.472 233.879 211.382 233.737 211.243L211.364 196.406C210.873 196.123 210.428 195.771 210.042 195.36C209.741 195.173 209.524 194.881 209.433 194.544C209.333 194.21 209.356 193.853 209.498 193.534C209.498 193.277 209.77 193.277 210.042 193.02L210.567 192.488C216.959 188.332 223.08 183.625 229.463 179.193C234.939 175.254 240.627 171.606 246.503 168.265C253.339 164.554 260.694 161.843 268.332 160.217C271.377 159.311 274.526 158.784 277.705 158.648L277.677 158.676ZM265.914 160.777V115.018C265.929 114.159 266.118 113.31 266.471 112.523C266.823 111.735 267.332 111.024 267.967 110.43C269.241 109.233 270.944 108.574 272.71 108.595H286.272C288.031 108.558 289.733 109.204 291.007 110.393C292.28 111.581 293.021 113.214 293.068 114.936V159.896C284.023 158.887 274.876 159.171 265.914 160.74V160.777ZM372.766 272.72C373.281 273.775 373.553 274.928 373.562 276.097V303.963C373.336 316.235 369.062 328.105 361.378 337.803C358.043 341.901 354.199 345.576 349.933 348.74C338.686 357.329 327.016 365.403 315.253 373.515L291.821 389.398C289.813 390.772 287.549 391.748 285.157 392.27C281.963 393.06 278.591 392.783 275.578 391.481C273.408 390.705 271.35 389.657 269.457 388.361C243.363 370.927 217.269 353.209 191.662 334.72C183.676 328.994 175.728 323.269 167.695 317.286C163.741 314.479 161.077 310.259 160.281 305.541C160.045 304.333 159.954 303.101 160.009 301.871V276.629C160.053 275.668 159.965 274.705 159.747 273.766C159.484 272.986 160.009 272.197 160.553 272.197C160.553 272.729 160.815 272.986 160.815 273.509C161.115 276.378 162.444 279.05 164.564 281.052C165.853 282.416 167.282 283.646 168.829 284.722C196.517 305.028 225.011 324.81 253.467 344.088C258.763 347.759 264.115 351.108 269.176 354.503C271.334 356.13 273.767 357.372 276.365 358.173C278.319 358.816 280.382 359.081 282.439 358.953C284.493 358.815 286.5 358.282 288.344 357.384C289.649 356.794 290.903 356.1 292.093 355.31C311.26 342.006 330.438 328.701 349.605 315.213C360.201 307.721 367.971 297.011 371.707 284.749C372.272 282.693 372.717 280.607 373.038 278.501C372.52 276.616 372.43 274.643 372.775 272.72H372.766ZM288.025 447.388H272.091C270.196 447.371 268.385 446.62 267.053 445.3C265.722 443.979 264.979 442.196 264.986 440.341L265.999 385.939C267.38 384.03 269.257 382.516 271.435 381.553L293.602 377.35C293.81 377.351 294.016 377.393 294.207 377.472C294.399 377.551 294.573 377.666 294.719 377.811C294.865 377.956 294.981 378.127 295.06 378.316C295.138 378.504 295.178 378.706 295.177 378.91V440.387C295.174 442.238 294.426 444.014 293.094 445.328C291.762 446.643 289.954 447.389 288.062 447.406L288.025 447.388Z" fill="#8B5204"/>
<path d="M375.404 204.627C375.895 205.69 376.15 206.846 376.152 208.016V235.384C376.131 243.948 374.105 252.389 370.235 260.041C366.365 267.692 360.758 274.342 353.856 279.466C342.837 288.071 331.551 296.144 320.005 304.262L295.141 321.445C291.88 323.797 287.879 324.908 283.864 324.577C281.787 324.336 279.754 323.807 277.824 323.006C276.107 322.151 274.441 321.198 272.836 320.15C250.272 304.767 227.708 289.394 205.67 273.239C195.695 266.204 185.997 258.903 176.022 251.611C174.711 250.831 173.667 249.775 172.328 249.003C168.64 246.165 166.121 242.086 165.243 237.533C165.011 236.323 164.921 235.09 164.976 233.859V209.109C165.014 208.058 164.927 207.007 164.717 205.977C164.64 205.825 164.6 205.656 164.6 205.486C164.6 205.315 164.64 205.147 164.717 204.994C164.793 204.845 164.904 204.716 165.04 204.618C165.178 204.519 165.336 204.45 165.502 204.416H165.761C165.821 204.856 165.911 205.291 166.028 205.72C166.239 208.276 167.355 210.674 169.178 212.488C170.489 214.147 172.087 215.559 173.898 216.658C200.129 236.201 226.895 255.23 253.92 273.992C260.219 278.428 266.768 282.588 273.076 287.015C275.617 288.788 278.448 290.109 281.444 290.918C284.963 291.755 288.664 291.386 291.946 289.871C293.173 289.336 294.32 288.634 295.354 287.786C312.672 275.544 329.722 263.55 347.077 251.299C350.485 248.957 353.634 246.615 356.756 244.007C364.978 236.671 370.979 227.199 374.083 216.658C374.564 214.863 374.916 213.037 375.136 211.193C375.359 210.165 375.449 209.113 375.404 208.062V204.627ZM281.998 166.817H288.288C298.492 167.587 308.375 170.712 317.151 175.946C323.08 179.527 328.609 183.723 333.647 188.464C337.015 191.343 339.246 195.316 339.946 199.677C340.648 203.936 340.003 208.307 338.099 212.185C337.573 213.489 336.778 214.536 336.252 215.574C335.993 216.081 335.551 216.471 335.014 216.667C334.476 216.861 333.884 216.841 333.361 216.612C333.102 216.612 333.102 216.355 332.844 216.355C330.996 215.051 329.149 214.004 327.071 212.681C319.558 207.388 311.092 203.581 302.133 201.468C296.387 200.134 290.466 199.697 284.584 200.173C272.589 201.044 261.065 205.173 251.269 212.112C247.575 214.72 243.659 216.805 239.715 219.404C239.456 219.404 239.456 219.67 239.198 219.67C238.998 219.641 238.813 219.547 238.671 219.404L216.634 204.554C216.146 204.277 215.703 203.926 215.322 203.516C215.029 203.322 214.814 203.031 214.718 202.694C214.621 202.357 214.649 201.997 214.796 201.679C214.796 201.413 215.064 201.413 215.322 201.156L215.839 200.632C222.138 196.472 228.17 191.761 234.46 187.316C239.846 183.385 245.442 179.746 251.223 176.414C257.962 172.705 265.209 169.992 272.734 168.36C275.737 167.462 278.839 166.935 281.971 166.79L281.998 166.817ZM270.407 168.93V123.148C270.453 121.425 271.183 119.79 272.438 118.601C273.693 117.412 275.37 116.765 277.103 116.802H290.431C292.164 116.765 293.841 117.412 295.096 118.601C296.351 119.79 297.081 121.425 297.127 123.148V168.149C288.207 167.125 279.185 167.394 270.342 168.948L270.407 168.93ZM375.7 280.972C376.205 282.032 376.476 283.188 376.494 284.361V312.243C376.257 324.535 372.025 336.42 364.431 346.122C361.143 350.222 357.355 353.899 353.154 357.069C342.071 365.665 330.572 373.747 318.98 381.865L295.89 397.763C293.907 399.131 291.677 400.104 289.323 400.628C286.176 401.417 282.855 401.142 279.883 399.847C277.744 399.07 275.716 398.017 273.852 396.716C248.138 379.266 222.425 361.542 197.238 343.036C189.368 337.306 181.536 331.575 173.621 325.587C169.73 322.772 167.107 318.551 166.315 313.832C166.085 312.621 165.999 311.389 166.056 310.158V284.903C166.092 283.943 166.002 282.983 165.788 282.047C165.53 281.257 166.056 280.476 166.583 280.476C166.583 281 166.841 281.257 166.841 281.78C167.137 284.654 168.446 287.331 170.536 289.339C171.81 290.699 173.218 291.93 174.738 293.012C202.022 313.336 230.1 333.136 258.141 352.422C263.36 356.096 268.634 359.457 273.621 362.846C275.745 364.478 278.144 365.721 280.705 366.519C282.627 367.171 284.66 367.437 286.686 367.303C288.712 367.169 290.691 366.638 292.509 365.739C293.795 365.148 295.031 364.454 296.204 363.663C315.092 350.347 333.989 337.03 352.877 323.521C363.316 316.024 370.972 305.308 374.656 293.04C375.213 290.979 375.651 288.887 375.968 286.776C375.433 284.892 375.32 282.914 375.635 280.981L375.7 280.972ZM292.204 455.804H276.503C274.638 455.785 272.856 455.034 271.544 453.715C270.233 452.396 269.499 450.615 269.502 448.76L270.499 394.3C271.866 392.397 273.714 390.886 275.856 389.92L297.7 385.713C297.905 385.713 298.107 385.754 298.296 385.832C298.485 385.911 298.656 386.027 298.799 386.173C298.944 386.318 299.058 386.49 299.136 386.679C299.213 386.868 299.253 387.07 299.252 387.275V448.806C299.247 450.657 298.51 452.431 297.2 453.746C295.89 455.061 294.112 455.81 292.251 455.832L292.204 455.804Z" fill="#FFF8E6"/>
</g>
<defs>
<clipPath id="clip0_5378_2397">
<rect width="556" height="556" fill="white"/>
</clipPath>
</defs>
</svg>
