<svg width="104" height="106" viewBox="0 0 104 106" fill="none" xmlns="http://www.w3.org/2000/svg">
<path fill-rule="evenodd" clip-rule="evenodd" d="M103.155 0.28571C103.55 0.672233 103.556 1.30536 103.169 1.69985L102.465 2.41893C102.078 2.81342 101.445 2.81988 101.051 2.43335C100.656 2.04684 100.65 1.4137 101.036 1.01922L101.741 0.300148C102.127 -0.0943435 102.761 -0.100803 103.155 0.28571ZM99.6323 3.88111C100.027 4.26762 100.033 4.90076 99.6467 5.29524L98.2376 6.73341C97.8511 7.1279 97.218 7.13436 96.8235 6.74785C96.429 6.36132 96.4225 5.7282 96.809 5.3337L98.2182 3.89553C98.6047 3.50104 99.2378 3.49458 99.6323 3.88111ZM95.405 8.19559C95.7995 8.5821 95.8059 9.21524 95.4194 9.60973L94.0103 11.0479C93.6238 11.4424 92.9907 11.4488 92.5962 11.0623C92.2017 10.6758 92.1952 10.0427 92.5817 9.64819L93.9909 8.21002C94.3774 7.81553 95.0105 7.80906 95.405 8.19559ZM91.1777 12.5101C91.5722 12.8966 91.5786 13.5297 91.1921 13.9242L89.783 15.3624C89.3965 15.7569 88.7634 15.7633 88.3689 15.3768C87.9744 14.9903 87.9679 14.3572 88.3544 13.9627L89.7636 12.5245C90.1501 12.13 90.7832 12.1236 91.1777 12.5101ZM86.9504 16.8246C87.3449 17.2111 87.3513 17.8442 86.9648 18.2387L85.5557 19.6769C85.1692 20.0713 84.5361 20.0778 84.1416 19.6913C83.7471 19.3048 83.7406 18.6716 84.1272 18.2771L85.5362 16.839C85.9228 16.4445 86.5559 16.438 86.9504 16.8246ZM82.7231 21.139C83.1176 21.5256 83.124 22.1587 82.7375 22.5532L81.3284 23.9913C80.9419 24.3858 80.3088 24.3923 79.9143 24.0058C79.5198 23.6193 79.5133 22.9861 79.8998 22.5916L81.3089 21.1535C81.6955 20.759 82.3286 20.7525 82.7231 21.139ZM23.5409 81.5418C23.9354 81.9283 23.9418 82.5615 23.5553 82.9559L22.1462 84.3941C21.7597 84.7886 21.1266 84.7951 20.7321 84.4085C20.3376 84.022 20.3311 83.3889 20.7177 82.9944L22.1268 81.5562C22.5133 81.1618 23.1464 81.1553 23.5409 81.5418ZM19.3136 85.8563C19.7081 86.2428 19.7146 86.8759 19.328 87.2704L17.9189 88.7086C17.5324 89.1031 16.8993 89.1095 16.5048 88.723C16.1103 88.3365 16.1038 87.7034 16.4904 87.3089L17.8995 85.8707C18.286 85.4762 18.9191 85.4698 19.3136 85.8563ZM15.0863 90.1708C15.4808 90.5573 15.4873 91.1904 15.1007 91.5849L13.6916 93.0231C13.3051 93.4176 12.672 93.424 12.2775 93.0375C11.883 92.651 11.8765 92.0179 12.2631 91.6234L13.6722 90.1852C14.0587 89.7907 14.6918 89.7843 15.0863 90.1708ZM10.859 94.4853C11.2535 94.8718 11.26 95.5049 10.8734 95.8994L9.46433 97.3376C9.07782 97.732 8.44468 97.7385 8.05019 97.352C7.6557 96.9655 7.64924 96.3323 8.03576 95.9379L9.44486 94.4997C9.83138 94.1052 10.4645 94.0987 10.859 94.4853ZM6.6317 98.7997C7.02619 99.1863 7.03265 99.8194 6.64614 100.214L5.23704 101.652C4.85052 102.047 4.21739 102.053 3.8229 101.666C3.42841 101.28 3.42194 100.647 3.80846 100.252L5.21756 98.8142C5.60408 98.4197 6.23721 98.4132 6.6317 98.7997ZM2.4044 103.114C2.79889 103.501 2.80536 104.134 2.41884 104.528L1.71429 105.247C1.32777 105.642 0.694637 105.648 0.300147 105.262C-0.0943424 104.875 -0.100805 104.242 0.285713 103.848L0.990263 103.129C1.37678 102.734 2.00991 102.728 2.4044 103.114Z" fill="#7E7E7E"/>
<path fill-rule="evenodd" clip-rule="evenodd" d="M65.8688 21H38.128C27.2557 21 20 28.7843 20 39.9312V66.0688C20 77.2262 27.2365 85 38.128 85H65.8656C76.7603 85 84 77.2262 84 66.0688V39.9312C84 28.7744 76.761 21 65.8688 21ZM38.128 25.8H65.8688C74.0304 25.8 79.2 31.3519 79.2 39.9312V66.0688C79.2 74.6483 74.0301 80.2 65.8656 80.2H38.128C29.9674 80.2 24.8 74.649 24.8 66.0688V39.9312C24.8 31.3628 29.985 25.8 38.128 25.8Z" fill="#7E7E7E"/>
<path d="M42 67.32V39H61.0828V43.9366H47.9876V50.6848H60.101V55.6214H47.9876V62.3834H61.1381V67.32H42Z" fill="#7E7E7E"/>
</svg>
