<svg width="256" height="256" viewBox="0 0 256 256" fill="none" xmlns="http://www.w3.org/2000/svg">
<path d="M0 102.4C0 66.5568 0 48.6349 6.97557 34.9446C13.1115 22.9022 22.9022 13.1115 34.9446 6.97557C48.6349 0 66.5568 0 102.4 0H153.599C189.443 0 207.364 0 221.055 6.97557C233.097 13.1115 242.888 22.9022 249.024 34.9446C255.999 48.6349 255.999 66.5568 255.999 102.4V153.599C255.999 189.443 255.999 207.364 249.024 221.055C242.888 233.097 233.097 242.888 221.055 249.024C207.364 255.999 189.443 255.999 153.599 255.999H102.4C66.5568 255.999 48.6349 255.999 34.9446 249.024C22.9022 242.888 13.1115 233.097 6.97557 221.055C0 207.364 0 189.443 0 153.599V102.4Z" fill="url(#paint0_linear_8209_645)"/>
<g filter="url(#filter0_d_8209_645)">
<path d="M72 87.6602C72.2239 87.8947 72.6163 88.1096 72.645 88.3669C72.9238 90.8725 74.4491 92.5548 76.3025 93.9007C93.3218 106.26 110.345 118.615 127.426 130.885C131.551 133.849 134.823 133.677 138.894 130.738C148.197 124.023 157.492 117.297 166.775 110.553C172.038 106.729 175.876 101.757 177.884 95.4619C178.584 93.265 178.854 90.925 179.148 89.4897C179.148 94.9742 179.545 101.333 179.047 107.617C178.434 115.365 174.632 121.755 168.559 126.355C158.442 134.019 148.127 141.411 137.806 148.787C134.45 151.186 130.894 150.558 127.607 148.366C124.235 146.117 120.89 143.822 117.611 141.436C104.023 131.548 90.4688 121.612 76.8916 111.71C74.5655 110.013 72.7283 108.008 72.3146 104.975C72.3244 100.047 72.3415 95.1197 72.3291 90.1923C72.3281 89.8181 72.1146 89.4445 72 89.0709C72 88.6008 72 88.1306 72 87.6602Z" fill="white"/>
<path d="M72 88.1719C72.2239 88.4064 72.6163 88.6213 72.645 88.8786C72.9238 91.3843 74.4491 93.0665 76.3025 94.4124C93.3218 106.772 110.345 119.127 127.426 131.397C131.551 134.36 134.823 134.189 138.894 131.25C148.197 124.535 157.492 117.809 166.775 111.065C172.038 107.24 175.876 102.269 177.884 95.9736C178.584 93.7767 178.854 91.4367 179.148 90.0014C179.148 95.4859 179.545 101.844 179.047 108.129C178.434 115.877 174.632 122.266 168.559 126.867C158.442 134.53 148.127 141.922 137.806 149.299C134.45 151.698 130.894 151.069 127.607 148.877C124.235 146.629 120.89 144.333 117.611 141.948C104.023 132.06 90.4688 122.124 76.8916 112.221C74.5655 110.525 72.7283 108.519 72.3146 105.487C72.3244 100.559 72.3415 95.6314 72.3291 90.704C72.3281 90.3298 72.1146 89.9562 72 89.5827C72 89.1125 72 88.6424 72 88.1719Z" fill="url(#paint1_linear_8209_645)" fill-opacity="0.7"/>
<path d="M72.0003 127.492C72.2144 127.639 72.5991 127.768 72.617 127.936C72.914 130.73 74.7435 132.417 76.7705 133.931C84.5714 139.757 92.3312 145.642 100.217 151.346C108.949 157.66 117.793 163.811 126.604 170.01C131.652 173.562 134.453 173.577 139.494 169.958C148.435 163.539 157.321 157.039 166.257 150.611C171.583 146.781 175.619 141.918 177.712 135.579C178.49 133.225 178.805 130.713 179.644 128.269C179.413 135.091 179.612 141.965 178.836 148.723C178.004 155.963 174.117 161.875 168.41 166.179C158.371 173.749 148.146 181.064 137.934 188.394C134.355 190.963 130.707 190.2 127.294 187.868C122.848 184.829 118.413 181.771 114.059 178.598C101.51 169.454 89.0041 160.248 76.4805 151.067C74.2421 149.426 72.6416 147.367 72.295 144.476C72.3105 139.484 72.3321 134.491 72.3264 129.499C72.326 129.183 72.1136 128.867 72 128.551C72.0003 128.198 72.0003 127.845 72.0003 127.492Z" fill="url(#paint2_linear_8209_645)" fill-opacity="0.8"/>
<path d="M72.0003 126.934C72.2144 127.081 72.5991 127.209 72.617 127.378C72.914 130.172 74.7435 131.859 76.7705 133.372C84.5714 139.198 92.3312 145.084 100.217 150.787C108.949 157.101 117.793 163.252 126.604 169.451C131.652 173.003 134.453 173.018 139.494 169.4C148.435 162.981 157.321 156.481 166.257 150.053C171.583 146.222 175.619 141.359 177.712 135.02C178.49 132.667 178.805 130.155 179.644 127.71C179.413 134.533 179.612 141.407 178.836 148.164C178.004 155.404 174.117 161.317 168.41 165.62C158.371 173.19 148.146 180.506 137.934 187.835C134.355 190.404 130.707 189.642 127.294 187.309C122.848 184.27 118.413 181.212 114.059 178.04C101.51 168.896 89.0041 159.689 76.4805 150.509C74.2421 148.868 72.6416 146.808 72.295 143.918C72.3105 138.925 72.3321 133.933 72.3264 128.94C72.326 128.624 72.1136 128.309 72 127.993C72.0003 127.639 72.0003 127.286 72.0003 126.934Z" fill="white"/>
<path d="M96.9648 86.3289C97.2558 85.9898 97.4059 85.7276 97.6274 85.569C103.043 81.6909 108.362 77.6603 113.916 74.0002C119.663 70.2128 126.01 67.989 132.953 68C139.425 68.0104 145.295 70.1141 150.617 73.7487C153.19 75.5058 155.681 77.4451 157.964 79.5754C161.654 83.0189 162.036 89.1515 159.1 93.2741C158.444 94.1955 157.761 94.2551 156.899 93.6667C155.704 92.8502 154.517 92.0182 153.301 91.2356C141.017 83.3314 128.731 83.4166 116.449 91.2459C114.497 92.4901 112.565 93.7681 110.576 94.9478C110.177 95.1847 109.414 95.2782 109.073 95.0471C105.24 92.4466 101.455 89.7724 97.6655 87.106C97.4382 86.9466 97.2804 86.6848 96.9648 86.3289Z" fill="white"/>
</g>
<g filter="url(#filter1_d_8209_645)">
<path d="M72 87.6602C72.2239 87.8947 72.6163 88.1096 72.645 88.3669C72.9238 90.8725 74.4491 92.5548 76.3025 93.9007C93.3218 106.26 110.345 118.615 127.426 130.885C131.551 133.849 134.823 133.677 138.894 130.738C148.197 124.023 157.492 117.297 166.775 110.553C172.038 106.729 175.876 101.757 177.884 95.4619C178.584 93.265 178.854 90.925 179.148 89.4897C179.148 94.9742 179.545 101.333 179.047 107.617C178.434 115.365 174.632 121.755 168.559 126.355C158.442 134.019 148.127 141.411 137.806 148.787C134.45 151.186 130.894 150.558 127.607 148.366C124.235 146.117 120.89 143.822 117.611 141.436C104.023 131.548 90.4688 121.612 76.8916 111.71C74.5655 110.013 72.7283 108.008 72.3146 104.975C72.3244 100.047 72.3415 95.1197 72.3291 90.1923C72.3281 89.8181 72.1146 89.4445 72 89.0709C72 88.6008 72 88.1306 72 87.6602Z" fill="url(#paint3_linear_8209_645)"/>
<path d="M72 88.1719C72.2239 88.4064 72.6163 88.6213 72.645 88.8786C72.9238 91.3843 74.4491 93.0665 76.3025 94.4124C93.3218 106.772 110.345 119.127 127.426 131.397C131.551 134.36 134.823 134.189 138.894 131.25C148.197 124.535 157.492 117.809 166.775 111.065C172.038 107.24 175.876 102.269 177.884 95.9736C178.584 93.7767 178.854 91.4367 179.148 90.0014C179.148 95.4859 179.545 101.844 179.047 108.129C178.434 115.877 174.632 122.266 168.559 126.867C158.442 134.53 148.127 141.922 137.806 149.299C134.45 151.698 130.894 151.069 127.607 148.877C124.235 146.629 120.89 144.333 117.611 141.948C104.023 132.06 90.4688 122.124 76.8916 112.221C74.5655 110.525 72.7283 108.519 72.3146 105.487C72.3244 100.559 72.3415 95.6314 72.3291 90.704C72.3281 90.3298 72.1146 89.9562 72 89.5827C72 89.1125 72 88.6424 72 88.1719Z" fill="url(#paint4_linear_8209_645)"/>
<path d="M72.0003 127.492C72.2144 127.639 72.5991 127.768 72.617 127.936C72.914 130.73 74.7435 132.417 76.7705 133.931C84.5714 139.757 92.3312 145.642 100.217 151.346C108.949 157.66 117.793 163.811 126.604 170.01C131.652 173.562 134.453 173.577 139.494 169.958C148.435 163.539 157.321 157.039 166.257 150.611C171.583 146.781 175.619 141.918 177.712 135.579C178.49 133.225 178.805 130.713 179.644 128.269C179.413 135.091 179.612 141.965 178.836 148.723C178.004 155.963 174.117 161.875 168.41 166.179C158.371 173.749 148.146 181.064 137.934 188.394C134.355 190.963 130.707 190.2 127.294 187.868C122.848 184.829 118.413 181.771 114.059 178.598C101.51 169.454 89.0041 160.248 76.4805 151.067C74.2421 149.426 72.6416 147.367 72.295 144.476C72.3105 139.484 72.3321 134.491 72.3264 129.499C72.326 129.183 72.1136 128.867 72 128.551C72.0003 128.198 72.0003 127.845 72.0003 127.492Z" fill="url(#paint5_linear_8209_645)" fill-opacity="0.8"/>
<path d="M72.0003 126.934C72.2144 127.081 72.5991 127.209 72.617 127.378C72.914 130.172 74.7435 131.859 76.7705 133.372C84.5714 139.198 92.3312 145.084 100.217 150.787C108.949 157.101 117.793 163.252 126.604 169.451C131.652 173.003 134.453 173.018 139.494 169.4C148.435 162.981 157.321 156.481 166.257 150.053C171.583 146.222 175.619 141.359 177.712 135.02C178.49 132.667 178.805 130.155 179.644 127.71C179.413 134.533 179.612 141.407 178.836 148.164C178.004 155.404 174.117 161.317 168.41 165.62C158.371 173.19 148.146 180.506 137.934 187.835C134.355 190.404 130.707 189.642 127.294 187.309C122.848 184.27 118.413 181.212 114.059 178.04C101.51 168.896 89.0041 159.689 76.4805 150.509C74.2421 148.868 72.6416 146.808 72.295 143.918C72.3105 138.925 72.3321 133.933 72.3264 128.94C72.326 128.624 72.1136 128.309 72 127.993C72.0003 127.639 72.0003 127.286 72.0003 126.934Z" fill="url(#paint6_linear_8209_645)"/>
<path d="M96.9648 86.3289C97.2558 85.9898 97.4059 85.7276 97.6274 85.569C103.043 81.6909 108.362 77.6603 113.916 74.0002C119.663 70.2128 126.01 67.989 132.953 68C139.425 68.0104 145.295 70.1141 150.617 73.7487C153.19 75.5058 155.681 77.4451 157.964 79.5754C161.654 83.0189 162.036 89.1515 159.1 93.2741C158.444 94.1955 157.761 94.2551 156.899 93.6667C155.704 92.8502 154.517 92.0182 153.301 91.2356C141.017 83.3314 128.731 83.4166 116.449 91.2459C114.497 92.4901 112.565 93.7681 110.576 94.9478C110.177 95.1847 109.414 95.2782 109.073 95.0471C105.24 92.4466 101.455 89.7724 97.6655 87.106C97.4382 86.9466 97.2804 86.6848 96.9648 86.3289Z" fill="url(#paint7_linear_8209_645)"/>
</g>
<defs>
<filter id="filter0_d_8209_645" x="66" y="57" width="123.645" height="138" filterUnits="userSpaceOnUse" color-interpolation-filters="sRGB">
<feFlood flood-opacity="0" result="BackgroundImageFix"/>
<feColorMatrix in="SourceAlpha" type="matrix" values="0 0 0 0 0 0 0 0 0 0 0 0 0 0 0 0 0 0 127 0" result="hardAlpha"/>
<feOffset dx="2" dy="-3"/>
<feGaussianBlur stdDeviation="4"/>
<feComposite in2="hardAlpha" operator="out"/>
<feColorMatrix type="matrix" values="0 0 0 0 0 0 0 0 0 0 0 0 0 0 0 0 0 0 0.35 0"/>
<feBlend mode="normal" in2="BackgroundImageFix" result="effect1_dropShadow_8209_645"/>
<feBlend mode="normal" in="SourceGraphic" in2="effect1_dropShadow_8209_645" result="shape"/>
</filter>
<filter id="filter1_d_8209_645" x="71" y="65" width="111.645" height="126" filterUnits="userSpaceOnUse" color-interpolation-filters="sRGB">
<feFlood flood-opacity="0" result="BackgroundImageFix"/>
<feColorMatrix in="SourceAlpha" type="matrix" values="0 0 0 0 0 0 0 0 0 0 0 0 0 0 0 0 0 0 127 0" result="hardAlpha"/>
<feOffset dx="1" dy="-1"/>
<feGaussianBlur stdDeviation="1"/>
<feComposite in2="hardAlpha" operator="out"/>
<feColorMatrix type="matrix" values="0 0 0 0 0 0 0 0 0 0 0 0 0 0 0 0 0 0 0.12 0"/>
<feBlend mode="normal" in2="BackgroundImageFix" result="effect1_dropShadow_8209_645"/>
<feBlend mode="normal" in="SourceGraphic" in2="effect1_dropShadow_8209_645" result="shape"/>
</filter>
<linearGradient id="paint0_linear_8209_645" x1="58.0325" y1="8.43792" x2="184.443" y2="251.581" gradientUnits="userSpaceOnUse">
<stop stop-color="#353535"/>
<stop offset="1" stop-color="#383838"/>
</linearGradient>
<linearGradient id="paint1_linear_8209_645" x1="159.556" y1="158.358" x2="153.125" y2="74.7037" gradientUnits="userSpaceOnUse">
<stop offset="0.0472438" stop-color="#9A9EB6"/>
<stop offset="0.917651" stop-color="#868F97" stop-opacity="0.35"/>
</linearGradient>
<linearGradient id="paint2_linear_8209_645" x1="140.837" y1="137.362" x2="144.442" y2="208.249" gradientUnits="userSpaceOnUse">
<stop stop-color="#707284" stop-opacity="0.41"/>
<stop offset="1" stop-color="#3B3C48"/>
</linearGradient>
<linearGradient id="paint3_linear_8209_645" x1="125.649" y1="87.6602" x2="125.649" y2="150.32" gradientUnits="userSpaceOnUse">
<stop stop-color="#DFE0EA"/>
<stop offset="1" stop-color="white" stop-opacity="0"/>
</linearGradient>
<linearGradient id="paint4_linear_8209_645" x1="159.556" y1="158.358" x2="153.125" y2="74.7037" gradientUnits="userSpaceOnUse">
<stop offset="0.0472438" stop-color="white" stop-opacity="0.58"/>
<stop offset="0.917651" stop-color="white" stop-opacity="0.35"/>
</linearGradient>
<linearGradient id="paint5_linear_8209_645" x1="140.837" y1="137.362" x2="144.442" y2="208.249" gradientUnits="userSpaceOnUse">
<stop stop-color="#3D3E46" stop-opacity="0.31"/>
<stop offset="1" stop-color="#3B3C48" stop-opacity="0.3"/>
</linearGradient>
<linearGradient id="paint6_linear_8209_645" x1="125.822" y1="126.934" x2="125.822" y2="189.442" gradientUnits="userSpaceOnUse">
<stop stop-color="white"/>
<stop offset="1" stop-color="white"/>
</linearGradient>
<linearGradient id="paint7_linear_8209_645" x1="129.007" y1="68" x2="129.007" y2="95.1802" gradientUnits="userSpaceOnUse">
<stop stop-color="#B1B3C5"/>
<stop offset="1" stop-color="white" stop-opacity="0"/>
</linearGradient>
</defs>
</svg>
