<?xml version="1.0" encoding="UTF-8"?><svg xmlns="http://www.w3.org/2000/svg" viewBox="0 0 2495.799 1079.692"><g id="a"/><g id="b"><g><path d="M610.012,886.594c-4.732,0-7.209-3.734-7.209-7.424,0-1.925,.637-3.727,1.794-5.076,1.324-1.542,3.196-2.357,5.415-2.357,4.732,0,7.209,3.734,7.209,7.424s-2.476,7.433-7.209,7.433Zm0-12.943c-3.638,0-5.295,2.862-5.295,5.519s1.657,5.51,5.295,5.51,5.295-2.862,5.295-5.519-1.657-5.51-5.295-5.51Z" style="fill:#40cf8e;"/><path d="M607.313,914.183c-4.732,0-7.209-3.736-7.209-7.426,0-1.925,.637-3.727,1.794-5.074,1.324-1.544,3.196-2.359,5.415-2.359,4.732,0,7.209,3.736,7.209,7.426,0,1.925-.637,3.727-1.794,5.074-1.324,1.544-3.196,2.359-5.415,2.359Zm0-12.945c-3.638,0-5.295,2.861-5.295,5.519s1.657,5.512,5.295,5.512,5.295-2.861,5.295-5.519-1.657-5.512-5.295-5.512Z" style="fill:#40cf8e;"/><path d="M633.401,895.59c-4.732,0-7.209-3.734-7.209-7.424s2.476-7.433,7.209-7.433,7.209,3.734,7.209,7.424-2.476,7.433-7.209,7.433Zm0-12.943c-3.638,0-5.295,2.862-5.295,5.519s1.657,5.51,5.295,5.51c1.643,0,3.013-.585,3.962-1.69,.86-1.002,1.333-2.362,1.333-3.83,0-2.654-1.657-5.51-5.295-5.51Z" style="fill:#40cf8e;"/><path d="M630.103,870.102c-4.733,0-7.209-3.736-7.209-7.426s2.476-7.433,7.209-7.433,7.209,3.736,7.209,7.426-2.476,7.433-7.209,7.433Zm0-12.945c-3.638,0-5.295,2.861-5.295,5.519s1.657,5.512,5.295,5.512,5.295-2.861,5.295-5.519-1.657-5.512-5.295-5.512Z" style="fill:#40cf8e;"/><path d="M603.416,860.807c-4.733,0-7.209-3.736-7.209-7.426s2.476-7.433,7.209-7.433,7.209,3.736,7.209,7.426-2.476,7.433-7.209,7.433Zm0-12.945c-3.638,0-5.295,2.861-5.295,5.519s1.657,5.512,5.295,5.512,5.295-2.861,5.295-5.519-1.657-5.512-5.295-5.512Z" style="fill:#40cf8e;"/><path d="M586.023,877.299c-4.733,0-7.209-3.736-7.209-7.426s2.476-7.433,7.209-7.433,7.209,3.736,7.209,7.426-2.476,7.433-7.209,7.433Zm0-12.945c-3.638,0-5.295,2.861-5.295,5.519s1.657,5.512,5.295,5.512,5.295-2.862,5.295-5.519-1.657-5.512-5.295-5.512Z" style="fill:#40cf8e;"/><path d="M584.523,900.088c-4.732,0-7.209-3.736-7.209-7.426s2.476-7.433,7.209-7.433,7.209,3.736,7.209,7.426-2.476,7.433-7.209,7.433Zm0-12.945c-3.638,0-5.295,2.861-5.295,5.519s1.657,5.512,5.295,5.512c1.643,0,3.013-.585,3.962-1.69,.86-1.002,1.333-2.362,1.333-3.83,0-2.654-1.657-5.512-5.295-5.512Z" style="fill:#40cf8e;"/><path d="M582.725,930.075c-4.732,0-7.209-3.736-7.209-7.426,0-1.925,.637-3.727,1.794-5.074,1.324-1.544,3.196-2.359,5.415-2.359,4.732,0,7.209,3.736,7.209,7.426s-2.476,7.433-7.209,7.433Zm0-12.945c-3.638,0-5.295,2.861-5.295,5.519s1.657,5.512,5.295,5.512,5.295-2.861,5.295-5.519-1.657-5.512-5.295-5.512Z" style="fill:#40cf8e;"/><path d="M613.439,937.271c-1.024,0-1.93-.226-2.768-.667-.803-.245-1.64-.783-2.338-1.535-.697-.643-1.234-1.478-1.547-2.435-.42-.772-.644-1.772-.604-2.826v-.564c.004-1.336,.344-2.596,1.011-3.747l1.083-1.415c1.005-1.009,2.105-1.65,3.355-2l1.942-.267c1.054-.026,2.058,.183,2.975,.667,.806,.249,1.642,.785,2.338,1.533,.682,.632,1.208,1.441,1.521,2.362,.457,.897,.669,1.873,.63,2.903v.564c-.004,1.336-.344,2.594-1.012,3.746l-1.082,1.417c-1.005,1.007-2.105,1.648-3.354,2l-1.85,.258c-.102,.006-.202,.007-.301,.007Zm.376-13.547c-.056,0-.112,0-.168,.004l-1.627,.222c-.817,.237-1.615,.703-2.311,1.394l-.93,1.217c-.434,.764-.68,1.678-.683,2.686v.596c-.028,.763,.119,1.42,.448,2.048,.275,.8,.628,1.349,1.141,1.826,.53,.566,1.078,.92,1.727,1.129,.777,.393,1.426,.555,2.162,.512l1.631-.222c.813-.239,1.611-.705,2.309-1.398l.927-1.215c.435-.764,.682-1.676,.685-2.684v-.596c.028-.764-.119-1.422-.448-2.047l-.064-.151c-.211-.65-.564-1.2-1.079-1.678-.528-.564-1.077-.918-1.728-1.129-.714-.361-1.329-.514-1.992-.514Z" style="fill:#40cf8e;"/><path d="M635.201,924.077c-4.733,0-7.209-3.734-7.209-7.424s2.476-7.433,7.209-7.433,7.209,3.734,7.209,7.424-2.476,7.433-7.209,7.433Zm0-12.943c-3.638,0-5.295,2.861-5.295,5.519s1.657,5.51,5.295,5.51,5.295-2.861,5.295-5.519-1.657-5.51-5.295-5.51Z" style="fill:#40cf8e;"/><path d="M652.892,896.491c-4.732,0-7.209-3.736-7.209-7.426s2.476-7.433,7.209-7.433,7.209,3.736,7.209,7.426-2.476,7.433-7.209,7.433Zm0-12.945c-3.638,0-5.295,2.862-5.295,5.519s1.657,5.512,5.295,5.512c1.643,0,3.013-.585,3.962-1.69,.86-1.002,1.333-2.362,1.333-3.83,0-2.654-1.657-5.512-5.295-5.512Z" style="fill:#40cf8e;"/><path d="M653.192,867.704c-4.732,0-7.209-3.736-7.209-7.426s2.476-7.433,7.209-7.433,7.209,3.736,7.209,7.426-2.476,7.433-7.209,7.433Zm0-12.945c-3.638,0-5.295,2.862-5.295,5.519s1.657,5.512,5.295,5.512c1.643,0,3.013-.585,3.962-1.69,.86-1.002,1.333-2.362,1.333-3.83,0-2.654-1.657-5.512-5.295-5.512Z" style="fill:#40cf8e;"/><path d="M622.307,849.111c-4.732,0-7.209-3.734-7.209-7.424,0-1.925,.637-3.727,1.794-5.076,1.324-1.542,3.196-2.357,5.415-2.357,4.732,0,7.209,3.734,7.209,7.424s-2.476,7.433-7.209,7.433Zm0-12.943c-3.638,0-5.295,2.861-5.295,5.519s1.657,5.51,5.295,5.51,5.295-2.861,5.295-5.519-1.657-5.51-5.295-5.51Z" style="fill:#40cf8e;"/><path d="M581.825,852.41c-4.732,0-7.209-3.734-7.209-7.424s2.476-7.433,7.209-7.433,7.209,3.734,7.209,7.424-2.476,7.433-7.209,7.433Zm0-12.943c-3.638,0-5.295,2.862-5.295,5.519s1.657,5.51,5.295,5.51c1.643,0,3.013-.585,3.962-1.69,.86-1.002,1.333-2.362,1.333-3.83,0-2.654-1.657-5.51-5.295-5.51Z" style="fill:#40cf8e;"/><path d="M567.131,884.196c-4.732,0-7.209-3.736-7.209-7.426s2.476-7.433,7.209-7.433,7.209,3.736,7.209,7.426-2.476,7.433-7.209,7.433Zm0-12.945c-3.638,0-5.295,2.861-5.295,5.519s1.657,5.512,5.295,5.512c1.643,0,3.013-.585,3.962-1.69,.86-1.002,1.333-2.362,1.333-3.83,0-2.654-1.657-5.512-5.295-5.512Z" style="fill:#40cf8e;"/><path d="M564.132,912.084c-4.732,0-7.209-3.736-7.209-7.426s2.476-7.433,7.209-7.433,7.209,3.736,7.209,7.426-2.476,7.433-7.209,7.433Zm0-12.945c-3.638,0-5.295,2.861-5.295,5.519s1.657,5.512,5.295,5.512c1.643,0,3.013-.585,3.962-1.69,.86-1.002,1.333-2.362,1.333-3.83,0-2.654-1.657-5.512-5.295-5.512Z" style="fill:#40cf8e;"/></g><g><path d="M231.811,666.691c3.632,17.107,3.489,34.984,8.558,51.721,6.879,22.728,23.62,42.298,44.997,52.598l.065-.125c-10.013-23.764-5.567-52.098-17.43-75.012-7.335-14.149-20.801-25.013-36.19-29.181Z" style="fill:#40cf8e;"/><path d="M249.671,822.949c10.522,11.878,27.01,18.194,42.777,16.392,14.978-1.685,28.244-10.012,40.905-18.224-26.629-10.613-57.549-9.957-83.683,1.833Z" style="fill:#40cf8e;"/><path d="M300.198,789.98c-24.04-21.88-56.091-34.768-88.599-35.616,2.179,3.022,4.358,6.044,6.52,9.07,7.655,10.618,15.587,21.489,26.667,28.469,16.443,10.342,38.929,10.143,55.183-.522l1.735-.787c-.239-.67-.478-1.339-.717-2.009-.178,.372-.342,.723-.519,1.095l-.268,.299Z" style="fill:#40cf8e;"/><path d="M292.483,682.63c-6.41,35.262-3.443,72.174,8.502,105.956,8.541-17.993,17.084-36.82,16.549-56.696-.534-19.025-9.971-37.62-25.051-49.26Z" style="fill:#40cf8e;"/><path d="M334.041,821.637c8.083-7.73,11.775-19.201,12.067-30.39,.278-11.168-2.524-22.199-5.789-32.889-3.264-10.689-6.996-21.314-8.709-32.361-8.861,14.583-13.376,31.769-12.849,48.815,.512,16.642,5.853,33.097,15.182,46.884l.098-.059Z" style="fill:#40cf8e;"/><path d="M355.049,831.726c-4.595-3.277-9.348-6.305-13.968-9.547-4.604-3.231-9.133-6.571-13.522-10.089-8.693-6.968-16.901-14.545-24.566-22.63-15.333-16.172-28.329-34.513-38.813-54.168-5.935-11.127-10.861-22.644-15.279-34.446-.354-.945-1.833-.579-1.539,.424,3.185,10.883,7.589,21.449,12.537,31.642,4.92,10.136,10.687,19.838,17.081,29.111,12.852,18.642,28.302,35.523,45.796,49.902,4.892,4.021,9.927,7.899,15.153,11.477,5.24,3.588,10.542,7.028,16.295,9.737,.959,.452,1.688-.801,.827-1.415h0Z" style="fill:#322b1a;"/><path d="M297.388,697.592c1.213,5.958,2.123,12.037,2.918,18.065,.773,5.858,1.39,11.727,1.783,17.623,.796,11.934,.656,23.94-.394,35.854-.596,6.768-1.515,13.502-2.691,20.193,.448-.341,.895-.681,1.343-1.022-16.91-1.527-34.123-3.269-50.176-9.133-4.491-1.64-8.839-3.631-12.998-5.989-1.505-.853-2.859,1.464-1.355,2.318,15.213,8.638,32.573,11.986,49.755,14.026,4.918,.584,9.847,1.067,14.774,1.562,.559,.056,1.24-.469,1.343-1.022,4.45-23.904,4.92-48.553,1.424-72.612-.998-6.868-2.539-13.553-4.281-20.263-.244-.94-1.635-.539-1.444,.398h0Z" style="fill:#322b1a;"/><path d="M325.499,748.023c.64,2.353,.97,4.783,1.485,7.166,.514,2.378,.991,4.767,1.421,7.162,.865,4.822,1.595,9.672,2.163,14.538,1.123,9.629,1.701,19.321,2.139,29.002,.11,2.44,.211,4.881,.307,7.322,.045,1.147,.092,2.294,.137,3.442,.036,.919,.174,2.033-.245,2.891-.428,.875-1.423,1.31-2.246,1.73-.989,.505-1.991,.983-3.004,1.438-2.025,.91-4.097,1.712-6.199,2.426-8.415,2.858-17.243,4.249-26.088,4.855-4.951,.339-9.915,.442-14.876,.424-5.083-.019-10.169-.308-15.251-.273-1.625,.011-1.591,2.387,0,2.501,4.667,.334,9.379,.353,14.057,.393,4.634,.04,9.27-.019,13.898-.268,9.157-.493,18.35-1.717,27.126-4.452,4.248-1.323,8.59-2.931,12.471-5.132,1.942-1.101,2.955-2.702,3.074-4.934,.123-2.304-.139-4.675-.235-6.979-.426-10.197-.941-20.394-2.069-30.541-.613-5.513-1.345-11.034-2.425-16.476-.556-2.802-1.167-5.595-1.884-8.36-.724-2.79-1.759-5.444-2.622-8.187-.226-.717-1.33-.421-1.131,.312h0Z" style="fill:#322b1a;"/></g><g><path d="M203.265,835.241c-3.841-1.775-7.643-3.609-11.146-5.95-8.32-5.557-14.682-13.716-19.429-22.515-4.767-8.811-8.069-18.331-11.357-27.785,3.953,3.947,9.014,6.564,13.869,9.328,18.471,10.529,35.808,24.863,44.222,44.396,1.518,3.554,2.818,7.36,5.416,10.237l-.522,1.288c-7.108-2.787-14.14-5.779-21.053-9Z" style="fill:#e9e4d2;"/><path d="M224.786,901.747c-6.364-.292-12.74-.564-19.104-.857,3.121-2.497,6.222-5.007,9.33-7.484,7.569-6.099,15.294-12.265,24.415-15.601,12.055-4.412,25.305-3.379,38.112-2.267-9.75-10.202-18.826-21.93-21.452-35.801-2.599-13.827,1.535-27.935,5.608-41.383,6.992,11.701,18.667,20.959,21.773,34.217,2.86,12.118-2.151,24.458-4.925,36.586-.496,2.117-.905,4.317-.533,6.433l.02,.013c-2.771,7.734-8.433,14.306-15.376,18.737-6.936,4.463-15.105,6.843-23.315,7.462-4.838,.382-9.706,.158-14.554-.053Z" style="fill:#e9e4d2;"/><path d="M365.847,888.755c-1.747,8.534-9.129,17.862-13.918,25.164-3.048,4.644-6.122,9.327-9.963,13.377-3.848,4.017-8.528,7.413-13.898,8.881-5.207,1.433-10.913,1.032-15.847,3.257,7.452-24.038,29.476-43.531,53.625-50.679Z" style="fill:#e9e4d2;"/><path d="M327.782,825.199c4.492,7.934,11.572,13.98,18.218,20.222,6.646,6.242,13.191,13.119,16.049,21.764,2.254,6.801,4.051,14.398,3.798,21.571-18.178-2.641-33.98-17.358-37.89-35.277-2.018-9.252-1.098-18.851-.175-28.28Z" style="fill:#e9e4d2;"/><path d="M249.085,821.924c1.949,11.924-1.836,24.1-7.23,34.905-9.094-13.307-18.324-29.922-20.981-45.746-1.867-11.226-.229-23.024,4.65-33.291,1.462,6.682,6.674,11.804,10.904,17.19,3.803,4.83,6.936,10.181,9.323,15.863,1.485,3.561,2.712,7.263,3.333,11.079Z" style="fill:#e9e4d2;"/><path d="M289.845,922.189c-4.783,1.818-10.022,2.083-15.133,2.15-5.568,.081-11.158-.021-16.713-.352,5.924-8.195,12.116-16.414,20.328-22.294,12.157-8.743,27.436-11.554,42.237-14.058,.317,.204,.626,.375,.955,.56-6.019,10.037-12.604,20.691-21.793,27.958-3.025,2.391-6.267,4.642-9.882,6.037Z" style="fill:#e9e4d2;"/><path d="M321.287,887.513c-.247,.036-.475,.085-.723,.122-6.957-3.978-13.388-8.99-18.472-15.178-5.318-6.478-9.11-14.325-10.141-22.634-.591-4.776-.274-9.613,.206-14.399,.747-7.33,1.926-14.635,3.504-21.822,4.449,5.61,8.918,11.234,13.367,16.844,2.144,2.669,4.275,5.358,6.006,8.322,2.87,4.845,4.634,10.321,5.113,15.922,.929,10.987-2.886,22.557,1.14,32.822Z" style="fill:#e9e4d2;"/><path d="M189.012,866.097c-7.365-2.085-14.729-4.17-22.074-6.242,10.389-4.87,21.485-8.836,32.96-9.003,3.884-.074,7.781,.309,11.634,.804,9.649,1.233,19.238,3.212,28.591,5.905,.361,.092,.741,.197,1.065,.042,.331-.123,.495-.465,.667-.774,.1,.148,.201,.297,.301,.446-11.814,9.775-28.037,14.051-43.135,11.323-3.385-.613-6.703-1.547-10.009-2.501Z" style="fill:#e9e4d2;"/><path d="M192.549,816.943c2.5,2.47,4.908,5.021,7.453,7.448,2.544,2.427,5.141,4.798,7.764,7.141,5.174,4.622,10.577,9.001,16.07,13.235,11.058,8.524,22.687,16.334,34.94,23.04,12.397,6.785,25.439,12.435,38.991,16.475,13.848,4.128,28.227,6.623,42.678,7.103,14.337,.477,28.794-1.072,42.606-5.001,1.742-.496,3.472-1.031,5.192-1.6,1.512-.5,.865-2.902-.661-2.398-13.513,4.463-27.689,6.57-41.909,6.586-14.303,.016-28.563-2.03-42.369-5.73-13.585-3.641-26.675-8.921-39.158-15.381-12.224-6.326-23.85-13.77-34.908-21.955-5.575-4.127-11.006-8.449-16.327-12.899-5.305-4.436-10.439-9.07-15.724-13.526-1.297-1.094-2.571-2.203-3.816-3.356-.546-.505-1.352,.293-.819,.819h0Z" style="fill:#322b1a;"/><path d="M225.731,844.013c-6.116-2.706-12.306-5.239-18.404-7.987-5.75-2.591-11.593-5.189-16.683-8.966-9.481-7.035-16.042-16.99-20.824-27.647-3.01-6.707-5.411-13.666-7.812-20.608l-1.145,.666c4.574,4.506,10.373,7.28,15.826,10.533,5.075,3.027,9.992,6.333,14.631,9.994,9.112,7.19,17.267,15.72,23.12,25.796,1.686,2.902,3.118,5.917,4.396,9.018,1.33,3.225,2.705,6.449,5.088,9.052,1.129,1.233,2.877-.571,1.818-1.818-2.061-2.428-3.221-5.402-4.44-8.303-1.157-2.753-2.425-5.446-3.898-8.046-2.839-5.01-6.316-9.637-10.192-13.89-7.849-8.613-17.363-15.629-27.331-21.594-6.119-3.661-12.912-6.654-18.05-11.711-.465-.458-1.376-.001-1.145,.666,4.184,12.077,8.482,24.252,15.606,34.964,3.189,4.796,6.869,9.25,11.29,12.965,4.885,4.105,10.601,6.896,16.359,9.551,6.938,3.199,13.968,6.289,21.207,8.745,.799,.271,1.371-1.033,.582-1.382h0Z" style="fill:#322b1a;"/><path d="M242.748,856.921c-11.453-17.935-23.502-38.535-21.278-60.641,.623-6.193,2.271-12.343,4.957-17.962-.636-.083-1.273-.166-1.909-.25,1.015,4.566,3.663,8.42,6.536,12.021,3.135,3.93,6.329,7.745,8.954,12.051,5.573,9.141,9.177,19.451,8.221,30.259-.468,5.297-1.879,10.508-3.682,15.498-.897,2.483-1.927,4.915-3.051,7.303-.243,.517-.433,1.434-1.104,1.4-.593-.029-1.323-.377-1.889-.534-1.472-.408-2.948-.798-4.429-1.17-5.43-1.364-10.921-2.488-16.45-3.368-5.497-.875-11.075-1.659-16.651-1.681-12.225-.048-23.532,4.28-34.559,9.102-.852,.373-.536,1.661,.246,1.885,5.765,1.655,11.51,3.379,17.277,5.028,5.468,1.562,10.941,3.348,16.583,4.168,9.603,1.397,19.568,.107,28.533-3.597,5.046-2.085,9.696-4.862,13.846-8.416,1.051-.9-.451-2.328-1.499-1.499-7.404,5.862-16.266,9.752-25.608,11.15-4.582,.686-9.274,.731-13.872,.175-5.402-.653-10.636-2.308-15.855-3.778-6.278-1.769-12.577-3.46-18.857-5.222l.246,1.885c9.886-4.873,20.922-8.617,32.023-8.885,5.824-.141,11.663,.656,17.403,1.565,5.746,.91,11.449,2.082,17.088,3.513,1.269,.322,2.534,.657,3.796,1.005,1.147,.316,2.767,1.139,3.939,.554,.834-.416,1.194-1.464,1.581-2.239,.669-1.342,1.309-2.698,1.914-4.071,2.161-4.901,3.903-9.961,4.823-15.249,.905-5.205,1.049-10.503,.133-15.718-.94-5.349-2.971-10.5-5.421-15.327-2.671-5.261-6.048-9.983-9.831-14.491-3.481-4.149-7.096-8.484-8.368-13.876-.195-.827-1.528-1.074-1.909-.249-4.764,10.304-6.591,21.658-4.955,32.918,1.605,11.052,6.175,21.619,11.561,31.319,3.105,5.593,6.553,10.953,10.323,16.119,.514,.704,1.684,.067,1.196-.699h0Z" style="fill:#322b1a;"/><path d="M278.075,875.215c-6.745-7.663-13.476-15.566-17.698-24.958-2.159-4.803-3.566-9.939-4.014-15.191-.49-5.749,.057-11.537,1.132-17.191,1.241-6.528,3.118-12.932,5.093-19.271-.558,.073-1.116,.146-1.673,.219,5.089,8.61,12.455,15.612,17.474,24.264,2.649,4.567,4.381,9.512,4.708,14.808,.373,6.029-.839,11.994-2.308,17.808-.833,3.299-1.755,6.575-2.593,9.873-.851,3.353-1.837,6.833-1.24,10.309,.352-.462,.704-.924,1.056-1.386-10.528-.922-21.273-1.719-31.718,.367-10.113,2.02-18.7,7.408-26.747,13.638-4.924,3.812-9.741,7.767-14.598,11.665-.749,.601-.083,1.741,.734,1.773,6.224,.24,12.443,.572,18.666,.829,6.036,.248,12.104,.502,18.113-.277,10.327-1.339,20.398-5.512,27.815-12.965,3.878-3.896,6.906-8.555,8.788-13.723,.464-1.274-1.571-1.826-2.03-.56-3.33,9.198-10.633,16.447-19.331,20.705-4.623,2.263-9.645,3.705-14.731,4.449-5.733,.838-11.532,.626-17.298,.355-6.664-.313-13.329-.556-19.992-.89,.245,.591,.49,1.182,.734,1.773,8.002-6.453,15.829-13.471,24.7-18.728,4.289-2.541,8.845-4.515,13.696-5.694,5.141-1.25,10.425-1.641,15.704-1.618,5.849,.026,11.673,.567,17.494,1.092,.538,.049,1.166-.544,1.095-1.095-.409-3.178,.59-6.337,1.368-9.39,.771-3.022,1.617-6.024,2.392-9.046,1.49-5.809,2.761-11.797,2.613-17.827-.132-5.372-1.578-10.509-4.07-15.254-2.343-4.463-5.449-8.472-8.595-12.389-3.596-4.478-7.317-8.877-10.32-13.79-.413-.676-1.449-.542-1.673,.219-3.382,11.448-6.986,23.167-6.374,35.25,.547,10.8,4.936,20.735,11.189,29.428,3.449,4.796,7.325,9.187,11.569,13.289,.574,.555,1.389-.279,.869-.869h0Z" style="fill:#322b1a;"/><path d="M321.832,887.671c-4.472-2.927-8.952-5.867-12.947-9.439-3.955-3.537-7.455-7.579-10.2-12.129-2.649-4.392-4.587-9.209-5.525-14.259-1.087-5.85-.62-11.864,.01-17.738,.731-6.818,1.837-13.588,3.303-20.286l-1.393,.368c3.527,4.444,7.01,8.923,10.537,13.368,3.329,4.195,6.905,8.312,9.444,13.055,2.451,4.578,3.913,9.695,4.254,14.876,.34,5.169-.291,10.328-.635,15.478-.379,5.679-.331,11.414,1.713,16.804l.652-1.148c-9.859,1.583-19.784,3.285-29.161,6.834-4.549,1.722-8.949,3.865-12.976,6.605-4.18,2.845-7.904,6.295-11.279,10.049-3.793,4.218-7.176,8.786-10.533,13.353-.51,.694,.195,1.538,.909,1.584,5.763,.374,11.555,.457,17.329,.35,5.35-.098,10.808-.484,15.784-2.613,4.623-1.977,8.808-5.17,12.464-8.587,3.618-3.381,6.78-7.224,9.674-11.234,3.303-4.578,6.245-9.401,9.148-14.239,.68-1.133-1.092-2.165-1.769-1.034-4.946,8.265-10.033,16.638-16.887,23.488-3.438,3.437-7.375,6.608-11.701,8.853-4.729,2.454-9.999,3.064-15.254,3.217-6.264,.183-12.529-.011-18.786-.308l.909,1.584c5.707-8.055,11.821-16.155,19.914-21.975,7.876-5.664,17.17-8.825,26.543-10.988,5.349-1.234,10.763-2.191,16.169-3.139,.464-.081,.821-.71,.652-1.148-3.875-10.061-.49-20.98-1.073-31.383-.283-5.048-1.543-9.997-3.709-14.565-2.256-4.758-5.612-8.826-8.865-12.924-4.081-5.142-8.206-10.25-12.287-15.392-.388-.489-1.268-.204-1.393,.368-1.341,6.125-2.408,12.309-3.178,18.532-.753,6.093-1.386,12.294-.563,18.413,1.446,10.75,7.301,20.467,15.074,27.868,4.434,4.222,9.473,7.919,15.006,10.555,.718,.342,1.304-.631,.628-1.074h0Z" style="fill:#322b1a;"/><path d="M366.013,888.118c-9.64-2.033-18.462-6.464-25.385-13.549-7.289-7.46-11.706-17.069-12.628-27.453-.649-7.303,.065-14.639,.777-21.909-.615,.167-1.23,.333-1.844,.5,4.862,8.48,12.493,14.777,19.478,21.425,3.477,3.309,6.862,6.774,9.66,10.689,2.891,4.045,4.759,8.387,6.138,13.145,1.674,5.774,2.813,11.754,2.621,17.787l.74-.972c-19.349,5.729-36.782,18.722-47.356,35.975-2.956,4.822-5.334,9.996-7.024,15.395-.309,.986,.784,1.556,1.577,1.212,5.036-2.188,10.724-1.73,15.938-3.252,4.823-1.407,9.103-4.296,12.696-7.756,3.94-3.794,7.091-8.325,10.093-12.87,2.776-4.203,5.701-8.309,8.423-12.546,2.948-4.588,5.795-9.516,6.931-14.907,.277-1.313-1.739-1.874-2.016-.556-.997,4.733-3.369,9.052-5.906,13.122-2.574,4.13-5.446,8.062-8.119,12.127-5.556,8.451-11.851,17.809-21.96,21.113-5.61,1.833-11.691,1.292-17.163,3.672,.526,.404,1.051,.808,1.577,1.212,5.898-18.857,20.418-34.324,37.609-43.615,4.845-2.618,9.963-4.793,15.239-6.381,.436-.131,.728-.52,.74-.972,.146-5.365-.74-10.714-2.101-15.89-1.278-4.863-2.858-9.579-5.557-13.853-5.213-8.258-12.915-14.408-19.837-21.141-4.08-3.968-7.872-8.199-10.711-13.16-.524-.915-1.753-.423-1.844,.5-1.231,12.463-2.218,25.292,3.023,37.032,4.106,9.197,11.323,16.997,20.067,21.968,4.895,2.783,10.328,4.711,15.951,5.202,.735,.064,.897-1.138,.175-1.291h0Z" style="fill:#322b1a;"/><path d="M194.442,860.62c7.434,.887,14.975,.811,22.447,.516,7.405-.292,14.788-.98,22.126-2.008,1.013-.142,.582-1.68-.424-1.539-7.343,1.029-14.737,1.685-22.146,1.978-7.337,.29-14.665,.044-22.002,.036-.672,0-.633,.942,0,1.017h0Z" style="fill:#322b1a;"/><path d="M241.638,856.113c-1.687-18.2-5.548-36.166-10.736-53.683-.304-1.026-1.916-.589-1.608,.443,5.215,17.464,8.747,35.346,11.358,53.373,.08,.554,1.037,.429,.985-.133h0Z" style="fill:#322b1a;"/><path d="M265.361,817.364c-.682,3.616-.468,7.075,.014,10.702,.483,3.637,1.05,7.26,1.717,10.868,1.329,7.198,3,14.334,4.999,21.375,1.151,4.054,2.275,8.187,3.79,12.122,.409,1.063,2.086,.657,1.744-.481-1.322-4.4-2.86-8.724-4.093-13.155-1.231-4.425-2.333-8.886-3.302-13.376-.969-4.49-1.798-9.008-2.522-13.544-.729-4.569-1.783-9.547-1.148-14.181,.106-.77-1.048-1.131-1.199-.331h0Z" style="fill:#322b1a;"/><path d="M277.322,875.312c-2.29,.669-4.617,1.168-6.899,1.882-2.134,.668-4.271,1.327-6.4,2.01-4.409,1.415-8.82,2.822-13.226,4.246-4.097,1.324-8.185,2.688-12.191,4.269-3.924,1.548-8.143,3.177-11.637,5.574-.957,.657-.138,2.044,.906,1.549,2.001-.949,3.916-2.074,5.927-3.012,1.935-.902,3.903-1.729,5.892-2.503,3.949-1.537,7.974-2.872,12.005-4.174,4.274-1.381,8.552-2.749,12.828-4.123,2.13-.684,4.252-1.393,6.377-2.093,2.279-.751,4.471-1.703,6.73-2.495,.704-.247,.421-1.345-.312-1.131h0Z" style="fill:#322b1a;"/><path d="M299.217,829.667c2.47,15.659,7.439,30.813,14.304,45.093,1.943,4.041,4.046,8.003,6.293,11.884,.456,.787,1.677,.076,1.22-.713-7.89-13.624-13.791-28.227-17.852-43.429-1.154-4.321-2.205-8.693-3.08-13.079-.117-.586-.976-.329-.886,.244h0Z" style="fill:#322b1a;"/><path d="M275.092,917.65c10.219-9.415,21.854-17.177,34.426-23.088,3.637-1.71,7.351-3.247,11.127-4.622,.857-.312,.484-1.694-.379-1.376-13.25,4.875-25.658,11.805-36.758,20.532-3.155,2.48-6.193,5.105-9.115,7.855-.465,.438,.232,1.13,.699,.699h0Z" style="fill:#322b1a;"/><path d="M333.633,842.779c5.106,13.335,12.702,25.67,21.626,36.786,2.571,3.203,5.272,6.3,8.099,9.28,.778,.82,2.01-.417,1.239-1.239-9.717-10.348-17.857-21.911-24.516-34.439-1.891-3.558-3.688-7.182-5.389-10.835-.274-.588-1.294-.169-1.059,.446h0Z" style="fill:#322b1a;"/><path d="M326.315,927.04c5.685-6.372,11.7-12.548,17.885-18.436,6.207-5.91,12.695-11.518,19.451-16.792,.937-.732-.381-2.036-1.309-1.309-6.743,5.286-13.232,10.895-19.399,16.844-3.059,2.95-6.044,5.977-8.952,9.077-2.963,3.159-5.688,6.514-8.425,9.867-.424,.519,.289,1.266,.749,.749h0Z" style="fill:#322b1a;"/></g><rect width="1919.421" height="1079.692" style="fill:none;"/><g><path d="M2445.41,158.327c-4.732,0-7.209-3.734-7.209-7.424,0-1.925,.637-3.727,1.794-5.076,1.324-1.542,3.196-2.357,5.415-2.357,4.732,0,7.209,3.734,7.209,7.424s-2.476,7.433-7.209,7.433Zm0-12.943c-3.638,0-5.295,2.862-5.295,5.519s1.657,5.51,5.295,5.51,5.295-2.862,5.295-5.519-1.657-5.51-5.295-5.51Z" style="fill:#40cf8e;"/><path d="M2442.711,185.915c-4.732,0-7.209-3.736-7.209-7.426,0-1.925,.637-3.727,1.794-5.074,1.324-1.544,3.196-2.359,5.415-2.359,4.732,0,7.209,3.736,7.209,7.426,0,1.925-.637,3.727-1.794,5.074-1.324,1.544-3.196,2.359-5.415,2.359Zm0-12.945c-3.638,0-5.295,2.861-5.295,5.519s1.657,5.512,5.295,5.512,5.295-2.861,5.295-5.519-1.657-5.512-5.295-5.512Z" style="fill:#40cf8e;"/><path d="M2468.799,167.322c-4.732,0-7.209-3.734-7.209-7.424s2.476-7.433,7.209-7.433,7.209,3.734,7.209,7.424-2.476,7.433-7.209,7.433Zm0-12.943c-3.638,0-5.295,2.862-5.295,5.519s1.657,5.51,5.295,5.51c1.643,0,3.013-.585,3.962-1.69,.86-1.002,1.333-2.362,1.333-3.83,0-2.654-1.657-5.51-5.295-5.51Z" style="fill:#40cf8e;"/><path d="M2438.814,132.54c-4.733,0-7.209-3.736-7.209-7.426s2.476-7.433,7.209-7.433,7.209,3.736,7.209,7.426-2.476,7.433-7.209,7.433Zm0-12.945c-3.638,0-5.295,2.861-5.295,5.519s1.657,5.512,5.295,5.512,5.295-2.861,5.295-5.519-1.657-5.512-5.295-5.512Z" style="fill:#40cf8e;"/><path d="M2421.421,149.032c-4.733,0-7.209-3.736-7.209-7.426s2.476-7.433,7.209-7.433,7.209,3.736,7.209,7.426-2.476,7.433-7.209,7.433Zm0-12.945c-3.638,0-5.295,2.861-5.295,5.519s1.657,5.512,5.295,5.512,5.295-2.862,5.295-5.519-1.657-5.512-5.295-5.512Z" style="fill:#40cf8e;"/><path d="M2419.921,171.821c-4.732,0-7.209-3.736-7.209-7.426s2.476-7.433,7.209-7.433,7.209,3.736,7.209,7.426-2.476,7.433-7.209,7.433Zm0-12.945c-3.638,0-5.295,2.861-5.295,5.519s1.657,5.512,5.295,5.512c1.643,0,3.013-.585,3.962-1.69,.86-1.002,1.333-2.362,1.333-3.83,0-2.654-1.657-5.512-5.295-5.512Z" style="fill:#40cf8e;"/><path d="M2448.837,209.003c-1.024,0-1.93-.226-2.768-.667-.803-.245-1.64-.783-2.338-1.535-.697-.643-1.234-1.478-1.547-2.435-.42-.772-.644-1.772-.604-2.826v-.564c.004-1.336,.344-2.596,1.011-3.747l1.083-1.415c1.005-1.009,2.105-1.65,3.355-2l1.942-.267c1.054-.026,2.058,.183,2.975,.667,.806,.249,1.642,.785,2.338,1.533,.682,.632,1.208,1.441,1.521,2.362,.457,.897,.669,1.873,.63,2.903v.564c-.004,1.336-.344,2.594-1.012,3.746l-1.082,1.417c-1.005,1.007-2.105,1.648-3.354,2l-1.85,.258c-.102,.006-.202,.007-.301,.007Zm.376-13.547c-.056,0-.112,0-.168,.004l-1.627,.222c-.817,.237-1.615,.703-2.311,1.394l-.93,1.217c-.434,.764-.68,1.678-.683,2.686v.596c-.028,.763,.119,1.42,.448,2.048,.275,.8,.628,1.349,1.141,1.826,.53,.566,1.078,.92,1.727,1.129,.777,.393,1.426,.555,2.162,.512l1.631-.222c.813-.239,1.611-.705,2.309-1.398l.927-1.215c.435-.764,.682-1.676,.685-2.684v-.596c.028-.764-.119-1.422-.448-2.047l-.064-.151c-.211-.65-.564-1.2-1.079-1.678-.528-.564-1.077-.918-1.728-1.129-.714-.361-1.329-.514-1.992-.514Z" style="fill:#40cf8e;"/><path d="M2470.599,195.81c-4.733,0-7.209-3.734-7.209-7.424s2.476-7.433,7.209-7.433,7.209,3.734,7.209,7.424-2.476,7.433-7.209,7.433Zm0-12.943c-3.638,0-5.295,2.861-5.295,5.519s1.657,5.51,5.295,5.51,5.295-2.861,5.295-5.519-1.657-5.51-5.295-5.51Z" style="fill:#40cf8e;"/><path d="M2488.29,168.223c-4.732,0-7.209-3.736-7.209-7.426s2.476-7.433,7.209-7.433,7.209,3.736,7.209,7.426-2.476,7.433-7.209,7.433Zm0-12.945c-3.638,0-5.295,2.862-5.295,5.519s1.657,5.512,5.295,5.512c1.643,0,3.013-.585,3.962-1.69,.86-1.002,1.333-2.362,1.333-3.83,0-2.654-1.657-5.512-5.295-5.512Z" style="fill:#40cf8e;"/><path d="M2488.59,139.436c-4.732,0-7.209-3.736-7.209-7.426s2.476-7.433,7.209-7.433,7.209,3.736,7.209,7.426-2.476,7.433-7.209,7.433Zm0-12.945c-3.638,0-5.295,2.862-5.295,5.519s1.657,5.512,5.295,5.512c1.643,0,3.013-.585,3.962-1.69,.86-1.002,1.333-2.362,1.333-3.83,0-2.654-1.657-5.512-5.295-5.512Z" style="fill:#40cf8e;"/><path d="M2457.705,120.843c-4.732,0-7.209-3.734-7.209-7.424,0-1.925,.637-3.727,1.794-5.076,1.324-1.542,3.196-2.357,5.415-2.357,4.732,0,7.209,3.734,7.209,7.424s-2.476,7.433-7.209,7.433Zm0-12.943c-3.638,0-5.295,2.861-5.295,5.519s1.657,5.51,5.295,5.51,5.295-2.861,5.295-5.519-1.657-5.51-5.295-5.51Z" style="fill:#40cf8e;"/><path d="M2417.223,124.142c-4.732,0-7.209-3.734-7.209-7.424s2.476-7.433,7.209-7.433,7.209,3.734,7.209,7.424-2.476,7.433-7.209,7.433Zm0-12.943c-3.638,0-5.295,2.862-5.295,5.519s1.657,5.51,5.295,5.51c1.643,0,3.013-.585,3.962-1.69,.86-1.002,1.333-2.362,1.333-3.83,0-2.654-1.657-5.51-5.295-5.51Z" style="fill:#40cf8e;"/><path d="M2402.529,155.929c-4.732,0-7.209-3.736-7.209-7.426s2.476-7.433,7.209-7.433,7.209,3.736,7.209,7.426-2.476,7.433-7.209,7.433Zm0-12.945c-3.638,0-5.295,2.861-5.295,5.519s1.657,5.512,5.295,5.512c1.643,0,3.013-.585,3.962-1.69,.86-1.002,1.333-2.362,1.333-3.83,0-2.654-1.657-5.512-5.295-5.512Z" style="fill:#40cf8e;"/></g><g><path d="M2316.837,158.562c5.664,9.143,9.305,19.517,15.724,28.146,8.714,11.719,22.477,19.556,36.992,21.064l.012-.086c-10.743-11.666-14.072-28.987-25.709-39.776-7.191-6.66-17.246-10.142-27.018-9.348Z" style="fill:#40cf8e;"/><path d="M2359.715,245.26c8.563,4.682,19.418,4.902,28.167,.576,8.316-4.094,14.258-11.675,19.874-19.065-17.619-.595-35.374,6.224-48.041,18.489Z" style="fill:#40cf8e;"/><path d="M2382.086,215.66c-18.467-7.654-39.698-8.436-58.685-2.157,1.89,1.295,3.781,2.59,5.662,3.89,6.641,4.55,13.495,9.188,21.36,10.92,11.669,2.56,24.639-2.238,31.823-11.795l.84-.817c-.278-.338-.556-.675-.833-1.013-.025,.252-.047,.489-.073,.742l-.093,.229Z" style="fill:#40cf8e;"/><path d="M2355.264,155.149c3.635,21.739,13.039,42.481,26.987,59.541,1.195-12.19,2.217-24.864-2.232-36.254-4.271-10.898-13.605-19.692-24.755-23.287Z" style="fill:#40cf8e;"/><path d="M2408.262,226.929c3.068-6.156,2.815-13.563,.653-20.098-2.165-6.52-6.084-12.32-10.199-17.825-4.115-5.506-8.487-10.876-11.779-16.912-2.09,10.284-1.124,21.169,2.731,30.922,3.762,9.523,10.28,17.933,18.549,23.967l.045-.054Z" style="fill:#40cf8e;"/><path d="M2422.52,228.393c-3.341-.94-6.722-1.701-10.071-2.615-3.337-.911-6.653-1.9-9.925-3.022-6.482-2.222-12.809-4.897-18.928-7.978-12.24-6.164-23.58-14.071-33.74-23.26-5.752-5.202-11-10.841-16.015-16.75-.401-.473-1.182,.047-.802,.566,4.11,5.634,8.859,10.831,13.844,15.699,4.958,4.841,10.316,9.253,15.946,13.288,11.32,8.111,23.775,14.661,36.893,19.338,3.668,1.308,7.389,2.503,11.158,3.485,3.78,.985,7.564,1.871,11.457,2.241,.649,.062,.81-.815,.184-.991h0Z" style="fill:#322b1a;"/><path d="M2361.219,162.785c1.943,3.195,3.735,6.523,5.451,9.846,1.667,3.229,3.247,6.496,4.702,9.826,2.946,6.74,5.365,13.716,7.239,20.829,1.064,4.04,1.935,8.129,2.648,12.245,.188-.29,.376-.581,.564-.871-10.103,2.638-20.426,5.215-30.936,5.165-2.94-.014-5.871-.26-8.769-.758-1.049-.18-1.349,1.443-.301,1.623,10.602,1.83,21.344,.152,31.712-2.246,2.967-.686,5.92-1.433,8.875-2.173,.335-.084,.62-.53,.564-.871-2.403-14.759-7.265-29.12-14.299-42.313-2.008-3.766-4.292-7.314-6.697-10.833-.337-.493-1.058,.028-.753,.531h0Z" style="fill:#322b1a;"/><path d="M2387.988,186.112c.861,1.228,1.557,2.565,2.352,3.837,.793,1.269,1.566,2.552,2.314,3.848,1.505,2.61,2.937,5.264,4.279,7.962,2.655,5.338,5.008,10.826,7.278,16.337,.572,1.389,1.138,2.781,1.703,4.173,.265,.654,.531,1.309,.796,1.963,.212,.525,.524,1.14,.46,1.724-.065,.595-.551,1.054-.94,1.469-.467,.498-.947,.984-1.439,1.458-.982,.948-2.014,1.844-3.082,2.695-4.274,3.407-9.093,6.05-14.085,8.243-2.794,1.227-5.645,2.321-8.52,3.344-2.945,1.048-5.948,1.94-8.881,3.018-.938,.345-.423,1.712,.521,1.447,2.77-.779,5.501-1.749,8.216-2.7,2.69-.942,5.36-1.941,7.986-3.049,5.196-2.192,10.26-4.815,14.769-8.225,2.182-1.651,4.36-3.485,6.147-5.567,.894-1.042,1.147-2.179,.751-3.495-.409-1.359-1.054-2.676-1.59-3.989-2.37-5.812-4.792-11.605-7.558-17.241-1.503-3.062-3.076-6.105-4.835-9.029-.905-1.505-1.84-2.995-2.831-4.445-1-1.464-2.152-2.784-3.222-4.191-.28-.368-.857,.034-.589,.416h0Z" style="fill:#322b1a;"/></g></g><g id="c"/></svg>