<svg width="76" height="21" viewBox="0 0 76 21" fill="none" xmlns="http://www.w3.org/2000/svg">
<path d="M58.7042 16.2046C57.8805 16.2011 57.1767 15.9839 56.5929 15.5529C56.009 15.122 55.5624 14.4946 55.253 13.6709C54.9437 12.8472 54.7891 11.855 54.7891 10.6942C54.7891 9.53682 54.9437 8.54803 55.253 7.72781C55.5658 6.90759 56.0142 6.282 56.5981 5.85104C57.1854 5.42007 57.8875 5.20459 58.7042 5.20459C59.521 5.20459 60.2213 5.42181 60.8052 5.85625C61.3891 6.28721 61.8357 6.9128 62.145 7.73303C62.4578 8.54977 62.6142 9.53682 62.6142 10.6942C62.6142 11.8585 62.4595 12.8525 62.1502 13.6762C61.8409 14.4964 61.3943 15.1237 60.8104 15.5581C60.2265 15.9891 59.5245 16.2046 58.7042 16.2046ZM58.7042 14.8126C59.4271 14.8126 59.9919 14.4599 60.3985 13.7544C60.8087 13.0488 61.0137 12.0288 61.0137 10.6942C61.0137 9.80791 60.9199 9.05893 60.7322 8.44724C60.548 7.83208 60.2821 7.36636 59.9346 7.05009C59.5905 6.73034 59.1804 6.57047 58.7042 6.57047C57.9848 6.57047 57.42 6.92497 57.0099 7.63397C56.5998 8.34298 56.393 9.36304 56.3895 10.6942C56.3895 11.5839 56.4816 12.3363 56.6658 12.9515C56.8535 13.5632 57.1194 14.0272 57.4635 14.3435C57.8075 14.6562 58.2211 14.8126 58.7042 14.8126Z" fill="white"/>
<path d="M51.9723 16.1265C51.6873 16.1265 51.4423 16.0257 51.2373 15.8241C51.0322 15.6191 50.9297 15.3723 50.9297 15.0838C50.9297 14.7988 51.0322 14.5555 51.2373 14.354C51.4423 14.1489 51.6873 14.0464 51.9723 14.0464C52.2573 14.0464 52.5024 14.1489 52.7074 14.354C52.9125 14.5555 53.015 14.7988 53.015 15.0838C53.015 15.275 52.9663 15.4505 52.869 15.6104C52.7752 15.7668 52.6501 15.8919 52.4937 15.9857C52.3373 16.0796 52.1635 16.1265 51.9723 16.1265Z" fill="white"/>
<path d="M45.1989 16.1733C44.4829 16.1733 43.8434 16.0499 43.2804 15.8032C42.7208 15.5564 42.2777 15.2141 41.951 14.7762C41.6278 14.3348 41.454 13.8239 41.4297 13.2435H43.0667C43.0875 13.5597 43.1935 13.8343 43.3847 14.0671C43.5793 14.2965 43.833 14.4738 44.1458 14.5989C44.4586 14.724 44.8061 14.7866 45.1885 14.7866C45.609 14.7866 45.9809 14.7136 46.3041 14.5676C46.6308 14.4217 46.8862 14.2183 47.0704 13.9577C47.2546 13.6935 47.3467 13.3894 47.3467 13.0453C47.3467 12.6874 47.2546 12.3728 47.0704 12.1017C46.8897 11.8272 46.6238 11.6117 46.2728 11.4553C45.9253 11.2989 45.5047 11.2207 45.0112 11.2207H44.1093V9.90696H45.0112C45.4074 9.90696 45.755 9.83571 46.0539 9.69321C46.3562 9.55072 46.5926 9.35261 46.7629 9.0989C46.9332 8.84171 47.0183 8.54108 47.0183 8.19701C47.0183 7.86683 46.9436 7.5801 46.7941 7.33682C46.6482 7.09006 46.4396 6.89717 46.1685 6.75814C45.9009 6.61912 45.5847 6.54961 45.2197 6.54961C44.8722 6.54961 44.5472 6.61391 44.2449 6.7425C43.946 6.86762 43.7027 7.04835 43.515 7.28468C43.3273 7.51754 43.2265 7.79732 43.2126 8.12402H41.6539C41.6712 7.54709 41.8415 7.03966 42.1648 6.60175C42.4915 6.16383 42.9224 5.82149 43.4576 5.57473C43.9929 5.32797 44.5872 5.20459 45.2406 5.20459C45.9253 5.20459 46.5161 5.3384 47.0131 5.60601C47.5136 5.87015 47.8994 6.22292 48.1704 6.66431C48.445 7.1057 48.5806 7.58879 48.5771 8.11359C48.5806 8.71138 48.4137 9.21881 48.0766 9.63587C47.743 10.0529 47.2981 10.3327 46.742 10.4752V10.5586C47.451 10.6664 48.0001 10.9479 48.3894 11.4032C48.7821 11.8585 48.9768 12.4232 48.9733 13.0975C48.9768 13.6848 48.8134 14.2114 48.4832 14.6771C48.1565 15.1428 47.7099 15.5095 47.1434 15.7771C46.5769 16.0412 45.9287 16.1733 45.1989 16.1733Z" fill="white"/>
<path d="M27.9609 16.0274V5.35059H29.5197V9.31789H29.6135C29.7039 9.15106 29.8342 8.95817 30.0045 8.73921C30.1748 8.52025 30.4112 8.3291 30.7135 8.16575C31.0159 7.99893 31.4156 7.91552 31.9126 7.91552C32.559 7.91552 33.136 8.07886 33.6434 8.40556C34.1508 8.73226 34.5488 9.20319 34.8372 9.81836C35.1292 10.4335 35.2752 11.1738 35.2752 12.0392C35.2752 12.9046 35.1309 13.6466 34.8425 14.2653C34.554 14.8804 34.1578 15.3549 33.6538 15.6885C33.1499 16.0187 32.5747 16.1838 31.9282 16.1838C31.4417 16.1838 31.0437 16.1021 30.7344 15.9387C30.4286 15.7754 30.1887 15.5842 30.015 15.3653C29.8412 15.1463 29.7074 14.9517 29.6135 14.7814H29.4832V16.0274H27.9609ZM29.4884 12.0236C29.4884 12.5866 29.5701 13.0801 29.7334 13.5041C29.8968 13.9282 30.1331 14.2601 30.4425 14.4999C30.7518 14.7362 31.1306 14.8544 31.5789 14.8544C32.0447 14.8544 32.4339 14.731 32.7467 14.4842C33.0595 14.234 33.2958 13.8951 33.4557 13.4676C33.6191 13.0402 33.7007 12.5588 33.7007 12.0236C33.7007 11.4953 33.6208 11.0209 33.4609 10.6003C33.3045 10.1798 33.0682 9.8479 32.7519 9.60462C32.4391 9.36133 32.0481 9.23969 31.5789 9.23969C31.1271 9.23969 30.7448 9.35612 30.432 9.58898C30.1227 9.82183 29.8881 10.1468 29.7282 10.5639C29.5684 10.9809 29.4884 11.4675 29.4884 12.0236Z" fill="white"/>
<path d="M22.3812 16.189C21.5923 16.189 20.9128 16.0204 20.3428 15.6833C19.7763 15.3427 19.3384 14.8648 19.0291 14.2496C18.7232 13.631 18.5703 12.9064 18.5703 12.0757C18.5703 11.2555 18.7232 10.5326 19.0291 9.907C19.3384 9.2814 19.7694 8.79309 20.322 8.44207C20.8781 8.09104 21.528 7.91553 22.2717 7.91553C22.7236 7.91553 23.1615 7.99025 23.5855 8.1397C24.0095 8.28914 24.3901 8.52374 24.7272 8.84349C25.0643 9.16324 25.3302 9.57856 25.5248 10.0895C25.7194 10.5969 25.8168 11.2138 25.8168 11.9402V12.4928H19.4514V11.325H24.2893C24.2893 10.9149 24.2059 10.5517 24.039 10.2354C23.8722 9.91568 23.6376 9.66371 23.3352 9.47951C23.0363 9.29531 22.6853 9.2032 22.2822 9.2032C21.8442 9.2032 21.4619 9.31095 21.1352 9.52643C20.812 9.73843 20.5618 10.0165 20.3845 10.3606C20.2108 10.7012 20.1239 11.0713 20.1239 11.471V12.3833C20.1239 12.9185 20.2177 13.3738 20.4054 13.7492C20.5965 14.1245 20.8624 14.4113 21.203 14.6094C21.5436 14.804 21.9416 14.9013 22.3969 14.9013C22.6923 14.9013 22.9616 14.8596 23.2049 14.7762C23.4482 14.6893 23.6585 14.5607 23.8357 14.3904C24.013 14.2201 24.1485 14.0098 24.2424 13.7596L25.7177 14.0255C25.5995 14.4599 25.3875 14.8405 25.0817 15.1672C24.7793 15.4904 24.3987 15.7424 23.94 15.9231C23.4847 16.1004 22.9651 16.189 22.3812 16.189Z" fill="white"/>
<path d="M7.28926 16.0274L4.32812 5.35059H6.02244L8.10253 13.6188H8.20158L10.3651 5.35059H12.0438L14.2073 13.624H14.3063L16.3812 5.35059H18.0807L15.1144 16.0274H13.4931L11.2461 8.03021H11.1627L8.9158 16.0274H7.28926Z" fill="white"/>
</svg>
