<svg width="21" height="22" viewBox="0 0 21 22" fill="none" xmlns="http://www.w3.org/2000/svg">
<path d="M10.1861 10.4448C10.7483 10.7259 11.3969 10.7259 11.9375 10.4448C12.478 10.1421 15.8726 8.1529 16.197 7.97993C16.5213 7.80695 16.4348 7.59073 16.197 7.43938C15.9591 7.28803 11.8294 4.9745 11.5267 4.84477C11.224 4.71504 10.705 4.49882 10.4672 4.67179C10.2294 4.84477 6.31582 7.26641 6.20772 7.30965C6.09961 7.35289 5.84015 7.85019 6.20772 8.02317C6.57529 8.19614 9.75366 10.1853 10.1861 10.4448Z" fill="#6664FF"/>
<path fill-rule="evenodd" clip-rule="evenodd" d="M10.0532 2.82509C10.409 2.6472 10.8193 2.62093 11.2032 2.77448L11.2171 2.78006L11.2302 2.7875C11.2692 2.8098 11.5779 2.98115 12.0494 3.24286C13.4549 4.02297 16.3068 5.60597 17.7736 6.43703C18.131 6.60613 18.3446 6.96467 18.3446 7.36445V14.7591H17.9121V7.36445C17.9121 7.24815 17.8832 7.14184 17.8316 7.05236L17.1825 7.41841C16.6751 7.70458 15.9886 8.09178 15.2724 8.49587C13.8417 9.30308 12.293 10.1774 11.8154 10.4487C11.7276 10.5006 11.6099 10.5328 11.4976 10.5535C11.3781 10.5755 11.2414 10.5885 11.1032 10.5915C10.8382 10.597 10.5209 10.5663 10.3077 10.4526C10.1379 10.362 8.80381 9.54506 7.48821 8.73795C7.2546 8.59463 7.02135 8.45148 6.79479 8.31244C5.73616 7.66275 4.82355 7.10267 4.70209 7.03326C4.61739 6.98486 4.53022 6.92576 4.45772 6.85505C4.38638 6.78546 4.31584 6.69155 4.28997 6.57254C4.23067 6.29973 4.42549 6.084 4.70042 5.92363L4.7019 5.92276C6.42156 4.93786 8.30924 3.83898 9.324 3.24825C9.70486 3.02654 9.96276 2.87641 10.0427 2.83075L10.0479 2.82777L10.0532 2.82509ZM17.468 6.76097C15.9803 5.91939 13.1821 4.36615 11.8107 3.60487C11.389 3.37078 11.1021 3.21157 11.0298 3.17097C10.7706 3.07135 10.4961 3.08881 10.2518 3.2093C10.1595 3.26214 9.89547 3.41587 9.51173 3.63927C8.49649 4.23033 6.6435 5.30909 4.9176 6.29757C4.80256 6.36476 4.74874 6.41821 4.7259 6.45135C4.71534 6.46666 4.71304 6.47525 4.71256 6.47737C4.71222 6.47893 4.71224 6.47931 4.71254 6.48068C4.71369 6.486 4.72154 6.5083 4.75965 6.54547C4.79661 6.58151 4.84999 6.61971 4.91664 6.6578C5.04462 6.73093 5.96711 7.29708 7.0256 7.94671C7.25113 8.08512 7.48284 8.22732 7.71434 8.36935C9.04201 9.18387 10.3566 9.98858 10.5112 10.071C10.6222 10.1302 10.8455 10.1643 11.094 10.1591C11.2125 10.1566 11.3258 10.1454 11.4192 10.1282C11.5187 10.1099 11.5754 10.0884 11.5955 10.0764L11.5977 10.075L11.5999 10.0738C12.0759 9.8033 13.6277 8.92733 15.0599 8.11924C15.7762 7.71514 16.4627 7.32793 16.9701 7.04175L17.468 6.76097Z" fill="#C3C3C3" fill-opacity="0.17"/>
<path fill-rule="evenodd" clip-rule="evenodd" d="M11.5204 4.98957C11.0741 4.69204 10.4768 4.69204 10.0305 4.98957L10.0292 4.99044C9.68339 5.21737 8.65649 5.89291 7.71588 6.51183C7.24562 6.82127 6.79697 7.11652 6.46589 7.3344L5.92146 7.69272C5.92143 7.69274 5.9213 7.69282 5.80243 7.51221C5.68356 7.3316 5.68357 7.3316 5.68359 7.33158L6.22816 6.97318C6.55925 6.75528 7.0079 6.46003 7.47818 6.15059C8.41809 5.53213 9.44457 4.85685 9.79129 4.62932C10.3823 4.23569 11.1677 4.23554 11.7589 4.62887C11.9404 4.74596 13.1459 5.44256 14.3184 6.11674C14.9034 6.45314 15.4769 6.78212 15.9043 7.02701C16.1179 7.14945 16.295 7.25086 16.4187 7.32166L16.6124 7.43253C16.6124 7.43255 16.6126 7.43264 16.5052 7.62032C16.3978 7.808 16.3978 7.80799 16.3978 7.80797L16.2038 7.69695C16.0801 7.62612 15.903 7.52467 15.6892 7.4022C15.2618 7.15725 14.6881 6.82816 14.1028 6.49162C12.9372 5.82137 11.7129 5.11417 11.5228 4.99119L11.5204 4.98957Z" fill="#353535"/>
<path fill-rule="evenodd" clip-rule="evenodd" d="M10.5697 2.77148C10.6891 2.77148 10.786 2.86829 10.786 2.9877V4.71744H10.3535V2.9877C10.3535 2.86829 10.4503 2.77148 10.5697 2.77148Z" fill="#353535"/>
<path fill-rule="evenodd" clip-rule="evenodd" d="M10.6002 1.07669C10.0656 1.03719 9.51866 1.09514 9.15715 1.32688C8.7622 1.58005 7.1888 2.48447 5.56112 3.42009C5.42725 3.49704 5.29301 3.5742 5.15902 3.65123C4.27516 4.15939 3.40001 4.66314 2.70941 5.06548C2.01306 5.47117 1.51731 5.76637 1.38107 5.86224C1.11972 6.04615 0.977972 6.27117 0.961206 6.46118C0.946495 6.62791 1.02351 6.83142 1.35756 7.00772C1.75301 7.21643 3.47918 8.23705 5.15617 9.23192C5.49194 9.43111 5.8258 9.62931 6.14701 9.82C7.43798 10.5864 8.52477 11.2316 8.71157 11.3335C8.9654 11.4719 9.2231 11.6482 9.40853 11.9871C9.58999 12.3187 9.68912 12.7817 9.68912 13.4692V20.6702C10.211 20.7133 10.7513 20.642 11.084 20.4237C11.3591 20.2431 12.6215 19.491 14.0746 18.6253C14.4759 18.3862 14.8918 18.1385 15.3054 17.8917C16.2635 17.3201 17.2122 16.7522 17.9468 16.3058C18.3142 16.0825 18.6274 15.89 18.8611 15.7428C19.1024 15.5909 19.2426 15.4972 19.2796 15.466C19.3778 15.3834 19.4809 15.3213 19.5644 15.271C19.5818 15.2605 19.5984 15.2505 19.6139 15.2409C19.7087 15.1825 19.7787 15.1323 19.8377 15.0599C19.9537 14.9172 20.0676 14.6355 20.0676 13.9017V6.98272C20.0676 6.63387 20.0551 6.39416 19.983 6.19371C19.9154 6.00555 19.7877 5.83403 19.5137 5.64812C19.222 5.45014 17.3876 4.43063 15.5579 3.42347C14.357 2.76244 13.1657 2.11084 12.4385 1.71307C12.0639 1.50817 11.8125 1.37063 11.7463 1.33386C11.6743 1.29387 11.5248 1.23852 11.3155 1.18774C11.1107 1.13806 10.8623 1.09606 10.6002 1.07669ZM9.25669 20.6068V13.4692C9.25669 12.8162 9.16122 12.436 9.02917 12.1946C8.90108 11.9606 8.72635 11.8341 8.5045 11.7131C8.31006 11.6071 7.21024 10.9541 5.91718 10.1865C5.59816 9.99707 5.26738 9.8007 4.93553 9.60383C3.25034 8.60409 1.53866 7.59227 1.15572 7.39016C1.07337 7.3467 0.998899 7.29934 0.932435 7.24858V15.2745C0.932435 15.4233 1.00717 15.5597 1.1316 15.6386C2.51826 16.5177 8.22745 20.1352 8.71608 20.4171C8.84484 20.4914 9.03307 20.5586 9.25669 20.6068ZM0.548576 6.30541C0.51821 6.34264 0.5 6.39018 0.5 6.44197V15.2745C0.5 15.5699 0.649291 15.8448 0.90006 16.0038C2.27818 16.8775 8.00096 20.5038 8.49999 20.7917C8.7398 20.9301 9.08197 21.0287 9.44365 21.0781C10.0585 21.1621 10.819 21.1148 11.3213 20.7852C11.5877 20.6103 12.8342 19.8677 14.2836 19.0042C14.6879 18.7633 15.108 18.5131 15.527 18.2631C16.4851 17.6914 17.4351 17.1228 18.1714 16.6753C18.5395 16.4516 18.8549 16.2578 19.0915 16.1088C19.3206 15.9645 19.4925 15.8521 19.5582 15.7968C19.6279 15.7381 19.6964 15.6967 19.778 15.6473C19.7981 15.6352 19.8189 15.6226 19.8408 15.6091C19.9467 15.5438 20.0672 15.463 20.1731 15.3327C20.3869 15.0699 20.5 14.6598 20.5 13.9017V6.98272C20.5 6.63968 20.4909 6.32804 20.3899 6.0474C20.2846 5.75448 20.088 5.51519 19.7565 5.29029C19.4429 5.07745 17.5799 4.04289 15.7664 3.04463C14.5617 2.38151 13.3709 1.73017 12.6453 1.33325C12.2724 1.12929 12.0223 0.992518 11.9563 0.955842C11.8337 0.887722 11.6399 0.821453 11.4175 0.767495C11.1905 0.712451 10.9187 0.666613 10.6321 0.645435C10.0694 0.603857 9.40553 0.654013 8.92378 0.962821C8.53828 1.20994 6.9696 2.11166 5.33076 3.05371C5.20192 3.12777 5.07265 3.20208 4.94349 3.27634C4.05978 3.7844 3.18356 4.28877 2.49172 4.69183C1.80563 5.09155 1.28786 5.39906 1.13221 5.50859C0.8452 5.71056 0.617613 5.99132 0.548576 6.30541Z" fill="#C3C3C3"/>
</svg>
