<svg width="11" height="12" viewBox="0 0 11 12" fill="none" xmlns="http://www.w3.org/2000/svg">
<g clip-path="url(#clip0_232_818)">
<path d="M5.40632 11.7748V7.07332C5.40632 6.59544 5.38426 6.08572 6.12201 5.64243C6.85945 5.19924 10.4147 3.18945 10.4147 3.18945C10.5489 3.44103 10.6191 3.72179 10.6191 4.00697V7.7887C10.6191 8.7181 10.3536 9.1321 9.90346 9.42419C9.4536 9.71625 6.74954 11.3086 6.22405 11.5699C5.69841 11.8315 5.40632 11.7748 5.40632 11.7748Z" fill="#B6B6B6" fill-opacity="0.22"/>
<path d="M3.95206 0.579692C3.89661 0.612632 3.85634 0.666099 3.83993 0.728513C3.82359 0.790934 3.83248 0.857287 3.86467 0.9132C3.89686 0.96912 3.9498 1.0101 4.01199 1.02729C4.07421 1.04447 4.14067 1.03646 4.197 1.00501L3.95206 0.579692ZM3.34412 1.4961C3.37253 1.48026 3.39748 1.45893 3.41753 1.43337C3.43761 1.4078 3.4524 1.3785 3.46108 1.34717C3.46973 1.31584 3.47206 1.2831 3.468 1.25086C3.46387 1.21861 3.45339 1.18751 3.43719 1.15934C3.42092 1.13117 3.39932 1.10651 3.37348 1.08677C3.34768 1.06705 3.31814 1.05265 3.28673 1.04441C3.25528 1.03617 3.22253 1.03426 3.19034 1.03879C3.15812 1.04331 3.12713 1.05419 3.09921 1.07079L3.34412 1.4961ZM4.197 1.00501L4.76788 0.676147L4.52266 0.250828L3.95206 0.579692L4.197 1.00501ZM4.76788 0.676147C4.97887 0.554799 5.21799 0.490913 5.46141 0.490846V0C5.13201 5.29412e-05 4.80812 0.0865482 4.52266 0.250828L4.76788 0.676147ZM5.46141 0.490846C5.70487 0.490846 5.94364 0.554908 6.15473 0.676147L6.39992 0.250828C6.11439 0.0865518 5.79081 6.70588e-05 5.46141 0V0.490846ZM6.15473 0.676147L9.73521 2.73773L9.98012 2.3124L6.39992 0.250828L6.15473 0.676147ZM9.73521 2.73773C9.94694 2.8596 10.1228 3.03519 10.245 3.24674L10.6701 3.00106C10.5046 2.71486 10.2667 2.47733 9.98012 2.3124L9.73521 2.73773ZM10.245 3.24674C10.3672 3.45801 10.4317 3.69808 10.4317 3.94228H10.9226C10.9226 3.61168 10.8355 3.28694 10.6701 3.00106L10.245 3.24674ZM10.4317 3.94228V8.05754H10.9226V3.94228H10.4317ZM10.4317 8.05754C10.4317 8.30174 10.3675 8.54174 10.245 8.75326L10.6701 8.99894C10.8355 8.71281 10.9226 8.38807 10.9226 8.05754H10.4317ZM10.245 8.75326C10.1227 8.96474 9.94687 9.14019 9.73521 9.26206L9.98012 9.68739C10.2666 9.52246 10.5045 9.285 10.6701 8.99894L10.245 8.75326ZM9.73521 9.26206L6.15473 11.3236L6.39992 11.7489L9.98012 9.68739L9.73521 9.26206ZM6.15473 11.3236C5.94381 11.4451 5.70459 11.5091 5.4612 11.5091V12C5.7906 12 6.11453 11.9134 6.39992 11.7489L6.15473 11.3236ZM5.4612 11.5091C5.21774 11.5091 4.9788 11.4451 4.76788 11.3236L4.52266 11.7489C4.80812 11.9134 5.13173 12 5.4612 12V11.5091ZM4.76788 11.3236L1.18736 9.26206L0.94218 9.6876L4.52266 11.7489L4.76788 11.3236ZM1.18736 9.26206C0.975646 9.14026 0.799814 8.96481 0.677615 8.75326L0.25254 8.99894C0.417914 9.28514 0.655779 9.52267 0.94218 9.6876L1.18736 9.26206ZM0.677615 8.75326C0.555388 8.54188 0.491047 8.30192 0.491093 8.05772H0C0 8.38807 0.087127 8.71281 0.25254 8.99894L0.677615 8.75326ZM0.491093 8.05772V3.94246H0V8.05772H0.491093ZM0.491093 3.94246C0.491093 3.69826 0.555395 3.45826 0.677615 3.24692L0.25254 3.00127C0.087127 3.2874 2.82353e-05 3.612 0 3.94246H0.491093ZM0.677615 3.24692C0.799814 3.03547 0.975646 2.85999 1.18736 2.73819L0.94218 2.3126C0.655779 2.47761 0.417914 2.71514 0.25254 3.00127L0.677615 3.24692ZM1.18736 2.73819L3.34412 1.4961L3.09921 1.07079L0.94218 2.3126L1.18736 2.73819Z" fill="#B8B8B8"/>
<path d="M5.21094 11.6248C5.21094 11.6899 5.23677 11.7523 5.2828 11.7983C5.32886 11.8444 5.39126 11.8703 5.45637 11.8703C5.52146 11.8703 5.58386 11.8444 5.62991 11.7983C5.67594 11.7523 5.70181 11.6899 5.70181 11.6248H5.21094ZM5.70181 10.9224C5.70181 10.8574 5.67594 10.7949 5.62991 10.7489C5.58386 10.7029 5.52146 10.677 5.45637 10.677C5.39126 10.677 5.32886 10.7029 5.2828 10.7489C5.23677 10.7949 5.21094 10.8574 5.21094 10.9224H5.70181ZM5.21094 9.99642C5.21094 10.0615 5.23677 10.1239 5.2828 10.17C5.32886 10.216 5.39126 10.2419 5.45637 10.2419C5.52146 10.2419 5.58386 10.216 5.62991 10.17C5.67594 10.1239 5.70181 10.0615 5.70181 9.99642H5.21094ZM5.70181 8.80613C5.70181 8.74101 5.67594 8.67861 5.62991 8.63262C5.58386 8.58653 5.52146 8.56066 5.45637 8.56066C5.39126 8.56066 5.32886 8.58653 5.2828 8.63262C5.23677 8.67861 5.21094 8.74101 5.21094 8.80613H5.70181ZM5.21094 7.51401C5.21094 7.57906 5.23677 7.64146 5.2828 7.68755C5.32886 7.73354 5.39126 7.75941 5.45637 7.75941C5.52146 7.75941 5.58386 7.73354 5.62991 7.68755C5.67594 7.64146 5.70181 7.57906 5.70181 7.51401H5.21094ZM10.5396 3.40115C10.568 3.38527 10.593 3.36395 10.6131 3.33826C10.6332 3.31267 10.648 3.28327 10.6566 3.25186C10.6653 3.22048 10.6676 3.18766 10.6634 3.15533C10.6592 3.12307 10.6487 3.09194 10.6323 3.06374C10.616 3.03554 10.5942 3.01094 10.5683 2.99128C10.5423 2.97162 10.5126 2.95726 10.4811 2.94914C10.4496 2.94102 10.4167 2.93926 10.3845 2.94402C10.3523 2.94868 10.3213 2.9598 10.2934 2.9766L10.5396 3.40115ZM5.70181 11.6248V10.9224H5.21094V11.6248H5.70181ZM5.21094 8.80613V9.99642H5.70181V8.80613H5.21094ZM5.70181 7.51401V6.77206H5.21094V7.51401H5.70181ZM5.70181 6.77206C5.70181 6.59982 5.7472 6.43041 5.8336 6.28122L5.40851 6.03554C5.27906 6.25941 5.21094 6.51346 5.21094 6.77206H5.70181ZM5.8336 6.28122C5.91986 6.13186 6.04412 6.00794 6.1936 5.92193L5.94844 5.4966C5.72419 5.62567 5.53797 5.81153 5.40851 6.03554L5.8336 6.28122ZM6.1936 5.92193L10.5396 3.40115L10.2934 2.9766L5.94844 5.4966L6.1936 5.92193Z" fill="#B8B8B8"/>
</g>
<defs>
<clipPath id="clip0_232_818">
<rect width="11" height="12" fill="white"/>
</clipPath>
</defs>
</svg>
