<svg width="29" height="29" viewBox="0 0 29 29" fill="none" xmlns="http://www.w3.org/2000/svg">
<g clip-path="url(#clip0_218_2)">
<mask id="mask0_218_2" style="mask-type:luminance" maskUnits="userSpaceOnUse" x="0" y="0" width="29" height="29">
<path d="M29 0H0V29H29V0Z" fill="white"/>
</mask>
<g mask="url(#mask0_218_2)">
<path d="M14.5 29C22.5081 29 29 22.5082 29 14.5C29 6.49188 22.5081 0 14.5 0C6.49188 0 0 6.49188 0 14.5C0 22.5082 6.49188 29 14.5 29Z" fill="url(#paint0_radial_218_2)"/>
<path d="M14.4996 28.2746C22.1073 28.2746 28.2746 22.1073 28.2746 14.4996C28.2746 6.8919 22.1073 0.724609 14.4996 0.724609C6.89191 0.724609 0.724609 6.8919 0.724609 14.4996C0.724609 22.1073 6.89191 28.2746 14.4996 28.2746Z" fill="url(#paint1_radial_218_2)"/>
<path d="M14.4996 24.6496C20.1053 24.6496 24.6496 20.1053 24.6496 14.4996C24.6496 8.89395 20.1053 4.34961 14.4996 4.34961C8.89391 4.34961 4.34961 8.89395 4.34961 14.4996C4.34961 20.1053 8.89391 24.6496 14.4996 24.6496Z" fill="url(#paint2_radial_218_2)"/>
<path d="M14.5006 24.0702C19.786 24.0702 24.0706 19.7856 24.0706 14.5002C24.0706 9.21481 19.786 4.93018 14.5006 4.93018C9.2153 4.93018 4.93066 9.21481 4.93066 14.5002C4.93066 19.7856 9.2153 24.0702 14.5006 24.0702Z" fill="url(#paint3_radial_218_2)"/>
<path d="M14.5006 24.0702C19.786 24.0702 24.0706 19.7856 24.0706 14.5002C24.0706 9.21481 19.786 4.93018 14.5006 4.93018C9.2153 4.93018 4.93066 9.21481 4.93066 14.5002C4.93066 19.7856 9.2153 24.0702 14.5006 24.0702Z" fill="url(#paint4_radial_218_2)"/>
<path d="M14.5006 24.0702C19.786 24.0702 24.0706 19.7856 24.0706 14.5002C24.0706 9.21481 19.786 4.93018 14.5006 4.93018C9.2153 4.93018 4.93066 9.21481 4.93066 14.5002C4.93066 19.7856 9.2153 24.0702 14.5006 24.0702Z" fill="url(#paint5_radial_218_2)"/>
<path d="M8.99023 10.373C9.01309 10.3965 9.05313 10.4179 9.05605 10.4436C9.08447 10.6937 9.24011 10.8617 9.42921 10.996C11.1657 12.2299 12.9025 13.4632 14.6453 14.6881C15.0662 14.984 15.4 14.9668 15.8154 14.6735C16.7646 14.0031 17.7129 13.3317 18.66 12.6584C19.197 12.2766 19.5886 11.7803 19.7934 11.1519C19.8649 10.9326 19.8924 10.699 19.9224 10.5557C19.9224 11.1032 19.9629 11.7379 19.9121 12.3653C19.8496 13.1388 19.4616 13.7767 18.8419 14.2359C17.8098 15.0009 16.7573 15.7388 15.7043 16.4753C15.3619 16.7146 14.9991 16.652 14.6637 16.4331C14.3197 16.2087 13.9784 15.9795 13.6438 15.7414C12.2576 14.7543 10.8746 13.7624 9.4893 12.7739C9.25197 12.6045 9.06454 12.4043 9.0223 12.1016C9.02332 11.6097 9.02507 11.1177 9.02381 10.6259C9.02369 10.5885 9.00193 10.5512 8.99023 10.5139C8.99023 10.467 8.99023 10.42 8.99023 10.373Z" fill="#E18400"/>
<path d="M8.99027 14.3496C9.01212 14.3643 9.05134 14.3771 9.05317 14.3939C9.0835 14.6728 9.27016 14.8412 9.47696 14.9924C10.2729 15.574 11.0646 16.1614 11.8692 16.7309C12.7601 17.3612 13.6625 17.9752 14.5614 18.594C15.0765 18.9486 15.3622 18.9501 15.8766 18.5888C16.7888 17.9481 17.6954 17.2992 18.6071 16.6576C19.1505 16.275 19.5623 15.7896 19.7759 15.1569C19.8552 14.9219 19.8874 14.6711 19.973 14.4271C19.9495 15.1083 19.9698 15.7944 19.8906 16.469C19.8057 17.1917 19.4091 17.7819 18.8269 18.2116C17.8026 18.9673 16.7593 19.6976 15.7174 20.4293C15.3523 20.6856 14.9801 20.6095 14.6318 20.3767C14.1782 20.0734 13.7257 19.7681 13.2815 19.4513C12.0011 18.5385 10.7251 17.6195 9.44736 16.703C9.21899 16.5392 9.05569 16.3336 9.02032 16.0451C9.02191 15.5467 9.02409 15.0483 9.02353 14.5499C9.02348 14.5184 9.00185 14.4868 8.99023 14.4553C8.99027 14.42 8.99027 14.3848 8.99027 14.3496Z" fill="#E18400"/>
<path d="M11.5518 10.2394C11.5814 10.2056 11.5967 10.1794 11.6193 10.1635C12.1719 9.77638 12.7146 9.37403 13.2812 9.00867C13.8676 8.63056 14.5152 8.40857 15.2235 8.40967C15.8839 8.41073 16.4828 8.62074 17.0259 8.98353C17.2883 9.15895 17.5424 9.35255 17.7753 9.5652C18.1519 9.90895 18.1908 10.5212 17.8912 10.9327C17.8244 11.0247 17.7546 11.0307 17.6668 10.9719C17.5448 10.8904 17.4237 10.8074 17.2995 10.7292C16.0463 9.94018 14.7929 9.94867 13.5396 10.7303C13.3406 10.8545 13.1434 10.982 12.9405 11.0998C12.8997 11.1235 12.8219 11.1328 12.7871 11.1097C12.396 10.8501 12.0099 10.5831 11.6231 10.317C11.6 10.3011 11.5839 10.2749 11.5518 10.2394Z" fill="#E18400"/>
<path d="M8.99023 10.373C9.01309 10.3965 9.05313 10.4179 9.05605 10.4436C9.08447 10.6937 9.24011 10.8617 9.42921 10.996C11.1657 12.2299 12.9025 13.4632 14.6453 14.6881C15.0662 14.984 15.4 14.9668 15.8154 14.6735C16.7646 14.0031 17.7129 13.3317 18.66 12.6584C19.197 12.2766 19.5886 11.7803 19.7934 11.1519C19.8649 10.9326 19.8924 10.699 19.9224 10.5557C19.9224 11.1032 19.9629 11.7379 19.9121 12.3653C19.8496 13.1388 19.4616 13.7767 18.8419 14.2359C17.8098 15.0009 16.7573 15.7388 15.7043 16.4753C15.3619 16.7146 14.9991 16.652 14.6637 16.4331C14.3197 16.2087 13.9784 15.9795 13.6438 15.7414C12.2576 14.7543 10.8746 13.7624 9.4893 12.7739C9.25197 12.6045 9.06454 12.4043 9.0223 12.1016C9.02332 11.6097 9.02507 11.1177 9.02381 10.6259C9.02369 10.5885 9.00193 10.5512 8.99023 10.5139C8.99023 10.467 8.99023 10.42 8.99023 10.373Z" fill="#E99C00"/>
<path d="M8.99027 14.3496C9.01212 14.3643 9.05134 14.3771 9.05317 14.3939C9.0835 14.6728 9.27016 14.8412 9.47696 14.9924C10.2729 15.574 11.0646 16.1614 11.8692 16.7309C12.7601 17.3612 13.6625 17.9752 14.5614 18.594C15.0765 18.9486 15.3622 18.9501 15.8766 18.5888C16.7888 17.9481 17.6954 17.2992 18.6071 16.6576C19.1505 16.275 19.5623 15.7896 19.7759 15.1569C19.8552 14.9219 19.8874 14.6711 19.973 14.4271C19.9495 15.1083 19.9698 15.7944 19.8906 16.469C19.8057 17.1917 19.4091 17.7819 18.8269 18.2116C17.8026 18.9673 16.7593 19.6976 15.7174 20.4293C15.3523 20.6856 14.9801 20.6095 14.6318 20.3767C14.1782 20.0734 13.7257 19.7681 13.2815 19.4513C12.0011 18.5385 10.7251 17.6195 9.44736 16.703C9.21899 16.5392 9.05569 16.3336 9.02032 16.0451C9.02191 15.5467 9.02409 15.0483 9.02353 14.5499C9.02348 14.5184 9.00185 14.4868 8.99023 14.4553C8.99027 14.42 8.99027 14.3848 8.99027 14.3496Z" fill="#E99C00"/>
<path d="M11.5518 10.2394C11.5814 10.2056 11.5967 10.1794 11.6193 10.1635C12.1719 9.77638 12.7146 9.37403 13.2812 9.00867C13.8676 8.63056 14.5152 8.40857 15.2235 8.40967C15.8839 8.41073 16.4828 8.62074 17.0259 8.98353C17.2883 9.15895 17.5424 9.35255 17.7753 9.5652C18.1519 9.90895 18.1908 10.5212 17.8912 10.9327C17.8244 11.0247 17.7546 11.0307 17.6668 10.9719C17.5448 10.8904 17.4237 10.8074 17.2995 10.7292C16.0463 9.94018 14.7929 9.94867 13.5396 10.7303C13.3406 10.8545 13.1434 10.982 12.9405 11.0998C12.8997 11.1235 12.8219 11.1328 12.7871 11.1097C12.396 10.8501 12.0099 10.5831 11.6231 10.317C11.6 10.3011 11.5839 10.2749 11.5518 10.2394Z" fill="#E99C00"/>
<path d="M8.99023 10.373C9.01309 10.3965 9.05313 10.4179 9.05605 10.4436C9.08447 10.6937 9.24011 10.8617 9.42921 10.996C11.1657 12.2299 12.9025 13.4632 14.6453 14.6881C15.0662 14.984 15.4 14.9668 15.8154 14.6735C16.7646 14.0031 17.7129 13.3317 18.66 12.6584C19.197 12.2766 19.5886 11.7803 19.7934 11.1519C19.8649 10.9326 19.8924 10.699 19.9224 10.5557C19.9224 11.1032 19.9629 11.7379 19.9121 12.3653C19.8496 13.1388 19.4616 13.7767 18.8419 14.2359C17.8098 15.0009 16.7573 15.7388 15.7043 16.4753C15.3619 16.7146 14.9991 16.652 14.6637 16.4331C14.3197 16.2087 13.9784 15.9795 13.6438 15.7414C12.2576 14.7543 10.8746 13.7624 9.4893 12.7739C9.25197 12.6045 9.06454 12.4043 9.0223 12.1016C9.02332 11.6097 9.02507 11.1177 9.02381 10.6259C9.02369 10.5885 9.00193 10.5512 8.99023 10.5139C8.99023 10.467 8.99023 10.42 8.99023 10.373Z" fill="#F0B400"/>
<path d="M8.99027 14.3496C9.01212 14.3643 9.05134 14.3771 9.05317 14.3939C9.0835 14.6728 9.27016 14.8412 9.47696 14.9924C10.2729 15.574 11.0646 16.1614 11.8692 16.7309C12.7601 17.3612 13.6625 17.9752 14.5614 18.594C15.0765 18.9486 15.3622 18.9501 15.8766 18.5888C16.7888 17.9481 17.6954 17.2992 18.6071 16.6576C19.1505 16.275 19.5623 15.7896 19.7759 15.1569C19.8552 14.9219 19.8874 14.6711 19.973 14.4271C19.9495 15.1083 19.9698 15.7944 19.8906 16.469C19.8057 17.1917 19.4091 17.7819 18.8269 18.2116C17.8026 18.9673 16.7593 19.6976 15.7174 20.4293C15.3523 20.6856 14.9801 20.6095 14.6318 20.3767C14.1782 20.0734 13.7257 19.7681 13.2815 19.4513C12.0011 18.5385 10.7251 17.6195 9.44736 16.703C9.21899 16.5392 9.05569 16.3336 9.02032 16.0451C9.02191 15.5467 9.02409 15.0483 9.02353 14.5499C9.02348 14.5184 9.00185 14.4868 8.99023 14.4553C8.99027 14.42 8.99027 14.3848 8.99027 14.3496Z" fill="#F0B400"/>
<path d="M11.5518 10.2394C11.5814 10.2056 11.5967 10.1794 11.6193 10.1635C12.1719 9.77638 12.7146 9.37403 13.2812 9.00867C13.8676 8.63056 14.5152 8.40857 15.2235 8.40967C15.8839 8.41073 16.4828 8.62074 17.0259 8.98353C17.2883 9.15895 17.5424 9.35255 17.7753 9.5652C18.1519 9.90895 18.1908 10.5212 17.8912 10.9327C17.8244 11.0247 17.7546 11.0307 17.6668 10.9719C17.5448 10.8904 17.4237 10.8074 17.2995 10.7292C16.0463 9.94018 14.7929 9.94867 13.5396 10.7303C13.3406 10.8545 13.1434 10.982 12.9405 11.0998C12.8997 11.1235 12.8219 11.1328 12.7871 11.1097C12.396 10.8501 12.0099 10.5831 11.6231 10.317C11.6 10.3011 11.5839 10.2749 11.5518 10.2394Z" fill="#F0B400"/>
<path d="M8.99023 10.373C9.01309 10.3965 9.05313 10.4179 9.05605 10.4436C9.08447 10.6937 9.24011 10.8617 9.42921 10.996C11.1657 12.2299 12.9025 13.4632 14.6453 14.6881C15.0662 14.984 15.4 14.9668 15.8154 14.6735C16.7646 14.0031 17.7129 13.3317 18.66 12.6584C19.197 12.2766 19.5886 11.7803 19.7934 11.1519C19.8649 10.9326 19.8924 10.699 19.9224 10.5557C19.9224 11.1032 19.9629 11.7379 19.9121 12.3653C19.8496 13.1388 19.4616 13.7767 18.8419 14.2359C17.8098 15.0009 16.7573 15.7388 15.7043 16.4753C15.3619 16.7146 14.9991 16.652 14.6637 16.4331C14.3197 16.2087 13.9784 15.9795 13.6438 15.7414C12.2576 14.7543 10.8746 13.7624 9.4893 12.7739C9.25197 12.6045 9.06454 12.4043 9.0223 12.1016C9.02332 11.6097 9.02507 11.1177 9.02381 10.6259C9.02369 10.5885 9.00193 10.5512 8.99023 10.5139C8.99023 10.467 8.99023 10.42 8.99023 10.373Z" fill="#F8CC00"/>
<path d="M8.99027 14.3496C9.01212 14.3643 9.05134 14.3771 9.05317 14.3939C9.0835 14.6728 9.27016 14.8412 9.47696 14.9924C10.2729 15.574 11.0646 16.1614 11.8692 16.7309C12.7601 17.3612 13.6625 17.9752 14.5614 18.594C15.0765 18.9486 15.3622 18.9501 15.8766 18.5888C16.7888 17.9481 17.6954 17.2992 18.6071 16.6576C19.1505 16.275 19.5623 15.7896 19.7759 15.1569C19.8552 14.9219 19.8874 14.6711 19.973 14.4271C19.9495 15.1083 19.9698 15.7944 19.8906 16.469C19.8057 17.1917 19.4091 17.7819 18.8269 18.2116C17.8026 18.9673 16.7593 19.6976 15.7174 20.4293C15.3523 20.6856 14.9801 20.6095 14.6318 20.3767C14.1782 20.0734 13.7257 19.7681 13.2815 19.4513C12.0011 18.5385 10.7251 17.6195 9.44736 16.703C9.21899 16.5392 9.05569 16.3336 9.02032 16.0451C9.02191 15.5467 9.02409 15.0483 9.02353 14.5499C9.02348 14.5184 9.00185 14.4868 8.99023 14.4553C8.99027 14.42 8.99027 14.3848 8.99027 14.3496Z" fill="#F8CC00"/>
<path d="M11.5518 10.2394C11.5814 10.2056 11.5967 10.1794 11.6193 10.1635C12.1719 9.77638 12.7146 9.37403 13.2812 9.00867C13.8676 8.63056 14.5152 8.40857 15.2235 8.40967C15.8839 8.41073 16.4828 8.62074 17.0259 8.98353C17.2883 9.15895 17.5424 9.35255 17.7753 9.5652C18.1519 9.90895 18.1908 10.5212 17.8912 10.9327C17.8244 11.0247 17.7546 11.0307 17.6668 10.9719C17.5448 10.8904 17.4237 10.8074 17.2995 10.7292C16.0463 9.94018 14.7929 9.94867 13.5396 10.7303C13.3406 10.8545 13.1434 10.982 12.9405 11.0998C12.8997 11.1235 12.8219 11.1328 12.7871 11.1097C12.396 10.8501 12.0099 10.5831 11.6231 10.317C11.6 10.3011 11.5839 10.2749 11.5518 10.2394Z" fill="#F8CC00"/>
<path d="M8.99023 10.373C9.01309 10.3965 9.05313 10.4179 9.05605 10.4436C9.08447 10.6937 9.24011 10.8617 9.42921 10.996C11.1657 12.2299 12.9025 13.4632 14.6453 14.6881C15.0662 14.984 15.4 14.9668 15.8154 14.6735C16.7646 14.0031 17.7129 13.3317 18.66 12.6584C19.197 12.2766 19.5886 11.7803 19.7934 11.1519C19.8649 10.9326 19.8924 10.699 19.9224 10.5557C19.9224 11.1032 19.9629 11.7379 19.9121 12.3653C19.8496 13.1388 19.4616 13.7767 18.8419 14.2359C17.8098 15.0009 16.7573 15.7388 15.7043 16.4753C15.3619 16.7146 14.9991 16.652 14.6637 16.4331C14.3197 16.2087 13.9784 15.9795 13.6438 15.7414C12.2576 14.7543 10.8746 13.7624 9.4893 12.7739C9.25197 12.6045 9.06454 12.4043 9.0223 12.1016C9.02332 11.6097 9.02507 11.1177 9.02381 10.6259C9.02369 10.5885 9.00193 10.5512 8.99023 10.5139C8.99023 10.467 8.99023 10.42 8.99023 10.373Z" fill="#FFE400"/>
<path d="M8.99027 14.3496C9.01212 14.3643 9.05134 14.3771 9.05317 14.3939C9.0835 14.6728 9.27016 14.8412 9.47696 14.9924C10.2729 15.574 11.0646 16.1614 11.8692 16.7309C12.7601 17.3612 13.6625 17.9752 14.5614 18.594C15.0765 18.9486 15.3622 18.9501 15.8766 18.5888C16.7888 17.9481 17.6954 17.2992 18.6071 16.6576C19.1505 16.275 19.5623 15.7896 19.7759 15.1569C19.8552 14.9219 19.8874 14.6711 19.973 14.4271C19.9495 15.1083 19.9698 15.7944 19.8906 16.469C19.8057 17.1917 19.4091 17.7819 18.8269 18.2116C17.8026 18.9673 16.7593 19.6976 15.7174 20.4293C15.3523 20.6856 14.9801 20.6095 14.6318 20.3767C14.1782 20.0734 13.7257 19.7681 13.2815 19.4513C12.0011 18.5385 10.7251 17.6195 9.44736 16.703C9.21899 16.5392 9.05569 16.3336 9.02032 16.0451C9.02191 15.5467 9.02409 15.0483 9.02353 14.5499C9.02348 14.5184 9.00185 14.4868 8.99023 14.4553C8.99027 14.42 8.99027 14.3848 8.99027 14.3496Z" fill="#FFE400"/>
<path d="M11.5518 10.2394C11.5814 10.2056 11.5967 10.1794 11.6193 10.1635C12.1719 9.77638 12.7146 9.37403 13.2812 9.00867C13.8676 8.63056 14.5152 8.40857 15.2235 8.40967C15.8839 8.41073 16.4828 8.62074 17.0259 8.98353C17.2883 9.15895 17.5424 9.35255 17.7753 9.5652C18.1519 9.90895 18.1908 10.5212 17.8912 10.9327C17.8244 11.0247 17.7546 11.0307 17.6668 10.9719C17.5448 10.8904 17.4237 10.8074 17.2995 10.7292C16.0463 9.94018 14.7929 9.94867 13.5396 10.7303C13.3406 10.8545 13.1434 10.982 12.9405 11.0998C12.8997 11.1235 12.8219 11.1328 12.7871 11.1097C12.396 10.8501 12.0099 10.5831 11.6231 10.317C11.6 10.3011 11.5839 10.2749 11.5518 10.2394Z" fill="#FFE400"/>
<g filter="url(#filter0_f_218_2)">
<g filter="url(#filter1_d_218_2)">
<path d="M11.5527 10.2394C11.5824 10.2056 11.5977 10.1794 11.6203 10.1635C12.1728 9.77638 12.7156 9.37403 13.2822 9.00867C13.8685 8.63056 14.5162 8.40857 15.2245 8.40967C15.8848 8.41073 16.4838 8.62074 17.0268 8.98353C17.2893 9.15895 17.5434 9.35255 17.7763 9.5652C18.1528 9.90895 18.1918 10.5212 17.8922 10.9327C17.8253 11.0247 17.7556 11.0307 17.6678 10.9719C17.5458 10.8904 17.4247 10.8074 17.3005 10.7292C16.0473 9.94018 14.7938 9.94867 13.5406 10.7303C13.3416 10.8545 13.1443 10.982 12.9415 11.0998C12.9007 11.1235 12.8228 11.1328 12.7881 11.1097C12.397 10.8501 12.0108 10.5831 11.6241 10.317C11.601 10.3011 11.5849 10.2749 11.5527 10.2394Z" fill="#975A01"/>
</g>
<path d="M8.99023 10.373C9.01309 10.3965 9.05313 10.4179 9.05605 10.4436C9.08447 10.6937 9.24011 10.8617 9.42921 10.996C11.1657 12.2299 12.9025 13.4632 14.6453 14.6881C15.0662 14.984 15.4 14.9668 15.8154 14.6735C16.7646 14.0031 17.7129 13.3317 18.66 12.6584C19.197 12.2766 19.5886 11.7803 19.7934 11.1519C19.8649 10.9326 19.8924 10.699 19.9224 10.5557C19.9224 11.1032 19.9629 11.7379 19.9121 12.3653C19.8496 13.1388 19.4616 13.7767 18.8419 14.2359C17.8098 15.0009 16.7573 15.7388 15.7043 16.4753C15.3619 16.7146 14.9991 16.652 14.6637 16.4331C14.3197 16.2087 13.9784 15.9795 13.6438 15.7414C12.2576 14.7543 10.8746 13.7624 9.4893 12.7739C9.25197 12.6045 9.06454 12.4043 9.0223 12.1016C9.02332 11.6097 9.02507 11.1177 9.02381 10.6259C9.02369 10.5885 9.00193 10.5512 8.99023 10.5139C8.99023 10.467 8.99023 10.42 8.99023 10.373Z" fill="#975A01"/>
<path d="M8.99027 14.3496C9.01212 14.3643 9.05134 14.3771 9.05317 14.3939C9.0835 14.6728 9.27016 14.8412 9.47696 14.9924C10.2729 15.574 11.0646 16.1614 11.8692 16.7309C12.7601 17.3612 13.6625 17.9752 14.5614 18.594C15.0765 18.9486 15.3622 18.9501 15.8766 18.5888C16.7888 17.9481 17.6954 17.2992 18.6071 16.6576C19.1505 16.275 19.5623 15.7896 19.7759 15.1569C19.8552 14.9219 19.8874 14.6711 19.973 14.4271C19.9495 15.1083 19.9698 15.7944 19.8906 16.469C19.8057 17.1917 19.4091 17.7819 18.8269 18.2116C17.8026 18.9673 16.7593 19.6976 15.7174 20.4293C15.3523 20.6856 14.9801 20.6095 14.6318 20.3767C14.1782 20.0734 13.7257 19.7681 13.2815 19.4513C12.0011 18.5385 10.7251 17.6195 9.44736 16.703C9.21899 16.5392 9.05569 16.3336 9.02032 16.0451C9.02191 15.5467 9.02409 15.0483 9.02353 14.5499C9.02348 14.5184 9.00185 14.4868 8.99023 14.4553C8.99027 14.42 8.99027 14.3848 8.99027 14.3496Z" fill="#975A01"/>
</g>
<g filter="url(#filter2_f_218_2)">
<g filter="url(#filter3_d_218_2)">
<path d="M11.5527 10.2394C11.5824 10.2056 11.5977 10.1794 11.6203 10.1635C12.1728 9.77638 12.7156 9.37403 13.2822 9.00867C13.8685 8.63056 14.5162 8.40857 15.2245 8.40967C15.8848 8.41073 16.4838 8.62074 17.0268 8.98353C17.2893 9.15895 17.5434 9.35255 17.7763 9.5652C18.1528 9.90895 18.1918 10.5212 17.8922 10.9327C17.8253 11.0247 17.7556 11.0307 17.6678 10.9719C17.5458 10.8904 17.4247 10.8074 17.3005 10.7292C16.0473 9.94018 14.7938 9.94867 13.5406 10.7303C13.3416 10.8545 13.1443 10.982 12.9415 11.0998C12.9007 11.1235 12.8228 11.1328 12.7881 11.1097C12.397 10.8501 12.0108 10.5831 11.6241 10.317C11.601 10.3011 11.5849 10.2749 11.5527 10.2394Z" fill="white"/>
</g>
<path d="M8.99023 10.373C9.01309 10.3965 9.05313 10.4179 9.05605 10.4436C9.08447 10.6937 9.24011 10.8617 9.42921 10.996C11.1657 12.2299 12.9025 13.4632 14.6453 14.6881C15.0662 14.984 15.4 14.9668 15.8154 14.6735C16.7646 14.0031 17.7129 13.3317 18.66 12.6584C19.197 12.2766 19.5886 11.7803 19.7934 11.1519C19.8649 10.9326 19.8924 10.699 19.9224 10.5557C19.9224 11.1032 19.9629 11.7379 19.9121 12.3653C19.8496 13.1388 19.4616 13.7767 18.8419 14.2359C17.8098 15.0009 16.7573 15.7388 15.7043 16.4753C15.3619 16.7146 14.9991 16.652 14.6637 16.4331C14.3197 16.2087 13.9784 15.9795 13.6438 15.7414C12.2576 14.7543 10.8746 13.7624 9.4893 12.7739C9.25197 12.6045 9.06454 12.4043 9.0223 12.1016C9.02332 11.6097 9.02507 11.1177 9.02381 10.6259C9.02369 10.5885 9.00193 10.5512 8.99023 10.5139C8.99023 10.467 8.99023 10.42 8.99023 10.373Z" fill="white"/>
<path d="M8.99027 14.3496C9.01212 14.3643 9.05134 14.3771 9.05317 14.3939C9.0835 14.6728 9.27016 14.8412 9.47696 14.9924C10.2729 15.574 11.0646 16.1614 11.8692 16.7309C12.7601 17.3612 13.6625 17.9752 14.5614 18.594C15.0765 18.9486 15.3622 18.9501 15.8766 18.5888C16.7888 17.9481 17.6954 17.2992 18.6071 16.6576C19.1505 16.275 19.5623 15.7896 19.7759 15.1569C19.8552 14.9219 19.8874 14.6711 19.973 14.4271C19.9495 15.1083 19.9698 15.7944 19.8906 16.469C19.8057 17.1917 19.4091 17.7819 18.8269 18.2116C17.8026 18.9673 16.7593 19.6976 15.7174 20.4293C15.3523 20.6856 14.9801 20.6095 14.6318 20.3767C14.1782 20.0734 13.7257 19.7681 13.2815 19.4513C12.0011 18.5385 10.7251 17.6195 9.44736 16.703C9.21899 16.5392 9.05569 16.3336 9.02032 16.0451C9.02191 15.5467 9.02409 15.0483 9.02353 14.5499C9.02348 14.5184 9.00185 14.4868 8.99023 14.4553C8.99027 14.42 8.99027 14.3848 8.99027 14.3496Z" fill="white"/>
</g>
<g filter="url(#filter4_d_218_2)">
<path d="M8.99023 10.373C9.01309 10.3965 9.05313 10.4179 9.05605 10.4436C9.08447 10.6937 9.24011 10.8617 9.42921 10.996C11.1657 12.2299 12.9025 13.4632 14.6453 14.6881C15.0662 14.984 15.4 14.9668 15.8154 14.6735C16.7646 14.0031 17.7129 13.3317 18.66 12.6584C19.197 12.2766 19.5886 11.7803 19.7934 11.1519C19.8649 10.9326 19.8924 10.699 19.9224 10.5557C19.9224 11.1032 19.9629 11.7379 19.9121 12.3653C19.8496 13.1388 19.4616 13.7767 18.8419 14.2359C17.8098 15.0009 16.7573 15.7388 15.7043 16.4753C15.3619 16.7146 14.9991 16.652 14.6637 16.4331C14.3197 16.2087 13.9784 15.9795 13.6438 15.7414C12.2576 14.7543 10.8746 13.7624 9.4893 12.7739C9.25197 12.6045 9.06454 12.4043 9.0223 12.1016C9.02332 11.6097 9.02507 11.1177 9.02381 10.6259C9.02369 10.5885 9.00193 10.5512 8.99023 10.5139C8.99023 10.467 8.99023 10.42 8.99023 10.373Z" fill="#FFFCE1"/>
<path d="M8.99027 14.3496C9.01212 14.3643 9.05134 14.3771 9.05317 14.3939C9.0835 14.6728 9.27016 14.8412 9.47696 14.9924C10.2729 15.574 11.0646 16.1614 11.8692 16.7309C12.7601 17.3612 13.6625 17.9752 14.5614 18.594C15.0765 18.9486 15.3622 18.9501 15.8766 18.5888C16.7888 17.9481 17.6954 17.2992 18.6071 16.6576C19.1505 16.275 19.5623 15.7896 19.7759 15.1569C19.8552 14.9219 19.8874 14.6711 19.973 14.4271C19.9495 15.1083 19.9698 15.7944 19.8906 16.469C19.8057 17.1917 19.4091 17.7819 18.8269 18.2116C17.8026 18.9673 16.7593 19.6976 15.7174 20.4293C15.3523 20.6856 14.9801 20.6095 14.6318 20.3767C14.1782 20.0734 13.7257 19.7681 13.2815 19.4513C12.0011 18.5385 10.7251 17.6195 9.44736 16.703C9.21899 16.5392 9.05569 16.3336 9.02032 16.0451C9.02191 15.5467 9.02409 15.0483 9.02353 14.5499C9.02348 14.5184 9.00185 14.4868 8.99023 14.4553C8.99027 14.42 8.99027 14.3848 8.99027 14.3496Z" fill="#FFFCE1"/>
<path d="M11.5527 10.2394C11.5824 10.2056 11.5977 10.1794 11.6203 10.1635C12.1728 9.77638 12.7156 9.37403 13.2822 9.00867C13.8685 8.63056 14.5162 8.40857 15.2245 8.40967C15.8848 8.41073 16.4838 8.62074 17.0268 8.98353C17.2893 9.15895 17.5434 9.35255 17.7763 9.5652C18.1528 9.90895 18.1918 10.5212 17.8922 10.9327C17.8253 11.0247 17.7556 11.0307 17.6678 10.9719C17.5458 10.8904 17.4247 10.8074 17.3005 10.7292C16.0473 9.94018 14.7938 9.94867 13.5406 10.7303C13.3416 10.8545 13.1443 10.982 12.9415 11.0998C12.9007 11.1235 12.8228 11.1328 12.7881 11.1097C12.397 10.8501 12.0108 10.5831 11.6241 10.317C11.601 10.3011 11.5849 10.2749 11.5527 10.2394Z" fill="#FFFCE1"/>
</g>
</g>
</g>
<defs>
<filter id="filter0_f_218_2" x="7.99023" y="7.40967" width="12.9824" height="14.1797" filterUnits="userSpaceOnUse" color-interpolation-filters="sRGB">
<feFlood flood-opacity="0" result="BackgroundImageFix"/>
<feBlend mode="normal" in="SourceGraphic" in2="BackgroundImageFix" result="shape"/>
<feGaussianBlur stdDeviation="0.5" result="effect1_foregroundBlur_218_2"/>
</filter>
<filter id="filter1_d_218_2" x="11.5527" y="8.40967" width="6.53809" height="2.91338" filterUnits="userSpaceOnUse" color-interpolation-filters="sRGB">
<feFlood flood-opacity="0" result="BackgroundImageFix"/>
<feColorMatrix in="SourceAlpha" type="matrix" values="0 0 0 0 0 0 0 0 0 0 0 0 0 0 0 0 0 0 127 0" result="hardAlpha"/>
<feOffset dy="0.2"/>
<feComposite in2="hardAlpha" operator="out"/>
<feColorMatrix type="matrix" values="0 0 0 0 0.911556 0 0 0 0 0.32816 0 0 0 0 0 0 0 0 0.11 0"/>
<feBlend mode="normal" in2="BackgroundImageFix" result="effect1_dropShadow_218_2"/>
<feBlend mode="normal" in="SourceGraphic" in2="effect1_dropShadow_218_2" result="shape"/>
</filter>
<filter id="filter2_f_218_2" x="6.99023" y="6.40967" width="14.9824" height="16.1797" filterUnits="userSpaceOnUse" color-interpolation-filters="sRGB">
<feFlood flood-opacity="0" result="BackgroundImageFix"/>
<feBlend mode="normal" in="SourceGraphic" in2="BackgroundImageFix" result="shape"/>
<feGaussianBlur stdDeviation="1" result="effect1_foregroundBlur_218_2"/>
</filter>
<filter id="filter3_d_218_2" x="11.5527" y="8.40967" width="6.53809" height="2.91338" filterUnits="userSpaceOnUse" color-interpolation-filters="sRGB">
<feFlood flood-opacity="0" result="BackgroundImageFix"/>
<feColorMatrix in="SourceAlpha" type="matrix" values="0 0 0 0 0 0 0 0 0 0 0 0 0 0 0 0 0 0 127 0" result="hardAlpha"/>
<feOffset dy="0.2"/>
<feComposite in2="hardAlpha" operator="out"/>
<feColorMatrix type="matrix" values="0 0 0 0 0.911556 0 0 0 0 0.32816 0 0 0 0 0 0 0 0 0.11 0"/>
<feBlend mode="normal" in2="BackgroundImageFix" result="effect1_dropShadow_218_2"/>
<feBlend mode="normal" in="SourceGraphic" in2="effect1_dropShadow_218_2" result="shape"/>
</filter>
<filter id="filter4_d_218_2" x="8.79023" y="8.40967" width="11.1824" height="12.1797" filterUnits="userSpaceOnUse" color-interpolation-filters="sRGB">
<feFlood flood-opacity="0" result="BackgroundImageFix"/>
<feColorMatrix in="SourceAlpha" type="matrix" values="0 0 0 0 0 0 0 0 0 0 0 0 0 0 0 0 0 0 127 0" result="hardAlpha"/>
<feOffset dx="-0.2"/>
<feComposite in2="hardAlpha" operator="out"/>
<feColorMatrix type="matrix" values="0 0 0 0 0.107503 0 0 0 0 0.0515049 0 0 0 0 0.0275057 0 0 0 0.55 0"/>
<feBlend mode="normal" in2="BackgroundImageFix" result="effect1_dropShadow_218_2"/>
<feBlend mode="normal" in="SourceGraphic" in2="effect1_dropShadow_218_2" result="shape"/>
</filter>
<radialGradient id="paint0_radial_218_2" cx="0" cy="0" r="1" gradientUnits="userSpaceOnUse" gradientTransform="translate(14.3678 1.56482) scale(27.3886)">
<stop stop-color="#FDFB45"/>
<stop offset="0.41557" stop-color="#BB6000"/>
<stop offset="0.73404" stop-color="#FDFB45"/>
<stop offset="0.99968" stop-color="#BB6000"/>
</radialGradient>
<radialGradient id="paint1_radial_218_2" cx="0" cy="0" r="1" gradientUnits="userSpaceOnUse" gradientTransform="translate(14.374 2.2112) scale(26.0192)">
<stop stop-color="#FDFB45"/>
<stop offset="1" stop-color="#FF9600"/>
</radialGradient>
<radialGradient id="paint2_radial_218_2" cx="0" cy="0" r="1" gradientUnits="userSpaceOnUse" gradientTransform="translate(14.407 5.44501) scale(19.172)">
<stop stop-color="#E18400"/>
<stop offset="0.17705" stop-color="#E18601"/>
<stop offset="0.24083" stop-color="#E38D05"/>
<stop offset="0.28629" stop-color="#E6980C"/>
<stop offset="0.32306" stop-color="#EAA916"/>
<stop offset="0.35452" stop-color="#EFBF22"/>
<stop offset="0.38188" stop-color="#F5DA32"/>
<stop offset="0.40654" stop-color="#FDF944"/>
<stop offset="0.40767" stop-color="#FDFB45"/>
<stop offset="0.49512" stop-color="#FDF943"/>
<stop offset="0.53105" stop-color="#FDF23D"/>
<stop offset="0.55752" stop-color="#FEE633"/>
<stop offset="0.57936" stop-color="#FED425"/>
<stop offset="0.59812" stop-color="#FEBE12"/>
<stop offset="0.61159" stop-color="#FFA800"/>
<stop offset="0.93384" stop-color="#FFE300"/>
<stop offset="1" stop-color="#FFA800"/>
</radialGradient>
<radialGradient id="paint3_radial_218_2" cx="0" cy="0" r="1" gradientUnits="userSpaceOnUse" gradientTransform="translate(14.4134 5.96296) scale(18.0764 18.0764)">
<stop stop-color="#FFE300"/>
<stop offset="1" stop-color="#FFA800"/>
</radialGradient>
<radialGradient id="paint4_radial_218_2" cx="0" cy="0" r="1" gradientUnits="userSpaceOnUse" gradientTransform="translate(14.4134 5.96296) scale(18.0764 18.0764)">
<stop stop-color="#FFE300"/>
<stop offset="1" stop-color="#FFA800"/>
</radialGradient>
<radialGradient id="paint5_radial_218_2" cx="0" cy="0" r="1" gradientUnits="userSpaceOnUse" gradientTransform="translate(14.4134 5.96296) scale(18.0764 18.0764)">
<stop stop-color="#FFE300"/>
<stop offset="0.09577" stop-color="#FFD900"/>
<stop offset="0.47359" stop-color="#FFB900"/>
<stop offset="0.78853" stop-color="#FFA400"/>
<stop offset="1" stop-color="#FF9D00"/>
</radialGradient>
<clipPath id="clip0_218_2">
<rect width="29" height="29" fill="white"/>
</clipPath>
</defs>
</svg>
