<svg width="32" height="33" viewBox="0 0 32 33" fill="none" xmlns="http://www.w3.org/2000/svg">
<path d="M14.667 6.7726H24.4003C25.8938 6.7726 26.6405 6.7726 27.211 7.06325C27.7127 7.31892 28.1207 7.72686 28.3763 8.22863C28.667 8.79906 28.667 9.5458 28.667 11.0393V12.7726C28.667 14.0151 28.667 14.6364 28.464 15.1264C28.1934 15.7798 27.6742 16.299 27.0208 16.5696C26.5308 16.7726 25.9095 16.7726 24.667 16.7726M17.3337 26.7726H7.60033C6.10685 26.7726 5.36012 26.7726 4.78968 26.482C4.28792 26.2263 3.87997 25.8183 3.62431 25.3166C3.33366 24.7461 3.33366 23.9994 3.33366 22.5059V20.7726C3.33366 19.5301 3.33366 18.9088 3.53665 18.4188C3.8073 17.7654 4.32643 17.2462 4.97984 16.9756C5.46989 16.7726 6.09115 16.7726 7.33366 16.7726M13.7337 20.1059H18.267C18.6404 20.1059 18.827 20.1059 18.9697 20.0333C19.0951 19.9694 19.1971 19.8674 19.261 19.7419C19.3337 19.5993 19.3337 19.4126 19.3337 19.0393V14.5059C19.3337 14.1326 19.3337 13.9459 19.261 13.8033C19.1971 13.6778 19.0951 13.5758 18.9697 13.5119C18.827 13.4393 18.6404 13.4393 18.267 13.4393H13.7337C13.3603 13.4393 13.1736 13.4393 13.031 13.5119C12.9056 13.5758 12.8036 13.6778 12.7397 13.8033C12.667 13.9459 12.667 14.1326 12.667 14.5059V19.0393C12.667 19.4126 12.667 19.5993 12.7397 19.7419C12.8036 19.8674 12.9056 19.9694 13.031 20.0333C13.1736 20.1059 13.3603 20.1059 13.7337 20.1059ZM23.7337 30.1059H28.267C28.6404 30.1059 28.827 30.1059 28.9697 30.0333C29.0951 29.9694 29.1971 29.8674 29.261 29.7419C29.3337 29.5993 29.3337 29.4126 29.3337 29.0393V24.5059C29.3337 24.1326 29.3337 23.9459 29.261 23.8033C29.1971 23.6778 29.0951 23.5758 28.9697 23.5119C28.827 23.4393 28.6404 23.4393 28.267 23.4393H23.7337C23.3603 23.4393 23.1736 23.4393 23.031 23.5119C22.9056 23.5758 22.8036 23.6778 22.7397 23.8033C22.667 23.9459 22.667 24.1326 22.667 24.5059V29.0393C22.667 29.4126 22.667 29.5993 22.7397 29.7419C22.8036 29.8674 22.9056 29.9694 23.031 30.0333C23.1736 30.1059 23.3603 30.1059 23.7337 30.1059ZM3.73366 10.1059H8.26699C8.64036 10.1059 8.82705 10.1059 8.96965 10.0333C9.09509 9.96936 9.19708 9.86737 9.261 9.74193C9.33366 9.59932 9.33366 9.41264 9.33366 9.03927V4.50594C9.33366 4.13257 9.33366 3.94588 9.261 3.80328C9.19708 3.67783 9.09509 3.57585 8.96965 3.51193C8.82705 3.43927 8.64036 3.43927 8.26699 3.43927H3.73366C3.36029 3.43927 3.17361 3.43927 3.031 3.51193C2.90556 3.57585 2.80357 3.67783 2.73965 3.80328C2.66699 3.94588 2.66699 4.13257 2.66699 4.50594V9.03927C2.66699 9.41264 2.66699 9.59932 2.73965 9.74193C2.80357 9.86737 2.90556 9.96936 3.031 10.0333C3.17361 10.1059 3.36029 10.1059 3.73366 10.1059Z" stroke="white" stroke-width="2" stroke-linecap="round" stroke-linejoin="round"/>
</svg>
