<svg width="138" height="169" viewBox="0 0 138 169" fill="none" xmlns="http://www.w3.org/2000/svg">
<mask id="mask0_1912_276" style="mask-type:alpha" maskUnits="userSpaceOnUse" x="0" y="0" width="138" height="169">
<rect width="138" height="168.564" fill="#D9D9D9"/>
</mask>
<g mask="url(#mask0_1912_276)">
<path fill-rule="evenodd" clip-rule="evenodd" d="M-52.7067 45.0614V24.7045H-32.3498V45.0614H-52.7067ZM-53.3634 45.7181V66.0749H-59.2734V66.7316H-53.3634V87.0884H-59.2734V87.7451H-53.3634V108.102H-59.2734V108.759H-53.3634V129.115H-59.2734V129.772H-53.3634V135.025H-52.7067V129.772H-32.3498V135.025H-31.6932V129.772H-11.3363V135.025H-10.6796V129.772H9.67723V135.025H10.3339V129.772H30.6908V135.025H31.3474V129.772H51.7043V135.025H52.361V129.772H72.7178V135.025H73.3745V129.772H93.7314V135.025H94.388V129.772H100.955V129.115H94.388V108.759H100.955V108.102H94.388V87.7451H100.955V87.0884H94.388V66.7316H100.955V66.0749H94.388V45.7181H100.955V45.0614H94.388V24.7045H100.955V24.0479H94.388V19.4512H93.7314V24.0479H73.3745V19.4512H72.7178V24.0479H52.361V19.4512H51.7043V24.0479H31.3474V19.4512H30.6908V24.0479H10.3339V19.4512H9.67723V24.0479H-10.6796V19.4512H-11.3363V24.0479H-31.6932V19.4512H-32.3498V24.0479H-52.7067V19.4512H-53.3634V24.0479H-59.2734V24.7045H-53.3634V45.0614H-59.2734V45.7181H-53.3634ZM93.7314 129.115V108.759H73.3745V129.115H93.7314ZM72.7178 129.115V108.759H52.361V129.115H72.7178ZM51.7043 129.115V108.759H31.3474V129.115H51.7043ZM30.6908 129.115V108.759H10.3339V129.115H30.6908ZM9.67723 129.115V108.759H-10.6796V129.115H9.67723ZM-11.3363 129.115V108.759H-31.6932V129.115H-11.3363ZM-32.3498 129.115V108.759H-52.7067V129.115H-32.3498ZM-32.3498 108.102H-52.7067V87.7451H-32.3498V108.102ZM-11.3363 108.102H-31.6932V87.7451H-11.3363V108.102ZM9.67723 108.102H-10.6796V87.7451H9.67723V108.102ZM30.6908 108.102H10.3339V87.7451H30.6908V108.102ZM51.7043 108.102H31.3474V87.7451H51.7043V108.102ZM72.7178 108.102H52.361V87.7451H72.7178V108.102ZM93.7314 108.102H73.3745V87.7451H93.7314V108.102ZM93.7314 87.0884V66.7316H73.3745V87.0884H93.7314ZM72.7178 87.0884V66.7316H52.361V87.0884H72.7178ZM51.7043 87.0884V66.7316H31.3474V87.0884H51.7043ZM30.6908 87.0884V66.7316H10.3339V87.0884H30.6908ZM9.67723 87.0884V66.7316H-10.6796V87.0884H9.67723ZM-11.3363 87.0884V66.7316H-31.6932V87.0884H-11.3363ZM-32.3498 87.0884V66.7316H-52.7067V87.0884H-32.3498ZM-32.3498 66.0749H-52.7067V45.7181H-32.3498V66.0749ZM-11.3363 66.0749H-31.6932V45.7181H-11.3363V66.0749ZM9.67723 66.0749H-10.6796V55.8965V45.7181H9.67723V66.0749ZM30.6908 66.0749H10.3339V45.7181H30.6908V66.0749ZM51.7043 66.0749H31.3474V45.7181H51.7043V66.0749ZM72.7178 66.0749H52.361V45.7181H72.7178V66.0749ZM93.7314 66.0749H73.3745V45.7181H93.7314V66.0749ZM93.7314 45.0614V24.7045H73.3745V45.0614H93.7314ZM72.7178 45.0614V24.7045H52.361V45.0614H72.7178ZM51.7043 45.0614V24.7045H31.3474V45.0614H51.7043ZM30.6908 45.0614V24.7045H10.3339V45.0614H30.6908ZM9.67723 45.0614V24.7045H-10.6796V45.0614H9.67723ZM-11.3363 45.0614V24.7045H-31.6932V45.0614H-11.3363Z" fill="url(#paint0_radial_1912_276)"/>
<path d="M24.043 45.6523H36.9857H49.9285" stroke="url(#paint1_linear_1912_276)" stroke-linecap="round"/>
<path d="M52.1658 47.9292C53.6164 47.9292 54.7925 46.7532 54.7925 45.3025C54.7925 43.8518 53.6164 42.6758 52.1658 42.6758C50.7151 42.6758 49.5391 43.8518 49.5391 45.3025C49.5391 46.7532 50.7151 47.9292 52.1658 47.9292Z" fill="#3DDCA3"/>
<path d="M31.252 87.4316H52.2655V108.445" stroke="url(#paint2_linear_1912_276)" stroke-linecap="round"/>
<path d="M73.5314 65.9642H94.5449V48.7031" stroke="url(#paint3_linear_1912_276)" stroke-linecap="round"/>
<path d="M73.2811 108.445H52.2676" stroke="url(#paint4_linear_1912_276)" stroke-linecap="round"/>
<path d="M94.2655 45.3906H73.252" stroke="url(#paint5_linear_1912_276)" stroke-linecap="round"/>
<path d="M10.2049 87.4277H-31.8223" stroke="url(#paint6_linear_1912_276)" stroke-linecap="round"/>
<path d="M52.5857 110.732C54.0364 110.732 55.2124 109.556 55.2124 108.105C55.2124 106.655 54.0364 105.479 52.5857 105.479C51.135 105.479 49.959 106.655 49.959 108.105C49.959 109.556 51.135 110.732 52.5857 110.732Z" fill="#3DDCA3"/>
<path d="M94.6286 47.7104C96.0793 47.7104 97.2553 46.5344 97.2553 45.0837C97.2553 43.633 96.0793 42.457 94.6286 42.457C93.178 42.457 92.002 43.633 92.002 45.0837C92.002 46.5344 93.178 47.7104 94.6286 47.7104Z" fill="#3DDCA3"/>
</g>
<defs>
<radialGradient id="paint0_radial_1912_276" cx="0" cy="0" r="1" gradientUnits="userSpaceOnUse" gradientTransform="translate(20.8403 77.2383) rotate(90) scale(57.7872 80.1138)">
<stop stop-color="#636363" stop-opacity="0.82"/>
<stop offset="1" stop-color="#8B8B8B" stop-opacity="0"/>
</radialGradient>
<linearGradient id="paint1_linear_1912_276" x1="51.0604" y1="42.6523" x2="27.4201" y2="42.6523" gradientUnits="userSpaceOnUse">
<stop stop-color="#3DDCA3"/>
<stop offset="1" stop-color="#15D484" stop-opacity="0"/>
</linearGradient>
<linearGradient id="paint2_linear_1912_276" x1="52.5939" y1="105.454" x2="50.9745" y2="84.5981" gradientUnits="userSpaceOnUse">
<stop stop-color="#3DDCA3"/>
<stop offset="1" stop-color="#15D484" stop-opacity="0"/>
</linearGradient>
<linearGradient id="paint3_linear_1912_276" x1="94.2166" y1="50.8306" x2="81.5665" y2="68.0603" gradientUnits="userSpaceOnUse">
<stop stop-color="#3DDCA3"/>
<stop offset="1" stop-color="#3DDC99" stop-opacity="0"/>
</linearGradient>
<linearGradient id="paint4_linear_1912_276" x1="nan" y1="nan" x2="nan" y2="nan" gradientUnits="userSpaceOnUse">
<stop stop-color="#5E15D4"/>
<stop offset="1" stop-color="#5E15D4" stop-opacity="0"/>
</linearGradient>
<linearGradient id="paint5_linear_1912_276" x1="nan" y1="nan" x2="nan" y2="nan" gradientUnits="userSpaceOnUse">
<stop stop-color="#5E15D4"/>
<stop offset="1" stop-color="#5E15D4" stop-opacity="0"/>
</linearGradient>
<linearGradient id="paint6_linear_1912_276" x1="nan" y1="nan" x2="nan" y2="nan" gradientUnits="userSpaceOnUse">
<stop stop-color="#5E15D4"/>
<stop offset="1" stop-color="#5E15D4" stop-opacity="0"/>
</linearGradient>
</defs>
</svg>
