<svg width="92" height="32" viewBox="0 0 92 32" fill="none" xmlns="http://www.w3.org/2000/svg">
<g clip-path="url(#clip0_925_609)">
<mask id="mask0_925_609" style="mask-type:luminance" maskUnits="userSpaceOnUse" x="0" y="0" width="92" height="32">
<path d="M92 0H0V32H92V0Z" fill="white"/>
</mask>
<g mask="url(#mask0_925_609)">
<path d="M0.00032046 4C0.00032046 1.79 1.75032 0 3.90032 0H88.1003C90.2503 0 92.0003 1.79 92.0003 4V28C92.0003 30.21 90.2503 32 88.1003 32H3.90032C3.38159 31.9935 2.86922 31.8848 2.39248 31.6803C1.91573 31.4757 1.48396 31.1793 1.1218 30.8078C0.759643 30.4364 0.474202 29.9972 0.281777 29.5155C0.089352 29.0337 -0.00628734 28.5187 0.00032046 28V4Z" fill="#1374EF"/>
<path fill-rule="evenodd" clip-rule="evenodd" d="M29 32V0H30V32H29Z" fill="#0E5EBF"/>
</g>
<path d="M84.5832 19.9989H83.0832V14.3829L81.3672 15.2349V13.7349L83.6112 12.6309H84.5832V19.9989Z" fill="white"/>
<path d="M77.7712 20.1197C77.3392 20.1197 76.9432 20.0277 76.5832 19.8437C76.2232 19.6597 75.9152 19.3997 75.6592 19.0637C75.4112 18.7277 75.2152 18.3277 75.0712 17.8637C74.9352 17.3917 74.8672 16.8757 74.8672 16.3157C74.8672 15.7557 74.9352 15.2437 75.0712 14.7797C75.2152 14.3077 75.4112 13.9037 75.6592 13.5677C75.9152 13.2317 76.2232 12.9717 76.5832 12.7877C76.9432 12.6037 77.3392 12.5117 77.7712 12.5117C78.1952 12.5117 78.5872 12.6037 78.9472 12.7877C79.3072 12.9717 79.6152 13.2317 79.8712 13.5677C80.1272 13.9037 80.3232 14.3077 80.4592 14.7797C80.5952 15.2437 80.6632 15.7557 80.6632 16.3157C80.6632 16.8757 80.5952 17.3917 80.4592 17.8637C80.3232 18.3277 80.1272 18.7277 79.8712 19.0637C79.6152 19.3997 79.3072 19.6597 78.9472 19.8437C78.5872 20.0277 78.1952 20.1197 77.7712 20.1197ZM77.7712 13.8797C77.5232 13.8797 77.3072 13.9437 77.1232 14.0717C76.9472 14.1917 76.7992 14.3637 76.6792 14.5877C76.5672 14.8037 76.4832 15.0597 76.4272 15.3557C76.3792 15.6517 76.3552 15.9717 76.3552 16.3157C76.3552 16.6597 76.3792 16.9797 76.4272 17.2757C76.4832 17.5717 76.5672 17.8317 76.6792 18.0557C76.7992 18.2717 76.9472 18.4437 77.1232 18.5717C77.3072 18.6917 77.5232 18.7517 77.7712 18.7517C78.0112 18.7517 78.2192 18.6917 78.3952 18.5717C78.5792 18.4437 78.7272 18.2717 78.8392 18.0557C78.9512 17.8317 79.0312 17.5717 79.0792 17.2757C79.1352 16.9797 79.1632 16.6597 79.1632 16.3157C79.1632 15.9717 79.1352 15.6517 79.0792 15.3557C79.0312 15.0597 78.9512 14.8037 78.8392 14.5877C78.7272 14.3637 78.5792 14.1917 78.3952 14.0717C78.2192 13.9437 78.0112 13.8797 77.7712 13.8797Z" fill="white"/>
<path d="M73.6379 19.9989H72.1379V14.3829L70.4219 15.2349V13.7349L72.6659 12.6309H73.6379V19.9989Z" fill="white"/>
<path d="M69.7794 17.3236C69.7794 17.7316 69.7154 18.1076 69.5874 18.4516C69.4594 18.7956 69.2794 19.0916 69.0474 19.3396C68.8234 19.5876 68.5474 19.7796 68.2194 19.9156C67.8994 20.0516 67.5434 20.1196 67.1514 20.1196C66.7594 20.1196 66.3994 20.0516 66.0714 19.9156C65.7514 19.7796 65.4754 19.5876 65.2434 19.3396C65.0194 19.0916 64.8434 18.7956 64.7154 18.4516C64.5874 18.1076 64.5234 17.7316 64.5234 17.3236C64.5234 16.9076 64.5874 16.5316 64.7154 16.1956C64.8434 15.8516 65.0194 15.5556 65.2434 15.3076C65.4754 15.0516 65.7514 14.8556 66.0714 14.7196C66.3994 14.5836 66.7594 14.5156 67.1514 14.5156C67.5434 14.5156 67.8994 14.5836 68.2194 14.7196C68.5474 14.8556 68.8234 15.0516 69.0474 15.3076C69.2794 15.5556 69.4594 15.8516 69.5874 16.1956C69.7154 16.5316 69.7794 16.9076 69.7794 17.3236ZM68.3034 17.3236C68.3034 17.0996 68.2794 16.8916 68.2314 16.6996C68.1834 16.5076 68.1074 16.3436 68.0034 16.2076C67.9074 16.0716 67.7874 15.9676 67.6434 15.8956C67.4994 15.8156 67.3354 15.7756 67.1514 15.7756C66.9674 15.7756 66.8034 15.8156 66.6594 15.8956C66.5154 15.9676 66.3914 16.0716 66.2874 16.2076C66.1914 16.3436 66.1194 16.5076 66.0714 16.6996C66.0234 16.8916 65.9994 17.0996 65.9994 17.3236C65.9994 17.5476 66.0234 17.7556 66.0714 17.9476C66.1194 18.1316 66.1914 18.2916 66.2874 18.4276C66.3914 18.5636 66.5154 18.6716 66.6594 18.7516C66.8034 18.8316 66.9674 18.8716 67.1514 18.8716C67.3354 18.8716 67.4994 18.8316 67.6434 18.7516C67.7874 18.6716 67.9074 18.5636 68.0034 18.4276C68.1074 18.2916 68.1834 18.1316 68.2314 17.9476C68.2794 17.7556 68.3034 17.5476 68.3034 17.3236Z" fill="white"/>
<path d="M60.9254 15.8356H60.1094V14.6356H60.9254V13.1836H62.4014V14.6356H63.5774V15.8356H62.4014V18.1876C62.4014 18.4036 62.4534 18.5596 62.5574 18.6556C62.6694 18.7516 62.8214 18.7996 63.0134 18.7996C63.1254 18.7996 63.2374 18.7836 63.3494 18.7516C63.4694 18.7196 63.5734 18.6796 63.6614 18.6316V19.9396C63.5574 19.9956 63.4214 20.0356 63.2534 20.0596C63.0854 20.0916 62.9014 20.1076 62.7014 20.1076C62.1574 20.1076 61.7254 19.9716 61.4054 19.6996C61.0854 19.4196 60.9254 18.9796 60.9254 18.3796V15.8356Z" fill="white"/>
<path d="M55.738 21.9796H54.25V14.6356H55.738V15.0916C55.794 15.0196 55.87 14.9476 55.966 14.8756C56.062 14.8036 56.166 14.7436 56.278 14.6956C56.398 14.6396 56.526 14.5956 56.662 14.5636C56.798 14.5316 56.938 14.5156 57.082 14.5156C57.474 14.5156 57.818 14.5916 58.114 14.7436C58.418 14.8956 58.674 15.0996 58.882 15.3556C59.098 15.6116 59.258 15.9116 59.362 16.2556C59.474 16.5916 59.53 16.9476 59.53 17.3236C59.53 17.6996 59.474 18.0596 59.362 18.4036C59.258 18.7396 59.098 19.0356 58.882 19.2916C58.674 19.5396 58.418 19.7396 58.114 19.8916C57.818 20.0436 57.474 20.1196 57.082 20.1196C56.938 20.1196 56.798 20.1036 56.662 20.0716C56.526 20.0396 56.398 19.9996 56.278 19.9516C56.166 19.8956 56.062 19.8356 55.966 19.7716C55.87 19.6996 55.794 19.6276 55.738 19.5556V21.9796ZM55.738 18.1996C55.826 18.3836 55.962 18.5356 56.146 18.6556C56.33 18.7676 56.534 18.8236 56.758 18.8236C56.958 18.8236 57.138 18.7876 57.298 18.7156C57.458 18.6356 57.59 18.5316 57.694 18.4036C57.806 18.2676 57.89 18.1076 57.946 17.9236C58.01 17.7396 58.042 17.5396 58.042 17.3236C58.042 17.1076 58.01 16.9076 57.946 16.7236C57.89 16.5396 57.806 16.3836 57.694 16.2556C57.59 16.1196 57.458 16.0116 57.298 15.9316C57.138 15.8516 56.958 15.8116 56.758 15.8116C56.526 15.8116 56.318 15.8716 56.134 15.9916C55.958 16.1036 55.826 16.2516 55.738 16.4356V18.1996Z" fill="white"/>
<path d="M49.0611 21.9788L49.8411 20.0228L47.7891 14.6348H49.3611L50.5971 18.1988L51.8091 14.6348H53.3211L50.5251 21.9788H49.0611Z" fill="white"/>
<path d="M47.2051 16.0996C47.1011 16.0356 46.9851 15.9916 46.8571 15.9676C46.7291 15.9356 46.5971 15.9196 46.4611 15.9196C46.2131 15.9196 45.9931 15.9836 45.8011 16.1116C45.6171 16.2396 45.4971 16.4276 45.4411 16.6756V19.9996H43.9531V14.6356H45.4411V15.1636C45.5531 14.9716 45.7171 14.8156 45.9331 14.6956C46.1491 14.5756 46.3851 14.5156 46.6411 14.5156C46.7771 14.5156 46.8931 14.5276 46.9891 14.5516C47.0931 14.5676 47.1651 14.5876 47.2051 14.6116V16.0996Z" fill="white"/>
<path d="M36.3516 16.3157C36.3516 15.7557 36.4396 15.2437 36.6156 14.7797C36.7916 14.3077 37.0316 13.9037 37.3356 13.5677C37.6396 13.2317 37.9996 12.9717 38.4156 12.7877C38.8396 12.6037 39.2956 12.5117 39.7836 12.5117C40.2156 12.5117 40.6076 12.5757 40.9596 12.7037C41.3116 12.8237 41.6156 12.9917 41.8716 13.2077C42.1276 13.4237 42.3356 13.6877 42.4956 13.9997C42.6636 14.3037 42.7836 14.6397 42.8556 15.0077H41.3436C41.2156 14.6717 41.0276 14.3997 40.7796 14.1917C40.5396 13.9837 40.2076 13.8797 39.7836 13.8797C39.4876 13.8797 39.2236 13.9397 38.9916 14.0597C38.7596 14.1797 38.5596 14.3517 38.3916 14.5757C38.2316 14.7917 38.1076 15.0477 38.0196 15.3437C37.9396 15.6397 37.8996 15.9637 37.8996 16.3157C37.8996 16.6677 37.9396 16.9917 38.0196 17.2877C38.1076 17.5837 38.2316 17.8397 38.3916 18.0557C38.5596 18.2717 38.7596 18.4437 38.9916 18.5717C39.2236 18.6917 39.4876 18.7517 39.7836 18.7517C40.2076 18.7517 40.5396 18.6477 40.7796 18.4397C41.0276 18.2317 41.2156 17.9557 41.3436 17.6117H42.8556C42.7836 17.9877 42.6636 18.3317 42.4956 18.6437C42.3356 18.9477 42.1236 19.2077 41.8596 19.4237C41.6036 19.6397 41.2996 19.8117 40.9476 19.9397C40.6036 20.0597 40.2156 20.1197 39.7836 20.1197C39.2956 20.1197 38.8396 20.0277 38.4156 19.8437C37.9996 19.6597 37.6396 19.3997 37.3356 19.0637C37.0316 18.7277 36.7916 18.3277 36.6156 17.8637C36.4396 17.3917 36.3516 16.8757 36.3516 16.3157Z" fill="white"/>
<path d="M22.9614 19.792C22.6953 21.9372 20.9367 23.6954 18.7908 23.9615C17.492 24.1228 16.2819 23.7679 15.3381 23.0743C14.7976 22.6792 14.9266 21.8405 15.572 21.6469C18.0002 20.9129 19.9121 18.9935 20.6543 16.566C20.8479 15.9288 21.6869 15.7998 22.0822 16.3321C22.7678 17.2837 23.1228 18.4935 22.9614 19.792Z" fill="white"/>
<path d="M13 8C9.13642 8 6 11.1364 6 15C6 18.8636 9.13642 22 13 22C16.8636 22 20 18.8636 20 15C19.9912 11.1364 16.8636 8 13 8ZM12.1765 14.0188L14.2879 14.7547C15.05 15.0263 15.418 15.5607 15.418 16.3842C15.418 17.3304 14.6645 18.1101 13.7447 18.1101H13.6658V18.1539C13.6658 18.5131 13.368 18.811 13.0088 18.811C12.6496 18.811 12.3517 18.5131 12.3517 18.1539V18.1013C11.3792 18.0576 10.5995 17.2428 10.5995 16.2265C10.5995 15.8673 10.8974 15.5695 11.2566 15.5695C11.6158 15.5695 11.9136 15.8673 11.9136 16.2265C11.9136 16.5419 12.1414 16.796 12.4218 16.796H13.7359C13.9374 16.796 14.0951 16.612 14.0951 16.3842C14.0951 16.0776 14.0426 16.0601 13.8411 15.99L11.7297 15.2541C10.9762 14.9912 10.5995 14.4568 10.5995 13.6245C10.5995 12.6783 11.3529 11.8986 12.2728 11.8986H12.3517V11.8636C12.3517 11.5044 12.6496 11.2065 13.0088 11.2065C13.368 11.2065 13.6658 11.5044 13.6658 11.8636V11.9161C14.6383 11.96 15.418 12.7747 15.418 13.791C15.418 14.1502 15.1201 14.4481 14.761 14.4481C14.4017 14.4481 14.1039 14.1502 14.1039 13.791C14.1039 13.4756 13.8761 13.2215 13.5957 13.2215H12.2816C12.0801 13.2215 11.9224 13.4055 11.9224 13.6333C11.9136 13.9312 11.9662 13.9487 12.1765 14.0188Z" fill="white"/>
</g>
<defs>
<clipPath id="clip0_925_609">
<rect width="92" height="32" fill="white"/>
</clipPath>
</defs>
</svg>
