<svg width="125" height="60" viewBox="0 0 125 60" fill="none" xmlns="http://www.w3.org/2000/svg">
<path fill-rule="evenodd" clip-rule="evenodd" d="M40.8884 36.8561C40.8062 33.6186 39.7015 30.9197 37.4787 28.8175C35.8073 27.2371 33.8459 26.3944 31.6427 26.3097C28.9294 26.2057 26.5637 27.1795 24.5981 29.2468C22.6336 31.3119 21.6842 33.8773 21.6132 36.864H18.3907C18.3486 35.7988 18.4782 34.7652 18.6911 33.7484C19.3185 30.7616 20.6886 28.2482 22.7848 26.2249C27.1582 22.0056 33.3872 21.678 37.9982 24.8253C42.6761 28.0188 44.2375 33.396 44.0873 36.8573L40.8884 36.8561ZM28.3986 33.7891C29.1567 32.9521 30.0762 32.5104 31.1573 32.48C32.0202 32.456 32.8102 32.708 33.5146 33.2469C34.6502 34.1156 35.1923 35.3492 35.2695 36.8561H38.4569C38.605 34.8464 37.5816 31.8326 35.1346 30.1427C32.377 28.2368 28.953 28.5148 26.4917 30.8723C24.8532 32.4415 24.0396 34.4511 23.9995 36.8675H27.2343C27.2898 35.6701 27.6385 34.6285 28.3986 33.7891Z" fill="#7E7E7E"/>
<path fill-rule="evenodd" clip-rule="evenodd" d="M37.7836 25.1428C33.3216 22.0972 27.2954 22.411 23.0555 26.5015C21.0174 28.4686 19.6838 30.9118 19.0715 33.8265C18.8881 34.7026 18.7698 35.5817 18.7714 36.4772H21.2441C21.3858 33.5666 22.3662 31.0353 24.3215 28.9799C26.3604 26.8356 28.832 25.8149 31.6604 25.9232C33.9612 26.0117 36.0105 26.8946 37.7466 28.5362C39.965 30.6343 41.1044 33.3062 41.2628 36.4695L43.714 36.4704C43.7373 33.1073 42.1647 28.1338 37.7836 25.1428ZM22.5199 25.9463C27.0267 21.5983 33.4586 21.2568 38.2186 24.5057C43.0299 27.7903 44.6302 33.3092 44.4755 36.873L44.4596 37.2421L40.5154 37.2407L40.5058 36.8649C40.4258 33.7177 39.3563 31.1204 37.2166 29.0967C35.6099 27.5775 33.7363 26.775 31.6309 26.6941C29.0325 26.5945 26.7728 27.5214 24.8805 29.5115C22.9906 31.4981 22.0708 33.9679 22.0017 36.8721L21.9928 37.2487H18.0229L18.0082 36.8783C17.9644 35.772 18.0993 34.7053 18.3165 33.6683C18.959 30.6095 20.3656 28.0256 22.5199 25.9463ZM35.3567 29.8242C32.4465 27.813 28.8196 28.1102 26.2278 30.5928L35.3567 29.8242ZM34.9183 30.4589C32.3134 28.6587 29.0923 28.9173 26.7614 31.1499C25.2936 32.5556 24.5176 34.3325 24.4018 36.4807H26.8783C26.9878 35.3639 27.3636 34.3597 28.1156 33.5292C28.9394 32.6196 29.9561 32.1269 31.1492 32.0933C32.1008 32.0671 32.9774 32.3471 33.7519 32.9395C34.899 33.817 35.4821 35.0334 35.6296 36.4694H38.0881C38.0902 34.5906 37.0981 31.9644 34.9183 30.4589ZM35.3567 29.8242C37.9287 31.6005 39.0015 34.7532 38.8445 36.8835L38.8181 37.2408H34.906L34.8872 36.8749C34.8145 35.4563 34.3109 34.3385 33.2831 33.5522C32.6488 33.067 31.9453 32.8432 31.171 32.8645C30.2021 32.8918 29.3798 33.2825 28.6874 34.047C28.001 34.805 27.675 35.7538 27.6225 36.8843L27.6054 37.2521H23.6102L23.6167 36.86C23.6584 34.3522 24.507 32.2407 26.2278 30.5928" fill="#7E7E7E"/>
<path d="M99.8665 37.3853H94.8025L94.7785 35.2013H99.7945C99.9865 35.2013 100.083 35.1053 100.083 34.9133V32.7293C100.083 32.5373 99.9865 32.4413 99.7945 32.4413H97.8265C96.6585 32.4413 95.8185 32.2253 95.3065 31.7933C94.8105 31.3613 94.5625 30.6013 94.5625 29.5133V28.4573C94.5625 27.3213 94.8265 26.5213 95.3545 26.0573C95.8825 25.5933 96.7305 25.3613 97.8985 25.3613L102.123 25.3853V27.6653H97.5865C97.3945 27.6653 97.2985 27.7613 97.2985 27.9533V30.0173C97.2985 30.2093 97.3945 30.3053 97.5865 30.3053H99.5305C100.715 30.3053 101.547 30.5213 102.027 30.9533C102.523 31.3693 102.771 32.1213 102.771 33.2093V34.6493C102.771 35.6413 102.539 36.3453 102.075 36.7613C101.611 37.1773 100.875 37.3853 99.8665 37.3853Z" fill="#7E7E7E"/>
<path d="M92.4643 34.7937V37.3377H87.4003C86.1363 37.3377 85.1923 37.0657 84.5683 36.5217C83.9603 35.9777 83.6562 35.1377 83.6562 34.0017V25.4337C83.6562 24.2977 83.9603 23.4577 84.5683 22.9137C85.1923 22.3697 86.1363 22.0977 87.4003 22.0977H92.4643V24.6417H86.8002C86.6082 24.6417 86.5123 24.7377 86.5123 24.9297V34.5057C86.5123 34.6977 86.6082 34.7937 86.8002 34.7937H92.4643Z" fill="#7E7E7E"/>
<path d="M72.5976 37.3384H69.7656V22.0984L76.2216 22.0024C77.5016 21.9704 78.4696 22.2584 79.1256 22.8664C79.7976 23.4744 80.1336 24.3544 80.1336 25.5064V27.9304C80.1336 28.8584 79.8776 29.6344 79.3656 30.2584C78.8696 30.8824 78.1336 31.2744 77.1576 31.4344V30.8824C77.6536 30.9784 78.0456 31.1704 78.3336 31.4584C78.6216 31.7464 78.8696 32.1864 79.0776 32.7784L80.6856 37.3384H77.8536L76.0296 31.8904C75.9816 31.7624 75.9336 31.6744 75.8856 31.6264C75.8536 31.5624 75.7656 31.5304 75.6216 31.5304H72.1416L72.5976 31.0744V37.3384ZM72.5976 23.9704V29.5384L72.1896 29.1064H76.9176C77.1416 29.1064 77.2536 29.0024 77.2536 28.7944V24.7624C77.2536 24.5544 77.1416 24.4504 76.9176 24.4504H72.1896L72.5976 23.9704Z" fill="#7E7E7E"/>
<path d="M66.9108 37.3382H64.1028L63.2628 33.4262L63.5508 33.6662H57.5268L57.8148 33.4262L56.8548 37.3382H54.2148L57.5748 24.6182C57.7668 23.9302 57.9668 23.3942 58.1748 23.0102C58.3828 22.6262 58.6788 22.3622 59.0628 22.2182C59.4468 22.0582 59.9748 21.9862 60.6468 22.0022L63.4788 22.0982L66.9108 37.3382ZM59.9748 24.8102L58.2948 31.4822L58.1028 31.2422H63.0468L62.8548 31.4822L61.3188 24.5222H60.2628C60.1668 24.5222 60.1028 24.5462 60.0708 24.5942C60.0388 24.6262 60.0068 24.6982 59.9748 24.8102Z" fill="#7E7E7E"/>
</svg>
