<svg width="167" height="60" viewBox="0 0 167 60" fill="none" xmlns="http://www.w3.org/2000/svg">
<path d="M14 18.0117C14 18.0117 27.2131 17.9785 33.4162 18.0239C37.1573 18.0517 40.148 19.6123 42.5184 22.5508C47.6061 28.8594 44.6378 39.1964 35.6918 41.1572C34.5295 41.4861 32.4794 41.4861 32.4794 41.4861C32.4794 41.4861 29.5507 41.5837 28.2011 41.2969C25.2074 40.8541 22.5344 37.9606 22.4524 34.8146C22.4344 34.1376 22.5993 34.2161 22.119 33.9496C20.0113 32.78 18.194 30.0465 17.9236 27.7464C17.8274 26.9298 18.0036 26.6413 17.5999 26.4358C15.852 24.9924 14.3993 22.2389 14.206 20.0453L14 18.0117ZM25.2191 34.6144C25.4529 36.7598 27.1251 38.9552 29.7458 38.9479C29.7458 38.9479 39.4109 40.5099 41.6037 33.2018C44.0887 27.2637 39.7472 20.7086 33.3142 20.7013C31.6561 20.6993 29.9979 20.7023 28.3397 20.7008C25.058 20.6974 21.7764 20.6925 18.4947 20.6886C18.0139 20.6876 17.5331 20.6886 17.0371 20.6886C17.3232 22.85 18.8144 24.8636 21.5064 24.8177L33.2942 24.8025C35.7603 24.8064 37.912 26.7009 38.154 29.0639C38.4289 31.7486 36.7766 34.0311 34.1894 34.5197C33.8317 34.5871 33.4607 34.6095 33.096 34.6106C30.487 34.6183 27.877 34.6144 25.2191 34.6144ZM20.6195 27.6034C20.6195 27.6034 21.2604 31.8087 25.0761 31.793C25.0761 31.793 32.5551 31.8003 33.3923 31.7604C34.2373 31.7198 34.8738 31.3162 35.2248 30.5308C35.5508 29.801 35.4683 29.1049 34.9817 28.4635C34.4564 27.7723 33.7111 27.6229 32.9057 27.621L20.6195 27.6034Z" fill="#7E7E7E"/>
<path d="M145.008 35.9131V27.4427C145.008 27.0055 145.073 26.7104 145.226 26.5574C145.379 26.4044 145.675 26.3279 146.123 26.3279H146.418C146.855 26.3279 147.15 26.4044 147.303 26.5574C147.456 26.7104 147.533 27.0055 147.533 27.4427V28.5466C147.675 27.8034 148.035 27.1913 148.626 26.6885C149.216 26.1967 149.893 25.9453 150.669 25.9453H150.986C151.227 25.9672 151.402 26.0327 151.533 26.142C151.653 26.2513 151.719 26.4699 151.719 26.776V27.8252C151.719 28.1422 151.642 28.3717 151.489 28.5028C151.336 28.634 151.139 28.6887 150.899 28.6559C150.746 28.634 150.571 28.6121 150.352 28.6121C149.697 28.6121 149.095 28.9072 148.571 29.4756C148.046 30.0549 147.784 30.9402 147.784 32.1206V35.9131C147.784 36.3613 147.707 36.6564 147.554 36.8094C147.401 36.9624 147.106 37.028 146.669 37.028H146.123C145.675 37.028 145.379 36.9624 145.226 36.8094C145.073 36.6564 145.008 36.3613 145.008 35.9131Z" fill="#7E7E7E"/>
<path d="M131.754 31.6839C131.754 30.0444 132.224 28.711 133.164 27.6618C134.104 26.6125 135.372 26.0879 136.989 26.0879C138.672 26.0879 139.962 26.5907 140.869 27.5962C141.765 28.6017 142.225 29.9133 142.225 31.5199V31.815C142.225 32.2631 142.148 32.5582 141.995 32.7113C141.842 32.8643 141.547 32.9298 141.11 32.9298H134.705C135.011 34.2305 135.907 34.8753 137.372 34.8753C138.323 34.8753 139.175 34.6677 139.918 34.2305C140.301 34.0337 140.574 33.9354 140.738 33.9244C140.891 33.9244 141.066 34.0119 141.263 34.2086L141.798 34.7223C142.006 34.9628 142.115 35.1704 142.115 35.3234C142.115 35.5092 141.973 35.7169 141.711 35.9355C140.672 36.8099 139.252 37.2471 137.437 37.2471H137.394C135.667 37.2471 134.301 36.7771 133.284 35.8153C132.257 34.8644 131.754 33.4873 131.754 31.6839ZM134.639 30.6018H139.405C139.142 29.181 138.344 28.4596 136.989 28.4596C135.678 28.4596 134.891 29.181 134.639 30.6018Z" fill="#7E7E7E"/>
<path d="M119.402 35.9114V21.3531C119.402 20.9159 119.468 20.6208 119.621 20.4678C119.774 20.3148 120.069 20.2383 120.517 20.2383H121.064C121.501 20.2383 121.796 20.3148 121.949 20.4678C122.102 20.6208 122.178 20.9159 122.178 21.3531V28.2279C122.342 27.5939 122.725 27.0693 123.315 26.6758C123.905 26.2824 124.649 26.0856 125.534 26.0856C126.671 26.0856 127.567 26.4463 128.233 27.1567C128.889 27.8781 129.228 28.8836 129.228 30.1952V35.9114C129.228 36.3595 129.152 36.6546 128.999 36.8076C128.846 36.9606 128.55 37.0262 128.113 37.0262H127.545C127.097 37.0262 126.802 36.9606 126.649 36.8076C126.496 36.6546 126.43 36.3595 126.43 35.9114V30.7635C126.43 30.1078 126.277 29.605 125.982 29.2334C125.676 28.8618 125.261 28.676 124.725 28.676C123.982 28.676 123.37 28.9492 122.911 29.4738C122.452 30.0094 122.2 30.698 122.178 31.5395V35.9114C122.178 36.3595 122.102 36.6546 121.949 36.8076C121.796 36.9606 121.501 37.0262 121.064 37.0262H120.517C120.069 37.0262 119.774 36.9606 119.621 36.8076C119.468 36.6546 119.402 36.3595 119.402 35.9114Z" fill="#7E7E7E"/>
<path d="M105.734 40.6571V27.4432C105.734 27.006 105.8 26.7109 105.953 26.5579C106.106 26.4049 106.401 26.3283 106.849 26.3283H107.418C107.855 26.3283 108.15 26.4049 108.303 26.5579C108.456 26.7109 108.532 27.006 108.532 27.4432V27.5415C109.254 26.5797 110.358 26.0879 111.844 26.0879C113.287 26.0879 114.456 26.5579 115.352 27.4869C116.249 28.4268 116.697 29.8258 116.697 31.6839C116.697 33.5528 116.238 34.9518 115.331 35.8699C114.423 36.788 113.232 37.2471 111.757 37.2471C110.336 37.2471 109.254 36.8099 108.532 35.9136V40.6571C108.532 41.1052 108.456 41.4003 108.303 41.5533C108.15 41.7064 107.855 41.7719 107.418 41.7719H106.849C106.401 41.7719 106.106 41.7064 105.953 41.5533C105.8 41.4003 105.734 41.1052 105.734 40.6571ZM108.303 31.7494C108.303 32.7331 108.554 33.4982 109.079 34.0447C109.593 34.5912 110.27 34.8535 111.101 34.8535C111.931 34.8535 112.598 34.5802 113.09 34.0228C113.582 33.4654 113.833 32.7003 113.833 31.7276C113.833 30.7439 113.582 29.957 113.09 29.3668C112.598 28.7766 111.931 28.4815 111.101 28.4815C110.27 28.4815 109.593 28.7766 109.079 29.3668C108.554 29.957 108.303 30.7548 108.303 31.7494Z" fill="#7E7E7E"/>
<path d="M92.5335 26.5338C92.6319 26.4027 92.9051 26.3262 93.3533 26.3262H94.2495C94.6867 26.3262 95.0036 26.4027 95.2004 26.5448C95.3862 26.6869 95.5501 26.971 95.6813 27.3973L97.8563 34.6108L100.228 27.3754C100.37 26.9601 100.534 26.6869 100.731 26.5448C100.928 26.4027 101.244 26.3262 101.704 26.3262H102.6C103.026 26.3262 103.288 26.4027 103.398 26.5338C103.441 26.5994 103.463 26.6759 103.463 26.7852C103.463 26.9382 103.419 27.135 103.332 27.3754L99.8673 37.0263L99.3755 38.4144C98.9383 39.6276 98.4028 40.5238 97.747 41.1031C97.0912 41.6933 96.2605 41.9884 95.2332 41.9993H94.5883C94.02 41.9446 93.6593 41.8353 93.5063 41.6605C93.3533 41.5402 93.2877 41.3435 93.2877 41.0812C93.2877 40.9719 93.2986 40.8517 93.3314 40.6987L93.3751 40.3598C93.4407 39.7041 93.6484 39.3762 93.9981 39.3762C94.0528 39.3762 94.1293 39.3871 94.2276 39.398C94.326 39.4199 94.4134 39.4199 94.4899 39.4199C95.0692 39.4199 95.5501 39.2887 95.9217 39.0155C96.2933 38.7532 96.5994 38.2832 96.818 37.6056L97.0038 37.0263H96.9163C96.4682 37.0263 96.1403 36.9389 95.9217 36.7531C95.7031 36.5673 95.5173 36.2284 95.3643 35.7475L92.5882 27.3754C92.5007 27.135 92.457 26.9492 92.457 26.7961C92.457 26.6869 92.4789 26.5994 92.5335 26.5338Z" fill="#7E7E7E"/>
<path d="M81.5078 31.7276C81.5078 29.9351 81.9887 28.5471 82.9505 27.5634C83.9123 26.5797 85.2348 26.0879 86.9398 26.0879C88.1858 26.0879 89.3006 26.4595 90.2625 27.1809C90.5466 27.3994 90.6887 27.6071 90.6887 27.8038C90.6887 28.0224 90.5576 28.241 90.3062 28.4815L89.8143 28.9296C89.5739 29.1482 89.3334 29.2575 89.093 29.2575H89.0711C88.8853 29.2575 88.6886 29.1919 88.47 29.0608C87.9782 28.7329 87.4863 28.5689 86.9945 28.5689C86.142 28.5689 85.4753 28.8531 85.0053 29.4105C84.5353 29.9679 84.3058 30.7439 84.3058 31.7276C84.3058 32.7003 84.5463 33.4545 85.0272 33.9791C85.5081 34.5037 86.1748 34.766 87.0164 34.766C87.694 34.766 88.2733 34.613 88.7542 34.2961C89.0055 34.154 89.2241 34.0775 89.399 34.0775C89.5739 34.0775 89.8034 34.2086 90.0767 34.4491L90.3936 34.7442C90.6778 35.0174 90.8199 35.2688 90.8199 35.4874C90.8199 35.7278 90.6778 35.9355 90.4155 36.1104C89.4318 36.8755 88.2842 37.2471 86.9945 37.2471C85.2458 37.2471 83.8905 36.7771 82.9396 35.8153C81.9778 34.8644 81.5078 33.4982 81.5078 31.7276Z" fill="#7E7E7E"/>
<path d="M68.8125 31.6839C68.8125 30.0444 69.2825 28.711 70.2224 27.6618C71.1624 26.6125 72.4302 26.0879 74.0478 26.0879C75.731 26.0879 77.0207 26.5907 77.9278 27.5962C78.8241 28.6017 79.2831 29.9133 79.2831 31.5199V31.815C79.2831 32.2631 79.2066 32.5582 79.0536 32.7113C78.9006 32.8643 78.6055 32.9298 78.1683 32.9298H71.7635C72.0695 34.2305 72.9658 34.8753 74.4303 34.8753C75.3812 34.8753 76.2337 34.6677 76.9769 34.2305C77.3595 34.0337 77.6327 33.9354 77.7967 33.9244C77.9497 33.9244 78.1246 34.0119 78.3213 34.2086L78.8568 34.7223C79.0645 34.9628 79.1738 35.1704 79.1738 35.3234C79.1738 35.5092 79.0317 35.7169 78.7694 35.9355C77.7311 36.8099 76.3102 37.2471 74.4959 37.2471H74.4522C72.7253 37.2471 71.3591 36.7771 70.3427 35.8153C69.3153 34.8644 68.8125 33.4873 68.8125 31.6839ZM71.6979 30.6018H76.4633C76.2009 29.181 75.4031 28.4596 74.0478 28.4596C72.7362 28.4596 71.9493 29.181 71.6979 30.6018Z" fill="#7E7E7E"/>
<path d="M55.1016 31.7253C55.1016 30.0094 55.5497 28.6432 56.4568 27.6158C57.3531 26.5993 58.5663 26.0856 60.0855 26.0856C61.561 26.0856 62.6649 26.6321 63.3862 27.7142V21.3531C63.3862 20.9159 63.4518 20.6208 63.6048 20.4678C63.7469 20.3148 64.042 20.2383 64.5011 20.2383H65.0585C65.4957 20.2383 65.8017 20.3148 65.9547 20.4678C66.1077 20.6208 66.1842 20.9159 66.1842 21.3531V35.9114C66.1842 36.3595 66.1077 36.6546 65.9547 36.8076C65.8017 36.9606 65.4957 37.0262 65.0585 37.0262H64.9492C64.5011 37.0262 64.195 36.9606 64.0202 36.8076C63.8453 36.6546 63.7141 36.3704 63.6267 35.9333L63.5174 35.3868C62.8398 36.6327 61.6921 37.2448 60.0636 37.2448C58.5335 37.2448 57.3312 36.7639 56.435 35.7802C55.5387 34.8075 55.1016 33.4522 55.1016 31.7253ZM57.9433 31.7472C57.9433 32.7746 58.1728 33.5506 58.6537 34.0752C59.1346 34.5998 59.7904 34.8512 60.632 34.8512C61.5063 34.8512 62.184 34.567 62.6539 33.9878C63.113 33.4085 63.3534 32.6653 63.3534 31.7472C63.3534 30.8291 63.1021 30.0531 62.6212 29.4192C62.1403 28.7962 61.4626 28.4792 60.6101 28.4792C59.7795 28.4792 59.1346 28.7743 58.6537 29.3427C58.1728 29.911 57.9433 30.7198 57.9433 31.7472Z" fill="#7E7E7E"/>
</svg>
