<svg width="174" height="60" viewBox="0 0 174 60" fill="none" xmlns="http://www.w3.org/2000/svg">
<path d="M48.6192 40.9046C48.3966 40.9218 48.1838 40.9506 47.9667 40.9506C45.6962 40.9678 43.4256 40.988 41.1548 40.9908C36.2228 40.9994 31.2921 41.0023 26.3585 40.998C23.9499 40.998 21.5398 40.9951 19.1284 40.9865C18.5162 40.9865 17.9039 40.9578 17.2946 40.9405C17.1868 40.9404 17.0825 40.9022 17 40.8327C17.102 40.8141 17.2055 40.7997 17.309 40.7896C18.4385 40.7436 19.5681 40.6977 20.6977 40.6574C21.994 40.6143 23.2917 40.5769 24.5923 40.5367C24.9472 40.5252 25.0219 40.4505 25.0378 40.0739C25.0665 38.5837 25.2476 37.0991 25.5781 35.6462C25.7075 35.0858 25.6514 34.8529 25.157 34.5483C24.2919 34.018 23.7803 33.1615 23.5676 32.1555C23.4239 31.4815 23.6323 30.8707 24.0375 30.3289C24.2502 30.0444 24.473 29.7684 24.6828 29.4824C24.8566 29.2598 25.1122 29.116 25.3927 29.0829C25.4897 29.0888 25.5791 29.1372 25.637 29.2152C25.6629 29.2468 25.6226 29.3876 25.5709 29.425C25.3582 29.5845 25.147 29.7914 24.9041 29.8561C24.5304 29.9553 24.3479 30.224 24.197 30.5172C23.6078 31.6683 24.1568 32.7979 24.8495 33.4173C25.1312 33.6601 25.4358 33.8714 25.7606 34.0482C26.1271 34.2551 26.3168 34.1947 26.6301 33.9145C27.8602 32.7993 29.0933 31.687 30.3306 30.5775C30.4212 30.497 30.5074 30.4108 30.5979 30.3303C30.802 30.145 30.9831 30.1895 31.0434 30.464C31.1541 31.0101 31.2418 31.5591 31.3265 32.1081C31.3668 32.3754 31.3812 32.647 31.4056 32.9157H31.4818C31.5177 32.7116 31.5364 32.5047 31.5392 32.2978C31.4947 31.5002 31.4688 30.6968 31.3539 29.9078C31.2877 29.4537 31.0592 29.024 30.9155 28.58C30.8654 28.4506 30.8457 28.3114 30.858 28.1732C30.8911 27.9778 30.8149 27.9146 30.654 27.8427C29.6523 27.39 28.6047 27.0839 27.5498 26.8022C27.431 26.7753 27.3235 26.712 27.2423 26.6212C27.1603 26.5297 27.1081 26.4154 27.0928 26.2935C27.0443 26.083 26.9814 25.876 26.9046 25.6741C26.8126 25.4198 26.8385 25.2214 27.0928 25.0748C27.7223 24.7156 28.3474 24.352 28.9683 23.9783C29.1738 23.8677 29.3606 23.7268 29.5244 23.5616C29.842 23.208 30.2674 23.0729 30.6741 22.9005C31.6571 22.4866 32.6429 22.0828 33.6216 21.6675C33.7054 21.6147 33.7806 21.5492 33.8444 21.4734C33.7938 21.4038 33.7355 21.3401 33.6705 21.2838C32.4631 20.4799 31.4037 19.4735 30.539 18.3089C30.4873 18.2371 30.5103 18.1063 30.4959 18.0014C30.5898 17.9961 30.6839 18.0058 30.7747 18.0301C31.5838 18.398 32.3843 18.7861 33.1948 19.1439C33.8056 19.4141 34.4379 19.6339 35.0487 19.9056C35.7299 20.2088 36.4441 20.466 36.9701 21.0481C37.2255 21.3066 37.2471 21.7154 37.0204 21.9994L36.1222 23.2583C36.2312 23.2858 36.3432 23.3002 36.4556 23.3015C37.0793 23.2267 37.7016 23.1347 38.3267 23.0643C38.4488 23.0672 38.571 23.0859 38.686 23.1218C38.6587 23.2399 38.6162 23.3539 38.5595 23.461C38.0278 24.1996 37.3811 24.8463 36.6482 25.3766C36.4901 25.4887 36.5375 25.6123 36.6166 25.7402C36.9614 26.2777 37.3279 26.7994 37.6426 27.3526C38.1514 28.2494 38.663 29.1476 39.1085 30.0774C39.5827 31.0647 40.0067 32.0808 40.396 33.1069C40.6937 33.9001 40.9193 34.7135 41.1477 35.5284C41.3604 36.2886 41.5559 37.056 41.7153 37.8277C41.8678 38.575 41.9656 39.3353 42.0833 40.0898C42.1466 40.4979 42.194 40.5425 42.5935 40.5568C44.4746 40.6287 46.353 40.7005 48.2326 40.7781C48.3692 40.7839 48.5015 40.8112 48.6379 40.8284L48.6192 40.9046ZM36.1595 40.462V40.5008H39.577C40.0225 40.5008 40.0483 40.4476 39.8457 40.0323C39.7351 39.8138 39.6416 39.5897 39.5439 39.3669C39.2056 38.5515 38.7122 37.8097 38.091 37.1825C37.8122 36.9109 37.4587 36.7025 37.0707 36.7197C36.4728 36.747 35.8865 36.9755 35.3447 37.2199C34.5017 37.6076 33.7705 38.2023 33.2192 38.9487C32.9335 39.3399 32.6715 39.7478 32.4346 40.1702C32.3297 40.347 32.3986 40.4649 32.6329 40.4634C33.8041 40.4577 34.9811 40.462 36.1595 40.462ZM28.2612 40.495V40.4821H29.957C30.3134 40.4821 30.3522 40.4332 30.3953 40.0883C30.4355 39.7607 30.4901 39.4359 30.5419 39.1096C30.6382 38.5061 30.7459 37.9025 30.8264 37.296C30.871 36.9569 30.7761 36.8864 30.4715 37.0072C30.001 37.1758 29.5425 37.376 29.099 37.6064C27.9752 38.2431 27.0181 39.0723 26.3556 40.2119C26.2277 40.439 26.2535 40.4893 26.5108 40.4907C27.0928 40.5008 27.6748 40.495 28.2612 40.495Z" fill="#7E7E7E"/>
<path d="M30.5814 22.5467C30.4761 22.4917 30.3752 22.4288 30.2796 22.3584C29.6803 21.8411 29.3023 21.1642 28.9675 20.4586C28.9344 20.3896 28.9891 20.2775 29.0034 20.1855C29.1069 20.2215 29.2348 20.2315 29.3124 20.2976C29.7004 20.644 30.0511 21.0349 30.4592 21.3525C30.7624 21.5882 31.126 21.7348 31.4695 21.9259C31.5327 21.9546 31.5859 22.0035 31.6233 22.0638C31.6348 22.0883 31.5658 22.1831 31.5126 22.2032C31.2079 22.3268 30.8947 22.4404 30.5814 22.5467Z" fill="#7E7E7E"/>
<path d="M133.122 22.3145H126.211V24.039H133.123C133.324 24.0418 133.515 23.9516 133.641 23.7947C133.791 23.6285 133.871 23.4106 133.864 23.1868C133.864 22.9425 133.789 22.7413 133.639 22.5789C133.52 22.412 133.327 22.3135 133.122 22.3145Z" fill="#7E7E7E"/>
<path d="M124.402 22.3145H131.313V24.039H124.401C124.2 24.0418 124.009 23.9516 123.883 23.7947C123.733 23.6285 123.653 23.4106 123.661 23.1868C123.661 22.9425 123.735 22.7413 123.885 22.5789C124.004 22.412 124.197 22.3135 124.402 22.3145ZM133.123 28.494H126.212V30.2186H133.124C133.325 30.2213 133.516 30.1312 133.641 29.9743C133.791 29.8081 133.871 29.5902 133.864 29.3664C133.864 29.122 133.789 28.9208 133.64 28.7585C133.52 28.5916 133.328 28.493 133.123 28.494Z" fill="#7E7E7E"/>
<path d="M124.402 28.4922H131.313V30.2167H124.401C124.2 30.2195 124.009 30.1293 123.883 29.9724C123.733 29.8063 123.653 29.5884 123.661 29.3645C123.661 29.1202 123.735 28.919 123.885 28.7566C124.004 28.5898 124.197 28.4912 124.402 28.4922ZM133.123 35.1029H126.212V36.8274H133.124C133.325 36.8302 133.516 36.74 133.641 36.5831C133.791 36.417 133.871 36.1991 133.864 35.9752C133.864 35.7309 133.789 35.5297 133.64 35.3673C133.52 35.2005 133.328 35.1019 133.123 35.1029Z" fill="#7E7E7E"/>
<path d="M124.402 35.1035H131.313V36.8281H124.401C124.2 36.8308 124.009 36.7407 123.883 36.5838C123.733 36.4176 123.653 36.1997 123.661 35.9759C123.661 35.7315 123.735 35.5304 123.885 35.368C124.004 35.2011 124.197 35.1025 124.402 35.1035Z" fill="#7E7E7E"/>
<path d="M55.4568 36.6851C55.2068 36.691 54.9655 36.5932 54.79 36.4149C54.6118 36.2395 54.514 35.9981 54.5198 35.7481V23.0986C54.514 22.8486 54.6118 22.6072 54.79 22.4318C54.9593 22.2422 55.2026 22.1357 55.4568 22.1401H59.646C61.2298 22.1401 62.5691 22.4936 63.6671 23.2035C64.778 23.8977 65.6115 24.8001 66.1677 25.9125C66.7238 27.0234 67.0012 28.1903 67.0012 29.4133C67.0012 30.6348 66.7238 31.8017 66.1677 32.9141C65.6115 34.025 64.778 34.9346 63.6671 35.6432C62.5691 36.3373 61.2298 36.6851 59.646 36.6851H55.4568ZM59.416 34.9145C60.5557 34.9145 61.5559 34.6846 62.4168 34.2261C63.2513 33.7798 63.9443 33.1087 64.4171 32.2889C64.89 31.4554 65.1258 30.4954 65.1258 29.4118C65.1258 28.3283 64.89 27.3769 64.4171 26.5577C63.9525 25.7313 63.2575 25.0577 62.4168 24.6191C61.5546 24.1477 60.5557 23.912 59.416 23.912H56.4154V34.9131H59.416V34.9145ZM73.4396 36.7885C73.1896 36.7944 72.9481 36.6966 72.7728 36.5183C72.5946 36.3429 72.4966 36.1016 72.5026 35.8515V22.9937C72.4971 22.7442 72.5948 22.5034 72.7728 22.3283C72.9421 22.1387 73.1855 22.0322 73.4396 22.0366C73.7041 22.0366 73.9254 22.1329 74.1064 22.3283C74.3019 22.508 74.3983 22.7307 74.3983 22.9937V35.8515C74.4026 36.1057 74.2961 36.3491 74.1064 36.5183C73.9311 36.6966 73.6896 36.7944 73.4396 36.7885ZM83.2579 36.8934C82.2877 36.9049 81.3316 36.6605 80.4857 36.1849C80.1811 36.0039 80.0273 35.7481 80.0273 35.4146C80.0273 35.1919 80.0977 34.9979 80.2357 34.8312C80.3778 34.6553 80.5931 34.5551 80.8192 34.5596C80.9586 34.5596 81.0837 34.5883 81.1943 34.6429C81.8337 34.949 82.4805 35.1013 83.133 35.1013C83.883 35.1013 84.4867 34.8858 84.9451 34.4547C85.4194 34.0235 85.6535 33.2115 85.6535 32.0173V22.9937C85.6485 22.7439 85.7467 22.5031 85.9252 22.3283C86.0944 22.1387 86.338 22.0322 86.5919 22.0366C86.8564 22.0366 87.0777 22.1329 87.2589 22.3283C87.4528 22.508 87.5506 22.7307 87.5506 22.9937V31.8923C87.5506 33.7117 87.141 35.0036 86.3205 35.7682C85.5155 36.5183 84.4953 36.8934 83.2579 36.8934ZM93.7565 36.6851C93.5065 36.691 93.265 36.5932 93.0898 36.4149C92.9113 36.2395 92.8135 35.9981 92.8195 35.7481V23.0986C92.8135 22.8486 92.9113 22.6072 93.0898 22.4318C93.259 22.2422 93.5024 22.1357 93.7565 22.1401H102.113C102.363 22.1401 102.572 22.2306 102.738 22.4102C102.916 22.5695 103.014 22.7985 103.009 23.0368C103.014 23.2741 102.915 23.5019 102.738 23.6605C102.574 23.8271 102.347 23.9181 102.113 23.912H94.7152V28.5165H101.363C101.613 28.5165 101.821 28.6071 101.988 28.7867C102.166 28.946 102.264 29.175 102.258 29.4133C102.264 29.6506 102.165 29.8784 101.988 30.037C101.824 30.2036 101.597 30.2946 101.363 30.2885H94.7152V34.9145H102.113C102.363 34.9145 102.572 35.0036 102.738 35.1847C102.915 35.3436 103.014 35.572 103.009 35.8099C103.014 36.0477 102.915 36.276 102.738 36.435C102.574 36.6011 102.347 36.6916 102.113 36.6851H93.7565ZM113.755 36.7885C113.505 36.7944 113.264 36.6966 113.088 36.5183C112.91 36.3432 112.811 36.1018 112.817 35.8515V23.912H108.566C108.332 23.9181 108.106 23.8271 107.941 23.6605C107.775 23.4959 107.685 23.2703 107.691 23.0368C107.684 22.8024 107.774 22.5755 107.941 22.4102C108.1 22.2332 108.328 22.1345 108.566 22.1401H118.943C119.193 22.1401 119.403 22.2306 119.569 22.4102C119.746 22.5693 119.846 22.7983 119.84 23.0368C119.845 23.2744 119.746 23.5022 119.569 23.6605C119.404 23.8271 119.178 23.9181 118.943 23.912H114.714V35.8515C114.718 36.1057 114.612 36.3491 114.422 36.5183C114.247 36.6966 114.005 36.7944 113.755 36.7885ZM139.739 36.7885C139.506 36.7902 139.282 36.701 139.114 36.5399C138.952 36.3721 138.862 36.1478 138.864 35.9148C138.864 35.692 138.926 35.498 139.051 35.3298L143.865 29.4133L139.094 23.5355C138.968 23.3677 138.902 23.163 138.905 22.9535C138.905 22.689 138.989 22.4735 139.155 22.3068C139.331 22.1285 139.572 22.0307 139.822 22.0366C139.975 22.0366 140.121 22.0711 140.261 22.1401C140.391 22.2029 140.505 22.2954 140.593 22.4102L144.99 27.9948L149.388 22.3686C149.54 22.1472 149.769 22.0352 150.075 22.0352C150.325 22.0352 150.54 22.1257 150.721 22.3068C150.898 22.4657 150.997 22.6941 150.991 22.9319C150.994 23.1193 150.936 23.3024 150.825 23.4536L146.011 29.3917L150.825 35.3097C150.95 35.4491 151.012 35.6288 151.012 35.8515C151.017 36.1016 150.92 36.3429 150.741 36.5183C150.569 36.7013 150.326 36.7999 150.075 36.7885C149.774 36.7913 149.492 36.6428 149.324 36.3933L144.865 30.7886L140.468 36.4149C140.259 36.6649 140.016 36.7885 139.739 36.7885Z" fill="#7E7E7E"/>
</svg>
