<svg width="167" height="60" viewBox="0 0 167 60" fill="none" xmlns="http://www.w3.org/2000/svg">
<path d="M34.2322 39.8342C33.8512 40.2152 33.218 39.8342 33.3454 39.2634C33.599 38.5651 33.8525 37.6782 34.1698 36.6627C30.9983 39.1359 27.382 41.2295 23.767 42.9421C23.2599 43.1956 22.7527 42.5611 23.1324 42.1176C25.226 39.5169 27.2546 36.8525 29.1583 34.1257L25.226 36.0918C24.7176 36.3454 24.2741 35.7745 24.5901 35.3311C26.4938 32.7304 30.235 27.6551 33.0918 24.1676L34.1698 25.4367L33.4728 27.91C33.3518 28.3079 33.3288 28.7293 33.4061 29.138C33.4833 29.5468 33.6583 29.9308 33.9163 30.2571C34.4234 30.9554 35.2478 31.3351 36.0735 31.3351C36.4533 31.3351 36.7705 31.2714 37.0878 31.1453L39.4987 30.1934L41.656 31.5887C41.7197 31.6524 41.7834 31.6524 41.8458 31.7161C39.3712 34.8877 36.1373 38.123 34.2335 39.8355L34.2322 39.8342ZM46.7286 23.7866L44.5076 25.5628C44.3629 25.6744 44.247 25.819 44.1699 25.9847C44.0927 26.1503 44.0565 26.3321 44.0642 26.5147L44.2541 29.3053C44.3178 30.0035 43.7469 30.5107 43.1137 30.5107C42.8883 30.5068 42.6684 30.4411 42.4778 30.3208L40.1307 28.7981C39.9447 28.669 39.7224 28.6025 39.4961 28.6083C39.3699 28.6083 39.1788 28.6083 39.0527 28.672L36.452 29.75C36.3258 29.8137 36.1347 29.8137 36.0085 29.8137C35.3115 29.8137 34.6757 29.1154 34.9292 28.3547L35.6912 25.6279C35.7482 25.452 35.7546 25.2637 35.7098 25.0844C35.665 24.9051 35.5707 24.7419 35.4377 24.6136L33.6614 22.4563C33.0281 21.758 33.534 20.6163 34.4858 20.5539L37.2764 20.4264C37.4563 20.4284 37.6335 20.3825 37.7898 20.2933C37.9461 20.2042 38.0759 20.0751 38.1658 19.9193L39.6235 17.5084C39.7217 17.3457 39.8622 17.2126 40.0301 17.1233C40.1979 17.034 40.3868 16.9918 40.5767 17.0013C41.0201 17.0013 41.4635 17.2549 41.6547 17.762L42.6689 20.3627C42.7287 20.544 42.8375 20.7052 42.9832 20.8284C43.129 20.9517 43.306 21.0322 43.4947 21.061L46.2228 21.7593C47.2371 22.0129 47.4907 23.2183 46.7299 23.7892L46.7286 23.7866ZM44.5714 22.7086C44.1279 22.3913 43.3672 22.455 42.9212 22.7086C42.4778 23.0258 42.4778 23.4693 42.9212 23.7866C43.3659 24.1038 44.1266 24.0401 44.5714 23.7866C45.0148 23.533 45.0148 23.0258 44.5714 22.7086Z" fill="#7E7E7E"/>
<path d="M143.441 32.5631C143.581 32.583 143.77 32.603 144.009 32.6229V35.3444L143.71 35.464C143.451 35.3644 143.172 35.3145 142.873 35.3145C142.016 35.3145 141.228 35.8628 140.51 36.9594V38.4248L140.69 43.0005H137.699L137.849 38.694L137.729 32.7725L140.57 32.5332L140.54 34.5968H140.72C141.438 33.2609 142.345 32.583 143.441 32.5631Z" fill="#7E7E7E"/>
<path d="M128.591 38.186C128.711 40.0801 129.628 41.0271 131.343 41.0271C132.32 41.0271 133.326 40.748 134.363 40.1898L134.602 40.3692L134.214 42.5524C133.177 42.991 132.13 43.2203 131.073 43.2402C129.419 43.2402 128.133 42.7617 127.216 41.8047C126.298 40.8477 125.84 39.5318 125.84 37.8571C125.84 36.1623 126.298 34.8365 127.216 33.8795C128.153 32.9025 129.339 32.4141 130.774 32.4141C132.21 32.4141 133.277 32.7829 133.974 33.5206C134.692 34.2384 135.051 35.2352 135.051 36.5113C135.051 36.91 135.021 37.3187 134.961 37.7374L134.513 38.1561L128.591 38.186ZM130.864 34.358C130.286 34.358 129.797 34.5474 129.399 34.9262C129.02 35.305 128.771 35.8433 128.651 36.5412L132.419 36.4215L132.479 36.1823C132.459 34.9661 131.921 34.358 130.864 34.358Z" fill="#7E7E7E"/>
<path d="M118.948 34.8658C118.39 34.8658 117.742 35.1649 117.004 35.763L116.944 38.4247L117.094 43.0004H114.133L114.282 38.6639L114.163 27.5088L117.123 27.2695L117.034 34.0583H117.153C117.971 33.3007 118.858 32.7624 119.815 32.4434C120.952 32.4434 121.819 32.7026 122.417 33.2209C123.015 33.7393 123.304 34.477 123.284 35.434L123.224 38.4247L123.344 43.0004H120.353L120.533 36.5107C120.573 35.4141 120.044 34.8658 118.948 34.8658Z" fill="#7E7E7E"/>
<path d="M109.088 32.3828C110.125 32.3828 111.042 32.5722 111.84 32.951L111.361 35.3137L111.092 35.4333C110.334 35.0146 109.636 34.8052 108.998 34.8052C108.36 34.8052 107.852 35.0545 107.473 35.5529C107.094 36.0314 106.905 36.7591 106.905 37.7361C106.905 38.713 107.104 39.4806 107.503 40.0389C107.922 40.5971 108.48 40.8763 109.178 40.8763C109.896 40.8763 110.663 40.6869 111.481 40.308L111.69 40.4875L111.421 42.7903C110.524 43.0694 109.597 43.219 108.64 43.2389C107.204 43.2389 106.088 42.7704 105.29 41.8333C104.493 40.8962 104.094 39.5803 104.094 37.8856C104.094 36.171 104.532 34.8252 105.41 33.8482C106.287 32.8713 107.513 32.3828 109.088 32.3828Z" fill="#7E7E7E"/>
<path d="M98.7594 36.5107C98.7594 35.4141 98.2908 34.8658 97.3538 34.8658C96.6759 34.8658 95.9581 35.1848 95.2005 35.8228V38.4247L95.35 43.0004H92.3594L92.5089 38.6938L92.3893 32.7723L95.2304 32.5331V34.0583H95.3799C96.2373 33.3007 97.1345 32.7624 98.0715 32.4434C99.208 32.4434 100.065 32.7026 100.643 33.2209C101.242 33.7393 101.531 34.477 101.511 35.434L101.451 38.4247L101.571 43.0004H98.5799L98.7594 36.5107Z" fill="#7E7E7E"/>
<path d="M89.2151 40.9668C89.3946 40.9668 89.6039 40.9369 89.8432 40.8771L90.0525 41.0566L89.7833 42.6117C89.3048 42.9108 88.7566 43.1002 88.1385 43.1799C87.2014 43.1002 86.6133 42.5419 86.374 41.5052H86.1347C85.2774 42.3226 84.4002 42.8609 83.503 43.1201C82.3865 43.1201 81.5291 42.8709 80.931 42.3725C80.3329 41.8541 80.0338 41.1064 80.0338 40.1295L80.0936 37.4977L80.0039 32.7725L82.8749 32.5332L82.7852 39.1425C82.7852 40.1992 83.2338 40.7276 84.131 40.7276C84.769 40.7276 85.417 40.4385 86.0749 39.8603V32.7725L88.9161 32.5332L88.7366 40.3089C88.7366 40.7475 88.8961 40.9668 89.2151 40.9668Z" fill="#7E7E7E"/>
<path d="M72.5003 32.3828C73.8361 32.3828 74.833 32.642 75.4909 33.1604C76.1489 33.6788 76.4778 34.3965 76.4778 35.3137C76.4778 35.5728 76.428 36.4202 76.3283 37.8557C76.3283 37.8557 76.2984 38.6732 76.2386 40.308C76.2386 40.5672 76.2685 40.7467 76.3283 40.8464C76.3881 40.9261 76.5077 40.966 76.6872 40.966C76.8666 40.966 77.076 40.9361 77.3152 40.8763L77.5545 41.0557L77.2554 42.6108C76.7769 42.9099 76.2386 43.0993 75.6405 43.1791C74.6834 43.0993 74.1052 42.551 73.9059 41.5342H73.7563C72.9987 42.3317 72.2311 42.89 71.4535 43.209C70.3769 43.189 69.5295 42.8999 68.9115 42.3417C68.2934 41.7834 67.9844 41.0358 67.9844 40.0987C67.9844 38.6432 68.752 37.766 70.2872 37.4669L73.7264 36.8389V35.9118C73.7264 34.9348 73.2679 34.4464 72.3507 34.4464C71.4336 34.4464 70.357 34.875 69.1208 35.7323L68.8816 35.6127L68.5526 33.6389C69.8685 32.8015 71.1844 32.3828 72.5003 32.3828ZM71.3339 38.8426C70.8753 38.9423 70.6461 39.2214 70.6461 39.68C70.6461 40.5772 71.0348 41.0258 71.8124 41.0258C72.3906 41.0258 73.0087 40.6769 73.6666 39.9791L73.7264 38.3043L71.3339 38.8426Z" fill="#7E7E7E"/>
<path d="M66.4501 43.0009H58.6445L58.824 38.6944L58.6445 28.5859H61.7548L61.5754 38.4252L61.6352 40.4887H66.48L66.6595 40.728L66.4501 43.0009Z" fill="#7E7E7E"/>
<path d="M76.168 21.3205C76.168 20.5632 76.248 19.9445 76.408 19.4645C76.568 18.9739 76.824 18.5899 77.176 18.3125C77.5386 18.0352 78.008 17.8432 78.584 17.7365C79.1706 17.6192 79.8853 17.5605 80.728 17.5605C81.1333 17.5605 81.5173 17.5765 81.88 17.6085C82.2533 17.6299 82.6373 17.6725 83.032 17.7365C83.384 17.7899 83.6133 17.8752 83.72 17.9925C83.8373 18.0992 83.896 18.2485 83.896 18.4405V18.9685C83.6506 18.8619 83.3413 18.7765 82.968 18.7125C82.5946 18.6379 82.2106 18.5845 81.816 18.5525C81.432 18.5099 81.0853 18.4885 80.776 18.4885C80.072 18.4885 79.5013 18.5685 79.064 18.7285C78.6373 18.8885 78.328 19.1712 78.136 19.5765C77.944 19.9819 77.848 20.5632 77.848 21.3205C77.848 22.0779 77.9386 22.6645 78.12 23.0805C78.312 23.4859 78.6266 23.7685 79.064 23.9285C79.512 24.0885 80.12 24.1685 80.888 24.1685C81.1866 24.1685 81.512 24.1525 81.864 24.1205C82.216 24.0779 82.568 24.0245 82.92 23.9605C83.272 23.8965 83.5973 23.8219 83.896 23.7365V24.2325C83.896 24.4032 83.8373 24.5472 83.72 24.6645C83.6133 24.7819 83.3733 24.8672 83 24.9205C82.616 24.9952 82.232 25.0432 81.848 25.0645C81.464 25.0859 81.0746 25.0965 80.68 25.0965C79.816 25.0965 79.0906 25.0432 78.504 24.9365C77.928 24.8299 77.4693 24.6379 77.128 24.3605C76.7866 24.0832 76.5413 23.6992 76.392 23.2085C76.2426 22.7179 76.168 22.0885 76.168 21.3205Z" fill="#7E7E7E"/>
<path d="M66.9922 21.3205C66.9922 20.5632 67.0722 19.9445 67.2322 19.4645C67.3922 18.9739 67.6482 18.5899 68.0002 18.3125C68.3629 18.0352 68.8322 17.8432 69.4082 17.7365C69.9949 17.6192 70.7095 17.5605 71.5522 17.5605C71.9575 17.5605 72.3415 17.5765 72.7042 17.6085C73.0775 17.6299 73.4615 17.6725 73.8562 17.7365C74.2082 17.7899 74.4375 17.8752 74.5442 17.9925C74.6615 18.0992 74.7202 18.2485 74.7202 18.4405V18.9685C74.4749 18.8619 74.1655 18.7765 73.7922 18.7125C73.4189 18.6379 73.0349 18.5845 72.6402 18.5525C72.2562 18.5099 71.9095 18.4885 71.6002 18.4885C70.8962 18.4885 70.3255 18.5685 69.8882 18.7285C69.4615 18.8885 69.1522 19.1712 68.9602 19.5765C68.7682 19.9819 68.6722 20.5632 68.6722 21.3205C68.6722 22.0779 68.7629 22.6645 68.9442 23.0805C69.1362 23.4859 69.4509 23.7685 69.8882 23.9285C70.3362 24.0885 70.9442 24.1685 71.7122 24.1685C72.0109 24.1685 72.3362 24.1525 72.6882 24.1205C73.0402 24.0779 73.3922 24.0245 73.7442 23.9605C74.0962 23.8965 74.4215 23.8219 74.7202 23.7365V24.2325C74.7202 24.4032 74.6615 24.5472 74.5442 24.6645C74.4375 24.7819 74.1975 24.8672 73.8242 24.9205C73.4402 24.9952 73.0562 25.0432 72.6722 25.0645C72.2882 25.0859 71.8989 25.0965 71.5042 25.0965C70.6402 25.0965 69.9149 25.0432 69.3282 24.9365C68.7522 24.8299 68.2935 24.6379 67.9522 24.3605C67.6109 24.0832 67.3655 23.6992 67.2162 23.2085C67.0669 22.7179 66.9922 22.0885 66.9922 21.3205Z" fill="#7E7E7E"/>
<path d="M58.2148 25.0006V18.2486C58.2148 18.014 58.2468 17.854 58.3108 17.7686C58.3855 17.6833 58.5402 17.6406 58.7748 17.6406H65.4308V18.5526H59.8628V20.7126H64.9508V21.6246H59.8628V24.0886H65.4308V25.0006H58.2148Z" fill="#7E7E7E"/>
</svg>
