<svg width="167" height="60" viewBox="0 0 167 60" fill="none" xmlns="http://www.w3.org/2000/svg">
<path fill-rule="evenodd" clip-rule="evenodd" d="M24.8783 18H14.6705C10.6699 18 8 20.8644 8 24.9661V34.5839C8 38.6895 10.6628 41.55 14.6705 41.55H24.8771C28.886 41.55 31.55 38.6895 31.55 34.5839V24.9661C31.55 20.8607 28.8863 18 24.8783 18ZM14.6705 19.7662H24.8783C27.8815 19.7662 29.7837 21.8092 29.7837 24.9661V34.5839C29.7837 37.7409 27.8814 39.7837 24.8771 39.7837H14.6705C11.6676 39.7837 9.76625 37.7412 9.76625 34.5839V24.9661C9.76625 21.8132 11.6742 19.7662 14.6705 19.7662Z" fill="#8094FF"/>
<path d="M17.2377 24.8301L19.7216 32.6377H19.8168L22.3057 24.8301H24.7142L21.1717 35.1065H18.3718L14.8242 24.8301H17.2377Z" fill="#8094FF"/>
<path d="M143.295 26.2732H146.271V27.2572C146.559 26.9212 146.959 26.6332 147.471 26.3932C147.983 26.1532 148.543 26.0332 149.151 26.0332C150.367 26.0332 151.303 26.4012 151.959 27.1372C152.615 27.8572 152.943 28.8092 152.943 29.9932V37.0012H149.967V30.6172C149.967 30.0572 149.823 29.6012 149.535 29.2492C149.247 28.8972 148.807 28.7212 148.215 28.7212C147.991 28.7212 147.775 28.7532 147.567 28.8172C147.359 28.8812 147.167 28.9772 146.991 29.1052C146.815 29.2332 146.663 29.3932 146.535 29.5852C146.407 29.7612 146.319 29.9692 146.271 30.2092V37.0012H143.295V26.2732Z" fill="#7E7E7E"/>
<path d="M140.693 37.0001H137.717V26.2721H140.693V37.0001ZM140.981 23.1761C140.981 23.6881 140.805 24.1041 140.453 24.4241C140.101 24.7281 139.685 24.8801 139.205 24.8801C138.741 24.8801 138.333 24.7281 137.981 24.4241C137.629 24.1041 137.453 23.6881 137.453 23.1761C137.453 22.6801 137.629 22.2801 137.981 21.9761C138.333 21.6561 138.741 21.4961 139.205 21.4961C139.685 21.4961 140.101 21.6561 140.453 21.9761C140.805 22.2801 140.981 22.6801 140.981 23.1761Z" fill="#7E7E7E"/>
<path d="M132.465 37.0012V36.4252C132.289 36.6012 131.953 36.7772 131.457 36.9532C130.977 37.1132 130.441 37.1932 129.849 37.1932C129.305 37.1932 128.793 37.1212 128.313 36.9772C127.833 36.8172 127.409 36.5932 127.041 36.3052C126.689 36.0012 126.409 35.6332 126.201 35.2012C125.993 34.7692 125.889 34.2732 125.889 33.7132C125.889 33.2012 125.993 32.7372 126.201 32.3212C126.409 31.8892 126.697 31.5292 127.065 31.2412C127.449 30.9372 127.889 30.7052 128.385 30.5452C128.897 30.3692 129.449 30.2812 130.041 30.2812C130.505 30.2812 130.969 30.3452 131.433 30.4732C131.897 30.6012 132.241 30.7452 132.465 30.9052V30.1132C132.465 29.6492 132.321 29.2572 132.033 28.9372C131.761 28.6172 131.329 28.4572 130.737 28.4572C130.305 28.4572 129.961 28.5452 129.705 28.7212C129.449 28.8972 129.265 29.1452 129.153 29.4652H126.321C126.401 28.9852 126.561 28.5372 126.801 28.1212C127.057 27.7052 127.377 27.3452 127.761 27.0412C128.161 26.7212 128.617 26.4732 129.129 26.2972C129.641 26.1212 130.201 26.0332 130.809 26.0332C132.249 26.0332 133.361 26.4012 134.145 27.1372C134.929 27.8572 135.321 28.8652 135.321 30.1612V37.0012H132.465ZM132.465 33.3052C132.417 33.1612 132.329 33.0332 132.201 32.9212C132.073 32.8092 131.921 32.7132 131.745 32.6332C131.569 32.5372 131.377 32.4732 131.169 32.4412C130.961 32.3932 130.753 32.3692 130.545 32.3692C130.305 32.3692 130.073 32.3932 129.849 32.4412C129.625 32.4892 129.417 32.5692 129.225 32.6812C129.049 32.7932 128.905 32.9372 128.793 33.1132C128.697 33.2732 128.649 33.4652 128.649 33.6892C128.649 33.9292 128.697 34.1292 128.793 34.2892C128.905 34.4492 129.049 34.5852 129.225 34.6972C129.417 34.8092 129.625 34.8892 129.849 34.9372C130.073 34.9852 130.305 35.0092 130.545 35.0092C130.753 35.0092 130.961 34.9932 131.169 34.9612C131.377 34.9132 131.569 34.8492 131.745 34.7692C131.921 34.6892 132.073 34.5932 132.201 34.4812C132.329 34.3692 132.417 34.2412 132.465 34.0972V33.3052Z" fill="#7E7E7E"/>
<path d="M114.42 21.4004H117.396V27.2564C117.684 26.9204 118.084 26.6324 118.596 26.3924C119.108 26.1524 119.668 26.0324 120.276 26.0324C121.492 26.0324 122.428 26.4004 123.084 27.1364C123.74 27.8564 124.068 28.8084 124.068 29.9924V37.0004H121.092V30.6164C121.092 30.0564 120.948 29.6004 120.66 29.2484C120.372 28.8964 119.932 28.7204 119.34 28.7204C119.116 28.7204 118.9 28.7524 118.692 28.8164C118.484 28.8804 118.292 28.9764 118.116 29.1044C117.94 29.2324 117.788 29.3924 117.66 29.5844C117.532 29.7604 117.444 29.9684 117.396 30.2084V37.0004H114.42V21.4004Z" fill="#7E7E7E"/>
<path d="M99.4531 29.6314C99.4531 28.5114 99.6291 27.4874 99.9811 26.5594C100.333 25.6154 100.813 24.8074 101.421 24.1354C102.029 23.4634 102.749 22.9434 103.581 22.5754C104.429 22.2074 105.341 22.0234 106.317 22.0234C107.181 22.0234 107.965 22.1514 108.669 22.4074C109.373 22.6474 109.981 22.9834 110.493 23.4154C111.005 23.8474 111.421 24.3754 111.741 24.9994C112.077 25.6074 112.317 26.2794 112.461 27.0154H109.437C109.181 26.3434 108.805 25.7994 108.309 25.3834C107.829 24.9674 107.165 24.7594 106.317 24.7594C105.725 24.7594 105.197 24.8794 104.733 25.1194C104.269 25.3594 103.869 25.7034 103.533 26.1514C103.213 26.5834 102.965 27.0954 102.789 27.6874C102.629 28.2794 102.549 28.9274 102.549 29.6314C102.549 30.3354 102.629 30.9834 102.789 31.5754C102.965 32.1674 103.213 32.6794 103.533 33.1114C103.869 33.5434 104.269 33.8874 104.733 34.1434C105.197 34.3834 105.725 34.5034 106.317 34.5034C107.165 34.5034 107.829 34.2954 108.309 33.8794C108.805 33.4634 109.181 32.9114 109.437 32.2234H112.461C112.317 32.9754 112.077 33.6634 111.741 34.2874C111.421 34.8954 110.997 35.4154 110.469 35.8474C109.957 36.2794 109.349 36.6234 108.645 36.8794C107.957 37.1194 107.181 37.2394 106.317 37.2394C105.341 37.2394 104.429 37.0554 103.581 36.6874C102.749 36.3194 102.029 35.7994 101.421 35.1274C100.813 34.4554 100.333 33.6554 99.9811 32.7274C99.6291 31.7834 99.4531 30.7514 99.4531 29.6314Z" fill="#7E7E7E"/>
<path d="M93.0049 33.4972C92.8289 34.6332 92.3329 35.5452 91.5169 36.2332C90.7009 36.9052 89.6209 37.2412 88.2769 37.2412C87.4929 37.2412 86.7809 37.1052 86.1409 36.8332C85.5009 36.5612 84.9489 36.1772 84.4849 35.6812C84.0369 35.1852 83.6849 34.6012 83.4289 33.9292C83.1729 33.2412 83.0449 32.4812 83.0449 31.6492C83.0449 30.8332 83.1729 30.0892 83.4289 29.4172C83.6849 28.7292 84.0369 28.1372 84.4849 27.6412C84.9489 27.1292 85.5009 26.7372 86.1409 26.4652C86.7809 26.1772 87.4689 26.0332 88.2049 26.0332C89.0049 26.0332 89.7009 26.1692 90.2929 26.4412C90.9009 26.6972 91.4049 27.0572 91.8049 27.5212C92.2209 27.9852 92.5329 28.5452 92.7409 29.2012C92.9649 29.8572 93.0769 30.5772 93.0769 31.3612V32.2732H85.9249C85.9569 32.6732 86.0289 33.0332 86.1409 33.3532C86.2689 33.6732 86.4289 33.9452 86.6209 34.1692C86.8289 34.3932 87.0689 34.5612 87.3409 34.6732C87.6289 34.7852 87.9409 34.8412 88.2769 34.8412C88.7729 34.8412 89.1969 34.7292 89.5489 34.5052C89.9009 34.2812 90.1329 33.9452 90.2449 33.4972H93.0049ZM88.2289 28.4332C87.9409 28.4332 87.6769 28.4812 87.4369 28.5772C87.1969 28.6732 86.9809 28.8092 86.7889 28.9852C86.5969 29.1452 86.4289 29.3532 86.2849 29.6092C86.1569 29.8492 86.0609 30.1372 85.9969 30.4732H90.1729C90.1569 30.1852 90.1089 29.9212 90.0289 29.6812C89.9489 29.4252 89.8209 29.2092 89.6449 29.0332C89.4849 28.8412 89.2849 28.6972 89.0449 28.6012C88.8209 28.4892 88.5489 28.4332 88.2289 28.4332Z" fill="#7E7E7E"/>
<path d="M81.1273 36.9995H78.1753V36.0155C77.8713 36.3515 77.4713 36.6395 76.9753 36.8795C76.4793 37.1195 75.9193 37.2395 75.2953 37.2395C74.0953 37.2395 73.1673 36.8795 72.5113 36.1595C71.8553 35.4395 71.5273 34.4795 71.5273 33.2795V26.2715H74.5033V32.6795C74.5033 33.2395 74.6393 33.7035 74.9113 34.0715C75.1993 34.4235 75.6393 34.5995 76.2313 34.5995C76.6793 34.5995 77.0793 34.4635 77.4313 34.1915C77.7993 33.9195 78.0393 33.5595 78.1513 33.1115V26.2715H81.1273V36.9995Z" fill="#7E7E7E"/>
<path d="M69.0444 37.0004H66.0684V21.4004H69.0444V37.0004Z" fill="#7E7E7E"/>
<path d="M60.7928 37.0012V36.4252C60.6168 36.6012 60.2808 36.7772 59.7848 36.9532C59.3048 37.1132 58.7688 37.1932 58.1768 37.1932C57.6328 37.1932 57.1208 37.1212 56.6408 36.9772C56.1608 36.8172 55.7368 36.5932 55.3688 36.3052C55.0168 36.0012 54.7368 35.6332 54.5288 35.2012C54.3208 34.7692 54.2168 34.2732 54.2168 33.7132C54.2168 33.2012 54.3208 32.7372 54.5288 32.3212C54.7368 31.8892 55.0248 31.5292 55.3928 31.2412C55.7768 30.9372 56.2168 30.7052 56.7128 30.5452C57.2248 30.3692 57.7768 30.2812 58.3688 30.2812C58.8328 30.2812 59.2968 30.3452 59.7608 30.4732C60.2248 30.6012 60.5688 30.7452 60.7928 30.9052V30.1132C60.7928 29.6492 60.6488 29.2572 60.3608 28.9372C60.0888 28.6172 59.6568 28.4572 59.0648 28.4572C58.6328 28.4572 58.2888 28.5452 58.0328 28.7212C57.7768 28.8972 57.5928 29.1452 57.4808 29.4652H54.6488C54.7288 28.9852 54.8888 28.5372 55.1288 28.1212C55.3848 27.7052 55.7048 27.3452 56.0888 27.0412C56.4888 26.7212 56.9448 26.4732 57.4568 26.2972C57.9688 26.1212 58.5288 26.0332 59.1368 26.0332C60.5768 26.0332 61.6888 26.4012 62.4728 27.1372C63.2568 27.8572 63.6488 28.8652 63.6488 30.1612V37.0012H60.7928ZM60.7928 33.3052C60.7448 33.1612 60.6568 33.0332 60.5288 32.9212C60.4008 32.8092 60.2488 32.7132 60.0728 32.6332C59.8968 32.5372 59.7048 32.4732 59.4968 32.4412C59.2888 32.3932 59.0808 32.3692 58.8728 32.3692C58.6328 32.3692 58.4008 32.3932 58.1768 32.4412C57.9528 32.4892 57.7448 32.5692 57.5528 32.6812C57.3768 32.7932 57.2328 32.9372 57.1208 33.1132C57.0248 33.2732 56.9768 33.4652 56.9768 33.6892C56.9768 33.9292 57.0248 34.1292 57.1208 34.2892C57.2328 34.4492 57.3768 34.5852 57.5528 34.6972C57.7448 34.8092 57.9528 34.8892 58.1768 34.9372C58.4008 34.9852 58.6328 35.0092 58.8728 35.0092C59.0808 35.0092 59.2888 34.9932 59.4968 34.9612C59.7048 34.9132 59.8968 34.8492 60.0728 34.7692C60.2488 34.6892 60.4008 34.5932 60.5288 34.4812C60.6568 34.3692 60.7448 34.2412 60.7928 34.0972V33.3052Z" fill="#7E7E7E"/>
<path d="M45.9034 36.9997L40.3594 22.2637H43.5994L47.4154 32.9197L51.2554 22.2637H54.3994L48.8554 36.9997H45.9034Z" fill="#7E7E7E"/>
</svg>
