<svg width="167" height="60" viewBox="0 0 167 60" fill="none" xmlns="http://www.w3.org/2000/svg">
<path fill-rule="evenodd" clip-rule="evenodd" d="M31.1503 33.5819C31.5302 35.09 32.3283 36.0466 33.4664 36.6623C32.6206 37.021 31.8196 37.4776 31.0798 38.023L37.0033 42.0899C37.7652 42.613 38.7751 42.613 39.537 42.0899L45.4723 38.0149C44.7341 37.4739 43.9359 37.0206 43.0935 36.6639C44.2316 36.0481 45.0313 35.09 45.4113 33.5819H45.9141C47.9604 33.5819 47.9668 28.5998 45.9141 28.5998H45.3474C44.8733 26.7716 43.8815 25.4476 42.4842 24.6253C42.4945 24.5852 42.5 24.5433 42.5 24.5V21.5C42.5 21.2239 42.2761 21 42 21C41.7239 21 41.5 21.2239 41.5 21.5V24.1537C40.5566 23.7929 39.4759 23.6128 38.2823 23.6128C36.8473 23.6128 35.5799 23.8767 34.5136 24.3981C34.5136 24.3981 33.6179 24.7319 32.9604 25.4825C32.1016 26.3392 31.4981 27.4186 31.2173 28.5998H30.6475C28.6011 28.5998 28.5947 33.5819 30.6475 33.5819H31.1503ZM46.1137 38.2046C46.2393 38.1922 46.3613 38.153 46.4712 38.0889L48.6629 36.8222C48.9369 36.6634 49.1646 36.4349 49.3228 36.1602C49.4811 35.8853 49.5646 35.5737 49.5647 35.2564V24.291C49.5646 23.9737 49.4811 23.662 49.3228 23.3872C49.1646 23.1124 48.9369 22.8841 48.6629 22.7251L39.1843 17.2424C38.9101 17.0836 38.599 17 38.2823 17C37.9656 17 37.6546 17.0836 37.3805 17.2424L27.9035 22.7251C27.629 22.8837 27.401 23.1119 27.2424 23.3868C27.0838 23.6616 27.0002 23.9735 27 24.291V35.2564C27.0002 35.5739 27.0838 35.8859 27.2424 36.1606C27.401 36.4355 27.629 36.6637 27.9035 36.8222L30.092 38.0889C30.1935 38.1474 30.305 38.185 30.42 38.2001L36.7053 42.5154C37.6464 43.1616 38.8939 43.1616 39.8351 42.5154L46.1137 38.2046ZM38.2792 35.5091C42.4199 35.5091 43.7479 35.4131 43.7479 30.9045V30.8981C43.7479 28.5998 42.4199 26.3014 38.2792 26.3014C34.1385 26.3014 32.8104 28.6061 32.8104 30.9045C32.8104 35.4131 34.1385 35.5091 38.2792 35.5091Z" fill="#7E7E7E"/>
<path d="M133.088 36.2554C132.405 36.2554 131.792 36.1274 131.248 35.8714C130.704 35.6047 130.277 35.2047 129.968 34.6714C129.659 34.1274 129.504 33.4394 129.504 32.6074L131.616 32.3674C131.616 32.9541 131.744 33.4287 132 33.7914C132.267 34.1541 132.645 34.3354 133.136 34.3354C133.541 34.3354 133.845 34.2181 134.048 33.9834C134.251 33.7381 134.352 33.4127 134.352 33.0074C134.352 32.5701 134.24 32.2287 134.016 31.9834C133.792 31.7381 133.504 31.5141 133.152 31.3114L131.696 30.4634C131.131 30.1327 130.651 29.6954 130.256 29.1514C129.872 28.5967 129.68 27.9301 129.68 27.1514C129.68 26.5114 129.819 25.9407 130.096 25.4394C130.384 24.9274 130.795 24.5221 131.328 24.2234C131.872 23.9247 132.517 23.7754 133.264 23.7754C134.267 23.7754 135.072 24.0634 135.68 24.6394C136.299 25.2154 136.619 26.0794 136.64 27.2314L134.528 27.6954C134.528 26.3621 134.091 25.6954 133.216 25.6954C132.853 25.6954 132.565 25.8074 132.352 26.0314C132.149 26.2554 132.048 26.5647 132.048 26.9594C132.048 27.3434 132.144 27.6581 132.336 27.9034C132.539 28.1487 132.821 28.3781 133.184 28.5914L134.624 29.4554C135.285 29.8501 135.803 30.3194 136.176 30.8634C136.56 31.3967 136.752 32.0581 136.752 32.8474C136.752 33.5621 136.597 34.1754 136.288 34.6874C135.979 35.1994 135.547 35.5887 134.992 35.8554C134.448 36.1221 133.813 36.2554 133.088 36.2554Z" fill="#7E7E7E"/>
<path d="M124.815 36.1438L121.567 28.6078L121.583 28.7198V35.9998H119.375V24.0958L121.503 23.8398L124.591 31.1838L124.575 30.9918V23.9998H126.783V35.8878L124.815 36.1438Z" fill="#7E7E7E"/>
<path d="M112.647 36.2234C111.729 36.2234 110.977 35.9674 110.391 35.4554C109.815 34.9434 109.393 34.2234 109.127 33.2954C108.86 32.3567 108.727 31.2581 108.727 29.9994C108.727 28.7301 108.86 27.6314 109.127 26.7034C109.393 25.7754 109.815 25.0554 110.391 24.5434C110.977 24.0314 111.729 23.7754 112.647 23.7754C113.575 23.7754 114.327 24.0314 114.903 24.5434C115.479 25.0554 115.9 25.7754 116.167 26.7034C116.433 27.6314 116.567 28.7301 116.567 29.9994C116.567 31.2581 116.433 32.3567 116.167 33.2954C115.9 34.2234 115.479 34.9434 114.903 35.4554C114.327 35.9674 113.575 36.2234 112.647 36.2234ZM112.647 34.1754C112.977 34.1754 113.239 34.0634 113.431 33.8394C113.633 33.6154 113.783 33.3061 113.879 32.9114C113.975 32.5167 114.033 32.0687 114.055 31.5674C114.087 31.0661 114.103 30.5434 114.103 29.9994C114.103 29.4554 114.087 28.9327 114.055 28.4314C114.033 27.9301 113.975 27.4821 113.879 27.0874C113.783 26.6927 113.633 26.3834 113.431 26.1594C113.239 25.9354 112.977 25.8234 112.647 25.8234C112.316 25.8234 112.055 25.9354 111.863 26.1594C111.671 26.3834 111.527 26.6927 111.431 27.0874C111.335 27.4821 111.271 27.9301 111.239 28.4314C111.207 28.9327 111.191 29.4554 111.191 29.9994C111.191 30.5434 111.207 31.0661 111.239 31.5674C111.271 32.0687 111.335 32.5167 111.431 32.9114C111.527 33.3061 111.671 33.6154 111.863 33.8394C112.055 34.0634 112.316 34.1754 112.647 34.1754Z" fill="#7E7E7E"/>
<path d="M99.9491 36L99.7891 34.352L103.837 25.952H100.029V24H106.381L106.541 25.6L102.461 34.048H106.589L106.349 36H99.9491Z" fill="#7E7E7E"/>
<path d="M94.7539 36V24H97.1059V36H94.7539Z" fill="#7E7E7E"/>
<path d="M90.1162 36.256L88.0682 31.424H87.0122V36H84.6602V24H87.6682C88.9695 24 89.9828 24.2987 90.7082 24.896C91.4335 25.4827 91.7962 26.416 91.7962 27.696C91.7962 28.3787 91.6522 28.9813 91.3642 29.504C91.0868 30.0267 90.6815 30.448 90.1482 30.768L92.2762 35.472L90.1162 36.256ZM87.0122 29.552H87.5562C88.0682 29.552 88.5055 29.4027 88.8682 29.104C89.2415 28.8053 89.4282 28.3413 89.4282 27.712C89.4282 27.0187 89.2575 26.5387 88.9162 26.272C88.5748 26.0053 88.1215 25.872 87.5562 25.872H87.0122V29.552Z" fill="#7E7E7E"/>
<path d="M77.9317 36.2234C77.0144 36.2234 76.2624 35.9674 75.6757 35.4554C75.0997 34.9434 74.6784 34.2234 74.4117 33.2954C74.1451 32.3567 74.0117 31.2581 74.0117 29.9994C74.0117 28.7301 74.1451 27.6314 74.4117 26.7034C74.6784 25.7754 75.0997 25.0554 75.6757 24.5434C76.2624 24.0314 77.0144 23.7754 77.9317 23.7754C78.8597 23.7754 79.6117 24.0314 80.1877 24.5434C80.7637 25.0554 81.1851 25.7754 81.4517 26.7034C81.7184 27.6314 81.8517 28.7301 81.8517 29.9994C81.8517 31.2581 81.7184 32.3567 81.4517 33.2954C81.1851 34.2234 80.7637 34.9434 80.1877 35.4554C79.6117 35.9674 78.8597 36.2234 77.9317 36.2234ZM77.9317 34.1754C78.2624 34.1754 78.5237 34.0634 78.7157 33.8394C78.9184 33.6154 79.0677 33.3061 79.1637 32.9114C79.2597 32.5167 79.3184 32.0687 79.3397 31.5674C79.3717 31.0661 79.3877 30.5434 79.3877 29.9994C79.3877 29.4554 79.3717 28.9327 79.3397 28.4314C79.3184 27.9301 79.2597 27.4821 79.1637 27.0874C79.0677 26.6927 78.9184 26.3834 78.7157 26.1594C78.5237 25.9354 78.2624 25.8234 77.9317 25.8234C77.6011 25.8234 77.3397 25.9354 77.1477 26.1594C76.9557 26.3834 76.8117 26.6927 76.7157 27.0874C76.6197 27.4821 76.5557 27.9301 76.5237 28.4314C76.4917 28.9327 76.4757 29.4554 76.4757 29.9994C76.4757 30.5434 76.4917 31.0661 76.5237 31.5674C76.5557 32.0687 76.6197 32.5167 76.7157 32.9114C76.8117 33.3061 76.9557 33.6154 77.1477 33.8394C77.3397 34.0634 77.6011 34.1754 77.9317 34.1754Z" fill="#7E7E7E"/>
<path d="M63.9609 36V24H66.3129V29.184H68.8409V24H71.1929V36H68.8409V31.136H66.3129V36H63.9609Z" fill="#7E7E7E"/>
</svg>
