<svg width="167" height="60" viewBox="0 0 167 60" fill="none" xmlns="http://www.w3.org/2000/svg">
<path fill-rule="evenodd" clip-rule="evenodd" d="M22.1503 33.5819C22.5302 35.09 23.3283 36.0466 24.4664 36.6623C23.6206 37.021 22.8196 37.4776 22.0798 38.023L28.0033 42.0899C28.7652 42.613 29.7751 42.613 30.537 42.0899L36.4723 38.0149C35.7341 37.4739 34.9359 37.0206 34.0935 36.6639C35.2316 36.0481 36.0313 35.09 36.4113 33.5819H36.9141C38.9604 33.5819 38.9668 28.5998 36.9141 28.5998H36.3474C35.8733 26.7716 34.8815 25.4476 33.4842 24.6253C33.4945 24.5852 33.5 24.5433 33.5 24.5V21.5C33.5 21.2239 33.2761 21 33 21C32.7239 21 32.5 21.2239 32.5 21.5V24.1537C31.5566 23.7929 30.4759 23.6128 29.2823 23.6128C27.8473 23.6128 26.5799 23.8767 25.5136 24.3981C25.5136 24.3981 24.6179 24.7319 23.9604 25.4825C23.1016 26.3392 22.4981 27.4186 22.2173 28.5998H21.6475C19.6011 28.5998 19.5947 33.5819 21.6475 33.5819H22.1503ZM37.1137 38.2046C37.2393 38.1922 37.3613 38.153 37.4712 38.0889L39.6629 36.8222C39.9369 36.6634 40.1646 36.4349 40.3228 36.1602C40.4811 35.8853 40.5646 35.5737 40.5647 35.2564V24.291C40.5646 23.9737 40.4811 23.662 40.3228 23.3872C40.1646 23.1124 39.9369 22.8841 39.6629 22.7251L30.1843 17.2424C29.9101 17.0836 29.599 17 29.2823 17C28.9656 17 28.6546 17.0836 28.3805 17.2424L18.9035 22.7251C18.629 22.8837 18.401 23.1119 18.2424 23.3868C18.0838 23.6616 18.0002 23.9735 18 24.291V35.2564C18.0002 35.5739 18.0838 35.8859 18.2424 36.1606C18.401 36.4355 18.629 36.6637 18.9035 36.8222L21.092 38.0889C21.1935 38.1474 21.305 38.185 21.42 38.2001L27.7053 42.5154C28.6464 43.1616 29.8939 43.1616 30.8351 42.5154L37.1137 38.2046ZM29.2792 35.5091C33.4199 35.5091 34.7479 35.4131 34.7479 30.9045V30.8981C34.7479 28.5998 33.4199 26.3014 29.2792 26.3014C25.1385 26.3014 23.8104 28.6061 23.8104 30.9045C23.8104 35.4131 25.1385 35.5091 29.2792 35.5091Z" fill="#7E7E7E"/>
<path d="M147.046 29.1518C146.481 28.8105 145.878 28.5598 145.238 28.3998C144.598 28.2292 143.83 28.1118 142.934 28.0478C142.859 28.0372 142.785 28.0318 142.71 28.0318C142.646 28.0212 142.582 28.0158 142.518 28.0158C142.294 28.0158 142.182 28.1065 142.182 28.2878C142.182 28.3945 142.241 28.4692 142.358 28.5118C142.486 28.5438 142.657 28.5705 142.87 28.5918C143.286 28.6452 143.723 28.7092 144.182 28.7838C144.641 28.8478 145.089 28.9492 145.526 29.0878C145.963 29.2265 146.358 29.4292 146.71 29.6958C147.073 29.9625 147.355 30.3145 147.558 30.7518C147.771 31.1892 147.878 31.7385 147.878 32.3998C147.878 33.1358 147.707 33.7545 147.366 34.2558C147.025 34.7465 146.561 35.1412 145.974 35.4398C145.398 35.7278 144.737 35.9358 143.99 36.0638C143.254 36.1918 142.491 36.2558 141.702 36.2558C140.785 36.2665 139.873 36.2132 138.966 36.0958C138.07 35.9892 137.275 35.8505 136.582 35.6798L137.03 30.0478C137.275 30.2292 137.569 30.4265 137.91 30.6398C138.251 30.8425 138.715 31.0292 139.302 31.1998C139.889 31.3705 140.662 31.5038 141.622 31.5998C141.675 31.6105 141.723 31.6158 141.766 31.6158C141.819 31.6158 141.867 31.6158 141.91 31.6158C142.027 31.6158 142.113 31.5998 142.166 31.5678C142.23 31.5358 142.262 31.4665 142.262 31.3598C142.262 31.2425 142.209 31.1678 142.102 31.1358C142.006 31.1038 141.851 31.0718 141.638 31.0398C141.062 30.9758 140.486 30.8852 139.91 30.7678C139.345 30.6505 138.827 30.4692 138.358 30.2238C137.889 29.9785 137.51 29.6372 137.222 29.1998C136.945 28.7625 136.806 28.1918 136.806 27.4878C136.806 26.4852 137.041 25.6905 137.51 25.1038C137.99 24.5065 138.635 24.0798 139.446 23.8238C140.257 23.5572 141.163 23.4238 142.166 23.4238C143.009 23.4238 143.889 23.5038 144.806 23.6638C145.723 23.8132 146.63 24.0212 147.526 24.2878L147.046 29.1518Z" fill="#7E7E7E"/>
<path d="M128.299 35.9997H123.547V23.6797H129.163L130.235 28.1597H130.379L130.315 23.6797H135.067V35.9997H129.883L128.363 30.2397H128.219L128.299 35.9997Z" fill="#7E7E7E"/>
<path d="M121.781 32.6718C121.611 33.7918 121.019 34.6718 120.005 35.3118C118.992 35.9412 117.664 36.2558 116.021 36.2558C114.379 36.2558 113.051 35.9412 112.037 35.3118C111.035 34.6825 110.443 33.8132 110.261 32.7038C110.219 32.4052 110.181 32.0052 110.149 31.5038C110.128 30.9918 110.117 30.4425 110.117 29.8558C110.117 29.2905 110.128 28.7678 110.149 28.2878C110.181 27.7972 110.219 27.4132 110.261 27.1358C110.443 25.9625 111.04 25.0505 112.053 24.3998C113.067 23.7492 114.389 23.4238 116.021 23.4238C117.664 23.4238 118.992 23.7492 120.005 24.3998C121.019 25.0398 121.611 25.9305 121.781 27.0718C121.824 27.3492 121.856 27.7332 121.877 28.2238C121.909 28.7038 121.925 29.2318 121.925 29.8078C121.925 30.4158 121.909 30.9705 121.877 31.4718C121.856 31.9732 121.824 32.3732 121.781 32.6718ZM116.453 31.9358V27.7438C116.453 27.4558 116.309 27.3118 116.021 27.3118C115.733 27.3118 115.589 27.4558 115.589 27.7438V31.9358C115.589 32.2238 115.733 32.3678 116.021 32.3678C116.309 32.3678 116.453 32.2238 116.453 31.9358Z" fill="#7E7E7E"/>
<path d="M108.468 26.9917L104.708 31.6797H108.612V35.9997H97.8125V32.6877L101.572 27.9997H98.1005V23.6797H108.468V26.9917Z" fill="#7E7E7E"/>
<path d="M96.1923 36.0157L91.1523 35.9997V23.6797H96.1923V36.0157Z" fill="#7E7E7E"/>
<path d="M83.1884 35.9997H78.1484V23.6797H85.4764C86.1591 23.6797 86.7831 23.8024 87.3484 24.0477C87.9244 24.293 88.3831 24.6877 88.7244 25.2317C89.0658 25.7757 89.2364 26.501 89.2364 27.4077C89.2364 27.6637 89.2151 27.941 89.1724 28.2397C89.1404 28.5384 89.0604 28.837 88.9324 29.1357C88.8044 29.4237 88.6071 29.685 88.3404 29.9197C88.0844 30.1437 87.7324 30.3197 87.2844 30.4477L89.8124 35.9997H84.1964L83.3324 32.7037H83.1884V35.9997ZM84.2924 27.6157H82.7564V28.4797H84.3404C84.4258 28.4797 84.5164 28.453 84.6124 28.3997C84.7191 28.3464 84.7724 28.2344 84.7724 28.0637C84.7724 27.8824 84.7138 27.765 84.5964 27.7117C84.4791 27.6477 84.3778 27.6157 84.2924 27.6157Z" fill="#7E7E7E"/>
<path d="M76.3632 32.6718C76.1926 33.7918 75.6006 34.6718 74.5872 35.3118C73.5739 35.9412 72.2459 36.2558 70.6032 36.2558C68.9606 36.2558 67.6326 35.9412 66.6192 35.3118C65.6166 34.6825 65.0246 33.8132 64.8432 32.7038C64.8006 32.4052 64.7632 32.0052 64.7312 31.5038C64.7099 30.9918 64.6992 30.4425 64.6992 29.8558C64.6992 29.2905 64.7099 28.7678 64.7312 28.2878C64.7632 27.7972 64.8006 27.4132 64.8432 27.1358C65.0246 25.9625 65.6219 25.0505 66.6352 24.3998C67.6486 23.7492 68.9712 23.4238 70.6032 23.4238C72.2459 23.4238 73.5739 23.7492 74.5872 24.3998C75.6006 25.0398 76.1926 25.9305 76.3632 27.0718C76.4059 27.3492 76.4379 27.7332 76.4592 28.2238C76.4912 28.7038 76.5072 29.2318 76.5072 29.8078C76.5072 30.4158 76.4912 30.9705 76.4592 31.4718C76.4379 31.9732 76.4059 32.3732 76.3632 32.6718ZM71.0352 31.9358V27.7438C71.0352 27.4558 70.8912 27.3118 70.6032 27.3118C70.3152 27.3118 70.1712 27.4558 70.1712 27.7438V31.9358C70.1712 32.2238 70.3152 32.3678 70.6032 32.3678C70.8912 32.3678 71.0352 32.2238 71.0352 31.9358Z" fill="#7E7E7E"/>
<path d="M57.8628 27.1357V23.6797H63.0468V35.9997H57.8628V32.0317H56.5668V35.9997H51.3828V23.6797H56.5668V27.1357H57.8628Z" fill="#7E7E7E"/>
</svg>
