<svg width="167" height="60" viewBox="0 0 167 60" fill="none" xmlns="http://www.w3.org/2000/svg">
<path d="M68 23L99 23" stroke="#7E7E7E" stroke-linecap="round"/>
<path d="M125.66 24.8895V20.0759H126.669V20.872H126.715C126.82 20.6128 126.978 20.3968 127.188 20.224C127.404 20.0512 127.697 19.9648 128.067 19.9648C128.561 19.9648 128.943 20.1284 129.215 20.4555C129.492 20.7764 129.631 21.2361 129.631 21.8347V24.8895H128.622V21.9643C128.622 21.2114 128.32 20.835 127.715 20.835C127.586 20.835 127.456 20.8535 127.326 20.8905C127.203 20.9214 127.092 20.9708 126.993 21.0386C126.894 21.1065 126.814 21.1929 126.752 21.2978C126.697 21.4027 126.669 21.5262 126.669 21.6681V24.8895H125.66Z" fill="#7E7E7E"/>
<path d="M123.586 19.2126C123.376 19.2126 123.222 19.1633 123.123 19.0645C123.031 18.9658 122.984 18.8393 122.984 18.685V18.5276C122.984 18.3734 123.031 18.2468 123.123 18.1481C123.222 18.0494 123.376 18 123.586 18C123.796 18 123.947 18.0494 124.04 18.1481C124.132 18.2468 124.179 18.3734 124.179 18.5276V18.685C124.179 18.8393 124.132 18.9658 124.04 19.0645C123.947 19.1633 123.796 19.2126 123.586 19.2126ZM123.077 20.0735H124.086V24.8871H123.077V20.0735Z" fill="#7E7E7E"/>
<path d="M121.343 24.8895C121.078 24.8895 120.874 24.8154 120.732 24.6673C120.591 24.513 120.504 24.3186 120.473 24.0841H120.427C120.334 24.3865 120.165 24.6148 119.918 24.7691C119.671 24.9234 119.372 25.0005 119.02 25.0005C118.52 25.0005 118.134 24.871 117.863 24.6118C117.598 24.3526 117.465 24.0039 117.465 23.5657C117.465 23.0844 117.638 22.7234 117.983 22.4827C118.335 22.242 118.847 22.1217 119.52 22.1217H120.39V21.7144C120.39 21.4182 120.31 21.1898 120.149 21.0294C119.989 20.8689 119.739 20.7887 119.4 20.7887C119.116 20.7887 118.884 20.8504 118.705 20.9738C118.526 21.0973 118.375 21.2546 118.252 21.4459L117.65 20.8998C117.81 20.6282 118.036 20.4061 118.326 20.2333C118.616 20.0543 118.995 19.9648 119.464 19.9648C120.088 19.9648 120.566 20.1099 120.899 20.3999C121.232 20.69 121.399 21.1065 121.399 21.6496V24.0656H121.908V24.8895H121.343ZM119.307 24.2322C119.622 24.2322 119.881 24.1644 120.085 24.0286C120.288 23.8866 120.39 23.6984 120.39 23.4639V22.7697H119.538C118.841 22.7697 118.492 22.9856 118.492 23.4176V23.5843C118.492 23.8002 118.563 23.9638 118.705 24.0749C118.853 24.1798 119.054 24.2322 119.307 24.2322Z" fill="#7E7E7E"/>
<path d="M112.266 18.0371H113.275V20.8697H113.321C113.426 20.6105 113.583 20.3945 113.793 20.2217C114.009 20.0489 114.302 19.9625 114.672 19.9625C115.166 19.9625 115.549 20.1261 115.82 20.4531C116.098 20.774 116.237 21.2338 116.237 21.8324V24.8871H115.228V21.9527C115.228 21.206 114.925 20.8327 114.321 20.8327C114.191 20.8327 114.061 20.8512 113.932 20.8882C113.808 20.9191 113.697 20.9684 113.599 21.0363C113.5 21.1042 113.42 21.1906 113.358 21.2955C113.302 21.4004 113.275 21.5208 113.275 21.6565V24.8871H112.266V18.0371Z" fill="#7E7E7E"/>
<path d="M108.712 24.9979C107.867 24.9979 107.203 24.714 106.722 24.1462C106.241 23.5723 106 22.7423 106 21.6562C106 21.1131 106.062 20.6348 106.185 20.2214C106.309 19.8079 106.488 19.4592 106.722 19.1753C106.957 18.8915 107.24 18.6786 107.574 18.5366C107.913 18.3885 108.293 18.3145 108.712 18.3145C109.274 18.3145 109.743 18.4379 110.119 18.6847C110.502 18.9316 110.801 19.2957 111.017 19.777L110.138 20.2584C110.027 19.9498 109.854 19.7061 109.619 19.5271C109.391 19.342 109.089 19.2494 108.712 19.2494C108.212 19.2494 107.821 19.4191 107.537 19.7585C107.253 20.0979 107.111 20.5669 107.111 21.1656V22.1468C107.111 22.7454 107.253 23.2144 107.537 23.5538C107.821 23.8932 108.212 24.0629 108.712 24.0629C109.101 24.0629 109.416 23.9642 109.656 23.7667C109.903 23.5631 110.085 23.3039 110.203 22.9891L111.045 23.4983C110.829 23.9673 110.527 24.3345 110.138 24.5998C109.749 24.8652 109.274 24.9979 108.712 24.9979Z" fill="#7E7E7E"/>
<path fill-rule="evenodd" clip-rule="evenodd" d="M48.8783 18H38.6705C34.6699 18 32 20.8644 32 24.9661V34.5839C32 38.6895 34.6628 41.55 38.6705 41.55H48.8771C52.886 41.55 55.55 38.6895 55.55 34.5839V24.9661C55.55 20.8607 52.8863 18 48.8783 18ZM38.6705 19.7662H48.8783C51.8815 19.7662 53.7837 21.8092 53.7837 24.9661V34.5839C53.7837 37.7409 51.8814 39.7837 48.8771 39.7837H38.6705C35.6677 39.7837 33.7663 37.7412 33.7663 34.5839V24.9661C33.7663 21.8132 35.6742 19.7662 38.6705 19.7662Z" fill="#7E7E7E"/>
<path d="M38.2383 24.623H40.9177L43.7478 31.5275H43.8682L46.6981 24.623H49.3777V34.8995H47.2702V28.2108H47.1849L44.5255 34.8492H43.0904L40.431 28.1856H40.3457V34.8995H38.2383V24.623Z" fill="#7E7E7E"/>
<path d="M123.035 29.8008H125.275C126.763 29.8008 128.059 29.9608 129.243 30.8408C130.539 31.8168 131.291 33.3688 131.291 35.1448C131.291 36.9208 130.555 38.4568 129.147 39.4488C127.899 40.3288 126.731 40.4728 125.243 40.4728H123.035V29.8008ZM124.667 31.3368V38.9368H125.371C126.171 38.9368 127.275 38.8728 128.203 38.1848C128.939 37.6248 129.659 36.6008 129.659 35.1448C129.659 33.7368 128.987 32.6328 128.219 32.0728C127.291 31.4008 126.155 31.3368 125.371 31.3368H124.667Z" fill="#7E7E7E"/>
<path d="M114.794 29.6094C117.994 29.6094 120.346 32.0094 120.346 35.1454C120.346 38.2814 117.994 40.6814 114.794 40.6814C111.594 40.6814 109.242 38.2814 109.242 35.1454C109.242 32.0094 111.594 29.6094 114.794 29.6094ZM114.794 39.1774C117.082 39.1774 118.714 37.5134 118.714 35.1454C118.714 32.7774 117.082 31.1134 114.794 31.1134C112.506 31.1134 110.874 32.7774 110.874 35.1454C110.874 37.5134 112.506 39.1774 114.794 39.1774Z" fill="#7E7E7E"/>
<path d="M100.339 29.8008V34.0248H104.915V29.8008H106.547V40.4728H104.915V35.5608H100.339V40.4728H98.707V29.8008H100.339Z" fill="#7E7E7E"/>
<path d="M96.6335 31.3368H94.1855V40.4728H92.5535V31.3368H90.1055V29.8008H96.6335V31.3368Z" fill="#7E7E7E"/>
<path d="M88.4739 29.8008V31.3368H84.2179V34.0408H88.3459V35.5768H84.2179V38.9368H88.4739V40.4728H82.5859V29.8008H88.4739Z" fill="#7E7E7E"/>
<path d="M69.664 40.472H68L70.24 29L73.952 37.288L77.696 29L79.712 40.472H78.048L76.96 34.04L73.856 40.968L70.784 34.024L69.664 40.472Z" fill="#7E7E7E"/>
</svg>
