<svg width="174" height="60" viewBox="0 0 174 60" fill="none" xmlns="http://www.w3.org/2000/svg">
<path fill-rule="evenodd" clip-rule="evenodd" d="M21.8783 18H11.6705C7.66987 18 5 20.8644 5 24.9661V34.5839C5 38.6895 7.6628 41.55 11.6705 41.55H21.8771C25.886 41.55 28.55 38.6895 28.55 34.5839V24.9661C28.55 20.8607 25.8863 18 21.8783 18ZM11.6705 19.7662H21.8783C24.8815 19.7662 26.7837 21.8092 26.7837 24.9661V34.5839C26.7837 37.7409 24.8814 39.7837 21.8771 39.7837H11.6705C8.66769 39.7837 6.76625 37.7412 6.76625 34.5839V24.9661C6.76625 21.8132 8.67417 19.7662 11.6705 19.7662Z" fill="#F5A938"/>
<path d="M11.2383 24.623H13.9177L16.7478 31.5275H16.8682L19.6981 24.623H22.3777V34.8995H20.2702V28.2108H20.1849L17.5255 34.8492H16.0904L13.431 28.1856H13.3457V34.8995H11.2383V24.623Z" fill="#F5A938"/>
<path d="M159.43 26.2732H162.406V27.2572C162.694 26.9212 163.094 26.6332 163.606 26.3932C164.118 26.1532 164.678 26.0332 165.286 26.0332C166.502 26.0332 167.438 26.4012 168.094 27.1372C168.75 27.8572 169.078 28.8092 169.078 29.9932V37.0012H166.102V30.6172C166.102 30.0572 165.958 29.6012 165.67 29.2492C165.382 28.8972 164.942 28.7212 164.35 28.7212C164.126 28.7212 163.91 28.7532 163.702 28.8172C163.494 28.8812 163.302 28.9772 163.126 29.1052C162.95 29.2332 162.798 29.3932 162.67 29.5852C162.542 29.7612 162.454 29.9692 162.406 30.2092V37.0012H159.43V26.2732Z" fill="#7E7E7E"/>
<path d="M156.826 37.0001H153.85V26.2721H156.826V37.0001ZM157.114 23.1761C157.114 23.6881 156.938 24.1041 156.586 24.4241C156.234 24.7281 155.818 24.8801 155.338 24.8801C154.874 24.8801 154.466 24.7281 154.114 24.4241C153.762 24.1041 153.586 23.6881 153.586 23.1761C153.586 22.6801 153.762 22.2801 154.114 21.9761C154.466 21.6561 154.874 21.4961 155.338 21.4961C155.818 21.4961 156.234 21.6561 156.586 21.9761C156.938 22.2801 157.114 22.6801 157.114 23.1761Z" fill="#7E7E7E"/>
<path d="M148.599 37.0012V36.4252C148.423 36.6012 148.087 36.7772 147.591 36.9532C147.111 37.1132 146.575 37.1932 145.983 37.1932C145.439 37.1932 144.927 37.1212 144.447 36.9772C143.967 36.8172 143.543 36.5932 143.175 36.3052C142.823 36.0012 142.543 35.6332 142.335 35.2012C142.127 34.7692 142.023 34.2732 142.023 33.7132C142.023 33.2012 142.127 32.7372 142.335 32.3212C142.543 31.8892 142.831 31.5292 143.199 31.2412C143.583 30.9372 144.023 30.7052 144.519 30.5452C145.031 30.3692 145.583 30.2812 146.175 30.2812C146.639 30.2812 147.103 30.3452 147.567 30.4732C148.031 30.6012 148.375 30.7452 148.599 30.9052V30.1132C148.599 29.6492 148.455 29.2572 148.167 28.9372C147.895 28.6172 147.463 28.4572 146.871 28.4572C146.439 28.4572 146.095 28.5452 145.839 28.7212C145.583 28.8972 145.399 29.1452 145.287 29.4652H142.455C142.535 28.9852 142.695 28.5372 142.935 28.1212C143.191 27.7052 143.511 27.3452 143.895 27.0412C144.295 26.7212 144.751 26.4732 145.263 26.2972C145.775 26.1212 146.335 26.0332 146.943 26.0332C148.383 26.0332 149.495 26.4012 150.279 27.1372C151.063 27.8572 151.455 28.8652 151.455 30.1612V37.0012H148.599ZM148.599 33.3052C148.551 33.1612 148.463 33.0332 148.335 32.9212C148.207 32.8092 148.055 32.7132 147.879 32.6332C147.703 32.5372 147.511 32.4732 147.303 32.4412C147.095 32.3932 146.887 32.3692 146.679 32.3692C146.439 32.3692 146.207 32.3932 145.983 32.4412C145.759 32.4892 145.551 32.5692 145.359 32.6812C145.183 32.7932 145.039 32.9372 144.927 33.1132C144.831 33.2732 144.783 33.4652 144.783 33.6892C144.783 33.9292 144.831 34.1292 144.927 34.2892C145.039 34.4492 145.183 34.5852 145.359 34.6972C145.551 34.8092 145.759 34.8892 145.983 34.9372C146.207 34.9852 146.439 35.0092 146.679 35.0092C146.887 35.0092 147.095 34.9932 147.303 34.9612C147.511 34.9132 147.703 34.8492 147.879 34.7692C148.055 34.6892 148.207 34.5932 148.335 34.4812C148.463 34.3692 148.551 34.2412 148.599 34.0972V33.3052Z" fill="#7E7E7E"/>
<path d="M130.555 21.4004H133.531V27.2564C133.819 26.9204 134.219 26.6324 134.731 26.3924C135.243 26.1524 135.803 26.0324 136.411 26.0324C137.627 26.0324 138.563 26.4004 139.219 27.1364C139.875 27.8564 140.203 28.8084 140.203 29.9924V37.0004H137.227V30.6164C137.227 30.0564 137.083 29.6004 136.795 29.2484C136.507 28.8964 136.067 28.7204 135.475 28.7204C135.251 28.7204 135.035 28.7524 134.827 28.8164C134.619 28.8804 134.427 28.9764 134.251 29.1044C134.075 29.2324 133.923 29.3924 133.795 29.5844C133.667 29.7604 133.579 29.9684 133.531 30.2084V37.0004H130.555V21.4004Z" fill="#7E7E7E"/>
<path d="M115.586 29.6314C115.586 28.5114 115.762 27.4874 116.114 26.5594C116.466 25.6154 116.946 24.8074 117.554 24.1354C118.162 23.4634 118.882 22.9434 119.714 22.5754C120.562 22.2074 121.474 22.0234 122.45 22.0234C123.314 22.0234 124.098 22.1514 124.802 22.4074C125.506 22.6474 126.114 22.9834 126.626 23.4154C127.138 23.8474 127.554 24.3754 127.874 24.9994C128.21 25.6074 128.45 26.2794 128.594 27.0154H125.57C125.314 26.3434 124.938 25.7994 124.442 25.3834C123.962 24.9674 123.298 24.7594 122.45 24.7594C121.858 24.7594 121.33 24.8794 120.866 25.1194C120.402 25.3594 120.002 25.7034 119.666 26.1514C119.346 26.5834 119.098 27.0954 118.922 27.6874C118.762 28.2794 118.682 28.9274 118.682 29.6314C118.682 30.3354 118.762 30.9834 118.922 31.5754C119.098 32.1674 119.346 32.6794 119.666 33.1114C120.002 33.5434 120.402 33.8874 120.866 34.1434C121.33 34.3834 121.858 34.5034 122.45 34.5034C123.298 34.5034 123.962 34.2954 124.442 33.8794C124.938 33.4634 125.314 32.9114 125.57 32.2234H128.594C128.45 32.9754 128.21 33.6634 127.874 34.2874C127.554 34.8954 127.13 35.4154 126.602 35.8474C126.09 36.2794 125.482 36.6234 124.778 36.8794C124.09 37.1194 123.314 37.2394 122.45 37.2394C121.474 37.2394 120.562 37.0554 119.714 36.6874C118.882 36.3194 118.162 35.7994 117.554 35.1274C116.946 34.4554 116.466 33.6554 116.114 32.7274C115.762 31.7834 115.586 30.7514 115.586 29.6314Z" fill="#7E7E7E"/>
<path d="M105.543 36.1124C105.415 36.2564 105.255 36.4004 105.063 36.5444C104.887 36.6724 104.679 36.7924 104.439 36.9044C104.215 37.0004 103.959 37.0804 103.671 37.1444C103.399 37.2084 103.127 37.2404 102.855 37.2404C102.071 37.2404 101.375 37.0964 100.767 36.8084C100.159 36.5204 99.647 36.1204 99.231 35.6084C98.815 35.0964 98.495 34.5044 98.271 33.8324C98.063 33.1444 97.959 32.4164 97.959 31.6484C97.959 30.8644 98.063 30.1364 98.271 29.4644C98.495 28.7924 98.815 28.2004 99.231 27.6884C99.647 27.1764 100.159 26.7764 100.767 26.4884C101.375 26.1844 102.071 26.0324 102.855 26.0324C103.127 26.0324 103.399 26.0644 103.671 26.1284C103.959 26.1924 104.215 26.2804 104.439 26.3924C104.679 26.4884 104.887 26.6084 105.063 26.7524C105.255 26.8964 105.415 27.0404 105.543 27.1844V21.4004H108.519V37.0004H105.543V36.1124ZM105.543 29.8724C105.367 29.5044 105.095 29.2084 104.727 28.9844C104.359 28.7444 103.951 28.6244 103.503 28.6244C103.103 28.6244 102.743 28.7044 102.423 28.8644C102.103 29.0244 101.831 29.2404 101.607 29.5124C101.399 29.7684 101.231 30.0804 101.103 30.4484C100.991 30.8164 100.935 31.2164 100.935 31.6484C100.935 32.0804 100.991 32.4804 101.103 32.8484C101.231 33.2164 101.399 33.5364 101.607 33.8084C101.831 34.0644 102.103 34.2724 102.423 34.4324C102.743 34.5764 103.103 34.6484 103.503 34.6484C103.951 34.6484 104.359 34.5364 104.727 34.3124C105.095 34.0724 105.367 33.7684 105.543 33.4004V29.8724Z" fill="#7E7E7E"/>
<path d="M96.7054 31.6492C96.7054 32.4652 96.5774 33.2172 96.3214 33.9052C96.0654 34.5932 95.7054 35.1852 95.2414 35.6812C94.7934 36.1772 94.2414 36.5612 93.5854 36.8332C92.9454 37.1052 92.2334 37.2412 91.4494 37.2412C90.6654 37.2412 89.9454 37.1052 89.2894 36.8332C88.6494 36.5612 88.0974 36.1772 87.6334 35.6812C87.1854 35.1852 86.8334 34.5932 86.5774 33.9052C86.3214 33.2172 86.1934 32.4652 86.1934 31.6492C86.1934 30.8172 86.3214 30.0652 86.5774 29.3932C86.8334 28.7052 87.1854 28.1132 87.6334 27.6172C88.0974 27.1052 88.6494 26.7132 89.2894 26.4412C89.9454 26.1692 90.6654 26.0332 91.4494 26.0332C92.2334 26.0332 92.9454 26.1692 93.5854 26.4412C94.2414 26.7132 94.7934 27.1052 95.2414 27.6172C95.7054 28.1132 96.0654 28.7052 96.3214 29.3932C96.5774 30.0652 96.7054 30.8172 96.7054 31.6492ZM93.7534 31.6492C93.7534 31.2012 93.7054 30.7852 93.6094 30.4012C93.5134 30.0172 93.3614 29.6892 93.1534 29.4172C92.9614 29.1452 92.7214 28.9372 92.4334 28.7932C92.1454 28.6332 91.8174 28.5532 91.4494 28.5532C91.0814 28.5532 90.7534 28.6332 90.4654 28.7932C90.1774 28.9372 89.9294 29.1452 89.7214 29.4172C89.5294 29.6892 89.3854 30.0172 89.2894 30.4012C89.1934 30.7852 89.1454 31.2012 89.1454 31.6492C89.1454 32.0972 89.1934 32.5132 89.2894 32.8972C89.3854 33.2652 89.5294 33.5852 89.7214 33.8572C89.9294 34.1292 90.1774 34.3452 90.4654 34.5052C90.7534 34.6652 91.0814 34.7452 91.4494 34.7452C91.8174 34.7452 92.1454 34.6652 92.4334 34.5052C92.7214 34.3452 92.9614 34.1292 93.1534 33.8572C93.3614 33.5852 93.5134 33.2652 93.6094 32.8972C93.7054 32.5132 93.7534 32.0972 93.7534 31.6492Z" fill="#7E7E7E"/>
<path d="M74.75 21.4004H77.726V27.2564C78.014 26.9204 78.414 26.6324 78.926 26.3924C79.438 26.1524 79.998 26.0324 80.606 26.0324C81.822 26.0324 82.758 26.4004 83.414 27.1364C84.07 27.8564 84.398 28.8084 84.398 29.9924V37.0004H81.422V30.6164C81.422 30.0564 81.278 29.6004 80.99 29.2484C80.702 28.8964 80.262 28.7204 79.67 28.7204C79.446 28.7204 79.23 28.7524 79.022 28.8164C78.814 28.8804 78.622 28.9764 78.446 29.1044C78.27 29.2324 78.118 29.3924 77.99 29.5844C77.862 29.7604 77.774 29.9684 77.726 30.2084V37.0004H74.75V21.4004Z" fill="#7E7E7E"/>
<path d="M67.1242 28.6731H65.4922V26.2731H67.1242V23.3691H70.0762V26.2731H72.4282V28.6731H70.0762V33.3771C70.0762 33.8091 70.1802 34.1211 70.3882 34.3131C70.6122 34.5051 70.9162 34.6011 71.3002 34.6011C71.5242 34.6011 71.7482 34.5691 71.9722 34.5051C72.2122 34.4411 72.4202 34.3611 72.5962 34.2651V36.8811C72.3882 36.9931 72.1162 37.0731 71.7802 37.1211C71.4442 37.1851 71.0762 37.2171 70.6762 37.2171C69.5882 37.2171 68.7242 36.9451 68.0842 36.4011C67.4442 35.8411 67.1242 34.9611 67.1242 33.7611V28.6731Z" fill="#7E7E7E"/>
<path d="M64.5127 33.4972C64.3367 34.6332 63.8407 35.5452 63.0247 36.2332C62.2087 36.9052 61.1287 37.2412 59.7847 37.2412C59.0007 37.2412 58.2887 37.1052 57.6487 36.8332C57.0087 36.5612 56.4567 36.1772 55.9927 35.6812C55.5447 35.1852 55.1927 34.6012 54.9367 33.9292C54.6807 33.2412 54.5527 32.4812 54.5527 31.6492C54.5527 30.8332 54.6807 30.0892 54.9367 29.4172C55.1927 28.7292 55.5447 28.1372 55.9927 27.6412C56.4567 27.1292 57.0087 26.7372 57.6487 26.4652C58.2887 26.1772 58.9767 26.0332 59.7127 26.0332C60.5127 26.0332 61.2087 26.1692 61.8007 26.4412C62.4087 26.6972 62.9127 27.0572 63.3127 27.5212C63.7287 27.9852 64.0407 28.5452 64.2487 29.2012C64.4727 29.8572 64.5847 30.5772 64.5847 31.3612V32.2732H57.4327C57.4647 32.6732 57.5367 33.0332 57.6487 33.3532C57.7767 33.6732 57.9367 33.9452 58.1287 34.1692C58.3367 34.3932 58.5767 34.5612 58.8487 34.6732C59.1367 34.7852 59.4487 34.8412 59.7847 34.8412C60.2807 34.8412 60.7047 34.7292 61.0567 34.5052C61.4087 34.2812 61.6407 33.9452 61.7527 33.4972H64.5127ZM59.7367 28.4332C59.4487 28.4332 59.1847 28.4812 58.9447 28.5772C58.7047 28.6732 58.4887 28.8092 58.2967 28.9852C58.1047 29.1452 57.9367 29.3532 57.7927 29.6092C57.6647 29.8492 57.5687 30.1372 57.5047 30.4732H61.6807C61.6647 30.1852 61.6167 29.9212 61.5367 29.6812C61.4567 29.4252 61.3287 29.2092 61.1527 29.0332C60.9927 28.8412 60.7927 28.6972 60.5527 28.6012C60.3287 28.4892 60.0567 28.4332 59.7367 28.4332Z" fill="#7E7E7E"/>
<path d="M43.944 36.9997L40.32 27.3757V36.9997H37.416V22.2637H41.064L45 32.6797L48.936 22.2637H52.512V36.9997H49.608V27.3757L46.032 36.9997H43.944Z" fill="#7E7E7E"/>
</svg>
