<svg width="156" height="60" viewBox="0 0 156 60" fill="none" xmlns="http://www.w3.org/2000/svg">
<path fill-rule="evenodd" clip-rule="evenodd" d="M107.602 21.0383C107.602 21.0383 110.518 23.9189 111.744 25.1424L113.724 23.1985C114.009 22.8821 114.47 22.7433 114.821 22.7433L126.856 22.7244C128.348 22.6476 129.64 22.0693 130.653 20.9952C132.377 19.167 132.845 16.9998 131.906 14.6711C130.952 12.3117 129.088 11.0389 126.543 11.0099C126.543 11.0099 111.679 11.0099 111.679 11C109.226 11.0113 107.14 12.4289 106.285 14.7197C105.408 17.0704 105.869 19.216 107.602 21.0383ZM114.623 16.8965C114.623 18.1982 113.568 19.2535 112.266 19.2535C110.964 19.2535 109.908 18.1982 109.908 16.8965C109.908 15.5947 110.964 14.5394 112.266 14.5394C113.568 14.5394 114.623 15.5947 114.623 16.8965ZM119.216 19.2537C120.518 19.2537 121.573 18.1984 121.573 16.8966C121.573 15.5948 120.518 14.5396 119.216 14.5396C117.914 14.5396 116.858 15.5948 116.858 16.8966C116.858 18.1984 117.914 19.2537 119.216 19.2537ZM128.169 16.8965C128.169 18.1982 127.113 19.2535 125.812 19.2535C124.51 19.2535 123.455 18.1982 123.455 16.8965C123.455 15.5947 124.51 14.5394 125.812 14.5394C127.113 14.5394 128.169 15.5947 128.169 16.8965Z" fill="#7E7E7E"/>
<path d="M34.3632 37.1843L37.9309 39.4055L36.2736 41.7303L31.5436 38.5308C31.2444 38.5922 30.9413 38.6421 30.6344 38.6805C30.3352 38.7188 30.036 38.738 29.7368 38.738C28.6089 38.738 27.577 38.5271 26.6409 38.105C25.7126 37.6831 24.9146 37.0923 24.2471 36.3327C23.5796 35.5731 23.0656 34.6755 22.705 33.6397C22.3444 32.6039 22.1641 31.4722 22.1641 30.2446V29.9914C22.1641 28.7715 22.3444 27.6437 22.705 26.6079C23.0656 25.5721 23.5796 24.6706 24.2471 23.9034C24.9146 23.1438 25.7126 22.553 26.6409 22.131C27.5693 21.7091 28.5974 21.498 29.7253 21.498C30.8607 21.498 31.8966 21.7091 32.8326 22.131C33.7686 22.553 34.5742 23.1438 35.2494 23.9034C35.9323 24.6706 36.454 25.5721 36.8146 26.6079C37.1752 27.6437 37.3555 28.7715 37.3555 29.9914V30.2446C37.3555 31.7024 37.0908 33.0336 36.5614 34.2382C36.0396 35.4427 35.3069 36.4248 34.3632 37.1843ZM29.7368 36.1256C30.6958 36.1256 31.4899 35.88 32.119 35.389C32.7558 34.898 33.2277 34.2113 33.5346 33.3289C33.8492 32.4466 34.0065 31.4185 34.0065 30.2446V29.9684C34.0065 28.8099 33.8453 27.7895 33.5231 26.9071C33.2009 26.0324 32.7214 25.3496 32.0845 24.8585C31.4554 24.3676 30.669 24.122 29.7253 24.122C28.7815 24.122 27.9989 24.3637 27.3775 24.8471C26.756 25.3381 26.2918 26.021 25.9849 26.8957C25.678 27.7702 25.5246 28.7945 25.5246 29.9684V30.2446C25.5246 31.4032 25.6819 32.4313 25.9964 33.3289C26.311 34.2113 26.779 34.898 27.4005 35.389C28.0296 35.88 28.8084 36.1256 29.7368 36.1256Z" fill="#7E7E7E"/>
<path d="M44.2713 38.7386C43.0437 38.7386 41.9887 38.4701 41.1064 37.9331C40.2241 37.396 39.5489 36.6517 39.0809 35.7003C38.6129 34.7413 38.3789 33.6403 38.3789 32.3974V32.1557C38.3789 30.9051 38.6129 29.8079 39.0809 28.8642C39.5489 27.9052 40.2203 27.1571 41.0949 26.62C41.9773 26.0829 43.0284 25.8145 44.2483 25.8145C45.4912 25.8145 46.5462 26.0829 47.4132 26.62C48.2878 27.1571 48.9592 27.9052 49.4272 28.8642C49.8952 29.8156 50.1292 30.9128 50.1292 32.1557V32.3974C50.1292 33.648 49.8952 34.7452 49.4272 35.6889C48.9592 36.6403 48.2878 37.3883 47.4132 37.9331C46.5385 38.4701 45.4912 38.7386 44.2713 38.7386ZM44.2713 36.1607C44.8467 36.1607 45.3225 36.0035 45.6984 35.6889C46.0666 35.3743 46.3391 34.9369 46.5155 34.3769C46.692 33.8092 46.7802 33.1493 46.7802 32.3974V32.1557C46.7802 31.4268 46.692 30.7747 46.5155 30.1992C46.3391 29.6315 46.0629 29.1904 45.6868 28.8758C45.3186 28.5612 44.8391 28.4039 44.2483 28.4039C43.6805 28.4039 43.2049 28.5612 42.8213 28.8758C42.4452 29.198 42.169 29.643 41.9926 30.2108C41.8238 30.7709 41.7394 31.4191 41.7394 32.1557V32.3974C41.7394 33.1416 41.8277 33.8015 42.0041 34.3769C42.1806 34.9446 42.4529 35.3858 42.8213 35.7003C43.1972 36.0072 43.6805 36.1607 44.2713 36.1607Z" fill="#7E7E7E"/>
<path d="M60.9365 30.9571H60.8673L60.4646 32.3382L58.2204 38.4953H55.2397L52.3395 28.3447L50.8203 28.0685V26.043H56.8393V28.057L55.5274 28.3102L56.6783 33.1553L56.9084 34.1106H56.9775L57.2882 33.1553L59.8432 26.043H62.0988L64.5732 33.2474L64.8955 34.2602H64.9645L65.2637 33.2474L66.6217 28.3217L65.1716 28.057V26.043H71.0641V28.0685L69.614 28.3447L66.4491 38.4953H63.618L61.3392 32.3267L60.9365 30.9571Z" fill="#7E7E7E"/>
<path d="M75.8286 38.7386C74.5933 38.7386 73.6113 38.4087 72.8825 37.7489C72.1535 37.0814 71.7891 36.1761 71.7891 35.0329C71.7891 34.2503 72.0039 33.5636 72.4336 32.9728C72.8632 32.382 73.4924 31.9179 74.321 31.5803C75.1497 31.2427 76.1739 31.0739 77.3938 31.0739H79.0395V30.1532C79.0395 29.5547 78.8631 29.0714 78.5102 28.7031C78.1648 28.3271 77.6432 28.1392 76.9449 28.1392C76.5843 28.1392 76.2583 28.1852 75.9668 28.2773C75.6829 28.3617 75.4258 28.4844 75.1957 28.6456L74.9309 30.2913H72.5141L72.4681 27.0574C73.1202 26.6891 73.8262 26.3898 74.5857 26.1597C75.3453 25.9295 76.1931 25.8145 77.1291 25.8145C78.7556 25.8145 80.0408 26.1942 80.9845 26.9538C81.9282 27.7057 82.4 28.7837 82.4 30.1878V35.3206C82.4 35.4894 82.4 35.6582 82.4 35.8269C82.4077 35.9881 82.4231 36.1454 82.4461 36.2988L83.7466 36.483V38.497H79.5805C79.496 38.2821 79.4117 38.052 79.3273 37.8065C79.2428 37.5609 79.1815 37.3154 79.1431 37.0699C78.7442 37.5763 78.2723 37.9829 77.7276 38.2898C77.1905 38.589 76.5575 38.7386 75.8286 38.7386ZM76.7263 36.2528C77.1944 36.2528 77.6393 36.1492 78.0614 35.9421C78.4833 35.7272 78.8094 35.4472 79.0395 35.1019V33.1339H77.3823C76.6457 33.1339 76.0857 33.3027 75.702 33.6403C75.3261 33.9779 75.1381 34.3846 75.1381 34.8602C75.1381 35.3053 75.2762 35.6505 75.5524 35.896C75.8363 36.1338 76.2276 36.2528 76.7263 36.2528Z" fill="#7E7E7E"/>
<path d="M89.2731 20.543V36.1371L90.8958 36.4824V38.4964H84.2899V36.4824L85.9126 36.1371V22.9137L84.1172 22.5684V20.543H89.2731Z" fill="#7E7E7E"/>
<path d="M96.4183 38.738C95.2598 38.738 94.366 38.4196 93.7368 37.7828C93.1154 37.146 92.8046 36.137 92.8046 34.756V28.4032H91.0898V26.044H92.8046V22.9941H96.1537V26.044H98.4439V28.4032H96.1537V34.7445C96.1537 35.2279 96.2534 35.5731 96.4529 35.7803C96.6601 35.9874 96.9401 36.091 97.293 36.091C97.4772 36.091 97.6766 36.0796 97.8914 36.0565C98.1063 36.0258 98.2904 35.9951 98.4439 35.9644L98.7316 38.3928C98.3863 38.4925 98.0104 38.5731 97.6038 38.6344C97.2047 38.7035 96.8097 38.738 96.4183 38.738Z" fill="#7E7E7E"/>
<path d="M104.867 38.7371C103.939 38.7371 103.071 38.6489 102.266 38.4725C101.468 38.296 100.701 38.0428 99.9642 37.7128L99.9297 34.1913H102.266L102.715 35.9866C102.976 36.117 103.259 36.2206 103.566 36.2973C103.881 36.374 104.238 36.4123 104.637 36.4123C105.389 36.4123 105.918 36.2896 106.225 36.0441C106.532 35.7986 106.685 35.4917 106.685 35.1234C106.685 34.7705 106.524 34.4636 106.202 34.2027C105.864 33.9342 105.212 33.7041 104.245 33.5122C102.772 33.2053 101.687 32.7296 100.988 32.0851C100.29 31.4406 99.9411 30.6159 99.9411 29.6108C99.9411 28.9125 100.118 28.2834 100.471 27.7234C100.816 27.1556 101.345 26.6991 102.059 26.3539C102.78 26.0085 103.701 25.8359 104.821 25.8359C105.757 25.8359 106.612 25.928 107.387 26.1121C108.17 26.2886 108.826 26.5226 109.355 26.8142L109.39 30.2207H107.065L106.708 28.5865C106.302 28.2796 105.742 28.1261 105.028 28.1261C104.437 28.1261 103.985 28.2451 103.67 28.4829C103.355 28.7208 103.198 29.0277 103.198 29.4036C103.198 29.6185 103.256 29.8179 103.371 30.0021C103.494 30.2093 103.743 30.3933 104.119 30.5545C104.502 30.7156 104.951 30.8575 105.465 30.9803C107.007 31.3333 108.131 31.8051 108.837 32.3959C109.543 32.979 109.896 33.7999 109.896 34.8587C109.896 36.0173 109.474 36.9533 108.63 37.6668C107.794 38.3803 106.539 38.7371 104.867 38.7371Z" fill="#7E7E7E"/>
</svg>
