<svg width="130" height="60" viewBox="0 0 130 60" fill="none" xmlns="http://www.w3.org/2000/svg">
<g clip-path="url(#clip0_914_12)">
<path d="M25.515 39L23.0707 34.2777L27.2008 30.1028L31.8309 38.9997L25.515 39ZM13 37.4921V28.6899L13.2412 28.4399L17.7248 32.7958L13 37.4921ZM13 21.7056V19H15.6425L13 21.7056ZM22.4628 19H23.3901C23.8553 19 24.334 19.0646 24.8299 19.1983C25.3255 19.3275 25.8086 19.5126 26.2742 19.7453C26.7397 19.9778 27.1707 20.2538 27.5631 20.5766C27.9599 20.8997 28.2959 21.2661 28.5807 21.6711C28.9255 22.1752 29.1887 22.7223 29.3693 23.3082C29.555 23.8942 29.6454 24.493 29.6454 25.1007C29.6454 26.07 29.4214 26.9878 28.9772 27.8451C28.9123 27.9744 28.8433 28.0952 28.7702 28.2156L25.3817 24.9241L20.6914 29.7496L16.2034 25.3937L22.4628 19Z" fill="#7E7E7E"/>
</g>
<path d="M100.725 35.5426C99.9625 35.8506 99.2439 36.0706 98.5692 36.2026C97.8945 36.3346 97.2565 36.4006 96.6552 36.4006C94.9979 36.4006 93.7439 35.9313 92.8932 34.9926C92.0425 34.054 91.6172 32.8073 91.6172 31.2526V29.9326C91.6172 28.8913 91.8079 27.9893 92.1892 27.2266C92.5705 26.464 93.1132 25.87 93.8172 25.4446C94.5212 25.0193 95.3499 24.8066 96.3032 24.8066C97.0805 24.8066 97.8065 24.968 98.4812 25.2906C99.1705 25.5986 99.7279 26.09 100.153 26.7646C100.593 27.4246 100.813 28.2753 100.813 29.3166C100.813 29.6246 100.791 29.9546 100.747 30.3066C100.703 30.644 100.63 31.0033 100.527 31.3846H94.0592C94.0885 32.294 94.3159 32.976 94.7412 33.4306C95.1665 33.8853 95.8485 34.1126 96.7872 34.1126C97.2859 34.1126 97.7992 34.054 98.3272 33.9366C98.8699 33.8193 99.4272 33.6433 99.9992 33.4086L100.725 35.5426ZM96.3032 26.9406C95.6285 26.9406 95.1005 27.1606 94.7192 27.6006C94.3525 28.026 94.1399 28.642 94.0812 29.4486H98.3052C98.3199 29.3753 98.3272 29.3093 98.3272 29.2506C98.3272 29.1773 98.3272 29.1113 98.3272 29.0526C98.3272 28.3486 98.1292 27.8206 97.7332 27.4686C97.3372 27.1166 96.8605 26.9406 96.3032 26.9406Z" fill="#7E7E7E"/>
<path d="M86.3761 36.1813V34.7073C85.7015 35.294 85.0708 35.7267 84.4841 36.0053C83.8975 36.2693 83.3035 36.4013 82.7021 36.4013C81.7048 36.4013 80.9348 36.064 80.3921 35.3893C79.8495 34.7 79.5781 33.7393 79.5781 32.5073V25.0273H82.1081V32.1993C82.1081 33.4313 82.5628 34.0473 83.4721 34.0473C83.8388 34.0473 84.2348 33.9593 84.6601 33.7833C85.1001 33.6073 85.6281 33.27 86.2441 32.7713V25.0273H88.7741V36.1813H86.3761Z" fill="#7E7E7E"/>
<path d="M77.3061 37.3026C77.3061 38.4906 76.8367 39.4146 75.8981 40.0746C74.9741 40.7493 73.6834 41.0866 72.0261 41.0866C71.2487 41.0866 70.4274 40.9986 69.5621 40.8226C68.6967 40.6466 67.8974 40.3533 67.1641 39.9426L67.8901 37.9406C68.5941 38.2926 69.2907 38.542 69.9801 38.6886C70.6694 38.85 71.3441 38.9306 72.0041 38.9306C72.9281 38.9306 73.6321 38.806 74.1161 38.5566C74.6001 38.3073 74.8421 37.9773 74.8421 37.5666C74.8421 36.936 74.4681 36.6206 73.7201 36.6206H71.0801C70.3614 36.6206 69.7821 36.5033 69.3421 36.2686C68.9021 36.034 68.5794 35.7333 68.3741 35.3666C68.1687 34.9853 68.0661 34.5893 68.0661 34.1786C68.0661 33.7533 68.1541 33.3573 68.3301 32.9906C68.5207 32.6093 68.7774 32.2573 69.1001 31.9346C68.5721 31.612 68.1467 31.1793 67.8241 30.6366C67.5161 30.094 67.3621 29.4413 67.3621 28.6786C67.3621 27.8133 67.5454 27.0946 67.9121 26.5226C68.2787 25.9506 68.7774 25.5253 69.4081 25.2466C70.0534 24.9533 70.7647 24.8066 71.5421 24.8066H71.9161C72.2094 24.8066 72.4954 24.8286 72.7741 24.8726C73.0527 24.902 73.3167 24.9533 73.5661 25.0266H77.5481V27.1826L75.3481 26.8306C75.5681 27.0653 75.7367 27.3586 75.8541 27.7106C75.9861 28.048 76.0521 28.466 76.0521 28.9646C76.0521 29.7126 75.8614 30.358 75.4801 30.9006C75.1134 31.4286 74.6147 31.8393 73.9841 32.1326C73.3681 32.4113 72.6787 32.5506 71.9161 32.5506H71.5421C71.2487 32.5506 70.9701 32.5286 70.7061 32.4846C70.5447 32.6606 70.4274 32.844 70.3541 33.0346C70.2807 33.2106 70.2441 33.3793 70.2441 33.5406C70.2441 34.054 70.5741 34.3106 71.2341 34.3106H73.9181C74.9301 34.3106 75.7441 34.5746 76.3601 35.1026C76.9907 35.616 77.3061 36.3493 77.3061 37.3026ZM71.9161 30.4826C72.3707 30.4826 72.7667 30.3286 73.1041 30.0206C73.4561 29.7126 73.6321 29.2653 73.6321 28.6786C73.6321 28.092 73.4561 27.6446 73.1041 27.3366C72.7667 27.0286 72.3707 26.8746 71.9161 26.8746H71.5421C71.0727 26.8746 70.6621 27.0286 70.3101 27.3366C69.9727 27.6446 69.8041 28.092 69.8041 28.6786C69.8041 29.2653 69.9727 29.7126 70.3101 30.0206C70.6621 30.3286 71.0727 30.4826 71.5421 30.4826H71.9161Z" fill="#7E7E7E"/>
<path d="M65.2055 29.9326V31.2526C65.2055 32.8073 64.7802 34.054 63.9295 34.9926C63.0788 35.9313 61.8762 36.4006 60.3215 36.4006C58.7668 36.4006 57.5642 35.9313 56.7135 34.9926C55.8628 34.054 55.4375 32.8073 55.4375 31.2526V29.9326C55.4375 28.378 55.8555 27.1386 56.6915 26.2146C57.5422 25.276 58.7522 24.8066 60.3215 24.8066C61.8908 24.8066 63.0935 25.276 63.9295 26.2146C64.7802 27.1386 65.2055 28.378 65.2055 29.9326ZM62.6095 29.9326C62.6095 29.038 62.4115 28.3413 62.0155 27.8426C61.6195 27.3293 61.0548 27.0726 60.3215 27.0726C59.5882 27.0726 59.0235 27.3293 58.6275 27.8426C58.2315 28.3413 58.0335 29.038 58.0335 29.9326V31.2526C58.0335 32.1473 58.2315 32.8513 58.6275 33.3646C59.0235 33.878 59.5882 34.1346 60.3215 34.1346C61.0548 34.1346 61.6195 33.878 62.0155 33.3646C62.4115 32.8513 62.6095 32.1473 62.6095 31.2526V29.9326Z" fill="#7E7E7E"/>
<path d="M45.64 30.6807V36.1807H43V21.2207H47.994C49.5047 21.2207 50.6633 21.6094 51.47 22.3867C52.2913 23.1494 52.702 24.176 52.702 25.4667V26.4127C52.702 27.2634 52.5187 28.0114 52.152 28.6567C51.7853 29.302 51.2573 29.7934 50.568 30.1307C51.7707 32.184 52.7973 34.2007 53.648 36.1807H50.634C49.9007 34.3474 49.028 32.514 48.016 30.6807H45.64ZM47.994 23.6407H45.64V28.2607H47.994C48.6393 28.2607 49.1307 28.0994 49.468 27.7767C49.82 27.4394 49.996 26.9847 49.996 26.4127V25.4667C49.996 24.9094 49.82 24.4694 49.468 24.1467C49.1307 23.8094 48.6393 23.6407 47.994 23.6407Z" fill="#7E7E7E"/>
<path d="M111.6 37.2207C110.559 37.2207 109.657 37.0227 108.894 36.6267C108.131 36.2307 107.537 35.6734 107.112 34.9547C106.701 34.236 106.496 33.3927 106.496 32.4247V25.5167C106.496 24.5487 106.701 23.7054 107.112 22.9867C107.537 22.268 108.131 21.7107 108.894 21.3147C109.657 20.9187 110.559 20.7207 111.6 20.7207C112.656 20.7207 113.558 20.9187 114.306 21.3147C115.069 21.7107 115.655 22.268 116.066 22.9867C116.491 23.7054 116.704 24.5487 116.704 25.5167V32.4247C116.704 33.3927 116.491 34.236 116.066 34.9547C115.655 35.6734 115.069 36.2307 114.306 36.6267C113.543 37.0227 112.641 37.2207 111.6 37.2207ZM111.6 34.8447C112.363 34.8447 112.971 34.6247 113.426 34.1847C113.881 33.7447 114.108 33.158 114.108 32.4247V25.5167C114.108 24.7834 113.881 24.1967 113.426 23.7567C112.971 23.3167 112.363 23.0967 111.6 23.0967C110.837 23.0967 110.229 23.3167 109.774 23.7567C109.319 24.1967 109.092 24.7834 109.092 25.5167V32.4247C109.092 33.158 109.319 33.7447 109.774 34.1847C110.229 34.6247 110.837 34.8447 111.6 34.8447ZM111.6 30.4007C111.175 30.4007 110.823 30.2614 110.544 29.9827C110.28 29.704 110.148 29.3447 110.148 28.9047C110.148 28.4647 110.28 28.1127 110.544 27.8487C110.808 27.5847 111.16 27.4527 111.6 27.4527C112.04 27.4527 112.392 27.5847 112.656 27.8487C112.92 28.1127 113.052 28.4647 113.052 28.9047C113.052 29.3447 112.92 29.704 112.656 29.9827C112.392 30.2614 112.04 30.4007 111.6 30.4007Z" fill="#7E7E7E"/>
<defs>
<clipPath id="clip0_914_12">
<rect width="18.8306" height="20" fill="white" transform="translate(13 19)"/>
</clipPath>
</defs>
</svg>
