<svg width="156" height="60" viewBox="0 0 156 60" fill="none" xmlns="http://www.w3.org/2000/svg">
<path d="M50.2008 32.957C49.7646 32.957 49.4029 33.3187 49.4029 33.7549C49.4029 36.9039 47.2113 39.5422 44.2645 40.2337L44.5517 39.7551C44.7751 39.3721 44.6581 38.8826 44.2751 38.6592C43.9028 38.4358 43.4027 38.5528 43.1793 38.9358L42.0623 40.7975C41.9134 41.0422 41.9134 41.3507 42.0517 41.5954C42.19 41.8508 42.4559 41.9997 42.7432 41.9997C47.2858 41.9997 50.988 38.2975 50.988 33.7549C50.9987 33.3187 50.637 32.957 50.2008 32.957Z" fill="#7E7E7E"/>
<path d="M34.2449 17C29.7022 17 26 20.7022 26 25.2449C26 25.6811 26.3617 26.0428 26.7979 26.0428C27.2341 26.0428 27.5958 25.6811 27.5958 25.2449C27.5958 22.0959 29.7873 19.4575 32.7342 18.766L32.447 19.2447C32.2235 19.6277 32.3406 20.1171 32.7236 20.3405C33.0959 20.5639 33.5959 20.4469 33.8193 20.0639L34.9364 18.2022C35.0747 17.9575 35.0853 17.6596 34.9364 17.4043C34.7981 17.1596 34.5321 17 34.2449 17Z" fill="#7E7E7E"/>
<path d="M48.6053 25.9917C48.6053 29.2684 46.2223 31.9706 43.1052 32.4706C43.1052 32.46 43.1052 32.46 43.1052 32.4493C42.7967 28.4811 39.5838 25.247 35.5625 24.9279C36.0625 21.8108 38.7647 19.4277 42.0413 19.4277C45.6691 19.4277 48.6053 22.364 48.6053 25.9917Z" fill="#7E7E7E"/>
<path d="M36.1661 31.875C36.1661 31.7154 35.9853 31.4707 35.7619 31.4707H33.5703V32.2686H35.7619C35.9853 32.2792 36.1661 32.0984 36.1661 31.875Z" fill="#7E7E7E"/>
<path d="M36.1874 33.873H35.7619H33.5703V34.6709H36.198C36.5384 34.6709 36.7725 34.4582 36.7725 34.2667C36.7725 34.0752 36.5278 33.873 36.1874 33.873Z" fill="#7E7E7E"/>
<path d="M41.5119 32.5639C41.2672 29.3404 38.6926 26.766 35.4692 26.5213C35.2989 26.5106 35.1394 26.5 34.9585 26.5C31.3308 26.5 28.3945 29.4362 28.3945 33.0746C28.3945 36.7023 31.3308 39.6386 34.9585 39.6386C38.5863 39.6386 41.5331 36.7023 41.5331 33.0746C41.5331 32.8937 41.5225 32.7341 41.5119 32.5639ZM36.1926 36.2661H35.4904V36.6704C35.4904 37.1066 35.1287 37.4683 34.6926 37.4683C34.2564 37.4683 33.8947 37.1066 33.8947 36.6704V36.2661H32.7776C32.3414 36.2661 31.9797 35.9044 31.9797 35.4683V33.0746V30.6809C31.9797 30.2447 32.3414 29.883 32.7776 29.883H33.8947V29.4788C33.8947 29.0426 34.2564 28.6809 34.6926 28.6809C35.1287 28.6809 35.4904 29.0426 35.4904 29.4788V29.883H35.767C36.8309 29.883 37.7671 30.8192 37.7671 31.8831C37.7671 32.1916 37.6926 32.4788 37.565 32.7448C38.0543 33.1065 38.3628 33.6597 38.3628 34.2767C38.3628 35.3725 37.3947 36.2661 36.1926 36.2661Z" fill="#7E7E7E"/>
<path d="M128.473 25.6542C128.606 25.861 128.665 26.0826 128.65 26.3189C128.65 26.6586 128.591 26.954 128.473 27.2051C128.443 27.2789 128.399 27.3749 128.34 27.4931C128.296 27.6112 128.244 27.7368 128.185 27.8697C128.14 28.0026 128.089 28.1282 128.03 28.2463C127.971 28.3645 127.926 28.4531 127.897 28.5122L127.852 28.623C127.646 29.0808 127.446 29.5239 127.254 29.9523C127.062 30.3806 126.848 30.8385 126.612 31.3259C126.375 31.7985 126.146 32.2637 125.925 32.7216C125.718 33.1647 125.511 33.6004 125.305 34.0287C125.246 34.1469 125.194 34.2651 125.15 34.3832C125.105 34.4866 125.046 34.5974 124.972 34.7155L123.909 36.9975C123.717 37.3815 123.532 37.7581 123.355 38.1274C123.193 38.4966 123.008 38.8659 122.801 39.2351C122.757 39.309 122.712 39.3754 122.668 39.4345C122.639 39.5084 122.609 39.5822 122.58 39.6561C122.476 39.8333 122.321 40.0031 122.114 40.1656C121.922 40.3429 121.716 40.4389 121.494 40.4536C121.095 40.4832 120.748 40.365 120.453 40.0992C120.275 39.9958 120.135 39.8481 120.032 39.6561C119.973 39.5231 119.943 39.3533 119.943 39.1465C119.958 39.0579 119.965 38.9693 119.965 38.8806C119.98 38.8068 119.995 38.7329 120.01 38.6591C120.039 38.5852 120.061 38.5114 120.076 38.4375C120.091 38.3637 120.113 38.3046 120.143 38.2603C120.187 38.1421 120.224 38.0831 120.253 38.0831L121.871 34.5826C121.797 34.4201 121.723 34.2577 121.649 34.0952C121.575 33.918 121.509 33.7629 121.45 33.63C121.258 33.1721 121.051 32.6921 120.829 32.1899C120.623 31.673 120.408 31.1634 120.187 30.6612C119.965 30.1443 119.736 29.6421 119.5 29.1547C119.264 28.6673 119.027 28.202 118.791 27.7589C118.702 27.6112 118.621 27.4562 118.547 27.2937C118.474 27.1165 118.414 26.9466 118.37 26.7841C118.326 26.6069 118.311 26.4297 118.326 26.2524C118.341 26.0752 118.407 25.8979 118.525 25.7207C118.643 25.4992 118.798 25.3441 118.99 25.2555C119.183 25.1521 119.382 25.1078 119.589 25.1225C119.81 25.1225 120.017 25.1668 120.209 25.2555C120.401 25.3441 120.556 25.4622 120.674 25.6099C120.925 25.8758 121.125 26.1712 121.272 26.4961C121.42 26.8211 121.56 27.1534 121.693 27.4931C121.974 28.0839 122.262 28.7042 122.557 29.3541C122.853 30.004 123.148 30.6391 123.444 31.2594L124.596 28.8224C124.714 28.5861 124.817 28.3571 124.906 28.1356C125.009 27.914 125.113 27.6999 125.216 27.4931C125.334 27.242 125.445 26.9835 125.548 26.7177C125.666 26.4518 125.799 26.2081 125.947 25.9866C125.977 25.9275 126.006 25.8758 126.036 25.8315C126.065 25.7872 126.095 25.7355 126.124 25.6764C126.257 25.4992 126.375 25.3588 126.479 25.2555C126.553 25.1964 126.612 25.1521 126.656 25.1225C126.715 25.0782 126.782 25.0487 126.855 25.0339C126.959 25.0044 127.055 24.9896 127.143 24.9896C127.247 24.9748 127.343 24.9748 127.431 24.9896C127.579 25.0339 127.756 25.1004 127.963 25.189C128.185 25.2776 128.355 25.4327 128.473 25.6542Z" fill="#7E7E7E"/>
<path d="M116.048 33.7628C116.033 33.8366 116.019 33.9105 116.004 33.9843C116.004 34.0434 116.004 34.1098 116.004 34.1837L115.871 34.6489C115.841 34.708 115.819 34.7449 115.804 34.7597L115.738 34.8926C115.664 35.0551 115.531 35.188 115.339 35.2914C114.985 35.4687 114.608 35.513 114.209 35.4244C113.958 35.3948 113.759 35.321 113.611 35.2028C113.463 35.0994 113.36 34.9739 113.301 34.8262C113.242 34.6785 113.198 34.5308 113.168 34.3831C113.124 34.2354 113.102 34.1025 113.102 33.9843V21.5776C113.102 21.4742 113.102 21.3856 113.102 21.3118C113.116 21.2231 113.131 21.1419 113.146 21.0681C113.161 20.9647 113.175 20.8761 113.19 20.8022C113.22 20.7284 113.249 20.6471 113.279 20.5585C113.323 20.4108 113.404 20.2926 113.523 20.204C113.7 20.0711 113.87 19.9973 114.032 19.9825C114.135 19.9529 114.231 19.9382 114.32 19.9382C114.409 19.9234 114.512 19.916 114.63 19.916C114.837 19.916 115.073 19.9751 115.339 20.0933C115.546 20.2114 115.694 20.3739 115.782 20.5807C115.93 20.8761 116.004 21.1493 116.004 21.4004C116.019 21.5481 116.026 21.7696 116.026 22.065C116.041 22.3604 116.048 22.582 116.048 22.7297V22.8183C116.078 23.2909 116.092 23.7488 116.092 24.1919C116.092 24.6202 116.085 25.0929 116.07 25.6098C116.07 26.112 116.063 26.5994 116.048 27.072C116.048 27.5299 116.048 27.9877 116.048 28.4456V33.0981C116.048 33.1572 116.048 33.2163 116.048 33.2753C116.063 33.3197 116.07 33.3714 116.07 33.4304C116.07 33.5781 116.063 33.6889 116.048 33.7628Z" fill="#7E7E7E"/>
<path d="M107.981 25.568C108.409 25.7453 108.8 26.0037 109.155 26.3435C109.509 26.6684 109.812 27.045 110.063 27.4733C110.329 27.9017 110.528 28.3669 110.661 28.8691C110.809 29.3565 110.883 29.8513 110.883 30.3535C110.898 31.1067 110.72 31.8157 110.351 32.4803C109.997 33.145 109.413 33.6545 108.601 34.009C107.981 34.2601 107.338 34.4521 106.674 34.585C106.024 34.7032 105.344 34.7844 104.635 34.8287V38.8831C104.635 38.9717 104.621 39.0529 104.591 39.1268C104.576 39.2006 104.569 39.2745 104.569 39.3483C104.539 39.496 104.502 39.6289 104.458 39.7471C104.429 39.8653 104.384 39.9908 104.325 40.1237C104.266 40.2123 104.207 40.2936 104.148 40.3674C104.089 40.4413 104.022 40.5151 103.949 40.589C103.594 40.7662 103.225 40.8031 102.841 40.6998C102.604 40.685 102.412 40.6111 102.265 40.4782C102.132 40.3453 102.036 40.205 101.977 40.0573C101.918 39.9096 101.866 39.7397 101.822 39.5477C101.807 39.4739 101.792 39.4 101.777 39.3262C101.777 39.2671 101.777 39.2006 101.777 39.1268V26.7865C101.777 26.6979 101.777 26.6093 101.777 26.5207C101.792 26.4173 101.807 26.3139 101.822 26.2105C101.836 26.0333 101.881 25.856 101.955 25.6788C102.088 25.3096 102.361 25.0585 102.774 24.9255C103.188 24.7926 103.653 24.7335 104.17 24.7483C104.525 24.7631 104.886 24.8 105.256 24.8591C105.64 24.9182 106.002 24.992 106.341 25.0806C106.696 25.1545 107.013 25.2357 107.294 25.3243C107.575 25.413 107.803 25.4942 107.981 25.568ZM108.025 30.3535C108.084 29.9399 108.032 29.5928 107.87 29.3122C107.722 29.0168 107.508 28.7805 107.227 28.6032C106.947 28.4112 106.622 28.2635 106.253 28.1601C105.898 28.0568 105.544 27.9829 105.189 27.9386C105.145 27.9238 105.071 27.9164 104.968 27.9164C104.879 27.9164 104.776 27.9164 104.657 27.9164C104.657 28.3891 104.657 28.8469 104.657 29.29C104.672 29.7184 104.672 30.1836 104.657 30.6858V32.1702C104.997 32.1554 105.352 32.1185 105.721 32.0594C106.105 32.0003 106.459 31.9043 106.784 31.7714C107.109 31.6384 107.383 31.4612 107.604 31.2397C107.84 31.0181 107.981 30.7227 108.025 30.3535Z" fill="#7E7E7E"/>
<path d="M91.1877 26.2085C91.6308 25.9869 92.0961 25.8318 92.5835 25.7432C93.0709 25.6398 93.5509 25.6177 94.0235 25.6768C94.5109 25.7211 94.9762 25.8466 95.4193 26.0534C95.8624 26.2454 96.2759 26.526 96.6599 26.8953C97.044 27.2793 97.3394 27.7002 97.5461 28.1581C97.7529 28.616 97.9006 29.1255 97.9892 29.6868C98.0483 30.0708 98.1443 30.4253 98.2772 30.7502C98.4102 31.0751 98.5505 31.4001 98.6982 31.725C98.8606 32.0499 99.0083 32.3749 99.1413 32.6998C99.289 33.0248 99.4071 33.3645 99.4957 33.7189C99.5696 34.0586 99.5401 34.391 99.4071 34.7159C99.289 35.0261 99.0379 35.2181 98.6539 35.2919C98.4323 35.3362 98.2182 35.3215 98.0114 35.2476C97.8194 35.159 97.6421 35.0408 97.4797 34.8931C97.3172 34.7307 97.1695 34.5608 97.0366 34.3836C96.9184 34.1916 96.8076 34.0143 96.7042 33.8519C96.3645 34.295 95.9953 34.6421 95.5965 34.8931C95.1977 35.1295 94.7177 35.2845 94.1564 35.3584C93.6838 35.4175 93.2333 35.4322 92.805 35.4027C92.3767 35.3732 91.9188 35.2919 91.4314 35.159C90.7963 34.9965 90.272 34.7159 89.8584 34.3171C89.4596 33.9036 89.1495 33.4309 88.9279 32.8992C88.7211 32.3527 88.6104 31.7693 88.5956 31.149C88.5808 30.5287 88.6547 29.9157 88.8171 29.3101C89.0239 28.5126 89.3341 27.8627 89.7476 27.3605C90.1612 26.8583 90.6412 26.4743 91.1877 26.2085ZM91.7416 28.8006C91.5348 29.0074 91.3723 29.2511 91.2542 29.5317C91.136 29.8123 91.0622 30.1077 91.0326 30.4179C91.0179 30.728 91.0474 31.0382 91.1212 31.3484C91.1951 31.6585 91.3132 31.9318 91.4757 32.1681C91.6234 32.3749 91.8745 32.5521 92.229 32.6998C92.5835 32.8328 92.9527 32.914 93.3367 32.9435C93.7798 32.9731 94.1638 32.8549 94.4888 32.589C94.8285 32.3232 95.0796 31.9909 95.242 31.5921C95.4193 31.1785 95.5005 30.7428 95.4857 30.285C95.471 29.8123 95.3454 29.384 95.1091 29C94.9319 28.7193 94.6955 28.5126 94.4002 28.3796C94.1195 28.2467 93.8167 28.1802 93.4918 28.1802C93.1669 28.1655 92.8419 28.2172 92.517 28.3353C92.2068 28.4387 91.9484 28.5938 91.7416 28.8006Z" fill="#7E7E7E"/>
<path d="M86.6404 25.5652C86.7734 25.7572 86.8177 26.06 86.7733 26.4736C86.7438 26.8724 86.67 27.3081 86.5518 27.7807C86.4336 28.2386 86.2933 28.6964 86.1309 29.1543C85.9684 29.5974 85.8355 29.9666 85.7321 30.262C85.481 30.9414 85.2594 31.5766 85.0674 32.1673C84.8754 32.7581 84.6465 33.408 84.3806 34.117C84.292 34.3237 84.2034 34.5305 84.1148 34.7373C84.0409 34.9441 83.9449 35.1287 83.8268 35.2912C83.7234 35.4536 83.5904 35.5866 83.428 35.69C83.2803 35.7933 83.0957 35.845 82.8741 35.845C82.623 35.845 82.4015 35.7564 82.2095 35.5792C82.0322 35.4019 81.8771 35.1804 81.7442 34.9145C81.6261 34.6487 81.5227 34.3681 81.434 34.0727C81.3454 33.7773 81.2716 33.5188 81.2125 33.2972C81.0205 32.6474 80.8506 32.0566 80.7029 31.5249C80.5552 30.9784 80.4223 30.491 80.3042 30.0626C80.1712 30.491 80.0383 30.9562 79.9054 31.4584C79.7724 31.9606 79.6026 32.5292 79.3958 33.1643C79.3367 33.3859 79.2629 33.6591 79.1743 33.984C79.0856 34.2942 78.9749 34.5896 78.8419 34.8702C78.7238 35.1509 78.5687 35.3872 78.3767 35.5792C78.1994 35.786 77.9853 35.8746 77.7342 35.845C77.3797 35.8303 77.0696 35.69 76.8037 35.4241C76.5526 35.1435 76.3311 34.8112 76.1391 34.4271C75.9618 34.0431 75.8067 33.6443 75.6738 33.2308C75.5409 32.8172 75.4301 32.4554 75.3415 32.1452C75.2233 31.7464 75.083 31.3033 74.9205 30.8159C74.7581 30.3285 74.5956 29.8337 74.4331 29.3315C74.2854 28.8146 74.1451 28.305 74.0122 27.8029C73.8793 27.2859 73.7906 26.8133 73.7463 26.3849C73.7168 26.1043 73.7685 25.8459 73.9014 25.6095C74.0491 25.3732 74.2337 25.2107 74.4553 25.1221C74.6916 25.0187 74.9427 24.9966 75.2086 25.0557C75.4892 25.1147 75.7403 25.292 75.9618 25.5874C76.08 25.7351 76.1834 25.9197 76.272 26.1412C76.3754 26.3628 76.464 26.6065 76.5378 26.8724C76.6117 27.1234 76.6855 27.3819 76.7594 27.6478C76.8332 27.9136 76.9071 28.1721 76.9809 28.4232C77.1434 28.9844 77.2763 29.4275 77.3797 29.7525C77.4979 30.0626 77.616 30.3876 77.7342 30.7273C77.8376 30.3876 77.941 30.0626 78.0444 29.7525C78.1625 29.4275 78.3028 28.9844 78.4653 28.4232C78.5244 28.246 78.5909 28.0466 78.6647 27.825C78.7533 27.5887 78.8419 27.3671 78.9306 27.1604C79.0339 26.9536 79.1447 26.7616 79.2629 26.5843C79.3958 26.3923 79.5361 26.252 79.6838 26.1634C80.0088 25.9419 80.3042 25.8902 80.57 26.0083C80.8359 26.1117 81.0648 26.2963 81.2568 26.5622C81.4488 26.828 81.6113 27.1382 81.7442 27.4927C81.8919 27.8324 82.0101 28.1426 82.0987 28.4232C82.1873 28.7186 82.2685 28.9771 82.3424 29.1986C82.4162 29.4054 82.4827 29.5974 82.5418 29.7746C82.6009 29.9519 82.6526 30.1217 82.6969 30.2842C82.7559 30.4467 82.815 30.6165 82.8741 30.7937C82.9332 30.6165 82.9849 30.4467 83.0292 30.2842C83.0883 30.1217 83.1474 29.9519 83.2064 29.7746C83.2655 29.5974 83.332 29.4054 83.4058 29.1986C83.4797 28.9771 83.5609 28.7186 83.6495 28.4232C83.7086 28.2312 83.7677 28.0096 83.8268 27.7585C83.9006 27.5075 83.9745 27.2564 84.0483 27.0053C84.1222 26.7394 84.196 26.4883 84.2699 26.252C84.3585 26.0157 84.4545 25.8163 84.5579 25.6538C84.6613 25.4914 84.8016 25.3584 84.9788 25.2551C85.1561 25.1369 85.3407 25.0704 85.5327 25.0557C85.7247 25.0261 85.9167 25.0483 86.1087 25.1221C86.3155 25.196 86.4927 25.3437 86.6404 25.5652Z" fill="#7E7E7E"/>
<path d="M71.2775 29.0886C71.3513 29.2953 71.403 29.5317 71.4326 29.7975C71.4769 30.0486 71.499 30.3071 71.499 30.5729C71.499 30.8388 71.4769 31.1046 71.4326 31.3705C71.403 31.6216 71.3587 31.8431 71.2996 32.0351C71.0633 32.8623 70.5907 33.5564 69.8817 34.1177C69.1728 34.6642 68.3604 35.063 67.4447 35.3141C66.5437 35.5651 65.6059 35.6538 64.631 35.5799C63.671 35.5061 62.8144 35.2624 62.0611 34.8488C61.5885 34.5829 61.1823 34.258 60.8426 33.874C60.5029 33.49 60.2149 33.0617 59.9785 32.589C59.8899 32.4265 59.8308 32.2419 59.8013 32.0351C59.7865 31.8136 59.8087 31.6068 59.8678 31.4148C59.9268 31.208 60.0229 31.0308 60.1558 30.8831C60.2887 30.7206 60.4733 30.6099 60.7097 30.5508C60.8574 30.5212 61.0198 30.5065 61.1971 30.5065C61.3891 30.5065 61.5737 30.536 61.7509 30.5951C61.9282 30.6394 62.0906 30.7206 62.2383 30.8388C62.386 30.9422 62.5042 31.0899 62.5928 31.2819C62.7553 31.5921 62.9842 31.8801 63.2796 32.1459C63.5898 32.397 63.9147 32.6038 64.2544 32.7663C64.7418 32.9287 65.2292 32.9952 65.7166 32.9656C66.2188 32.9361 66.6693 32.8253 67.0681 32.6333C67.4816 32.4413 67.814 32.1828 68.065 31.8579C68.3161 31.5182 68.4417 31.1342 68.4417 30.7059C68.4417 30.3514 68.39 30.0634 68.2866 29.8418C68.1832 29.6055 68.0355 29.4135 67.8435 29.2658C67.6663 29.1033 67.4447 28.9704 67.1788 28.867C66.9278 28.7636 66.6471 28.675 66.337 28.6012C65.9825 28.5273 65.6206 28.4756 65.2514 28.4461C64.8969 28.4165 64.535 28.3796 64.1658 28.3353C63.7966 28.291 63.4347 28.2319 63.0802 28.1581C62.7257 28.0842 62.3786 27.9734 62.0389 27.8257C61.3595 27.5451 60.8426 27.1168 60.4881 26.5408C60.1336 25.9647 59.9195 25.3444 59.8456 24.6798C59.7865 24.0151 59.8678 23.3579 60.0893 22.708C60.3109 22.0433 60.6653 21.4747 61.1527 21.0021C61.6254 20.5737 62.1866 20.271 62.8365 20.0937C63.5012 19.9017 64.2323 19.7909 65.0298 19.7614C65.4729 19.7466 65.916 19.7614 66.3591 19.8057C66.817 19.85 67.2527 19.9239 67.6663 20.0273C68.0946 20.1306 68.486 20.2636 68.8405 20.426C69.2097 20.5885 69.5273 20.7805 69.7931 21.0021C69.9851 21.1498 70.1771 21.3492 70.3691 21.6002C70.5611 21.8366 70.7088 22.095 70.8122 22.3757C70.9156 22.6415 70.9452 22.9 70.9009 23.1511C70.8713 23.4022 70.7162 23.6163 70.4356 23.7936C70.1993 23.9413 69.9704 24.0077 69.7488 23.993C69.542 23.9634 69.3426 23.897 69.1506 23.7936C68.9586 23.6754 68.774 23.5425 68.5968 23.3948C68.4195 23.2471 68.257 23.1142 68.1093 22.996C67.7106 22.7006 67.2158 22.5012 66.625 22.3978C66.0342 22.2944 65.4803 22.2723 64.9634 22.3314C64.6384 22.3757 64.3357 22.4495 64.055 22.5529C63.7744 22.6563 63.5307 22.7966 63.3239 22.9738C63.1319 23.1511 62.9768 23.3726 62.8587 23.6385C62.7553 23.8896 62.7184 24.1776 62.7479 24.5025C62.7627 24.7388 62.8291 24.9382 62.9473 25.1007C63.0802 25.2632 63.2353 25.3961 63.4125 25.4995C63.6045 25.6029 63.8113 25.6841 64.0329 25.7432C64.2544 25.8023 64.476 25.8466 64.6975 25.8761C65.3622 25.9647 66.0268 26.0312 66.6914 26.0755C67.3561 26.1198 68.006 26.2675 68.6411 26.5186C69.2909 26.7697 69.8448 27.1094 70.3027 27.5377C70.7605 27.9661 71.0855 28.483 71.2775 29.0886Z" fill="#7E7E7E"/>
</svg>
