<svg width="125" height="60" viewBox="0 0 125 60" fill="none" xmlns="http://www.w3.org/2000/svg">
<path d="M55 23L76 23" stroke="#7E7E7E" stroke-linecap="round"/>
<path d="M99.6602 24.8895V20.0759H100.669V20.872H100.715C100.82 20.6128 100.978 20.3968 101.188 20.224C101.404 20.0512 101.697 19.9648 102.067 19.9648C102.561 19.9648 102.943 20.1284 103.215 20.4555C103.492 20.7764 103.631 21.2361 103.631 21.8347V24.8895H102.622V21.9643C102.622 21.2114 102.32 20.835 101.715 20.835C101.586 20.835 101.456 20.8535 101.326 20.8905C101.203 20.9214 101.092 20.9708 100.993 21.0386C100.894 21.1065 100.814 21.1929 100.752 21.2978C100.697 21.4027 100.669 21.5262 100.669 21.6681V24.8895H99.6602Z" fill="#7E7E7E"/>
<path d="M97.5861 19.2126C97.3762 19.2126 97.222 19.1633 97.1232 19.0645C97.0307 18.9658 96.9844 18.8393 96.9844 18.685V18.5276C96.9844 18.3734 97.0307 18.2468 97.1232 18.1481C97.222 18.0494 97.3762 18 97.5861 18C97.7959 18 97.9471 18.0494 98.0397 18.1481C98.1322 18.2468 98.1785 18.3734 98.1785 18.5276V18.685C98.1785 18.8393 98.1322 18.9658 98.0397 19.0645C97.9471 19.1633 97.7959 19.2126 97.5861 19.2126ZM97.0769 20.0735H98.0859V24.8871H97.0769V20.0735Z" fill="#7E7E7E"/>
<path d="M95.3434 24.8895C95.0781 24.8895 94.8744 24.8154 94.7325 24.6673C94.5906 24.513 94.5042 24.3186 94.4733 24.0841H94.427C94.3345 24.3865 94.1647 24.6148 93.9179 24.7691C93.6711 24.9234 93.3717 25.0005 93.02 25.0005C92.5201 25.0005 92.1344 24.871 91.8629 24.6118C91.5975 24.3526 91.4648 24.0039 91.4648 23.5657C91.4648 23.0844 91.6376 22.7234 91.9832 22.4827C92.335 22.242 92.8472 22.1217 93.5199 22.1217H94.39V21.7144C94.39 21.4182 94.3098 21.1898 94.1493 21.0294C93.9889 20.8689 93.7389 20.7887 93.3995 20.7887C93.1156 20.7887 92.8842 20.8504 92.7053 20.9738C92.5263 21.0973 92.3751 21.2546 92.2517 21.4459L91.65 20.8998C91.8104 20.6282 92.0357 20.4061 92.3257 20.2333C92.6158 20.0543 92.9953 19.9648 93.4643 19.9648C94.0876 19.9648 94.5659 20.1099 94.8991 20.3999C95.2324 20.69 95.399 21.1065 95.399 21.6496V24.0656H95.9081V24.8895H95.3434ZM93.3069 24.2322C93.6217 24.2322 93.8809 24.1644 94.0845 24.0286C94.2882 23.8866 94.39 23.6984 94.39 23.4639V22.7697H93.5384C92.841 22.7697 92.4924 22.9856 92.4924 23.4176V23.5843C92.4924 23.8002 92.5633 23.9638 92.7053 24.0749C92.8534 24.1798 93.0539 24.2322 93.3069 24.2322Z" fill="#7E7E7E"/>
<path d="M86.2656 18.0371H87.2746V20.8697H87.3209C87.4258 20.6105 87.5832 20.3945 87.793 20.2217C88.009 20.0489 88.3021 19.9625 88.6724 19.9625C89.1661 19.9625 89.5487 20.1261 89.8202 20.4531C90.0979 20.774 90.2368 21.2338 90.2368 21.8324V24.8871H89.2278V21.9527C89.2278 21.206 88.9254 20.8327 88.3206 20.8327C88.191 20.8327 88.0614 20.8512 87.9319 20.8882C87.8084 20.9191 87.6973 20.9684 87.5986 21.0363C87.4999 21.1042 87.4196 21.1906 87.3579 21.2955C87.3024 21.4004 87.2746 21.5208 87.2746 21.6565V24.8871H86.2656V18.0371Z" fill="#7E7E7E"/>
<path d="M82.7122 24.9979C81.8668 24.9979 81.2034 24.714 80.722 24.1462C80.2407 23.5723 80 22.7423 80 21.6562C80 21.1131 80.0617 20.6348 80.1851 20.2214C80.3086 19.8079 80.4875 19.4592 80.722 19.1753C80.9565 18.8915 81.2404 18.6786 81.5737 18.5366C81.9131 18.3885 82.2926 18.3145 82.7122 18.3145C83.2738 18.3145 83.7428 18.4379 84.1193 18.6847C84.5019 18.9316 84.8012 19.2957 85.0172 19.777L84.1378 20.2584C84.0267 19.9498 83.8539 19.7061 83.6194 19.5271C83.3911 19.342 83.0887 19.2494 82.7122 19.2494C82.2124 19.2494 81.8205 19.4191 81.5366 19.7585C81.2528 20.0979 81.1108 20.5669 81.1108 21.1656V22.1468C81.1108 22.7454 81.2528 23.2144 81.5366 23.5538C81.8205 23.8932 82.2124 24.0629 82.7122 24.0629C83.101 24.0629 83.4158 23.9642 83.6564 23.7667C83.9033 23.5631 84.0853 23.3039 84.2026 22.9891L85.045 23.4983C84.829 23.9673 84.5266 24.3345 84.1378 24.5998C83.749 24.8652 83.2738 24.9979 82.7122 24.9979Z" fill="#7E7E7E"/>
<path fill-rule="evenodd" clip-rule="evenodd" d="M35.8763 18H25.6697C21.6695 18 19 20.864 19 24.9653V34.5819C19 38.687 21.6625 41.5472 25.6697 41.5472H35.8751C39.8835 41.5472 42.5472 38.687 42.5472 34.5819V24.9653C42.5472 20.8604 39.8838 18 35.8763 18ZM25.6697 19.766H35.8763C38.8791 19.766 40.7811 21.8087 40.7811 24.9653V34.5819C40.7811 37.7385 38.879 39.7811 35.8751 39.7811H25.6697C22.6673 39.7811 20.766 37.7388 20.766 34.5819V24.9653C20.766 21.8127 22.6737 19.766 25.6697 19.766Z" fill="#7E7E7E"/>
<path d="M32.9989 25.0645H35.1714V31.7372C35.1714 32.4865 34.9924 33.1421 34.6345 33.704C34.28 34.2659 33.7833 34.7041 33.1445 35.0184C32.5056 35.3296 31.7614 35.4851 30.9118 35.4851C30.059 35.4851 29.313 35.3296 28.6741 35.0184C28.0353 34.7041 27.5386 34.2659 27.1841 33.704C26.8296 33.1421 26.6523 32.4865 26.6523 31.7372V25.0645H28.8247V31.5516C28.8247 31.9429 28.91 32.2909 29.0806 32.5952C29.2545 32.8996 29.4987 33.1388 29.8131 33.3127C30.1275 33.4866 30.4937 33.5736 30.9118 33.5736C31.3333 33.5736 31.6995 33.4866 32.0106 33.3127C32.325 33.1388 32.5674 32.8996 32.7381 32.5952C32.912 32.2909 32.9989 31.9429 32.9989 31.5516V25.0645Z" fill="#7E7E7E"/>
<path d="M100.516 41.0001V36.3921L97.0117 30.3281H98.8677L101.332 34.6001L103.796 30.3281H105.652L102.148 36.3921V41.0001H100.516Z" fill="#7E7E7E"/>
<path d="M95.8717 31.8641H93.4238V41.0001H91.7918V31.8641H89.3438V30.3281H95.8717V31.8641Z" fill="#7E7E7E"/>
<path d="M85.6367 30.3281H87.2687V41.0001H85.6367V30.3281Z" fill="#7E7E7E"/>
<path d="M78.7031 30.3281H80.3351V39.4641H83.4711V41.0001H78.7031V30.3281Z" fill="#7E7E7E"/>
<path d="M73.875 30.3281H75.507V41.0001H73.875V30.3281Z" fill="#7E7E7E"/>
<path d="M71.7975 31.8641H69.3495V41.0001H67.7175V31.8641H65.2695V30.3281H71.7975V31.8641Z" fill="#7E7E7E"/>
<path d="M55.2812 30.3281H56.9133V36.7601C56.9133 37.3361 56.9293 38.0401 57.2493 38.6001C57.5692 39.1441 58.2892 39.7041 59.2333 39.7041C60.1772 39.7041 60.8973 39.1441 61.2173 38.6001C61.5373 38.0401 61.5533 37.3361 61.5533 36.7601V30.3281H63.1852V37.1921C63.1852 38.0401 63.0093 39.0641 62.1933 39.9601C61.6333 40.5681 60.6892 41.2081 59.2333 41.2081C57.7773 41.2081 56.8332 40.5681 56.2732 39.9601C55.4572 39.0641 55.2812 38.0401 55.2812 37.1921V30.3281Z" fill="#7E7E7E"/>
</svg>
