<svg width="125" height="60" viewBox="0 0 125 60" fill="none" xmlns="http://www.w3.org/2000/svg">
<path fill-rule="evenodd" clip-rule="evenodd" d="M35.8763 18H25.6697C21.6695 18 19 20.864 19 24.9653V34.5819C19 38.687 21.6625 41.5472 25.6697 41.5472H35.8751C39.8835 41.5472 42.5472 38.687 42.5472 34.5819V24.9653C42.5472 20.8604 39.8838 18 35.8763 18ZM25.6697 19.766H35.8763C38.8791 19.766 40.7811 21.8087 40.7811 24.9653V34.5819C40.7811 37.7385 38.879 39.7811 35.8751 39.7811H25.6697C22.6673 39.7811 20.766 37.7388 20.766 34.5819V24.9653C20.766 21.8127 22.6737 19.766 25.6697 19.766Z" fill="#7E7E7E"/>
<path d="M32.9989 25.0645H35.1714V31.7372C35.1714 32.4865 34.9924 33.1421 34.6345 33.704C34.28 34.2659 33.7833 34.7041 33.1445 35.0184C32.5056 35.3296 31.7614 35.4851 30.9118 35.4851C30.059 35.4851 29.313 35.3296 28.6741 35.0184C28.0353 34.7041 27.5386 34.2659 27.1841 33.704C26.8296 33.1421 26.6523 32.4865 26.6523 31.7372V25.0645H28.8247V31.5516C28.8247 31.9429 28.91 32.2909 29.0806 32.5952C29.2545 32.8996 29.4987 33.1388 29.8131 33.3127C30.1275 33.4866 30.4937 33.5736 30.9118 33.5736C31.3333 33.5736 31.6995 33.4866 32.0106 33.3127C32.325 33.1388 32.5674 32.8996 32.7381 32.5952C32.912 32.2909 32.9989 31.9429 32.9989 31.5516V25.0645Z" fill="#7E7E7E"/>
<path d="M97.3203 38.0009V26.5609H99.7183V28.4529H99.8283C100.078 27.8369 100.452 27.3235 100.95 26.9129C101.464 26.5022 102.16 26.2969 103.04 26.2969C104.214 26.2969 105.123 26.6855 105.768 27.4629C106.428 28.2255 106.758 29.3182 106.758 30.7409V38.0009H104.36V31.0489C104.36 29.2595 103.642 28.3649 102.204 28.3649C101.896 28.3649 101.588 28.4089 101.28 28.4969C100.987 28.5702 100.723 28.6875 100.488 28.8489C100.254 29.0102 100.063 29.2155 99.9163 29.4649C99.7843 29.7142 99.7183 30.0075 99.7183 30.3449V38.0009H97.3203Z" fill="#7E7E7E"/>
<path d="M92.7073 24.5148C92.2087 24.5148 91.842 24.3975 91.6073 24.1628C91.3873 23.9281 91.2773 23.6275 91.2773 23.2608V22.8868C91.2773 22.5201 91.3873 22.2195 91.6073 21.9848C91.842 21.7501 92.2087 21.6328 92.7073 21.6328C93.206 21.6328 93.5653 21.7501 93.7853 21.9848C94.0053 22.2195 94.1153 22.5201 94.1153 22.8868V23.2608C94.1153 23.6275 94.0053 23.9281 93.7853 24.1628C93.5653 24.3975 93.206 24.5148 92.7073 24.5148ZM91.4973 26.5608H93.8953V38.0008H91.4973V26.5608Z" fill="#7E7E7E"/>
<path d="M87.8039 38.0009C87.1733 38.0009 86.6893 37.8249 86.3519 37.4729C86.0146 37.1062 85.8093 36.6442 85.7359 36.0869H85.6259C85.4059 36.8055 85.0026 37.3482 84.4159 37.7149C83.8293 38.0815 83.1179 38.2649 82.2819 38.2649C81.0939 38.2649 80.1773 37.9569 79.5319 37.3409C78.9013 36.7249 78.5859 35.8962 78.5859 34.8549C78.5859 33.7109 78.9966 32.8529 79.8179 32.2809C80.6539 31.7089 81.8713 31.4229 83.4699 31.4229H85.5379V30.4549C85.5379 29.7509 85.3473 29.2082 84.9659 28.8269C84.5846 28.4455 83.9906 28.2549 83.1839 28.2549C82.5093 28.2549 81.9593 28.4015 81.5339 28.6949C81.1086 28.9882 80.7493 29.3622 80.4559 29.8169L79.0259 28.5189C79.4073 27.8735 79.9426 27.3455 80.6319 26.9349C81.3213 26.5095 82.2233 26.2969 83.3379 26.2969C84.8193 26.2969 85.9559 26.6415 86.7479 27.3309C87.5399 28.0202 87.9359 29.0102 87.9359 30.3009V36.0429H89.1459V38.0009H87.8039ZM82.9639 36.4389C83.7119 36.4389 84.3279 36.2775 84.8119 35.9549C85.2959 35.6175 85.5379 35.1702 85.5379 34.6129V32.9629H83.5139C81.8566 32.9629 81.0279 33.4762 81.0279 34.5029V34.8989C81.0279 35.4122 81.1966 35.8009 81.5339 36.0649C81.8859 36.3142 82.3626 36.4389 82.9639 36.4389Z" fill="#7E7E7E"/>
<path d="M66.6602 21.7207H69.0582V28.4527H69.1682C69.4175 27.8367 69.7915 27.3234 70.2902 26.9127C70.8035 26.502 71.5002 26.2967 72.3802 26.2967C73.5535 26.2967 74.4628 26.6854 75.1082 27.4627C75.7682 28.2254 76.0982 29.318 76.0982 30.7407V38.0007H73.7002V31.0267C73.7002 29.252 72.9815 28.3647 71.5442 28.3647C71.2362 28.3647 70.9282 28.4087 70.6202 28.4967C70.3268 28.57 70.0628 28.6874 69.8282 28.8487C69.5935 29.01 69.4028 29.2154 69.2562 29.4647C69.1242 29.714 69.0582 30 69.0582 30.3227V38.0007H66.6602V21.7207Z" fill="#7E7E7E"/>
<path d="M58.6569 38.2649C56.6476 38.2649 55.0709 37.5902 53.9269 36.2409C52.7829 34.8769 52.2109 32.9042 52.2109 30.3229C52.2109 29.0322 52.3576 27.8955 52.6509 26.9129C52.9443 25.9302 53.3696 25.1015 53.9269 24.4269C54.4843 23.7522 55.1589 23.2462 55.9509 22.9089C56.7576 22.5569 57.6596 22.3809 58.6569 22.3809C59.9916 22.3809 61.1063 22.6742 62.0009 23.2609C62.9103 23.8475 63.6216 24.7129 64.1349 25.8569L62.0449 27.0009C61.7809 26.2675 61.3703 25.6882 60.8129 25.2629C60.2703 24.8229 59.5516 24.6029 58.6569 24.6029C57.4689 24.6029 56.5376 25.0062 55.8629 25.8129C55.1883 26.6195 54.8509 27.7342 54.8509 29.1569V31.4889C54.8509 32.9115 55.1883 34.0262 55.8629 34.8329C56.5376 35.6395 57.4689 36.0429 58.6569 36.0429C59.5809 36.0429 60.3289 35.8082 60.9009 35.3389C61.4876 34.8549 61.9203 34.2389 62.1989 33.4909L64.2009 34.7009C63.6876 35.8155 62.9689 36.6882 62.0449 37.3189C61.1209 37.9495 59.9916 38.2649 58.6569 38.2649Z" fill="#7E7E7E"/>
</svg>
