<svg width="125" height="60" viewBox="0 0 125 60" fill="none" xmlns="http://www.w3.org/2000/svg">
<path d="M57 23L78 23" stroke="#7E7E7E" stroke-linecap="round"/>
<path d="M101.66 24.8895V20.0759H102.669V20.872H102.715C102.82 20.6128 102.978 20.3968 103.188 20.224C103.404 20.0512 103.697 19.9648 104.067 19.9648C104.561 19.9648 104.943 20.1284 105.215 20.4555C105.492 20.7764 105.631 21.2361 105.631 21.8347V24.8895H104.622V21.9643C104.622 21.2114 104.32 20.835 103.715 20.835C103.586 20.835 103.456 20.8535 103.326 20.8905C103.203 20.9214 103.092 20.9708 102.993 21.0386C102.894 21.1065 102.814 21.1929 102.752 21.2978C102.697 21.4027 102.669 21.5262 102.669 21.6681V24.8895H101.66Z" fill="#7E7E7E"/>
<path d="M99.5861 19.2126C99.3762 19.2126 99.222 19.1633 99.1232 19.0645C99.0307 18.9658 98.9844 18.8393 98.9844 18.685V18.5276C98.9844 18.3734 99.0307 18.2468 99.1232 18.1481C99.222 18.0494 99.3762 18 99.5861 18C99.7959 18 99.9471 18.0494 100.04 18.1481C100.132 18.2468 100.179 18.3734 100.179 18.5276V18.685C100.179 18.8393 100.132 18.9658 100.04 19.0645C99.9471 19.1633 99.7959 19.2126 99.5861 19.2126ZM99.0769 20.0735H100.086V24.8871H99.0769V20.0735Z" fill="#7E7E7E"/>
<path d="M97.3434 24.8895C97.0781 24.8895 96.8744 24.8154 96.7325 24.6673C96.5906 24.513 96.5042 24.3186 96.4733 24.0841H96.427C96.3345 24.3865 96.1647 24.6148 95.9179 24.7691C95.6711 24.9234 95.3717 25.0005 95.02 25.0005C94.5201 25.0005 94.1344 24.871 93.8629 24.6118C93.5975 24.3526 93.4648 24.0039 93.4648 23.5657C93.4648 23.0844 93.6376 22.7234 93.9832 22.4827C94.335 22.242 94.8472 22.1217 95.5199 22.1217H96.39V21.7144C96.39 21.4182 96.3098 21.1898 96.1493 21.0294C95.9889 20.8689 95.7389 20.7887 95.3995 20.7887C95.1156 20.7887 94.8842 20.8504 94.7053 20.9738C94.5263 21.0973 94.3751 21.2546 94.2517 21.4459L93.65 20.8998C93.8104 20.6282 94.0357 20.4061 94.3257 20.2333C94.6158 20.0543 94.9953 19.9648 95.4643 19.9648C96.0876 19.9648 96.5659 20.1099 96.8991 20.3999C97.2324 20.69 97.399 21.1065 97.399 21.6496V24.0656H97.9081V24.8895H97.3434ZM95.3069 24.2322C95.6217 24.2322 95.8809 24.1644 96.0845 24.0286C96.2882 23.8866 96.39 23.6984 96.39 23.4639V22.7697H95.5384C94.841 22.7697 94.4924 22.9856 94.4924 23.4176V23.5843C94.4924 23.8002 94.5633 23.9638 94.7053 24.0749C94.8534 24.1798 95.0539 24.2322 95.3069 24.2322Z" fill="#7E7E7E"/>
<path d="M88.2656 18.0371H89.2746V20.8697H89.3209C89.4258 20.6105 89.5832 20.3945 89.793 20.2217C90.009 20.0489 90.3021 19.9625 90.6724 19.9625C91.1661 19.9625 91.5487 20.1261 91.8202 20.4531C92.0979 20.774 92.2368 21.2338 92.2368 21.8324V24.8871H91.2278V21.9527C91.2278 21.206 90.9254 20.8327 90.3206 20.8327C90.191 20.8327 90.0614 20.8512 89.9319 20.8882C89.8084 20.9191 89.6973 20.9684 89.5986 21.0363C89.4999 21.1042 89.4196 21.1906 89.3579 21.2955C89.3024 21.4004 89.2746 21.5208 89.2746 21.6565V24.8871H88.2656V18.0371Z" fill="#7E7E7E"/>
<path d="M84.7122 24.9979C83.8668 24.9979 83.2034 24.714 82.722 24.1462C82.2407 23.5723 82 22.7423 82 21.6562C82 21.1131 82.0617 20.6348 82.1851 20.2214C82.3086 19.8079 82.4875 19.4592 82.722 19.1753C82.9565 18.8915 83.2404 18.6786 83.5737 18.5366C83.9131 18.3885 84.2926 18.3145 84.7122 18.3145C85.2738 18.3145 85.7428 18.4379 86.1193 18.6847C86.5019 18.9316 86.8012 19.2957 87.0172 19.777L86.1378 20.2584C86.0267 19.9498 85.8539 19.7061 85.6194 19.5271C85.3911 19.342 85.0887 19.2494 84.7122 19.2494C84.2124 19.2494 83.8205 19.4191 83.5366 19.7585C83.2528 20.0979 83.1108 20.5669 83.1108 21.1656V22.1468C83.1108 22.7454 83.2528 23.2144 83.5366 23.5538C83.8205 23.8932 84.2124 24.0629 84.7122 24.0629C85.101 24.0629 85.4158 23.9642 85.6564 23.7667C85.9033 23.5631 86.0853 23.3039 86.2026 22.9891L87.045 23.4983C86.829 23.9673 86.5266 24.3345 86.1378 24.5998C85.749 24.8652 85.2738 24.9979 84.7122 24.9979Z" fill="#7E7E7E"/>
<path fill-rule="evenodd" clip-rule="evenodd" d="M37.8783 18H27.6705C23.6699 18 21 20.8644 21 24.9661V34.5839C21 38.6895 23.6628 41.55 27.6705 41.55H37.8771C41.886 41.55 44.55 38.6895 44.55 34.5839V24.9661C44.55 20.8607 41.8863 18 37.8783 18ZM27.6705 19.7662H37.8783C40.8815 19.7662 42.7837 21.8092 42.7837 24.9661V34.5839C42.7837 37.7409 40.8814 39.7837 37.8771 39.7837H27.6705C24.6676 39.7837 22.7662 37.7412 22.7662 34.5839V24.9661C22.7662 21.8132 24.6742 19.7662 27.6705 19.7662Z" fill="#7E7E7E"/>
<path d="M30.2377 24.8301L32.7216 32.6377H32.8168L35.3057 24.8301H37.7142L34.1717 35.1065H31.3718L27.8242 24.8301H30.2377Z" fill="#7E7E7E"/>
<path d="M105.411 29.3281V30.8641H101.155V33.5681H105.283V35.1041H101.155V38.4641H105.411V40.0001H99.5234V29.3281H105.411Z" fill="#7E7E7E"/>
<path d="M87.7773 29.3281H89.4093V35.7601C89.4093 36.3361 89.4253 37.0401 89.7453 37.6001C90.0653 38.1441 90.7853 38.7041 91.7293 38.7041C92.6733 38.7041 93.3933 38.1441 93.7133 37.6001C94.0333 37.0401 94.0493 36.3361 94.0493 35.7601V29.3281H95.6813V36.1921C95.6813 37.0401 95.5053 38.0641 94.6893 38.9601C94.1293 39.5681 93.1853 40.2081 91.7293 40.2081C90.2733 40.2081 89.3293 39.5681 88.7693 38.9601C87.9533 38.0641 87.7773 37.0401 87.7773 36.1921V29.3281Z" fill="#7E7E7E"/>
<path d="M80.1992 29.3281H81.8312V38.4641H84.9672V40.0001H80.1992V29.3281Z" fill="#7E7E7E"/>
<path d="M75.8111 39.9991L74.6911 37.4231H70.1311L68.9631 39.9991H67.2031L72.5151 28.7031L77.5711 39.9991H75.8111ZM70.8031 35.8871H74.0351L72.4511 32.2711L70.8031 35.8871Z" fill="#7E7E7E"/>
<path d="M57.0625 29.3281H58.8225L61.7985 36.7681L64.7745 29.3281H66.5345L61.7985 40.6881L57.0625 29.3281Z" fill="#7E7E7E"/>
</svg>
