<svg width="531" height="113" viewBox="0 0 531 113" fill="none" xmlns="http://www.w3.org/2000/svg">
<path d="M139 55.1932C139 43.8005 139 32.4078 139 21.4898C139 16.2682 142.323 12.9453 147.544 12.9453C152.766 12.9453 157.988 12.9453 163.209 12.9453C182.672 13.42 199.761 28.1355 203.558 47.1233C208.305 70.8581 192.64 93.6434 168.431 97.441C164.633 97.916 160.361 97.916 156.089 97.916C152.766 97.916 149.443 97.916 146.12 97.916C141.848 97.441 139 94.1181 139 89.8459C139 77.9785 139 66.5858 139 55.1932ZM155.614 81.7761C159.412 81.7761 163.209 81.7761 166.532 80.8267C181.723 78.4532 191.691 63.7377 187.419 48.5474C183.621 34.3066 170.805 27.1862 155.14 29.0849C155.614 46.6486 155.614 64.2124 155.614 81.7761Z" fill="white"/>
<path d="M326.983 81.7838C333.154 81.7838 339.325 81.7838 345.496 81.7838C347.87 81.7838 350.718 81.7838 353.092 81.7838C357.839 81.7838 361.161 85.1067 361.161 89.8536C361.161 94.6006 357.839 97.923 353.092 97.923C341.699 97.923 330.306 97.923 318.914 97.923C314.167 97.923 310.844 94.6006 310.844 89.8536C310.844 67.0683 310.844 44.2829 310.844 21.4975C310.844 16.7506 314.167 13.4277 319.388 13.4277C330.781 13.4277 341.699 13.4277 353.092 13.4277C357.839 13.4277 361.161 16.7506 361.161 21.4975C361.161 26.2445 357.839 29.5674 353.092 29.5674C345.022 29.5674 336.952 29.5674 328.882 29.5674C328.407 29.5674 327.933 29.5674 327.458 29.5674C327.458 35.7384 327.458 41.9094 327.458 48.0805C327.933 48.0805 328.407 48.0805 328.882 48.0805C334.578 48.0805 340.275 48.0805 345.496 48.0805C350.243 48.0805 353.566 51.4033 353.566 56.1503C353.566 60.4225 350.243 64.2201 345.496 64.2201C339.8 64.2201 334.104 64.2201 328.882 64.2201C328.407 64.2201 327.933 64.2201 327.458 64.2201C326.983 69.4417 326.983 75.6128 326.983 81.7838Z" fill="white"/>
<path d="M278.559 27.6609C276.185 27.6609 273.337 27.6609 270.964 27.6609C269.065 27.6609 266.691 27.6609 264.793 27.6609C262.894 27.6609 261.944 26.7115 261.944 24.8127C261.944 21.4898 261.944 18.6417 261.944 15.3188C261.944 13.42 262.894 12.9453 264.793 12.9453C273.812 12.9453 283.306 12.9453 292.325 12.9453C294.224 12.9453 295.173 13.42 295.173 15.7935C295.173 26.2368 295.173 36.6801 295.173 46.6487C295.173 54.7185 295.173 62.3136 295.173 70.3834C295.173 77.5038 293.274 84.1495 288.053 89.8459C282.831 95.0675 277.135 97.916 269.54 98.39C258.622 98.865 250.552 93.6434 243.906 85.5736C242.482 84.1496 242.957 82.2508 244.855 81.3014C247.704 79.8773 250.077 78.4532 252.925 77.0291C254.824 76.0797 256.248 76.0797 257.197 77.9785C260.046 81.7761 265.742 83.6749 270.489 82.2508C275.236 80.8267 278.084 77.0291 278.084 71.3328C278.084 56.6172 278.084 42.3764 278.084 27.6609C278.559 28.1356 278.559 28.1356 278.559 27.6609Z" fill="white"/>
<path d="M407.681 29.089C407.681 29.5637 407.681 30.0384 407.681 30.5131C407.681 49.9756 407.681 69.9128 407.681 89.3753C407.681 94.5969 403.883 98.394 398.187 97.445C394.389 96.9704 391.541 93.6475 391.541 89.3753C391.541 84.1536 391.541 79.4067 391.541 74.185C391.541 59.4695 391.541 44.7539 391.541 30.0384C391.541 29.5637 391.541 29.089 391.541 28.1396C391.067 28.1396 390.592 28.1396 390.117 28.1396C385.37 28.1396 381.098 28.1396 376.351 28.1396C371.604 28.1396 368.281 24.8168 368.281 20.0698C368.281 15.3229 371.604 12 376.351 12C392.016 12 407.206 12 422.871 12C427.618 12 430.941 15.3229 430.941 20.0698C430.941 24.8168 427.618 28.1396 422.871 28.1396C417.649 29.089 412.903 29.089 407.681 29.089Z" fill="white"/>
<path d="M235.835 55.1932C235.835 66.5858 235.835 77.9785 235.835 89.3712C235.835 92.6941 233.936 95.5422 230.613 96.9663C227.29 98.39 223.967 97.441 221.594 95.0675C220.17 93.6434 219.695 91.7447 219.695 89.8459C219.695 66.5858 219.695 43.3258 219.695 20.5404C219.695 16.2682 223.018 12.9453 227.765 12.9453C232.512 12.9453 235.835 16.2682 235.835 21.0151C235.835 32.4078 235.835 43.8005 235.835 55.1932Z" fill="white"/>
<path d="M469.868 12C471.767 12.4747 473.665 12.4747 475.564 12.9494C481.735 14.3735 487.432 17.2216 491.229 21.9686C492.178 23.3927 493.603 25.2915 493.603 26.7155C494.077 29.5637 492.653 32.8866 489.805 34.3107C486.957 35.7347 483.634 35.7347 480.786 33.836C479.362 32.8866 478.412 31.9372 476.988 30.9878C471.292 27.1902 465.121 27.1902 458.95 30.0384C456.576 31.4625 454.678 33.3613 454.203 36.2094C453.728 38.5829 454.678 40.9564 457.051 41.9058C459.424 43.3299 461.798 44.2793 464.171 44.7539C469.868 46.178 476.039 47.6021 481.735 49.9756C487.432 52.3491 492.178 56.1466 495.027 61.843C498.824 69.9128 496.925 81.7802 489.805 88.4259C484.109 94.1222 476.988 97.445 468.918 97.92C458.95 98.394 449.931 95.5463 442.335 88.9006C439.962 86.5271 438.063 83.6789 436.639 80.8308C435.69 77.9826 435.69 75.1344 437.589 72.761C439.487 70.3875 441.861 68.9634 445.184 69.9128C448.032 70.3875 449.931 72.2863 451.355 74.6597C456.576 82.7295 467.494 84.1536 474.615 80.8308C476.514 79.8814 477.938 78.4573 479.362 77.0332C482.21 73.2356 481.26 68.4887 476.988 66.1152C473.665 63.7417 469.393 63.2671 465.596 62.3177C460.374 61.3683 455.152 59.4695 450.405 57.096C433.791 48.0768 435.215 27.6649 448.032 18.171C452.779 14.8482 457.526 12.9494 463.222 12.4747C463.697 12.4747 463.697 12.4747 464.171 12C466.545 12 467.969 12 469.868 12Z" fill="white"/>
<path d="M15 25.9121C15.1626 26.078 15.4477 26.23 15.4686 26.4121C15.6711 28.1847 16.7792 29.3747 18.1256 30.3269C30.4896 39.0706 42.8563 47.8105 55.2652 56.4908C58.2622 58.5874 60.6388 58.4661 63.5968 56.3871C70.3549 51.6365 77.1075 46.8782 83.8509 42.1071C87.6744 39.4017 90.4631 35.8849 91.9218 31.4313C92.4306 29.8771 92.626 28.2217 92.8402 27.2064C92.8402 31.0863 93.1276 35.5845 92.7669 40.0305C92.3215 45.5117 89.5589 50.0316 85.1469 53.2863C77.7977 58.7077 70.3037 63.937 62.8058 69.1554C60.3677 70.8522 57.7848 70.4079 55.3965 68.8571C52.9471 67.2666 50.5171 65.6427 48.1347 63.9548C38.2637 56.96 28.417 49.9311 18.5536 42.9256C16.8637 41.7252 15.5291 40.3065 15.2285 38.1611C15.2356 34.6753 15.2481 31.1892 15.2391 27.7034C15.2383 27.4387 15.0833 27.1745 15 26.9102C15 26.5775 15 26.2449 15 25.9121Z" fill="#3ECF8E"/>
<path d="M15 26.2676C15.1626 26.4335 15.4477 26.5855 15.4686 26.7676C15.6711 28.5401 16.7792 29.7302 18.1256 30.6824C30.4896 39.426 42.8563 48.166 55.2651 56.8462C58.2622 58.9428 60.6388 58.8215 63.5968 56.7425C70.3549 51.9919 77.1075 47.2336 83.8509 42.4626C87.6744 39.7571 90.4631 36.2403 91.9218 31.7868C92.4306 30.2326 92.626 28.5772 92.8402 27.5618C92.8402 31.4417 93.1284 35.94 92.7669 40.386C92.3215 45.8671 89.5589 50.387 85.1469 53.6417C77.7977 59.0631 70.3037 64.2924 62.8058 69.5108C60.3677 71.2076 57.7848 70.7633 55.3965 69.2125C52.9471 67.6221 50.5171 65.9981 48.1347 64.3102C38.2637 57.3155 28.417 50.2865 18.5536 43.281C16.8637 42.0807 15.5291 40.6619 15.2285 38.5165C15.2356 35.0307 15.2481 31.5447 15.2391 28.0589C15.2383 27.7941 15.0833 27.5299 15 27.2656C15 26.933 15 26.6004 15 26.2676Z" fill="#3ECF8E"/>
<path d="M15.0002 54.0801C15.1558 54.1842 15.4353 54.275 15.4482 54.3943C15.664 56.3709 16.9931 57.5641 18.4656 58.6351C24.1328 62.7566 29.77 66.92 35.4991 70.9549C41.842 75.4216 48.2672 79.773 54.668 84.1585C58.3354 86.6714 60.3701 86.6819 64.0322 84.1218C70.5279 79.5809 76.9833 74.9826 83.4749 70.4354C87.3439 67.7253 90.276 64.2852 91.7972 59.8008C92.3614 58.1359 92.591 56.3587 93.2 54.6293C93.0323 59.456 93.1772 64.3188 92.613 69.0994C92.0089 74.2211 89.1849 78.4037 85.039 81.4481C77.746 86.8036 70.3176 91.9791 62.8994 97.1637C60.2993 98.9817 57.6486 98.4419 55.1691 96.7916C51.9399 94.6414 48.7174 92.4782 45.5545 90.2343C36.438 83.7653 27.353 77.2525 18.255 70.7577C16.6288 69.5969 15.4661 68.1399 15.2143 66.095C15.2256 62.5631 15.2413 59.0314 15.2371 55.4997C15.2369 55.2762 15.0825 55.0527 15 54.8292C15.0002 54.5791 15.0002 54.3297 15.0002 54.0801Z" fill="#3ECF8E"/>
<path d="M15.0002 53.6953C15.1558 53.7995 15.4353 53.8903 15.4482 54.0096C15.664 55.9862 16.9931 57.1794 18.4656 58.2504C24.1328 62.3719 29.77 66.5353 35.4991 70.5701C41.842 75.037 48.2672 79.3882 54.668 83.7738C58.3354 86.2867 60.3701 86.2971 64.0322 83.7371C70.5279 79.1962 76.9833 74.598 83.4749 70.0506C87.3439 67.3405 90.276 63.9004 91.7972 59.4161C92.3614 57.7511 92.591 55.974 93.2 54.2446C93.0323 59.0713 93.1772 63.9341 92.613 68.7147C92.0089 73.8363 89.1849 78.0191 85.039 81.0634C77.746 86.4189 70.3176 91.594 62.8994 96.7794C60.2993 98.5966 57.6486 98.0568 55.1691 96.4065C51.9398 94.2571 48.7174 92.0939 45.5545 89.8495C36.438 83.3806 27.353 76.8678 18.255 70.373C16.6288 69.2122 15.4661 67.7552 15.2143 65.7103C15.2256 62.1784 15.2413 58.6467 15.2371 55.115C15.2369 54.8915 15.0825 54.668 15 54.4444C15.0002 54.1943 15.0002 53.9449 15.0002 53.6953Z" fill="#3ECF8E"/>
<path d="M33.0859 24.9665C33.2973 24.7265 33.4063 24.5411 33.5672 24.4289C37.5011 21.6853 41.3658 18.834 45.4004 16.2447C49.5756 13.5654 54.1863 11.9922 59.2303 12C63.9317 12.0073 68.1962 13.4956 72.0628 16.0668C73.932 17.3099 75.7413 18.6817 77.3998 20.1888C80.0806 22.6249 80.3581 26.9632 78.225 29.8797C77.7484 30.5315 77.2523 30.5737 76.6265 30.1575C75.758 29.5798 74.896 28.9913 74.0123 28.4375C65.0885 22.8459 56.1632 22.9061 47.2406 28.4449C45.8226 29.3251 44.4187 30.2292 42.9741 31.0637C42.6841 31.2313 42.1298 31.2974 41.8821 31.134C39.0977 29.2944 36.348 27.4024 33.5949 25.5162C33.4298 25.4034 33.3152 25.2183 33.0859 24.9665Z" fill="#3ECF8E"/>
<path d="M15 25.9121C15.1626 26.078 15.4477 26.23 15.4686 26.4121C15.6711 28.1847 16.7792 29.3747 18.1256 30.3269C30.4896 39.0706 42.8563 47.8105 55.2652 56.4908C58.2622 58.5874 60.6388 58.4661 63.5968 56.3871C70.3548 51.6365 77.1075 46.8782 83.8509 42.1071C87.6744 39.4017 90.4631 35.8849 91.9218 31.4313C92.4306 29.8771 92.626 28.2217 92.8402 27.2064C92.8402 31.0863 93.1276 35.5845 92.7669 40.0305C92.3215 45.5117 89.5589 50.0316 85.1469 53.2863C77.7977 58.7077 70.3037 63.937 62.8058 69.1554C60.3677 70.8522 57.7848 70.4079 55.3965 68.8571C52.9471 67.2666 50.5171 65.6427 48.1347 63.9548C38.2637 56.96 28.417 49.9311 18.5536 42.9256C16.8637 41.7252 15.5291 40.3065 15.2285 38.1611C15.2356 34.6753 15.2481 31.1892 15.2391 27.7034C15.2383 27.4387 15.0833 27.1745 15 26.9102C15 26.5775 15 26.2449 15 25.9121Z" fill="url(#paint0_linear_8438_362)" fill-opacity="0.5"/>
<path d="M15.0002 54.0801C15.1558 54.1842 15.4353 54.275 15.4482 54.3943C15.664 56.3709 16.9931 57.5641 18.4656 58.6351C24.1328 62.7566 29.77 66.92 35.4991 70.9549C41.842 75.4216 48.2672 79.773 54.668 84.1585C58.3354 86.6714 60.3701 86.6819 64.0322 84.1218C70.5279 79.5809 76.9833 74.9826 83.4749 70.4354C87.3439 67.7253 90.276 64.2852 91.7972 59.8008C92.3614 58.1359 92.591 56.3587 93.2 54.6293C93.0323 59.456 93.1772 64.3188 92.613 69.0994C92.0089 74.2211 89.1849 78.4037 85.039 81.4481C77.746 86.8036 70.3176 91.9791 62.8994 97.1637C60.2993 98.9817 57.6486 98.4419 55.1691 96.7916C51.9399 94.6414 48.7174 92.4782 45.5545 90.2343C36.438 83.7653 27.353 77.2525 18.255 70.7577C16.6288 69.5969 15.4661 68.1399 15.2143 66.095C15.2256 62.5631 15.2413 59.0314 15.2371 55.4997C15.2369 55.2762 15.0825 55.0527 15 54.8292C15.0002 54.5791 15.0002 54.3297 15.0002 54.0801Z" fill="url(#paint1_linear_8438_362)" fill-opacity="0.5"/>
<path d="M15 26.2676C15.1626 26.4335 15.4477 26.5855 15.4686 26.7676C15.6711 28.5401 16.7792 29.7302 18.1256 30.6824C30.4896 39.426 42.8563 48.166 55.2651 56.8462C58.2622 58.9428 60.6388 58.8216 63.5968 56.7425C70.3549 51.9919 77.1075 47.2336 83.8509 42.4626C87.6744 39.7571 90.4631 36.2403 91.9218 31.7868C92.4306 30.2326 92.626 28.5772 92.8402 27.5618C92.8402 31.4417 93.1284 35.94 92.7669 40.386C92.3215 45.8671 89.5589 50.387 85.1469 53.6417C77.7977 59.0631 70.3037 64.2924 62.8058 69.5108C60.3677 71.2076 57.7848 70.7633 55.3965 69.2125C52.9471 67.6221 50.5171 65.9981 48.1347 64.3102C38.2637 57.3155 28.417 50.2865 18.5536 43.281C16.8637 42.0807 15.5291 40.6619 15.2285 38.5165C15.2356 35.0307 15.2481 31.5447 15.2391 28.0589C15.2383 27.7941 15.0833 27.5299 15 27.2656C15 26.933 15 26.6004 15 26.2676Z" fill="url(#paint2_linear_8438_362)" fill-opacity="0.5"/>
<path d="M15.0002 53.6973C15.1558 53.8015 15.4353 53.8923 15.4482 54.0115C15.664 55.9881 16.9931 57.1814 18.4656 58.2523C24.1328 62.3738 29.77 66.5373 35.4991 70.5721C41.842 75.0389 48.2672 79.3902 54.668 83.7757C58.3354 86.2886 60.3701 86.2991 64.0322 83.7391C70.5279 79.1981 76.9833 74.5999 83.4749 70.0526C87.3439 67.3425 90.276 63.9023 91.7972 59.418C92.3614 57.7531 92.591 55.9759 93.2 54.2466C93.0323 59.0732 93.1772 63.9361 92.613 68.7166C92.0089 73.8383 89.1849 78.021 85.039 81.0654C77.746 86.4209 70.3176 91.596 62.8994 96.7814C60.2993 98.5986 57.6486 98.0588 55.1691 96.4085C51.9398 94.2591 48.7174 92.0959 45.5545 89.8515C36.438 83.3826 27.353 76.8697 18.255 70.3749C16.6288 69.2142 15.4661 67.7571 15.2143 65.7122C15.2256 62.1803 15.2413 58.6487 15.2371 55.117C15.2369 54.8934 15.0825 54.6699 15 54.4464C15.0002 54.1963 15.0002 53.9469 15.0002 53.6973Z" fill="url(#paint3_linear_8438_362)" fill-opacity="0.5"/>
<path d="M33.0859 24.9665C33.2973 24.7265 33.4063 24.5411 33.5672 24.4289C37.5011 21.6853 41.3658 18.834 45.4004 16.2447C49.5756 13.5654 54.1863 11.9922 59.2303 12C63.9317 12.0073 68.1962 13.4956 72.0628 16.0668C73.932 17.3099 75.7413 18.6817 77.3998 20.1888C80.0806 22.6249 80.3581 26.9632 78.225 29.8797C77.7484 30.5315 77.2523 30.5737 76.6265 30.1575C75.758 29.5798 74.896 28.9913 74.0123 28.4375C65.0885 22.8459 56.1632 22.9061 47.2406 28.4449C45.8226 29.3251 44.4187 30.2292 42.9741 31.0637C42.6841 31.2313 42.1298 31.2974 41.8821 31.134C39.0977 29.2944 36.348 27.4024 33.5949 25.5162C33.4298 25.4034 33.3152 25.2183 33.0859 24.9665Z" fill="url(#paint4_linear_8438_362)" fill-opacity="0.5"/>
<defs>
<linearGradient id="paint0_linear_8438_362" x1="15" y1="157.463" x2="110.572" y2="-42.6133" gradientUnits="userSpaceOnUse">
<stop stop-opacity="0.19"/>
<stop offset="1" stop-opacity="0"/>
</linearGradient>
<linearGradient id="paint1_linear_8438_362" x1="15" y1="157.464" x2="110.572" y2="-42.6129" gradientUnits="userSpaceOnUse">
<stop stop-opacity="0.19"/>
<stop offset="1" stop-opacity="0"/>
</linearGradient>
<linearGradient id="paint2_linear_8438_362" x1="15" y1="157.463" x2="110.572" y2="-42.613" gradientUnits="userSpaceOnUse">
<stop stop-opacity="0.19"/>
<stop offset="1" stop-opacity="0"/>
</linearGradient>
<linearGradient id="paint3_linear_8438_362" x1="15" y1="157.465" x2="110.572" y2="-42.6118" gradientUnits="userSpaceOnUse">
<stop stop-opacity="0.19"/>
<stop offset="1" stop-opacity="0"/>
</linearGradient>
<linearGradient id="paint4_linear_8438_362" x1="15.0017" y1="157.464" x2="110.573" y2="-42.6123" gradientUnits="userSpaceOnUse">
<stop stop-opacity="0.19"/>
<stop offset="1" stop-opacity="0"/>
</linearGradient>
</defs>
</svg>
