<svg width="256" height="256" viewBox="0 0 256 256" fill="none" xmlns="http://www.w3.org/2000/svg">
<g clip-path="url(#clip0_8339_953)">
<path d="M128 256C198.692 256 256 198.693 256 128C256 57.3076 198.692 0 128 0C57.3076 0 0 57.3076 0 128C0 198.693 57.3076 256 128 256Z" fill="url(#paint0_radial_8339_953)"/>
<path d="M127.998 249.598C195.156 249.598 249.598 195.156 249.598 127.998C249.598 60.8406 195.156 6.39844 127.998 6.39844C60.8407 6.39844 6.39844 60.8406 6.39844 127.998C6.39844 195.156 60.8407 249.598 127.998 249.598Z" fill="url(#paint1_radial_8339_953)"/>
<path d="M127.998 217.598C177.483 217.598 217.598 177.483 217.598 127.998C217.598 78.5139 177.483 38.3984 127.998 38.3984C78.5136 38.3984 38.3984 78.5139 38.3984 127.998C38.3984 177.483 78.5136 217.598 127.998 217.598Z" fill="url(#paint2_radial_8339_953)"/>
<path d="M128.003 212.48C174.66 212.48 212.483 174.657 212.483 128C212.483 81.3425 174.66 43.5195 128.003 43.5195C81.3464 43.5195 43.5234 81.3425 43.5234 128C43.5234 174.657 81.3464 212.48 128.003 212.48Z" fill="url(#paint3_radial_8339_953)"/>
<path d="M128.003 212.48C174.66 212.48 212.483 174.657 212.483 128C212.483 81.3425 174.66 43.5195 128.003 43.5195C81.3464 43.5195 43.5234 81.3425 43.5234 128C43.5234 174.657 81.3464 212.48 128.003 212.48Z" fill="url(#paint4_radial_8339_953)"/>
<path d="M128.003 212.48C174.66 212.48 212.483 174.657 212.483 128C212.483 81.3425 174.66 43.5195 128.003 43.5195C81.3464 43.5195 43.5234 81.3425 43.5234 128C43.5234 174.657 81.3464 212.48 128.003 212.48Z" fill="url(#paint5_radial_8339_953)"/>
<path d="M79.3594 91.5703C79.5612 91.7771 79.9146 91.9664 79.9404 92.1933C80.1913 94.4013 81.5652 95.8838 83.2345 97.0698C98.5631 107.962 113.895 118.849 129.28 129.662C132.995 132.274 135.942 132.122 139.609 129.533C147.988 123.615 156.359 117.688 164.72 111.744C169.46 108.374 172.917 103.993 174.725 98.4455C175.356 96.5096 175.599 94.4475 175.864 93.1826C175.864 98.0158 176.221 103.619 175.773 109.157C175.221 115.985 171.796 121.616 166.326 125.67C157.215 132.423 147.924 138.937 138.628 145.438C135.606 147.551 132.403 146.998 129.442 145.066C126.406 143.085 123.393 141.062 120.439 138.96C108.202 130.246 95.9934 121.49 83.7649 112.764C81.6699 111.269 80.0153 109.501 79.6425 106.829C79.6515 102.487 79.6669 98.1441 79.6558 93.802C79.6547 93.4722 79.4626 93.1428 79.3594 92.8137C79.3594 92.3994 79.3594 91.985 79.3594 91.5703Z" fill="#E18400"/>
<path d="M79.3597 126.672C79.5526 126.802 79.8988 126.915 79.915 127.063C80.1827 129.525 81.8305 131.012 83.656 132.346C90.6821 137.48 97.671 142.666 104.774 147.693C112.638 153.257 120.604 158.677 128.539 164.14C133.086 167.27 135.608 167.283 140.149 164.094C148.202 158.438 156.205 152.71 164.253 147.046C169.05 143.669 172.685 139.384 174.571 133.798C175.271 131.724 175.555 129.51 176.311 127.356C176.103 133.369 176.282 139.426 175.583 145.381C174.834 151.761 171.333 156.971 166.193 160.764C157.151 167.435 147.941 173.882 138.744 180.341C135.521 182.604 132.235 181.932 129.161 179.877C125.157 177.199 121.162 174.504 117.241 171.708C105.938 163.65 94.6744 155.537 83.3947 147.447C81.3788 146.001 79.9372 144.186 79.625 141.639C79.639 137.239 79.6583 132.84 79.6533 128.44C79.6529 128.162 79.4619 127.883 79.3594 127.605C79.3597 127.293 79.3597 126.983 79.3597 126.672Z" fill="#E18400"/>
<path d="M101.977 90.3903C102.239 90.0917 102.374 89.8605 102.573 89.7207C107.451 86.303 112.242 82.7512 117.244 79.526C122.42 76.1882 128.137 74.2286 134.39 74.2383C140.219 74.2476 145.506 76.1015 150.3 79.3041C152.617 80.8526 154.86 82.5616 156.916 84.4388C160.24 87.4733 160.584 92.8779 157.939 96.5106C157.349 97.3225 156.733 97.3752 155.958 96.8565C154.881 96.1371 153.812 95.4041 152.716 94.7141C141.653 87.749 130.588 87.8239 119.525 94.7235C117.768 95.8199 116.027 96.9461 114.236 97.9856C113.876 98.1946 113.189 98.2767 112.882 98.0731C109.43 95.7816 106.021 93.4248 102.607 91.0753C102.403 90.9348 102.261 90.7039 101.977 90.3903Z" fill="#E18400"/>
<path d="M79.3594 91.5703C79.5612 91.7771 79.9146 91.9664 79.9404 92.1933C80.1913 94.4013 81.5652 95.8838 83.2345 97.0698C98.5631 107.962 113.895 118.849 129.28 129.662C132.995 132.274 135.942 132.122 139.609 129.533C147.988 123.615 156.359 117.688 164.72 111.744C169.46 108.374 172.917 103.993 174.725 98.4455C175.356 96.5096 175.599 94.4475 175.864 93.1826C175.864 98.0158 176.221 103.619 175.773 109.157C175.221 115.985 171.796 121.616 166.326 125.67C157.215 132.423 147.924 138.937 138.628 145.438C135.606 147.551 132.403 146.998 129.442 145.066C126.406 143.085 123.393 141.062 120.439 138.96C108.202 130.246 95.9934 121.49 83.7649 112.764C81.6699 111.269 80.0153 109.501 79.6425 106.829C79.6515 102.487 79.6669 98.1441 79.6558 93.802C79.6547 93.4722 79.4626 93.1428 79.3594 92.8137C79.3594 92.3994 79.3594 91.985 79.3594 91.5703Z" fill="#E99C00"/>
<path d="M79.3597 126.672C79.5526 126.802 79.8988 126.915 79.915 127.063C80.1827 129.525 81.8305 131.012 83.656 132.346C90.6821 137.48 97.671 142.666 104.774 147.693C112.638 153.257 120.604 158.677 128.539 164.14C133.086 167.27 135.608 167.283 140.149 164.094C148.202 158.438 156.205 152.71 164.253 147.046C169.05 143.669 172.685 139.384 174.571 133.798C175.271 131.724 175.555 129.51 176.311 127.356C176.103 133.369 176.282 139.426 175.583 145.381C174.834 151.761 171.333 156.971 166.193 160.764C157.151 167.435 147.941 173.882 138.744 180.341C135.521 182.604 132.235 181.932 129.161 179.877C125.157 177.199 121.162 174.504 117.241 171.708C105.938 163.65 94.6744 155.537 83.3947 147.447C81.3788 146.001 79.9372 144.186 79.625 141.639C79.639 137.239 79.6583 132.84 79.6533 128.44C79.6529 128.162 79.4619 127.883 79.3594 127.605C79.3597 127.293 79.3597 126.983 79.3597 126.672Z" fill="#E99C00"/>
<path d="M101.977 90.3903C102.239 90.0917 102.374 89.8605 102.573 89.7207C107.451 86.303 112.242 82.7512 117.244 79.526C122.42 76.1882 128.137 74.2286 134.39 74.2383C140.219 74.2476 145.506 76.1015 150.3 79.3041C152.617 80.8526 154.86 82.5616 156.916 84.4388C160.24 87.4733 160.584 92.8779 157.939 96.5106C157.349 97.3225 156.733 97.3752 155.958 96.8565C154.881 96.1371 153.812 95.4041 152.716 94.7141C141.653 87.749 130.588 87.8239 119.525 94.7235C117.768 95.8199 116.027 96.9461 114.236 97.9856C113.876 98.1946 113.189 98.2767 112.882 98.0731C109.43 95.7816 106.021 93.4248 102.607 91.0753C102.403 90.9348 102.261 90.7039 101.977 90.3903Z" fill="#E99C00"/>
<path d="M79.3594 91.5703C79.5612 91.7771 79.9146 91.9664 79.9404 92.1933C80.1913 94.4013 81.5652 95.8838 83.2345 97.0698C98.5631 107.962 113.895 118.849 129.28 129.662C132.995 132.274 135.942 132.122 139.609 129.533C147.988 123.615 156.359 117.688 164.72 111.744C169.46 108.374 172.917 103.993 174.725 98.4455C175.356 96.5096 175.599 94.4475 175.864 93.1826C175.864 98.0158 176.221 103.619 175.773 109.157C175.221 115.985 171.796 121.616 166.326 125.67C157.215 132.423 147.924 138.937 138.628 145.438C135.606 147.551 132.403 146.998 129.442 145.066C126.406 143.085 123.393 141.062 120.439 138.96C108.202 130.246 95.9934 121.49 83.7649 112.764C81.6699 111.269 80.0153 109.501 79.6425 106.829C79.6515 102.487 79.6669 98.1441 79.6558 93.802C79.6547 93.4722 79.4626 93.1428 79.3594 92.8137C79.3594 92.3994 79.3594 91.985 79.3594 91.5703Z" fill="#F0B400"/>
<path d="M79.3597 126.672C79.5526 126.802 79.8988 126.915 79.915 127.063C80.1827 129.525 81.8305 131.012 83.656 132.346C90.6821 137.48 97.671 142.666 104.774 147.693C112.638 153.257 120.604 158.677 128.539 164.14C133.086 167.27 135.608 167.283 140.149 164.094C148.202 158.438 156.205 152.71 164.253 147.046C169.05 143.669 172.685 139.384 174.571 133.798C175.271 131.724 175.555 129.51 176.311 127.356C176.103 133.369 176.282 139.426 175.583 145.381C174.834 151.761 171.333 156.971 166.193 160.764C157.151 167.435 147.941 173.882 138.744 180.341C135.521 182.604 132.235 181.932 129.161 179.877C125.157 177.199 121.162 174.504 117.241 171.708C105.938 163.65 94.6744 155.537 83.3947 147.447C81.3788 146.001 79.9372 144.186 79.625 141.639C79.639 137.239 79.6583 132.84 79.6533 128.44C79.6529 128.162 79.4619 127.883 79.3594 127.605C79.3597 127.293 79.3597 126.983 79.3597 126.672Z" fill="#F0B400"/>
<path d="M101.977 90.3903C102.239 90.0917 102.374 89.8605 102.573 89.7207C107.451 86.303 112.242 82.7512 117.244 79.526C122.42 76.1882 128.137 74.2286 134.39 74.2383C140.219 74.2476 145.506 76.1015 150.3 79.3041C152.617 80.8526 154.86 82.5616 156.916 84.4388C160.24 87.4733 160.584 92.8779 157.939 96.5106C157.349 97.3225 156.733 97.3752 155.958 96.8565C154.881 96.1371 153.812 95.4041 152.716 94.7141C141.653 87.749 130.588 87.8239 119.525 94.7235C117.768 95.8199 116.027 96.9461 114.236 97.9856C113.876 98.1946 113.189 98.2767 112.882 98.0731C109.43 95.7816 106.021 93.4248 102.607 91.0753C102.403 90.9348 102.261 90.7039 101.977 90.3903Z" fill="#F0B400"/>
<path d="M79.3594 91.5703C79.5612 91.7771 79.9146 91.9664 79.9404 92.1933C80.1913 94.4013 81.5652 95.8838 83.2345 97.0698C98.5631 107.962 113.895 118.849 129.28 129.662C132.995 132.274 135.942 132.122 139.609 129.533C147.988 123.615 156.359 117.688 164.72 111.744C169.46 108.374 172.917 103.993 174.725 98.4455C175.356 96.5096 175.599 94.4475 175.864 93.1826C175.864 98.0158 176.221 103.619 175.773 109.157C175.221 115.985 171.796 121.616 166.326 125.67C157.215 132.423 147.924 138.937 138.628 145.438C135.606 147.551 132.403 146.998 129.442 145.066C126.406 143.085 123.393 141.062 120.439 138.96C108.202 130.246 95.9934 121.49 83.7649 112.764C81.6699 111.269 80.0153 109.501 79.6425 106.829C79.6515 102.487 79.6669 98.1441 79.6558 93.802C79.6547 93.4722 79.4626 93.1428 79.3594 92.8137C79.3594 92.3994 79.3594 91.985 79.3594 91.5703Z" fill="#F8CC00"/>
<path d="M79.3597 126.672C79.5526 126.802 79.8988 126.915 79.915 127.063C80.1827 129.525 81.8305 131.012 83.656 132.346C90.6821 137.48 97.671 142.666 104.774 147.693C112.638 153.257 120.604 158.677 128.539 164.14C133.086 167.27 135.608 167.283 140.149 164.094C148.202 158.438 156.205 152.71 164.253 147.046C169.05 143.669 172.685 139.384 174.571 133.798C175.271 131.724 175.555 129.51 176.311 127.356C176.103 133.369 176.282 139.426 175.583 145.381C174.834 151.761 171.333 156.971 166.193 160.764C157.151 167.435 147.941 173.882 138.744 180.341C135.521 182.604 132.235 181.932 129.161 179.877C125.157 177.199 121.162 174.504 117.241 171.708C105.938 163.65 94.6744 155.537 83.3947 147.447C81.3788 146.001 79.9372 144.186 79.625 141.639C79.639 137.239 79.6583 132.84 79.6533 128.44C79.6529 128.162 79.4619 127.883 79.3594 127.605C79.3597 127.293 79.3597 126.983 79.3597 126.672Z" fill="#F8CC00"/>
<path d="M101.977 90.3903C102.239 90.0917 102.374 89.8605 102.573 89.7207C107.451 86.303 112.242 82.7512 117.244 79.526C122.42 76.1882 128.137 74.2286 134.39 74.2383C140.219 74.2476 145.506 76.1015 150.3 79.3041C152.617 80.8526 154.86 82.5616 156.916 84.4388C160.24 87.4733 160.584 92.8779 157.939 96.5106C157.349 97.3225 156.733 97.3752 155.958 96.8565C154.881 96.1371 153.812 95.4041 152.716 94.7141C141.653 87.749 130.588 87.8239 119.525 94.7235C117.768 95.8199 116.027 96.9461 114.236 97.9856C113.876 98.1946 113.189 98.2767 112.882 98.0731C109.43 95.7816 106.021 93.4248 102.607 91.0753C102.403 90.9348 102.261 90.7039 101.977 90.3903Z" fill="#F8CC00"/>
<path d="M79.3594 91.5703C79.5612 91.7771 79.9146 91.9664 79.9404 92.1933C80.1913 94.4013 81.5652 95.8838 83.2345 97.0698C98.5631 107.962 113.895 118.849 129.28 129.662C132.995 132.274 135.942 132.122 139.609 129.533C147.988 123.615 156.359 117.688 164.72 111.744C169.46 108.374 172.917 103.993 174.725 98.4455C175.356 96.5096 175.599 94.4475 175.864 93.1826C175.864 98.0158 176.221 103.619 175.773 109.157C175.221 115.985 171.796 121.616 166.326 125.67C157.215 132.423 147.924 138.937 138.628 145.438C135.606 147.551 132.403 146.998 129.442 145.066C126.406 143.085 123.393 141.062 120.439 138.96C108.202 130.246 95.9934 121.49 83.7649 112.764C81.6699 111.269 80.0153 109.501 79.6425 106.829C79.6515 102.487 79.6669 98.1441 79.6558 93.802C79.6547 93.4722 79.4626 93.1428 79.3594 92.8137C79.3594 92.3994 79.3594 91.985 79.3594 91.5703Z" fill="#FFE400"/>
<path d="M79.3597 126.672C79.5526 126.802 79.8988 126.915 79.915 127.063C80.1827 129.525 81.8305 131.012 83.656 132.346C90.6821 137.48 97.671 142.666 104.774 147.693C112.638 153.257 120.604 158.677 128.539 164.14C133.086 167.27 135.608 167.283 140.149 164.094C148.202 158.438 156.205 152.71 164.253 147.046C169.05 143.669 172.685 139.384 174.571 133.798C175.271 131.724 175.555 129.51 176.311 127.356C176.103 133.369 176.282 139.426 175.583 145.381C174.834 151.761 171.333 156.971 166.193 160.764C157.151 167.435 147.941 173.882 138.744 180.341C135.521 182.604 132.235 181.932 129.161 179.877C125.157 177.199 121.162 174.504 117.241 171.708C105.938 163.65 94.6744 155.537 83.3947 147.447C81.3788 146.001 79.9372 144.186 79.625 141.639C79.639 137.239 79.6583 132.84 79.6533 128.44C79.6529 128.162 79.4619 127.883 79.3594 127.605C79.3597 127.293 79.3597 126.983 79.3597 126.672Z" fill="#FFE400"/>
<path d="M101.977 90.3903C102.239 90.0917 102.374 89.8605 102.573 89.7207C107.451 86.303 112.242 82.7512 117.244 79.526C122.42 76.1882 128.137 74.2286 134.39 74.2383C140.219 74.2476 145.506 76.1015 150.3 79.3041C152.617 80.8526 154.86 82.5616 156.916 84.4388C160.24 87.4733 160.584 92.8779 157.939 96.5106C157.349 97.3225 156.733 97.3752 155.958 96.8565C154.881 96.1371 153.812 95.4041 152.716 94.7141C141.653 87.749 130.588 87.8239 119.525 94.7235C117.768 95.8199 116.027 96.9461 114.236 97.9856C113.876 98.1946 113.189 98.2767 112.882 98.0731C109.43 95.7816 106.021 93.4248 102.607 91.0753C102.403 90.9348 102.261 90.7039 101.977 90.3903Z" fill="#FFE400"/>
</g>
<defs>
<radialGradient id="paint0_radial_8339_953" cx="0" cy="0" r="1" gradientUnits="userSpaceOnUse" gradientTransform="translate(126.833 13.8136) scale(241.775)">
<stop stop-color="#FDFB45"/>
<stop offset="0.41557" stop-color="#BB6000"/>
<stop offset="0.73404" stop-color="#FDFB45"/>
<stop offset="0.99968" stop-color="#BB6000"/>
</radialGradient>
<radialGradient id="paint1_radial_8339_953" cx="0" cy="0" r="1" gradientUnits="userSpaceOnUse" gradientTransform="translate(126.889 19.5214) scale(229.686 229.686)">
<stop stop-color="#FDFB45"/>
<stop offset="1" stop-color="#FF9600"/>
</radialGradient>
<radialGradient id="paint2_radial_8339_953" cx="0" cy="0" r="1" gradientUnits="userSpaceOnUse" gradientTransform="translate(127.181 48.0681) scale(169.242)">
<stop stop-color="#E18400"/>
<stop offset="0.17705" stop-color="#E18601"/>
<stop offset="0.24083" stop-color="#E38D05"/>
<stop offset="0.28629" stop-color="#E6980C"/>
<stop offset="0.32306" stop-color="#EAA916"/>
<stop offset="0.35452" stop-color="#EFBF22"/>
<stop offset="0.38188" stop-color="#F5DA32"/>
<stop offset="0.40654" stop-color="#FDF944"/>
<stop offset="0.40767" stop-color="#FDFB45"/>
<stop offset="0.49512" stop-color="#FDF943"/>
<stop offset="0.53105" stop-color="#FDF23D"/>
<stop offset="0.55752" stop-color="#FEE633"/>
<stop offset="0.57936" stop-color="#FED425"/>
<stop offset="0.59812" stop-color="#FEBE12"/>
<stop offset="0.61159" stop-color="#FFA800"/>
<stop offset="0.93384" stop-color="#FFE300"/>
<stop offset="1" stop-color="#FFA800"/>
</radialGradient>
<radialGradient id="paint3_radial_8339_953" cx="0" cy="0" r="1" gradientUnits="userSpaceOnUse" gradientTransform="translate(127.233 52.6365) scale(159.571)">
<stop stop-color="#FFE300"/>
<stop offset="1" stop-color="#FFA800"/>
</radialGradient>
<radialGradient id="paint4_radial_8339_953" cx="0" cy="0" r="1" gradientUnits="userSpaceOnUse" gradientTransform="translate(127.233 52.6365) scale(159.571)">
<stop stop-color="#FFE300"/>
<stop offset="1" stop-color="#FFA800"/>
</radialGradient>
<radialGradient id="paint5_radial_8339_953" cx="0" cy="0" r="1" gradientUnits="userSpaceOnUse" gradientTransform="translate(127.233 52.6365) scale(159.571)">
<stop stop-color="#FFE300"/>
<stop offset="0.09577" stop-color="#FFD900"/>
<stop offset="0.47359" stop-color="#FFB900"/>
<stop offset="0.78853" stop-color="#FFA400"/>
<stop offset="1" stop-color="#FF9D00"/>
</radialGradient>
<clipPath id="clip0_8339_953">
<rect width="256" height="256" fill="white"/>
</clipPath>
</defs>
</svg>
