<svg width="256" height="256" viewBox="0 0 256 256" fill="none" xmlns="http://www.w3.org/2000/svg">
<g clip-path="url(#clip0_8339_991)">
<path d="M128 256C57.3077 256 5.72205e-06 198.693 5.72205e-06 128C5.72205e-06 57.3076 57.3077 0 128 0C198.692 0 256 57.3076 256 128C256 198.693 198.692 256 128 256Z" fill="url(#paint0_radial_8339_991)"/>
<path d="M128.002 249.598C60.8438 249.598 6.40157 195.156 6.40157 127.998C6.40157 60.8406 60.8438 6.39844 128.002 6.39844C195.159 6.39844 249.602 60.8406 249.602 127.998C249.602 195.156 195.159 249.598 128.002 249.598Z" fill="url(#paint1_radial_8339_991)"/>
<path d="M128.002 217.598C78.5168 217.598 38.4016 177.483 38.4016 127.998C38.4016 78.5139 78.5168 38.3984 128.002 38.3984C177.486 38.3984 217.602 78.5139 217.602 127.998C217.602 177.483 177.486 217.598 128.002 217.598Z" fill="url(#paint2_radial_8339_991)"/>
<path d="M127.997 212.48C81.3395 212.48 43.5166 174.657 43.5166 128C43.5166 81.3425 81.3395 43.5195 127.997 43.5195C174.654 43.5195 212.477 81.3425 212.477 128C212.477 174.657 174.654 212.48 127.997 212.48Z" fill="url(#paint3_radial_8339_991)"/>
<path d="M127.997 212.48C81.3395 212.48 43.5166 174.657 43.5166 128C43.5166 81.3425 81.3395 43.5195 127.997 43.5195C174.654 43.5195 212.477 81.3425 212.477 128C212.477 174.657 174.654 212.48 127.997 212.48Z" fill="url(#paint4_radial_8339_991)"/>
<path d="M127.997 212.48C81.3395 212.48 43.5166 174.657 43.5166 128C43.5166 81.3425 81.3395 43.5195 127.997 43.5195C174.654 43.5195 212.477 81.3425 212.477 128C212.477 174.657 174.654 212.48 127.997 212.48Z" fill="url(#paint5_radial_8339_991)"/>
<path d="M176.641 91.5703C176.439 91.7771 176.085 91.9664 176.06 92.1933C175.809 94.4013 174.435 95.8838 172.766 97.0698C157.437 107.962 142.105 118.849 126.72 129.662C123.005 132.274 120.058 132.122 116.391 129.533C108.012 123.615 99.6408 117.688 91.2802 111.744C86.5402 108.374 83.0827 103.993 81.2747 98.4455C80.6439 96.5096 80.4012 94.4475 80.136 93.1826C80.136 98.0158 79.779 103.619 80.2266 109.157C80.779 115.985 84.2035 121.616 89.6737 125.67C98.7848 132.423 108.076 138.937 117.372 145.438C120.394 147.551 123.597 146.998 126.558 145.066C129.594 143.085 132.607 141.062 135.561 138.96C147.798 130.246 160.007 121.49 172.235 112.764C174.33 111.269 175.985 109.501 176.357 106.829C176.348 102.487 176.333 98.1441 176.344 93.802C176.345 93.4722 176.537 93.1428 176.641 92.8137C176.641 92.3994 176.641 91.985 176.641 91.5703Z" fill="#E18400"/>
<path d="M176.64 126.672C176.447 126.802 176.101 126.915 176.085 127.063C175.817 129.525 174.17 131.012 172.344 132.346C165.318 137.48 158.329 142.666 151.226 147.693C143.362 153.257 135.396 158.677 127.461 164.14C122.914 167.27 120.392 167.283 115.851 164.094C107.798 158.438 99.7945 152.71 91.7465 147.046C86.9495 143.669 83.3146 139.384 81.4288 133.798C80.7292 131.724 80.4449 129.51 79.6893 127.356C79.8969 133.369 79.7177 139.426 80.417 145.381C81.1661 151.761 84.6673 156.971 89.8074 160.764C98.849 167.435 108.059 173.882 117.256 180.341C120.479 182.604 123.765 181.932 126.839 179.877C130.843 177.199 134.838 174.504 138.759 171.708C150.062 163.65 161.326 155.537 172.605 147.447C174.621 146.001 176.063 144.186 176.375 141.639C176.361 137.239 176.342 132.84 176.347 128.44C176.347 128.162 176.538 127.883 176.641 127.605C176.64 127.293 176.64 126.983 176.64 126.672Z" fill="#E18400"/>
<path d="M154.023 90.3903C153.761 90.0917 153.626 89.8605 153.427 89.7207C148.549 86.303 143.758 82.7512 138.756 79.526C133.58 76.1882 127.863 74.2286 121.61 74.2383C115.781 74.2476 110.494 76.1015 105.7 79.3041C103.383 80.8526 101.14 82.5616 99.0837 84.4388C95.7599 87.4733 95.4158 92.8779 98.0607 96.5106C98.6514 97.3225 99.2665 97.3752 100.042 96.8565C101.119 96.1371 102.188 95.4041 103.284 94.7141C114.347 87.749 125.412 87.8239 136.475 94.7235C138.232 95.8199 139.973 96.9461 141.764 97.9856C142.124 98.1946 142.811 98.2767 143.118 98.0731C146.57 95.7816 149.979 93.4248 153.393 91.0753C153.597 90.9348 153.739 90.7039 154.023 90.3903Z" fill="#E18400"/>
<path d="M176.641 91.5703C176.439 91.7771 176.085 91.9664 176.06 92.1933C175.809 94.4013 174.435 95.8838 172.766 97.0698C157.437 107.962 142.105 118.849 126.72 129.662C123.005 132.274 120.058 132.122 116.391 129.533C108.012 123.615 99.6408 117.688 91.2802 111.744C86.5402 108.374 83.0827 103.993 81.2747 98.4455C80.6439 96.5096 80.4012 94.4475 80.136 93.1826C80.136 98.0158 79.779 103.619 80.2266 109.157C80.779 115.985 84.2035 121.616 89.6737 125.67C98.7848 132.423 108.076 138.937 117.372 145.438C120.394 147.551 123.597 146.998 126.558 145.066C129.594 143.085 132.607 141.062 135.561 138.96C147.798 130.246 160.007 121.49 172.235 112.764C174.33 111.269 175.985 109.501 176.357 106.829C176.348 102.487 176.333 98.1441 176.344 93.802C176.345 93.4722 176.537 93.1428 176.641 92.8137C176.641 92.3994 176.641 91.985 176.641 91.5703Z" fill="#E99C00"/>
<path d="M176.64 126.672C176.447 126.802 176.101 126.915 176.085 127.063C175.817 129.525 174.17 131.012 172.344 132.346C165.318 137.48 158.329 142.666 151.226 147.693C143.362 153.257 135.396 158.677 127.461 164.14C122.914 167.27 120.392 167.283 115.851 164.094C107.798 158.438 99.7945 152.71 91.7465 147.046C86.9495 143.669 83.3146 139.384 81.4288 133.798C80.7292 131.724 80.4449 129.51 79.6893 127.356C79.8969 133.369 79.7177 139.426 80.417 145.381C81.1661 151.761 84.6673 156.971 89.8074 160.764C98.849 167.435 108.059 173.882 117.256 180.341C120.479 182.604 123.765 181.932 126.839 179.877C130.843 177.199 134.838 174.504 138.759 171.708C150.062 163.65 161.326 155.537 172.605 147.447C174.621 146.001 176.063 144.186 176.375 141.639C176.361 137.239 176.342 132.84 176.347 128.44C176.347 128.162 176.538 127.883 176.641 127.605C176.64 127.293 176.64 126.983 176.64 126.672Z" fill="#E99C00"/>
<path d="M154.023 90.3903C153.761 90.0917 153.626 89.8605 153.427 89.7207C148.549 86.303 143.758 82.7512 138.756 79.526C133.58 76.1882 127.863 74.2286 121.61 74.2383C115.781 74.2476 110.494 76.1015 105.7 79.3041C103.383 80.8526 101.14 82.5616 99.0837 84.4388C95.7599 87.4733 95.4158 92.8779 98.0607 96.5106C98.6514 97.3225 99.2665 97.3752 100.042 96.8565C101.119 96.1371 102.188 95.4041 103.284 94.7141C114.347 87.749 125.412 87.8239 136.475 94.7235C138.232 95.8199 139.973 96.9461 141.764 97.9856C142.124 98.1946 142.811 98.2767 143.118 98.0731C146.57 95.7816 149.979 93.4248 153.393 91.0753C153.597 90.9348 153.739 90.7039 154.023 90.3903Z" fill="#E99C00"/>
<path d="M176.641 91.5703C176.439 91.7771 176.085 91.9664 176.06 92.1933C175.809 94.4013 174.435 95.8838 172.766 97.0698C157.437 107.962 142.105 118.849 126.72 129.662C123.005 132.274 120.058 132.122 116.391 129.533C108.012 123.615 99.6408 117.688 91.2802 111.744C86.5402 108.374 83.0827 103.993 81.2747 98.4455C80.6439 96.5096 80.4012 94.4475 80.136 93.1826C80.136 98.0158 79.779 103.619 80.2266 109.157C80.779 115.985 84.2035 121.616 89.6737 125.67C98.7848 132.423 108.076 138.937 117.372 145.438C120.394 147.551 123.597 146.998 126.558 145.066C129.594 143.085 132.607 141.062 135.561 138.96C147.798 130.246 160.007 121.49 172.235 112.764C174.33 111.269 175.985 109.501 176.357 106.829C176.348 102.487 176.333 98.1441 176.344 93.802C176.345 93.4722 176.537 93.1428 176.641 92.8137C176.641 92.3994 176.641 91.985 176.641 91.5703Z" fill="#F0B400"/>
<path d="M176.64 126.672C176.447 126.802 176.101 126.915 176.085 127.063C175.817 129.525 174.17 131.012 172.344 132.346C165.318 137.48 158.329 142.666 151.226 147.693C143.362 153.257 135.396 158.677 127.461 164.14C122.914 167.27 120.392 167.283 115.851 164.094C107.798 158.438 99.7945 152.71 91.7465 147.046C86.9495 143.669 83.3146 139.384 81.4288 133.798C80.7292 131.724 80.4449 129.51 79.6893 127.356C79.8969 133.369 79.7177 139.426 80.417 145.381C81.1661 151.761 84.6673 156.971 89.8074 160.764C98.849 167.435 108.059 173.882 117.256 180.341C120.479 182.604 123.765 181.932 126.839 179.877C130.843 177.199 134.838 174.504 138.759 171.708C150.062 163.65 161.326 155.537 172.605 147.447C174.621 146.001 176.063 144.186 176.375 141.639C176.361 137.239 176.342 132.84 176.347 128.44C176.347 128.162 176.538 127.883 176.641 127.605C176.64 127.293 176.64 126.983 176.64 126.672Z" fill="#F0B400"/>
<path d="M154.023 90.3903C153.761 90.0917 153.626 89.8605 153.427 89.7207C148.549 86.303 143.758 82.7512 138.756 79.526C133.58 76.1882 127.863 74.2286 121.61 74.2383C115.781 74.2476 110.494 76.1015 105.7 79.3041C103.383 80.8526 101.14 82.5616 99.0837 84.4388C95.7599 87.4733 95.4158 92.8779 98.0607 96.5106C98.6514 97.3225 99.2665 97.3752 100.042 96.8565C101.119 96.1371 102.188 95.4041 103.284 94.7141C114.347 87.749 125.412 87.8239 136.475 94.7235C138.232 95.8199 139.973 96.9461 141.764 97.9856C142.124 98.1946 142.811 98.2767 143.118 98.0731C146.57 95.7816 149.979 93.4248 153.393 91.0753C153.597 90.9348 153.739 90.7039 154.023 90.3903Z" fill="#F0B400"/>
<path d="M176.641 91.5703C176.439 91.7771 176.085 91.9664 176.06 92.1933C175.809 94.4013 174.435 95.8838 172.766 97.0698C157.437 107.962 142.105 118.849 126.72 129.662C123.005 132.274 120.058 132.122 116.391 129.533C108.012 123.615 99.6408 117.688 91.2802 111.744C86.5402 108.374 83.0827 103.993 81.2747 98.4455C80.6439 96.5096 80.4012 94.4475 80.136 93.1826C80.136 98.0158 79.779 103.619 80.2266 109.157C80.779 115.985 84.2035 121.616 89.6737 125.67C98.7848 132.423 108.076 138.937 117.372 145.438C120.394 147.551 123.597 146.998 126.558 145.066C129.594 143.085 132.607 141.062 135.561 138.96C147.798 130.246 160.007 121.49 172.235 112.764C174.33 111.269 175.985 109.501 176.357 106.829C176.348 102.487 176.333 98.1441 176.344 93.802C176.345 93.4722 176.537 93.1428 176.641 92.8137C176.641 92.3994 176.641 91.985 176.641 91.5703Z" fill="#F8CC00"/>
<path d="M176.64 126.672C176.447 126.802 176.101 126.915 176.085 127.063C175.817 129.525 174.17 131.012 172.344 132.346C165.318 137.48 158.329 142.666 151.226 147.693C143.362 153.257 135.396 158.677 127.461 164.14C122.914 167.27 120.392 167.283 115.851 164.094C107.798 158.438 99.7945 152.71 91.7465 147.046C86.9495 143.669 83.3146 139.384 81.4288 133.798C80.7292 131.724 80.4449 129.51 79.6893 127.356C79.8969 133.369 79.7177 139.426 80.417 145.381C81.1661 151.761 84.6673 156.971 89.8074 160.764C98.849 167.435 108.059 173.882 117.256 180.341C120.479 182.604 123.765 181.932 126.839 179.877C130.843 177.199 134.838 174.504 138.759 171.708C150.062 163.65 161.326 155.537 172.605 147.447C174.621 146.001 176.063 144.186 176.375 141.639C176.361 137.239 176.342 132.84 176.347 128.44C176.347 128.162 176.538 127.883 176.641 127.605C176.64 127.293 176.64 126.983 176.64 126.672Z" fill="#F8CC00"/>
<path d="M154.023 90.3903C153.761 90.0917 153.626 89.8605 153.427 89.7207C148.549 86.303 143.758 82.7512 138.756 79.526C133.58 76.1882 127.863 74.2286 121.61 74.2383C115.781 74.2476 110.494 76.1015 105.7 79.3041C103.383 80.8526 101.14 82.5616 99.0837 84.4388C95.7599 87.4733 95.4158 92.8779 98.0607 96.5106C98.6514 97.3225 99.2665 97.3752 100.042 96.8565C101.119 96.1371 102.188 95.4041 103.284 94.7141C114.347 87.749 125.412 87.8239 136.475 94.7235C138.232 95.8199 139.973 96.9461 141.764 97.9856C142.124 98.1946 142.811 98.2767 143.118 98.0731C146.57 95.7816 149.979 93.4248 153.393 91.0753C153.597 90.9348 153.739 90.7039 154.023 90.3903Z" fill="#F8CC00"/>
<path d="M176.641 91.5703C176.439 91.7771 176.085 91.9664 176.06 92.1933C175.809 94.4013 174.435 95.8838 172.766 97.0698C157.437 107.962 142.105 118.849 126.72 129.662C123.005 132.274 120.058 132.122 116.391 129.533C108.012 123.615 99.6408 117.688 91.2802 111.744C86.5402 108.374 83.0827 103.993 81.2747 98.4455C80.6439 96.5096 80.4012 94.4475 80.136 93.1826C80.136 98.0158 79.779 103.619 80.2266 109.157C80.779 115.985 84.2035 121.616 89.6737 125.67C98.7848 132.423 108.076 138.937 117.372 145.438C120.394 147.551 123.597 146.998 126.558 145.066C129.594 143.085 132.607 141.062 135.561 138.96C147.798 130.246 160.007 121.49 172.235 112.764C174.33 111.269 175.985 109.501 176.357 106.829C176.348 102.487 176.333 98.1441 176.344 93.802C176.345 93.4722 176.537 93.1428 176.641 92.8137C176.641 92.3994 176.641 91.985 176.641 91.5703Z" fill="#FFE400"/>
<path d="M176.64 126.672C176.447 126.802 176.101 126.915 176.085 127.063C175.817 129.525 174.17 131.012 172.344 132.346C165.318 137.48 158.329 142.666 151.226 147.693C143.362 153.257 135.396 158.677 127.461 164.14C122.914 167.27 120.392 167.283 115.851 164.094C107.798 158.438 99.7945 152.71 91.7465 147.046C86.9495 143.669 83.3146 139.384 81.4288 133.798C80.7292 131.724 80.4449 129.51 79.6893 127.356C79.8969 133.369 79.7177 139.426 80.417 145.381C81.1661 151.761 84.6673 156.971 89.8074 160.764C98.849 167.435 108.059 173.882 117.256 180.341C120.479 182.604 123.765 181.932 126.839 179.877C130.843 177.199 134.838 174.504 138.759 171.708C150.062 163.65 161.326 155.537 172.605 147.447C174.621 146.001 176.063 144.186 176.375 141.639C176.361 137.239 176.342 132.84 176.347 128.44C176.347 128.162 176.538 127.883 176.641 127.605C176.64 127.293 176.64 126.983 176.64 126.672Z" fill="#FFE400"/>
<path d="M154.023 90.3903C153.761 90.0917 153.626 89.8605 153.427 89.7207C148.549 86.303 143.758 82.7512 138.756 79.526C133.58 76.1882 127.863 74.2286 121.61 74.2383C115.781 74.2476 110.494 76.1015 105.7 79.3041C103.383 80.8526 101.14 82.5616 99.0837 84.4388C95.7599 87.4733 95.4158 92.8779 98.0607 96.5106C98.6514 97.3225 99.2665 97.3752 100.042 96.8565C101.119 96.1371 102.188 95.4041 103.284 94.7141C114.347 87.749 125.412 87.8239 136.475 94.7235C138.232 95.8199 139.973 96.9461 141.764 97.9856C142.124 98.1946 142.811 98.2767 143.118 98.0731C146.57 95.7816 149.979 93.4248 153.393 91.0753C153.597 90.9348 153.739 90.7039 154.023 90.3903Z" fill="#FFE400"/>
</g>
<defs>
<radialGradient id="paint0_radial_8339_991" cx="0" cy="0" r="1" gradientUnits="userSpaceOnUse" gradientTransform="translate(129.167 13.8136) rotate(180) scale(241.775)">
<stop stop-color="#FDFB45"/>
<stop offset="0.41557" stop-color="#BB6000"/>
<stop offset="0.73404" stop-color="#FDFB45"/>
<stop offset="0.99968" stop-color="#BB6000"/>
</radialGradient>
<radialGradient id="paint1_radial_8339_991" cx="0" cy="0" r="1" gradientUnits="userSpaceOnUse" gradientTransform="translate(129.111 19.5214) rotate(180) scale(229.686 229.686)">
<stop stop-color="#FDFB45"/>
<stop offset="1" stop-color="#FF9600"/>
</radialGradient>
<radialGradient id="paint2_radial_8339_991" cx="0" cy="0" r="1" gradientUnits="userSpaceOnUse" gradientTransform="translate(128.819 48.0681) rotate(180) scale(169.242)">
<stop stop-color="#E18400"/>
<stop offset="0.17705" stop-color="#E18601"/>
<stop offset="0.24083" stop-color="#E38D05"/>
<stop offset="0.28629" stop-color="#E6980C"/>
<stop offset="0.32306" stop-color="#EAA916"/>
<stop offset="0.35452" stop-color="#EFBF22"/>
<stop offset="0.38188" stop-color="#F5DA32"/>
<stop offset="0.40654" stop-color="#FDF944"/>
<stop offset="0.40767" stop-color="#FDFB45"/>
<stop offset="0.49512" stop-color="#FDF943"/>
<stop offset="0.53105" stop-color="#FDF23D"/>
<stop offset="0.55752" stop-color="#FEE633"/>
<stop offset="0.57936" stop-color="#FED425"/>
<stop offset="0.59812" stop-color="#FEBE12"/>
<stop offset="0.61159" stop-color="#FFA800"/>
<stop offset="0.93384" stop-color="#FFE300"/>
<stop offset="1" stop-color="#FFA800"/>
</radialGradient>
<radialGradient id="paint3_radial_8339_991" cx="0" cy="0" r="1" gradientUnits="userSpaceOnUse" gradientTransform="translate(128.767 52.6365) rotate(180) scale(159.571)">
<stop stop-color="#FFE300"/>
<stop offset="1" stop-color="#FFA800"/>
</radialGradient>
<radialGradient id="paint4_radial_8339_991" cx="0" cy="0" r="1" gradientUnits="userSpaceOnUse" gradientTransform="translate(128.767 52.6365) rotate(180) scale(159.571)">
<stop stop-color="#FFE300"/>
<stop offset="1" stop-color="#FFA800"/>
</radialGradient>
<radialGradient id="paint5_radial_8339_991" cx="0" cy="0" r="1" gradientUnits="userSpaceOnUse" gradientTransform="translate(128.767 52.6365) rotate(180) scale(159.571)">
<stop stop-color="#FFE300"/>
<stop offset="0.09577" stop-color="#FFD900"/>
<stop offset="0.47359" stop-color="#FFB900"/>
<stop offset="0.78853" stop-color="#FFA400"/>
<stop offset="1" stop-color="#FF9D00"/>
</radialGradient>
<clipPath id="clip0_8339_991">
<rect width="256" height="256" fill="white" transform="matrix(-1 0 0 1 256 0)"/>
</clipPath>
</defs>
</svg>
