<svg width="1680" height="730" viewBox="0 0 1680 730" fill="none" xmlns="http://www.w3.org/2000/svg">
<path d="M428.735 176.348C429.024 176.51 429.47 176.475 429.731 176.271C429.992 176.067 429.969 175.771 429.68 175.609C429.391 175.447 428.945 175.482 428.684 175.686C428.423 175.89 428.446 176.187 428.735 176.348Z" fill="white"/>
<path d="M264.781 72.2944C265.111 72.2611 265.291 71.9799 265.184 71.6662C265.077 71.3525 264.724 71.1252 264.394 71.1585C264.064 71.1918 263.884 71.473 263.99 71.7867C264.097 72.1003 264.451 72.3276 264.781 72.2944Z" fill="white"/>
<path d="M440.984 283.197C441.314 283.163 441.494 282.882 441.387 282.569C441.281 282.255 440.927 282.028 440.597 282.061C440.267 282.094 440.087 282.375 440.194 282.689C440.3 283.003 440.654 283.23 440.984 283.197Z" fill="white"/>
<path d="M411.39 340.001C411.72 339.968 411.901 339.687 411.794 339.373C411.687 339.06 411.333 338.832 411.003 338.866C410.674 338.899 410.493 339.18 410.6 339.494C410.707 339.807 411.061 340.035 411.39 340.001Z" fill="white"/>
<path d="M576.984 146.197C577.314 146.163 577.494 145.882 577.387 145.569C577.281 145.255 576.927 145.028 576.597 145.061C576.267 145.094 576.087 145.375 576.194 145.689C576.3 146.003 576.654 146.23 576.984 146.197Z" fill="white"/>
<path d="M962.952 603.808C962.973 603.477 962.721 603.19 962.391 603.166C962.06 603.142 961.776 603.391 961.756 603.721C961.735 604.052 961.987 604.34 962.317 604.363C962.648 604.387 962.932 604.138 962.952 603.808Z" fill="white"/>
<path d="M543.89 281.626C543.997 281.94 544.351 282.167 544.681 282.134C545.01 282.1 545.191 281.819 545.084 281.505C544.977 281.192 544.623 280.964 544.294 280.998C543.964 281.031 543.783 281.312 543.89 281.626Z" fill="white"/>
<path d="M1244.01 315.356C1244.11 315.67 1244.47 315.897 1244.8 315.864C1245.13 315.831 1245.31 315.55 1245.2 315.236C1245.09 314.922 1244.74 314.695 1244.41 314.728C1244.08 314.761 1243.9 315.043 1244.01 315.356Z" fill="white"/>
<path d="M988.109 173.497C988.216 173.811 988.57 174.038 988.899 174.005C989.229 173.971 989.41 173.69 989.303 173.377C989.196 173.063 988.842 172.836 988.512 172.869C988.183 172.902 988.002 173.183 988.109 173.497Z" fill="white"/>
<path d="M973.554 162.899C973.661 163.213 974.015 163.44 974.345 163.407C974.674 163.374 974.855 163.093 974.748 162.779C974.641 162.465 974.287 162.238 973.958 162.271C973.628 162.304 973.447 162.586 973.554 162.899Z" fill="white"/>
<path d="M860.078 261.04C860.185 261.354 860.539 261.581 860.868 261.548C861.198 261.514 861.379 261.233 861.272 260.919C861.165 260.606 860.811 260.379 860.481 260.412C860.151 260.445 859.971 260.726 860.078 261.04Z" fill="white"/>
<path d="M815.391 513.569C815.284 513.256 814.93 513.028 814.601 513.062C814.271 513.095 814.09 513.376 814.197 513.69C814.304 514.004 814.658 514.231 814.988 514.198C815.317 514.164 815.498 513.883 815.391 513.569Z" fill="white"/>
<path d="M996.657 552.14C996.55 551.826 996.196 551.599 995.866 551.632C995.536 551.665 995.356 551.947 995.463 552.26C995.57 552.574 995.924 552.801 996.253 552.768C996.583 552.735 996.764 552.453 996.657 552.14Z" fill="white"/>
<path d="M1155.39 544.569C1155.28 544.256 1154.93 544.028 1154.6 544.062C1154.27 544.095 1154.09 544.376 1154.2 544.69C1154.3 545.004 1154.66 545.231 1154.99 545.198C1155.32 545.164 1155.5 544.883 1155.39 544.569Z" fill="white"/>
<path d="M281.009 306.184C280.694 306.082 280.288 306.221 280.102 306.496C279.916 306.77 280.021 307.075 280.336 307.178C280.651 307.28 281.057 307.141 281.243 306.867C281.429 306.592 281.324 306.287 281.009 306.184Z" fill="white"/>
<path d="M601.376 538.36C601.061 538.258 600.655 538.397 600.469 538.671C600.283 538.946 600.388 539.251 600.703 539.354C601.018 539.456 601.424 539.317 601.61 539.042C601.796 538.768 601.691 538.463 601.376 538.36Z" fill="white"/>
<path d="M250.243 325.388C249.928 325.285 249.522 325.424 249.336 325.699C249.15 325.973 249.255 326.278 249.57 326.381C249.885 326.483 250.291 326.344 250.477 326.07C250.663 325.795 250.558 325.49 250.243 325.388Z" fill="white"/>
<path d="M1553.88 553.126C1553.57 553.023 1553.16 553.163 1552.98 553.437C1552.79 553.711 1552.9 554.017 1553.21 554.119C1553.53 554.222 1553.93 554.082 1554.12 553.808C1554.3 553.534 1554.2 553.228 1553.88 553.126Z" fill="white"/>
<path d="M322.243 512.184C321.928 512.082 321.522 512.221 321.336 512.496C321.15 512.77 321.255 513.075 321.57 513.178C321.885 513.28 322.291 513.141 322.477 512.867C322.663 512.592 322.558 512.287 322.243 512.184Z" fill="white"/>
<path d="M1504.24 365.184C1503.93 365.082 1503.52 365.221 1503.34 365.496C1503.15 365.77 1503.25 366.075 1503.57 366.178C1503.89 366.28 1504.29 366.141 1504.48 365.867C1504.66 365.592 1504.56 365.287 1504.24 365.184Z" fill="white"/>
<path d="M1140.65 484.348C1140.33 484.246 1139.93 484.385 1139.74 484.66C1139.56 484.934 1139.66 485.239 1139.98 485.342C1140.29 485.444 1140.7 485.305 1140.88 485.031C1141.07 484.756 1140.96 484.451 1140.65 484.348Z" fill="white"/>
<path d="M108.243 432.184C107.928 432.082 107.522 432.221 107.336 432.496C107.15 432.77 107.255 433.075 107.57 433.178C107.885 433.28 108.291 433.141 108.477 432.867C108.663 432.592 108.558 432.287 108.243 432.184Z" fill="white"/>
<path d="M1285.24 262.184C1284.93 262.082 1284.52 262.221 1284.34 262.496C1284.15 262.77 1284.25 263.075 1284.57 263.178C1284.89 263.28 1285.29 263.141 1285.48 262.867C1285.66 262.592 1285.56 262.287 1285.24 262.184Z" fill="white"/>
<path d="M1372.2 491.036C1371.88 490.934 1371.48 491.073 1371.29 491.347C1371.1 491.621 1371.21 491.927 1371.52 492.029C1371.84 492.132 1372.24 491.992 1372.43 491.718C1372.62 491.444 1372.51 491.138 1372.2 491.036Z" fill="white"/>
<path d="M630.829 433.184C630.514 433.082 630.108 433.221 629.922 433.496C629.736 433.77 629.841 434.075 630.156 434.178C630.471 434.28 630.877 434.141 631.063 433.867C631.249 433.592 631.144 433.287 630.829 433.184Z" fill="white"/>
<path d="M696.243 280.184C695.928 280.082 695.522 280.221 695.336 280.496C695.15 280.77 695.255 281.075 695.57 281.178C695.885 281.28 696.291 281.141 696.477 280.867C696.663 280.592 696.558 280.287 696.243 280.184Z" fill="white"/>
<path d="M1343.42 261.927C1343.1 261.824 1342.69 261.963 1342.51 262.238C1342.32 262.512 1342.43 262.818 1342.74 262.92C1343.06 263.022 1343.46 262.883 1343.65 262.609C1343.84 262.334 1343.73 262.029 1343.42 261.927Z" fill="white"/>
<path d="M320.243 359.184C319.928 359.082 319.522 359.221 319.336 359.496C319.15 359.77 319.255 360.075 319.57 360.178C319.885 360.28 320.291 360.141 320.477 359.867C320.663 359.592 320.558 359.287 320.243 359.184Z" fill="white"/>
<path d="M1086.64 294.735C1086.33 294.633 1085.92 294.772 1085.73 295.046C1085.55 295.321 1085.65 295.626 1085.97 295.729C1086.28 295.831 1086.69 295.692 1086.88 295.417C1087.06 295.143 1086.96 294.838 1086.64 294.735Z" fill="white"/>
<path d="M1307.64 467.969C1307.32 468.063 1307.23 468.352 1307.43 468.613C1307.64 468.875 1308.06 469.011 1308.38 468.916C1308.7 468.822 1308.79 468.534 1308.58 468.272C1308.38 468.011 1307.96 467.875 1307.64 467.969Z" fill="white"/>
<path d="M1326.34 446.446C1326.03 446.54 1325.93 446.828 1326.14 447.09C1326.34 447.351 1326.76 447.487 1327.08 447.393C1327.4 447.299 1327.49 447.011 1327.29 446.749C1327.08 446.487 1326.66 446.351 1326.34 446.446Z" fill="white"/>
<path d="M1468.66 191.629C1468.35 191.723 1468.25 192.012 1468.46 192.273C1468.66 192.535 1469.08 192.671 1469.4 192.577C1469.72 192.483 1469.81 192.194 1469.61 191.933C1469.4 191.671 1468.98 191.535 1468.66 191.629Z" fill="white"/>
<path d="M585.579 447.711C585.261 447.805 585.168 448.094 585.372 448.355C585.575 448.617 585.998 448.753 586.315 448.659C586.633 448.565 586.726 448.276 586.522 448.015C586.319 447.753 585.897 447.617 585.579 447.711Z" fill="white"/>
<mask id="mask0_8330_620" style="mask-type:luminance" maskUnits="userSpaceOnUse" x="614" y="159" width="420" height="419">
<path d="M1034 159H614V578H1034V159Z" fill="white"/>
</mask>
<g mask="url(#mask0_8330_620)">
<path d="M645.176 264.951C588.015 363.957 621.937 490.557 720.944 547.718C819.95 604.88 946.549 570.957 1003.71 471.951C1060.87 372.944 1026.95 246.345 927.944 189.184C828.937 132.022 702.338 165.944 645.176 264.951Z" stroke="url(#paint0_linear_8330_620)"/>
<path d="M652.719 269.883C597.905 364.824 630.434 486.224 725.375 541.039C820.316 595.853 941.717 563.324 996.531 468.383C1051.35 373.442 1018.82 252.041 923.875 197.227C828.934 142.412 707.533 174.942 652.719 269.883Z" stroke="url(#paint1_linear_8330_620)"/>
<path d="M659.038 272.95C606.294 364.304 637.595 481.118 728.949 533.861C820.302 586.604 937.116 555.304 989.859 463.95C1042.6 372.596 1011.3 255.782 919.949 203.039C828.595 150.296 711.781 181.596 659.038 272.95Z" stroke="url(#paint2_linear_8330_620)"/>
<path d="M665.716 277.384C615.043 365.151 645.115 477.378 732.881 528.05C820.648 578.722 932.875 548.651 983.547 460.884C1034.22 373.118 1004.15 260.891 916.381 210.219C828.615 159.547 716.388 189.618 665.716 277.384Z" stroke="url(#paint3_linear_8330_620)"/>
<path fill-rule="evenodd" clip-rule="evenodd" d="M1000.95 367.949C1000.95 464.856 922.565 543.949 824.945 543.949C727.326 543.949 648.945 465.569 648.945 367.949C648.945 270.33 727.326 191.949 824.945 191.949C922.565 191.949 1000.95 270.33 1000.95 367.949Z" fill="black" fill-opacity="0.1" stroke="url(#paint4_linear_8330_620)"/>
</g>
<path d="M742 307.34C742.342 307.69 742.94 308.01 742.984 308.394C743.408 312.132 745.734 314.641 748.559 316.649C774.506 335.086 800.459 353.515 826.5 371.817C832.79 376.239 837.778 375.983 843.985 371.599C858.168 361.582 872.338 351.549 886.49 341.489C894.514 335.784 900.366 328.369 903.427 318.978C904.495 315.701 904.905 312.21 905.354 310.069C905.354 318.25 905.959 327.735 905.201 337.11C904.266 348.667 898.469 358.198 889.21 365.061C873.787 376.492 858.06 387.518 842.325 398.522C837.209 402.099 831.788 401.163 826.776 397.893C821.636 394.539 816.536 391.115 811.536 387.556C790.821 372.807 770.157 357.986 749.457 343.214C745.911 340.683 743.11 337.692 742.479 333.168C742.494 325.818 742.521 318.467 742.502 311.117C742.5 310.559 742.175 310.002 742 309.445C742 308.743 742 308.042 742 307.34Z" fill="url(#paint5_linear_8330_620)" stroke="url(#paint6_linear_8330_620)" stroke-opacity="0.2" stroke-width="2"/>
<path d="M742.001 366.758C742.327 366.977 742.913 367.169 742.94 367.42C743.394 371.588 746.183 374.104 749.273 376.362C761.166 385.053 772.996 393.832 785.019 402.34C798.33 411.758 811.814 420.933 825.247 430.18C832.944 435.479 837.213 435.501 844.899 430.103C858.531 420.528 872.078 410.833 885.701 401.245C893.821 395.53 899.974 388.276 903.166 378.82C904.35 375.31 904.831 371.563 906.11 367.916C905.759 378.093 906.062 388.347 904.879 398.427C903.611 409.227 897.684 418.046 888.984 424.465C873.679 435.758 858.089 446.67 842.522 457.603C837.065 461.435 831.502 460.298 826.299 456.818C819.522 452.285 812.759 447.724 806.122 442.991C786.99 429.351 767.924 415.619 748.831 401.924C745.418 399.477 742.978 396.404 742.45 392.093C742.473 384.645 742.506 377.198 742.498 369.751C742.497 369.28 742.174 368.809 742 368.338C742.001 367.81 742.001 367.284 742.001 366.758Z" fill="url(#paint7_linear_8330_620)" stroke="url(#paint8_linear_8330_620)" stroke-opacity="0.2" stroke-width="2"/>
<path d="M780.297 305.341C780.74 304.835 780.969 304.444 781.307 304.207C789.563 298.422 797.673 292.41 806.14 286.951C814.902 281.301 824.578 277.984 835.164 278C845.03 278.016 853.98 281.154 862.094 286.575C866.016 289.196 869.814 292.089 873.294 295.266C878.92 300.403 879.503 309.551 875.026 315.701C874.026 317.075 872.984 317.164 871.672 316.286C869.848 315.068 868.04 313.828 866.185 312.66C847.457 300.87 828.727 300.996 810.002 312.675C807.027 314.531 804.08 316.438 801.048 318.197C800.44 318.551 799.276 318.69 798.757 318.345C792.913 314.467 787.143 310.477 781.365 306.5C781.018 306.262 780.778 305.872 780.297 305.341Z" fill="url(#paint9_linear_8330_620)" stroke="url(#paint10_linear_8330_620)" stroke-opacity="0.2" stroke-width="2"/>
<defs>
<linearGradient id="paint0_linear_8330_620" x1="1004.14" y1="472.201" x2="644.743" y2="264.701" gradientUnits="userSpaceOnUse">
<stop stop-color="#5C4119" stop-opacity="0"/>
<stop offset="0.484921" stop-color="#5C4D19"/>
<stop offset="1" stop-color="#5C4919" stop-opacity="0.32"/>
</linearGradient>
<linearGradient id="paint1_linear_8330_620" x1="996.964" y1="468.632" x2="652.286" y2="269.633" gradientUnits="userSpaceOnUse">
<stop stop-color="#5C4119" stop-opacity="0"/>
<stop offset="0.484921" stop-color="#5C4919"/>
<stop offset="1" stop-color="#5C4919" stop-opacity="0.32"/>
</linearGradient>
<linearGradient id="paint2_linear_8330_620" x1="990.292" y1="464.2" x2="658.605" y2="272.7" gradientUnits="userSpaceOnUse">
<stop stop-color="#5C4119" stop-opacity="0"/>
<stop offset="0.484921" stop-color="#5C4519"/>
<stop offset="1" stop-color="#5C4919" stop-opacity="0.32"/>
</linearGradient>
<linearGradient id="paint3_linear_8330_620" x1="983.98" y1="461.134" x2="665.283" y2="277.134" gradientUnits="userSpaceOnUse">
<stop stop-color="#FFD339" stop-opacity="0"/>
<stop offset="0.484921" stop-color="#5C4919"/>
<stop offset="1" stop-color="#604A28" stop-opacity="0.32"/>
</linearGradient>
<linearGradient id="paint4_linear_8330_620" x1="824.945" y1="191.949" x2="824.945" y2="543.949" gradientUnits="userSpaceOnUse">
<stop stop-color="#E7B941" stop-opacity="0.34"/>
<stop offset="0.489583" stop-color="#FFCB45" stop-opacity="0.520833"/>
<stop offset="1" stop-color="white" stop-opacity="0"/>
</linearGradient>
<linearGradient id="paint5_linear_8330_620" x1="814.808" y1="241.595" x2="826.943" y2="426.648" gradientUnits="userSpaceOnUse">
<stop stop-color="#EEC124"/>
<stop offset="1" stop-color="#F08C2F" stop-opacity="0"/>
</linearGradient>
<linearGradient id="paint6_linear_8330_620" x1="823.791" y1="307.34" x2="823.791" y2="400.808" gradientUnits="userSpaceOnUse">
<stop stop-color="#C48E27"/>
<stop offset="1" stop-color="#FFB800" stop-opacity="0.43"/>
</linearGradient>
<linearGradient id="paint7_linear_8330_620" x1="826.943" y1="341.706" x2="848.178" y2="460.019" gradientUnits="userSpaceOnUse">
<stop stop-color="#F3BF3A"/>
<stop offset="1" stop-color="#EC8C1C" stop-opacity="0"/>
</linearGradient>
<linearGradient id="paint8_linear_8330_620" x1="824.055" y1="366.758" x2="824.055" y2="459.999" gradientUnits="userSpaceOnUse">
<stop stop-color="#C48E27"/>
<stop offset="1" stop-color="#FFB800" stop-opacity="0.43"/>
</linearGradient>
<linearGradient id="paint9_linear_8330_620" x1="833.5" y1="264.5" x2="843.5" y2="324" gradientUnits="userSpaceOnUse">
<stop stop-color="#CE9D1F"/>
<stop offset="1" stop-color="#DE8532" stop-opacity="0"/>
</linearGradient>
<linearGradient id="paint10_linear_8330_620" x1="829.148" y1="278" x2="829.148" y2="318.544" gradientUnits="userSpaceOnUse">
<stop stop-color="#C48E27"/>
<stop offset="1" stop-color="#FFB800" stop-opacity="0.43"/>
</linearGradient>
</defs>
</svg>
