<svg width="14" height="14" viewBox="0 0 14 14" fill="none" xmlns="http://www.w3.org/2000/svg">
<path d="M8.2998 0.5H3.0998C2.75502 0.5 2.42436 0.636964 2.18057 0.880761C1.93677 1.12456 1.7998 1.45522 1.7998 1.8V12.2C1.7998 12.5448 1.93677 12.8754 2.18057 13.1192C2.42436 13.363 2.75502 13.5 3.0998 13.5H10.8998C11.2446 13.5 11.5752 13.363 11.819 13.1192C12.0628 12.8754 12.1998 12.5448 12.1998 12.2V4.4M8.2998 0.5L12.1998 4.4M8.2998 0.5L8.2998 4.4H12.1998M9.5998 7.65H4.3998M9.5998 10.25H4.3998M5.6998 5.05H4.3998" stroke="white" stroke-linecap="round" stroke-linejoin="round"/>
</svg>
