<svg width="14" height="15" viewBox="0 0 14 15" fill="none" xmlns="http://www.w3.org/2000/svg">
<path d="M10.4004 8.09998H6.90039Z" fill="black"/>
<path d="M10.4004 8.09998H6.90039" stroke="black" stroke-width="0.9" stroke-linecap="round" stroke-linejoin="round"/>
<path d="M10.4004 10.1H6.90039Z" fill="black"/>
<path d="M10.4004 10.1H6.90039" stroke="black" stroke-width="0.9" stroke-linecap="round" stroke-linejoin="round"/>
<path d="M13.0943 14C13.0506 14.0002 13.0072 13.9931 12.9659 13.9789L11.0631 13.3443C10.3226 13.7741 9.48168 14.0004 8.62556 14C7.33303 13.9987 6.0938 13.4847 5.17984 12.5707C4.26588 11.6568 3.75185 10.4176 3.75056 9.12502C3.75185 7.83249 4.26588 6.59326 5.17984 5.6793C6.0938 4.76534 7.33303 4.25131 8.62556 4.25002C9.91809 4.25131 11.1573 4.76534 12.0713 5.6793C12.9852 6.59326 13.4993 7.83249 13.5006 9.12502C13.5007 9.98112 13.2745 10.822 12.8449 11.5625L13.4802 13.4678C13.5041 13.5395 13.5076 13.6163 13.4902 13.6898C13.4729 13.7633 13.4354 13.8305 13.3819 13.8838C13.3052 13.9591 13.2018 14.0009 13.0943 14ZM8.62556 5.06252C7.54851 5.06381 6.51595 5.49224 5.75436 6.25382C4.99278 7.01541 4.56435 8.04797 4.56306 9.12502C4.56435 10.2021 4.99278 11.2346 5.75436 11.9962C6.51595 12.7578 7.54851 13.1862 8.62556 13.1875C9.39338 13.1869 10.1452 12.9679 10.7933 12.5562C10.8442 12.5239 10.9017 12.5034 10.9616 12.4961C11.0215 12.4888 11.0822 12.4949 11.1394 12.514L12.4524 12.9511L12.0145 11.6389C11.9954 11.5817 11.9893 11.5209 11.9966 11.4611C12.0039 11.4012 12.0245 11.3437 12.0567 11.2928C12.4685 10.6447 12.6875 9.89285 12.6881 9.12502C12.6868 8.04797 12.2583 7.01541 11.4968 6.25382C10.7352 5.49224 9.70261 5.06381 8.62556 5.06252ZM1.03519 11.5414L3.47269 10.7289C3.57493 10.6949 3.6595 10.6218 3.7078 10.5255C3.7561 10.4292 3.76418 10.3176 3.73025 10.2154C3.71336 10.1647 3.68666 10.1179 3.65166 10.0776C3.61667 10.0373 3.57407 10.0043 3.52631 9.98042C3.47854 9.95657 3.42654 9.94238 3.37329 9.93864C3.32003 9.93491 3.26656 9.9417 3.21593 9.95864L1.5495 10.5136L2.17431 8.63752C2.19466 8.57577 2.1999 8.51005 2.18957 8.44586C2.17925 8.38167 2.15368 8.3209 2.115 8.26864C1.53435 7.49084 1.25393 6.5296 1.32528 5.56159C1.39663 4.59358 1.81496 3.68384 2.50337 2.99958C2.87988 2.62167 3.32759 2.32218 3.82059 2.11842C4.3136 1.91467 4.84211 1.81069 5.37556 1.81252C5.90918 1.81101 6.4378 1.91537 6.93081 2.11955C7.42383 2.32373 7.87144 2.62367 8.24775 3.00202C8.32393 3.07818 8.42724 3.12096 8.53497 3.12096C8.64269 3.12096 8.746 3.07818 8.82218 3.00202C8.89835 2.92584 8.94113 2.82252 8.94113 2.7148C8.94113 2.60708 8.89835 2.50376 8.82218 2.42758C8.37064 1.97353 7.83351 1.61356 7.24189 1.36852C6.65027 1.12347 6.01592 0.998223 5.37556 1.00002C4.7352 0.998223 4.10085 1.12347 3.50923 1.36852C2.91762 1.61356 2.38048 1.97353 1.92893 2.42758C1.12799 3.22245 0.630452 4.27253 0.522565 5.39577C0.414677 6.51902 0.703249 7.64461 1.33825 8.57739L0.520872 11.0279C0.496981 11.0995 0.493525 11.1764 0.510891 11.2499C0.528256 11.3234 0.565758 11.3905 0.619185 11.4439C0.656982 11.4816 0.701839 11.5115 0.751192 11.5318C0.800544 11.5522 0.853425 11.5626 0.90681 11.5625C0.950483 11.5627 0.993879 11.5556 1.03519 11.5414Z" fill="black"/>
</svg>
