<svg width="24" height="24" viewBox="0 0 24 24" fill="none" xmlns="http://www.w3.org/2000/svg">
<g clip-path="url(#clip0_8406_353)">
<path fill-rule="evenodd" clip-rule="evenodd" d="M23.805 0.0646891C23.8962 0.152204 23.8975 0.295553 23.8082 0.384872L23.6458 0.547682C23.5565 0.637001 23.4104 0.638463 23.3195 0.550947C23.2283 0.463435 23.2269 0.320083 23.316 0.230767L23.4787 0.0679581C23.5678 -0.0213608 23.7141 -0.0228233 23.805 0.0646891ZM22.9921 0.878742C23.0832 0.966254 23.0845 1.10961 22.9954 1.19892L22.6702 1.52455C22.581 1.61386 22.4349 1.61533 22.3439 1.52782C22.2528 1.4403 22.2513 1.29695 22.3405 1.20763L22.6657 0.882007C22.7549 0.792688 22.901 0.791226 22.9921 0.878742ZM22.0165 1.85561C22.1076 1.94312 22.1091 2.08647 22.0199 2.17579L21.6947 2.50141C21.6055 2.59073 21.4594 2.59218 21.3684 2.50467C21.2773 2.41716 21.2758 2.27382 21.365 2.1845L21.6902 1.85887C21.7794 1.76955 21.9255 1.76809 22.0165 1.85561ZM21.041 2.83248C21.132 2.91999 21.1335 3.06333 21.0443 3.15265L20.7192 3.47828C20.63 3.5676 20.4839 3.56905 20.3928 3.48154C20.3018 3.39403 20.3003 3.25069 20.3895 3.16137L20.7147 2.83574C20.8039 2.74642 20.95 2.74497 21.041 2.83248ZM20.0655 3.80934C20.1565 3.89685 20.158 4.0402 20.0688 4.12952L19.7436 4.45515C19.6544 4.54445 19.5083 4.54592 19.4173 4.45841C19.3263 4.3709 19.3248 4.22753 19.414 4.13821L19.7391 3.8126C19.8283 3.72328 19.9744 3.72181 20.0655 3.80934ZM19.0899 4.78619C19.181 4.87372 19.1825 5.01706 19.0933 5.10638L18.7681 5.43199C18.6789 5.52131 18.5328 5.52279 18.4418 5.43528C18.3507 5.34777 18.3492 5.2044 18.4384 5.11508L18.7636 4.78947C18.8528 4.70015 18.9989 4.69868 19.0899 4.78619ZM5.43252 18.4623C5.52355 18.5498 5.52503 18.6932 5.43584 18.7825L5.11066 19.1081C5.02147 19.1974 4.87537 19.1989 4.78433 19.1114C4.69329 19.0238 4.69179 18.8805 4.78101 18.7912L5.10618 18.4656C5.19538 18.3763 5.34148 18.3748 5.43252 18.4623ZM4.45698 19.4392C4.54802 19.5267 4.54952 19.67 4.46031 19.7593L4.13513 20.085C4.04594 20.1743 3.89984 20.1757 3.8088 20.0882C3.71776 20.0007 3.71626 19.8574 3.80548 19.7681L4.13065 19.4424C4.21985 19.3531 4.36595 19.3517 4.45698 19.4392ZM3.48145 20.416C3.57249 20.5035 3.57399 20.6469 3.48478 20.7362L3.1596 21.0618C3.07041 21.1512 2.92431 21.1526 2.83327 21.0651C2.74223 20.9776 2.74073 20.8342 2.82995 20.7449L3.15512 20.4193C3.24432 20.33 3.39042 20.3285 3.48145 20.416ZM2.50592 21.3929C2.59696 21.4804 2.59846 21.6238 2.50925 21.7131L2.18408 22.0387C2.09488 22.128 1.94877 22.1295 1.85774 22.042C1.7667 21.9545 1.76521 21.8111 1.85441 21.7218L2.17958 21.3962C2.26878 21.3068 2.41488 21.3054 2.50592 21.3929ZM1.53039 22.3697C1.62143 22.4573 1.62292 22.6006 1.53372 22.69L1.20855 23.0155C1.11935 23.105 0.973244 23.1063 0.882208 23.0187C0.791172 22.9313 0.789679 22.788 0.878875 22.6986L1.20405 22.373C1.29325 22.2837 1.43936 22.2822 1.53039 22.3697ZM0.554862 23.3466C0.645898 23.4342 0.647391 23.5775 0.558194 23.6667L0.395605 23.8295C0.306409 23.9189 0.160301 23.9203 0.0692647 23.8329C-0.0217713 23.7453 -0.0232626 23.602 0.0659338 23.5128L0.228522 23.35C0.317718 23.2605 0.463825 23.2592 0.554862 23.3466Z" fill="#F5A938"/>
<path fill-rule="evenodd" clip-rule="evenodd" d="M15.2023 4.75391H8.80057C6.29158 4.75391 4.61719 6.51639 4.61719 9.04022V14.9582C4.61719 17.4844 6.28715 19.2445 8.80057 19.2445H15.2016C17.7157 19.2445 19.3864 17.4844 19.3864 14.9582V9.04022C19.3864 6.51415 17.7159 4.75391 15.2023 4.75391ZM8.80057 5.8407H15.2023C17.0857 5.8407 18.2787 7.09773 18.2787 9.04022V14.9582C18.2787 16.9007 17.0857 18.1577 15.2016 18.1577H8.80057C6.91736 18.1577 5.72488 16.9009 5.72488 14.9582V9.04022C5.72488 7.1002 6.92142 5.8407 8.80057 5.8407Z" fill="#F5A938"/>
<path d="M8.53125 8.95703H10.2116L11.9865 13.2054H12.062L13.8368 8.95703H15.5173V15.2802H14.1956V11.1646H14.1421L12.4743 15.2493H11.5742L9.90643 11.1491H9.85289V15.2802H8.53125V8.95703Z" fill="#F5A938"/>
</g>
<defs>
<clipPath id="clip0_8406_353">
<rect width="24" height="24" fill="white"/>
</clipPath>
</defs>
</svg>
