<svg width="36" height="36" viewBox="0 0 36 36" fill="none" xmlns="http://www.w3.org/2000/svg">
<mask id="mask0_327_344" style="mask-type:luminance" maskUnits="userSpaceOnUse" x="0" y="0" width="36" height="36">
<path d="M36 0H0V36H36V0Z" fill="white"/>
</mask>
<g mask="url(#mask0_327_344)">
<path d="M27.0895 31.6064C24.3985 33.4044 21.2348 34.3642 17.9984 34.3642C13.6585 34.3642 9.49625 32.64 6.42744 29.5715C3.35875 26.5027 1.63477 22.3405 1.63477 18.0006C1.63477 14.7641 2.59445 11.6004 4.39247 8.90945C6.19049 6.21845 8.74613 4.1211 11.7362 2.88259C14.7263 1.64406 18.0164 1.32 21.1908 1.95139C24.365 2.5828 27.2806 4.14126 29.569 6.42977C31.8577 8.71825 33.4163 11.634 34.0474 14.8082C34.679 17.9826 34.3548 21.2726 33.1164 24.2626C31.8778 27.2526 29.7805 29.8084 27.0895 31.6064Z" fill="#0F0F0F"/>
<path fill-rule="evenodd" clip-rule="evenodd" d="M20.9713 3.05478C18.0151 2.46679 14.9512 2.76858 12.1667 3.92195C9.38222 5.07532 7.00226 7.02848 5.32786 9.53445C3.65346 12.0404 2.75976 14.9866 2.75976 18.0006C2.75976 22.0422 4.36524 25.9182 7.22292 28.7759M21.4102 0.848004C24.8026 1.52282 27.9189 3.18843 30.3646 5.63424C32.8106 8.08008 34.4763 11.1963 35.1508 14.5887C35.8258 17.9814 35.4793 21.4976 34.1559 24.693C32.832 27.8887 30.5905 30.6202 27.7146 32.5419C24.8386 34.4634 21.4573 35.4892 17.9984 35.4892C13.3601 35.4892 8.91175 33.6467 5.63197 30.3669C2.35228 27.0873 0.509766 22.6388 0.509766 18.0006C0.509766 14.5416 1.53542 11.1604 3.45705 8.28445C5.37869 5.40843 8.11005 3.16689 11.3057 1.84321C14.5013 0.519554 18.0176 0.173206 21.4102 0.848004ZM20.9713 3.05478C23.9274 3.64277 26.6424 5.09409 28.7736 7.22526L20.9713 3.05478ZM32.944 15.0277C32.3563 12.0717 30.9048 9.35639 28.7736 7.22526ZM32.0771 23.8322C33.2302 21.0477 33.5322 17.9838 32.944 15.0277ZM32.0771 23.8322C30.9235 26.6166 28.9705 28.9966 26.4645 30.6711C23.9584 32.3455 21.0123 33.2392 17.9984 33.2392C13.9568 33.2392 10.0808 31.6336 7.22292 28.7759" fill="#757575"/>
<g style="mix-blend-mode:multiply">
<path d="M3.4667 18.6455C3.46611 15.6729 4.33265 12.7647 5.96014 10.2772C7.58763 7.78969 9.9054 5.83098 12.6294 4.641C15.3535 3.45104 18.3654 3.08153 21.2963 3.57774C24.2271 4.07396 26.9498 5.41433 29.1303 7.43464C27.7335 5.9255 26.0467 4.71377 24.1706 3.87209C22.2943 3.03041 20.2676 2.57606 18.2117 2.53631C16.1558 2.49653 14.1131 2.87214 12.2058 3.64061C10.2985 4.40912 8.56598 5.55468 7.11198 7.0087C5.65797 8.46269 4.51241 10.1952 3.74392 12.1025C2.97543 14.0098 2.59982 16.0526 2.63958 18.1085C2.67936 20.1644 3.1337 22.191 3.9754 24.0671C4.81708 25.9434 6.02881 27.6302 7.53795 29.027C4.91682 26.2057 3.46206 22.4964 3.4667 18.6455Z" fill="black"/>
</g>
<path d="M18.9888 33.7023C27.1654 33.7023 33.7939 26.7248 33.7939 18.1178C33.7939 9.51081 27.1654 2.53345 18.9888 2.53345C10.8121 2.53345 4.18359 9.51081 4.18359 18.1178C4.18359 26.7248 10.8121 33.7023 18.9888 33.7023Z" fill="black"/>
<path d="M28.6956 28.2487C34.3114 22.6543 34.3114 13.5845 28.6956 7.9903C23.0803 2.39614 13.9756 2.39614 8.3601 7.9903C2.74455 13.5845 2.74455 22.6543 8.3601 28.2487C13.9756 33.8429 23.0803 33.8429 28.6956 28.2487Z" fill="black"/>
<path d="M33.8054 18.0061C33.8191 22.1189 32.1962 26.0692 29.2928 28.991C26.3891 31.9129 22.4421 33.5677 18.3166 33.5932C14.1911 33.6184 10.2239 32.0119 7.28462 29.1258C4.34535 26.2397 2.67391 22.3097 2.63672 18.197V18.0061C2.63672 13.8856 4.27866 9.93385 7.20137 7.02022C10.1241 4.10658 14.0881 2.46973 18.2214 2.46973H18.4136C22.514 2.51864 26.4296 4.17705 29.3112 7.08524C32.1928 9.99343 33.8067 13.9183 33.8054 18.0061Z" fill="#2E3031"/>
<path d="M29.13 7.08186L7.18135 29.027C4.31078 26.1664 2.67875 22.2933 2.63672 18.2415V18.0509C2.63672 13.9356 4.27181 9.98893 7.18237 7.07887C10.0929 4.16886 14.0405 2.53381 18.1569 2.53345H18.3483C22.399 2.58121 26.2698 4.21411 29.13 7.08186Z" fill="#444444"/>
<path d="M33.7952 18.1175C33.7952 20.1641 33.4138 22.1907 32.6727 24.0815C31.9313 25.9724 30.8448 27.6903 29.475 29.1375C28.1052 30.5847 26.4789 31.7326 24.6892 32.5161C22.8994 33.2991 20.9813 33.7023 19.044 33.7023C18.7643 33.7023 18.4867 33.6942 18.2109 33.6777C21.9736 33.4536 25.5123 31.7164 28.1009 28.8229C30.6895 25.9297 32.1318 22.0992 32.1318 18.1178C32.1318 14.1365 30.6895 10.3061 28.1009 7.41264C25.5123 4.51921 21.9736 2.78209 18.2109 2.55781C18.4867 2.54157 18.7643 2.53345 19.044 2.53345C22.9563 2.53345 26.7084 4.17532 29.4748 7.09788C32.2411 10.0205 33.7952 13.9843 33.7952 18.1175Z" fill="#151520"/>
<path d="M33.7952 18.1175C33.7952 20.1641 33.4138 22.1907 32.6727 24.0815C31.9313 25.9724 30.8448 27.6903 29.475 29.1375C28.1052 30.5847 26.4789 31.7326 24.6892 32.5161C22.8994 33.2991 20.9813 33.7023 19.044 33.7023C18.7643 33.7023 18.4867 33.6942 18.2109 33.6777C21.9736 33.4536 25.5123 31.7164 28.1009 28.8229C30.6895 25.9297 32.1318 22.0992 32.1318 18.1178C32.1318 14.1365 30.6895 10.3061 28.1009 7.41264C25.5123 4.51921 21.9736 2.78209 18.2109 2.55781C18.4867 2.54157 18.7643 2.53345 19.044 2.53345C22.9563 2.53345 26.7084 4.17532 29.4748 7.09788C32.2411 10.0205 33.7952 13.9843 33.7952 18.1175Z" fill="#151520"/>
<path d="M23.1617 14.0418C23.1892 14.1009 23.2031 14.165 23.2033 14.2299V15.749C23.2022 16.2244 23.0897 16.693 22.8748 17.1176C22.66 17.5423 22.3488 17.9114 21.9658 18.1958C21.3541 18.6735 20.7277 19.1215 20.0869 19.5722L18.7068 20.5258C18.5258 20.6564 18.3036 20.7181 18.0809 20.6998C17.9655 20.6864 17.8526 20.6571 17.7456 20.6126C17.6502 20.5651 17.5577 20.5121 17.4687 20.454C16.2162 19.6002 14.9638 18.7468 13.7406 17.8502C13.1869 17.4598 12.6486 17.0545 12.0949 16.6498C12.0222 16.6064 11.9642 16.5479 11.8899 16.505C11.6852 16.3474 11.5454 16.121 11.4967 15.8683C11.4838 15.8011 11.4788 15.7327 11.4818 15.6644V14.2906C11.484 14.2323 11.4791 14.1739 11.4674 14.1168C11.4632 14.1083 11.4609 14.099 11.4609 14.0895C11.4609 14.08 11.4632 14.0707 11.4674 14.0622C11.4717 14.054 11.4778 14.0468 11.4854 14.0413C11.4931 14.0359 11.5018 14.032 11.511 14.0301H11.5254C11.5288 14.0545 11.5337 14.0787 11.5402 14.1025C11.5519 14.2444 11.6139 14.3775 11.7151 14.4782C11.7878 14.5702 11.8765 14.6486 11.977 14.7096C13.433 15.7944 14.9187 16.8506 16.4188 17.892C16.7683 18.1382 17.1318 18.3691 17.482 18.6149C17.623 18.7132 17.7803 18.7866 17.9465 18.8316C18.1417 18.8779 18.3473 18.8574 18.5294 18.7733C18.5975 18.7437 18.6611 18.7047 18.7186 18.6576C19.6798 17.9782 20.6262 17.3124 21.5894 16.6325C21.7786 16.5024 21.9535 16.3724 22.1268 16.2277C22.5832 15.8204 22.9162 15.2947 23.0884 14.7096C23.1151 14.61 23.1347 14.5087 23.1469 14.4063C23.1592 14.3492 23.1642 14.2908 23.1617 14.2325V14.0418ZM17.9773 11.9432H18.3263C18.8927 11.9859 19.4413 12.1594 19.9285 12.4499C20.2576 12.6486 20.5644 12.8815 20.844 13.1447C21.0309 13.3045 21.1548 13.525 21.1937 13.7671C21.2327 14.0035 21.1968 14.2461 21.0911 14.4614C21.062 14.5338 21.0178 14.5919 20.9887 14.6495C20.9743 14.6776 20.9497 14.6993 20.92 14.7101C20.89 14.7209 20.8573 14.7198 20.8282 14.7071C20.8138 14.7071 20.8138 14.6928 20.7994 14.6928C20.6969 14.6204 20.5943 14.5623 20.479 14.4889C20.062 14.1951 19.5921 13.9838 19.0948 13.8665C18.7758 13.7925 18.4473 13.7682 18.1208 13.7946C17.455 13.843 16.8153 14.0722 16.2716 14.4573C16.0666 14.6021 15.8492 14.7178 15.6303 14.862C15.6159 14.862 15.6159 14.8768 15.6016 14.8768C15.5905 14.8752 15.5802 14.87 15.5723 14.862L14.3491 14.0378C14.322 14.0224 14.2975 14.0029 14.2763 13.9802C14.26 13.9694 14.2481 13.9532 14.2428 13.9345C14.2374 13.9159 14.239 13.8959 14.2471 13.8782C14.2471 13.8634 14.262 13.8634 14.2763 13.8492L14.305 13.8201C14.6547 13.5892 14.9895 13.3277 15.3386 13.081C15.6376 12.8628 15.9482 12.6608 16.2691 12.4759C16.643 12.27 17.0454 12.1194 17.463 12.0288C17.6297 11.979 17.8035 11.9512 17.9773 11.9432ZM17.3339 12.0604V9.51931C17.3363 9.42369 17.3769 9.33292 17.4466 9.26691C17.5162 9.20091 17.6093 9.16503 17.7055 9.16708H18.4453C18.5415 9.16503 18.6346 9.20091 18.7042 9.26691C18.7739 9.33292 18.8145 9.42369 18.8169 9.51931V12.0171C18.3219 11.9602 17.821 11.9752 17.3303 12.0614L17.3339 12.0604ZM23.1781 18.2794C23.2063 18.3382 23.2213 18.4023 23.2222 18.4675V20.0151C23.209 20.6973 22.9743 21.3571 22.5526 21.8956C22.3703 22.1231 22.16 22.3273 21.9268 22.5031C21.3115 22.9803 20.6734 23.429 20.0299 23.8797L18.7483 24.7619C18.6382 24.8377 18.5145 24.8917 18.3838 24.921C18.2092 24.9648 18.0247 24.9495 17.8598 24.8778C17.741 24.8346 17.6286 24.7761 17.525 24.7038C16.0978 23.7352 14.6706 22.7515 13.2725 21.7243C12.8358 21.4062 12.401 21.0881 11.9617 20.7557C11.7457 20.5995 11.6001 20.3653 11.5561 20.1033C11.5434 20.0361 11.5386 19.9677 11.5418 19.8994V18.4976C11.5438 18.4444 11.5388 18.391 11.5269 18.339C11.5126 18.2952 11.5418 18.252 11.571 18.252C11.571 18.2809 11.5853 18.2952 11.5853 18.3243C11.6018 18.4838 11.6744 18.6324 11.7904 18.7438C11.8612 18.8193 11.9393 18.8877 12.0237 18.9477C13.5381 20.0758 15.0966 21.1748 16.653 22.2453C16.9426 22.4492 17.2354 22.6359 17.5122 22.824C17.6302 22.9144 17.7633 22.9835 17.9055 23.0278C18.0121 23.064 18.1249 23.0787 18.2375 23.0715C18.3499 23.0638 18.4597 23.0343 18.5607 22.9844C18.632 22.9518 18.7006 22.9131 18.7657 22.8692C19.8141 22.1301 20.863 21.391 21.9114 20.641C22.4909 20.2249 22.9158 19.6303 23.1203 18.9492C23.1511 18.8348 23.1754 18.7188 23.193 18.6016C23.1635 18.4969 23.157 18.3873 23.1745 18.2799L23.1781 18.2794ZM18.5438 27.9837H17.6723C17.5687 27.9825 17.4697 27.9409 17.397 27.8678C17.3242 27.7944 17.2835 27.6957 17.2836 27.5926L17.3389 24.5697C17.4149 24.464 17.5175 24.3803 17.6363 24.3265L18.8488 24.0932C18.8601 24.0932 18.8714 24.0954 18.8819 24.0997C18.8923 24.104 18.9018 24.1105 18.9097 24.1186C18.9179 24.1267 18.9241 24.1364 18.9285 24.1467C18.9328 24.1573 18.9349 24.1686 18.9349 24.1798V27.5953C18.9346 27.6979 18.8937 27.7965 18.821 27.8694C18.7483 27.9423 18.6497 27.9839 18.5463 27.9852L18.5438 27.9837Z" fill="#151520"/>
<path d="M23.654 13.5497C23.6812 13.6087 23.6954 13.6728 23.6956 13.7378V15.2568C23.6943 15.7322 23.5818 16.2008 23.3671 16.6254C23.1523 17.0501 22.8411 17.4192 22.4579 17.7036C21.8463 18.1813 21.2199 18.6293 20.5791 19.08L19.199 20.0338C19.018 20.1642 18.7958 20.2259 18.5731 20.2076C18.4577 20.1942 18.3448 20.1649 18.2378 20.1204C18.1424 20.0729 18.0499 20.0201 17.9609 19.9618C16.7084 19.108 15.456 18.2548 14.2328 17.358C13.6791 16.9676 13.1408 16.5623 12.5871 16.1576C12.5143 16.1143 12.4564 16.0556 12.3821 16.0128C12.1774 15.8553 12.0376 15.6289 11.9889 15.3761C11.976 15.309 11.971 15.2405 11.974 15.1722V13.7984C11.9761 13.7401 11.9713 13.6818 11.9596 13.6246C11.9554 13.6161 11.9531 13.6068 11.9531 13.5973C11.9531 13.5879 11.9554 13.5785 11.9596 13.5701C11.9639 13.5618 11.97 13.5546 11.9776 13.5492C11.9853 13.5437 11.994 13.5399 12.0032 13.538H12.0176C12.0209 13.5624 12.0259 13.5866 12.0324 13.6103C12.0441 13.7522 12.1061 13.8853 12.2073 13.986C12.28 14.0781 12.3687 14.1564 12.4692 14.2175C13.9252 15.3022 15.4109 16.3584 16.911 17.3999C17.2605 17.646 17.624 17.8769 17.9741 18.1227C18.1152 18.2211 18.2725 18.2944 18.4387 18.3394C18.6339 18.3857 18.8395 18.3652 19.0216 18.2813C19.0897 18.2515 19.1533 18.2126 19.2107 18.1654C20.1719 17.486 21.1184 16.8203 22.0816 16.1402C22.2708 16.0103 22.4457 15.8803 22.619 15.7355C23.0753 15.3283 23.4083 14.8026 23.5807 14.2175C23.6074 14.1178 23.6268 14.0165 23.6392 13.9142C23.6515 13.8571 23.6565 13.7986 23.654 13.7403V13.5497ZM18.4695 11.451H18.8185C19.3849 11.4937 19.9335 11.6672 20.4207 11.9577C20.7497 12.1565 21.0566 12.3893 21.3362 12.6525C21.5231 12.8123 21.647 13.0329 21.6859 13.2749C21.7249 13.5113 21.689 13.7539 21.5833 13.9692C21.5542 14.0416 21.51 14.0997 21.4809 14.1573C21.4665 14.1854 21.4419 14.2071 21.4121 14.2179C21.3822 14.2287 21.3495 14.2276 21.3203 14.2149C21.3059 14.2149 21.3059 14.2006 21.2917 14.2006C21.1891 14.1282 21.0865 14.0701 20.9711 13.9967C20.5542 13.7029 20.0842 13.4916 19.5871 13.3743C19.268 13.3003 18.9394 13.276 18.613 13.3024C17.9471 13.3508 17.3075 13.58 16.7637 13.9651C16.5587 14.1099 16.3414 14.2256 16.1225 14.3699C16.1081 14.3699 16.1081 14.3847 16.0938 14.3847C16.0827 14.383 16.0724 14.3778 16.0645 14.3699L14.8413 13.5456C14.8142 13.5302 14.7897 13.5108 14.7685 13.488C14.7522 13.4772 14.7403 13.4611 14.735 13.4424C14.7296 13.4237 14.7312 13.4037 14.7393 13.386C14.7393 13.3713 14.7542 13.3713 14.7685 13.357L14.7972 13.3279C15.1469 13.097 15.4816 12.8355 15.8308 12.5888C16.1298 12.3706 16.4404 12.1686 16.7613 11.9837C17.1354 11.7778 17.5376 11.6272 17.9552 11.5366C18.1219 11.4868 18.2957 11.4591 18.4695 11.451ZM17.8261 11.5683V9.02713C17.8285 8.93148 17.8691 8.84074 17.9388 8.77472C18.0083 8.70873 18.1015 8.67284 18.1977 8.67489H18.9375C19.0337 8.67284 19.1268 8.70873 19.1965 8.77472C19.2661 8.84074 19.3066 8.93148 19.3091 9.02713V11.5249C18.8141 11.4681 18.3132 11.483 17.8225 11.5693L17.8261 11.5683ZM23.6704 17.7873C23.6986 17.8462 23.7136 17.9103 23.7145 17.9754V19.523C23.7013 20.2053 23.4664 20.8649 23.0449 21.4035C22.8625 21.6311 22.6521 21.8351 22.419 22.011C21.8037 22.4882 21.1655 22.9367 20.5221 23.3874L19.2405 24.2699C19.1304 24.3459 19.0067 24.3999 18.8759 24.4289C18.7013 24.4726 18.5169 24.4575 18.352 24.3855C18.2333 24.3423 18.1208 24.284 18.0172 24.2116C16.59 23.2432 15.1627 22.2593 13.7647 21.2321C13.3279 20.914 12.8932 20.5961 12.4539 20.2637C12.2379 20.1075 12.0923 19.8731 12.0483 19.6112C12.0356 19.5441 12.0308 19.4755 12.034 19.4073V18.0054C12.0359 17.9522 12.031 17.8989 12.0191 17.847C12.0048 17.8031 12.034 17.7598 12.0632 17.7598C12.0632 17.7887 12.0776 17.8031 12.0776 17.8321C12.094 17.9916 12.1666 18.1402 12.2826 18.2517C12.3534 18.3271 12.4315 18.3955 12.5159 18.4556C14.0303 19.5837 15.5888 20.6826 17.1452 21.7532C17.4348 21.957 17.7275 22.1436 18.0044 22.3318C18.1224 22.4223 18.2554 22.4913 18.3976 22.5356C18.5043 22.5718 18.6171 22.5866 18.7297 22.5792C18.8421 22.5716 18.9519 22.5423 19.0528 22.4923C19.1242 22.4596 19.1927 22.421 19.2579 22.3771C20.3063 21.638 21.3552 20.8988 22.4036 20.149C22.9831 19.7329 23.4081 19.1381 23.6124 18.457C23.6434 18.3426 23.6677 18.2266 23.6853 18.1095C23.6556 18.0049 23.6493 17.8951 23.6668 17.7878L23.6704 17.7873ZM19.036 27.4914H18.1645C18.0609 27.4905 17.9619 27.4487 17.8892 27.3755C17.8164 27.3022 17.7757 27.2034 17.7758 27.1004L17.8311 24.0777C17.9071 23.972 18.0097 23.888 18.1285 23.8345L19.341 23.6012C19.3523 23.6009 19.3636 23.6032 19.3741 23.6077C19.3845 23.612 19.394 23.6185 19.402 23.6264C19.4101 23.6345 19.4163 23.6441 19.4207 23.6547C19.4249 23.6651 19.4271 23.6763 19.4271 23.6876V27.1031C19.4267 27.2057 19.3858 27.3042 19.3132 27.3771C19.2405 27.4502 19.1419 27.4916 19.0384 27.493L19.036 27.4914Z" fill="#E6E6E6"/>
</g>
</svg>
