<svg width="32" height="32" viewBox="0 0 32 32" fill="none" xmlns="http://www.w3.org/2000/svg">
<g clip-path="url(#clip0_534_12)">
<path d="M22.8341 27.0054H2.98536C2.45492 27.0054 1.94622 26.7947 1.57114 26.4196C1.19607 26.0445 0.985352 25.5358 0.985352 25.0054V3.00537C0.985352 2.47494 1.19607 1.96623 1.57114 1.59116C1.94622 1.21608 2.45492 1.00537 2.98536 1.00537H17.156C17.4187 1.00525 17.6788 1.05688 17.9216 1.15732C18.1643 1.25775 18.3849 1.40502 18.5707 1.5907L22.4 5.4187C22.5859 5.6044 22.7334 5.82492 22.8341 6.06766C22.9348 6.3104 22.9866 6.57059 22.9867 6.83337V11.0054" stroke="#39B98B" stroke-width="1.5" stroke-linecap="round" stroke-linejoin="round"/>
<path d="M22.9854 31.0054C27.4037 31.0054 30.9854 27.4236 30.9854 23.0054C30.9854 18.5871 27.4037 15.0054 22.9854 15.0054C18.5672 15.0054 14.9854 18.5871 14.9854 23.0054C14.9854 27.4236 18.5672 31.0054 22.9854 31.0054Z" fill="#1C1C1C"/>
<path d="M22.9854 31.0054C27.4037 31.0054 30.9854 27.4236 30.9854 23.0054C30.9854 18.5871 27.4037 15.0054 22.9854 15.0054C18.5672 15.0054 14.9854 18.5871 14.9854 23.0054C14.9854 27.4236 18.5672 31.0054 22.9854 31.0054Z" stroke="#39B98B" stroke-width="1.5" stroke-linecap="round" stroke-linejoin="round"/>
<path d="M26.5502 20.6787L22.6756 25.844C22.5897 25.9587 22.4802 26.0536 22.3544 26.1223C22.2286 26.1909 22.0895 26.2316 21.9466 26.2417C21.8037 26.2519 21.6603 26.2311 21.5261 26.1809C21.3919 26.1307 21.2701 26.0522 21.1689 25.9507L19.1689 23.9507" stroke="#39B98B" stroke-width="1.5" stroke-linecap="round" stroke-linejoin="round"/>
<path d="M11.9853 7.00537H9.98535C9.43306 7.00537 8.98535 7.45309 8.98535 8.00537V12.0054C8.98535 12.5577 9.43306 13.0054 9.98535 13.0054H11.9853C12.5376 13.0054 12.9853 12.5577 12.9853 12.0054V8.00537C12.9853 7.45309 12.5376 7.00537 11.9853 7.00537Z" stroke="#39B98B" stroke-width="1.5" stroke-linecap="round" stroke-linejoin="round"/>
<path d="M4.98535 7.00537V13.0054" stroke="#39B98B" stroke-width="1.5" stroke-linecap="round" stroke-linejoin="round"/>
<path d="M16.9854 7.00537V13.0054" stroke="#39B98B" stroke-width="1.5" stroke-linecap="round" stroke-linejoin="round"/>
<path d="M7.98535 17.0054H5.98535C5.43306 17.0054 4.98535 17.4531 4.98535 18.0054V22.0054C4.98535 22.5577 5.43306 23.0054 5.98535 23.0054H7.98535C8.53763 23.0054 8.98535 22.5577 8.98535 22.0054V18.0054C8.98535 17.4531 8.53763 17.0054 7.98535 17.0054Z" stroke="#39B98B" stroke-width="1.5" stroke-linecap="round" stroke-linejoin="round"/>
</g>
<defs>
<clipPath id="clip0_534_12">
<rect width="32" height="32" fill="white"/>
</clipPath>
</defs>
</svg>
