<svg width="191" height="28" viewBox="0 0 191 28" fill="none" xmlns="http://www.w3.org/2000/svg">
<path d="M179.306 16.9917V26.9997H175.922V9.68369H179.234V12.1677C180.386 10.1877 182.15 9.17969 184.562 9.17969C186.542 9.17969 188.054 9.82769 189.134 11.0877C190.214 12.3837 190.754 14.0037 190.754 16.0197V26.9997H187.37V16.5957C187.37 13.7157 186.002 12.2397 183.338 12.2397C182.042 12.2397 181.07 12.7077 180.35 13.6077C179.63 14.5077 179.306 15.6237 179.306 16.9917Z" fill="#7E7E7E"/>
<path d="M170.159 26.9996H166.811V9.68359H170.159V26.9996ZM166.055 3.13159C166.055 2.48359 166.271 1.90759 166.739 1.40359C167.207 0.935593 167.783 0.683594 168.467 0.683594C169.115 0.683594 169.691 0.935593 170.195 1.40359C170.663 1.87159 170.915 2.44759 170.915 3.13159C170.915 3.81559 170.663 4.39159 170.195 4.85959C169.691 5.32759 169.115 5.54359 168.467 5.54359C167.783 5.54359 167.207 5.32759 166.739 4.85959C166.271 4.39159 166.055 3.81559 166.055 3.13159Z" fill="#7E7E7E"/>
<path d="M146.891 22.3565C146.891 20.8805 147.359 19.6925 148.331 18.7925C149.267 17.8925 150.563 17.3165 152.147 17.1005L156.827 16.4165C157.691 16.3085 158.159 15.8765 158.159 15.1205C158.159 14.2205 157.835 13.4645 157.223 12.8885C156.575 12.3125 155.639 12.0245 154.415 12.0245C153.263 12.0245 152.327 12.3485 151.679 12.9965C150.995 13.6445 150.599 14.4725 150.491 15.5165L147.251 14.7605C147.395 13.1045 148.151 11.7725 149.519 10.7285C150.851 9.68453 152.471 9.14453 154.343 9.14453C156.791 9.14453 158.591 9.75653 159.779 10.9445C160.931 12.1325 161.543 13.6445 161.543 15.4805V24.1565C161.543 25.2005 161.615 26.1365 161.759 27.0005H158.447C158.303 26.2805 158.267 25.5245 158.267 24.6605C157.763 25.4525 157.079 26.1005 156.143 26.6765C155.207 27.2525 154.055 27.5405 152.687 27.5405C150.959 27.5405 149.591 27.0365 148.511 26.0285C147.431 25.0205 146.891 23.7965 146.891 22.3565ZM153.155 24.6965C154.667 24.6965 155.855 24.3005 156.791 23.4725C157.691 22.6805 158.159 21.3845 158.159 19.5845V18.7925L152.867 19.5845C152.075 19.7285 151.463 19.9805 151.031 20.4125C150.563 20.8445 150.347 21.4565 150.347 22.1765C150.347 22.8605 150.599 23.4365 151.103 23.9405C151.607 24.4445 152.291 24.6965 153.155 24.6965Z" fill="#7E7E7E"/>
<path d="M131.142 16.8115V26.9995H127.758V0.935547H131.142V11.6995C132.294 10.0435 134.022 9.17955 136.398 9.17955C138.378 9.17955 139.89 9.82755 140.97 11.0875C142.05 12.3835 142.59 14.0035 142.59 16.0195V26.9995H139.206V16.5955C139.206 13.7155 137.838 12.2395 135.174 12.2395C133.914 12.2395 132.942 12.6715 132.258 13.5355C131.538 14.3995 131.178 15.4795 131.142 16.8115Z" fill="#7E7E7E"/>
<path d="M112.516 27.5395C109.024 27.5395 106.036 26.3515 103.552 23.9395C101.068 21.5635 99.8438 18.3235 99.8438 14.2195C99.8438 11.4835 100.456 9.10755 101.716 7.01955C102.94 4.96755 104.524 3.45555 106.432 2.44755C108.304 1.43955 110.356 0.935547 112.516 0.935547C115.396 0.935547 117.808 1.69155 119.788 3.13155C121.768 4.57155 123.1 6.55155 123.748 9.03555L120.472 10.1875C119.968 8.27955 119.068 6.80355 117.7 5.75955C116.332 4.71555 114.604 4.17555 112.516 4.17555C109.996 4.17555 107.872 5.07555 106.108 6.83955C104.308 8.60355 103.444 11.0515 103.444 14.2195C103.444 17.3875 104.308 19.8715 106.108 21.6355C107.872 23.4355 109.996 24.2995 112.516 24.2995C114.604 24.2995 116.332 23.7595 117.736 22.6435C119.104 21.5275 120.076 20.0515 120.652 18.1795L123.784 19.3315C123.064 21.8155 121.732 23.7955 119.752 25.3075C117.772 26.8195 115.36 27.5395 112.516 27.5395Z" fill="#7E7E7E"/>
<path d="M74.7875 16.5605H84.2555C84.1835 15.2645 83.7515 14.2205 82.9595 13.3925C82.1315 12.5645 80.9795 12.1325 79.5035 12.1325C78.1355 12.1325 77.0555 12.6005 76.1915 13.4645C75.3275 14.3285 74.8595 15.3725 74.7875 16.5605ZM84.7595 21.0605L87.6755 22.0685C87.1715 23.6885 86.2355 25.0205 84.8675 26.0285C83.4995 27.0365 81.8435 27.5405 79.8995 27.5405C77.4515 27.5405 75.3995 26.7125 73.7075 25.0565C72.0155 23.4005 71.1875 21.1325 71.1875 18.2885C71.1875 15.6605 71.9795 13.4645 73.6355 11.7365C75.2555 10.0085 77.1995 9.14453 79.4675 9.14453C82.0595 9.14453 84.1115 9.97253 85.5875 11.6285C87.0275 13.2845 87.7835 15.4805 87.7835 18.2165C87.7835 18.6485 87.7475 19.0085 87.7115 19.2965H74.6795C74.6795 20.8445 75.1835 22.1045 76.1915 23.0765C77.1995 24.0845 78.4235 24.5525 79.8995 24.5525C82.3475 24.5525 83.9675 23.4005 84.7595 21.0605Z" fill="#7E7E7E"/>
<path d="M63.7951 24.9116C63.3271 25.7756 62.6431 26.4596 61.7071 26.8916C60.7711 27.3236 59.7631 27.5396 58.6831 27.5396C56.7031 27.5396 55.1191 26.8916 53.9671 25.5956C52.7791 24.2996 52.2031 22.6076 52.2031 20.5916V9.68359H55.5871V20.0876C55.5871 21.3836 55.8751 22.4636 56.5231 23.2916C57.1711 24.1556 58.1431 24.5516 59.5111 24.5516C60.8431 24.5516 61.8511 24.1556 62.5711 23.3636C63.2551 22.5716 63.6151 21.4916 63.6151 20.1236V9.68359H66.9991V23.7956C66.9991 24.9476 67.0351 25.9916 67.1791 26.9996H63.9391C63.8311 26.4956 63.7951 25.7756 63.7951 24.9116Z" fill="#7E7E7E"/>
<path d="M46.7981 26.9995H43.4141V0.935547H46.7981V26.9995Z" fill="#7E7E7E"/>
<path d="M23.4922 22.3565C23.4922 20.8805 23.9602 19.6925 24.9322 18.7925C25.8682 17.8925 27.1642 17.3165 28.7482 17.1005L33.4282 16.4165C34.2922 16.3085 34.7602 15.8765 34.7602 15.1205C34.7602 14.2205 34.4362 13.4645 33.8242 12.8885C33.1762 12.3125 32.2402 12.0245 31.0162 12.0245C29.8642 12.0245 28.9282 12.3485 28.2802 12.9965C27.5962 13.6445 27.2002 14.4725 27.0922 15.5165L23.8522 14.7605C23.9962 13.1045 24.7522 11.7725 26.1202 10.7285C27.4522 9.68453 29.0722 9.14453 30.9442 9.14453C33.3922 9.14453 35.1922 9.75653 36.3802 10.9445C37.5322 12.1325 38.1442 13.6445 38.1442 15.4805V24.1565C38.1442 25.2005 38.2162 26.1365 38.3602 27.0005H35.0482C34.9042 26.2805 34.8682 25.5245 34.8682 24.6605C34.3642 25.4525 33.6802 26.1005 32.7442 26.6765C31.8082 27.2525 30.6562 27.5405 29.2882 27.5405C27.5602 27.5405 26.1922 27.0365 25.1122 26.0285C24.0322 25.0205 23.4922 23.7965 23.4922 22.3565ZM29.7562 24.6965C31.2682 24.6965 32.4562 24.3005 33.3922 23.4725C34.2922 22.6805 34.7602 21.3845 34.7602 19.5845V18.7925L29.4682 19.5845C28.6762 19.7285 28.0642 19.9805 27.6322 20.4125C27.1642 20.8445 26.9482 21.4565 26.9482 22.1765C26.9482 22.8605 27.2002 23.4365 27.7042 23.9405C28.2082 24.4445 28.8922 24.6965 29.7562 24.6965Z" fill="#7E7E7E"/>
<path d="M11.8074 22.4646L19.5834 1.47656H23.2914L13.4634 27.0006H9.97138L0.359375 1.47656H4.10338L11.8074 22.4646Z" fill="#7E7E7E"/>
</svg>
