<svg width="591" height="148" viewBox="0 0 591 148" fill="none" xmlns="http://www.w3.org/2000/svg">
<g clip-path="url(#clip0_8233_621)">
<g opacity="0.6">
<path fill-rule="evenodd" clip-rule="evenodd" d="M130.289 111.9C130.289 112.662 130.906 113.28 131.669 113.28C132.431 113.28 133.049 112.662 133.049 111.9C133.049 111.138 132.431 110.52 131.669 110.52C130.906 110.52 130.289 111.138 130.289 111.9Z" fill="url(#paint0_linear_8233_621)"/>
<path fill-rule="evenodd" clip-rule="evenodd" d="M130.289 74.14C130.289 74.9022 130.906 75.5203 131.669 75.5203C132.431 75.5203 133.049 74.9022 133.049 74.14C133.049 73.3779 132.431 72.7598 131.669 72.7598C130.906 72.7598 130.289 73.3779 130.289 74.14Z" fill="url(#paint1_linear_8233_621)"/>
<path fill-rule="evenodd" clip-rule="evenodd" d="M130.289 36.3803C130.289 37.1424 130.906 37.7605 131.669 37.7605C132.431 37.7605 133.049 37.1424 133.049 36.3803C133.049 35.6181 132.431 35 131.669 35C130.906 35 130.289 35.6181 130.289 36.3803Z" fill="url(#paint2_linear_8233_621)"/>
<path fill-rule="evenodd" clip-rule="evenodd" d="M111.172 111.9C111.172 112.662 111.79 113.28 112.552 113.28C113.315 113.28 113.932 112.662 113.932 111.9C113.932 111.138 113.315 110.52 112.552 110.52C111.79 110.52 111.172 111.138 111.172 111.9Z" fill="url(#paint3_linear_8233_621)"/>
<path fill-rule="evenodd" clip-rule="evenodd" d="M111.172 74.14C111.172 74.9022 111.79 75.5203 112.552 75.5203C113.315 75.5203 113.932 74.9022 113.932 74.14C113.932 73.3779 113.315 72.7598 112.552 72.7598C111.79 72.7598 111.172 73.3779 111.172 74.14Z" fill="url(#paint4_linear_8233_621)"/>
<path fill-rule="evenodd" clip-rule="evenodd" d="M111.172 36.3803C111.172 37.1424 111.79 37.7605 112.552 37.7605C113.315 37.7605 113.932 37.1424 113.932 36.3803C113.932 35.6181 113.315 35 112.552 35C111.79 35 111.172 35.6181 111.172 36.3803Z" fill="url(#paint5_linear_8233_621)"/>
<path fill-rule="evenodd" clip-rule="evenodd" d="M92.7578 111.9C92.7578 112.662 93.3758 113.28 94.1378 113.28C94.8998 113.28 95.5178 112.662 95.5178 111.9C95.5178 111.138 94.8998 110.52 94.1378 110.52C93.3758 110.52 92.7578 111.138 92.7578 111.9Z" fill="url(#paint6_linear_8233_621)"/>
<path fill-rule="evenodd" clip-rule="evenodd" d="M92.7578 74.14C92.7578 74.9022 93.3758 75.5203 94.1378 75.5203C94.8998 75.5203 95.5178 74.9022 95.5178 74.14C95.5178 73.3779 94.8998 72.7598 94.1378 72.7598C93.3758 72.7598 92.7578 73.3779 92.7578 74.14Z" fill="url(#paint7_linear_8233_621)"/>
<path fill-rule="evenodd" clip-rule="evenodd" d="M92.7578 36.3803C92.7578 37.1424 93.3758 37.7605 94.1378 37.7605C94.8998 37.7605 95.5178 37.1424 95.5178 36.3803C95.5178 35.6181 94.8998 35 94.1378 35C93.3758 35 92.7578 35.6181 92.7578 36.3803Z" fill="url(#paint8_linear_8233_621)"/>
<path fill-rule="evenodd" clip-rule="evenodd" d="M74.3516 111.9C74.3516 112.662 74.9696 113.28 75.7316 113.28C76.4936 113.28 77.1116 112.662 77.1116 111.9C77.1116 111.138 76.4936 110.52 75.7316 110.52C74.9696 110.52 74.3516 111.138 74.3516 111.9Z" fill="url(#paint9_linear_8233_621)"/>
<path fill-rule="evenodd" clip-rule="evenodd" d="M74.3516 74.14C74.3516 74.9022 74.9696 75.5203 75.7316 75.5203C76.4936 75.5203 77.1116 74.9022 77.1116 74.14C77.1116 73.3779 76.4936 72.7598 75.7316 72.7598C74.9696 72.7598 74.3516 73.3779 74.3516 74.14Z" fill="url(#paint10_linear_8233_621)"/>
<path fill-rule="evenodd" clip-rule="evenodd" d="M74.3516 36.3803C74.3516 37.1424 74.9696 37.7605 75.7316 37.7605C76.4936 37.7605 77.1116 37.1424 77.1116 36.3803C77.1116 35.6181 76.4936 35 75.7316 35C74.9696 35 74.3516 35.6181 74.3516 36.3803Z" fill="url(#paint11_linear_8233_621)"/>
<path fill-rule="evenodd" clip-rule="evenodd" d="M206.805 74.14C206.805 74.9022 207.423 75.5203 208.185 75.5203C208.947 75.5203 209.565 74.9022 209.565 74.14C209.565 73.3779 208.947 72.7598 208.185 72.7598C207.423 72.7598 206.805 73.3779 206.805 74.14Z" fill="url(#paint12_linear_8233_621)"/>
<path fill-rule="evenodd" clip-rule="evenodd" d="M55.9375 111.9C55.9375 112.662 56.5555 113.28 57.3175 113.28C58.0795 113.28 58.6975 112.662 58.6975 111.9C58.6975 111.138 58.0795 110.52 57.3175 110.52C56.5555 110.52 55.9375 111.138 55.9375 111.9Z" fill="url(#paint13_linear_8233_621)"/>
<path fill-rule="evenodd" clip-rule="evenodd" d="M55.9375 74.14C55.9375 74.9022 56.5555 75.5203 57.3175 75.5203C58.0795 75.5203 58.6975 74.9022 58.6975 74.14C58.6975 73.3779 58.0795 72.7598 57.3175 72.7598C56.5555 72.7598 55.9375 73.3779 55.9375 74.14Z" fill="url(#paint14_linear_8233_621)"/>
<path fill-rule="evenodd" clip-rule="evenodd" d="M55.9375 36.3803C55.9375 37.1424 56.5555 37.7605 57.3175 37.7605C58.0795 37.7605 58.6975 37.1424 58.6975 36.3803C58.6975 35.6181 58.0795 35 57.3175 35C56.5555 35 55.9375 35.6181 55.9375 36.3803Z" fill="url(#paint15_linear_8233_621)"/>
<path fill-rule="evenodd" clip-rule="evenodd" d="M206.398 111.9C206.398 112.662 207.016 113.28 207.778 113.28C208.54 113.28 209.158 112.662 209.158 111.9C209.158 111.138 208.54 110.52 207.778 110.52C207.016 110.52 206.398 111.138 206.398 111.9Z" fill="url(#paint16_linear_8233_621)"/>
<path fill-rule="evenodd" clip-rule="evenodd" d="M206.398 36.3803C206.398 37.1424 207.016 37.7605 207.778 37.7605C208.54 37.7605 209.158 37.1424 209.158 36.3803C209.158 35.6181 208.54 35 207.778 35C207.016 35 206.398 35.6181 206.398 36.3803Z" fill="url(#paint17_linear_8233_621)"/>
<path fill-rule="evenodd" clip-rule="evenodd" d="M36.8203 111.9C36.8203 112.662 37.4383 113.28 38.2003 113.28C38.9623 113.28 39.5803 112.662 39.5803 111.9C39.5803 111.138 38.9623 110.52 38.2003 110.52C37.4383 110.52 36.8203 111.138 36.8203 111.9Z" fill="url(#paint18_linear_8233_621)"/>
<path fill-rule="evenodd" clip-rule="evenodd" d="M36.8203 74.14C36.8203 74.9022 37.4383 75.5203 38.2003 75.5203C38.9623 75.5203 39.5803 74.9022 39.5803 74.14C39.5803 73.3779 38.9623 72.7598 38.2003 72.7598C37.4383 72.7598 36.8203 73.3779 36.8203 74.14Z" fill="url(#paint19_linear_8233_621)"/>
<path fill-rule="evenodd" clip-rule="evenodd" d="M36.8203 36.3803C36.8203 37.1424 37.4383 37.7605 38.2003 37.7605C38.9623 37.7605 39.5803 37.1424 39.5803 36.3803C39.5803 35.6181 38.9623 35 38.2003 35C37.4383 35 36.8203 35.6181 36.8203 36.3803Z" fill="url(#paint20_linear_8233_621)"/>
<path fill-rule="evenodd" clip-rule="evenodd" d="M187.273 111.9C187.273 112.662 187.891 113.28 188.653 113.28C189.415 113.28 190.033 112.662 190.033 111.9C190.033 111.138 189.415 110.52 188.653 110.52C187.891 110.52 187.273 111.138 187.273 111.9Z" fill="url(#paint21_linear_8233_621)"/>
<path fill-rule="evenodd" clip-rule="evenodd" d="M187.273 74.14C187.273 74.9022 187.891 75.5203 188.653 75.5203C189.415 75.5203 190.033 74.9022 190.033 74.14C190.033 73.3779 189.415 72.7598 188.653 72.7598C187.891 72.7598 187.273 73.3779 187.273 74.14Z" fill="url(#paint22_linear_8233_621)"/>
<path fill-rule="evenodd" clip-rule="evenodd" d="M187.273 36.3803C187.273 37.1424 187.891 37.7605 188.653 37.7605C189.415 37.7605 190.033 37.1424 190.033 36.3803C190.033 35.6181 189.415 35 188.653 35C187.891 35 187.273 35.6181 187.273 36.3803Z" fill="url(#paint23_linear_8233_621)"/>
<path fill-rule="evenodd" clip-rule="evenodd" d="M19.1172 111.9C19.1172 112.662 19.7352 113.28 20.4972 113.28C21.2592 113.28 21.8772 112.662 21.8772 111.9C21.8772 111.138 21.2592 110.52 20.4972 110.52C19.7352 110.52 19.1172 111.138 19.1172 111.9Z" fill="url(#paint24_linear_8233_621)"/>
<path fill-rule="evenodd" clip-rule="evenodd" d="M19.1172 74.14C19.1172 74.9022 19.7352 75.5203 20.4972 75.5203C21.2592 75.5203 21.8772 74.9022 21.8772 74.14C21.8772 73.3779 21.2592 72.7598 20.4972 72.7598C19.7352 72.7598 19.1172 73.3779 19.1172 74.14Z" fill="url(#paint25_linear_8233_621)"/>
<path fill-rule="evenodd" clip-rule="evenodd" d="M19.1172 36.3803C19.1172 37.1424 19.7352 37.7605 20.4972 37.7605C21.2592 37.7605 21.8772 37.1424 21.8772 36.3803C21.8772 35.6181 21.2592 35 20.4972 35C19.7352 35 19.1172 35.6181 19.1172 36.3803Z" fill="url(#paint26_linear_8233_621)"/>
<path fill-rule="evenodd" clip-rule="evenodd" d="M169.57 111.9C169.57 112.662 170.188 113.28 170.95 113.28C171.712 113.28 172.33 112.662 172.33 111.9C172.33 111.138 171.712 110.52 170.95 110.52C170.188 110.52 169.57 111.138 169.57 111.9Z" fill="url(#paint27_linear_8233_621)"/>
<path fill-rule="evenodd" clip-rule="evenodd" d="M169.57 74.14C169.57 74.9022 170.188 75.5203 170.95 75.5203C171.712 75.5203 172.33 74.9022 172.33 74.14C172.33 73.3779 171.712 72.7598 170.95 72.7598C170.188 72.7598 169.57 73.3779 169.57 74.14Z" fill="url(#paint28_linear_8233_621)"/>
<path fill-rule="evenodd" clip-rule="evenodd" d="M169.57 36.3803C169.57 37.1424 170.188 37.7605 170.95 37.7605C171.712 37.7605 172.33 37.1424 172.33 36.3803C172.33 35.6181 171.712 35 170.95 35C170.188 35 169.57 35.6181 169.57 36.3803Z" fill="url(#paint29_linear_8233_621)"/>
<path fill-rule="evenodd" clip-rule="evenodd" d="M0 111.9C0 112.662 0.617981 113.28 1.38098 113.28C2.14298 113.28 2.76099 112.662 2.76099 111.9C2.76099 111.138 2.14298 110.52 1.38098 110.52C0.617981 110.52 0 111.138 0 111.9Z" fill="url(#paint30_linear_8233_621)"/>
<path fill-rule="evenodd" clip-rule="evenodd" d="M0 74.14C0 74.9022 0.617981 75.5203 1.38098 75.5203C2.14298 75.5203 2.76099 74.9022 2.76099 74.14C2.76099 73.3779 2.14298 72.7598 1.38098 72.7598C0.617981 72.7598 0 73.3779 0 74.14Z" fill="url(#paint31_linear_8233_621)"/>
<path fill-rule="evenodd" clip-rule="evenodd" d="M0 36.3803C0 37.1424 0.617981 37.7605 1.38098 37.7605C2.14298 37.7605 2.76099 37.1424 2.76099 36.3803C2.76099 35.6181 2.14298 35 1.38098 35C0.617981 35 0 35.6181 0 36.3803Z" fill="url(#paint32_linear_8233_621)"/>
<path fill-rule="evenodd" clip-rule="evenodd" d="M150.453 111.9C150.453 112.662 151.07 113.28 151.833 113.28C152.595 113.28 153.213 112.662 153.213 111.9C153.213 111.138 152.595 110.52 151.833 110.52C151.07 110.52 150.453 111.138 150.453 111.9Z" fill="url(#paint33_linear_8233_621)"/>
<path fill-rule="evenodd" clip-rule="evenodd" d="M150.453 74.14C150.453 74.9022 151.07 75.5203 151.833 75.5203C152.595 75.5203 153.213 74.9022 153.213 74.14C153.213 73.3779 152.595 72.7598 151.833 72.7598C151.07 72.7598 150.453 73.3779 150.453 74.14Z" fill="url(#paint34_linear_8233_621)"/>
<path fill-rule="evenodd" clip-rule="evenodd" d="M150.453 36.3803C150.453 37.1424 151.07 37.7605 151.833 37.7605C152.595 37.7605 153.213 37.1424 153.213 36.3803C153.213 35.6181 152.595 35 151.833 35C151.07 35 150.453 35.6181 150.453 36.3803Z" fill="url(#paint35_linear_8233_621)"/>
</g>
<g opacity="0.05">
<path d="M282.806 145.568C297.102 145.568 311.077 141.329 322.964 133.386C334.851 125.444 344.116 114.155 349.587 100.946C355.058 87.7382 356.489 73.2052 353.7 59.1832C350.911 45.1622 344.027 32.2822 333.918 22.1732C323.809 12.0642 310.929 5.1799 296.907 2.3909C282.886 -0.398197 268.352 1.0333 255.144 6.5042C241.936 11.9751 230.647 21.2399 222.704 33.1272C214.762 45.0132 210.523 58.9892 210.523 73.2852C210.523 92.4562 218.138 110.841 231.694 124.397C245.249 137.953 263.635 145.568 282.806 145.568Z" fill="#BABABA"/>
<g opacity="0.25">
<g opacity="0.5">
<mask id="mask0_8233_621" style="mask-type:luminance" maskUnits="userSpaceOnUse" x="210" y="3" width="144" height="145">
<path d="M354 3.04297H210V147.043H354V3.04297Z" fill="white"/>
</mask>
<g mask="url(#mask0_8233_621)">
<path d="M332.911 126.035C361.029 98.0237 361.029 52.609 332.911 24.598C304.793 -3.41289 259.206 -3.41289 231.089 24.598C202.971 52.609 202.971 98.0237 231.089 126.035C259.206 154.046 304.793 154.046 332.911 126.035Z" fill="#7E7E7E"/>
<path d="M331.614 124.738C359.013 97.4437 359.013 53.1899 331.614 25.895C304.214 -1.39991 259.792 -1.39991 232.393 25.895C204.994 53.1899 204.994 97.4437 232.393 124.738C259.792 152.033 304.214 152.033 331.614 124.738Z" fill="#7E7E7E"/>
<path d="M331.746 26.0371L232.531 124.874C239.238 131.516 247.222 136.741 256.006 140.233L347.165 49.4227C343.658 40.6727 338.414 32.7185 331.746 26.0371Z" fill="#7E7E7E"/>
<path d="M322.503 18.2637L224.727 115.666C225.867 117.268 227.069 118.82 228.334 120.323L327.175 21.8573C325.671 20.594 324.114 19.3961 322.503 18.2637Z" fill="#7E7E7E"/>
<g style="mix-blend-mode:soft-light">
<path d="M283.376 127.256C311.453 127.256 334.213 104.582 334.213 76.6126C334.213 48.6428 311.453 25.9688 283.376 25.9688C255.3 25.9688 232.539 48.6428 232.539 76.6126C232.539 104.582 255.3 127.256 283.376 127.256Z" fill="#A6A6A6"/>
</g>
<path d="M317.948 111.126C337.801 91.3488 337.801 59.2827 317.948 39.5051C298.095 19.7274 265.907 19.7274 246.054 39.5051C226.201 59.2827 226.201 91.3488 246.054 111.126C265.907 130.904 298.095 130.904 317.948 111.126Z" fill="#A0A0A0"/>
<g style="mix-blend-mode:multiply">
<path d="M233.925 78.0663C233.923 68.2152 236.806 58.5776 242.22 50.3342C247.634 42.0908 255.344 35.5997 264.406 31.6562C273.467 27.7128 283.487 26.4882 293.237 28.1326C302.987 29.7771 312.043 34.219 319.297 40.9142C314.651 35.913 309.039 31.8974 302.798 29.1081C296.557 26.3188 289.815 24.8132 282.976 24.6813C276.137 24.5495 269.341 25.7943 262.996 28.341C256.652 30.8878 250.888 34.6842 246.051 39.5027C241.215 44.3212 237.404 50.0626 234.847 56.3832C232.291 62.7038 231.041 69.4734 231.174 76.2865C231.306 83.0996 232.817 89.816 235.617 96.0334C238.417 102.251 242.448 107.841 247.468 112.47C238.749 103.121 233.91 90.8276 233.925 78.0663Z" fill="#7E7E7E"/>
</g>
<path d="M333.396 76.2302C333.441 90.1593 328.087 103.538 318.507 113.434C308.928 123.329 295.907 128.934 282.295 129.02C268.684 129.106 255.594 123.665 245.897 113.89C236.2 104.116 230.686 90.8055 230.562 76.8769V76.2302C230.562 62.2748 235.98 48.891 245.622 39.023C255.265 29.1551 268.344 23.6113 281.981 23.6113H282.615C296.143 23.7771 309.061 29.3938 318.568 39.2433C328.076 49.0927 333.4 62.3856 333.396 76.2302Z" fill="#4C4E4F"/>
<path d="M318.369 41.2564L245.626 113.988C236.112 104.508 230.703 91.6711 230.562 78.2425V77.6105C230.562 63.9715 235.982 50.8911 245.628 41.2465C255.274 31.6018 268.359 26.1829 282.001 26.1816H282.636C296.061 26.34 308.889 31.7518 318.369 41.2564Z" fill="#7E7E7E"/>
<path d="M333.404 75.0295C333.404 81.7821 332.145 88.4685 329.7 94.7072C327.254 100.946 323.669 106.614 319.149 111.389C314.63 116.164 309.264 119.952 303.359 122.536C297.454 125.12 291.125 126.45 284.733 126.45C283.81 126.45 282.894 126.423 281.984 126.37C294.399 125.63 306.074 119.898 314.615 110.352C323.156 100.805 327.915 88.1669 327.915 75.0307C327.915 61.8946 323.156 49.2565 314.615 39.7099C306.074 30.1632 294.399 24.4318 281.984 23.6918C282.894 23.6382 283.81 23.6113 284.733 23.6113C297.641 23.6113 310.021 29.0286 319.148 38.6714C328.276 48.3142 333.404 61.3926 333.404 75.0295Z" fill="#58585A"/>
</g>
</g>
</g>
<mask id="mask1_8233_621" style="mask-type:luminance" maskUnits="userSpaceOnUse" x="210" y="1" width="144" height="145">
<path d="M354 1.08398H210V145.084H354V1.08398Z" fill="white"/>
</mask>
<g mask="url(#mask1_8233_621)">
<path d="M331.614 122.779C359.013 95.4847 359.013 51.2309 331.614 23.936C304.214 -3.35889 259.792 -3.35888 232.393 23.936C204.994 51.2309 204.994 95.4847 232.393 122.779C259.792 150.074 304.214 150.074 331.614 122.779Z" fill="#383535"/>
<path d="M331.746 24.0781L232.531 122.915C239.238 129.558 247.222 134.782 256.006 138.274L347.165 47.4637C343.658 38.7137 338.414 30.7595 331.746 24.0781Z" fill="#7E7E7E"/>
<path d="M322.503 16.3047L224.727 113.707C225.867 115.309 227.069 116.861 228.334 118.364L327.175 19.8983C325.671 18.635 324.114 17.4372 322.503 16.3047Z" fill="#7E7E7E"/>
<g style="mix-blend-mode:soft-light">
<path d="M283.376 125.298C311.453 125.298 334.213 102.623 334.213 74.6536C334.213 46.6838 311.453 24.0098 283.376 24.0098C255.3 24.0098 232.539 46.6838 232.539 74.6536C232.539 102.623 255.3 125.298 283.376 125.298Z" fill="black"/>
</g>
<path d="M317.948 109.167C337.801 89.3898 337.801 57.3239 317.948 37.5462C298.095 17.7685 265.907 17.7685 246.054 37.5462C226.201 57.3239 226.201 89.3898 246.054 109.167C265.907 128.945 298.095 128.945 317.948 109.167Z" fill="black"/>
<g style="mix-blend-mode:multiply">
<path d="M233.925 76.1073C233.923 66.2563 236.806 56.6186 242.22 48.3752C247.634 40.1318 255.344 33.6407 264.406 29.6973C273.467 25.7538 283.487 24.5292 293.237 26.1737C302.987 27.8181 312.043 32.26 319.297 38.9553C314.651 33.954 309.039 29.9384 302.798 27.1491C296.557 24.3598 289.815 22.8542 282.976 22.7224C276.137 22.5906 269.341 23.8353 262.996 26.382C256.652 28.9288 250.888 32.7251 246.051 37.5436C241.215 42.3621 237.404 48.1036 234.847 54.4242C232.291 60.7448 231.041 67.5144 231.174 74.3275C231.306 81.1406 232.817 87.8571 235.617 94.0744C238.417 100.292 242.448 105.882 247.468 110.511C238.749 101.162 233.91 88.8687 233.925 76.1073Z" fill="black"/>
</g>
<path d="M332.911 124.076C361.029 96.0647 361.029 50.65 332.911 22.639C304.793 -5.37187 259.206 -5.37187 231.089 22.639C202.971 50.65 202.971 96.0647 231.089 124.076C259.206 152.087 304.793 152.087 332.911 124.076Z" fill="#949494"/>
<path d="M318.369 39.2954L245.626 112.027C236.112 102.547 230.703 89.7101 230.562 76.2816V75.6495C230.562 62.0106 235.982 48.9302 245.628 39.2855C255.274 29.6409 268.359 24.222 282.001 24.2207H282.636C296.061 24.3791 308.889 29.7909 318.369 39.2954Z" fill="#6C6969"/>
<path d="M333.396 74.2692C333.441 88.1983 328.087 101.577 318.507 111.473C308.928 121.369 295.907 126.974 282.295 127.059C268.684 127.145 255.594 121.704 245.897 111.93C236.2 102.155 230.686 88.8445 230.562 74.9159V74.2692C230.562 60.3139 235.98 46.93 245.622 37.0621C255.265 27.1941 268.344 21.6504 281.981 21.6504H282.615C296.143 21.8161 309.061 27.4328 318.568 37.2823C328.076 47.1318 333.4 60.4247 333.396 74.2692Z" fill="#757575"/>
<path d="M304.034 58.0225C304.147 58.2668 304.205 58.5323 304.206 58.801V65.0877C304.201 67.055 303.736 68.9942 302.847 70.7518C301.958 72.5093 300.67 74.0371 299.084 75.214C296.553 77.1908 293.96 79.0451 291.308 80.9101L285.597 84.8572C284.847 85.3975 283.928 85.6527 283.006 85.5766C282.529 85.5213 282.062 85.3999 281.618 85.2159C281.224 85.0195 280.842 84.8004 280.473 84.5598C275.289 81.0261 270.106 77.4946 265.044 73.7837C262.752 72.1677 260.525 70.4905 258.233 68.8155C257.932 68.6362 257.692 68.3936 257.385 68.2163C256.538 67.5644 255.959 66.6274 255.757 65.5814C255.704 65.3034 255.683 65.0202 255.696 64.7375V59.052C255.705 58.8108 255.685 58.5693 255.636 58.3327C255.619 58.2976 255.609 58.259 255.609 58.2198C255.609 58.1806 255.619 58.1419 255.636 58.1069C255.654 58.0726 255.679 58.043 255.711 58.0204C255.742 57.9978 255.778 57.982 255.817 57.974H255.876C255.89 58.0751 255.911 58.1752 255.938 58.2736C255.986 58.8607 256.242 59.4117 256.661 59.8284C256.962 60.2093 257.329 60.5337 257.745 60.7862C263.771 65.2755 269.919 69.6467 276.128 73.9567C277.575 74.9756 279.079 75.9313 280.528 76.9482C281.112 77.3555 281.762 77.6589 282.45 77.8448C283.259 78.0369 284.109 77.9522 284.862 77.6043C285.144 77.4813 285.408 77.3201 285.645 77.1254C289.624 74.3132 293.54 71.558 297.527 68.7438C298.31 68.2058 299.033 67.6678 299.75 67.0687C301.639 65.3834 303.017 63.2077 303.731 60.7862C303.841 60.374 303.922 59.9545 303.972 59.5309C304.024 59.2947 304.044 59.053 304.034 58.8115V58.0225ZM282.577 49.3371H284.022C286.366 49.5139 288.637 50.2319 290.653 51.4341C292.014 52.2566 293.285 53.2205 294.442 54.3096C295.215 54.971 295.728 55.8837 295.889 56.8854C296.05 57.8638 295.902 58.8678 295.465 59.7588C295.344 60.0583 295.161 60.2988 295.04 60.5372C294.981 60.6536 294.879 60.7433 294.756 60.7883C294.632 60.8327 294.496 60.8282 294.376 60.7756C294.317 60.7756 294.317 60.7166 294.257 60.7166C293.833 60.417 293.409 60.1765 292.931 59.8727C291.205 58.6568 289.261 57.7823 287.203 57.2968C285.883 56.9904 284.523 56.8901 283.172 56.9994C280.416 57.1994 277.769 58.1481 275.519 59.7419C274.67 60.341 273.77 60.8199 272.864 61.417C272.805 61.417 272.805 61.4781 272.746 61.4781C272.7 61.4715 272.657 61.45 272.625 61.417L267.562 58.0057C267.45 57.942 267.349 57.8616 267.261 57.7673C267.194 57.7228 267.144 57.6559 267.122 57.5785C267.1 57.5011 267.106 57.4185 267.14 57.3453C267.14 57.2842 267.202 57.2842 267.261 57.2251L267.38 57.1048C268.827 56.1492 270.212 55.0669 271.657 54.0459C272.895 53.1429 274.18 52.307 275.508 51.5417C277.056 50.6896 278.721 50.0663 280.449 49.6915C281.139 49.4853 281.852 49.3641 282.571 49.3308L282.577 49.3371ZM279.915 49.8223V39.3058C279.925 38.91 280.093 38.5344 280.381 38.2612C280.67 37.9881 281.055 37.8395 281.453 37.848H284.515C284.913 37.8395 285.298 37.9881 285.586 38.2612C285.874 38.5344 286.042 38.91 286.053 39.3058V49.643C284.004 49.4077 281.931 49.4696 279.9 49.8266L279.915 49.8223ZM304.102 75.56C304.218 75.8036 304.28 76.069 304.284 76.3385V82.7434C304.23 85.5669 303.258 88.2971 301.513 90.5258C300.758 91.4676 299.888 92.3123 298.923 93.0405C296.377 95.0152 293.735 96.8716 291.073 98.7366L285.768 102.388C285.313 102.703 284.801 102.926 284.26 103.047C283.537 103.228 282.774 103.165 282.092 102.867C281.6 102.689 281.134 102.447 280.706 102.148C274.799 98.1395 268.893 94.0679 263.107 89.817C261.299 88.5006 259.5 87.1842 257.682 85.8087C256.788 85.162 256.185 84.1923 256.003 83.1083C255.951 82.8303 255.931 82.5471 255.944 82.2645V76.4629C255.952 76.2425 255.931 76.022 255.882 75.8068C255.823 75.6254 255.944 75.4461 256.065 75.4461C256.065 75.5663 256.124 75.6254 256.124 75.7457C256.192 76.4059 256.493 77.0209 256.973 77.4819C257.266 77.7945 257.589 78.0771 257.938 78.3258C264.206 82.9944 270.656 87.5428 277.097 91.973C278.296 92.8169 279.507 93.589 280.653 94.3675C281.141 94.7423 281.692 95.0281 282.28 95.2114C282.722 95.361 283.189 95.4223 283.654 95.3915C284.12 95.3607 284.574 95.2385 284.992 95.032C285.287 94.8964 285.571 94.7369 285.841 94.5553C290.179 91.4963 294.52 88.4373 298.859 85.334C301.257 83.6119 303.016 81.1504 303.862 78.3321C303.99 77.8586 304.091 77.3782 304.163 76.8933C304.041 76.4604 304.015 76.0061 304.087 75.5621L304.102 75.56ZM284.922 115.721H281.315C280.887 115.717 280.477 115.544 280.176 115.241C279.875 114.938 279.706 114.529 279.707 114.103L279.936 101.593C280.25 101.156 280.674 100.809 281.167 100.587L286.184 99.6205C286.231 99.6204 286.278 99.6297 286.321 99.6479C286.365 99.666 286.404 99.6925 286.437 99.726C286.47 99.7593 286.496 99.7988 286.514 99.8423C286.532 99.8857 286.541 99.9322 286.541 99.9792V114.114C286.54 114.539 286.37 114.947 286.069 115.249C285.768 115.551 285.36 115.723 284.933 115.728L284.922 115.721Z" fill="white"/>
<path d="M304.034 58.0225C304.147 58.2668 304.205 58.5323 304.206 58.801V65.0877C304.201 67.055 303.736 68.9942 302.847 70.7518C301.958 72.5093 300.67 74.0371 299.084 75.214C296.553 77.1908 293.96 79.0451 291.308 80.9101L285.597 84.8572C284.847 85.3975 283.928 85.6527 283.006 85.5766C282.529 85.5213 282.062 85.3999 281.618 85.2159C281.224 85.0195 280.842 84.8004 280.473 84.5598C275.289 81.0261 270.106 77.4946 265.044 73.7837C262.752 72.1677 260.525 70.4905 258.233 68.8155C257.932 68.6362 257.692 68.3936 257.385 68.2163C256.538 67.5644 255.959 66.6274 255.757 65.5814C255.704 65.3034 255.683 65.0202 255.696 64.7375V59.052C255.705 58.8108 255.685 58.5693 255.636 58.3327C255.619 58.2976 255.609 58.259 255.609 58.2198C255.609 58.1806 255.619 58.1419 255.636 58.1069C255.654 58.0726 255.679 58.043 255.711 58.0204C255.742 57.9978 255.778 57.982 255.817 57.974H255.876C255.89 58.0751 255.911 58.1752 255.938 58.2736C255.986 58.8607 256.242 59.4117 256.661 59.8284C256.962 60.2093 257.329 60.5337 257.745 60.7862C263.771 65.2755 269.919 69.6467 276.128 73.9567C277.575 74.9756 279.079 75.9313 280.528 76.9482C281.112 77.3555 281.762 77.6589 282.45 77.8448C283.259 78.0369 284.109 77.9522 284.862 77.6043C285.144 77.4813 285.408 77.3201 285.645 77.1254C289.624 74.3132 293.54 71.558 297.527 68.7438C298.31 68.2058 299.033 67.6678 299.75 67.0687C301.639 65.3834 303.017 63.2077 303.731 60.7862C303.841 60.374 303.922 59.9545 303.972 59.5309C304.024 59.2947 304.044 59.053 304.034 58.8115V58.0225ZM282.577 49.3371H284.022C286.366 49.5139 288.637 50.2319 290.653 51.4341C292.014 52.2566 293.285 53.2205 294.442 54.3096C295.215 54.971 295.728 55.8837 295.889 56.8854C296.05 57.8638 295.902 58.8678 295.465 59.7588C295.344 60.0583 295.161 60.2988 295.04 60.5372C294.981 60.6536 294.879 60.7433 294.756 60.7883C294.632 60.8327 294.496 60.8282 294.376 60.7756C294.317 60.7756 294.317 60.7166 294.257 60.7166C293.833 60.417 293.409 60.1765 292.931 59.8727C291.205 58.6568 289.261 57.7823 287.203 57.2968C285.883 56.9904 284.523 56.8901 283.172 56.9994C280.416 57.1994 277.769 58.1481 275.519 59.7419C274.67 60.341 273.77 60.8199 272.864 61.417C272.805 61.417 272.805 61.4781 272.746 61.4781C272.7 61.4715 272.657 61.45 272.625 61.417L267.562 58.0057C267.45 57.942 267.349 57.8616 267.261 57.7673C267.194 57.7228 267.144 57.6559 267.122 57.5785C267.1 57.5011 267.106 57.4185 267.14 57.3453C267.14 57.2842 267.202 57.2842 267.261 57.2251L267.38 57.1048C268.827 56.1492 270.212 55.0669 271.657 54.0459C272.895 53.1429 274.18 52.307 275.508 51.5417C277.056 50.6896 278.721 50.0663 280.449 49.6915C281.139 49.4853 281.852 49.3641 282.571 49.3308L282.577 49.3371ZM279.915 49.8223V39.3058C279.925 38.91 280.093 38.5344 280.381 38.2612C280.67 37.9881 281.055 37.8395 281.453 37.848H284.515C284.913 37.8395 285.298 37.9881 285.586 38.2612C285.874 38.5344 286.042 38.91 286.053 39.3058V49.643C284.004 49.4077 281.931 49.4696 279.9 49.8266L279.915 49.8223ZM304.102 75.56C304.218 75.8036 304.28 76.069 304.284 76.3385V82.7434C304.23 85.5669 303.258 88.2971 301.513 90.5258C300.758 91.4676 299.888 92.3123 298.923 93.0405C296.377 95.0152 293.735 96.8716 291.073 98.7366L285.768 102.388C285.313 102.703 284.801 102.926 284.26 103.047C283.537 103.228 282.774 103.165 282.092 102.867C281.6 102.689 281.134 102.447 280.706 102.148C274.799 98.1395 268.893 94.0679 263.107 89.817C261.299 88.5006 259.5 87.1842 257.682 85.8087C256.788 85.162 256.185 84.1923 256.003 83.1083C255.951 82.8303 255.931 82.5471 255.944 82.2645V76.4629C255.952 76.2425 255.931 76.022 255.882 75.8068C255.823 75.6254 255.944 75.4461 256.065 75.4461C256.065 75.5663 256.124 75.6254 256.124 75.7457C256.192 76.4059 256.493 77.0209 256.973 77.4819C257.266 77.7945 257.589 78.0771 257.938 78.3258C264.206 82.9944 270.656 87.5428 277.097 91.973C278.296 92.8169 279.507 93.589 280.653 94.3675C281.141 94.7423 281.692 95.0281 282.28 95.2114C282.722 95.361 283.189 95.4223 283.654 95.3915C284.12 95.3607 284.574 95.2385 284.992 95.032C285.287 94.8964 285.571 94.7369 285.841 94.5553C290.179 91.4963 294.52 88.4373 298.859 85.334C301.257 83.6119 303.016 81.1504 303.862 78.3321C303.99 77.8586 304.091 77.3782 304.163 76.8933C304.041 76.4604 304.015 76.0061 304.087 75.5621L304.102 75.56ZM284.922 115.721H281.315C280.887 115.717 280.477 115.544 280.176 115.241C279.875 114.938 279.706 114.529 279.707 114.103L279.936 101.593C280.25 101.156 280.674 100.809 281.167 100.587L286.184 99.6205C286.231 99.6204 286.278 99.6297 286.321 99.6479C286.365 99.666 286.404 99.6925 286.437 99.726C286.47 99.7593 286.496 99.7988 286.514 99.8423C286.532 99.8857 286.541 99.9322 286.541 99.9792V114.114C286.54 114.539 286.37 114.947 286.069 115.249C285.768 115.551 285.36 115.723 284.933 115.728L284.922 115.721Z" fill="white"/>
<path d="M333.404 73.0686C333.404 79.8211 332.145 86.5076 329.7 92.7462C327.254 98.9848 323.669 104.653 319.149 109.428C314.63 114.203 309.264 117.991 303.359 120.575C297.454 123.159 291.125 124.489 284.733 124.489C283.81 124.489 282.894 124.462 281.984 124.409C294.399 123.669 306.074 117.937 314.615 108.391C323.156 98.844 327.915 86.2059 327.915 73.0698C327.915 59.9337 323.156 47.2956 314.615 37.7489C306.074 28.2022 294.399 22.4709 281.984 21.7309C282.894 21.6772 283.81 21.6504 284.733 21.6504C297.641 21.6504 310.021 27.0677 319.148 36.7104C328.276 46.3532 333.404 59.4316 333.404 73.0686Z" fill="#464646"/>
</g>
</g>
<path d="M358.775 144.567C344.479 144.567 330.504 140.327 318.617 132.385C306.73 124.442 297.465 113.153 291.994 99.945C286.523 86.7368 285.092 72.2028 287.881 58.1818C290.67 44.1598 297.554 31.2808 307.663 21.1714C317.772 11.0624 330.652 4.17805 344.674 1.38895C358.695 -1.40015 373.229 0.0313487 386.437 5.50225C399.645 10.9733 410.934 20.238 418.877 32.1248C426.819 44.0118 431.058 57.9868 431.058 72.2828C431.058 91.4538 423.443 109.84 409.887 123.395C396.332 136.951 377.946 144.567 358.775 144.567Z" fill="#252525"/>
<g opacity="0.25">
<g opacity="0.5">
<path d="M409.911 125.035C438.029 97.0237 438.029 51.609 409.911 23.598C381.793 -4.41289 336.206 -4.41289 308.089 23.598C279.971 51.609 279.971 97.0237 308.089 125.035C336.206 153.046 381.793 153.046 409.911 125.035Z" fill="#7E7E7E"/>
<path d="M408.746 25.0371L309.531 123.874C316.238 130.516 324.222 135.741 333.006 139.233L424.165 48.4227C420.658 39.6727 415.414 31.7185 408.746 25.0371Z" fill="#7E7E7E"/>
<path d="M399.503 17.2637L301.727 114.666C302.867 116.268 304.069 117.82 305.334 119.323L404.175 20.8573C402.671 19.594 401.114 18.3961 399.503 17.2637Z" fill="#7E7E7E"/>
<g style="mix-blend-mode:soft-light">
<path d="M360.376 126.256C388.453 126.256 411.213 103.582 411.213 75.6126C411.213 47.6428 388.453 24.9688 360.376 24.9688C332.3 24.9688 309.539 47.6428 309.539 75.6126C309.539 103.582 332.3 126.256 360.376 126.256Z" fill="#8C3F56"/>
</g>
<g style="mix-blend-mode:multiply">
<path d="M310.925 77.0663C310.923 67.2152 313.806 57.5776 319.22 49.3342C324.634 41.0908 332.344 34.5997 341.406 30.6562C350.467 26.7128 360.487 25.4882 370.237 27.1326C379.987 28.7771 389.043 33.219 396.297 39.9142C391.651 34.913 386.039 30.8974 379.798 28.1081C373.557 25.3188 366.815 23.8132 359.976 23.6813C353.137 23.5495 346.341 24.7943 339.996 27.341C333.652 29.8878 327.888 33.6842 323.051 38.5027C318.215 43.3212 314.404 49.0626 311.847 55.3832C309.291 61.7038 308.041 68.4734 308.174 75.2865C308.306 82.0996 309.817 88.816 312.617 95.0334C315.417 101.251 319.448 106.841 324.468 111.47C315.749 102.121 310.91 89.8276 310.925 77.0663Z" fill="#A84569"/>
</g>
<path d="M410.397 75.2302C410.442 89.1593 405.088 102.538 395.508 112.434C385.929 122.329 372.907 127.934 359.295 128.02C345.684 128.106 332.595 122.665 322.898 112.89C313.201 103.116 307.686 89.8055 307.562 75.8769V75.2302C307.562 61.2748 312.981 47.891 322.623 38.023C332.266 28.1551 345.345 22.6113 358.982 22.6113H359.616C373.144 22.7771 386.062 28.3938 395.569 38.2433C405.077 48.0927 410.401 61.3856 410.397 75.2302Z" fill="#5E5C5C"/>
<path d="M395.37 40.2564L322.626 112.988C313.112 103.508 307.703 90.6711 307.562 77.2425V76.6105C307.562 62.9715 312.983 49.8911 322.629 40.2465C332.275 30.6018 345.359 25.1829 359.001 25.1816H359.636C373.061 25.34 385.89 30.7518 395.37 40.2564Z" fill="#6F6A6A"/>
<path d="M410.404 74.0295C410.404 80.7821 409.145 87.4685 406.7 93.7072C404.254 99.9458 400.669 105.614 396.149 110.389C391.63 115.164 386.264 118.952 380.359 121.536C374.454 124.12 368.125 125.45 361.733 125.45C360.81 125.45 359.894 125.423 358.984 125.37C371.399 124.63 383.074 118.898 391.615 109.352C400.156 99.8049 404.915 87.1669 404.915 74.0307C404.915 60.8946 400.156 48.2565 391.615 38.7099C383.074 29.1632 371.399 23.4318 358.984 22.6918C359.894 22.6382 360.81 22.6113 361.733 22.6113C374.641 22.6113 387.021 28.0286 396.148 37.6714C405.276 47.3142 410.404 60.3926 410.404 74.0295Z" fill="#151520"/>
<path d="M379.815 54.6085C379.928 54.8527 379.987 55.1182 379.987 55.3869V61.6737C379.982 63.641 379.517 65.5801 378.628 67.3377C377.739 69.0953 376.451 70.623 374.865 71.8C372.334 73.7767 369.742 75.6311 367.089 77.496L361.378 81.4432C360.629 81.9834 359.71 82.2386 358.787 82.1625C358.31 82.1072 357.843 81.9858 357.4 81.8018C357.005 81.6054 356.623 81.3863 356.254 81.1457C351.071 77.612 345.887 74.0805 340.825 70.3696C338.534 68.7536 336.306 67.0765 334.015 65.4014C333.713 65.2221 333.473 64.9795 333.166 64.8023C332.319 64.1503 331.74 63.2134 331.539 62.1673C331.485 61.8894 331.464 61.6062 331.477 61.3235V55.638C331.486 55.3967 331.466 55.1552 331.418 54.9186C331.4 54.8836 331.391 54.8449 331.391 54.8057C331.391 54.7665 331.4 54.7279 331.418 54.6929C331.435 54.6586 331.461 54.6289 331.492 54.6064C331.524 54.5837 331.56 54.5679 331.598 54.5599H331.657C331.671 54.661 331.692 54.7611 331.719 54.8595C331.767 55.4466 332.024 55.9976 332.442 56.4143C332.743 56.7953 333.111 57.1196 333.527 57.3721C339.552 61.8614 345.701 66.2326 351.909 70.5426C353.356 71.5616 354.86 72.5173 356.309 73.5341C356.893 73.9415 357.543 74.2448 358.231 74.4307C359.04 74.6228 359.89 74.5381 360.644 74.1902C360.926 74.0672 361.189 73.9061 361.427 73.7113C365.405 70.8992 369.321 68.144 373.308 65.3297C374.091 64.7917 374.814 64.2538 375.532 63.6546C377.42 61.9694 378.799 59.7937 379.512 57.3721C379.622 56.9599 379.703 56.5404 379.754 56.1169C379.805 55.8807 379.826 55.6389 379.815 55.3975V54.6085ZM358.359 45.9231H359.804C362.148 46.0998 364.418 46.8178 366.434 48.0201C367.796 48.8426 369.066 49.8065 370.223 50.8955C370.997 51.5569 371.509 52.4696 371.67 53.4714C371.831 54.4497 371.683 55.4537 371.246 56.3447C371.125 56.6443 370.942 56.8848 370.821 57.1232C370.762 57.2395 370.66 57.3292 370.537 57.3742C370.414 57.4187 370.278 57.4141 370.157 57.3616C370.098 57.3616 370.098 57.3025 370.039 57.3025C369.614 57.0029 369.19 56.7624 368.712 56.4586C366.987 55.2428 365.042 54.3683 362.984 53.8828C361.664 53.5764 360.304 53.476 358.953 53.5853C356.197 53.7853 353.55 54.734 351.3 56.3278C350.451 56.927 349.552 57.4059 348.646 58.0029C348.586 58.0029 348.586 58.0641 348.527 58.0641C348.481 58.0574 348.438 58.0359 348.406 58.0029L343.344 54.5916C343.231 54.5279 343.13 54.4475 343.042 54.3532C342.975 54.3087 342.926 54.2418 342.903 54.1644C342.881 54.0871 342.888 54.0044 342.921 53.9313C342.921 53.8701 342.983 53.8701 343.042 53.811L343.161 53.6908C344.608 52.7351 345.994 51.6529 347.438 50.6318C348.676 49.7289 349.961 48.893 351.289 48.1276C352.837 47.2755 354.502 46.6522 356.231 46.2775C356.92 46.0712 357.633 45.95 358.352 45.9167L358.359 45.9231ZM355.696 46.4083V35.8917C355.707 35.4959 355.874 35.1204 356.163 34.8472C356.451 34.574 356.836 34.4254 357.234 34.4339H360.296C360.694 34.4254 361.079 34.574 361.367 34.8472C361.656 35.1204 361.823 35.4959 361.834 35.8917V46.229C359.785 45.9937 357.712 46.0555 355.681 46.4125L355.696 46.4083ZM379.883 72.146C379.999 72.3895 380.061 72.6549 380.066 72.9244V79.3293C380.011 82.1529 379.039 84.8831 377.295 87.1118C376.539 88.0535 375.669 88.8982 374.704 89.6265C372.158 91.6011 369.517 93.4576 366.854 95.3225L361.55 98.9743C361.094 99.2885 360.582 99.5121 360.041 99.6325C359.318 99.8138 358.556 99.7507 357.873 99.4532C357.381 99.2747 356.916 99.0328 356.487 98.7338C350.581 94.7255 344.674 90.6539 338.888 86.4029C337.08 85.0865 335.281 83.7701 333.463 82.3946C332.569 81.7479 331.967 80.7782 331.785 79.6943C331.732 79.4162 331.712 79.133 331.725 78.8504V73.0489C331.733 72.8285 331.713 72.6079 331.664 72.3928C331.604 72.2114 331.725 72.032 331.846 72.032C331.846 72.1523 331.906 72.2114 331.906 72.3316C331.974 72.9918 332.274 73.6068 332.754 74.0678C333.047 74.3804 333.37 74.6631 333.72 74.9117C339.987 79.5803 346.437 84.1287 352.878 88.559C354.077 89.4028 355.289 90.175 356.434 90.9534C356.922 91.3283 357.473 91.614 358.062 91.7973C358.503 91.947 358.97 92.0082 359.435 91.9774C359.901 91.9467 360.356 91.8245 360.773 91.618C361.069 91.4823 361.352 91.3229 361.622 91.1412C365.961 88.0822 370.302 85.0232 374.64 81.9199C377.038 80.1978 378.797 77.7363 379.643 74.918C379.771 74.4446 379.872 73.9642 379.945 73.4792C379.822 73.0464 379.796 72.592 379.868 72.1481L379.883 72.146ZM360.703 112.307H357.096C356.668 112.303 356.258 112.13 355.957 111.827C355.656 111.524 355.487 111.115 355.488 110.689L355.717 98.179C356.031 97.7417 356.456 97.3946 356.948 97.1727L361.966 96.2064C362.013 96.2064 362.059 96.2157 362.103 96.2338C362.146 96.2519 362.185 96.2785 362.218 96.3119C362.251 96.3453 362.278 96.3848 362.295 96.4282C362.313 96.4717 362.322 96.5182 362.322 96.5651V110.7C362.321 111.125 362.152 111.532 361.851 111.834C361.55 112.137 361.141 112.309 360.714 112.314L360.703 112.307Z" fill="#131621"/>
<path d="M381.034 57.0225C381.147 57.2668 381.205 57.5323 381.206 57.801V64.0877C381.201 66.055 380.736 67.9942 379.847 69.7518C378.958 71.5093 377.67 73.0371 376.084 74.214C373.553 76.1908 370.96 78.0451 368.308 79.9101L362.597 83.8572C361.847 84.3975 360.928 84.6527 360.006 84.5766C359.529 84.5213 359.062 84.3999 358.618 84.2159C358.224 84.0195 357.842 83.8004 357.473 83.5598C352.289 80.0261 347.106 76.4946 342.044 72.7837C339.752 71.1677 337.525 69.4905 335.233 67.8155C334.932 67.6362 334.692 67.3936 334.385 67.2163C333.538 66.5644 332.959 65.6274 332.757 64.5814C332.704 64.3034 332.683 64.0202 332.696 63.7375V58.052C332.705 57.8108 332.685 57.5693 332.636 57.3327C332.619 57.2976 332.609 57.259 332.609 57.2198C332.609 57.1806 332.619 57.1419 332.636 57.1069C332.654 57.0726 332.679 57.043 332.711 57.0204C332.742 56.9978 332.778 56.982 332.817 56.974H332.876C332.89 57.0751 332.911 57.1752 332.938 57.2736C332.986 57.8607 333.242 58.4117 333.661 58.8284C333.962 59.2093 334.329 59.5337 334.745 59.7862C340.771 64.2755 346.919 68.6467 353.128 72.9567C354.575 73.9756 356.079 74.9313 357.528 75.9482C358.112 76.3555 358.762 76.6589 359.45 76.8448C360.259 77.0369 361.109 76.9522 361.862 76.6043C362.144 76.4813 362.408 76.3201 362.645 76.1254C366.624 73.3132 370.54 70.558 374.527 67.7438C375.31 67.2058 376.033 66.6678 376.75 66.0687C378.639 64.3834 380.017 62.2077 380.731 59.7862C380.841 59.374 380.922 58.9545 380.972 58.5309C381.024 58.2947 381.044 58.053 381.034 57.8115V57.0225ZM359.577 48.3371H361.022C363.366 48.5139 365.637 49.2319 367.653 50.4341C369.014 51.2566 370.285 52.2205 371.442 53.3096C372.215 53.971 372.728 54.8837 372.889 55.8854C373.05 56.8638 372.902 57.8678 372.465 58.7588C372.344 59.0583 372.161 59.2988 372.04 59.5372C371.981 59.6536 371.879 59.7433 371.756 59.7883C371.632 59.8327 371.496 59.8282 371.376 59.7756C371.317 59.7756 371.317 59.7166 371.257 59.7166C370.833 59.417 370.409 59.1765 369.931 58.8727C368.205 57.6568 366.261 56.7823 364.203 56.2968C362.883 55.9904 361.523 55.8901 360.172 55.9994C357.416 56.1994 354.769 57.1481 352.519 58.7419C351.67 59.341 350.77 59.8199 349.864 60.417C349.805 60.417 349.805 60.4781 349.746 60.4781C349.7 60.4715 349.657 60.45 349.625 60.417L344.562 57.0057C344.45 56.942 344.349 56.8616 344.261 56.7673C344.194 56.7228 344.144 56.6559 344.122 56.5785C344.1 56.5011 344.106 56.4185 344.14 56.3453C344.14 56.2842 344.202 56.2842 344.261 56.2251L344.38 56.1048C345.827 55.1492 347.212 54.0669 348.657 53.0459C349.895 52.1429 351.18 51.307 352.508 50.5417C354.056 49.6896 355.721 49.0663 357.449 48.6915C358.139 48.4853 358.852 48.3641 359.571 48.3308L359.577 48.3371ZM356.915 48.8223V38.3058C356.925 37.91 357.093 37.5344 357.381 37.2612C357.67 36.9881 358.055 36.8395 358.453 36.848H361.515C361.913 36.8395 362.298 36.9881 362.586 37.2612C362.874 37.5344 363.042 37.91 363.053 38.3058V48.643C361.004 48.4077 358.931 48.4696 356.9 48.8266L356.915 48.8223ZM381.102 74.56C381.218 74.8036 381.28 75.069 381.284 75.3385V81.7434C381.23 84.5669 380.258 87.2971 378.513 89.5258C377.758 90.4676 376.888 91.3123 375.923 92.0405C373.377 94.0152 370.735 95.8716 368.073 97.7366L362.768 101.388C362.313 101.703 361.801 101.926 361.26 102.047C360.537 102.228 359.774 102.165 359.092 101.867C358.6 101.689 358.134 101.447 357.706 101.148C351.799 97.1395 345.893 93.0679 340.107 88.817C338.299 87.5006 336.5 86.1842 334.682 84.8087C333.788 84.162 333.185 83.1923 333.003 82.1083C332.951 81.8303 332.931 81.5471 332.944 81.2645V75.4629C332.952 75.2425 332.931 75.022 332.882 74.8068C332.823 74.6254 332.944 74.4461 333.065 74.4461C333.065 74.5663 333.124 74.6254 333.124 74.7457C333.192 75.4059 333.493 76.0209 333.973 76.4819C334.266 76.7945 334.589 77.0771 334.938 77.3258C341.206 81.9944 347.656 86.5428 354.097 90.973C355.296 91.8169 356.507 92.589 357.653 93.3675C358.141 93.7423 358.692 94.0281 359.28 94.2114C359.722 94.361 360.189 94.4223 360.654 94.3915C361.12 94.3607 361.574 94.2385 361.992 94.032C362.287 93.8964 362.571 93.7369 362.841 93.5553C367.179 90.4963 371.52 87.4373 375.859 84.334C378.257 82.6119 380.016 80.1504 380.862 77.3321C380.99 76.8586 381.091 76.3782 381.163 75.8933C381.041 75.4604 381.015 75.0061 381.087 74.5621L381.102 74.56ZM361.922 114.721H358.315C357.887 114.717 357.477 114.544 357.176 114.241C356.875 113.938 356.706 113.529 356.707 113.103L356.936 100.593C357.25 100.156 357.674 99.8086 358.167 99.5867L363.184 98.6205C363.231 98.6204 363.278 98.6297 363.321 98.6479C363.365 98.666 363.404 98.6925 363.437 98.726C363.47 98.7593 363.496 98.7988 363.514 98.8423C363.532 98.8857 363.541 98.9322 363.541 98.9792V113.114C363.54 113.539 363.37 113.947 363.069 114.249C362.768 114.551 362.36 114.723 361.933 114.728L361.922 114.721Z" fill="#D7E6F4"/>
</g>
</g>
<path d="M517.893 144.567C503.596 144.567 489.621 140.327 477.734 132.385C465.847 124.442 456.583 113.153 451.112 99.945C445.641 86.7368 444.209 72.2028 446.998 58.1818C449.787 44.1598 456.672 31.2808 466.781 21.1714C476.89 11.0624 489.769 4.17805 503.791 1.38895C517.812 -1.40015 532.346 0.0313487 545.554 5.50225C558.762 10.9733 570.051 20.238 577.994 32.1248C585.936 44.0118 590.176 57.9868 590.176 72.2828C590.176 91.4538 582.56 109.84 569.005 123.395C555.449 136.951 537.063 144.567 517.893 144.567Z" fill="#141E27"/>
<path d="M438.697 144.568C452.993 144.568 466.969 140.329 478.856 132.386C490.742 124.444 500.007 113.155 505.478 99.946C510.949 86.7382 512.381 72.2052 509.591 58.1832C506.802 44.1622 499.918 31.2822 489.809 21.1732C479.7 11.0642 466.821 4.1799 452.799 1.3909C438.777 -1.3982 424.244 0.0333014 411.036 5.5042C397.828 10.9751 386.539 20.2399 378.596 32.1272C370.653 44.0132 366.414 57.9892 366.414 72.2852C366.414 91.4562 374.03 109.841 387.585 123.397C401.141 136.953 419.527 144.568 438.697 144.568Z" fill="#323232"/>
<g opacity="0.5">
<mask id="mask2_8233_621" style="mask-type:luminance" maskUnits="userSpaceOnUse" x="367" y="1" width="144" height="145">
<path d="M511 1.04297H367V145.043H511V1.04297Z" fill="white"/>
</mask>
<g mask="url(#mask2_8233_621)">
<path d="M489.911 124.035C518.029 96.0237 518.029 50.609 489.911 22.598C461.793 -5.41289 416.206 -5.41289 388.089 22.598C359.971 50.609 359.971 96.0237 388.089 124.035C416.206 152.046 461.793 152.046 489.911 124.035Z" fill="#7E7E7E"/>
<path d="M488.614 122.738C516.013 95.4437 516.013 51.1899 488.614 23.895C461.214 -3.39991 416.792 -3.39991 389.393 23.895C361.994 51.1899 361.994 95.4437 389.393 122.738C416.792 150.033 461.214 150.033 488.614 122.738Z" fill="#7E7E7E"/>
<path d="M488.746 24.0371L389.531 122.874C396.238 129.516 404.222 134.741 413.006 138.233L504.165 47.4227C500.658 38.6727 495.414 30.7185 488.746 24.0371Z" fill="#7E7E7E"/>
<path d="M479.503 16.2637L381.727 113.666C382.867 115.268 384.069 116.82 385.334 118.323L484.175 19.8573C482.671 18.594 481.114 17.3961 479.503 16.2637Z" fill="#7E7E7E"/>
<g style="mix-blend-mode:soft-light">
<path d="M440.376 125.256C468.453 125.256 491.213 102.582 491.213 74.6126C491.213 46.6428 468.453 23.9688 440.376 23.9688C412.3 23.9688 389.539 46.6428 389.539 74.6126C389.539 102.582 412.3 125.256 440.376 125.256Z" fill="#8C3F56"/>
</g>
<path d="M474.948 109.126C494.801 89.3488 494.801 57.2827 474.948 37.5051C455.095 17.7274 422.907 17.7274 403.054 37.5051C383.201 57.2827 383.201 89.3488 403.054 109.126C422.907 128.904 455.095 128.904 474.948 109.126Z" fill="#D20398"/>
<g style="mix-blend-mode:multiply">
<path d="M390.925 76.0663C390.923 66.2152 393.806 56.5776 399.22 48.3342C404.634 40.0908 412.344 33.5997 421.406 29.6562C430.467 25.7128 440.487 24.4882 450.237 26.1326C459.987 27.7771 469.043 32.219 476.297 38.9142C471.651 33.913 466.039 29.8974 459.798 27.1081C453.557 24.3188 446.815 22.8132 439.976 22.6813C433.137 22.5495 426.341 23.7943 419.996 26.341C413.652 28.8878 407.888 32.6842 403.051 37.5027C398.215 42.3212 394.404 48.0626 391.847 54.3832C389.291 60.7038 388.041 67.4734 388.174 74.2865C388.306 81.0996 389.817 87.816 392.617 94.0334C395.417 100.251 399.448 105.841 404.468 110.47C395.749 101.121 390.91 88.8276 390.925 76.0663Z" fill="#A84569"/>
</g>
<path d="M490.397 74.2302C490.442 88.1593 485.088 101.538 475.508 111.434C465.929 121.329 452.907 126.934 439.295 127.02C425.684 127.106 412.595 121.665 402.898 111.89C393.201 102.116 387.686 88.8055 387.562 74.8769V74.2302C387.562 60.2748 392.981 46.891 402.623 37.023C412.266 27.1551 425.345 21.6113 438.982 21.6113H439.616C453.144 21.7771 466.062 27.3938 475.569 37.2433C485.077 47.0927 490.401 60.3856 490.397 74.2302Z" fill="#5E5C5C"/>
<path d="M475.37 39.2564L402.626 111.988C393.112 102.508 387.703 89.6711 387.562 76.2425V75.6105C387.562 61.9715 392.983 48.8911 402.629 39.2465C412.275 29.6018 425.359 24.1829 439.001 24.1816H439.636C453.061 24.34 465.89 29.7518 475.37 39.2564Z" fill="#6F6A6A"/>
<path d="M490.404 73.0295C490.404 79.7821 489.145 86.4685 486.7 92.7072C484.254 98.9458 480.669 104.614 476.149 109.389C471.63 114.164 466.264 117.952 460.359 120.536C454.454 123.12 448.125 124.45 441.733 124.45C440.81 124.45 439.894 124.423 438.984 124.37C451.399 123.63 463.074 117.898 471.615 108.352C480.156 98.8049 484.915 86.1669 484.915 73.0307C484.915 59.8946 480.156 47.2565 471.615 37.7099C463.074 28.1632 451.399 22.4318 438.984 21.6918C439.894 21.6382 440.81 21.6113 441.733 21.6113C454.641 21.6113 467.021 27.0286 476.148 36.6714C485.276 46.3142 490.404 59.3926 490.404 73.0295Z" fill="#151520"/>
</g>
<path d="M459.815 53.6085C459.928 53.8527 459.987 54.1182 459.987 54.3869V60.6737C459.982 62.641 459.517 64.5801 458.628 66.3377C457.739 68.0953 456.451 69.623 454.865 70.8C452.334 72.7767 449.742 74.6311 447.089 76.496L441.378 80.4432C440.629 80.9834 439.71 81.2386 438.787 81.1625C438.31 81.1072 437.843 80.9858 437.4 80.8018C437.005 80.6054 436.623 80.3863 436.254 80.1457C431.071 76.612 425.887 73.0805 420.825 69.3696C418.534 67.7536 416.306 66.0765 414.015 64.4014C413.713 64.2221 413.473 63.9795 413.166 63.8023C412.319 63.1503 411.74 62.2134 411.539 61.1673C411.485 60.8894 411.464 60.6062 411.477 60.3235V54.638C411.486 54.3967 411.466 54.1552 411.418 53.9186C411.4 53.8836 411.391 53.8449 411.391 53.8057C411.391 53.7665 411.4 53.7279 411.418 53.6929C411.435 53.6586 411.461 53.6289 411.492 53.6064C411.524 53.5837 411.56 53.5679 411.598 53.5599H411.657C411.671 53.661 411.692 53.7611 411.719 53.8595C411.767 54.4466 412.024 54.9976 412.442 55.4143C412.743 55.7953 413.111 56.1196 413.527 56.3721C419.552 60.8614 425.701 65.2326 431.909 69.5426C433.356 70.5616 434.86 71.5173 436.309 72.5341C436.893 72.9415 437.543 73.2448 438.231 73.4307C439.04 73.6228 439.89 73.5381 440.644 73.1902C440.926 73.0672 441.189 72.9061 441.427 72.7113C445.405 69.8992 449.321 67.144 453.308 64.3297C454.091 63.7917 454.814 63.2538 455.532 62.6546C457.42 60.9694 458.799 58.7937 459.512 56.3721C459.622 55.9599 459.703 55.5404 459.754 55.1169C459.805 54.8807 459.826 54.6389 459.815 54.3975V53.6085ZM438.359 44.9231H439.804C442.148 45.0998 444.418 45.8178 446.434 47.0201C447.796 47.8426 449.066 48.8065 450.223 49.8955C450.997 50.5569 451.509 51.4696 451.67 52.4714C451.831 53.4497 451.683 54.4537 451.246 55.3447C451.125 55.6443 450.942 55.8848 450.821 56.1232C450.762 56.2395 450.66 56.3292 450.537 56.3742C450.414 56.4187 450.278 56.4141 450.157 56.3616C450.098 56.3616 450.098 56.3025 450.039 56.3025C449.614 56.0029 449.19 55.7624 448.712 55.4586C446.987 54.2428 445.042 53.3683 442.984 52.8828C441.664 52.5764 440.304 52.476 438.953 52.5853C436.197 52.7853 433.55 53.734 431.3 55.3278C430.451 55.927 429.552 56.4059 428.646 57.0029C428.586 57.0029 428.586 57.0641 428.527 57.0641C428.481 57.0574 428.438 57.0359 428.406 57.0029L423.344 53.5916C423.231 53.5279 423.13 53.4475 423.042 53.3532C422.975 53.3087 422.926 53.2418 422.903 53.1644C422.881 53.0871 422.888 53.0044 422.921 52.9313C422.921 52.8701 422.983 52.8701 423.042 52.811L423.161 52.6908C424.608 51.7351 425.994 50.6529 427.438 49.6318C428.676 48.7289 429.961 47.893 431.289 47.1276C432.837 46.2755 434.502 45.6522 436.231 45.2775C436.92 45.0712 437.633 44.95 438.352 44.9167L438.359 44.9231ZM435.696 45.4083V34.8917C435.707 34.4959 435.874 34.1204 436.163 33.8472C436.451 33.574 436.836 33.4254 437.234 33.4339H440.296C440.694 33.4254 441.079 33.574 441.367 33.8472C441.656 34.1204 441.823 34.4959 441.834 34.8917V45.229C439.785 44.9937 437.712 45.0555 435.681 45.4125L435.696 45.4083ZM459.883 71.146C459.999 71.3895 460.061 71.6549 460.066 71.9244V78.3293C460.011 81.1529 459.039 83.8831 457.295 86.1118C456.539 87.0535 455.669 87.8982 454.704 88.6265C452.158 90.6011 449.517 92.4576 446.854 94.3225L441.55 97.9743C441.094 98.2885 440.582 98.5121 440.041 98.6325C439.318 98.8138 438.556 98.7507 437.873 98.4532C437.381 98.2747 436.916 98.0328 436.487 97.7338C430.581 93.7255 424.674 89.6539 418.888 85.4029C417.08 84.0865 415.281 82.7701 413.463 81.3946C412.569 80.7479 411.967 79.7782 411.785 78.6943C411.732 78.4162 411.712 78.133 411.725 77.8504V72.0489C411.733 71.8285 411.713 71.6079 411.664 71.3928C411.604 71.2114 411.725 71.032 411.846 71.032C411.846 71.1523 411.906 71.2114 411.906 71.3316C411.974 71.9918 412.274 72.6068 412.754 73.0678C413.047 73.3804 413.37 73.6631 413.72 73.9117C419.987 78.5803 426.437 83.1287 432.878 87.559C434.077 88.4028 435.289 89.175 436.434 89.9534C436.922 90.3283 437.473 90.614 438.062 90.7973C438.503 90.947 438.97 91.0082 439.435 90.9774C439.901 90.9467 440.356 90.8245 440.773 90.618C441.069 90.4823 441.352 90.3229 441.622 90.1412C445.961 87.0822 450.302 84.0232 454.64 80.9199C457.038 79.1978 458.797 76.7363 459.643 73.918C459.771 73.4446 459.872 72.9642 459.945 72.4792C459.822 72.0464 459.796 71.592 459.868 71.1481L459.883 71.146ZM440.703 111.307H437.096C436.668 111.303 436.258 111.13 435.957 110.827C435.656 110.524 435.487 110.115 435.488 109.689L435.717 97.179C436.031 96.7417 436.456 96.3946 436.948 96.1727L441.966 95.2064C442.013 95.2064 442.059 95.2157 442.103 95.2338C442.146 95.2519 442.185 95.2785 442.218 95.3119C442.251 95.3453 442.278 95.3848 442.295 95.4282C442.313 95.4717 442.322 95.5182 442.322 95.5651V109.7C442.321 110.125 442.152 110.532 441.851 110.834C441.55 111.137 441.141 111.309 440.714 111.314L440.703 111.307Z" fill="#131621"/>
<path d="M461.034 56.0225C461.147 56.2668 461.205 56.5323 461.206 56.801V63.0877C461.201 65.055 460.736 66.9942 459.847 68.7518C458.958 70.5093 457.67 72.0371 456.084 73.214C453.553 75.1908 450.96 77.0451 448.308 78.9101L442.597 82.8572C441.847 83.3975 440.928 83.6527 440.006 83.5766C439.529 83.5213 439.062 83.3999 438.618 83.2159C438.224 83.0195 437.842 82.8004 437.473 82.5598C432.289 79.0261 427.106 75.4946 422.044 71.7837C419.752 70.1677 417.525 68.4905 415.233 66.8155C414.932 66.6362 414.692 66.3936 414.385 66.2163C413.538 65.5644 412.959 64.6274 412.757 63.5814C412.704 63.3034 412.683 63.0202 412.696 62.7375V57.052C412.705 56.8108 412.685 56.5693 412.636 56.3327C412.619 56.2976 412.609 56.259 412.609 56.2198C412.609 56.1806 412.619 56.1419 412.636 56.1069C412.654 56.0726 412.679 56.043 412.711 56.0204C412.742 55.9978 412.778 55.982 412.817 55.974H412.876C412.89 56.0751 412.911 56.1752 412.938 56.2736C412.986 56.8607 413.242 57.4117 413.661 57.8284C413.962 58.2093 414.329 58.5337 414.745 58.7862C420.771 63.2755 426.919 67.6467 433.128 71.9567C434.575 72.9756 436.079 73.9313 437.528 74.9482C438.112 75.3555 438.762 75.6589 439.45 75.8448C440.259 76.0369 441.109 75.9522 441.862 75.6043C442.144 75.4813 442.408 75.3201 442.645 75.1254C446.624 72.3132 450.54 69.558 454.527 66.7438C455.31 66.2058 456.033 65.6678 456.75 65.0687C458.639 63.3834 460.017 61.2077 460.731 58.7862C460.841 58.374 460.922 57.9545 460.972 57.5309C461.024 57.2947 461.044 57.053 461.034 56.8115V56.0225ZM439.577 47.3371H441.022C443.366 47.5139 445.637 48.2319 447.653 49.4341C449.014 50.2566 450.285 51.2205 451.442 52.3096C452.215 52.971 452.728 53.8837 452.889 54.8854C453.05 55.8638 452.902 56.8678 452.465 57.7588C452.344 58.0583 452.161 58.2988 452.04 58.5372C451.981 58.6536 451.879 58.7433 451.756 58.7883C451.632 58.8327 451.496 58.8282 451.376 58.7756C451.317 58.7756 451.317 58.7166 451.257 58.7166C450.833 58.417 450.409 58.1765 449.931 57.8727C448.205 56.6568 446.261 55.7823 444.203 55.2968C442.883 54.9904 441.523 54.8901 440.172 54.9994C437.416 55.1994 434.769 56.1481 432.519 57.7419C431.67 58.341 430.77 58.8199 429.864 59.417C429.805 59.417 429.805 59.4781 429.746 59.4781C429.7 59.4715 429.657 59.45 429.625 59.417L424.562 56.0057C424.45 55.942 424.349 55.8616 424.261 55.7673C424.194 55.7228 424.144 55.6559 424.122 55.5785C424.1 55.5011 424.106 55.4185 424.14 55.3453C424.14 55.2842 424.202 55.2842 424.261 55.2251L424.38 55.1048C425.827 54.1492 427.212 53.0669 428.657 52.0459C429.895 51.1429 431.18 50.307 432.508 49.5417C434.056 48.6896 435.721 48.0663 437.449 47.6915C438.139 47.4853 438.852 47.3641 439.571 47.3308L439.577 47.3371ZM436.915 47.8223V37.3058C436.925 36.91 437.093 36.5344 437.381 36.2612C437.67 35.9881 438.055 35.8395 438.453 35.848H441.515C441.913 35.8395 442.298 35.9881 442.586 36.2612C442.874 36.5344 443.042 36.91 443.053 37.3058V47.643C441.004 47.4077 438.931 47.4696 436.9 47.8266L436.915 47.8223ZM461.102 73.56C461.218 73.8036 461.28 74.069 461.284 74.3385V80.7434C461.23 83.5669 460.258 86.2971 458.513 88.5258C457.758 89.4676 456.888 90.3123 455.923 91.0405C453.377 93.0152 450.735 94.8716 448.073 96.7366L442.768 100.388C442.313 100.703 441.801 100.926 441.26 101.047C440.537 101.228 439.774 101.165 439.092 100.867C438.6 100.689 438.134 100.447 437.706 100.148C431.799 96.1395 425.893 92.0679 420.107 87.817C418.299 86.5006 416.5 85.1842 414.682 83.8087C413.788 83.162 413.185 82.1923 413.003 81.1083C412.951 80.8303 412.931 80.5471 412.944 80.2645V74.4629C412.952 74.2425 412.931 74.022 412.882 73.8068C412.823 73.6254 412.944 73.4461 413.065 73.4461C413.065 73.5663 413.124 73.6254 413.124 73.7457C413.192 74.4059 413.493 75.0209 413.973 75.4819C414.266 75.7945 414.589 76.0771 414.938 76.3258C421.206 80.9944 427.656 85.5428 434.097 89.973C435.296 90.8169 436.507 91.589 437.653 92.3675C438.141 92.7423 438.692 93.0281 439.28 93.2114C439.722 93.361 440.189 93.4223 440.654 93.3915C441.12 93.3607 441.574 93.2385 441.992 93.032C442.287 92.8964 442.571 92.7369 442.841 92.5553C447.179 89.4963 451.52 86.4373 455.859 83.334C458.257 81.6119 460.016 79.1504 460.862 76.3321C460.99 75.8586 461.091 75.3782 461.163 74.8933C461.041 74.4604 461.015 74.0061 461.087 73.5621L461.102 73.56ZM441.922 113.721H438.315C437.887 113.717 437.477 113.544 437.176 113.241C436.875 112.938 436.706 112.529 436.707 112.103L436.936 99.593C437.25 99.1558 437.674 98.8086 438.167 98.5867L443.184 97.6205C443.231 97.6204 443.278 97.6297 443.321 97.6479C443.365 97.666 443.404 97.6925 443.437 97.726C443.47 97.7593 443.496 97.7988 443.514 97.8423C443.532 97.8857 443.541 97.9322 443.541 97.9792V112.114C443.54 112.539 443.37 112.947 443.069 113.249C442.768 113.551 442.36 113.723 441.933 113.728L441.922 113.721Z" fill="#D7E6F4"/>
</g>
<mask id="mask3_8233_621" style="mask-type:luminance" maskUnits="userSpaceOnUse" x="446" y="0" width="144" height="145">
<path d="M590 0.0429688H446V144.043H590V0.0429688Z" fill="white"/>
</mask>
<g mask="url(#mask3_8233_621)">
<path d="M568.912 123.035C597.03 95.0237 597.03 49.609 568.912 21.598C540.794 -6.41289 495.206 -6.41289 467.089 21.598C438.971 49.609 438.971 95.0237 467.089 123.035C495.206 151.046 540.794 151.046 568.912 123.035Z" fill="#7E7E7E"/>
<path d="M567.614 121.738C595.013 94.4437 595.013 50.1899 567.614 22.895C540.214 -4.39991 495.792 -4.39991 468.393 22.895C440.994 50.1899 440.994 94.4437 468.393 121.738C495.792 149.033 540.214 149.033 567.614 121.738Z" fill="#7E7E7E"/>
<path d="M567.746 23.0371L468.531 121.874C475.238 128.516 483.222 133.741 492.006 137.233L583.165 46.4227C579.658 37.6727 574.414 29.7185 567.746 23.0371Z" fill="#7E7E7E"/>
<path d="M558.503 15.2637L460.727 112.666C461.867 114.268 463.069 115.82 464.334 117.323L563.175 18.8573C561.671 17.594 560.114 16.3961 558.503 15.2637Z" fill="#7E7E7E"/>
<g style="mix-blend-mode:soft-light">
<path d="M519.376 124.256C547.453 124.256 570.213 101.582 570.213 73.6126C570.213 45.6428 547.453 22.9688 519.376 22.9688C491.3 22.9688 468.539 45.6428 468.539 73.6126C468.539 101.582 491.3 124.256 519.376 124.256Z" fill="#8C3F56"/>
</g>
<path d="M553.948 108.126C573.801 88.3488 573.801 56.2827 553.948 36.5051C534.095 16.7274 501.907 16.7274 482.054 36.5051C462.201 56.2827 462.201 88.3488 482.054 108.126C501.907 127.904 534.095 127.904 553.948 108.126Z" fill="#D20398"/>
<g style="mix-blend-mode:multiply">
<path d="M469.925 75.0663C469.923 65.2152 472.806 55.5776 478.22 47.3342C483.634 39.0908 491.344 32.5997 500.406 28.6562C509.467 24.7128 519.487 23.4882 529.237 25.1326C538.987 26.7771 548.043 31.219 555.297 37.9142C550.651 32.913 545.039 28.8974 538.798 26.1081C532.557 23.3188 525.815 21.8132 518.976 21.6813C512.137 21.5495 505.341 22.7943 498.996 25.341C492.652 27.8878 486.888 31.6842 482.051 36.5027C477.215 41.3212 473.404 47.0626 470.847 53.3832C468.291 59.7038 467.041 66.4734 467.174 73.2865C467.306 80.0996 468.817 86.816 471.617 93.0334C474.417 99.2508 478.448 104.841 483.468 109.47C474.749 100.121 469.91 87.8276 469.925 75.0663Z" fill="#A84569"/>
</g>
<path d="M569.397 73.2302C569.442 87.1593 564.088 100.538 554.508 110.434C544.929 120.329 531.907 125.934 518.295 126.02C504.684 126.106 491.595 120.665 481.898 110.89C472.201 101.116 466.686 87.8055 466.562 73.8769V73.2302C466.562 59.2748 471.981 45.891 481.623 36.023C491.266 26.1551 504.345 20.6113 517.982 20.6113H518.616C532.144 20.7771 545.062 26.3938 554.569 36.2433C564.077 46.0927 569.401 59.3856 569.397 73.2302Z" fill="#5E5C5C"/>
<path d="M554.37 38.2564L481.626 110.988C472.112 101.508 466.703 88.6711 466.562 75.2425V74.6105C466.562 60.9715 471.983 47.8911 481.629 38.2465C491.275 28.6018 504.359 23.1829 518.001 23.1816H518.636C532.061 23.34 544.89 28.7518 554.37 38.2564Z" fill="#6F6A6A"/>
<path d="M569.404 72.0295C569.404 78.7821 568.145 85.4685 565.7 91.7072C563.254 97.9458 559.669 103.614 555.149 108.389C550.63 113.164 545.264 116.952 539.359 119.536C533.454 122.12 527.125 123.45 520.733 123.45C519.81 123.45 518.894 123.423 517.984 123.37C530.399 122.63 542.074 116.898 550.615 107.352C559.156 97.8049 563.915 85.1669 563.915 72.0307C563.915 58.8946 559.156 46.2565 550.615 36.7099C542.074 27.1632 530.399 21.4318 517.984 20.6918C518.894 20.6382 519.81 20.6113 520.733 20.6113C533.641 20.6113 546.021 26.0286 555.148 35.6714C564.276 45.3142 569.404 58.3926 569.404 72.0295Z" fill="#151520"/>
</g>
<path d="M538.815 52.6085C538.928 52.8527 538.987 53.1182 538.987 53.3869V59.6737C538.982 61.641 538.517 63.5801 537.628 65.3377C536.739 67.0953 535.451 68.623 533.865 69.8C531.334 71.7767 528.742 73.6311 526.089 75.496L520.378 79.4432C519.629 79.9834 518.71 80.2386 517.787 80.1625C517.31 80.1072 516.843 79.9858 516.4 79.8018C516.005 79.6054 515.623 79.3863 515.254 79.1457C510.071 75.612 504.887 72.0805 499.825 68.3696C497.534 66.7536 495.306 65.0765 493.015 63.4014C492.713 63.2221 492.473 62.9795 492.166 62.8023C491.319 62.1503 490.74 61.2134 490.539 60.1673C490.485 59.8894 490.464 59.6062 490.477 59.3235V53.638C490.486 53.3967 490.466 53.1552 490.418 52.9186C490.4 52.8836 490.391 52.8449 490.391 52.8057C490.391 52.7665 490.4 52.7279 490.418 52.6929C490.435 52.6586 490.461 52.6289 490.492 52.6064C490.524 52.5837 490.56 52.5679 490.598 52.5599H490.657C490.671 52.661 490.692 52.7611 490.719 52.8595C490.767 53.4466 491.024 53.9976 491.442 54.4143C491.743 54.7953 492.111 55.1196 492.527 55.3721C498.552 59.8614 504.701 64.2326 510.909 68.5426C512.356 69.5616 513.86 70.5173 515.309 71.5341C515.893 71.9415 516.543 72.2448 517.231 72.4307C518.04 72.6228 518.89 72.5381 519.644 72.1902C519.926 72.0672 520.189 71.9061 520.427 71.7113C524.405 68.8992 528.321 66.144 532.308 63.3297C533.091 62.7917 533.814 62.2538 534.532 61.6546C536.42 59.9694 537.799 57.7937 538.512 55.3721C538.622 54.9599 538.703 54.5404 538.754 54.1169C538.805 53.8807 538.826 53.6389 538.815 53.3975V52.6085ZM517.359 43.9231H518.804C521.148 44.0998 523.418 44.8178 525.434 46.0201C526.796 46.8426 528.066 47.8065 529.223 48.8955C529.997 49.5569 530.509 50.4696 530.67 51.4714C530.831 52.4497 530.683 53.4537 530.246 54.3447C530.125 54.6443 529.942 54.8848 529.821 55.1232C529.762 55.2395 529.66 55.3292 529.537 55.3742C529.414 55.4187 529.278 55.4141 529.157 55.3616C529.098 55.3616 529.098 55.3025 529.039 55.3025C528.614 55.0029 528.19 54.7624 527.712 54.4586C525.987 53.2428 524.042 52.3683 521.984 51.8828C520.664 51.5764 519.304 51.476 517.953 51.5853C515.197 51.7853 512.55 52.734 510.3 54.3278C509.451 54.927 508.552 55.4059 507.646 56.0029C507.586 56.0029 507.586 56.0641 507.527 56.0641C507.481 56.0574 507.438 56.0359 507.406 56.0029L502.344 52.5916C502.231 52.5279 502.13 52.4475 502.042 52.3532C501.975 52.3087 501.926 52.2418 501.903 52.1644C501.881 52.0871 501.888 52.0044 501.921 51.9313C501.921 51.8701 501.983 51.8701 502.042 51.811L502.161 51.6908C503.608 50.7351 504.994 49.6529 506.438 48.6318C507.676 47.7289 508.961 46.893 510.289 46.1276C511.837 45.2755 513.502 44.6522 515.231 44.2775C515.92 44.0712 516.633 43.95 517.352 43.9167L517.359 43.9231ZM514.696 44.4083V33.8917C514.707 33.4959 514.874 33.1204 515.163 32.8472C515.451 32.574 515.836 32.4254 516.234 32.4339H519.296C519.694 32.4254 520.079 32.574 520.367 32.8472C520.656 33.1204 520.823 33.4959 520.834 33.8917V44.229C518.785 43.9937 516.712 44.0555 514.681 44.4125L514.696 44.4083ZM538.883 70.146C538.999 70.3895 539.061 70.6549 539.066 70.9244V77.3293C539.011 80.1529 538.039 82.8831 536.295 85.1118C535.539 86.0535 534.669 86.8982 533.704 87.6265C531.158 89.6011 528.517 91.4576 525.854 93.3225L520.55 96.9743C520.094 97.2885 519.582 97.5121 519.041 97.6325C518.318 97.8138 517.556 97.7507 516.873 97.4532C516.381 97.2747 515.916 97.0328 515.487 96.7338C509.581 92.7255 503.674 88.6539 497.888 84.4029C496.08 83.0865 494.281 81.7701 492.463 80.3946C491.569 79.7479 490.967 78.7782 490.785 77.6943C490.732 77.4162 490.712 77.133 490.725 76.8504V71.0489C490.733 70.8285 490.713 70.6079 490.664 70.3928C490.604 70.2114 490.725 70.032 490.846 70.032C490.846 70.1523 490.906 70.2114 490.906 70.3316C490.974 70.9918 491.274 71.6068 491.754 72.0678C492.047 72.3804 492.37 72.6631 492.72 72.9117C498.987 77.5803 505.437 82.1287 511.878 86.559C513.077 87.4028 514.289 88.175 515.434 88.9534C515.922 89.3283 516.473 89.614 517.062 89.7973C517.503 89.947 517.97 90.0082 518.435 89.9774C518.901 89.9467 519.356 89.8245 519.773 89.618C520.069 89.4823 520.352 89.3229 520.622 89.1412C524.961 86.0822 529.302 83.0232 533.64 79.9199C536.038 78.1978 537.797 75.7363 538.643 72.918C538.771 72.4446 538.872 71.9642 538.945 71.4792C538.822 71.0464 538.796 70.592 538.868 70.1481L538.883 70.146ZM519.703 110.307H516.096C515.668 110.303 515.258 110.13 514.957 109.827C514.656 109.524 514.487 109.115 514.488 108.689L514.717 96.179C515.031 95.7417 515.456 95.3946 515.948 95.1727L520.966 94.2064C521.013 94.2064 521.059 94.2157 521.103 94.2338C521.146 94.2519 521.185 94.2785 521.218 94.3119C521.251 94.3453 521.278 94.3848 521.295 94.4282C521.313 94.4717 521.322 94.5182 521.322 94.5651V108.7C521.321 109.125 521.152 109.532 520.851 109.834C520.55 110.137 520.141 110.309 519.714 110.314L519.703 110.307Z" fill="#131621"/>
<path d="M540.034 55.0225C540.147 55.2668 540.205 55.5323 540.206 55.801V62.0877C540.201 64.055 539.736 65.9942 538.847 67.7518C537.958 69.5093 536.67 71.0371 535.084 72.214C532.553 74.1908 529.96 76.0452 527.308 77.9101L521.597 81.8572C520.847 82.3975 519.928 82.6527 519.006 82.5766C518.529 82.5213 518.062 82.3999 517.618 82.2159C517.224 82.0195 516.842 81.8004 516.473 81.5598C511.289 78.0261 506.106 74.4946 501.044 70.7837C498.752 69.1677 496.525 67.4905 494.233 65.8155C493.932 65.6362 493.692 65.3936 493.385 65.2163C492.538 64.5644 491.959 63.6274 491.757 62.5814C491.704 62.3034 491.683 62.0202 491.696 61.7375V56.052C491.695 55.8477 491.636 55.3327 491.636 55.3327L491.609 55.2198C491.609 55.2198 491.619 55.1419 491.636 55.1069C491.654 55.0726 491.679 55.043 491.711 55.0204C491.742 54.9978 491.778 54.982 491.817 54.974H491.876C491.89 55.0751 491.875 55.0042 491.938 55.2736C492 55.543 492.242 56.4117 492.661 56.8284C492.962 57.2093 493.329 57.5337 493.745 57.7862C499.771 62.2755 505.919 66.6467 512.128 70.9567C513.575 71.9756 515.079 72.9313 516.528 73.9482C517.112 74.3555 517.762 74.6589 518.45 74.8448C519.259 75.0369 520.109 74.9522 520.862 74.6043C521.144 74.4813 521.408 74.3201 521.645 74.1254C525.624 71.3132 529.54 68.558 533.527 65.7438C534.31 65.2058 535.033 64.6678 535.75 64.0687C537.639 62.3834 539.017 60.2077 539.731 57.7862C539.841 57.374 539.922 56.9545 539.972 56.5309C540.024 56.2947 540.044 56.053 540.034 55.8115V55.0225ZM518.577 46.3371H520.022C522.366 46.5139 524.637 47.2319 526.653 48.4341C528.014 49.2566 529.285 50.2205 530.442 51.3096C531.215 51.971 531.728 52.8837 531.889 53.8854C532.05 54.8638 531.902 55.8678 531.465 56.7588C531.344 57.0583 531.161 57.2988 531.04 57.5372C530.981 57.6536 530.879 57.7433 530.756 57.7883C530.632 57.8327 530.496 57.8282 530.376 57.7756C530.317 57.7756 530.317 57.7166 530.257 57.7166C529.833 57.417 529.409 57.1765 528.931 56.8727C527.205 55.6568 525.261 54.7823 523.203 54.2968C521.883 53.9904 520.523 53.8901 519.172 53.9994C516.416 54.1994 513.769 55.1481 511.519 56.7419C510.67 57.341 509.77 57.8199 508.864 58.417C508.805 58.417 508.805 58.4781 508.746 58.4781C508.7 58.4715 508.657 58.45 508.625 58.417L503.562 55.0057C503.45 54.942 503.349 54.8616 503.261 54.7673C503.194 54.7228 503.144 54.6559 503.122 54.5785C503.1 54.5011 503.106 54.4185 503.14 54.3453C503.14 54.2842 503.202 54.2842 503.261 54.2251L503.38 54.1048C504.827 53.1492 506.212 52.0669 507.657 51.0459C508.895 50.1429 510.18 49.307 511.508 48.5417C513.056 47.6896 514.721 47.0663 516.449 46.6915C517.139 46.4853 517.852 46.3641 518.571 46.3308L518.577 46.3371ZM515.915 46.8223V36.3058C515.925 35.91 516.093 35.5344 516.381 35.2612C516.67 34.9881 517.055 34.8395 517.453 34.848H520.515C520.913 34.8395 521.298 34.9881 521.586 35.2612C521.874 35.5344 522.042 35.91 522.053 36.3058V46.643C520.004 46.4077 517.931 46.4696 515.9 46.8266L515.915 46.8223ZM540.102 72.56C540.218 72.8036 540.28 73.069 540.284 73.3385V79.7434C540.23 82.5669 539.258 85.2971 537.513 87.5258C536.758 88.4676 535.888 89.3123 534.923 90.0405C532.377 92.0152 529.735 93.8716 527.073 95.7366L521.768 99.3884C521.313 99.7026 520.801 99.9261 520.26 100.047C519.537 100.228 518.774 100.165 518.092 99.8673C517.6 99.6887 517.134 99.4469 516.706 99.1479C510.799 95.1395 504.893 91.0679 499.107 86.817C497.299 85.5006 495.5 84.1842 493.682 82.8087C492.788 82.162 492.185 81.1923 492.003 80.1083C491.951 79.8303 491.931 79.5471 491.944 79.2645V73.4629C491.952 73.2425 491.931 73.022 491.882 72.8068C491.823 72.6254 491.944 72.4461 492.065 72.4461C492.065 72.5663 492.124 72.6254 492.124 72.7457C492.192 73.4058 492.493 74.0209 492.973 74.4819C493.266 74.7945 493.589 75.0771 493.938 75.3258C500.206 79.9944 506.656 84.5428 513.097 88.973C514.296 89.8169 515.507 90.589 516.653 91.3675C517.141 91.7423 517.692 92.0281 518.28 92.2114C518.722 92.361 519.189 92.4223 519.654 92.3915C520.12 92.3607 520.574 92.2385 520.992 92.032C521.287 91.8964 521.571 91.7369 521.841 91.5553C526.179 88.4963 530.52 85.4373 534.859 82.334C537.257 80.6119 539.016 78.1504 539.862 75.3321C539.99 74.8586 540.091 74.3782 540.163 73.8933C540.041 73.4604 540.015 73.0061 540.087 72.5621L540.102 72.56ZM520.922 112.721H517.315C516.887 112.717 516.477 112.544 516.176 112.241C515.875 111.938 515.706 111.529 515.707 111.103L515.936 98.593C516.25 98.1558 516.674 97.8086 517.167 97.5867L522.184 96.6205C522.231 96.6204 522.278 96.6297 522.321 96.6479C522.365 96.666 522.404 96.6925 522.437 96.726C522.47 96.7593 522.496 96.7988 522.514 96.8423C522.532 96.8857 522.541 96.9322 522.541 96.9792V111.114C522.54 111.539 522.37 111.947 522.069 112.249C521.768 112.551 521.36 112.723 520.933 112.728L520.922 112.721Z" fill="#D7E6F4"/>
</g>
<defs>
<linearGradient id="paint0_linear_8233_621" x1="179.5" y1="66.9995" x2="-34.4996" y2="66.9995" gradientUnits="userSpaceOnUse">
<stop stop-color="#7E7E7E"/>
<stop offset="1" stop-color="#7E7E7E" stop-opacity="0"/>
</linearGradient>
<linearGradient id="paint1_linear_8233_621" x1="179.5" y1="67" x2="-34.4996" y2="67" gradientUnits="userSpaceOnUse">
<stop stop-color="#7E7E7E"/>
<stop offset="1" stop-color="#7E7E7E" stop-opacity="0"/>
</linearGradient>
<linearGradient id="paint2_linear_8233_621" x1="179.5" y1="67" x2="-34.4996" y2="67" gradientUnits="userSpaceOnUse">
<stop stop-color="#7E7E7E"/>
<stop offset="1" stop-color="#7E7E7E" stop-opacity="0"/>
</linearGradient>
<linearGradient id="paint3_linear_8233_621" x1="179.504" y1="66.9995" x2="-34.4962" y2="66.9995" gradientUnits="userSpaceOnUse">
<stop stop-color="#7E7E7E"/>
<stop offset="1" stop-color="#7E7E7E" stop-opacity="0"/>
</linearGradient>
<linearGradient id="paint4_linear_8233_621" x1="179.504" y1="67" x2="-34.4962" y2="67" gradientUnits="userSpaceOnUse">
<stop stop-color="#7E7E7E"/>
<stop offset="1" stop-color="#7E7E7E" stop-opacity="0"/>
</linearGradient>
<linearGradient id="paint5_linear_8233_621" x1="179.504" y1="67" x2="-34.4962" y2="67" gradientUnits="userSpaceOnUse">
<stop stop-color="#7E7E7E"/>
<stop offset="1" stop-color="#7E7E7E" stop-opacity="0"/>
</linearGradient>
<linearGradient id="paint6_linear_8233_621" x1="179.5" y1="66.9995" x2="-34.5001" y2="66.9995" gradientUnits="userSpaceOnUse">
<stop stop-color="#7E7E7E"/>
<stop offset="1" stop-color="#7E7E7E" stop-opacity="0"/>
</linearGradient>
<linearGradient id="paint7_linear_8233_621" x1="179.5" y1="67" x2="-34.5001" y2="67" gradientUnits="userSpaceOnUse">
<stop stop-color="#7E7E7E"/>
<stop offset="1" stop-color="#7E7E7E" stop-opacity="0"/>
</linearGradient>
<linearGradient id="paint8_linear_8233_621" x1="179.5" y1="67" x2="-34.5001" y2="67" gradientUnits="userSpaceOnUse">
<stop stop-color="#7E7E7E"/>
<stop offset="1" stop-color="#7E7E7E" stop-opacity="0"/>
</linearGradient>
<linearGradient id="paint9_linear_8233_621" x1="179.504" y1="66.9995" x2="-34.4959" y2="66.9995" gradientUnits="userSpaceOnUse">
<stop stop-color="#7E7E7E"/>
<stop offset="1" stop-color="#7E7E7E" stop-opacity="0"/>
</linearGradient>
<linearGradient id="paint10_linear_8233_621" x1="179.504" y1="67" x2="-34.4959" y2="67" gradientUnits="userSpaceOnUse">
<stop stop-color="#7E7E7E"/>
<stop offset="1" stop-color="#7E7E7E" stop-opacity="0"/>
</linearGradient>
<linearGradient id="paint11_linear_8233_621" x1="179.504" y1="67" x2="-34.4959" y2="67" gradientUnits="userSpaceOnUse">
<stop stop-color="#7E7E7E"/>
<stop offset="1" stop-color="#7E7E7E" stop-opacity="0"/>
</linearGradient>
<linearGradient id="paint12_linear_8233_621" x1="179.5" y1="67" x2="-34.5012" y2="67" gradientUnits="userSpaceOnUse">
<stop stop-color="#7E7E7E"/>
<stop offset="1" stop-color="#7E7E7E" stop-opacity="0"/>
</linearGradient>
<linearGradient id="paint13_linear_8233_621" x1="179.5" y1="66.9995" x2="-34.4999" y2="66.9995" gradientUnits="userSpaceOnUse">
<stop stop-color="#7E7E7E"/>
<stop offset="1" stop-color="#7E7E7E" stop-opacity="0"/>
</linearGradient>
<linearGradient id="paint14_linear_8233_621" x1="179.5" y1="67" x2="-34.4999" y2="67" gradientUnits="userSpaceOnUse">
<stop stop-color="#7E7E7E"/>
<stop offset="1" stop-color="#7E7E7E" stop-opacity="0"/>
</linearGradient>
<linearGradient id="paint15_linear_8233_621" x1="179.5" y1="67" x2="-34.4999" y2="67" gradientUnits="userSpaceOnUse">
<stop stop-color="#7E7E7E"/>
<stop offset="1" stop-color="#7E7E7E" stop-opacity="0"/>
</linearGradient>
<linearGradient id="paint16_linear_8233_621" x1="179.503" y1="66.9995" x2="-34.4961" y2="66.9995" gradientUnits="userSpaceOnUse">
<stop stop-color="#7E7E7E"/>
<stop offset="1" stop-color="#7E7E7E" stop-opacity="0"/>
</linearGradient>
<linearGradient id="paint17_linear_8233_621" x1="179.503" y1="67" x2="-34.4961" y2="67" gradientUnits="userSpaceOnUse">
<stop stop-color="#7E7E7E"/>
<stop offset="1" stop-color="#7E7E7E" stop-opacity="0"/>
</linearGradient>
<linearGradient id="paint18_linear_8233_621" x1="179.5" y1="66.9995" x2="-34.5" y2="66.9995" gradientUnits="userSpaceOnUse">
<stop stop-color="#7E7E7E"/>
<stop offset="1" stop-color="#7E7E7E" stop-opacity="0"/>
</linearGradient>
<linearGradient id="paint19_linear_8233_621" x1="179.5" y1="67" x2="-34.5" y2="67" gradientUnits="userSpaceOnUse">
<stop stop-color="#7E7E7E"/>
<stop offset="1" stop-color="#7E7E7E" stop-opacity="0"/>
</linearGradient>
<linearGradient id="paint20_linear_8233_621" x1="179.5" y1="67" x2="-34.5" y2="67" gradientUnits="userSpaceOnUse">
<stop stop-color="#7E7E7E"/>
<stop offset="1" stop-color="#7E7E7E" stop-opacity="0"/>
</linearGradient>
<linearGradient id="paint21_linear_8233_621" x1="179.496" y1="66.9995" x2="-34.5043" y2="66.9995" gradientUnits="userSpaceOnUse">
<stop stop-color="#7E7E7E"/>
<stop offset="1" stop-color="#7E7E7E" stop-opacity="0"/>
</linearGradient>
<linearGradient id="paint22_linear_8233_621" x1="179.496" y1="67" x2="-34.5043" y2="67" gradientUnits="userSpaceOnUse">
<stop stop-color="#7E7E7E"/>
<stop offset="1" stop-color="#7E7E7E" stop-opacity="0"/>
</linearGradient>
<linearGradient id="paint23_linear_8233_621" x1="179.496" y1="67" x2="-34.5043" y2="67" gradientUnits="userSpaceOnUse">
<stop stop-color="#7E7E7E"/>
<stop offset="1" stop-color="#7E7E7E" stop-opacity="0"/>
</linearGradient>
<linearGradient id="paint24_linear_8233_621" x1="179.5" y1="66.9995" x2="-34.5" y2="66.9995" gradientUnits="userSpaceOnUse">
<stop stop-color="#7E7E7E"/>
<stop offset="1" stop-color="#7E7E7E" stop-opacity="0"/>
</linearGradient>
<linearGradient id="paint25_linear_8233_621" x1="179.5" y1="67" x2="-34.5" y2="67" gradientUnits="userSpaceOnUse">
<stop stop-color="#7E7E7E"/>
<stop offset="1" stop-color="#7E7E7E" stop-opacity="0"/>
</linearGradient>
<linearGradient id="paint26_linear_8233_621" x1="179.5" y1="67" x2="-34.5" y2="67" gradientUnits="userSpaceOnUse">
<stop stop-color="#7E7E7E"/>
<stop offset="1" stop-color="#7E7E7E" stop-opacity="0"/>
</linearGradient>
<linearGradient id="paint27_linear_8233_621" x1="179.496" y1="66.9995" x2="-34.5033" y2="66.9995" gradientUnits="userSpaceOnUse">
<stop stop-color="#7E7E7E"/>
<stop offset="1" stop-color="#7E7E7E" stop-opacity="0"/>
</linearGradient>
<linearGradient id="paint28_linear_8233_621" x1="179.496" y1="67" x2="-34.5033" y2="67" gradientUnits="userSpaceOnUse">
<stop stop-color="#7E7E7E"/>
<stop offset="1" stop-color="#7E7E7E" stop-opacity="0"/>
</linearGradient>
<linearGradient id="paint29_linear_8233_621" x1="179.496" y1="67" x2="-34.5033" y2="67" gradientUnits="userSpaceOnUse">
<stop stop-color="#7E7E7E"/>
<stop offset="1" stop-color="#7E7E7E" stop-opacity="0"/>
</linearGradient>
<linearGradient id="paint30_linear_8233_621" x1="179.5" y1="66.9995" x2="-34.5" y2="66.9995" gradientUnits="userSpaceOnUse">
<stop stop-color="#7E7E7E"/>
<stop offset="1" stop-color="#7E7E7E" stop-opacity="0"/>
</linearGradient>
<linearGradient id="paint31_linear_8233_621" x1="179.5" y1="67" x2="-34.5" y2="67" gradientUnits="userSpaceOnUse">
<stop stop-color="#7E7E7E"/>
<stop offset="1" stop-color="#7E7E7E" stop-opacity="0"/>
</linearGradient>
<linearGradient id="paint32_linear_8233_621" x1="179.5" y1="67" x2="-34.5" y2="67" gradientUnits="userSpaceOnUse">
<stop stop-color="#7E7E7E"/>
<stop offset="1" stop-color="#7E7E7E" stop-opacity="0"/>
</linearGradient>
<linearGradient id="paint33_linear_8233_621" x1="179.496" y1="66.9995" x2="-34.5035" y2="66.9995" gradientUnits="userSpaceOnUse">
<stop stop-color="#7E7E7E"/>
<stop offset="1" stop-color="#7E7E7E" stop-opacity="0"/>
</linearGradient>
<linearGradient id="paint34_linear_8233_621" x1="179.496" y1="67" x2="-34.5035" y2="67" gradientUnits="userSpaceOnUse">
<stop stop-color="#7E7E7E"/>
<stop offset="1" stop-color="#7E7E7E" stop-opacity="0"/>
</linearGradient>
<linearGradient id="paint35_linear_8233_621" x1="179.496" y1="67" x2="-34.5035" y2="67" gradientUnits="userSpaceOnUse">
<stop stop-color="#7E7E7E"/>
<stop offset="1" stop-color="#7E7E7E" stop-opacity="0"/>
</linearGradient>
<clipPath id="clip0_8233_621">
<rect width="591" height="148" fill="white"/>
</clipPath>
</defs>
</svg>
