<svg width="591" height="148" viewBox="0 0 591 148" fill="none" xmlns="http://www.w3.org/2000/svg">
<g opacity="0.6">
<path fill-rule="evenodd" clip-rule="evenodd" d="M130.289 118.9C130.289 119.662 130.906 120.28 131.669 120.28C132.431 120.28 133.049 119.662 133.049 118.9C133.049 118.138 132.431 117.52 131.669 117.52C130.906 117.52 130.289 118.138 130.289 118.9Z" fill="url(#paint0_linear_8231_563)"/>
<path fill-rule="evenodd" clip-rule="evenodd" d="M130.289 81.14C130.289 81.9022 130.906 82.5203 131.669 82.5203C132.431 82.5203 133.049 81.9022 133.049 81.14C133.049 80.3779 132.431 79.7598 131.669 79.7598C130.906 79.7598 130.289 80.3779 130.289 81.14Z" fill="url(#paint1_linear_8231_563)"/>
<path fill-rule="evenodd" clip-rule="evenodd" d="M130.289 43.3803C130.289 44.1424 130.906 44.7605 131.669 44.7605C132.431 44.7605 133.049 44.1424 133.049 43.3803C133.049 42.6181 132.431 42 131.669 42C130.906 42 130.289 42.6181 130.289 43.3803Z" fill="url(#paint2_linear_8231_563)"/>
<path fill-rule="evenodd" clip-rule="evenodd" d="M111.168 118.9C111.168 119.662 111.786 120.28 112.548 120.28C113.311 120.28 113.928 119.662 113.928 118.9C113.928 118.138 113.311 117.52 112.548 117.52C111.786 117.52 111.168 118.138 111.168 118.9Z" fill="url(#paint3_linear_8231_563)"/>
<path fill-rule="evenodd" clip-rule="evenodd" d="M111.168 81.14C111.168 81.9022 111.786 82.5203 112.548 82.5203C113.311 82.5203 113.928 81.9022 113.928 81.14C113.928 80.3779 113.311 79.7598 112.548 79.7598C111.786 79.7598 111.168 80.3779 111.168 81.14Z" fill="url(#paint4_linear_8231_563)"/>
<path fill-rule="evenodd" clip-rule="evenodd" d="M111.168 43.3803C111.168 44.1424 111.786 44.7605 112.548 44.7605C113.311 44.7605 113.928 44.1424 113.928 43.3803C113.928 42.6181 113.311 42 112.548 42C111.786 42 111.168 42.6181 111.168 43.3803Z" fill="url(#paint5_linear_8231_563)"/>
<path fill-rule="evenodd" clip-rule="evenodd" d="M92.7578 118.9C92.7578 119.662 93.3758 120.28 94.1378 120.28C94.8998 120.28 95.5178 119.662 95.5178 118.9C95.5178 118.138 94.8998 117.52 94.1378 117.52C93.3758 117.52 92.7578 118.138 92.7578 118.9Z" fill="url(#paint6_linear_8231_563)"/>
<path fill-rule="evenodd" clip-rule="evenodd" d="M92.7578 81.14C92.7578 81.9022 93.3758 82.5203 94.1378 82.5203C94.8998 82.5203 95.5178 81.9022 95.5178 81.14C95.5178 80.3779 94.8998 79.7598 94.1378 79.7598C93.3758 79.7598 92.7578 80.3779 92.7578 81.14Z" fill="url(#paint7_linear_8231_563)"/>
<path fill-rule="evenodd" clip-rule="evenodd" d="M92.7578 43.3803C92.7578 44.1424 93.3758 44.7605 94.1378 44.7605C94.8998 44.7605 95.5178 44.1424 95.5178 43.3803C95.5178 42.6181 94.8998 42 94.1378 42C93.3758 42 92.7578 42.6181 92.7578 43.3803Z" fill="url(#paint8_linear_8231_563)"/>
<path fill-rule="evenodd" clip-rule="evenodd" d="M74.3477 118.9C74.3477 119.662 74.9657 120.28 75.7277 120.28C76.4897 120.28 77.1077 119.662 77.1077 118.9C77.1077 118.138 76.4897 117.52 75.7277 117.52C74.9657 117.52 74.3477 118.138 74.3477 118.9Z" fill="url(#paint9_linear_8231_563)"/>
<path fill-rule="evenodd" clip-rule="evenodd" d="M74.3477 81.14C74.3477 81.9022 74.9657 82.5203 75.7277 82.5203C76.4897 82.5203 77.1077 81.9022 77.1077 81.14C77.1077 80.3779 76.4897 79.7598 75.7277 79.7598C74.9657 79.7598 74.3477 80.3779 74.3477 81.14Z" fill="url(#paint10_linear_8231_563)"/>
<path fill-rule="evenodd" clip-rule="evenodd" d="M74.3477 43.3803C74.3477 44.1424 74.9657 44.7605 75.7277 44.7605C76.4897 44.7605 77.1077 44.1424 77.1077 43.3803C77.1077 42.6181 76.4897 42 75.7277 42C74.9657 42 74.3477 42.6181 74.3477 43.3803Z" fill="url(#paint11_linear_8231_563)"/>
<path fill-rule="evenodd" clip-rule="evenodd" d="M206.805 81.14C206.805 81.9022 207.423 82.5203 208.185 82.5203C208.947 82.5203 209.565 81.9022 209.565 81.14C209.565 80.3779 208.947 79.7598 208.185 79.7598C207.423 79.7598 206.805 80.3779 206.805 81.14Z" fill="url(#paint12_linear_8231_563)"/>
<path fill-rule="evenodd" clip-rule="evenodd" d="M55.9375 118.9C55.9375 119.662 56.5555 120.28 57.3175 120.28C58.0795 120.28 58.6975 119.662 58.6975 118.9C58.6975 118.138 58.0795 117.52 57.3175 117.52C56.5555 117.52 55.9375 118.138 55.9375 118.9Z" fill="url(#paint13_linear_8231_563)"/>
<path fill-rule="evenodd" clip-rule="evenodd" d="M55.9375 81.14C55.9375 81.9022 56.5555 82.5203 57.3175 82.5203C58.0795 82.5203 58.6975 81.9022 58.6975 81.14C58.6975 80.3779 58.0795 79.7598 57.3175 79.7598C56.5555 79.7598 55.9375 80.3779 55.9375 81.14Z" fill="url(#paint14_linear_8231_563)"/>
<path fill-rule="evenodd" clip-rule="evenodd" d="M55.9375 43.3803C55.9375 44.1424 56.5555 44.7605 57.3175 44.7605C58.0795 44.7605 58.6975 44.1424 58.6975 43.3803C58.6975 42.6181 58.0795 42 57.3175 42C56.5555 42 55.9375 42.6181 55.9375 43.3803Z" fill="url(#paint15_linear_8231_563)"/>
<path fill-rule="evenodd" clip-rule="evenodd" d="M206.395 118.9C206.395 119.662 207.013 120.28 207.775 120.28C208.537 120.28 209.155 119.662 209.155 118.9C209.155 118.138 208.537 117.52 207.775 117.52C207.013 117.52 206.395 118.138 206.395 118.9Z" fill="url(#paint16_linear_8231_563)"/>
<path fill-rule="evenodd" clip-rule="evenodd" d="M206.395 43.3803C206.395 44.1424 207.013 44.7605 207.775 44.7605C208.537 44.7605 209.155 44.1424 209.155 43.3803C209.155 42.6181 208.537 42 207.775 42C207.013 42 206.395 42.6181 206.395 43.3803Z" fill="url(#paint17_linear_8231_563)"/>
<path fill-rule="evenodd" clip-rule="evenodd" d="M36.8203 118.9C36.8203 119.662 37.4383 120.28 38.2003 120.28C38.9623 120.28 39.5803 119.662 39.5803 118.9C39.5803 118.138 38.9623 117.52 38.2003 117.52C37.4383 117.52 36.8203 118.138 36.8203 118.9Z" fill="url(#paint18_linear_8231_563)"/>
<path fill-rule="evenodd" clip-rule="evenodd" d="M36.8203 81.14C36.8203 81.9022 37.4383 82.5203 38.2003 82.5203C38.9623 82.5203 39.5803 81.9022 39.5803 81.14C39.5803 80.3779 38.9623 79.7598 38.2003 79.7598C37.4383 79.7598 36.8203 80.3779 36.8203 81.14Z" fill="url(#paint19_linear_8231_563)"/>
<path fill-rule="evenodd" clip-rule="evenodd" d="M36.8203 43.3803C36.8203 44.1424 37.4383 44.7605 38.2003 44.7605C38.9623 44.7605 39.5803 44.1424 39.5803 43.3803C39.5803 42.6181 38.9623 42 38.2003 42C37.4383 42 36.8203 42.6181 36.8203 43.3803Z" fill="url(#paint20_linear_8231_563)"/>
<path fill-rule="evenodd" clip-rule="evenodd" d="M187.277 118.9C187.277 119.662 187.895 120.28 188.657 120.28C189.419 120.28 190.037 119.662 190.037 118.9C190.037 118.138 189.419 117.52 188.657 117.52C187.895 117.52 187.277 118.138 187.277 118.9Z" fill="url(#paint21_linear_8231_563)"/>
<path fill-rule="evenodd" clip-rule="evenodd" d="M187.277 81.14C187.277 81.9022 187.895 82.5203 188.657 82.5203C189.419 82.5203 190.037 81.9022 190.037 81.14C190.037 80.3779 189.419 79.7598 188.657 79.7598C187.895 79.7598 187.277 80.3779 187.277 81.14Z" fill="url(#paint22_linear_8231_563)"/>
<path fill-rule="evenodd" clip-rule="evenodd" d="M187.277 43.3803C187.277 44.1424 187.895 44.7605 188.657 44.7605C189.419 44.7605 190.037 44.1424 190.037 43.3803C190.037 42.6181 189.419 42 188.657 42C187.895 42 187.277 42.6181 187.277 43.3803Z" fill="url(#paint23_linear_8231_563)"/>
<path fill-rule="evenodd" clip-rule="evenodd" d="M19.1172 118.9C19.1172 119.662 19.7352 120.28 20.4972 120.28C21.2592 120.28 21.8772 119.662 21.8772 118.9C21.8772 118.138 21.2592 117.52 20.4972 117.52C19.7352 117.52 19.1172 118.138 19.1172 118.9Z" fill="url(#paint24_linear_8231_563)"/>
<path fill-rule="evenodd" clip-rule="evenodd" d="M19.1172 81.14C19.1172 81.9022 19.7352 82.5203 20.4972 82.5203C21.2592 82.5203 21.8772 81.9022 21.8772 81.14C21.8772 80.3779 21.2592 79.7598 20.4972 79.7598C19.7352 79.7598 19.1172 80.3779 19.1172 81.14Z" fill="url(#paint25_linear_8231_563)"/>
<path fill-rule="evenodd" clip-rule="evenodd" d="M19.1172 43.3803C19.1172 44.1424 19.7352 44.7605 20.4972 44.7605C21.2592 44.7605 21.8772 44.1424 21.8772 43.3803C21.8772 42.6181 21.2592 42 20.4972 42C19.7352 42 19.1172 42.6181 19.1172 43.3803Z" fill="url(#paint26_linear_8231_563)"/>
<path fill-rule="evenodd" clip-rule="evenodd" d="M169.574 118.9C169.574 119.662 170.192 120.28 170.954 120.28C171.716 120.28 172.334 119.662 172.334 118.9C172.334 118.138 171.716 117.52 170.954 117.52C170.192 117.52 169.574 118.138 169.574 118.9Z" fill="url(#paint27_linear_8231_563)"/>
<path fill-rule="evenodd" clip-rule="evenodd" d="M169.574 81.14C169.574 81.9022 170.192 82.5203 170.954 82.5203C171.716 82.5203 172.334 81.9022 172.334 81.14C172.334 80.3779 171.716 79.7598 170.954 79.7598C170.192 79.7598 169.574 80.3779 169.574 81.14Z" fill="url(#paint28_linear_8231_563)"/>
<path fill-rule="evenodd" clip-rule="evenodd" d="M169.574 43.3803C169.574 44.1424 170.192 44.7605 170.954 44.7605C171.716 44.7605 172.334 44.1424 172.334 43.3803C172.334 42.6181 171.716 42 170.954 42C170.192 42 169.574 42.6181 169.574 43.3803Z" fill="url(#paint29_linear_8231_563)"/>
<path fill-rule="evenodd" clip-rule="evenodd" d="M0 118.9C0 119.662 0.617981 120.28 1.38098 120.28C2.14298 120.28 2.76099 119.662 2.76099 118.9C2.76099 118.138 2.14298 117.52 1.38098 117.52C0.617981 117.52 0 118.138 0 118.9Z" fill="url(#paint30_linear_8231_563)"/>
<path fill-rule="evenodd" clip-rule="evenodd" d="M0 81.14C0 81.9022 0.617981 82.5203 1.38098 82.5203C2.14298 82.5203 2.76099 81.9022 2.76099 81.14C2.76099 80.3779 2.14298 79.7598 1.38098 79.7598C0.617981 79.7598 0 80.3779 0 81.14Z" fill="url(#paint31_linear_8231_563)"/>
<path fill-rule="evenodd" clip-rule="evenodd" d="M0 43.3803C0 44.1424 0.617981 44.7605 1.38098 44.7605C2.14298 44.7605 2.76099 44.1424 2.76099 43.3803C2.76099 42.6181 2.14298 42 1.38098 42C0.617981 42 0 42.6181 0 43.3803Z" fill="url(#paint32_linear_8231_563)"/>
<path fill-rule="evenodd" clip-rule="evenodd" d="M150.457 118.9C150.457 119.662 151.074 120.28 151.837 120.28C152.599 120.28 153.217 119.662 153.217 118.9C153.217 118.138 152.599 117.52 151.837 117.52C151.074 117.52 150.457 118.138 150.457 118.9Z" fill="url(#paint33_linear_8231_563)"/>
<path fill-rule="evenodd" clip-rule="evenodd" d="M150.457 81.14C150.457 81.9022 151.074 82.5203 151.837 82.5203C152.599 82.5203 153.217 81.9022 153.217 81.14C153.217 80.3779 152.599 79.7598 151.837 79.7598C151.074 79.7598 150.457 80.3779 150.457 81.14Z" fill="url(#paint34_linear_8231_563)"/>
<path fill-rule="evenodd" clip-rule="evenodd" d="M150.457 43.3803C150.457 44.1424 151.074 44.7605 151.837 44.7605C152.599 44.7605 153.217 44.1424 153.217 43.3803C153.217 42.6181 152.599 42 151.837 42C151.074 42 150.457 42.6181 150.457 43.3803Z" fill="url(#paint35_linear_8231_563)"/>
</g>
<g opacity="0.05">
<path d="M282.803 145.568C297.099 145.568 311.074 141.329 322.961 133.386C334.848 125.444 344.113 114.155 349.584 100.946C355.055 87.7382 356.486 73.2052 353.697 59.1832C350.908 45.1622 344.024 32.2822 333.915 22.1732C323.806 12.0642 310.926 5.1799 296.904 2.3909C282.883 -0.398197 268.349 1.0333 255.141 6.5042C241.933 11.9751 230.644 21.2399 222.701 33.1272C214.759 45.0132 210.52 58.9892 210.52 73.2852C210.52 92.4562 218.135 110.841 231.691 124.397C245.246 137.953 263.632 145.568 282.803 145.568Z" fill="#607486"/>
<g opacity="0.25">
<g opacity="0.5">
<g clip-path="url(#clip0_8231_563)">
<path d="M332.913 126.035C361.031 98.0238 361.031 52.6091 332.913 24.5981C304.795 -3.41282 259.207 -3.41282 231.09 24.5981C202.972 52.6091 202.972 98.0238 231.09 126.035C259.207 154.046 304.795 154.046 332.913 126.035Z" fill="#4A5C6B"/>
<path d="M331.612 124.738C359.011 97.4433 359.011 53.1895 331.612 25.8946C304.212 -1.40034 259.79 -1.40034 232.391 25.8946C204.992 53.1895 204.992 97.4433 232.391 124.738C259.79 152.033 304.212 152.033 331.612 124.738Z" fill="#384E61"/>
<path d="M331.749 26.0371L232.534 124.874C239.241 131.516 247.225 136.741 256.009 140.233L347.168 49.4227C343.661 40.6727 338.417 32.7185 331.749 26.0371V26.0371Z" fill="#4A5C6B"/>
<path d="M322.507 18.2637L224.731 115.666C225.871 117.268 227.073 118.82 228.338 120.323L327.179 21.8573C325.675 20.594 324.118 19.3961 322.507 18.2637Z" fill="#4A5C6B"/>
<g style="mix-blend-mode:soft-light">
<path d="M283.381 127.256C311.458 127.256 334.218 104.582 334.218 76.6126C334.218 48.6428 311.458 25.9688 283.381 25.9688C255.305 25.9688 232.544 48.6428 232.544 76.6126C232.544 104.582 255.305 127.256 283.381 127.256Z" fill="#8C3F56"/>
</g>
<path d="M317.948 111.127C337.801 91.3494 337.801 59.2834 317.948 39.5058C298.095 19.7281 265.907 19.7281 246.054 39.5058C226.201 59.2834 226.201 91.3494 246.054 111.127C265.907 130.905 298.095 130.905 317.948 111.127Z" fill="#D20398"/>
<g style="mix-blend-mode:multiply">
<path d="M233.924 78.0663C233.922 68.2152 236.805 58.5776 242.219 50.3342C247.633 42.0908 255.343 35.5997 264.405 31.6562C273.466 27.7128 283.486 26.4882 293.236 28.1326C302.986 29.7771 312.042 34.219 319.296 40.9142C314.65 35.913 309.038 31.8974 302.797 29.1081C296.556 26.3188 289.814 24.8132 282.975 24.6813C276.136 24.5495 269.34 25.7943 262.995 28.341C256.651 30.8878 250.887 34.6841 246.05 39.5026C241.214 44.3211 237.403 50.0626 234.846 56.3832C232.29 62.7038 231.04 69.4734 231.173 76.2865C231.305 83.0996 232.816 89.816 235.616 96.0334C238.416 102.251 242.447 107.841 247.467 112.47C238.748 103.121 233.909 90.8276 233.924 78.0663V78.0663Z" fill="#A84569"/>
</g>
<path d="M333.401 76.2302C333.446 90.1593 328.092 103.538 318.512 113.434C308.933 123.329 295.911 128.934 282.299 129.02C268.688 129.106 255.599 123.665 245.902 113.89C236.205 104.116 230.69 90.8055 230.567 76.8769V76.2302C230.567 62.2748 235.985 48.891 245.627 39.023C255.27 29.1551 268.349 23.6113 281.986 23.6113H282.62C296.148 23.7771 309.066 29.3938 318.573 39.2433C328.081 49.0927 333.405 62.3856 333.401 76.2302Z" fill="#1A2E41"/>
<path d="M318.374 41.2564L245.63 113.988C236.116 104.508 230.707 91.6711 230.567 78.2425V77.6105C230.567 63.9715 235.987 50.8911 245.633 41.2465C255.279 31.6018 268.363 26.1829 282.005 26.1816H282.64C296.065 26.34 308.894 31.7518 318.374 41.2564V41.2564Z" fill="#2C465E"/>
<path d="M333.406 75.0295C333.406 81.7821 332.147 88.4685 329.702 94.7072C327.256 100.946 323.671 106.614 319.151 111.389C314.632 116.164 309.266 119.952 303.361 122.536C297.456 125.12 291.127 126.45 284.735 126.45C283.812 126.45 282.896 126.423 281.986 126.37C294.401 125.63 306.076 119.898 314.617 110.352C323.158 100.805 327.917 88.1669 327.917 75.0307C327.917 61.8946 323.158 49.2565 314.617 39.7099C306.076 30.1632 294.401 24.4318 281.986 23.6918C282.896 23.6382 283.812 23.6113 284.735 23.6113C297.643 23.6113 310.023 29.0286 319.15 38.6714C328.278 48.3142 333.406 61.3926 333.406 75.0295Z" fill="#151520"/>
</g>
</g>
</g>
<g clip-path="url(#clip1_8231_563)">
<path d="M331.612 122.779C359.011 95.4843 359.011 51.2305 331.612 23.9356C304.212 -3.35933 259.79 -3.35932 232.391 23.9356C204.992 51.2305 204.992 95.4843 232.391 122.779C259.79 150.074 304.212 150.074 331.612 122.779Z" fill="#384E61"/>
<path d="M331.749 24.0781L232.534 122.915C239.241 129.558 247.225 134.782 256.009 138.274L347.168 47.4637C343.661 38.7137 338.417 30.7595 331.749 24.0781V24.0781Z" fill="#4A5C6B"/>
<path d="M322.507 16.3047L224.731 113.707C225.871 115.309 227.073 116.861 228.338 118.364L327.179 19.8983C325.675 18.635 324.118 17.4372 322.507 16.3047Z" fill="#4A5C6B"/>
<g style="mix-blend-mode:soft-light">
<path d="M283.381 125.298C311.458 125.298 334.218 102.623 334.218 74.6536C334.218 46.6838 311.458 24.0098 283.381 24.0098C255.305 24.0098 232.544 46.6838 232.544 74.6536C232.544 102.623 255.305 125.298 283.381 125.298Z" fill="black"/>
</g>
<path d="M317.948 109.168C337.801 89.3904 337.801 57.3245 317.948 37.5468C298.095 17.7691 265.907 17.7691 246.054 37.5468C226.201 57.3245 226.201 89.3904 246.054 109.168C265.907 128.946 298.095 128.946 317.948 109.168Z" fill="black"/>
<g style="mix-blend-mode:multiply">
<path d="M233.924 76.1073C233.922 66.2563 236.805 56.6186 242.219 48.3752C247.633 40.1318 255.343 33.6407 264.405 29.6973C273.466 25.7538 283.486 24.5292 293.236 26.1737C302.986 27.8181 312.042 32.26 319.296 38.9553C314.65 33.954 309.038 29.9384 302.797 27.1491C296.556 24.3598 289.814 22.8542 282.975 22.7224C276.136 22.5906 269.34 23.8353 262.995 26.382C256.651 28.9288 250.887 32.7251 246.05 37.5436C241.214 42.3621 237.403 48.1036 234.846 54.4242C232.29 60.7448 231.04 67.5144 231.173 74.3275C231.305 81.1406 232.816 87.8571 235.616 94.0744C238.416 100.292 242.447 105.882 247.467 110.511C238.748 101.162 233.909 88.8687 233.924 76.1073V76.1073Z" fill="black"/>
</g>
<path d="M332.913 124.076C361.031 96.0648 361.031 50.6501 332.913 22.6391C304.795 -5.37181 259.207 -5.37181 231.09 22.6391C202.972 50.6501 202.972 96.0648 231.09 124.076C259.207 152.087 304.795 152.087 332.913 124.076Z" fill="#4E5760"/>
<path d="M318.374 39.2954L245.63 112.027C236.116 102.547 230.707 89.7101 230.567 76.2816V75.6495C230.567 62.0106 235.987 48.9302 245.633 39.2855C255.279 29.6409 268.363 24.222 282.005 24.2207H282.64C296.065 24.3791 308.894 29.7909 318.374 39.2954V39.2954Z" fill="#25303A"/>
<path d="M333.401 74.2692C333.446 88.1983 328.092 101.577 318.512 111.473C308.933 121.369 295.911 126.974 282.299 127.059C268.688 127.145 255.599 121.704 245.902 111.93C236.205 102.155 230.69 88.8445 230.567 74.9159V74.2692C230.567 60.3139 235.985 46.93 245.627 37.0621C255.27 27.1941 268.349 21.6504 281.986 21.6504H282.62C296.148 21.8161 309.066 27.4328 318.573 37.2823C328.081 47.1318 333.405 60.4247 333.401 74.2692Z" fill="#1A2E41"/>
<path d="M304.034 58.0225C304.147 58.2668 304.205 58.5323 304.206 58.801V65.0877C304.201 67.055 303.736 68.9942 302.847 70.7518C301.958 72.5093 300.67 74.0371 299.084 75.214C296.553 77.1908 293.96 79.0451 291.308 80.9101L285.597 84.8572C284.847 85.3975 283.928 85.6527 283.006 85.5766C282.529 85.5213 282.062 85.3999 281.618 85.2159C281.224 85.0195 280.842 84.8004 280.473 84.5598C275.289 81.0261 270.106 77.4946 265.044 73.7837C262.752 72.1677 260.525 70.4905 258.233 68.8155C257.932 68.6362 257.692 68.3936 257.385 68.2163C256.538 67.5644 255.959 66.6274 255.757 65.5814C255.704 65.3034 255.683 65.0202 255.696 64.7375V59.052C255.705 58.8108 255.685 58.5693 255.636 58.3327C255.619 58.2976 255.609 58.259 255.609 58.2198C255.609 58.1806 255.619 58.1419 255.636 58.1069C255.654 58.0726 255.679 58.043 255.711 58.0204C255.742 57.9978 255.778 57.982 255.817 57.974H255.876C255.89 58.0751 255.911 58.1752 255.938 58.2736C255.986 58.8607 256.242 59.4117 256.661 59.8284C256.962 60.2093 257.329 60.5337 257.745 60.7862C263.771 65.2755 269.919 69.6467 276.128 73.9567C277.575 74.9756 279.079 75.9313 280.528 76.9482C281.112 77.3555 281.762 77.6589 282.45 77.8448C283.259 78.0369 284.109 77.9522 284.862 77.6043C285.144 77.4813 285.408 77.3201 285.645 77.1254C289.624 74.3132 293.54 71.558 297.527 68.7438C298.31 68.2058 299.033 67.6678 299.75 67.0687C301.639 65.3834 303.017 63.2077 303.731 60.7862C303.841 60.374 303.922 59.9545 303.972 59.5309C304.024 59.2947 304.044 59.053 304.034 58.8115V58.0225ZM282.577 49.3371H284.022C286.366 49.5139 288.637 50.2319 290.653 51.4341C292.014 52.2566 293.285 53.2205 294.442 54.3096C295.215 54.971 295.728 55.8837 295.889 56.8854C296.05 57.8638 295.902 58.8678 295.465 59.7588C295.344 60.0583 295.161 60.2988 295.04 60.5372C294.981 60.6536 294.879 60.7433 294.756 60.7883C294.632 60.8327 294.496 60.8282 294.376 60.7756C294.317 60.7756 294.317 60.7166 294.257 60.7166C293.833 60.417 293.409 60.1765 292.931 59.8727C291.205 58.6568 289.261 57.7823 287.203 57.2968C285.883 56.9904 284.523 56.8901 283.172 56.9994C280.416 57.1994 277.769 58.1481 275.519 59.7419C274.67 60.341 273.77 60.8199 272.864 61.417C272.805 61.417 272.805 61.4781 272.746 61.4781C272.7 61.4715 272.657 61.45 272.625 61.417L267.562 58.0057C267.45 57.942 267.349 57.8616 267.261 57.7673C267.194 57.7228 267.144 57.6559 267.122 57.5785C267.1 57.5011 267.106 57.4185 267.14 57.3453C267.14 57.2842 267.202 57.2842 267.261 57.2251L267.38 57.1048C268.827 56.1492 270.212 55.0669 271.657 54.0459C272.895 53.1429 274.18 52.307 275.508 51.5417C277.056 50.6896 278.721 50.0663 280.449 49.6915C281.139 49.4853 281.852 49.3641 282.571 49.3308L282.577 49.3371ZM279.915 49.8223V39.3058C279.925 38.91 280.093 38.5344 280.381 38.2612C280.67 37.9881 281.055 37.8395 281.453 37.848H284.515C284.913 37.8395 285.298 37.9881 285.586 38.2612C285.874 38.5344 286.042 38.91 286.053 39.3058V49.643C284.004 49.4077 281.931 49.4696 279.9 49.8266L279.915 49.8223ZM304.102 75.56C304.218 75.8036 304.28 76.069 304.284 76.3385V82.7434C304.23 85.5669 303.258 88.2971 301.513 90.5258C300.758 91.4676 299.888 92.3123 298.923 93.0405C296.377 95.0152 293.735 96.8716 291.073 98.7366L285.768 102.388C285.313 102.703 284.801 102.926 284.26 103.047C283.537 103.228 282.774 103.165 282.092 102.867C281.6 102.689 281.134 102.447 280.706 102.148C274.799 98.1395 268.893 94.0679 263.107 89.817C261.299 88.5006 259.5 87.1842 257.682 85.8087C256.788 85.162 256.185 84.1923 256.003 83.1083C255.951 82.8303 255.931 82.5471 255.944 82.2645V76.4629C255.952 76.2425 255.931 76.022 255.882 75.8068C255.823 75.6254 255.944 75.4461 256.065 75.4461C256.065 75.5663 256.124 75.6254 256.124 75.7457C256.192 76.4059 256.493 77.0209 256.973 77.4819C257.266 77.7945 257.589 78.0771 257.938 78.3258C264.206 82.9944 270.656 87.5428 277.097 91.973C278.296 92.8169 279.507 93.589 280.653 94.3675C281.141 94.7423 281.692 95.0281 282.28 95.2114C282.722 95.361 283.189 95.4223 283.654 95.3915C284.12 95.3607 284.574 95.2385 284.992 95.032C285.287 94.8964 285.571 94.7369 285.841 94.5553C290.179 91.4963 294.52 88.4373 298.859 85.334C301.257 83.6119 303.016 81.1504 303.862 78.3321C303.99 77.8586 304.091 77.3782 304.163 76.8933C304.041 76.4604 304.015 76.0061 304.087 75.5621L304.102 75.56ZM284.922 115.721H281.315C280.887 115.717 280.477 115.544 280.176 115.241C279.875 114.938 279.706 114.529 279.707 114.103L279.936 101.593C280.25 101.156 280.674 100.809 281.167 100.587L286.184 99.6205C286.231 99.6204 286.278 99.6297 286.321 99.6479C286.365 99.666 286.404 99.6925 286.437 99.726C286.47 99.7593 286.496 99.7988 286.514 99.8423C286.532 99.8857 286.541 99.9322 286.541 99.9792V114.114C286.54 114.539 286.37 114.947 286.069 115.249C285.768 115.551 285.36 115.723 284.933 115.728L284.922 115.721Z" fill="#C5D5E3"/>
<path d="M304.034 58.0225C304.147 58.2668 304.205 58.5323 304.206 58.801V65.0877C304.201 67.055 303.736 68.9942 302.847 70.7518C301.958 72.5093 300.67 74.0371 299.084 75.214C296.553 77.1908 293.96 79.0451 291.308 80.9101L285.597 84.8572C284.847 85.3975 283.928 85.6527 283.006 85.5766C282.529 85.5213 282.062 85.3999 281.618 85.2159C281.224 85.0195 280.842 84.8004 280.473 84.5598C275.289 81.0261 270.106 77.4946 265.044 73.7837C262.752 72.1677 260.525 70.4905 258.233 68.8155C257.932 68.6362 257.692 68.3936 257.385 68.2163C256.538 67.5644 255.959 66.6274 255.757 65.5814C255.704 65.3034 255.683 65.0202 255.696 64.7375V59.052C255.705 58.8108 255.685 58.5693 255.636 58.3327C255.619 58.2976 255.609 58.259 255.609 58.2198C255.609 58.1806 255.619 58.1419 255.636 58.1069C255.654 58.0726 255.679 58.043 255.711 58.0204C255.742 57.9978 255.778 57.982 255.817 57.974H255.876C255.89 58.0751 255.911 58.1752 255.938 58.2736C255.986 58.8607 256.242 59.4117 256.661 59.8284C256.962 60.2093 257.329 60.5337 257.745 60.7862C263.771 65.2755 269.919 69.6467 276.128 73.9567C277.575 74.9756 279.079 75.9313 280.528 76.9482C281.112 77.3555 281.762 77.6589 282.45 77.8448C283.259 78.0369 284.109 77.9522 284.862 77.6043C285.144 77.4813 285.408 77.3201 285.645 77.1254C289.624 74.3132 293.54 71.558 297.527 68.7438C298.31 68.2058 299.033 67.6678 299.75 67.0687C301.639 65.3834 303.017 63.2077 303.731 60.7862C303.841 60.374 303.922 59.9545 303.972 59.5309C304.024 59.2947 304.044 59.053 304.034 58.8115V58.0225ZM282.577 49.3371H284.022C286.366 49.5139 288.637 50.2319 290.653 51.4341C292.014 52.2566 293.285 53.2205 294.442 54.3096C295.215 54.971 295.728 55.8837 295.889 56.8854C296.05 57.8638 295.902 58.8678 295.465 59.7588C295.344 60.0583 295.161 60.2988 295.04 60.5372C294.981 60.6536 294.879 60.7433 294.756 60.7883C294.632 60.8327 294.496 60.8282 294.376 60.7756C294.317 60.7756 294.317 60.7166 294.257 60.7166C293.833 60.417 293.409 60.1765 292.931 59.8727C291.205 58.6568 289.261 57.7823 287.203 57.2968C285.883 56.9904 284.523 56.8901 283.172 56.9994C280.416 57.1994 277.769 58.1481 275.519 59.7419C274.67 60.341 273.77 60.8199 272.864 61.417C272.805 61.417 272.805 61.4781 272.746 61.4781C272.7 61.4715 272.657 61.45 272.625 61.417L267.562 58.0057C267.45 57.942 267.349 57.8616 267.261 57.7673C267.194 57.7228 267.144 57.6559 267.122 57.5785C267.1 57.5011 267.106 57.4185 267.14 57.3453C267.14 57.2842 267.202 57.2842 267.261 57.2251L267.38 57.1048C268.827 56.1492 270.212 55.0669 271.657 54.0459C272.895 53.1429 274.18 52.307 275.508 51.5417C277.056 50.6896 278.721 50.0663 280.449 49.6915C281.139 49.4853 281.852 49.3641 282.571 49.3308L282.577 49.3371ZM279.915 49.8223V39.3058C279.925 38.91 280.093 38.5344 280.381 38.2612C280.67 37.9881 281.055 37.8395 281.453 37.848H284.515C284.913 37.8395 285.298 37.9881 285.586 38.2612C285.874 38.5344 286.042 38.91 286.053 39.3058V49.643C284.004 49.4077 281.931 49.4696 279.9 49.8266L279.915 49.8223ZM304.102 75.56C304.218 75.8036 304.28 76.069 304.284 76.3385V82.7434C304.23 85.5669 303.258 88.2971 301.513 90.5258C300.758 91.4676 299.888 92.3123 298.923 93.0405C296.377 95.0152 293.735 96.8716 291.073 98.7366L285.768 102.388C285.313 102.703 284.801 102.926 284.26 103.047C283.537 103.228 282.774 103.165 282.092 102.867C281.6 102.689 281.134 102.447 280.706 102.148C274.799 98.1395 268.893 94.0679 263.107 89.817C261.299 88.5006 259.5 87.1842 257.682 85.8087C256.788 85.162 256.185 84.1923 256.003 83.1083C255.951 82.8303 255.931 82.5471 255.944 82.2645V76.4629C255.952 76.2425 255.931 76.022 255.882 75.8068C255.823 75.6254 255.944 75.4461 256.065 75.4461C256.065 75.5663 256.124 75.6254 256.124 75.7457C256.192 76.4059 256.493 77.0209 256.973 77.4819C257.266 77.7945 257.589 78.0771 257.938 78.3258C264.206 82.9944 270.656 87.5428 277.097 91.973C278.296 92.8169 279.507 93.589 280.653 94.3675C281.141 94.7423 281.692 95.0281 282.28 95.2114C282.722 95.361 283.189 95.4223 283.654 95.3915C284.12 95.3607 284.574 95.2385 284.992 95.032C285.287 94.8964 285.571 94.7369 285.841 94.5553C290.179 91.4963 294.52 88.4373 298.859 85.334C301.257 83.6119 303.016 81.1504 303.862 78.3321C303.99 77.8586 304.091 77.3782 304.163 76.8933C304.041 76.4604 304.015 76.0061 304.087 75.5621L304.102 75.56ZM284.922 115.721H281.315C280.887 115.717 280.477 115.544 280.176 115.241C279.875 114.938 279.706 114.529 279.707 114.103L279.936 101.593C280.25 101.156 280.674 100.809 281.167 100.587L286.184 99.6205C286.231 99.6204 286.278 99.6297 286.321 99.6479C286.365 99.666 286.404 99.6925 286.437 99.726C286.47 99.7593 286.496 99.7988 286.514 99.8423C286.532 99.8857 286.541 99.9322 286.541 99.9792V114.114C286.54 114.539 286.37 114.947 286.069 115.249C285.768 115.551 285.36 115.723 284.933 115.728L284.922 115.721Z" fill="#C5D5E3"/>
<path d="M333.407 73.0686C333.407 79.8211 332.148 86.5076 329.703 92.7462C327.257 98.9848 323.672 104.653 319.152 109.428C314.633 114.203 309.267 117.991 303.362 120.575C297.457 123.159 291.128 124.489 284.736 124.489C283.813 124.489 282.897 124.462 281.987 124.409C294.402 123.669 306.077 117.937 314.618 108.391C323.159 98.844 327.918 86.2059 327.918 73.0698C327.918 59.9337 323.159 47.2956 314.618 37.7489C306.077 28.2022 294.402 22.4709 281.987 21.7309C282.897 21.6772 283.813 21.6504 284.736 21.6504C297.644 21.6504 310.024 27.0677 319.151 36.7104C328.279 46.3532 333.407 59.4316 333.407 73.0686Z" fill="#0F1015"/>
</g>
</g>
<path d="M358.779 144.567C344.483 144.567 330.508 140.327 318.621 132.385C306.734 124.442 297.469 113.153 291.998 99.945C286.527 86.7368 285.096 72.2028 287.885 58.1818C290.674 44.1598 297.558 31.2808 307.667 21.1714C317.776 11.0624 330.656 4.17805 344.678 1.38895C358.699 -1.40015 373.233 0.0313506 386.441 5.50225C399.649 10.9733 410.938 20.238 418.881 32.1248C426.823 44.0118 431.062 57.9868 431.062 72.2828C431.062 91.4538 423.447 109.84 409.891 123.395C396.336 136.951 377.95 144.567 358.779 144.567Z" fill="#141E27"/>
<g opacity="0.25">
<g opacity="0.5">
<g clip-path="url(#clip2_8231_563)">
<path d="M409.913 125.035C438.031 97.0238 438.031 51.6091 409.913 23.5981C381.795 -4.41282 336.207 -4.41282 308.09 23.5981C279.972 51.6091 279.972 97.0238 308.09 125.035C336.207 153.046 381.795 153.046 409.913 125.035Z" fill="#4A5C6B"/>
<path d="M408.612 123.738C436.011 96.4433 436.011 52.1895 408.612 24.8946C381.212 -2.40034 336.79 -2.40034 309.391 24.8946C281.992 52.1895 281.992 96.4433 309.391 123.738C336.79 151.033 381.212 151.033 408.612 123.738Z" fill="#384E61"/>
<path d="M408.749 25.0371L309.534 123.874C316.241 130.516 324.225 135.741 333.009 139.233L424.168 48.4227C420.661 39.6727 415.417 31.7185 408.749 25.0371V25.0371Z" fill="#4A5C6B"/>
<path d="M399.507 17.2637L301.731 114.666C302.871 116.268 304.073 117.82 305.338 119.323L404.179 20.8573C402.675 19.594 401.118 18.3961 399.507 17.2637Z" fill="#4A5C6B"/>
<g style="mix-blend-mode:soft-light">
<path d="M360.381 126.256C388.458 126.256 411.218 103.582 411.218 75.6126C411.218 47.6428 388.458 24.9688 360.381 24.9688C332.305 24.9688 309.544 47.6428 309.544 75.6126C309.544 103.582 332.305 126.256 360.381 126.256Z" fill="#8C3F56"/>
</g>
<path d="M394.948 110.127C414.801 90.3494 414.801 58.2834 394.948 38.5058C375.095 18.7281 342.907 18.7281 323.054 38.5058C303.201 58.2834 303.201 90.3494 323.054 110.127C342.907 129.905 375.095 129.905 394.948 110.127Z" fill="#D20398"/>
<g style="mix-blend-mode:multiply">
<path d="M310.924 77.0663C310.922 67.2152 313.805 57.5776 319.219 49.3342C324.633 41.0908 332.343 34.5997 341.405 30.6562C350.466 26.7128 360.486 25.4882 370.236 27.1326C379.986 28.7771 389.042 33.219 396.296 39.9142C391.65 34.913 386.038 30.8974 379.797 28.1081C373.556 25.3188 366.814 23.8132 359.975 23.6813C353.136 23.5495 346.34 24.7943 339.995 27.341C333.651 29.8878 327.887 33.6841 323.05 38.5026C318.214 43.3211 314.403 49.0626 311.846 55.3832C309.29 61.7038 308.04 68.4734 308.173 75.2865C308.305 82.0996 309.816 88.816 312.616 95.0334C315.416 101.251 319.447 106.841 324.467 111.47C315.748 102.121 310.909 89.8276 310.924 77.0663V77.0663Z" fill="#A84569"/>
</g>
<path d="M410.401 75.2302C410.446 89.1593 405.092 102.538 395.512 112.434C385.933 122.329 372.911 127.934 359.299 128.02C345.688 128.106 332.599 122.665 322.902 112.89C313.205 103.116 307.69 89.8055 307.567 75.8769V75.2302C307.567 61.2748 312.985 47.891 322.627 38.023C332.27 28.1551 345.349 22.6113 358.986 22.6113H359.62C373.148 22.7771 386.066 28.3938 395.573 38.2433C405.081 48.0927 410.405 61.3856 410.401 75.2302Z" fill="#1A2E41"/>
<path d="M395.374 40.2564L322.63 112.988C313.116 103.508 307.707 90.6711 307.567 77.2425V76.6105C307.567 62.9715 312.987 49.8911 322.633 40.2465C332.279 30.6018 345.363 25.1829 359.005 25.1816H359.64C373.065 25.34 385.894 30.7518 395.374 40.2564V40.2564Z" fill="#2C465E"/>
<path d="M410.406 74.0295C410.406 80.7821 409.147 87.4685 406.702 93.7072C404.256 99.9458 400.671 105.614 396.151 110.389C391.632 115.164 386.266 118.952 380.361 121.536C374.456 124.12 368.127 125.45 361.735 125.45C360.812 125.45 359.896 125.423 358.986 125.37C371.401 124.63 383.076 118.898 391.617 109.352C400.158 99.8049 404.917 87.1669 404.917 74.0307C404.917 60.8946 400.158 48.2565 391.617 38.7099C383.076 29.1632 371.401 23.4318 358.986 22.6918C359.896 22.6382 360.812 22.6113 361.735 22.6113C374.643 22.6113 387.023 28.0286 396.15 37.6714C405.278 47.3142 410.406 60.3926 410.406 74.0295Z" fill="#151520"/>
</g>
<path d="M379.815 54.6085C379.928 54.8527 379.987 55.1182 379.987 55.3869V61.6737C379.982 63.641 379.517 65.5801 378.628 67.3377C377.739 69.0953 376.451 70.623 374.865 71.8C372.334 73.7767 369.742 75.6311 367.089 77.496L361.378 81.4432C360.629 81.9834 359.71 82.2386 358.787 82.1625C358.31 82.1072 357.843 81.9858 357.4 81.8018C357.005 81.6054 356.623 81.3863 356.254 81.1457C351.071 77.612 345.887 74.0805 340.825 70.3696C338.534 68.7536 336.306 67.0765 334.015 65.4014C333.713 65.2221 333.473 64.9795 333.166 64.8023C332.319 64.1503 331.74 63.2134 331.539 62.1673C331.485 61.8894 331.464 61.6062 331.477 61.3235V55.638C331.486 55.3967 331.466 55.1552 331.418 54.9186C331.4 54.8836 331.391 54.8449 331.391 54.8057C331.391 54.7665 331.4 54.7279 331.418 54.6929C331.435 54.6586 331.461 54.6289 331.492 54.6064C331.524 54.5837 331.56 54.5679 331.598 54.5599H331.657C331.671 54.661 331.692 54.7611 331.719 54.8595C331.767 55.4466 332.024 55.9976 332.442 56.4143C332.743 56.7953 333.111 57.1196 333.527 57.3721C339.552 61.8614 345.701 66.2326 351.909 70.5426C353.356 71.5616 354.86 72.5173 356.309 73.5341C356.893 73.9415 357.543 74.2448 358.231 74.4307C359.04 74.6228 359.89 74.5381 360.644 74.1902C360.926 74.0672 361.189 73.9061 361.427 73.7113C365.405 70.8992 369.321 68.144 373.308 65.3297C374.091 64.7917 374.814 64.2538 375.532 63.6546C377.42 61.9694 378.799 59.7937 379.512 57.3721C379.622 56.9599 379.703 56.5404 379.754 56.1169C379.805 55.8807 379.826 55.6389 379.815 55.3975V54.6085ZM358.359 45.9231H359.804C362.148 46.0998 364.418 46.8178 366.434 48.0201C367.796 48.8426 369.066 49.8065 370.223 50.8955C370.997 51.5569 371.509 52.4696 371.67 53.4714C371.831 54.4497 371.683 55.4537 371.246 56.3447C371.125 56.6443 370.942 56.8848 370.821 57.1232C370.762 57.2395 370.66 57.3292 370.537 57.3742C370.414 57.4187 370.278 57.4141 370.157 57.3616C370.098 57.3616 370.098 57.3025 370.039 57.3025C369.614 57.0029 369.19 56.7624 368.712 56.4586C366.987 55.2428 365.042 54.3683 362.984 53.8828C361.664 53.5764 360.304 53.476 358.953 53.5853C356.197 53.7853 353.55 54.734 351.3 56.3278C350.451 56.927 349.552 57.4059 348.646 58.0029C348.586 58.0029 348.586 58.0641 348.527 58.0641C348.481 58.0574 348.438 58.0359 348.406 58.0029L343.344 54.5916C343.231 54.5279 343.13 54.4475 343.042 54.3532C342.975 54.3087 342.926 54.2418 342.903 54.1644C342.881 54.0871 342.888 54.0044 342.921 53.9313C342.921 53.8701 342.983 53.8701 343.042 53.811L343.161 53.6908C344.608 52.7351 345.994 51.6529 347.438 50.6318C348.676 49.7289 349.961 48.893 351.289 48.1276C352.837 47.2755 354.502 46.6522 356.231 46.2775C356.92 46.0712 357.633 45.95 358.352 45.9167L358.359 45.9231ZM355.696 46.4083V35.8917C355.707 35.4959 355.874 35.1204 356.163 34.8472C356.451 34.574 356.836 34.4254 357.234 34.4339H360.296C360.694 34.4254 361.079 34.574 361.367 34.8472C361.656 35.1204 361.823 35.4959 361.834 35.8917V46.229C359.785 45.9937 357.712 46.0555 355.681 46.4125L355.696 46.4083ZM379.883 72.146C379.999 72.3895 380.061 72.6549 380.066 72.9244V79.3293C380.011 82.1529 379.039 84.8831 377.295 87.1118C376.539 88.0535 375.669 88.8982 374.704 89.6265C372.158 91.6011 369.517 93.4576 366.854 95.3225L361.55 98.9743C361.094 99.2885 360.582 99.5121 360.041 99.6325C359.318 99.8138 358.556 99.7507 357.873 99.4532C357.381 99.2747 356.916 99.0328 356.487 98.7338C350.581 94.7255 344.674 90.6539 338.888 86.4029C337.08 85.0865 335.281 83.7701 333.463 82.3946C332.569 81.7479 331.967 80.7782 331.785 79.6943C331.732 79.4162 331.712 79.133 331.725 78.8504V73.0489C331.733 72.8285 331.713 72.6079 331.664 72.3928C331.604 72.2114 331.725 72.032 331.846 72.032C331.846 72.1523 331.906 72.2114 331.906 72.3316C331.974 72.9918 332.274 73.6068 332.754 74.0678C333.047 74.3804 333.37 74.6631 333.72 74.9117C339.987 79.5803 346.437 84.1287 352.878 88.559C354.077 89.4028 355.289 90.175 356.434 90.9534C356.922 91.3283 357.473 91.614 358.062 91.7973C358.503 91.947 358.97 92.0082 359.435 91.9774C359.901 91.9467 360.356 91.8245 360.773 91.618C361.069 91.4823 361.352 91.3229 361.622 91.1412C365.961 88.0822 370.302 85.0232 374.64 81.9199C377.038 80.1978 378.797 77.7363 379.643 74.918C379.771 74.4446 379.872 73.9642 379.945 73.4792C379.822 73.0464 379.796 72.592 379.868 72.1481L379.883 72.146ZM360.703 112.307H357.096C356.668 112.303 356.258 112.13 355.957 111.827C355.656 111.524 355.487 111.115 355.488 110.689L355.717 98.179C356.031 97.7417 356.456 97.3946 356.948 97.1727L361.966 96.2064C362.013 96.2064 362.059 96.2157 362.103 96.2338C362.146 96.2519 362.185 96.2785 362.218 96.3119C362.251 96.3453 362.278 96.3848 362.295 96.4282C362.313 96.4717 362.322 96.5182 362.322 96.5651V110.7C362.321 111.125 362.152 111.532 361.851 111.834C361.55 112.137 361.141 112.309 360.714 112.314L360.703 112.307Z" fill="#131621"/>
<path d="M381.034 57.0225C381.147 57.2668 381.205 57.5323 381.206 57.801V64.0877C381.201 66.055 380.736 67.9942 379.847 69.7518C378.958 71.5093 377.67 73.0371 376.084 74.214C373.553 76.1908 370.96 78.0451 368.308 79.9101L362.597 83.8572C361.847 84.3975 360.928 84.6527 360.006 84.5766C359.529 84.5213 359.062 84.3999 358.618 84.2159C358.224 84.0195 357.842 83.8004 357.473 83.5598C352.289 80.0261 347.106 76.4946 342.044 72.7837C339.752 71.1677 337.525 69.4905 335.233 67.8155C334.932 67.6362 334.692 67.3936 334.385 67.2163C333.538 66.5644 332.959 65.6274 332.757 64.5814C332.704 64.3034 332.683 64.0202 332.696 63.7375V58.052C332.705 57.8108 332.685 57.5693 332.636 57.3327C332.619 57.2976 332.609 57.259 332.609 57.2198C332.609 57.1806 332.619 57.1419 332.636 57.1069C332.654 57.0726 332.679 57.043 332.711 57.0204C332.742 56.9978 332.778 56.982 332.817 56.974H332.876C332.89 57.0751 332.911 57.1752 332.938 57.2736C332.986 57.8607 333.242 58.4117 333.661 58.8284C333.962 59.2093 334.329 59.5337 334.745 59.7862C340.771 64.2755 346.919 68.6467 353.128 72.9567C354.575 73.9756 356.079 74.9313 357.528 75.9482C358.112 76.3555 358.762 76.6589 359.45 76.8448C360.259 77.0369 361.109 76.9522 361.862 76.6043C362.144 76.4813 362.408 76.3201 362.645 76.1254C366.624 73.3132 370.54 70.558 374.527 67.7438C375.31 67.2058 376.033 66.6678 376.75 66.0687C378.639 64.3834 380.017 62.2077 380.731 59.7862C380.841 59.374 380.922 58.9545 380.972 58.5309C381.024 58.2947 381.044 58.053 381.034 57.8115V57.0225ZM359.577 48.3371H361.022C363.366 48.5139 365.637 49.2319 367.653 50.4341C369.014 51.2566 370.285 52.2205 371.442 53.3096C372.215 53.971 372.728 54.8837 372.889 55.8854C373.05 56.8638 372.902 57.8678 372.465 58.7588C372.344 59.0583 372.161 59.2988 372.04 59.5372C371.981 59.6536 371.879 59.7433 371.756 59.7883C371.632 59.8327 371.496 59.8282 371.376 59.7756C371.317 59.7756 371.317 59.7166 371.257 59.7166C370.833 59.417 370.409 59.1765 369.931 58.8727C368.205 57.6568 366.261 56.7823 364.203 56.2968C362.883 55.9904 361.523 55.8901 360.172 55.9994C357.416 56.1994 354.769 57.1481 352.519 58.7419C351.67 59.341 350.77 59.8199 349.864 60.417C349.805 60.417 349.805 60.4781 349.746 60.4781C349.7 60.4715 349.657 60.45 349.625 60.417L344.562 57.0057C344.45 56.942 344.349 56.8616 344.261 56.7673C344.194 56.7228 344.144 56.6559 344.122 56.5785C344.1 56.5011 344.106 56.4185 344.14 56.3453C344.14 56.2842 344.202 56.2842 344.261 56.2251L344.38 56.1048C345.827 55.1492 347.212 54.0669 348.657 53.0459C349.895 52.1429 351.18 51.307 352.508 50.5417C354.056 49.6896 355.721 49.0663 357.449 48.6915C358.139 48.4853 358.852 48.3641 359.571 48.3308L359.577 48.3371ZM356.915 48.8223V38.3058C356.925 37.91 357.093 37.5344 357.381 37.2612C357.67 36.9881 358.055 36.8395 358.453 36.848H361.515C361.913 36.8395 362.298 36.9881 362.586 37.2612C362.874 37.5344 363.042 37.91 363.053 38.3058V48.643C361.004 48.4077 358.931 48.4696 356.9 48.8266L356.915 48.8223ZM381.102 74.56C381.218 74.8036 381.28 75.069 381.284 75.3385V81.7434C381.23 84.5669 380.258 87.2971 378.513 89.5258C377.758 90.4676 376.888 91.3123 375.923 92.0405C373.377 94.0152 370.735 95.8716 368.073 97.7366L362.768 101.388C362.313 101.703 361.801 101.926 361.26 102.047C360.537 102.228 359.774 102.165 359.092 101.867C358.6 101.689 358.134 101.447 357.706 101.148C351.799 97.1395 345.893 93.0679 340.107 88.817C338.299 87.5006 336.5 86.1842 334.682 84.8087C333.788 84.162 333.185 83.1923 333.003 82.1083C332.951 81.8303 332.931 81.5471 332.944 81.2645V75.4629C332.952 75.2425 332.931 75.022 332.882 74.8068C332.823 74.6254 332.944 74.4461 333.065 74.4461C333.065 74.5663 333.124 74.6254 333.124 74.7457C333.192 75.4059 333.493 76.0209 333.973 76.4819C334.266 76.7945 334.589 77.0771 334.938 77.3258C341.206 81.9944 347.656 86.5428 354.097 90.973C355.296 91.8169 356.507 92.589 357.653 93.3675C358.141 93.7423 358.692 94.0281 359.28 94.2114C359.722 94.361 360.189 94.4223 360.654 94.3915C361.12 94.3607 361.574 94.2385 361.992 94.032C362.287 93.8964 362.571 93.7369 362.841 93.5553C367.179 90.4963 371.52 87.4373 375.859 84.334C378.257 82.6119 380.016 80.1504 380.862 77.3321C380.99 76.8586 381.091 76.3782 381.163 75.8933C381.041 75.4604 381.015 75.0061 381.087 74.5621L381.102 74.56ZM361.922 114.721H358.315C357.887 114.717 357.477 114.544 357.176 114.241C356.875 113.938 356.706 113.529 356.707 113.103L356.936 100.593C357.25 100.156 357.674 99.8086 358.167 99.5867L363.184 98.6205C363.231 98.6204 363.278 98.6297 363.321 98.6479C363.365 98.666 363.404 98.6925 363.437 98.726C363.47 98.7593 363.496 98.7988 363.514 98.8423C363.532 98.8857 363.541 98.9322 363.541 98.9792V113.114C363.54 113.539 363.37 113.947 363.069 114.249C362.768 114.551 362.36 114.723 361.933 114.728L361.922 114.721Z" fill="#D7E6F4"/>
</g>
</g>
<path d="M517.893 144.567C503.596 144.567 489.621 140.327 477.734 132.385C465.847 124.442 456.583 113.153 451.112 99.945C445.641 86.7368 444.209 72.2028 446.998 58.1818C449.787 44.1598 456.672 31.2808 466.781 21.1714C476.89 11.0624 489.769 4.17805 503.791 1.38895C517.812 -1.40015 532.346 0.0313506 545.554 5.50225C558.762 10.9733 570.051 20.238 577.994 32.1248C585.936 44.0118 590.176 57.9868 590.176 72.2828C590.176 91.4538 582.56 109.84 569.005 123.395C555.449 136.951 537.063 144.567 517.893 144.567Z" fill="#141E27"/>
<path d="M438.697 144.568C452.993 144.568 466.969 140.329 478.856 132.386C490.742 124.444 500.007 113.155 505.478 99.946C510.949 86.7382 512.381 72.2052 509.591 58.1832C506.802 44.1622 499.918 31.2822 489.809 21.1732C479.7 11.0642 466.821 4.1799 452.799 1.3909C438.777 -1.3982 424.244 0.0332999 411.036 5.5042C397.828 10.9751 386.539 20.2399 378.596 32.1272C370.653 44.0132 366.414 57.9892 366.414 72.2852C366.414 91.4562 374.03 109.841 387.585 123.397C401.141 136.953 419.527 144.568 438.697 144.568Z" fill="#141E27"/>
<g opacity="0.5">
<g clip-path="url(#clip3_8231_563)">
<path d="M489.913 124.035C518.031 96.0238 518.031 50.6091 489.913 22.5981C461.795 -5.41282 416.207 -5.41282 388.09 22.5981C359.972 50.6091 359.972 96.0238 388.09 124.035C416.207 152.046 461.795 152.046 489.913 124.035Z" fill="#4A5C6B"/>
<path d="M488.612 122.738C516.011 95.4433 516.011 51.1895 488.612 23.8946C461.212 -3.40034 416.79 -3.40034 389.391 23.8946C361.992 51.1895 361.992 95.4433 389.391 122.738C416.79 150.033 461.212 150.033 488.612 122.738Z" fill="#384E61"/>
<path d="M488.749 24.0371L389.534 122.874C396.241 129.516 404.225 134.741 413.009 138.233L504.168 47.4227C500.661 38.6727 495.417 30.7185 488.749 24.0371V24.0371Z" fill="#4A5C6B"/>
<path d="M479.507 16.2637L381.731 113.666C382.871 115.268 384.073 116.82 385.338 118.323L484.179 19.8573C482.675 18.594 481.118 17.3961 479.507 16.2637Z" fill="#4A5C6B"/>
<g style="mix-blend-mode:soft-light">
<path d="M440.381 125.256C468.458 125.256 491.218 102.582 491.218 74.6126C491.218 46.6428 468.458 23.9688 440.381 23.9688C412.305 23.9688 389.544 46.6428 389.544 74.6126C389.544 102.582 412.305 125.256 440.381 125.256Z" fill="#8C3F56"/>
</g>
<path d="M474.948 109.127C494.801 89.3494 494.801 57.2834 474.948 37.5058C455.095 17.7281 422.907 17.7281 403.054 37.5058C383.201 57.2834 383.201 89.3494 403.054 109.127C422.907 128.905 455.095 128.905 474.948 109.127Z" fill="#D20398"/>
<g style="mix-blend-mode:multiply">
<path d="M390.924 76.0663C390.922 66.2152 393.805 56.5776 399.219 48.3342C404.633 40.0908 412.343 33.5997 421.405 29.6562C430.466 25.7128 440.486 24.4882 450.236 26.1326C459.986 27.7771 469.042 32.219 476.296 38.9142C471.65 33.913 466.038 29.8974 459.797 27.1081C453.556 24.3188 446.814 22.8132 439.975 22.6813C433.136 22.5495 426.34 23.7943 419.995 26.341C413.651 28.8878 407.887 32.6841 403.05 37.5026C398.214 42.3211 394.403 48.0626 391.846 54.3832C389.29 60.7038 388.04 67.4734 388.173 74.2865C388.305 81.0996 389.816 87.816 392.616 94.0334C395.416 100.251 399.447 105.841 404.467 110.47C395.748 101.121 390.909 88.8276 390.924 76.0663V76.0663Z" fill="#A84569"/>
</g>
<path d="M490.401 74.2302C490.446 88.1593 485.092 101.538 475.512 111.434C465.933 121.329 452.911 126.934 439.299 127.02C425.688 127.106 412.599 121.665 402.902 111.89C393.205 102.116 387.69 88.8055 387.567 74.8769V74.2302C387.567 60.2748 392.985 46.891 402.627 37.023C412.27 27.1551 425.349 21.6113 438.986 21.6113H439.62C453.148 21.7771 466.066 27.3938 475.573 37.2433C485.081 47.0927 490.405 60.3856 490.401 74.2302Z" fill="#1A2E41"/>
<path d="M475.374 39.2564L402.63 111.988C393.116 102.508 387.707 89.6711 387.567 76.2425V75.6105C387.567 61.9715 392.987 48.8911 402.633 39.2465C412.279 29.6018 425.363 24.1829 439.005 24.1816H439.64C453.065 24.34 465.894 29.7518 475.374 39.2564V39.2564Z" fill="#2C465E"/>
<path d="M490.406 73.0295C490.406 79.7821 489.147 86.4685 486.702 92.7072C484.256 98.9458 480.671 104.614 476.151 109.389C471.632 114.164 466.266 117.952 460.361 120.536C454.456 123.12 448.127 124.45 441.735 124.45C440.812 124.45 439.896 124.423 438.986 124.37C451.401 123.63 463.076 117.898 471.617 108.352C480.158 98.8049 484.917 86.1669 484.917 73.0307C484.917 59.8946 480.158 47.2565 471.617 37.7099C463.076 28.1632 451.401 22.4318 438.986 21.6918C439.896 21.6382 440.812 21.6113 441.735 21.6113C454.643 21.6113 467.023 27.0286 476.15 36.6714C485.278 46.3142 490.406 59.3926 490.406 73.0295Z" fill="#151520"/>
</g>
<path d="M459.815 53.6085C459.928 53.8527 459.987 54.1182 459.987 54.3869V60.6737C459.982 62.641 459.517 64.5801 458.628 66.3377C457.739 68.0953 456.451 69.623 454.865 70.8C452.334 72.7767 449.742 74.6311 447.089 76.496L441.378 80.4432C440.629 80.9834 439.71 81.2386 438.787 81.1625C438.31 81.1072 437.843 80.9858 437.4 80.8018C437.005 80.6054 436.623 80.3863 436.254 80.1457C431.071 76.612 425.887 73.0805 420.825 69.3696C418.534 67.7536 416.306 66.0765 414.015 64.4014C413.713 64.2221 413.473 63.9795 413.166 63.8023C412.319 63.1503 411.74 62.2134 411.539 61.1673C411.485 60.8894 411.464 60.6062 411.477 60.3235V54.638C411.486 54.3967 411.466 54.1552 411.418 53.9186C411.4 53.8836 411.391 53.8449 411.391 53.8057C411.391 53.7665 411.4 53.7279 411.418 53.6929C411.435 53.6586 411.461 53.6289 411.492 53.6064C411.524 53.5837 411.56 53.5679 411.598 53.5599H411.657C411.671 53.661 411.692 53.7611 411.719 53.8595C411.767 54.4466 412.024 54.9976 412.442 55.4143C412.743 55.7953 413.111 56.1196 413.527 56.3721C419.552 60.8614 425.701 65.2326 431.909 69.5426C433.356 70.5616 434.86 71.5173 436.309 72.5341C436.893 72.9415 437.543 73.2448 438.231 73.4307C439.04 73.6228 439.89 73.5381 440.644 73.1902C440.926 73.0672 441.189 72.9061 441.427 72.7113C445.405 69.8992 449.321 67.144 453.308 64.3297C454.091 63.7917 454.814 63.2538 455.532 62.6546C457.42 60.9694 458.799 58.7937 459.512 56.3721C459.622 55.9599 459.703 55.5404 459.754 55.1169C459.805 54.8807 459.826 54.6389 459.815 54.3975V53.6085ZM438.359 44.9231H439.804C442.148 45.0998 444.418 45.8178 446.434 47.0201C447.796 47.8426 449.066 48.8065 450.223 49.8955C450.997 50.5569 451.509 51.4696 451.67 52.4714C451.831 53.4497 451.683 54.4537 451.246 55.3447C451.125 55.6443 450.942 55.8848 450.821 56.1232C450.762 56.2395 450.66 56.3292 450.537 56.3742C450.414 56.4187 450.278 56.4141 450.157 56.3616C450.098 56.3616 450.098 56.3025 450.039 56.3025C449.614 56.0029 449.19 55.7624 448.712 55.4586C446.987 54.2428 445.042 53.3683 442.984 52.8828C441.664 52.5764 440.304 52.476 438.953 52.5853C436.197 52.7853 433.55 53.734 431.3 55.3278C430.451 55.927 429.552 56.4059 428.646 57.0029C428.586 57.0029 428.586 57.0641 428.527 57.0641C428.481 57.0574 428.438 57.0359 428.406 57.0029L423.344 53.5916C423.231 53.5279 423.13 53.4475 423.042 53.3532C422.975 53.3087 422.926 53.2418 422.903 53.1644C422.881 53.0871 422.888 53.0044 422.921 52.9313C422.921 52.8701 422.983 52.8701 423.042 52.811L423.161 52.6908C424.608 51.7351 425.994 50.6529 427.438 49.6318C428.676 48.7289 429.961 47.893 431.289 47.1276C432.837 46.2755 434.502 45.6522 436.231 45.2775C436.92 45.0712 437.633 44.95 438.352 44.9167L438.359 44.9231ZM435.696 45.4083V34.8917C435.707 34.4959 435.874 34.1204 436.163 33.8472C436.451 33.574 436.836 33.4254 437.234 33.4339H440.296C440.694 33.4254 441.079 33.574 441.367 33.8472C441.656 34.1204 441.823 34.4959 441.834 34.8917V45.229C439.785 44.9937 437.712 45.0555 435.681 45.4125L435.696 45.4083ZM459.883 71.146C459.999 71.3895 460.061 71.6549 460.066 71.9244V78.3293C460.011 81.1529 459.039 83.8831 457.295 86.1118C456.539 87.0535 455.669 87.8982 454.704 88.6265C452.158 90.6011 449.517 92.4576 446.854 94.3225L441.55 97.9743C441.094 98.2885 440.582 98.5121 440.041 98.6325C439.318 98.8138 438.556 98.7507 437.873 98.4532C437.381 98.2747 436.916 98.0328 436.487 97.7338C430.581 93.7255 424.674 89.6539 418.888 85.4029C417.08 84.0865 415.281 82.7701 413.463 81.3946C412.569 80.7479 411.967 79.7782 411.785 78.6943C411.732 78.4162 411.712 78.133 411.725 77.8504V72.0489C411.733 71.8285 411.713 71.6079 411.664 71.3928C411.604 71.2114 411.725 71.032 411.846 71.032C411.846 71.1523 411.906 71.2114 411.906 71.3316C411.974 71.9918 412.274 72.6068 412.754 73.0678C413.047 73.3804 413.37 73.6631 413.72 73.9117C419.987 78.5803 426.437 83.1287 432.878 87.559C434.077 88.4028 435.289 89.175 436.434 89.9534C436.922 90.3283 437.473 90.614 438.062 90.7973C438.503 90.947 438.97 91.0082 439.435 90.9774C439.901 90.9467 440.356 90.8245 440.773 90.618C441.069 90.4823 441.352 90.3229 441.622 90.1412C445.961 87.0822 450.302 84.0232 454.64 80.9199C457.038 79.1978 458.797 76.7363 459.643 73.918C459.771 73.4446 459.872 72.9642 459.945 72.4792C459.822 72.0464 459.796 71.592 459.868 71.1481L459.883 71.146ZM440.703 111.307H437.096C436.668 111.303 436.258 111.13 435.957 110.827C435.656 110.524 435.487 110.115 435.488 109.689L435.717 97.179C436.031 96.7417 436.456 96.3946 436.948 96.1727L441.966 95.2064C442.013 95.2064 442.059 95.2157 442.103 95.2338C442.146 95.2519 442.185 95.2785 442.218 95.3119C442.251 95.3453 442.278 95.3848 442.295 95.4282C442.313 95.4717 442.322 95.5182 442.322 95.5651V109.7C442.321 110.125 442.152 110.532 441.851 110.834C441.55 111.137 441.141 111.309 440.714 111.314L440.703 111.307Z" fill="#131621"/>
<path d="M461.034 56.0225C461.147 56.2668 461.205 56.5323 461.206 56.801V63.0877C461.201 65.055 460.736 66.9942 459.847 68.7518C458.958 70.5093 457.67 72.0371 456.084 73.214C453.553 75.1908 450.96 77.0451 448.308 78.9101L442.597 82.8572C441.847 83.3975 440.928 83.6527 440.006 83.5766C439.529 83.5213 439.062 83.3999 438.618 83.2159C438.224 83.0195 437.842 82.8004 437.473 82.5598C432.289 79.0261 427.106 75.4946 422.044 71.7837C419.752 70.1677 417.525 68.4905 415.233 66.8155C414.932 66.6362 414.692 66.3936 414.385 66.2163C413.538 65.5644 412.959 64.6274 412.757 63.5814C412.704 63.3034 412.683 63.0202 412.696 62.7375V57.052C412.705 56.8108 412.685 56.5693 412.636 56.3327C412.619 56.2976 412.609 56.259 412.609 56.2198C412.609 56.1806 412.619 56.1419 412.636 56.1069C412.654 56.0726 412.679 56.043 412.711 56.0204C412.742 55.9978 412.778 55.982 412.817 55.974H412.876C412.89 56.0751 412.911 56.1752 412.938 56.2736C412.986 56.8607 413.242 57.4117 413.661 57.8284C413.962 58.2093 414.329 58.5337 414.745 58.7862C420.771 63.2755 426.919 67.6467 433.128 71.9567C434.575 72.9756 436.079 73.9313 437.528 74.9482C438.112 75.3555 438.762 75.6589 439.45 75.8448C440.259 76.0369 441.109 75.9522 441.862 75.6043C442.144 75.4813 442.408 75.3201 442.645 75.1254C446.624 72.3132 450.54 69.558 454.527 66.7438C455.31 66.2058 456.033 65.6678 456.75 65.0687C458.639 63.3834 460.017 61.2077 460.731 58.7862C460.841 58.374 460.922 57.9545 460.972 57.5309C461.024 57.2947 461.044 57.053 461.034 56.8115V56.0225ZM439.577 47.3371H441.022C443.366 47.5139 445.637 48.2319 447.653 49.4341C449.014 50.2566 450.285 51.2205 451.442 52.3096C452.215 52.971 452.728 53.8837 452.889 54.8854C453.05 55.8638 452.902 56.8678 452.465 57.7588C452.344 58.0583 452.161 58.2988 452.04 58.5372C451.981 58.6536 451.879 58.7433 451.756 58.7883C451.632 58.8327 451.496 58.8282 451.376 58.7756C451.317 58.7756 451.317 58.7166 451.257 58.7166C450.833 58.417 450.409 58.1765 449.931 57.8727C448.205 56.6568 446.261 55.7823 444.203 55.2968C442.883 54.9904 441.523 54.8901 440.172 54.9994C437.416 55.1994 434.769 56.1481 432.519 57.7419C431.67 58.341 430.77 58.8199 429.864 59.417C429.805 59.417 429.805 59.4781 429.746 59.4781C429.7 59.4715 429.657 59.45 429.625 59.417L424.562 56.0057C424.45 55.942 424.349 55.8616 424.261 55.7673C424.194 55.7228 424.144 55.6559 424.122 55.5785C424.1 55.5011 424.106 55.4185 424.14 55.3453C424.14 55.2842 424.202 55.2842 424.261 55.2251L424.38 55.1048C425.827 54.1492 427.212 53.0669 428.657 52.0459C429.895 51.1429 431.18 50.307 432.508 49.5417C434.056 48.6896 435.721 48.0663 437.449 47.6915C438.139 47.4853 438.852 47.3641 439.571 47.3308L439.577 47.3371ZM436.915 47.8223V37.3058C436.925 36.91 437.093 36.5344 437.381 36.2612C437.67 35.9881 438.055 35.8395 438.453 35.848H441.515C441.913 35.8395 442.298 35.9881 442.586 36.2612C442.874 36.5344 443.042 36.91 443.053 37.3058V47.643C441.004 47.4077 438.931 47.4696 436.9 47.8266L436.915 47.8223ZM461.102 73.56C461.218 73.8036 461.28 74.069 461.284 74.3385V80.7434C461.23 83.5669 460.258 86.2971 458.513 88.5258C457.758 89.4676 456.888 90.3123 455.923 91.0405C453.377 93.0152 450.735 94.8716 448.073 96.7366L442.768 100.388C442.313 100.703 441.801 100.926 441.26 101.047C440.537 101.228 439.774 101.165 439.092 100.867C438.6 100.689 438.134 100.447 437.706 100.148C431.799 96.1395 425.893 92.0679 420.107 87.817C418.299 86.5006 416.5 85.1842 414.682 83.8087C413.788 83.162 413.185 82.1923 413.003 81.1083C412.951 80.8303 412.931 80.5471 412.944 80.2645V74.4629C412.952 74.2425 412.931 74.022 412.882 73.8068C412.823 73.6254 412.944 73.4461 413.065 73.4461C413.065 73.5663 413.124 73.6254 413.124 73.7457C413.192 74.4059 413.493 75.0209 413.973 75.4819C414.266 75.7945 414.589 76.0771 414.938 76.3258C421.206 80.9944 427.656 85.5428 434.097 89.973C435.296 90.8169 436.507 91.589 437.653 92.3675C438.141 92.7423 438.692 93.0281 439.28 93.2114C439.722 93.361 440.189 93.4223 440.654 93.3915C441.12 93.3607 441.574 93.2385 441.992 93.032C442.287 92.8964 442.571 92.7369 442.841 92.5553C447.179 89.4963 451.52 86.4373 455.859 83.334C458.257 81.6119 460.016 79.1504 460.862 76.3321C460.99 75.8586 461.091 75.3782 461.163 74.8933C461.041 74.4604 461.015 74.0061 461.087 73.5621L461.102 73.56ZM441.922 113.721H438.315C437.887 113.717 437.477 113.544 437.176 113.241C436.875 112.938 436.706 112.529 436.707 112.103L436.936 99.593C437.25 99.1558 437.674 98.8086 438.167 98.5867L443.184 97.6205C443.231 97.6204 443.278 97.6297 443.321 97.6479C443.365 97.666 443.404 97.6925 443.437 97.726C443.47 97.7593 443.496 97.7988 443.514 97.8423C443.532 97.8857 443.541 97.9322 443.541 97.9792V112.114C443.54 112.539 443.37 112.947 443.069 113.249C442.768 113.551 442.36 113.723 441.933 113.728L441.922 113.721Z" fill="#D7E6F4"/>
</g>
<g clip-path="url(#clip4_8231_563)">
<path d="M568.913 123.035C597.031 95.0238 597.031 49.6091 568.913 21.5981C540.795 -6.41282 495.207 -6.41282 467.09 21.5981C438.972 49.6091 438.972 95.0238 467.09 123.035C495.207 151.046 540.795 151.046 568.913 123.035Z" fill="#4A5C6B"/>
<path d="M567.612 121.738C595.011 94.4433 595.011 50.1895 567.612 22.8946C540.212 -4.40034 495.79 -4.40034 468.391 22.8946C440.992 50.1895 440.992 94.4433 468.391 121.738C495.79 149.033 540.212 149.033 567.612 121.738Z" fill="#384E61"/>
<path d="M567.749 23.0371L468.534 121.874C475.241 128.516 483.225 133.741 492.009 137.233L583.168 46.4227C579.661 37.6727 574.417 29.7185 567.749 23.0371V23.0371Z" fill="#4A5C6B"/>
<path d="M558.507 15.2637L460.731 112.666C461.871 114.268 463.073 115.82 464.338 117.323L563.179 18.8573C561.675 17.594 560.118 16.3961 558.507 15.2637Z" fill="#4A5C6B"/>
<g style="mix-blend-mode:soft-light">
<path d="M519.381 124.256C547.458 124.256 570.218 101.582 570.218 73.6126C570.218 45.6428 547.458 22.9688 519.381 22.9688C491.305 22.9688 468.544 45.6428 468.544 73.6126C468.544 101.582 491.305 124.256 519.381 124.256Z" fill="#8C3F56"/>
</g>
<path d="M553.948 108.127C573.801 88.3494 573.801 56.2834 553.948 36.5058C534.095 16.7281 501.907 16.7281 482.054 36.5058C462.201 56.2834 462.201 88.3494 482.054 108.127C501.907 127.905 534.095 127.905 553.948 108.127Z" fill="#D20398"/>
<g style="mix-blend-mode:multiply">
<path d="M469.924 75.0663C469.922 65.2152 472.805 55.5776 478.219 47.3342C483.633 39.0908 491.343 32.5997 500.405 28.6562C509.466 24.7128 519.486 23.4882 529.236 25.1326C538.986 26.7771 548.042 31.219 555.296 37.9142C550.65 32.913 545.038 28.8974 538.797 26.1081C532.556 23.3188 525.814 21.8132 518.975 21.6813C512.136 21.5495 505.34 22.7943 498.995 25.341C492.651 27.8878 486.887 31.6841 482.05 36.5026C477.214 41.3211 473.403 47.0626 470.846 53.3832C468.29 59.7038 467.04 66.4734 467.173 73.2865C467.305 80.0996 468.816 86.816 471.616 93.0334C474.416 99.2508 478.447 104.841 483.467 109.47C474.748 100.121 469.909 87.8276 469.924 75.0663V75.0663Z" fill="#A84569"/>
</g>
<path d="M569.401 73.2302C569.446 87.1593 564.092 100.538 554.512 110.434C544.933 120.329 531.911 125.934 518.299 126.02C504.688 126.106 491.599 120.665 481.902 110.89C472.205 101.116 466.69 87.8055 466.567 73.8769V73.2302C466.567 59.2748 471.985 45.891 481.627 36.023C491.27 26.1551 504.349 20.6113 517.986 20.6113H518.62C532.148 20.7771 545.066 26.3938 554.573 36.2433C564.081 46.0927 569.405 59.3856 569.401 73.2302Z" fill="#1A2E41"/>
<path d="M554.374 38.2564L481.63 110.988C472.116 101.508 466.707 88.6711 466.567 75.2425V74.6105C466.567 60.9715 471.987 47.8911 481.633 38.2465C491.279 28.6018 504.363 23.1829 518.005 23.1816H518.64C532.065 23.34 544.894 28.7518 554.374 38.2564V38.2564Z" fill="#2C465E"/>
<path d="M569.406 72.0295C569.406 78.7821 568.147 85.4685 565.702 91.7072C563.256 97.9458 559.671 103.614 555.151 108.389C550.632 113.164 545.266 116.952 539.361 119.536C533.456 122.12 527.127 123.45 520.735 123.45C519.812 123.45 518.896 123.423 517.986 123.37C530.401 122.63 542.076 116.898 550.617 107.352C559.158 97.8049 563.917 85.1669 563.917 72.0307C563.917 58.8946 559.158 46.2565 550.617 36.7099C542.076 27.1632 530.401 21.4318 517.986 20.6918C518.896 20.6382 519.812 20.6113 520.735 20.6113C533.643 20.6113 546.023 26.0286 555.15 35.6714C564.278 45.3142 569.406 58.3926 569.406 72.0295Z" fill="#151520"/>
</g>
<path d="M538.815 52.6085C538.928 52.8527 538.987 53.1182 538.987 53.3869V59.6737C538.982 61.641 538.517 63.5801 537.628 65.3377C536.739 67.0953 535.451 68.623 533.865 69.8C531.334 71.7767 528.742 73.6311 526.089 75.496L520.378 79.4432C519.629 79.9834 518.71 80.2386 517.787 80.1625C517.31 80.1072 516.843 79.9858 516.4 79.8018C516.005 79.6054 515.623 79.3863 515.254 79.1457C510.071 75.612 504.887 72.0805 499.825 68.3696C497.534 66.7536 495.306 65.0765 493.015 63.4014C492.713 63.2221 492.473 62.9795 492.166 62.8023C491.319 62.1503 490.74 61.2134 490.539 60.1673C490.485 59.8894 490.464 59.6062 490.477 59.3235V53.638C490.486 53.3967 490.466 53.1552 490.418 52.9186C490.4 52.8836 490.391 52.8449 490.391 52.8057C490.391 52.7665 490.4 52.7279 490.418 52.6929C490.435 52.6586 490.461 52.6289 490.492 52.6064C490.524 52.5837 490.56 52.5679 490.598 52.5599H490.657C490.671 52.661 490.692 52.7611 490.719 52.8595C490.767 53.4466 491.024 53.9976 491.442 54.4143C491.743 54.7953 492.111 55.1196 492.527 55.3721C498.552 59.8614 504.701 64.2326 510.909 68.5426C512.356 69.5616 513.86 70.5173 515.309 71.5341C515.893 71.9415 516.543 72.2448 517.231 72.4307C518.04 72.6228 518.89 72.5381 519.644 72.1902C519.926 72.0672 520.189 71.9061 520.427 71.7113C524.405 68.8992 528.321 66.144 532.308 63.3297C533.091 62.7917 533.814 62.2538 534.532 61.6546C536.42 59.9694 537.799 57.7937 538.512 55.3721C538.622 54.9599 538.703 54.5404 538.754 54.1169C538.805 53.8807 538.826 53.6389 538.815 53.3975V52.6085ZM517.359 43.9231H518.804C521.148 44.0998 523.418 44.8178 525.434 46.0201C526.796 46.8426 528.066 47.8065 529.223 48.8955C529.997 49.5569 530.509 50.4696 530.67 51.4714C530.831 52.4497 530.683 53.4537 530.246 54.3447C530.125 54.6443 529.942 54.8848 529.821 55.1232C529.762 55.2395 529.66 55.3292 529.537 55.3742C529.414 55.4187 529.278 55.4141 529.157 55.3616C529.098 55.3616 529.098 55.3025 529.039 55.3025C528.614 55.0029 528.19 54.7624 527.712 54.4586C525.987 53.2428 524.042 52.3683 521.984 51.8828C520.664 51.5764 519.304 51.476 517.953 51.5853C515.197 51.7853 512.55 52.734 510.3 54.3278C509.451 54.927 508.552 55.4059 507.646 56.0029C507.586 56.0029 507.586 56.0641 507.527 56.0641C507.481 56.0574 507.438 56.0359 507.406 56.0029L502.344 52.5916C502.231 52.5279 502.13 52.4475 502.042 52.3532C501.975 52.3087 501.926 52.2418 501.903 52.1644C501.881 52.0871 501.888 52.0044 501.921 51.9313C501.921 51.8701 501.983 51.8701 502.042 51.811L502.161 51.6908C503.608 50.7351 504.994 49.6529 506.438 48.6318C507.676 47.7289 508.961 46.893 510.289 46.1276C511.837 45.2755 513.502 44.6522 515.231 44.2775C515.92 44.0712 516.633 43.95 517.352 43.9167L517.359 43.9231ZM514.696 44.4083V33.8917C514.707 33.4959 514.874 33.1204 515.163 32.8472C515.451 32.574 515.836 32.4254 516.234 32.4339H519.296C519.694 32.4254 520.079 32.574 520.367 32.8472C520.656 33.1204 520.823 33.4959 520.834 33.8917V44.229C518.785 43.9937 516.712 44.0555 514.681 44.4125L514.696 44.4083ZM538.883 70.146C538.999 70.3895 539.061 70.6549 539.066 70.9244V77.3293C539.011 80.1529 538.039 82.8831 536.295 85.1118C535.539 86.0535 534.669 86.8982 533.704 87.6265C531.158 89.6011 528.517 91.4576 525.854 93.3225L520.55 96.9743C520.094 97.2885 519.582 97.5121 519.041 97.6325C518.318 97.8138 517.556 97.7507 516.873 97.4532C516.381 97.2747 515.916 97.0328 515.487 96.7338C509.581 92.7255 503.674 88.6539 497.888 84.4029C496.08 83.0865 494.281 81.7701 492.463 80.3946C491.569 79.7479 490.967 78.7782 490.785 77.6943C490.732 77.4162 490.712 77.133 490.725 76.8504V71.0489C490.733 70.8285 490.713 70.6079 490.664 70.3928C490.604 70.2114 490.725 70.032 490.846 70.032C490.846 70.1523 490.906 70.2114 490.906 70.3316C490.974 70.9918 491.274 71.6068 491.754 72.0678C492.047 72.3804 492.37 72.6631 492.72 72.9117C498.987 77.5803 505.437 82.1287 511.878 86.559C513.077 87.4028 514.289 88.175 515.434 88.9534C515.922 89.3283 516.473 89.614 517.062 89.7973C517.503 89.947 517.97 90.0082 518.435 89.9774C518.901 89.9467 519.356 89.8245 519.773 89.618C520.069 89.4823 520.352 89.3229 520.622 89.1412C524.961 86.0822 529.302 83.0232 533.64 79.9199C536.038 78.1978 537.797 75.7363 538.643 72.918C538.771 72.4446 538.872 71.9642 538.945 71.4792C538.822 71.0464 538.796 70.592 538.868 70.1481L538.883 70.146ZM519.703 110.307H516.096C515.668 110.303 515.258 110.13 514.957 109.827C514.656 109.524 514.487 109.115 514.488 108.689L514.717 96.179C515.031 95.7417 515.456 95.3946 515.948 95.1727L520.966 94.2064C521.013 94.2064 521.059 94.2157 521.103 94.2338C521.146 94.2519 521.185 94.2785 521.218 94.3119C521.251 94.3453 521.278 94.3848 521.295 94.4282C521.313 94.4717 521.322 94.5182 521.322 94.5651V108.7C521.321 109.125 521.152 109.532 520.851 109.834C520.55 110.137 520.141 110.309 519.714 110.314L519.703 110.307Z" fill="#131621"/>
<path d="M540.034 55.0225C540.147 55.2668 540.205 55.5323 540.206 55.801V62.0877C540.201 64.055 539.736 65.9942 538.847 67.7518C537.958 69.5093 536.67 71.0371 535.084 72.214C532.553 74.1908 529.96 76.0452 527.308 77.9101L521.597 81.8572C520.847 82.3975 519.928 82.6527 519.006 82.5766C518.529 82.5213 518.062 82.3999 517.618 82.2159C517.224 82.0195 516.842 81.8004 516.473 81.5598C511.289 78.0261 506.106 74.4946 501.044 70.7837C498.752 69.1677 496.525 67.4905 494.233 65.8155C493.932 65.6362 493.692 65.3936 493.385 65.2163C492.538 64.5644 491.959 63.6274 491.757 62.5814C491.704 62.3034 491.683 62.0202 491.696 61.7375V56.052C491.695 55.8477 491.636 55.3327 491.636 55.3327L491.609 55.2198C491.609 55.2198 491.619 55.1419 491.636 55.1069C491.654 55.0726 491.679 55.043 491.711 55.0204C491.742 54.9978 491.778 54.982 491.817 54.974H491.876C491.89 55.0751 491.875 55.0042 491.938 55.2736C492 55.543 492.242 56.4117 492.661 56.8284C492.962 57.2093 493.329 57.5337 493.745 57.7862C499.771 62.2755 505.919 66.6467 512.128 70.9567C513.575 71.9756 515.079 72.9313 516.528 73.9482C517.112 74.3555 517.762 74.6589 518.45 74.8448C519.259 75.0369 520.109 74.9522 520.862 74.6043C521.144 74.4813 521.408 74.3201 521.645 74.1254C525.624 71.3132 529.54 68.558 533.527 65.7438C534.31 65.2058 535.033 64.6678 535.75 64.0687C537.639 62.3834 539.017 60.2077 539.731 57.7862C539.841 57.374 539.922 56.9545 539.972 56.5309C540.024 56.2947 540.044 56.053 540.034 55.8115V55.0225ZM518.577 46.3371H520.022C522.366 46.5139 524.637 47.2319 526.653 48.4341C528.014 49.2566 529.285 50.2205 530.442 51.3096C531.215 51.971 531.728 52.8837 531.889 53.8854C532.05 54.8638 531.902 55.8678 531.465 56.7588C531.344 57.0583 531.161 57.2988 531.04 57.5372C530.981 57.6536 530.879 57.7433 530.756 57.7883C530.632 57.8327 530.496 57.8282 530.376 57.7756C530.317 57.7756 530.317 57.7166 530.257 57.7166C529.833 57.417 529.409 57.1765 528.931 56.8727C527.205 55.6568 525.261 54.7823 523.203 54.2968C521.883 53.9904 520.523 53.8901 519.172 53.9994C516.416 54.1994 513.769 55.1481 511.519 56.7419C510.67 57.341 509.77 57.8199 508.864 58.417C508.805 58.417 508.805 58.4781 508.746 58.4781C508.7 58.4715 508.657 58.45 508.625 58.417L503.562 55.0057C503.45 54.942 503.349 54.8616 503.261 54.7673C503.194 54.7228 503.144 54.6559 503.122 54.5785C503.1 54.5011 503.106 54.4185 503.14 54.3453C503.14 54.2842 503.202 54.2842 503.261 54.2251L503.38 54.1048C504.827 53.1492 506.212 52.0669 507.657 51.0459C508.895 50.1429 510.18 49.307 511.508 48.5417C513.056 47.6896 514.721 47.0663 516.449 46.6915C517.139 46.4853 517.852 46.3641 518.571 46.3308L518.577 46.3371ZM515.915 46.8223V36.3058C515.925 35.91 516.093 35.5344 516.381 35.2612C516.67 34.9881 517.055 34.8395 517.453 34.848H520.515C520.913 34.8395 521.298 34.9881 521.586 35.2612C521.874 35.5344 522.042 35.91 522.053 36.3058V46.643C520.004 46.4077 517.931 46.4696 515.9 46.8266L515.915 46.8223ZM540.102 72.56C540.218 72.8036 540.28 73.069 540.284 73.3385V79.7434C540.23 82.5669 539.258 85.2971 537.513 87.5258C536.758 88.4676 535.888 89.3123 534.923 90.0405C532.377 92.0152 529.735 93.8716 527.073 95.7366L521.768 99.3884C521.313 99.7026 520.801 99.9261 520.26 100.047C519.537 100.228 518.774 100.165 518.092 99.8673C517.6 99.6887 517.134 99.4469 516.706 99.1479C510.799 95.1395 504.893 91.0679 499.107 86.817C497.299 85.5006 495.5 84.1842 493.682 82.8087C492.788 82.162 492.185 81.1923 492.003 80.1083C491.951 79.8303 491.931 79.5471 491.944 79.2645V73.4629C491.952 73.2425 491.931 73.022 491.882 72.8068C491.823 72.6254 491.944 72.4461 492.065 72.4461C492.065 72.5663 492.124 72.6254 492.124 72.7457C492.192 73.4058 492.493 74.0209 492.973 74.4819C493.266 74.7945 493.589 75.0771 493.938 75.3258C500.206 79.9944 506.656 84.5428 513.097 88.973C514.296 89.8169 515.507 90.589 516.653 91.3675C517.141 91.7423 517.692 92.0281 518.28 92.2114C518.722 92.361 519.189 92.4223 519.654 92.3915C520.12 92.3607 520.574 92.2385 520.992 92.032C521.287 91.8964 521.571 91.7369 521.841 91.5553C526.179 88.4963 530.52 85.4373 534.859 82.334C537.257 80.6119 539.016 78.1504 539.862 75.3321C539.99 74.8586 540.091 74.3782 540.163 73.8933C540.041 73.4604 540.015 73.0061 540.087 72.5621L540.102 72.56ZM520.922 112.721H517.315C516.887 112.717 516.477 112.544 516.176 112.241C515.875 111.938 515.706 111.529 515.707 111.103L515.936 98.593C516.25 98.1558 516.674 97.8086 517.167 97.5867L522.184 96.6205C522.231 96.6204 522.278 96.6297 522.321 96.6479C522.365 96.666 522.404 96.6925 522.437 96.726C522.47 96.7593 522.496 96.7988 522.514 96.8423C522.532 96.8857 522.541 96.9322 522.541 96.9792V111.114C522.54 111.539 522.37 111.947 522.069 112.249C521.768 112.551 521.36 112.723 520.933 112.728L520.922 112.721Z" fill="#D7E6F4"/>
<defs>
<linearGradient id="paint0_linear_8231_563" x1="179.5" y1="74" x2="-34.5" y2="74" gradientUnits="userSpaceOnUse">
<stop stop-color="#7E7E7E"/>
<stop offset="1" stop-color="#7E7E7E" stop-opacity="0"/>
</linearGradient>
<linearGradient id="paint1_linear_8231_563" x1="179.5" y1="74" x2="-34.5" y2="74" gradientUnits="userSpaceOnUse">
<stop stop-color="#7E7E7E"/>
<stop offset="1" stop-color="#7E7E7E" stop-opacity="0"/>
</linearGradient>
<linearGradient id="paint2_linear_8231_563" x1="179.5" y1="74" x2="-34.5" y2="74" gradientUnits="userSpaceOnUse">
<stop stop-color="#7E7E7E"/>
<stop offset="1" stop-color="#7E7E7E" stop-opacity="0"/>
</linearGradient>
<linearGradient id="paint3_linear_8231_563" x1="179.5" y1="74" x2="-34.5" y2="74" gradientUnits="userSpaceOnUse">
<stop stop-color="#7E7E7E"/>
<stop offset="1" stop-color="#7E7E7E" stop-opacity="0"/>
</linearGradient>
<linearGradient id="paint4_linear_8231_563" x1="179.5" y1="74" x2="-34.5" y2="74" gradientUnits="userSpaceOnUse">
<stop stop-color="#7E7E7E"/>
<stop offset="1" stop-color="#7E7E7E" stop-opacity="0"/>
</linearGradient>
<linearGradient id="paint5_linear_8231_563" x1="179.5" y1="74" x2="-34.5" y2="74" gradientUnits="userSpaceOnUse">
<stop stop-color="#7E7E7E"/>
<stop offset="1" stop-color="#7E7E7E" stop-opacity="0"/>
</linearGradient>
<linearGradient id="paint6_linear_8231_563" x1="179.5" y1="74" x2="-34.5" y2="74" gradientUnits="userSpaceOnUse">
<stop stop-color="#7E7E7E"/>
<stop offset="1" stop-color="#7E7E7E" stop-opacity="0"/>
</linearGradient>
<linearGradient id="paint7_linear_8231_563" x1="179.5" y1="74" x2="-34.5" y2="74" gradientUnits="userSpaceOnUse">
<stop stop-color="#7E7E7E"/>
<stop offset="1" stop-color="#7E7E7E" stop-opacity="0"/>
</linearGradient>
<linearGradient id="paint8_linear_8231_563" x1="179.5" y1="74" x2="-34.5" y2="74" gradientUnits="userSpaceOnUse">
<stop stop-color="#7E7E7E"/>
<stop offset="1" stop-color="#7E7E7E" stop-opacity="0"/>
</linearGradient>
<linearGradient id="paint9_linear_8231_563" x1="179.5" y1="74" x2="-34.5" y2="74" gradientUnits="userSpaceOnUse">
<stop stop-color="#7E7E7E"/>
<stop offset="1" stop-color="#7E7E7E" stop-opacity="0"/>
</linearGradient>
<linearGradient id="paint10_linear_8231_563" x1="179.5" y1="74" x2="-34.5" y2="74" gradientUnits="userSpaceOnUse">
<stop stop-color="#7E7E7E"/>
<stop offset="1" stop-color="#7E7E7E" stop-opacity="0"/>
</linearGradient>
<linearGradient id="paint11_linear_8231_563" x1="179.5" y1="74" x2="-34.5" y2="74" gradientUnits="userSpaceOnUse">
<stop stop-color="#7E7E7E"/>
<stop offset="1" stop-color="#7E7E7E" stop-opacity="0"/>
</linearGradient>
<linearGradient id="paint12_linear_8231_563" x1="179.5" y1="74" x2="-34.5" y2="74" gradientUnits="userSpaceOnUse">
<stop stop-color="#7E7E7E"/>
<stop offset="1" stop-color="#7E7E7E" stop-opacity="0"/>
</linearGradient>
<linearGradient id="paint13_linear_8231_563" x1="179.5" y1="74" x2="-34.5" y2="74" gradientUnits="userSpaceOnUse">
<stop stop-color="#7E7E7E"/>
<stop offset="1" stop-color="#7E7E7E" stop-opacity="0"/>
</linearGradient>
<linearGradient id="paint14_linear_8231_563" x1="179.5" y1="74" x2="-34.5" y2="74" gradientUnits="userSpaceOnUse">
<stop stop-color="#7E7E7E"/>
<stop offset="1" stop-color="#7E7E7E" stop-opacity="0"/>
</linearGradient>
<linearGradient id="paint15_linear_8231_563" x1="179.5" y1="74" x2="-34.5" y2="74" gradientUnits="userSpaceOnUse">
<stop stop-color="#7E7E7E"/>
<stop offset="1" stop-color="#7E7E7E" stop-opacity="0"/>
</linearGradient>
<linearGradient id="paint16_linear_8231_563" x1="179.5" y1="74" x2="-34.5" y2="74" gradientUnits="userSpaceOnUse">
<stop stop-color="#7E7E7E"/>
<stop offset="1" stop-color="#7E7E7E" stop-opacity="0"/>
</linearGradient>
<linearGradient id="paint17_linear_8231_563" x1="179.5" y1="74" x2="-34.5" y2="74" gradientUnits="userSpaceOnUse">
<stop stop-color="#7E7E7E"/>
<stop offset="1" stop-color="#7E7E7E" stop-opacity="0"/>
</linearGradient>
<linearGradient id="paint18_linear_8231_563" x1="179.5" y1="74" x2="-34.5" y2="74" gradientUnits="userSpaceOnUse">
<stop stop-color="#7E7E7E"/>
<stop offset="1" stop-color="#7E7E7E" stop-opacity="0"/>
</linearGradient>
<linearGradient id="paint19_linear_8231_563" x1="179.5" y1="74" x2="-34.5" y2="74" gradientUnits="userSpaceOnUse">
<stop stop-color="#7E7E7E"/>
<stop offset="1" stop-color="#7E7E7E" stop-opacity="0"/>
</linearGradient>
<linearGradient id="paint20_linear_8231_563" x1="179.5" y1="74" x2="-34.5" y2="74" gradientUnits="userSpaceOnUse">
<stop stop-color="#7E7E7E"/>
<stop offset="1" stop-color="#7E7E7E" stop-opacity="0"/>
</linearGradient>
<linearGradient id="paint21_linear_8231_563" x1="179.5" y1="74" x2="-34.5" y2="74" gradientUnits="userSpaceOnUse">
<stop stop-color="#7E7E7E"/>
<stop offset="1" stop-color="#7E7E7E" stop-opacity="0"/>
</linearGradient>
<linearGradient id="paint22_linear_8231_563" x1="179.5" y1="74" x2="-34.5" y2="74" gradientUnits="userSpaceOnUse">
<stop stop-color="#7E7E7E"/>
<stop offset="1" stop-color="#7E7E7E" stop-opacity="0"/>
</linearGradient>
<linearGradient id="paint23_linear_8231_563" x1="179.5" y1="74" x2="-34.5" y2="74" gradientUnits="userSpaceOnUse">
<stop stop-color="#7E7E7E"/>
<stop offset="1" stop-color="#7E7E7E" stop-opacity="0"/>
</linearGradient>
<linearGradient id="paint24_linear_8231_563" x1="179.5" y1="74" x2="-34.5" y2="74" gradientUnits="userSpaceOnUse">
<stop stop-color="#7E7E7E"/>
<stop offset="1" stop-color="#7E7E7E" stop-opacity="0"/>
</linearGradient>
<linearGradient id="paint25_linear_8231_563" x1="179.5" y1="74" x2="-34.5" y2="74" gradientUnits="userSpaceOnUse">
<stop stop-color="#7E7E7E"/>
<stop offset="1" stop-color="#7E7E7E" stop-opacity="0"/>
</linearGradient>
<linearGradient id="paint26_linear_8231_563" x1="179.5" y1="74" x2="-34.5" y2="74" gradientUnits="userSpaceOnUse">
<stop stop-color="#7E7E7E"/>
<stop offset="1" stop-color="#7E7E7E" stop-opacity="0"/>
</linearGradient>
<linearGradient id="paint27_linear_8231_563" x1="179.5" y1="74" x2="-34.5" y2="74" gradientUnits="userSpaceOnUse">
<stop stop-color="#7E7E7E"/>
<stop offset="1" stop-color="#7E7E7E" stop-opacity="0"/>
</linearGradient>
<linearGradient id="paint28_linear_8231_563" x1="179.5" y1="74" x2="-34.5" y2="74" gradientUnits="userSpaceOnUse">
<stop stop-color="#7E7E7E"/>
<stop offset="1" stop-color="#7E7E7E" stop-opacity="0"/>
</linearGradient>
<linearGradient id="paint29_linear_8231_563" x1="179.5" y1="74" x2="-34.5" y2="74" gradientUnits="userSpaceOnUse">
<stop stop-color="#7E7E7E"/>
<stop offset="1" stop-color="#7E7E7E" stop-opacity="0"/>
</linearGradient>
<linearGradient id="paint30_linear_8231_563" x1="179.5" y1="74" x2="-34.5" y2="74" gradientUnits="userSpaceOnUse">
<stop stop-color="#7E7E7E"/>
<stop offset="1" stop-color="#7E7E7E" stop-opacity="0"/>
</linearGradient>
<linearGradient id="paint31_linear_8231_563" x1="179.5" y1="74" x2="-34.5" y2="74" gradientUnits="userSpaceOnUse">
<stop stop-color="#7E7E7E"/>
<stop offset="1" stop-color="#7E7E7E" stop-opacity="0"/>
</linearGradient>
<linearGradient id="paint32_linear_8231_563" x1="179.5" y1="74" x2="-34.5" y2="74" gradientUnits="userSpaceOnUse">
<stop stop-color="#7E7E7E"/>
<stop offset="1" stop-color="#7E7E7E" stop-opacity="0"/>
</linearGradient>
<linearGradient id="paint33_linear_8231_563" x1="179.5" y1="74" x2="-34.5" y2="74" gradientUnits="userSpaceOnUse">
<stop stop-color="#7E7E7E"/>
<stop offset="1" stop-color="#7E7E7E" stop-opacity="0"/>
</linearGradient>
<linearGradient id="paint34_linear_8231_563" x1="179.5" y1="74" x2="-34.5" y2="74" gradientUnits="userSpaceOnUse">
<stop stop-color="#7E7E7E"/>
<stop offset="1" stop-color="#7E7E7E" stop-opacity="0"/>
</linearGradient>
<linearGradient id="paint35_linear_8231_563" x1="179.5" y1="74" x2="-34.5" y2="74" gradientUnits="userSpaceOnUse">
<stop stop-color="#7E7E7E"/>
<stop offset="1" stop-color="#7E7E7E" stop-opacity="0"/>
</linearGradient>
<clipPath id="clip0_8231_563">
<rect width="144" height="144" fill="white" transform="translate(210 3.04297)"/>
</clipPath>
<clipPath id="clip1_8231_563">
<rect width="144" height="144" fill="white" transform="translate(210 1.08398)"/>
</clipPath>
<clipPath id="clip2_8231_563">
<rect width="144" height="144" fill="white" transform="translate(287 2.04297)"/>
</clipPath>
<clipPath id="clip3_8231_563">
<rect width="144" height="144" fill="white" transform="translate(367 1.04297)"/>
</clipPath>
<clipPath id="clip4_8231_563">
<rect width="144" height="144" fill="white" transform="translate(446 0.0429688)"/>
</clipPath>
</defs>
</svg>
