<svg width="289" height="431" viewBox="0 0 289 431" fill="none" xmlns="http://www.w3.org/2000/svg">
<g clip-path="url(#clip0_8198_3589)">
<mask id="mask0_8198_3589" style="mask-type:luminance" maskUnits="userSpaceOnUse" x="0" y="0" width="289" height="431">
<path d="M289 0H0V431H289V0Z" fill="white"/>
</mask>
<g mask="url(#mask0_8198_3589)">
<mask id="mask1_8198_3589" style="mask-type:alpha" maskUnits="userSpaceOnUse" x="16" y="227" width="381" height="381">
<path d="M72 283.359C146.183 209.176 266.458 209.176 340.641 283.359C414.824 357.542 414.824 477.817 340.641 552C266.458 626.183 146.183 626.183 72 552C-2.18305 477.817 -2.18305 357.542 72 283.359Z" fill="#181A19" fill-opacity="0.61"/>
</mask>
<g mask="url(#mask1_8198_3589)">
<path d="M72.7688 280.768C145.798 207.739 264.202 207.739 337.231 280.768C410.26 353.798 410.26 472.202 337.231 545.231C264.202 618.26 145.798 618.26 72.7688 545.231C-0.260402 472.202 -0.260408 353.798 72.7688 280.768Z" fill="#39CE8B" fill-opacity="0.71" stroke="url(#paint0_linear_8198_3589)" stroke-width="1.35172"/>
<g filter="url(#filter0_f_8198_3589)">
<path d="M64.8434 289.154C143.183 210.814 269.735 210.351 347.505 288.121C425.274 365.89 424.812 492.442 346.472 570.782C268.132 649.122 141.58 649.584 63.8108 571.815C-13.9587 494.045 -13.4964 367.493 64.8434 289.154Z" fill="url(#paint1_linear_8198_3589)"/>
</g>
</g>
<mask id="mask2_8198_3589" style="mask-type:luminance" maskUnits="userSpaceOnUse" x="0" y="0" width="289" height="431">
<path d="M289 0.046875H0V430.047H289V0.046875Z" fill="white"/>
</mask>
<g mask="url(#mask2_8198_3589)">
<path d="M289 0.046875H0V430.047H289V0.046875Z" fill="#232323"/>
</g>
<g filter="url(#filter1_f_8198_3589)">
<path d="M129.899 266.855C157.765 255.449 183.594 252.674 182.398 249.743C181.201 246.811 154.57 245.515 126.704 256.92C98.8378 268.326 80.2904 288.113 81.4869 291.044C82.6832 293.976 102.032 278.26 129.899 266.855Z" fill="#707070" fill-opacity="0.68"/>
</g>
<g opacity="0.5">
<g filter="url(#filter2_f_8198_3589)">
<path d="M462.953 433.014C455.894 423.76 447.268 414.563 437.138 405.491C418.384 388.705 395.412 373.204 368.855 359.419C341.364 345.149 311.219 333.348 279.251 324.349C247.283 315.349 215.41 309.686 184.514 307.519C154.664 305.424 126.978 306.664 102.223 311.2C77.4524 315.739 56.8623 323.351 41.0192 333.828C24.5937 344.693 14.0195 358.171 9.59218 373.898C2.83751 397.895 11.1093 425.073 33.5151 452.51C44.2948 465.707 58.0946 478.631 74.5321 490.926C91.1153 503.327 110.072 514.856 130.89 525.192L131.149 524.669C89.3865 503.927 55.7824 478.85 33.9688 452.141C11.6909 424.865 3.45067 397.862 10.1532 374.058C18.8421 343.192 51.5772 321.074 102.325 311.775C153.144 302.462 215.919 307.127 279.089 324.911C342.258 342.695 398.246 371.467 436.743 405.926C475.185 440.335 491.571 476.282 482.882 507.147C476.303 530.52 455.771 549.049 423.514 560.734L423.71 561.283C456.153 549.532 476.808 530.865 483.441 507.303C487.868 491.576 485.883 474.562 477.535 456.725C473.835 448.812 468.957 440.89 462.946 433.01L462.953 433.014Z" stroke="url(#paint2_linear_8198_3589)" stroke-opacity="0.6" stroke-width="1.48" stroke-linejoin="bevel"/>
</g>
<mask id="mask3_8198_3589" style="mask-type:luminance" maskUnits="userSpaceOnUse" x="72" y="210" width="367" height="410">
<path d="M432.419 493.814C435.616 507.03 437.502 519.496 438.067 531.12L438.065 531.121H438.063C438.543 541.019 438.066 550.308 436.625 558.923C433.382 578.347 425.365 593.486 412.797 603.927C394.022 619.524 366.527 623.203 333.271 614.572C333.115 614.531 333.02 614.371 333.061 614.215C333.102 614.06 333.263 613.968 333.419 614.008C366.485 622.59 393.802 618.953 412.426 603.481C437.09 582.991 443.987 544.092 431.848 493.949C419.69 443.732 389.904 388.278 347.969 337.799C306.035 287.32 256.985 247.867 209.85 226.709C162.782 205.58 123.277 205.226 98.6128 225.716C82.5154 239.087 73.9304 260.415 73.4122 287.927C73.4107 288.003 73.3797 288.076 73.3257 288.13C73.1395 288.315 72.8233 288.177 72.8282 287.915C73.3511 260.224 82.0087 238.752 98.2412 225.266C110.808 214.826 127.162 209.724 146.853 210.094C165.843 210.453 187.118 215.864 210.093 226.178C233.052 236.484 256.556 251.168 279.95 269.827C304.164 289.137 327.201 311.881 348.423 337.427C369.644 362.973 387.776 389.792 402.321 417.138C416.372 443.555 426.497 469.352 432.419 493.814Z" fill="#EDEDED"/>
</mask>
<g mask="url(#mask3_8198_3589)">
<path d="M431.848 493.949L432.782 493.722V493.723L431.848 493.949ZM436.625 558.923L435.678 558.765V558.764L436.625 558.923ZM438.065 531.121L438.896 530.639L438.902 530.65L438.065 531.121ZM437.107 531.167C436.546 519.612 434.67 507.206 431.486 494.04L433.353 493.588C436.561 506.853 438.458 519.38 439.026 531.074L437.107 531.167ZM431.486 494.04C425.586 469.669 415.493 443.948 401.473 417.589L403.169 416.687C417.251 443.162 427.409 469.034 433.353 493.588L431.486 494.04ZM401.473 417.589C386.96 390.305 368.866 363.54 347.684 338.041L349.162 336.813C370.422 362.406 388.591 389.279 403.169 416.687L401.473 417.589ZM347.684 338.041C326.501 312.542 303.511 289.845 279.351 270.578L280.549 269.076C304.818 288.43 327.901 311.221 349.162 336.813L347.684 338.041ZM279.351 270.578C256.008 251.96 232.573 237.322 209.699 227.054L210.486 225.301C233.531 235.647 257.103 250.376 280.549 269.076L279.351 270.578ZM209.699 227.054C186.806 216.777 165.66 211.411 146.834 211.054L146.871 209.133C166.025 209.496 187.43 214.951 210.486 225.301L209.699 227.054ZM146.834 211.054C127.324 210.688 111.21 215.741 98.8546 226.005L97.627 224.527C110.407 213.911 127 208.76 146.871 209.133L146.834 211.054ZM97.9986 224.977C123.093 204.13 163.063 204.653 210.243 225.832L209.456 227.585C162.502 206.507 123.461 206.322 99.2262 226.455L97.9986 224.977ZM210.243 225.832C257.543 247.065 306.705 286.623 348.708 337.185L347.231 338.413C305.365 288.017 256.427 248.669 209.456 227.585L210.243 225.832ZM348.708 337.185C390.712 387.748 420.582 443.331 432.782 493.722L430.914 494.175C418.799 444.134 389.096 388.809 347.231 338.413L348.708 337.185ZM432.782 493.723C444.95 543.986 438.134 583.372 413.039 604.22L411.812 602.742C436.046 582.609 443.024 544.197 430.914 494.175L432.782 493.723ZM413.039 604.22C394.09 619.963 366.411 623.563 333.177 614.938L333.66 613.078C366.559 621.617 393.515 617.943 411.812 602.742L413.039 604.22ZM333.512 613.642C366.599 622.229 393.734 618.514 412.183 603.188L413.411 604.666C394.311 620.533 366.454 624.176 333.03 615.502L333.512 613.642ZM412.183 603.188C424.539 592.923 432.464 578.011 435.678 558.765L437.573 559.081C434.299 578.684 426.19 594.049 413.411 604.666L412.183 603.188ZM435.678 558.764C437.106 550.226 437.581 541.007 437.104 531.168L439.022 531.075C439.505 541.032 439.026 550.39 437.573 559.081L435.678 558.764ZM98.8546 226.005C82.9007 239.259 74.3076 260.426 73.7882 287.933L71.8674 287.897C72.3937 260.022 81.1157 238.245 97.627 224.527L98.8546 226.005ZM72.4514 287.909C72.973 260.214 81.622 238.58 97.9986 224.977L99.2262 226.455C83.408 239.594 74.887 260.616 74.3722 287.945L72.4514 287.909ZM74.3722 287.945C74.3661 288.267 74.2356 288.58 74.0023 288.812L72.6483 287.449C72.523 287.573 72.4546 287.738 72.4514 287.909L74.3722 287.945ZM437.104 531.168C437.053 530.135 438.403 529.79 438.896 530.639L437.234 531.603C437.725 532.45 439.072 532.106 439.022 531.075L437.104 531.168ZM333.99 614.461C334.087 614.095 333.864 613.733 333.512 613.642L333.03 615.502C332.366 615.329 331.953 614.647 332.133 613.969L333.99 614.461ZM73.7882 287.933C73.7992 287.353 73.0887 287.011 72.6483 287.449L74.0023 288.812C73.1894 289.619 71.8465 289.001 71.8674 287.897L73.7882 287.933ZM333.177 614.938C333.524 615.028 333.893 614.827 333.99 614.461L332.133 613.969C332.312 613.293 333.003 612.908 333.66 613.078L333.177 614.938ZM439.026 531.074C439.08 532.177 437.68 532.397 437.227 531.592L438.902 530.65C438.661 530.221 438.185 530.094 437.815 530.194C437.444 530.295 437.082 530.654 437.107 531.167L439.026 531.074Z" fill="#EDEDED"/>
</g>
<g filter="url(#filter3_f_8198_3589)">
<path d="M432.414 493.814C435.611 507.032 437.498 519.499 438.062 531.125L438.058 531.118C438.538 541.017 438.061 550.307 436.62 558.923C433.377 578.348 425.36 593.486 412.792 603.927C393.964 619.568 366.365 623.224 332.981 614.498L333.131 613.935C366.324 622.611 393.744 618.997 412.421 603.481C437.085 582.991 443.982 544.092 431.843 493.949C419.685 443.733 389.899 388.279 347.964 337.799C306.03 287.32 256.98 247.867 209.845 226.709C162.777 205.58 123.272 205.226 98.6076 225.716C82.4869 239.107 73.9003 260.477 73.4048 288.047L72.8125 288.547C73.2149 260.551 81.8803 238.855 98.236 225.266C110.803 214.826 127.157 209.724 146.848 210.094C165.838 210.454 187.113 215.864 210.088 226.178C233.047 236.485 256.551 251.169 279.945 269.827C304.159 289.138 327.196 311.882 348.418 337.428C369.639 362.973 387.771 389.792 402.316 417.138C416.367 443.555 426.492 469.352 432.414 493.814Z" stroke="url(#paint3_linear_8198_3589)" stroke-opacity="0.6" stroke-width="1.48" stroke-linejoin="bevel"/>
</g>
</g>
<path d="M304.687 520.262L274.049 533.829M304.687 520.262L283.587 504.935M304.687 520.262L311.665 491.327M304.687 520.262L331.705 504.955M304.687 520.262L324.272 534.137M304.687 520.262L294.639 549.566L281.785 576.579M274.049 533.829L283.587 504.935M274.049 533.829L242.163 544.553M274.049 533.829L253.357 516.926M274.049 533.829L262.22 561.845M274.049 533.829L294.639 549.545M283.587 504.935L253.357 516.926M283.587 504.935L262.751 489.505M283.587 504.935L290.648 477.349M283.587 504.935L311.665 491.327M311.665 491.327L290.648 477.349M311.665 491.327L331.705 504.955M311.665 491.327L334.06 473.113M311.665 491.327L311.952 459.443M331.705 504.955L348.997 517.09M331.705 504.955L353.951 486.436M331.705 504.955L324.272 534.137M331.705 504.955L334.06 473.113M324.272 534.137L348.997 517.09M324.272 534.137L340.546 545.207M324.272 534.137L313.246 562.418M324.272 534.137L294.639 549.545M281.785 576.579L248.812 586.421M281.785 576.579L262.22 561.845M281.785 576.579L299.121 587.158M281.785 576.579L313.246 562.418M281.785 576.579L267.11 598.883M242.163 544.553L262.22 561.845M242.163 544.553L253.357 516.926M242.163 544.553L229.78 570.173M242.163 544.553L222.514 521.919M242.163 544.553L209.723 550.037M253.357 516.926L262.751 489.505M253.357 516.926L234.221 493.189M253.357 516.926L222.514 521.919M262.22 561.845L229.78 570.194L248.812 586.421M262.22 561.845L248.812 586.421M262.22 561.845L294.639 549.545M294.639 549.545L313.246 562.418M262.751 489.505L270.222 463.986M262.751 489.505L290.648 477.349M262.751 489.505L244.23 466.033M262.751 489.505L234.221 493.189M290.648 477.349L270.222 463.986M290.648 477.349L289.625 446.49M290.648 477.349L311.952 459.443M334.06 473.113L311.952 459.443M334.06 473.113L353.951 486.436M334.06 473.113L355.119 452.404M334.06 473.113L333.077 439.164M311.952 459.443L289.625 446.49M311.952 459.443L309.658 426.763M311.952 459.443L333.077 439.164M348.997 517.09L362.198 526.77M348.997 517.09L369.709 498.263M348.997 517.09L353.951 486.436M348.997 517.09L340.546 545.207M353.951 486.436L369.709 498.263M353.951 486.436L373.518 465.46M353.951 486.436L355.119 452.404M340.546 545.207L352.375 552.738M340.546 545.207L328.225 571.237M340.546 545.207L362.198 526.77M340.546 545.207L313.246 562.418M313.246 562.418L328.225 571.237M313.246 562.418L299.121 587.158M248.812 586.421L217.09 591.762M299.121 587.158L312.893 592.949M299.121 587.158L328.225 571.237M299.121 587.158L283.178 606.455M299.121 587.158L267.111 598.883M234.221 493.189L244.23 466.033M234.221 493.189L214.183 467.711M234.221 493.189L222.514 521.919M234.221 493.189L201.658 495.972M222.514 521.919L209.723 550.037M222.514 521.919L201.658 495.972M222.514 521.919L188.171 525.174M270.222 463.986L244.23 466.033M270.222 463.986L260.971 439.307M270.222 463.986L289.625 446.49M244.23 466.033L214.183 467.711M244.23 466.033L260.971 439.287M244.23 466.033L232.153 439.573M289.625 446.49L260.971 439.287M289.625 446.49L309.664 426.763M289.625 446.49L280.68 418.926M286.678 617.015L284.466 617.486L277.487 620.678M286.678 617.015L291.774 614.15L306.328 607.52M286.678 617.015L306.328 607.52M286.678 617.015L278.92 619.798M277.487 620.678L247.36 628.864M277.487 620.678L256.754 627.737M277.487 620.678L296.052 609.116M277.487 620.678L266.967 619.737M306.328 607.52L331.681 590.474M306.328 607.52L322.697 594.361M306.328 607.52L296.052 609.116M306.328 607.52L306.364 607.478M247.36 628.864L256.652 627.758M247.36 628.864L266.967 619.737M247.36 628.864L237.639 625.713M247.36 628.864L218.215 632.137M247.36 628.864L226.852 633.202M256.754 627.737L226.852 633.202M256.754 627.737L273.292 621.824M296.052 609.116L322.697 594.361M296.052 609.116L266.967 619.737M296.052 609.116L312.893 592.949M296.052 609.116L283.178 606.455M266.967 619.737L237.639 625.713M331.681 590.474L345.314 576.784M331.681 590.474L352.274 571.278M331.681 590.474L322.697 594.361M322.697 594.361L345.314 576.784M322.697 594.361L338.845 575.801M322.697 594.361L312.893 592.949M37.6973 539.252L27.914 521.285L24.4149 512.282M37.6973 539.252L55.8924 564.628M37.6973 539.252L43.0394 546.272L55.8924 564.628M37.6973 539.252L24.4149 512.282M37.6973 539.252L36.5114 529.021M37.6973 539.252L52.9048 556.483M24.4149 512.282L17.0059 494.211M24.4149 512.282L25.2535 501.047M24.4149 512.282L15.4091 483.223M24.4149 512.282L36.5102 529.021L25.2535 501.047M55.8924 564.628L52.9048 556.483M36.5114 529.021L54.153 544.593M36.5114 529.021L39.765 516.169M36.5114 529.021L52.9048 556.483M52.9048 556.483L54.153 544.593M52.9048 556.483L73.3105 571.278M52.9048 556.483L73.8215 581.04M17.0059 494.211L15.4091 483.223M17.0059 494.211L9.92442 463.353M25.2535 501.047L15.4091 483.223M25.2535 501.047L30.3296 488.4M25.2535 501.047L18.8063 470.842L30.3296 488.4M25.2535 501.047L39.765 516.169M15.4091 483.223L10.8857 451.177M15.4091 483.223L18.786 470.842M15.4091 483.223L9.92442 463.353M54.153 544.593L59.413 529.983L76.5234 557.588M54.153 544.593L76.5234 557.588M54.153 544.593L39.765 516.169M54.153 544.593L73.3105 571.278M39.765 516.169L46.8877 501.886M39.765 516.169L30.3296 488.4M39.765 516.169L59.4137 529.982M73.3105 571.278L73.8215 581.04M73.3105 571.278L95.9666 593.85M73.3105 571.278L97.4412 582.288L76.5234 557.588M73.3105 571.278L76.5234 557.588M73.8215 581.04L77.8129 586.339M73.8215 581.04L55.8935 564.628L77.8129 586.339M73.8215 581.04L97.5017 600.767M73.8215 581.04L95.9666 593.85M387.355 519.116L393.391 504.996L396.482 494.314M387.355 519.116L396.482 494.314M387.355 519.116L385.839 514.634M387.355 519.116L376.526 539.744M387.355 519.116L375.28 537.759M396.482 494.314L401.699 477.636M396.482 494.314L402.502 465.808M396.482 494.314L385.839 514.634M396.482 494.314L394.008 486.927M401.699 477.636L406 447.002M401.699 477.636L402.502 465.808M385.839 514.634L375.28 537.759M385.839 514.634L370.817 533.604M385.839 514.634L380.292 507.758M385.839 514.634L394.008 486.927M376.526 539.744L363.181 558.1M376.526 539.744L367.948 551.776M376.526 539.744L375.28 537.759M375.28 537.759L363.181 558.1M375.28 537.759L359.665 556.811M375.28 537.759L370.817 533.604M402.502 465.808L404.197 435.051M402.502 465.808L406 447.002M402.502 465.808L398.219 455.576M402.502 465.808L394.008 486.927M394.008 486.927L398.219 455.576M394.008 486.927L380.292 507.758M394.008 486.927L386.617 477.227M370.817 533.604L359.665 556.811M370.817 533.604L362.198 526.77M370.817 533.604L380.292 507.758M370.817 533.604L352.375 552.738M380.292 507.758L362.198 526.77M380.292 507.758L369.709 498.263M380.292 507.758L386.617 477.227M389.911 356.695L382.173 340.55L385.719 348.571M389.911 356.695L399.573 384.322M389.911 356.695L393.391 365.904M389.911 356.695L383.282 349.615L382.137 361.954M389.911 356.695L393.721 375.113M389.911 356.695L377.855 333.305M399.573 384.322L393.391 365.904M399.573 384.322L401.393 395.27L405.281 415.099M399.573 384.322L405.281 415.099M399.573 384.322L393.721 375.113M399.573 384.322L401.107 404.109M393.391 365.904L392.182 363.182M393.391 365.904L392.841 365.064M393.391 365.904L393.35 366.497M393.391 365.904L394.272 369.158M382.137 361.954L370.224 337.562M382.137 361.954L393.721 375.113M382.137 361.954L366.109 350.106M382.137 361.954L391.75 390.726M382.137 361.954L377.082 377.712M393.721 375.113L383.282 349.635M393.721 375.113L401.107 404.109M393.721 375.113L391.75 390.726M377.855 333.305L382.173 340.529M377.855 333.305L367.236 316.464M377.855 333.305L383.282 349.635M377.855 333.305L371.207 328.25M377.855 333.305L361.689 311.307M405.281 415.099L404.197 435.051M405.281 415.099L406 447.002M405.281 415.099L401.107 404.109M401.107 404.109L404.197 435.051M401.107 404.109L391.75 390.726M401.107 404.109L397.465 422.65M370.224 337.562L383.282 349.635M370.224 337.562L371.207 328.25M370.224 337.562L366.109 350.106M370.224 337.562L356.712 313.536M370.224 337.562L353.417 323.053M366.109 350.106L357.945 366.088M366.109 350.106L353.417 323.053M366.109 350.106L346.439 336.436M366.109 350.106L377.082 377.712M391.75 390.726L397.465 422.65M391.75 390.726L377.082 377.712M391.75 390.726L384.976 409.512M377.082 377.712L367.092 396.62M377.082 377.712L357.945 366.088M377.082 377.712L384.976 409.512M383.282 349.635L371.207 328.25M367.236 316.464L348.548 294.772M367.236 316.464L361.689 311.307M371.207 328.25L361.689 311.307M371.207 328.25L356.712 313.536M361.689 311.307L348.548 294.772M361.689 311.307L356.712 313.536M361.689 311.307L344.679 295.221M345.314 576.784L352.274 571.278M345.314 576.784L363.181 558.1M345.314 576.784L359.665 556.811M345.314 576.784L338.845 575.801M352.274 571.278L367.948 551.776M352.274 571.278L363.181 558.1M363.181 558.1L359.665 556.811M359.665 556.811L338.845 575.801M359.665 556.811L352.375 552.738M338.845 575.801L312.893 592.949M338.845 575.801L328.225 571.237M367.948 551.776L367.421 552.268M367.948 551.776L368.996 550.099M367.948 551.776L368.176 551.203M312.893 592.949L328.225 571.237M312.893 592.949L283.178 606.455M352.375 552.738L362.198 526.77M352.375 552.738L338.827 575.801M352.375 552.738L328.225 571.237M303.663 263.135L309.047 263.851M303.663 263.135L281.785 250.447M303.663 263.135L328.717 278.074M303.663 263.135L274.336 251.819M303.663 263.135L322.518 279.914M303.663 263.135L295.458 267.084M309.047 263.851L328.717 278.074M309.047 263.851L331.639 280.078M309.047 263.851L281.785 250.447M281.785 250.447L258.474 243.039L251.352 241.566M281.785 250.447L251.352 241.566M281.785 250.447L274.336 251.819M328.717 278.074L331.808 280.673L331.645 280.078L334.958 283.332L348.548 294.772M328.717 278.074L344.679 295.221M328.717 278.074L322.512 279.915M274.336 251.819L251.352 241.566M274.336 251.819L264.921 258.264M274.336 251.819L295.458 267.084M274.336 251.819L242.735 245.434M322.518 279.914L295.458 267.084M322.518 279.914L313.348 285.685M295.458 267.084L285.061 275.31M295.458 267.084L264.921 258.264M295.458 267.084L313.348 285.685M331.639 280.078L348.548 294.772M331.639 280.078L329.921 279.096M251.352 241.566L228.449 236.982M251.352 241.566L220.181 238.026M251.352 241.566L242.735 245.434M348.548 294.772L344.679 295.221M344.679 295.221L356.712 313.536M344.679 295.221L337.497 298.905M344.679 295.221L322.512 279.915M322.512 279.915L337.497 298.905M264.921 258.264L242.735 245.434M264.921 258.264L254.463 268.824M264.921 258.264L233.279 254.212M264.921 258.264L285.061 275.31M242.735 245.434L220.181 238.026M242.735 245.434L233.279 254.212M242.735 245.434L211.483 244.226M313.348 285.685L337.497 298.905M313.348 285.685L331.149 308.953M313.348 285.685L285.061 275.31M313.348 285.685L303.645 296.757M285.061 275.31L254.463 268.824M285.061 275.31L303.645 296.757M285.061 275.31L272.33 287.875M16.3105 380.658L16.0853 381.067L16.5147 379.798M10.8857 451.177L9.92382 463.332M10.8857 451.177L8 430.672M10.8857 451.177L18.786 470.842M10.8857 451.177L11.623 418.496M10.8857 451.177L16.9238 438.754M8 430.672L10.497 410.924L11.4188 398.769M8 430.672L11.4188 398.769M8 430.672L9.92442 463.353M8 430.672L11.623 418.496M18.786 470.842L26.4616 458.073M18.786 470.842L16.9238 438.754M11.623 418.496L11.4188 398.769M11.623 418.496L19.8305 407.18M11.623 418.496L17.1897 387.678M11.623 418.496L16.9238 438.754M16.9238 438.754L19.8305 407.18M16.9238 438.754L26.8096 427.008M16.9238 438.754L26.4616 458.073M11.4188 398.769L19.1759 369.914M11.4188 398.769L17.1897 387.678M26.4616 458.073L37.0636 445.816M26.4616 458.073L38.7414 475.344L46.8877 501.886M26.4616 458.073L30.3296 488.4M26.4616 458.073L26.8096 427.008M356.712 313.536L337.497 298.905M356.712 313.536L353.417 323.053M337.497 298.905L353.417 323.053M337.497 298.905L331.149 308.953M199.018 236L228.449 236.982M199.018 236L169.484 239.765M199.018 236L190.668 239.397M199.018 236L220.181 238.026M228.449 236.982L220.181 238.026M169.484 239.765L148.239 245.025M169.484 239.765L190.668 239.397M169.484 239.765L161.195 245.883M169.484 239.765L139.111 248.831M190.668 239.397L220.181 238.026M190.668 239.397L161.196 245.904L139.111 248.831M190.668 239.397L182.788 247.296M190.668 239.397L211.381 244.206M220.181 238.026L211.483 244.226M148.239 245.025L139.111 248.831M148.239 245.025L118.316 256.729M161.195 245.883L154.257 256.217M161.195 245.883L131.866 257.404M139.111 248.831L118.316 256.729M139.111 248.831L131.866 257.404M139.111 248.831L110.272 262.971M182.788 247.296L175.808 258.572M182.788 247.296L202.989 254.683M182.788 247.296L161.194 245.904M182.788 247.296L154.256 256.218M182.788 247.296L211.42 244.226M211.483 244.226L202.989 254.683M211.483 244.226L233.279 254.212M237.639 625.713L210.008 627.452M237.639 625.713L218.215 632.137M237.639 625.713L251.987 615.214M237.639 625.713L221.756 619.184M218.215 632.137L199.079 634M218.215 632.137L226.852 633.202M218.215 632.137L210.008 627.452M218.215 632.137L191.773 631.421M226.852 633.202L199.079 634M210.008 627.452L185.284 625.937M210.008 627.452L194.351 619.225M210.008 627.452L191.772 631.421M210.008 627.452L221.756 619.184M251.987 615.214L221.756 619.184M251.987 615.214L266.968 619.737L283.178 606.455M251.987 615.214L283.178 606.455M251.987 615.214L267.111 598.883M251.987 615.214L234.958 605.719M221.756 619.184L194.351 619.225M221.756 619.184L205.056 608.113L234.958 605.719M221.756 619.184L234.958 605.719M199.079 634L171.018 630.46M199.079 634L191.773 631.421M191.773 631.421L171.018 630.46M191.773 631.421L185.285 625.937L165.023 625.876M191.773 631.421L165.023 625.876M101.555 603.078L99.6105 601.708M404.197 435.051L406 447.002M404.197 435.051L397.465 422.65M404.197 435.051L398.219 455.576M397.465 422.65L384.976 409.512M397.465 422.65L398.219 455.576M397.465 422.65L388.379 443.585M398.219 455.576L388.379 443.605L372.638 430.611M398.219 455.576L386.617 477.227M384.976 409.512L367.092 396.62M384.976 409.512L388.379 443.585M384.976 409.512L372.638 430.611M388.379 443.585L373.518 465.46M388.379 443.585L386.617 477.227M372.638 430.611L355.119 452.404M372.638 430.611L373.518 465.46M372.638 430.611L367.092 396.62M372.638 430.611L352.088 417.677M386.617 477.227L369.709 498.263M386.617 477.227L373.518 465.46M179.308 631.504L178.203 631.463M118.316 256.729L91.2799 272.936M118.316 256.729L110.272 262.971M154.257 256.217L131.866 257.404M154.257 256.217L148.853 269.212M154.257 256.217L175.808 258.572M154.257 256.217L126.708 269.376M131.866 257.404L110.272 262.971M110.272 262.971L91.2799 272.936M91.2799 272.936L68.725 291.886M91.2799 272.936L85.0585 280.774M39.0696 328.946L38.4556 330.604M39.0696 328.946L36.5725 333.592M39.0696 328.946L31.497 341.613M39.0696 328.946L48.4217 314.969M39.0696 328.946L40.3184 327.759M39.0696 328.946L42.3237 324.588M31.497 341.613L25.1726 354.914L19.1759 369.914M31.497 341.613L19.1759 369.914M31.497 341.613L38.4755 330.625M31.497 341.613L27.3827 357.963M31.497 341.613L42.8352 328.741M48.4217 314.969L68.725 291.886M48.4217 314.969L40.2969 327.739M48.4217 314.969L62.6677 302.425M48.4217 314.969L42.8352 328.741M19.1759 369.914L17.191 387.678L19.8305 407.18M19.1759 369.914L27.3827 357.963M27.3827 357.963L27.8745 377.385M27.3827 357.963L41.2587 346.668M27.3827 357.963L42.8352 328.741M42.8352 328.741L62.6677 302.425M42.8352 328.741L59.679 317.63M42.8352 328.741L41.26 346.668L44.3499 367.725M68.725 291.886L85.0585 280.774M62.6677 302.425L85.0585 280.774M62.6677 302.425L68.6849 291.968M62.6677 302.425L81.6199 292.684M62.6677 302.425L59.679 317.63M56.2818 306.006L56.6501 305.371M56.6501 305.371L55.3815 307.05M56.6501 305.371L58.2463 303.816M56.6501 305.371L56.9981 305.229M25.1726 354.895L28.038 349.553M233.279 254.212L223.824 266.532M233.279 254.212L202.989 254.683M233.279 254.212L254.463 268.824M202.989 254.683L175.808 258.572M202.989 254.683L195.232 267.862M202.989 254.683L223.824 266.532M264.962 245.536L258.495 243.039M171.018 630.46L149.099 625.466M171.018 630.46L143.43 622.479M171.018 630.46L165.023 625.876M149.099 625.466L121.756 614.949M149.099 625.466L143.43 622.479M143.43 622.479L121.756 614.949M143.43 622.479L165.023 625.876M143.43 622.479L143.492 616.585M143.43 622.479L120.036 610.937M165.023 625.876L166.169 618.283M165.023 625.876L143.492 616.585M121.756 614.949L97.5017 600.767M121.756 614.949L120.036 610.937M143.492 616.585L120.036 610.937M143.492 616.585L145.047 606.231M143.492 616.585L166.147 618.284L174.498 609.219M143.492 616.585L120.424 602.199M120.036 610.937L97.5017 600.767M120.036 610.937L120.424 602.199M120.036 610.937L95.9666 593.85M166.169 618.283L185.284 625.937M166.169 618.283L145.047 606.231M93.2654 597.227L77.8129 586.339M77.8129 586.339L97.5017 600.767M97.5017 600.767L95.9666 593.85M95.9666 593.85L97.44 582.288M95.9666 593.85L120.424 602.199M120.424 602.199L123.024 589.082M120.424 602.199L97.44 582.288M97.44 582.288L123.024 589.082M97.44 582.288L101.738 567.042M30.3296 488.4L38.7425 475.344M30.3296 488.4L46.8877 501.886M19.8305 407.18L26.8096 427.008M19.8305 407.18L33.1136 398.442M19.8305 407.18L27.8733 377.385L17.1897 387.678M17.1897 387.678L27.3822 357.964M26.8096 427.008L37.0636 445.816M26.8096 427.008L42.2824 419.457M26.8096 427.008L33.1136 398.442M33.1136 398.442L42.2824 419.457M33.1136 398.442L51.7584 390.132M33.1136 398.442L27.8745 377.385M33.1136 398.442L44.3499 367.725M27.8745 377.385L44.3499 367.725M27.8745 377.385L41.2587 346.668M41.2587 346.668L60.7439 337.193M41.2587 346.668L59.679 317.63M59.679 317.63L81.2712 309.527L60.7439 337.193M59.679 317.63L60.7439 337.193M59.679 317.63L81.6199 292.684M44.3499 367.725L51.7584 390.132M44.3499 367.725L65.9626 359.663M44.3499 367.725L60.7439 337.193M85.0585 280.774L104.87 273.121M85.0585 280.774L110.273 262.951L104.87 273.121M85.0585 280.774L81.6199 292.684M104.87 273.121L126.708 269.376M104.87 273.121L131.865 257.385L126.708 269.376M104.87 273.121L103.969 286.668M104.87 273.121L81.6199 292.684M81.6199 292.684L81.2725 309.527M81.6199 292.684L103.969 286.668M283.178 606.455L267.111 598.883M185.284 625.937L194.351 619.225M194.351 619.225L205.054 608.113M194.351 619.225L166.455 618.304M194.351 619.225H194.331M205.054 608.113L217.09 591.762M205.054 608.113L184.813 594.954L217.09 591.762M205.054 608.113L174.498 609.219M145.047 606.231L174.498 609.219M145.047 606.231L123.024 589.082M145.047 606.231L120.426 602.199M145.047 606.231L152.639 594.034M234.958 605.719L248.814 586.421L267.111 598.883M234.958 605.719L267.111 598.883M234.958 605.719L217.09 591.762M217.09 591.762L229.78 570.173M217.09 591.762L196.808 575.023M174.498 609.219L194.167 619.144M174.498 609.219L184.814 594.975M174.498 609.219L152.639 594.034M123.024 589.082L130.148 573.325M123.024 589.082L152.64 594.034M123.024 589.082L101.738 567.042M152.639 594.034L184.814 594.975M260.971 439.307L280.68 418.926M260.971 439.307L232.153 439.573M214.183 467.711L181.253 468.775M214.183 467.711L232.153 439.573M214.183 467.711L199.324 439.778M214.183 467.711L201.658 495.972M260.971 439.287L249.49 411.375M232.153 439.573L199.324 439.778M232.153 439.573L249.49 411.375M232.153 439.573L218.093 409.901M280.68 418.926L249.49 411.375M280.68 418.926L268.994 388.496M280.68 418.926L309.664 426.763M280.68 418.926L300.759 396.804M309.664 426.763L300.759 396.804M201.658 495.972L188.171 525.174M201.658 495.972L181.253 468.796L166.886 497.343M201.658 495.972L166.886 497.343M309.658 426.763L328.794 405.808M309.658 426.763L333.077 439.164M333.077 439.164L328.8 405.808M333.077 439.164L352.088 417.656M333.077 439.164L355.119 452.404M181.253 468.775L147.625 469.021M181.253 468.775L164.326 439.861L147.625 469.021M181.253 468.775L199.324 439.778M199.324 439.778L164.326 439.88M199.324 439.778L218.093 409.901M199.324 439.778L183.197 408.918M249.49 411.375L218.093 409.901M249.49 411.375L236.022 381.538M249.49 411.375L268.994 388.496M218.093 409.901L236.022 381.538M218.093 409.901L202.723 378.796M218.093 409.901L183.197 408.918M268.994 388.496L236.022 381.538M268.994 388.496L254.872 357.186M268.994 388.496L300.759 396.804M268.994 388.496L288.581 364.88M300.759 396.804L319.487 374.478M300.759 396.804L288.581 364.88M300.759 396.804L328.794 405.808M49.2003 462.739L66.2286 464.949M49.2003 462.739L56.5896 487.398M49.2003 462.739L38.7425 475.344M49.2003 462.739L53.9488 439.021M49.2003 462.739L37.0636 445.816M66.2286 464.949L88.4964 466.913M66.2286 464.949L56.5884 487.398M66.2286 464.949L73.6382 439.348M66.2286 464.949L76.4012 491.469M56.5896 487.398L76.4012 491.469M56.5896 487.398L67.7026 514.122M56.5896 487.398L38.7425 475.344M56.5896 487.398L46.8877 501.886M38.7425 475.344L37.0636 445.816M53.9488 439.021L73.6382 439.348M53.9488 439.021L37.0636 445.816M53.9488 439.021L66.2076 464.908M53.9488 439.021L62.1964 412.029M53.9488 439.021L42.2824 419.457M37.0636 445.816L42.2824 419.457M88.4964 466.913L115.984 468.345M88.4964 466.913L99.1397 439.635L115.984 468.345M88.4964 466.913L73.6382 439.348M88.4964 466.913L76.4012 491.469M88.4964 466.913L101.922 494.846M73.6382 439.348L62.1964 412.029M73.6382 439.348L99.1189 439.635M73.6382 439.348L84.9561 410.413M76.4012 491.469L67.7026 514.122M76.4012 491.469L101.922 494.846M76.4012 491.469L90.6246 519.812M115.984 468.345L147.544 469.021M115.984 468.345L129.963 439.819M115.984 468.345L101.922 494.846M115.984 468.345L132.705 496.934M101.922 494.846L90.6246 519.812M101.922 494.846L132.705 496.934M101.922 494.846L119.381 524.028M62.1964 412.029L42.2824 419.457M62.1964 412.029L74.5385 382.97M62.1964 412.029L51.7584 390.132M62.1964 412.029L84.9561 410.413M99.1189 439.635L129.963 439.819M99.1189 439.635L84.9561 410.413M99.1189 439.635L113.733 409.206M84.9561 410.413L74.5385 382.97M84.9561 410.413L100.428 379.758M84.9561 410.413L113.733 409.206M67.7026 514.122L82.8681 541.38M67.7026 514.122L46.8877 501.886M67.7026 514.122L59.4137 529.982M67.7026 514.122L90.6246 519.812M90.6246 519.812L82.8681 541.38M46.8877 501.886L59.4137 529.982M42.2824 419.457L51.7584 390.132M82.8681 541.38L101.738 567.042M82.8681 541.38L59.4137 529.982M82.8681 541.38L76.5234 557.588M82.8681 541.38L108.881 547.909M51.7584 390.132L74.5385 382.97M51.7584 390.132L65.9626 359.663M353.417 323.053L346.439 336.436M353.417 323.053L331.149 308.953M357.945 366.088L367.092 396.62M346.439 336.436L357.939 366.087M346.439 336.436L335.084 353.83M346.439 336.436L331.149 308.953M346.439 336.436L320.858 323.523M331.149 308.953L320.858 323.523M331.149 308.953L303.645 296.757M169.914 271.77L180.127 284.622M169.914 271.77L151.125 285.379M169.914 271.77L195.23 267.862M180.127 284.622L192.366 302.241M180.127 284.622L151.125 285.379M180.127 284.622L195.23 267.862M180.127 284.622L208.31 282.329M180.127 284.622L160.847 301.341M151.125 285.379L130.782 303.653M151.125 285.379L148.853 269.212M151.125 285.379L160.847 301.341M151.125 285.379L127.772 284.457M195.23 267.862L175.808 258.572M192.366 302.241L208.31 282.329M192.366 302.241L160.847 301.341M192.366 302.241L173.005 322.562M192.366 302.241L206.344 324.915M192.366 302.241L223.23 302.261L206.344 324.915M208.31 282.329L195.232 267.862M208.31 282.329L223.824 266.532M208.31 282.329L223.21 302.261M208.31 282.329L239.665 283.127M160.847 301.341L130.782 303.653M160.847 301.341L173.005 322.562M160.847 301.341L140.093 323.196M130.782 303.653L140.093 323.196M130.782 303.653L110.13 326.715M130.782 303.653L127.772 284.457M130.782 303.653L105.73 304.942M148.853 269.212L127.772 284.457M148.853 269.212L169.913 271.77L175.808 258.572M148.853 269.212L175.808 258.572M148.853 269.212L126.708 269.376M173.005 322.562L140.093 323.196M195.232 267.862L223.824 266.532M223.824 266.532L254.463 268.824M223.824 266.532L239.665 283.127M223.21 302.261L239.153 327.636M223.21 302.261L239.665 283.127M223.21 302.261L256.673 305.638M239.665 283.127L254.442 268.824L272.33 287.875M239.665 283.127L272.33 287.875M239.665 283.127L256.673 305.638M127.772 284.457L105.73 304.942M127.772 284.457L126.708 269.355L103.969 286.668M127.772 284.457L103.969 286.668M110.13 326.715L90.851 353.769M110.13 326.715L105.73 304.942M110.13 326.715L84.4649 330.481M110.13 326.715L140.094 323.196M110.13 326.715L119.319 349.881M105.73 304.942L84.4649 330.481M105.73 304.942L103.969 286.668M105.73 304.942L81.2725 309.527M362.198 526.77L369.709 498.263M229.78 570.173L209.723 550.037M229.78 570.173L196.808 575.023M196.808 575.023L184.814 594.975M196.808 575.023L209.723 550.037M196.808 575.023L174.764 552.738M196.808 575.023L162.628 576.17M184.814 594.975L162.628 576.17M162.628 576.17L174.764 552.738M162.628 576.17L130.148 573.325M162.628 576.17L152.64 594.034M162.628 576.17L140.156 551.981M209.723 550.037L188.171 525.174M209.723 550.037L174.764 552.738M174.764 552.738L152.742 525.951M174.764 552.738L140.156 551.981M174.764 552.738L188.171 525.174M188.171 525.174L166.886 497.343M188.171 525.174L152.742 525.951M152.742 525.951L132.705 496.934M152.742 525.951L119.381 524.028M152.742 525.951L166.886 497.343M152.742 525.951L140.156 551.981M140.156 551.981L119.381 524.028M140.156 551.981L130.148 573.325M140.156 551.981L108.881 547.909M130.148 573.325L101.738 567.042M130.148 573.325L108.881 547.909M130.148 573.325L152.64 594.034M166.886 497.343L132.705 496.934M166.886 497.343L147.625 469.021M355.119 452.404L352.088 417.656M355.119 452.404L373.518 465.46M328.794 405.808L319.487 374.478M328.8 405.808L345.356 385.038M328.8 405.808L352.088 417.656M352.088 417.656L345.356 385.038M352.088 417.656L367.092 396.62M369.709 498.263L373.518 465.46M129.963 439.819L147.605 468.959M129.963 439.819L164.326 439.88M129.963 439.819L147.339 408.673M129.963 439.819L113.733 409.206M132.705 496.934L147.625 469.021M132.705 496.934L119.381 524.028M119.381 524.028L90.6258 519.812L108.881 547.909M119.381 524.028L108.881 547.909M74.5385 382.97L90.851 353.769M74.5385 382.97L65.9626 359.663M74.5385 382.97L100.428 379.758M113.733 409.206L147.339 408.673M113.733 409.206L100.428 379.758M113.733 409.206L131.907 377.773M100.428 379.758L90.851 353.769M100.428 379.758L119.319 349.881M100.428 379.758L131.907 377.773M164.326 439.88L183.197 408.918M164.326 439.88L147.339 408.673M147.339 408.673L167.028 377.425M147.339 408.673L131.907 377.773M147.339 408.673L183.197 408.918M108.881 547.909L101.738 567.042M183.197 408.918L202.723 378.796M183.197 408.918L167.028 377.425M167.028 377.425L187.269 348.878M167.028 377.425L202.723 378.796M167.028 377.425L152.292 348.101M167.028 377.425L131.907 377.773M131.907 377.773L152.292 348.101M131.907 377.773L119.319 349.881M236.022 381.538L221.265 351.927M236.022 381.538L254.852 357.186L221.265 351.927M236.022 381.538L202.723 378.796M202.723 378.796L221.265 351.927M202.723 378.796L187.269 348.878M101.738 567.042L76.5234 557.588M239.153 327.636L206.344 324.915M239.153 327.636L221.265 351.927M239.153 327.636L254.872 357.186M239.153 327.636L273.497 333.55M239.153 327.636L256.673 305.638M256.673 305.638L273.497 333.55M256.673 305.638L272.33 287.875M256.673 305.638L290.197 312.862M272.33 287.875L303.645 296.757M206.344 324.915L221.265 351.927M206.344 324.915L173.004 322.561M206.344 324.915L187.269 348.878M221.265 351.927L187.269 348.878M173.004 322.561L187.269 348.878M173.004 322.561L152.292 348.101M187.269 348.878L152.292 348.121L119.319 349.86M254.872 357.186L288.581 364.88M254.872 357.186L273.497 333.55M273.497 333.55L306.405 342.555M273.497 333.55L290.197 312.862M273.497 333.55L288.581 364.88M152.292 348.101L140.094 323.196M288.581 364.88L319.487 374.478M288.581 364.88L306.405 342.555M306.405 342.555L319.487 374.478M306.405 342.555L335.084 353.83M306.405 342.555L320.858 323.523M306.405 342.555L290.197 312.862M290.197 312.862L320.858 323.523M290.197 312.862L303.645 296.757M290.197 312.862L272.309 287.875M140.094 323.196L119.319 349.881M319.487 374.478L345.356 385.038M319.487 374.478L335.084 353.83M90.851 353.769L84.4649 330.481M90.851 353.769L65.9626 359.663M90.851 353.769L119.319 349.881M65.9626 359.663L84.4649 330.481M65.9626 359.663L60.7439 337.193M84.4649 330.481L81.2725 309.527M84.4649 330.481L60.7439 337.193M81.2725 309.527L103.969 286.668M367.092 396.62L345.356 385.038M345.356 385.038L357.939 366.087M345.356 385.038L335.084 353.83M335.084 353.83L357.939 366.087M335.084 353.83L320.858 323.523M320.858 323.523L303.645 296.757M16.1057 381.313L16.0853 381.047L16.044 381.292" stroke="url(#paint4_radial_8198_3589)" stroke-width="0.5" stroke-linecap="round" stroke-linejoin="round" stroke-dasharray="1.35 1.35"/>
</g>
</g>
<defs>
<filter id="filter0_f_8198_3589" x="-96.9493" y="127.364" width="605.211" height="605.207" filterUnits="userSpaceOnUse" color-interpolation-filters="sRGB">
<feFlood flood-opacity="0" result="BackgroundImageFix"/>
<feBlend mode="normal" in="SourceGraphic" in2="BackgroundImageFix" result="shape"/>
<feGaussianBlur stdDeviation="51.3653" result="effect1_foregroundBlur_8198_3589"/>
</filter>
<filter id="filter1_f_8198_3589" x="63.4297" y="229.716" width="137.008" height="79.6855" filterUnits="userSpaceOnUse" color-interpolation-filters="sRGB">
<feFlood flood-opacity="0" result="BackgroundImageFix"/>
<feBlend mode="normal" in="SourceGraphic" in2="BackgroundImageFix" result="shape"/>
<feGaussianBlur stdDeviation="9" result="effect1_foregroundBlur_8198_3589"/>
</filter>
<filter id="filter2_f_8198_3589" x="5.5625" y="304.79" width="481.914" height="258.188" filterUnits="userSpaceOnUse" color-interpolation-filters="sRGB">
<feFlood flood-opacity="0" result="BackgroundImageFix"/>
<feBlend mode="normal" in="SourceGraphic" in2="BackgroundImageFix" result="shape"/>
<feGaussianBlur stdDeviation="0.5" result="effect1_foregroundBlur_8198_3589"/>
</filter>
<filter id="filter3_f_8198_3589" x="70.2703" y="207.535" width="370.506" height="414.132" filterUnits="userSpaceOnUse" color-interpolation-filters="sRGB">
<feFlood flood-opacity="0" result="BackgroundImageFix"/>
<feBlend mode="normal" in="SourceGraphic" in2="BackgroundImageFix" result="shape"/>
<feGaussianBlur stdDeviation="0.9" result="effect1_foregroundBlur_8198_3589"/>
</filter>
<linearGradient id="paint0_linear_8198_3589" x1="400.14" y1="390.7" x2="333.601" y2="407.854" gradientUnits="userSpaceOnUse">
<stop stop-color="#05FF87"/>
<stop offset="1" stop-color="white" stop-opacity="0"/>
</linearGradient>
<linearGradient id="paint1_linear_8198_3589" x1="428.868" y1="498.443" x2="102.39" y2="510.567" gradientUnits="userSpaceOnUse">
<stop stop-color="#071817"/>
<stop offset="1" stop-color="#050D10"/>
</linearGradient>
<linearGradient id="paint2_linear_8198_3589" x1="91.4018" y1="310.443" x2="183.548" y2="537.085" gradientUnits="userSpaceOnUse">
<stop stop-color="#3ECF8E"/>
<stop offset="1" stop-color="#4B4B4B" stop-opacity="0"/>
</linearGradient>
<linearGradient id="paint3_linear_8198_3589" x1="137.046" y1="216.358" x2="346.495" y2="461.413" gradientUnits="userSpaceOnUse">
<stop stop-color="#3ECF8E"/>
<stop offset="1" stop-color="#4B4B4B" stop-opacity="0"/>
</linearGradient>
<radialGradient id="paint4_radial_8198_3589" cx="0" cy="0" r="1" gradientUnits="userSpaceOnUse" gradientTransform="translate(465 139) rotate(158.872) scale(545.146 248.667)">
<stop offset="0.0464712" stop-color="#3C6355"/>
<stop offset="1" stop-color="#81DCBB" stop-opacity="0.01"/>
</radialGradient>
<clipPath id="clip0_8198_3589">
<rect width="289" height="431" fill="white"/>
</clipPath>
</defs>
</svg>
