<svg width="314" height="162" viewBox="0 0 314 162" fill="none" xmlns="http://www.w3.org/2000/svg">
<path d="M314 0H0V162H314V0Z" fill="#232323"/>
<path d="M106.295 78.964C106.974 78.964 107.504 78.7204 107.922 78.4419L107.67 77.9632C107.278 78.2243 106.878 78.381 106.382 78.381C105.459 78.381 104.798 77.7631 104.763 76.8058H108.07C108.088 76.6927 108.096 76.536 108.096 76.3881C108.096 75.1349 107.383 74.3082 106.173 74.3082C105.076 74.3082 104.023 75.1958 104.023 76.6405C104.023 78.0938 105.042 78.964 106.295 78.964ZM104.754 76.2836C104.868 75.396 105.494 74.8738 106.182 74.8738C106.965 74.8738 107.435 75.3786 107.435 76.2836H104.754ZM109.607 80.7394C110.564 80.7394 111.078 80.0693 111.408 79.2164L113.262 74.4126H112.583L111.661 76.9102C111.513 77.3106 111.356 77.7718 111.208 78.1895H111.174C110.999 77.7631 110.817 77.3018 110.651 76.9102L109.616 74.4126H108.893L110.869 78.8683L110.747 79.1816C110.521 79.7647 110.173 80.1476 109.581 80.1476C109.45 80.1476 109.311 80.1215 109.198 80.0867L109.05 80.6523C109.198 80.7045 109.407 80.7394 109.607 80.7394ZM115.913 78.9553C117.332 78.9553 117.801 78.0851 117.801 77.0147V73.0985H114.686V73.7077H117.079V76.9537C117.079 77.9023 116.714 78.32 115.896 78.32C115.452 78.32 115.017 78.0764 114.686 77.5629L114.216 77.9981C114.608 78.6681 115.269 78.9553 115.913 78.9553ZM121.34 73.4205C121.679 73.4205 121.949 73.1768 121.949 72.82C121.949 72.4545 121.679 72.2021 121.34 72.2021C121.001 72.2021 120.731 72.4545 120.731 72.82C120.731 73.1768 121.001 73.4205 121.34 73.4205ZM119.425 78.8509H123.429V78.2591H121.784V74.4126H119.425V74.9957H121.07V78.2591H119.425V78.8509ZM124.165 78.8509H128.29V78.233H125.044L128.246 73.5336V73.0985H124.443V73.7077H127.359L124.165 78.4158V78.8509ZM108.937 90.4543H109.703L110.556 88.8966C110.704 88.6181 110.852 88.3309 111.017 87.9828H111.052C111.243 88.3309 111.4 88.6268 111.556 88.9053L112.418 90.4543H113.219L111.513 87.5215L113.105 84.7106H112.34L111.556 86.1814C111.417 86.4424 111.304 86.6861 111.147 87.0168H111.113C110.93 86.6861 110.799 86.4424 110.651 86.1814L109.851 84.7106H109.05L110.643 87.4867L108.937 90.4543ZM114.233 90.4543H114.921V87.4432C114.921 86.8514 114.851 86.2336 114.825 85.6505H114.843L115.417 86.8253L117.271 90.4543H118.01V84.7106H117.323V87.6956C117.323 88.2961 117.392 88.9488 117.419 89.5144H117.401L116.827 88.3396L114.973 84.7106H114.233V90.4543ZM121.166 90.5587C122.402 90.5587 123.159 89.4709 123.159 87.5651C123.159 85.6418 122.402 84.6062 121.166 84.6062C119.93 84.6062 119.173 85.6418 119.173 87.5651C119.173 89.4709 119.93 90.5587 121.166 90.5587ZM121.166 89.9844C120.391 89.9844 119.843 89.2185 119.843 87.5651C119.843 85.9029 120.391 85.1806 121.166 85.1806C121.94 85.1806 122.489 85.9029 122.489 87.5651C122.489 89.2185 121.94 89.9844 121.166 89.9844ZM121.166 88.0959C121.453 88.0959 121.706 87.8783 121.706 87.5041C121.706 87.1299 121.453 86.9124 121.166 86.9124C120.879 86.9124 120.626 87.1299 120.626 87.5041C120.626 87.8783 120.879 88.0959 121.166 88.0959Z" fill="#07B07E" stroke="#07B07E" stroke-width="0.5"/>
<path d="M144.297 78.8502H145.063L145.916 77.2924C146.063 77.014 146.211 76.7268 146.377 76.3787H146.412C146.603 76.7268 146.76 77.0227 146.916 77.3011L147.778 78.8502H148.579L146.873 75.9174L148.465 73.1065H147.7L146.916 74.5772C146.777 74.8383 146.664 75.082 146.507 75.4127H146.473C146.29 75.082 146.159 74.8383 146.011 74.5772L145.211 73.1065H144.41L146.003 75.8826L144.297 78.8502ZM149.506 78.8502H153.414V78.2323H151.586C151.255 78.2323 150.89 78.2584 150.551 78.2845C152.065 76.8399 153.109 75.7695 153.109 74.6904C153.109 73.6722 152.413 73.0021 151.299 73.0021C150.516 73.0021 149.967 73.3502 149.471 73.8723L149.88 74.2814C150.237 73.8897 150.69 73.5852 151.212 73.5852C152.03 73.5852 152.422 74.0638 152.422 74.7165C152.422 75.6825 151.386 76.692 149.506 78.4238V78.8502ZM154.785 78.8502H155.508V76.4222H156.526L157.901 78.8502H158.727L157.274 76.3439C158.049 76.1437 158.553 75.6128 158.553 74.7165C158.553 73.5242 157.718 73.1065 156.561 73.1065H154.785V78.8502ZM155.508 75.8304V73.6896H156.456C157.344 73.6896 157.831 73.9594 157.831 74.7165C157.831 75.4649 157.344 75.8304 156.456 75.8304H155.508ZM159.769 78.8502H160.482V75.7521C160.979 75.1951 161.318 74.9253 161.823 74.9253C162.519 74.9253 162.797 75.3344 162.797 76.1872V78.8502H163.511V76.0915C163.511 74.9253 163.05 74.3075 162.049 74.3075C161.388 74.3075 160.9 74.6817 160.448 75.1864L160.482 74.1247V72.5234H159.769V78.8502ZM166.362 78.9633C166.884 78.9633 167.389 78.6326 167.737 78.2584H167.763L167.824 78.8502H168.416V72.5234H167.702V74.0551L167.728 74.8905C167.337 74.525 166.962 74.3075 166.449 74.3075C165.448 74.3075 164.526 75.2038 164.526 76.6397C164.526 78.1192 165.257 78.9633 166.362 78.9633ZM166.51 78.3628C165.727 78.3628 165.265 77.7015 165.265 76.631C165.265 75.6128 165.857 74.9079 166.588 74.9079C166.954 74.9079 167.319 75.0559 167.702 75.4388V77.6753C167.328 78.1279 166.928 78.3628 166.51 78.3628ZM151.804 90.558C152.543 90.558 153.144 90.2621 153.509 89.8966V87.4773H151.699V88.0778H152.839V89.5833C152.622 89.7922 152.248 89.9227 151.847 89.9227C150.725 89.9227 150.089 89.009 150.089 87.5643C150.089 86.1371 150.794 85.2408 151.865 85.2408C152.413 85.2408 152.752 85.467 153.031 85.7629L153.44 85.3017C153.118 84.9623 152.622 84.6055 151.865 84.6055C150.385 84.6055 149.332 85.7281 149.332 87.5818C149.332 89.4528 150.368 90.558 151.804 90.558ZM155.09 90.4536H155.812V87.8776H158.153V87.2685H155.812V85.3191H158.58V84.7099H155.09V90.4536ZM161.744 85.0232C162.084 85.0232 162.354 84.7795 162.354 84.4227C162.354 84.0572 162.084 83.8048 161.744 83.8048C161.405 83.8048 161.135 84.0572 161.135 84.4227C161.135 84.7795 161.405 85.0232 161.744 85.0232ZM159.83 90.4536H163.833V89.8618H162.188V86.0153H159.83V86.5984H161.475V89.8618H159.83V90.4536Z" fill="#07B07E" stroke="#07B07E" stroke-width="0.5"/>
<path d="M187.954 78.8502H188.685V76.7964L190.599 73.1065H189.851L189.024 74.8035C188.806 75.2473 188.58 75.6912 188.354 76.1524H188.319C188.084 75.6912 187.884 75.256 187.666 74.8209L186.805 73.1065H186.039L187.954 76.7964V78.8502ZM191.222 78.8502H191.988L192.841 77.2924C192.989 77.014 193.137 76.7268 193.302 76.3787H193.337C193.528 76.7268 193.685 77.0227 193.842 77.3011L194.703 78.8502H195.504L193.798 75.9174L195.391 73.1065H194.625L193.842 74.5772C193.703 74.8383 193.589 75.082 193.433 75.4127H193.398C193.215 75.082 193.085 74.8383 192.937 74.5772L192.136 73.1065H191.335L192.928 75.8826L191.222 78.8502ZM196.519 78.8502H197.206V75.8391C197.206 75.2473 197.137 74.6295 197.11 74.0464H197.128L197.702 75.2212L199.556 78.8502H200.296V73.1065H199.608V76.0915C199.608 76.692 199.678 77.3446 199.704 77.9103H199.686L199.112 76.7355L197.258 73.1065H196.519V78.8502ZM204.374 78.9633C204.835 78.9633 205.131 78.8415 205.514 78.6935L205.331 78.154C205.018 78.3019 204.774 78.3716 204.53 78.3716C204.025 78.3716 203.704 78.0844 203.704 77.4317V72.5234H201.545V73.1065H202.99V77.3795C202.99 78.4238 203.477 78.9633 204.374 78.9633ZM206.711 78.8502H210.279V78.2323H208.861V73.7157H210.279V73.1065H206.711V73.7157H208.13V78.2323H206.711V78.8502ZM193.781 85.0232C194.12 85.0232 194.39 84.7795 194.39 84.4227C194.39 84.0572 194.12 83.8048 193.781 83.8048C193.441 83.8048 193.172 84.0572 193.172 84.4227C193.172 84.7795 193.441 85.0232 193.781 85.0232ZM192.441 92.342C193.807 92.342 194.216 91.5762 194.216 90.4797V86.0153H191.536V86.5984H193.502V90.5406C193.502 91.3935 193.276 91.759 192.432 91.759C192.11 91.759 191.771 91.6633 191.466 91.5153L191.231 92.0462C191.57 92.2202 191.997 92.342 192.441 92.342ZM198.407 90.5667C199.521 90.5667 200.496 89.7139 200.496 88.2432C200.496 86.755 199.521 85.9109 198.407 85.9109C197.293 85.9109 196.319 86.755 196.319 88.2432C196.319 89.7139 197.293 90.5667 198.407 90.5667ZM198.407 89.975C197.598 89.975 197.058 89.2788 197.058 88.2432C197.058 87.2075 197.598 86.5026 198.407 86.5026C199.216 86.5026 199.756 87.2075 199.756 88.2432C199.756 89.2788 199.216 89.975 198.407 89.975ZM203.625 85.0232C203.965 85.0232 204.234 84.7795 204.234 84.4227C204.234 84.0572 203.965 83.8048 203.625 83.8048C203.286 83.8048 203.016 84.0572 203.016 84.4227C203.016 84.7795 203.286 85.0232 203.625 85.0232ZM201.711 90.4536H205.714V89.8618H204.069V86.0153H201.711V86.5984H203.355V89.8618H201.711V90.4536Z" fill="#07B07E" stroke="#07B07E" stroke-width="0.5"/>
<path d="M228.885 78.9642C229.512 78.9642 230.104 78.7031 230.565 78.268L230.251 77.8067C229.895 78.12 229.46 78.3724 228.937 78.3724C227.963 78.3724 227.31 77.6762 227.31 76.6406C227.31 75.605 227.98 74.9001 228.955 74.9001C229.399 74.9001 229.764 75.0915 230.112 75.4222L230.469 74.961C230.121 74.6042 229.616 74.3083 228.929 74.3083C227.649 74.3083 226.57 75.1525 226.57 76.6406C226.57 78.1113 227.562 78.9642 228.885 78.9642ZM233.416 78.9555C234.521 78.9555 235.426 78.3376 235.426 77.3194C235.426 76.5275 234.791 76.0227 234.051 75.8661V75.8226C234.739 75.5963 235.235 75.1525 235.235 74.4563C235.235 73.5338 234.443 73.0029 233.398 73.0029C232.685 73.0029 232.084 73.3075 231.623 73.7252L232.006 74.1778C232.371 73.8297 232.85 73.586 233.372 73.586C234.051 73.586 234.504 73.9428 234.504 74.5085C234.504 75.1177 233.999 75.5876 232.685 75.5876V76.1445C234.147 76.1445 234.704 76.6058 234.704 77.302C234.704 77.946 234.129 78.3637 233.372 78.3637C232.659 78.3637 232.145 78.0417 231.78 77.6762L231.414 78.1461C231.823 78.5726 232.458 78.9555 233.416 78.9555ZM238.155 78.851H238.999L240.809 73.1074H240.07L239.156 76.2142C238.956 76.893 238.817 77.4325 238.608 78.1113H238.573C238.364 77.4325 238.225 76.893 238.025 76.2142L237.102 73.1074H236.336L238.155 78.851ZM242.025 78.851H242.878L243.365 76.5623C243.47 76.0575 243.53 75.6572 243.6 75.2743H243.635C243.722 75.7181 243.792 76.1358 243.87 76.5536L244.375 78.851H245.236L246.159 74.4127H245.48L244.975 77.0148C244.897 77.4325 244.836 77.8328 244.757 78.2419H244.723C244.636 77.8328 244.557 77.4325 244.462 77.0148L243.939 74.6564H243.33L242.817 77.0148C242.721 77.4238 242.643 77.8328 242.564 78.2419H242.53C242.469 77.8328 242.399 77.4325 242.321 77.0148L241.807 74.4127H241.076L242.025 78.851ZM248.296 78.851H249.027V76.7972L250.942 73.1074H250.193L249.366 74.8044C249.149 75.2482 248.923 75.692 248.696 76.1532H248.661C248.426 75.692 248.226 75.2569 248.009 74.8218L247.147 73.1074H246.381L248.296 76.7972V78.851ZM231.884 90.4545H232.667L233.294 88.0438C233.381 87.7044 233.451 87.3476 233.52 87.0082H233.546C233.607 87.3476 233.677 87.7044 233.755 88.0438L234.408 90.4545H235.208L236.053 84.7021H235.365L234.93 88.3136C234.895 88.7836 234.843 89.2622 234.808 89.7321H234.773C234.651 89.2622 234.521 88.7749 234.417 88.3136L233.816 86.1902H233.303L232.702 88.3136C232.589 88.7836 232.458 89.2622 232.337 89.7321H232.311C232.276 89.2622 232.215 88.7923 232.189 88.3136L231.727 84.7021H231.005L231.884 90.4545ZM238.364 90.5589C239.783 90.5589 240.252 89.6886 240.252 88.6182V84.7021H237.137V85.3112H239.53V88.5573C239.53 89.5059 239.165 89.9236 238.347 89.9236C237.903 89.9236 237.468 89.6799 237.137 89.1665L236.667 89.6016C237.059 90.2717 237.72 90.5589 238.364 90.5589ZM241.816 90.4545H242.53V87.3563C243.026 86.7994 243.365 86.5296 243.87 86.5296C244.566 86.5296 244.845 86.9386 244.845 87.7915V90.4545H245.558V87.6957C245.558 86.5296 245.097 85.9117 244.096 85.9117C243.435 85.9117 242.947 86.2859 242.495 86.7907L242.53 85.729V84.1277H241.816V90.4545Z" fill="#07B07E" stroke="#07B07E" stroke-width="0.5"/>
<path d="M269.651 78.964C270.277 78.964 270.869 78.703 271.33 78.2678L271.017 77.8066C270.66 78.1199 270.225 78.3723 269.703 78.3723C268.728 78.3723 268.076 77.6761 268.076 76.6405C268.076 75.6049 268.746 74.8999 269.72 74.8999C270.164 74.8999 270.53 75.0914 270.878 75.4221L271.235 74.9609C270.887 74.6041 270.382 74.3082 269.694 74.3082C268.415 74.3082 267.336 75.1523 267.336 76.6405C267.336 78.1112 268.328 78.964 269.651 78.964ZM272.319 78.8509H276.226V78.233H274.399C274.068 78.233 273.703 78.2591 273.363 78.2852C274.878 76.8406 275.922 75.7702 275.922 74.6911C275.922 73.6729 275.226 73.0028 274.112 73.0028C273.329 73.0028 272.78 73.3509 272.284 73.873L272.693 74.2821C273.05 73.8904 273.503 73.5859 274.025 73.5859C274.843 73.5859 275.234 74.0645 275.234 74.7172C275.234 75.6832 274.199 76.6927 272.319 78.4245V78.8509ZM279.347 78.9553C280.461 78.9553 281.262 78.3287 281.262 76.684V73.1072H280.557V76.6927C280.557 77.8936 280.035 78.32 279.347 78.32C278.66 78.32 278.146 77.8936 278.146 76.6927V73.1072H277.415V76.684C277.415 78.3287 278.225 78.9553 279.347 78.9553ZM284.557 73.4205C284.896 73.4205 285.166 73.1768 285.166 72.82C285.166 72.4545 284.896 72.2021 284.557 72.2021C284.217 72.2021 283.947 72.4545 283.947 72.82C283.947 73.1768 284.217 73.4205 284.557 73.4205ZM282.642 78.8509H286.645V78.2591H285V74.4126H282.642V74.9957H284.287V78.2591H282.642V78.8509ZM288.922 78.8509H289.627V74.9957H291.402V74.4126H289.627V74.1863C289.627 73.4553 289.94 73.0028 290.697 73.0028C291.063 73.0028 291.332 73.0463 291.68 73.2203L291.846 72.6808C291.445 72.498 291.045 72.4197 290.627 72.4197C289.461 72.4197 288.922 73.1246 288.922 74.2124V74.4126L287.712 74.4648V74.9957H288.922V78.8509ZM275.852 91.8815C276.105 91.8815 276.313 91.8293 276.496 91.7597L276.366 91.1766C276.261 91.2201 276.113 91.2636 275.939 91.2636C275.347 91.2636 274.895 91.0113 274.704 90.5152C275.757 90.2977 276.453 89.1924 276.453 87.5564C276.453 85.7288 275.574 84.5975 274.286 84.5975C272.989 84.5975 272.11 85.7201 272.11 87.5564C272.11 89.2185 272.832 90.3325 273.929 90.5239C274.216 91.3072 274.843 91.8815 275.852 91.8815ZM274.286 89.9321C273.407 89.9321 272.85 88.9836 272.85 87.5564C272.85 86.1291 273.407 85.2241 274.286 85.2241C275.156 85.2241 275.713 86.1291 275.713 87.5564C275.713 88.9836 275.156 89.9321 274.286 89.9321ZM277.467 86.9211H281.21V86.3815H277.467V86.9211ZM277.467 88.7834H281.21V88.2439H277.467V88.7834ZM282.511 86.9211H286.254V86.3815H282.511V86.9211ZM282.511 88.7834H286.254V88.2439H282.511V88.7834Z" fill="#07B07E" stroke="#07B07E" stroke-width="0.5"/>
<path d="M24.899 75.575C26.114 75.575 26.744 76.367 26.69 77.753L26.681 78.122L23.63 78.14C23.63 78.941 24.161 79.499 24.917 79.499C25.295 79.499 25.7 79.364 26.186 78.896L26.564 79.364C26.15 79.814 25.565 80.084 24.935 80.084C23.81 80.084 23 79.274 23 78.14V77.753C23.036 76.376 23.675 75.575 24.899 75.575ZM26.015 77.564C26.06 76.646 25.664 76.133 24.836 76.133C24.008 76.133 23.675 76.682 23.639 77.564H26.015Z" fill="#07B07E"/>
<path d="M30.4232 74.63C29.9822 74.63 29.5772 74.936 29.5772 75.575V77.564H31.2782V78.14H29.5772V81.515L28.9382 81.47V78.14H28.1282V77.564H28.9382V75.575C28.9382 74.567 29.6672 74 30.4232 74C30.9812 74 31.5572 74.288 31.8812 74.999L31.3142 75.251C31.1252 74.819 30.7652 74.63 30.4232 74.63Z" fill="#07B07E"/>
<path d="M36.5955 74.117L34.9215 77.069L36.5055 79.967H35.7945L34.5615 77.699L33.2655 79.967H32.5815L34.2375 77.087L32.6265 74.117H33.3015L34.5975 76.466L35.9475 74.117H36.5955Z" fill="#07B07E"/>
<path d="M40.5807 78.626L41.3097 78.734C41.1477 79.553 40.4187 80.075 39.4377 80.075C38.2047 80.075 37.5117 79.301 37.5117 77.969C37.5117 76.61 38.1417 75.575 39.4377 75.575C40.2657 75.575 41.0127 76.043 41.2377 76.754L40.5357 76.952C40.3827 76.457 39.9327 76.169 39.4377 76.169C38.6007 76.169 38.2227 76.853 38.2227 77.969C38.2227 78.959 38.6457 79.481 39.4377 79.481C40.0587 79.481 40.4727 79.184 40.5807 78.626Z" fill="#07B07E"/>
<path d="M44.242 74.936C43.936 74.936 43.774 74.774 43.774 74.459C43.774 74.162 43.945 74 44.242 74C44.548 74 44.71 74.162 44.71 74.459C44.71 74.774 44.548 74.936 44.242 74.936ZM45.934 79.472C45.934 79.634 45.934 79.814 45.979 79.967H42.721V79.445H44.008V76.214L43.135 76.169V75.692H44.629L44.62 79.445H45.934V79.472Z" fill="#07B07E"/>
<path d="M28.809 86.936C28.503 86.936 28.341 86.774 28.341 86.459C28.341 86.162 28.512 86 28.809 86C29.115 86 29.277 86.162 29.277 86.459C29.277 86.774 29.115 86.936 28.809 86.936ZM30.501 91.472C30.501 91.634 30.501 91.814 30.546 91.967H27.288V91.445H28.575V88.214L27.702 88.169V87.692H29.196L29.187 91.445H30.501V91.472Z" fill="#07B07E"/>
<path d="M34.8012 87.35C34.8012 86.864 34.4412 86.558 33.7932 86.558C33.2982 86.558 32.8662 86.729 32.5062 87.296L32.0652 86.999C32.3982 86.315 32.9742 85.982 33.7482 85.982C34.7382 85.982 35.4312 86.54 35.4312 87.341C35.4312 88.619 33.8292 90.023 32.7222 91.364H35.6832V91.967H31.8582V91.364C32.9562 90.023 34.8012 88.556 34.8012 87.35Z" fill="#07B07E"/>
<path d="M40.5955 89.87C40.5955 91.211 39.8035 92.084 38.5795 92.084C37.2565 92.084 36.5005 91.022 36.5005 89.141C36.5005 87.224 37.4005 86 38.8045 86C39.3895 86 39.9025 86.252 40.5055 86.864L39.9745 87.296C39.5155 86.765 39.2365 86.594 38.8045 86.594C37.7785 86.594 37.2115 87.494 37.2115 89.141C37.2115 90.671 37.6885 91.481 38.5795 91.481C39.4345 91.481 39.9925 90.86 40.0105 89.87H38.6425V89.339H40.5955V89.87Z" fill="#07B07E"/>
<path d="M24.899 75.575C26.114 75.575 26.744 76.367 26.69 77.753L26.681 78.122L23.63 78.14C23.63 78.941 24.161 79.499 24.917 79.499C25.295 79.499 25.7 79.364 26.186 78.896L26.564 79.364C26.15 79.814 25.565 80.084 24.935 80.084C23.81 80.084 23 79.274 23 78.14V77.753C23.036 76.376 23.675 75.575 24.899 75.575ZM26.015 77.564C26.06 76.646 25.664 76.133 24.836 76.133C24.008 76.133 23.675 76.682 23.639 77.564H26.015Z" stroke="#07B07E" stroke-width="0.5"/>
<path d="M30.4232 74.63C29.9822 74.63 29.5772 74.936 29.5772 75.575V77.564H31.2782V78.14H29.5772V81.515L28.9382 81.47V78.14H28.1282V77.564H28.9382V75.575C28.9382 74.567 29.6672 74 30.4232 74C30.9812 74 31.5572 74.288 31.8812 74.999L31.3142 75.251C31.1252 74.819 30.7652 74.63 30.4232 74.63Z" stroke="#07B07E" stroke-width="0.5"/>
<path d="M36.5955 74.117L34.9215 77.069L36.5055 79.967H35.7945L34.5615 77.699L33.2655 79.967H32.5815L34.2375 77.087L32.6265 74.117H33.3015L34.5975 76.466L35.9475 74.117H36.5955Z" stroke="#07B07E" stroke-width="0.5"/>
<path d="M40.5807 78.626L41.3097 78.734C41.1477 79.553 40.4187 80.075 39.4377 80.075C38.2047 80.075 37.5117 79.301 37.5117 77.969C37.5117 76.61 38.1417 75.575 39.4377 75.575C40.2657 75.575 41.0127 76.043 41.2377 76.754L40.5357 76.952C40.3827 76.457 39.9327 76.169 39.4377 76.169C38.6007 76.169 38.2227 76.853 38.2227 77.969C38.2227 78.959 38.6457 79.481 39.4377 79.481C40.0587 79.481 40.4727 79.184 40.5807 78.626Z" stroke="#07B07E" stroke-width="0.5"/>
<path d="M44.242 74.936C43.936 74.936 43.774 74.774 43.774 74.459C43.774 74.162 43.945 74 44.242 74C44.548 74 44.71 74.162 44.71 74.459C44.71 74.774 44.548 74.936 44.242 74.936ZM45.934 79.472C45.934 79.634 45.934 79.814 45.979 79.967H42.721V79.445H44.008V76.214L43.135 76.169V75.692H44.629L44.62 79.445H45.934V79.472Z" stroke="#07B07E" stroke-width="0.5"/>
<path d="M28.809 86.936C28.503 86.936 28.341 86.774 28.341 86.459C28.341 86.162 28.512 86 28.809 86C29.115 86 29.277 86.162 29.277 86.459C29.277 86.774 29.115 86.936 28.809 86.936ZM30.501 91.472C30.501 91.634 30.501 91.814 30.546 91.967H27.288V91.445H28.575V88.214L27.702 88.169V87.692H29.196L29.187 91.445H30.501V91.472Z" stroke="#07B07E" stroke-width="0.5"/>
<path d="M34.8012 87.35C34.8012 86.864 34.4412 86.558 33.7932 86.558C33.2982 86.558 32.8662 86.729 32.5062 87.296L32.0652 86.999C32.3982 86.315 32.9742 85.982 33.7482 85.982C34.7382 85.982 35.4312 86.54 35.4312 87.341C35.4312 88.619 33.8292 90.023 32.7222 91.364H35.6832V91.967H31.8582V91.364C32.9562 90.023 34.8012 88.556 34.8012 87.35Z" stroke="#07B07E" stroke-width="0.5"/>
<path d="M40.5955 89.87C40.5955 91.211 39.8035 92.084 38.5795 92.084C37.2565 92.084 36.5005 91.022 36.5005 89.141C36.5005 87.224 37.4005 86 38.8045 86C39.3895 86 39.9025 86.252 40.5055 86.864L39.9745 87.296C39.5155 86.765 39.2365 86.594 38.8045 86.594C37.7785 86.594 37.2115 87.494 37.2115 89.141C37.2115 90.671 37.6885 91.481 38.5795 91.481C39.4345 91.481 39.9925 90.86 40.0105 89.87H38.6425V89.339H40.5955V89.87Z" stroke="#07B07E" stroke-width="0.5"/>
<path d="M66.717 79.967H65.97C65.97 79.571 65.232 78.482 64.728 77.609C64.593 77.618 64.458 77.627 64.314 77.627H63.639V79.967H63V74.117H64.764C65.871 74.117 66.6 74.819 66.6 75.899C66.6 76.79 66.159 77.276 65.412 77.492C65.916 78.383 66.717 79.544 66.717 79.967ZM63.639 76.988H64.683C65.547 76.988 65.988 76.619 65.988 75.899C65.988 75.17 65.547 74.756 64.764 74.756H63.639V76.988Z" fill="#07B07E"/>
<path d="M71.5482 79.967H70.8642V79.643C70.5492 79.922 70.1262 80.075 69.6582 80.075C68.4702 80.075 67.6872 79.139 67.6872 77.708C67.6872 76.358 68.3802 75.575 69.5862 75.575C70.1532 75.575 70.5402 75.773 70.8642 76.232V74.072L71.5032 74.117V79.472C71.5032 79.634 71.5032 79.814 71.5482 79.967ZM69.6582 79.463C70.2972 79.463 70.6662 79.265 70.8642 78.806V76.979C70.5852 76.439 70.1262 76.133 69.5862 76.133C68.8212 76.133 68.3262 76.754 68.3262 77.708C68.3262 78.734 68.8752 79.463 69.6582 79.463Z" fill="#07B07E"/>
<path d="M74.4535 74.936C74.1475 74.936 73.9855 74.774 73.9855 74.459C73.9855 74.162 74.1565 74 74.4535 74C74.7595 74 74.9215 74.162 74.9215 74.459C74.9215 74.774 74.7595 74.936 74.4535 74.936ZM76.1455 79.472C76.1455 79.634 76.1455 79.814 76.1905 79.967H72.9325V79.445H74.2195V76.214L73.3465 76.169V75.692H74.8405L74.8315 79.445H76.1455V79.472Z" fill="#07B07E"/>
<path d="M78.1867 79.364H81.3727V79.967H77.3677V79.364L78.6727 77.384H77.7997V76.808H79.0417L80.4187 74.72H77.5927V74.117H81.2287V74.72L79.8607 76.808H80.9497V77.384H79.4827L78.1867 79.364Z" fill="#07B07E"/>
<path d="M86.24 74.117L84.566 77.069L86.15 79.967H85.439L84.206 77.699L82.91 79.967H82.226L83.882 77.087L82.271 74.117H82.946L84.242 76.466L85.592 74.117H86.24Z" fill="#07B07E"/>
<path d="M70.015 87.692H70.69L69.052 91.967H68.413L66.901 87.692H67.576L68.746 90.968L70.015 87.692Z" fill="#07B07E"/>
<path d="M74.8732 87.692H75.5482L73.9102 91.967H73.2712L71.7592 87.692H72.4342L73.6042 90.968L74.8732 87.692Z" fill="#07B07E"/>
<path d="M80.2985 86.117H80.3525C80.3075 86.27 80.3075 86.45 80.3075 86.612V90.734C80.3075 91.544 79.6055 92.084 78.5165 92.084C77.7245 92.084 76.9775 91.805 76.6625 91.391L77.0495 90.923C77.3645 91.301 77.8865 91.499 78.5345 91.499C79.2905 91.499 79.6685 91.238 79.6685 90.734V86.684H77.1485V86.108H80.2985V86.117Z" fill="#07B07E"/>
<path d="M66.717 79.967H65.97C65.97 79.571 65.232 78.482 64.728 77.609C64.593 77.618 64.458 77.627 64.314 77.627H63.639V79.967H63V74.117H64.764C65.871 74.117 66.6 74.819 66.6 75.899C66.6 76.79 66.159 77.276 65.412 77.492C65.916 78.383 66.717 79.544 66.717 79.967ZM63.639 76.988H64.683C65.547 76.988 65.988 76.619 65.988 75.899C65.988 75.17 65.547 74.756 64.764 74.756H63.639V76.988Z" stroke="#07B07E" stroke-width="0.5"/>
<path d="M71.5482 79.967H70.8642V79.643C70.5492 79.922 70.1262 80.075 69.6582 80.075C68.4702 80.075 67.6872 79.139 67.6872 77.708C67.6872 76.358 68.3802 75.575 69.5862 75.575C70.1532 75.575 70.5402 75.773 70.8642 76.232V74.072L71.5032 74.117V79.472C71.5032 79.634 71.5032 79.814 71.5482 79.967ZM69.6582 79.463C70.2972 79.463 70.6662 79.265 70.8642 78.806V76.979C70.5852 76.439 70.1262 76.133 69.5862 76.133C68.8212 76.133 68.3262 76.754 68.3262 77.708C68.3262 78.734 68.8752 79.463 69.6582 79.463Z" stroke="#07B07E" stroke-width="0.5"/>
<path d="M74.4535 74.936C74.1475 74.936 73.9855 74.774 73.9855 74.459C73.9855 74.162 74.1565 74 74.4535 74C74.7595 74 74.9215 74.162 74.9215 74.459C74.9215 74.774 74.7595 74.936 74.4535 74.936ZM76.1455 79.472C76.1455 79.634 76.1455 79.814 76.1905 79.967H72.9325V79.445H74.2195V76.214L73.3465 76.169V75.692H74.8405L74.8315 79.445H76.1455V79.472Z" stroke="#07B07E" stroke-width="0.5"/>
<path d="M78.1867 79.364H81.3727V79.967H77.3677V79.364L78.6727 77.384H77.7997V76.808H79.0417L80.4187 74.72H77.5927V74.117H81.2287V74.72L79.8607 76.808H80.9497V77.384H79.4827L78.1867 79.364Z" stroke="#07B07E" stroke-width="0.5"/>
<path d="M86.24 74.117L84.566 77.069L86.15 79.967H85.439L84.206 77.699L82.91 79.967H82.226L83.882 77.087L82.271 74.117H82.946L84.242 76.466L85.592 74.117H86.24Z" stroke="#07B07E" stroke-width="0.5"/>
<path d="M70.015 87.692H70.69L69.052 91.967H68.413L66.901 87.692H67.576L68.746 90.968L70.015 87.692Z" stroke="#07B07E" stroke-width="0.5"/>
<path d="M74.8732 87.692H75.5482L73.9102 91.967H73.2712L71.7592 87.692H72.4342L73.6042 90.968L74.8732 87.692Z" stroke="#07B07E" stroke-width="0.5"/>
<path d="M80.2985 86.117H80.3525C80.3075 86.27 80.3075 86.45 80.3075 86.612V90.734C80.3075 91.544 79.6055 92.084 78.5165 92.084C77.7245 92.084 76.9775 91.805 76.6625 91.391L77.0495 90.923C77.3645 91.301 77.8865 91.499 78.5345 91.499C79.2905 91.499 79.6685 91.238 79.6685 90.734V86.684H77.1485V86.108H80.2985V86.117Z" stroke="#07B07E" stroke-width="0.5"/>
<path d="M132.143 45.4707H100.305V114.013H132.143V45.4707Z" fill="url(#paint0_linear_8197_3575)" stroke="url(#paint1_linear_8197_3575)"/>
<path d="M172.94 45.4707H141.102V114.013H172.94V45.4707Z" fill="url(#paint2_linear_8197_3575)" stroke="url(#paint3_linear_8197_3575)"/>
<path d="M213.729 45.4707H181.891V114.013H213.729V45.4707Z" fill="url(#paint4_linear_8197_3575)" stroke="url(#paint5_linear_8197_3575)"/>
<path d="M254.51 45.4707H222.672V114.013H254.51V45.4707Z" fill="url(#paint6_linear_8197_3575)" stroke="url(#paint7_linear_8197_3575)"/>
<path d="M295.299 45.4707H263.461V114.013H295.299V45.4707Z" fill="url(#paint8_linear_8197_3575)" stroke="url(#paint9_linear_8197_3575)"/>
<path d="M49.8383 47H18V115.542H49.8383V47Z" fill="url(#paint10_linear_8197_3575)" stroke="url(#paint11_linear_8197_3575)"/>
<path d="M90.6274 47H58.7891V115.542H90.6274V47Z" fill="url(#paint12_linear_8197_3575)" stroke="url(#paint13_linear_8197_3575)"/>
<path d="M314 0H0V162H314V0Z" fill="url(#paint14_radial_8197_3575)"/>
<defs>
<linearGradient id="paint0_linear_8197_3575" x1="132.143" y1="45.4707" x2="136.397" y2="109.058" gradientUnits="userSpaceOnUse">
<stop stop-color="#222222" stop-opacity="0"/>
<stop offset="0.473958" stop-color="#60C2BD" stop-opacity="0.58"/>
<stop offset="1" stop-color="white" stop-opacity="0"/>
</linearGradient>
<linearGradient id="paint1_linear_8197_3575" x1="116.224" y1="45.4707" x2="116.224" y2="114.014" gradientUnits="userSpaceOnUse">
<stop stop-opacity="0"/>
<stop offset="0.489583" stop-color="#6DC6AB"/>
<stop offset="1" stop-color="white" stop-opacity="0"/>
</linearGradient>
<linearGradient id="paint2_linear_8197_3575" x1="172.94" y1="45.4707" x2="177.194" y2="109.058" gradientUnits="userSpaceOnUse">
<stop stop-opacity="0"/>
<stop offset="0.473958" stop-color="#60C2BD" stop-opacity="0.58"/>
<stop offset="1" stop-color="white" stop-opacity="0"/>
</linearGradient>
<linearGradient id="paint3_linear_8197_3575" x1="157.02" y1="45.4707" x2="157.02" y2="114.014" gradientUnits="userSpaceOnUse">
<stop stop-opacity="0"/>
<stop offset="0.489583" stop-color="#6DC6AB"/>
<stop offset="1" stop-color="white" stop-opacity="0"/>
</linearGradient>
<linearGradient id="paint4_linear_8197_3575" x1="213.729" y1="45.4707" x2="213.729" y2="109.343" gradientUnits="userSpaceOnUse">
<stop stop-opacity="0"/>
<stop offset="0.473958" stop-color="#60C2BD" stop-opacity="0.58"/>
<stop offset="1" stop-color="white" stop-opacity="0"/>
</linearGradient>
<linearGradient id="paint5_linear_8197_3575" x1="197.81" y1="45.4707" x2="197.81" y2="114.014" gradientUnits="userSpaceOnUse">
<stop stop-opacity="0"/>
<stop offset="0.489583" stop-color="#6DC6AB"/>
<stop offset="1" stop-color="white" stop-opacity="0"/>
</linearGradient>
<linearGradient id="paint6_linear_8197_3575" x1="254.51" y1="45.4707" x2="258.764" y2="109.058" gradientUnits="userSpaceOnUse">
<stop stop-opacity="0"/>
<stop offset="0.473958" stop-color="#60C2BD" stop-opacity="0.58"/>
<stop offset="1" stop-color="white" stop-opacity="0"/>
</linearGradient>
<linearGradient id="paint7_linear_8197_3575" x1="238.591" y1="45.4707" x2="238.591" y2="114.014" gradientUnits="userSpaceOnUse">
<stop stop-opacity="0"/>
<stop offset="0.489583" stop-color="#6DC6AB"/>
<stop offset="1" stop-color="white" stop-opacity="0"/>
</linearGradient>
<linearGradient id="paint8_linear_8197_3575" x1="295.299" y1="45.4707" x2="299.553" y2="109.058" gradientUnits="userSpaceOnUse">
<stop stop-opacity="0"/>
<stop offset="0.473958" stop-color="#60C2BD" stop-opacity="0.58"/>
<stop offset="1" stop-color="white" stop-opacity="0"/>
</linearGradient>
<linearGradient id="paint9_linear_8197_3575" x1="279.38" y1="45.4707" x2="279.38" y2="114.014" gradientUnits="userSpaceOnUse">
<stop stop-opacity="0"/>
<stop offset="0.489583" stop-color="#6DC6AB"/>
<stop offset="1" stop-color="white" stop-opacity="0"/>
</linearGradient>
<linearGradient id="paint10_linear_8197_3575" x1="49.8386" y1="47" x2="54.0924" y2="110.587" gradientUnits="userSpaceOnUse">
<stop stop-opacity="0"/>
<stop offset="0.473958" stop-color="#60C2BD" stop-opacity="0.58"/>
<stop offset="1" stop-color="white" stop-opacity="0"/>
</linearGradient>
<linearGradient id="paint11_linear_8197_3575" x1="33.9193" y1="47" x2="33.9193" y2="115.543" gradientUnits="userSpaceOnUse">
<stop stop-opacity="0"/>
<stop offset="0.489583" stop-color="#6DC6AB"/>
<stop offset="1" stop-color="white" stop-opacity="0"/>
</linearGradient>
<linearGradient id="paint12_linear_8197_3575" x1="90.6271" y1="47" x2="94.8815" y2="110.587" gradientUnits="userSpaceOnUse">
<stop stop-opacity="0"/>
<stop offset="0.473958" stop-color="#60C2BD" stop-opacity="0.58"/>
<stop offset="1" stop-color="white" stop-opacity="0"/>
</linearGradient>
<linearGradient id="paint13_linear_8197_3575" x1="74.7084" y1="47" x2="74.7084" y2="115.543" gradientUnits="userSpaceOnUse">
<stop stop-opacity="0"/>
<stop offset="0.489583" stop-color="#6DC6AB"/>
<stop offset="1" stop-color="white" stop-opacity="0"/>
</linearGradient>
<radialGradient id="paint14_radial_8197_3575" cx="0" cy="0" r="1" gradientUnits="userSpaceOnUse" gradientTransform="translate(160.401 90.5) rotate(84.4895) scale(118.046 204.966)">
<stop stop-color="#232323" stop-opacity="0"/>
<stop offset="1" stop-color="#232323"/>
</radialGradient>
</defs>
</svg>
