<svg width="390" height="430" viewBox="0 0 390 430" fill="none" xmlns="http://www.w3.org/2000/svg">
<mask id="mask0_8196_3441" style="mask-type:luminance" maskUnits="userSpaceOnUse" x="41" y="45" width="309" height="340">
<path d="M349.372 45H41V385H349.372V45Z" fill="white"/>
</mask>
<g mask="url(#mask0_8196_3441)">
<mask id="mask1_8196_3441" style="mask-type:luminance" maskUnits="userSpaceOnUse" x="41" y="45" width="309" height="340">
<path d="M349.372 45H41V385H349.372V45Z" fill="white"/>
</mask>
<g mask="url(#mask1_8196_3441)">
<path d="M-38.0703 347.529L195.558 219.745L428.289 347.529H-38.0703Z" fill="url(#paint0_linear_8196_3441)"/>
<mask id="mask2_8196_3441" style="mask-type:alpha" maskUnits="userSpaceOnUse" x="49" y="54" width="293" height="324">
<path d="M341.112 54.1748H49.7031V377.71H341.112V54.1748Z" fill="url(#paint1_radial_8196_3441)"/>
</mask>
<g mask="url(#mask2_8196_3441)">
<path d="M332.95 295.667V137.131L194.963 57.8623L56.9766 137.131V295.667M332.95 295.667L194.963 374.936L56.9766 295.667M332.95 295.667L195.66 220.039M56.9766 295.667L195.66 220.039M195.66 220.039V61.6763M228.5 238.086V85.3124M260.062 255.473V102.765M295.649 275.077V123.865M161.826 238.53V85.3123M131.443 255.075V102.818M96.5604 273.213V121.982M57.5112 260.715L195.361 182.71M57.5112 222.533L195.361 144.528M57.5112 185.814L195.361 107.808M333.026 260.873L195.967 182.867M333.026 222.862L195.967 144.066M333.026 183.6L195.967 107.966" stroke="#7E7E7E" stroke-width="0.5"/>
</g>
<path opacity="0.7" d="M195.577 122.489L272.67 173.887V255.172L195.577 306.722L118.484 255.172M193.888 122.489L118.484 173.885V255.171" stroke="url(#paint2_linear_8196_3441)" stroke-width="0.425139"/>
<path opacity="0.7" d="M196.369 104.303L282.16 164.524V259.764L196.369 320.163L110.578 259.764M194.489 104.303L110.578 164.521V259.763" stroke="url(#paint3_linear_8196_3441)" stroke-width="0.425139"/>
<path opacity="0.7" d="M196.765 86.9072L290.858 155.069V262.869L196.765 331.233L102.672 262.869M194.704 86.9072L102.672 155.066V262.867" stroke="url(#paint4_linear_8196_3441)" stroke-width="0.425139"/>
<path opacity="0.7" d="M196.77 70.3027L301.143 145.965V265.626L196.77 341.512L92.3984 265.626M194.484 70.3027L92.3984 145.961V265.623" stroke="url(#paint5_linear_8196_3441)" stroke-width="0.425139"/>
<path opacity="0.7" d="M196.767 57.6514L310.627 140.372V271.197L196.767 354.163L82.9062 271.197M194.272 57.6514L82.9062 140.369V271.195" stroke="url(#paint6_linear_8196_3441)" stroke-width="0.425139"/>
<path d="M280.209 226.935C280.865 226.935 281.396 226.407 281.396 225.756C281.396 225.104 280.865 224.575 280.209 224.575C279.555 224.575 279.023 225.104 279.023 225.756C279.023 226.407 279.555 226.935 280.209 226.935Z" fill="#707070"/>
<path d="M176.609 95.5478C177.609 95.5478 178.421 94.7365 178.421 93.7358C178.421 92.735 177.609 91.9238 176.609 91.9238C175.608 91.9238 174.797 92.735 174.797 93.7358C174.797 94.7365 175.608 95.5478 176.609 95.5478Z" fill="#1C1C1C"/>
<path d="M96.4001 172.282C96.8368 172.282 97.1908 171.931 97.1908 171.496C97.1908 171.062 96.8368 170.709 96.4001 170.709C95.9634 170.709 95.6094 171.062 95.6094 171.496C95.6094 171.931 95.9634 172.282 96.4001 172.282Z" fill="#00FFA7"/>
<path d="M258.002 113.592C258.439 113.592 258.792 113.24 258.792 112.805C258.792 112.371 258.439 112.019 258.002 112.019C257.565 112.019 257.211 112.371 257.211 112.805C257.211 113.24 257.565 113.592 258.002 113.592Z" fill="#707070"/>
<path d="M210.48 138.405C211.353 138.405 212.061 137.7 212.061 136.831C212.061 135.962 211.353 135.258 210.48 135.258C209.606 135.258 208.898 135.962 208.898 136.831C208.898 137.7 209.606 138.405 210.48 138.405Z" fill="#1C1C1C"/>
<path d="M154.163 124.831C154.818 124.831 155.349 124.302 155.349 123.651C155.349 122.999 154.818 122.471 154.163 122.471C153.508 122.471 152.977 122.999 152.977 123.651C152.977 124.302 153.508 124.831 154.163 124.831Z" fill="#1C1C1C"/>
<path d="M125.892 317.796C126.329 317.796 126.683 317.443 126.683 317.009C126.683 316.575 126.329 316.223 125.892 316.223C125.456 316.223 125.102 316.575 125.102 317.009C125.102 317.443 125.456 317.796 125.892 317.796Z" fill="#00FFA7"/>
<path d="M267.203 245.931C268.984 245.931 270.429 244.494 270.429 242.721C270.429 240.948 268.984 239.512 267.203 239.512C265.421 239.512 263.977 240.948 263.977 242.721C263.977 244.494 265.421 245.931 267.203 245.931Z" fill="#1C1C1C"/>
<path d="M116.213 222.639C116.961 222.639 117.567 222.036 117.567 221.293C117.567 220.549 116.961 219.945 116.213 219.945C115.465 219.945 114.859 220.549 114.859 221.293C114.859 222.036 115.465 222.639 116.213 222.639Z" fill="#1C1C1C"/>
<path d="M273.658 213.778C274.406 213.778 275.013 213.175 275.013 212.431C275.013 211.687 274.406 211.084 273.658 211.084C272.911 211.084 272.305 211.687 272.305 212.431C272.305 213.175 272.911 213.778 273.658 213.778Z" fill="#1C1C1C"/>
<path d="M310.733 282.869C311.734 282.869 312.546 282.058 312.546 281.057C312.546 280.056 311.734 279.245 310.733 279.245C309.733 279.245 308.922 280.056 308.922 281.057C308.922 282.058 309.733 282.869 310.733 282.869Z" fill="#1C1C1C"/>
<path d="M304.071 125.674C304.96 125.674 305.681 124.957 305.681 124.072C305.681 123.188 304.96 122.471 304.071 122.471C303.181 122.471 302.461 123.188 302.461 124.072C302.461 124.957 303.181 125.674 304.071 125.674Z" fill="#1C1C1C"/>
<path d="M259.611 319.407C260.047 319.407 260.402 319.055 260.402 318.621C260.402 318.186 260.047 317.834 259.611 317.834C259.174 317.834 258.82 318.186 258.82 318.621C258.82 319.055 259.174 319.407 259.611 319.407Z" fill="#00FFA7"/>
<path d="M160.631 154.581C161.286 154.581 161.817 154.052 161.817 153.4C161.817 152.749 161.286 152.221 160.631 152.221C159.976 152.221 159.445 152.749 159.445 153.4C159.445 154.052 159.976 154.581 160.631 154.581Z" fill="#707070"/>
<path d="M109.33 299.313C109.766 299.313 110.12 298.96 110.12 298.526C110.12 298.091 109.766 297.739 109.33 297.739C108.893 297.739 108.539 298.091 108.539 298.526C108.539 298.96 108.893 299.313 109.33 299.313Z" fill="#1C1C1C"/>
<path d="M220.442 99.1412C220.66 99.1412 220.838 98.9651 220.838 98.7479C220.838 98.5306 220.66 98.3545 220.442 98.3545C220.223 98.3545 220.047 98.5306 220.047 98.7479C220.047 98.9651 220.223 99.1412 220.442 99.1412Z" fill="#707070"/>
<path d="M219.639 133.717C220.751 133.717 221.653 132.821 221.653 131.714C221.653 130.607 220.751 129.71 219.639 129.71C218.526 129.71 217.625 130.607 217.625 131.714C217.625 132.821 218.526 133.717 219.639 133.717Z" fill="#1C1C1C"/>
<path d="M229.735 157.834C230.624 157.834 231.345 157.117 231.345 156.232C231.345 155.347 230.624 154.63 229.735 154.63C228.846 154.63 228.125 155.347 228.125 156.232C228.125 157.117 228.846 157.834 229.735 157.834Z" fill="#1C1C1C"/>
<path d="M68.9235 244.638C69.3602 244.638 69.7142 244.286 69.7142 243.851C69.7142 243.417 69.3602 243.064 68.9235 243.064C68.4868 243.064 68.1328 243.417 68.1328 243.851C68.1328 244.286 68.4868 244.638 68.9235 244.638Z" fill="#707070"/>
<path d="M107.994 117.941C108.43 117.941 108.785 117.588 108.785 117.154C108.785 116.719 108.43 116.367 107.994 116.367C107.557 116.367 107.203 116.719 107.203 117.154C107.203 117.588 107.557 117.941 107.994 117.941Z" fill="#00FFA7"/>
<path d="M83.4917 292.517C84.4924 292.517 85.3037 291.706 85.3037 290.706C85.3037 289.705 84.4924 288.894 83.4917 288.894C82.4909 288.894 81.6797 289.705 81.6797 290.706C81.6797 291.706 82.4909 292.517 83.4917 292.517Z" fill="#1C1C1C"/>
<path d="M240.759 90.0071C241.196 90.0071 241.55 89.6548 241.55 89.2203C241.55 88.7859 241.196 88.4336 240.759 88.4336C240.322 88.4336 239.969 88.7859 239.969 89.2203C239.969 89.6548 240.322 90.0071 240.759 90.0071Z" fill="#00FFA7"/>
<path d="M184.113 120.892C184.986 120.892 185.694 120.188 185.694 119.319C185.694 118.45 184.986 117.745 184.113 117.745C183.239 117.745 182.531 118.45 182.531 119.319C182.531 120.188 183.239 120.892 184.113 120.892Z" fill="#00FFA7"/>
<path d="M293.993 181.869C294.881 181.869 295.603 181.152 295.603 180.267C295.603 179.382 294.881 178.665 293.993 178.665C293.103 178.665 292.383 179.382 292.383 180.267C292.383 181.152 293.103 181.869 293.993 181.869Z" fill="#00FFA7"/>
<path d="M276.235 128.795C277.327 128.795 278.211 127.914 278.211 126.829C278.211 125.742 277.327 124.861 276.235 124.861C275.143 124.861 274.258 125.742 274.258 126.829C274.258 127.914 275.143 128.795 276.235 128.795Z" fill="#00FFA7"/>
<mask id="mask3_8196_3441" style="mask-type:alpha" maskUnits="userSpaceOnUse" x="131" y="180" width="65" height="112">
<path d="M195.812 217.998L131.664 180.976L131.97 254.768L195.812 291.761V217.998Z" fill="url(#paint7_linear_8196_3441)"/>
</mask>
<g mask="url(#mask3_8196_3441)">
<path d="M195.812 217.998L131.664 180.976L131.97 254.768L195.812 291.761V217.998Z" fill="#1C1C1C"/>
</g>
<mask id="mask4_8196_3441" style="mask-type:alpha" maskUnits="userSpaceOnUse" x="195" y="180" width="65" height="112">
<path d="M195.625 217.994L259.805 180.834V254.693L195.907 291.914L195.625 217.994Z" fill="url(#paint8_linear_8196_3441)"/>
</mask>
<g mask="url(#mask4_8196_3441)">
<path d="M195.625 217.994L259.805 180.834V254.693L195.907 291.914L195.625 217.994Z" fill="#1C1C1C"/>
</g>
<mask id="mask5_8196_3441" style="mask-type:alpha" maskUnits="userSpaceOnUse" x="132" y="144" width="127" height="74">
<path d="M195.782 217.987L132.172 181.3L195.685 144.632L258.803 181.083L195.782 217.987Z" fill="url(#paint9_linear_8196_3441)"/>
</mask>
<g mask="url(#mask5_8196_3441)">
<path d="M195.782 217.987L132.172 181.3L195.685 144.632L258.803 181.083L195.782 217.987Z" fill="#1C1C1C"/>
</g>
<path opacity="0.3" d="M195.913 144.109L259.85 181.023V254.851L195.913 291.764L131.977 254.851V181.023L195.913 144.109Z" stroke="#3FCF8E"/>
<g filter="url(#filter0_f_8196_3441)">
<path d="M195.624 144.399L259.435 181.241V254.924L195.624 291.766L131.812 254.924V181.241L195.624 144.399Z" stroke="#3FCF8E" stroke-width="1.48" stroke-linejoin="bevel"/>
</g>
<path d="M260.026 165.978H228.398V268.768H260.026V165.978Z" fill="url(#paint10_linear_8196_3441)"/>
<path d="M161.978 160.442H131.141V263.233H161.978V160.442Z" fill="url(#paint11_linear_8196_3441)"/>
<path d="M195.188 146.605L161.188 164.792V243.466H195.188V146.605Z" fill="url(#paint12_linear_8196_3441)"/>
<path d="M228.397 163.21L195.188 144.233V260.071H228.397V163.21Z" fill="url(#paint13_linear_8196_3441)"/>
</g>
</g>
<defs>
<filter id="filter0_f_8196_3441" x="124.19" y="136.879" width="142.862" height="162.407" filterUnits="userSpaceOnUse" color-interpolation-filters="sRGB">
<feFlood flood-opacity="0" result="BackgroundImageFix"/>
<feBlend mode="normal" in="SourceGraphic" in2="BackgroundImageFix" result="shape"/>
<feGaussianBlur stdDeviation="3.44" result="effect1_foregroundBlur_8196_3441"/>
</filter>
<linearGradient id="paint0_linear_8196_3441" x1="193.984" y1="252.996" x2="193.984" y2="295.792" gradientUnits="userSpaceOnUse">
<stop stop-color="white" stop-opacity="0.1"/>
<stop offset="1" stop-color="#5D6167" stop-opacity="0"/>
</linearGradient>
<radialGradient id="paint1_radial_8196_3441" cx="0" cy="0" r="1" gradientUnits="userSpaceOnUse" gradientTransform="translate(195.407 215.942) rotate(90) scale(138.334 124.597)">
<stop stop-color="white"/>
<stop offset="1" stop-color="white" stop-opacity="0"/>
</radialGradient>
<linearGradient id="paint2_linear_8196_3441" x1="225.755" y1="312.732" x2="225.755" y2="180.072" gradientUnits="userSpaceOnUse">
<stop stop-color="#375965" stop-opacity="0"/>
<stop offset="0.494792" stop-color="#7AFFDF"/>
<stop offset="1" stop-color="#375965" stop-opacity="0"/>
</linearGradient>
<linearGradient id="paint3_linear_8196_3441" x1="229.951" y1="327.205" x2="229.951" y2="171.771" gradientUnits="userSpaceOnUse">
<stop stop-color="#375965" stop-opacity="0"/>
<stop offset="0.494792" stop-color="#7AFFDF"/>
<stop offset="1" stop-color="#375965" stop-opacity="0"/>
</linearGradient>
<linearGradient id="paint4_linear_8196_3441" x1="233.598" y1="339.203" x2="233.598" y2="163.273" gradientUnits="userSpaceOnUse">
<stop stop-color="#375965" stop-opacity="0"/>
<stop offset="0.494792" stop-color="#7AFFDF"/>
<stop offset="1" stop-color="#375965" stop-opacity="0"/>
</linearGradient>
<linearGradient id="paint5_linear_8196_3441" x1="237.627" y1="350.359" x2="237.627" y2="155.071" gradientUnits="userSpaceOnUse">
<stop stop-color="#375965" stop-opacity="0"/>
<stop offset="0.494792" stop-color="#7AFFDF"/>
<stop offset="1" stop-color="#375965" stop-opacity="0"/>
</linearGradient>
<linearGradient id="paint6_linear_8196_3441" x1="241.338" y1="363.836" x2="241.338" y2="150.328" gradientUnits="userSpaceOnUse">
<stop stop-color="#375965" stop-opacity="0"/>
<stop offset="0.494792" stop-color="#7AFFDF"/>
<stop offset="1" stop-color="#375965" stop-opacity="0"/>
</linearGradient>
<linearGradient id="paint7_linear_8196_3441" x1="142.548" y1="242.652" x2="206.93" y2="210.461" gradientUnits="userSpaceOnUse">
<stop stop-color="white"/>
<stop offset="1" stop-color="white" stop-opacity="0"/>
</linearGradient>
<linearGradient id="paint8_linear_8196_3441" x1="227.715" y1="180.834" x2="227.715" y2="291.914" gradientUnits="userSpaceOnUse">
<stop stop-color="white"/>
<stop offset="1" stop-color="white" stop-opacity="0"/>
</linearGradient>
<linearGradient id="paint9_linear_8196_3441" x1="163.401" y1="174.101" x2="233.15" y2="206.292" gradientUnits="userSpaceOnUse">
<stop stop-color="white"/>
<stop offset="1" stop-color="white" stop-opacity="0"/>
</linearGradient>
<linearGradient id="paint10_linear_8196_3441" x1="260.026" y1="165.978" x2="218.242" y2="252.187" gradientUnits="userSpaceOnUse">
<stop stop-color="#133030" stop-opacity="0"/>
<stop offset="0.473958" stop-color="#1C4442" stop-opacity="0.63"/>
<stop offset="1" stop-color="#131313" stop-opacity="0"/>
</linearGradient>
<linearGradient id="paint11_linear_8196_3441" x1="161.978" y1="160.442" x2="198.939" y2="225.631" gradientUnits="userSpaceOnUse">
<stop stop-color="#133030" stop-opacity="0"/>
<stop offset="0.473958" stop-color="#1C4442" stop-opacity="0.63"/>
<stop offset="1" stop-color="#131313" stop-opacity="0"/>
</linearGradient>
<linearGradient id="paint12_linear_8196_3441" x1="195.187" y1="140.675" x2="231.478" y2="207.283" gradientUnits="userSpaceOnUse">
<stop stop-color="#133030" stop-opacity="0"/>
<stop offset="0.473958" stop-color="#1C4442" stop-opacity="0.63"/>
<stop offset="1" stop-color="#131313" stop-opacity="0"/>
</linearGradient>
<linearGradient id="paint13_linear_8196_3441" x1="228.397" y1="147.792" x2="180.464" y2="231.619" gradientUnits="userSpaceOnUse">
<stop stop-color="#133030" stop-opacity="0"/>
<stop offset="0.473958" stop-color="#1C4442" stop-opacity="0.63"/>
<stop offset="1" stop-color="#131313" stop-opacity="0"/>
</linearGradient>
</defs>
</svg>
