<svg width="390" height="430" viewBox="0 0 390 430" fill="none" xmlns="http://www.w3.org/2000/svg">
<g clip-path="url(#clip0_8193_641)">
<path d="M148.907 429.999L101.375 429.999L101.375 382.467L148.907 382.467L148.907 429.999Z" stroke="#1C1C1C" stroke-width="1.16139"/>
<path d="M386.556 429.999L339.023 429.999L339.023 382.467L386.556 382.467L386.556 429.999Z" stroke="#1C1C1C" stroke-width="1.16139"/>
<path d="M196.431 429.999L148.898 429.999L148.898 382.467L196.431 382.467L196.431 429.999Z" stroke="#1C1C1C" stroke-width="1.16139"/>
<path d="M434.102 429.999L386.57 429.999L386.57 382.467L434.102 382.467L434.102 429.999Z" stroke="#1C1C1C" stroke-width="1.16139"/>
<path d="M6.25873 429.999L-41.2734 429.999L-41.2734 382.467L6.25872 382.467L6.25873 429.999Z" stroke="#1C1C1C" stroke-width="1.16139"/>
<path d="M243.962 429.999L196.43 429.999L196.43 382.467L243.962 382.467L243.962 429.999Z" stroke="#1C1C1C" stroke-width="1.16139"/>
<path d="M53.7822 429.999L6.25 429.999L6.25 382.467L53.7822 382.467L53.7822 429.999Z" stroke="#1C1C1C" stroke-width="1.16139"/>
<path d="M291.501 429.999L243.969 429.999L243.969 382.467L291.501 382.467L291.501 429.999Z" stroke="#1C1C1C" stroke-width="1.16139"/>
<path d="M101.321 429.999L53.7891 429.999L53.7891 382.467L101.321 382.467L101.321 429.999Z" stroke="#1C1C1C" stroke-width="1.16139"/>
<path d="M339.04 429.999L291.508 429.999L291.508 382.467L339.04 382.467L339.04 429.999Z" stroke="#1C1C1C" stroke-width="1.16139"/>
<path d="M148.907 382.466L101.375 382.466L101.375 334.934L148.907 334.934L148.907 382.466Z" stroke="#1C1C1C" stroke-width="1.16139"/>
<path d="M386.556 382.466L339.023 382.466L339.023 334.934L386.556 334.934L386.556 382.466Z" stroke="#1C1C1C" stroke-width="1.16139"/>
<path d="M148.907 334.932L101.375 334.932L101.375 287.399L148.907 287.399L148.907 334.932Z" stroke="#1C1C1C" stroke-width="1.16139"/>
<path d="M196.431 382.466L148.898 382.466L148.898 334.934L196.431 334.934L196.431 382.466Z" stroke="#1C1C1C" stroke-width="1.16139"/>
<path d="M434.102 382.466L386.57 382.466L386.57 334.934L434.102 334.934L434.102 382.466Z" stroke="#1C1C1C" stroke-width="1.16139"/>
<path d="M196.431 334.932L148.898 334.932L148.898 287.399L196.431 287.399L196.431 334.932Z" stroke="#1C1C1C" stroke-width="1.16139"/>
<path d="M6.25873 382.466L-41.2734 382.466L-41.2734 334.934L6.25872 334.934L6.25873 382.466Z" stroke="#1C1C1C" stroke-width="1.16139"/>
<path d="M243.962 382.466L196.43 382.466L196.43 334.934L243.962 334.934L243.962 382.466Z" stroke="#1C1C1C" stroke-width="1.16139"/>
<path d="M6.25873 334.932L-41.2734 334.932L-41.2734 287.399L6.25872 287.399L6.25873 334.932Z" stroke="#1C1C1C" stroke-width="1.16139"/>
<path d="M243.962 334.932L196.43 334.932L196.43 287.399L243.962 287.399L243.962 334.932Z" stroke="#1C1C1C" stroke-width="1.16139"/>
<path d="M291.501 382.466L243.969 382.466L243.969 334.934L291.501 334.934L291.501 382.466Z" stroke="#1C1C1C" stroke-width="1.16139"/>
<path d="M53.7822 334.932L6.25 334.932L6.25 287.399L53.7822 287.399L53.7822 334.932Z" stroke="#1C1C1C" stroke-width="1.16139"/>
<path d="M291.501 334.932L243.969 334.932L243.969 287.399L291.501 287.399L291.501 334.932Z" stroke="#1C1C1C" stroke-width="1.16139"/>
<path d="M101.321 382.466L53.7891 382.466L53.7891 334.934L101.321 334.934L101.321 382.466Z" stroke="#1C1C1C" stroke-width="1.16139"/>
<path d="M339.04 382.466L291.508 382.466L291.508 334.934L339.04 334.934L339.04 382.466Z" stroke="#1C1C1C" stroke-width="1.16139"/>
<path d="M101.321 334.932L53.7891 334.932L53.7891 287.399L101.321 287.399L101.321 334.932Z" stroke="#1C1C1C" stroke-width="1.16139"/>
<path d="M386.556 239.872L339.023 239.872L339.023 192.34L386.556 192.34L386.556 239.872Z" stroke="#1C1C1C" stroke-width="1.16139"/>
<path d="M196.431 287.401L148.898 287.401L148.898 239.869L196.431 239.869L196.431 287.401Z" stroke="#1C1C1C" stroke-width="1.16139"/>
<path d="M6.25873 287.401L-41.2734 287.401L-41.2734 239.869L6.25872 239.869L6.25873 287.401Z" stroke="#1C1C1C" stroke-width="1.16139"/>
<path d="M243.962 239.872L196.43 239.872L196.43 192.34L243.962 192.34L243.962 239.872Z" stroke="#1C1C1C" stroke-width="1.16139"/>
<path d="M53.7822 287.401L6.25 287.401L6.25 239.869L53.7822 239.869L53.7822 287.401Z" stroke="#1C1C1C" stroke-width="1.16139"/>
<path d="M291.501 287.401L243.969 287.401L243.969 239.869L291.501 239.869L291.501 287.401Z" stroke="#1C1C1C" stroke-width="1.16139"/>
<path d="M53.7822 239.872L6.25 239.872L6.25 192.34L53.7822 192.34L53.7822 239.872Z" stroke="#1C1C1C" stroke-width="1.16139"/>
<path d="M291.501 239.872L243.969 239.872L243.969 192.34L291.501 192.34L291.501 239.872Z" stroke="#1C1C1C" stroke-width="1.16139"/>
<path d="M339.04 239.872L291.508 239.872L291.508 192.34L339.04 192.34L339.04 239.872Z" stroke="#1C1C1C" stroke-width="1.16139"/>
<path d="M386.556 192.337L339.023 192.337L339.023 144.805L386.556 144.805L386.556 192.337Z" stroke="#1C1C1C" stroke-width="1.16139"/>
<path d="M386.556 144.806L339.023 144.806L339.023 97.2735L386.556 97.2735L386.556 144.806Z" stroke="#1C1C1C" stroke-width="1.16139"/>
<path d="M434.102 192.337L386.57 192.337L386.57 144.805L434.102 144.805L434.102 192.337Z" stroke="#1C1C1C" stroke-width="1.16139"/>
<path d="M434.102 144.806L386.57 144.806L386.57 97.2735L434.102 97.2735L434.102 144.806Z" stroke="#1C1C1C" stroke-width="1.16139"/>
<path d="M6.25873 192.337L-41.2734 192.337L-41.2734 144.805L6.25872 144.805L6.25873 192.337Z" stroke="#1C1C1C" stroke-width="1.16139"/>
<path d="M6.25873 144.806L-41.2734 144.806L-41.2734 97.2735L6.25872 97.2735L6.25873 144.806Z" stroke="#1C1C1C" stroke-width="1.16139"/>
<path d="M53.7822 192.337L6.25 192.337L6.25 144.805L53.7822 144.805L53.7822 192.337Z" stroke="#1C1C1C" stroke-width="1.16139"/>
<path d="M291.501 192.337L243.969 192.337L243.969 144.805L291.501 144.805L291.501 192.337Z" stroke="#1C1C1C" stroke-width="1.16139"/>
<path d="M53.7822 144.806L6.25 144.806L6.25 97.2735L53.7822 97.2735L53.7822 144.806Z" stroke="#1C1C1C" stroke-width="1.16139"/>
<path d="M339.04 144.806L291.508 144.806L291.508 97.2735L339.04 97.2735L339.04 144.806Z" stroke="#1C1C1C" stroke-width="1.16139"/>
<path d="M386.556 97.2725L339.023 97.2725L339.023 49.7403L386.556 49.7403L386.556 97.2725Z" stroke="#1C1C1C" stroke-width="1.16139"/>
<path d="M434.102 97.2725L386.57 97.2725L386.57 49.7403L434.102 49.7403L434.102 97.2725Z" stroke="#1C1C1C" stroke-width="1.16139"/>
<path d="M434.102 49.7402L386.57 49.7402L386.57 2.20807L434.102 2.20807L434.102 49.7402Z" stroke="#1C1C1C" stroke-width="1.16139"/>
<path d="M6.25873 97.2725L-41.2734 97.2725L-41.2734 49.7403L6.25872 49.7403L6.25873 97.2725Z" stroke="#1C1C1C" stroke-width="1.16139"/>
<path d="M6.25873 49.7402L-41.2734 49.7402L-41.2734 2.20807L6.25872 2.20807L6.25873 49.7402Z" stroke="#1C1C1C" stroke-width="1.16139"/>
<path d="M291.501 97.2725L243.969 97.2725L243.969 49.7403L291.501 49.7403L291.501 97.2725Z" stroke="#1C1C1C" stroke-width="1.16139"/>
<path d="M53.7822 49.7402L6.25 49.7402L6.25 2.20807L53.7822 2.20807L53.7822 49.7402Z" stroke="#1C1C1C" stroke-width="1.16139"/>
<path d="M291.501 49.7402L243.969 49.7402L243.969 2.20807L291.501 2.20807L291.501 49.7402Z" stroke="#1C1C1C" stroke-width="1.16139"/>
<path d="M339.04 97.2725L291.508 97.2725L291.508 49.7403L339.04 49.7403L339.04 97.2725Z" stroke="#1C1C1C" stroke-width="1.16139"/>
<path d="M339.04 49.7402L291.508 49.7402L291.508 2.20807L339.04 2.20807L339.04 49.7402Z" stroke="#1C1C1C" stroke-width="1.16139"/>
<path d="M26.3359 80.8542H33.4573V79.7281H30.6915V69.9238H29.6813C29.0189 70.2716 28.2073 70.5532 27.0812 70.7188V71.5965H29.3335V79.7281H26.3359V80.8542Z" fill="url(#paint0_linear_8193_641)"/>
<path d="M29.691 128.529C32.0427 128.529 33.4835 126.459 33.4835 122.832C33.4835 119.172 32.0427 117.201 29.691 117.201C27.3393 117.201 25.8984 119.172 25.8984 122.832C25.8984 126.459 27.3393 128.529 29.691 128.529ZM29.691 127.436C28.217 127.436 27.1736 125.979 27.1736 122.832C27.1736 119.669 28.217 118.294 29.691 118.294C31.1649 118.294 32.2082 119.669 32.2082 122.832C32.2082 125.979 31.1649 127.436 29.691 127.436ZM29.691 123.843C30.2375 123.843 30.7177 123.429 30.7177 122.716C30.7177 122.004 30.2375 121.59 29.691 121.59C29.1444 121.59 28.6641 122.004 28.6641 122.716C28.6641 123.429 29.1444 123.843 29.691 123.843Z" fill="url(#paint1_linear_8193_641)"/>
<path d="M29.691 223.48C32.0427 223.48 33.4835 221.41 33.4835 217.783C33.4835 214.123 32.0427 212.152 29.691 212.152C27.3393 212.152 25.8984 214.123 25.8984 217.783C25.8984 221.41 27.3393 223.48 29.691 223.48ZM29.691 222.387C28.217 222.387 27.1736 220.93 27.1736 217.783C27.1736 214.62 28.217 213.245 29.691 213.245C31.1649 213.245 32.2082 214.62 32.2082 217.783C32.2082 220.93 31.1649 222.387 29.691 222.387ZM29.691 218.793C30.2375 218.793 30.7177 218.379 30.7177 217.667C30.7177 216.955 30.2375 216.541 29.691 216.541C29.1444 216.541 28.6641 216.955 28.6641 217.667C28.6641 218.379 29.1444 218.793 29.691 218.793Z" fill="url(#paint2_linear_8193_641)"/>
<path d="M26.3359 270.757H33.4573V269.63H30.6915V259.826H29.6813C29.0189 260.174 28.2073 260.455 27.0812 260.621V261.499H29.3335V269.63H26.3359V270.757Z" fill="url(#paint3_linear_8193_641)"/>
<path d="M26.3359 318.233H33.4573V317.107H30.6915V307.303H29.6813C29.0189 307.651 28.2073 307.932 27.0812 308.098V308.975H29.3335V317.107H26.3359V318.233Z" fill="url(#paint4_linear_8193_641)"/>
<path d="M74.0156 80.8542H81.137V79.7281H78.3712V69.9238H77.361C76.6986 70.2716 75.8871 70.5532 74.7609 70.7188V71.5965H77.0132V79.7281H74.0156V80.8542Z" fill="url(#paint5_linear_8193_641)"/>
<path d="M77.3628 128.529C79.7145 128.529 81.1554 126.459 81.1554 122.832C81.1554 119.172 79.7145 117.201 77.3628 117.201C75.0111 117.201 73.5703 119.172 73.5703 122.832C73.5703 126.459 75.0111 128.529 77.3628 128.529ZM77.3628 127.436C75.8889 127.436 74.8455 125.979 74.8455 122.832C74.8455 119.669 75.8889 118.294 77.3628 118.294C78.8368 118.294 79.8801 119.669 79.8801 122.832C79.8801 125.979 78.8368 127.436 77.3628 127.436ZM77.3628 123.843C77.9094 123.843 78.3896 123.429 78.3896 122.716C78.3896 122.004 77.9094 121.59 77.3628 121.59C76.8163 121.59 76.336 122.004 76.336 122.716C76.336 123.429 76.8163 123.843 77.3628 123.843Z" fill="url(#paint6_linear_8193_641)"/>
<path d="M74.0156 175.805H81.137V174.679H78.3712V164.875H77.361C76.6986 165.223 75.8871 165.504 74.7609 165.67V166.548H77.0132V174.679H74.0156V175.805Z" fill="url(#paint7_linear_8193_641)"/>
<path d="M74.0156 270.757H81.137V269.63H78.3712V259.826H77.361C76.6986 260.174 75.8871 260.455 74.7609 260.621V261.499H77.0132V269.63H74.0156V270.757Z" fill="url(#paint8_linear_8193_641)"/>
<path d="M77.3628 318.431C79.7145 318.431 81.1554 316.361 81.1554 312.734C81.1554 309.074 79.7145 307.104 77.3628 307.104C75.0111 307.104 73.5703 309.074 73.5703 312.734C73.5703 316.361 75.0111 318.431 77.3628 318.431ZM77.3628 317.338C75.8889 317.338 74.8455 315.881 74.8455 312.734C74.8455 309.571 75.8889 308.197 77.3628 308.197C78.8368 308.197 79.8801 309.571 79.8801 312.734C79.8801 315.881 78.8368 317.338 77.3628 317.338ZM77.3628 313.745C77.9094 313.745 78.3896 313.331 78.3896 312.618C78.3896 311.906 77.9094 311.492 77.3628 311.492C76.8163 311.492 76.336 311.906 76.336 312.618C76.336 313.331 76.8163 313.745 77.3628 313.745Z" fill="url(#paint9_linear_8193_641)"/>
<path d="M77.3628 365.906C79.7145 365.906 81.1554 363.836 81.1554 360.209C81.1554 356.549 79.7145 354.578 77.3628 354.578C75.0111 354.578 73.5703 356.549 73.5703 360.209C73.5703 363.836 75.0111 365.906 77.3628 365.906ZM77.3628 364.813C75.8889 364.813 74.8455 363.356 74.8455 360.209C74.8455 357.046 75.8889 355.671 77.3628 355.671C78.8368 355.671 79.8801 357.046 79.8801 360.209C79.8801 363.356 78.8368 364.813 77.3628 364.813ZM77.3628 361.219C77.9094 361.219 78.3896 360.805 78.3896 360.093C78.3896 359.381 77.9094 358.967 77.3628 358.967C76.8163 358.967 76.336 359.381 76.336 360.093C76.336 360.805 76.8163 361.219 77.3628 361.219Z" fill="url(#paint10_linear_8193_641)"/>
<path d="M74.0156 222.177H81.137V221.051H78.3712V211.247H77.361C76.6986 211.595 75.887 211.876 74.7609 212.042V212.92H77.0132V221.051H74.0156V222.177Z" fill="url(#paint11_linear_8193_641)"/>
<path d="M124.371 128.529C126.722 128.529 128.163 126.459 128.163 122.832C128.163 119.172 126.722 117.201 124.371 117.201C122.019 117.201 120.578 119.172 120.578 122.832C120.578 126.459 122.019 128.529 124.371 128.529ZM124.371 127.436C122.897 127.436 121.853 125.979 121.853 122.832C121.853 119.669 122.897 118.294 124.371 118.294C125.845 118.294 126.888 119.669 126.888 122.832C126.888 125.979 125.845 127.436 124.371 127.436ZM124.371 123.842C124.917 123.842 125.397 123.428 125.397 122.716C125.397 122.004 124.917 121.59 124.371 121.59C123.824 121.59 123.344 122.004 123.344 122.716C123.344 123.428 123.824 123.842 124.371 123.842Z" fill="url(#paint12_linear_8193_641)"/>
<path d="M121.023 175.805H128.145V174.679H125.379V164.875H124.369C123.706 165.223 122.895 165.504 121.769 165.67V166.548H124.021V174.679H121.023V175.805Z" fill="url(#paint13_linear_8193_641)"/>
<path d="M124.371 223.48C126.722 223.48 128.163 221.41 128.163 217.783C128.163 214.123 126.722 212.152 124.371 212.152C122.019 212.152 120.578 214.123 120.578 217.783C120.578 221.41 122.019 223.48 124.371 223.48ZM124.371 222.387C122.897 222.387 121.853 220.93 121.853 217.783C121.853 214.62 122.897 213.245 124.371 213.245C125.845 213.245 126.888 214.62 126.888 217.783C126.888 220.93 125.845 222.387 124.371 222.387ZM124.371 218.793C124.917 218.793 125.397 218.379 125.397 217.667C125.397 216.955 124.917 216.541 124.371 216.541C123.824 216.541 123.344 216.955 123.344 217.667C123.344 218.379 123.824 218.793 124.371 218.793Z" fill="url(#paint14_linear_8193_641)"/>
<path d="M124.371 270.956C126.722 270.956 128.163 268.886 128.163 265.259C128.163 261.599 126.722 259.628 124.371 259.628C122.019 259.628 120.578 261.599 120.578 265.259C120.578 268.886 122.019 270.956 124.371 270.956ZM124.371 269.863C122.897 269.863 121.853 268.405 121.853 265.259C121.853 262.096 122.897 260.721 124.371 260.721C125.845 260.721 126.888 262.096 126.888 265.259C126.888 268.405 125.845 269.863 124.371 269.863ZM124.371 266.269C124.917 266.269 125.397 265.855 125.397 265.143C125.397 264.431 124.917 264.017 124.371 264.017C123.824 264.017 123.344 264.431 123.344 265.143C123.344 265.855 123.824 266.269 124.371 266.269Z" fill="url(#paint15_linear_8193_641)"/>
<path d="M124.371 318.431C126.722 318.431 128.163 316.361 128.163 312.734C128.163 309.074 126.722 307.104 124.371 307.104C122.019 307.104 120.578 309.074 120.578 312.734C120.578 316.361 122.019 318.431 124.371 318.431ZM124.371 317.338C122.897 317.338 121.853 315.881 121.853 312.734C121.853 309.571 122.897 308.197 124.371 308.197C125.845 308.197 126.888 309.571 126.888 312.734C126.888 315.881 125.845 317.338 124.371 317.338ZM124.371 313.745C124.917 313.745 125.397 313.331 125.397 312.618C125.397 311.906 124.917 311.492 124.371 311.492C123.824 311.492 123.344 311.906 123.344 312.618C123.344 313.331 123.824 313.745 124.371 313.745Z" fill="url(#paint16_linear_8193_641)"/>
<path d="M121.023 365.709H128.145V364.583H125.379V354.778H124.369C123.706 355.126 122.895 355.408 121.769 355.573V356.451H124.021V364.583H121.023V365.709Z" fill="url(#paint17_linear_8193_641)"/>
<path d="M121.023 413.184H128.145V412.058H125.379V402.254H124.369C123.706 402.602 122.895 402.883 121.769 403.049V403.927H124.021V412.058H121.023V413.184Z" fill="url(#paint18_linear_8193_641)"/>
<path d="M314.784 128.529C317.136 128.529 318.577 126.459 318.577 122.832C318.577 119.172 317.136 117.201 314.784 117.201C312.432 117.201 310.992 119.172 310.992 122.832C310.992 126.459 312.432 128.529 314.784 128.529ZM314.784 127.436C313.31 127.436 312.266 125.979 312.266 122.832C312.266 119.669 313.31 118.294 314.784 118.294C316.259 118.294 317.302 119.669 317.302 122.832C317.302 125.979 316.259 127.436 314.784 127.436ZM314.784 123.842C315.33 123.842 315.811 123.428 315.811 122.716C315.811 122.004 315.33 121.59 314.784 121.59C314.238 121.59 313.758 122.004 313.758 122.716C313.758 123.428 314.238 123.842 314.784 123.842Z" fill="url(#paint19_linear_8193_641)"/>
<path d="M314.784 223.48C317.136 223.48 318.577 221.41 318.577 217.783C318.577 214.123 317.136 212.152 314.784 212.152C312.432 212.152 310.992 214.123 310.992 217.783C310.992 221.41 312.432 223.48 314.784 223.48ZM314.784 222.387C313.31 222.387 312.266 220.93 312.266 217.783C312.266 214.62 313.31 213.245 314.784 213.245C316.259 213.245 317.302 214.62 317.302 217.783C317.302 220.93 316.259 222.387 314.784 222.387ZM314.784 218.793C315.33 218.793 315.811 218.379 315.811 217.667C315.811 216.955 315.33 216.541 314.784 216.541C314.238 216.541 313.758 216.955 313.758 217.667C313.758 218.379 314.238 218.793 314.784 218.793Z" fill="url(#paint20_linear_8193_641)"/>
<path d="M311.445 365.709H318.568V364.583H315.802V354.778H314.791C314.129 355.126 313.318 355.408 312.191 355.573V356.451H314.444V364.583H311.445V365.709Z" fill="url(#paint21_linear_8193_641)"/>
<path d="M311.445 413.184H318.568V412.058H315.802V402.254H314.791C314.129 402.602 313.318 402.883 312.191 403.049V403.927H314.444V412.058H311.445V413.184Z" fill="url(#paint22_linear_8193_641)"/>
<path d="M311.445 175.019H318.567V173.893H315.801V164.089H314.791C314.128 164.437 313.317 164.718 312.191 164.884V165.762H314.443V173.893H311.445V175.019Z" fill="url(#paint23_linear_8193_641)"/>
<path d="M172.464 33.5779C174.816 33.5779 176.257 31.5077 176.257 27.8808C176.257 24.2208 174.816 22.25 172.464 22.25C170.113 22.25 168.672 24.2208 168.672 27.8808C168.672 31.5077 170.113 33.5779 172.464 33.5779ZM172.464 32.4848C170.99 32.4848 169.947 31.0275 169.947 27.8808C169.947 24.7176 170.99 23.343 172.464 23.343C173.938 23.343 174.982 24.7176 174.982 27.8808C174.982 31.0275 173.938 32.4848 172.464 32.4848ZM172.464 28.8911C173.011 28.8911 173.491 28.477 173.491 27.7649C173.491 27.0528 173.011 26.6387 172.464 26.6387C171.918 26.6387 171.438 27.0528 171.438 27.7649C171.438 28.477 171.918 28.8911 172.464 28.8911Z" fill="url(#paint24_linear_8193_641)"/>
<path d="M169.109 80.8542H176.231V79.7281H173.465V69.9238H172.455C171.792 70.2716 170.981 70.5532 169.855 70.7188V71.5965H172.107V79.7281H169.109V80.8542Z" fill="url(#paint25_linear_8193_641)"/>
<path d="M172.464 128.529C174.816 128.529 176.257 126.459 176.257 122.832C176.257 119.172 174.816 117.201 172.464 117.201C170.113 117.201 168.672 119.172 168.672 122.832C168.672 126.459 170.113 128.529 172.464 128.529ZM172.464 127.436C170.99 127.436 169.947 125.979 169.947 122.832C169.947 119.669 170.99 118.294 172.464 118.294C173.938 118.294 174.982 119.669 174.982 122.832C174.982 125.979 173.938 127.436 172.464 127.436ZM172.464 123.842C173.011 123.842 173.491 123.428 173.491 122.716C173.491 122.004 173.011 121.59 172.464 121.59C171.918 121.59 171.438 122.004 171.438 122.716C171.438 123.428 171.918 123.842 172.464 123.842Z" fill="url(#paint26_linear_8193_641)"/>
<path d="M172.464 176.005C174.816 176.005 176.257 173.934 176.257 170.308C176.257 166.648 174.816 164.677 172.464 164.677C170.113 164.677 168.672 166.648 168.672 170.308C168.672 173.934 170.113 176.005 172.464 176.005ZM172.464 174.912C170.99 174.912 169.947 173.454 169.947 170.308C169.947 167.144 170.99 165.77 172.464 165.77C173.938 165.77 174.982 167.144 174.982 170.308C174.982 173.454 173.938 174.912 172.464 174.912ZM172.464 171.318C173.011 171.318 173.491 170.904 173.491 170.192C173.491 169.48 173.011 169.065 172.464 169.065C171.918 169.065 171.438 169.48 171.438 170.192C171.438 170.904 171.918 171.318 172.464 171.318Z" fill="url(#paint27_linear_8193_641)"/>
<path d="M169.109 223.281H176.231V222.155H173.465V212.351H172.455C171.792 212.698 170.981 212.98 169.855 213.146V214.023H172.107V222.155H169.109V223.281Z" fill="url(#paint28_linear_8193_641)"/>
<path d="M169.109 270.757H176.231V269.63H173.465V259.826H172.455C171.792 260.174 170.981 260.455 169.855 260.621V261.499H172.107V269.63H169.109V270.757Z" fill="url(#paint29_linear_8193_641)"/>
<path d="M172.464 318.431C174.816 318.431 176.257 316.361 176.257 312.734C176.257 309.074 174.816 307.104 172.464 307.104C170.113 307.104 168.672 309.074 168.672 312.734C168.672 316.361 170.113 318.431 172.464 318.431ZM172.464 317.338C170.99 317.338 169.947 315.881 169.947 312.734C169.947 309.571 170.99 308.197 172.464 308.197C173.938 308.197 174.982 309.571 174.982 312.734C174.982 315.881 173.938 317.338 172.464 317.338ZM172.464 313.745C173.011 313.745 173.491 313.331 173.491 312.618C173.491 311.906 173.011 311.492 172.464 311.492C171.918 311.492 171.438 311.906 171.438 312.618C171.438 313.331 171.918 313.745 172.464 313.745Z" fill="url(#paint30_linear_8193_641)"/>
<path d="M172.464 365.906C174.816 365.906 176.257 363.836 176.257 360.209C176.257 356.549 174.816 354.578 172.464 354.578C170.113 354.578 168.672 356.549 168.672 360.209C168.672 363.836 170.113 365.906 172.464 365.906ZM172.464 364.813C170.99 364.813 169.947 363.356 169.947 360.209C169.947 357.046 170.99 355.671 172.464 355.671C173.938 355.671 174.982 357.046 174.982 360.209C174.982 363.356 173.938 364.813 172.464 364.813ZM172.464 361.219C173.011 361.219 173.491 360.805 173.491 360.093C173.491 359.381 173.011 358.967 172.464 358.967C171.918 358.967 171.438 359.381 171.438 360.093C171.438 360.805 171.918 361.219 172.464 361.219Z" fill="url(#paint31_linear_8193_641)"/>
<path d="M362.871 33.5779C365.222 33.5779 366.663 31.5077 366.663 27.8808C366.663 24.2208 365.222 22.25 362.871 22.25C360.519 22.25 359.078 24.2208 359.078 27.8808C359.078 31.5077 360.519 33.5779 362.871 33.5779ZM362.871 32.4848C361.397 32.4848 360.353 31.0275 360.353 27.8808C360.353 24.7176 361.397 23.343 362.871 23.343C364.345 23.343 365.388 24.7176 365.388 27.8808C365.388 31.0275 364.345 32.4848 362.871 32.4848ZM362.871 28.8911C363.417 28.8911 363.897 28.477 363.897 27.7649C363.897 27.0528 363.417 26.6387 362.871 26.6387C362.324 26.6387 361.844 27.0528 361.844 27.7649C361.844 28.477 362.324 28.8911 362.871 28.8911Z" fill="url(#paint32_linear_8193_641)"/>
<path d="M359.523 80.8542H366.645V79.7281H363.879V69.9238H362.869C362.206 70.2716 361.395 70.5532 360.269 70.7188V71.5965H362.521V79.7281H359.523V80.8542Z" fill="url(#paint33_linear_8193_641)"/>
<path d="M362.871 128.529C365.222 128.529 366.663 126.459 366.663 122.832C366.663 119.172 365.222 117.201 362.871 117.201C360.519 117.201 359.078 119.172 359.078 122.832C359.078 126.459 360.519 128.529 362.871 128.529ZM362.871 127.436C361.397 127.436 360.353 125.979 360.353 122.832C360.353 119.669 361.397 118.294 362.871 118.294C364.345 118.294 365.388 119.669 365.388 122.832C365.388 125.979 364.345 127.436 362.871 127.436ZM362.871 123.842C363.417 123.842 363.897 123.428 363.897 122.716C363.897 122.004 363.417 121.59 362.871 121.59C362.324 121.59 361.844 122.004 361.844 122.716C361.844 123.428 362.324 123.842 362.871 123.842Z" fill="url(#paint34_linear_8193_641)"/>
<path d="M362.871 176.005C365.222 176.005 366.663 173.934 366.663 170.308C366.663 166.648 365.222 164.677 362.871 164.677C360.519 164.677 359.078 166.648 359.078 170.308C359.078 173.934 360.519 176.005 362.871 176.005ZM362.871 174.912C361.397 174.912 360.353 173.454 360.353 170.308C360.353 167.144 361.397 165.77 362.871 165.77C364.345 165.77 365.388 167.144 365.388 170.308C365.388 173.454 364.345 174.912 362.871 174.912ZM362.871 171.318C363.417 171.318 363.897 170.904 363.897 170.192C363.897 169.48 363.417 169.065 362.871 169.065C362.324 169.065 361.844 169.48 361.844 170.192C361.844 170.904 362.324 171.318 362.871 171.318Z" fill="url(#paint35_linear_8193_641)"/>
<path d="M359.523 223.281H366.645V222.155H363.879V212.351H362.869C362.206 212.698 361.395 212.98 360.269 213.146V214.023H362.521V222.155H359.523V223.281Z" fill="url(#paint36_linear_8193_641)"/>
<path d="M359.523 270.757H366.645V269.63H363.879V259.826H362.869C362.206 260.174 361.395 260.455 360.269 260.621V261.499H362.521V269.63H359.523V270.757Z" fill="url(#paint37_linear_8193_641)"/>
<path d="M362.871 318.431C365.222 318.431 366.663 316.361 366.663 312.734C366.663 309.074 365.222 307.104 362.871 307.104C360.519 307.104 359.078 309.074 359.078 312.734C359.078 316.361 360.519 318.431 362.871 318.431ZM362.871 317.338C361.397 317.338 360.353 315.881 360.353 312.734C360.353 309.571 361.397 308.197 362.871 308.197C364.345 308.197 365.388 309.571 365.388 312.734C365.388 315.881 364.345 317.338 362.871 317.338ZM362.871 313.745C363.417 313.745 363.897 313.331 363.897 312.618C363.897 311.906 363.417 311.492 362.871 311.492C362.324 311.492 361.844 311.906 361.844 312.618C361.844 313.331 362.324 313.745 362.871 313.745Z" fill="url(#paint38_linear_8193_641)"/>
<path d="M362.871 365.906C365.222 365.906 366.663 363.836 366.663 360.209C366.663 356.549 365.222 354.578 362.871 354.578C360.519 354.578 359.078 356.549 359.078 360.209C359.078 363.836 360.519 365.906 362.871 365.906ZM362.871 364.813C361.397 364.813 360.353 363.356 360.353 360.209C360.353 357.046 361.397 355.671 362.871 355.671C364.345 355.671 365.388 357.046 365.388 360.209C365.388 363.356 364.345 364.813 362.871 364.813ZM362.871 361.219C363.417 361.219 363.897 360.805 363.897 360.093C363.897 359.381 363.417 358.967 362.871 358.967C362.324 358.967 361.844 359.381 361.844 360.093C361.844 360.805 362.324 361.219 362.871 361.219Z" fill="url(#paint39_linear_8193_641)"/>
<path d="M219.425 33.5779C221.777 33.5779 223.218 31.5077 223.218 27.8808C223.218 24.2208 221.777 22.25 219.425 22.25C217.074 22.25 215.633 24.2208 215.633 27.8808C215.633 31.5077 217.074 33.5779 219.425 33.5779ZM219.425 32.4848C217.951 32.4848 216.908 31.0275 216.908 27.8808C216.908 24.7176 217.951 23.343 219.425 23.343C220.899 23.343 221.943 24.7176 221.943 27.8808C221.943 31.0275 220.899 32.4848 219.425 32.4848ZM219.425 28.8911C219.972 28.8911 220.452 28.477 220.452 27.7649C220.452 27.0528 219.972 26.6387 219.425 26.6387C218.879 26.6387 218.399 27.0528 218.399 27.7649C218.399 28.477 218.879 28.8911 219.425 28.8911Z" fill="url(#paint40_linear_8193_641)"/>
<path d="M216.086 128.33H223.207V127.204H220.442V117.399H219.431C218.769 117.747 217.957 118.029 216.831 118.194V119.072H219.084V127.204H216.086V128.33Z" fill="url(#paint41_linear_8193_641)"/>
<path d="M216.086 175.805H223.207V174.679H220.442V164.875H219.431C218.769 165.223 217.957 165.504 216.831 165.67V166.548H219.084V174.679H216.086V175.805Z" fill="url(#paint42_linear_8193_641)"/>
<path d="M219.425 223.48C221.777 223.48 223.218 221.41 223.218 217.783C223.218 214.123 221.777 212.152 219.425 212.152C217.074 212.152 215.633 214.123 215.633 217.783C215.633 221.41 217.074 223.48 219.425 223.48ZM219.425 222.387C217.951 222.387 216.908 220.93 216.908 217.783C216.908 214.62 217.951 213.245 219.425 213.245C220.899 213.245 221.943 214.62 221.943 217.783C221.943 220.93 220.899 222.387 219.425 222.387ZM219.425 218.793C219.972 218.793 220.452 218.379 220.452 217.667C220.452 216.955 219.972 216.541 219.425 216.541C218.879 216.541 218.399 216.955 218.399 217.667C218.399 218.379 218.879 218.793 219.425 218.793Z" fill="url(#paint43_linear_8193_641)"/>
<path d="M216.086 318.233H223.207V317.107H220.442V307.303H219.431C218.769 307.651 217.957 307.932 216.831 308.098V308.975H219.084V317.107H216.086V318.233Z" fill="url(#paint44_linear_8193_641)"/>
<path d="M220.793 269.328C223.144 269.328 224.585 267.258 224.585 263.631C224.585 259.971 223.144 258 220.793 258C218.441 258 217 259.971 217 263.631C217 267.258 218.441 269.328 220.793 269.328ZM220.793 268.235C219.319 268.235 218.275 266.777 218.275 263.631C218.275 260.468 219.319 259.093 220.793 259.093C222.266 259.093 223.31 260.468 223.31 263.631C223.31 266.777 222.266 268.235 220.793 268.235ZM220.793 264.641C221.339 264.641 221.819 264.227 221.819 263.515C221.819 262.803 221.339 262.389 220.793 262.389C220.246 262.389 219.766 262.803 219.766 263.515C219.766 264.227 220.246 264.641 220.793 264.641Z" fill="url(#paint45_linear_8193_641)"/>
<path d="M267.105 78.8464C269.457 78.8464 270.898 76.7763 270.898 73.1494C270.898 69.4893 269.457 67.5186 267.105 67.5186C264.753 67.5186 263.312 69.4893 263.312 73.1494C263.312 76.7763 264.753 78.8464 267.105 78.8464ZM267.105 77.7534C265.631 77.7534 264.588 76.296 264.588 73.1494C264.588 69.9862 265.631 68.6116 267.105 68.6116C268.579 68.6116 269.622 69.9862 269.622 73.1494C269.622 76.296 268.579 77.7534 267.105 77.7534ZM267.105 74.1596C267.652 74.1596 268.132 73.7456 268.132 73.0334C268.132 72.3213 267.652 71.9073 267.105 71.9073C266.558 71.9073 266.078 72.3213 266.078 73.0334C266.078 73.7456 266.558 74.1596 267.105 74.1596Z" fill="url(#paint46_linear_8193_641)"/>
<path d="M263.758 173.598H270.879V172.472H268.113V162.668H267.103C266.441 163.016 265.629 163.297 264.503 163.463V164.341H266.755V172.472H263.758V173.598Z" fill="url(#paint47_linear_8193_641)"/>
<path d="M267.105 221.273C269.457 221.273 270.898 219.203 270.898 215.576C270.898 211.916 269.457 209.945 267.105 209.945C264.753 209.945 263.312 211.916 263.312 215.576C263.312 219.203 264.753 221.273 267.105 221.273ZM267.105 220.18C265.631 220.18 264.588 218.723 264.588 215.576C264.588 212.413 265.631 211.038 267.105 211.038C268.579 211.038 269.622 212.413 269.622 215.576C269.622 218.723 268.579 220.18 267.105 220.18ZM267.105 216.586C267.652 216.586 268.132 216.172 268.132 215.46C268.132 214.748 267.652 214.334 267.105 214.334C266.558 214.334 266.078 214.748 266.078 215.46C266.078 216.172 266.558 216.586 267.105 216.586Z" fill="url(#paint48_linear_8193_641)"/>
<path d="M263.758 268.549H270.879V267.422H268.113V257.618H267.103C266.441 257.966 265.629 258.247 264.503 258.413V259.291H266.755V267.422H263.758V268.549Z" fill="url(#paint49_linear_8193_641)"/>
<path d="M267.105 316.223C269.457 316.223 270.898 314.153 270.898 310.526C270.898 306.866 269.457 304.896 267.105 304.896C264.753 304.896 263.312 306.866 263.312 310.526C263.312 314.153 264.753 316.223 267.105 316.223ZM267.105 315.13C265.631 315.13 264.588 313.673 264.588 310.526C264.588 307.363 265.631 305.989 267.105 305.989C268.579 305.989 269.622 307.363 269.622 310.526C269.622 313.673 268.579 315.13 267.105 315.13ZM267.105 311.537C267.652 311.537 268.132 311.123 268.132 310.41C268.132 309.698 267.652 309.284 267.105 309.284C266.558 309.284 266.078 309.698 266.078 310.41C266.078 311.123 266.558 311.537 267.105 311.537Z" fill="url(#paint50_linear_8193_641)"/>
<path d="M263.758 363.5H270.879V362.374H268.113V352.569H267.103C266.441 352.917 265.629 353.199 264.503 353.364V354.242H266.755V362.374H263.758V363.5Z" fill="url(#paint51_linear_8193_641)"/>
<path d="M267.105 411.175C269.457 411.175 270.898 409.104 270.898 405.478C270.898 401.817 269.457 399.847 267.105 399.847C264.753 399.847 263.312 401.817 263.312 405.478C263.312 409.104 264.753 411.175 267.105 411.175ZM267.105 410.082C265.631 410.082 264.588 408.624 264.588 405.478C264.588 402.314 265.631 400.94 267.105 400.94C268.579 400.94 269.622 402.314 269.622 405.478C269.622 408.624 268.579 410.082 267.105 410.082ZM267.105 406.488C267.652 406.488 268.132 406.074 268.132 405.362C268.132 404.649 267.652 404.235 267.105 404.235C266.558 404.235 266.078 404.649 266.078 405.362C266.078 406.074 266.558 406.488 267.105 406.488Z" fill="url(#paint52_linear_8193_641)"/>
<path d="M362.277 316.829C364.629 316.829 366.069 314.759 366.069 311.132C366.069 307.472 364.629 305.501 362.277 305.501C359.925 305.501 358.484 307.472 358.484 311.132C358.484 314.759 359.925 316.829 362.277 316.829ZM362.277 315.736C360.803 315.736 359.76 314.278 359.76 311.132C359.76 307.969 360.803 306.594 362.277 306.594C363.751 306.594 364.794 307.969 364.794 311.132C364.794 314.278 363.751 315.736 362.277 315.736ZM362.277 312.142C362.823 312.142 363.304 311.728 363.304 311.016C363.304 310.304 362.823 309.89 362.277 309.89C361.73 309.89 361.25 310.304 361.25 311.016C361.25 311.728 361.73 312.142 362.277 312.142Z" fill="url(#paint53_linear_8193_641)"/>
<path d="M101.321 239.872L53.7891 239.872L53.7891 192.34L101.321 192.34L101.321 239.872Z" stroke="#1C1C1C" stroke-width="1.16139"/>
<path d="M386.517 334.932L338.984 334.932L338.984 287.399L386.517 287.399L386.517 334.932Z" stroke="#1C1C1C" stroke-width="1.16139"/>
<path d="M243.962 287.401L196.43 287.401L196.43 239.869L243.962 239.869L243.962 287.401Z" stroke="#1C1C1C" stroke-width="1.16139"/>
<path d="M339.04 192.337L291.508 192.337L291.508 144.805L339.04 144.805L339.04 192.337Z" stroke="#1C1C1C" stroke-width="1.16139"/>
<path d="M26.1484 174.524H33.2698V173.398H30.504V163.594H29.4938C28.8314 163.942 28.0199 164.223 26.8937 164.389V165.266H29.146V173.398H26.1484V174.524Z" fill="url(#paint54_linear_8193_641)"/>
<path d="M53.4697 192.492L5.9375 192.492L5.9375 144.96L53.4697 144.96L53.4697 192.492Z" stroke="#1C1C1C" stroke-width="1.16139"/>
<path d="M216.211 79.5642H223.332V78.438H220.567V68.6338H219.556C218.894 68.9816 218.082 69.2631 216.956 69.4287V70.3065H219.209V78.438H216.211V79.5642Z" fill="url(#paint55_linear_8193_641)"/>
<path d="M243.532 97.5322L196 97.5322L196 50.0001L243.532 50.0001L243.532 97.5322Z" stroke="#1C1C1C" stroke-width="1.16139"/>
<path d="M474.71 2H-42V431.488H474.71V2Z" fill="url(#paint56_radial_8193_641)"/>
</g>
<defs>
<linearGradient id="paint0_linear_8193_641" x1="29.6791" y1="17.922" x2="29.6791" y2="416.495" gradientUnits="userSpaceOnUse">
<stop stop-color="#3D3D3D"/>
<stop offset="1" stop-color="#2F2F2F" stop-opacity="0"/>
</linearGradient>
<linearGradient id="paint1_linear_8193_641" x1="29.6887" y1="17.9225" x2="29.6887" y2="416.496" gradientUnits="userSpaceOnUse">
<stop stop-color="#3D3D3D"/>
<stop offset="1" stop-color="#2F2F2F" stop-opacity="0"/>
</linearGradient>
<linearGradient id="paint2_linear_8193_641" x1="29.6887" y1="17.9224" x2="29.6887" y2="416.496" gradientUnits="userSpaceOnUse">
<stop stop-color="#3D3D3D"/>
<stop offset="1" stop-color="#2F2F2F" stop-opacity="0"/>
</linearGradient>
<linearGradient id="paint3_linear_8193_641" x1="29.6791" y1="17.9217" x2="29.6791" y2="416.496" gradientUnits="userSpaceOnUse">
<stop stop-color="#3D3D3D"/>
<stop offset="1" stop-color="#2F2F2F" stop-opacity="0"/>
</linearGradient>
<linearGradient id="paint4_linear_8193_641" x1="29.6791" y1="17.9232" x2="29.6791" y2="416.496" gradientUnits="userSpaceOnUse">
<stop stop-color="#3D3D3D"/>
<stop offset="1" stop-color="#2F2F2F" stop-opacity="0"/>
</linearGradient>
<linearGradient id="paint5_linear_8193_641" x1="77.3599" y1="17.922" x2="77.3599" y2="416.495" gradientUnits="userSpaceOnUse">
<stop stop-color="#3D3D3D"/>
<stop offset="1" stop-color="#2F2F2F" stop-opacity="0"/>
</linearGradient>
<linearGradient id="paint6_linear_8193_641" x1="77.3617" y1="17.9225" x2="77.3617" y2="416.496" gradientUnits="userSpaceOnUse">
<stop stop-color="#3D3D3D"/>
<stop offset="1" stop-color="#2F2F2F" stop-opacity="0"/>
</linearGradient>
<linearGradient id="paint7_linear_8193_641" x1="77.3599" y1="17.9217" x2="77.3599" y2="416.496" gradientUnits="userSpaceOnUse">
<stop stop-color="#3D3D3D"/>
<stop offset="1" stop-color="#2F2F2F" stop-opacity="0"/>
</linearGradient>
<linearGradient id="paint8_linear_8193_641" x1="77.3599" y1="17.9217" x2="77.3599" y2="416.496" gradientUnits="userSpaceOnUse">
<stop stop-color="#3D3D3D"/>
<stop offset="1" stop-color="#2F2F2F" stop-opacity="0"/>
</linearGradient>
<linearGradient id="paint9_linear_8193_641" x1="77.3617" y1="17.9222" x2="77.3617" y2="416.496" gradientUnits="userSpaceOnUse">
<stop stop-color="#3D3D3D"/>
<stop offset="1" stop-color="#2F2F2F" stop-opacity="0"/>
</linearGradient>
<linearGradient id="paint10_linear_8193_641" x1="77.3617" y1="17.9212" x2="77.3617" y2="416.495" gradientUnits="userSpaceOnUse">
<stop stop-color="#3D3D3D"/>
<stop offset="1" stop-color="#2F2F2F" stop-opacity="0"/>
</linearGradient>
<linearGradient id="paint11_linear_8193_641" x1="77.5742" y1="23.832" x2="77.5742" y2="408.421" gradientUnits="userSpaceOnUse">
<stop stop-color="#3D3D3D"/>
<stop offset="1" stop-color="#2F2F2F" stop-opacity="0"/>
</linearGradient>
<linearGradient id="paint12_linear_8193_641" x1="124.37" y1="65.3977" x2="124.37" y2="463.971" gradientUnits="userSpaceOnUse">
<stop stop-color="#3D3D3D"/>
<stop offset="1" stop-color="#2F2F2F" stop-opacity="0"/>
</linearGradient>
<linearGradient id="paint13_linear_8193_641" x1="124.368" y1="65.3972" x2="124.368" y2="463.971" gradientUnits="userSpaceOnUse">
<stop stop-color="#3D3D3D"/>
<stop offset="1" stop-color="#2F2F2F" stop-opacity="0"/>
</linearGradient>
<linearGradient id="paint14_linear_8193_641" x1="124.37" y1="65.398" x2="124.37" y2="463.971" gradientUnits="userSpaceOnUse">
<stop stop-color="#3D3D3D"/>
<stop offset="1" stop-color="#2F2F2F" stop-opacity="0"/>
</linearGradient>
<linearGradient id="paint15_linear_8193_641" x1="124.37" y1="65.3981" x2="124.37" y2="463.971" gradientUnits="userSpaceOnUse">
<stop stop-color="#3D3D3D"/>
<stop offset="1" stop-color="#2F2F2F" stop-opacity="0"/>
</linearGradient>
<linearGradient id="paint16_linear_8193_641" x1="124.37" y1="65.3978" x2="124.37" y2="463.972" gradientUnits="userSpaceOnUse">
<stop stop-color="#3D3D3D"/>
<stop offset="1" stop-color="#2F2F2F" stop-opacity="0"/>
</linearGradient>
<linearGradient id="paint17_linear_8193_641" x1="124.368" y1="65.3988" x2="124.368" y2="463.972" gradientUnits="userSpaceOnUse">
<stop stop-color="#3D3D3D"/>
<stop offset="1" stop-color="#2F2F2F" stop-opacity="0"/>
</linearGradient>
<linearGradient id="paint18_linear_8193_641" x1="124.368" y1="65.3988" x2="124.368" y2="463.972" gradientUnits="userSpaceOnUse">
<stop stop-color="#3D3D3D"/>
<stop offset="1" stop-color="#2F2F2F" stop-opacity="0"/>
</linearGradient>
<linearGradient id="paint19_linear_8193_641" x1="314.782" y1="65.3977" x2="314.782" y2="463.971" gradientUnits="userSpaceOnUse">
<stop stop-color="#3D3D3D"/>
<stop offset="1" stop-color="#2F2F2F" stop-opacity="0"/>
</linearGradient>
<linearGradient id="paint20_linear_8193_641" x1="314.782" y1="65.398" x2="314.782" y2="463.971" gradientUnits="userSpaceOnUse">
<stop stop-color="#3D3D3D"/>
<stop offset="1" stop-color="#2F2F2F" stop-opacity="0"/>
</linearGradient>
<linearGradient id="paint21_linear_8193_641" x1="314.79" y1="65.3988" x2="314.79" y2="463.972" gradientUnits="userSpaceOnUse">
<stop stop-color="#3D3D3D"/>
<stop offset="1" stop-color="#2F2F2F" stop-opacity="0"/>
</linearGradient>
<linearGradient id="paint22_linear_8193_641" x1="314.79" y1="65.3988" x2="314.79" y2="463.972" gradientUnits="userSpaceOnUse">
<stop stop-color="#3D3D3D"/>
<stop offset="1" stop-color="#2F2F2F" stop-opacity="0"/>
</linearGradient>
<linearGradient id="paint23_linear_8193_641" x1="314.79" y1="64.6111" x2="314.79" y2="463.185" gradientUnits="userSpaceOnUse">
<stop stop-color="#3D3D3D"/>
<stop offset="1" stop-color="#2F2F2F" stop-opacity="0"/>
</linearGradient>
<linearGradient id="paint24_linear_8193_641" x1="172.463" y1="17.9221" x2="172.463" y2="416.496" gradientUnits="userSpaceOnUse">
<stop stop-color="#3D3D3D"/>
<stop offset="1" stop-color="#2F2F2F" stop-opacity="0"/>
</linearGradient>
<linearGradient id="paint25_linear_8193_641" x1="172.454" y1="17.9216" x2="172.454" y2="416.495" gradientUnits="userSpaceOnUse">
<stop stop-color="#3D3D3D"/>
<stop offset="1" stop-color="#2F2F2F" stop-opacity="0"/>
</linearGradient>
<linearGradient id="paint26_linear_8193_641" x1="172.463" y1="17.9222" x2="172.463" y2="416.496" gradientUnits="userSpaceOnUse">
<stop stop-color="#3D3D3D"/>
<stop offset="1" stop-color="#2F2F2F" stop-opacity="0"/>
</linearGradient>
<linearGradient id="paint27_linear_8193_641" x1="172.463" y1="17.9224" x2="172.463" y2="416.496" gradientUnits="userSpaceOnUse">
<stop stop-color="#3D3D3D"/>
<stop offset="1" stop-color="#2F2F2F" stop-opacity="0"/>
</linearGradient>
<linearGradient id="paint28_linear_8193_641" x1="172.454" y1="17.9217" x2="172.454" y2="416.496" gradientUnits="userSpaceOnUse">
<stop stop-color="#3D3D3D"/>
<stop offset="1" stop-color="#2F2F2F" stop-opacity="0"/>
</linearGradient>
<linearGradient id="paint29_linear_8193_641" x1="172.454" y1="17.9217" x2="172.454" y2="416.496" gradientUnits="userSpaceOnUse">
<stop stop-color="#3D3D3D"/>
<stop offset="1" stop-color="#2F2F2F" stop-opacity="0"/>
</linearGradient>
<linearGradient id="paint30_linear_8193_641" x1="172.463" y1="17.9222" x2="172.463" y2="416.496" gradientUnits="userSpaceOnUse">
<stop stop-color="#3D3D3D"/>
<stop offset="1" stop-color="#2F2F2F" stop-opacity="0"/>
</linearGradient>
<linearGradient id="paint31_linear_8193_641" x1="172.463" y1="17.9212" x2="172.463" y2="416.495" gradientUnits="userSpaceOnUse">
<stop stop-color="#3D3D3D"/>
<stop offset="1" stop-color="#2F2F2F" stop-opacity="0"/>
</linearGradient>
<linearGradient id="paint32_linear_8193_641" x1="362.87" y1="17.9221" x2="362.87" y2="416.496" gradientUnits="userSpaceOnUse">
<stop stop-color="#3D3D3D"/>
<stop offset="1" stop-color="#2F2F2F" stop-opacity="0"/>
</linearGradient>
<linearGradient id="paint33_linear_8193_641" x1="362.868" y1="17.9216" x2="362.868" y2="416.495" gradientUnits="userSpaceOnUse">
<stop stop-color="#3D3D3D"/>
<stop offset="1" stop-color="#2F2F2F" stop-opacity="0"/>
</linearGradient>
<linearGradient id="paint34_linear_8193_641" x1="362.87" y1="17.9222" x2="362.87" y2="416.496" gradientUnits="userSpaceOnUse">
<stop stop-color="#3D3D3D"/>
<stop offset="1" stop-color="#2F2F2F" stop-opacity="0"/>
</linearGradient>
<linearGradient id="paint35_linear_8193_641" x1="362.87" y1="17.9224" x2="362.87" y2="416.496" gradientUnits="userSpaceOnUse">
<stop stop-color="#3D3D3D"/>
<stop offset="1" stop-color="#2F2F2F" stop-opacity="0"/>
</linearGradient>
<linearGradient id="paint36_linear_8193_641" x1="362.868" y1="17.9217" x2="362.868" y2="416.496" gradientUnits="userSpaceOnUse">
<stop stop-color="#3D3D3D"/>
<stop offset="1" stop-color="#2F2F2F" stop-opacity="0"/>
</linearGradient>
<linearGradient id="paint37_linear_8193_641" x1="362.868" y1="17.9217" x2="362.868" y2="416.496" gradientUnits="userSpaceOnUse">
<stop stop-color="#3D3D3D"/>
<stop offset="1" stop-color="#2F2F2F" stop-opacity="0"/>
</linearGradient>
<linearGradient id="paint38_linear_8193_641" x1="362.87" y1="17.9222" x2="362.87" y2="416.496" gradientUnits="userSpaceOnUse">
<stop stop-color="#3D3D3D"/>
<stop offset="1" stop-color="#2F2F2F" stop-opacity="0"/>
</linearGradient>
<linearGradient id="paint39_linear_8193_641" x1="362.87" y1="17.9212" x2="362.87" y2="416.495" gradientUnits="userSpaceOnUse">
<stop stop-color="#3D3D3D"/>
<stop offset="1" stop-color="#2F2F2F" stop-opacity="0"/>
</linearGradient>
<linearGradient id="paint40_linear_8193_641" x1="219.424" y1="-29.5534" x2="219.424" y2="369.02" gradientUnits="userSpaceOnUse">
<stop stop-color="#3D3D3D"/>
<stop offset="1" stop-color="#2F2F2F" stop-opacity="0"/>
</linearGradient>
<linearGradient id="paint41_linear_8193_641" x1="219.43" y1="-29.5538" x2="219.43" y2="369.02" gradientUnits="userSpaceOnUse">
<stop stop-color="#3D3D3D"/>
<stop offset="1" stop-color="#2F2F2F" stop-opacity="0"/>
</linearGradient>
<linearGradient id="paint42_linear_8193_641" x1="219.43" y1="-29.5539" x2="219.43" y2="369.02" gradientUnits="userSpaceOnUse">
<stop stop-color="#3D3D3D"/>
<stop offset="1" stop-color="#2F2F2F" stop-opacity="0"/>
</linearGradient>
<linearGradient id="paint43_linear_8193_641" x1="219.424" y1="-29.553" x2="219.424" y2="369.02" gradientUnits="userSpaceOnUse">
<stop stop-color="#3D3D3D"/>
<stop offset="1" stop-color="#2F2F2F" stop-opacity="0"/>
</linearGradient>
<linearGradient id="paint44_linear_8193_641" x1="219.43" y1="-29.5523" x2="219.43" y2="369.021" gradientUnits="userSpaceOnUse">
<stop stop-color="#3D3D3D"/>
<stop offset="1" stop-color="#2F2F2F" stop-opacity="0"/>
</linearGradient>
<linearGradient id="paint45_linear_8193_641" x1="220.791" y1="16.2946" x2="220.791" y2="414.868" gradientUnits="userSpaceOnUse">
<stop stop-color="#3D3D3D"/>
<stop offset="1" stop-color="#2F2F2F" stop-opacity="0"/>
</linearGradient>
<linearGradient id="paint46_linear_8193_641" x1="267.104" y1="63.1907" x2="267.104" y2="461.764" gradientUnits="userSpaceOnUse">
<stop stop-color="#3D3D3D"/>
<stop offset="1" stop-color="#2F2F2F" stop-opacity="0"/>
</linearGradient>
<linearGradient id="paint47_linear_8193_641" x1="267.102" y1="63.1902" x2="267.102" y2="461.764" gradientUnits="userSpaceOnUse">
<stop stop-color="#3D3D3D"/>
<stop offset="1" stop-color="#2F2F2F" stop-opacity="0"/>
</linearGradient>
<linearGradient id="paint48_linear_8193_641" x1="267.104" y1="63.1909" x2="267.104" y2="461.764" gradientUnits="userSpaceOnUse">
<stop stop-color="#3D3D3D"/>
<stop offset="1" stop-color="#2F2F2F" stop-opacity="0"/>
</linearGradient>
<linearGradient id="paint49_linear_8193_641" x1="267.102" y1="63.1893" x2="267.102" y2="461.763" gradientUnits="userSpaceOnUse">
<stop stop-color="#3D3D3D"/>
<stop offset="1" stop-color="#2F2F2F" stop-opacity="0"/>
</linearGradient>
<linearGradient id="paint50_linear_8193_641" x1="267.104" y1="63.1898" x2="267.104" y2="461.764" gradientUnits="userSpaceOnUse">
<stop stop-color="#3D3D3D"/>
<stop offset="1" stop-color="#2F2F2F" stop-opacity="0"/>
</linearGradient>
<linearGradient id="paint51_linear_8193_641" x1="267.102" y1="63.1898" x2="267.102" y2="461.763" gradientUnits="userSpaceOnUse">
<stop stop-color="#3D3D3D"/>
<stop offset="1" stop-color="#2F2F2F" stop-opacity="0"/>
</linearGradient>
<linearGradient id="paint52_linear_8193_641" x1="267.104" y1="63.1898" x2="267.104" y2="461.764" gradientUnits="userSpaceOnUse">
<stop stop-color="#3D3D3D"/>
<stop offset="1" stop-color="#2F2F2F" stop-opacity="0"/>
</linearGradient>
<linearGradient id="paint53_linear_8193_641" x1="362.046" y1="202.406" x2="362.046" y2="615.472" gradientUnits="userSpaceOnUse">
<stop stop-color="#3D3D3D"/>
<stop offset="1" stop-color="#2F2F2F" stop-opacity="0"/>
</linearGradient>
<linearGradient id="paint54_linear_8193_641" x1="29.707" y1="-23.821" x2="29.707" y2="360.767" gradientUnits="userSpaceOnUse">
<stop stop-color="#3D3D3D"/>
<stop offset="1" stop-color="#2F2F2F" stop-opacity="0"/>
</linearGradient>
<linearGradient id="paint55_linear_8193_641" x1="219.555" y1="-30.8438" x2="219.555" y2="367.729" gradientUnits="userSpaceOnUse">
<stop stop-color="#3D3D3D"/>
<stop offset="1" stop-color="#2F2F2F" stop-opacity="0"/>
</linearGradient>
<radialGradient id="paint56_radial_8193_641" cx="0" cy="0" r="1" gradientUnits="userSpaceOnUse" gradientTransform="translate(379.207 232.77) rotate(179.507) scale(310.259 362.732)">
<stop stop-color="#232323" stop-opacity="0"/>
<stop offset="0.630208" stop-color="#232323" stop-opacity="0.35"/>
<stop offset="1" stop-color="#232323" stop-opacity="0.88"/>
</radialGradient>
<clipPath id="clip0_8193_641">
<rect width="390" height="430" fill="white"/>
</clipPath>
</defs>
</svg>
