<svg width="390" height="430" viewBox="0 0 390 430" fill="none" xmlns="http://www.w3.org/2000/svg">
<g clip-path="url(#clip0_8193_773)">
<mask id="mask0_8193_773" style="mask-type:luminance" maskUnits="userSpaceOnUse" x="0" y="0" width="390" height="430">
<path d="M390 0H0V430H390V0Z" fill="white"/>
</mask>
<g mask="url(#mask0_8193_773)">
<mask id="mask1_8193_773" style="mask-type:luminance" maskUnits="userSpaceOnUse" x="0" y="0" width="390" height="430">
<path d="M390 0H0V430H390V0Z" fill="white"/>
</mask>
<g mask="url(#mask1_8193_773)">
<path d="M-100 382.609L195.471 221L489.808 382.609H-100Z" fill="url(#paint0_linear_8193_773)"/>
<mask id="mask2_8193_773" style="mask-type:alpha" maskUnits="userSpaceOnUse" x="11" y="11" width="369" height="410">
<path d="M379.546 11.6016H11V420.778H379.546V11.6016Z" fill="url(#paint1_radial_8193_773)"/>
</mask>
<g mask="url(#mask2_8193_773)">
<path d="M369.236 317.019V116.517L194.723 16.2656L20.2109 116.517V317.019M369.236 317.019L194.723 417.27L20.2109 317.019M369.236 317.019L195.605 221.371M20.2109 317.019L195.605 221.371M195.605 221.371V21.0892M237.138 244.196V50.9819M277.054 266.185V73.0548M322.061 290.978V99.7394M152.814 244.757V50.9818M114.389 265.682V73.121M70.2728 288.621V97.3586M20.887 272.815L195.226 174.161M20.887 224.526L195.226 125.872M20.887 178.087L195.226 79.4323M369.332 273.015L195.993 174.36M369.332 224.942L195.993 125.288M369.332 175.287L195.993 79.6321" stroke="#7E7E7E" stroke-width="0.5"/>
<path d="M195.5 98L293 163.003V265.805L195.5 331L98 265.805M193.363 98L98 163V265.803" stroke="url(#paint2_linear_8193_773)" stroke-width="0.425139"/>
<path d="M196.5 75L305 151.162V271.613L196.5 348L88 271.613M194.123 75L88 151.159V271.611" stroke="url(#paint3_linear_8193_773)" stroke-width="0.425139"/>
<path d="M197 53L316 139.205V275.54L197 362L78 275.54M194.393 53L78 139.201V275.537" stroke="url(#paint4_linear_8193_773)" stroke-width="0.425139"/>
<path d="M196.999 32L329 127.69V279.026L196.999 375L65 279.026M194.108 32L65 127.686V279.023" stroke="url(#paint5_linear_8193_773)" stroke-width="0.425139"/>
<path d="M197 16L341 120.617V286.073L197 391L53 286.073M193.845 16L53 120.613V286.07" stroke="url(#paint6_linear_8193_773)" stroke-width="0.425139"/>
</g>
<path d="M302.531 230.094C303.36 230.094 304.031 229.426 304.031 228.602C304.031 227.778 303.36 227.109 302.531 227.109C301.703 227.109 301.031 227.778 301.031 228.602C301.031 229.426 301.703 230.094 302.531 230.094Z" fill="#707070"/>
<path d="M171.503 63.9269C172.768 63.9269 173.794 62.9009 173.794 61.6353C173.794 60.3696 172.768 59.3438 171.503 59.3438C170.237 59.3438 169.211 60.3696 169.211 61.6353C169.211 62.9009 170.237 63.9269 171.503 63.9269Z" fill="#1C1C1C"/>
<path d="M70.0703 160.974C70.6226 160.974 71.0703 160.529 71.0703 159.979C71.0703 159.43 70.6226 158.984 70.0703 158.984C69.518 158.984 69.0703 159.43 69.0703 159.979C69.0703 160.529 69.518 160.974 70.0703 160.974Z" fill="#00FFA7"/>
<path d="M274.445 86.7478C274.998 86.7478 275.445 86.3023 275.445 85.7528C275.445 85.2033 274.998 84.7578 274.445 84.7578C273.893 84.7578 273.445 85.2033 273.445 85.7528C273.445 86.3023 273.893 86.7478 274.445 86.7478Z" fill="#707070"/>
<path d="M214.344 118.128C215.448 118.128 216.344 117.237 216.344 116.138C216.344 115.039 215.448 114.148 214.344 114.148C213.239 114.148 212.344 115.039 212.344 116.138C212.344 117.237 213.239 118.128 214.344 118.128Z" fill="#1C1C1C"/>
<path d="M143.117 100.962C143.946 100.962 144.617 100.293 144.617 99.4691C144.617 98.6448 143.946 97.9766 143.117 97.9766C142.289 97.9766 141.617 98.6448 141.617 99.4691C141.617 100.293 142.289 100.962 143.117 100.962Z" fill="#1C1C1C"/>
<path d="M107.367 345.006C107.919 345.006 108.367 344.56 108.367 344.011C108.367 343.461 107.919 343.016 107.367 343.016C106.815 343.016 106.367 343.461 106.367 344.011C106.367 344.56 106.815 345.006 107.367 345.006Z" fill="#00FFA7"/>
<path d="M289.611 254.166C291.864 254.166 293.691 252.348 293.691 250.106C293.691 247.864 291.864 246.047 289.611 246.047C287.358 246.047 285.531 247.864 285.531 250.106C285.531 252.348 287.358 254.166 289.611 254.166Z" fill="#1C1C1C"/>
<path d="M95.1263 224.661C96.0719 224.661 96.8385 223.898 96.8385 222.958C96.8385 222.017 96.0719 221.254 95.1263 221.254C94.1806 221.254 93.4141 222.017 93.4141 222.958C93.4141 223.898 94.1806 224.661 95.1263 224.661Z" fill="#1C1C1C"/>
<path d="M294.243 213.454C295.189 213.454 295.956 212.691 295.956 211.751C295.956 210.81 295.189 210.047 294.243 210.047C293.298 210.047 292.531 210.81 292.531 211.751C292.531 212.691 293.298 213.454 294.243 213.454Z" fill="#1C1C1C"/>
<path d="M341.135 300.833C342.401 300.833 343.427 299.807 343.427 298.542C343.427 297.276 342.401 296.25 341.135 296.25C339.87 296.25 338.844 297.276 338.844 298.542C338.844 299.807 339.87 300.833 341.135 300.833Z" fill="#1C1C1C"/>
<path d="M332.708 102.028C333.832 102.028 334.744 101.121 334.744 100.002C334.744 98.8836 333.832 97.9766 332.708 97.9766C331.583 97.9766 330.672 98.8836 330.672 100.002C330.672 101.121 331.583 102.028 332.708 102.028Z" fill="#1C1C1C"/>
<path d="M276.477 347.045C277.029 347.045 277.477 346.599 277.477 346.05C277.477 345.5 277.029 345.055 276.477 345.055C275.924 345.055 275.477 345.5 275.477 346.05C275.477 346.599 275.924 347.045 276.477 347.045Z" fill="#00FFA7"/>
<path d="M151.297 138.587C152.125 138.587 152.797 137.918 152.797 137.094C152.797 136.27 152.125 135.602 151.297 135.602C150.468 135.602 149.797 136.27 149.797 137.094C149.797 137.918 150.468 138.587 151.297 138.587Z" fill="#707070"/>
<path d="M86.4141 321.631C86.9663 321.631 87.4141 321.185 87.4141 320.636C87.4141 320.086 86.9663 319.641 86.4141 319.641C85.8618 319.641 85.4141 320.086 85.4141 320.636C85.4141 321.185 85.8618 321.631 86.4141 321.631Z" fill="#1C1C1C"/>
<path d="M226.938 68.4716C227.213 68.4716 227.438 68.2488 227.438 67.9741C227.438 67.6993 227.213 67.4766 226.938 67.4766C226.66 67.4766 226.438 67.6993 226.438 67.9741C226.438 68.2488 226.66 68.4716 226.938 68.4716Z" fill="#707070"/>
<path d="M225.922 112.201C227.329 112.201 228.469 111.067 228.469 109.667C228.469 108.267 227.329 107.133 225.922 107.133C224.515 107.133 223.375 108.267 223.375 109.667C223.375 111.067 224.515 112.201 225.922 112.201Z" fill="#1C1C1C"/>
<path d="M238.692 142.7C239.817 142.7 240.728 141.793 240.728 140.674C240.728 139.555 239.817 138.648 238.692 138.648C237.568 138.648 236.656 139.555 236.656 140.674C236.656 141.793 237.568 142.7 238.692 142.7Z" fill="#1C1C1C"/>
<path d="M35.3203 252.482C35.8726 252.482 36.3203 252.037 36.3203 251.487C36.3203 250.938 35.8726 250.492 35.3203 250.492C34.768 250.492 34.3203 250.938 34.3203 251.487C34.3203 252.037 34.768 252.482 35.3203 252.482Z" fill="#707070"/>
<path d="M84.7266 92.2478C85.2788 92.2478 85.7266 91.8023 85.7266 91.2528C85.7266 90.7033 85.2788 90.2578 84.7266 90.2578C84.1743 90.2578 83.7266 90.7033 83.7266 91.2528C83.7266 91.8023 84.1743 92.2478 84.7266 92.2478Z" fill="#00FFA7"/>
<path d="M53.7448 313.036C55.0104 313.036 56.0364 312.01 56.0364 310.745C56.0364 309.479 55.0104 308.453 53.7448 308.453C52.4791 308.453 51.4531 309.479 51.4531 310.745C51.4531 312.01 52.4791 313.036 53.7448 313.036Z" fill="#1C1C1C"/>
<path d="M252.641 56.9197C253.193 56.9197 253.641 56.4742 253.641 55.9247C253.641 55.3752 253.193 54.9297 252.641 54.9297C252.088 54.9297 251.641 55.3752 251.641 55.9247C251.641 56.4742 252.088 56.9197 252.641 56.9197Z" fill="#00FFA7"/>
<mask id="mask3_8193_773" style="mask-type:alpha" maskUnits="userSpaceOnUse" x="114" y="171" width="82" height="142">
<path d="M195.784 218.791L114.656 171.969L115.043 265.295L195.784 312.08V218.791Z" fill="url(#paint7_linear_8193_773)"/>
</mask>
<g mask="url(#mask3_8193_773)">
<path d="M195.784 218.791L114.656 171.969L115.043 265.295L195.784 312.08V218.791Z" fill="#232323"/>
</g>
<mask id="mask4_8193_773" style="mask-type:alpha" maskUnits="userSpaceOnUse" x="195" y="171" width="82" height="142">
<path d="M195.555 218.785L276.724 171.789V265.199L195.912 312.273L195.555 218.785Z" fill="url(#paint8_linear_8193_773)"/>
</mask>
<g mask="url(#mask4_8193_773)">
<path d="M195.555 218.785L276.724 171.789V265.199L195.912 312.273L195.555 218.785Z" fill="#1C1C1C"/>
</g>
<mask id="mask5_8193_773" style="mask-type:alpha" maskUnits="userSpaceOnUse" x="115" y="126" width="161" height="93">
<path d="M195.76 218.777L115.312 172.379L195.637 126.004L275.464 172.104L195.76 218.777Z" fill="url(#paint9_linear_8193_773)"/>
</mask>
<g mask="url(#mask5_8193_773)">
<path d="M195.76 218.777L115.312 172.379L195.637 126.004L275.464 172.104L195.76 218.777Z" fill="#242424" fill-opacity="0.87"/>
</g>
<path opacity="0.3" d="M195.916 125.344L276.777 172.029V265.399L195.916 312.084L115.055 265.399V172.029L195.916 125.344Z" stroke="#3FCF8E"/>
<g filter="url(#filter0_f_8193_773)">
<path d="M195.555 125.711L276.257 172.305V265.492L195.555 312.086L114.852 265.492V172.305L195.555 125.711Z" stroke="#3FCF8E" stroke-opacity="0.64" stroke-width="1.48" stroke-linejoin="bevel"/>
</g>
</g>
</g>
</g>
<defs>
<filter id="filter0_f_8193_773" x="107.229" y="118.19" width="176.651" height="201.416" filterUnits="userSpaceOnUse" color-interpolation-filters="sRGB">
<feFlood flood-opacity="0" result="BackgroundImageFix"/>
<feBlend mode="normal" in="SourceGraphic" in2="BackgroundImageFix" result="shape"/>
<feGaussianBlur stdDeviation="3.44" result="effect1_foregroundBlur_8193_773"/>
</filter>
<linearGradient id="paint0_linear_8193_773" x1="193.48" y1="263.052" x2="193.48" y2="317.177" gradientUnits="userSpaceOnUse">
<stop stop-color="white" stop-opacity="0.1"/>
<stop offset="1" stop-color="#5D6167" stop-opacity="0"/>
</linearGradient>
<radialGradient id="paint1_radial_8193_773" cx="0" cy="0" r="1" gradientUnits="userSpaceOnUse" gradientTransform="translate(195.273 216.19) rotate(90) scale(174.952 157.579)">
<stop stop-color="white"/>
<stop offset="1" stop-color="white" stop-opacity="0"/>
</radialGradient>
<linearGradient id="paint2_linear_8193_773" x1="233.666" y1="338.601" x2="233.666" y2="170.825" gradientUnits="userSpaceOnUse">
<stop stop-color="#375965" stop-opacity="0"/>
<stop offset="0.494792" stop-color="#7AFFDF"/>
<stop offset="1" stop-color="#375965" stop-opacity="0"/>
</linearGradient>
<linearGradient id="paint3_linear_8193_773" x1="238.972" y1="356.906" x2="238.972" y2="160.328" gradientUnits="userSpaceOnUse">
<stop stop-color="#375965" stop-opacity="0"/>
<stop offset="0.494792" stop-color="#7AFFDF"/>
<stop offset="1" stop-color="#375965" stop-opacity="0"/>
</linearGradient>
<linearGradient id="paint4_linear_8193_773" x1="243.583" y1="372.08" x2="243.583" y2="149.58" gradientUnits="userSpaceOnUse">
<stop stop-color="#375965" stop-opacity="0"/>
<stop offset="0.494792" stop-color="#7AFFDF"/>
<stop offset="1" stop-color="#375965" stop-opacity="0"/>
</linearGradient>
<linearGradient id="paint5_linear_8193_773" x1="248.671" y1="386.189" x2="248.671" y2="139.207" gradientUnits="userSpaceOnUse">
<stop stop-color="#375965" stop-opacity="0"/>
<stop offset="0.494792" stop-color="#7AFFDF"/>
<stop offset="1" stop-color="#375965" stop-opacity="0"/>
</linearGradient>
<linearGradient id="paint6_linear_8193_773" x1="253.37" y1="403.233" x2="253.37" y2="133.209" gradientUnits="userSpaceOnUse">
<stop stop-color="#375965" stop-opacity="0"/>
<stop offset="0.494792" stop-color="#7AFFDF"/>
<stop offset="1" stop-color="#375965" stop-opacity="0"/>
</linearGradient>
<linearGradient id="paint7_linear_8193_773" x1="128.421" y1="249.972" x2="209.845" y2="209.26" gradientUnits="userSpaceOnUse">
<stop stop-color="white"/>
<stop offset="1" stop-color="white" stop-opacity="0"/>
</linearGradient>
<linearGradient id="paint8_linear_8193_773" x1="236.139" y1="171.789" x2="236.139" y2="312.273" gradientUnits="userSpaceOnUse">
<stop stop-color="white"/>
<stop offset="1" stop-color="white" stop-opacity="0"/>
</linearGradient>
<linearGradient id="paint9_linear_8193_773" x1="154.809" y1="163.274" x2="243.02" y2="203.986" gradientUnits="userSpaceOnUse">
<stop stop-color="white"/>
<stop offset="1" stop-color="white" stop-opacity="0"/>
</linearGradient>
<clipPath id="clip0_8193_773">
<rect width="390" height="430" fill="white"/>
</clipPath>
</defs>
</svg>
