<svg width="390" height="430" viewBox="0 0 390 430" fill="none" xmlns="http://www.w3.org/2000/svg">
<mask id="mask0_8196_3508" style="mask-type:luminance" maskUnits="userSpaceOnUse" x="41" y="45" width="309" height="340">
<path d="M349.372 45H41V385H349.372V45Z" fill="white"/>
</mask>
<g mask="url(#mask0_8196_3508)">
<mask id="mask1_8196_3508" style="mask-type:luminance" maskUnits="userSpaceOnUse" x="41" y="45" width="309" height="340">
<path d="M349.372 45H41V385H349.372V45Z" fill="white"/>
</mask>
<g mask="url(#mask1_8196_3508)">
<mask id="mask2_8196_3508" style="mask-type:luminance" maskUnits="userSpaceOnUse" x="41" y="45" width="309" height="340">
<path d="M349.372 45H41V385H349.372V45Z" fill="white"/>
</mask>
<g mask="url(#mask2_8196_3508)">
<path d="M-38.0703 347.529L195.558 219.745L428.289 347.529H-38.0703Z" fill="url(#paint0_linear_8196_3508)"/>
<mask id="mask3_8196_3508" style="mask-type:alpha" maskUnits="userSpaceOnUse" x="49" y="54" width="293" height="324">
<path d="M341.112 54.1748H49.7031V377.71H341.112V54.1748Z" fill="url(#paint1_radial_8196_3508)"/>
</mask>
<g mask="url(#mask3_8196_3508)">
<path d="M332.95 295.667V137.131L194.963 57.8623L56.9766 137.131V295.667M332.95 295.667L194.963 374.936L56.9766 295.667M332.95 295.667L195.66 220.039M56.9766 295.667L195.66 220.039M195.66 220.039V61.6763M228.5 238.086V85.3124M260.062 255.473V102.765M295.649 275.077V123.865M161.826 238.53V85.3123M131.443 255.075V102.818M96.5604 273.213V121.982M57.5112 260.715L195.361 182.71M57.5112 222.533L195.361 144.528M57.5112 185.814L195.361 107.808M333.026 260.873L195.967 182.867M333.026 222.862L195.967 144.066M333.026 183.6L195.967 107.966" stroke="#7E7E7E" stroke-width="0.5"/>
<path d="M195.577 122.489L272.67 173.887V255.172L195.577 306.722L118.484 255.172M193.888 122.489L118.484 173.885V255.171" stroke="url(#paint2_linear_8196_3508)" stroke-width="0.425139"/>
<path d="M196.369 104.304L282.16 164.525V259.765L196.369 320.164L110.578 259.765M194.489 104.304L110.578 164.522V259.764" stroke="url(#paint3_linear_8196_3508)" stroke-width="0.425139"/>
<path d="M196.765 86.9082L290.858 155.07V262.87L196.765 331.234L102.672 262.87M194.704 86.9082L102.672 155.067V262.868" stroke="url(#paint4_linear_8196_3508)" stroke-width="0.425139"/>
<path d="M196.762 70.3037L301.135 145.966V265.627L196.762 341.513L92.3906 265.627M194.476 70.3037L92.3906 145.962V265.624" stroke="url(#paint5_linear_8196_3508)" stroke-width="0.425139"/>
<path d="M196.767 57.6523L310.627 140.373V271.198L196.767 354.164L82.9062 271.198M194.272 57.6523L82.9062 140.37V271.196" stroke="url(#paint6_linear_8196_3508)" stroke-width="0.425139"/>
</g>
<path d="M280.209 226.935C280.865 226.935 281.396 226.407 281.396 225.756C281.396 225.104 280.865 224.575 280.209 224.575C279.555 224.575 279.023 225.104 279.023 225.756C279.023 226.407 279.555 226.935 280.209 226.935Z" fill="#707070"/>
<path d="M176.609 95.5477C177.609 95.5477 178.421 94.7364 178.421 93.7357C178.421 92.7349 177.609 91.9238 176.609 91.9238C175.608 91.9238 174.797 92.7349 174.797 93.7357C174.797 94.7364 175.608 95.5477 176.609 95.5477Z" fill="#1C1C1C"/>
<path d="M96.4001 172.282C96.8368 172.282 97.1908 171.931 97.1908 171.496C97.1908 171.062 96.8368 170.709 96.4001 170.709C95.9634 170.709 95.6094 171.062 95.6094 171.496C95.6094 171.931 95.9634 172.282 96.4001 172.282Z" fill="#00FFA7"/>
<path d="M258.002 113.592C258.439 113.592 258.792 113.24 258.792 112.805C258.792 112.371 258.439 112.019 258.002 112.019C257.565 112.019 257.211 112.371 257.211 112.805C257.211 113.24 257.565 113.592 258.002 113.592Z" fill="#707070"/>
<path d="M210.48 138.405C211.353 138.405 212.061 137.7 212.061 136.831C212.061 135.962 211.353 135.258 210.48 135.258C209.606 135.258 208.898 135.962 208.898 136.831C208.898 137.7 209.606 138.405 210.48 138.405Z" fill="#1C1C1C"/>
<path d="M154.163 124.831C154.818 124.831 155.349 124.302 155.349 123.651C155.349 122.999 154.818 122.471 154.163 122.471C153.508 122.471 152.977 122.999 152.977 123.651C152.977 124.302 153.508 124.831 154.163 124.831Z" fill="#1C1C1C"/>
<path d="M125.892 317.796C126.329 317.796 126.683 317.443 126.683 317.009C126.683 316.575 126.329 316.223 125.892 316.223C125.456 316.223 125.102 316.575 125.102 317.009C125.102 317.443 125.456 317.796 125.892 317.796Z" fill="#00FFA7"/>
<path d="M269.992 245.969C271.773 245.969 273.218 244.531 273.218 242.758C273.218 240.986 271.773 239.549 269.992 239.549C268.21 239.549 266.766 240.986 266.766 242.758C266.766 244.531 268.21 245.969 269.992 245.969Z" fill="#1C1C1C"/>
<path d="M116.213 222.639C116.961 222.639 117.567 222.036 117.567 221.293C117.567 220.549 116.961 219.945 116.213 219.945C115.465 219.945 114.859 220.549 114.859 221.293C114.859 222.036 115.465 222.639 116.213 222.639Z" fill="#1C1C1C"/>
<path d="M273.658 213.778C274.406 213.778 275.013 213.175 275.013 212.431C275.013 211.687 274.406 211.084 273.658 211.084C272.911 211.084 272.305 211.687 272.305 212.431C272.305 213.175 272.911 213.778 273.658 213.778Z" fill="#1C1C1C"/>
<path d="M310.733 282.869C311.734 282.869 312.546 282.058 312.546 281.057C312.546 280.056 311.734 279.245 310.733 279.245C309.733 279.245 308.922 280.056 308.922 281.057C308.922 282.058 309.733 282.869 310.733 282.869Z" fill="#1C1C1C"/>
<path d="M304.071 125.674C304.96 125.674 305.681 124.957 305.681 124.072C305.681 123.188 304.96 122.471 304.071 122.471C303.181 122.471 302.461 123.188 302.461 124.072C302.461 124.957 303.181 125.674 304.071 125.674Z" fill="#1C1C1C"/>
<path d="M259.611 319.407C260.047 319.407 260.402 319.055 260.402 318.621C260.402 318.186 260.047 317.834 259.611 317.834C259.174 317.834 258.82 318.186 258.82 318.621C258.82 319.055 259.174 319.407 259.611 319.407Z" fill="#00FFA7"/>
<path d="M160.631 154.581C161.286 154.581 161.817 154.052 161.817 153.4C161.817 152.749 161.286 152.221 160.631 152.221C159.976 152.221 159.445 152.749 159.445 153.4C159.445 154.052 159.976 154.581 160.631 154.581Z" fill="#707070"/>
<path d="M109.33 299.313C109.766 299.313 110.12 298.96 110.12 298.526C110.12 298.091 109.766 297.739 109.33 297.739C108.893 297.739 108.539 298.091 108.539 298.526C108.539 298.96 108.893 299.313 109.33 299.313Z" fill="#1C1C1C"/>
<path d="M220.442 99.1412C220.66 99.1412 220.838 98.9651 220.838 98.7479C220.838 98.5306 220.66 98.3545 220.442 98.3545C220.222 98.3545 220.047 98.5306 220.047 98.7479C220.047 98.9651 220.222 99.1412 220.442 99.1412Z" fill="#707070"/>
<path d="M219.639 133.717C220.751 133.717 221.653 132.821 221.653 131.714C221.653 130.607 220.751 129.71 219.639 129.71C218.526 129.71 217.625 130.607 217.625 131.714C217.625 132.821 218.526 133.717 219.639 133.717Z" fill="#1C1C1C"/>
<path d="M229.735 157.834C230.624 157.834 231.345 157.117 231.345 156.232C231.345 155.347 230.624 154.63 229.735 154.63C228.846 154.63 228.125 155.347 228.125 156.232C228.125 157.117 228.846 157.834 229.735 157.834Z" fill="#1C1C1C"/>
<path d="M68.9235 244.638C69.3602 244.638 69.7142 244.286 69.7142 243.851C69.7142 243.417 69.3602 243.064 68.9235 243.064C68.4868 243.064 68.1328 243.417 68.1328 243.851C68.1328 244.286 68.4868 244.638 68.9235 244.638Z" fill="#707070"/>
<path d="M107.994 117.941C108.43 117.941 108.785 117.588 108.785 117.154C108.785 116.719 108.43 116.367 107.994 116.367C107.557 116.367 107.203 116.719 107.203 117.154C107.203 117.588 107.557 117.941 107.994 117.941Z" fill="#00FFA7"/>
<path d="M83.4917 292.517C84.4924 292.517 85.3037 291.706 85.3037 290.706C85.3037 289.705 84.4924 288.894 83.4917 288.894C82.4909 288.894 81.6797 289.705 81.6797 290.706C81.6797 291.706 82.4909 292.517 83.4917 292.517Z" fill="#1C1C1C"/>
<path d="M240.759 90.0071C241.196 90.0071 241.55 89.6548 241.55 89.2203C241.55 88.7859 241.196 88.4336 240.759 88.4336C240.322 88.4336 239.969 88.7859 239.969 89.2203C239.969 89.6548 240.322 90.0071 240.759 90.0071Z" fill="#00FFA7"/>
<mask id="mask4_8196_3508" style="mask-type:alpha" maskUnits="userSpaceOnUse" x="131" y="180" width="65" height="112">
<path d="M195.812 217.998L131.664 180.976L131.97 254.768L195.812 291.761V217.998Z" fill="url(#paint7_linear_8196_3508)"/>
</mask>
<g mask="url(#mask4_8196_3508)">
<path d="M195.812 217.998L131.664 180.976L131.97 254.768L195.812 291.761V217.998Z" fill="#232323"/>
</g>
<mask id="mask5_8196_3508" style="mask-type:alpha" maskUnits="userSpaceOnUse" x="195" y="180" width="65" height="112">
<path d="M195.625 217.994L259.805 180.834V254.693L195.907 291.914L195.625 217.994Z" fill="url(#paint8_linear_8196_3508)"/>
</mask>
<g mask="url(#mask5_8196_3508)">
<path d="M195.625 217.994L259.805 180.834V254.693L195.907 291.914L195.625 217.994Z" fill="#1C1C1C"/>
</g>
<mask id="mask6_8196_3508" style="mask-type:alpha" maskUnits="userSpaceOnUse" x="132" y="144" width="127" height="74">
<path d="M195.782 217.987L132.172 181.3L195.685 144.632L258.804 181.083L195.782 217.987Z" fill="url(#paint9_linear_8196_3508)"/>
</mask>
<g mask="url(#mask6_8196_3508)">
<path d="M195.782 217.987L132.172 181.3L195.685 144.632L258.804 181.083L195.782 217.987Z" fill="#242424" fill-opacity="0.87"/>
</g>
<path opacity="0.3" d="M195.913 144.109L259.85 181.023V254.851L195.913 291.764L131.977 254.851V181.023L195.913 144.109Z" stroke="#3FCF8E"/>
<g filter="url(#filter0_f_8196_3508)">
<path d="M195.624 144.399L259.435 181.241V254.924L195.624 291.766L131.812 254.924V181.241L195.624 144.399Z" stroke="#3FCF8E" stroke-opacity="0.64" stroke-width="1.48" stroke-linejoin="bevel"/>
</g>
</g>
</g>
</g>
<defs>
<filter id="filter0_f_8196_3508" x="124.19" y="136.879" width="142.862" height="162.407" filterUnits="userSpaceOnUse" color-interpolation-filters="sRGB">
<feFlood flood-opacity="0" result="BackgroundImageFix"/>
<feBlend mode="normal" in="SourceGraphic" in2="BackgroundImageFix" result="shape"/>
<feGaussianBlur stdDeviation="3.44" result="effect1_foregroundBlur_8196_3508"/>
</filter>
<linearGradient id="paint0_linear_8196_3508" x1="193.984" y1="252.996" x2="193.984" y2="295.792" gradientUnits="userSpaceOnUse">
<stop stop-color="white" stop-opacity="0.1"/>
<stop offset="1" stop-color="#5D6167" stop-opacity="0"/>
</linearGradient>
<radialGradient id="paint1_radial_8196_3508" cx="0" cy="0" r="1" gradientUnits="userSpaceOnUse" gradientTransform="translate(195.407 215.942) rotate(90) scale(138.334 124.597)">
<stop stop-color="white"/>
<stop offset="1" stop-color="white" stop-opacity="0"/>
</radialGradient>
<linearGradient id="paint2_linear_8196_3508" x1="225.755" y1="312.732" x2="225.755" y2="180.072" gradientUnits="userSpaceOnUse">
<stop stop-color="#375965" stop-opacity="0"/>
<stop offset="0.494792" stop-color="#7AFFDF"/>
<stop offset="1" stop-color="#375965" stop-opacity="0"/>
</linearGradient>
<linearGradient id="paint3_linear_8196_3508" x1="229.951" y1="327.206" x2="229.951" y2="171.772" gradientUnits="userSpaceOnUse">
<stop stop-color="#375965" stop-opacity="0"/>
<stop offset="0.494792" stop-color="#7AFFDF"/>
<stop offset="1" stop-color="#375965" stop-opacity="0"/>
</linearGradient>
<linearGradient id="paint4_linear_8196_3508" x1="233.598" y1="339.204" x2="233.598" y2="163.274" gradientUnits="userSpaceOnUse">
<stop stop-color="#375965" stop-opacity="0"/>
<stop offset="0.494792" stop-color="#7AFFDF"/>
<stop offset="1" stop-color="#375965" stop-opacity="0"/>
</linearGradient>
<linearGradient id="paint5_linear_8196_3508" x1="237.619" y1="350.36" x2="237.619" y2="155.072" gradientUnits="userSpaceOnUse">
<stop stop-color="#375965" stop-opacity="0"/>
<stop offset="0.494792" stop-color="#7AFFDF"/>
<stop offset="1" stop-color="#375965" stop-opacity="0"/>
</linearGradient>
<linearGradient id="paint6_linear_8196_3508" x1="241.338" y1="363.837" x2="241.338" y2="150.329" gradientUnits="userSpaceOnUse">
<stop stop-color="#375965" stop-opacity="0"/>
<stop offset="0.494792" stop-color="#7AFFDF"/>
<stop offset="1" stop-color="#375965" stop-opacity="0"/>
</linearGradient>
<linearGradient id="paint7_linear_8196_3508" x1="142.548" y1="242.652" x2="206.93" y2="210.461" gradientUnits="userSpaceOnUse">
<stop stop-color="white"/>
<stop offset="1" stop-color="white" stop-opacity="0"/>
</linearGradient>
<linearGradient id="paint8_linear_8196_3508" x1="227.715" y1="180.834" x2="227.715" y2="291.914" gradientUnits="userSpaceOnUse">
<stop stop-color="white"/>
<stop offset="1" stop-color="white" stop-opacity="0"/>
</linearGradient>
<linearGradient id="paint9_linear_8196_3508" x1="163.402" y1="174.101" x2="233.15" y2="206.292" gradientUnits="userSpaceOnUse">
<stop stop-color="white"/>
<stop offset="1" stop-color="white" stop-opacity="0"/>
</linearGradient>
</defs>
</svg>
